<?xml version="1.0" encoding="utf-8"?>
<svg xmlns="http://www.w3.org/2000/svg" xmlns:xlink="http://www.w3.org/1999/xlink" width="600" height="400" viewBox="0 0 2400 1600">
<defs>
  <clipPath id="clip370">
    <rect x="0" y="0" width="2400" height="1600"/>
  </clipPath>
</defs>
<path clip-path="url(#clip370)" d="
M0 1600 L2400 1600 L2400 0 L0 0  Z
  " fill="#ffffff" fill-rule="evenodd" fill-opacity="1"/>
<defs>
  <clipPath id="clip371">
    <rect x="480" y="0" width="1681" height="1600"/>
  </clipPath>
</defs>
<path clip-path="url(#clip370)" d="
M309.866 1423.18 L2352.76 1423.18 L2352.76 123.472 L309.866 123.472  Z
  " fill="#ffffff" fill-rule="evenodd" fill-opacity="1"/>
<defs>
  <clipPath id="clip372">
    <rect x="309" y="123" width="2044" height="1301"/>
  </clipPath>
</defs>
<polyline clip-path="url(#clip372)" style="stroke:#000000; stroke-linecap:round; stroke-linejoin:round; stroke-width:2; stroke-opacity:0.1; fill:none" points="
  309.866,1423.18 309.866,123.472 
  "/>
<polyline clip-path="url(#clip372)" style="stroke:#000000; stroke-linecap:round; stroke-linejoin:round; stroke-width:2; stroke-opacity:0.1; fill:none" points="
  514.155,1423.18 514.155,123.472 
  "/>
<polyline clip-path="url(#clip372)" style="stroke:#000000; stroke-linecap:round; stroke-linejoin:round; stroke-width:2; stroke-opacity:0.1; fill:none" points="
  718.444,1423.18 718.444,123.472 
  "/>
<polyline clip-path="url(#clip372)" style="stroke:#000000; stroke-linecap:round; stroke-linejoin:round; stroke-width:2; stroke-opacity:0.1; fill:none" points="
  922.733,1423.18 922.733,123.472 
  "/>
<polyline clip-path="url(#clip372)" style="stroke:#000000; stroke-linecap:round; stroke-linejoin:round; stroke-width:2; stroke-opacity:0.1; fill:none" points="
  1127.02,1423.18 1127.02,123.472 
  "/>
<polyline clip-path="url(#clip372)" style="stroke:#000000; stroke-linecap:round; stroke-linejoin:round; stroke-width:2; stroke-opacity:0.1; fill:none" points="
  1331.31,1423.18 1331.31,123.472 
  "/>
<polyline clip-path="url(#clip372)" style="stroke:#000000; stroke-linecap:round; stroke-linejoin:round; stroke-width:2; stroke-opacity:0.1; fill:none" points="
  1535.6,1423.18 1535.6,123.472 
  "/>
<polyline clip-path="url(#clip372)" style="stroke:#000000; stroke-linecap:round; stroke-linejoin:round; stroke-width:2; stroke-opacity:0.1; fill:none" points="
  1739.89,1423.18 1739.89,123.472 
  "/>
<polyline clip-path="url(#clip372)" style="stroke:#000000; stroke-linecap:round; stroke-linejoin:round; stroke-width:2; stroke-opacity:0.1; fill:none" points="
  1944.18,1423.18 1944.18,123.472 
  "/>
<polyline clip-path="url(#clip372)" style="stroke:#000000; stroke-linecap:round; stroke-linejoin:round; stroke-width:2; stroke-opacity:0.1; fill:none" points="
  2148.47,1423.18 2148.47,123.472 
  "/>
<polyline clip-path="url(#clip372)" style="stroke:#000000; stroke-linecap:round; stroke-linejoin:round; stroke-width:2; stroke-opacity:0.1; fill:none" points="
  2352.76,1423.18 2352.76,123.472 
  "/>
<polyline clip-path="url(#clip370)" style="stroke:#000000; stroke-linecap:round; stroke-linejoin:round; stroke-width:4; stroke-opacity:1; fill:none" points="
  309.866,1423.18 2352.76,1423.18 
  "/>
<polyline clip-path="url(#clip370)" style="stroke:#000000; stroke-linecap:round; stroke-linejoin:round; stroke-width:4; stroke-opacity:1; fill:none" points="
  309.866,1423.18 309.866,1404.28 
  "/>
<polyline clip-path="url(#clip370)" style="stroke:#000000; stroke-linecap:round; stroke-linejoin:round; stroke-width:4; stroke-opacity:1; fill:none" points="
  514.155,1423.18 514.155,1404.28 
  "/>
<polyline clip-path="url(#clip370)" style="stroke:#000000; stroke-linecap:round; stroke-linejoin:round; stroke-width:4; stroke-opacity:1; fill:none" points="
  718.444,1423.18 718.444,1404.28 
  "/>
<polyline clip-path="url(#clip370)" style="stroke:#000000; stroke-linecap:round; stroke-linejoin:round; stroke-width:4; stroke-opacity:1; fill:none" points="
  922.733,1423.18 922.733,1404.28 
  "/>
<polyline clip-path="url(#clip370)" style="stroke:#000000; stroke-linecap:round; stroke-linejoin:round; stroke-width:4; stroke-opacity:1; fill:none" points="
  1127.02,1423.18 1127.02,1404.28 
  "/>
<polyline clip-path="url(#clip370)" style="stroke:#000000; stroke-linecap:round; stroke-linejoin:round; stroke-width:4; stroke-opacity:1; fill:none" points="
  1331.31,1423.18 1331.31,1404.28 
  "/>
<polyline clip-path="url(#clip370)" style="stroke:#000000; stroke-linecap:round; stroke-linejoin:round; stroke-width:4; stroke-opacity:1; fill:none" points="
  1535.6,1423.18 1535.6,1404.28 
  "/>
<polyline clip-path="url(#clip370)" style="stroke:#000000; stroke-linecap:round; stroke-linejoin:round; stroke-width:4; stroke-opacity:1; fill:none" points="
  1739.89,1423.18 1739.89,1404.28 
  "/>
<polyline clip-path="url(#clip370)" style="stroke:#000000; stroke-linecap:round; stroke-linejoin:round; stroke-width:4; stroke-opacity:1; fill:none" points="
  1944.18,1423.18 1944.18,1404.28 
  "/>
<polyline clip-path="url(#clip370)" style="stroke:#000000; stroke-linecap:round; stroke-linejoin:round; stroke-width:4; stroke-opacity:1; fill:none" points="
  2148.47,1423.18 2148.47,1404.28 
  "/>
<polyline clip-path="url(#clip370)" style="stroke:#000000; stroke-linecap:round; stroke-linejoin:round; stroke-width:4; stroke-opacity:1; fill:none" points="
  2352.76,1423.18 2352.76,1404.28 
  "/>
<path clip-path="url(#clip370)" d="M309.866 1454.1 Q306.255 1454.1 304.426 1457.66 Q302.62 1461.2 302.62 1468.33 Q302.62 1475.44 304.426 1479.01 Q306.255 1482.55 309.866 1482.55 Q313.5 1482.55 315.306 1479.01 Q317.134 1475.44 317.134 1468.33 Q317.134 1461.2 315.306 1457.66 Q313.5 1454.1 309.866 1454.1 M309.866 1450.39 Q315.676 1450.39 318.731 1455 Q321.81 1459.58 321.81 1468.33 Q321.81 1477.06 318.731 1481.67 Q315.676 1486.25 309.866 1486.25 Q304.056 1486.25 300.977 1481.67 Q297.921 1477.06 297.921 1468.33 Q297.921 1459.58 300.977 1455 Q304.056 1450.39 309.866 1450.39 Z" fill="#000000" fill-rule="evenodd" fill-opacity="1" /><path clip-path="url(#clip370)" d="M504.433 1451.02 L522.789 1451.02 L522.789 1454.96 L508.715 1454.96 L508.715 1463.43 Q509.734 1463.08 510.752 1462.92 Q511.771 1462.73 512.789 1462.73 Q518.576 1462.73 521.956 1465.9 Q525.335 1469.08 525.335 1474.49 Q525.335 1480.07 521.863 1483.17 Q518.391 1486.25 512.071 1486.25 Q509.896 1486.25 507.627 1485.88 Q505.382 1485.51 502.974 1484.77 L502.974 1480.07 Q505.058 1481.2 507.28 1481.76 Q509.502 1482.32 511.979 1482.32 Q515.983 1482.32 518.321 1480.21 Q520.659 1478.1 520.659 1474.49 Q520.659 1470.88 518.321 1468.77 Q515.983 1466.67 511.979 1466.67 Q510.104 1466.67 508.229 1467.08 Q506.377 1467.5 504.433 1468.38 L504.433 1451.02 Z" fill="#000000" fill-rule="evenodd" fill-opacity="1" /><path clip-path="url(#clip370)" d="M693.131 1481.64 L700.77 1481.64 L700.77 1455.28 L692.46 1456.95 L692.46 1452.69 L700.724 1451.02 L705.4 1451.02 L705.4 1481.64 L713.039 1481.64 L713.039 1485.58 L693.131 1485.58 L693.131 1481.64 Z" fill="#000000" fill-rule="evenodd" fill-opacity="1" /><path clip-path="url(#clip370)" d="M732.483 1454.1 Q728.872 1454.1 727.043 1457.66 Q725.238 1461.2 725.238 1468.33 Q725.238 1475.44 727.043 1479.01 Q728.872 1482.55 732.483 1482.55 Q736.117 1482.55 737.923 1479.01 Q739.752 1475.44 739.752 1468.33 Q739.752 1461.2 737.923 1457.66 Q736.117 1454.1 732.483 1454.1 M732.483 1450.39 Q738.293 1450.39 741.349 1455 Q744.427 1459.58 744.427 1468.33 Q744.427 1477.06 741.349 1481.67 Q738.293 1486.25 732.483 1486.25 Q726.673 1486.25 723.594 1481.67 Q720.539 1477.06 720.539 1468.33 Q720.539 1459.58 723.594 1455 Q726.673 1450.39 732.483 1450.39 Z" fill="#000000" fill-rule="evenodd" fill-opacity="1" /><path clip-path="url(#clip370)" d="M897.918 1481.64 L905.557 1481.64 L905.557 1455.28 L897.247 1456.95 L897.247 1452.69 L905.511 1451.02 L910.187 1451.02 L910.187 1481.64 L917.825 1481.64 L917.825 1485.58 L897.918 1485.58 L897.918 1481.64 Z" fill="#000000" fill-rule="evenodd" fill-opacity="1" /><path clip-path="url(#clip370)" d="M927.316 1451.02 L945.673 1451.02 L945.673 1454.96 L931.599 1454.96 L931.599 1463.43 Q932.617 1463.08 933.636 1462.92 Q934.654 1462.73 935.673 1462.73 Q941.46 1462.73 944.839 1465.9 Q948.219 1469.08 948.219 1474.49 Q948.219 1480.07 944.747 1483.17 Q941.274 1486.25 934.955 1486.25 Q932.779 1486.25 930.511 1485.88 Q928.265 1485.51 925.858 1484.77 L925.858 1480.07 Q927.941 1481.2 930.163 1481.76 Q932.386 1482.32 934.862 1482.32 Q938.867 1482.32 941.205 1480.21 Q943.543 1478.1 943.543 1474.49 Q943.543 1470.88 941.205 1468.77 Q938.867 1466.67 934.862 1466.67 Q932.987 1466.67 931.112 1467.08 Q929.261 1467.5 927.316 1468.38 L927.316 1451.02 Z" fill="#000000" fill-rule="evenodd" fill-opacity="1" /><path clip-path="url(#clip370)" d="M1105.8 1481.64 L1122.11 1481.64 L1122.11 1485.58 L1100.17 1485.58 L1100.17 1481.64 Q1102.83 1478.89 1107.42 1474.26 Q1112.02 1469.61 1113.2 1468.27 Q1115.45 1465.74 1116.33 1464.01 Q1117.23 1462.25 1117.23 1460.56 Q1117.23 1457.8 1115.29 1456.07 Q1113.36 1454.33 1110.26 1454.33 Q1108.06 1454.33 1105.61 1455.09 Q1103.18 1455.86 1100.4 1457.41 L1100.4 1452.69 Q1103.23 1451.55 1105.68 1450.97 Q1108.13 1450.39 1110.17 1450.39 Q1115.54 1450.39 1118.73 1453.08 Q1121.93 1455.77 1121.93 1460.26 Q1121.93 1462.39 1121.12 1464.31 Q1120.33 1466.2 1118.23 1468.8 Q1117.65 1469.47 1114.55 1472.69 Q1111.44 1475.88 1105.8 1481.64 Z" fill="#000000" fill-rule="evenodd" fill-opacity="1" /><path clip-path="url(#clip370)" d="M1141.93 1454.1 Q1138.32 1454.1 1136.49 1457.66 Q1134.68 1461.2 1134.68 1468.33 Q1134.68 1475.44 1136.49 1479.01 Q1138.32 1482.55 1141.93 1482.55 Q1145.56 1482.55 1147.37 1479.01 Q1149.2 1475.44 1149.2 1468.33 Q1149.2 1461.2 1147.37 1457.66 Q1145.56 1454.1 1141.93 1454.1 M1141.93 1450.39 Q1147.74 1450.39 1150.79 1455 Q1153.87 1459.58 1153.87 1468.33 Q1153.87 1477.06 1150.79 1481.67 Q1147.74 1486.25 1141.93 1486.25 Q1136.12 1486.25 1133.04 1481.67 Q1129.98 1477.06 1129.98 1468.33 Q1129.98 1459.58 1133.04 1455 Q1136.12 1450.39 1141.93 1450.39 Z" fill="#000000" fill-rule="evenodd" fill-opacity="1" /><path clip-path="url(#clip370)" d="M1310.58 1481.64 L1326.9 1481.64 L1326.9 1485.58 L1304.96 1485.58 L1304.96 1481.64 Q1307.62 1478.89 1312.2 1474.26 Q1316.81 1469.61 1317.99 1468.27 Q1320.23 1465.74 1321.11 1464.01 Q1322.02 1462.25 1322.02 1460.56 Q1322.02 1457.8 1320.07 1456.07 Q1318.15 1454.33 1315.05 1454.33 Q1312.85 1454.33 1310.4 1455.09 Q1307.97 1455.86 1305.19 1457.41 L1305.19 1452.69 Q1308.01 1451.55 1310.47 1450.97 Q1312.92 1450.39 1314.96 1450.39 Q1320.33 1450.39 1323.52 1453.08 Q1326.72 1455.77 1326.72 1460.26 Q1326.72 1462.39 1325.91 1464.31 Q1325.12 1466.2 1323.01 1468.8 Q1322.43 1469.47 1319.33 1472.69 Q1316.23 1475.88 1310.58 1481.64 Z" fill="#000000" fill-rule="evenodd" fill-opacity="1" /><path clip-path="url(#clip370)" d="M1336.76 1451.02 L1355.12 1451.02 L1355.12 1454.96 L1341.04 1454.96 L1341.04 1463.43 Q1342.06 1463.08 1343.08 1462.92 Q1344.1 1462.73 1345.12 1462.73 Q1350.91 1462.73 1354.29 1465.9 Q1357.66 1469.08 1357.66 1474.49 Q1357.66 1480.07 1354.19 1483.17 Q1350.72 1486.25 1344.4 1486.25 Q1342.23 1486.25 1339.96 1485.88 Q1337.71 1485.51 1335.3 1484.77 L1335.3 1480.07 Q1337.39 1481.2 1339.61 1481.76 Q1341.83 1482.32 1344.31 1482.32 Q1348.31 1482.32 1350.65 1480.21 Q1352.99 1478.1 1352.99 1474.49 Q1352.99 1470.88 1350.65 1468.77 Q1348.31 1466.67 1344.31 1466.67 Q1342.43 1466.67 1340.56 1467.08 Q1338.71 1467.5 1336.76 1468.38 L1336.76 1451.02 Z" fill="#000000" fill-rule="evenodd" fill-opacity="1" /><path clip-path="url(#clip370)" d="M1524.44 1466.95 Q1527.8 1467.66 1529.67 1469.93 Q1531.57 1472.2 1531.57 1475.53 Q1531.57 1480.65 1528.05 1483.45 Q1524.54 1486.25 1518.05 1486.25 Q1515.88 1486.25 1513.56 1485.81 Q1511.27 1485.39 1508.82 1484.54 L1508.82 1480.02 Q1510.76 1481.16 1513.08 1481.74 Q1515.39 1482.32 1517.91 1482.32 Q1522.31 1482.32 1524.6 1480.58 Q1526.92 1478.84 1526.92 1475.53 Q1526.92 1472.48 1524.77 1470.77 Q1522.64 1469.03 1518.82 1469.03 L1514.79 1469.03 L1514.79 1465.19 L1519 1465.19 Q1522.45 1465.19 1524.28 1463.82 Q1526.11 1462.43 1526.11 1459.84 Q1526.11 1457.18 1524.21 1455.77 Q1522.34 1454.33 1518.82 1454.33 Q1516.9 1454.33 1514.7 1454.75 Q1512.5 1455.16 1509.86 1456.04 L1509.86 1451.88 Q1512.52 1451.14 1514.84 1450.77 Q1517.17 1450.39 1519.23 1450.39 Q1524.56 1450.39 1527.66 1452.83 Q1530.76 1455.23 1530.76 1459.35 Q1530.76 1462.22 1529.12 1464.21 Q1527.47 1466.18 1524.44 1466.95 Z" fill="#000000" fill-rule="evenodd" fill-opacity="1" /><path clip-path="url(#clip370)" d="M1550.44 1454.1 Q1546.83 1454.1 1545 1457.66 Q1543.19 1461.2 1543.19 1468.33 Q1543.19 1475.44 1545 1479.01 Q1546.83 1482.55 1550.44 1482.55 Q1554.07 1482.55 1555.88 1479.01 Q1557.71 1475.44 1557.71 1468.33 Q1557.71 1461.2 1555.88 1457.66 Q1554.07 1454.1 1550.44 1454.1 M1550.44 1450.39 Q1556.25 1450.39 1559.3 1455 Q1562.38 1459.58 1562.38 1468.33 Q1562.38 1477.06 1559.3 1481.67 Q1556.25 1486.25 1550.44 1486.25 Q1544.63 1486.25 1541.55 1481.67 Q1538.49 1477.06 1538.49 1468.33 Q1538.49 1459.58 1541.55 1455 Q1544.63 1450.39 1550.44 1450.39 Z" fill="#000000" fill-rule="evenodd" fill-opacity="1" /><path clip-path="url(#clip370)" d="M1729.23 1466.95 Q1732.59 1467.66 1734.46 1469.93 Q1736.36 1472.2 1736.36 1475.53 Q1736.36 1480.65 1732.84 1483.45 Q1729.32 1486.25 1722.84 1486.25 Q1720.66 1486.25 1718.35 1485.81 Q1716.06 1485.39 1713.6 1484.54 L1713.6 1480.02 Q1715.55 1481.16 1717.86 1481.74 Q1720.18 1482.32 1722.7 1482.32 Q1727.1 1482.32 1729.39 1480.58 Q1731.71 1478.84 1731.71 1475.53 Q1731.71 1472.48 1729.55 1470.77 Q1727.42 1469.03 1723.6 1469.03 L1719.58 1469.03 L1719.58 1465.19 L1723.79 1465.19 Q1727.24 1465.19 1729.07 1463.82 Q1730.9 1462.43 1730.9 1459.84 Q1730.9 1457.18 1729 1455.77 Q1727.12 1454.33 1723.6 1454.33 Q1721.68 1454.33 1719.48 1454.75 Q1717.28 1455.16 1714.65 1456.04 L1714.65 1451.88 Q1717.31 1451.14 1719.62 1450.77 Q1721.96 1450.39 1724.02 1450.39 Q1729.34 1450.39 1732.45 1452.83 Q1735.55 1455.23 1735.55 1459.35 Q1735.55 1462.22 1733.91 1464.21 Q1732.26 1466.18 1729.23 1466.95 Z" fill="#000000" fill-rule="evenodd" fill-opacity="1" /><path clip-path="url(#clip370)" d="M1745.27 1451.02 L1763.63 1451.02 L1763.63 1454.96 L1749.55 1454.96 L1749.55 1463.43 Q1750.57 1463.08 1751.59 1462.92 Q1752.61 1462.73 1753.63 1462.73 Q1759.41 1462.73 1762.79 1465.9 Q1766.17 1469.08 1766.17 1474.49 Q1766.17 1480.07 1762.7 1483.17 Q1759.23 1486.25 1752.91 1486.25 Q1750.73 1486.25 1748.47 1485.88 Q1746.22 1485.51 1743.81 1484.77 L1743.81 1480.07 Q1745.9 1481.2 1748.12 1481.76 Q1750.34 1482.32 1752.82 1482.32 Q1756.82 1482.32 1759.16 1480.21 Q1761.5 1478.1 1761.5 1474.49 Q1761.5 1470.88 1759.16 1468.77 Q1756.82 1466.67 1752.82 1466.67 Q1750.94 1466.67 1749.07 1467.08 Q1747.22 1467.5 1745.27 1468.38 L1745.27 1451.02 Z" fill="#000000" fill-rule="evenodd" fill-opacity="1" /><path clip-path="url(#clip370)" d="M1932.35 1455.09 L1920.54 1473.54 L1932.35 1473.54 L1932.35 1455.09 M1931.12 1451.02 L1937 1451.02 L1937 1473.54 L1941.93 1473.54 L1941.93 1477.43 L1937 1477.43 L1937 1485.58 L1932.35 1485.58 L1932.35 1477.43 L1916.75 1477.43 L1916.75 1472.92 L1931.12 1451.02 Z" fill="#000000" fill-rule="evenodd" fill-opacity="1" /><path clip-path="url(#clip370)" d="M1959.66 1454.1 Q1956.05 1454.1 1954.22 1457.66 Q1952.42 1461.2 1952.42 1468.33 Q1952.42 1475.44 1954.22 1479.01 Q1956.05 1482.55 1959.66 1482.55 Q1963.3 1482.55 1965.1 1479.01 Q1966.93 1475.44 1966.93 1468.33 Q1966.93 1461.2 1965.1 1457.66 Q1963.3 1454.1 1959.66 1454.1 M1959.66 1450.39 Q1965.47 1450.39 1968.53 1455 Q1971.61 1459.58 1971.61 1468.33 Q1971.61 1477.06 1968.53 1481.67 Q1965.47 1486.25 1959.66 1486.25 Q1953.85 1486.25 1950.78 1481.67 Q1947.72 1477.06 1947.72 1468.33 Q1947.72 1459.58 1950.78 1455 Q1953.85 1450.39 1959.66 1450.39 Z" fill="#000000" fill-rule="evenodd" fill-opacity="1" /><path clip-path="url(#clip370)" d="M2137.14 1455.09 L2125.33 1473.54 L2137.14 1473.54 L2137.14 1455.09 M2135.91 1451.02 L2141.79 1451.02 L2141.79 1473.54 L2146.72 1473.54 L2146.72 1477.43 L2141.79 1477.43 L2141.79 1485.58 L2137.14 1485.58 L2137.14 1477.43 L2121.53 1477.43 L2121.53 1472.92 L2135.91 1451.02 Z" fill="#000000" fill-rule="evenodd" fill-opacity="1" /><path clip-path="url(#clip370)" d="M2154.5 1451.02 L2172.85 1451.02 L2172.85 1454.96 L2158.78 1454.96 L2158.78 1463.43 Q2159.8 1463.08 2160.82 1462.92 Q2161.83 1462.73 2162.85 1462.73 Q2168.64 1462.73 2172.02 1465.9 Q2175.4 1469.08 2175.4 1474.49 Q2175.4 1480.07 2171.93 1483.17 Q2168.46 1486.25 2162.14 1486.25 Q2159.96 1486.25 2157.69 1485.88 Q2155.45 1485.51 2153.04 1484.77 L2153.04 1480.07 Q2155.12 1481.2 2157.34 1481.76 Q2159.57 1482.32 2162.04 1482.32 Q2166.05 1482.32 2168.39 1480.21 Q2170.72 1478.1 2170.72 1474.49 Q2170.72 1470.88 2168.39 1468.77 Q2166.05 1466.67 2162.04 1466.67 Q2160.17 1466.67 2158.29 1467.08 Q2156.44 1467.5 2154.5 1468.38 L2154.5 1451.02 Z" fill="#000000" fill-rule="evenodd" fill-opacity="1" /><path clip-path="url(#clip370)" d="M2327.46 1451.02 L2345.81 1451.02 L2345.81 1454.96 L2331.74 1454.96 L2331.74 1463.43 Q2332.76 1463.08 2333.77 1462.92 Q2334.79 1462.73 2335.81 1462.73 Q2341.6 1462.73 2344.98 1465.9 Q2348.36 1469.08 2348.36 1474.49 Q2348.36 1480.07 2344.89 1483.17 Q2341.41 1486.25 2335.09 1486.25 Q2332.92 1486.25 2330.65 1485.88 Q2328.4 1485.51 2326 1484.77 L2326 1480.07 Q2328.08 1481.2 2330.3 1481.76 Q2332.52 1482.32 2335 1482.32 Q2339.01 1482.32 2341.34 1480.21 Q2343.68 1478.1 2343.68 1474.49 Q2343.68 1470.88 2341.34 1468.77 Q2339.01 1466.67 2335 1466.67 Q2333.13 1466.67 2331.25 1467.08 Q2329.4 1467.5 2327.46 1468.38 L2327.46 1451.02 Z" fill="#000000" fill-rule="evenodd" fill-opacity="1" /><path clip-path="url(#clip370)" d="M2367.57 1454.1 Q2363.96 1454.1 2362.13 1457.66 Q2360.33 1461.2 2360.33 1468.33 Q2360.33 1475.44 2362.13 1479.01 Q2363.96 1482.55 2367.57 1482.55 Q2371.2 1482.55 2373.01 1479.01 Q2374.84 1475.44 2374.84 1468.33 Q2374.84 1461.2 2373.01 1457.66 Q2371.2 1454.1 2367.57 1454.1 M2367.57 1450.39 Q2373.38 1450.39 2376.44 1455 Q2379.52 1459.58 2379.52 1468.33 Q2379.52 1477.06 2376.44 1481.67 Q2373.38 1486.25 2367.57 1486.25 Q2361.76 1486.25 2358.68 1481.67 Q2355.63 1477.06 2355.63 1468.33 Q2355.63 1459.58 2358.68 1455 Q2361.76 1450.39 2367.57 1450.39 Z" fill="#000000" fill-rule="evenodd" fill-opacity="1" /><path clip-path="url(#clip370)" d="M1160.18 1522.08 L1160.18 1528.35 Q1156.52 1526.6 1153.28 1525.74 Q1150.03 1524.88 1147.01 1524.88 Q1141.76 1524.88 1138.89 1526.92 Q1136.06 1528.96 1136.06 1532.71 Q1136.06 1535.87 1137.94 1537.49 Q1139.85 1539.08 1145.13 1540.07 L1149.01 1540.86 Q1156.21 1542.23 1159.61 1545.7 Q1163.05 1549.14 1163.05 1554.93 Q1163.05 1561.84 1158.4 1565.4 Q1153.79 1568.97 1144.84 1568.97 Q1141.47 1568.97 1137.65 1568.2 Q1133.86 1567.44 1129.79 1565.94 L1129.79 1559.32 Q1133.7 1561.52 1137.46 1562.63 Q1141.21 1563.75 1144.84 1563.75 Q1150.35 1563.75 1153.34 1561.58 Q1156.33 1559.42 1156.33 1555.41 Q1156.33 1551.91 1154.17 1549.93 Q1152.04 1547.96 1147.14 1546.97 L1143.22 1546.21 Q1136.03 1544.78 1132.81 1541.72 Q1129.6 1538.67 1129.6 1533.22 Q1129.6 1526.92 1134.02 1523.29 Q1138.48 1519.66 1146.28 1519.66 Q1149.62 1519.66 1153.09 1520.27 Q1156.56 1520.87 1160.18 1522.08 Z" fill="#000000" fill-rule="evenodd" fill-opacity="1" /><path clip-path="url(#clip370)" d="M1172.82 1532.4 L1178.68 1532.4 L1178.68 1568.04 L1172.82 1568.04 L1172.82 1532.4 M1172.82 1518.52 L1178.68 1518.52 L1178.68 1525.93 L1172.82 1525.93 L1172.82 1518.52 Z" fill="#000000" fill-rule="evenodd" fill-opacity="1" /><path clip-path="url(#clip370)" d="M1196.72 1522.27 L1196.72 1532.4 L1208.79 1532.4 L1208.79 1536.95 L1196.72 1536.95 L1196.72 1556.3 Q1196.72 1560.66 1197.9 1561.9 Q1199.11 1563.14 1202.77 1563.14 L1208.79 1563.14 L1208.79 1568.04 L1202.77 1568.04 Q1195.99 1568.04 1193.41 1565.53 Q1190.84 1562.98 1190.84 1556.3 L1190.84 1536.95 L1186.54 1536.95 L1186.54 1532.4 L1190.84 1532.4 L1190.84 1522.27 L1196.72 1522.27 Z" fill="#000000" fill-rule="evenodd" fill-opacity="1" /><path clip-path="url(#clip370)" d="M1246.98 1548.76 L1246.98 1551.62 L1220.05 1551.62 Q1220.44 1557.67 1223.68 1560.85 Q1226.96 1564 1232.79 1564 Q1236.16 1564 1239.31 1563.17 Q1242.49 1562.35 1245.61 1560.69 L1245.61 1566.23 Q1242.46 1567.57 1239.15 1568.27 Q1235.84 1568.97 1232.44 1568.97 Q1223.91 1568.97 1218.91 1564 Q1213.94 1559.04 1213.94 1550.57 Q1213.94 1541.82 1218.65 1536.69 Q1223.4 1531.54 1231.42 1531.54 Q1238.61 1531.54 1242.78 1536.18 Q1246.98 1540.8 1246.98 1548.76 M1241.12 1547.04 Q1241.06 1542.23 1238.42 1539.37 Q1235.81 1536.5 1231.48 1536.5 Q1226.58 1536.5 1223.62 1539.27 Q1220.69 1542.04 1220.25 1547.07 L1241.12 1547.04 Z" fill="#000000" fill-rule="evenodd" fill-opacity="1" /><path clip-path="url(#clip370)" d="M1277.57 1520.52 L1286.23 1520.52 L1307.3 1560.28 L1307.3 1520.52 L1313.53 1520.52 L1313.53 1568.04 L1304.88 1568.04 L1283.81 1528.29 L1283.81 1568.04 L1277.57 1568.04 L1277.57 1520.52 Z" fill="#000000" fill-rule="evenodd" fill-opacity="1" /><path clip-path="url(#clip370)" d="M1325.47 1553.98 L1325.47 1532.4 L1331.33 1532.4 L1331.33 1553.75 Q1331.33 1558.81 1333.3 1561.36 Q1335.27 1563.87 1339.22 1563.87 Q1343.96 1563.87 1346.7 1560.85 Q1349.47 1557.83 1349.47 1552.61 L1349.47 1532.4 L1355.33 1532.4 L1355.33 1568.04 L1349.47 1568.04 L1349.47 1562.57 Q1347.34 1565.82 1344.5 1567.41 Q1341.7 1568.97 1337.98 1568.97 Q1331.84 1568.97 1328.65 1565.15 Q1325.47 1561.33 1325.47 1553.98 M1340.21 1531.54 L1340.21 1531.54 Z" fill="#000000" fill-rule="evenodd" fill-opacity="1" /><path clip-path="url(#clip370)" d="M1395.14 1539.24 Q1397.34 1535.29 1400.39 1533.41 Q1403.45 1531.54 1407.59 1531.54 Q1413.16 1531.54 1416.18 1535.45 Q1419.21 1539.33 1419.21 1546.53 L1419.21 1568.04 L1413.32 1568.04 L1413.32 1546.72 Q1413.32 1541.59 1411.5 1539.11 Q1409.69 1536.63 1405.96 1536.63 Q1401.41 1536.63 1398.77 1539.65 Q1396.13 1542.68 1396.13 1547.9 L1396.13 1568.04 L1390.24 1568.04 L1390.24 1546.72 Q1390.24 1541.56 1388.43 1539.11 Q1386.61 1536.63 1382.83 1536.63 Q1378.34 1536.63 1375.7 1539.68 Q1373.05 1542.71 1373.05 1547.9 L1373.05 1568.04 L1367.17 1568.04 L1367.17 1532.4 L1373.05 1532.4 L1373.05 1537.93 Q1375.06 1534.66 1377.86 1533.1 Q1380.66 1531.54 1384.51 1531.54 Q1388.4 1531.54 1391.1 1533.51 Q1393.84 1535.48 1395.14 1539.24 Z" fill="#000000" fill-rule="evenodd" fill-opacity="1" /><path clip-path="url(#clip370)" d="M1456.48 1550.25 Q1456.48 1543.79 1453.8 1540.13 Q1451.16 1536.44 1446.51 1536.44 Q1441.87 1536.44 1439.19 1540.13 Q1436.55 1543.79 1436.55 1550.25 Q1436.55 1556.71 1439.19 1560.4 Q1441.87 1564.07 1446.51 1564.07 Q1451.16 1564.07 1453.8 1560.4 Q1456.48 1556.71 1456.48 1550.25 M1436.55 1537.81 Q1438.4 1534.62 1441.2 1533.1 Q1444.03 1531.54 1447.95 1531.54 Q1454.44 1531.54 1458.48 1536.69 Q1462.56 1541.85 1462.56 1550.25 Q1462.56 1558.65 1458.48 1563.81 Q1454.44 1568.97 1447.95 1568.97 Q1444.03 1568.97 1441.2 1567.44 Q1438.4 1565.88 1436.55 1562.7 L1436.55 1568.04 L1430.66 1568.04 L1430.66 1518.52 L1436.55 1518.52 L1436.55 1537.81 Z" fill="#000000" fill-rule="evenodd" fill-opacity="1" /><path clip-path="url(#clip370)" d="M1502.76 1548.76 L1502.76 1551.62 L1475.83 1551.62 Q1476.21 1557.67 1479.46 1560.85 Q1482.74 1564 1488.56 1564 Q1491.93 1564 1495.08 1563.17 Q1498.27 1562.35 1501.39 1560.69 L1501.39 1566.23 Q1498.24 1567.57 1494.93 1568.27 Q1491.62 1568.97 1488.21 1568.97 Q1479.68 1568.97 1474.68 1564 Q1469.72 1559.04 1469.72 1550.57 Q1469.72 1541.82 1474.43 1536.69 Q1479.17 1531.54 1487.19 1531.54 Q1494.38 1531.54 1498.55 1536.18 Q1502.76 1540.8 1502.76 1548.76 M1496.9 1547.04 Q1496.84 1542.23 1494.19 1539.37 Q1491.58 1536.5 1487.25 1536.5 Q1482.35 1536.5 1479.39 1539.27 Q1476.46 1542.04 1476.02 1547.07 L1496.9 1547.04 Z" fill="#000000" fill-rule="evenodd" fill-opacity="1" /><path clip-path="url(#clip370)" d="M1533.02 1537.87 Q1532.04 1537.3 1530.86 1537.04 Q1529.71 1536.76 1528.31 1536.76 Q1523.35 1536.76 1520.67 1540 Q1518.03 1543.22 1518.03 1549.27 L1518.03 1568.04 L1512.14 1568.04 L1512.14 1532.4 L1518.03 1532.4 L1518.03 1537.93 Q1519.88 1534.69 1522.84 1533.13 Q1525.8 1531.54 1530.03 1531.54 Q1530.64 1531.54 1531.37 1531.63 Q1532.1 1531.7 1532.99 1531.85 L1533.02 1537.87 Z" fill="#000000" fill-rule="evenodd" fill-opacity="1" /><polyline clip-path="url(#clip372)" style="stroke:#000000; stroke-linecap:round; stroke-linejoin:round; stroke-width:2; stroke-opacity:0.1; fill:none" points="
  309.866,1423.18 2352.76,1423.18 
  "/>
<polyline clip-path="url(#clip372)" style="stroke:#000000; stroke-linecap:round; stroke-linejoin:round; stroke-width:2; stroke-opacity:0.1; fill:none" points="
  309.866,1206.56 2352.76,1206.56 
  "/>
<polyline clip-path="url(#clip372)" style="stroke:#000000; stroke-linecap:round; stroke-linejoin:round; stroke-width:2; stroke-opacity:0.1; fill:none" points="
  309.866,989.944 2352.76,989.944 
  "/>
<polyline clip-path="url(#clip372)" style="stroke:#000000; stroke-linecap:round; stroke-linejoin:round; stroke-width:2; stroke-opacity:0.1; fill:none" points="
  309.866,773.326 2352.76,773.326 
  "/>
<polyline clip-path="url(#clip372)" style="stroke:#000000; stroke-linecap:round; stroke-linejoin:round; stroke-width:2; stroke-opacity:0.1; fill:none" points="
  309.866,556.708 2352.76,556.708 
  "/>
<polyline clip-path="url(#clip372)" style="stroke:#000000; stroke-linecap:round; stroke-linejoin:round; stroke-width:2; stroke-opacity:0.1; fill:none" points="
  309.866,340.09 2352.76,340.09 
  "/>
<polyline clip-path="url(#clip372)" style="stroke:#000000; stroke-linecap:round; stroke-linejoin:round; stroke-width:2; stroke-opacity:0.1; fill:none" points="
  309.866,123.472 2352.76,123.472 
  "/>
<polyline clip-path="url(#clip370)" style="stroke:#000000; stroke-linecap:round; stroke-linejoin:round; stroke-width:4; stroke-opacity:1; fill:none" points="
  309.866,1423.18 309.866,123.472 
  "/>
<polyline clip-path="url(#clip370)" style="stroke:#000000; stroke-linecap:round; stroke-linejoin:round; stroke-width:4; stroke-opacity:1; fill:none" points="
  309.866,1423.18 328.763,1423.18 
  "/>
<polyline clip-path="url(#clip370)" style="stroke:#000000; stroke-linecap:round; stroke-linejoin:round; stroke-width:4; stroke-opacity:1; fill:none" points="
  309.866,1206.56 328.763,1206.56 
  "/>
<polyline clip-path="url(#clip370)" style="stroke:#000000; stroke-linecap:round; stroke-linejoin:round; stroke-width:4; stroke-opacity:1; fill:none" points="
  309.866,989.944 328.763,989.944 
  "/>
<polyline clip-path="url(#clip370)" style="stroke:#000000; stroke-linecap:round; stroke-linejoin:round; stroke-width:4; stroke-opacity:1; fill:none" points="
  309.866,773.326 328.763,773.326 
  "/>
<polyline clip-path="url(#clip370)" style="stroke:#000000; stroke-linecap:round; stroke-linejoin:round; stroke-width:4; stroke-opacity:1; fill:none" points="
  309.866,556.708 328.763,556.708 
  "/>
<polyline clip-path="url(#clip370)" style="stroke:#000000; stroke-linecap:round; stroke-linejoin:round; stroke-width:4; stroke-opacity:1; fill:none" points="
  309.866,340.09 328.763,340.09 
  "/>
<polyline clip-path="url(#clip370)" style="stroke:#000000; stroke-linecap:round; stroke-linejoin:round; stroke-width:4; stroke-opacity:1; fill:none" points="
  309.866,123.472 328.763,123.472 
  "/>
<path clip-path="url(#clip370)" d="M127.2 1408.98 Q123.589 1408.98 121.76 1412.54 Q119.955 1416.08 119.955 1423.21 Q119.955 1430.32 121.76 1433.89 Q123.589 1437.43 127.2 1437.43 Q130.834 1437.43 132.64 1433.89 Q134.468 1430.32 134.468 1423.21 Q134.468 1416.08 132.64 1412.54 Q130.834 1408.98 127.2 1408.98 M127.2 1405.27 Q133.01 1405.27 136.066 1409.88 Q139.144 1414.46 139.144 1423.21 Q139.144 1431.94 136.066 1436.55 Q133.01 1441.13 127.2 1441.13 Q121.39 1441.13 118.311 1436.55 Q115.256 1431.94 115.256 1423.21 Q115.256 1414.46 118.311 1409.88 Q121.39 1405.27 127.2 1405.27 Z" fill="#000000" fill-rule="evenodd" fill-opacity="1" /><path clip-path="url(#clip370)" d="M147.362 1434.58 L152.246 1434.58 L152.246 1440.46 L147.362 1440.46 L147.362 1434.58 Z" fill="#000000" fill-rule="evenodd" fill-opacity="1" /><path clip-path="url(#clip370)" d="M175.278 1409.97 L163.473 1428.42 L175.278 1428.42 L175.278 1409.97 M174.052 1405.9 L179.931 1405.9 L179.931 1428.42 L184.862 1428.42 L184.862 1432.31 L179.931 1432.31 L179.931 1440.46 L175.278 1440.46 L175.278 1432.31 L159.677 1432.31 L159.677 1427.8 L174.052 1405.9 Z" fill="#000000" fill-rule="evenodd" fill-opacity="1" /><path clip-path="url(#clip370)" d="M191.413 1405.9 L213.635 1405.9 L213.635 1407.89 L201.088 1440.46 L196.204 1440.46 L208.01 1409.84 L191.413 1409.84 L191.413 1405.9 Z" fill="#000000" fill-rule="evenodd" fill-opacity="1" /><path clip-path="url(#clip370)" d="M233.334 1421.32 Q230.185 1421.32 228.334 1423.47 Q226.505 1425.62 226.505 1429.37 Q226.505 1433.1 228.334 1435.27 Q230.185 1437.43 233.334 1437.43 Q236.482 1437.43 238.31 1435.27 Q240.162 1433.1 240.162 1429.37 Q240.162 1425.62 238.31 1423.47 Q236.482 1421.32 233.334 1421.32 M242.616 1406.66 L242.616 1410.92 Q240.857 1410.09 239.051 1409.65 Q237.269 1409.21 235.51 1409.21 Q230.88 1409.21 228.426 1412.33 Q225.996 1415.46 225.648 1421.78 Q227.014 1419.77 229.074 1418.7 Q231.135 1417.61 233.611 1417.61 Q238.82 1417.61 241.829 1420.78 Q244.861 1423.93 244.861 1429.37 Q244.861 1434.7 241.713 1437.91 Q238.565 1441.13 233.334 1441.13 Q227.338 1441.13 224.167 1436.55 Q220.996 1431.94 220.996 1423.21 Q220.996 1415.02 224.885 1410.16 Q228.773 1405.27 235.324 1405.27 Q237.084 1405.27 238.866 1405.62 Q240.672 1405.97 242.616 1406.66 Z" fill="#000000" fill-rule="evenodd" fill-opacity="1" /><path clip-path="url(#clip370)" d="M252.963 1405.9 L271.32 1405.9 L271.32 1409.84 L257.246 1409.84 L257.246 1418.31 Q258.264 1417.96 259.283 1417.8 Q260.301 1417.61 261.32 1417.61 Q267.107 1417.61 270.486 1420.78 Q273.866 1423.96 273.866 1429.37 Q273.866 1434.95 270.394 1438.05 Q266.921 1441.13 260.602 1441.13 Q258.426 1441.13 256.158 1440.76 Q253.912 1440.39 251.505 1439.65 L251.505 1434.95 Q253.588 1436.08 255.81 1436.64 Q258.033 1437.2 260.509 1437.2 Q264.514 1437.2 266.852 1435.09 Q269.19 1432.98 269.19 1429.37 Q269.19 1425.76 266.852 1423.65 Q264.514 1421.55 260.509 1421.55 Q258.634 1421.55 256.759 1421.96 Q254.908 1422.38 252.963 1423.26 L252.963 1405.9 Z" fill="#000000" fill-rule="evenodd" fill-opacity="1" /><path clip-path="url(#clip370)" d="M126.205 1192.36 Q122.593 1192.36 120.765 1195.93 Q118.959 1199.47 118.959 1206.6 Q118.959 1213.7 120.765 1217.27 Q122.593 1220.81 126.205 1220.81 Q129.839 1220.81 131.644 1217.27 Q133.473 1213.7 133.473 1206.6 Q133.473 1199.47 131.644 1195.93 Q129.839 1192.36 126.205 1192.36 M126.205 1188.66 Q132.015 1188.66 135.07 1193.26 Q138.149 1197.85 138.149 1206.6 Q138.149 1215.32 135.07 1219.93 Q132.015 1224.51 126.205 1224.51 Q120.394 1224.51 117.316 1219.93 Q114.26 1215.32 114.26 1206.6 Q114.26 1197.85 117.316 1193.26 Q120.394 1188.66 126.205 1188.66 Z" fill="#000000" fill-rule="evenodd" fill-opacity="1" /><path clip-path="url(#clip370)" d="M146.366 1217.96 L151.251 1217.96 L151.251 1223.84 L146.366 1223.84 L146.366 1217.96 Z" fill="#000000" fill-rule="evenodd" fill-opacity="1" /><path clip-path="url(#clip370)" d="M174.283 1193.36 L162.477 1211.8 L174.283 1211.8 L174.283 1193.36 M173.056 1189.28 L178.936 1189.28 L178.936 1211.8 L183.866 1211.8 L183.866 1215.69 L178.936 1215.69 L178.936 1223.84 L174.283 1223.84 L174.283 1215.69 L158.681 1215.69 L158.681 1211.18 L173.056 1189.28 Z" fill="#000000" fill-rule="evenodd" fill-opacity="1" /><path clip-path="url(#clip370)" d="M190.417 1189.28 L212.639 1189.28 L212.639 1191.27 L200.093 1223.84 L195.209 1223.84 L207.014 1193.22 L190.417 1193.22 L190.417 1189.28 Z" fill="#000000" fill-rule="evenodd" fill-opacity="1" /><path clip-path="url(#clip370)" d="M220.579 1189.28 L242.801 1189.28 L242.801 1191.27 L230.255 1223.84 L225.371 1223.84 L237.176 1193.22 L220.579 1193.22 L220.579 1189.28 Z" fill="#000000" fill-rule="evenodd" fill-opacity="1" /><path clip-path="url(#clip370)" d="M261.921 1192.36 Q258.31 1192.36 256.482 1195.93 Q254.676 1199.47 254.676 1206.6 Q254.676 1213.7 256.482 1217.27 Q258.31 1220.81 261.921 1220.81 Q265.556 1220.81 267.361 1217.27 Q269.19 1213.7 269.19 1206.6 Q269.19 1199.47 267.361 1195.93 Q265.556 1192.36 261.921 1192.36 M261.921 1188.66 Q267.732 1188.66 270.787 1193.26 Q273.866 1197.85 273.866 1206.6 Q273.866 1215.32 270.787 1219.93 Q267.732 1224.51 261.921 1224.51 Q256.111 1224.51 253.033 1219.93 Q249.977 1215.32 249.977 1206.6 Q249.977 1197.85 253.033 1193.26 Q256.111 1188.66 261.921 1188.66 Z" fill="#000000" fill-rule="evenodd" fill-opacity="1" /><path clip-path="url(#clip370)" d="M127.2 975.743 Q123.589 975.743 121.76 979.307 Q119.955 982.849 119.955 989.979 Q119.955 997.085 121.76 1000.65 Q123.589 1004.19 127.2 1004.19 Q130.834 1004.19 132.64 1000.65 Q134.468 997.085 134.468 989.979 Q134.468 982.849 132.64 979.307 Q130.834 975.743 127.2 975.743 M127.2 972.039 Q133.01 972.039 136.066 976.645 Q139.144 981.229 139.144 989.979 Q139.144 998.705 136.066 1003.31 Q133.01 1007.9 127.2 1007.9 Q121.39 1007.9 118.311 1003.31 Q115.256 998.705 115.256 989.979 Q115.256 981.229 118.311 976.645 Q121.39 972.039 127.2 972.039 Z" fill="#000000" fill-rule="evenodd" fill-opacity="1" /><path clip-path="url(#clip370)" d="M147.362 1001.34 L152.246 1001.34 L152.246 1007.22 L147.362 1007.22 L147.362 1001.34 Z" fill="#000000" fill-rule="evenodd" fill-opacity="1" /><path clip-path="url(#clip370)" d="M175.278 976.738 L163.473 995.187 L175.278 995.187 L175.278 976.738 M174.052 972.664 L179.931 972.664 L179.931 995.187 L184.862 995.187 L184.862 999.076 L179.931 999.076 L179.931 1007.22 L175.278 1007.22 L175.278 999.076 L159.677 999.076 L159.677 994.562 L174.052 972.664 Z" fill="#000000" fill-rule="evenodd" fill-opacity="1" /><path clip-path="url(#clip370)" d="M191.413 972.664 L213.635 972.664 L213.635 974.655 L201.088 1007.22 L196.204 1007.22 L208.01 976.599 L191.413 976.599 L191.413 972.664 Z" fill="#000000" fill-rule="evenodd" fill-opacity="1" /><path clip-path="url(#clip370)" d="M221.574 972.664 L243.797 972.664 L243.797 974.655 L231.25 1007.22 L226.366 1007.22 L238.172 976.599 L221.574 976.599 L221.574 972.664 Z" fill="#000000" fill-rule="evenodd" fill-opacity="1" /><path clip-path="url(#clip370)" d="M252.963 972.664 L271.32 972.664 L271.32 976.599 L257.246 976.599 L257.246 985.071 Q258.264 984.724 259.283 984.562 Q260.301 984.377 261.32 984.377 Q267.107 984.377 270.486 987.548 Q273.866 990.719 273.866 996.136 Q273.866 1001.71 270.394 1004.82 Q266.921 1007.9 260.602 1007.9 Q258.426 1007.9 256.158 1007.52 Q253.912 1007.15 251.505 1006.41 L251.505 1001.71 Q253.588 1002.85 255.81 1003.4 Q258.033 1003.96 260.509 1003.96 Q264.514 1003.96 266.852 1001.85 Q269.19 999.747 269.19 996.136 Q269.19 992.525 266.852 990.418 Q264.514 988.312 260.509 988.312 Q258.634 988.312 256.759 988.729 Q254.908 989.145 252.963 990.025 L252.963 972.664 Z" fill="#000000" fill-rule="evenodd" fill-opacity="1" /><path clip-path="url(#clip370)" d="M126.205 759.125 Q122.593 759.125 120.765 762.689 Q118.959 766.231 118.959 773.361 Q118.959 780.467 120.765 784.032 Q122.593 787.574 126.205 787.574 Q129.839 787.574 131.644 784.032 Q133.473 780.467 133.473 773.361 Q133.473 766.231 131.644 762.689 Q129.839 759.125 126.205 759.125 M126.205 755.421 Q132.015 755.421 135.07 760.027 Q138.149 764.611 138.149 773.361 Q138.149 782.088 135.07 786.694 Q132.015 791.277 126.205 791.277 Q120.394 791.277 117.316 786.694 Q114.26 782.088 114.26 773.361 Q114.26 764.611 117.316 760.027 Q120.394 755.421 126.205 755.421 Z" fill="#000000" fill-rule="evenodd" fill-opacity="1" /><path clip-path="url(#clip370)" d="M146.366 784.726 L151.251 784.726 L151.251 790.606 L146.366 790.606 L146.366 784.726 Z" fill="#000000" fill-rule="evenodd" fill-opacity="1" /><path clip-path="url(#clip370)" d="M174.283 760.12 L162.477 778.569 L174.283 778.569 L174.283 760.12 M173.056 756.046 L178.936 756.046 L178.936 778.569 L183.866 778.569 L183.866 782.458 L178.936 782.458 L178.936 790.606 L174.283 790.606 L174.283 782.458 L158.681 782.458 L158.681 777.944 L173.056 756.046 Z" fill="#000000" fill-rule="evenodd" fill-opacity="1" /><path clip-path="url(#clip370)" d="M190.417 756.046 L212.639 756.046 L212.639 758.037 L200.093 790.606 L195.209 790.606 L207.014 759.981 L190.417 759.981 L190.417 756.046 Z" fill="#000000" fill-rule="evenodd" fill-opacity="1" /><path clip-path="url(#clip370)" d="M231.76 774.194 Q228.426 774.194 226.505 775.976 Q224.607 777.759 224.607 780.884 Q224.607 784.009 226.505 785.791 Q228.426 787.574 231.76 787.574 Q235.093 787.574 237.014 785.791 Q238.935 783.986 238.935 780.884 Q238.935 777.759 237.014 775.976 Q235.116 774.194 231.76 774.194 M227.084 772.203 Q224.074 771.463 222.385 769.402 Q220.718 767.342 220.718 764.379 Q220.718 760.236 223.658 757.828 Q226.621 755.421 231.76 755.421 Q236.922 755.421 239.861 757.828 Q242.801 760.236 242.801 764.379 Q242.801 767.342 241.111 769.402 Q239.445 771.463 236.459 772.203 Q239.838 772.99 241.713 775.282 Q243.611 777.574 243.611 780.884 Q243.611 785.907 240.533 788.592 Q237.477 791.277 231.76 791.277 Q226.042 791.277 222.963 788.592 Q219.908 785.907 219.908 780.884 Q219.908 777.574 221.806 775.282 Q223.704 772.99 227.084 772.203 M225.371 764.819 Q225.371 767.504 227.037 769.009 Q228.727 770.513 231.76 770.513 Q234.769 770.513 236.459 769.009 Q238.172 767.504 238.172 764.819 Q238.172 762.134 236.459 760.629 Q234.769 759.125 231.76 759.125 Q228.727 759.125 227.037 760.629 Q225.371 762.134 225.371 764.819 Z" fill="#000000" fill-rule="evenodd" fill-opacity="1" /><path clip-path="url(#clip370)" d="M261.921 759.125 Q258.31 759.125 256.482 762.689 Q254.676 766.231 254.676 773.361 Q254.676 780.467 256.482 784.032 Q258.31 787.574 261.921 787.574 Q265.556 787.574 267.361 784.032 Q269.19 780.467 269.19 773.361 Q269.19 766.231 267.361 762.689 Q265.556 759.125 261.921 759.125 M261.921 755.421 Q267.732 755.421 270.787 760.027 Q273.866 764.611 273.866 773.361 Q273.866 782.088 270.787 786.694 Q267.732 791.277 261.921 791.277 Q256.111 791.277 253.033 786.694 Q249.977 782.088 249.977 773.361 Q249.977 764.611 253.033 760.027 Q256.111 755.421 261.921 755.421 Z" fill="#000000" fill-rule="evenodd" fill-opacity="1" /><path clip-path="url(#clip370)" d="M127.2 542.507 Q123.589 542.507 121.76 546.072 Q119.955 549.613 119.955 556.743 Q119.955 563.849 121.76 567.414 Q123.589 570.956 127.2 570.956 Q130.834 570.956 132.64 567.414 Q134.468 563.849 134.468 556.743 Q134.468 549.613 132.64 546.072 Q130.834 542.507 127.2 542.507 M127.2 538.803 Q133.01 538.803 136.066 543.409 Q139.144 547.993 139.144 556.743 Q139.144 565.47 136.066 570.076 Q133.01 574.659 127.2 574.659 Q121.39 574.659 118.311 570.076 Q115.256 565.47 115.256 556.743 Q115.256 547.993 118.311 543.409 Q121.39 538.803 127.2 538.803 Z" fill="#000000" fill-rule="evenodd" fill-opacity="1" /><path clip-path="url(#clip370)" d="M147.362 568.108 L152.246 568.108 L152.246 573.988 L147.362 573.988 L147.362 568.108 Z" fill="#000000" fill-rule="evenodd" fill-opacity="1" /><path clip-path="url(#clip370)" d="M175.278 543.502 L163.473 561.951 L175.278 561.951 L175.278 543.502 M174.052 539.428 L179.931 539.428 L179.931 561.951 L184.862 561.951 L184.862 565.84 L179.931 565.84 L179.931 573.988 L175.278 573.988 L175.278 565.84 L159.677 565.84 L159.677 561.326 L174.052 539.428 Z" fill="#000000" fill-rule="evenodd" fill-opacity="1" /><path clip-path="url(#clip370)" d="M191.413 539.428 L213.635 539.428 L213.635 541.419 L201.088 573.988 L196.204 573.988 L208.01 543.363 L191.413 543.363 L191.413 539.428 Z" fill="#000000" fill-rule="evenodd" fill-opacity="1" /><path clip-path="url(#clip370)" d="M232.755 557.576 Q229.422 557.576 227.5 559.358 Q225.602 561.141 225.602 564.266 Q225.602 567.391 227.5 569.173 Q229.422 570.956 232.755 570.956 Q236.088 570.956 238.009 569.173 Q239.931 567.368 239.931 564.266 Q239.931 561.141 238.009 559.358 Q236.111 557.576 232.755 557.576 M228.079 555.585 Q225.07 554.845 223.38 552.784 Q221.713 550.724 221.713 547.761 Q221.713 543.618 224.653 541.21 Q227.616 538.803 232.755 538.803 Q237.917 538.803 240.857 541.21 Q243.797 543.618 243.797 547.761 Q243.797 550.724 242.107 552.784 Q240.44 554.845 237.454 555.585 Q240.834 556.372 242.709 558.664 Q244.607 560.956 244.607 564.266 Q244.607 569.289 241.528 571.974 Q238.472 574.659 232.755 574.659 Q227.037 574.659 223.959 571.974 Q220.903 569.289 220.903 564.266 Q220.903 560.956 222.801 558.664 Q224.699 556.372 228.079 555.585 M226.366 548.201 Q226.366 550.886 228.033 552.391 Q229.723 553.896 232.755 553.896 Q235.764 553.896 237.454 552.391 Q239.167 550.886 239.167 548.201 Q239.167 545.516 237.454 544.011 Q235.764 542.507 232.755 542.507 Q229.723 542.507 228.033 544.011 Q226.366 545.516 226.366 548.201 Z" fill="#000000" fill-rule="evenodd" fill-opacity="1" /><path clip-path="url(#clip370)" d="M252.963 539.428 L271.32 539.428 L271.32 543.363 L257.246 543.363 L257.246 551.835 Q258.264 551.488 259.283 551.326 Q260.301 551.141 261.32 551.141 Q267.107 551.141 270.486 554.312 Q273.866 557.483 273.866 562.9 Q273.866 568.479 270.394 571.581 Q266.921 574.659 260.602 574.659 Q258.426 574.659 256.158 574.289 Q253.912 573.919 251.505 573.178 L251.505 568.479 Q253.588 569.613 255.81 570.169 Q258.033 570.724 260.509 570.724 Q264.514 570.724 266.852 568.618 Q269.19 566.511 269.19 562.9 Q269.19 559.289 266.852 557.183 Q264.514 555.076 260.509 555.076 Q258.634 555.076 256.759 555.493 Q254.908 555.909 252.963 556.789 L252.963 539.428 Z" fill="#000000" fill-rule="evenodd" fill-opacity="1" /><path clip-path="url(#clip370)" d="M126.205 325.889 Q122.593 325.889 120.765 329.454 Q118.959 332.995 118.959 340.125 Q118.959 347.231 120.765 350.796 Q122.593 354.338 126.205 354.338 Q129.839 354.338 131.644 350.796 Q133.473 347.231 133.473 340.125 Q133.473 332.995 131.644 329.454 Q129.839 325.889 126.205 325.889 M126.205 322.185 Q132.015 322.185 135.07 326.792 Q138.149 331.375 138.149 340.125 Q138.149 348.852 135.07 353.458 Q132.015 358.041 126.205 358.041 Q120.394 358.041 117.316 353.458 Q114.26 348.852 114.26 340.125 Q114.26 331.375 117.316 326.792 Q120.394 322.185 126.205 322.185 Z" fill="#000000" fill-rule="evenodd" fill-opacity="1" /><path clip-path="url(#clip370)" d="M146.366 351.49 L151.251 351.49 L151.251 357.37 L146.366 357.37 L146.366 351.49 Z" fill="#000000" fill-rule="evenodd" fill-opacity="1" /><path clip-path="url(#clip370)" d="M174.283 326.884 L162.477 345.333 L174.283 345.333 L174.283 326.884 M173.056 322.81 L178.936 322.81 L178.936 345.333 L183.866 345.333 L183.866 349.222 L178.936 349.222 L178.936 357.37 L174.283 357.37 L174.283 349.222 L158.681 349.222 L158.681 344.708 L173.056 322.81 Z" fill="#000000" fill-rule="evenodd" fill-opacity="1" /><path clip-path="url(#clip370)" d="M190.417 322.81 L212.639 322.81 L212.639 324.801 L200.093 357.37 L195.209 357.37 L207.014 326.745 L190.417 326.745 L190.417 322.81 Z" fill="#000000" fill-rule="evenodd" fill-opacity="1" /><path clip-path="url(#clip370)" d="M221.898 356.652 L221.898 352.393 Q223.658 353.227 225.463 353.666 Q227.269 354.106 229.005 354.106 Q233.635 354.106 236.065 351.004 Q238.519 347.879 238.866 341.537 Q237.523 343.528 235.463 344.592 Q233.403 345.657 230.903 345.657 Q225.718 345.657 222.686 342.532 Q219.676 339.384 219.676 333.944 Q219.676 328.62 222.824 325.403 Q225.973 322.185 231.204 322.185 Q237.199 322.185 240.347 326.792 Q243.519 331.375 243.519 340.125 Q243.519 348.296 239.63 353.18 Q235.764 358.041 229.213 358.041 Q227.454 358.041 225.648 357.694 Q223.843 357.347 221.898 356.652 M231.204 342 Q234.352 342 236.181 339.847 Q238.033 337.694 238.033 333.944 Q238.033 330.217 236.181 328.065 Q234.352 325.889 231.204 325.889 Q228.056 325.889 226.204 328.065 Q224.375 330.217 224.375 333.944 Q224.375 337.694 226.204 339.847 Q228.056 342 231.204 342 Z" fill="#000000" fill-rule="evenodd" fill-opacity="1" /><path clip-path="url(#clip370)" d="M261.921 325.889 Q258.31 325.889 256.482 329.454 Q254.676 332.995 254.676 340.125 Q254.676 347.231 256.482 350.796 Q258.31 354.338 261.921 354.338 Q265.556 354.338 267.361 350.796 Q269.19 347.231 269.19 340.125 Q269.19 332.995 267.361 329.454 Q265.556 325.889 261.921 325.889 M261.921 322.185 Q267.732 322.185 270.787 326.792 Q273.866 331.375 273.866 340.125 Q273.866 348.852 270.787 353.458 Q267.732 358.041 261.921 358.041 Q256.111 358.041 253.033 353.458 Q249.977 348.852 249.977 340.125 Q249.977 331.375 253.033 326.792 Q256.111 322.185 261.921 322.185 Z" fill="#000000" fill-rule="evenodd" fill-opacity="1" /><path clip-path="url(#clip370)" d="M127.2 109.271 Q123.589 109.271 121.76 112.836 Q119.955 116.377 119.955 123.507 Q119.955 130.613 121.76 134.178 Q123.589 137.72 127.2 137.72 Q130.834 137.72 132.64 134.178 Q134.468 130.613 134.468 123.507 Q134.468 116.377 132.64 112.836 Q130.834 109.271 127.2 109.271 M127.2 105.567 Q133.01 105.567 136.066 110.174 Q139.144 114.757 139.144 123.507 Q139.144 132.234 136.066 136.84 Q133.01 141.423 127.2 141.423 Q121.39 141.423 118.311 136.84 Q115.256 132.234 115.256 123.507 Q115.256 114.757 118.311 110.174 Q121.39 105.567 127.2 105.567 Z" fill="#000000" fill-rule="evenodd" fill-opacity="1" /><path clip-path="url(#clip370)" d="M147.362 134.873 L152.246 134.873 L152.246 140.752 L147.362 140.752 L147.362 134.873 Z" fill="#000000" fill-rule="evenodd" fill-opacity="1" /><path clip-path="url(#clip370)" d="M175.278 110.266 L163.473 128.715 L175.278 128.715 L175.278 110.266 M174.052 106.192 L179.931 106.192 L179.931 128.715 L184.862 128.715 L184.862 132.604 L179.931 132.604 L179.931 140.752 L175.278 140.752 L175.278 132.604 L159.677 132.604 L159.677 128.09 L174.052 106.192 Z" fill="#000000" fill-rule="evenodd" fill-opacity="1" /><path clip-path="url(#clip370)" d="M191.413 106.192 L213.635 106.192 L213.635 108.183 L201.088 140.752 L196.204 140.752 L208.01 110.127 L191.413 110.127 L191.413 106.192 Z" fill="#000000" fill-rule="evenodd" fill-opacity="1" /><path clip-path="url(#clip370)" d="M222.894 140.035 L222.894 135.775 Q224.653 136.609 226.459 137.048 Q228.264 137.488 230 137.488 Q234.63 137.488 237.06 134.386 Q239.514 131.261 239.861 124.919 Q238.519 126.91 236.459 127.974 Q234.398 129.039 231.898 129.039 Q226.713 129.039 223.681 125.914 Q220.672 122.766 220.672 117.326 Q220.672 112.002 223.82 108.785 Q226.968 105.567 232.199 105.567 Q238.195 105.567 241.343 110.174 Q244.514 114.757 244.514 123.507 Q244.514 131.678 240.625 136.562 Q236.76 141.423 230.209 141.423 Q228.449 141.423 226.644 141.076 Q224.838 140.729 222.894 140.035 M232.199 125.382 Q235.347 125.382 237.176 123.229 Q239.028 121.076 239.028 117.326 Q239.028 113.599 237.176 111.447 Q235.347 109.271 232.199 109.271 Q229.051 109.271 227.199 111.447 Q225.371 113.599 225.371 117.326 Q225.371 121.076 227.199 123.229 Q229.051 125.382 232.199 125.382 Z" fill="#000000" fill-rule="evenodd" fill-opacity="1" /><path clip-path="url(#clip370)" d="M252.963 106.192 L271.32 106.192 L271.32 110.127 L257.246 110.127 L257.246 118.599 Q258.264 118.252 259.283 118.09 Q260.301 117.905 261.32 117.905 Q267.107 117.905 270.486 121.076 Q273.866 124.248 273.866 129.664 Q273.866 135.243 270.394 138.345 Q266.921 141.423 260.602 141.423 Q258.426 141.423 256.158 141.053 Q253.912 140.683 251.505 139.942 L251.505 135.243 Q253.588 136.377 255.81 136.933 Q258.033 137.488 260.509 137.488 Q264.514 137.488 266.852 135.382 Q269.19 133.275 269.19 129.664 Q269.19 126.053 266.852 123.947 Q264.514 121.84 260.509 121.84 Q258.634 121.84 256.759 122.257 Q254.908 122.674 252.963 123.553 L252.963 106.192 Z" fill="#000000" fill-rule="evenodd" fill-opacity="1" /><path clip-path="url(#clip370)" d="M16.4842 987.834 L16.4842 981.405 L64.0042 981.405 L64.0042 987.834 L16.4842 987.834 Z" fill="#000000" fill-rule="evenodd" fill-opacity="1" /><path clip-path="url(#clip370)" d="M42.4881 939.232 L64.0042 939.232 L64.0042 945.089 L42.679 945.089 Q37.6183 945.089 35.1038 947.062 Q32.5894 949.035 32.5894 952.982 Q32.5894 957.725 35.6131 960.462 Q38.6368 963.199 43.8567 963.199 L64.0042 963.199 L64.0042 969.087 L28.3562 969.087 L28.3562 963.199 L33.8944 963.199 Q30.6797 961.098 29.0883 958.266 Q27.4968 955.401 27.4968 951.677 Q27.4968 945.534 31.3163 942.383 Q35.1038 939.232 42.4881 939.232 Z" fill="#000000" fill-rule="evenodd" fill-opacity="1" /><path clip-path="url(#clip370)" d="M42.4881 897.919 L64.0042 897.919 L64.0042 903.775 L42.679 903.775 Q37.6183 903.775 35.1038 905.749 Q32.5894 907.722 32.5894 911.669 Q32.5894 916.411 35.6131 919.148 Q38.6368 921.886 43.8567 921.886 L64.0042 921.886 L64.0042 927.774 L28.3562 927.774 L28.3562 921.886 L33.8944 921.886 Q30.6797 919.785 29.0883 916.952 Q27.4968 914.088 27.4968 910.364 Q27.4968 904.221 31.3163 901.07 Q35.1038 897.919 42.4881 897.919 Z" fill="#000000" fill-rule="evenodd" fill-opacity="1" /><path clip-path="url(#clip370)" d="M44.7161 855.746 L47.5806 855.746 L47.5806 882.673 Q53.6281 882.291 56.8109 879.044 Q59.9619 875.766 59.9619 869.941 Q59.9619 866.568 59.1344 863.417 Q58.3069 860.234 56.6518 857.115 L62.1899 857.115 Q63.5267 860.266 64.227 863.576 Q64.9272 866.886 64.9272 870.292 Q64.9272 878.822 59.9619 883.819 Q54.9967 888.784 46.5303 888.784 Q37.7774 888.784 32.6531 884.073 Q27.4968 879.331 27.4968 871.31 Q27.4968 864.117 32.1438 859.947 Q36.7589 855.746 44.7161 855.746 M42.9973 861.602 Q38.1912 861.666 35.3266 864.308 Q32.4621 866.918 32.4621 871.246 Q32.4621 876.148 35.2312 879.108 Q38.0002 882.036 43.0292 882.482 L42.9973 861.602 Z" fill="#000000" fill-rule="evenodd" fill-opacity="1" /><path clip-path="url(#clip370)" d="M33.8307 825.477 Q33.2578 826.464 33.0032 827.641 Q32.7167 828.787 32.7167 830.188 Q32.7167 835.153 35.9632 837.827 Q39.1779 840.468 45.2253 840.468 L64.0042 840.468 L64.0042 846.357 L28.3562 846.357 L28.3562 840.468 L33.8944 840.468 Q30.6479 838.622 29.0883 835.662 Q27.4968 832.702 27.4968 828.469 Q27.4968 827.864 27.5923 827.132 Q27.656 826.4 27.8151 825.509 L33.8307 825.477 Z" fill="#000000" fill-rule="evenodd" fill-opacity="1" /><path clip-path="url(#clip370)" d="M21.7677 791.93 L39.6235 791.93 L39.6235 783.845 Q39.6235 779.357 37.3 776.907 Q34.9765 774.456 30.6797 774.456 Q26.4147 774.456 24.0912 776.907 Q21.7677 779.357 21.7677 783.845 L21.7677 791.93 M16.4842 798.359 L16.4842 783.845 Q16.4842 775.856 20.1126 771.782 Q23.7092 767.676 30.6797 767.676 Q37.7138 767.676 41.3104 771.782 Q44.907 775.856 44.907 783.845 L44.907 791.93 L64.0042 791.93 L64.0042 798.359 L16.4842 798.359 Z" fill="#000000" fill-rule="evenodd" fill-opacity="1" /><path clip-path="url(#clip370)" d="M33.8307 739.795 Q33.2578 740.781 33.0032 741.959 Q32.7167 743.105 32.7167 744.505 Q32.7167 749.47 35.9632 752.144 Q39.1779 754.786 45.2253 754.786 L64.0042 754.786 L64.0042 760.674 L28.3562 760.674 L28.3562 754.786 L33.8944 754.786 Q30.6479 752.94 29.0883 749.98 Q27.4968 747.02 27.4968 742.787 Q27.4968 742.182 27.5923 741.45 Q27.656 740.718 27.8151 739.826 L33.8307 739.795 Z" fill="#000000" fill-rule="evenodd" fill-opacity="1" /><path clip-path="url(#clip370)" d="M32.4621 721.27 Q32.4621 725.981 36.1542 728.718 Q39.8145 731.456 46.212 731.456 Q52.6095 731.456 56.3017 728.75 Q59.9619 726.013 59.9619 721.27 Q59.9619 716.592 56.2698 713.854 Q52.5777 711.117 46.212 711.117 Q39.8781 711.117 36.186 713.854 Q32.4621 716.592 32.4621 721.27 M27.4968 721.27 Q27.4968 713.632 32.4621 709.271 Q37.4273 704.911 46.212 704.911 Q54.9649 704.911 59.9619 709.271 Q64.9272 713.632 64.9272 721.27 Q64.9272 728.941 59.9619 733.302 Q54.9649 737.63 46.212 737.63 Q37.4273 737.63 32.4621 733.302 Q27.4968 728.941 27.4968 721.27 Z" fill="#000000" fill-rule="evenodd" fill-opacity="1" /><path clip-path="url(#clip370)" d="M33.7671 671.745 L14.479 671.745 L14.479 665.889 L64.0042 665.889 L64.0042 671.745 L58.657 671.745 Q61.8398 673.591 63.3994 676.424 Q64.9272 679.225 64.9272 683.172 Q64.9272 689.633 59.771 693.707 Q54.6147 697.749 46.212 697.749 Q37.8093 697.749 32.6531 693.707 Q27.4968 689.633 27.4968 683.172 Q27.4968 679.225 29.0564 676.424 Q30.5842 673.591 33.7671 671.745 M46.212 691.702 Q52.6732 691.702 56.3653 689.06 Q60.0256 686.386 60.0256 681.739 Q60.0256 677.092 56.3653 674.419 Q52.6732 671.745 46.212 671.745 Q39.7508 671.745 36.0905 674.419 Q32.3984 677.092 32.3984 681.739 Q32.3984 686.386 36.0905 689.06 Q39.7508 691.702 46.212 691.702 Z" fill="#000000" fill-rule="evenodd" fill-opacity="1" /><path clip-path="url(#clip370)" d="M49.9359 654.43 L28.3562 654.43 L28.3562 648.574 L49.7131 648.574 Q54.7739 648.574 57.3202 646.601 Q59.8346 644.627 59.8346 640.681 Q59.8346 635.938 56.8109 633.201 Q53.7872 630.432 48.5673 630.432 L28.3562 630.432 L28.3562 624.575 L64.0042 624.575 L64.0042 630.432 L58.5296 630.432 Q61.7762 632.564 63.3676 635.397 Q64.9272 638.198 64.9272 641.922 Q64.9272 648.065 61.1078 651.248 Q57.2883 654.43 49.9359 654.43 M27.4968 639.694 L27.4968 639.694 Z" fill="#000000" fill-rule="evenodd" fill-opacity="1" /><path clip-path="url(#clip370)" d="M29.7248 586.859 L35.1993 586.859 Q33.8307 589.341 33.1623 591.856 Q32.4621 594.338 32.4621 596.885 Q32.4621 602.582 36.0905 605.733 Q39.6872 608.884 46.212 608.884 Q52.7369 608.884 56.3653 605.733 Q59.9619 602.582 59.9619 596.885 Q59.9619 594.338 59.2935 591.856 Q58.5933 589.341 57.2247 586.859 L62.6355 586.859 Q63.7814 589.309 64.3543 591.951 Q64.9272 594.561 64.9272 597.521 Q64.9272 605.574 59.8664 610.316 Q54.8057 615.059 46.212 615.059 Q37.491 615.059 32.4939 610.284 Q27.4968 605.478 27.4968 597.139 Q27.4968 594.434 28.0697 591.856 Q28.6108 589.277 29.7248 586.859 Z" fill="#000000" fill-rule="evenodd" fill-opacity="1" /><path clip-path="url(#clip370)" d="M18.2347 570.881 L28.3562 570.881 L28.3562 558.818 L32.9077 558.818 L32.9077 570.881 L52.2594 570.881 Q56.6199 570.881 57.8613 569.703 Q59.1026 568.493 59.1026 564.833 L59.1026 558.818 L64.0042 558.818 L64.0042 564.833 Q64.0042 571.613 61.4897 574.191 Q58.9434 576.769 52.2594 576.769 L32.9077 576.769 L32.9077 581.066 L28.3562 581.066 L28.3562 576.769 L18.2347 576.769 L18.2347 570.881 Z" fill="#000000" fill-rule="evenodd" fill-opacity="1" /><path clip-path="url(#clip370)" d="M1200.89 17.6457 Q1191.98 17.6457 1186.71 24.2892 Q1181.49 30.9327 1181.49 42.3968 Q1181.49 53.8203 1186.71 60.4638 Q1191.98 67.1073 1200.89 67.1073 Q1209.8 67.1073 1214.99 60.4638 Q1220.21 53.8203 1220.21 42.3968 Q1220.21 30.9327 1214.99 24.2892 Q1209.8 17.6457 1200.89 17.6457 M1200.89 11.0023 Q1213.61 11.0023 1221.23 19.5497 Q1228.84 28.0566 1228.84 42.3968 Q1228.84 56.6965 1221.23 65.2439 Q1213.61 73.7508 1200.89 73.7508 Q1188.13 73.7508 1180.48 65.2439 Q1172.86 56.737 1172.86 42.3968 Q1172.86 28.0566 1180.48 19.5497 Q1188.13 11.0023 1200.89 11.0023 Z" fill="#000000" fill-rule="evenodd" fill-opacity="1" /><path clip-path="url(#clip370)" d="M1235.97 27.2059 L1243.87 27.2059 L1258.05 65.2844 L1272.23 27.2059 L1280.13 27.2059 L1263.11 72.576 L1252.99 72.576 L1235.97 27.2059 Z" fill="#000000" fill-rule="evenodd" fill-opacity="1" /><path clip-path="url(#clip370)" d="M1329.22 48.0275 L1329.22 51.6733 L1294.95 51.6733 Q1295.44 59.3701 1299.57 63.421 Q1303.74 67.4314 1311.16 67.4314 Q1315.45 67.4314 1319.46 66.3781 Q1323.51 65.3249 1327.48 63.2184 L1327.48 70.267 Q1323.47 71.9684 1319.26 72.8596 Q1315.05 73.7508 1310.71 73.7508 Q1299.86 73.7508 1293.5 67.4314 Q1287.18 61.1119 1287.18 50.3365 Q1287.18 39.1965 1293.17 32.6746 Q1299.21 26.1121 1309.42 26.1121 Q1318.57 26.1121 1323.88 32.0264 Q1329.22 37.9003 1329.22 48.0275 M1321.77 45.84 Q1321.69 39.7232 1318.33 36.0774 Q1315.01 32.4315 1309.5 32.4315 Q1303.26 32.4315 1299.49 35.9558 Q1295.76 39.4801 1295.2 45.8805 L1321.77 45.84 Z" fill="#000000" fill-rule="evenodd" fill-opacity="1" /><path clip-path="url(#clip370)" d="M1367.75 34.1734 Q1366.49 33.4443 1364.99 33.1202 Q1363.54 32.7556 1361.75 32.7556 Q1355.43 32.7556 1352.03 36.8875 Q1348.67 40.9789 1348.67 48.6757 L1348.67 72.576 L1341.17 72.576 L1341.17 27.2059 L1348.67 27.2059 L1348.67 34.2544 Q1351.02 30.1225 1354.79 28.1376 Q1358.55 26.1121 1363.94 26.1121 Q1364.71 26.1121 1365.64 26.2337 Q1366.57 26.3147 1367.71 26.5172 L1367.75 34.1734 Z" fill="#000000" fill-rule="evenodd" fill-opacity="1" /><path clip-path="url(#clip370)" d="M1375.57 9.54393 L1383.02 9.54393 L1383.02 72.576 L1375.57 72.576 L1375.57 9.54393 Z" fill="#000000" fill-rule="evenodd" fill-opacity="1" /><path clip-path="url(#clip370)" d="M1419.24 49.7694 Q1410.2 49.7694 1406.72 51.8354 Q1403.23 53.9013 1403.23 58.8839 Q1403.23 62.8538 1405.83 65.2034 Q1408.46 67.5124 1412.96 67.5124 Q1419.15 67.5124 1422.88 63.1374 Q1426.65 58.7219 1426.65 51.4303 L1426.65 49.7694 L1419.24 49.7694 M1434.1 46.6907 L1434.1 72.576 L1426.65 72.576 L1426.65 65.6895 Q1424.1 69.8214 1420.29 71.8063 Q1416.48 73.7508 1410.97 73.7508 Q1404 73.7508 1399.87 69.8619 Q1395.78 65.9325 1395.78 59.3701 Q1395.78 51.7138 1400.89 47.825 Q1406.03 43.9361 1416.2 43.9361 L1426.65 43.9361 L1426.65 43.2069 Q1426.65 38.0623 1423.25 35.2672 Q1419.88 32.4315 1413.77 32.4315 Q1409.88 32.4315 1406.19 33.3632 Q1402.51 34.295 1399.1 36.1584 L1399.1 29.2718 Q1403.19 27.692 1407.04 26.9223 Q1410.89 26.1121 1414.54 26.1121 Q1424.38 26.1121 1429.24 31.2163 Q1434.1 36.3204 1434.1 46.6907 Z" fill="#000000" fill-rule="evenodd" fill-opacity="1" /><path clip-path="url(#clip370)" d="M1456.67 65.7705 L1456.67 89.8329 L1449.17 89.8329 L1449.17 27.2059 L1456.67 27.2059 L1456.67 34.0924 Q1459.02 30.0415 1462.58 28.0971 Q1466.19 26.1121 1471.17 26.1121 Q1479.43 26.1121 1484.58 32.6746 Q1489.76 39.2371 1489.76 49.9314 Q1489.76 60.6258 1484.58 67.1883 Q1479.43 73.7508 1471.17 73.7508 Q1466.19 73.7508 1462.58 71.8063 Q1459.02 69.8214 1456.67 65.7705 M1482.02 49.9314 Q1482.02 41.7081 1478.62 37.0496 Q1475.26 32.3505 1469.35 32.3505 Q1463.43 32.3505 1460.03 37.0496 Q1456.67 41.7081 1456.67 49.9314 Q1456.67 58.1548 1460.03 62.8538 Q1463.43 67.5124 1469.35 67.5124 Q1475.26 67.5124 1478.62 62.8538 Q1482.02 58.1548 1482.02 49.9314 Z" fill="#000000" fill-rule="evenodd" fill-opacity="1" /><polyline clip-path="url(#clip372)" style="stroke:#000000; stroke-linecap:round; stroke-linejoin:round; stroke-width:4; stroke-opacity:1; fill:none" points="
  350.724,311.678 350.724,311.657 
  "/>
<polyline clip-path="url(#clip372)" style="stroke:#000000; stroke-linecap:round; stroke-linejoin:round; stroke-width:4; stroke-opacity:1; fill:none" points="
  391.581,1061.99 391.581,1061.98 
  "/>
<polyline clip-path="url(#clip372)" style="stroke:#000000; stroke-linecap:round; stroke-linejoin:round; stroke-width:4; stroke-opacity:1; fill:none" points="
  432.439,1142.64 432.439,1142.6 
  "/>
<polyline clip-path="url(#clip372)" style="stroke:#000000; stroke-linecap:round; stroke-linejoin:round; stroke-width:4; stroke-opacity:1; fill:none" points="
  473.297,1154.02 473.297,1151.62 
  "/>
<polyline clip-path="url(#clip372)" style="stroke:#000000; stroke-linecap:round; stroke-linejoin:round; stroke-width:4; stroke-opacity:1; fill:none" points="
  514.155,1155.85 514.155,1152.62 
  "/>
<polyline clip-path="url(#clip372)" style="stroke:#000000; stroke-linecap:round; stroke-linejoin:round; stroke-width:4; stroke-opacity:1; fill:none" points="
  555.013,1156.18 555.013,1152.7 
  "/>
<polyline clip-path="url(#clip372)" style="stroke:#000000; stroke-linecap:round; stroke-linejoin:round; stroke-width:4; stroke-opacity:1; fill:none" points="
  595.87,1156.7 595.87,1152.24 
  "/>
<polyline clip-path="url(#clip372)" style="stroke:#000000; stroke-linecap:round; stroke-linejoin:round; stroke-width:4; stroke-opacity:1; fill:none" points="
  636.728,1156.88 636.728,1152.07 
  "/>
<polyline clip-path="url(#clip372)" style="stroke:#000000; stroke-linecap:round; stroke-linejoin:round; stroke-width:4; stroke-opacity:1; fill:none" points="
  677.586,1157.07 677.586,1151.88 
  "/>
<polyline clip-path="url(#clip372)" style="stroke:#000000; stroke-linecap:round; stroke-linejoin:round; stroke-width:4; stroke-opacity:1; fill:none" points="
  718.444,1157.17 718.444,1151.79 
  "/>
<polyline clip-path="url(#clip372)" style="stroke:#000000; stroke-linecap:round; stroke-linejoin:round; stroke-width:4; stroke-opacity:1; fill:none" points="
  759.302,1157.21 759.302,1151.74 
  "/>
<polyline clip-path="url(#clip372)" style="stroke:#000000; stroke-linecap:round; stroke-linejoin:round; stroke-width:4; stroke-opacity:1; fill:none" points="
  800.159,1157.34 800.159,1151.61 
  "/>
<polyline clip-path="url(#clip372)" style="stroke:#000000; stroke-linecap:round; stroke-linejoin:round; stroke-width:4; stroke-opacity:1; fill:none" points="
  841.017,1157.41 841.017,1151.54 
  "/>
<polyline clip-path="url(#clip372)" style="stroke:#000000; stroke-linecap:round; stroke-linejoin:round; stroke-width:4; stroke-opacity:1; fill:none" points="
  881.875,1157.46 881.875,1151.49 
  "/>
<polyline clip-path="url(#clip372)" style="stroke:#000000; stroke-linecap:round; stroke-linejoin:round; stroke-width:4; stroke-opacity:1; fill:none" points="
  922.733,1157.51 922.733,1151.45 
  "/>
<polyline clip-path="url(#clip372)" style="stroke:#000000; stroke-linecap:round; stroke-linejoin:round; stroke-width:4; stroke-opacity:1; fill:none" points="
  963.591,1157.54 963.591,1151.41 
  "/>
<polyline clip-path="url(#clip372)" style="stroke:#000000; stroke-linecap:round; stroke-linejoin:round; stroke-width:4; stroke-opacity:1; fill:none" points="
  1004.45,1157.58 1004.45,1151.37 
  "/>
<polyline clip-path="url(#clip372)" style="stroke:#000000; stroke-linecap:round; stroke-linejoin:round; stroke-width:4; stroke-opacity:1; fill:none" points="
  1045.31,1157.61 1045.31,1151.34 
  "/>
<polyline clip-path="url(#clip372)" style="stroke:#000000; stroke-linecap:round; stroke-linejoin:round; stroke-width:4; stroke-opacity:1; fill:none" points="
  1086.16,1157.63 1086.16,1151.32 
  "/>
<polyline clip-path="url(#clip372)" style="stroke:#000000; stroke-linecap:round; stroke-linejoin:round; stroke-width:4; stroke-opacity:1; fill:none" points="
  1127.02,1157.66 1127.02,1151.3 
  "/>
<polyline clip-path="url(#clip372)" style="stroke:#000000; stroke-linecap:round; stroke-linejoin:round; stroke-width:4; stroke-opacity:1; fill:none" points="
  1167.88,1157.68 1167.88,1151.27 
  "/>
<polyline clip-path="url(#clip372)" style="stroke:#000000; stroke-linecap:round; stroke-linejoin:round; stroke-width:4; stroke-opacity:1; fill:none" points="
  1208.74,1157.7 1208.74,1151.25 
  "/>
<polyline clip-path="url(#clip372)" style="stroke:#000000; stroke-linecap:round; stroke-linejoin:round; stroke-width:4; stroke-opacity:1; fill:none" points="
  1249.6,1157.71 1249.6,1151.24 
  "/>
<polyline clip-path="url(#clip372)" style="stroke:#000000; stroke-linecap:round; stroke-linejoin:round; stroke-width:4; stroke-opacity:1; fill:none" points="
  1290.45,1157.73 1290.45,1151.22 
  "/>
<polyline clip-path="url(#clip372)" style="stroke:#000000; stroke-linecap:round; stroke-linejoin:round; stroke-width:4; stroke-opacity:1; fill:none" points="
  1331.31,1157.75 1331.31,1151.21 
  "/>
<polyline clip-path="url(#clip372)" style="stroke:#000000; stroke-linecap:round; stroke-linejoin:round; stroke-width:4; stroke-opacity:1; fill:none" points="
  1372.17,1157.76 1372.17,1151.19 
  "/>
<polyline clip-path="url(#clip372)" style="stroke:#000000; stroke-linecap:round; stroke-linejoin:round; stroke-width:4; stroke-opacity:1; fill:none" points="
  1413.03,1157.77 1413.03,1151.18 
  "/>
<polyline clip-path="url(#clip372)" style="stroke:#000000; stroke-linecap:round; stroke-linejoin:round; stroke-width:4; stroke-opacity:1; fill:none" points="
  1453.88,1157.78 1453.88,1151.17 
  "/>
<polyline clip-path="url(#clip372)" style="stroke:#000000; stroke-linecap:round; stroke-linejoin:round; stroke-width:4; stroke-opacity:1; fill:none" points="
  1494.74,1157.79 1494.74,1151.17 
  "/>
<polyline clip-path="url(#clip372)" style="stroke:#000000; stroke-linecap:round; stroke-linejoin:round; stroke-width:4; stroke-opacity:1; fill:none" points="
  1535.6,1157.8 1535.6,1151.15 
  "/>
<polyline clip-path="url(#clip372)" style="stroke:#000000; stroke-linecap:round; stroke-linejoin:round; stroke-width:4; stroke-opacity:1; fill:none" points="
  1576.46,1157.81 1576.46,1151.14 
  "/>
<polyline clip-path="url(#clip372)" style="stroke:#000000; stroke-linecap:round; stroke-linejoin:round; stroke-width:4; stroke-opacity:1; fill:none" points="
  1617.32,1157.82 1617.32,1151.13 
  "/>
<polyline clip-path="url(#clip372)" style="stroke:#000000; stroke-linecap:round; stroke-linejoin:round; stroke-width:4; stroke-opacity:1; fill:none" points="
  1658.17,1157.84 1658.17,1151.12 
  "/>
<polyline clip-path="url(#clip372)" style="stroke:#000000; stroke-linecap:round; stroke-linejoin:round; stroke-width:4; stroke-opacity:1; fill:none" points="
  1699.03,1157.84 1699.03,1151.12 
  "/>
<polyline clip-path="url(#clip372)" style="stroke:#000000; stroke-linecap:round; stroke-linejoin:round; stroke-width:4; stroke-opacity:1; fill:none" points="
  1739.89,1157.84 1739.89,1151.11 
  "/>
<polyline clip-path="url(#clip372)" style="stroke:#000000; stroke-linecap:round; stroke-linejoin:round; stroke-width:4; stroke-opacity:1; fill:none" points="
  1780.75,1157.84 1780.75,1151.11 
  "/>
<polyline clip-path="url(#clip372)" style="stroke:#000000; stroke-linecap:round; stroke-linejoin:round; stroke-width:4; stroke-opacity:1; fill:none" points="
  1821.6,1157.85 1821.6,1151.1 
  "/>
<polyline clip-path="url(#clip372)" style="stroke:#000000; stroke-linecap:round; stroke-linejoin:round; stroke-width:4; stroke-opacity:1; fill:none" points="
  1862.46,1157.85 1862.46,1151.1 
  "/>
<polyline clip-path="url(#clip372)" style="stroke:#000000; stroke-linecap:round; stroke-linejoin:round; stroke-width:4; stroke-opacity:1; fill:none" points="
  1903.32,1157.86 1903.32,1151.09 
  "/>
<polyline clip-path="url(#clip372)" style="stroke:#000000; stroke-linecap:round; stroke-linejoin:round; stroke-width:4; stroke-opacity:1; fill:none" points="
  1944.18,1157.85 1944.18,1151.1 
  "/>
<polyline clip-path="url(#clip372)" style="stroke:#000000; stroke-linecap:round; stroke-linejoin:round; stroke-width:4; stroke-opacity:1; fill:none" points="
  1985.04,1157.88 1985.04,1151.08 
  "/>
<polyline clip-path="url(#clip372)" style="stroke:#000000; stroke-linecap:round; stroke-linejoin:round; stroke-width:4; stroke-opacity:1; fill:none" points="
  2025.89,1157.87 2025.89,1151.08 
  "/>
<polyline clip-path="url(#clip372)" style="stroke:#000000; stroke-linecap:round; stroke-linejoin:round; stroke-width:4; stroke-opacity:1; fill:none" points="
  2066.75,1157.89 2066.75,1151.06 
  "/>
<polyline clip-path="url(#clip372)" style="stroke:#000000; stroke-linecap:round; stroke-linejoin:round; stroke-width:4; stroke-opacity:1; fill:none" points="
  2107.61,1157.86 2107.61,1151.09 
  "/>
<polyline clip-path="url(#clip372)" style="stroke:#000000; stroke-linecap:round; stroke-linejoin:round; stroke-width:4; stroke-opacity:1; fill:none" points="
  2148.47,1157.87 2148.47,1151.08 
  "/>
<polyline clip-path="url(#clip372)" style="stroke:#000000; stroke-linecap:round; stroke-linejoin:round; stroke-width:4; stroke-opacity:1; fill:none" points="
  2189.32,1157.88 2189.32,1151.08 
  "/>
<polyline clip-path="url(#clip372)" style="stroke:#000000; stroke-linecap:round; stroke-linejoin:round; stroke-width:4; stroke-opacity:1; fill:none" points="
  2230.18,1157.89 2230.18,1151.06 
  "/>
<polyline clip-path="url(#clip372)" style="stroke:#000000; stroke-linecap:round; stroke-linejoin:round; stroke-width:4; stroke-opacity:1; fill:none" points="
  2271.04,1157.88 2271.04,1151.07 
  "/>
<polyline clip-path="url(#clip372)" style="stroke:#000000; stroke-linecap:round; stroke-linejoin:round; stroke-width:4; stroke-opacity:1; fill:none" points="
  2311.9,1157.9 2311.9,1151.06 
  "/>
<line clip-path="url(#clip372)" x1="358.724" y1="311.678" x2="342.724" y2="311.678" style="stroke:#000000; stroke-width:3.2; stroke-opacity:1"/>
<line clip-path="url(#clip372)" x1="358.724" y1="311.657" x2="342.724" y2="311.657" style="stroke:#000000; stroke-width:3.2; stroke-opacity:1"/>
<line clip-path="url(#clip372)" x1="399.581" y1="1061.99" x2="383.581" y2="1061.99" style="stroke:#000000; stroke-width:3.2; stroke-opacity:1"/>
<line clip-path="url(#clip372)" x1="399.581" y1="1061.98" x2="383.581" y2="1061.98" style="stroke:#000000; stroke-width:3.2; stroke-opacity:1"/>
<line clip-path="url(#clip372)" x1="440.439" y1="1142.64" x2="424.439" y2="1142.64" style="stroke:#000000; stroke-width:3.2; stroke-opacity:1"/>
<line clip-path="url(#clip372)" x1="440.439" y1="1142.6" x2="424.439" y2="1142.6" style="stroke:#000000; stroke-width:3.2; stroke-opacity:1"/>
<line clip-path="url(#clip372)" x1="481.297" y1="1154.02" x2="465.297" y2="1154.02" style="stroke:#000000; stroke-width:3.2; stroke-opacity:1"/>
<line clip-path="url(#clip372)" x1="481.297" y1="1151.62" x2="465.297" y2="1151.62" style="stroke:#000000; stroke-width:3.2; stroke-opacity:1"/>
<line clip-path="url(#clip372)" x1="522.155" y1="1155.85" x2="506.155" y2="1155.85" style="stroke:#000000; stroke-width:3.2; stroke-opacity:1"/>
<line clip-path="url(#clip372)" x1="522.155" y1="1152.62" x2="506.155" y2="1152.62" style="stroke:#000000; stroke-width:3.2; stroke-opacity:1"/>
<line clip-path="url(#clip372)" x1="563.013" y1="1156.18" x2="547.013" y2="1156.18" style="stroke:#000000; stroke-width:3.2; stroke-opacity:1"/>
<line clip-path="url(#clip372)" x1="563.013" y1="1152.7" x2="547.013" y2="1152.7" style="stroke:#000000; stroke-width:3.2; stroke-opacity:1"/>
<line clip-path="url(#clip372)" x1="603.87" y1="1156.7" x2="587.87" y2="1156.7" style="stroke:#000000; stroke-width:3.2; stroke-opacity:1"/>
<line clip-path="url(#clip372)" x1="603.87" y1="1152.24" x2="587.87" y2="1152.24" style="stroke:#000000; stroke-width:3.2; stroke-opacity:1"/>
<line clip-path="url(#clip372)" x1="644.728" y1="1156.88" x2="628.728" y2="1156.88" style="stroke:#000000; stroke-width:3.2; stroke-opacity:1"/>
<line clip-path="url(#clip372)" x1="644.728" y1="1152.07" x2="628.728" y2="1152.07" style="stroke:#000000; stroke-width:3.2; stroke-opacity:1"/>
<line clip-path="url(#clip372)" x1="685.586" y1="1157.07" x2="669.586" y2="1157.07" style="stroke:#000000; stroke-width:3.2; stroke-opacity:1"/>
<line clip-path="url(#clip372)" x1="685.586" y1="1151.88" x2="669.586" y2="1151.88" style="stroke:#000000; stroke-width:3.2; stroke-opacity:1"/>
<line clip-path="url(#clip372)" x1="726.444" y1="1157.17" x2="710.444" y2="1157.17" style="stroke:#000000; stroke-width:3.2; stroke-opacity:1"/>
<line clip-path="url(#clip372)" x1="726.444" y1="1151.79" x2="710.444" y2="1151.79" style="stroke:#000000; stroke-width:3.2; stroke-opacity:1"/>
<line clip-path="url(#clip372)" x1="767.302" y1="1157.21" x2="751.302" y2="1157.21" style="stroke:#000000; stroke-width:3.2; stroke-opacity:1"/>
<line clip-path="url(#clip372)" x1="767.302" y1="1151.74" x2="751.302" y2="1151.74" style="stroke:#000000; stroke-width:3.2; stroke-opacity:1"/>
<line clip-path="url(#clip372)" x1="808.159" y1="1157.34" x2="792.159" y2="1157.34" style="stroke:#000000; stroke-width:3.2; stroke-opacity:1"/>
<line clip-path="url(#clip372)" x1="808.159" y1="1151.61" x2="792.159" y2="1151.61" style="stroke:#000000; stroke-width:3.2; stroke-opacity:1"/>
<line clip-path="url(#clip372)" x1="849.017" y1="1157.41" x2="833.017" y2="1157.41" style="stroke:#000000; stroke-width:3.2; stroke-opacity:1"/>
<line clip-path="url(#clip372)" x1="849.017" y1="1151.54" x2="833.017" y2="1151.54" style="stroke:#000000; stroke-width:3.2; stroke-opacity:1"/>
<line clip-path="url(#clip372)" x1="889.875" y1="1157.46" x2="873.875" y2="1157.46" style="stroke:#000000; stroke-width:3.2; stroke-opacity:1"/>
<line clip-path="url(#clip372)" x1="889.875" y1="1151.49" x2="873.875" y2="1151.49" style="stroke:#000000; stroke-width:3.2; stroke-opacity:1"/>
<line clip-path="url(#clip372)" x1="930.733" y1="1157.51" x2="914.733" y2="1157.51" style="stroke:#000000; stroke-width:3.2; stroke-opacity:1"/>
<line clip-path="url(#clip372)" x1="930.733" y1="1151.45" x2="914.733" y2="1151.45" style="stroke:#000000; stroke-width:3.2; stroke-opacity:1"/>
<line clip-path="url(#clip372)" x1="971.591" y1="1157.54" x2="955.591" y2="1157.54" style="stroke:#000000; stroke-width:3.2; stroke-opacity:1"/>
<line clip-path="url(#clip372)" x1="971.591" y1="1151.41" x2="955.591" y2="1151.41" style="stroke:#000000; stroke-width:3.2; stroke-opacity:1"/>
<line clip-path="url(#clip372)" x1="1012.45" y1="1157.58" x2="996.448" y2="1157.58" style="stroke:#000000; stroke-width:3.2; stroke-opacity:1"/>
<line clip-path="url(#clip372)" x1="1012.45" y1="1151.37" x2="996.448" y2="1151.37" style="stroke:#000000; stroke-width:3.2; stroke-opacity:1"/>
<line clip-path="url(#clip372)" x1="1053.31" y1="1157.61" x2="1037.31" y2="1157.61" style="stroke:#000000; stroke-width:3.2; stroke-opacity:1"/>
<line clip-path="url(#clip372)" x1="1053.31" y1="1151.34" x2="1037.31" y2="1151.34" style="stroke:#000000; stroke-width:3.2; stroke-opacity:1"/>
<line clip-path="url(#clip372)" x1="1094.16" y1="1157.63" x2="1078.16" y2="1157.63" style="stroke:#000000; stroke-width:3.2; stroke-opacity:1"/>
<line clip-path="url(#clip372)" x1="1094.16" y1="1151.32" x2="1078.16" y2="1151.32" style="stroke:#000000; stroke-width:3.2; stroke-opacity:1"/>
<line clip-path="url(#clip372)" x1="1135.02" y1="1157.66" x2="1119.02" y2="1157.66" style="stroke:#000000; stroke-width:3.2; stroke-opacity:1"/>
<line clip-path="url(#clip372)" x1="1135.02" y1="1151.3" x2="1119.02" y2="1151.3" style="stroke:#000000; stroke-width:3.2; stroke-opacity:1"/>
<line clip-path="url(#clip372)" x1="1175.88" y1="1157.68" x2="1159.88" y2="1157.68" style="stroke:#000000; stroke-width:3.2; stroke-opacity:1"/>
<line clip-path="url(#clip372)" x1="1175.88" y1="1151.27" x2="1159.88" y2="1151.27" style="stroke:#000000; stroke-width:3.2; stroke-opacity:1"/>
<line clip-path="url(#clip372)" x1="1216.74" y1="1157.7" x2="1200.74" y2="1157.7" style="stroke:#000000; stroke-width:3.2; stroke-opacity:1"/>
<line clip-path="url(#clip372)" x1="1216.74" y1="1151.25" x2="1200.74" y2="1151.25" style="stroke:#000000; stroke-width:3.2; stroke-opacity:1"/>
<line clip-path="url(#clip372)" x1="1257.6" y1="1157.71" x2="1241.6" y2="1157.71" style="stroke:#000000; stroke-width:3.2; stroke-opacity:1"/>
<line clip-path="url(#clip372)" x1="1257.6" y1="1151.24" x2="1241.6" y2="1151.24" style="stroke:#000000; stroke-width:3.2; stroke-opacity:1"/>
<line clip-path="url(#clip372)" x1="1298.45" y1="1157.73" x2="1282.45" y2="1157.73" style="stroke:#000000; stroke-width:3.2; stroke-opacity:1"/>
<line clip-path="url(#clip372)" x1="1298.45" y1="1151.22" x2="1282.45" y2="1151.22" style="stroke:#000000; stroke-width:3.2; stroke-opacity:1"/>
<line clip-path="url(#clip372)" x1="1339.31" y1="1157.75" x2="1323.31" y2="1157.75" style="stroke:#000000; stroke-width:3.2; stroke-opacity:1"/>
<line clip-path="url(#clip372)" x1="1339.31" y1="1151.21" x2="1323.31" y2="1151.21" style="stroke:#000000; stroke-width:3.2; stroke-opacity:1"/>
<line clip-path="url(#clip372)" x1="1380.17" y1="1157.76" x2="1364.17" y2="1157.76" style="stroke:#000000; stroke-width:3.2; stroke-opacity:1"/>
<line clip-path="url(#clip372)" x1="1380.17" y1="1151.19" x2="1364.17" y2="1151.19" style="stroke:#000000; stroke-width:3.2; stroke-opacity:1"/>
<line clip-path="url(#clip372)" x1="1421.03" y1="1157.77" x2="1405.03" y2="1157.77" style="stroke:#000000; stroke-width:3.2; stroke-opacity:1"/>
<line clip-path="url(#clip372)" x1="1421.03" y1="1151.18" x2="1405.03" y2="1151.18" style="stroke:#000000; stroke-width:3.2; stroke-opacity:1"/>
<line clip-path="url(#clip372)" x1="1461.88" y1="1157.78" x2="1445.88" y2="1157.78" style="stroke:#000000; stroke-width:3.2; stroke-opacity:1"/>
<line clip-path="url(#clip372)" x1="1461.88" y1="1151.17" x2="1445.88" y2="1151.17" style="stroke:#000000; stroke-width:3.2; stroke-opacity:1"/>
<line clip-path="url(#clip372)" x1="1502.74" y1="1157.79" x2="1486.74" y2="1157.79" style="stroke:#000000; stroke-width:3.2; stroke-opacity:1"/>
<line clip-path="url(#clip372)" x1="1502.74" y1="1151.17" x2="1486.74" y2="1151.17" style="stroke:#000000; stroke-width:3.2; stroke-opacity:1"/>
<line clip-path="url(#clip372)" x1="1543.6" y1="1157.8" x2="1527.6" y2="1157.8" style="stroke:#000000; stroke-width:3.2; stroke-opacity:1"/>
<line clip-path="url(#clip372)" x1="1543.6" y1="1151.15" x2="1527.6" y2="1151.15" style="stroke:#000000; stroke-width:3.2; stroke-opacity:1"/>
<line clip-path="url(#clip372)" x1="1584.46" y1="1157.81" x2="1568.46" y2="1157.81" style="stroke:#000000; stroke-width:3.2; stroke-opacity:1"/>
<line clip-path="url(#clip372)" x1="1584.46" y1="1151.14" x2="1568.46" y2="1151.14" style="stroke:#000000; stroke-width:3.2; stroke-opacity:1"/>
<line clip-path="url(#clip372)" x1="1625.32" y1="1157.82" x2="1609.32" y2="1157.82" style="stroke:#000000; stroke-width:3.2; stroke-opacity:1"/>
<line clip-path="url(#clip372)" x1="1625.32" y1="1151.13" x2="1609.32" y2="1151.13" style="stroke:#000000; stroke-width:3.2; stroke-opacity:1"/>
<line clip-path="url(#clip372)" x1="1666.17" y1="1157.84" x2="1650.17" y2="1157.84" style="stroke:#000000; stroke-width:3.2; stroke-opacity:1"/>
<line clip-path="url(#clip372)" x1="1666.17" y1="1151.12" x2="1650.17" y2="1151.12" style="stroke:#000000; stroke-width:3.2; stroke-opacity:1"/>
<line clip-path="url(#clip372)" x1="1707.03" y1="1157.84" x2="1691.03" y2="1157.84" style="stroke:#000000; stroke-width:3.2; stroke-opacity:1"/>
<line clip-path="url(#clip372)" x1="1707.03" y1="1151.12" x2="1691.03" y2="1151.12" style="stroke:#000000; stroke-width:3.2; stroke-opacity:1"/>
<line clip-path="url(#clip372)" x1="1747.89" y1="1157.84" x2="1731.89" y2="1157.84" style="stroke:#000000; stroke-width:3.2; stroke-opacity:1"/>
<line clip-path="url(#clip372)" x1="1747.89" y1="1151.11" x2="1731.89" y2="1151.11" style="stroke:#000000; stroke-width:3.2; stroke-opacity:1"/>
<line clip-path="url(#clip372)" x1="1788.75" y1="1157.84" x2="1772.75" y2="1157.84" style="stroke:#000000; stroke-width:3.2; stroke-opacity:1"/>
<line clip-path="url(#clip372)" x1="1788.75" y1="1151.11" x2="1772.75" y2="1151.11" style="stroke:#000000; stroke-width:3.2; stroke-opacity:1"/>
<line clip-path="url(#clip372)" x1="1829.6" y1="1157.85" x2="1813.6" y2="1157.85" style="stroke:#000000; stroke-width:3.2; stroke-opacity:1"/>
<line clip-path="url(#clip372)" x1="1829.6" y1="1151.1" x2="1813.6" y2="1151.1" style="stroke:#000000; stroke-width:3.2; stroke-opacity:1"/>
<line clip-path="url(#clip372)" x1="1870.46" y1="1157.85" x2="1854.46" y2="1157.85" style="stroke:#000000; stroke-width:3.2; stroke-opacity:1"/>
<line clip-path="url(#clip372)" x1="1870.46" y1="1151.1" x2="1854.46" y2="1151.1" style="stroke:#000000; stroke-width:3.2; stroke-opacity:1"/>
<line clip-path="url(#clip372)" x1="1911.32" y1="1157.86" x2="1895.32" y2="1157.86" style="stroke:#000000; stroke-width:3.2; stroke-opacity:1"/>
<line clip-path="url(#clip372)" x1="1911.32" y1="1151.09" x2="1895.32" y2="1151.09" style="stroke:#000000; stroke-width:3.2; stroke-opacity:1"/>
<line clip-path="url(#clip372)" x1="1952.18" y1="1157.85" x2="1936.18" y2="1157.85" style="stroke:#000000; stroke-width:3.2; stroke-opacity:1"/>
<line clip-path="url(#clip372)" x1="1952.18" y1="1151.1" x2="1936.18" y2="1151.1" style="stroke:#000000; stroke-width:3.2; stroke-opacity:1"/>
<line clip-path="url(#clip372)" x1="1993.04" y1="1157.88" x2="1977.04" y2="1157.88" style="stroke:#000000; stroke-width:3.2; stroke-opacity:1"/>
<line clip-path="url(#clip372)" x1="1993.04" y1="1151.08" x2="1977.04" y2="1151.08" style="stroke:#000000; stroke-width:3.2; stroke-opacity:1"/>
<line clip-path="url(#clip372)" x1="2033.89" y1="1157.87" x2="2017.89" y2="1157.87" style="stroke:#000000; stroke-width:3.2; stroke-opacity:1"/>
<line clip-path="url(#clip372)" x1="2033.89" y1="1151.08" x2="2017.89" y2="1151.08" style="stroke:#000000; stroke-width:3.2; stroke-opacity:1"/>
<line clip-path="url(#clip372)" x1="2074.75" y1="1157.89" x2="2058.75" y2="1157.89" style="stroke:#000000; stroke-width:3.2; stroke-opacity:1"/>
<line clip-path="url(#clip372)" x1="2074.75" y1="1151.06" x2="2058.75" y2="1151.06" style="stroke:#000000; stroke-width:3.2; stroke-opacity:1"/>
<line clip-path="url(#clip372)" x1="2115.61" y1="1157.86" x2="2099.61" y2="1157.86" style="stroke:#000000; stroke-width:3.2; stroke-opacity:1"/>
<line clip-path="url(#clip372)" x1="2115.61" y1="1151.09" x2="2099.61" y2="1151.09" style="stroke:#000000; stroke-width:3.2; stroke-opacity:1"/>
<line clip-path="url(#clip372)" x1="2156.47" y1="1157.87" x2="2140.47" y2="1157.87" style="stroke:#000000; stroke-width:3.2; stroke-opacity:1"/>
<line clip-path="url(#clip372)" x1="2156.47" y1="1151.08" x2="2140.47" y2="1151.08" style="stroke:#000000; stroke-width:3.2; stroke-opacity:1"/>
<line clip-path="url(#clip372)" x1="2197.32" y1="1157.88" x2="2181.32" y2="1157.88" style="stroke:#000000; stroke-width:3.2; stroke-opacity:1"/>
<line clip-path="url(#clip372)" x1="2197.32" y1="1151.08" x2="2181.32" y2="1151.08" style="stroke:#000000; stroke-width:3.2; stroke-opacity:1"/>
<line clip-path="url(#clip372)" x1="2238.18" y1="1157.89" x2="2222.18" y2="1157.89" style="stroke:#000000; stroke-width:3.2; stroke-opacity:1"/>
<line clip-path="url(#clip372)" x1="2238.18" y1="1151.06" x2="2222.18" y2="1151.06" style="stroke:#000000; stroke-width:3.2; stroke-opacity:1"/>
<line clip-path="url(#clip372)" x1="2279.04" y1="1157.88" x2="2263.04" y2="1157.88" style="stroke:#000000; stroke-width:3.2; stroke-opacity:1"/>
<line clip-path="url(#clip372)" x1="2279.04" y1="1151.07" x2="2263.04" y2="1151.07" style="stroke:#000000; stroke-width:3.2; stroke-opacity:1"/>
<line clip-path="url(#clip372)" x1="2319.9" y1="1157.9" x2="2303.9" y2="1157.9" style="stroke:#000000; stroke-width:3.2; stroke-opacity:1"/>
<line clip-path="url(#clip372)" x1="2319.9" y1="1151.06" x2="2303.9" y2="1151.06" style="stroke:#000000; stroke-width:3.2; stroke-opacity:1"/>
<circle clip-path="url(#clip372)" cx="350.724" cy="311.667" r="7.2" fill="#009af9" fill-rule="evenodd" fill-opacity="1" stroke="#000000" stroke-opacity="1" stroke-width="3.2"/>
<circle clip-path="url(#clip372)" cx="391.581" cy="1061.98" r="7.2" fill="#009af9" fill-rule="evenodd" fill-opacity="1" stroke="#000000" stroke-opacity="1" stroke-width="3.2"/>
<circle clip-path="url(#clip372)" cx="432.439" cy="1142.62" r="7.2" fill="#009af9" fill-rule="evenodd" fill-opacity="1" stroke="#000000" stroke-opacity="1" stroke-width="3.2"/>
<circle clip-path="url(#clip372)" cx="473.297" cy="1152.82" r="7.2" fill="#009af9" fill-rule="evenodd" fill-opacity="1" stroke="#000000" stroke-opacity="1" stroke-width="3.2"/>
<circle clip-path="url(#clip372)" cx="514.155" cy="1154.23" r="7.2" fill="#009af9" fill-rule="evenodd" fill-opacity="1" stroke="#000000" stroke-opacity="1" stroke-width="3.2"/>
<circle clip-path="url(#clip372)" cx="555.013" cy="1154.44" r="7.2" fill="#009af9" fill-rule="evenodd" fill-opacity="1" stroke="#000000" stroke-opacity="1" stroke-width="3.2"/>
<circle clip-path="url(#clip372)" cx="595.87" cy="1154.47" r="7.2" fill="#009af9" fill-rule="evenodd" fill-opacity="1" stroke="#000000" stroke-opacity="1" stroke-width="3.2"/>
<circle clip-path="url(#clip372)" cx="636.728" cy="1154.48" r="7.2" fill="#009af9" fill-rule="evenodd" fill-opacity="1" stroke="#000000" stroke-opacity="1" stroke-width="3.2"/>
<circle clip-path="url(#clip372)" cx="677.586" cy="1154.48" r="7.2" fill="#009af9" fill-rule="evenodd" fill-opacity="1" stroke="#000000" stroke-opacity="1" stroke-width="3.2"/>
<circle clip-path="url(#clip372)" cx="718.444" cy="1154.48" r="7.2" fill="#009af9" fill-rule="evenodd" fill-opacity="1" stroke="#000000" stroke-opacity="1" stroke-width="3.2"/>
<circle clip-path="url(#clip372)" cx="759.302" cy="1154.48" r="7.2" fill="#009af9" fill-rule="evenodd" fill-opacity="1" stroke="#000000" stroke-opacity="1" stroke-width="3.2"/>
<circle clip-path="url(#clip372)" cx="800.159" cy="1154.48" r="7.2" fill="#009af9" fill-rule="evenodd" fill-opacity="1" stroke="#000000" stroke-opacity="1" stroke-width="3.2"/>
<circle clip-path="url(#clip372)" cx="841.017" cy="1154.48" r="7.2" fill="#009af9" fill-rule="evenodd" fill-opacity="1" stroke="#000000" stroke-opacity="1" stroke-width="3.2"/>
<circle clip-path="url(#clip372)" cx="881.875" cy="1154.48" r="7.2" fill="#009af9" fill-rule="evenodd" fill-opacity="1" stroke="#000000" stroke-opacity="1" stroke-width="3.2"/>
<circle clip-path="url(#clip372)" cx="922.733" cy="1154.48" r="7.2" fill="#009af9" fill-rule="evenodd" fill-opacity="1" stroke="#000000" stroke-opacity="1" stroke-width="3.2"/>
<circle clip-path="url(#clip372)" cx="963.591" cy="1154.48" r="7.2" fill="#009af9" fill-rule="evenodd" fill-opacity="1" stroke="#000000" stroke-opacity="1" stroke-width="3.2"/>
<circle clip-path="url(#clip372)" cx="1004.45" cy="1154.48" r="7.2" fill="#009af9" fill-rule="evenodd" fill-opacity="1" stroke="#000000" stroke-opacity="1" stroke-width="3.2"/>
<circle clip-path="url(#clip372)" cx="1045.31" cy="1154.48" r="7.2" fill="#009af9" fill-rule="evenodd" fill-opacity="1" stroke="#000000" stroke-opacity="1" stroke-width="3.2"/>
<circle clip-path="url(#clip372)" cx="1086.16" cy="1154.48" r="7.2" fill="#009af9" fill-rule="evenodd" fill-opacity="1" stroke="#000000" stroke-opacity="1" stroke-width="3.2"/>
<circle clip-path="url(#clip372)" cx="1127.02" cy="1154.48" r="7.2" fill="#009af9" fill-rule="evenodd" fill-opacity="1" stroke="#000000" stroke-opacity="1" stroke-width="3.2"/>
<circle clip-path="url(#clip372)" cx="1167.88" cy="1154.48" r="7.2" fill="#009af9" fill-rule="evenodd" fill-opacity="1" stroke="#000000" stroke-opacity="1" stroke-width="3.2"/>
<circle clip-path="url(#clip372)" cx="1208.74" cy="1154.48" r="7.2" fill="#009af9" fill-rule="evenodd" fill-opacity="1" stroke="#000000" stroke-opacity="1" stroke-width="3.2"/>
<circle clip-path="url(#clip372)" cx="1249.6" cy="1154.48" r="7.2" fill="#009af9" fill-rule="evenodd" fill-opacity="1" stroke="#000000" stroke-opacity="1" stroke-width="3.2"/>
<circle clip-path="url(#clip372)" cx="1290.45" cy="1154.48" r="7.2" fill="#009af9" fill-rule="evenodd" fill-opacity="1" stroke="#000000" stroke-opacity="1" stroke-width="3.2"/>
<circle clip-path="url(#clip372)" cx="1331.31" cy="1154.48" r="7.2" fill="#009af9" fill-rule="evenodd" fill-opacity="1" stroke="#000000" stroke-opacity="1" stroke-width="3.2"/>
<circle clip-path="url(#clip372)" cx="1372.17" cy="1154.48" r="7.2" fill="#009af9" fill-rule="evenodd" fill-opacity="1" stroke="#000000" stroke-opacity="1" stroke-width="3.2"/>
<circle clip-path="url(#clip372)" cx="1413.03" cy="1154.48" r="7.2" fill="#009af9" fill-rule="evenodd" fill-opacity="1" stroke="#000000" stroke-opacity="1" stroke-width="3.2"/>
<circle clip-path="url(#clip372)" cx="1453.88" cy="1154.48" r="7.2" fill="#009af9" fill-rule="evenodd" fill-opacity="1" stroke="#000000" stroke-opacity="1" stroke-width="3.2"/>
<circle clip-path="url(#clip372)" cx="1494.74" cy="1154.48" r="7.2" fill="#009af9" fill-rule="evenodd" fill-opacity="1" stroke="#000000" stroke-opacity="1" stroke-width="3.2"/>
<circle clip-path="url(#clip372)" cx="1535.6" cy="1154.48" r="7.2" fill="#009af9" fill-rule="evenodd" fill-opacity="1" stroke="#000000" stroke-opacity="1" stroke-width="3.2"/>
<circle clip-path="url(#clip372)" cx="1576.46" cy="1154.48" r="7.2" fill="#009af9" fill-rule="evenodd" fill-opacity="1" stroke="#000000" stroke-opacity="1" stroke-width="3.2"/>
<circle clip-path="url(#clip372)" cx="1617.32" cy="1154.48" r="7.2" fill="#009af9" fill-rule="evenodd" fill-opacity="1" stroke="#000000" stroke-opacity="1" stroke-width="3.2"/>
<circle clip-path="url(#clip372)" cx="1658.17" cy="1154.48" r="7.2" fill="#009af9" fill-rule="evenodd" fill-opacity="1" stroke="#000000" stroke-opacity="1" stroke-width="3.2"/>
<circle clip-path="url(#clip372)" cx="1699.03" cy="1154.48" r="7.2" fill="#009af9" fill-rule="evenodd" fill-opacity="1" stroke="#000000" stroke-opacity="1" stroke-width="3.2"/>
<circle clip-path="url(#clip372)" cx="1739.89" cy="1154.48" r="7.2" fill="#009af9" fill-rule="evenodd" fill-opacity="1" stroke="#000000" stroke-opacity="1" stroke-width="3.2"/>
<circle clip-path="url(#clip372)" cx="1780.75" cy="1154.48" r="7.2" fill="#009af9" fill-rule="evenodd" fill-opacity="1" stroke="#000000" stroke-opacity="1" stroke-width="3.2"/>
<circle clip-path="url(#clip372)" cx="1821.6" cy="1154.48" r="7.2" fill="#009af9" fill-rule="evenodd" fill-opacity="1" stroke="#000000" stroke-opacity="1" stroke-width="3.2"/>
<circle clip-path="url(#clip372)" cx="1862.46" cy="1154.48" r="7.2" fill="#009af9" fill-rule="evenodd" fill-opacity="1" stroke="#000000" stroke-opacity="1" stroke-width="3.2"/>
<circle clip-path="url(#clip372)" cx="1903.32" cy="1154.48" r="7.2" fill="#009af9" fill-rule="evenodd" fill-opacity="1" stroke="#000000" stroke-opacity="1" stroke-width="3.2"/>
<circle clip-path="url(#clip372)" cx="1944.18" cy="1154.48" r="7.2" fill="#009af9" fill-rule="evenodd" fill-opacity="1" stroke="#000000" stroke-opacity="1" stroke-width="3.2"/>
<circle clip-path="url(#clip372)" cx="1985.04" cy="1154.48" r="7.2" fill="#009af9" fill-rule="evenodd" fill-opacity="1" stroke="#000000" stroke-opacity="1" stroke-width="3.2"/>
<circle clip-path="url(#clip372)" cx="2025.89" cy="1154.48" r="7.2" fill="#009af9" fill-rule="evenodd" fill-opacity="1" stroke="#000000" stroke-opacity="1" stroke-width="3.2"/>
<circle clip-path="url(#clip372)" cx="2066.75" cy="1154.48" r="7.2" fill="#009af9" fill-rule="evenodd" fill-opacity="1" stroke="#000000" stroke-opacity="1" stroke-width="3.2"/>
<circle clip-path="url(#clip372)" cx="2107.61" cy="1154.48" r="7.2" fill="#009af9" fill-rule="evenodd" fill-opacity="1" stroke="#000000" stroke-opacity="1" stroke-width="3.2"/>
<circle clip-path="url(#clip372)" cx="2148.47" cy="1154.48" r="7.2" fill="#009af9" fill-rule="evenodd" fill-opacity="1" stroke="#000000" stroke-opacity="1" stroke-width="3.2"/>
<circle clip-path="url(#clip372)" cx="2189.32" cy="1154.48" r="7.2" fill="#009af9" fill-rule="evenodd" fill-opacity="1" stroke="#000000" stroke-opacity="1" stroke-width="3.2"/>
<circle clip-path="url(#clip372)" cx="2230.18" cy="1154.48" r="7.2" fill="#009af9" fill-rule="evenodd" fill-opacity="1" stroke="#000000" stroke-opacity="1" stroke-width="3.2"/>
<circle clip-path="url(#clip372)" cx="2271.04" cy="1154.48" r="7.2" fill="#009af9" fill-rule="evenodd" fill-opacity="1" stroke="#000000" stroke-opacity="1" stroke-width="3.2"/>
<circle clip-path="url(#clip372)" cx="2311.9" cy="1154.48" r="7.2" fill="#009af9" fill-rule="evenodd" fill-opacity="1" stroke="#000000" stroke-opacity="1" stroke-width="3.2"/>
<path clip-path="url(#clip370)" d="
M1722.59 270.476 L2284.66 270.476 L2284.66 166.796 L1722.59 166.796  Z
  " fill="#ffffff" fill-rule="evenodd" fill-opacity="1"/>
<polyline clip-path="url(#clip370)" style="stroke:#000000; stroke-linecap:round; stroke-linejoin:round; stroke-width:4; stroke-opacity:1; fill:none" points="
  1722.59,270.476 2284.66,270.476 2284.66,166.796 1722.59,166.796 1722.59,270.476 
  "/>
<circle clip-path="url(#clip370)" cx="1813.39" cy="218.636" r="23.04" fill="#009af9" fill-rule="evenodd" fill-opacity="1" stroke="#000000" stroke-opacity="1" stroke-width="10.24"/>
<path clip-path="url(#clip370)" d="M1924.53 214.967 Q1926.13 212.096 1928.35 210.731 Q1930.57 209.365 1933.58 209.365 Q1937.63 209.365 1939.83 212.212 Q1942.03 215.036 1942.03 220.268 L1942.03 235.916 L1937.75 235.916 L1937.75 220.407 Q1937.75 216.68 1936.43 214.874 Q1935.11 213.069 1932.4 213.069 Q1929.09 213.069 1927.17 215.268 Q1925.25 217.467 1925.25 221.263 L1925.25 235.916 L1920.97 235.916 L1920.97 220.407 Q1920.97 216.657 1919.65 214.874 Q1918.33 213.069 1915.57 213.069 Q1912.31 213.069 1910.39 215.291 Q1908.47 217.49 1908.47 221.263 L1908.47 235.916 L1904.18 235.916 L1904.18 209.99 L1908.47 209.99 L1908.47 214.018 Q1909.93 211.633 1911.96 210.499 Q1914 209.365 1916.8 209.365 Q1919.62 209.365 1921.59 210.8 Q1923.58 212.235 1924.53 214.967 Z" fill="#000000" fill-rule="evenodd" fill-opacity="1" /><path clip-path="url(#clip370)" d="M1959.25 220.245 Q1958.1 218.254 1955.76 218.254 Q1953.42 218.254 1952.26 220.245 Q1951.08 222.235 1951.08 226.217 Q1951.08 230.221 1952.26 232.212 Q1953.42 234.203 1955.76 234.203 Q1958.1 234.203 1959.25 232.212 Q1960.43 230.221 1960.43 226.217 Q1960.43 222.235 1959.25 220.245 M1955.76 216.194 Q1959.49 216.194 1961.45 218.763 Q1963.42 221.332 1963.42 226.217 Q1963.42 231.124 1961.45 233.694 Q1959.49 236.263 1955.76 236.263 Q1952.01 236.263 1950.04 233.694 Q1948.07 231.124 1948.07 226.217 Q1948.07 221.332 1950.04 218.763 Q1952.01 216.194 1955.76 216.194 Z" fill="#000000" fill-rule="evenodd" fill-opacity="1" /><path clip-path="url(#clip370)" d="M1970.09 214.388 L1999.76 214.388 L1999.76 218.277 L1970.09 218.277 L1970.09 214.388 M1970.09 223.832 L1999.76 223.832 L1999.76 227.768 L1970.09 227.768 L1970.09 223.832 Z" fill="#000000" fill-rule="evenodd" fill-opacity="1" /><path clip-path="url(#clip370)" d="M2019.86 204.434 Q2016.24 204.434 2014.42 207.999 Q2012.61 211.541 2012.61 218.67 Q2012.61 225.777 2014.42 229.342 Q2016.24 232.883 2019.86 232.883 Q2023.49 232.883 2025.3 229.342 Q2027.12 225.777 2027.12 218.67 Q2027.12 211.541 2025.3 207.999 Q2023.49 204.434 2019.86 204.434 M2019.86 200.731 Q2025.67 200.731 2028.72 205.337 Q2031.8 209.92 2031.8 218.67 Q2031.8 227.397 2028.72 232.004 Q2025.67 236.587 2019.86 236.587 Q2014.05 236.587 2010.97 232.004 Q2007.91 227.397 2007.91 218.67 Q2007.91 209.92 2010.97 205.337 Q2014.05 200.731 2019.86 200.731 Z" fill="#000000" fill-rule="evenodd" fill-opacity="1" /><path clip-path="url(#clip370)" d="M2040.02 230.036 L2044.9 230.036 L2044.9 235.916 L2040.02 235.916 L2040.02 230.036 Z" fill="#000000" fill-rule="evenodd" fill-opacity="1" /><path clip-path="url(#clip370)" d="M2055.23 235.198 L2055.23 230.939 Q2056.99 231.772 2058.79 232.212 Q2060.6 232.652 2062.33 232.652 Q2066.96 232.652 2069.39 229.55 Q2071.85 226.425 2072.19 220.082 Q2070.85 222.073 2068.79 223.138 Q2066.73 224.203 2064.23 224.203 Q2059.05 224.203 2056.01 221.078 Q2053 217.93 2053 212.49 Q2053 207.166 2056.15 203.948 Q2059.3 200.731 2064.53 200.731 Q2070.53 200.731 2073.67 205.337 Q2076.85 209.92 2076.85 218.67 Q2076.85 226.842 2072.96 231.726 Q2069.09 236.587 2062.54 236.587 Q2060.78 236.587 2058.98 236.24 Q2057.17 235.893 2055.23 235.198 M2064.53 220.545 Q2067.68 220.545 2069.51 218.393 Q2071.36 216.24 2071.36 212.49 Q2071.36 208.763 2069.51 206.61 Q2067.68 204.434 2064.53 204.434 Q2061.38 204.434 2059.53 206.61 Q2057.7 208.763 2057.7 212.49 Q2057.7 216.24 2059.53 218.393 Q2061.38 220.545 2064.53 220.545 Z" fill="#000000" fill-rule="evenodd" fill-opacity="1" /><path clip-path="url(#clip370)" d="M2085.73 230.036 L2090.62 230.036 L2090.62 234.018 L2086.82 241.425 L2083.84 241.425 L2085.73 234.018 L2085.73 230.036 Z" fill="#000000" fill-rule="evenodd" fill-opacity="1" /><path clip-path="url(#clip370)" d="M2123.47 230.985 L2123.47 221.703 L2115.83 221.703 L2115.83 217.86 L2128.1 217.86 L2128.1 232.698 Q2125.39 234.619 2122.12 235.615 Q2118.86 236.587 2115.16 236.587 Q2107.05 236.587 2102.47 231.865 Q2097.91 227.119 2097.91 218.67 Q2097.91 210.198 2102.47 205.476 Q2107.05 200.731 2115.16 200.731 Q2118.54 200.731 2121.57 201.564 Q2124.62 202.397 2127.19 204.018 L2127.19 208.995 Q2124.6 206.796 2121.68 205.684 Q2118.77 204.573 2115.55 204.573 Q2109.21 204.573 2106.01 208.115 Q2102.84 211.657 2102.84 218.67 Q2102.84 225.661 2106.01 229.203 Q2109.21 232.744 2115.55 232.744 Q2118.03 232.744 2119.97 232.328 Q2121.92 231.888 2123.47 230.985 Z" fill="#000000" fill-rule="evenodd" fill-opacity="1" /><path clip-path="url(#clip370)" d="M2138.19 217.814 L2148 217.814 L2148 220.453 L2134.16 220.453 L2134.16 217.907 Q2134.95 217.189 2136.41 215.893 Q2144.37 208.833 2144.37 206.657 Q2144.37 205.129 2143.17 204.203 Q2141.96 203.254 2139.99 203.254 Q2138.79 203.254 2137.38 203.671 Q2135.97 204.064 2134.3 204.874 L2134.3 202.027 Q2136.08 201.379 2137.61 201.055 Q2139.16 200.731 2140.48 200.731 Q2143.84 200.731 2145.85 202.258 Q2147.86 203.786 2147.86 206.286 Q2147.86 209.504 2140.2 216.078 Q2138.91 217.189 2138.19 217.814 Z" fill="#000000" fill-rule="evenodd" fill-opacity="1" /><path clip-path="url(#clip370)" d="M2156.01 214.388 L2185.69 214.388 L2185.69 218.277 L2156.01 218.277 L2156.01 214.388 M2156.01 223.832 L2185.69 223.832 L2185.69 227.768 L2156.01 227.768 L2156.01 223.832 Z" fill="#000000" fill-rule="evenodd" fill-opacity="1" /><path clip-path="url(#clip370)" d="M2205.78 204.434 Q2202.17 204.434 2200.34 207.999 Q2198.54 211.541 2198.54 218.67 Q2198.54 225.777 2200.34 229.342 Q2202.17 232.883 2205.78 232.883 Q2209.41 232.883 2211.22 229.342 Q2213.05 225.777 2213.05 218.67 Q2213.05 211.541 2211.22 207.999 Q2209.41 204.434 2205.78 204.434 M2205.78 200.731 Q2211.59 200.731 2214.65 205.337 Q2217.72 209.92 2217.72 218.67 Q2217.72 227.397 2214.65 232.004 Q2211.59 236.587 2205.78 236.587 Q2199.97 236.587 2196.89 232.004 Q2193.84 227.397 2193.84 218.67 Q2193.84 209.92 2196.89 205.337 Q2199.97 200.731 2205.78 200.731 Z" fill="#000000" fill-rule="evenodd" fill-opacity="1" /><path clip-path="url(#clip370)" d="M2225.94 230.036 L2230.83 230.036 L2230.83 235.916 L2225.94 235.916 L2225.94 230.036 Z" fill="#000000" fill-rule="evenodd" fill-opacity="1" /><path clip-path="url(#clip370)" d="M2241.06 201.356 L2259.41 201.356 L2259.41 205.291 L2245.34 205.291 L2245.34 213.763 Q2246.36 213.416 2247.38 213.254 Q2248.4 213.069 2249.41 213.069 Q2255.2 213.069 2258.58 216.24 Q2261.96 219.411 2261.96 224.828 Q2261.96 230.406 2258.49 233.508 Q2255.02 236.587 2248.7 236.587 Q2246.52 236.587 2244.25 236.217 Q2242.01 235.846 2239.6 235.106 L2239.6 230.406 Q2241.68 231.541 2243.91 232.096 Q2246.13 232.652 2248.6 232.652 Q2252.61 232.652 2254.95 230.545 Q2257.28 228.439 2257.28 224.828 Q2257.28 221.217 2254.95 219.11 Q2252.61 217.004 2248.6 217.004 Q2246.73 217.004 2244.85 217.42 Q2243 217.837 2241.06 218.717 L2241.06 201.356 Z" fill="#000000" fill-rule="evenodd" fill-opacity="1" /></svg>
