<?xml version="1.0" encoding="utf-8"?>
<svg xmlns="http://www.w3.org/2000/svg" xmlns:xlink="http://www.w3.org/1999/xlink" width="600" height="400" viewBox="0 0 2400 1600">
<defs>
  <clipPath id="clip590">
    <rect x="0" y="0" width="2400" height="1600"/>
  </clipPath>
</defs>
<path clip-path="url(#clip590)" d="
M0 1600 L2400 1600 L2400 0 L0 0  Z
  " fill="#ffffff" fill-rule="evenodd" fill-opacity="1"/>
<defs>
  <clipPath id="clip591">
    <rect x="480" y="0" width="1681" height="1600"/>
  </clipPath>
</defs>
<path clip-path="url(#clip590)" d="
M280.19 1423.18 L2352.76 1423.18 L2352.76 123.472 L280.19 123.472  Z
  " fill="#ffffff" fill-rule="evenodd" fill-opacity="1"/>
<defs>
  <clipPath id="clip592">
    <rect x="280" y="123" width="2074" height="1301"/>
  </clipPath>
</defs>
<polyline clip-path="url(#clip592)" style="stroke:#000000; stroke-linecap:round; stroke-linejoin:round; stroke-width:2; stroke-opacity:0.1; fill:none" points="
  280.19,1423.18 280.19,123.472 
  "/>
<polyline clip-path="url(#clip592)" style="stroke:#000000; stroke-linecap:round; stroke-linejoin:round; stroke-width:2; stroke-opacity:0.1; fill:none" points="
  625.618,1423.18 625.618,123.472 
  "/>
<polyline clip-path="url(#clip592)" style="stroke:#000000; stroke-linecap:round; stroke-linejoin:round; stroke-width:2; stroke-opacity:0.1; fill:none" points="
  971.045,1423.18 971.045,123.472 
  "/>
<polyline clip-path="url(#clip592)" style="stroke:#000000; stroke-linecap:round; stroke-linejoin:round; stroke-width:2; stroke-opacity:0.1; fill:none" points="
  1316.47,1423.18 1316.47,123.472 
  "/>
<polyline clip-path="url(#clip592)" style="stroke:#000000; stroke-linecap:round; stroke-linejoin:round; stroke-width:2; stroke-opacity:0.1; fill:none" points="
  1661.9,1423.18 1661.9,123.472 
  "/>
<polyline clip-path="url(#clip592)" style="stroke:#000000; stroke-linecap:round; stroke-linejoin:round; stroke-width:2; stroke-opacity:0.1; fill:none" points="
  2007.33,1423.18 2007.33,123.472 
  "/>
<polyline clip-path="url(#clip592)" style="stroke:#000000; stroke-linecap:round; stroke-linejoin:round; stroke-width:2; stroke-opacity:0.1; fill:none" points="
  2352.76,1423.18 2352.76,123.472 
  "/>
<polyline clip-path="url(#clip590)" style="stroke:#000000; stroke-linecap:round; stroke-linejoin:round; stroke-width:4; stroke-opacity:1; fill:none" points="
  280.19,1423.18 2352.76,1423.18 
  "/>
<polyline clip-path="url(#clip590)" style="stroke:#000000; stroke-linecap:round; stroke-linejoin:round; stroke-width:4; stroke-opacity:1; fill:none" points="
  280.19,1423.18 280.19,1404.28 
  "/>
<polyline clip-path="url(#clip590)" style="stroke:#000000; stroke-linecap:round; stroke-linejoin:round; stroke-width:4; stroke-opacity:1; fill:none" points="
  625.618,1423.18 625.618,1404.28 
  "/>
<polyline clip-path="url(#clip590)" style="stroke:#000000; stroke-linecap:round; stroke-linejoin:round; stroke-width:4; stroke-opacity:1; fill:none" points="
  971.045,1423.18 971.045,1404.28 
  "/>
<polyline clip-path="url(#clip590)" style="stroke:#000000; stroke-linecap:round; stroke-linejoin:round; stroke-width:4; stroke-opacity:1; fill:none" points="
  1316.47,1423.18 1316.47,1404.28 
  "/>
<polyline clip-path="url(#clip590)" style="stroke:#000000; stroke-linecap:round; stroke-linejoin:round; stroke-width:4; stroke-opacity:1; fill:none" points="
  1661.9,1423.18 1661.9,1404.28 
  "/>
<polyline clip-path="url(#clip590)" style="stroke:#000000; stroke-linecap:round; stroke-linejoin:round; stroke-width:4; stroke-opacity:1; fill:none" points="
  2007.33,1423.18 2007.33,1404.28 
  "/>
<polyline clip-path="url(#clip590)" style="stroke:#000000; stroke-linecap:round; stroke-linejoin:round; stroke-width:4; stroke-opacity:1; fill:none" points="
  2352.76,1423.18 2352.76,1404.28 
  "/>
<path clip-path="url(#clip590)" d="M280.19 1454.1 Q276.579 1454.1 274.75 1457.66 Q272.945 1461.2 272.945 1468.33 Q272.945 1475.44 274.75 1479.01 Q276.579 1482.55 280.19 1482.55 Q283.824 1482.55 285.63 1479.01 Q287.458 1475.44 287.458 1468.33 Q287.458 1461.2 285.63 1457.66 Q283.824 1454.1 280.19 1454.1 M280.19 1450.39 Q286 1450.39 289.056 1455 Q292.134 1459.58 292.134 1468.33 Q292.134 1477.06 289.056 1481.67 Q286 1486.25 280.19 1486.25 Q274.38 1486.25 271.301 1481.67 Q268.246 1477.06 268.246 1468.33 Q268.246 1459.58 271.301 1455 Q274.38 1450.39 280.19 1450.39 Z" fill="#000000" fill-rule="evenodd" fill-opacity="1" /><path clip-path="url(#clip590)" d="M615.895 1451.02 L634.252 1451.02 L634.252 1454.96 L620.178 1454.96 L620.178 1463.43 Q621.196 1463.08 622.215 1462.92 Q623.233 1462.73 624.252 1462.73 Q630.039 1462.73 633.419 1465.9 Q636.798 1469.08 636.798 1474.49 Q636.798 1480.07 633.326 1483.17 Q629.854 1486.25 623.534 1486.25 Q621.358 1486.25 619.09 1485.88 Q616.845 1485.51 614.437 1484.77 L614.437 1480.07 Q616.52 1481.2 618.743 1481.76 Q620.965 1482.32 623.442 1482.32 Q627.446 1482.32 629.784 1480.21 Q632.122 1478.1 632.122 1474.49 Q632.122 1470.88 629.784 1468.77 Q627.446 1466.67 623.442 1466.67 Q621.567 1466.67 619.692 1467.08 Q617.84 1467.5 615.895 1468.38 L615.895 1451.02 Z" fill="#000000" fill-rule="evenodd" fill-opacity="1" /><path clip-path="url(#clip590)" d="M945.733 1481.64 L953.372 1481.64 L953.372 1455.28 L945.062 1456.95 L945.062 1452.69 L953.326 1451.02 L958.001 1451.02 L958.001 1481.64 L965.64 1481.64 L965.64 1485.58 L945.733 1485.58 L945.733 1481.64 Z" fill="#000000" fill-rule="evenodd" fill-opacity="1" /><path clip-path="url(#clip590)" d="M985.085 1454.1 Q981.473 1454.1 979.645 1457.66 Q977.839 1461.2 977.839 1468.33 Q977.839 1475.44 979.645 1479.01 Q981.473 1482.55 985.085 1482.55 Q988.719 1482.55 990.524 1479.01 Q992.353 1475.44 992.353 1468.33 Q992.353 1461.2 990.524 1457.66 Q988.719 1454.1 985.085 1454.1 M985.085 1450.39 Q990.895 1450.39 993.95 1455 Q997.029 1459.58 997.029 1468.33 Q997.029 1477.06 993.95 1481.67 Q990.895 1486.25 985.085 1486.25 Q979.274 1486.25 976.196 1481.67 Q973.14 1477.06 973.14 1468.33 Q973.14 1459.58 976.196 1455 Q979.274 1450.39 985.085 1450.39 Z" fill="#000000" fill-rule="evenodd" fill-opacity="1" /><path clip-path="url(#clip590)" d="M1291.66 1481.64 L1299.3 1481.64 L1299.3 1455.28 L1290.99 1456.95 L1290.99 1452.69 L1299.25 1451.02 L1303.93 1451.02 L1303.93 1481.64 L1311.57 1481.64 L1311.57 1485.58 L1291.66 1485.58 L1291.66 1481.64 Z" fill="#000000" fill-rule="evenodd" fill-opacity="1" /><path clip-path="url(#clip590)" d="M1321.06 1451.02 L1339.41 1451.02 L1339.41 1454.96 L1325.34 1454.96 L1325.34 1463.43 Q1326.36 1463.08 1327.38 1462.92 Q1328.39 1462.73 1329.41 1462.73 Q1335.2 1462.73 1338.58 1465.9 Q1341.96 1469.08 1341.96 1474.49 Q1341.96 1480.07 1338.49 1483.17 Q1335.01 1486.25 1328.7 1486.25 Q1326.52 1486.25 1324.25 1485.88 Q1322.01 1485.51 1319.6 1484.77 L1319.6 1480.07 Q1321.68 1481.2 1323.9 1481.76 Q1326.13 1482.32 1328.6 1482.32 Q1332.61 1482.32 1334.95 1480.21 Q1337.28 1478.1 1337.28 1474.49 Q1337.28 1470.88 1334.95 1468.77 Q1332.61 1466.67 1328.6 1466.67 Q1326.73 1466.67 1324.85 1467.08 Q1323 1467.5 1321.06 1468.38 L1321.06 1451.02 Z" fill="#000000" fill-rule="evenodd" fill-opacity="1" /><path clip-path="url(#clip590)" d="M1640.67 1481.64 L1656.99 1481.64 L1656.99 1485.58 L1635.05 1485.58 L1635.05 1481.64 Q1637.71 1478.89 1642.29 1474.26 Q1646.9 1469.61 1648.08 1468.27 Q1650.33 1465.74 1651.21 1464.01 Q1652.11 1462.25 1652.11 1460.56 Q1652.11 1457.8 1650.16 1456.07 Q1648.24 1454.33 1645.14 1454.33 Q1642.94 1454.33 1640.49 1455.09 Q1638.06 1455.86 1635.28 1457.41 L1635.28 1452.69 Q1638.1 1451.55 1640.56 1450.97 Q1643.01 1450.39 1645.05 1450.39 Q1650.42 1450.39 1653.61 1453.08 Q1656.81 1455.77 1656.81 1460.26 Q1656.81 1462.39 1656 1464.31 Q1655.21 1466.2 1653.1 1468.8 Q1652.53 1469.47 1649.42 1472.69 Q1646.32 1475.88 1640.67 1481.64 Z" fill="#000000" fill-rule="evenodd" fill-opacity="1" /><path clip-path="url(#clip590)" d="M1676.81 1454.1 Q1673.2 1454.1 1671.37 1457.66 Q1669.56 1461.2 1669.56 1468.33 Q1669.56 1475.44 1671.37 1479.01 Q1673.2 1482.55 1676.81 1482.55 Q1680.44 1482.55 1682.25 1479.01 Q1684.08 1475.44 1684.08 1468.33 Q1684.08 1461.2 1682.25 1457.66 Q1680.44 1454.1 1676.81 1454.1 M1676.81 1450.39 Q1682.62 1450.39 1685.67 1455 Q1688.75 1459.58 1688.75 1468.33 Q1688.75 1477.06 1685.67 1481.67 Q1682.62 1486.25 1676.81 1486.25 Q1671 1486.25 1667.92 1481.67 Q1664.86 1477.06 1664.86 1468.33 Q1664.86 1459.58 1667.92 1455 Q1671 1450.39 1676.81 1450.39 Z" fill="#000000" fill-rule="evenodd" fill-opacity="1" /><path clip-path="url(#clip590)" d="M1986.6 1481.64 L2002.92 1481.64 L2002.92 1485.58 L1980.97 1485.58 L1980.97 1481.64 Q1983.64 1478.89 1988.22 1474.26 Q1992.83 1469.61 1994.01 1468.27 Q1996.25 1465.74 1997.13 1464.01 Q1998.03 1462.25 1998.03 1460.56 Q1998.03 1457.8 1996.09 1456.07 Q1994.17 1454.33 1991.07 1454.33 Q1988.87 1454.33 1986.41 1455.09 Q1983.98 1455.86 1981.21 1457.41 L1981.21 1452.69 Q1984.03 1451.55 1986.48 1450.97 Q1988.94 1450.39 1990.97 1450.39 Q1996.34 1450.39 1999.54 1453.08 Q2002.73 1455.77 2002.73 1460.26 Q2002.73 1462.39 2001.92 1464.31 Q2001.14 1466.2 1999.03 1468.8 Q1998.45 1469.47 1995.35 1472.69 Q1992.25 1475.88 1986.6 1481.64 Z" fill="#000000" fill-rule="evenodd" fill-opacity="1" /><path clip-path="url(#clip590)" d="M2012.78 1451.02 L2031.14 1451.02 L2031.14 1454.96 L2017.06 1454.96 L2017.06 1463.43 Q2018.08 1463.08 2019.1 1462.92 Q2020.12 1462.73 2021.14 1462.73 Q2026.92 1462.73 2030.3 1465.9 Q2033.68 1469.08 2033.68 1474.49 Q2033.68 1480.07 2030.21 1483.17 Q2026.74 1486.25 2020.42 1486.25 Q2018.24 1486.25 2015.97 1485.88 Q2013.73 1485.51 2011.32 1484.77 L2011.32 1480.07 Q2013.4 1481.2 2015.63 1481.76 Q2017.85 1482.32 2020.33 1482.32 Q2024.33 1482.32 2026.67 1480.21 Q2029.01 1478.1 2029.01 1474.49 Q2029.01 1470.88 2026.67 1468.77 Q2024.33 1466.67 2020.33 1466.67 Q2018.45 1466.67 2016.58 1467.08 Q2014.72 1467.5 2012.78 1468.38 L2012.78 1451.02 Z" fill="#000000" fill-rule="evenodd" fill-opacity="1" /><path clip-path="url(#clip590)" d="M2341.6 1466.95 Q2344.96 1467.66 2346.83 1469.93 Q2348.73 1472.2 2348.73 1475.53 Q2348.73 1480.65 2345.21 1483.45 Q2341.69 1486.25 2335.21 1486.25 Q2333.03 1486.25 2330.72 1485.81 Q2328.43 1485.39 2325.97 1484.54 L2325.97 1480.02 Q2327.92 1481.16 2330.23 1481.74 Q2332.55 1482.32 2335.07 1482.32 Q2339.47 1482.32 2341.76 1480.58 Q2344.08 1478.84 2344.08 1475.53 Q2344.08 1472.48 2341.92 1470.77 Q2339.79 1469.03 2335.97 1469.03 L2331.95 1469.03 L2331.95 1465.19 L2336.16 1465.19 Q2339.61 1465.19 2341.44 1463.82 Q2343.27 1462.43 2343.27 1459.84 Q2343.27 1457.18 2341.37 1455.77 Q2339.49 1454.33 2335.97 1454.33 Q2334.05 1454.33 2331.85 1454.75 Q2329.65 1455.16 2327.02 1456.04 L2327.02 1451.88 Q2329.68 1451.14 2331.99 1450.77 Q2334.33 1450.39 2336.39 1450.39 Q2341.71 1450.39 2344.82 1452.83 Q2347.92 1455.23 2347.92 1459.35 Q2347.92 1462.22 2346.27 1464.21 Q2344.63 1466.18 2341.6 1466.95 Z" fill="#000000" fill-rule="evenodd" fill-opacity="1" /><path clip-path="url(#clip590)" d="M2367.59 1454.1 Q2363.98 1454.1 2362.15 1457.66 Q2360.35 1461.2 2360.35 1468.33 Q2360.35 1475.44 2362.15 1479.01 Q2363.98 1482.55 2367.59 1482.55 Q2371.23 1482.55 2373.03 1479.01 Q2374.86 1475.44 2374.86 1468.33 Q2374.86 1461.2 2373.03 1457.66 Q2371.23 1454.1 2367.59 1454.1 M2367.59 1450.39 Q2373.4 1450.39 2376.46 1455 Q2379.54 1459.58 2379.54 1468.33 Q2379.54 1477.06 2376.46 1481.67 Q2373.4 1486.25 2367.59 1486.25 Q2361.78 1486.25 2358.7 1481.67 Q2355.65 1477.06 2355.65 1468.33 Q2355.65 1459.58 2358.7 1455 Q2361.78 1450.39 2367.59 1450.39 Z" fill="#000000" fill-rule="evenodd" fill-opacity="1" /><path clip-path="url(#clip590)" d="M1145.35 1522.08 L1145.35 1528.35 Q1141.69 1526.6 1138.44 1525.74 Q1135.19 1524.88 1132.17 1524.88 Q1126.92 1524.88 1124.05 1526.92 Q1121.22 1528.96 1121.22 1532.71 Q1121.22 1535.87 1123.1 1537.49 Q1125.01 1539.08 1130.29 1540.07 L1134.18 1540.86 Q1141.37 1542.23 1144.77 1545.7 Q1148.21 1549.14 1148.21 1554.93 Q1148.21 1561.84 1143.56 1565.4 Q1138.95 1568.97 1130.01 1568.97 Q1126.63 1568.97 1122.81 1568.2 Q1119.02 1567.44 1114.95 1565.94 L1114.95 1559.32 Q1118.87 1561.52 1122.62 1562.63 Q1126.38 1563.75 1130.01 1563.75 Q1135.51 1563.75 1138.5 1561.58 Q1141.5 1559.42 1141.5 1555.41 Q1141.5 1551.91 1139.33 1549.93 Q1137.2 1547.96 1132.3 1546.97 L1128.38 1546.21 Q1121.19 1544.78 1117.97 1541.72 Q1114.76 1538.67 1114.76 1533.22 Q1114.76 1526.92 1119.18 1523.29 Q1123.64 1519.66 1131.44 1519.66 Q1134.78 1519.66 1138.25 1520.27 Q1141.72 1520.87 1145.35 1522.08 Z" fill="#000000" fill-rule="evenodd" fill-opacity="1" /><path clip-path="url(#clip590)" d="M1157.98 1532.4 L1163.84 1532.4 L1163.84 1568.04 L1157.98 1568.04 L1157.98 1532.4 M1157.98 1518.52 L1163.84 1518.52 L1163.84 1525.93 L1157.98 1525.93 L1157.98 1518.52 Z" fill="#000000" fill-rule="evenodd" fill-opacity="1" /><path clip-path="url(#clip590)" d="M1181.89 1522.27 L1181.89 1532.4 L1193.95 1532.4 L1193.95 1536.95 L1181.89 1536.95 L1181.89 1556.3 Q1181.89 1560.66 1183.06 1561.9 Q1184.27 1563.14 1187.93 1563.14 L1193.95 1563.14 L1193.95 1568.04 L1187.93 1568.04 Q1181.15 1568.04 1178.58 1565.53 Q1176 1562.98 1176 1556.3 L1176 1536.95 L1171.7 1536.95 L1171.7 1532.4 L1176 1532.4 L1176 1522.27 L1181.89 1522.27 Z" fill="#000000" fill-rule="evenodd" fill-opacity="1" /><path clip-path="url(#clip590)" d="M1232.14 1548.76 L1232.14 1551.62 L1205.22 1551.62 Q1205.6 1557.67 1208.84 1560.85 Q1212.12 1564 1217.95 1564 Q1221.32 1564 1224.47 1563.17 Q1227.66 1562.35 1230.77 1560.69 L1230.77 1566.23 Q1227.62 1567.57 1224.31 1568.27 Q1221 1568.97 1217.6 1568.97 Q1209.07 1568.97 1204.07 1564 Q1199.11 1559.04 1199.11 1550.57 Q1199.11 1541.82 1203.82 1536.69 Q1208.56 1531.54 1216.58 1531.54 Q1223.77 1531.54 1227.94 1536.18 Q1232.14 1540.8 1232.14 1548.76 M1226.29 1547.04 Q1226.22 1542.23 1223.58 1539.37 Q1220.97 1536.5 1216.64 1536.5 Q1211.74 1536.5 1208.78 1539.27 Q1205.85 1542.04 1205.41 1547.07 L1226.29 1547.04 Z" fill="#000000" fill-rule="evenodd" fill-opacity="1" /><path clip-path="url(#clip590)" d="M1262.73 1520.52 L1271.39 1520.52 L1292.46 1560.28 L1292.46 1520.52 L1298.7 1520.52 L1298.7 1568.04 L1290.04 1568.04 L1268.97 1528.29 L1268.97 1568.04 L1262.73 1568.04 L1262.73 1520.52 Z" fill="#000000" fill-rule="evenodd" fill-opacity="1" /><path clip-path="url(#clip590)" d="M1310.63 1553.98 L1310.63 1532.4 L1316.49 1532.4 L1316.49 1553.75 Q1316.49 1558.81 1318.46 1561.36 Q1320.44 1563.87 1324.38 1563.87 Q1329.12 1563.87 1331.86 1560.85 Q1334.63 1557.83 1334.63 1552.61 L1334.63 1532.4 L1340.49 1532.4 L1340.49 1568.04 L1334.63 1568.04 L1334.63 1562.57 Q1332.5 1565.82 1329.67 1567.41 Q1326.86 1568.97 1323.14 1568.97 Q1317 1568.97 1313.82 1565.15 Q1310.63 1561.33 1310.63 1553.98 M1325.37 1531.54 L1325.37 1531.54 Z" fill="#000000" fill-rule="evenodd" fill-opacity="1" /><path clip-path="url(#clip590)" d="M1380.31 1539.24 Q1382.5 1535.29 1385.56 1533.41 Q1388.61 1531.54 1392.75 1531.54 Q1398.32 1531.54 1401.34 1535.45 Q1404.37 1539.33 1404.37 1546.53 L1404.37 1568.04 L1398.48 1568.04 L1398.48 1546.72 Q1398.48 1541.59 1396.66 1539.11 Q1394.85 1536.63 1391.13 1536.63 Q1386.58 1536.63 1383.93 1539.65 Q1381.29 1542.68 1381.29 1547.9 L1381.29 1568.04 L1375.4 1568.04 L1375.4 1546.72 Q1375.4 1541.56 1373.59 1539.11 Q1371.78 1536.63 1367.99 1536.63 Q1363.5 1536.63 1360.86 1539.68 Q1358.22 1542.71 1358.22 1547.9 L1358.22 1568.04 L1352.33 1568.04 L1352.33 1532.4 L1358.22 1532.4 L1358.22 1537.93 Q1360.22 1534.66 1363.02 1533.1 Q1365.82 1531.54 1369.67 1531.54 Q1373.56 1531.54 1376.26 1533.51 Q1379 1535.48 1380.31 1539.24 Z" fill="#000000" fill-rule="evenodd" fill-opacity="1" /><path clip-path="url(#clip590)" d="M1441.64 1550.25 Q1441.64 1543.79 1438.97 1540.13 Q1436.32 1536.44 1431.68 1536.44 Q1427.03 1536.44 1424.36 1540.13 Q1421.71 1543.79 1421.71 1550.25 Q1421.71 1556.71 1424.36 1560.4 Q1427.03 1564.07 1431.68 1564.07 Q1436.32 1564.07 1438.97 1560.4 Q1441.64 1556.71 1441.64 1550.25 M1421.71 1537.81 Q1423.56 1534.62 1426.36 1533.1 Q1429.19 1531.54 1433.11 1531.54 Q1439.6 1531.54 1443.64 1536.69 Q1447.72 1541.85 1447.72 1550.25 Q1447.72 1558.65 1443.64 1563.81 Q1439.6 1568.97 1433.11 1568.97 Q1429.19 1568.97 1426.36 1567.44 Q1423.56 1565.88 1421.71 1562.7 L1421.71 1568.04 L1415.83 1568.04 L1415.83 1518.52 L1421.71 1518.52 L1421.71 1537.81 Z" fill="#000000" fill-rule="evenodd" fill-opacity="1" /><path clip-path="url(#clip590)" d="M1487.92 1548.76 L1487.92 1551.62 L1460.99 1551.62 Q1461.37 1557.67 1464.62 1560.85 Q1467.9 1564 1473.72 1564 Q1477.1 1564 1480.25 1563.17 Q1483.43 1562.35 1486.55 1560.69 L1486.55 1566.23 Q1483.4 1567.57 1480.09 1568.27 Q1476.78 1568.97 1473.37 1568.97 Q1464.84 1568.97 1459.84 1564 Q1454.88 1559.04 1454.88 1550.57 Q1454.88 1541.82 1459.59 1536.69 Q1464.33 1531.54 1472.35 1531.54 Q1479.55 1531.54 1483.72 1536.18 Q1487.92 1540.8 1487.92 1548.76 M1482.06 1547.04 Q1482 1542.23 1479.36 1539.37 Q1476.75 1536.5 1472.42 1536.5 Q1467.52 1536.5 1464.56 1539.27 Q1461.63 1542.04 1461.18 1547.07 L1482.06 1547.04 Z" fill="#000000" fill-rule="evenodd" fill-opacity="1" /><path clip-path="url(#clip590)" d="M1518.19 1537.87 Q1517.2 1537.3 1516.02 1537.04 Q1514.88 1536.76 1513.48 1536.76 Q1508.51 1536.76 1505.84 1540 Q1503.2 1543.22 1503.2 1549.27 L1503.2 1568.04 L1497.31 1568.04 L1497.31 1532.4 L1503.2 1532.4 L1503.2 1537.93 Q1505.04 1534.69 1508 1533.13 Q1510.96 1531.54 1515.19 1531.54 Q1515.8 1531.54 1516.53 1531.63 Q1517.26 1531.7 1518.15 1531.85 L1518.19 1537.87 Z" fill="#000000" fill-rule="evenodd" fill-opacity="1" /><polyline clip-path="url(#clip592)" style="stroke:#000000; stroke-linecap:round; stroke-linejoin:round; stroke-width:2; stroke-opacity:0.1; fill:none" points="
  280.19,1423.18 2352.76,1423.18 
  "/>
<polyline clip-path="url(#clip592)" style="stroke:#000000; stroke-linecap:round; stroke-linejoin:round; stroke-width:2; stroke-opacity:0.1; fill:none" points="
  280.19,1305.02 2352.76,1305.02 
  "/>
<polyline clip-path="url(#clip592)" style="stroke:#000000; stroke-linecap:round; stroke-linejoin:round; stroke-width:2; stroke-opacity:0.1; fill:none" points="
  280.19,1186.87 2352.76,1186.87 
  "/>
<polyline clip-path="url(#clip592)" style="stroke:#000000; stroke-linecap:round; stroke-linejoin:round; stroke-width:2; stroke-opacity:0.1; fill:none" points="
  280.19,1068.71 2352.76,1068.71 
  "/>
<polyline clip-path="url(#clip592)" style="stroke:#000000; stroke-linecap:round; stroke-linejoin:round; stroke-width:2; stroke-opacity:0.1; fill:none" points="
  280.19,950.559 2352.76,950.559 
  "/>
<polyline clip-path="url(#clip592)" style="stroke:#000000; stroke-linecap:round; stroke-linejoin:round; stroke-width:2; stroke-opacity:0.1; fill:none" points="
  280.19,832.404 2352.76,832.404 
  "/>
<polyline clip-path="url(#clip592)" style="stroke:#000000; stroke-linecap:round; stroke-linejoin:round; stroke-width:2; stroke-opacity:0.1; fill:none" points="
  280.19,714.248 2352.76,714.248 
  "/>
<polyline clip-path="url(#clip592)" style="stroke:#000000; stroke-linecap:round; stroke-linejoin:round; stroke-width:2; stroke-opacity:0.1; fill:none" points="
  280.19,596.093 2352.76,596.093 
  "/>
<polyline clip-path="url(#clip592)" style="stroke:#000000; stroke-linecap:round; stroke-linejoin:round; stroke-width:2; stroke-opacity:0.1; fill:none" points="
  280.19,477.938 2352.76,477.938 
  "/>
<polyline clip-path="url(#clip592)" style="stroke:#000000; stroke-linecap:round; stroke-linejoin:round; stroke-width:2; stroke-opacity:0.1; fill:none" points="
  280.19,359.783 2352.76,359.783 
  "/>
<polyline clip-path="url(#clip592)" style="stroke:#000000; stroke-linecap:round; stroke-linejoin:round; stroke-width:2; stroke-opacity:0.1; fill:none" points="
  280.19,241.627 2352.76,241.627 
  "/>
<polyline clip-path="url(#clip592)" style="stroke:#000000; stroke-linecap:round; stroke-linejoin:round; stroke-width:2; stroke-opacity:0.1; fill:none" points="
  280.19,123.472 2352.76,123.472 
  "/>
<polyline clip-path="url(#clip590)" style="stroke:#000000; stroke-linecap:round; stroke-linejoin:round; stroke-width:4; stroke-opacity:1; fill:none" points="
  280.19,1423.18 280.19,123.472 
  "/>
<polyline clip-path="url(#clip590)" style="stroke:#000000; stroke-linecap:round; stroke-linejoin:round; stroke-width:4; stroke-opacity:1; fill:none" points="
  280.19,1423.18 299.088,1423.18 
  "/>
<polyline clip-path="url(#clip590)" style="stroke:#000000; stroke-linecap:round; stroke-linejoin:round; stroke-width:4; stroke-opacity:1; fill:none" points="
  280.19,1305.02 299.088,1305.02 
  "/>
<polyline clip-path="url(#clip590)" style="stroke:#000000; stroke-linecap:round; stroke-linejoin:round; stroke-width:4; stroke-opacity:1; fill:none" points="
  280.19,1186.87 299.088,1186.87 
  "/>
<polyline clip-path="url(#clip590)" style="stroke:#000000; stroke-linecap:round; stroke-linejoin:round; stroke-width:4; stroke-opacity:1; fill:none" points="
  280.19,1068.71 299.088,1068.71 
  "/>
<polyline clip-path="url(#clip590)" style="stroke:#000000; stroke-linecap:round; stroke-linejoin:round; stroke-width:4; stroke-opacity:1; fill:none" points="
  280.19,950.559 299.088,950.559 
  "/>
<polyline clip-path="url(#clip590)" style="stroke:#000000; stroke-linecap:round; stroke-linejoin:round; stroke-width:4; stroke-opacity:1; fill:none" points="
  280.19,832.404 299.088,832.404 
  "/>
<polyline clip-path="url(#clip590)" style="stroke:#000000; stroke-linecap:round; stroke-linejoin:round; stroke-width:4; stroke-opacity:1; fill:none" points="
  280.19,714.248 299.088,714.248 
  "/>
<polyline clip-path="url(#clip590)" style="stroke:#000000; stroke-linecap:round; stroke-linejoin:round; stroke-width:4; stroke-opacity:1; fill:none" points="
  280.19,596.093 299.088,596.093 
  "/>
<polyline clip-path="url(#clip590)" style="stroke:#000000; stroke-linecap:round; stroke-linejoin:round; stroke-width:4; stroke-opacity:1; fill:none" points="
  280.19,477.938 299.088,477.938 
  "/>
<polyline clip-path="url(#clip590)" style="stroke:#000000; stroke-linecap:round; stroke-linejoin:round; stroke-width:4; stroke-opacity:1; fill:none" points="
  280.19,359.783 299.088,359.783 
  "/>
<polyline clip-path="url(#clip590)" style="stroke:#000000; stroke-linecap:round; stroke-linejoin:round; stroke-width:4; stroke-opacity:1; fill:none" points="
  280.19,241.627 299.088,241.627 
  "/>
<polyline clip-path="url(#clip590)" style="stroke:#000000; stroke-linecap:round; stroke-linejoin:round; stroke-width:4; stroke-opacity:1; fill:none" points="
  280.19,123.472 299.088,123.472 
  "/>
<path clip-path="url(#clip590)" d="M127.686 1408.98 Q124.075 1408.98 122.246 1412.54 Q120.441 1416.08 120.441 1423.21 Q120.441 1430.32 122.246 1433.89 Q124.075 1437.43 127.686 1437.43 Q131.32 1437.43 133.126 1433.89 Q134.954 1430.32 134.954 1423.21 Q134.954 1416.08 133.126 1412.54 Q131.32 1408.98 127.686 1408.98 M127.686 1405.27 Q133.496 1405.27 136.552 1409.88 Q139.63 1414.46 139.63 1423.21 Q139.63 1431.94 136.552 1436.55 Q133.496 1441.13 127.686 1441.13 Q121.876 1441.13 118.797 1436.55 Q115.742 1431.94 115.742 1423.21 Q115.742 1414.46 118.797 1409.88 Q121.876 1405.27 127.686 1405.27 Z" fill="#000000" fill-rule="evenodd" fill-opacity="1" /><path clip-path="url(#clip590)" d="M147.848 1434.58 L152.732 1434.58 L152.732 1440.46 L147.848 1440.46 L147.848 1434.58 Z" fill="#000000" fill-rule="evenodd" fill-opacity="1" /><path clip-path="url(#clip590)" d="M175.764 1409.97 L163.959 1428.42 L175.764 1428.42 L175.764 1409.97 M174.538 1405.9 L180.417 1405.9 L180.417 1428.42 L185.348 1428.42 L185.348 1432.31 L180.417 1432.31 L180.417 1440.46 L175.764 1440.46 L175.764 1432.31 L160.163 1432.31 L160.163 1427.8 L174.538 1405.9 Z" fill="#000000" fill-rule="evenodd" fill-opacity="1" /><path clip-path="url(#clip590)" d="M203.658 1421.32 Q200.51 1421.32 198.658 1423.47 Q196.829 1425.62 196.829 1429.37 Q196.829 1433.1 198.658 1435.27 Q200.51 1437.43 203.658 1437.43 Q206.806 1437.43 208.635 1435.27 Q210.486 1433.1 210.486 1429.37 Q210.486 1425.62 208.635 1423.47 Q206.806 1421.32 203.658 1421.32 M212.94 1406.66 L212.94 1410.92 Q211.181 1410.09 209.375 1409.65 Q207.593 1409.21 205.834 1409.21 Q201.204 1409.21 198.75 1412.33 Q196.32 1415.46 195.973 1421.78 Q197.338 1419.77 199.399 1418.7 Q201.459 1417.61 203.936 1417.61 Q209.144 1417.61 212.153 1420.78 Q215.186 1423.93 215.186 1429.37 Q215.186 1434.7 212.037 1437.91 Q208.889 1441.13 203.658 1441.13 Q197.662 1441.13 194.491 1436.55 Q191.32 1431.94 191.32 1423.21 Q191.32 1415.02 195.209 1410.16 Q199.098 1405.27 205.649 1405.27 Q207.408 1405.27 209.19 1405.62 Q210.996 1405.97 212.94 1406.66 Z" fill="#000000" fill-rule="evenodd" fill-opacity="1" /><path clip-path="url(#clip590)" d="M223.287 1405.9 L241.644 1405.9 L241.644 1409.84 L227.57 1409.84 L227.57 1418.31 Q228.588 1417.96 229.607 1417.8 Q230.625 1417.61 231.644 1417.61 Q237.431 1417.61 240.81 1420.78 Q244.19 1423.96 244.19 1429.37 Q244.19 1434.95 240.718 1438.05 Q237.246 1441.13 230.926 1441.13 Q228.75 1441.13 226.482 1440.76 Q224.236 1440.39 221.829 1439.65 L221.829 1434.95 Q223.912 1436.08 226.135 1436.64 Q228.357 1437.2 230.834 1437.2 Q234.838 1437.2 237.176 1435.09 Q239.514 1432.98 239.514 1429.37 Q239.514 1425.76 237.176 1423.65 Q234.838 1421.55 230.834 1421.55 Q228.959 1421.55 227.084 1421.96 Q225.232 1422.38 223.287 1423.26 L223.287 1405.9 Z" fill="#000000" fill-rule="evenodd" fill-opacity="1" /><path clip-path="url(#clip590)" d="M126.529 1290.82 Q122.918 1290.82 121.089 1294.39 Q119.283 1297.93 119.283 1305.06 Q119.283 1312.17 121.089 1315.73 Q122.918 1319.27 126.529 1319.27 Q130.163 1319.27 131.968 1315.73 Q133.797 1312.17 133.797 1305.06 Q133.797 1297.93 131.968 1294.39 Q130.163 1290.82 126.529 1290.82 M126.529 1287.12 Q132.339 1287.12 135.394 1291.73 Q138.473 1296.31 138.473 1305.06 Q138.473 1313.79 135.394 1318.39 Q132.339 1322.98 126.529 1322.98 Q120.718 1322.98 117.64 1318.39 Q114.584 1313.79 114.584 1305.06 Q114.584 1296.31 117.64 1291.73 Q120.718 1287.12 126.529 1287.12 Z" fill="#000000" fill-rule="evenodd" fill-opacity="1" /><path clip-path="url(#clip590)" d="M146.691 1316.42 L151.575 1316.42 L151.575 1322.3 L146.691 1322.3 L146.691 1316.42 Z" fill="#000000" fill-rule="evenodd" fill-opacity="1" /><path clip-path="url(#clip590)" d="M174.607 1291.82 L162.802 1310.27 L174.607 1310.27 L174.607 1291.82 M173.38 1287.74 L179.26 1287.74 L179.26 1310.27 L184.19 1310.27 L184.19 1314.16 L179.26 1314.16 L179.26 1322.3 L174.607 1322.3 L174.607 1314.16 L159.005 1314.16 L159.005 1309.64 L173.38 1287.74 Z" fill="#000000" fill-rule="evenodd" fill-opacity="1" /><path clip-path="url(#clip590)" d="M202.5 1303.16 Q199.352 1303.16 197.5 1305.31 Q195.672 1307.47 195.672 1311.22 Q195.672 1314.94 197.5 1317.12 Q199.352 1319.27 202.5 1319.27 Q205.649 1319.27 207.477 1317.12 Q209.329 1314.94 209.329 1311.22 Q209.329 1307.47 207.477 1305.31 Q205.649 1303.16 202.5 1303.16 M211.783 1288.51 L211.783 1292.77 Q210.024 1291.93 208.218 1291.49 Q206.436 1291.05 204.676 1291.05 Q200.047 1291.05 197.593 1294.18 Q195.163 1297.3 194.815 1303.62 Q196.181 1301.61 198.241 1300.55 Q200.301 1299.46 202.778 1299.46 Q207.987 1299.46 210.996 1302.63 Q214.028 1305.78 214.028 1311.22 Q214.028 1316.54 210.88 1319.76 Q207.732 1322.98 202.5 1322.98 Q196.505 1322.98 193.334 1318.39 Q190.163 1313.79 190.163 1305.06 Q190.163 1296.86 194.051 1292 Q197.94 1287.12 204.491 1287.12 Q206.25 1287.12 208.033 1287.47 Q209.838 1287.81 211.783 1288.51 Z" fill="#000000" fill-rule="evenodd" fill-opacity="1" /><path clip-path="url(#clip590)" d="M232.662 1303.16 Q229.514 1303.16 227.662 1305.31 Q225.834 1307.47 225.834 1311.22 Q225.834 1314.94 227.662 1317.12 Q229.514 1319.27 232.662 1319.27 Q235.81 1319.27 237.639 1317.12 Q239.491 1314.94 239.491 1311.22 Q239.491 1307.47 237.639 1305.31 Q235.81 1303.16 232.662 1303.16 M241.945 1288.51 L241.945 1292.77 Q240.185 1291.93 238.38 1291.49 Q236.597 1291.05 234.838 1291.05 Q230.209 1291.05 227.755 1294.18 Q225.324 1297.3 224.977 1303.62 Q226.343 1301.61 228.403 1300.55 Q230.463 1299.46 232.94 1299.46 Q238.148 1299.46 241.158 1302.63 Q244.19 1305.78 244.19 1311.22 Q244.19 1316.54 241.042 1319.76 Q237.894 1322.98 232.662 1322.98 Q226.667 1322.98 223.496 1318.39 Q220.324 1313.79 220.324 1305.06 Q220.324 1296.86 224.213 1292 Q228.102 1287.12 234.653 1287.12 Q236.412 1287.12 238.195 1287.47 Q240 1287.81 241.945 1288.51 Z" fill="#000000" fill-rule="evenodd" fill-opacity="1" /><path clip-path="url(#clip590)" d="M127.593 1172.67 Q123.982 1172.67 122.154 1176.23 Q120.348 1179.77 120.348 1186.9 Q120.348 1194.01 122.154 1197.58 Q123.982 1201.12 127.593 1201.12 Q131.228 1201.12 133.033 1197.58 Q134.862 1194.01 134.862 1186.9 Q134.862 1179.77 133.033 1176.23 Q131.228 1172.67 127.593 1172.67 M127.593 1168.96 Q133.404 1168.96 136.459 1173.57 Q139.538 1178.15 139.538 1186.9 Q139.538 1195.63 136.459 1200.24 Q133.404 1204.82 127.593 1204.82 Q121.783 1204.82 118.705 1200.24 Q115.649 1195.63 115.649 1186.9 Q115.649 1178.15 118.705 1173.57 Q121.783 1168.96 127.593 1168.96 Z" fill="#000000" fill-rule="evenodd" fill-opacity="1" /><path clip-path="url(#clip590)" d="M147.755 1198.27 L152.64 1198.27 L152.64 1204.15 L147.755 1204.15 L147.755 1198.27 Z" fill="#000000" fill-rule="evenodd" fill-opacity="1" /><path clip-path="url(#clip590)" d="M175.672 1173.66 L163.866 1192.11 L175.672 1192.11 L175.672 1173.66 M174.445 1169.59 L180.325 1169.59 L180.325 1192.11 L185.255 1192.11 L185.255 1196 L180.325 1196 L180.325 1204.15 L175.672 1204.15 L175.672 1196 L160.07 1196 L160.07 1191.49 L174.445 1169.59 Z" fill="#000000" fill-rule="evenodd" fill-opacity="1" /><path clip-path="url(#clip590)" d="M203.565 1185.01 Q200.417 1185.01 198.565 1187.16 Q196.737 1189.31 196.737 1193.06 Q196.737 1196.79 198.565 1198.96 Q200.417 1201.12 203.565 1201.12 Q206.713 1201.12 208.542 1198.96 Q210.394 1196.79 210.394 1193.06 Q210.394 1189.31 208.542 1187.16 Q206.713 1185.01 203.565 1185.01 M212.848 1170.35 L212.848 1174.61 Q211.088 1173.78 209.283 1173.34 Q207.5 1172.9 205.741 1172.9 Q201.112 1172.9 198.658 1176.02 Q196.227 1179.15 195.88 1185.47 Q197.246 1183.46 199.306 1182.39 Q201.366 1181.3 203.843 1181.3 Q209.051 1181.3 212.061 1184.47 Q215.093 1187.62 215.093 1193.06 Q215.093 1198.39 211.945 1201.6 Q208.797 1204.82 203.565 1204.82 Q197.57 1204.82 194.399 1200.24 Q191.227 1195.63 191.227 1186.9 Q191.227 1178.71 195.116 1173.85 Q199.005 1168.96 205.556 1168.96 Q207.315 1168.96 209.098 1169.31 Q210.903 1169.66 212.848 1170.35 Z" fill="#000000" fill-rule="evenodd" fill-opacity="1" /><path clip-path="url(#clip590)" d="M221.968 1169.59 L244.19 1169.59 L244.19 1171.58 L231.644 1204.15 L226.76 1204.15 L238.565 1173.52 L221.968 1173.52 L221.968 1169.59 Z" fill="#000000" fill-rule="evenodd" fill-opacity="1" /><path clip-path="url(#clip590)" d="M126.783 1054.51 Q123.172 1054.51 121.343 1058.08 Q119.538 1061.62 119.538 1068.75 Q119.538 1075.86 121.343 1079.42 Q123.172 1082.96 126.783 1082.96 Q130.417 1082.96 132.223 1079.42 Q134.052 1075.86 134.052 1068.75 Q134.052 1061.62 132.223 1058.08 Q130.417 1054.51 126.783 1054.51 M126.783 1050.81 Q132.593 1050.81 135.649 1055.42 Q138.728 1060 138.728 1068.75 Q138.728 1077.48 135.649 1082.08 Q132.593 1086.67 126.783 1086.67 Q120.973 1086.67 117.894 1082.08 Q114.839 1077.48 114.839 1068.75 Q114.839 1060 117.894 1055.42 Q120.973 1050.81 126.783 1050.81 Z" fill="#000000" fill-rule="evenodd" fill-opacity="1" /><path clip-path="url(#clip590)" d="M146.945 1080.11 L151.829 1080.11 L151.829 1085.99 L146.945 1085.99 L146.945 1080.11 Z" fill="#000000" fill-rule="evenodd" fill-opacity="1" /><path clip-path="url(#clip590)" d="M174.862 1055.51 L163.056 1073.96 L174.862 1073.96 L174.862 1055.51 M173.635 1051.43 L179.514 1051.43 L179.514 1073.96 L184.445 1073.96 L184.445 1077.85 L179.514 1077.85 L179.514 1085.99 L174.862 1085.99 L174.862 1077.85 L159.26 1077.85 L159.26 1073.33 L173.635 1051.43 Z" fill="#000000" fill-rule="evenodd" fill-opacity="1" /><path clip-path="url(#clip590)" d="M202.755 1066.85 Q199.607 1066.85 197.755 1069 Q195.926 1071.16 195.926 1074.91 Q195.926 1078.63 197.755 1080.81 Q199.607 1082.96 202.755 1082.96 Q205.903 1082.96 207.732 1080.81 Q209.584 1078.63 209.584 1074.91 Q209.584 1071.16 207.732 1069 Q205.903 1066.85 202.755 1066.85 M212.037 1052.2 L212.037 1056.46 Q210.278 1055.62 208.473 1055.18 Q206.69 1054.74 204.931 1054.74 Q200.301 1054.74 197.848 1057.87 Q195.417 1060.99 195.07 1067.31 Q196.436 1065.3 198.496 1064.23 Q200.556 1063.15 203.033 1063.15 Q208.241 1063.15 211.25 1066.32 Q214.283 1069.47 214.283 1074.91 Q214.283 1080.23 211.135 1083.45 Q207.987 1086.67 202.755 1086.67 Q196.76 1086.67 193.588 1082.08 Q190.417 1077.48 190.417 1068.75 Q190.417 1060.55 194.306 1055.69 Q198.195 1050.81 204.746 1050.81 Q206.505 1050.81 208.287 1051.16 Q210.093 1051.5 212.037 1052.2 Z" fill="#000000" fill-rule="evenodd" fill-opacity="1" /><path clip-path="url(#clip590)" d="M232.338 1069.58 Q229.005 1069.58 227.084 1071.36 Q225.185 1073.15 225.185 1076.27 Q225.185 1079.4 227.084 1081.18 Q229.005 1082.96 232.338 1082.96 Q235.672 1082.96 237.593 1081.18 Q239.514 1079.37 239.514 1076.27 Q239.514 1073.15 237.593 1071.36 Q235.695 1069.58 232.338 1069.58 M227.662 1067.59 Q224.653 1066.85 222.963 1064.79 Q221.297 1062.73 221.297 1059.77 Q221.297 1055.62 224.236 1053.22 Q227.199 1050.81 232.338 1050.81 Q237.5 1050.81 240.44 1053.22 Q243.38 1055.62 243.38 1059.77 Q243.38 1062.73 241.69 1064.79 Q240.023 1066.85 237.037 1067.59 Q240.417 1068.38 242.292 1070.67 Q244.19 1072.96 244.19 1076.27 Q244.19 1081.3 241.111 1083.98 Q238.056 1086.67 232.338 1086.67 Q226.621 1086.67 223.542 1083.98 Q220.486 1081.3 220.486 1076.27 Q220.486 1072.96 222.385 1070.67 Q224.283 1068.38 227.662 1067.59 M225.949 1060.21 Q225.949 1062.89 227.616 1064.4 Q229.306 1065.9 232.338 1065.9 Q235.347 1065.9 237.037 1064.4 Q238.75 1062.89 238.75 1060.21 Q238.75 1057.52 237.037 1056.02 Q235.347 1054.51 232.338 1054.51 Q229.306 1054.51 227.616 1056.02 Q225.949 1057.52 225.949 1060.21 Z" fill="#000000" fill-rule="evenodd" fill-opacity="1" /><path clip-path="url(#clip590)" d="M126.876 936.358 Q123.265 936.358 121.436 939.922 Q119.63 943.464 119.63 950.594 Q119.63 957.7 121.436 961.265 Q123.265 964.806 126.876 964.806 Q130.51 964.806 132.316 961.265 Q134.144 957.7 134.144 950.594 Q134.144 943.464 132.316 939.922 Q130.51 936.358 126.876 936.358 M126.876 932.654 Q132.686 932.654 135.742 937.26 Q138.82 941.844 138.82 950.594 Q138.82 959.32 135.742 963.927 Q132.686 968.51 126.876 968.51 Q121.066 968.51 117.987 963.927 Q114.931 959.32 114.931 950.594 Q114.931 941.844 117.987 937.26 Q121.066 932.654 126.876 932.654 Z" fill="#000000" fill-rule="evenodd" fill-opacity="1" /><path clip-path="url(#clip590)" d="M147.038 961.959 L151.922 961.959 L151.922 967.839 L147.038 967.839 L147.038 961.959 Z" fill="#000000" fill-rule="evenodd" fill-opacity="1" /><path clip-path="url(#clip590)" d="M174.954 937.353 L163.149 955.802 L174.954 955.802 L174.954 937.353 M173.727 933.279 L179.607 933.279 L179.607 955.802 L184.538 955.802 L184.538 959.691 L179.607 959.691 L179.607 967.839 L174.954 967.839 L174.954 959.691 L159.353 959.691 L159.353 955.177 L173.727 933.279 Z" fill="#000000" fill-rule="evenodd" fill-opacity="1" /><path clip-path="url(#clip590)" d="M202.848 948.695 Q199.7 948.695 197.848 950.848 Q196.019 953.001 196.019 956.751 Q196.019 960.478 197.848 962.654 Q199.7 964.806 202.848 964.806 Q205.996 964.806 207.824 962.654 Q209.676 960.478 209.676 956.751 Q209.676 953.001 207.824 950.848 Q205.996 948.695 202.848 948.695 M212.13 934.043 L212.13 938.302 Q210.371 937.469 208.565 937.029 Q206.783 936.589 205.024 936.589 Q200.394 936.589 197.94 939.714 Q195.51 942.839 195.163 949.158 Q196.528 947.145 198.588 946.08 Q200.649 944.992 203.125 944.992 Q208.334 944.992 211.343 948.163 Q214.375 951.311 214.375 956.751 Q214.375 962.075 211.227 965.293 Q208.079 968.51 202.848 968.51 Q196.852 968.51 193.681 963.927 Q190.51 959.32 190.51 950.594 Q190.51 942.399 194.399 937.538 Q198.287 932.654 204.838 932.654 Q206.598 932.654 208.38 933.001 Q210.186 933.348 212.13 934.043 Z" fill="#000000" fill-rule="evenodd" fill-opacity="1" /><path clip-path="url(#clip590)" d="M222.57 967.121 L222.57 962.862 Q224.329 963.695 226.135 964.135 Q227.94 964.575 229.676 964.575 Q234.306 964.575 236.736 961.473 Q239.19 958.348 239.537 952.006 Q238.195 953.996 236.135 955.061 Q234.074 956.126 231.574 956.126 Q226.389 956.126 223.357 953.001 Q220.348 949.853 220.348 944.413 Q220.348 939.089 223.496 935.871 Q226.644 932.654 231.875 932.654 Q237.871 932.654 241.019 937.26 Q244.19 941.844 244.19 950.594 Q244.19 958.765 240.301 963.649 Q236.435 968.51 229.885 968.51 Q228.125 968.51 226.32 968.163 Q224.514 967.816 222.57 967.121 M231.875 952.469 Q235.023 952.469 236.852 950.316 Q238.704 948.163 238.704 944.413 Q238.704 940.686 236.852 938.533 Q235.023 936.358 231.875 936.358 Q228.727 936.358 226.875 938.533 Q225.047 940.686 225.047 944.413 Q225.047 948.163 226.875 950.316 Q228.727 952.469 231.875 952.469 Z" fill="#000000" fill-rule="evenodd" fill-opacity="1" /><path clip-path="url(#clip590)" d="M126.691 818.202 Q123.08 818.202 121.251 821.767 Q119.445 825.309 119.445 832.438 Q119.445 839.545 121.251 843.11 Q123.08 846.651 126.691 846.651 Q130.325 846.651 132.13 843.11 Q133.959 839.545 133.959 832.438 Q133.959 825.309 132.13 821.767 Q130.325 818.202 126.691 818.202 M126.691 814.499 Q132.501 814.499 135.556 819.105 Q138.635 823.688 138.635 832.438 Q138.635 841.165 135.556 845.772 Q132.501 850.355 126.691 850.355 Q120.88 850.355 117.802 845.772 Q114.746 841.165 114.746 832.438 Q114.746 823.688 117.802 819.105 Q120.88 814.499 126.691 814.499 Z" fill="#000000" fill-rule="evenodd" fill-opacity="1" /><path clip-path="url(#clip590)" d="M146.853 843.804 L151.737 843.804 L151.737 849.684 L146.853 849.684 L146.853 843.804 Z" fill="#000000" fill-rule="evenodd" fill-opacity="1" /><path clip-path="url(#clip590)" d="M174.769 819.198 L162.964 837.647 L174.769 837.647 L174.769 819.198 M173.542 815.124 L179.422 815.124 L179.422 837.647 L184.352 837.647 L184.352 841.536 L179.422 841.536 L179.422 849.684 L174.769 849.684 L174.769 841.536 L159.167 841.536 L159.167 837.022 L173.542 815.124 Z" fill="#000000" fill-rule="evenodd" fill-opacity="1" /><path clip-path="url(#clip590)" d="M190.903 815.124 L213.125 815.124 L213.125 817.114 L200.579 849.684 L195.695 849.684 L207.5 819.059 L190.903 819.059 L190.903 815.124 Z" fill="#000000" fill-rule="evenodd" fill-opacity="1" /><path clip-path="url(#clip590)" d="M232.246 818.202 Q228.635 818.202 226.806 821.767 Q225 825.309 225 832.438 Q225 839.545 226.806 843.11 Q228.635 846.651 232.246 846.651 Q235.88 846.651 237.685 843.11 Q239.514 839.545 239.514 832.438 Q239.514 825.309 237.685 821.767 Q235.88 818.202 232.246 818.202 M232.246 814.499 Q238.056 814.499 241.111 819.105 Q244.19 823.688 244.19 832.438 Q244.19 841.165 241.111 845.772 Q238.056 850.355 232.246 850.355 Q226.435 850.355 223.357 845.772 Q220.301 841.165 220.301 832.438 Q220.301 823.688 223.357 819.105 Q226.435 814.499 232.246 814.499 Z" fill="#000000" fill-rule="evenodd" fill-opacity="1" /><path clip-path="url(#clip590)" d="M127.917 700.047 Q124.306 700.047 122.478 703.612 Q120.672 707.153 120.672 714.283 Q120.672 721.39 122.478 724.954 Q124.306 728.496 127.917 728.496 Q131.552 728.496 133.357 724.954 Q135.186 721.39 135.186 714.283 Q135.186 707.153 133.357 703.612 Q131.552 700.047 127.917 700.047 M127.917 696.343 Q133.728 696.343 136.783 700.95 Q139.862 705.533 139.862 714.283 Q139.862 723.01 136.783 727.616 Q133.728 732.2 127.917 732.2 Q122.107 732.2 119.029 727.616 Q115.973 723.01 115.973 714.283 Q115.973 705.533 119.029 700.95 Q122.107 696.343 127.917 696.343 Z" fill="#000000" fill-rule="evenodd" fill-opacity="1" /><path clip-path="url(#clip590)" d="M148.079 725.649 L152.964 725.649 L152.964 731.528 L148.079 731.528 L148.079 725.649 Z" fill="#000000" fill-rule="evenodd" fill-opacity="1" /><path clip-path="url(#clip590)" d="M175.996 701.042 L164.19 719.491 L175.996 719.491 L175.996 701.042 M174.769 696.968 L180.649 696.968 L180.649 719.491 L185.579 719.491 L185.579 723.38 L180.649 723.38 L180.649 731.528 L175.996 731.528 L175.996 723.38 L160.394 723.38 L160.394 718.866 L174.769 696.968 Z" fill="#000000" fill-rule="evenodd" fill-opacity="1" /><path clip-path="url(#clip590)" d="M192.13 696.968 L214.352 696.968 L214.352 698.959 L201.806 731.528 L196.922 731.528 L208.727 700.904 L192.13 700.904 L192.13 696.968 Z" fill="#000000" fill-rule="evenodd" fill-opacity="1" /><path clip-path="url(#clip590)" d="M224.283 727.593 L231.922 727.593 L231.922 701.228 L223.611 702.894 L223.611 698.635 L231.875 696.968 L236.551 696.968 L236.551 727.593 L244.19 727.593 L244.19 731.528 L224.283 731.528 L224.283 727.593 Z" fill="#000000" fill-rule="evenodd" fill-opacity="1" /><path clip-path="url(#clip590)" d="M128.288 581.892 Q124.677 581.892 122.848 585.457 Q121.043 588.998 121.043 596.128 Q121.043 603.234 122.848 606.799 Q124.677 610.341 128.288 610.341 Q131.922 610.341 133.728 606.799 Q135.556 603.234 135.556 596.128 Q135.556 588.998 133.728 585.457 Q131.922 581.892 128.288 581.892 M128.288 578.188 Q134.098 578.188 137.154 582.795 Q140.232 587.378 140.232 596.128 Q140.232 604.855 137.154 609.461 Q134.098 614.044 128.288 614.044 Q122.478 614.044 119.399 609.461 Q116.343 604.855 116.343 596.128 Q116.343 587.378 119.399 582.795 Q122.478 578.188 128.288 578.188 Z" fill="#000000" fill-rule="evenodd" fill-opacity="1" /><path clip-path="url(#clip590)" d="M148.45 607.494 L153.334 607.494 L153.334 613.373 L148.45 613.373 L148.45 607.494 Z" fill="#000000" fill-rule="evenodd" fill-opacity="1" /><path clip-path="url(#clip590)" d="M176.366 582.887 L164.561 601.336 L176.366 601.336 L176.366 582.887 M175.139 578.813 L181.019 578.813 L181.019 601.336 L185.95 601.336 L185.95 605.225 L181.019 605.225 L181.019 613.373 L176.366 613.373 L176.366 605.225 L160.765 605.225 L160.765 600.711 L175.139 578.813 Z" fill="#000000" fill-rule="evenodd" fill-opacity="1" /><path clip-path="url(#clip590)" d="M192.5 578.813 L214.723 578.813 L214.723 580.804 L202.176 613.373 L197.292 613.373 L209.098 582.748 L192.5 582.748 L192.5 578.813 Z" fill="#000000" fill-rule="evenodd" fill-opacity="1" /><path clip-path="url(#clip590)" d="M227.871 609.438 L244.19 609.438 L244.19 613.373 L222.246 613.373 L222.246 609.438 Q224.908 606.683 229.491 602.054 Q234.097 597.401 235.278 596.058 Q237.523 593.535 238.403 591.799 Q239.306 590.04 239.306 588.35 Q239.306 585.595 237.361 583.859 Q235.44 582.123 232.338 582.123 Q230.139 582.123 227.685 582.887 Q225.255 583.651 222.477 585.202 L222.477 580.48 Q225.301 579.346 227.755 578.767 Q230.209 578.188 232.246 578.188 Q237.616 578.188 240.81 580.873 Q244.005 583.558 244.005 588.049 Q244.005 590.179 243.195 592.1 Q242.408 593.998 240.301 596.591 Q239.722 597.262 236.621 600.48 Q233.519 603.674 227.871 609.438 Z" fill="#000000" fill-rule="evenodd" fill-opacity="1" /><path clip-path="url(#clip590)" d="M127.339 463.737 Q123.728 463.737 121.899 467.301 Q120.093 470.843 120.093 477.973 Q120.093 485.079 121.899 488.644 Q123.728 492.185 127.339 492.185 Q130.973 492.185 132.779 488.644 Q134.607 485.079 134.607 477.973 Q134.607 470.843 132.779 467.301 Q130.973 463.737 127.339 463.737 M127.339 460.033 Q133.149 460.033 136.204 464.639 Q139.283 469.223 139.283 477.973 Q139.283 486.699 136.204 491.306 Q133.149 495.889 127.339 495.889 Q121.529 495.889 118.45 491.306 Q115.394 486.699 115.394 477.973 Q115.394 469.223 118.45 464.639 Q121.529 460.033 127.339 460.033 Z" fill="#000000" fill-rule="evenodd" fill-opacity="1" /><path clip-path="url(#clip590)" d="M147.501 489.338 L152.385 489.338 L152.385 495.218 L147.501 495.218 L147.501 489.338 Z" fill="#000000" fill-rule="evenodd" fill-opacity="1" /><path clip-path="url(#clip590)" d="M175.417 464.732 L163.612 483.181 L175.417 483.181 L175.417 464.732 M174.19 460.658 L180.07 460.658 L180.07 483.181 L185.001 483.181 L185.001 487.07 L180.07 487.07 L180.07 495.218 L175.417 495.218 L175.417 487.07 L159.815 487.07 L159.815 482.556 L174.19 460.658 Z" fill="#000000" fill-rule="evenodd" fill-opacity="1" /><path clip-path="url(#clip590)" d="M191.551 460.658 L213.774 460.658 L213.774 462.649 L201.227 495.218 L196.343 495.218 L208.149 464.593 L191.551 464.593 L191.551 460.658 Z" fill="#000000" fill-rule="evenodd" fill-opacity="1" /><path clip-path="url(#clip590)" d="M237.06 476.584 Q240.417 477.301 242.292 479.57 Q244.19 481.838 244.19 485.172 Q244.19 490.287 240.672 493.088 Q237.153 495.889 230.672 495.889 Q228.496 495.889 226.181 495.449 Q223.889 495.033 221.436 494.176 L221.436 489.662 Q223.38 490.797 225.695 491.375 Q228.01 491.954 230.533 491.954 Q234.931 491.954 237.222 490.218 Q239.537 488.482 239.537 485.172 Q239.537 482.116 237.384 480.403 Q235.255 478.667 231.435 478.667 L227.408 478.667 L227.408 474.824 L231.621 474.824 Q235.07 474.824 236.898 473.459 Q238.727 472.07 238.727 469.477 Q238.727 466.815 236.829 465.403 Q234.954 463.968 231.435 463.968 Q229.514 463.968 227.315 464.385 Q225.116 464.801 222.477 465.681 L222.477 461.514 Q225.139 460.774 227.454 460.403 Q229.792 460.033 231.852 460.033 Q237.176 460.033 240.278 462.463 Q243.38 464.871 243.38 468.991 Q243.38 471.862 241.736 473.852 Q240.093 475.82 237.06 476.584 Z" fill="#000000" fill-rule="evenodd" fill-opacity="1" /><path clip-path="url(#clip590)" d="M126.205 345.581 Q122.593 345.581 120.765 349.146 Q118.959 352.688 118.959 359.817 Q118.959 366.924 120.765 370.489 Q122.593 374.03 126.205 374.03 Q129.839 374.03 131.644 370.489 Q133.473 366.924 133.473 359.817 Q133.473 352.688 131.644 349.146 Q129.839 345.581 126.205 345.581 M126.205 341.878 Q132.015 341.878 135.07 346.484 Q138.149 351.067 138.149 359.817 Q138.149 368.544 135.07 373.151 Q132.015 377.734 126.205 377.734 Q120.394 377.734 117.316 373.151 Q114.26 368.544 114.26 359.817 Q114.26 351.067 117.316 346.484 Q120.394 341.878 126.205 341.878 Z" fill="#000000" fill-rule="evenodd" fill-opacity="1" /><path clip-path="url(#clip590)" d="M146.366 371.183 L151.251 371.183 L151.251 377.063 L146.366 377.063 L146.366 371.183 Z" fill="#000000" fill-rule="evenodd" fill-opacity="1" /><path clip-path="url(#clip590)" d="M174.283 346.577 L162.477 365.026 L174.283 365.026 L174.283 346.577 M173.056 342.503 L178.936 342.503 L178.936 365.026 L183.866 365.026 L183.866 368.915 L178.936 368.915 L178.936 377.063 L174.283 377.063 L174.283 368.915 L158.681 368.915 L158.681 364.401 L173.056 342.503 Z" fill="#000000" fill-rule="evenodd" fill-opacity="1" /><path clip-path="url(#clip590)" d="M190.417 342.503 L212.639 342.503 L212.639 344.493 L200.093 377.063 L195.209 377.063 L207.014 346.438 L190.417 346.438 L190.417 342.503 Z" fill="#000000" fill-rule="evenodd" fill-opacity="1" /><path clip-path="url(#clip590)" d="M234.607 346.577 L222.801 365.026 L234.607 365.026 L234.607 346.577 M233.38 342.503 L239.259 342.503 L239.259 365.026 L244.19 365.026 L244.19 368.915 L239.259 368.915 L239.259 377.063 L234.607 377.063 L234.607 368.915 L219.005 368.915 L219.005 364.401 L233.38 342.503 Z" fill="#000000" fill-rule="evenodd" fill-opacity="1" /><path clip-path="url(#clip590)" d="M127.686 227.426 Q124.075 227.426 122.246 230.991 Q120.441 234.533 120.441 241.662 Q120.441 248.769 122.246 252.333 Q124.075 255.875 127.686 255.875 Q131.32 255.875 133.126 252.333 Q134.954 248.769 134.954 241.662 Q134.954 234.533 133.126 230.991 Q131.32 227.426 127.686 227.426 M127.686 223.722 Q133.496 223.722 136.552 228.329 Q139.63 232.912 139.63 241.662 Q139.63 250.389 136.552 254.995 Q133.496 259.579 127.686 259.579 Q121.876 259.579 118.797 254.995 Q115.742 250.389 115.742 241.662 Q115.742 232.912 118.797 228.329 Q121.876 223.722 127.686 223.722 Z" fill="#000000" fill-rule="evenodd" fill-opacity="1" /><path clip-path="url(#clip590)" d="M147.848 253.028 L152.732 253.028 L152.732 258.907 L147.848 258.907 L147.848 253.028 Z" fill="#000000" fill-rule="evenodd" fill-opacity="1" /><path clip-path="url(#clip590)" d="M175.764 228.421 L163.959 246.87 L175.764 246.87 L175.764 228.421 M174.538 224.347 L180.417 224.347 L180.417 246.87 L185.348 246.87 L185.348 250.759 L180.417 250.759 L180.417 258.907 L175.764 258.907 L175.764 250.759 L160.163 250.759 L160.163 246.245 L174.538 224.347 Z" fill="#000000" fill-rule="evenodd" fill-opacity="1" /><path clip-path="url(#clip590)" d="M191.899 224.347 L214.121 224.347 L214.121 226.338 L201.575 258.907 L196.69 258.907 L208.496 228.283 L191.899 228.283 L191.899 224.347 Z" fill="#000000" fill-rule="evenodd" fill-opacity="1" /><path clip-path="url(#clip590)" d="M223.287 224.347 L241.644 224.347 L241.644 228.283 L227.57 228.283 L227.57 236.755 Q228.588 236.407 229.607 236.245 Q230.625 236.06 231.644 236.06 Q237.431 236.06 240.81 239.232 Q244.19 242.403 244.19 247.819 Q244.19 253.398 240.718 256.5 Q237.246 259.579 230.926 259.579 Q228.75 259.579 226.482 259.208 Q224.236 258.838 221.829 258.097 L221.829 253.398 Q223.912 254.532 226.135 255.088 Q228.357 255.644 230.834 255.644 Q234.838 255.644 237.176 253.537 Q239.514 251.431 239.514 247.819 Q239.514 244.208 237.176 242.102 Q234.838 239.995 230.834 239.995 Q228.959 239.995 227.084 240.412 Q225.232 240.829 223.287 241.708 L223.287 224.347 Z" fill="#000000" fill-rule="evenodd" fill-opacity="1" /><path clip-path="url(#clip590)" d="M126.529 109.271 Q122.918 109.271 121.089 112.836 Q119.283 116.377 119.283 123.507 Q119.283 130.613 121.089 134.178 Q122.918 137.72 126.529 137.72 Q130.163 137.72 131.968 134.178 Q133.797 130.613 133.797 123.507 Q133.797 116.377 131.968 112.836 Q130.163 109.271 126.529 109.271 M126.529 105.567 Q132.339 105.567 135.394 110.174 Q138.473 114.757 138.473 123.507 Q138.473 132.234 135.394 136.84 Q132.339 141.423 126.529 141.423 Q120.718 141.423 117.64 136.84 Q114.584 132.234 114.584 123.507 Q114.584 114.757 117.64 110.174 Q120.718 105.567 126.529 105.567 Z" fill="#000000" fill-rule="evenodd" fill-opacity="1" /><path clip-path="url(#clip590)" d="M146.691 134.873 L151.575 134.873 L151.575 140.752 L146.691 140.752 L146.691 134.873 Z" fill="#000000" fill-rule="evenodd" fill-opacity="1" /><path clip-path="url(#clip590)" d="M174.607 110.266 L162.802 128.715 L174.607 128.715 L174.607 110.266 M173.38 106.192 L179.26 106.192 L179.26 128.715 L184.19 128.715 L184.19 132.604 L179.26 132.604 L179.26 140.752 L174.607 140.752 L174.607 132.604 L159.005 132.604 L159.005 128.09 L173.38 106.192 Z" fill="#000000" fill-rule="evenodd" fill-opacity="1" /><path clip-path="url(#clip590)" d="M190.741 106.192 L212.963 106.192 L212.963 108.183 L200.417 140.752 L195.533 140.752 L207.338 110.127 L190.741 110.127 L190.741 106.192 Z" fill="#000000" fill-rule="evenodd" fill-opacity="1" /><path clip-path="url(#clip590)" d="M232.662 121.609 Q229.514 121.609 227.662 123.761 Q225.834 125.914 225.834 129.664 Q225.834 133.391 227.662 135.567 Q229.514 137.72 232.662 137.72 Q235.81 137.72 237.639 135.567 Q239.491 133.391 239.491 129.664 Q239.491 125.914 237.639 123.761 Q235.81 121.609 232.662 121.609 M241.945 106.956 L241.945 111.215 Q240.185 110.382 238.38 109.942 Q236.597 109.502 234.838 109.502 Q230.209 109.502 227.755 112.627 Q225.324 115.752 224.977 122.072 Q226.343 120.058 228.403 118.993 Q230.463 117.905 232.94 117.905 Q238.148 117.905 241.158 121.076 Q244.19 124.224 244.19 129.664 Q244.19 134.988 241.042 138.206 Q237.894 141.423 232.662 141.423 Q226.667 141.423 223.496 136.84 Q220.324 132.234 220.324 123.507 Q220.324 115.312 224.213 110.451 Q228.102 105.567 234.653 105.567 Q236.412 105.567 238.195 105.914 Q240 106.262 241.945 106.956 Z" fill="#000000" fill-rule="evenodd" fill-opacity="1" /><path clip-path="url(#clip590)" d="M16.4842 987.834 L16.4842 981.405 L64.0042 981.405 L64.0042 987.834 L16.4842 987.834 Z" fill="#000000" fill-rule="evenodd" fill-opacity="1" /><path clip-path="url(#clip590)" d="M42.4881 939.232 L64.0042 939.232 L64.0042 945.089 L42.679 945.089 Q37.6183 945.089 35.1038 947.062 Q32.5894 949.035 32.5894 952.982 Q32.5894 957.725 35.6131 960.462 Q38.6368 963.199 43.8567 963.199 L64.0042 963.199 L64.0042 969.087 L28.3562 969.087 L28.3562 963.199 L33.8944 963.199 Q30.6797 961.098 29.0883 958.266 Q27.4968 955.401 27.4968 951.677 Q27.4968 945.534 31.3163 942.383 Q35.1038 939.232 42.4881 939.232 Z" fill="#000000" fill-rule="evenodd" fill-opacity="1" /><path clip-path="url(#clip590)" d="M42.4881 897.919 L64.0042 897.919 L64.0042 903.775 L42.679 903.775 Q37.6183 903.775 35.1038 905.749 Q32.5894 907.722 32.5894 911.669 Q32.5894 916.411 35.6131 919.148 Q38.6368 921.886 43.8567 921.886 L64.0042 921.886 L64.0042 927.774 L28.3562 927.774 L28.3562 921.886 L33.8944 921.886 Q30.6797 919.785 29.0883 916.952 Q27.4968 914.088 27.4968 910.364 Q27.4968 904.221 31.3163 901.07 Q35.1038 897.919 42.4881 897.919 Z" fill="#000000" fill-rule="evenodd" fill-opacity="1" /><path clip-path="url(#clip590)" d="M44.7161 855.746 L47.5806 855.746 L47.5806 882.673 Q53.6281 882.291 56.8109 879.044 Q59.9619 875.766 59.9619 869.941 Q59.9619 866.568 59.1344 863.417 Q58.3069 860.234 56.6518 857.115 L62.1899 857.115 Q63.5267 860.266 64.227 863.576 Q64.9272 866.886 64.9272 870.292 Q64.9272 878.822 59.9619 883.819 Q54.9967 888.784 46.5303 888.784 Q37.7774 888.784 32.6531 884.073 Q27.4968 879.331 27.4968 871.31 Q27.4968 864.117 32.1438 859.947 Q36.7589 855.746 44.7161 855.746 M42.9973 861.602 Q38.1912 861.666 35.3266 864.308 Q32.4621 866.918 32.4621 871.246 Q32.4621 876.148 35.2312 879.108 Q38.0002 882.036 43.0292 882.482 L42.9973 861.602 Z" fill="#000000" fill-rule="evenodd" fill-opacity="1" /><path clip-path="url(#clip590)" d="M33.8307 825.477 Q33.2578 826.464 33.0032 827.641 Q32.7167 828.787 32.7167 830.188 Q32.7167 835.153 35.9632 837.827 Q39.1779 840.468 45.2253 840.468 L64.0042 840.468 L64.0042 846.357 L28.3562 846.357 L28.3562 840.468 L33.8944 840.468 Q30.6479 838.622 29.0883 835.662 Q27.4968 832.702 27.4968 828.469 Q27.4968 827.864 27.5923 827.132 Q27.656 826.4 27.8151 825.509 L33.8307 825.477 Z" fill="#000000" fill-rule="evenodd" fill-opacity="1" /><path clip-path="url(#clip590)" d="M21.7677 791.93 L39.6235 791.93 L39.6235 783.845 Q39.6235 779.357 37.3 776.907 Q34.9765 774.456 30.6797 774.456 Q26.4147 774.456 24.0912 776.907 Q21.7677 779.357 21.7677 783.845 L21.7677 791.93 M16.4842 798.359 L16.4842 783.845 Q16.4842 775.856 20.1126 771.782 Q23.7092 767.676 30.6797 767.676 Q37.7138 767.676 41.3104 771.782 Q44.907 775.856 44.907 783.845 L44.907 791.93 L64.0042 791.93 L64.0042 798.359 L16.4842 798.359 Z" fill="#000000" fill-rule="evenodd" fill-opacity="1" /><path clip-path="url(#clip590)" d="M33.8307 739.795 Q33.2578 740.781 33.0032 741.959 Q32.7167 743.105 32.7167 744.505 Q32.7167 749.47 35.9632 752.144 Q39.1779 754.786 45.2253 754.786 L64.0042 754.786 L64.0042 760.674 L28.3562 760.674 L28.3562 754.786 L33.8944 754.786 Q30.6479 752.94 29.0883 749.98 Q27.4968 747.02 27.4968 742.787 Q27.4968 742.182 27.5923 741.45 Q27.656 740.718 27.8151 739.826 L33.8307 739.795 Z" fill="#000000" fill-rule="evenodd" fill-opacity="1" /><path clip-path="url(#clip590)" d="M32.4621 721.27 Q32.4621 725.981 36.1542 728.718 Q39.8145 731.456 46.212 731.456 Q52.6095 731.456 56.3017 728.75 Q59.9619 726.013 59.9619 721.27 Q59.9619 716.592 56.2698 713.854 Q52.5777 711.117 46.212 711.117 Q39.8781 711.117 36.186 713.854 Q32.4621 716.592 32.4621 721.27 M27.4968 721.27 Q27.4968 713.632 32.4621 709.271 Q37.4273 704.911 46.212 704.911 Q54.9649 704.911 59.9619 709.271 Q64.9272 713.632 64.9272 721.27 Q64.9272 728.941 59.9619 733.302 Q54.9649 737.63 46.212 737.63 Q37.4273 737.63 32.4621 733.302 Q27.4968 728.941 27.4968 721.27 Z" fill="#000000" fill-rule="evenodd" fill-opacity="1" /><path clip-path="url(#clip590)" d="M33.7671 671.745 L14.479 671.745 L14.479 665.889 L64.0042 665.889 L64.0042 671.745 L58.657 671.745 Q61.8398 673.591 63.3994 676.424 Q64.9272 679.225 64.9272 683.172 Q64.9272 689.633 59.771 693.707 Q54.6147 697.749 46.212 697.749 Q37.8093 697.749 32.6531 693.707 Q27.4968 689.633 27.4968 683.172 Q27.4968 679.225 29.0564 676.424 Q30.5842 673.591 33.7671 671.745 M46.212 691.702 Q52.6732 691.702 56.3653 689.06 Q60.0256 686.386 60.0256 681.739 Q60.0256 677.092 56.3653 674.419 Q52.6732 671.745 46.212 671.745 Q39.7508 671.745 36.0905 674.419 Q32.3984 677.092 32.3984 681.739 Q32.3984 686.386 36.0905 689.06 Q39.7508 691.702 46.212 691.702 Z" fill="#000000" fill-rule="evenodd" fill-opacity="1" /><path clip-path="url(#clip590)" d="M49.9359 654.43 L28.3562 654.43 L28.3562 648.574 L49.7131 648.574 Q54.7739 648.574 57.3202 646.601 Q59.8346 644.627 59.8346 640.681 Q59.8346 635.938 56.8109 633.201 Q53.7872 630.432 48.5673 630.432 L28.3562 630.432 L28.3562 624.575 L64.0042 624.575 L64.0042 630.432 L58.5296 630.432 Q61.7762 632.564 63.3676 635.397 Q64.9272 638.198 64.9272 641.922 Q64.9272 648.065 61.1078 651.248 Q57.2883 654.43 49.9359 654.43 M27.4968 639.694 L27.4968 639.694 Z" fill="#000000" fill-rule="evenodd" fill-opacity="1" /><path clip-path="url(#clip590)" d="M29.7248 586.859 L35.1993 586.859 Q33.8307 589.341 33.1623 591.856 Q32.4621 594.338 32.4621 596.885 Q32.4621 602.582 36.0905 605.733 Q39.6872 608.884 46.212 608.884 Q52.7369 608.884 56.3653 605.733 Q59.9619 602.582 59.9619 596.885 Q59.9619 594.338 59.2935 591.856 Q58.5933 589.341 57.2247 586.859 L62.6355 586.859 Q63.7814 589.309 64.3543 591.951 Q64.9272 594.561 64.9272 597.521 Q64.9272 605.574 59.8664 610.316 Q54.8057 615.059 46.212 615.059 Q37.491 615.059 32.4939 610.284 Q27.4968 605.478 27.4968 597.139 Q27.4968 594.434 28.0697 591.856 Q28.6108 589.277 29.7248 586.859 Z" fill="#000000" fill-rule="evenodd" fill-opacity="1" /><path clip-path="url(#clip590)" d="M18.2347 570.881 L28.3562 570.881 L28.3562 558.818 L32.9077 558.818 L32.9077 570.881 L52.2594 570.881 Q56.6199 570.881 57.8613 569.703 Q59.1026 568.493 59.1026 564.833 L59.1026 558.818 L64.0042 558.818 L64.0042 564.833 Q64.0042 571.613 61.4897 574.191 Q58.9434 576.769 52.2594 576.769 L32.9077 576.769 L32.9077 581.066 L28.3562 581.066 L28.3562 576.769 L18.2347 576.769 L18.2347 570.881 Z" fill="#000000" fill-rule="evenodd" fill-opacity="1" /><path clip-path="url(#clip590)" d="M1186.05 17.6457 Q1177.14 17.6457 1171.88 24.2892 Q1166.65 30.9327 1166.65 42.3968 Q1166.65 53.8203 1171.88 60.4638 Q1177.14 67.1073 1186.05 67.1073 Q1194.97 67.1073 1200.15 60.4638 Q1205.38 53.8203 1205.38 42.3968 Q1205.38 30.9327 1200.15 24.2892 Q1194.97 17.6457 1186.05 17.6457 M1186.05 11.0023 Q1198.77 11.0023 1206.39 19.5497 Q1214.01 28.0566 1214.01 42.3968 Q1214.01 56.6965 1206.39 65.2439 Q1198.77 73.7508 1186.05 73.7508 Q1173.29 73.7508 1165.64 65.2439 Q1158.02 56.737 1158.02 42.3968 Q1158.02 28.0566 1165.64 19.5497 Q1173.29 11.0023 1186.05 11.0023 Z" fill="#000000" fill-rule="evenodd" fill-opacity="1" /><path clip-path="url(#clip590)" d="M1221.13 27.2059 L1229.03 27.2059 L1243.21 65.2844 L1257.39 27.2059 L1265.29 27.2059 L1248.28 72.576 L1238.15 72.576 L1221.13 27.2059 Z" fill="#000000" fill-rule="evenodd" fill-opacity="1" /><path clip-path="url(#clip590)" d="M1314.39 48.0275 L1314.39 51.6733 L1280.12 51.6733 Q1280.6 59.3701 1284.73 63.421 Q1288.91 67.4314 1296.32 67.4314 Q1300.61 67.4314 1304.62 66.3781 Q1308.67 65.3249 1312.64 63.2184 L1312.64 70.267 Q1308.63 71.9684 1304.42 72.8596 Q1300.21 73.7508 1295.87 73.7508 Q1285.02 73.7508 1278.66 67.4314 Q1272.34 61.1119 1272.34 50.3365 Q1272.34 39.1965 1278.33 32.6746 Q1284.37 26.1121 1294.58 26.1121 Q1303.73 26.1121 1309.04 32.0264 Q1314.39 37.9003 1314.39 48.0275 M1306.93 45.84 Q1306.85 39.7232 1303.49 36.0774 Q1300.17 32.4315 1294.66 32.4315 Q1288.42 32.4315 1284.65 35.9558 Q1280.93 39.4801 1280.36 45.8805 L1306.93 45.84 Z" fill="#000000" fill-rule="evenodd" fill-opacity="1" /><path clip-path="url(#clip590)" d="M1352.91 34.1734 Q1351.66 33.4443 1350.16 33.1202 Q1348.7 32.7556 1346.92 32.7556 Q1340.6 32.7556 1337.19 36.8875 Q1333.83 40.9789 1333.83 48.6757 L1333.83 72.576 L1326.34 72.576 L1326.34 27.2059 L1333.83 27.2059 L1333.83 34.2544 Q1336.18 30.1225 1339.95 28.1376 Q1343.72 26.1121 1349.1 26.1121 Q1349.87 26.1121 1350.8 26.2337 Q1351.74 26.3147 1352.87 26.5172 L1352.91 34.1734 Z" fill="#000000" fill-rule="evenodd" fill-opacity="1" /><path clip-path="url(#clip590)" d="M1360.73 9.54393 L1368.18 9.54393 L1368.18 72.576 L1360.73 72.576 L1360.73 9.54393 Z" fill="#000000" fill-rule="evenodd" fill-opacity="1" /><path clip-path="url(#clip590)" d="M1404.4 49.7694 Q1395.36 49.7694 1391.88 51.8354 Q1388.4 53.9013 1388.4 58.8839 Q1388.4 62.8538 1390.99 65.2034 Q1393.62 67.5124 1398.12 67.5124 Q1404.32 67.5124 1408.04 63.1374 Q1411.81 58.7219 1411.81 51.4303 L1411.81 49.7694 L1404.4 49.7694 M1419.26 46.6907 L1419.26 72.576 L1411.81 72.576 L1411.81 65.6895 Q1409.26 69.8214 1405.45 71.8063 Q1401.64 73.7508 1396.13 73.7508 Q1389.17 73.7508 1385.03 69.8619 Q1380.94 65.9325 1380.94 59.3701 Q1380.94 51.7138 1386.05 47.825 Q1391.19 43.9361 1401.36 43.9361 L1411.81 43.9361 L1411.81 43.2069 Q1411.81 38.0623 1408.41 35.2672 Q1405.05 32.4315 1398.93 32.4315 Q1395.04 32.4315 1391.35 33.3632 Q1387.67 34.295 1384.26 36.1584 L1384.26 29.2718 Q1388.36 27.692 1392.2 26.9223 Q1396.05 26.1121 1399.7 26.1121 Q1409.54 26.1121 1414.4 31.2163 Q1419.26 36.3204 1419.26 46.6907 Z" fill="#000000" fill-rule="evenodd" fill-opacity="1" /><path clip-path="url(#clip590)" d="M1441.83 65.7705 L1441.83 89.8329 L1434.33 89.8329 L1434.33 27.2059 L1441.83 27.2059 L1441.83 34.0924 Q1444.18 30.0415 1447.74 28.0971 Q1451.35 26.1121 1456.33 26.1121 Q1464.59 26.1121 1469.74 32.6746 Q1474.92 39.2371 1474.92 49.9314 Q1474.92 60.6258 1469.74 67.1883 Q1464.59 73.7508 1456.33 73.7508 Q1451.35 73.7508 1447.74 71.8063 Q1444.18 69.8214 1441.83 65.7705 M1467.19 49.9314 Q1467.19 41.7081 1463.78 37.0496 Q1460.42 32.3505 1454.51 32.3505 Q1448.59 32.3505 1445.19 37.0496 Q1441.83 41.7081 1441.83 49.9314 Q1441.83 58.1548 1445.19 62.8538 Q1448.59 67.5124 1454.51 67.5124 Q1460.42 67.5124 1463.78 62.8538 Q1467.19 58.1548 1467.19 49.9314 Z" fill="#000000" fill-rule="evenodd" fill-opacity="1" /><polyline clip-path="url(#clip592)" style="stroke:#000000; stroke-linecap:round; stroke-linejoin:round; stroke-width:4; stroke-opacity:1; fill:none" points="
  349.276,290.573 349.276,290.57 
  "/>
<polyline clip-path="url(#clip592)" style="stroke:#000000; stroke-linecap:round; stroke-linejoin:round; stroke-width:4; stroke-opacity:1; fill:none" points="
  418.361,1334.85 418.361,1333.48 
  "/>
<polyline clip-path="url(#clip592)" style="stroke:#000000; stroke-linecap:round; stroke-linejoin:round; stroke-width:4; stroke-opacity:1; fill:none" points="
  487.447,664.639 487.447,664.629 
  "/>
<polyline clip-path="url(#clip592)" style="stroke:#000000; stroke-linecap:round; stroke-linejoin:round; stroke-width:4; stroke-opacity:1; fill:none" points="
  556.532,1109.24 556.532,1108.7 
  "/>
<polyline clip-path="url(#clip592)" style="stroke:#000000; stroke-linecap:round; stroke-linejoin:round; stroke-width:4; stroke-opacity:1; fill:none" points="
  625.618,703.653 625.618,703.635 
  "/>
<polyline clip-path="url(#clip592)" style="stroke:#000000; stroke-linecap:round; stroke-linejoin:round; stroke-width:4; stroke-opacity:1; fill:none" points="
  694.703,1060.87 694.703,1050.13 
  "/>
<polyline clip-path="url(#clip592)" style="stroke:#000000; stroke-linecap:round; stroke-linejoin:round; stroke-width:4; stroke-opacity:1; fill:none" points="
  763.789,703.702 763.789,703.672 
  "/>
<polyline clip-path="url(#clip592)" style="stroke:#000000; stroke-linecap:round; stroke-linejoin:round; stroke-width:4; stroke-opacity:1; fill:none" points="
  832.874,1042.6 832.874,1042.02 
  "/>
<polyline clip-path="url(#clip592)" style="stroke:#000000; stroke-linecap:round; stroke-linejoin:round; stroke-width:4; stroke-opacity:1; fill:none" points="
  901.96,701.846 901.96,701.787 
  "/>
<polyline clip-path="url(#clip592)" style="stroke:#000000; stroke-linecap:round; stroke-linejoin:round; stroke-width:4; stroke-opacity:1; fill:none" points="
  971.045,1041.45 971.045,1037.06 
  "/>
<polyline clip-path="url(#clip592)" style="stroke:#000000; stroke-linecap:round; stroke-linejoin:round; stroke-width:4; stroke-opacity:1; fill:none" points="
  1040.13,700.998 1040.13,700.547 
  "/>
<polyline clip-path="url(#clip592)" style="stroke:#000000; stroke-linecap:round; stroke-linejoin:round; stroke-width:4; stroke-opacity:1; fill:none" points="
  1109.22,1051.34 1109.22,1025.9 
  "/>
<polyline clip-path="url(#clip592)" style="stroke:#000000; stroke-linecap:round; stroke-linejoin:round; stroke-width:4; stroke-opacity:1; fill:none" points="
  1178.3,701.259 1178.3,700.72 
  "/>
<polyline clip-path="url(#clip592)" style="stroke:#000000; stroke-linecap:round; stroke-linejoin:round; stroke-width:4; stroke-opacity:1; fill:none" points="
  1247.39,1065.35 1247.39,1014.83 
  "/>
<polyline clip-path="url(#clip592)" style="stroke:#000000; stroke-linecap:round; stroke-linejoin:round; stroke-width:4; stroke-opacity:1; fill:none" points="
  1316.47,710.701 1316.47,696.361 
  "/>
<polyline clip-path="url(#clip592)" style="stroke:#000000; stroke-linecap:round; stroke-linejoin:round; stroke-width:4; stroke-opacity:1; fill:none" points="
  1385.56,1099.21 1385.56,975.565 
  "/>
<polyline clip-path="url(#clip592)" style="stroke:#000000; stroke-linecap:round; stroke-linejoin:round; stroke-width:4; stroke-opacity:1; fill:none" points="
  1454.64,775.83 1454.64,623.372 
  "/>
<polyline clip-path="url(#clip592)" style="stroke:#000000; stroke-linecap:round; stroke-linejoin:round; stroke-width:4; stroke-opacity:1; fill:none" points="
  1523.73,1073.57 1523.73,988.274 
  "/>
<polyline clip-path="url(#clip592)" style="stroke:#000000; stroke-linecap:round; stroke-linejoin:round; stroke-width:4; stroke-opacity:1; fill:none" points="
  1592.82,734.151 1592.82,673.547 
  "/>
<polyline clip-path="url(#clip592)" style="stroke:#000000; stroke-linecap:round; stroke-linejoin:round; stroke-width:4; stroke-opacity:1; fill:none" points="
  1661.9,1051.19 1661.9,1003.87 
  "/>
<polyline clip-path="url(#clip592)" style="stroke:#000000; stroke-linecap:round; stroke-linejoin:round; stroke-width:4; stroke-opacity:1; fill:none" points="
  1730.99,791.697 1730.99,608.051 
  "/>
<polyline clip-path="url(#clip592)" style="stroke:#000000; stroke-linecap:round; stroke-linejoin:round; stroke-width:4; stroke-opacity:1; fill:none" points="
  1800.07,1194.27 1800.07,879.313 
  "/>
<polyline clip-path="url(#clip592)" style="stroke:#000000; stroke-linecap:round; stroke-linejoin:round; stroke-width:4; stroke-opacity:1; fill:none" points="
  1869.16,739.859 1869.16,676.071 
  "/>
<polyline clip-path="url(#clip592)" style="stroke:#000000; stroke-linecap:round; stroke-linejoin:round; stroke-width:4; stroke-opacity:1; fill:none" points="
  1938.24,1243.53 1938.24,805.28 
  "/>
<polyline clip-path="url(#clip592)" style="stroke:#000000; stroke-linecap:round; stroke-linejoin:round; stroke-width:4; stroke-opacity:1; fill:none" points="
  2007.33,895.911 2007.33,504.592 
  "/>
<polyline clip-path="url(#clip592)" style="stroke:#000000; stroke-linecap:round; stroke-linejoin:round; stroke-width:4; stroke-opacity:1; fill:none" points="
  2076.41,1171.25 2076.41,899.242 
  "/>
<polyline clip-path="url(#clip592)" style="stroke:#000000; stroke-linecap:round; stroke-linejoin:round; stroke-width:4; stroke-opacity:1; fill:none" points="
  2145.5,855.763 2145.5,543.654 
  "/>
<line clip-path="url(#clip592)" x1="357.276" y1="290.573" x2="341.276" y2="290.573" style="stroke:#000000; stroke-width:3.2; stroke-opacity:1"/>
<line clip-path="url(#clip592)" x1="357.276" y1="290.57" x2="341.276" y2="290.57" style="stroke:#000000; stroke-width:3.2; stroke-opacity:1"/>
<line clip-path="url(#clip592)" x1="426.361" y1="1334.85" x2="410.361" y2="1334.85" style="stroke:#000000; stroke-width:3.2; stroke-opacity:1"/>
<line clip-path="url(#clip592)" x1="426.361" y1="1333.48" x2="410.361" y2="1333.48" style="stroke:#000000; stroke-width:3.2; stroke-opacity:1"/>
<line clip-path="url(#clip592)" x1="495.447" y1="664.639" x2="479.447" y2="664.639" style="stroke:#000000; stroke-width:3.2; stroke-opacity:1"/>
<line clip-path="url(#clip592)" x1="495.447" y1="664.629" x2="479.447" y2="664.629" style="stroke:#000000; stroke-width:3.2; stroke-opacity:1"/>
<line clip-path="url(#clip592)" x1="564.532" y1="1109.24" x2="548.532" y2="1109.24" style="stroke:#000000; stroke-width:3.2; stroke-opacity:1"/>
<line clip-path="url(#clip592)" x1="564.532" y1="1108.7" x2="548.532" y2="1108.7" style="stroke:#000000; stroke-width:3.2; stroke-opacity:1"/>
<line clip-path="url(#clip592)" x1="633.618" y1="703.653" x2="617.618" y2="703.653" style="stroke:#000000; stroke-width:3.2; stroke-opacity:1"/>
<line clip-path="url(#clip592)" x1="633.618" y1="703.635" x2="617.618" y2="703.635" style="stroke:#000000; stroke-width:3.2; stroke-opacity:1"/>
<line clip-path="url(#clip592)" x1="702.703" y1="1060.87" x2="686.703" y2="1060.87" style="stroke:#000000; stroke-width:3.2; stroke-opacity:1"/>
<line clip-path="url(#clip592)" x1="702.703" y1="1050.13" x2="686.703" y2="1050.13" style="stroke:#000000; stroke-width:3.2; stroke-opacity:1"/>
<line clip-path="url(#clip592)" x1="771.789" y1="703.702" x2="755.789" y2="703.702" style="stroke:#000000; stroke-width:3.2; stroke-opacity:1"/>
<line clip-path="url(#clip592)" x1="771.789" y1="703.672" x2="755.789" y2="703.672" style="stroke:#000000; stroke-width:3.2; stroke-opacity:1"/>
<line clip-path="url(#clip592)" x1="840.874" y1="1042.6" x2="824.874" y2="1042.6" style="stroke:#000000; stroke-width:3.2; stroke-opacity:1"/>
<line clip-path="url(#clip592)" x1="840.874" y1="1042.02" x2="824.874" y2="1042.02" style="stroke:#000000; stroke-width:3.2; stroke-opacity:1"/>
<line clip-path="url(#clip592)" x1="909.96" y1="701.846" x2="893.96" y2="701.846" style="stroke:#000000; stroke-width:3.2; stroke-opacity:1"/>
<line clip-path="url(#clip592)" x1="909.96" y1="701.787" x2="893.96" y2="701.787" style="stroke:#000000; stroke-width:3.2; stroke-opacity:1"/>
<line clip-path="url(#clip592)" x1="979.045" y1="1041.45" x2="963.045" y2="1041.45" style="stroke:#000000; stroke-width:3.2; stroke-opacity:1"/>
<line clip-path="url(#clip592)" x1="979.045" y1="1037.06" x2="963.045" y2="1037.06" style="stroke:#000000; stroke-width:3.2; stroke-opacity:1"/>
<line clip-path="url(#clip592)" x1="1048.13" y1="700.998" x2="1032.13" y2="700.998" style="stroke:#000000; stroke-width:3.2; stroke-opacity:1"/>
<line clip-path="url(#clip592)" x1="1048.13" y1="700.547" x2="1032.13" y2="700.547" style="stroke:#000000; stroke-width:3.2; stroke-opacity:1"/>
<line clip-path="url(#clip592)" x1="1117.22" y1="1051.34" x2="1101.22" y2="1051.34" style="stroke:#000000; stroke-width:3.2; stroke-opacity:1"/>
<line clip-path="url(#clip592)" x1="1117.22" y1="1025.9" x2="1101.22" y2="1025.9" style="stroke:#000000; stroke-width:3.2; stroke-opacity:1"/>
<line clip-path="url(#clip592)" x1="1186.3" y1="701.259" x2="1170.3" y2="701.259" style="stroke:#000000; stroke-width:3.2; stroke-opacity:1"/>
<line clip-path="url(#clip592)" x1="1186.3" y1="700.72" x2="1170.3" y2="700.72" style="stroke:#000000; stroke-width:3.2; stroke-opacity:1"/>
<line clip-path="url(#clip592)" x1="1255.39" y1="1065.35" x2="1239.39" y2="1065.35" style="stroke:#000000; stroke-width:3.2; stroke-opacity:1"/>
<line clip-path="url(#clip592)" x1="1255.39" y1="1014.83" x2="1239.39" y2="1014.83" style="stroke:#000000; stroke-width:3.2; stroke-opacity:1"/>
<line clip-path="url(#clip592)" x1="1324.47" y1="710.701" x2="1308.47" y2="710.701" style="stroke:#000000; stroke-width:3.2; stroke-opacity:1"/>
<line clip-path="url(#clip592)" x1="1324.47" y1="696.361" x2="1308.47" y2="696.361" style="stroke:#000000; stroke-width:3.2; stroke-opacity:1"/>
<line clip-path="url(#clip592)" x1="1393.56" y1="1099.21" x2="1377.56" y2="1099.21" style="stroke:#000000; stroke-width:3.2; stroke-opacity:1"/>
<line clip-path="url(#clip592)" x1="1393.56" y1="975.565" x2="1377.56" y2="975.565" style="stroke:#000000; stroke-width:3.2; stroke-opacity:1"/>
<line clip-path="url(#clip592)" x1="1462.64" y1="775.83" x2="1446.64" y2="775.83" style="stroke:#000000; stroke-width:3.2; stroke-opacity:1"/>
<line clip-path="url(#clip592)" x1="1462.64" y1="623.372" x2="1446.64" y2="623.372" style="stroke:#000000; stroke-width:3.2; stroke-opacity:1"/>
<line clip-path="url(#clip592)" x1="1531.73" y1="1073.57" x2="1515.73" y2="1073.57" style="stroke:#000000; stroke-width:3.2; stroke-opacity:1"/>
<line clip-path="url(#clip592)" x1="1531.73" y1="988.274" x2="1515.73" y2="988.274" style="stroke:#000000; stroke-width:3.2; stroke-opacity:1"/>
<line clip-path="url(#clip592)" x1="1600.82" y1="734.151" x2="1584.82" y2="734.151" style="stroke:#000000; stroke-width:3.2; stroke-opacity:1"/>
<line clip-path="url(#clip592)" x1="1600.82" y1="673.547" x2="1584.82" y2="673.547" style="stroke:#000000; stroke-width:3.2; stroke-opacity:1"/>
<line clip-path="url(#clip592)" x1="1669.9" y1="1051.19" x2="1653.9" y2="1051.19" style="stroke:#000000; stroke-width:3.2; stroke-opacity:1"/>
<line clip-path="url(#clip592)" x1="1669.9" y1="1003.87" x2="1653.9" y2="1003.87" style="stroke:#000000; stroke-width:3.2; stroke-opacity:1"/>
<line clip-path="url(#clip592)" x1="1738.99" y1="791.697" x2="1722.99" y2="791.697" style="stroke:#000000; stroke-width:3.2; stroke-opacity:1"/>
<line clip-path="url(#clip592)" x1="1738.99" y1="608.051" x2="1722.99" y2="608.051" style="stroke:#000000; stroke-width:3.2; stroke-opacity:1"/>
<line clip-path="url(#clip592)" x1="1808.07" y1="1194.27" x2="1792.07" y2="1194.27" style="stroke:#000000; stroke-width:3.2; stroke-opacity:1"/>
<line clip-path="url(#clip592)" x1="1808.07" y1="879.313" x2="1792.07" y2="879.313" style="stroke:#000000; stroke-width:3.2; stroke-opacity:1"/>
<line clip-path="url(#clip592)" x1="1877.16" y1="739.859" x2="1861.16" y2="739.859" style="stroke:#000000; stroke-width:3.2; stroke-opacity:1"/>
<line clip-path="url(#clip592)" x1="1877.16" y1="676.071" x2="1861.16" y2="676.071" style="stroke:#000000; stroke-width:3.2; stroke-opacity:1"/>
<line clip-path="url(#clip592)" x1="1946.24" y1="1243.53" x2="1930.24" y2="1243.53" style="stroke:#000000; stroke-width:3.2; stroke-opacity:1"/>
<line clip-path="url(#clip592)" x1="1946.24" y1="805.28" x2="1930.24" y2="805.28" style="stroke:#000000; stroke-width:3.2; stroke-opacity:1"/>
<line clip-path="url(#clip592)" x1="2015.33" y1="895.911" x2="1999.33" y2="895.911" style="stroke:#000000; stroke-width:3.2; stroke-opacity:1"/>
<line clip-path="url(#clip592)" x1="2015.33" y1="504.592" x2="1999.33" y2="504.592" style="stroke:#000000; stroke-width:3.2; stroke-opacity:1"/>
<line clip-path="url(#clip592)" x1="2084.41" y1="1171.25" x2="2068.41" y2="1171.25" style="stroke:#000000; stroke-width:3.2; stroke-opacity:1"/>
<line clip-path="url(#clip592)" x1="2084.41" y1="899.242" x2="2068.41" y2="899.242" style="stroke:#000000; stroke-width:3.2; stroke-opacity:1"/>
<line clip-path="url(#clip592)" x1="2153.5" y1="855.763" x2="2137.5" y2="855.763" style="stroke:#000000; stroke-width:3.2; stroke-opacity:1"/>
<line clip-path="url(#clip592)" x1="2153.5" y1="543.654" x2="2137.5" y2="543.654" style="stroke:#000000; stroke-width:3.2; stroke-opacity:1"/>
<circle clip-path="url(#clip592)" cx="349.276" cy="290.572" r="7.2" fill="#009af9" fill-rule="evenodd" fill-opacity="1" stroke="#000000" stroke-opacity="1" stroke-width="3.2"/>
<circle clip-path="url(#clip592)" cx="418.361" cy="1334.17" r="7.2" fill="#009af9" fill-rule="evenodd" fill-opacity="1" stroke="#000000" stroke-opacity="1" stroke-width="3.2"/>
<circle clip-path="url(#clip592)" cx="487.447" cy="664.634" r="7.2" fill="#009af9" fill-rule="evenodd" fill-opacity="1" stroke="#000000" stroke-opacity="1" stroke-width="3.2"/>
<circle clip-path="url(#clip592)" cx="556.532" cy="1108.97" r="7.2" fill="#009af9" fill-rule="evenodd" fill-opacity="1" stroke="#000000" stroke-opacity="1" stroke-width="3.2"/>
<circle clip-path="url(#clip592)" cx="625.618" cy="703.644" r="7.2" fill="#009af9" fill-rule="evenodd" fill-opacity="1" stroke="#000000" stroke-opacity="1" stroke-width="3.2"/>
<circle clip-path="url(#clip592)" cx="694.703" cy="1055.5" r="7.2" fill="#009af9" fill-rule="evenodd" fill-opacity="1" stroke="#000000" stroke-opacity="1" stroke-width="3.2"/>
<circle clip-path="url(#clip592)" cx="763.789" cy="703.687" r="7.2" fill="#009af9" fill-rule="evenodd" fill-opacity="1" stroke="#000000" stroke-opacity="1" stroke-width="3.2"/>
<circle clip-path="url(#clip592)" cx="832.874" cy="1042.31" r="7.2" fill="#009af9" fill-rule="evenodd" fill-opacity="1" stroke="#000000" stroke-opacity="1" stroke-width="3.2"/>
<circle clip-path="url(#clip592)" cx="901.96" cy="701.817" r="7.2" fill="#009af9" fill-rule="evenodd" fill-opacity="1" stroke="#000000" stroke-opacity="1" stroke-width="3.2"/>
<circle clip-path="url(#clip592)" cx="971.045" cy="1039.25" r="7.2" fill="#009af9" fill-rule="evenodd" fill-opacity="1" stroke="#000000" stroke-opacity="1" stroke-width="3.2"/>
<circle clip-path="url(#clip592)" cx="1040.13" cy="700.773" r="7.2" fill="#009af9" fill-rule="evenodd" fill-opacity="1" stroke="#000000" stroke-opacity="1" stroke-width="3.2"/>
<circle clip-path="url(#clip592)" cx="1109.22" cy="1038.62" r="7.2" fill="#009af9" fill-rule="evenodd" fill-opacity="1" stroke="#000000" stroke-opacity="1" stroke-width="3.2"/>
<circle clip-path="url(#clip592)" cx="1178.3" cy="700.99" r="7.2" fill="#009af9" fill-rule="evenodd" fill-opacity="1" stroke="#000000" stroke-opacity="1" stroke-width="3.2"/>
<circle clip-path="url(#clip592)" cx="1247.39" cy="1040.09" r="7.2" fill="#009af9" fill-rule="evenodd" fill-opacity="1" stroke="#000000" stroke-opacity="1" stroke-width="3.2"/>
<circle clip-path="url(#clip592)" cx="1316.47" cy="703.531" r="7.2" fill="#009af9" fill-rule="evenodd" fill-opacity="1" stroke="#000000" stroke-opacity="1" stroke-width="3.2"/>
<circle clip-path="url(#clip592)" cx="1385.56" cy="1037.39" r="7.2" fill="#009af9" fill-rule="evenodd" fill-opacity="1" stroke="#000000" stroke-opacity="1" stroke-width="3.2"/>
<circle clip-path="url(#clip592)" cx="1454.64" cy="699.601" r="7.2" fill="#009af9" fill-rule="evenodd" fill-opacity="1" stroke="#000000" stroke-opacity="1" stroke-width="3.2"/>
<circle clip-path="url(#clip592)" cx="1523.73" cy="1030.92" r="7.2" fill="#009af9" fill-rule="evenodd" fill-opacity="1" stroke="#000000" stroke-opacity="1" stroke-width="3.2"/>
<circle clip-path="url(#clip592)" cx="1592.82" cy="703.849" r="7.2" fill="#009af9" fill-rule="evenodd" fill-opacity="1" stroke="#000000" stroke-opacity="1" stroke-width="3.2"/>
<circle clip-path="url(#clip592)" cx="1661.9" cy="1027.53" r="7.2" fill="#009af9" fill-rule="evenodd" fill-opacity="1" stroke="#000000" stroke-opacity="1" stroke-width="3.2"/>
<circle clip-path="url(#clip592)" cx="1730.99" cy="699.874" r="7.2" fill="#009af9" fill-rule="evenodd" fill-opacity="1" stroke="#000000" stroke-opacity="1" stroke-width="3.2"/>
<circle clip-path="url(#clip592)" cx="1800.07" cy="1036.79" r="7.2" fill="#009af9" fill-rule="evenodd" fill-opacity="1" stroke="#000000" stroke-opacity="1" stroke-width="3.2"/>
<circle clip-path="url(#clip592)" cx="1869.16" cy="707.965" r="7.2" fill="#009af9" fill-rule="evenodd" fill-opacity="1" stroke="#000000" stroke-opacity="1" stroke-width="3.2"/>
<circle clip-path="url(#clip592)" cx="1938.24" cy="1024.41" r="7.2" fill="#009af9" fill-rule="evenodd" fill-opacity="1" stroke="#000000" stroke-opacity="1" stroke-width="3.2"/>
<circle clip-path="url(#clip592)" cx="2007.33" cy="700.252" r="7.2" fill="#009af9" fill-rule="evenodd" fill-opacity="1" stroke="#000000" stroke-opacity="1" stroke-width="3.2"/>
<circle clip-path="url(#clip592)" cx="2076.41" cy="1035.25" r="7.2" fill="#009af9" fill-rule="evenodd" fill-opacity="1" stroke="#000000" stroke-opacity="1" stroke-width="3.2"/>
<circle clip-path="url(#clip592)" cx="2145.5" cy="699.708" r="7.2" fill="#009af9" fill-rule="evenodd" fill-opacity="1" stroke="#000000" stroke-opacity="1" stroke-width="3.2"/>
<path clip-path="url(#clip590)" d="
M1717.64 270.476 L2283.67 270.476 L2283.67 166.796 L1717.64 166.796  Z
  " fill="#ffffff" fill-rule="evenodd" fill-opacity="1"/>
<polyline clip-path="url(#clip590)" style="stroke:#000000; stroke-linecap:round; stroke-linejoin:round; stroke-width:4; stroke-opacity:1; fill:none" points="
  1717.64,270.476 2283.67,270.476 2283.67,166.796 1717.64,166.796 1717.64,270.476 
  "/>
<circle clip-path="url(#clip590)" cx="1809.76" cy="218.636" r="23.04" fill="#009af9" fill-rule="evenodd" fill-opacity="1" stroke="#000000" stroke-opacity="1" stroke-width="10.24"/>
<path clip-path="url(#clip590)" d="M1922.22 214.967 Q1923.81 212.096 1926.04 210.731 Q1928.26 209.365 1931.27 209.365 Q1935.32 209.365 1937.52 212.212 Q1939.72 215.036 1939.72 220.268 L1939.72 235.916 L1935.44 235.916 L1935.44 220.407 Q1935.44 216.68 1934.12 214.874 Q1932.8 213.069 1930.09 213.069 Q1926.78 213.069 1924.86 215.268 Q1922.94 217.467 1922.94 221.263 L1922.94 235.916 L1918.65 235.916 L1918.65 220.407 Q1918.65 216.657 1917.33 214.874 Q1916.01 213.069 1913.26 213.069 Q1910 213.069 1908.07 215.291 Q1906.15 217.49 1906.15 221.263 L1906.15 235.916 L1901.87 235.916 L1901.87 209.99 L1906.15 209.99 L1906.15 214.018 Q1907.61 211.633 1909.65 210.499 Q1911.69 209.365 1914.49 209.365 Q1917.31 209.365 1919.28 210.8 Q1921.27 212.235 1922.22 214.967 Z" fill="#000000" fill-rule="evenodd" fill-opacity="1" /><path clip-path="url(#clip590)" d="M1956.94 220.245 Q1955.78 218.254 1953.44 218.254 Q1951.11 218.254 1949.95 220.245 Q1948.77 222.235 1948.77 226.217 Q1948.77 230.221 1949.95 232.212 Q1951.11 234.203 1953.44 234.203 Q1955.78 234.203 1956.94 232.212 Q1958.12 230.221 1958.12 226.217 Q1958.12 222.235 1956.94 220.245 M1953.44 216.194 Q1957.17 216.194 1959.14 218.763 Q1961.11 221.332 1961.11 226.217 Q1961.11 231.124 1959.14 233.694 Q1957.17 236.263 1953.44 236.263 Q1949.69 236.263 1947.73 233.694 Q1945.76 231.124 1945.76 226.217 Q1945.76 221.332 1947.73 218.763 Q1949.69 216.194 1953.44 216.194 Z" fill="#000000" fill-rule="evenodd" fill-opacity="1" /><path clip-path="url(#clip590)" d="M1967.77 214.388 L1997.45 214.388 L1997.45 218.277 L1967.77 218.277 L1967.77 214.388 M1967.77 223.832 L1997.45 223.832 L1997.45 227.768 L1967.77 227.768 L1967.77 223.832 Z" fill="#000000" fill-rule="evenodd" fill-opacity="1" /><path clip-path="url(#clip590)" d="M2017.54 204.434 Q2013.93 204.434 2012.1 207.999 Q2010.3 211.541 2010.3 218.67 Q2010.3 225.777 2012.1 229.342 Q2013.93 232.883 2017.54 232.883 Q2021.18 232.883 2022.98 229.342 Q2024.81 225.777 2024.81 218.67 Q2024.81 211.541 2022.98 207.999 Q2021.18 204.434 2017.54 204.434 M2017.54 200.731 Q2023.35 200.731 2026.41 205.337 Q2029.49 209.92 2029.49 218.67 Q2029.49 227.397 2026.41 232.004 Q2023.35 236.587 2017.54 236.587 Q2011.73 236.587 2008.65 232.004 Q2005.6 227.397 2005.6 218.67 Q2005.6 209.92 2008.65 205.337 Q2011.73 200.731 2017.54 200.731 Z" fill="#000000" fill-rule="evenodd" fill-opacity="1" /><path clip-path="url(#clip590)" d="M2037.7 230.036 L2042.59 230.036 L2042.59 235.916 L2037.7 235.916 L2037.7 230.036 Z" fill="#000000" fill-rule="evenodd" fill-opacity="1" /><path clip-path="url(#clip590)" d="M2063.35 216.772 Q2060.2 216.772 2058.35 218.925 Q2056.52 221.078 2056.52 224.828 Q2056.52 228.555 2058.35 230.731 Q2060.2 232.883 2063.35 232.883 Q2066.5 232.883 2068.33 230.731 Q2070.18 228.555 2070.18 224.828 Q2070.18 221.078 2068.33 218.925 Q2066.5 216.772 2063.35 216.772 M2072.63 202.12 L2072.63 206.379 Q2070.87 205.546 2069.07 205.106 Q2067.29 204.666 2065.53 204.666 Q2060.9 204.666 2058.44 207.791 Q2056.01 210.916 2055.67 217.235 Q2057.03 215.221 2059.09 214.157 Q2061.15 213.069 2063.63 213.069 Q2068.84 213.069 2071.85 216.24 Q2074.88 219.388 2074.88 224.828 Q2074.88 230.152 2071.73 233.369 Q2068.58 236.587 2063.35 236.587 Q2057.36 236.587 2054.18 232.004 Q2051.01 227.397 2051.01 218.67 Q2051.01 210.476 2054.9 205.615 Q2058.79 200.731 2065.34 200.731 Q2067.1 200.731 2068.88 201.078 Q2070.69 201.425 2072.63 202.12 Z" fill="#000000" fill-rule="evenodd" fill-opacity="1" /><path clip-path="url(#clip590)" d="M2083.42 230.036 L2088.3 230.036 L2088.3 234.018 L2084.51 241.425 L2081.52 241.425 L2083.42 234.018 L2083.42 230.036 Z" fill="#000000" fill-rule="evenodd" fill-opacity="1" /><path clip-path="url(#clip590)" d="M2121.15 230.985 L2121.15 221.703 L2113.51 221.703 L2113.51 217.86 L2125.78 217.86 L2125.78 232.698 Q2123.07 234.619 2119.81 235.615 Q2116.55 236.587 2112.84 236.587 Q2104.74 236.587 2100.16 231.865 Q2095.6 227.119 2095.6 218.67 Q2095.6 210.198 2100.16 205.476 Q2104.74 200.731 2112.84 200.731 Q2116.22 200.731 2119.25 201.564 Q2122.31 202.397 2124.88 204.018 L2124.88 208.995 Q2122.29 206.796 2119.37 205.684 Q2116.45 204.573 2113.24 204.573 Q2106.89 204.573 2103.7 208.115 Q2100.53 211.657 2100.53 218.67 Q2100.53 225.661 2103.7 229.203 Q2106.89 232.744 2113.24 232.744 Q2115.71 232.744 2117.66 232.328 Q2119.6 231.888 2121.15 230.985 Z" fill="#000000" fill-rule="evenodd" fill-opacity="1" /><path clip-path="url(#clip590)" d="M2135.87 217.814 L2145.69 217.814 L2145.69 220.453 L2131.85 220.453 L2131.85 217.907 Q2132.63 217.189 2134.09 215.893 Q2142.05 208.833 2142.05 206.657 Q2142.05 205.129 2140.85 204.203 Q2139.65 203.254 2137.68 203.254 Q2136.48 203.254 2135.06 203.671 Q2133.65 204.064 2131.99 204.874 L2131.99 202.027 Q2133.77 201.379 2135.3 201.055 Q2136.85 200.731 2138.17 200.731 Q2141.52 200.731 2143.54 202.258 Q2145.55 203.786 2145.55 206.286 Q2145.55 209.504 2137.89 216.078 Q2136.59 217.189 2135.87 217.814 Z" fill="#000000" fill-rule="evenodd" fill-opacity="1" /><path clip-path="url(#clip590)" d="M2153.7 214.388 L2183.37 214.388 L2183.37 218.277 L2153.7 218.277 L2153.7 214.388 M2153.7 223.832 L2183.37 223.832 L2183.37 227.768 L2153.7 227.768 L2153.7 223.832 Z" fill="#000000" fill-rule="evenodd" fill-opacity="1" /><path clip-path="url(#clip590)" d="M2194.28 231.981 L2201.92 231.981 L2201.92 205.615 L2193.61 207.282 L2193.61 203.022 L2201.87 201.356 L2206.54 201.356 L2206.54 231.981 L2214.18 231.981 L2214.18 235.916 L2194.28 235.916 L2194.28 231.981 Z" fill="#000000" fill-rule="evenodd" fill-opacity="1" /><path clip-path="url(#clip590)" d="M2223.63 230.036 L2228.51 230.036 L2228.51 235.916 L2223.63 235.916 L2223.63 230.036 Z" fill="#000000" fill-rule="evenodd" fill-opacity="1" /><path clip-path="url(#clip590)" d="M2248.7 204.434 Q2245.09 204.434 2243.26 207.999 Q2241.45 211.541 2241.45 218.67 Q2241.45 225.777 2243.26 229.342 Q2245.09 232.883 2248.7 232.883 Q2252.33 232.883 2254.14 229.342 Q2255.97 225.777 2255.97 218.67 Q2255.97 211.541 2254.14 207.999 Q2252.33 204.434 2248.7 204.434 M2248.7 200.731 Q2254.51 200.731 2257.56 205.337 Q2260.64 209.92 2260.64 218.67 Q2260.64 227.397 2257.56 232.004 Q2254.51 236.587 2248.7 236.587 Q2242.89 236.587 2239.81 232.004 Q2236.75 227.397 2236.75 218.67 Q2236.75 209.92 2239.81 205.337 Q2242.89 200.731 2248.7 200.731 Z" fill="#000000" fill-rule="evenodd" fill-opacity="1" /></svg>
