<?xml version="1.0" encoding="utf-8"?>
<svg xmlns="http://www.w3.org/2000/svg" xmlns:xlink="http://www.w3.org/1999/xlink" width="600" height="400" viewBox="0 0 2400 1600">
<defs>
  <clipPath id="clip540">
    <rect x="0" y="0" width="2400" height="1600"/>
  </clipPath>
</defs>
<path clip-path="url(#clip540)" d="
M0 1600 L2400 1600 L2400 0 L0 0  Z
  " fill="#ffffff" fill-rule="evenodd" fill-opacity="1"/>
<defs>
  <clipPath id="clip541">
    <rect x="480" y="0" width="1681" height="1600"/>
  </clipPath>
</defs>
<path clip-path="url(#clip540)" d="
M249.542 1423.18 L2352.76 1423.18 L2352.76 123.472 L249.542 123.472  Z
  " fill="#ffffff" fill-rule="evenodd" fill-opacity="1"/>
<defs>
  <clipPath id="clip542">
    <rect x="249" y="123" width="2104" height="1301"/>
  </clipPath>
</defs>
<polyline clip-path="url(#clip542)" style="stroke:#000000; stroke-linecap:round; stroke-linejoin:round; stroke-width:2; stroke-opacity:0.1; fill:none" points="
  249.542,1423.18 249.542,123.472 
  "/>
<polyline clip-path="url(#clip542)" style="stroke:#000000; stroke-linecap:round; stroke-linejoin:round; stroke-width:2; stroke-opacity:0.1; fill:none" points="
  459.863,1423.18 459.863,123.472 
  "/>
<polyline clip-path="url(#clip542)" style="stroke:#000000; stroke-linecap:round; stroke-linejoin:round; stroke-width:2; stroke-opacity:0.1; fill:none" points="
  670.185,1423.18 670.185,123.472 
  "/>
<polyline clip-path="url(#clip542)" style="stroke:#000000; stroke-linecap:round; stroke-linejoin:round; stroke-width:2; stroke-opacity:0.1; fill:none" points="
  880.506,1423.18 880.506,123.472 
  "/>
<polyline clip-path="url(#clip542)" style="stroke:#000000; stroke-linecap:round; stroke-linejoin:round; stroke-width:2; stroke-opacity:0.1; fill:none" points="
  1090.83,1423.18 1090.83,123.472 
  "/>
<polyline clip-path="url(#clip542)" style="stroke:#000000; stroke-linecap:round; stroke-linejoin:round; stroke-width:2; stroke-opacity:0.1; fill:none" points="
  1301.15,1423.18 1301.15,123.472 
  "/>
<polyline clip-path="url(#clip542)" style="stroke:#000000; stroke-linecap:round; stroke-linejoin:round; stroke-width:2; stroke-opacity:0.1; fill:none" points="
  1511.47,1423.18 1511.47,123.472 
  "/>
<polyline clip-path="url(#clip542)" style="stroke:#000000; stroke-linecap:round; stroke-linejoin:round; stroke-width:2; stroke-opacity:0.1; fill:none" points="
  1721.79,1423.18 1721.79,123.472 
  "/>
<polyline clip-path="url(#clip542)" style="stroke:#000000; stroke-linecap:round; stroke-linejoin:round; stroke-width:2; stroke-opacity:0.1; fill:none" points="
  1932.11,1423.18 1932.11,123.472 
  "/>
<polyline clip-path="url(#clip542)" style="stroke:#000000; stroke-linecap:round; stroke-linejoin:round; stroke-width:2; stroke-opacity:0.1; fill:none" points="
  2142.43,1423.18 2142.43,123.472 
  "/>
<polyline clip-path="url(#clip542)" style="stroke:#000000; stroke-linecap:round; stroke-linejoin:round; stroke-width:2; stroke-opacity:0.1; fill:none" points="
  2352.76,1423.18 2352.76,123.472 
  "/>
<polyline clip-path="url(#clip540)" style="stroke:#000000; stroke-linecap:round; stroke-linejoin:round; stroke-width:4; stroke-opacity:1; fill:none" points="
  249.542,1423.18 2352.76,1423.18 
  "/>
<polyline clip-path="url(#clip540)" style="stroke:#000000; stroke-linecap:round; stroke-linejoin:round; stroke-width:4; stroke-opacity:1; fill:none" points="
  249.542,1423.18 249.542,1404.28 
  "/>
<polyline clip-path="url(#clip540)" style="stroke:#000000; stroke-linecap:round; stroke-linejoin:round; stroke-width:4; stroke-opacity:1; fill:none" points="
  459.863,1423.18 459.863,1404.28 
  "/>
<polyline clip-path="url(#clip540)" style="stroke:#000000; stroke-linecap:round; stroke-linejoin:round; stroke-width:4; stroke-opacity:1; fill:none" points="
  670.185,1423.18 670.185,1404.28 
  "/>
<polyline clip-path="url(#clip540)" style="stroke:#000000; stroke-linecap:round; stroke-linejoin:round; stroke-width:4; stroke-opacity:1; fill:none" points="
  880.506,1423.18 880.506,1404.28 
  "/>
<polyline clip-path="url(#clip540)" style="stroke:#000000; stroke-linecap:round; stroke-linejoin:round; stroke-width:4; stroke-opacity:1; fill:none" points="
  1090.83,1423.18 1090.83,1404.28 
  "/>
<polyline clip-path="url(#clip540)" style="stroke:#000000; stroke-linecap:round; stroke-linejoin:round; stroke-width:4; stroke-opacity:1; fill:none" points="
  1301.15,1423.18 1301.15,1404.28 
  "/>
<polyline clip-path="url(#clip540)" style="stroke:#000000; stroke-linecap:round; stroke-linejoin:round; stroke-width:4; stroke-opacity:1; fill:none" points="
  1511.47,1423.18 1511.47,1404.28 
  "/>
<polyline clip-path="url(#clip540)" style="stroke:#000000; stroke-linecap:round; stroke-linejoin:round; stroke-width:4; stroke-opacity:1; fill:none" points="
  1721.79,1423.18 1721.79,1404.28 
  "/>
<polyline clip-path="url(#clip540)" style="stroke:#000000; stroke-linecap:round; stroke-linejoin:round; stroke-width:4; stroke-opacity:1; fill:none" points="
  1932.11,1423.18 1932.11,1404.28 
  "/>
<polyline clip-path="url(#clip540)" style="stroke:#000000; stroke-linecap:round; stroke-linejoin:round; stroke-width:4; stroke-opacity:1; fill:none" points="
  2142.43,1423.18 2142.43,1404.28 
  "/>
<polyline clip-path="url(#clip540)" style="stroke:#000000; stroke-linecap:round; stroke-linejoin:round; stroke-width:4; stroke-opacity:1; fill:none" points="
  2352.76,1423.18 2352.76,1404.28 
  "/>
<path clip-path="url(#clip540)" d="M249.542 1454.1 Q245.931 1454.1 244.102 1457.66 Q242.297 1461.2 242.297 1468.33 Q242.297 1475.44 244.102 1479.01 Q245.931 1482.55 249.542 1482.55 Q253.176 1482.55 254.982 1479.01 Q256.811 1475.44 256.811 1468.33 Q256.811 1461.2 254.982 1457.66 Q253.176 1454.1 249.542 1454.1 M249.542 1450.39 Q255.352 1450.39 258.408 1455 Q261.486 1459.58 261.486 1468.33 Q261.486 1477.06 258.408 1481.67 Q255.352 1486.25 249.542 1486.25 Q243.732 1486.25 240.653 1481.67 Q237.598 1477.06 237.598 1468.33 Q237.598 1459.58 240.653 1455 Q243.732 1450.39 249.542 1450.39 Z" fill="#000000" fill-rule="evenodd" fill-opacity="1" /><path clip-path="url(#clip540)" d="M450.141 1451.02 L468.498 1451.02 L468.498 1454.96 L454.424 1454.96 L454.424 1463.43 Q455.442 1463.08 456.461 1462.92 Q457.479 1462.73 458.498 1462.73 Q464.285 1462.73 467.664 1465.9 Q471.044 1469.08 471.044 1474.49 Q471.044 1480.07 467.572 1483.17 Q464.1 1486.25 457.78 1486.25 Q455.604 1486.25 453.336 1485.88 Q451.09 1485.51 448.683 1484.77 L448.683 1480.07 Q450.766 1481.2 452.988 1481.76 Q455.211 1482.32 457.688 1482.32 Q461.692 1482.32 464.03 1480.21 Q466.368 1478.1 466.368 1474.49 Q466.368 1470.88 464.03 1468.77 Q461.692 1466.67 457.688 1466.67 Q455.813 1466.67 453.938 1467.08 Q452.086 1467.5 450.141 1468.38 L450.141 1451.02 Z" fill="#000000" fill-rule="evenodd" fill-opacity="1" /><path clip-path="url(#clip540)" d="M644.872 1481.64 L652.511 1481.64 L652.511 1455.28 L644.201 1456.95 L644.201 1452.69 L652.465 1451.02 L657.141 1451.02 L657.141 1481.64 L664.78 1481.64 L664.78 1485.58 L644.872 1485.58 L644.872 1481.64 Z" fill="#000000" fill-rule="evenodd" fill-opacity="1" /><path clip-path="url(#clip540)" d="M684.224 1454.1 Q680.613 1454.1 678.784 1457.66 Q676.979 1461.2 676.979 1468.33 Q676.979 1475.44 678.784 1479.01 Q680.613 1482.55 684.224 1482.55 Q687.858 1482.55 689.664 1479.01 Q691.493 1475.44 691.493 1468.33 Q691.493 1461.2 689.664 1457.66 Q687.858 1454.1 684.224 1454.1 M684.224 1450.39 Q690.034 1450.39 693.09 1455 Q696.168 1459.58 696.168 1468.33 Q696.168 1477.06 693.09 1481.67 Q690.034 1486.25 684.224 1486.25 Q678.414 1486.25 675.335 1481.67 Q672.28 1477.06 672.28 1468.33 Q672.28 1459.58 675.335 1455 Q678.414 1450.39 684.224 1450.39 Z" fill="#000000" fill-rule="evenodd" fill-opacity="1" /><path clip-path="url(#clip540)" d="M855.692 1481.64 L863.33 1481.64 L863.33 1455.28 L855.02 1456.95 L855.02 1452.69 L863.284 1451.02 L867.96 1451.02 L867.96 1481.64 L875.599 1481.64 L875.599 1485.58 L855.692 1485.58 L855.692 1481.64 Z" fill="#000000" fill-rule="evenodd" fill-opacity="1" /><path clip-path="url(#clip540)" d="M885.09 1451.02 L903.446 1451.02 L903.446 1454.96 L889.372 1454.96 L889.372 1463.43 Q890.39 1463.08 891.409 1462.92 Q892.427 1462.73 893.446 1462.73 Q899.233 1462.73 902.613 1465.9 Q905.992 1469.08 905.992 1474.49 Q905.992 1480.07 902.52 1483.17 Q899.048 1486.25 892.728 1486.25 Q890.552 1486.25 888.284 1485.88 Q886.039 1485.51 883.631 1484.77 L883.631 1480.07 Q885.715 1481.2 887.937 1481.76 Q890.159 1482.32 892.636 1482.32 Q896.64 1482.32 898.978 1480.21 Q901.316 1478.1 901.316 1474.49 Q901.316 1470.88 898.978 1468.77 Q896.64 1466.67 892.636 1466.67 Q890.761 1466.67 888.886 1467.08 Q887.034 1467.5 885.09 1468.38 L885.09 1451.02 Z" fill="#000000" fill-rule="evenodd" fill-opacity="1" /><path clip-path="url(#clip540)" d="M1069.6 1481.64 L1085.92 1481.64 L1085.92 1485.58 L1063.98 1485.58 L1063.98 1481.64 Q1066.64 1478.89 1071.22 1474.26 Q1075.83 1469.61 1077.01 1468.27 Q1079.25 1465.74 1080.13 1464.01 Q1081.04 1462.25 1081.04 1460.56 Q1081.04 1457.8 1079.09 1456.07 Q1077.17 1454.33 1074.07 1454.33 Q1071.87 1454.33 1069.42 1455.09 Q1066.99 1455.86 1064.21 1457.41 L1064.21 1452.69 Q1067.03 1451.55 1069.49 1450.97 Q1071.94 1450.39 1073.98 1450.39 Q1079.35 1450.39 1082.54 1453.08 Q1085.74 1455.77 1085.74 1460.26 Q1085.74 1462.39 1084.92 1464.31 Q1084.14 1466.2 1082.03 1468.8 Q1081.45 1469.47 1078.35 1472.69 Q1075.25 1475.88 1069.6 1481.64 Z" fill="#000000" fill-rule="evenodd" fill-opacity="1" /><path clip-path="url(#clip540)" d="M1105.73 1454.1 Q1102.12 1454.1 1100.3 1457.66 Q1098.49 1461.2 1098.49 1468.33 Q1098.49 1475.44 1100.3 1479.01 Q1102.12 1482.55 1105.73 1482.55 Q1109.37 1482.55 1111.17 1479.01 Q1113 1475.44 1113 1468.33 Q1113 1461.2 1111.17 1457.66 Q1109.37 1454.1 1105.73 1454.1 M1105.73 1450.39 Q1111.55 1450.39 1114.6 1455 Q1117.68 1459.58 1117.68 1468.33 Q1117.68 1477.06 1114.6 1481.67 Q1111.55 1486.25 1105.73 1486.25 Q1099.92 1486.25 1096.85 1481.67 Q1093.79 1477.06 1093.79 1468.33 Q1093.79 1459.58 1096.85 1455 Q1099.92 1450.39 1105.73 1450.39 Z" fill="#000000" fill-rule="evenodd" fill-opacity="1" /><path clip-path="url(#clip540)" d="M1280.42 1481.64 L1296.74 1481.64 L1296.74 1485.58 L1274.79 1485.58 L1274.79 1481.64 Q1277.46 1478.89 1282.04 1474.26 Q1286.65 1469.61 1287.83 1468.27 Q1290.07 1465.74 1290.95 1464.01 Q1291.86 1462.25 1291.86 1460.56 Q1291.86 1457.8 1289.91 1456.07 Q1287.99 1454.33 1284.89 1454.33 Q1282.69 1454.33 1280.23 1455.09 Q1277.8 1455.86 1275.03 1457.41 L1275.03 1452.69 Q1277.85 1451.55 1280.3 1450.97 Q1282.76 1450.39 1284.79 1450.39 Q1290.17 1450.39 1293.36 1453.08 Q1296.55 1455.77 1296.55 1460.26 Q1296.55 1462.39 1295.74 1464.31 Q1294.96 1466.2 1292.85 1468.8 Q1292.27 1469.47 1289.17 1472.69 Q1286.07 1475.88 1280.42 1481.64 Z" fill="#000000" fill-rule="evenodd" fill-opacity="1" /><path clip-path="url(#clip540)" d="M1306.6 1451.02 L1324.96 1451.02 L1324.96 1454.96 L1310.88 1454.96 L1310.88 1463.43 Q1311.9 1463.08 1312.92 1462.92 Q1313.94 1462.73 1314.96 1462.73 Q1320.74 1462.73 1324.12 1465.9 Q1327.5 1469.08 1327.5 1474.49 Q1327.5 1480.07 1324.03 1483.17 Q1320.56 1486.25 1314.24 1486.25 Q1312.06 1486.25 1309.79 1485.88 Q1307.55 1485.51 1305.14 1484.77 L1305.14 1480.07 Q1307.23 1481.2 1309.45 1481.76 Q1311.67 1482.32 1314.15 1482.32 Q1318.15 1482.32 1320.49 1480.21 Q1322.83 1478.1 1322.83 1474.49 Q1322.83 1470.88 1320.49 1468.77 Q1318.15 1466.67 1314.15 1466.67 Q1312.27 1466.67 1310.4 1467.08 Q1308.54 1467.5 1306.6 1468.38 L1306.6 1451.02 Z" fill="#000000" fill-rule="evenodd" fill-opacity="1" /><path clip-path="url(#clip540)" d="M1500.31 1466.95 Q1503.67 1467.66 1505.54 1469.93 Q1507.44 1472.2 1507.44 1475.53 Q1507.44 1480.65 1503.92 1483.45 Q1500.41 1486.25 1493.92 1486.25 Q1491.75 1486.25 1489.43 1485.81 Q1487.14 1485.39 1484.69 1484.54 L1484.69 1480.02 Q1486.63 1481.16 1488.95 1481.74 Q1491.26 1482.32 1493.79 1482.32 Q1498.18 1482.32 1500.48 1480.58 Q1502.79 1478.84 1502.79 1475.53 Q1502.79 1472.48 1500.64 1470.77 Q1498.51 1469.03 1494.69 1469.03 L1490.66 1469.03 L1490.66 1465.19 L1494.87 1465.19 Q1498.32 1465.19 1500.15 1463.82 Q1501.98 1462.43 1501.98 1459.84 Q1501.98 1457.18 1500.08 1455.77 Q1498.21 1454.33 1494.69 1454.33 Q1492.77 1454.33 1490.57 1454.75 Q1488.37 1455.16 1485.73 1456.04 L1485.73 1451.88 Q1488.39 1451.14 1490.71 1450.77 Q1493.04 1450.39 1495.1 1450.39 Q1500.43 1450.39 1503.53 1452.83 Q1506.63 1455.23 1506.63 1459.35 Q1506.63 1462.22 1504.99 1464.21 Q1503.35 1466.18 1500.31 1466.95 Z" fill="#000000" fill-rule="evenodd" fill-opacity="1" /><path clip-path="url(#clip540)" d="M1526.31 1454.1 Q1522.7 1454.1 1520.87 1457.66 Q1519.06 1461.2 1519.06 1468.33 Q1519.06 1475.44 1520.87 1479.01 Q1522.7 1482.55 1526.31 1482.55 Q1529.94 1482.55 1531.75 1479.01 Q1533.58 1475.44 1533.58 1468.33 Q1533.58 1461.2 1531.75 1457.66 Q1529.94 1454.1 1526.31 1454.1 M1526.31 1450.39 Q1532.12 1450.39 1535.17 1455 Q1538.25 1459.58 1538.25 1468.33 Q1538.25 1477.06 1535.17 1481.67 Q1532.12 1486.25 1526.31 1486.25 Q1520.5 1486.25 1517.42 1481.67 Q1514.36 1477.06 1514.36 1468.33 Q1514.36 1459.58 1517.42 1455 Q1520.5 1450.39 1526.31 1450.39 Z" fill="#000000" fill-rule="evenodd" fill-opacity="1" /><path clip-path="url(#clip540)" d="M1711.13 1466.95 Q1714.49 1467.66 1716.36 1469.93 Q1718.26 1472.2 1718.26 1475.53 Q1718.26 1480.65 1714.74 1483.45 Q1711.22 1486.25 1704.74 1486.25 Q1702.57 1486.25 1700.25 1485.81 Q1697.96 1485.39 1695.51 1484.54 L1695.51 1480.02 Q1697.45 1481.16 1699.77 1481.74 Q1702.08 1482.32 1704.6 1482.32 Q1709 1482.32 1711.29 1480.58 Q1713.61 1478.84 1713.61 1475.53 Q1713.61 1472.48 1711.46 1470.77 Q1709.33 1469.03 1705.51 1469.03 L1701.48 1469.03 L1701.48 1465.19 L1705.69 1465.19 Q1709.14 1465.19 1710.97 1463.82 Q1712.8 1462.43 1712.8 1459.84 Q1712.8 1457.18 1710.9 1455.77 Q1709.03 1454.33 1705.51 1454.33 Q1703.59 1454.33 1701.39 1454.75 Q1699.19 1455.16 1696.55 1456.04 L1696.55 1451.88 Q1699.21 1451.14 1701.53 1450.77 Q1703.86 1450.39 1705.92 1450.39 Q1711.25 1450.39 1714.35 1452.83 Q1717.45 1455.23 1717.45 1459.35 Q1717.45 1462.22 1715.81 1464.21 Q1714.16 1466.18 1711.13 1466.95 Z" fill="#000000" fill-rule="evenodd" fill-opacity="1" /><path clip-path="url(#clip540)" d="M1727.17 1451.02 L1745.53 1451.02 L1745.53 1454.96 L1731.46 1454.96 L1731.46 1463.43 Q1732.47 1463.08 1733.49 1462.92 Q1734.51 1462.73 1735.53 1462.73 Q1741.32 1462.73 1744.7 1465.9 Q1748.08 1469.08 1748.08 1474.49 Q1748.08 1480.07 1744.6 1483.17 Q1741.13 1486.25 1734.81 1486.25 Q1732.64 1486.25 1730.37 1485.88 Q1728.12 1485.51 1725.72 1484.77 L1725.72 1480.07 Q1727.8 1481.2 1730.02 1481.76 Q1732.24 1482.32 1734.72 1482.32 Q1738.72 1482.32 1741.06 1480.21 Q1743.4 1478.1 1743.4 1474.49 Q1743.4 1470.88 1741.06 1468.77 Q1738.72 1466.67 1734.72 1466.67 Q1732.84 1466.67 1730.97 1467.08 Q1729.12 1467.5 1727.17 1468.38 L1727.17 1451.02 Z" fill="#000000" fill-rule="evenodd" fill-opacity="1" /><path clip-path="url(#clip540)" d="M1920.28 1455.09 L1908.48 1473.54 L1920.28 1473.54 L1920.28 1455.09 M1919.06 1451.02 L1924.94 1451.02 L1924.94 1473.54 L1929.87 1473.54 L1929.87 1477.43 L1924.94 1477.43 L1924.94 1485.58 L1920.28 1485.58 L1920.28 1477.43 L1904.68 1477.43 L1904.68 1472.92 L1919.06 1451.02 Z" fill="#000000" fill-rule="evenodd" fill-opacity="1" /><path clip-path="url(#clip540)" d="M1947.6 1454.1 Q1943.99 1454.1 1942.16 1457.66 Q1940.35 1461.2 1940.35 1468.33 Q1940.35 1475.44 1942.16 1479.01 Q1943.99 1482.55 1947.6 1482.55 Q1951.23 1482.55 1953.04 1479.01 Q1954.87 1475.44 1954.87 1468.33 Q1954.87 1461.2 1953.04 1457.66 Q1951.23 1454.1 1947.6 1454.1 M1947.6 1450.39 Q1953.41 1450.39 1956.46 1455 Q1959.54 1459.58 1959.54 1468.33 Q1959.54 1477.06 1956.46 1481.67 Q1953.41 1486.25 1947.6 1486.25 Q1941.79 1486.25 1938.71 1481.67 Q1935.65 1477.06 1935.65 1468.33 Q1935.65 1459.58 1938.71 1455 Q1941.79 1450.39 1947.6 1450.39 Z" fill="#000000" fill-rule="evenodd" fill-opacity="1" /><path clip-path="url(#clip540)" d="M2131.1 1455.09 L2119.3 1473.54 L2131.1 1473.54 L2131.1 1455.09 M2129.88 1451.02 L2135.76 1451.02 L2135.76 1473.54 L2140.69 1473.54 L2140.69 1477.43 L2135.76 1477.43 L2135.76 1485.58 L2131.1 1485.58 L2131.1 1477.43 L2115.5 1477.43 L2115.5 1472.92 L2129.88 1451.02 Z" fill="#000000" fill-rule="evenodd" fill-opacity="1" /><path clip-path="url(#clip540)" d="M2148.46 1451.02 L2166.82 1451.02 L2166.82 1454.96 L2152.75 1454.96 L2152.75 1463.43 Q2153.77 1463.08 2154.78 1462.92 Q2155.8 1462.73 2156.82 1462.73 Q2162.61 1462.73 2165.99 1465.9 Q2169.37 1469.08 2169.37 1474.49 Q2169.37 1480.07 2165.9 1483.17 Q2162.42 1486.25 2156.1 1486.25 Q2153.93 1486.25 2151.66 1485.88 Q2149.41 1485.51 2147.01 1484.77 L2147.01 1480.07 Q2149.09 1481.2 2151.31 1481.76 Q2153.53 1482.32 2156.01 1482.32 Q2160.02 1482.32 2162.35 1480.21 Q2164.69 1478.1 2164.69 1474.49 Q2164.69 1470.88 2162.35 1468.77 Q2160.02 1466.67 2156.01 1466.67 Q2154.14 1466.67 2152.26 1467.08 Q2150.41 1467.5 2148.46 1468.38 L2148.46 1451.02 Z" fill="#000000" fill-rule="evenodd" fill-opacity="1" /><path clip-path="url(#clip540)" d="M2327.46 1451.02 L2345.81 1451.02 L2345.81 1454.96 L2331.74 1454.96 L2331.74 1463.43 Q2332.76 1463.08 2333.77 1462.92 Q2334.79 1462.73 2335.81 1462.73 Q2341.6 1462.73 2344.98 1465.9 Q2348.36 1469.08 2348.36 1474.49 Q2348.36 1480.07 2344.89 1483.17 Q2341.41 1486.25 2335.09 1486.25 Q2332.92 1486.25 2330.65 1485.88 Q2328.4 1485.51 2326 1484.77 L2326 1480.07 Q2328.08 1481.2 2330.3 1481.76 Q2332.52 1482.32 2335 1482.32 Q2339.01 1482.32 2341.34 1480.21 Q2343.68 1478.1 2343.68 1474.49 Q2343.68 1470.88 2341.34 1468.77 Q2339.01 1466.67 2335 1466.67 Q2333.13 1466.67 2331.25 1467.08 Q2329.4 1467.5 2327.46 1468.38 L2327.46 1451.02 Z" fill="#000000" fill-rule="evenodd" fill-opacity="1" /><path clip-path="url(#clip540)" d="M2367.57 1454.1 Q2363.96 1454.1 2362.13 1457.66 Q2360.33 1461.2 2360.33 1468.33 Q2360.33 1475.44 2362.13 1479.01 Q2363.96 1482.55 2367.57 1482.55 Q2371.2 1482.55 2373.01 1479.01 Q2374.84 1475.44 2374.84 1468.33 Q2374.84 1461.2 2373.01 1457.66 Q2371.2 1454.1 2367.57 1454.1 M2367.57 1450.39 Q2373.38 1450.39 2376.44 1455 Q2379.52 1459.58 2379.52 1468.33 Q2379.52 1477.06 2376.44 1481.67 Q2373.38 1486.25 2367.57 1486.25 Q2361.76 1486.25 2358.68 1481.67 Q2355.63 1477.06 2355.63 1468.33 Q2355.63 1459.58 2358.68 1455 Q2361.76 1450.39 2367.57 1450.39 Z" fill="#000000" fill-rule="evenodd" fill-opacity="1" /><path clip-path="url(#clip540)" d="M1130.02 1522.08 L1130.02 1528.35 Q1126.36 1526.6 1123.12 1525.74 Q1119.87 1524.88 1116.85 1524.88 Q1111.59 1524.88 1108.73 1526.92 Q1105.9 1528.96 1105.9 1532.71 Q1105.9 1535.87 1107.77 1537.49 Q1109.68 1539.08 1114.97 1540.07 L1118.85 1540.86 Q1126.04 1542.23 1129.45 1545.7 Q1132.89 1549.14 1132.89 1554.93 Q1132.89 1561.84 1128.24 1565.4 Q1123.63 1568.97 1114.68 1568.97 Q1111.31 1568.97 1107.49 1568.2 Q1103.7 1567.44 1099.63 1565.94 L1099.63 1559.32 Q1103.54 1561.52 1107.3 1562.63 Q1111.05 1563.75 1114.68 1563.75 Q1120.19 1563.75 1123.18 1561.58 Q1126.17 1559.42 1126.17 1555.41 Q1126.17 1551.91 1124.01 1549.93 Q1121.87 1547.96 1116.97 1546.97 L1113.06 1546.21 Q1105.87 1544.78 1102.65 1541.72 Q1099.44 1538.67 1099.44 1533.22 Q1099.44 1526.92 1103.86 1523.29 Q1108.32 1519.66 1116.11 1519.66 Q1119.46 1519.66 1122.93 1520.27 Q1126.39 1520.87 1130.02 1522.08 Z" fill="#000000" fill-rule="evenodd" fill-opacity="1" /><path clip-path="url(#clip540)" d="M1142.66 1532.4 L1148.52 1532.4 L1148.52 1568.04 L1142.66 1568.04 L1142.66 1532.4 M1142.66 1518.52 L1148.52 1518.52 L1148.52 1525.93 L1142.66 1525.93 L1142.66 1518.52 Z" fill="#000000" fill-rule="evenodd" fill-opacity="1" /><path clip-path="url(#clip540)" d="M1166.56 1522.27 L1166.56 1532.4 L1178.63 1532.4 L1178.63 1536.95 L1166.56 1536.95 L1166.56 1556.3 Q1166.56 1560.66 1167.74 1561.9 Q1168.95 1563.14 1172.61 1563.14 L1178.63 1563.14 L1178.63 1568.04 L1172.61 1568.04 Q1165.83 1568.04 1163.25 1565.53 Q1160.67 1562.98 1160.67 1556.3 L1160.67 1536.95 L1156.38 1536.95 L1156.38 1532.4 L1160.67 1532.4 L1160.67 1522.27 L1166.56 1522.27 Z" fill="#000000" fill-rule="evenodd" fill-opacity="1" /><path clip-path="url(#clip540)" d="M1216.82 1548.76 L1216.82 1551.62 L1189.89 1551.62 Q1190.27 1557.67 1193.52 1560.85 Q1196.8 1564 1202.62 1564 Q1206 1564 1209.15 1563.17 Q1212.33 1562.35 1215.45 1560.69 L1215.45 1566.23 Q1212.3 1567.57 1208.99 1568.27 Q1205.68 1568.97 1202.27 1568.97 Q1193.74 1568.97 1188.75 1564 Q1183.78 1559.04 1183.78 1550.57 Q1183.78 1541.82 1188.49 1536.69 Q1193.23 1531.54 1201.26 1531.54 Q1208.45 1531.54 1212.62 1536.18 Q1216.82 1540.8 1216.82 1548.76 M1210.96 1547.04 Q1210.9 1542.23 1208.26 1539.37 Q1205.65 1536.5 1201.32 1536.5 Q1196.42 1536.5 1193.46 1539.27 Q1190.53 1542.04 1190.08 1547.07 L1210.96 1547.04 Z" fill="#000000" fill-rule="evenodd" fill-opacity="1" /><path clip-path="url(#clip540)" d="M1247.41 1520.52 L1256.06 1520.52 L1277.13 1560.28 L1277.13 1520.52 L1283.37 1520.52 L1283.37 1568.04 L1274.72 1568.04 L1253.64 1528.29 L1253.64 1568.04 L1247.41 1568.04 L1247.41 1520.52 Z" fill="#000000" fill-rule="evenodd" fill-opacity="1" /><path clip-path="url(#clip540)" d="M1295.31 1553.98 L1295.31 1532.4 L1301.16 1532.4 L1301.16 1553.75 Q1301.16 1558.81 1303.14 1561.36 Q1305.11 1563.87 1309.06 1563.87 Q1313.8 1563.87 1316.54 1560.85 Q1319.31 1557.83 1319.31 1552.61 L1319.31 1532.4 L1325.16 1532.4 L1325.16 1568.04 L1319.31 1568.04 L1319.31 1562.57 Q1317.17 1565.82 1314.34 1567.41 Q1311.54 1568.97 1307.82 1568.97 Q1301.67 1568.97 1298.49 1565.15 Q1295.31 1561.33 1295.31 1553.98 M1310.05 1531.54 L1310.05 1531.54 Z" fill="#000000" fill-rule="evenodd" fill-opacity="1" /><path clip-path="url(#clip540)" d="M1364.98 1539.24 Q1367.18 1535.29 1370.23 1533.41 Q1373.29 1531.54 1377.43 1531.54 Q1383 1531.54 1386.02 1535.45 Q1389.04 1539.33 1389.04 1546.53 L1389.04 1568.04 L1383.16 1568.04 L1383.16 1546.72 Q1383.16 1541.59 1381.34 1539.11 Q1379.53 1536.63 1375.8 1536.63 Q1371.25 1536.63 1368.61 1539.65 Q1365.97 1542.68 1365.97 1547.9 L1365.97 1568.04 L1360.08 1568.04 L1360.08 1546.72 Q1360.08 1541.56 1358.27 1539.11 Q1356.45 1536.63 1352.66 1536.63 Q1348.18 1536.63 1345.53 1539.68 Q1342.89 1542.71 1342.89 1547.9 L1342.89 1568.04 L1337 1568.04 L1337 1532.4 L1342.89 1532.4 L1342.89 1537.93 Q1344.9 1534.66 1347.7 1533.1 Q1350.5 1531.54 1354.35 1531.54 Q1358.23 1531.54 1360.94 1533.51 Q1363.68 1535.48 1364.98 1539.24 Z" fill="#000000" fill-rule="evenodd" fill-opacity="1" /><path clip-path="url(#clip540)" d="M1426.31 1550.25 Q1426.31 1543.79 1423.64 1540.13 Q1421 1536.44 1416.35 1536.44 Q1411.71 1536.44 1409.03 1540.13 Q1406.39 1543.79 1406.39 1550.25 Q1406.39 1556.71 1409.03 1560.4 Q1411.71 1564.07 1416.35 1564.07 Q1421 1564.07 1423.64 1560.4 Q1426.31 1556.71 1426.31 1550.25 M1406.39 1537.81 Q1408.24 1534.62 1411.04 1533.1 Q1413.87 1531.54 1417.78 1531.54 Q1424.28 1531.54 1428.32 1536.69 Q1432.39 1541.85 1432.39 1550.25 Q1432.39 1558.65 1428.32 1563.81 Q1424.28 1568.97 1417.78 1568.97 Q1413.87 1568.97 1411.04 1567.44 Q1408.24 1565.88 1406.39 1562.7 L1406.39 1568.04 L1400.5 1568.04 L1400.5 1518.52 L1406.39 1518.52 L1406.39 1537.81 Z" fill="#000000" fill-rule="evenodd" fill-opacity="1" /><path clip-path="url(#clip540)" d="M1472.59 1548.76 L1472.59 1551.62 L1445.67 1551.62 Q1446.05 1557.67 1449.29 1560.85 Q1452.57 1564 1458.4 1564 Q1461.77 1564 1464.92 1563.17 Q1468.11 1562.35 1471.22 1560.69 L1471.22 1566.23 Q1468.07 1567.57 1464.76 1568.27 Q1461.45 1568.97 1458.05 1568.97 Q1449.52 1568.97 1444.52 1564 Q1439.56 1559.04 1439.56 1550.57 Q1439.56 1541.82 1444.27 1536.69 Q1449.01 1531.54 1457.03 1531.54 Q1464.22 1531.54 1468.39 1536.18 Q1472.59 1540.8 1472.59 1548.76 M1466.74 1547.04 Q1466.67 1542.23 1464.03 1539.37 Q1461.42 1536.5 1457.09 1536.5 Q1452.19 1536.5 1449.23 1539.27 Q1446.3 1542.04 1445.86 1547.07 L1466.74 1547.04 Z" fill="#000000" fill-rule="evenodd" fill-opacity="1" /><path clip-path="url(#clip540)" d="M1502.86 1537.87 Q1501.88 1537.3 1500.7 1537.04 Q1499.55 1536.76 1498.15 1536.76 Q1493.19 1536.76 1490.51 1540 Q1487.87 1543.22 1487.87 1549.27 L1487.87 1568.04 L1481.98 1568.04 L1481.98 1532.4 L1487.87 1532.4 L1487.87 1537.93 Q1489.72 1534.69 1492.68 1533.13 Q1495.64 1531.54 1499.87 1531.54 Q1500.48 1531.54 1501.21 1531.63 Q1501.94 1531.7 1502.83 1531.85 L1502.86 1537.87 Z" fill="#000000" fill-rule="evenodd" fill-opacity="1" /><polyline clip-path="url(#clip542)" style="stroke:#000000; stroke-linecap:round; stroke-linejoin:round; stroke-width:2; stroke-opacity:0.1; fill:none" points="
  249.542,1423.18 2352.76,1423.18 
  "/>
<polyline clip-path="url(#clip542)" style="stroke:#000000; stroke-linecap:round; stroke-linejoin:round; stroke-width:2; stroke-opacity:0.1; fill:none" points="
  249.542,1260.72 2352.76,1260.72 
  "/>
<polyline clip-path="url(#clip542)" style="stroke:#000000; stroke-linecap:round; stroke-linejoin:round; stroke-width:2; stroke-opacity:0.1; fill:none" points="
  249.542,1098.25 2352.76,1098.25 
  "/>
<polyline clip-path="url(#clip542)" style="stroke:#000000; stroke-linecap:round; stroke-linejoin:round; stroke-width:2; stroke-opacity:0.1; fill:none" points="
  249.542,935.789 2352.76,935.789 
  "/>
<polyline clip-path="url(#clip542)" style="stroke:#000000; stroke-linecap:round; stroke-linejoin:round; stroke-width:2; stroke-opacity:0.1; fill:none" points="
  249.542,773.326 2352.76,773.326 
  "/>
<polyline clip-path="url(#clip542)" style="stroke:#000000; stroke-linecap:round; stroke-linejoin:round; stroke-width:2; stroke-opacity:0.1; fill:none" points="
  249.542,610.863 2352.76,610.863 
  "/>
<polyline clip-path="url(#clip542)" style="stroke:#000000; stroke-linecap:round; stroke-linejoin:round; stroke-width:2; stroke-opacity:0.1; fill:none" points="
  249.542,448.399 2352.76,448.399 
  "/>
<polyline clip-path="url(#clip542)" style="stroke:#000000; stroke-linecap:round; stroke-linejoin:round; stroke-width:2; stroke-opacity:0.1; fill:none" points="
  249.542,285.936 2352.76,285.936 
  "/>
<polyline clip-path="url(#clip542)" style="stroke:#000000; stroke-linecap:round; stroke-linejoin:round; stroke-width:2; stroke-opacity:0.1; fill:none" points="
  249.542,123.472 2352.76,123.472 
  "/>
<polyline clip-path="url(#clip540)" style="stroke:#000000; stroke-linecap:round; stroke-linejoin:round; stroke-width:4; stroke-opacity:1; fill:none" points="
  249.542,1423.18 249.542,123.472 
  "/>
<polyline clip-path="url(#clip540)" style="stroke:#000000; stroke-linecap:round; stroke-linejoin:round; stroke-width:4; stroke-opacity:1; fill:none" points="
  249.542,1423.18 268.44,1423.18 
  "/>
<polyline clip-path="url(#clip540)" style="stroke:#000000; stroke-linecap:round; stroke-linejoin:round; stroke-width:4; stroke-opacity:1; fill:none" points="
  249.542,1260.72 268.44,1260.72 
  "/>
<polyline clip-path="url(#clip540)" style="stroke:#000000; stroke-linecap:round; stroke-linejoin:round; stroke-width:4; stroke-opacity:1; fill:none" points="
  249.542,1098.25 268.44,1098.25 
  "/>
<polyline clip-path="url(#clip540)" style="stroke:#000000; stroke-linecap:round; stroke-linejoin:round; stroke-width:4; stroke-opacity:1; fill:none" points="
  249.542,935.789 268.44,935.789 
  "/>
<polyline clip-path="url(#clip540)" style="stroke:#000000; stroke-linecap:round; stroke-linejoin:round; stroke-width:4; stroke-opacity:1; fill:none" points="
  249.542,773.326 268.44,773.326 
  "/>
<polyline clip-path="url(#clip540)" style="stroke:#000000; stroke-linecap:round; stroke-linejoin:round; stroke-width:4; stroke-opacity:1; fill:none" points="
  249.542,610.863 268.44,610.863 
  "/>
<polyline clip-path="url(#clip540)" style="stroke:#000000; stroke-linecap:round; stroke-linejoin:round; stroke-width:4; stroke-opacity:1; fill:none" points="
  249.542,448.399 268.44,448.399 
  "/>
<polyline clip-path="url(#clip540)" style="stroke:#000000; stroke-linecap:round; stroke-linejoin:round; stroke-width:4; stroke-opacity:1; fill:none" points="
  249.542,285.936 268.44,285.936 
  "/>
<polyline clip-path="url(#clip540)" style="stroke:#000000; stroke-linecap:round; stroke-linejoin:round; stroke-width:4; stroke-opacity:1; fill:none" points="
  249.542,123.472 268.44,123.472 
  "/>
<path clip-path="url(#clip540)" d="M126.205 1408.98 Q122.593 1408.98 120.765 1412.54 Q118.959 1416.08 118.959 1423.21 Q118.959 1430.32 120.765 1433.89 Q122.593 1437.43 126.205 1437.43 Q129.839 1437.43 131.644 1433.89 Q133.473 1430.32 133.473 1423.21 Q133.473 1416.08 131.644 1412.54 Q129.839 1408.98 126.205 1408.98 M126.205 1405.27 Q132.015 1405.27 135.07 1409.88 Q138.149 1414.46 138.149 1423.21 Q138.149 1431.94 135.07 1436.55 Q132.015 1441.13 126.205 1441.13 Q120.394 1441.13 117.316 1436.55 Q114.26 1431.94 114.26 1423.21 Q114.26 1414.46 117.316 1409.88 Q120.394 1405.27 126.205 1405.27 Z" fill="#000000" fill-rule="evenodd" fill-opacity="1" /><path clip-path="url(#clip540)" d="M146.366 1434.58 L151.251 1434.58 L151.251 1440.46 L146.366 1440.46 L146.366 1434.58 Z" fill="#000000" fill-rule="evenodd" fill-opacity="1" /><path clip-path="url(#clip540)" d="M175.602 1421.83 Q178.959 1422.54 180.834 1424.81 Q182.732 1427.08 182.732 1430.41 Q182.732 1435.53 179.214 1438.33 Q175.695 1441.13 169.214 1441.13 Q167.038 1441.13 164.723 1440.69 Q162.431 1440.27 159.978 1439.42 L159.978 1434.9 Q161.922 1436.04 164.237 1436.62 Q166.552 1437.2 169.075 1437.2 Q173.473 1437.2 175.764 1435.46 Q178.079 1433.72 178.079 1430.41 Q178.079 1427.36 175.926 1425.65 Q173.797 1423.91 169.977 1423.91 L165.95 1423.91 L165.95 1420.07 L170.163 1420.07 Q173.612 1420.07 175.44 1418.7 Q177.269 1417.31 177.269 1414.72 Q177.269 1412.06 175.371 1410.65 Q173.496 1409.21 169.977 1409.21 Q168.056 1409.21 165.857 1409.63 Q163.658 1410.04 161.019 1410.92 L161.019 1406.76 Q163.681 1406.02 165.996 1405.65 Q168.334 1405.27 170.394 1405.27 Q175.718 1405.27 178.82 1407.71 Q181.922 1410.11 181.922 1414.23 Q181.922 1417.1 180.278 1419.09 Q178.635 1421.06 175.602 1421.83 Z" fill="#000000" fill-rule="evenodd" fill-opacity="1" /><path clip-path="url(#clip540)" d="M201.598 1408.98 Q197.987 1408.98 196.158 1412.54 Q194.352 1416.08 194.352 1423.21 Q194.352 1430.32 196.158 1433.89 Q197.987 1437.43 201.598 1437.43 Q205.232 1437.43 207.037 1433.89 Q208.866 1430.32 208.866 1423.21 Q208.866 1416.08 207.037 1412.54 Q205.232 1408.98 201.598 1408.98 M201.598 1405.27 Q207.408 1405.27 210.463 1409.88 Q213.542 1414.46 213.542 1423.21 Q213.542 1431.94 210.463 1436.55 Q207.408 1441.13 201.598 1441.13 Q195.787 1441.13 192.709 1436.55 Q189.653 1431.94 189.653 1423.21 Q189.653 1414.46 192.709 1409.88 Q195.787 1405.27 201.598 1405.27 Z" fill="#000000" fill-rule="evenodd" fill-opacity="1" /><path clip-path="url(#clip540)" d="M127.2 1246.52 Q123.589 1246.52 121.76 1250.08 Q119.955 1253.62 119.955 1260.75 Q119.955 1267.86 121.76 1271.42 Q123.589 1274.96 127.2 1274.96 Q130.834 1274.96 132.64 1271.42 Q134.468 1267.86 134.468 1260.75 Q134.468 1253.62 132.64 1250.08 Q130.834 1246.52 127.2 1246.52 M127.2 1242.81 Q133.01 1242.81 136.066 1247.42 Q139.144 1252 139.144 1260.75 Q139.144 1269.48 136.066 1274.08 Q133.01 1278.67 127.2 1278.67 Q121.39 1278.67 118.311 1274.08 Q115.256 1269.48 115.256 1260.75 Q115.256 1252 118.311 1247.42 Q121.39 1242.81 127.2 1242.81 Z" fill="#000000" fill-rule="evenodd" fill-opacity="1" /><path clip-path="url(#clip540)" d="M147.362 1272.12 L152.246 1272.12 L152.246 1278 L147.362 1278 L147.362 1272.12 Z" fill="#000000" fill-rule="evenodd" fill-opacity="1" /><path clip-path="url(#clip540)" d="M176.598 1259.36 Q179.954 1260.08 181.829 1262.35 Q183.727 1264.62 183.727 1267.95 Q183.727 1273.07 180.209 1275.87 Q176.69 1278.67 170.209 1278.67 Q168.033 1278.67 165.718 1278.23 Q163.427 1277.81 160.973 1276.95 L160.973 1272.44 Q162.917 1273.58 165.232 1274.15 Q167.547 1274.73 170.07 1274.73 Q174.468 1274.73 176.76 1273 Q179.075 1271.26 179.075 1267.95 Q179.075 1264.89 176.922 1263.18 Q174.792 1261.45 170.973 1261.45 L166.945 1261.45 L166.945 1257.6 L171.158 1257.6 Q174.607 1257.6 176.436 1256.24 Q178.264 1254.85 178.264 1252.26 Q178.264 1249.59 176.366 1248.18 Q174.491 1246.75 170.973 1246.75 Q169.052 1246.75 166.852 1247.16 Q164.653 1247.58 162.015 1248.46 L162.015 1244.29 Q164.677 1243.55 166.991 1243.18 Q169.329 1242.81 171.389 1242.81 Q176.714 1242.81 179.815 1245.24 Q182.917 1247.65 182.917 1251.77 Q182.917 1254.64 181.274 1256.63 Q179.63 1258.6 176.598 1259.36 Z" fill="#000000" fill-rule="evenodd" fill-opacity="1" /><path clip-path="url(#clip540)" d="M192.639 1243.44 L210.996 1243.44 L210.996 1247.37 L196.922 1247.37 L196.922 1255.84 Q197.94 1255.5 198.959 1255.33 Q199.977 1255.15 200.996 1255.15 Q206.783 1255.15 210.162 1258.32 Q213.542 1261.49 213.542 1266.91 Q213.542 1272.49 210.07 1275.59 Q206.598 1278.67 200.278 1278.67 Q198.102 1278.67 195.834 1278.3 Q193.588 1277.93 191.181 1277.19 L191.181 1272.49 Q193.264 1273.62 195.487 1274.18 Q197.709 1274.73 200.186 1274.73 Q204.19 1274.73 206.528 1272.63 Q208.866 1270.52 208.866 1266.91 Q208.866 1263.3 206.528 1261.19 Q204.19 1259.08 200.186 1259.08 Q198.311 1259.08 196.436 1259.5 Q194.584 1259.92 192.639 1260.8 L192.639 1243.44 Z" fill="#000000" fill-rule="evenodd" fill-opacity="1" /><path clip-path="url(#clip540)" d="M126.205 1084.05 Q122.593 1084.05 120.765 1087.62 Q118.959 1091.16 118.959 1098.29 Q118.959 1105.39 120.765 1108.96 Q122.593 1112.5 126.205 1112.5 Q129.839 1112.5 131.644 1108.96 Q133.473 1105.39 133.473 1098.29 Q133.473 1091.16 131.644 1087.62 Q129.839 1084.05 126.205 1084.05 M126.205 1080.35 Q132.015 1080.35 135.07 1084.95 Q138.149 1089.54 138.149 1098.29 Q138.149 1107.01 135.07 1111.62 Q132.015 1116.2 126.205 1116.2 Q120.394 1116.2 117.316 1111.62 Q114.26 1107.01 114.26 1098.29 Q114.26 1089.54 117.316 1084.95 Q120.394 1080.35 126.205 1080.35 Z" fill="#000000" fill-rule="evenodd" fill-opacity="1" /><path clip-path="url(#clip540)" d="M146.366 1109.65 L151.251 1109.65 L151.251 1115.53 L146.366 1115.53 L146.366 1109.65 Z" fill="#000000" fill-rule="evenodd" fill-opacity="1" /><path clip-path="url(#clip540)" d="M174.283 1085.05 L162.477 1103.5 L174.283 1103.5 L174.283 1085.05 M173.056 1080.97 L178.936 1080.97 L178.936 1103.5 L183.866 1103.5 L183.866 1107.38 L178.936 1107.38 L178.936 1115.53 L174.283 1115.53 L174.283 1107.38 L158.681 1107.38 L158.681 1102.87 L173.056 1080.97 Z" fill="#000000" fill-rule="evenodd" fill-opacity="1" /><path clip-path="url(#clip540)" d="M201.598 1084.05 Q197.987 1084.05 196.158 1087.62 Q194.352 1091.16 194.352 1098.29 Q194.352 1105.39 196.158 1108.96 Q197.987 1112.5 201.598 1112.5 Q205.232 1112.5 207.037 1108.96 Q208.866 1105.39 208.866 1098.29 Q208.866 1091.16 207.037 1087.62 Q205.232 1084.05 201.598 1084.05 M201.598 1080.35 Q207.408 1080.35 210.463 1084.95 Q213.542 1089.54 213.542 1098.29 Q213.542 1107.01 210.463 1111.62 Q207.408 1116.2 201.598 1116.2 Q195.787 1116.2 192.709 1111.62 Q189.653 1107.01 189.653 1098.29 Q189.653 1089.54 192.709 1084.95 Q195.787 1080.35 201.598 1080.35 Z" fill="#000000" fill-rule="evenodd" fill-opacity="1" /><path clip-path="url(#clip540)" d="M127.2 921.588 Q123.589 921.588 121.76 925.153 Q119.955 928.695 119.955 935.824 Q119.955 942.931 121.76 946.495 Q123.589 950.037 127.2 950.037 Q130.834 950.037 132.64 946.495 Q134.468 942.931 134.468 935.824 Q134.468 928.695 132.64 925.153 Q130.834 921.588 127.2 921.588 M127.2 917.884 Q133.01 917.884 136.066 922.491 Q139.144 927.074 139.144 935.824 Q139.144 944.551 136.066 949.157 Q133.01 953.741 127.2 953.741 Q121.39 953.741 118.311 949.157 Q115.256 944.551 115.256 935.824 Q115.256 927.074 118.311 922.491 Q121.39 917.884 127.2 917.884 Z" fill="#000000" fill-rule="evenodd" fill-opacity="1" /><path clip-path="url(#clip540)" d="M147.362 947.19 L152.246 947.19 L152.246 953.069 L147.362 953.069 L147.362 947.19 Z" fill="#000000" fill-rule="evenodd" fill-opacity="1" /><path clip-path="url(#clip540)" d="M175.278 922.584 L163.473 941.032 L175.278 941.032 L175.278 922.584 M174.052 918.509 L179.931 918.509 L179.931 941.032 L184.862 941.032 L184.862 944.921 L179.931 944.921 L179.931 953.069 L175.278 953.069 L175.278 944.921 L159.677 944.921 L159.677 940.407 L174.052 918.509 Z" fill="#000000" fill-rule="evenodd" fill-opacity="1" /><path clip-path="url(#clip540)" d="M192.639 918.509 L210.996 918.509 L210.996 922.445 L196.922 922.445 L196.922 930.917 Q197.94 930.57 198.959 930.408 Q199.977 930.222 200.996 930.222 Q206.783 930.222 210.162 933.394 Q213.542 936.565 213.542 941.982 Q213.542 947.56 210.07 950.662 Q206.598 953.741 200.278 953.741 Q198.102 953.741 195.834 953.37 Q193.588 953 191.181 952.259 L191.181 947.56 Q193.264 948.694 195.487 949.25 Q197.709 949.806 200.186 949.806 Q204.19 949.806 206.528 947.699 Q208.866 945.593 208.866 941.982 Q208.866 938.37 206.528 936.264 Q204.19 934.158 200.186 934.158 Q198.311 934.158 196.436 934.574 Q194.584 934.991 192.639 935.87 L192.639 918.509 Z" fill="#000000" fill-rule="evenodd" fill-opacity="1" /><path clip-path="url(#clip540)" d="M126.205 759.125 Q122.593 759.125 120.765 762.689 Q118.959 766.231 118.959 773.361 Q118.959 780.467 120.765 784.032 Q122.593 787.574 126.205 787.574 Q129.839 787.574 131.644 784.032 Q133.473 780.467 133.473 773.361 Q133.473 766.231 131.644 762.689 Q129.839 759.125 126.205 759.125 M126.205 755.421 Q132.015 755.421 135.07 760.027 Q138.149 764.611 138.149 773.361 Q138.149 782.088 135.07 786.694 Q132.015 791.277 126.205 791.277 Q120.394 791.277 117.316 786.694 Q114.26 782.088 114.26 773.361 Q114.26 764.611 117.316 760.027 Q120.394 755.421 126.205 755.421 Z" fill="#000000" fill-rule="evenodd" fill-opacity="1" /><path clip-path="url(#clip540)" d="M146.366 784.726 L151.251 784.726 L151.251 790.606 L146.366 790.606 L146.366 784.726 Z" fill="#000000" fill-rule="evenodd" fill-opacity="1" /><path clip-path="url(#clip540)" d="M161.482 756.046 L179.839 756.046 L179.839 759.981 L165.765 759.981 L165.765 768.453 Q166.783 768.106 167.802 767.944 Q168.82 767.759 169.839 767.759 Q175.626 767.759 179.005 770.93 Q182.385 774.101 182.385 779.518 Q182.385 785.097 178.913 788.199 Q175.44 791.277 169.121 791.277 Q166.945 791.277 164.677 790.907 Q162.431 790.537 160.024 789.796 L160.024 785.097 Q162.107 786.231 164.329 786.787 Q166.552 787.342 169.028 787.342 Q173.033 787.342 175.371 785.236 Q177.709 783.129 177.709 779.518 Q177.709 775.907 175.371 773.801 Q173.033 771.694 169.028 771.694 Q167.153 771.694 165.278 772.111 Q163.427 772.527 161.482 773.407 L161.482 756.046 Z" fill="#000000" fill-rule="evenodd" fill-opacity="1" /><path clip-path="url(#clip540)" d="M201.598 759.125 Q197.987 759.125 196.158 762.689 Q194.352 766.231 194.352 773.361 Q194.352 780.467 196.158 784.032 Q197.987 787.574 201.598 787.574 Q205.232 787.574 207.037 784.032 Q208.866 780.467 208.866 773.361 Q208.866 766.231 207.037 762.689 Q205.232 759.125 201.598 759.125 M201.598 755.421 Q207.408 755.421 210.463 760.027 Q213.542 764.611 213.542 773.361 Q213.542 782.088 210.463 786.694 Q207.408 791.277 201.598 791.277 Q195.787 791.277 192.709 786.694 Q189.653 782.088 189.653 773.361 Q189.653 764.611 192.709 760.027 Q195.787 755.421 201.598 755.421 Z" fill="#000000" fill-rule="evenodd" fill-opacity="1" /><path clip-path="url(#clip540)" d="M127.2 596.661 Q123.589 596.661 121.76 600.226 Q119.955 603.768 119.955 610.897 Q119.955 618.004 121.76 621.568 Q123.589 625.11 127.2 625.11 Q130.834 625.11 132.64 621.568 Q134.468 618.004 134.468 610.897 Q134.468 603.768 132.64 600.226 Q130.834 596.661 127.2 596.661 M127.2 592.958 Q133.01 592.958 136.066 597.564 Q139.144 602.147 139.144 610.897 Q139.144 619.624 136.066 624.231 Q133.01 628.814 127.2 628.814 Q121.39 628.814 118.311 624.231 Q115.256 619.624 115.256 610.897 Q115.256 602.147 118.311 597.564 Q121.39 592.958 127.2 592.958 Z" fill="#000000" fill-rule="evenodd" fill-opacity="1" /><path clip-path="url(#clip540)" d="M147.362 622.263 L152.246 622.263 L152.246 628.143 L147.362 628.143 L147.362 622.263 Z" fill="#000000" fill-rule="evenodd" fill-opacity="1" /><path clip-path="url(#clip540)" d="M162.477 593.583 L180.834 593.583 L180.834 597.518 L166.76 597.518 L166.76 605.99 Q167.778 605.643 168.797 605.481 Q169.815 605.295 170.834 605.295 Q176.621 605.295 180.001 608.467 Q183.38 611.638 183.38 617.055 Q183.38 622.633 179.908 625.735 Q176.436 628.814 170.116 628.814 Q167.94 628.814 165.672 628.443 Q163.427 628.073 161.019 627.332 L161.019 622.633 Q163.102 623.768 165.325 624.323 Q167.547 624.879 170.024 624.879 Q174.028 624.879 176.366 622.772 Q178.704 620.666 178.704 617.055 Q178.704 613.444 176.366 611.337 Q174.028 609.231 170.024 609.231 Q168.149 609.231 166.274 609.647 Q164.422 610.064 162.477 610.944 L162.477 593.583 Z" fill="#000000" fill-rule="evenodd" fill-opacity="1" /><path clip-path="url(#clip540)" d="M192.639 593.583 L210.996 593.583 L210.996 597.518 L196.922 597.518 L196.922 605.99 Q197.94 605.643 198.959 605.481 Q199.977 605.295 200.996 605.295 Q206.783 605.295 210.162 608.467 Q213.542 611.638 213.542 617.055 Q213.542 622.633 210.07 625.735 Q206.598 628.814 200.278 628.814 Q198.102 628.814 195.834 628.443 Q193.588 628.073 191.181 627.332 L191.181 622.633 Q193.264 623.768 195.487 624.323 Q197.709 624.879 200.186 624.879 Q204.19 624.879 206.528 622.772 Q208.866 620.666 208.866 617.055 Q208.866 613.444 206.528 611.337 Q204.19 609.231 200.186 609.231 Q198.311 609.231 196.436 609.647 Q194.584 610.064 192.639 610.944 L192.639 593.583 Z" fill="#000000" fill-rule="evenodd" fill-opacity="1" /><path clip-path="url(#clip540)" d="M126.205 434.198 Q122.593 434.198 120.765 437.763 Q118.959 441.304 118.959 448.434 Q118.959 455.54 120.765 459.105 Q122.593 462.647 126.205 462.647 Q129.839 462.647 131.644 459.105 Q133.473 455.54 133.473 448.434 Q133.473 441.304 131.644 437.763 Q129.839 434.198 126.205 434.198 M126.205 430.494 Q132.015 430.494 135.07 435.101 Q138.149 439.684 138.149 448.434 Q138.149 457.161 135.07 461.767 Q132.015 466.35 126.205 466.35 Q120.394 466.35 117.316 461.767 Q114.26 457.161 114.26 448.434 Q114.26 439.684 117.316 435.101 Q120.394 430.494 126.205 430.494 Z" fill="#000000" fill-rule="evenodd" fill-opacity="1" /><path clip-path="url(#clip540)" d="M146.366 459.799 L151.251 459.799 L151.251 465.679 L146.366 465.679 L146.366 459.799 Z" fill="#000000" fill-rule="evenodd" fill-opacity="1" /><path clip-path="url(#clip540)" d="M172.014 446.536 Q168.866 446.536 167.015 448.688 Q165.186 450.841 165.186 454.591 Q165.186 458.318 167.015 460.494 Q168.866 462.647 172.014 462.647 Q175.163 462.647 176.991 460.494 Q178.843 458.318 178.843 454.591 Q178.843 450.841 176.991 448.688 Q175.163 446.536 172.014 446.536 M181.297 431.883 L181.297 436.142 Q179.538 435.309 177.732 434.869 Q175.95 434.429 174.19 434.429 Q169.561 434.429 167.107 437.554 Q164.677 440.679 164.329 446.999 Q165.695 444.985 167.755 443.92 Q169.815 442.832 172.292 442.832 Q177.501 442.832 180.51 446.003 Q183.542 449.151 183.542 454.591 Q183.542 459.915 180.394 463.133 Q177.246 466.35 172.014 466.35 Q166.019 466.35 162.848 461.767 Q159.677 457.161 159.677 448.434 Q159.677 440.239 163.565 435.378 Q167.454 430.494 174.005 430.494 Q175.764 430.494 177.547 430.841 Q179.352 431.188 181.297 431.883 Z" fill="#000000" fill-rule="evenodd" fill-opacity="1" /><path clip-path="url(#clip540)" d="M201.598 434.198 Q197.987 434.198 196.158 437.763 Q194.352 441.304 194.352 448.434 Q194.352 455.54 196.158 459.105 Q197.987 462.647 201.598 462.647 Q205.232 462.647 207.037 459.105 Q208.866 455.54 208.866 448.434 Q208.866 441.304 207.037 437.763 Q205.232 434.198 201.598 434.198 M201.598 430.494 Q207.408 430.494 210.463 435.101 Q213.542 439.684 213.542 448.434 Q213.542 457.161 210.463 461.767 Q207.408 466.35 201.598 466.35 Q195.787 466.35 192.709 461.767 Q189.653 457.161 189.653 448.434 Q189.653 439.684 192.709 435.101 Q195.787 430.494 201.598 430.494 Z" fill="#000000" fill-rule="evenodd" fill-opacity="1" /><path clip-path="url(#clip540)" d="M127.2 271.734 Q123.589 271.734 121.76 275.299 Q119.955 278.841 119.955 285.97 Q119.955 293.077 121.76 296.642 Q123.589 300.183 127.2 300.183 Q130.834 300.183 132.64 296.642 Q134.468 293.077 134.468 285.97 Q134.468 278.841 132.64 275.299 Q130.834 271.734 127.2 271.734 M127.2 268.031 Q133.01 268.031 136.066 272.637 Q139.144 277.22 139.144 285.97 Q139.144 294.697 136.066 299.304 Q133.01 303.887 127.2 303.887 Q121.39 303.887 118.311 299.304 Q115.256 294.697 115.256 285.97 Q115.256 277.22 118.311 272.637 Q121.39 268.031 127.2 268.031 Z" fill="#000000" fill-rule="evenodd" fill-opacity="1" /><path clip-path="url(#clip540)" d="M147.362 297.336 L152.246 297.336 L152.246 303.216 L147.362 303.216 L147.362 297.336 Z" fill="#000000" fill-rule="evenodd" fill-opacity="1" /><path clip-path="url(#clip540)" d="M173.01 284.072 Q169.862 284.072 168.01 286.225 Q166.181 288.378 166.181 292.128 Q166.181 295.855 168.01 298.03 Q169.862 300.183 173.01 300.183 Q176.158 300.183 177.987 298.03 Q179.839 295.855 179.839 292.128 Q179.839 288.378 177.987 286.225 Q176.158 284.072 173.01 284.072 M182.292 269.419 L182.292 273.679 Q180.533 272.845 178.727 272.406 Q176.945 271.966 175.186 271.966 Q170.556 271.966 168.102 275.091 Q165.672 278.216 165.325 284.535 Q166.69 282.521 168.751 281.456 Q170.811 280.368 173.288 280.368 Q178.496 280.368 181.505 283.54 Q184.538 286.688 184.538 292.128 Q184.538 297.452 181.389 300.669 Q178.241 303.887 173.01 303.887 Q167.015 303.887 163.843 299.304 Q160.672 294.697 160.672 285.97 Q160.672 277.776 164.561 272.915 Q168.45 268.031 175.001 268.031 Q176.76 268.031 178.542 268.378 Q180.348 268.725 182.292 269.419 Z" fill="#000000" fill-rule="evenodd" fill-opacity="1" /><path clip-path="url(#clip540)" d="M192.639 268.656 L210.996 268.656 L210.996 272.591 L196.922 272.591 L196.922 281.063 Q197.94 280.716 198.959 280.554 Q199.977 280.368 200.996 280.368 Q206.783 280.368 210.162 283.54 Q213.542 286.711 213.542 292.128 Q213.542 297.706 210.07 300.808 Q206.598 303.887 200.278 303.887 Q198.102 303.887 195.834 303.517 Q193.588 303.146 191.181 302.405 L191.181 297.706 Q193.264 298.841 195.487 299.396 Q197.709 299.952 200.186 299.952 Q204.19 299.952 206.528 297.845 Q208.866 295.739 208.866 292.128 Q208.866 288.517 206.528 286.41 Q204.19 284.304 200.186 284.304 Q198.311 284.304 196.436 284.72 Q194.584 285.137 192.639 286.017 L192.639 268.656 Z" fill="#000000" fill-rule="evenodd" fill-opacity="1" /><path clip-path="url(#clip540)" d="M126.205 109.271 Q122.593 109.271 120.765 112.836 Q118.959 116.377 118.959 123.507 Q118.959 130.613 120.765 134.178 Q122.593 137.72 126.205 137.72 Q129.839 137.72 131.644 134.178 Q133.473 130.613 133.473 123.507 Q133.473 116.377 131.644 112.836 Q129.839 109.271 126.205 109.271 M126.205 105.567 Q132.015 105.567 135.07 110.174 Q138.149 114.757 138.149 123.507 Q138.149 132.234 135.07 136.84 Q132.015 141.423 126.205 141.423 Q120.394 141.423 117.316 136.84 Q114.26 132.234 114.26 123.507 Q114.26 114.757 117.316 110.174 Q120.394 105.567 126.205 105.567 Z" fill="#000000" fill-rule="evenodd" fill-opacity="1" /><path clip-path="url(#clip540)" d="M146.366 134.873 L151.251 134.873 L151.251 140.752 L146.366 140.752 L146.366 134.873 Z" fill="#000000" fill-rule="evenodd" fill-opacity="1" /><path clip-path="url(#clip540)" d="M160.255 106.192 L182.477 106.192 L182.477 108.183 L169.931 140.752 L165.047 140.752 L176.852 110.127 L160.255 110.127 L160.255 106.192 Z" fill="#000000" fill-rule="evenodd" fill-opacity="1" /><path clip-path="url(#clip540)" d="M201.598 109.271 Q197.987 109.271 196.158 112.836 Q194.352 116.377 194.352 123.507 Q194.352 130.613 196.158 134.178 Q197.987 137.72 201.598 137.72 Q205.232 137.72 207.037 134.178 Q208.866 130.613 208.866 123.507 Q208.866 116.377 207.037 112.836 Q205.232 109.271 201.598 109.271 M201.598 105.567 Q207.408 105.567 210.463 110.174 Q213.542 114.757 213.542 123.507 Q213.542 132.234 210.463 136.84 Q207.408 141.423 201.598 141.423 Q195.787 141.423 192.709 136.84 Q189.653 132.234 189.653 123.507 Q189.653 114.757 192.709 110.174 Q195.787 105.567 201.598 105.567 Z" fill="#000000" fill-rule="evenodd" fill-opacity="1" /><path clip-path="url(#clip540)" d="M16.4842 987.834 L16.4842 981.405 L64.0042 981.405 L64.0042 987.834 L16.4842 987.834 Z" fill="#000000" fill-rule="evenodd" fill-opacity="1" /><path clip-path="url(#clip540)" d="M42.4881 939.232 L64.0042 939.232 L64.0042 945.089 L42.679 945.089 Q37.6183 945.089 35.1038 947.062 Q32.5894 949.035 32.5894 952.982 Q32.5894 957.725 35.6131 960.462 Q38.6368 963.199 43.8567 963.199 L64.0042 963.199 L64.0042 969.087 L28.3562 969.087 L28.3562 963.199 L33.8944 963.199 Q30.6797 961.098 29.0883 958.266 Q27.4968 955.401 27.4968 951.677 Q27.4968 945.534 31.3163 942.383 Q35.1038 939.232 42.4881 939.232 Z" fill="#000000" fill-rule="evenodd" fill-opacity="1" /><path clip-path="url(#clip540)" d="M42.4881 897.919 L64.0042 897.919 L64.0042 903.775 L42.679 903.775 Q37.6183 903.775 35.1038 905.749 Q32.5894 907.722 32.5894 911.669 Q32.5894 916.411 35.6131 919.148 Q38.6368 921.886 43.8567 921.886 L64.0042 921.886 L64.0042 927.774 L28.3562 927.774 L28.3562 921.886 L33.8944 921.886 Q30.6797 919.785 29.0883 916.952 Q27.4968 914.088 27.4968 910.364 Q27.4968 904.221 31.3163 901.07 Q35.1038 897.919 42.4881 897.919 Z" fill="#000000" fill-rule="evenodd" fill-opacity="1" /><path clip-path="url(#clip540)" d="M44.7161 855.746 L47.5806 855.746 L47.5806 882.673 Q53.6281 882.291 56.8109 879.044 Q59.9619 875.766 59.9619 869.941 Q59.9619 866.568 59.1344 863.417 Q58.3069 860.234 56.6518 857.115 L62.1899 857.115 Q63.5267 860.266 64.227 863.576 Q64.9272 866.886 64.9272 870.292 Q64.9272 878.822 59.9619 883.819 Q54.9967 888.784 46.5303 888.784 Q37.7774 888.784 32.6531 884.073 Q27.4968 879.331 27.4968 871.31 Q27.4968 864.117 32.1438 859.947 Q36.7589 855.746 44.7161 855.746 M42.9973 861.602 Q38.1912 861.666 35.3266 864.308 Q32.4621 866.918 32.4621 871.246 Q32.4621 876.148 35.2312 879.108 Q38.0002 882.036 43.0292 882.482 L42.9973 861.602 Z" fill="#000000" fill-rule="evenodd" fill-opacity="1" /><path clip-path="url(#clip540)" d="M33.8307 825.477 Q33.2578 826.464 33.0032 827.641 Q32.7167 828.787 32.7167 830.188 Q32.7167 835.153 35.9632 837.827 Q39.1779 840.468 45.2253 840.468 L64.0042 840.468 L64.0042 846.357 L28.3562 846.357 L28.3562 840.468 L33.8944 840.468 Q30.6479 838.622 29.0883 835.662 Q27.4968 832.702 27.4968 828.469 Q27.4968 827.864 27.5923 827.132 Q27.656 826.4 27.8151 825.509 L33.8307 825.477 Z" fill="#000000" fill-rule="evenodd" fill-opacity="1" /><path clip-path="url(#clip540)" d="M21.7677 791.93 L39.6235 791.93 L39.6235 783.845 Q39.6235 779.357 37.3 776.907 Q34.9765 774.456 30.6797 774.456 Q26.4147 774.456 24.0912 776.907 Q21.7677 779.357 21.7677 783.845 L21.7677 791.93 M16.4842 798.359 L16.4842 783.845 Q16.4842 775.856 20.1126 771.782 Q23.7092 767.676 30.6797 767.676 Q37.7138 767.676 41.3104 771.782 Q44.907 775.856 44.907 783.845 L44.907 791.93 L64.0042 791.93 L64.0042 798.359 L16.4842 798.359 Z" fill="#000000" fill-rule="evenodd" fill-opacity="1" /><path clip-path="url(#clip540)" d="M33.8307 739.795 Q33.2578 740.781 33.0032 741.959 Q32.7167 743.105 32.7167 744.505 Q32.7167 749.47 35.9632 752.144 Q39.1779 754.786 45.2253 754.786 L64.0042 754.786 L64.0042 760.674 L28.3562 760.674 L28.3562 754.786 L33.8944 754.786 Q30.6479 752.94 29.0883 749.98 Q27.4968 747.02 27.4968 742.787 Q27.4968 742.182 27.5923 741.45 Q27.656 740.718 27.8151 739.826 L33.8307 739.795 Z" fill="#000000" fill-rule="evenodd" fill-opacity="1" /><path clip-path="url(#clip540)" d="M32.4621 721.27 Q32.4621 725.981 36.1542 728.718 Q39.8145 731.456 46.212 731.456 Q52.6095 731.456 56.3017 728.75 Q59.9619 726.013 59.9619 721.27 Q59.9619 716.592 56.2698 713.854 Q52.5777 711.117 46.212 711.117 Q39.8781 711.117 36.186 713.854 Q32.4621 716.592 32.4621 721.27 M27.4968 721.27 Q27.4968 713.632 32.4621 709.271 Q37.4273 704.911 46.212 704.911 Q54.9649 704.911 59.9619 709.271 Q64.9272 713.632 64.9272 721.27 Q64.9272 728.941 59.9619 733.302 Q54.9649 737.63 46.212 737.63 Q37.4273 737.63 32.4621 733.302 Q27.4968 728.941 27.4968 721.27 Z" fill="#000000" fill-rule="evenodd" fill-opacity="1" /><path clip-path="url(#clip540)" d="M33.7671 671.745 L14.479 671.745 L14.479 665.889 L64.0042 665.889 L64.0042 671.745 L58.657 671.745 Q61.8398 673.591 63.3994 676.424 Q64.9272 679.225 64.9272 683.172 Q64.9272 689.633 59.771 693.707 Q54.6147 697.749 46.212 697.749 Q37.8093 697.749 32.6531 693.707 Q27.4968 689.633 27.4968 683.172 Q27.4968 679.225 29.0564 676.424 Q30.5842 673.591 33.7671 671.745 M46.212 691.702 Q52.6732 691.702 56.3653 689.06 Q60.0256 686.386 60.0256 681.739 Q60.0256 677.092 56.3653 674.419 Q52.6732 671.745 46.212 671.745 Q39.7508 671.745 36.0905 674.419 Q32.3984 677.092 32.3984 681.739 Q32.3984 686.386 36.0905 689.06 Q39.7508 691.702 46.212 691.702 Z" fill="#000000" fill-rule="evenodd" fill-opacity="1" /><path clip-path="url(#clip540)" d="M49.9359 654.43 L28.3562 654.43 L28.3562 648.574 L49.7131 648.574 Q54.7739 648.574 57.3202 646.601 Q59.8346 644.627 59.8346 640.681 Q59.8346 635.938 56.8109 633.201 Q53.7872 630.432 48.5673 630.432 L28.3562 630.432 L28.3562 624.575 L64.0042 624.575 L64.0042 630.432 L58.5296 630.432 Q61.7762 632.564 63.3676 635.397 Q64.9272 638.198 64.9272 641.922 Q64.9272 648.065 61.1078 651.248 Q57.2883 654.43 49.9359 654.43 M27.4968 639.694 L27.4968 639.694 Z" fill="#000000" fill-rule="evenodd" fill-opacity="1" /><path clip-path="url(#clip540)" d="M29.7248 586.859 L35.1993 586.859 Q33.8307 589.341 33.1623 591.856 Q32.4621 594.338 32.4621 596.885 Q32.4621 602.582 36.0905 605.733 Q39.6872 608.884 46.212 608.884 Q52.7369 608.884 56.3653 605.733 Q59.9619 602.582 59.9619 596.885 Q59.9619 594.338 59.2935 591.856 Q58.5933 589.341 57.2247 586.859 L62.6355 586.859 Q63.7814 589.309 64.3543 591.951 Q64.9272 594.561 64.9272 597.521 Q64.9272 605.574 59.8664 610.316 Q54.8057 615.059 46.212 615.059 Q37.491 615.059 32.4939 610.284 Q27.4968 605.478 27.4968 597.139 Q27.4968 594.434 28.0697 591.856 Q28.6108 589.277 29.7248 586.859 Z" fill="#000000" fill-rule="evenodd" fill-opacity="1" /><path clip-path="url(#clip540)" d="M18.2347 570.881 L28.3562 570.881 L28.3562 558.818 L32.9077 558.818 L32.9077 570.881 L52.2594 570.881 Q56.6199 570.881 57.8613 569.703 Q59.1026 568.493 59.1026 564.833 L59.1026 558.818 L64.0042 558.818 L64.0042 564.833 Q64.0042 571.613 61.4897 574.191 Q58.9434 576.769 52.2594 576.769 L32.9077 576.769 L32.9077 581.066 L28.3562 581.066 L28.3562 576.769 L18.2347 576.769 L18.2347 570.881 Z" fill="#000000" fill-rule="evenodd" fill-opacity="1" /><path clip-path="url(#clip540)" d="M1170.73 17.6457 Q1161.82 17.6457 1156.55 24.2892 Q1151.33 30.9327 1151.33 42.3968 Q1151.33 53.8203 1156.55 60.4638 Q1161.82 67.1073 1170.73 67.1073 Q1179.64 67.1073 1184.83 60.4638 Q1190.05 53.8203 1190.05 42.3968 Q1190.05 30.9327 1184.83 24.2892 Q1179.64 17.6457 1170.73 17.6457 M1170.73 11.0023 Q1183.45 11.0023 1191.07 19.5497 Q1198.68 28.0566 1198.68 42.3968 Q1198.68 56.6965 1191.07 65.2439 Q1183.45 73.7508 1170.73 73.7508 Q1157.97 73.7508 1150.31 65.2439 Q1142.7 56.737 1142.7 42.3968 Q1142.7 28.0566 1150.31 19.5497 Q1157.97 11.0023 1170.73 11.0023 Z" fill="#000000" fill-rule="evenodd" fill-opacity="1" /><path clip-path="url(#clip540)" d="M1205.81 27.2059 L1213.71 27.2059 L1227.89 65.2844 L1242.07 27.2059 L1249.97 27.2059 L1232.95 72.576 L1222.82 72.576 L1205.81 27.2059 Z" fill="#000000" fill-rule="evenodd" fill-opacity="1" /><path clip-path="url(#clip540)" d="M1299.06 48.0275 L1299.06 51.6733 L1264.79 51.6733 Q1265.28 59.3701 1269.41 63.421 Q1273.58 67.4314 1281 67.4314 Q1285.29 67.4314 1289.3 66.3781 Q1293.35 65.3249 1297.32 63.2184 L1297.32 70.267 Q1293.31 71.9684 1289.1 72.8596 Q1284.88 73.7508 1280.55 73.7508 Q1269.69 73.7508 1263.33 67.4314 Q1257.01 61.1119 1257.01 50.3365 Q1257.01 39.1965 1263.01 32.6746 Q1269.05 26.1121 1279.25 26.1121 Q1288.41 26.1121 1293.72 32.0264 Q1299.06 37.9003 1299.06 48.0275 M1291.61 45.84 Q1291.53 39.7232 1288.17 36.0774 Q1284.84 32.4315 1279.33 32.4315 Q1273.1 32.4315 1269.33 35.9558 Q1265.6 39.4801 1265.04 45.8805 L1291.61 45.84 Z" fill="#000000" fill-rule="evenodd" fill-opacity="1" /><path clip-path="url(#clip540)" d="M1337.59 34.1734 Q1336.33 33.4443 1334.83 33.1202 Q1333.37 32.7556 1331.59 32.7556 Q1325.27 32.7556 1321.87 36.8875 Q1318.51 40.9789 1318.51 48.6757 L1318.51 72.576 L1311.01 72.576 L1311.01 27.2059 L1318.51 27.2059 L1318.51 34.2544 Q1320.86 30.1225 1324.62 28.1376 Q1328.39 26.1121 1333.78 26.1121 Q1334.55 26.1121 1335.48 26.2337 Q1336.41 26.3147 1337.55 26.5172 L1337.59 34.1734 Z" fill="#000000" fill-rule="evenodd" fill-opacity="1" /><path clip-path="url(#clip540)" d="M1345.41 9.54393 L1352.86 9.54393 L1352.86 72.576 L1345.41 72.576 L1345.41 9.54393 Z" fill="#000000" fill-rule="evenodd" fill-opacity="1" /><path clip-path="url(#clip540)" d="M1389.07 49.7694 Q1380.04 49.7694 1376.56 51.8354 Q1373.07 53.9013 1373.07 58.8839 Q1373.07 62.8538 1375.67 65.2034 Q1378.3 67.5124 1382.79 67.5124 Q1388.99 67.5124 1392.72 63.1374 Q1396.49 58.7219 1396.49 51.4303 L1396.49 49.7694 L1389.07 49.7694 M1403.94 46.6907 L1403.94 72.576 L1396.49 72.576 L1396.49 65.6895 Q1393.93 69.8214 1390.13 71.8063 Q1386.32 73.7508 1380.81 73.7508 Q1373.84 73.7508 1369.71 69.8619 Q1365.62 65.9325 1365.62 59.3701 Q1365.62 51.7138 1370.72 47.825 Q1375.87 43.9361 1386.04 43.9361 L1396.49 43.9361 L1396.49 43.2069 Q1396.49 38.0623 1393.08 35.2672 Q1389.72 32.4315 1383.61 32.4315 Q1379.72 32.4315 1376.03 33.3632 Q1372.34 34.295 1368.94 36.1584 L1368.94 29.2718 Q1373.03 27.692 1376.88 26.9223 Q1380.73 26.1121 1384.37 26.1121 Q1394.22 26.1121 1399.08 31.2163 Q1403.94 36.3204 1403.94 46.6907 Z" fill="#000000" fill-rule="evenodd" fill-opacity="1" /><path clip-path="url(#clip540)" d="M1426.5 65.7705 L1426.5 89.8329 L1419.01 89.8329 L1419.01 27.2059 L1426.5 27.2059 L1426.5 34.0924 Q1428.85 30.0415 1432.42 28.0971 Q1436.02 26.1121 1441.01 26.1121 Q1449.27 26.1121 1454.41 32.6746 Q1459.6 39.2371 1459.6 49.9314 Q1459.6 60.6258 1454.41 67.1883 Q1449.27 73.7508 1441.01 73.7508 Q1436.02 73.7508 1432.42 71.8063 Q1428.85 69.8214 1426.5 65.7705 M1451.86 49.9314 Q1451.86 41.7081 1448.46 37.0496 Q1445.1 32.3505 1439.18 32.3505 Q1433.27 32.3505 1429.87 37.0496 Q1426.5 41.7081 1426.5 49.9314 Q1426.5 58.1548 1429.87 62.8538 Q1433.27 67.5124 1439.18 67.5124 Q1445.1 67.5124 1448.46 62.8538 Q1451.86 58.1548 1451.86 49.9314 Z" fill="#000000" fill-rule="evenodd" fill-opacity="1" /><polyline clip-path="url(#clip542)" style="stroke:#000000; stroke-linecap:round; stroke-linejoin:round; stroke-width:4; stroke-opacity:1; fill:none" points="
  291.606,837.387 291.606,837.386 
  "/>
<polyline clip-path="url(#clip542)" style="stroke:#000000; stroke-linecap:round; stroke-linejoin:round; stroke-width:4; stroke-opacity:1; fill:none" points="
  333.671,841.875 333.671,841.874 
  "/>
<polyline clip-path="url(#clip542)" style="stroke:#000000; stroke-linecap:round; stroke-linejoin:round; stroke-width:4; stroke-opacity:1; fill:none" points="
  375.735,842.288 375.735,842.288 
  "/>
<polyline clip-path="url(#clip542)" style="stroke:#000000; stroke-linecap:round; stroke-linejoin:round; stroke-width:4; stroke-opacity:1; fill:none" points="
  417.799,842.338 417.799,842.327 
  "/>
<polyline clip-path="url(#clip542)" style="stroke:#000000; stroke-linecap:round; stroke-linejoin:round; stroke-width:4; stroke-opacity:1; fill:none" points="
  459.863,842.348 459.863,842.327 
  "/>
<polyline clip-path="url(#clip542)" style="stroke:#000000; stroke-linecap:round; stroke-linejoin:round; stroke-width:4; stroke-opacity:1; fill:none" points="
  501.928,842.352 501.928,842.326 
  "/>
<polyline clip-path="url(#clip542)" style="stroke:#000000; stroke-linecap:round; stroke-linejoin:round; stroke-width:4; stroke-opacity:1; fill:none" points="
  543.992,842.354 543.992,842.323 
  "/>
<polyline clip-path="url(#clip542)" style="stroke:#000000; stroke-linecap:round; stroke-linejoin:round; stroke-width:4; stroke-opacity:1; fill:none" points="
  586.056,842.355 586.056,842.322 
  "/>
<polyline clip-path="url(#clip542)" style="stroke:#000000; stroke-linecap:round; stroke-linejoin:round; stroke-width:4; stroke-opacity:1; fill:none" points="
  628.121,842.356 628.121,842.321 
  "/>
<polyline clip-path="url(#clip542)" style="stroke:#000000; stroke-linecap:round; stroke-linejoin:round; stroke-width:4; stroke-opacity:1; fill:none" points="
  670.185,842.357 670.185,842.321 
  "/>
<polyline clip-path="url(#clip542)" style="stroke:#000000; stroke-linecap:round; stroke-linejoin:round; stroke-width:4; stroke-opacity:1; fill:none" points="
  712.249,842.358 712.249,842.32 
  "/>
<polyline clip-path="url(#clip542)" style="stroke:#000000; stroke-linecap:round; stroke-linejoin:round; stroke-width:4; stroke-opacity:1; fill:none" points="
  754.313,842.358 754.313,842.319 
  "/>
<polyline clip-path="url(#clip542)" style="stroke:#000000; stroke-linecap:round; stroke-linejoin:round; stroke-width:4; stroke-opacity:1; fill:none" points="
  796.378,842.359 796.378,842.319 
  "/>
<polyline clip-path="url(#clip542)" style="stroke:#000000; stroke-linecap:round; stroke-linejoin:round; stroke-width:4; stroke-opacity:1; fill:none" points="
  838.442,842.359 838.442,842.318 
  "/>
<polyline clip-path="url(#clip542)" style="stroke:#000000; stroke-linecap:round; stroke-linejoin:round; stroke-width:4; stroke-opacity:1; fill:none" points="
  880.506,842.359 880.506,842.318 
  "/>
<polyline clip-path="url(#clip542)" style="stroke:#000000; stroke-linecap:round; stroke-linejoin:round; stroke-width:4; stroke-opacity:1; fill:none" points="
  922.57,842.36 922.57,842.318 
  "/>
<polyline clip-path="url(#clip542)" style="stroke:#000000; stroke-linecap:round; stroke-linejoin:round; stroke-width:4; stroke-opacity:1; fill:none" points="
  964.635,842.36 964.635,842.318 
  "/>
<polyline clip-path="url(#clip542)" style="stroke:#000000; stroke-linecap:round; stroke-linejoin:round; stroke-width:4; stroke-opacity:1; fill:none" points="
  1006.7,842.36 1006.7,842.317 
  "/>
<polyline clip-path="url(#clip542)" style="stroke:#000000; stroke-linecap:round; stroke-linejoin:round; stroke-width:4; stroke-opacity:1; fill:none" points="
  1048.76,842.36 1048.76,842.317 
  "/>
<polyline clip-path="url(#clip542)" style="stroke:#000000; stroke-linecap:round; stroke-linejoin:round; stroke-width:4; stroke-opacity:1; fill:none" points="
  1090.83,842.36 1090.83,842.317 
  "/>
<polyline clip-path="url(#clip542)" style="stroke:#000000; stroke-linecap:round; stroke-linejoin:round; stroke-width:4; stroke-opacity:1; fill:none" points="
  1132.89,842.36 1132.89,842.317 
  "/>
<polyline clip-path="url(#clip542)" style="stroke:#000000; stroke-linecap:round; stroke-linejoin:round; stroke-width:4; stroke-opacity:1; fill:none" points="
  1174.96,842.361 1174.96,842.317 
  "/>
<polyline clip-path="url(#clip542)" style="stroke:#000000; stroke-linecap:round; stroke-linejoin:round; stroke-width:4; stroke-opacity:1; fill:none" points="
  1217.02,842.361 1217.02,842.317 
  "/>
<polyline clip-path="url(#clip542)" style="stroke:#000000; stroke-linecap:round; stroke-linejoin:round; stroke-width:4; stroke-opacity:1; fill:none" points="
  1259.08,842.361 1259.08,842.317 
  "/>
<polyline clip-path="url(#clip542)" style="stroke:#000000; stroke-linecap:round; stroke-linejoin:round; stroke-width:4; stroke-opacity:1; fill:none" points="
  1301.15,842.361 1301.15,842.317 
  "/>
<polyline clip-path="url(#clip542)" style="stroke:#000000; stroke-linecap:round; stroke-linejoin:round; stroke-width:4; stroke-opacity:1; fill:none" points="
  1343.21,842.361 1343.21,842.316 
  "/>
<polyline clip-path="url(#clip542)" style="stroke:#000000; stroke-linecap:round; stroke-linejoin:round; stroke-width:4; stroke-opacity:1; fill:none" points="
  1385.28,842.361 1385.28,842.316 
  "/>
<polyline clip-path="url(#clip542)" style="stroke:#000000; stroke-linecap:round; stroke-linejoin:round; stroke-width:4; stroke-opacity:1; fill:none" points="
  1427.34,842.361 1427.34,842.316 
  "/>
<polyline clip-path="url(#clip542)" style="stroke:#000000; stroke-linecap:round; stroke-linejoin:round; stroke-width:4; stroke-opacity:1; fill:none" points="
  1469.41,842.361 1469.41,842.316 
  "/>
<polyline clip-path="url(#clip542)" style="stroke:#000000; stroke-linecap:round; stroke-linejoin:round; stroke-width:4; stroke-opacity:1; fill:none" points="
  1511.47,842.361 1511.47,842.316 
  "/>
<polyline clip-path="url(#clip542)" style="stroke:#000000; stroke-linecap:round; stroke-linejoin:round; stroke-width:4; stroke-opacity:1; fill:none" points="
  1553.53,842.361 1553.53,842.316 
  "/>
<polyline clip-path="url(#clip542)" style="stroke:#000000; stroke-linecap:round; stroke-linejoin:round; stroke-width:4; stroke-opacity:1; fill:none" points="
  1595.6,842.361 1595.6,842.316 
  "/>
<polyline clip-path="url(#clip542)" style="stroke:#000000; stroke-linecap:round; stroke-linejoin:round; stroke-width:4; stroke-opacity:1; fill:none" points="
  1637.66,842.361 1637.66,842.316 
  "/>
<polyline clip-path="url(#clip542)" style="stroke:#000000; stroke-linecap:round; stroke-linejoin:round; stroke-width:4; stroke-opacity:1; fill:none" points="
  1679.73,842.361 1679.73,842.316 
  "/>
<polyline clip-path="url(#clip542)" style="stroke:#000000; stroke-linecap:round; stroke-linejoin:round; stroke-width:4; stroke-opacity:1; fill:none" points="
  1721.79,842.362 1721.79,842.316 
  "/>
<polyline clip-path="url(#clip542)" style="stroke:#000000; stroke-linecap:round; stroke-linejoin:round; stroke-width:4; stroke-opacity:1; fill:none" points="
  1763.86,842.361 1763.86,842.316 
  "/>
<polyline clip-path="url(#clip542)" style="stroke:#000000; stroke-linecap:round; stroke-linejoin:round; stroke-width:4; stroke-opacity:1; fill:none" points="
  1805.92,842.362 1805.92,842.316 
  "/>
<polyline clip-path="url(#clip542)" style="stroke:#000000; stroke-linecap:round; stroke-linejoin:round; stroke-width:4; stroke-opacity:1; fill:none" points="
  1847.98,842.362 1847.98,842.316 
  "/>
<polyline clip-path="url(#clip542)" style="stroke:#000000; stroke-linecap:round; stroke-linejoin:round; stroke-width:4; stroke-opacity:1; fill:none" points="
  1890.05,842.362 1890.05,842.316 
  "/>
<polyline clip-path="url(#clip542)" style="stroke:#000000; stroke-linecap:round; stroke-linejoin:round; stroke-width:4; stroke-opacity:1; fill:none" points="
  1932.11,842.362 1932.11,842.316 
  "/>
<polyline clip-path="url(#clip542)" style="stroke:#000000; stroke-linecap:round; stroke-linejoin:round; stroke-width:4; stroke-opacity:1; fill:none" points="
  1974.18,842.362 1974.18,842.316 
  "/>
<polyline clip-path="url(#clip542)" style="stroke:#000000; stroke-linecap:round; stroke-linejoin:round; stroke-width:4; stroke-opacity:1; fill:none" points="
  2016.24,842.362 2016.24,842.316 
  "/>
<polyline clip-path="url(#clip542)" style="stroke:#000000; stroke-linecap:round; stroke-linejoin:round; stroke-width:4; stroke-opacity:1; fill:none" points="
  2058.31,842.362 2058.31,842.316 
  "/>
<polyline clip-path="url(#clip542)" style="stroke:#000000; stroke-linecap:round; stroke-linejoin:round; stroke-width:4; stroke-opacity:1; fill:none" points="
  2100.37,842.362 2100.37,842.316 
  "/>
<polyline clip-path="url(#clip542)" style="stroke:#000000; stroke-linecap:round; stroke-linejoin:round; stroke-width:4; stroke-opacity:1; fill:none" points="
  2142.43,842.362 2142.43,842.316 
  "/>
<polyline clip-path="url(#clip542)" style="stroke:#000000; stroke-linecap:round; stroke-linejoin:round; stroke-width:4; stroke-opacity:1; fill:none" points="
  2184.5,842.362 2184.5,842.316 
  "/>
<polyline clip-path="url(#clip542)" style="stroke:#000000; stroke-linecap:round; stroke-linejoin:round; stroke-width:4; stroke-opacity:1; fill:none" points="
  2226.56,842.362 2226.56,842.316 
  "/>
<polyline clip-path="url(#clip542)" style="stroke:#000000; stroke-linecap:round; stroke-linejoin:round; stroke-width:4; stroke-opacity:1; fill:none" points="
  2268.63,842.362 2268.63,842.316 
  "/>
<polyline clip-path="url(#clip542)" style="stroke:#000000; stroke-linecap:round; stroke-linejoin:round; stroke-width:4; stroke-opacity:1; fill:none" points="
  2310.69,842.362 2310.69,842.316 
  "/>
<line clip-path="url(#clip542)" x1="299.606" y1="837.387" x2="283.606" y2="837.387" style="stroke:#000000; stroke-width:3.2; stroke-opacity:1"/>
<line clip-path="url(#clip542)" x1="299.606" y1="837.386" x2="283.606" y2="837.386" style="stroke:#000000; stroke-width:3.2; stroke-opacity:1"/>
<line clip-path="url(#clip542)" x1="341.671" y1="841.875" x2="325.671" y2="841.875" style="stroke:#000000; stroke-width:3.2; stroke-opacity:1"/>
<line clip-path="url(#clip542)" x1="341.671" y1="841.874" x2="325.671" y2="841.874" style="stroke:#000000; stroke-width:3.2; stroke-opacity:1"/>
<line clip-path="url(#clip542)" x1="383.735" y1="842.288" x2="367.735" y2="842.288" style="stroke:#000000; stroke-width:3.2; stroke-opacity:1"/>
<line clip-path="url(#clip542)" x1="383.735" y1="842.288" x2="367.735" y2="842.288" style="stroke:#000000; stroke-width:3.2; stroke-opacity:1"/>
<line clip-path="url(#clip542)" x1="425.799" y1="842.338" x2="409.799" y2="842.338" style="stroke:#000000; stroke-width:3.2; stroke-opacity:1"/>
<line clip-path="url(#clip542)" x1="425.799" y1="842.327" x2="409.799" y2="842.327" style="stroke:#000000; stroke-width:3.2; stroke-opacity:1"/>
<line clip-path="url(#clip542)" x1="467.863" y1="842.348" x2="451.863" y2="842.348" style="stroke:#000000; stroke-width:3.2; stroke-opacity:1"/>
<line clip-path="url(#clip542)" x1="467.863" y1="842.327" x2="451.863" y2="842.327" style="stroke:#000000; stroke-width:3.2; stroke-opacity:1"/>
<line clip-path="url(#clip542)" x1="509.928" y1="842.352" x2="493.928" y2="842.352" style="stroke:#000000; stroke-width:3.2; stroke-opacity:1"/>
<line clip-path="url(#clip542)" x1="509.928" y1="842.326" x2="493.928" y2="842.326" style="stroke:#000000; stroke-width:3.2; stroke-opacity:1"/>
<line clip-path="url(#clip542)" x1="551.992" y1="842.354" x2="535.992" y2="842.354" style="stroke:#000000; stroke-width:3.2; stroke-opacity:1"/>
<line clip-path="url(#clip542)" x1="551.992" y1="842.323" x2="535.992" y2="842.323" style="stroke:#000000; stroke-width:3.2; stroke-opacity:1"/>
<line clip-path="url(#clip542)" x1="594.056" y1="842.355" x2="578.056" y2="842.355" style="stroke:#000000; stroke-width:3.2; stroke-opacity:1"/>
<line clip-path="url(#clip542)" x1="594.056" y1="842.322" x2="578.056" y2="842.322" style="stroke:#000000; stroke-width:3.2; stroke-opacity:1"/>
<line clip-path="url(#clip542)" x1="636.121" y1="842.356" x2="620.121" y2="842.356" style="stroke:#000000; stroke-width:3.2; stroke-opacity:1"/>
<line clip-path="url(#clip542)" x1="636.121" y1="842.321" x2="620.121" y2="842.321" style="stroke:#000000; stroke-width:3.2; stroke-opacity:1"/>
<line clip-path="url(#clip542)" x1="678.185" y1="842.357" x2="662.185" y2="842.357" style="stroke:#000000; stroke-width:3.2; stroke-opacity:1"/>
<line clip-path="url(#clip542)" x1="678.185" y1="842.321" x2="662.185" y2="842.321" style="stroke:#000000; stroke-width:3.2; stroke-opacity:1"/>
<line clip-path="url(#clip542)" x1="720.249" y1="842.358" x2="704.249" y2="842.358" style="stroke:#000000; stroke-width:3.2; stroke-opacity:1"/>
<line clip-path="url(#clip542)" x1="720.249" y1="842.32" x2="704.249" y2="842.32" style="stroke:#000000; stroke-width:3.2; stroke-opacity:1"/>
<line clip-path="url(#clip542)" x1="762.313" y1="842.358" x2="746.313" y2="842.358" style="stroke:#000000; stroke-width:3.2; stroke-opacity:1"/>
<line clip-path="url(#clip542)" x1="762.313" y1="842.319" x2="746.313" y2="842.319" style="stroke:#000000; stroke-width:3.2; stroke-opacity:1"/>
<line clip-path="url(#clip542)" x1="804.378" y1="842.359" x2="788.378" y2="842.359" style="stroke:#000000; stroke-width:3.2; stroke-opacity:1"/>
<line clip-path="url(#clip542)" x1="804.378" y1="842.319" x2="788.378" y2="842.319" style="stroke:#000000; stroke-width:3.2; stroke-opacity:1"/>
<line clip-path="url(#clip542)" x1="846.442" y1="842.359" x2="830.442" y2="842.359" style="stroke:#000000; stroke-width:3.2; stroke-opacity:1"/>
<line clip-path="url(#clip542)" x1="846.442" y1="842.318" x2="830.442" y2="842.318" style="stroke:#000000; stroke-width:3.2; stroke-opacity:1"/>
<line clip-path="url(#clip542)" x1="888.506" y1="842.359" x2="872.506" y2="842.359" style="stroke:#000000; stroke-width:3.2; stroke-opacity:1"/>
<line clip-path="url(#clip542)" x1="888.506" y1="842.318" x2="872.506" y2="842.318" style="stroke:#000000; stroke-width:3.2; stroke-opacity:1"/>
<line clip-path="url(#clip542)" x1="930.57" y1="842.36" x2="914.57" y2="842.36" style="stroke:#000000; stroke-width:3.2; stroke-opacity:1"/>
<line clip-path="url(#clip542)" x1="930.57" y1="842.318" x2="914.57" y2="842.318" style="stroke:#000000; stroke-width:3.2; stroke-opacity:1"/>
<line clip-path="url(#clip542)" x1="972.635" y1="842.36" x2="956.635" y2="842.36" style="stroke:#000000; stroke-width:3.2; stroke-opacity:1"/>
<line clip-path="url(#clip542)" x1="972.635" y1="842.318" x2="956.635" y2="842.318" style="stroke:#000000; stroke-width:3.2; stroke-opacity:1"/>
<line clip-path="url(#clip542)" x1="1014.7" y1="842.36" x2="998.699" y2="842.36" style="stroke:#000000; stroke-width:3.2; stroke-opacity:1"/>
<line clip-path="url(#clip542)" x1="1014.7" y1="842.317" x2="998.699" y2="842.317" style="stroke:#000000; stroke-width:3.2; stroke-opacity:1"/>
<line clip-path="url(#clip542)" x1="1056.76" y1="842.36" x2="1040.76" y2="842.36" style="stroke:#000000; stroke-width:3.2; stroke-opacity:1"/>
<line clip-path="url(#clip542)" x1="1056.76" y1="842.317" x2="1040.76" y2="842.317" style="stroke:#000000; stroke-width:3.2; stroke-opacity:1"/>
<line clip-path="url(#clip542)" x1="1098.83" y1="842.36" x2="1082.83" y2="842.36" style="stroke:#000000; stroke-width:3.2; stroke-opacity:1"/>
<line clip-path="url(#clip542)" x1="1098.83" y1="842.317" x2="1082.83" y2="842.317" style="stroke:#000000; stroke-width:3.2; stroke-opacity:1"/>
<line clip-path="url(#clip542)" x1="1140.89" y1="842.36" x2="1124.89" y2="842.36" style="stroke:#000000; stroke-width:3.2; stroke-opacity:1"/>
<line clip-path="url(#clip542)" x1="1140.89" y1="842.317" x2="1124.89" y2="842.317" style="stroke:#000000; stroke-width:3.2; stroke-opacity:1"/>
<line clip-path="url(#clip542)" x1="1182.96" y1="842.361" x2="1166.96" y2="842.361" style="stroke:#000000; stroke-width:3.2; stroke-opacity:1"/>
<line clip-path="url(#clip542)" x1="1182.96" y1="842.317" x2="1166.96" y2="842.317" style="stroke:#000000; stroke-width:3.2; stroke-opacity:1"/>
<line clip-path="url(#clip542)" x1="1225.02" y1="842.361" x2="1209.02" y2="842.361" style="stroke:#000000; stroke-width:3.2; stroke-opacity:1"/>
<line clip-path="url(#clip542)" x1="1225.02" y1="842.317" x2="1209.02" y2="842.317" style="stroke:#000000; stroke-width:3.2; stroke-opacity:1"/>
<line clip-path="url(#clip542)" x1="1267.08" y1="842.361" x2="1251.08" y2="842.361" style="stroke:#000000; stroke-width:3.2; stroke-opacity:1"/>
<line clip-path="url(#clip542)" x1="1267.08" y1="842.317" x2="1251.08" y2="842.317" style="stroke:#000000; stroke-width:3.2; stroke-opacity:1"/>
<line clip-path="url(#clip542)" x1="1309.15" y1="842.361" x2="1293.15" y2="842.361" style="stroke:#000000; stroke-width:3.2; stroke-opacity:1"/>
<line clip-path="url(#clip542)" x1="1309.15" y1="842.317" x2="1293.15" y2="842.317" style="stroke:#000000; stroke-width:3.2; stroke-opacity:1"/>
<line clip-path="url(#clip542)" x1="1351.21" y1="842.361" x2="1335.21" y2="842.361" style="stroke:#000000; stroke-width:3.2; stroke-opacity:1"/>
<line clip-path="url(#clip542)" x1="1351.21" y1="842.316" x2="1335.21" y2="842.316" style="stroke:#000000; stroke-width:3.2; stroke-opacity:1"/>
<line clip-path="url(#clip542)" x1="1393.28" y1="842.361" x2="1377.28" y2="842.361" style="stroke:#000000; stroke-width:3.2; stroke-opacity:1"/>
<line clip-path="url(#clip542)" x1="1393.28" y1="842.316" x2="1377.28" y2="842.316" style="stroke:#000000; stroke-width:3.2; stroke-opacity:1"/>
<line clip-path="url(#clip542)" x1="1435.34" y1="842.361" x2="1419.34" y2="842.361" style="stroke:#000000; stroke-width:3.2; stroke-opacity:1"/>
<line clip-path="url(#clip542)" x1="1435.34" y1="842.316" x2="1419.34" y2="842.316" style="stroke:#000000; stroke-width:3.2; stroke-opacity:1"/>
<line clip-path="url(#clip542)" x1="1477.41" y1="842.361" x2="1461.41" y2="842.361" style="stroke:#000000; stroke-width:3.2; stroke-opacity:1"/>
<line clip-path="url(#clip542)" x1="1477.41" y1="842.316" x2="1461.41" y2="842.316" style="stroke:#000000; stroke-width:3.2; stroke-opacity:1"/>
<line clip-path="url(#clip542)" x1="1519.47" y1="842.361" x2="1503.47" y2="842.361" style="stroke:#000000; stroke-width:3.2; stroke-opacity:1"/>
<line clip-path="url(#clip542)" x1="1519.47" y1="842.316" x2="1503.47" y2="842.316" style="stroke:#000000; stroke-width:3.2; stroke-opacity:1"/>
<line clip-path="url(#clip542)" x1="1561.53" y1="842.361" x2="1545.53" y2="842.361" style="stroke:#000000; stroke-width:3.2; stroke-opacity:1"/>
<line clip-path="url(#clip542)" x1="1561.53" y1="842.316" x2="1545.53" y2="842.316" style="stroke:#000000; stroke-width:3.2; stroke-opacity:1"/>
<line clip-path="url(#clip542)" x1="1603.6" y1="842.361" x2="1587.6" y2="842.361" style="stroke:#000000; stroke-width:3.2; stroke-opacity:1"/>
<line clip-path="url(#clip542)" x1="1603.6" y1="842.316" x2="1587.6" y2="842.316" style="stroke:#000000; stroke-width:3.2; stroke-opacity:1"/>
<line clip-path="url(#clip542)" x1="1645.66" y1="842.361" x2="1629.66" y2="842.361" style="stroke:#000000; stroke-width:3.2; stroke-opacity:1"/>
<line clip-path="url(#clip542)" x1="1645.66" y1="842.316" x2="1629.66" y2="842.316" style="stroke:#000000; stroke-width:3.2; stroke-opacity:1"/>
<line clip-path="url(#clip542)" x1="1687.73" y1="842.361" x2="1671.73" y2="842.361" style="stroke:#000000; stroke-width:3.2; stroke-opacity:1"/>
<line clip-path="url(#clip542)" x1="1687.73" y1="842.316" x2="1671.73" y2="842.316" style="stroke:#000000; stroke-width:3.2; stroke-opacity:1"/>
<line clip-path="url(#clip542)" x1="1729.79" y1="842.362" x2="1713.79" y2="842.362" style="stroke:#000000; stroke-width:3.2; stroke-opacity:1"/>
<line clip-path="url(#clip542)" x1="1729.79" y1="842.316" x2="1713.79" y2="842.316" style="stroke:#000000; stroke-width:3.2; stroke-opacity:1"/>
<line clip-path="url(#clip542)" x1="1771.86" y1="842.361" x2="1755.86" y2="842.361" style="stroke:#000000; stroke-width:3.2; stroke-opacity:1"/>
<line clip-path="url(#clip542)" x1="1771.86" y1="842.316" x2="1755.86" y2="842.316" style="stroke:#000000; stroke-width:3.2; stroke-opacity:1"/>
<line clip-path="url(#clip542)" x1="1813.92" y1="842.362" x2="1797.92" y2="842.362" style="stroke:#000000; stroke-width:3.2; stroke-opacity:1"/>
<line clip-path="url(#clip542)" x1="1813.92" y1="842.316" x2="1797.92" y2="842.316" style="stroke:#000000; stroke-width:3.2; stroke-opacity:1"/>
<line clip-path="url(#clip542)" x1="1855.98" y1="842.362" x2="1839.98" y2="842.362" style="stroke:#000000; stroke-width:3.2; stroke-opacity:1"/>
<line clip-path="url(#clip542)" x1="1855.98" y1="842.316" x2="1839.98" y2="842.316" style="stroke:#000000; stroke-width:3.2; stroke-opacity:1"/>
<line clip-path="url(#clip542)" x1="1898.05" y1="842.362" x2="1882.05" y2="842.362" style="stroke:#000000; stroke-width:3.2; stroke-opacity:1"/>
<line clip-path="url(#clip542)" x1="1898.05" y1="842.316" x2="1882.05" y2="842.316" style="stroke:#000000; stroke-width:3.2; stroke-opacity:1"/>
<line clip-path="url(#clip542)" x1="1940.11" y1="842.362" x2="1924.11" y2="842.362" style="stroke:#000000; stroke-width:3.2; stroke-opacity:1"/>
<line clip-path="url(#clip542)" x1="1940.11" y1="842.316" x2="1924.11" y2="842.316" style="stroke:#000000; stroke-width:3.2; stroke-opacity:1"/>
<line clip-path="url(#clip542)" x1="1982.18" y1="842.362" x2="1966.18" y2="842.362" style="stroke:#000000; stroke-width:3.2; stroke-opacity:1"/>
<line clip-path="url(#clip542)" x1="1982.18" y1="842.316" x2="1966.18" y2="842.316" style="stroke:#000000; stroke-width:3.2; stroke-opacity:1"/>
<line clip-path="url(#clip542)" x1="2024.24" y1="842.362" x2="2008.24" y2="842.362" style="stroke:#000000; stroke-width:3.2; stroke-opacity:1"/>
<line clip-path="url(#clip542)" x1="2024.24" y1="842.316" x2="2008.24" y2="842.316" style="stroke:#000000; stroke-width:3.2; stroke-opacity:1"/>
<line clip-path="url(#clip542)" x1="2066.31" y1="842.362" x2="2050.31" y2="842.362" style="stroke:#000000; stroke-width:3.2; stroke-opacity:1"/>
<line clip-path="url(#clip542)" x1="2066.31" y1="842.316" x2="2050.31" y2="842.316" style="stroke:#000000; stroke-width:3.2; stroke-opacity:1"/>
<line clip-path="url(#clip542)" x1="2108.37" y1="842.362" x2="2092.37" y2="842.362" style="stroke:#000000; stroke-width:3.2; stroke-opacity:1"/>
<line clip-path="url(#clip542)" x1="2108.37" y1="842.316" x2="2092.37" y2="842.316" style="stroke:#000000; stroke-width:3.2; stroke-opacity:1"/>
<line clip-path="url(#clip542)" x1="2150.43" y1="842.362" x2="2134.43" y2="842.362" style="stroke:#000000; stroke-width:3.2; stroke-opacity:1"/>
<line clip-path="url(#clip542)" x1="2150.43" y1="842.316" x2="2134.43" y2="842.316" style="stroke:#000000; stroke-width:3.2; stroke-opacity:1"/>
<line clip-path="url(#clip542)" x1="2192.5" y1="842.362" x2="2176.5" y2="842.362" style="stroke:#000000; stroke-width:3.2; stroke-opacity:1"/>
<line clip-path="url(#clip542)" x1="2192.5" y1="842.316" x2="2176.5" y2="842.316" style="stroke:#000000; stroke-width:3.2; stroke-opacity:1"/>
<line clip-path="url(#clip542)" x1="2234.56" y1="842.362" x2="2218.56" y2="842.362" style="stroke:#000000; stroke-width:3.2; stroke-opacity:1"/>
<line clip-path="url(#clip542)" x1="2234.56" y1="842.316" x2="2218.56" y2="842.316" style="stroke:#000000; stroke-width:3.2; stroke-opacity:1"/>
<line clip-path="url(#clip542)" x1="2276.63" y1="842.362" x2="2260.63" y2="842.362" style="stroke:#000000; stroke-width:3.2; stroke-opacity:1"/>
<line clip-path="url(#clip542)" x1="2276.63" y1="842.316" x2="2260.63" y2="842.316" style="stroke:#000000; stroke-width:3.2; stroke-opacity:1"/>
<line clip-path="url(#clip542)" x1="2318.69" y1="842.362" x2="2302.69" y2="842.362" style="stroke:#000000; stroke-width:3.2; stroke-opacity:1"/>
<line clip-path="url(#clip542)" x1="2318.69" y1="842.316" x2="2302.69" y2="842.316" style="stroke:#000000; stroke-width:3.2; stroke-opacity:1"/>
<circle clip-path="url(#clip542)" cx="291.606" cy="837.386" r="7.2" fill="#009af9" fill-rule="evenodd" fill-opacity="1" stroke="#000000" stroke-opacity="1" stroke-width="3.2"/>
<circle clip-path="url(#clip542)" cx="333.671" cy="841.875" r="7.2" fill="#009af9" fill-rule="evenodd" fill-opacity="1" stroke="#000000" stroke-opacity="1" stroke-width="3.2"/>
<circle clip-path="url(#clip542)" cx="375.735" cy="842.288" r="7.2" fill="#009af9" fill-rule="evenodd" fill-opacity="1" stroke="#000000" stroke-opacity="1" stroke-width="3.2"/>
<circle clip-path="url(#clip542)" cx="417.799" cy="842.333" r="7.2" fill="#009af9" fill-rule="evenodd" fill-opacity="1" stroke="#000000" stroke-opacity="1" stroke-width="3.2"/>
<circle clip-path="url(#clip542)" cx="459.863" cy="842.338" r="7.2" fill="#009af9" fill-rule="evenodd" fill-opacity="1" stroke="#000000" stroke-opacity="1" stroke-width="3.2"/>
<circle clip-path="url(#clip542)" cx="501.928" cy="842.339" r="7.2" fill="#009af9" fill-rule="evenodd" fill-opacity="1" stroke="#000000" stroke-opacity="1" stroke-width="3.2"/>
<circle clip-path="url(#clip542)" cx="543.992" cy="842.339" r="7.2" fill="#009af9" fill-rule="evenodd" fill-opacity="1" stroke="#000000" stroke-opacity="1" stroke-width="3.2"/>
<circle clip-path="url(#clip542)" cx="586.056" cy="842.339" r="7.2" fill="#009af9" fill-rule="evenodd" fill-opacity="1" stroke="#000000" stroke-opacity="1" stroke-width="3.2"/>
<circle clip-path="url(#clip542)" cx="628.121" cy="842.339" r="7.2" fill="#009af9" fill-rule="evenodd" fill-opacity="1" stroke="#000000" stroke-opacity="1" stroke-width="3.2"/>
<circle clip-path="url(#clip542)" cx="670.185" cy="842.339" r="7.2" fill="#009af9" fill-rule="evenodd" fill-opacity="1" stroke="#000000" stroke-opacity="1" stroke-width="3.2"/>
<circle clip-path="url(#clip542)" cx="712.249" cy="842.339" r="7.2" fill="#009af9" fill-rule="evenodd" fill-opacity="1" stroke="#000000" stroke-opacity="1" stroke-width="3.2"/>
<circle clip-path="url(#clip542)" cx="754.313" cy="842.339" r="7.2" fill="#009af9" fill-rule="evenodd" fill-opacity="1" stroke="#000000" stroke-opacity="1" stroke-width="3.2"/>
<circle clip-path="url(#clip542)" cx="796.378" cy="842.339" r="7.2" fill="#009af9" fill-rule="evenodd" fill-opacity="1" stroke="#000000" stroke-opacity="1" stroke-width="3.2"/>
<circle clip-path="url(#clip542)" cx="838.442" cy="842.339" r="7.2" fill="#009af9" fill-rule="evenodd" fill-opacity="1" stroke="#000000" stroke-opacity="1" stroke-width="3.2"/>
<circle clip-path="url(#clip542)" cx="880.506" cy="842.339" r="7.2" fill="#009af9" fill-rule="evenodd" fill-opacity="1" stroke="#000000" stroke-opacity="1" stroke-width="3.2"/>
<circle clip-path="url(#clip542)" cx="922.57" cy="842.339" r="7.2" fill="#009af9" fill-rule="evenodd" fill-opacity="1" stroke="#000000" stroke-opacity="1" stroke-width="3.2"/>
<circle clip-path="url(#clip542)" cx="964.635" cy="842.339" r="7.2" fill="#009af9" fill-rule="evenodd" fill-opacity="1" stroke="#000000" stroke-opacity="1" stroke-width="3.2"/>
<circle clip-path="url(#clip542)" cx="1006.7" cy="842.339" r="7.2" fill="#009af9" fill-rule="evenodd" fill-opacity="1" stroke="#000000" stroke-opacity="1" stroke-width="3.2"/>
<circle clip-path="url(#clip542)" cx="1048.76" cy="842.339" r="7.2" fill="#009af9" fill-rule="evenodd" fill-opacity="1" stroke="#000000" stroke-opacity="1" stroke-width="3.2"/>
<circle clip-path="url(#clip542)" cx="1090.83" cy="842.339" r="7.2" fill="#009af9" fill-rule="evenodd" fill-opacity="1" stroke="#000000" stroke-opacity="1" stroke-width="3.2"/>
<circle clip-path="url(#clip542)" cx="1132.89" cy="842.339" r="7.2" fill="#009af9" fill-rule="evenodd" fill-opacity="1" stroke="#000000" stroke-opacity="1" stroke-width="3.2"/>
<circle clip-path="url(#clip542)" cx="1174.96" cy="842.339" r="7.2" fill="#009af9" fill-rule="evenodd" fill-opacity="1" stroke="#000000" stroke-opacity="1" stroke-width="3.2"/>
<circle clip-path="url(#clip542)" cx="1217.02" cy="842.339" r="7.2" fill="#009af9" fill-rule="evenodd" fill-opacity="1" stroke="#000000" stroke-opacity="1" stroke-width="3.2"/>
<circle clip-path="url(#clip542)" cx="1259.08" cy="842.339" r="7.2" fill="#009af9" fill-rule="evenodd" fill-opacity="1" stroke="#000000" stroke-opacity="1" stroke-width="3.2"/>
<circle clip-path="url(#clip542)" cx="1301.15" cy="842.339" r="7.2" fill="#009af9" fill-rule="evenodd" fill-opacity="1" stroke="#000000" stroke-opacity="1" stroke-width="3.2"/>
<circle clip-path="url(#clip542)" cx="1343.21" cy="842.339" r="7.2" fill="#009af9" fill-rule="evenodd" fill-opacity="1" stroke="#000000" stroke-opacity="1" stroke-width="3.2"/>
<circle clip-path="url(#clip542)" cx="1385.28" cy="842.339" r="7.2" fill="#009af9" fill-rule="evenodd" fill-opacity="1" stroke="#000000" stroke-opacity="1" stroke-width="3.2"/>
<circle clip-path="url(#clip542)" cx="1427.34" cy="842.339" r="7.2" fill="#009af9" fill-rule="evenodd" fill-opacity="1" stroke="#000000" stroke-opacity="1" stroke-width="3.2"/>
<circle clip-path="url(#clip542)" cx="1469.41" cy="842.339" r="7.2" fill="#009af9" fill-rule="evenodd" fill-opacity="1" stroke="#000000" stroke-opacity="1" stroke-width="3.2"/>
<circle clip-path="url(#clip542)" cx="1511.47" cy="842.339" r="7.2" fill="#009af9" fill-rule="evenodd" fill-opacity="1" stroke="#000000" stroke-opacity="1" stroke-width="3.2"/>
<circle clip-path="url(#clip542)" cx="1553.53" cy="842.339" r="7.2" fill="#009af9" fill-rule="evenodd" fill-opacity="1" stroke="#000000" stroke-opacity="1" stroke-width="3.2"/>
<circle clip-path="url(#clip542)" cx="1595.6" cy="842.339" r="7.2" fill="#009af9" fill-rule="evenodd" fill-opacity="1" stroke="#000000" stroke-opacity="1" stroke-width="3.2"/>
<circle clip-path="url(#clip542)" cx="1637.66" cy="842.339" r="7.2" fill="#009af9" fill-rule="evenodd" fill-opacity="1" stroke="#000000" stroke-opacity="1" stroke-width="3.2"/>
<circle clip-path="url(#clip542)" cx="1679.73" cy="842.339" r="7.2" fill="#009af9" fill-rule="evenodd" fill-opacity="1" stroke="#000000" stroke-opacity="1" stroke-width="3.2"/>
<circle clip-path="url(#clip542)" cx="1721.79" cy="842.339" r="7.2" fill="#009af9" fill-rule="evenodd" fill-opacity="1" stroke="#000000" stroke-opacity="1" stroke-width="3.2"/>
<circle clip-path="url(#clip542)" cx="1763.86" cy="842.339" r="7.2" fill="#009af9" fill-rule="evenodd" fill-opacity="1" stroke="#000000" stroke-opacity="1" stroke-width="3.2"/>
<circle clip-path="url(#clip542)" cx="1805.92" cy="842.339" r="7.2" fill="#009af9" fill-rule="evenodd" fill-opacity="1" stroke="#000000" stroke-opacity="1" stroke-width="3.2"/>
<circle clip-path="url(#clip542)" cx="1847.98" cy="842.339" r="7.2" fill="#009af9" fill-rule="evenodd" fill-opacity="1" stroke="#000000" stroke-opacity="1" stroke-width="3.2"/>
<circle clip-path="url(#clip542)" cx="1890.05" cy="842.339" r="7.2" fill="#009af9" fill-rule="evenodd" fill-opacity="1" stroke="#000000" stroke-opacity="1" stroke-width="3.2"/>
<circle clip-path="url(#clip542)" cx="1932.11" cy="842.339" r="7.2" fill="#009af9" fill-rule="evenodd" fill-opacity="1" stroke="#000000" stroke-opacity="1" stroke-width="3.2"/>
<circle clip-path="url(#clip542)" cx="1974.18" cy="842.339" r="7.2" fill="#009af9" fill-rule="evenodd" fill-opacity="1" stroke="#000000" stroke-opacity="1" stroke-width="3.2"/>
<circle clip-path="url(#clip542)" cx="2016.24" cy="842.339" r="7.2" fill="#009af9" fill-rule="evenodd" fill-opacity="1" stroke="#000000" stroke-opacity="1" stroke-width="3.2"/>
<circle clip-path="url(#clip542)" cx="2058.31" cy="842.339" r="7.2" fill="#009af9" fill-rule="evenodd" fill-opacity="1" stroke="#000000" stroke-opacity="1" stroke-width="3.2"/>
<circle clip-path="url(#clip542)" cx="2100.37" cy="842.339" r="7.2" fill="#009af9" fill-rule="evenodd" fill-opacity="1" stroke="#000000" stroke-opacity="1" stroke-width="3.2"/>
<circle clip-path="url(#clip542)" cx="2142.43" cy="842.339" r="7.2" fill="#009af9" fill-rule="evenodd" fill-opacity="1" stroke="#000000" stroke-opacity="1" stroke-width="3.2"/>
<circle clip-path="url(#clip542)" cx="2184.5" cy="842.339" r="7.2" fill="#009af9" fill-rule="evenodd" fill-opacity="1" stroke="#000000" stroke-opacity="1" stroke-width="3.2"/>
<circle clip-path="url(#clip542)" cx="2226.56" cy="842.339" r="7.2" fill="#009af9" fill-rule="evenodd" fill-opacity="1" stroke="#000000" stroke-opacity="1" stroke-width="3.2"/>
<circle clip-path="url(#clip542)" cx="2268.63" cy="842.339" r="7.2" fill="#009af9" fill-rule="evenodd" fill-opacity="1" stroke="#000000" stroke-opacity="1" stroke-width="3.2"/>
<circle clip-path="url(#clip542)" cx="2310.69" cy="842.339" r="7.2" fill="#009af9" fill-rule="evenodd" fill-opacity="1" stroke="#000000" stroke-opacity="1" stroke-width="3.2"/>
<path clip-path="url(#clip540)" d="
M1714.55 270.476 L2282.65 270.476 L2282.65 166.796 L1714.55 166.796  Z
  " fill="#ffffff" fill-rule="evenodd" fill-opacity="1"/>
<polyline clip-path="url(#clip540)" style="stroke:#000000; stroke-linecap:round; stroke-linejoin:round; stroke-width:4; stroke-opacity:1; fill:none" points="
  1714.55,270.476 2282.65,270.476 2282.65,166.796 1714.55,166.796 1714.55,270.476 
  "/>
<circle clip-path="url(#clip540)" cx="1808.03" cy="218.636" r="23.04" fill="#009af9" fill-rule="evenodd" fill-opacity="1" stroke="#000000" stroke-opacity="1" stroke-width="10.24"/>
<path clip-path="url(#clip540)" d="M1921.85 214.967 Q1923.45 212.096 1925.67 210.731 Q1927.89 209.365 1930.9 209.365 Q1934.95 209.365 1937.15 212.212 Q1939.35 215.036 1939.35 220.268 L1939.35 235.916 L1935.07 235.916 L1935.07 220.407 Q1935.07 216.68 1933.75 214.874 Q1932.43 213.069 1929.72 213.069 Q1926.41 213.069 1924.49 215.268 Q1922.57 217.467 1922.57 221.263 L1922.57 235.916 L1918.29 235.916 L1918.29 220.407 Q1918.29 216.657 1916.97 214.874 Q1915.65 213.069 1912.89 213.069 Q1909.63 213.069 1907.71 215.291 Q1905.79 217.49 1905.79 221.263 L1905.79 235.916 L1901.5 235.916 L1901.5 209.99 L1905.79 209.99 L1905.79 214.018 Q1907.24 211.633 1909.28 210.499 Q1911.32 209.365 1914.12 209.365 Q1916.94 209.365 1918.91 210.8 Q1920.9 212.235 1921.85 214.967 Z" fill="#000000" fill-rule="evenodd" fill-opacity="1" /><path clip-path="url(#clip540)" d="M1956.57 220.245 Q1955.42 218.254 1953.08 218.254 Q1950.74 218.254 1949.58 220.245 Q1948.4 222.235 1948.4 226.217 Q1948.4 230.221 1949.58 232.212 Q1950.74 234.203 1953.08 234.203 Q1955.42 234.203 1956.57 232.212 Q1957.75 230.221 1957.75 226.217 Q1957.75 222.235 1956.57 220.245 M1953.08 216.194 Q1956.8 216.194 1958.77 218.763 Q1960.74 221.332 1960.74 226.217 Q1960.74 231.124 1958.77 233.694 Q1956.8 236.263 1953.08 236.263 Q1949.33 236.263 1947.36 233.694 Q1945.39 231.124 1945.39 226.217 Q1945.39 221.332 1947.36 218.763 Q1949.33 216.194 1953.08 216.194 Z" fill="#000000" fill-rule="evenodd" fill-opacity="1" /><path clip-path="url(#clip540)" d="M1967.41 214.388 L1997.08 214.388 L1997.08 218.277 L1967.41 218.277 L1967.41 214.388 M1967.41 223.832 L1997.08 223.832 L1997.08 227.768 L1967.41 227.768 L1967.41 223.832 Z" fill="#000000" fill-rule="evenodd" fill-opacity="1" /><path clip-path="url(#clip540)" d="M2007.98 231.981 L2015.62 231.981 L2015.62 205.615 L2007.31 207.282 L2007.31 203.022 L2015.58 201.356 L2020.25 201.356 L2020.25 231.981 L2027.89 231.981 L2027.89 235.916 L2007.98 235.916 L2007.98 231.981 Z" fill="#000000" fill-rule="evenodd" fill-opacity="1" /><path clip-path="url(#clip540)" d="M2037.34 230.036 L2042.22 230.036 L2042.22 235.916 L2037.34 235.916 L2037.34 230.036 Z" fill="#000000" fill-rule="evenodd" fill-opacity="1" /><path clip-path="url(#clip540)" d="M2062.41 204.434 Q2058.79 204.434 2056.97 207.999 Q2055.16 211.541 2055.16 218.67 Q2055.16 225.777 2056.97 229.342 Q2058.79 232.883 2062.41 232.883 Q2066.04 232.883 2067.85 229.342 Q2069.67 225.777 2069.67 218.67 Q2069.67 211.541 2067.85 207.999 Q2066.04 204.434 2062.41 204.434 M2062.41 200.731 Q2068.22 200.731 2071.27 205.337 Q2074.35 209.92 2074.35 218.67 Q2074.35 227.397 2071.27 232.004 Q2068.22 236.587 2062.41 236.587 Q2056.6 236.587 2053.52 232.004 Q2050.46 227.397 2050.46 218.67 Q2050.46 209.92 2053.52 205.337 Q2056.6 200.731 2062.41 200.731 Z" fill="#000000" fill-rule="evenodd" fill-opacity="1" /><path clip-path="url(#clip540)" d="M2083.05 230.036 L2087.94 230.036 L2087.94 234.018 L2084.14 241.425 L2081.16 241.425 L2083.05 234.018 L2083.05 230.036 Z" fill="#000000" fill-rule="evenodd" fill-opacity="1" /><path clip-path="url(#clip540)" d="M2120.79 230.985 L2120.79 221.703 L2113.15 221.703 L2113.15 217.86 L2125.41 217.86 L2125.41 232.698 Q2122.71 234.619 2119.44 235.615 Q2116.18 236.587 2112.47 236.587 Q2104.37 236.587 2099.79 231.865 Q2095.23 227.119 2095.23 218.67 Q2095.23 210.198 2099.79 205.476 Q2104.37 200.731 2112.47 200.731 Q2115.85 200.731 2118.89 201.564 Q2121.94 202.397 2124.51 204.018 L2124.51 208.995 Q2121.92 206.796 2119 205.684 Q2116.09 204.573 2112.87 204.573 Q2106.53 204.573 2103.33 208.115 Q2100.16 211.657 2100.16 218.67 Q2100.16 225.661 2103.33 229.203 Q2106.53 232.744 2112.87 232.744 Q2115.35 232.744 2117.29 232.328 Q2119.23 231.888 2120.79 230.985 Z" fill="#000000" fill-rule="evenodd" fill-opacity="1" /><path clip-path="url(#clip540)" d="M2135.51 217.814 L2145.32 217.814 L2145.32 220.453 L2131.48 220.453 L2131.48 217.907 Q2132.27 217.189 2133.72 215.893 Q2141.69 208.833 2141.69 206.657 Q2141.69 205.129 2140.48 204.203 Q2139.28 203.254 2137.31 203.254 Q2136.11 203.254 2134.7 203.671 Q2133.29 204.064 2131.62 204.874 L2131.62 202.027 Q2133.4 201.379 2134.93 201.055 Q2136.48 200.731 2137.8 200.731 Q2141.16 200.731 2143.17 202.258 Q2145.18 203.786 2145.18 206.286 Q2145.18 209.504 2137.52 216.078 Q2136.22 217.189 2135.51 217.814 Z" fill="#000000" fill-rule="evenodd" fill-opacity="1" /><path clip-path="url(#clip540)" d="M2153.33 214.388 L2183.01 214.388 L2183.01 218.277 L2153.33 218.277 L2153.33 214.388 M2153.33 223.832 L2183.01 223.832 L2183.01 227.768 L2153.33 227.768 L2153.33 223.832 Z" fill="#000000" fill-rule="evenodd" fill-opacity="1" /><path clip-path="url(#clip540)" d="M2203.1 204.434 Q2199.49 204.434 2197.66 207.999 Q2195.85 211.541 2195.85 218.67 Q2195.85 225.777 2197.66 229.342 Q2199.49 232.883 2203.1 232.883 Q2206.73 232.883 2208.54 229.342 Q2210.37 225.777 2210.37 218.67 Q2210.37 211.541 2208.54 207.999 Q2206.73 204.434 2203.1 204.434 M2203.1 200.731 Q2208.91 200.731 2211.97 205.337 Q2215.04 209.92 2215.04 218.67 Q2215.04 227.397 2211.97 232.004 Q2208.91 236.587 2203.1 236.587 Q2197.29 236.587 2194.21 232.004 Q2191.16 227.397 2191.16 218.67 Q2191.16 209.92 2194.21 205.337 Q2197.29 200.731 2203.1 200.731 Z" fill="#000000" fill-rule="evenodd" fill-opacity="1" /><path clip-path="url(#clip540)" d="M2223.26 230.036 L2228.15 230.036 L2228.15 235.916 L2223.26 235.916 L2223.26 230.036 Z" fill="#000000" fill-rule="evenodd" fill-opacity="1" /><path clip-path="url(#clip540)" d="M2238.38 201.356 L2256.73 201.356 L2256.73 205.291 L2242.66 205.291 L2242.66 213.763 Q2243.68 213.416 2244.7 213.254 Q2245.71 213.069 2246.73 213.069 Q2252.52 213.069 2255.9 216.24 Q2259.28 219.411 2259.28 224.828 Q2259.28 230.406 2255.81 233.508 Q2252.34 236.587 2246.02 236.587 Q2243.84 236.587 2241.57 236.217 Q2239.33 235.846 2236.92 235.106 L2236.92 230.406 Q2239 231.541 2241.22 232.096 Q2243.45 232.652 2245.92 232.652 Q2249.93 232.652 2252.27 230.545 Q2254.6 228.439 2254.6 224.828 Q2254.6 221.217 2252.27 219.11 Q2249.93 217.004 2245.92 217.004 Q2244.05 217.004 2242.17 217.42 Q2240.32 217.837 2238.38 218.717 L2238.38 201.356 Z" fill="#000000" fill-rule="evenodd" fill-opacity="1" /></svg>
