<?xml version="1.0" encoding="utf-8"?>
<svg xmlns="http://www.w3.org/2000/svg" xmlns:xlink="http://www.w3.org/1999/xlink" width="600" height="400" viewBox="0 0 2400 1600">
<defs>
  <clipPath id="clip150">
    <rect x="0" y="0" width="2400" height="1600"/>
  </clipPath>
</defs>
<path clip-path="url(#clip150)" d="
M0 1600 L2400 1600 L2400 0 L0 0  Z
  " fill="#ffffff" fill-rule="evenodd" fill-opacity="1"/>
<defs>
  <clipPath id="clip151">
    <rect x="480" y="0" width="1681" height="1600"/>
  </clipPath>
</defs>
<path clip-path="url(#clip150)" d="
M280.19 1423.18 L2352.76 1423.18 L2352.76 123.472 L280.19 123.472  Z
  " fill="#ffffff" fill-rule="evenodd" fill-opacity="1"/>
<defs>
  <clipPath id="clip152">
    <rect x="280" y="123" width="2074" height="1301"/>
  </clipPath>
</defs>
<polyline clip-path="url(#clip152)" style="stroke:#000000; stroke-linecap:round; stroke-linejoin:round; stroke-width:2; stroke-opacity:0.1; fill:none" points="
  280.19,1423.18 280.19,123.472 
  "/>
<polyline clip-path="url(#clip152)" style="stroke:#000000; stroke-linecap:round; stroke-linejoin:round; stroke-width:2; stroke-opacity:0.1; fill:none" points="
  487.447,1423.18 487.447,123.472 
  "/>
<polyline clip-path="url(#clip152)" style="stroke:#000000; stroke-linecap:round; stroke-linejoin:round; stroke-width:2; stroke-opacity:0.1; fill:none" points="
  694.703,1423.18 694.703,123.472 
  "/>
<polyline clip-path="url(#clip152)" style="stroke:#000000; stroke-linecap:round; stroke-linejoin:round; stroke-width:2; stroke-opacity:0.1; fill:none" points="
  901.96,1423.18 901.96,123.472 
  "/>
<polyline clip-path="url(#clip152)" style="stroke:#000000; stroke-linecap:round; stroke-linejoin:round; stroke-width:2; stroke-opacity:0.1; fill:none" points="
  1109.22,1423.18 1109.22,123.472 
  "/>
<polyline clip-path="url(#clip152)" style="stroke:#000000; stroke-linecap:round; stroke-linejoin:round; stroke-width:2; stroke-opacity:0.1; fill:none" points="
  1316.47,1423.18 1316.47,123.472 
  "/>
<polyline clip-path="url(#clip152)" style="stroke:#000000; stroke-linecap:round; stroke-linejoin:round; stroke-width:2; stroke-opacity:0.1; fill:none" points="
  1523.73,1423.18 1523.73,123.472 
  "/>
<polyline clip-path="url(#clip152)" style="stroke:#000000; stroke-linecap:round; stroke-linejoin:round; stroke-width:2; stroke-opacity:0.1; fill:none" points="
  1730.99,1423.18 1730.99,123.472 
  "/>
<polyline clip-path="url(#clip152)" style="stroke:#000000; stroke-linecap:round; stroke-linejoin:round; stroke-width:2; stroke-opacity:0.1; fill:none" points="
  1938.24,1423.18 1938.24,123.472 
  "/>
<polyline clip-path="url(#clip152)" style="stroke:#000000; stroke-linecap:round; stroke-linejoin:round; stroke-width:2; stroke-opacity:0.1; fill:none" points="
  2145.5,1423.18 2145.5,123.472 
  "/>
<polyline clip-path="url(#clip152)" style="stroke:#000000; stroke-linecap:round; stroke-linejoin:round; stroke-width:2; stroke-opacity:0.1; fill:none" points="
  2352.76,1423.18 2352.76,123.472 
  "/>
<polyline clip-path="url(#clip150)" style="stroke:#000000; stroke-linecap:round; stroke-linejoin:round; stroke-width:4; stroke-opacity:1; fill:none" points="
  280.19,1423.18 2352.76,1423.18 
  "/>
<polyline clip-path="url(#clip150)" style="stroke:#000000; stroke-linecap:round; stroke-linejoin:round; stroke-width:4; stroke-opacity:1; fill:none" points="
  280.19,1423.18 280.19,1404.28 
  "/>
<polyline clip-path="url(#clip150)" style="stroke:#000000; stroke-linecap:round; stroke-linejoin:round; stroke-width:4; stroke-opacity:1; fill:none" points="
  487.447,1423.18 487.447,1404.28 
  "/>
<polyline clip-path="url(#clip150)" style="stroke:#000000; stroke-linecap:round; stroke-linejoin:round; stroke-width:4; stroke-opacity:1; fill:none" points="
  694.703,1423.18 694.703,1404.28 
  "/>
<polyline clip-path="url(#clip150)" style="stroke:#000000; stroke-linecap:round; stroke-linejoin:round; stroke-width:4; stroke-opacity:1; fill:none" points="
  901.96,1423.18 901.96,1404.28 
  "/>
<polyline clip-path="url(#clip150)" style="stroke:#000000; stroke-linecap:round; stroke-linejoin:round; stroke-width:4; stroke-opacity:1; fill:none" points="
  1109.22,1423.18 1109.22,1404.28 
  "/>
<polyline clip-path="url(#clip150)" style="stroke:#000000; stroke-linecap:round; stroke-linejoin:round; stroke-width:4; stroke-opacity:1; fill:none" points="
  1316.47,1423.18 1316.47,1404.28 
  "/>
<polyline clip-path="url(#clip150)" style="stroke:#000000; stroke-linecap:round; stroke-linejoin:round; stroke-width:4; stroke-opacity:1; fill:none" points="
  1523.73,1423.18 1523.73,1404.28 
  "/>
<polyline clip-path="url(#clip150)" style="stroke:#000000; stroke-linecap:round; stroke-linejoin:round; stroke-width:4; stroke-opacity:1; fill:none" points="
  1730.99,1423.18 1730.99,1404.28 
  "/>
<polyline clip-path="url(#clip150)" style="stroke:#000000; stroke-linecap:round; stroke-linejoin:round; stroke-width:4; stroke-opacity:1; fill:none" points="
  1938.24,1423.18 1938.24,1404.28 
  "/>
<polyline clip-path="url(#clip150)" style="stroke:#000000; stroke-linecap:round; stroke-linejoin:round; stroke-width:4; stroke-opacity:1; fill:none" points="
  2145.5,1423.18 2145.5,1404.28 
  "/>
<polyline clip-path="url(#clip150)" style="stroke:#000000; stroke-linecap:round; stroke-linejoin:round; stroke-width:4; stroke-opacity:1; fill:none" points="
  2352.76,1423.18 2352.76,1404.28 
  "/>
<path clip-path="url(#clip150)" d="M280.19 1454.1 Q276.579 1454.1 274.75 1457.66 Q272.945 1461.2 272.945 1468.33 Q272.945 1475.44 274.75 1479.01 Q276.579 1482.55 280.19 1482.55 Q283.824 1482.55 285.63 1479.01 Q287.458 1475.44 287.458 1468.33 Q287.458 1461.2 285.63 1457.66 Q283.824 1454.1 280.19 1454.1 M280.19 1450.39 Q286 1450.39 289.056 1455 Q292.134 1459.58 292.134 1468.33 Q292.134 1477.06 289.056 1481.67 Q286 1486.25 280.19 1486.25 Q274.38 1486.25 271.301 1481.67 Q268.246 1477.06 268.246 1468.33 Q268.246 1459.58 271.301 1455 Q274.38 1450.39 280.19 1450.39 Z" fill="#000000" fill-rule="evenodd" fill-opacity="1" /><path clip-path="url(#clip150)" d="M477.724 1451.02 L496.081 1451.02 L496.081 1454.96 L482.007 1454.96 L482.007 1463.43 Q483.025 1463.08 484.044 1462.92 Q485.062 1462.73 486.081 1462.73 Q491.868 1462.73 495.247 1465.9 Q498.627 1469.08 498.627 1474.49 Q498.627 1480.07 495.155 1483.17 Q491.683 1486.25 485.363 1486.25 Q483.187 1486.25 480.919 1485.88 Q478.674 1485.51 476.266 1484.77 L476.266 1480.07 Q478.349 1481.2 480.572 1481.76 Q482.794 1482.32 485.271 1482.32 Q489.275 1482.32 491.613 1480.21 Q493.951 1478.1 493.951 1474.49 Q493.951 1470.88 491.613 1468.77 Q489.275 1466.67 485.271 1466.67 Q483.396 1466.67 481.521 1467.08 Q479.669 1467.5 477.724 1468.38 L477.724 1451.02 Z" fill="#000000" fill-rule="evenodd" fill-opacity="1" /><path clip-path="url(#clip150)" d="M669.391 1481.64 L677.03 1481.64 L677.03 1455.28 L668.72 1456.95 L668.72 1452.69 L676.983 1451.02 L681.659 1451.02 L681.659 1481.64 L689.298 1481.64 L689.298 1485.58 L669.391 1485.58 L669.391 1481.64 Z" fill="#000000" fill-rule="evenodd" fill-opacity="1" /><path clip-path="url(#clip150)" d="M708.742 1454.1 Q705.131 1454.1 703.303 1457.66 Q701.497 1461.2 701.497 1468.33 Q701.497 1475.44 703.303 1479.01 Q705.131 1482.55 708.742 1482.55 Q712.377 1482.55 714.182 1479.01 Q716.011 1475.44 716.011 1468.33 Q716.011 1461.2 714.182 1457.66 Q712.377 1454.1 708.742 1454.1 M708.742 1450.39 Q714.553 1450.39 717.608 1455 Q720.687 1459.58 720.687 1468.33 Q720.687 1477.06 717.608 1481.67 Q714.553 1486.25 708.742 1486.25 Q702.932 1486.25 699.854 1481.67 Q696.798 1477.06 696.798 1468.33 Q696.798 1459.58 699.854 1455 Q702.932 1450.39 708.742 1450.39 Z" fill="#000000" fill-rule="evenodd" fill-opacity="1" /><path clip-path="url(#clip150)" d="M877.145 1481.64 L884.784 1481.64 L884.784 1455.28 L876.474 1456.95 L876.474 1452.69 L884.738 1451.02 L889.414 1451.02 L889.414 1481.64 L897.052 1481.64 L897.052 1485.58 L877.145 1485.58 L877.145 1481.64 Z" fill="#000000" fill-rule="evenodd" fill-opacity="1" /><path clip-path="url(#clip150)" d="M906.543 1451.02 L924.899 1451.02 L924.899 1454.96 L910.825 1454.96 L910.825 1463.43 Q911.844 1463.08 912.863 1462.92 Q913.881 1462.73 914.9 1462.73 Q920.687 1462.73 924.066 1465.9 Q927.446 1469.08 927.446 1474.49 Q927.446 1480.07 923.974 1483.17 Q920.501 1486.25 914.182 1486.25 Q912.006 1486.25 909.738 1485.88 Q907.492 1485.51 905.085 1484.77 L905.085 1480.07 Q907.168 1481.2 909.39 1481.76 Q911.613 1482.32 914.089 1482.32 Q918.094 1482.32 920.432 1480.21 Q922.77 1478.1 922.77 1474.49 Q922.77 1470.88 920.432 1468.77 Q918.094 1466.67 914.089 1466.67 Q912.214 1466.67 910.339 1467.08 Q908.488 1467.5 906.543 1468.38 L906.543 1451.02 Z" fill="#000000" fill-rule="evenodd" fill-opacity="1" /><path clip-path="url(#clip150)" d="M1087.99 1481.64 L1104.31 1481.64 L1104.31 1485.58 L1082.36 1485.58 L1082.36 1481.64 Q1085.03 1478.89 1089.61 1474.26 Q1094.22 1469.61 1095.4 1468.27 Q1097.64 1465.74 1098.52 1464.01 Q1099.42 1462.25 1099.42 1460.56 Q1099.42 1457.8 1097.48 1456.07 Q1095.56 1454.33 1092.46 1454.33 Q1090.26 1454.33 1087.8 1455.09 Q1085.37 1455.86 1082.6 1457.41 L1082.6 1452.69 Q1085.42 1451.55 1087.87 1450.97 Q1090.33 1450.39 1092.36 1450.39 Q1097.73 1450.39 1100.93 1453.08 Q1104.12 1455.77 1104.12 1460.26 Q1104.12 1462.39 1103.31 1464.31 Q1102.53 1466.2 1100.42 1468.8 Q1099.84 1469.47 1096.74 1472.69 Q1093.64 1475.88 1087.99 1481.64 Z" fill="#000000" fill-rule="evenodd" fill-opacity="1" /><path clip-path="url(#clip150)" d="M1124.12 1454.1 Q1120.51 1454.1 1118.68 1457.66 Q1116.88 1461.2 1116.88 1468.33 Q1116.88 1475.44 1118.68 1479.01 Q1120.51 1482.55 1124.12 1482.55 Q1127.76 1482.55 1129.56 1479.01 Q1131.39 1475.44 1131.39 1468.33 Q1131.39 1461.2 1129.56 1457.66 Q1127.76 1454.1 1124.12 1454.1 M1124.12 1450.39 Q1129.93 1450.39 1132.99 1455 Q1136.07 1459.58 1136.07 1468.33 Q1136.07 1477.06 1132.99 1481.67 Q1129.93 1486.25 1124.12 1486.25 Q1118.31 1486.25 1115.23 1481.67 Q1112.18 1477.06 1112.18 1468.33 Q1112.18 1459.58 1115.23 1455 Q1118.31 1450.39 1124.12 1450.39 Z" fill="#000000" fill-rule="evenodd" fill-opacity="1" /><path clip-path="url(#clip150)" d="M1295.74 1481.64 L1312.06 1481.64 L1312.06 1485.58 L1290.12 1485.58 L1290.12 1481.64 Q1292.78 1478.89 1297.36 1474.26 Q1301.97 1469.61 1303.15 1468.27 Q1305.4 1465.74 1306.28 1464.01 Q1307.18 1462.25 1307.18 1460.56 Q1307.18 1457.8 1305.23 1456.07 Q1303.31 1454.33 1300.21 1454.33 Q1298.01 1454.33 1295.56 1455.09 Q1293.13 1455.86 1290.35 1457.41 L1290.35 1452.69 Q1293.17 1451.55 1295.63 1450.97 Q1298.08 1450.39 1300.12 1450.39 Q1305.49 1450.39 1308.68 1453.08 Q1311.88 1455.77 1311.88 1460.26 Q1311.88 1462.39 1311.07 1464.31 Q1310.28 1466.2 1308.17 1468.8 Q1307.6 1469.47 1304.49 1472.69 Q1301.39 1475.88 1295.74 1481.64 Z" fill="#000000" fill-rule="evenodd" fill-opacity="1" /><path clip-path="url(#clip150)" d="M1321.92 1451.02 L1340.28 1451.02 L1340.28 1454.96 L1326.21 1454.96 L1326.21 1463.43 Q1327.23 1463.08 1328.24 1462.92 Q1329.26 1462.73 1330.28 1462.73 Q1336.07 1462.73 1339.45 1465.9 Q1342.83 1469.08 1342.83 1474.49 Q1342.83 1480.07 1339.35 1483.17 Q1335.88 1486.25 1329.56 1486.25 Q1327.39 1486.25 1325.12 1485.88 Q1322.87 1485.51 1320.47 1484.77 L1320.47 1480.07 Q1322.55 1481.2 1324.77 1481.76 Q1326.99 1482.32 1329.47 1482.32 Q1333.48 1482.32 1335.81 1480.21 Q1338.15 1478.1 1338.15 1474.49 Q1338.15 1470.88 1335.81 1468.77 Q1333.48 1466.67 1329.47 1466.67 Q1327.6 1466.67 1325.72 1467.08 Q1323.87 1467.5 1321.92 1468.38 L1321.92 1451.02 Z" fill="#000000" fill-rule="evenodd" fill-opacity="1" /><path clip-path="url(#clip150)" d="M1512.57 1466.95 Q1515.93 1467.66 1517.8 1469.93 Q1519.7 1472.2 1519.7 1475.53 Q1519.7 1480.65 1516.18 1483.45 Q1512.66 1486.25 1506.18 1486.25 Q1504.01 1486.25 1501.69 1485.81 Q1499.4 1485.39 1496.95 1484.54 L1496.95 1480.02 Q1498.89 1481.16 1501.21 1481.74 Q1503.52 1482.32 1506.04 1482.32 Q1510.44 1482.32 1512.73 1480.58 Q1515.05 1478.84 1515.05 1475.53 Q1515.05 1472.48 1512.9 1470.77 Q1510.77 1469.03 1506.95 1469.03 L1502.92 1469.03 L1502.92 1465.19 L1507.13 1465.19 Q1510.58 1465.19 1512.41 1463.82 Q1514.24 1462.43 1514.24 1459.84 Q1514.24 1457.18 1512.34 1455.77 Q1510.47 1454.33 1506.95 1454.33 Q1505.03 1454.33 1502.83 1454.75 Q1500.63 1455.16 1497.99 1456.04 L1497.99 1451.88 Q1500.65 1451.14 1502.97 1450.77 Q1505.3 1450.39 1507.36 1450.39 Q1512.69 1450.39 1515.79 1452.83 Q1518.89 1455.23 1518.89 1459.35 Q1518.89 1462.22 1517.25 1464.21 Q1515.6 1466.18 1512.57 1466.95 Z" fill="#000000" fill-rule="evenodd" fill-opacity="1" /><path clip-path="url(#clip150)" d="M1538.57 1454.1 Q1534.96 1454.1 1533.13 1457.66 Q1531.32 1461.2 1531.32 1468.33 Q1531.32 1475.44 1533.13 1479.01 Q1534.96 1482.55 1538.57 1482.55 Q1542.2 1482.55 1544.01 1479.01 Q1545.84 1475.44 1545.84 1468.33 Q1545.84 1461.2 1544.01 1457.66 Q1542.2 1454.1 1538.57 1454.1 M1538.57 1450.39 Q1544.38 1450.39 1547.43 1455 Q1550.51 1459.58 1550.51 1468.33 Q1550.51 1477.06 1547.43 1481.67 Q1544.38 1486.25 1538.57 1486.25 Q1532.76 1486.25 1529.68 1481.67 Q1526.62 1477.06 1526.62 1468.33 Q1526.62 1459.58 1529.68 1455 Q1532.76 1450.39 1538.57 1450.39 Z" fill="#000000" fill-rule="evenodd" fill-opacity="1" /><path clip-path="url(#clip150)" d="M1720.33 1466.95 Q1723.68 1467.66 1725.56 1469.93 Q1727.46 1472.2 1727.46 1475.53 Q1727.46 1480.65 1723.94 1483.45 Q1720.42 1486.25 1713.94 1486.25 Q1711.76 1486.25 1709.45 1485.81 Q1707.16 1485.39 1704.7 1484.54 L1704.7 1480.02 Q1706.65 1481.16 1708.96 1481.74 Q1711.28 1482.32 1713.8 1482.32 Q1718.2 1482.32 1720.49 1480.58 Q1722.8 1478.84 1722.8 1475.53 Q1722.8 1472.48 1720.65 1470.77 Q1718.52 1469.03 1714.7 1469.03 L1710.67 1469.03 L1710.67 1465.19 L1714.89 1465.19 Q1718.34 1465.19 1720.16 1463.82 Q1721.99 1462.43 1721.99 1459.84 Q1721.99 1457.18 1720.09 1455.77 Q1718.22 1454.33 1714.7 1454.33 Q1712.78 1454.33 1710.58 1454.75 Q1708.38 1455.16 1705.74 1456.04 L1705.74 1451.88 Q1708.41 1451.14 1710.72 1450.77 Q1713.06 1450.39 1715.12 1450.39 Q1720.44 1450.39 1723.54 1452.83 Q1726.65 1455.23 1726.65 1459.35 Q1726.65 1462.22 1725 1464.21 Q1723.36 1466.18 1720.33 1466.95 Z" fill="#000000" fill-rule="evenodd" fill-opacity="1" /><path clip-path="url(#clip150)" d="M1736.37 1451.02 L1754.72 1451.02 L1754.72 1454.96 L1740.65 1454.96 L1740.65 1463.43 Q1741.67 1463.08 1742.69 1462.92 Q1743.71 1462.73 1744.72 1462.73 Q1750.51 1462.73 1753.89 1465.9 Q1757.27 1469.08 1757.27 1474.49 Q1757.27 1480.07 1753.8 1483.17 Q1750.33 1486.25 1744.01 1486.25 Q1741.83 1486.25 1739.56 1485.88 Q1737.32 1485.51 1734.91 1484.77 L1734.91 1480.07 Q1736.99 1481.2 1739.22 1481.76 Q1741.44 1482.32 1743.91 1482.32 Q1747.92 1482.32 1750.26 1480.21 Q1752.59 1478.1 1752.59 1474.49 Q1752.59 1470.88 1750.26 1468.77 Q1747.92 1466.67 1743.91 1466.67 Q1742.04 1466.67 1740.16 1467.08 Q1738.31 1467.5 1736.37 1468.38 L1736.37 1451.02 Z" fill="#000000" fill-rule="evenodd" fill-opacity="1" /><path clip-path="url(#clip150)" d="M1926.41 1455.09 L1914.61 1473.54 L1926.41 1473.54 L1926.41 1455.09 M1925.19 1451.02 L1931.07 1451.02 L1931.07 1473.54 L1936 1473.54 L1936 1477.43 L1931.07 1477.43 L1931.07 1485.58 L1926.41 1485.58 L1926.41 1477.43 L1910.81 1477.43 L1910.81 1472.92 L1925.19 1451.02 Z" fill="#000000" fill-rule="evenodd" fill-opacity="1" /><path clip-path="url(#clip150)" d="M1953.73 1454.1 Q1950.12 1454.1 1948.29 1457.66 Q1946.48 1461.2 1946.48 1468.33 Q1946.48 1475.44 1948.29 1479.01 Q1950.12 1482.55 1953.73 1482.55 Q1957.36 1482.55 1959.17 1479.01 Q1961 1475.44 1961 1468.33 Q1961 1461.2 1959.17 1457.66 Q1957.36 1454.1 1953.73 1454.1 M1953.73 1450.39 Q1959.54 1450.39 1962.59 1455 Q1965.67 1459.58 1965.67 1468.33 Q1965.67 1477.06 1962.59 1481.67 Q1959.54 1486.25 1953.73 1486.25 Q1947.92 1486.25 1944.84 1481.67 Q1941.78 1477.06 1941.78 1468.33 Q1941.78 1459.58 1944.84 1455 Q1947.92 1450.39 1953.73 1450.39 Z" fill="#000000" fill-rule="evenodd" fill-opacity="1" /><path clip-path="url(#clip150)" d="M2134.17 1455.09 L2122.36 1473.54 L2134.17 1473.54 L2134.17 1455.09 M2132.94 1451.02 L2138.82 1451.02 L2138.82 1473.54 L2143.75 1473.54 L2143.75 1477.43 L2138.82 1477.43 L2138.82 1485.58 L2134.17 1485.58 L2134.17 1477.43 L2118.57 1477.43 L2118.57 1472.92 L2132.94 1451.02 Z" fill="#000000" fill-rule="evenodd" fill-opacity="1" /><path clip-path="url(#clip150)" d="M2151.53 1451.02 L2169.89 1451.02 L2169.89 1454.96 L2155.81 1454.96 L2155.81 1463.43 Q2156.83 1463.08 2157.85 1462.92 Q2158.87 1462.73 2159.89 1462.73 Q2165.67 1462.73 2169.05 1465.9 Q2172.43 1469.08 2172.43 1474.49 Q2172.43 1480.07 2168.96 1483.17 Q2165.49 1486.25 2159.17 1486.25 Q2156.99 1486.25 2154.72 1485.88 Q2152.48 1485.51 2150.07 1484.77 L2150.07 1480.07 Q2152.15 1481.2 2154.38 1481.76 Q2156.6 1482.32 2159.08 1482.32 Q2163.08 1482.32 2165.42 1480.21 Q2167.76 1478.1 2167.76 1474.49 Q2167.76 1470.88 2165.42 1468.77 Q2163.08 1466.67 2159.08 1466.67 Q2157.2 1466.67 2155.33 1467.08 Q2153.47 1467.5 2151.53 1468.38 L2151.53 1451.02 Z" fill="#000000" fill-rule="evenodd" fill-opacity="1" /><path clip-path="url(#clip150)" d="M2327.46 1451.02 L2345.81 1451.02 L2345.81 1454.96 L2331.74 1454.96 L2331.74 1463.43 Q2332.76 1463.08 2333.77 1462.92 Q2334.79 1462.73 2335.81 1462.73 Q2341.6 1462.73 2344.98 1465.9 Q2348.36 1469.08 2348.36 1474.49 Q2348.36 1480.07 2344.89 1483.17 Q2341.41 1486.25 2335.09 1486.25 Q2332.92 1486.25 2330.65 1485.88 Q2328.4 1485.51 2326 1484.77 L2326 1480.07 Q2328.08 1481.2 2330.3 1481.76 Q2332.52 1482.32 2335 1482.32 Q2339.01 1482.32 2341.34 1480.21 Q2343.68 1478.1 2343.68 1474.49 Q2343.68 1470.88 2341.34 1468.77 Q2339.01 1466.67 2335 1466.67 Q2333.13 1466.67 2331.25 1467.08 Q2329.4 1467.5 2327.46 1468.38 L2327.46 1451.02 Z" fill="#000000" fill-rule="evenodd" fill-opacity="1" /><path clip-path="url(#clip150)" d="M2367.57 1454.1 Q2363.96 1454.1 2362.13 1457.66 Q2360.33 1461.2 2360.33 1468.33 Q2360.33 1475.44 2362.13 1479.01 Q2363.96 1482.55 2367.57 1482.55 Q2371.2 1482.55 2373.01 1479.01 Q2374.84 1475.44 2374.84 1468.33 Q2374.84 1461.2 2373.01 1457.66 Q2371.2 1454.1 2367.57 1454.1 M2367.57 1450.39 Q2373.38 1450.39 2376.44 1455 Q2379.52 1459.58 2379.52 1468.33 Q2379.52 1477.06 2376.44 1481.67 Q2373.38 1486.25 2367.57 1486.25 Q2361.76 1486.25 2358.68 1481.67 Q2355.63 1477.06 2355.63 1468.33 Q2355.63 1459.58 2358.68 1455 Q2361.76 1450.39 2367.57 1450.39 Z" fill="#000000" fill-rule="evenodd" fill-opacity="1" /><path clip-path="url(#clip150)" d="M1145.35 1522.08 L1145.35 1528.35 Q1141.69 1526.6 1138.44 1525.74 Q1135.19 1524.88 1132.17 1524.88 Q1126.92 1524.88 1124.05 1526.92 Q1121.22 1528.96 1121.22 1532.71 Q1121.22 1535.87 1123.1 1537.49 Q1125.01 1539.08 1130.29 1540.07 L1134.18 1540.86 Q1141.37 1542.23 1144.77 1545.7 Q1148.21 1549.14 1148.21 1554.93 Q1148.21 1561.84 1143.56 1565.4 Q1138.95 1568.97 1130.01 1568.97 Q1126.63 1568.97 1122.81 1568.2 Q1119.02 1567.44 1114.95 1565.94 L1114.95 1559.32 Q1118.87 1561.52 1122.62 1562.63 Q1126.38 1563.75 1130.01 1563.75 Q1135.51 1563.75 1138.5 1561.58 Q1141.5 1559.42 1141.5 1555.41 Q1141.5 1551.91 1139.33 1549.93 Q1137.2 1547.96 1132.3 1546.97 L1128.38 1546.21 Q1121.19 1544.78 1117.97 1541.72 Q1114.76 1538.67 1114.76 1533.22 Q1114.76 1526.92 1119.18 1523.29 Q1123.64 1519.66 1131.44 1519.66 Q1134.78 1519.66 1138.25 1520.27 Q1141.72 1520.87 1145.35 1522.08 Z" fill="#000000" fill-rule="evenodd" fill-opacity="1" /><path clip-path="url(#clip150)" d="M1157.98 1532.4 L1163.84 1532.4 L1163.84 1568.04 L1157.98 1568.04 L1157.98 1532.4 M1157.98 1518.52 L1163.84 1518.52 L1163.84 1525.93 L1157.98 1525.93 L1157.98 1518.52 Z" fill="#000000" fill-rule="evenodd" fill-opacity="1" /><path clip-path="url(#clip150)" d="M1181.89 1522.27 L1181.89 1532.4 L1193.95 1532.4 L1193.95 1536.95 L1181.89 1536.95 L1181.89 1556.3 Q1181.89 1560.66 1183.06 1561.9 Q1184.27 1563.14 1187.93 1563.14 L1193.95 1563.14 L1193.95 1568.04 L1187.93 1568.04 Q1181.15 1568.04 1178.58 1565.53 Q1176 1562.98 1176 1556.3 L1176 1536.95 L1171.7 1536.95 L1171.7 1532.4 L1176 1532.4 L1176 1522.27 L1181.89 1522.27 Z" fill="#000000" fill-rule="evenodd" fill-opacity="1" /><path clip-path="url(#clip150)" d="M1232.14 1548.76 L1232.14 1551.62 L1205.22 1551.62 Q1205.6 1557.67 1208.84 1560.85 Q1212.12 1564 1217.95 1564 Q1221.32 1564 1224.47 1563.17 Q1227.66 1562.35 1230.77 1560.69 L1230.77 1566.23 Q1227.62 1567.57 1224.31 1568.27 Q1221 1568.97 1217.6 1568.97 Q1209.07 1568.97 1204.07 1564 Q1199.11 1559.04 1199.11 1550.57 Q1199.11 1541.82 1203.82 1536.69 Q1208.56 1531.54 1216.58 1531.54 Q1223.77 1531.54 1227.94 1536.18 Q1232.14 1540.8 1232.14 1548.76 M1226.29 1547.04 Q1226.22 1542.23 1223.58 1539.37 Q1220.97 1536.5 1216.64 1536.5 Q1211.74 1536.5 1208.78 1539.27 Q1205.85 1542.04 1205.41 1547.07 L1226.29 1547.04 Z" fill="#000000" fill-rule="evenodd" fill-opacity="1" /><path clip-path="url(#clip150)" d="M1262.73 1520.52 L1271.39 1520.52 L1292.46 1560.28 L1292.46 1520.52 L1298.7 1520.52 L1298.7 1568.04 L1290.04 1568.04 L1268.97 1528.29 L1268.97 1568.04 L1262.73 1568.04 L1262.73 1520.52 Z" fill="#000000" fill-rule="evenodd" fill-opacity="1" /><path clip-path="url(#clip150)" d="M1310.63 1553.98 L1310.63 1532.4 L1316.49 1532.4 L1316.49 1553.75 Q1316.49 1558.81 1318.46 1561.36 Q1320.44 1563.87 1324.38 1563.87 Q1329.12 1563.87 1331.86 1560.85 Q1334.63 1557.83 1334.63 1552.61 L1334.63 1532.4 L1340.49 1532.4 L1340.49 1568.04 L1334.63 1568.04 L1334.63 1562.57 Q1332.5 1565.82 1329.67 1567.41 Q1326.86 1568.97 1323.14 1568.97 Q1317 1568.97 1313.82 1565.15 Q1310.63 1561.33 1310.63 1553.98 M1325.37 1531.54 L1325.37 1531.54 Z" fill="#000000" fill-rule="evenodd" fill-opacity="1" /><path clip-path="url(#clip150)" d="M1380.31 1539.24 Q1382.5 1535.29 1385.56 1533.41 Q1388.61 1531.54 1392.75 1531.54 Q1398.32 1531.54 1401.34 1535.45 Q1404.37 1539.33 1404.37 1546.53 L1404.37 1568.04 L1398.48 1568.04 L1398.48 1546.72 Q1398.48 1541.59 1396.66 1539.11 Q1394.85 1536.63 1391.13 1536.63 Q1386.58 1536.63 1383.93 1539.65 Q1381.29 1542.68 1381.29 1547.9 L1381.29 1568.04 L1375.4 1568.04 L1375.4 1546.72 Q1375.4 1541.56 1373.59 1539.11 Q1371.78 1536.63 1367.99 1536.63 Q1363.5 1536.63 1360.86 1539.68 Q1358.22 1542.71 1358.22 1547.9 L1358.22 1568.04 L1352.33 1568.04 L1352.33 1532.4 L1358.22 1532.4 L1358.22 1537.93 Q1360.22 1534.66 1363.02 1533.1 Q1365.82 1531.54 1369.67 1531.54 Q1373.56 1531.54 1376.26 1533.51 Q1379 1535.48 1380.31 1539.24 Z" fill="#000000" fill-rule="evenodd" fill-opacity="1" /><path clip-path="url(#clip150)" d="M1441.64 1550.25 Q1441.64 1543.79 1438.97 1540.13 Q1436.32 1536.44 1431.68 1536.44 Q1427.03 1536.44 1424.36 1540.13 Q1421.71 1543.79 1421.71 1550.25 Q1421.71 1556.71 1424.36 1560.4 Q1427.03 1564.07 1431.68 1564.07 Q1436.32 1564.07 1438.97 1560.4 Q1441.64 1556.71 1441.64 1550.25 M1421.71 1537.81 Q1423.56 1534.62 1426.36 1533.1 Q1429.19 1531.54 1433.11 1531.54 Q1439.6 1531.54 1443.64 1536.69 Q1447.72 1541.85 1447.72 1550.25 Q1447.72 1558.65 1443.64 1563.81 Q1439.6 1568.97 1433.11 1568.97 Q1429.19 1568.97 1426.36 1567.44 Q1423.56 1565.88 1421.71 1562.7 L1421.71 1568.04 L1415.83 1568.04 L1415.83 1518.52 L1421.71 1518.52 L1421.71 1537.81 Z" fill="#000000" fill-rule="evenodd" fill-opacity="1" /><path clip-path="url(#clip150)" d="M1487.92 1548.76 L1487.92 1551.62 L1460.99 1551.62 Q1461.37 1557.67 1464.62 1560.85 Q1467.9 1564 1473.72 1564 Q1477.1 1564 1480.25 1563.17 Q1483.43 1562.35 1486.55 1560.69 L1486.55 1566.23 Q1483.4 1567.57 1480.09 1568.27 Q1476.78 1568.97 1473.37 1568.97 Q1464.84 1568.97 1459.84 1564 Q1454.88 1559.04 1454.88 1550.57 Q1454.88 1541.82 1459.59 1536.69 Q1464.33 1531.54 1472.35 1531.54 Q1479.55 1531.54 1483.72 1536.18 Q1487.92 1540.8 1487.92 1548.76 M1482.06 1547.04 Q1482 1542.23 1479.36 1539.37 Q1476.75 1536.5 1472.42 1536.5 Q1467.52 1536.5 1464.56 1539.27 Q1461.63 1542.04 1461.18 1547.07 L1482.06 1547.04 Z" fill="#000000" fill-rule="evenodd" fill-opacity="1" /><path clip-path="url(#clip150)" d="M1518.19 1537.87 Q1517.2 1537.3 1516.02 1537.04 Q1514.88 1536.76 1513.48 1536.76 Q1508.51 1536.76 1505.84 1540 Q1503.2 1543.22 1503.2 1549.27 L1503.2 1568.04 L1497.31 1568.04 L1497.31 1532.4 L1503.2 1532.4 L1503.2 1537.93 Q1505.04 1534.69 1508 1533.13 Q1510.96 1531.54 1515.19 1531.54 Q1515.8 1531.54 1516.53 1531.63 Q1517.26 1531.7 1518.15 1531.85 L1518.19 1537.87 Z" fill="#000000" fill-rule="evenodd" fill-opacity="1" /><polyline clip-path="url(#clip152)" style="stroke:#000000; stroke-linecap:round; stroke-linejoin:round; stroke-width:2; stroke-opacity:0.1; fill:none" points="
  280.19,1423.18 2352.76,1423.18 
  "/>
<polyline clip-path="url(#clip152)" style="stroke:#000000; stroke-linecap:round; stroke-linejoin:round; stroke-width:2; stroke-opacity:0.1; fill:none" points="
  280.19,1237.51 2352.76,1237.51 
  "/>
<polyline clip-path="url(#clip152)" style="stroke:#000000; stroke-linecap:round; stroke-linejoin:round; stroke-width:2; stroke-opacity:0.1; fill:none" points="
  280.19,1051.83 2352.76,1051.83 
  "/>
<polyline clip-path="url(#clip152)" style="stroke:#000000; stroke-linecap:round; stroke-linejoin:round; stroke-width:2; stroke-opacity:0.1; fill:none" points="
  280.19,866.162 2352.76,866.162 
  "/>
<polyline clip-path="url(#clip152)" style="stroke:#000000; stroke-linecap:round; stroke-linejoin:round; stroke-width:2; stroke-opacity:0.1; fill:none" points="
  280.19,680.49 2352.76,680.49 
  "/>
<polyline clip-path="url(#clip152)" style="stroke:#000000; stroke-linecap:round; stroke-linejoin:round; stroke-width:2; stroke-opacity:0.1; fill:none" points="
  280.19,494.817 2352.76,494.817 
  "/>
<polyline clip-path="url(#clip152)" style="stroke:#000000; stroke-linecap:round; stroke-linejoin:round; stroke-width:2; stroke-opacity:0.1; fill:none" points="
  280.19,309.145 2352.76,309.145 
  "/>
<polyline clip-path="url(#clip152)" style="stroke:#000000; stroke-linecap:round; stroke-linejoin:round; stroke-width:2; stroke-opacity:0.1; fill:none" points="
  280.19,123.472 2352.76,123.472 
  "/>
<polyline clip-path="url(#clip150)" style="stroke:#000000; stroke-linecap:round; stroke-linejoin:round; stroke-width:4; stroke-opacity:1; fill:none" points="
  280.19,1423.18 280.19,123.472 
  "/>
<polyline clip-path="url(#clip150)" style="stroke:#000000; stroke-linecap:round; stroke-linejoin:round; stroke-width:4; stroke-opacity:1; fill:none" points="
  280.19,1423.18 299.088,1423.18 
  "/>
<polyline clip-path="url(#clip150)" style="stroke:#000000; stroke-linecap:round; stroke-linejoin:round; stroke-width:4; stroke-opacity:1; fill:none" points="
  280.19,1237.51 299.088,1237.51 
  "/>
<polyline clip-path="url(#clip150)" style="stroke:#000000; stroke-linecap:round; stroke-linejoin:round; stroke-width:4; stroke-opacity:1; fill:none" points="
  280.19,1051.83 299.088,1051.83 
  "/>
<polyline clip-path="url(#clip150)" style="stroke:#000000; stroke-linecap:round; stroke-linejoin:round; stroke-width:4; stroke-opacity:1; fill:none" points="
  280.19,866.162 299.088,866.162 
  "/>
<polyline clip-path="url(#clip150)" style="stroke:#000000; stroke-linecap:round; stroke-linejoin:round; stroke-width:4; stroke-opacity:1; fill:none" points="
  280.19,680.49 299.088,680.49 
  "/>
<polyline clip-path="url(#clip150)" style="stroke:#000000; stroke-linecap:round; stroke-linejoin:round; stroke-width:4; stroke-opacity:1; fill:none" points="
  280.19,494.817 299.088,494.817 
  "/>
<polyline clip-path="url(#clip150)" style="stroke:#000000; stroke-linecap:round; stroke-linejoin:round; stroke-width:4; stroke-opacity:1; fill:none" points="
  280.19,309.145 299.088,309.145 
  "/>
<polyline clip-path="url(#clip150)" style="stroke:#000000; stroke-linecap:round; stroke-linejoin:round; stroke-width:4; stroke-opacity:1; fill:none" points="
  280.19,123.472 299.088,123.472 
  "/>
<path clip-path="url(#clip150)" d="M126.876 1408.98 Q123.265 1408.98 121.436 1412.54 Q119.63 1416.08 119.63 1423.21 Q119.63 1430.32 121.436 1433.89 Q123.265 1437.43 126.876 1437.43 Q130.51 1437.43 132.316 1433.89 Q134.144 1430.32 134.144 1423.21 Q134.144 1416.08 132.316 1412.54 Q130.51 1408.98 126.876 1408.98 M126.876 1405.27 Q132.686 1405.27 135.742 1409.88 Q138.82 1414.46 138.82 1423.21 Q138.82 1431.94 135.742 1436.55 Q132.686 1441.13 126.876 1441.13 Q121.066 1441.13 117.987 1436.55 Q114.931 1431.94 114.931 1423.21 Q114.931 1414.46 117.987 1409.88 Q121.066 1405.27 126.876 1405.27 Z" fill="#000000" fill-rule="evenodd" fill-opacity="1" /><path clip-path="url(#clip150)" d="M147.038 1434.58 L151.922 1434.58 L151.922 1440.46 L147.038 1440.46 L147.038 1434.58 Z" fill="#000000" fill-rule="evenodd" fill-opacity="1" /><path clip-path="url(#clip150)" d="M174.954 1409.97 L163.149 1428.42 L174.954 1428.42 L174.954 1409.97 M173.727 1405.9 L179.607 1405.9 L179.607 1428.42 L184.538 1428.42 L184.538 1432.31 L179.607 1432.31 L179.607 1440.46 L174.954 1440.46 L174.954 1432.31 L159.353 1432.31 L159.353 1427.8 L173.727 1405.9 Z" fill="#000000" fill-rule="evenodd" fill-opacity="1" /><path clip-path="url(#clip150)" d="M202.848 1421.32 Q199.7 1421.32 197.848 1423.47 Q196.019 1425.62 196.019 1429.37 Q196.019 1433.1 197.848 1435.27 Q199.7 1437.43 202.848 1437.43 Q205.996 1437.43 207.824 1435.27 Q209.676 1433.1 209.676 1429.37 Q209.676 1425.62 207.824 1423.47 Q205.996 1421.32 202.848 1421.32 M212.13 1406.66 L212.13 1410.92 Q210.371 1410.09 208.565 1409.65 Q206.783 1409.21 205.024 1409.21 Q200.394 1409.21 197.94 1412.33 Q195.51 1415.46 195.163 1421.78 Q196.528 1419.77 198.588 1418.7 Q200.649 1417.61 203.125 1417.61 Q208.334 1417.61 211.343 1420.78 Q214.375 1423.93 214.375 1429.37 Q214.375 1434.7 211.227 1437.91 Q208.079 1441.13 202.848 1441.13 Q196.852 1441.13 193.681 1436.55 Q190.51 1431.94 190.51 1423.21 Q190.51 1415.02 194.399 1410.16 Q198.287 1405.27 204.838 1405.27 Q206.598 1405.27 208.38 1405.62 Q210.186 1405.97 212.13 1406.66 Z" fill="#000000" fill-rule="evenodd" fill-opacity="1" /><path clip-path="url(#clip150)" d="M222.57 1439.74 L222.57 1435.48 Q224.329 1436.32 226.135 1436.76 Q227.94 1437.2 229.676 1437.2 Q234.306 1437.2 236.736 1434.09 Q239.19 1430.97 239.537 1424.63 Q238.195 1426.62 236.135 1427.68 Q234.074 1428.75 231.574 1428.75 Q226.389 1428.75 223.357 1425.62 Q220.348 1422.47 220.348 1417.03 Q220.348 1411.71 223.496 1408.49 Q226.644 1405.27 231.875 1405.27 Q237.871 1405.27 241.019 1409.88 Q244.19 1414.46 244.19 1423.21 Q244.19 1431.39 240.301 1436.27 Q236.435 1441.13 229.885 1441.13 Q228.125 1441.13 226.32 1440.78 Q224.514 1440.44 222.57 1439.74 M231.875 1425.09 Q235.023 1425.09 236.852 1422.94 Q238.704 1420.78 238.704 1417.03 Q238.704 1413.31 236.852 1411.15 Q235.023 1408.98 231.875 1408.98 Q228.727 1408.98 226.875 1411.15 Q225.047 1413.31 225.047 1417.03 Q225.047 1420.78 226.875 1422.94 Q228.727 1425.09 231.875 1425.09 Z" fill="#000000" fill-rule="evenodd" fill-opacity="1" /><path clip-path="url(#clip150)" d="M126.691 1223.31 Q123.08 1223.31 121.251 1226.87 Q119.445 1230.41 119.445 1237.54 Q119.445 1244.65 121.251 1248.21 Q123.08 1251.75 126.691 1251.75 Q130.325 1251.75 132.13 1248.21 Q133.959 1244.65 133.959 1237.54 Q133.959 1230.41 132.13 1226.87 Q130.325 1223.31 126.691 1223.31 M126.691 1219.6 Q132.501 1219.6 135.556 1224.21 Q138.635 1228.79 138.635 1237.54 Q138.635 1246.27 135.556 1250.88 Q132.501 1255.46 126.691 1255.46 Q120.88 1255.46 117.802 1250.88 Q114.746 1246.27 114.746 1237.54 Q114.746 1228.79 117.802 1224.21 Q120.88 1219.6 126.691 1219.6 Z" fill="#000000" fill-rule="evenodd" fill-opacity="1" /><path clip-path="url(#clip150)" d="M146.853 1248.91 L151.737 1248.91 L151.737 1254.79 L146.853 1254.79 L146.853 1248.91 Z" fill="#000000" fill-rule="evenodd" fill-opacity="1" /><path clip-path="url(#clip150)" d="M174.769 1224.3 L162.964 1242.75 L174.769 1242.75 L174.769 1224.3 M173.542 1220.23 L179.422 1220.23 L179.422 1242.75 L184.352 1242.75 L184.352 1246.64 L179.422 1246.64 L179.422 1254.79 L174.769 1254.79 L174.769 1246.64 L159.167 1246.64 L159.167 1242.13 L173.542 1220.23 Z" fill="#000000" fill-rule="evenodd" fill-opacity="1" /><path clip-path="url(#clip150)" d="M190.903 1220.23 L213.125 1220.23 L213.125 1222.22 L200.579 1254.79 L195.695 1254.79 L207.5 1224.16 L190.903 1224.16 L190.903 1220.23 Z" fill="#000000" fill-rule="evenodd" fill-opacity="1" /><path clip-path="url(#clip150)" d="M232.246 1223.31 Q228.635 1223.31 226.806 1226.87 Q225 1230.41 225 1237.54 Q225 1244.65 226.806 1248.21 Q228.635 1251.75 232.246 1251.75 Q235.88 1251.75 237.685 1248.21 Q239.514 1244.65 239.514 1237.54 Q239.514 1230.41 237.685 1226.87 Q235.88 1223.31 232.246 1223.31 M232.246 1219.6 Q238.056 1219.6 241.111 1224.21 Q244.19 1228.79 244.19 1237.54 Q244.19 1246.27 241.111 1250.88 Q238.056 1255.46 232.246 1255.46 Q226.435 1255.46 223.357 1250.88 Q220.301 1246.27 220.301 1237.54 Q220.301 1228.79 223.357 1224.21 Q226.435 1219.6 232.246 1219.6 Z" fill="#000000" fill-rule="evenodd" fill-opacity="1" /><path clip-path="url(#clip150)" d="M127.917 1037.63 Q124.306 1037.63 122.478 1041.2 Q120.672 1044.74 120.672 1051.87 Q120.672 1058.98 122.478 1062.54 Q124.306 1066.08 127.917 1066.08 Q131.552 1066.08 133.357 1062.54 Q135.186 1058.98 135.186 1051.87 Q135.186 1044.74 133.357 1041.2 Q131.552 1037.63 127.917 1037.63 M127.917 1033.93 Q133.728 1033.93 136.783 1038.54 Q139.862 1043.12 139.862 1051.87 Q139.862 1060.6 136.783 1065.2 Q133.728 1069.79 127.917 1069.79 Q122.107 1069.79 119.029 1065.2 Q115.973 1060.6 115.973 1051.87 Q115.973 1043.12 119.029 1038.54 Q122.107 1033.93 127.917 1033.93 Z" fill="#000000" fill-rule="evenodd" fill-opacity="1" /><path clip-path="url(#clip150)" d="M148.079 1063.24 L152.964 1063.24 L152.964 1069.11 L148.079 1069.11 L148.079 1063.24 Z" fill="#000000" fill-rule="evenodd" fill-opacity="1" /><path clip-path="url(#clip150)" d="M175.996 1038.63 L164.19 1057.08 L175.996 1057.08 L175.996 1038.63 M174.769 1034.55 L180.649 1034.55 L180.649 1057.08 L185.579 1057.08 L185.579 1060.97 L180.649 1060.97 L180.649 1069.11 L175.996 1069.11 L175.996 1060.97 L160.394 1060.97 L160.394 1056.45 L174.769 1034.55 Z" fill="#000000" fill-rule="evenodd" fill-opacity="1" /><path clip-path="url(#clip150)" d="M192.13 1034.55 L214.352 1034.55 L214.352 1036.55 L201.806 1069.11 L196.922 1069.11 L208.727 1038.49 L192.13 1038.49 L192.13 1034.55 Z" fill="#000000" fill-rule="evenodd" fill-opacity="1" /><path clip-path="url(#clip150)" d="M224.283 1065.18 L231.922 1065.18 L231.922 1038.81 L223.611 1040.48 L223.611 1036.22 L231.875 1034.55 L236.551 1034.55 L236.551 1065.18 L244.19 1065.18 L244.19 1069.11 L224.283 1069.11 L224.283 1065.18 Z" fill="#000000" fill-rule="evenodd" fill-opacity="1" /><path clip-path="url(#clip150)" d="M128.288 851.961 Q124.677 851.961 122.848 855.526 Q121.043 859.067 121.043 866.197 Q121.043 873.303 122.848 876.868 Q124.677 880.41 128.288 880.41 Q131.922 880.41 133.728 876.868 Q135.556 873.303 135.556 866.197 Q135.556 859.067 133.728 855.526 Q131.922 851.961 128.288 851.961 M128.288 848.257 Q134.098 848.257 137.154 852.864 Q140.232 857.447 140.232 866.197 Q140.232 874.924 137.154 879.53 Q134.098 884.114 128.288 884.114 Q122.478 884.114 119.399 879.53 Q116.343 874.924 116.343 866.197 Q116.343 857.447 119.399 852.864 Q122.478 848.257 128.288 848.257 Z" fill="#000000" fill-rule="evenodd" fill-opacity="1" /><path clip-path="url(#clip150)" d="M148.45 877.563 L153.334 877.563 L153.334 883.442 L148.45 883.442 L148.45 877.563 Z" fill="#000000" fill-rule="evenodd" fill-opacity="1" /><path clip-path="url(#clip150)" d="M176.366 852.956 L164.561 871.405 L176.366 871.405 L176.366 852.956 M175.139 848.882 L181.019 848.882 L181.019 871.405 L185.95 871.405 L185.95 875.294 L181.019 875.294 L181.019 883.442 L176.366 883.442 L176.366 875.294 L160.765 875.294 L160.765 870.78 L175.139 848.882 Z" fill="#000000" fill-rule="evenodd" fill-opacity="1" /><path clip-path="url(#clip150)" d="M192.5 848.882 L214.723 848.882 L214.723 850.873 L202.176 883.442 L197.292 883.442 L209.098 852.817 L192.5 852.817 L192.5 848.882 Z" fill="#000000" fill-rule="evenodd" fill-opacity="1" /><path clip-path="url(#clip150)" d="M227.871 879.507 L244.19 879.507 L244.19 883.442 L222.246 883.442 L222.246 879.507 Q224.908 876.752 229.491 872.123 Q234.097 867.47 235.278 866.128 Q237.523 863.604 238.403 861.868 Q239.306 860.109 239.306 858.419 Q239.306 855.665 237.361 853.929 Q235.44 852.192 232.338 852.192 Q230.139 852.192 227.685 852.956 Q225.255 853.72 222.477 855.271 L222.477 850.549 Q225.301 849.415 227.755 848.836 Q230.209 848.257 232.246 848.257 Q237.616 848.257 240.81 850.942 Q244.005 853.628 244.005 858.118 Q244.005 860.248 243.195 862.169 Q242.408 864.067 240.301 866.66 Q239.722 867.331 236.621 870.549 Q233.519 873.743 227.871 879.507 Z" fill="#000000" fill-rule="evenodd" fill-opacity="1" /><path clip-path="url(#clip150)" d="M127.339 666.288 Q123.728 666.288 121.899 669.853 Q120.093 673.395 120.093 680.524 Q120.093 687.631 121.899 691.196 Q123.728 694.737 127.339 694.737 Q130.973 694.737 132.779 691.196 Q134.607 687.631 134.607 680.524 Q134.607 673.395 132.779 669.853 Q130.973 666.288 127.339 666.288 M127.339 662.585 Q133.149 662.585 136.204 667.191 Q139.283 671.774 139.283 680.524 Q139.283 689.251 136.204 693.858 Q133.149 698.441 127.339 698.441 Q121.529 698.441 118.45 693.858 Q115.394 689.251 115.394 680.524 Q115.394 671.774 118.45 667.191 Q121.529 662.585 127.339 662.585 Z" fill="#000000" fill-rule="evenodd" fill-opacity="1" /><path clip-path="url(#clip150)" d="M147.501 691.89 L152.385 691.89 L152.385 697.77 L147.501 697.77 L147.501 691.89 Z" fill="#000000" fill-rule="evenodd" fill-opacity="1" /><path clip-path="url(#clip150)" d="M175.417 667.284 L163.612 685.733 L175.417 685.733 L175.417 667.284 M174.19 663.21 L180.07 663.21 L180.07 685.733 L185.001 685.733 L185.001 689.622 L180.07 689.622 L180.07 697.77 L175.417 697.77 L175.417 689.622 L159.815 689.622 L159.815 685.108 L174.19 663.21 Z" fill="#000000" fill-rule="evenodd" fill-opacity="1" /><path clip-path="url(#clip150)" d="M191.551 663.21 L213.774 663.21 L213.774 665.2 L201.227 697.77 L196.343 697.77 L208.149 667.145 L191.551 667.145 L191.551 663.21 Z" fill="#000000" fill-rule="evenodd" fill-opacity="1" /><path clip-path="url(#clip150)" d="M237.06 679.136 Q240.417 679.853 242.292 682.122 Q244.19 684.39 244.19 687.723 Q244.19 692.839 240.672 695.64 Q237.153 698.441 230.672 698.441 Q228.496 698.441 226.181 698.001 Q223.889 697.585 221.436 696.728 L221.436 692.214 Q223.38 693.348 225.695 693.927 Q228.01 694.506 230.533 694.506 Q234.931 694.506 237.222 692.77 Q239.537 691.034 239.537 687.723 Q239.537 684.668 237.384 682.955 Q235.255 681.219 231.435 681.219 L227.408 681.219 L227.408 677.376 L231.621 677.376 Q235.07 677.376 236.898 676.011 Q238.727 674.622 238.727 672.029 Q238.727 669.367 236.829 667.955 Q234.954 666.52 231.435 666.52 Q229.514 666.52 227.315 666.937 Q225.116 667.353 222.477 668.233 L222.477 664.066 Q225.139 663.325 227.454 662.955 Q229.792 662.585 231.852 662.585 Q237.176 662.585 240.278 665.015 Q243.38 667.423 243.38 671.543 Q243.38 674.413 241.736 676.404 Q240.093 678.372 237.06 679.136 Z" fill="#000000" fill-rule="evenodd" fill-opacity="1" /><path clip-path="url(#clip150)" d="M126.205 480.616 Q122.593 480.616 120.765 484.181 Q118.959 487.722 118.959 494.852 Q118.959 501.958 120.765 505.523 Q122.593 509.065 126.205 509.065 Q129.839 509.065 131.644 505.523 Q133.473 501.958 133.473 494.852 Q133.473 487.722 131.644 484.181 Q129.839 480.616 126.205 480.616 M126.205 476.912 Q132.015 476.912 135.07 481.519 Q138.149 486.102 138.149 494.852 Q138.149 503.579 135.07 508.185 Q132.015 512.768 126.205 512.768 Q120.394 512.768 117.316 508.185 Q114.26 503.579 114.26 494.852 Q114.26 486.102 117.316 481.519 Q120.394 476.912 126.205 476.912 Z" fill="#000000" fill-rule="evenodd" fill-opacity="1" /><path clip-path="url(#clip150)" d="M146.366 506.218 L151.251 506.218 L151.251 512.097 L146.366 512.097 L146.366 506.218 Z" fill="#000000" fill-rule="evenodd" fill-opacity="1" /><path clip-path="url(#clip150)" d="M174.283 481.611 L162.477 500.06 L174.283 500.06 L174.283 481.611 M173.056 477.537 L178.936 477.537 L178.936 500.06 L183.866 500.06 L183.866 503.949 L178.936 503.949 L178.936 512.097 L174.283 512.097 L174.283 503.949 L158.681 503.949 L158.681 499.435 L173.056 477.537 Z" fill="#000000" fill-rule="evenodd" fill-opacity="1" /><path clip-path="url(#clip150)" d="M190.417 477.537 L212.639 477.537 L212.639 479.528 L200.093 512.097 L195.209 512.097 L207.014 481.472 L190.417 481.472 L190.417 477.537 Z" fill="#000000" fill-rule="evenodd" fill-opacity="1" /><path clip-path="url(#clip150)" d="M234.607 481.611 L222.801 500.06 L234.607 500.06 L234.607 481.611 M233.38 477.537 L239.259 477.537 L239.259 500.06 L244.19 500.06 L244.19 503.949 L239.259 503.949 L239.259 512.097 L234.607 512.097 L234.607 503.949 L219.005 503.949 L219.005 499.435 L233.38 477.537 Z" fill="#000000" fill-rule="evenodd" fill-opacity="1" /><path clip-path="url(#clip150)" d="M127.686 294.943 Q124.075 294.943 122.246 298.508 Q120.441 302.05 120.441 309.179 Q120.441 316.286 122.246 319.851 Q124.075 323.392 127.686 323.392 Q131.32 323.392 133.126 319.851 Q134.954 316.286 134.954 309.179 Q134.954 302.05 133.126 298.508 Q131.32 294.943 127.686 294.943 M127.686 291.24 Q133.496 291.24 136.552 295.846 Q139.63 300.429 139.63 309.179 Q139.63 317.906 136.552 322.513 Q133.496 327.096 127.686 327.096 Q121.876 327.096 118.797 322.513 Q115.742 317.906 115.742 309.179 Q115.742 300.429 118.797 295.846 Q121.876 291.24 127.686 291.24 Z" fill="#000000" fill-rule="evenodd" fill-opacity="1" /><path clip-path="url(#clip150)" d="M147.848 320.545 L152.732 320.545 L152.732 326.425 L147.848 326.425 L147.848 320.545 Z" fill="#000000" fill-rule="evenodd" fill-opacity="1" /><path clip-path="url(#clip150)" d="M175.764 295.939 L163.959 314.388 L175.764 314.388 L175.764 295.939 M174.538 291.865 L180.417 291.865 L180.417 314.388 L185.348 314.388 L185.348 318.277 L180.417 318.277 L180.417 326.425 L175.764 326.425 L175.764 318.277 L160.163 318.277 L160.163 313.763 L174.538 291.865 Z" fill="#000000" fill-rule="evenodd" fill-opacity="1" /><path clip-path="url(#clip150)" d="M191.899 291.865 L214.121 291.865 L214.121 293.855 L201.575 326.425 L196.69 326.425 L208.496 295.8 L191.899 295.8 L191.899 291.865 Z" fill="#000000" fill-rule="evenodd" fill-opacity="1" /><path clip-path="url(#clip150)" d="M223.287 291.865 L241.644 291.865 L241.644 295.8 L227.57 295.8 L227.57 304.272 Q228.588 303.925 229.607 303.763 Q230.625 303.578 231.644 303.578 Q237.431 303.578 240.81 306.749 Q244.19 309.92 244.19 315.337 Q244.19 320.915 240.718 324.017 Q237.246 327.096 230.926 327.096 Q228.75 327.096 226.482 326.726 Q224.236 326.355 221.829 325.614 L221.829 320.915 Q223.912 322.05 226.135 322.605 Q228.357 323.161 230.834 323.161 Q234.838 323.161 237.176 321.054 Q239.514 318.948 239.514 315.337 Q239.514 311.726 237.176 309.619 Q234.838 307.513 230.834 307.513 Q228.959 307.513 227.084 307.929 Q225.232 308.346 223.287 309.226 L223.287 291.865 Z" fill="#000000" fill-rule="evenodd" fill-opacity="1" /><path clip-path="url(#clip150)" d="M126.529 109.271 Q122.918 109.271 121.089 112.836 Q119.283 116.377 119.283 123.507 Q119.283 130.613 121.089 134.178 Q122.918 137.72 126.529 137.72 Q130.163 137.72 131.968 134.178 Q133.797 130.613 133.797 123.507 Q133.797 116.377 131.968 112.836 Q130.163 109.271 126.529 109.271 M126.529 105.567 Q132.339 105.567 135.394 110.174 Q138.473 114.757 138.473 123.507 Q138.473 132.234 135.394 136.84 Q132.339 141.423 126.529 141.423 Q120.718 141.423 117.64 136.84 Q114.584 132.234 114.584 123.507 Q114.584 114.757 117.64 110.174 Q120.718 105.567 126.529 105.567 Z" fill="#000000" fill-rule="evenodd" fill-opacity="1" /><path clip-path="url(#clip150)" d="M146.691 134.873 L151.575 134.873 L151.575 140.752 L146.691 140.752 L146.691 134.873 Z" fill="#000000" fill-rule="evenodd" fill-opacity="1" /><path clip-path="url(#clip150)" d="M174.607 110.266 L162.802 128.715 L174.607 128.715 L174.607 110.266 M173.38 106.192 L179.26 106.192 L179.26 128.715 L184.19 128.715 L184.19 132.604 L179.26 132.604 L179.26 140.752 L174.607 140.752 L174.607 132.604 L159.005 132.604 L159.005 128.09 L173.38 106.192 Z" fill="#000000" fill-rule="evenodd" fill-opacity="1" /><path clip-path="url(#clip150)" d="M190.741 106.192 L212.963 106.192 L212.963 108.183 L200.417 140.752 L195.533 140.752 L207.338 110.127 L190.741 110.127 L190.741 106.192 Z" fill="#000000" fill-rule="evenodd" fill-opacity="1" /><path clip-path="url(#clip150)" d="M232.662 121.609 Q229.514 121.609 227.662 123.761 Q225.834 125.914 225.834 129.664 Q225.834 133.391 227.662 135.567 Q229.514 137.72 232.662 137.72 Q235.81 137.72 237.639 135.567 Q239.491 133.391 239.491 129.664 Q239.491 125.914 237.639 123.761 Q235.81 121.609 232.662 121.609 M241.945 106.956 L241.945 111.215 Q240.185 110.382 238.38 109.942 Q236.597 109.502 234.838 109.502 Q230.209 109.502 227.755 112.627 Q225.324 115.752 224.977 122.072 Q226.343 120.058 228.403 118.993 Q230.463 117.905 232.94 117.905 Q238.148 117.905 241.158 121.076 Q244.19 124.224 244.19 129.664 Q244.19 134.988 241.042 138.206 Q237.894 141.423 232.662 141.423 Q226.667 141.423 223.496 136.84 Q220.324 132.234 220.324 123.507 Q220.324 115.312 224.213 110.451 Q228.102 105.567 234.653 105.567 Q236.412 105.567 238.195 105.914 Q240 106.262 241.945 106.956 Z" fill="#000000" fill-rule="evenodd" fill-opacity="1" /><path clip-path="url(#clip150)" d="M16.4842 987.834 L16.4842 981.405 L64.0042 981.405 L64.0042 987.834 L16.4842 987.834 Z" fill="#000000" fill-rule="evenodd" fill-opacity="1" /><path clip-path="url(#clip150)" d="M42.4881 939.232 L64.0042 939.232 L64.0042 945.089 L42.679 945.089 Q37.6183 945.089 35.1038 947.062 Q32.5894 949.035 32.5894 952.982 Q32.5894 957.725 35.6131 960.462 Q38.6368 963.199 43.8567 963.199 L64.0042 963.199 L64.0042 969.087 L28.3562 969.087 L28.3562 963.199 L33.8944 963.199 Q30.6797 961.098 29.0883 958.266 Q27.4968 955.401 27.4968 951.677 Q27.4968 945.534 31.3163 942.383 Q35.1038 939.232 42.4881 939.232 Z" fill="#000000" fill-rule="evenodd" fill-opacity="1" /><path clip-path="url(#clip150)" d="M42.4881 897.919 L64.0042 897.919 L64.0042 903.775 L42.679 903.775 Q37.6183 903.775 35.1038 905.749 Q32.5894 907.722 32.5894 911.669 Q32.5894 916.411 35.6131 919.148 Q38.6368 921.886 43.8567 921.886 L64.0042 921.886 L64.0042 927.774 L28.3562 927.774 L28.3562 921.886 L33.8944 921.886 Q30.6797 919.785 29.0883 916.952 Q27.4968 914.088 27.4968 910.364 Q27.4968 904.221 31.3163 901.07 Q35.1038 897.919 42.4881 897.919 Z" fill="#000000" fill-rule="evenodd" fill-opacity="1" /><path clip-path="url(#clip150)" d="M44.7161 855.746 L47.5806 855.746 L47.5806 882.673 Q53.6281 882.291 56.8109 879.044 Q59.9619 875.766 59.9619 869.941 Q59.9619 866.568 59.1344 863.417 Q58.3069 860.234 56.6518 857.115 L62.1899 857.115 Q63.5267 860.266 64.227 863.576 Q64.9272 866.886 64.9272 870.292 Q64.9272 878.822 59.9619 883.819 Q54.9967 888.784 46.5303 888.784 Q37.7774 888.784 32.6531 884.073 Q27.4968 879.331 27.4968 871.31 Q27.4968 864.117 32.1438 859.947 Q36.7589 855.746 44.7161 855.746 M42.9973 861.602 Q38.1912 861.666 35.3266 864.308 Q32.4621 866.918 32.4621 871.246 Q32.4621 876.148 35.2312 879.108 Q38.0002 882.036 43.0292 882.482 L42.9973 861.602 Z" fill="#000000" fill-rule="evenodd" fill-opacity="1" /><path clip-path="url(#clip150)" d="M33.8307 825.477 Q33.2578 826.464 33.0032 827.641 Q32.7167 828.787 32.7167 830.188 Q32.7167 835.153 35.9632 837.827 Q39.1779 840.468 45.2253 840.468 L64.0042 840.468 L64.0042 846.357 L28.3562 846.357 L28.3562 840.468 L33.8944 840.468 Q30.6479 838.622 29.0883 835.662 Q27.4968 832.702 27.4968 828.469 Q27.4968 827.864 27.5923 827.132 Q27.656 826.4 27.8151 825.509 L33.8307 825.477 Z" fill="#000000" fill-rule="evenodd" fill-opacity="1" /><path clip-path="url(#clip150)" d="M21.7677 791.93 L39.6235 791.93 L39.6235 783.845 Q39.6235 779.357 37.3 776.907 Q34.9765 774.456 30.6797 774.456 Q26.4147 774.456 24.0912 776.907 Q21.7677 779.357 21.7677 783.845 L21.7677 791.93 M16.4842 798.359 L16.4842 783.845 Q16.4842 775.856 20.1126 771.782 Q23.7092 767.676 30.6797 767.676 Q37.7138 767.676 41.3104 771.782 Q44.907 775.856 44.907 783.845 L44.907 791.93 L64.0042 791.93 L64.0042 798.359 L16.4842 798.359 Z" fill="#000000" fill-rule="evenodd" fill-opacity="1" /><path clip-path="url(#clip150)" d="M33.8307 739.795 Q33.2578 740.781 33.0032 741.959 Q32.7167 743.105 32.7167 744.505 Q32.7167 749.47 35.9632 752.144 Q39.1779 754.786 45.2253 754.786 L64.0042 754.786 L64.0042 760.674 L28.3562 760.674 L28.3562 754.786 L33.8944 754.786 Q30.6479 752.94 29.0883 749.98 Q27.4968 747.02 27.4968 742.787 Q27.4968 742.182 27.5923 741.45 Q27.656 740.718 27.8151 739.826 L33.8307 739.795 Z" fill="#000000" fill-rule="evenodd" fill-opacity="1" /><path clip-path="url(#clip150)" d="M32.4621 721.27 Q32.4621 725.981 36.1542 728.718 Q39.8145 731.456 46.212 731.456 Q52.6095 731.456 56.3017 728.75 Q59.9619 726.013 59.9619 721.27 Q59.9619 716.592 56.2698 713.854 Q52.5777 711.117 46.212 711.117 Q39.8781 711.117 36.186 713.854 Q32.4621 716.592 32.4621 721.27 M27.4968 721.27 Q27.4968 713.632 32.4621 709.271 Q37.4273 704.911 46.212 704.911 Q54.9649 704.911 59.9619 709.271 Q64.9272 713.632 64.9272 721.27 Q64.9272 728.941 59.9619 733.302 Q54.9649 737.63 46.212 737.63 Q37.4273 737.63 32.4621 733.302 Q27.4968 728.941 27.4968 721.27 Z" fill="#000000" fill-rule="evenodd" fill-opacity="1" /><path clip-path="url(#clip150)" d="M33.7671 671.745 L14.479 671.745 L14.479 665.889 L64.0042 665.889 L64.0042 671.745 L58.657 671.745 Q61.8398 673.591 63.3994 676.424 Q64.9272 679.225 64.9272 683.172 Q64.9272 689.633 59.771 693.707 Q54.6147 697.749 46.212 697.749 Q37.8093 697.749 32.6531 693.707 Q27.4968 689.633 27.4968 683.172 Q27.4968 679.225 29.0564 676.424 Q30.5842 673.591 33.7671 671.745 M46.212 691.702 Q52.6732 691.702 56.3653 689.06 Q60.0256 686.386 60.0256 681.739 Q60.0256 677.092 56.3653 674.419 Q52.6732 671.745 46.212 671.745 Q39.7508 671.745 36.0905 674.419 Q32.3984 677.092 32.3984 681.739 Q32.3984 686.386 36.0905 689.06 Q39.7508 691.702 46.212 691.702 Z" fill="#000000" fill-rule="evenodd" fill-opacity="1" /><path clip-path="url(#clip150)" d="M49.9359 654.43 L28.3562 654.43 L28.3562 648.574 L49.7131 648.574 Q54.7739 648.574 57.3202 646.601 Q59.8346 644.627 59.8346 640.681 Q59.8346 635.938 56.8109 633.201 Q53.7872 630.432 48.5673 630.432 L28.3562 630.432 L28.3562 624.575 L64.0042 624.575 L64.0042 630.432 L58.5296 630.432 Q61.7762 632.564 63.3676 635.397 Q64.9272 638.198 64.9272 641.922 Q64.9272 648.065 61.1078 651.248 Q57.2883 654.43 49.9359 654.43 M27.4968 639.694 L27.4968 639.694 Z" fill="#000000" fill-rule="evenodd" fill-opacity="1" /><path clip-path="url(#clip150)" d="M29.7248 586.859 L35.1993 586.859 Q33.8307 589.341 33.1623 591.856 Q32.4621 594.338 32.4621 596.885 Q32.4621 602.582 36.0905 605.733 Q39.6872 608.884 46.212 608.884 Q52.7369 608.884 56.3653 605.733 Q59.9619 602.582 59.9619 596.885 Q59.9619 594.338 59.2935 591.856 Q58.5933 589.341 57.2247 586.859 L62.6355 586.859 Q63.7814 589.309 64.3543 591.951 Q64.9272 594.561 64.9272 597.521 Q64.9272 605.574 59.8664 610.316 Q54.8057 615.059 46.212 615.059 Q37.491 615.059 32.4939 610.284 Q27.4968 605.478 27.4968 597.139 Q27.4968 594.434 28.0697 591.856 Q28.6108 589.277 29.7248 586.859 Z" fill="#000000" fill-rule="evenodd" fill-opacity="1" /><path clip-path="url(#clip150)" d="M18.2347 570.881 L28.3562 570.881 L28.3562 558.818 L32.9077 558.818 L32.9077 570.881 L52.2594 570.881 Q56.6199 570.881 57.8613 569.703 Q59.1026 568.493 59.1026 564.833 L59.1026 558.818 L64.0042 558.818 L64.0042 564.833 Q64.0042 571.613 61.4897 574.191 Q58.9434 576.769 52.2594 576.769 L32.9077 576.769 L32.9077 581.066 L28.3562 581.066 L28.3562 576.769 L18.2347 576.769 L18.2347 570.881 Z" fill="#000000" fill-rule="evenodd" fill-opacity="1" /><path clip-path="url(#clip150)" d="M1186.05 17.6457 Q1177.14 17.6457 1171.88 24.2892 Q1166.65 30.9327 1166.65 42.3968 Q1166.65 53.8203 1171.88 60.4638 Q1177.14 67.1073 1186.05 67.1073 Q1194.97 67.1073 1200.15 60.4638 Q1205.38 53.8203 1205.38 42.3968 Q1205.38 30.9327 1200.15 24.2892 Q1194.97 17.6457 1186.05 17.6457 M1186.05 11.0023 Q1198.77 11.0023 1206.39 19.5497 Q1214.01 28.0566 1214.01 42.3968 Q1214.01 56.6965 1206.39 65.2439 Q1198.77 73.7508 1186.05 73.7508 Q1173.29 73.7508 1165.64 65.2439 Q1158.02 56.737 1158.02 42.3968 Q1158.02 28.0566 1165.64 19.5497 Q1173.29 11.0023 1186.05 11.0023 Z" fill="#000000" fill-rule="evenodd" fill-opacity="1" /><path clip-path="url(#clip150)" d="M1221.13 27.2059 L1229.03 27.2059 L1243.21 65.2844 L1257.39 27.2059 L1265.29 27.2059 L1248.28 72.576 L1238.15 72.576 L1221.13 27.2059 Z" fill="#000000" fill-rule="evenodd" fill-opacity="1" /><path clip-path="url(#clip150)" d="M1314.39 48.0275 L1314.39 51.6733 L1280.12 51.6733 Q1280.6 59.3701 1284.73 63.421 Q1288.91 67.4314 1296.32 67.4314 Q1300.61 67.4314 1304.62 66.3781 Q1308.67 65.3249 1312.64 63.2184 L1312.64 70.267 Q1308.63 71.9684 1304.42 72.8596 Q1300.21 73.7508 1295.87 73.7508 Q1285.02 73.7508 1278.66 67.4314 Q1272.34 61.1119 1272.34 50.3365 Q1272.34 39.1965 1278.33 32.6746 Q1284.37 26.1121 1294.58 26.1121 Q1303.73 26.1121 1309.04 32.0264 Q1314.39 37.9003 1314.39 48.0275 M1306.93 45.84 Q1306.85 39.7232 1303.49 36.0774 Q1300.17 32.4315 1294.66 32.4315 Q1288.42 32.4315 1284.65 35.9558 Q1280.93 39.4801 1280.36 45.8805 L1306.93 45.84 Z" fill="#000000" fill-rule="evenodd" fill-opacity="1" /><path clip-path="url(#clip150)" d="M1352.91 34.1734 Q1351.66 33.4443 1350.16 33.1202 Q1348.7 32.7556 1346.92 32.7556 Q1340.6 32.7556 1337.19 36.8875 Q1333.83 40.9789 1333.83 48.6757 L1333.83 72.576 L1326.34 72.576 L1326.34 27.2059 L1333.83 27.2059 L1333.83 34.2544 Q1336.18 30.1225 1339.95 28.1376 Q1343.72 26.1121 1349.1 26.1121 Q1349.87 26.1121 1350.8 26.2337 Q1351.74 26.3147 1352.87 26.5172 L1352.91 34.1734 Z" fill="#000000" fill-rule="evenodd" fill-opacity="1" /><path clip-path="url(#clip150)" d="M1360.73 9.54393 L1368.18 9.54393 L1368.18 72.576 L1360.73 72.576 L1360.73 9.54393 Z" fill="#000000" fill-rule="evenodd" fill-opacity="1" /><path clip-path="url(#clip150)" d="M1404.4 49.7694 Q1395.36 49.7694 1391.88 51.8354 Q1388.4 53.9013 1388.4 58.8839 Q1388.4 62.8538 1390.99 65.2034 Q1393.62 67.5124 1398.12 67.5124 Q1404.32 67.5124 1408.04 63.1374 Q1411.81 58.7219 1411.81 51.4303 L1411.81 49.7694 L1404.4 49.7694 M1419.26 46.6907 L1419.26 72.576 L1411.81 72.576 L1411.81 65.6895 Q1409.26 69.8214 1405.45 71.8063 Q1401.64 73.7508 1396.13 73.7508 Q1389.17 73.7508 1385.03 69.8619 Q1380.94 65.9325 1380.94 59.3701 Q1380.94 51.7138 1386.05 47.825 Q1391.19 43.9361 1401.36 43.9361 L1411.81 43.9361 L1411.81 43.2069 Q1411.81 38.0623 1408.41 35.2672 Q1405.05 32.4315 1398.93 32.4315 Q1395.04 32.4315 1391.35 33.3632 Q1387.67 34.295 1384.26 36.1584 L1384.26 29.2718 Q1388.36 27.692 1392.2 26.9223 Q1396.05 26.1121 1399.7 26.1121 Q1409.54 26.1121 1414.4 31.2163 Q1419.26 36.3204 1419.26 46.6907 Z" fill="#000000" fill-rule="evenodd" fill-opacity="1" /><path clip-path="url(#clip150)" d="M1441.83 65.7705 L1441.83 89.8329 L1434.33 89.8329 L1434.33 27.2059 L1441.83 27.2059 L1441.83 34.0924 Q1444.18 30.0415 1447.74 28.0971 Q1451.35 26.1121 1456.33 26.1121 Q1464.59 26.1121 1469.74 32.6746 Q1474.92 39.2371 1474.92 49.9314 Q1474.92 60.6258 1469.74 67.1883 Q1464.59 73.7508 1456.33 73.7508 Q1451.35 73.7508 1447.74 71.8063 Q1444.18 69.8214 1441.83 65.7705 M1467.19 49.9314 Q1467.19 41.7081 1463.78 37.0496 Q1460.42 32.3505 1454.51 32.3505 Q1448.59 32.3505 1445.19 37.0496 Q1441.83 41.7081 1441.83 49.9314 Q1441.83 58.1548 1445.19 62.8538 Q1448.59 67.5124 1454.51 67.5124 Q1460.42 67.5124 1463.78 62.8538 Q1467.19 58.1548 1467.19 49.9314 Z" fill="#000000" fill-rule="evenodd" fill-opacity="1" /><polyline clip-path="url(#clip152)" style="stroke:#000000; stroke-linecap:round; stroke-linejoin:round; stroke-width:4; stroke-opacity:1; fill:none" points="
  321.641,335.899 321.641,335.89 
  "/>
<polyline clip-path="url(#clip152)" style="stroke:#000000; stroke-linecap:round; stroke-linejoin:round; stroke-width:4; stroke-opacity:1; fill:none" points="
  363.093,1075.9 363.093,1075.88 
  "/>
<polyline clip-path="url(#clip152)" style="stroke:#000000; stroke-linecap:round; stroke-linejoin:round; stroke-width:4; stroke-opacity:1; fill:none" points="
  404.544,1232.06 404.544,1232.05 
  "/>
<polyline clip-path="url(#clip152)" style="stroke:#000000; stroke-linecap:round; stroke-linejoin:round; stroke-width:4; stroke-opacity:1; fill:none" points="
  445.995,1268.96 445.995,1268.08 
  "/>
<polyline clip-path="url(#clip152)" style="stroke:#000000; stroke-linecap:round; stroke-linejoin:round; stroke-width:4; stroke-opacity:1; fill:none" points="
  487.447,1278.54 487.447,1276.87 
  "/>
<polyline clip-path="url(#clip152)" style="stroke:#000000; stroke-linecap:round; stroke-linejoin:round; stroke-width:4; stroke-opacity:1; fill:none" points="
  528.898,1281.03 528.898,1279.3 
  "/>
<polyline clip-path="url(#clip152)" style="stroke:#000000; stroke-linecap:round; stroke-linejoin:round; stroke-width:4; stroke-opacity:1; fill:none" points="
  570.349,1281.81 570.349,1279.9 
  "/>
<polyline clip-path="url(#clip152)" style="stroke:#000000; stroke-linecap:round; stroke-linejoin:round; stroke-width:4; stroke-opacity:1; fill:none" points="
  611.801,1282.07 611.801,1280.03 
  "/>
<polyline clip-path="url(#clip152)" style="stroke:#000000; stroke-linecap:round; stroke-linejoin:round; stroke-width:4; stroke-opacity:1; fill:none" points="
  653.252,1282.16 653.252,1280.06 
  "/>
<polyline clip-path="url(#clip152)" style="stroke:#000000; stroke-linecap:round; stroke-linejoin:round; stroke-width:4; stroke-opacity:1; fill:none" points="
  694.703,1282.27 694.703,1279.98 
  "/>
<polyline clip-path="url(#clip152)" style="stroke:#000000; stroke-linecap:round; stroke-linejoin:round; stroke-width:4; stroke-opacity:1; fill:none" points="
  736.155,1282.24 736.155,1280.02 
  "/>
<polyline clip-path="url(#clip152)" style="stroke:#000000; stroke-linecap:round; stroke-linejoin:round; stroke-width:4; stroke-opacity:1; fill:none" points="
  777.606,1282.25 777.606,1280.01 
  "/>
<polyline clip-path="url(#clip152)" style="stroke:#000000; stroke-linecap:round; stroke-linejoin:round; stroke-width:4; stroke-opacity:1; fill:none" points="
  819.057,1282.25 819.057,1280.02 
  "/>
<polyline clip-path="url(#clip152)" style="stroke:#000000; stroke-linecap:round; stroke-linejoin:round; stroke-width:4; stroke-opacity:1; fill:none" points="
  860.508,1282.24 860.508,1280.03 
  "/>
<polyline clip-path="url(#clip152)" style="stroke:#000000; stroke-linecap:round; stroke-linejoin:round; stroke-width:4; stroke-opacity:1; fill:none" points="
  901.96,1282.25 901.96,1280.02 
  "/>
<polyline clip-path="url(#clip152)" style="stroke:#000000; stroke-linecap:round; stroke-linejoin:round; stroke-width:4; stroke-opacity:1; fill:none" points="
  943.411,1282.25 943.411,1280.02 
  "/>
<polyline clip-path="url(#clip152)" style="stroke:#000000; stroke-linecap:round; stroke-linejoin:round; stroke-width:4; stroke-opacity:1; fill:none" points="
  984.862,1282.26 984.862,1280.01 
  "/>
<polyline clip-path="url(#clip152)" style="stroke:#000000; stroke-linecap:round; stroke-linejoin:round; stroke-width:4; stroke-opacity:1; fill:none" points="
  1026.31,1282.26 1026.31,1280 
  "/>
<polyline clip-path="url(#clip152)" style="stroke:#000000; stroke-linecap:round; stroke-linejoin:round; stroke-width:4; stroke-opacity:1; fill:none" points="
  1067.77,1282.27 1067.77,1280 
  "/>
<polyline clip-path="url(#clip152)" style="stroke:#000000; stroke-linecap:round; stroke-linejoin:round; stroke-width:4; stroke-opacity:1; fill:none" points="
  1109.22,1282.27 1109.22,1280 
  "/>
<polyline clip-path="url(#clip152)" style="stroke:#000000; stroke-linecap:round; stroke-linejoin:round; stroke-width:4; stroke-opacity:1; fill:none" points="
  1150.67,1282.28 1150.67,1279.99 
  "/>
<polyline clip-path="url(#clip152)" style="stroke:#000000; stroke-linecap:round; stroke-linejoin:round; stroke-width:4; stroke-opacity:1; fill:none" points="
  1192.12,1282.3 1192.12,1279.97 
  "/>
<polyline clip-path="url(#clip152)" style="stroke:#000000; stroke-linecap:round; stroke-linejoin:round; stroke-width:4; stroke-opacity:1; fill:none" points="
  1233.57,1282.29 1233.57,1279.98 
  "/>
<polyline clip-path="url(#clip152)" style="stroke:#000000; stroke-linecap:round; stroke-linejoin:round; stroke-width:4; stroke-opacity:1; fill:none" points="
  1275.02,1282.29 1275.02,1279.98 
  "/>
<polyline clip-path="url(#clip152)" style="stroke:#000000; stroke-linecap:round; stroke-linejoin:round; stroke-width:4; stroke-opacity:1; fill:none" points="
  1316.47,1282.3 1316.47,1279.97 
  "/>
<polyline clip-path="url(#clip152)" style="stroke:#000000; stroke-linecap:round; stroke-linejoin:round; stroke-width:4; stroke-opacity:1; fill:none" points="
  1357.92,1282.3 1357.92,1279.97 
  "/>
<polyline clip-path="url(#clip152)" style="stroke:#000000; stroke-linecap:round; stroke-linejoin:round; stroke-width:4; stroke-opacity:1; fill:none" points="
  1399.38,1282.3 1399.38,1279.97 
  "/>
<polyline clip-path="url(#clip152)" style="stroke:#000000; stroke-linecap:round; stroke-linejoin:round; stroke-width:4; stroke-opacity:1; fill:none" points="
  1440.83,1282.31 1440.83,1279.97 
  "/>
<polyline clip-path="url(#clip152)" style="stroke:#000000; stroke-linecap:round; stroke-linejoin:round; stroke-width:4; stroke-opacity:1; fill:none" points="
  1482.28,1282.31 1482.28,1279.96 
  "/>
<polyline clip-path="url(#clip152)" style="stroke:#000000; stroke-linecap:round; stroke-linejoin:round; stroke-width:4; stroke-opacity:1; fill:none" points="
  1523.73,1282.31 1523.73,1279.95 
  "/>
<polyline clip-path="url(#clip152)" style="stroke:#000000; stroke-linecap:round; stroke-linejoin:round; stroke-width:4; stroke-opacity:1; fill:none" points="
  1565.18,1282.31 1565.18,1279.96 
  "/>
<polyline clip-path="url(#clip152)" style="stroke:#000000; stroke-linecap:round; stroke-linejoin:round; stroke-width:4; stroke-opacity:1; fill:none" points="
  1606.63,1282.31 1606.63,1279.95 
  "/>
<polyline clip-path="url(#clip152)" style="stroke:#000000; stroke-linecap:round; stroke-linejoin:round; stroke-width:4; stroke-opacity:1; fill:none" points="
  1648.08,1282.32 1648.08,1279.95 
  "/>
<polyline clip-path="url(#clip152)" style="stroke:#000000; stroke-linecap:round; stroke-linejoin:round; stroke-width:4; stroke-opacity:1; fill:none" points="
  1689.53,1282.32 1689.53,1279.95 
  "/>
<polyline clip-path="url(#clip152)" style="stroke:#000000; stroke-linecap:round; stroke-linejoin:round; stroke-width:4; stroke-opacity:1; fill:none" points="
  1730.99,1282.32 1730.99,1279.95 
  "/>
<polyline clip-path="url(#clip152)" style="stroke:#000000; stroke-linecap:round; stroke-linejoin:round; stroke-width:4; stroke-opacity:1; fill:none" points="
  1772.44,1282.32 1772.44,1279.95 
  "/>
<polyline clip-path="url(#clip152)" style="stroke:#000000; stroke-linecap:round; stroke-linejoin:round; stroke-width:4; stroke-opacity:1; fill:none" points="
  1813.89,1282.32 1813.89,1279.95 
  "/>
<polyline clip-path="url(#clip152)" style="stroke:#000000; stroke-linecap:round; stroke-linejoin:round; stroke-width:4; stroke-opacity:1; fill:none" points="
  1855.34,1282.31 1855.34,1279.95 
  "/>
<polyline clip-path="url(#clip152)" style="stroke:#000000; stroke-linecap:round; stroke-linejoin:round; stroke-width:4; stroke-opacity:1; fill:none" points="
  1896.79,1282.33 1896.79,1279.94 
  "/>
<polyline clip-path="url(#clip152)" style="stroke:#000000; stroke-linecap:round; stroke-linejoin:round; stroke-width:4; stroke-opacity:1; fill:none" points="
  1938.24,1282.29 1938.24,1279.98 
  "/>
<polyline clip-path="url(#clip152)" style="stroke:#000000; stroke-linecap:round; stroke-linejoin:round; stroke-width:4; stroke-opacity:1; fill:none" points="
  1979.69,1282.32 1979.69,1279.95 
  "/>
<polyline clip-path="url(#clip152)" style="stroke:#000000; stroke-linecap:round; stroke-linejoin:round; stroke-width:4; stroke-opacity:1; fill:none" points="
  2021.15,1282.32 2021.15,1279.95 
  "/>
<polyline clip-path="url(#clip152)" style="stroke:#000000; stroke-linecap:round; stroke-linejoin:round; stroke-width:4; stroke-opacity:1; fill:none" points="
  2062.6,1282.32 2062.6,1279.95 
  "/>
<polyline clip-path="url(#clip152)" style="stroke:#000000; stroke-linecap:round; stroke-linejoin:round; stroke-width:4; stroke-opacity:1; fill:none" points="
  2104.05,1282.32 2104.05,1279.95 
  "/>
<polyline clip-path="url(#clip152)" style="stroke:#000000; stroke-linecap:round; stroke-linejoin:round; stroke-width:4; stroke-opacity:1; fill:none" points="
  2145.5,1282.33 2145.5,1279.94 
  "/>
<polyline clip-path="url(#clip152)" style="stroke:#000000; stroke-linecap:round; stroke-linejoin:round; stroke-width:4; stroke-opacity:1; fill:none" points="
  2186.95,1282.29 2186.95,1279.98 
  "/>
<polyline clip-path="url(#clip152)" style="stroke:#000000; stroke-linecap:round; stroke-linejoin:round; stroke-width:4; stroke-opacity:1; fill:none" points="
  2228.4,1282.29 2228.4,1279.98 
  "/>
<polyline clip-path="url(#clip152)" style="stroke:#000000; stroke-linecap:round; stroke-linejoin:round; stroke-width:4; stroke-opacity:1; fill:none" points="
  2269.85,1282.33 2269.85,1279.94 
  "/>
<polyline clip-path="url(#clip152)" style="stroke:#000000; stroke-linecap:round; stroke-linejoin:round; stroke-width:4; stroke-opacity:1; fill:none" points="
  2311.3,1282.32 2311.3,1279.94 
  "/>
<line clip-path="url(#clip152)" x1="329.641" y1="335.899" x2="313.641" y2="335.899" style="stroke:#000000; stroke-width:3.2; stroke-opacity:1"/>
<line clip-path="url(#clip152)" x1="329.641" y1="335.89" x2="313.641" y2="335.89" style="stroke:#000000; stroke-width:3.2; stroke-opacity:1"/>
<line clip-path="url(#clip152)" x1="371.093" y1="1075.9" x2="355.093" y2="1075.9" style="stroke:#000000; stroke-width:3.2; stroke-opacity:1"/>
<line clip-path="url(#clip152)" x1="371.093" y1="1075.88" x2="355.093" y2="1075.88" style="stroke:#000000; stroke-width:3.2; stroke-opacity:1"/>
<line clip-path="url(#clip152)" x1="412.544" y1="1232.06" x2="396.544" y2="1232.06" style="stroke:#000000; stroke-width:3.2; stroke-opacity:1"/>
<line clip-path="url(#clip152)" x1="412.544" y1="1232.05" x2="396.544" y2="1232.05" style="stroke:#000000; stroke-width:3.2; stroke-opacity:1"/>
<line clip-path="url(#clip152)" x1="453.995" y1="1268.96" x2="437.995" y2="1268.96" style="stroke:#000000; stroke-width:3.2; stroke-opacity:1"/>
<line clip-path="url(#clip152)" x1="453.995" y1="1268.08" x2="437.995" y2="1268.08" style="stroke:#000000; stroke-width:3.2; stroke-opacity:1"/>
<line clip-path="url(#clip152)" x1="495.447" y1="1278.54" x2="479.447" y2="1278.54" style="stroke:#000000; stroke-width:3.2; stroke-opacity:1"/>
<line clip-path="url(#clip152)" x1="495.447" y1="1276.87" x2="479.447" y2="1276.87" style="stroke:#000000; stroke-width:3.2; stroke-opacity:1"/>
<line clip-path="url(#clip152)" x1="536.898" y1="1281.03" x2="520.898" y2="1281.03" style="stroke:#000000; stroke-width:3.2; stroke-opacity:1"/>
<line clip-path="url(#clip152)" x1="536.898" y1="1279.3" x2="520.898" y2="1279.3" style="stroke:#000000; stroke-width:3.2; stroke-opacity:1"/>
<line clip-path="url(#clip152)" x1="578.349" y1="1281.81" x2="562.349" y2="1281.81" style="stroke:#000000; stroke-width:3.2; stroke-opacity:1"/>
<line clip-path="url(#clip152)" x1="578.349" y1="1279.9" x2="562.349" y2="1279.9" style="stroke:#000000; stroke-width:3.2; stroke-opacity:1"/>
<line clip-path="url(#clip152)" x1="619.801" y1="1282.07" x2="603.801" y2="1282.07" style="stroke:#000000; stroke-width:3.2; stroke-opacity:1"/>
<line clip-path="url(#clip152)" x1="619.801" y1="1280.03" x2="603.801" y2="1280.03" style="stroke:#000000; stroke-width:3.2; stroke-opacity:1"/>
<line clip-path="url(#clip152)" x1="661.252" y1="1282.16" x2="645.252" y2="1282.16" style="stroke:#000000; stroke-width:3.2; stroke-opacity:1"/>
<line clip-path="url(#clip152)" x1="661.252" y1="1280.06" x2="645.252" y2="1280.06" style="stroke:#000000; stroke-width:3.2; stroke-opacity:1"/>
<line clip-path="url(#clip152)" x1="702.703" y1="1282.27" x2="686.703" y2="1282.27" style="stroke:#000000; stroke-width:3.2; stroke-opacity:1"/>
<line clip-path="url(#clip152)" x1="702.703" y1="1279.98" x2="686.703" y2="1279.98" style="stroke:#000000; stroke-width:3.2; stroke-opacity:1"/>
<line clip-path="url(#clip152)" x1="744.155" y1="1282.24" x2="728.155" y2="1282.24" style="stroke:#000000; stroke-width:3.2; stroke-opacity:1"/>
<line clip-path="url(#clip152)" x1="744.155" y1="1280.02" x2="728.155" y2="1280.02" style="stroke:#000000; stroke-width:3.2; stroke-opacity:1"/>
<line clip-path="url(#clip152)" x1="785.606" y1="1282.25" x2="769.606" y2="1282.25" style="stroke:#000000; stroke-width:3.2; stroke-opacity:1"/>
<line clip-path="url(#clip152)" x1="785.606" y1="1280.01" x2="769.606" y2="1280.01" style="stroke:#000000; stroke-width:3.2; stroke-opacity:1"/>
<line clip-path="url(#clip152)" x1="827.057" y1="1282.25" x2="811.057" y2="1282.25" style="stroke:#000000; stroke-width:3.2; stroke-opacity:1"/>
<line clip-path="url(#clip152)" x1="827.057" y1="1280.02" x2="811.057" y2="1280.02" style="stroke:#000000; stroke-width:3.2; stroke-opacity:1"/>
<line clip-path="url(#clip152)" x1="868.508" y1="1282.24" x2="852.508" y2="1282.24" style="stroke:#000000; stroke-width:3.2; stroke-opacity:1"/>
<line clip-path="url(#clip152)" x1="868.508" y1="1280.03" x2="852.508" y2="1280.03" style="stroke:#000000; stroke-width:3.2; stroke-opacity:1"/>
<line clip-path="url(#clip152)" x1="909.96" y1="1282.25" x2="893.96" y2="1282.25" style="stroke:#000000; stroke-width:3.2; stroke-opacity:1"/>
<line clip-path="url(#clip152)" x1="909.96" y1="1280.02" x2="893.96" y2="1280.02" style="stroke:#000000; stroke-width:3.2; stroke-opacity:1"/>
<line clip-path="url(#clip152)" x1="951.411" y1="1282.25" x2="935.411" y2="1282.25" style="stroke:#000000; stroke-width:3.2; stroke-opacity:1"/>
<line clip-path="url(#clip152)" x1="951.411" y1="1280.02" x2="935.411" y2="1280.02" style="stroke:#000000; stroke-width:3.2; stroke-opacity:1"/>
<line clip-path="url(#clip152)" x1="992.862" y1="1282.26" x2="976.862" y2="1282.26" style="stroke:#000000; stroke-width:3.2; stroke-opacity:1"/>
<line clip-path="url(#clip152)" x1="992.862" y1="1280.01" x2="976.862" y2="1280.01" style="stroke:#000000; stroke-width:3.2; stroke-opacity:1"/>
<line clip-path="url(#clip152)" x1="1034.31" y1="1282.26" x2="1018.31" y2="1282.26" style="stroke:#000000; stroke-width:3.2; stroke-opacity:1"/>
<line clip-path="url(#clip152)" x1="1034.31" y1="1280" x2="1018.31" y2="1280" style="stroke:#000000; stroke-width:3.2; stroke-opacity:1"/>
<line clip-path="url(#clip152)" x1="1075.77" y1="1282.27" x2="1059.77" y2="1282.27" style="stroke:#000000; stroke-width:3.2; stroke-opacity:1"/>
<line clip-path="url(#clip152)" x1="1075.77" y1="1280" x2="1059.77" y2="1280" style="stroke:#000000; stroke-width:3.2; stroke-opacity:1"/>
<line clip-path="url(#clip152)" x1="1117.22" y1="1282.27" x2="1101.22" y2="1282.27" style="stroke:#000000; stroke-width:3.2; stroke-opacity:1"/>
<line clip-path="url(#clip152)" x1="1117.22" y1="1280" x2="1101.22" y2="1280" style="stroke:#000000; stroke-width:3.2; stroke-opacity:1"/>
<line clip-path="url(#clip152)" x1="1158.67" y1="1282.28" x2="1142.67" y2="1282.28" style="stroke:#000000; stroke-width:3.2; stroke-opacity:1"/>
<line clip-path="url(#clip152)" x1="1158.67" y1="1279.99" x2="1142.67" y2="1279.99" style="stroke:#000000; stroke-width:3.2; stroke-opacity:1"/>
<line clip-path="url(#clip152)" x1="1200.12" y1="1282.3" x2="1184.12" y2="1282.3" style="stroke:#000000; stroke-width:3.2; stroke-opacity:1"/>
<line clip-path="url(#clip152)" x1="1200.12" y1="1279.97" x2="1184.12" y2="1279.97" style="stroke:#000000; stroke-width:3.2; stroke-opacity:1"/>
<line clip-path="url(#clip152)" x1="1241.57" y1="1282.29" x2="1225.57" y2="1282.29" style="stroke:#000000; stroke-width:3.2; stroke-opacity:1"/>
<line clip-path="url(#clip152)" x1="1241.57" y1="1279.98" x2="1225.57" y2="1279.98" style="stroke:#000000; stroke-width:3.2; stroke-opacity:1"/>
<line clip-path="url(#clip152)" x1="1283.02" y1="1282.29" x2="1267.02" y2="1282.29" style="stroke:#000000; stroke-width:3.2; stroke-opacity:1"/>
<line clip-path="url(#clip152)" x1="1283.02" y1="1279.98" x2="1267.02" y2="1279.98" style="stroke:#000000; stroke-width:3.2; stroke-opacity:1"/>
<line clip-path="url(#clip152)" x1="1324.47" y1="1282.3" x2="1308.47" y2="1282.3" style="stroke:#000000; stroke-width:3.2; stroke-opacity:1"/>
<line clip-path="url(#clip152)" x1="1324.47" y1="1279.97" x2="1308.47" y2="1279.97" style="stroke:#000000; stroke-width:3.2; stroke-opacity:1"/>
<line clip-path="url(#clip152)" x1="1365.92" y1="1282.3" x2="1349.92" y2="1282.3" style="stroke:#000000; stroke-width:3.2; stroke-opacity:1"/>
<line clip-path="url(#clip152)" x1="1365.92" y1="1279.97" x2="1349.92" y2="1279.97" style="stroke:#000000; stroke-width:3.2; stroke-opacity:1"/>
<line clip-path="url(#clip152)" x1="1407.38" y1="1282.3" x2="1391.38" y2="1282.3" style="stroke:#000000; stroke-width:3.2; stroke-opacity:1"/>
<line clip-path="url(#clip152)" x1="1407.38" y1="1279.97" x2="1391.38" y2="1279.97" style="stroke:#000000; stroke-width:3.2; stroke-opacity:1"/>
<line clip-path="url(#clip152)" x1="1448.83" y1="1282.31" x2="1432.83" y2="1282.31" style="stroke:#000000; stroke-width:3.2; stroke-opacity:1"/>
<line clip-path="url(#clip152)" x1="1448.83" y1="1279.97" x2="1432.83" y2="1279.97" style="stroke:#000000; stroke-width:3.2; stroke-opacity:1"/>
<line clip-path="url(#clip152)" x1="1490.28" y1="1282.31" x2="1474.28" y2="1282.31" style="stroke:#000000; stroke-width:3.2; stroke-opacity:1"/>
<line clip-path="url(#clip152)" x1="1490.28" y1="1279.96" x2="1474.28" y2="1279.96" style="stroke:#000000; stroke-width:3.2; stroke-opacity:1"/>
<line clip-path="url(#clip152)" x1="1531.73" y1="1282.31" x2="1515.73" y2="1282.31" style="stroke:#000000; stroke-width:3.2; stroke-opacity:1"/>
<line clip-path="url(#clip152)" x1="1531.73" y1="1279.95" x2="1515.73" y2="1279.95" style="stroke:#000000; stroke-width:3.2; stroke-opacity:1"/>
<line clip-path="url(#clip152)" x1="1573.18" y1="1282.31" x2="1557.18" y2="1282.31" style="stroke:#000000; stroke-width:3.2; stroke-opacity:1"/>
<line clip-path="url(#clip152)" x1="1573.18" y1="1279.96" x2="1557.18" y2="1279.96" style="stroke:#000000; stroke-width:3.2; stroke-opacity:1"/>
<line clip-path="url(#clip152)" x1="1614.63" y1="1282.31" x2="1598.63" y2="1282.31" style="stroke:#000000; stroke-width:3.2; stroke-opacity:1"/>
<line clip-path="url(#clip152)" x1="1614.63" y1="1279.95" x2="1598.63" y2="1279.95" style="stroke:#000000; stroke-width:3.2; stroke-opacity:1"/>
<line clip-path="url(#clip152)" x1="1656.08" y1="1282.32" x2="1640.08" y2="1282.32" style="stroke:#000000; stroke-width:3.2; stroke-opacity:1"/>
<line clip-path="url(#clip152)" x1="1656.08" y1="1279.95" x2="1640.08" y2="1279.95" style="stroke:#000000; stroke-width:3.2; stroke-opacity:1"/>
<line clip-path="url(#clip152)" x1="1697.53" y1="1282.32" x2="1681.53" y2="1282.32" style="stroke:#000000; stroke-width:3.2; stroke-opacity:1"/>
<line clip-path="url(#clip152)" x1="1697.53" y1="1279.95" x2="1681.53" y2="1279.95" style="stroke:#000000; stroke-width:3.2; stroke-opacity:1"/>
<line clip-path="url(#clip152)" x1="1738.99" y1="1282.32" x2="1722.99" y2="1282.32" style="stroke:#000000; stroke-width:3.2; stroke-opacity:1"/>
<line clip-path="url(#clip152)" x1="1738.99" y1="1279.95" x2="1722.99" y2="1279.95" style="stroke:#000000; stroke-width:3.2; stroke-opacity:1"/>
<line clip-path="url(#clip152)" x1="1780.44" y1="1282.32" x2="1764.44" y2="1282.32" style="stroke:#000000; stroke-width:3.2; stroke-opacity:1"/>
<line clip-path="url(#clip152)" x1="1780.44" y1="1279.95" x2="1764.44" y2="1279.95" style="stroke:#000000; stroke-width:3.2; stroke-opacity:1"/>
<line clip-path="url(#clip152)" x1="1821.89" y1="1282.32" x2="1805.89" y2="1282.32" style="stroke:#000000; stroke-width:3.2; stroke-opacity:1"/>
<line clip-path="url(#clip152)" x1="1821.89" y1="1279.95" x2="1805.89" y2="1279.95" style="stroke:#000000; stroke-width:3.2; stroke-opacity:1"/>
<line clip-path="url(#clip152)" x1="1863.34" y1="1282.31" x2="1847.34" y2="1282.31" style="stroke:#000000; stroke-width:3.2; stroke-opacity:1"/>
<line clip-path="url(#clip152)" x1="1863.34" y1="1279.95" x2="1847.34" y2="1279.95" style="stroke:#000000; stroke-width:3.2; stroke-opacity:1"/>
<line clip-path="url(#clip152)" x1="1904.79" y1="1282.33" x2="1888.79" y2="1282.33" style="stroke:#000000; stroke-width:3.2; stroke-opacity:1"/>
<line clip-path="url(#clip152)" x1="1904.79" y1="1279.94" x2="1888.79" y2="1279.94" style="stroke:#000000; stroke-width:3.2; stroke-opacity:1"/>
<line clip-path="url(#clip152)" x1="1946.24" y1="1282.29" x2="1930.24" y2="1282.29" style="stroke:#000000; stroke-width:3.2; stroke-opacity:1"/>
<line clip-path="url(#clip152)" x1="1946.24" y1="1279.98" x2="1930.24" y2="1279.98" style="stroke:#000000; stroke-width:3.2; stroke-opacity:1"/>
<line clip-path="url(#clip152)" x1="1987.69" y1="1282.32" x2="1971.69" y2="1282.32" style="stroke:#000000; stroke-width:3.2; stroke-opacity:1"/>
<line clip-path="url(#clip152)" x1="1987.69" y1="1279.95" x2="1971.69" y2="1279.95" style="stroke:#000000; stroke-width:3.2; stroke-opacity:1"/>
<line clip-path="url(#clip152)" x1="2029.15" y1="1282.32" x2="2013.15" y2="1282.32" style="stroke:#000000; stroke-width:3.2; stroke-opacity:1"/>
<line clip-path="url(#clip152)" x1="2029.15" y1="1279.95" x2="2013.15" y2="1279.95" style="stroke:#000000; stroke-width:3.2; stroke-opacity:1"/>
<line clip-path="url(#clip152)" x1="2070.6" y1="1282.32" x2="2054.6" y2="1282.32" style="stroke:#000000; stroke-width:3.2; stroke-opacity:1"/>
<line clip-path="url(#clip152)" x1="2070.6" y1="1279.95" x2="2054.6" y2="1279.95" style="stroke:#000000; stroke-width:3.2; stroke-opacity:1"/>
<line clip-path="url(#clip152)" x1="2112.05" y1="1282.32" x2="2096.05" y2="1282.32" style="stroke:#000000; stroke-width:3.2; stroke-opacity:1"/>
<line clip-path="url(#clip152)" x1="2112.05" y1="1279.95" x2="2096.05" y2="1279.95" style="stroke:#000000; stroke-width:3.2; stroke-opacity:1"/>
<line clip-path="url(#clip152)" x1="2153.5" y1="1282.33" x2="2137.5" y2="1282.33" style="stroke:#000000; stroke-width:3.2; stroke-opacity:1"/>
<line clip-path="url(#clip152)" x1="2153.5" y1="1279.94" x2="2137.5" y2="1279.94" style="stroke:#000000; stroke-width:3.2; stroke-opacity:1"/>
<line clip-path="url(#clip152)" x1="2194.95" y1="1282.29" x2="2178.95" y2="1282.29" style="stroke:#000000; stroke-width:3.2; stroke-opacity:1"/>
<line clip-path="url(#clip152)" x1="2194.95" y1="1279.98" x2="2178.95" y2="1279.98" style="stroke:#000000; stroke-width:3.2; stroke-opacity:1"/>
<line clip-path="url(#clip152)" x1="2236.4" y1="1282.29" x2="2220.4" y2="1282.29" style="stroke:#000000; stroke-width:3.2; stroke-opacity:1"/>
<line clip-path="url(#clip152)" x1="2236.4" y1="1279.98" x2="2220.4" y2="1279.98" style="stroke:#000000; stroke-width:3.2; stroke-opacity:1"/>
<line clip-path="url(#clip152)" x1="2277.85" y1="1282.33" x2="2261.85" y2="1282.33" style="stroke:#000000; stroke-width:3.2; stroke-opacity:1"/>
<line clip-path="url(#clip152)" x1="2277.85" y1="1279.94" x2="2261.85" y2="1279.94" style="stroke:#000000; stroke-width:3.2; stroke-opacity:1"/>
<line clip-path="url(#clip152)" x1="2319.3" y1="1282.32" x2="2303.3" y2="1282.32" style="stroke:#000000; stroke-width:3.2; stroke-opacity:1"/>
<line clip-path="url(#clip152)" x1="2319.3" y1="1279.94" x2="2303.3" y2="1279.94" style="stroke:#000000; stroke-width:3.2; stroke-opacity:1"/>
<circle clip-path="url(#clip152)" cx="321.641" cy="335.894" r="7.2" fill="#009af9" fill-rule="evenodd" fill-opacity="1" stroke="#000000" stroke-opacity="1" stroke-width="3.2"/>
<circle clip-path="url(#clip152)" cx="363.093" cy="1075.89" r="7.2" fill="#009af9" fill-rule="evenodd" fill-opacity="1" stroke="#000000" stroke-opacity="1" stroke-width="3.2"/>
<circle clip-path="url(#clip152)" cx="404.544" cy="1232.06" r="7.2" fill="#009af9" fill-rule="evenodd" fill-opacity="1" stroke="#000000" stroke-opacity="1" stroke-width="3.2"/>
<circle clip-path="url(#clip152)" cx="445.995" cy="1268.52" r="7.2" fill="#009af9" fill-rule="evenodd" fill-opacity="1" stroke="#000000" stroke-opacity="1" stroke-width="3.2"/>
<circle clip-path="url(#clip152)" cx="487.447" cy="1277.71" r="7.2" fill="#009af9" fill-rule="evenodd" fill-opacity="1" stroke="#000000" stroke-opacity="1" stroke-width="3.2"/>
<circle clip-path="url(#clip152)" cx="528.898" cy="1280.17" r="7.2" fill="#009af9" fill-rule="evenodd" fill-opacity="1" stroke="#000000" stroke-opacity="1" stroke-width="3.2"/>
<circle clip-path="url(#clip152)" cx="570.349" cy="1280.85" r="7.2" fill="#009af9" fill-rule="evenodd" fill-opacity="1" stroke="#000000" stroke-opacity="1" stroke-width="3.2"/>
<circle clip-path="url(#clip152)" cx="611.801" cy="1281.05" r="7.2" fill="#009af9" fill-rule="evenodd" fill-opacity="1" stroke="#000000" stroke-opacity="1" stroke-width="3.2"/>
<circle clip-path="url(#clip152)" cx="653.252" cy="1281.11" r="7.2" fill="#009af9" fill-rule="evenodd" fill-opacity="1" stroke="#000000" stroke-opacity="1" stroke-width="3.2"/>
<circle clip-path="url(#clip152)" cx="694.703" cy="1281.13" r="7.2" fill="#009af9" fill-rule="evenodd" fill-opacity="1" stroke="#000000" stroke-opacity="1" stroke-width="3.2"/>
<circle clip-path="url(#clip152)" cx="736.155" cy="1281.13" r="7.2" fill="#009af9" fill-rule="evenodd" fill-opacity="1" stroke="#000000" stroke-opacity="1" stroke-width="3.2"/>
<circle clip-path="url(#clip152)" cx="777.606" cy="1281.13" r="7.2" fill="#009af9" fill-rule="evenodd" fill-opacity="1" stroke="#000000" stroke-opacity="1" stroke-width="3.2"/>
<circle clip-path="url(#clip152)" cx="819.057" cy="1281.13" r="7.2" fill="#009af9" fill-rule="evenodd" fill-opacity="1" stroke="#000000" stroke-opacity="1" stroke-width="3.2"/>
<circle clip-path="url(#clip152)" cx="860.508" cy="1281.13" r="7.2" fill="#009af9" fill-rule="evenodd" fill-opacity="1" stroke="#000000" stroke-opacity="1" stroke-width="3.2"/>
<circle clip-path="url(#clip152)" cx="901.96" cy="1281.13" r="7.2" fill="#009af9" fill-rule="evenodd" fill-opacity="1" stroke="#000000" stroke-opacity="1" stroke-width="3.2"/>
<circle clip-path="url(#clip152)" cx="943.411" cy="1281.13" r="7.2" fill="#009af9" fill-rule="evenodd" fill-opacity="1" stroke="#000000" stroke-opacity="1" stroke-width="3.2"/>
<circle clip-path="url(#clip152)" cx="984.862" cy="1281.13" r="7.2" fill="#009af9" fill-rule="evenodd" fill-opacity="1" stroke="#000000" stroke-opacity="1" stroke-width="3.2"/>
<circle clip-path="url(#clip152)" cx="1026.31" cy="1281.13" r="7.2" fill="#009af9" fill-rule="evenodd" fill-opacity="1" stroke="#000000" stroke-opacity="1" stroke-width="3.2"/>
<circle clip-path="url(#clip152)" cx="1067.77" cy="1281.13" r="7.2" fill="#009af9" fill-rule="evenodd" fill-opacity="1" stroke="#000000" stroke-opacity="1" stroke-width="3.2"/>
<circle clip-path="url(#clip152)" cx="1109.22" cy="1281.13" r="7.2" fill="#009af9" fill-rule="evenodd" fill-opacity="1" stroke="#000000" stroke-opacity="1" stroke-width="3.2"/>
<circle clip-path="url(#clip152)" cx="1150.67" cy="1281.13" r="7.2" fill="#009af9" fill-rule="evenodd" fill-opacity="1" stroke="#000000" stroke-opacity="1" stroke-width="3.2"/>
<circle clip-path="url(#clip152)" cx="1192.12" cy="1281.13" r="7.2" fill="#009af9" fill-rule="evenodd" fill-opacity="1" stroke="#000000" stroke-opacity="1" stroke-width="3.2"/>
<circle clip-path="url(#clip152)" cx="1233.57" cy="1281.13" r="7.2" fill="#009af9" fill-rule="evenodd" fill-opacity="1" stroke="#000000" stroke-opacity="1" stroke-width="3.2"/>
<circle clip-path="url(#clip152)" cx="1275.02" cy="1281.13" r="7.2" fill="#009af9" fill-rule="evenodd" fill-opacity="1" stroke="#000000" stroke-opacity="1" stroke-width="3.2"/>
<circle clip-path="url(#clip152)" cx="1316.47" cy="1281.13" r="7.2" fill="#009af9" fill-rule="evenodd" fill-opacity="1" stroke="#000000" stroke-opacity="1" stroke-width="3.2"/>
<circle clip-path="url(#clip152)" cx="1357.92" cy="1281.13" r="7.2" fill="#009af9" fill-rule="evenodd" fill-opacity="1" stroke="#000000" stroke-opacity="1" stroke-width="3.2"/>
<circle clip-path="url(#clip152)" cx="1399.38" cy="1281.13" r="7.2" fill="#009af9" fill-rule="evenodd" fill-opacity="1" stroke="#000000" stroke-opacity="1" stroke-width="3.2"/>
<circle clip-path="url(#clip152)" cx="1440.83" cy="1281.14" r="7.2" fill="#009af9" fill-rule="evenodd" fill-opacity="1" stroke="#000000" stroke-opacity="1" stroke-width="3.2"/>
<circle clip-path="url(#clip152)" cx="1482.28" cy="1281.13" r="7.2" fill="#009af9" fill-rule="evenodd" fill-opacity="1" stroke="#000000" stroke-opacity="1" stroke-width="3.2"/>
<circle clip-path="url(#clip152)" cx="1523.73" cy="1281.13" r="7.2" fill="#009af9" fill-rule="evenodd" fill-opacity="1" stroke="#000000" stroke-opacity="1" stroke-width="3.2"/>
<circle clip-path="url(#clip152)" cx="1565.18" cy="1281.13" r="7.2" fill="#009af9" fill-rule="evenodd" fill-opacity="1" stroke="#000000" stroke-opacity="1" stroke-width="3.2"/>
<circle clip-path="url(#clip152)" cx="1606.63" cy="1281.13" r="7.2" fill="#009af9" fill-rule="evenodd" fill-opacity="1" stroke="#000000" stroke-opacity="1" stroke-width="3.2"/>
<circle clip-path="url(#clip152)" cx="1648.08" cy="1281.13" r="7.2" fill="#009af9" fill-rule="evenodd" fill-opacity="1" stroke="#000000" stroke-opacity="1" stroke-width="3.2"/>
<circle clip-path="url(#clip152)" cx="1689.53" cy="1281.13" r="7.2" fill="#009af9" fill-rule="evenodd" fill-opacity="1" stroke="#000000" stroke-opacity="1" stroke-width="3.2"/>
<circle clip-path="url(#clip152)" cx="1730.99" cy="1281.13" r="7.2" fill="#009af9" fill-rule="evenodd" fill-opacity="1" stroke="#000000" stroke-opacity="1" stroke-width="3.2"/>
<circle clip-path="url(#clip152)" cx="1772.44" cy="1281.13" r="7.2" fill="#009af9" fill-rule="evenodd" fill-opacity="1" stroke="#000000" stroke-opacity="1" stroke-width="3.2"/>
<circle clip-path="url(#clip152)" cx="1813.89" cy="1281.13" r="7.2" fill="#009af9" fill-rule="evenodd" fill-opacity="1" stroke="#000000" stroke-opacity="1" stroke-width="3.2"/>
<circle clip-path="url(#clip152)" cx="1855.34" cy="1281.13" r="7.2" fill="#009af9" fill-rule="evenodd" fill-opacity="1" stroke="#000000" stroke-opacity="1" stroke-width="3.2"/>
<circle clip-path="url(#clip152)" cx="1896.79" cy="1281.13" r="7.2" fill="#009af9" fill-rule="evenodd" fill-opacity="1" stroke="#000000" stroke-opacity="1" stroke-width="3.2"/>
<circle clip-path="url(#clip152)" cx="1938.24" cy="1281.13" r="7.2" fill="#009af9" fill-rule="evenodd" fill-opacity="1" stroke="#000000" stroke-opacity="1" stroke-width="3.2"/>
<circle clip-path="url(#clip152)" cx="1979.69" cy="1281.13" r="7.2" fill="#009af9" fill-rule="evenodd" fill-opacity="1" stroke="#000000" stroke-opacity="1" stroke-width="3.2"/>
<circle clip-path="url(#clip152)" cx="2021.15" cy="1281.13" r="7.2" fill="#009af9" fill-rule="evenodd" fill-opacity="1" stroke="#000000" stroke-opacity="1" stroke-width="3.2"/>
<circle clip-path="url(#clip152)" cx="2062.6" cy="1281.13" r="7.2" fill="#009af9" fill-rule="evenodd" fill-opacity="1" stroke="#000000" stroke-opacity="1" stroke-width="3.2"/>
<circle clip-path="url(#clip152)" cx="2104.05" cy="1281.13" r="7.2" fill="#009af9" fill-rule="evenodd" fill-opacity="1" stroke="#000000" stroke-opacity="1" stroke-width="3.2"/>
<circle clip-path="url(#clip152)" cx="2145.5" cy="1281.13" r="7.2" fill="#009af9" fill-rule="evenodd" fill-opacity="1" stroke="#000000" stroke-opacity="1" stroke-width="3.2"/>
<circle clip-path="url(#clip152)" cx="2186.95" cy="1281.13" r="7.2" fill="#009af9" fill-rule="evenodd" fill-opacity="1" stroke="#000000" stroke-opacity="1" stroke-width="3.2"/>
<circle clip-path="url(#clip152)" cx="2228.4" cy="1281.13" r="7.2" fill="#009af9" fill-rule="evenodd" fill-opacity="1" stroke="#000000" stroke-opacity="1" stroke-width="3.2"/>
<circle clip-path="url(#clip152)" cx="2269.85" cy="1281.13" r="7.2" fill="#009af9" fill-rule="evenodd" fill-opacity="1" stroke="#000000" stroke-opacity="1" stroke-width="3.2"/>
<circle clip-path="url(#clip152)" cx="2311.3" cy="1281.13" r="7.2" fill="#009af9" fill-rule="evenodd" fill-opacity="1" stroke="#000000" stroke-opacity="1" stroke-width="3.2"/>
<path clip-path="url(#clip150)" d="
M1718.64 270.476 L2283.67 270.476 L2283.67 166.796 L1718.64 166.796  Z
  " fill="#ffffff" fill-rule="evenodd" fill-opacity="1"/>
<polyline clip-path="url(#clip150)" style="stroke:#000000; stroke-linecap:round; stroke-linejoin:round; stroke-width:4; stroke-opacity:1; fill:none" points="
  1718.64,270.476 2283.67,270.476 2283.67,166.796 1718.64,166.796 1718.64,270.476 
  "/>
<circle clip-path="url(#clip150)" cx="1810.75" cy="218.636" r="23.04" fill="#009af9" fill-rule="evenodd" fill-opacity="1" stroke="#000000" stroke-opacity="1" stroke-width="10.24"/>
<path clip-path="url(#clip150)" d="M1923.21 214.967 Q1924.81 212.096 1927.03 210.731 Q1929.25 209.365 1932.26 209.365 Q1936.31 209.365 1938.51 212.212 Q1940.71 215.036 1940.71 220.268 L1940.71 235.916 L1936.43 235.916 L1936.43 220.407 Q1936.43 216.68 1935.11 214.874 Q1933.79 213.069 1931.08 213.069 Q1927.77 213.069 1925.85 215.268 Q1923.93 217.467 1923.93 221.263 L1923.93 235.916 L1919.65 235.916 L1919.65 220.407 Q1919.65 216.657 1918.33 214.874 Q1917.01 213.069 1914.25 213.069 Q1910.99 213.069 1909.07 215.291 Q1907.15 217.49 1907.15 221.263 L1907.15 235.916 L1902.87 235.916 L1902.87 209.99 L1907.15 209.99 L1907.15 214.018 Q1908.61 211.633 1910.64 210.499 Q1912.68 209.365 1915.48 209.365 Q1918.31 209.365 1920.27 210.8 Q1922.26 212.235 1923.21 214.967 Z" fill="#000000" fill-rule="evenodd" fill-opacity="1" /><path clip-path="url(#clip150)" d="M1957.94 220.245 Q1956.78 218.254 1954.44 218.254 Q1952.1 218.254 1950.94 220.245 Q1949.76 222.235 1949.76 226.217 Q1949.76 230.221 1950.94 232.212 Q1952.1 234.203 1954.44 234.203 Q1956.78 234.203 1957.94 232.212 Q1959.12 230.221 1959.12 226.217 Q1959.12 222.235 1957.94 220.245 M1954.44 216.194 Q1958.17 216.194 1960.13 218.763 Q1962.1 221.332 1962.1 226.217 Q1962.1 231.124 1960.13 233.694 Q1958.17 236.263 1954.44 236.263 Q1950.69 236.263 1948.72 233.694 Q1946.75 231.124 1946.75 226.217 Q1946.75 221.332 1948.72 218.763 Q1950.69 216.194 1954.44 216.194 Z" fill="#000000" fill-rule="evenodd" fill-opacity="1" /><path clip-path="url(#clip150)" d="M1968.77 214.388 L1998.44 214.388 L1998.44 218.277 L1968.77 218.277 L1968.77 214.388 M1968.77 223.832 L1998.44 223.832 L1998.44 227.768 L1968.77 227.768 L1968.77 223.832 Z" fill="#000000" fill-rule="evenodd" fill-opacity="1" /><path clip-path="url(#clip150)" d="M2018.54 204.434 Q2014.93 204.434 2013.1 207.999 Q2011.29 211.541 2011.29 218.67 Q2011.29 225.777 2013.1 229.342 Q2014.93 232.883 2018.54 232.883 Q2022.17 232.883 2023.98 229.342 Q2025.81 225.777 2025.81 218.67 Q2025.81 211.541 2023.98 207.999 Q2022.17 204.434 2018.54 204.434 M2018.54 200.731 Q2024.35 200.731 2027.4 205.337 Q2030.48 209.92 2030.48 218.67 Q2030.48 227.397 2027.4 232.004 Q2024.35 236.587 2018.54 236.587 Q2012.73 236.587 2009.65 232.004 Q2006.59 227.397 2006.59 218.67 Q2006.59 209.92 2009.65 205.337 Q2012.73 200.731 2018.54 200.731 Z" fill="#000000" fill-rule="evenodd" fill-opacity="1" /><path clip-path="url(#clip150)" d="M2038.7 230.036 L2043.58 230.036 L2043.58 235.916 L2038.7 235.916 L2038.7 230.036 Z" fill="#000000" fill-rule="evenodd" fill-opacity="1" /><path clip-path="url(#clip150)" d="M2053.81 201.356 L2072.17 201.356 L2072.17 205.291 L2058.1 205.291 L2058.1 213.763 Q2059.12 213.416 2060.13 213.254 Q2061.15 213.069 2062.17 213.069 Q2067.96 213.069 2071.34 216.24 Q2074.72 219.411 2074.72 224.828 Q2074.72 230.406 2071.24 233.508 Q2067.77 236.587 2061.45 236.587 Q2059.28 236.587 2057.01 236.217 Q2054.76 235.846 2052.36 235.106 L2052.36 230.406 Q2054.44 231.541 2056.66 232.096 Q2058.88 232.652 2061.36 232.652 Q2065.37 232.652 2067.7 230.545 Q2070.04 228.439 2070.04 224.828 Q2070.04 221.217 2067.7 219.11 Q2065.37 217.004 2061.36 217.004 Q2059.49 217.004 2057.61 217.42 Q2055.76 217.837 2053.81 218.717 L2053.81 201.356 Z" fill="#000000" fill-rule="evenodd" fill-opacity="1" /><path clip-path="url(#clip150)" d="M2084.42 230.036 L2089.3 230.036 L2089.3 234.018 L2085.5 241.425 L2082.52 241.425 L2084.42 234.018 L2084.42 230.036 Z" fill="#000000" fill-rule="evenodd" fill-opacity="1" /><path clip-path="url(#clip150)" d="M2122.15 230.985 L2122.15 221.703 L2114.51 221.703 L2114.51 217.86 L2126.78 217.86 L2126.78 232.698 Q2124.07 234.619 2120.8 235.615 Q2117.54 236.587 2113.84 236.587 Q2105.74 236.587 2101.15 231.865 Q2096.59 227.119 2096.59 218.67 Q2096.59 210.198 2101.15 205.476 Q2105.74 200.731 2113.84 200.731 Q2117.22 200.731 2120.25 201.564 Q2123.3 202.397 2125.87 204.018 L2125.87 208.995 Q2123.28 206.796 2120.36 205.684 Q2117.45 204.573 2114.23 204.573 Q2107.89 204.573 2104.69 208.115 Q2101.52 211.657 2101.52 218.67 Q2101.52 225.661 2104.69 229.203 Q2107.89 232.744 2114.23 232.744 Q2116.71 232.744 2118.65 232.328 Q2120.6 231.888 2122.15 230.985 Z" fill="#000000" fill-rule="evenodd" fill-opacity="1" /><path clip-path="url(#clip150)" d="M2136.87 217.814 L2146.68 217.814 L2146.68 220.453 L2132.84 220.453 L2132.84 217.907 Q2133.63 217.189 2135.09 215.893 Q2143.05 208.833 2143.05 206.657 Q2143.05 205.129 2141.85 204.203 Q2140.64 203.254 2138.67 203.254 Q2137.47 203.254 2136.06 203.671 Q2134.65 204.064 2132.98 204.874 L2132.98 202.027 Q2134.76 201.379 2136.29 201.055 Q2137.84 200.731 2139.16 200.731 Q2142.52 200.731 2144.53 202.258 Q2146.55 203.786 2146.55 206.286 Q2146.55 209.504 2138.88 216.078 Q2137.59 217.189 2136.87 217.814 Z" fill="#000000" fill-rule="evenodd" fill-opacity="1" /><path clip-path="url(#clip150)" d="M2154.69 214.388 L2184.37 214.388 L2184.37 218.277 L2154.69 218.277 L2154.69 214.388 M2154.69 223.832 L2184.37 223.832 L2184.37 227.768 L2154.69 227.768 L2154.69 223.832 Z" fill="#000000" fill-rule="evenodd" fill-opacity="1" /><path clip-path="url(#clip150)" d="M2204.46 204.434 Q2200.85 204.434 2199.02 207.999 Q2197.22 211.541 2197.22 218.67 Q2197.22 225.777 2199.02 229.342 Q2200.85 232.883 2204.46 232.883 Q2208.1 232.883 2209.9 229.342 Q2211.73 225.777 2211.73 218.67 Q2211.73 211.541 2209.9 207.999 Q2208.1 204.434 2204.46 204.434 M2204.46 200.731 Q2210.27 200.731 2213.33 205.337 Q2216.41 209.92 2216.41 218.67 Q2216.41 227.397 2213.33 232.004 Q2210.27 236.587 2204.46 236.587 Q2198.65 236.587 2195.57 232.004 Q2192.52 227.397 2192.52 218.67 Q2192.52 209.92 2195.57 205.337 Q2198.65 200.731 2204.46 200.731 Z" fill="#000000" fill-rule="evenodd" fill-opacity="1" /><path clip-path="url(#clip150)" d="M2224.62 230.036 L2229.51 230.036 L2229.51 235.916 L2224.62 235.916 L2224.62 230.036 Z" fill="#000000" fill-rule="evenodd" fill-opacity="1" /><path clip-path="url(#clip150)" d="M2239.74 201.356 L2258.1 201.356 L2258.1 205.291 L2244.02 205.291 L2244.02 213.763 Q2245.04 213.416 2246.06 213.254 Q2247.08 213.069 2248.1 213.069 Q2253.88 213.069 2257.26 216.24 Q2260.64 219.411 2260.64 224.828 Q2260.64 230.406 2257.17 233.508 Q2253.7 236.587 2247.38 236.587 Q2245.2 236.587 2242.93 236.217 Q2240.69 235.846 2238.28 235.106 L2238.28 230.406 Q2240.36 231.541 2242.59 232.096 Q2244.81 232.652 2247.29 232.652 Q2251.29 232.652 2253.63 230.545 Q2255.97 228.439 2255.97 224.828 Q2255.97 221.217 2253.63 219.11 Q2251.29 217.004 2247.29 217.004 Q2245.41 217.004 2243.54 217.42 Q2241.68 217.837 2239.74 218.717 L2239.74 201.356 Z" fill="#000000" fill-rule="evenodd" fill-opacity="1" /></svg>
