<?xml version="1.0" encoding="utf-8"?>
<svg xmlns="http://www.w3.org/2000/svg" xmlns:xlink="http://www.w3.org/1999/xlink" width="600" height="400" viewBox="0 0 2400 1600">
<defs>
  <clipPath id="clip750">
    <rect x="0" y="0" width="2400" height="1600"/>
  </clipPath>
</defs>
<path clip-path="url(#clip750)" d="
M0 1600 L2400 1600 L2400 0 L0 0  Z
  " fill="#ffffff" fill-rule="evenodd" fill-opacity="1"/>
<defs>
  <clipPath id="clip751">
    <rect x="480" y="0" width="1681" height="1600"/>
  </clipPath>
</defs>
<path clip-path="url(#clip750)" d="
M280.19 1423.18 L2352.76 1423.18 L2352.76 123.472 L280.19 123.472  Z
  " fill="#ffffff" fill-rule="evenodd" fill-opacity="1"/>
<defs>
  <clipPath id="clip752">
    <rect x="280" y="123" width="2074" height="1301"/>
  </clipPath>
</defs>
<polyline clip-path="url(#clip752)" style="stroke:#000000; stroke-linecap:round; stroke-linejoin:round; stroke-width:2; stroke-opacity:0.1; fill:none" points="
  280.19,1423.18 280.19,123.472 
  "/>
<polyline clip-path="url(#clip752)" style="stroke:#000000; stroke-linecap:round; stroke-linejoin:round; stroke-width:2; stroke-opacity:0.1; fill:none" points="
  487.447,1423.18 487.447,123.472 
  "/>
<polyline clip-path="url(#clip752)" style="stroke:#000000; stroke-linecap:round; stroke-linejoin:round; stroke-width:2; stroke-opacity:0.1; fill:none" points="
  694.703,1423.18 694.703,123.472 
  "/>
<polyline clip-path="url(#clip752)" style="stroke:#000000; stroke-linecap:round; stroke-linejoin:round; stroke-width:2; stroke-opacity:0.1; fill:none" points="
  901.96,1423.18 901.96,123.472 
  "/>
<polyline clip-path="url(#clip752)" style="stroke:#000000; stroke-linecap:round; stroke-linejoin:round; stroke-width:2; stroke-opacity:0.1; fill:none" points="
  1109.22,1423.18 1109.22,123.472 
  "/>
<polyline clip-path="url(#clip752)" style="stroke:#000000; stroke-linecap:round; stroke-linejoin:round; stroke-width:2; stroke-opacity:0.1; fill:none" points="
  1316.47,1423.18 1316.47,123.472 
  "/>
<polyline clip-path="url(#clip752)" style="stroke:#000000; stroke-linecap:round; stroke-linejoin:round; stroke-width:2; stroke-opacity:0.1; fill:none" points="
  1523.73,1423.18 1523.73,123.472 
  "/>
<polyline clip-path="url(#clip752)" style="stroke:#000000; stroke-linecap:round; stroke-linejoin:round; stroke-width:2; stroke-opacity:0.1; fill:none" points="
  1730.99,1423.18 1730.99,123.472 
  "/>
<polyline clip-path="url(#clip752)" style="stroke:#000000; stroke-linecap:round; stroke-linejoin:round; stroke-width:2; stroke-opacity:0.1; fill:none" points="
  1938.24,1423.18 1938.24,123.472 
  "/>
<polyline clip-path="url(#clip752)" style="stroke:#000000; stroke-linecap:round; stroke-linejoin:round; stroke-width:2; stroke-opacity:0.1; fill:none" points="
  2145.5,1423.18 2145.5,123.472 
  "/>
<polyline clip-path="url(#clip752)" style="stroke:#000000; stroke-linecap:round; stroke-linejoin:round; stroke-width:2; stroke-opacity:0.1; fill:none" points="
  2352.76,1423.18 2352.76,123.472 
  "/>
<polyline clip-path="url(#clip750)" style="stroke:#000000; stroke-linecap:round; stroke-linejoin:round; stroke-width:4; stroke-opacity:1; fill:none" points="
  280.19,1423.18 2352.76,1423.18 
  "/>
<polyline clip-path="url(#clip750)" style="stroke:#000000; stroke-linecap:round; stroke-linejoin:round; stroke-width:4; stroke-opacity:1; fill:none" points="
  280.19,1423.18 280.19,1404.28 
  "/>
<polyline clip-path="url(#clip750)" style="stroke:#000000; stroke-linecap:round; stroke-linejoin:round; stroke-width:4; stroke-opacity:1; fill:none" points="
  487.447,1423.18 487.447,1404.28 
  "/>
<polyline clip-path="url(#clip750)" style="stroke:#000000; stroke-linecap:round; stroke-linejoin:round; stroke-width:4; stroke-opacity:1; fill:none" points="
  694.703,1423.18 694.703,1404.28 
  "/>
<polyline clip-path="url(#clip750)" style="stroke:#000000; stroke-linecap:round; stroke-linejoin:round; stroke-width:4; stroke-opacity:1; fill:none" points="
  901.96,1423.18 901.96,1404.28 
  "/>
<polyline clip-path="url(#clip750)" style="stroke:#000000; stroke-linecap:round; stroke-linejoin:round; stroke-width:4; stroke-opacity:1; fill:none" points="
  1109.22,1423.18 1109.22,1404.28 
  "/>
<polyline clip-path="url(#clip750)" style="stroke:#000000; stroke-linecap:round; stroke-linejoin:round; stroke-width:4; stroke-opacity:1; fill:none" points="
  1316.47,1423.18 1316.47,1404.28 
  "/>
<polyline clip-path="url(#clip750)" style="stroke:#000000; stroke-linecap:round; stroke-linejoin:round; stroke-width:4; stroke-opacity:1; fill:none" points="
  1523.73,1423.18 1523.73,1404.28 
  "/>
<polyline clip-path="url(#clip750)" style="stroke:#000000; stroke-linecap:round; stroke-linejoin:round; stroke-width:4; stroke-opacity:1; fill:none" points="
  1730.99,1423.18 1730.99,1404.28 
  "/>
<polyline clip-path="url(#clip750)" style="stroke:#000000; stroke-linecap:round; stroke-linejoin:round; stroke-width:4; stroke-opacity:1; fill:none" points="
  1938.24,1423.18 1938.24,1404.28 
  "/>
<polyline clip-path="url(#clip750)" style="stroke:#000000; stroke-linecap:round; stroke-linejoin:round; stroke-width:4; stroke-opacity:1; fill:none" points="
  2145.5,1423.18 2145.5,1404.28 
  "/>
<polyline clip-path="url(#clip750)" style="stroke:#000000; stroke-linecap:round; stroke-linejoin:round; stroke-width:4; stroke-opacity:1; fill:none" points="
  2352.76,1423.18 2352.76,1404.28 
  "/>
<path clip-path="url(#clip750)" d="M280.19 1454.1 Q276.579 1454.1 274.75 1457.66 Q272.945 1461.2 272.945 1468.33 Q272.945 1475.44 274.75 1479.01 Q276.579 1482.55 280.19 1482.55 Q283.824 1482.55 285.63 1479.01 Q287.458 1475.44 287.458 1468.33 Q287.458 1461.2 285.63 1457.66 Q283.824 1454.1 280.19 1454.1 M280.19 1450.39 Q286 1450.39 289.056 1455 Q292.134 1459.58 292.134 1468.33 Q292.134 1477.06 289.056 1481.67 Q286 1486.25 280.19 1486.25 Q274.38 1486.25 271.301 1481.67 Q268.246 1477.06 268.246 1468.33 Q268.246 1459.58 271.301 1455 Q274.38 1450.39 280.19 1450.39 Z" fill="#000000" fill-rule="evenodd" fill-opacity="1" /><path clip-path="url(#clip750)" d="M477.724 1451.02 L496.081 1451.02 L496.081 1454.96 L482.007 1454.96 L482.007 1463.43 Q483.025 1463.08 484.044 1462.92 Q485.062 1462.73 486.081 1462.73 Q491.868 1462.73 495.247 1465.9 Q498.627 1469.08 498.627 1474.49 Q498.627 1480.07 495.155 1483.17 Q491.683 1486.25 485.363 1486.25 Q483.187 1486.25 480.919 1485.88 Q478.674 1485.51 476.266 1484.77 L476.266 1480.07 Q478.349 1481.2 480.572 1481.76 Q482.794 1482.32 485.271 1482.32 Q489.275 1482.32 491.613 1480.21 Q493.951 1478.1 493.951 1474.49 Q493.951 1470.88 491.613 1468.77 Q489.275 1466.67 485.271 1466.67 Q483.396 1466.67 481.521 1467.08 Q479.669 1467.5 477.724 1468.38 L477.724 1451.02 Z" fill="#000000" fill-rule="evenodd" fill-opacity="1" /><path clip-path="url(#clip750)" d="M669.391 1481.64 L677.03 1481.64 L677.03 1455.28 L668.72 1456.95 L668.72 1452.69 L676.983 1451.02 L681.659 1451.02 L681.659 1481.64 L689.298 1481.64 L689.298 1485.58 L669.391 1485.58 L669.391 1481.64 Z" fill="#000000" fill-rule="evenodd" fill-opacity="1" /><path clip-path="url(#clip750)" d="M708.742 1454.1 Q705.131 1454.1 703.303 1457.66 Q701.497 1461.2 701.497 1468.33 Q701.497 1475.44 703.303 1479.01 Q705.131 1482.55 708.742 1482.55 Q712.377 1482.55 714.182 1479.01 Q716.011 1475.44 716.011 1468.33 Q716.011 1461.2 714.182 1457.66 Q712.377 1454.1 708.742 1454.1 M708.742 1450.39 Q714.553 1450.39 717.608 1455 Q720.687 1459.58 720.687 1468.33 Q720.687 1477.06 717.608 1481.67 Q714.553 1486.25 708.742 1486.25 Q702.932 1486.25 699.854 1481.67 Q696.798 1477.06 696.798 1468.33 Q696.798 1459.58 699.854 1455 Q702.932 1450.39 708.742 1450.39 Z" fill="#000000" fill-rule="evenodd" fill-opacity="1" /><path clip-path="url(#clip750)" d="M877.145 1481.64 L884.784 1481.64 L884.784 1455.28 L876.474 1456.95 L876.474 1452.69 L884.738 1451.02 L889.414 1451.02 L889.414 1481.64 L897.052 1481.64 L897.052 1485.58 L877.145 1485.58 L877.145 1481.64 Z" fill="#000000" fill-rule="evenodd" fill-opacity="1" /><path clip-path="url(#clip750)" d="M906.543 1451.02 L924.899 1451.02 L924.899 1454.96 L910.825 1454.96 L910.825 1463.43 Q911.844 1463.08 912.863 1462.92 Q913.881 1462.73 914.9 1462.73 Q920.687 1462.73 924.066 1465.9 Q927.446 1469.08 927.446 1474.49 Q927.446 1480.07 923.974 1483.17 Q920.501 1486.25 914.182 1486.25 Q912.006 1486.25 909.738 1485.88 Q907.492 1485.51 905.085 1484.77 L905.085 1480.07 Q907.168 1481.2 909.39 1481.76 Q911.613 1482.32 914.089 1482.32 Q918.094 1482.32 920.432 1480.21 Q922.77 1478.1 922.77 1474.49 Q922.77 1470.88 920.432 1468.77 Q918.094 1466.67 914.089 1466.67 Q912.214 1466.67 910.339 1467.08 Q908.488 1467.5 906.543 1468.38 L906.543 1451.02 Z" fill="#000000" fill-rule="evenodd" fill-opacity="1" /><path clip-path="url(#clip750)" d="M1087.99 1481.64 L1104.31 1481.64 L1104.31 1485.58 L1082.36 1485.58 L1082.36 1481.64 Q1085.03 1478.89 1089.61 1474.26 Q1094.22 1469.61 1095.4 1468.27 Q1097.64 1465.74 1098.52 1464.01 Q1099.42 1462.25 1099.42 1460.56 Q1099.42 1457.8 1097.48 1456.07 Q1095.56 1454.33 1092.46 1454.33 Q1090.26 1454.33 1087.8 1455.09 Q1085.37 1455.86 1082.6 1457.41 L1082.6 1452.69 Q1085.42 1451.55 1087.87 1450.97 Q1090.33 1450.39 1092.36 1450.39 Q1097.73 1450.39 1100.93 1453.08 Q1104.12 1455.77 1104.12 1460.26 Q1104.12 1462.39 1103.31 1464.31 Q1102.53 1466.2 1100.42 1468.8 Q1099.84 1469.47 1096.74 1472.69 Q1093.64 1475.88 1087.99 1481.64 Z" fill="#000000" fill-rule="evenodd" fill-opacity="1" /><path clip-path="url(#clip750)" d="M1124.12 1454.1 Q1120.51 1454.1 1118.68 1457.66 Q1116.88 1461.2 1116.88 1468.33 Q1116.88 1475.44 1118.68 1479.01 Q1120.51 1482.55 1124.12 1482.55 Q1127.76 1482.55 1129.56 1479.01 Q1131.39 1475.44 1131.39 1468.33 Q1131.39 1461.2 1129.56 1457.66 Q1127.76 1454.1 1124.12 1454.1 M1124.12 1450.39 Q1129.93 1450.39 1132.99 1455 Q1136.07 1459.58 1136.07 1468.33 Q1136.07 1477.06 1132.99 1481.67 Q1129.93 1486.25 1124.12 1486.25 Q1118.31 1486.25 1115.23 1481.67 Q1112.18 1477.06 1112.18 1468.33 Q1112.18 1459.58 1115.23 1455 Q1118.31 1450.39 1124.12 1450.39 Z" fill="#000000" fill-rule="evenodd" fill-opacity="1" /><path clip-path="url(#clip750)" d="M1295.74 1481.64 L1312.06 1481.64 L1312.06 1485.58 L1290.12 1485.58 L1290.12 1481.64 Q1292.78 1478.89 1297.36 1474.26 Q1301.97 1469.61 1303.15 1468.27 Q1305.4 1465.74 1306.28 1464.01 Q1307.18 1462.25 1307.18 1460.56 Q1307.18 1457.8 1305.23 1456.07 Q1303.31 1454.33 1300.21 1454.33 Q1298.01 1454.33 1295.56 1455.09 Q1293.13 1455.86 1290.35 1457.41 L1290.35 1452.69 Q1293.17 1451.55 1295.63 1450.97 Q1298.08 1450.39 1300.12 1450.39 Q1305.49 1450.39 1308.68 1453.08 Q1311.88 1455.77 1311.88 1460.26 Q1311.88 1462.39 1311.07 1464.31 Q1310.28 1466.2 1308.17 1468.8 Q1307.6 1469.47 1304.49 1472.69 Q1301.39 1475.88 1295.74 1481.64 Z" fill="#000000" fill-rule="evenodd" fill-opacity="1" /><path clip-path="url(#clip750)" d="M1321.92 1451.02 L1340.28 1451.02 L1340.28 1454.96 L1326.21 1454.96 L1326.21 1463.43 Q1327.23 1463.08 1328.24 1462.92 Q1329.26 1462.73 1330.28 1462.73 Q1336.07 1462.73 1339.45 1465.9 Q1342.83 1469.08 1342.83 1474.49 Q1342.83 1480.07 1339.35 1483.17 Q1335.88 1486.25 1329.56 1486.25 Q1327.39 1486.25 1325.12 1485.88 Q1322.87 1485.51 1320.47 1484.77 L1320.47 1480.07 Q1322.55 1481.2 1324.77 1481.76 Q1326.99 1482.32 1329.47 1482.32 Q1333.48 1482.32 1335.81 1480.21 Q1338.15 1478.1 1338.15 1474.49 Q1338.15 1470.88 1335.81 1468.77 Q1333.48 1466.67 1329.47 1466.67 Q1327.6 1466.67 1325.72 1467.08 Q1323.87 1467.5 1321.92 1468.38 L1321.92 1451.02 Z" fill="#000000" fill-rule="evenodd" fill-opacity="1" /><path clip-path="url(#clip750)" d="M1512.57 1466.95 Q1515.93 1467.66 1517.8 1469.93 Q1519.7 1472.2 1519.7 1475.53 Q1519.7 1480.65 1516.18 1483.45 Q1512.66 1486.25 1506.18 1486.25 Q1504.01 1486.25 1501.69 1485.81 Q1499.4 1485.39 1496.95 1484.54 L1496.95 1480.02 Q1498.89 1481.16 1501.21 1481.74 Q1503.52 1482.32 1506.04 1482.32 Q1510.44 1482.32 1512.73 1480.58 Q1515.05 1478.84 1515.05 1475.53 Q1515.05 1472.48 1512.9 1470.77 Q1510.77 1469.03 1506.95 1469.03 L1502.92 1469.03 L1502.92 1465.19 L1507.13 1465.19 Q1510.58 1465.19 1512.41 1463.82 Q1514.24 1462.43 1514.24 1459.84 Q1514.24 1457.18 1512.34 1455.77 Q1510.47 1454.33 1506.95 1454.33 Q1505.03 1454.33 1502.83 1454.75 Q1500.63 1455.16 1497.99 1456.04 L1497.99 1451.88 Q1500.65 1451.14 1502.97 1450.77 Q1505.3 1450.39 1507.36 1450.39 Q1512.69 1450.39 1515.79 1452.83 Q1518.89 1455.23 1518.89 1459.35 Q1518.89 1462.22 1517.25 1464.21 Q1515.6 1466.18 1512.57 1466.95 Z" fill="#000000" fill-rule="evenodd" fill-opacity="1" /><path clip-path="url(#clip750)" d="M1538.57 1454.1 Q1534.96 1454.1 1533.13 1457.66 Q1531.32 1461.2 1531.32 1468.33 Q1531.32 1475.44 1533.13 1479.01 Q1534.96 1482.55 1538.57 1482.55 Q1542.2 1482.55 1544.01 1479.01 Q1545.84 1475.44 1545.84 1468.33 Q1545.84 1461.2 1544.01 1457.66 Q1542.2 1454.1 1538.57 1454.1 M1538.57 1450.39 Q1544.38 1450.39 1547.43 1455 Q1550.51 1459.58 1550.51 1468.33 Q1550.51 1477.06 1547.43 1481.67 Q1544.38 1486.25 1538.57 1486.25 Q1532.76 1486.25 1529.68 1481.67 Q1526.62 1477.06 1526.62 1468.33 Q1526.62 1459.58 1529.68 1455 Q1532.76 1450.39 1538.57 1450.39 Z" fill="#000000" fill-rule="evenodd" fill-opacity="1" /><path clip-path="url(#clip750)" d="M1720.33 1466.95 Q1723.68 1467.66 1725.56 1469.93 Q1727.46 1472.2 1727.46 1475.53 Q1727.46 1480.65 1723.94 1483.45 Q1720.42 1486.25 1713.94 1486.25 Q1711.76 1486.25 1709.45 1485.81 Q1707.16 1485.39 1704.7 1484.54 L1704.7 1480.02 Q1706.65 1481.16 1708.96 1481.74 Q1711.28 1482.32 1713.8 1482.32 Q1718.2 1482.32 1720.49 1480.58 Q1722.8 1478.84 1722.8 1475.53 Q1722.8 1472.48 1720.65 1470.77 Q1718.52 1469.03 1714.7 1469.03 L1710.67 1469.03 L1710.67 1465.19 L1714.89 1465.19 Q1718.34 1465.19 1720.16 1463.82 Q1721.99 1462.43 1721.99 1459.84 Q1721.99 1457.18 1720.09 1455.77 Q1718.22 1454.33 1714.7 1454.33 Q1712.78 1454.33 1710.58 1454.75 Q1708.38 1455.16 1705.74 1456.04 L1705.74 1451.88 Q1708.41 1451.14 1710.72 1450.77 Q1713.06 1450.39 1715.12 1450.39 Q1720.44 1450.39 1723.54 1452.83 Q1726.65 1455.23 1726.65 1459.35 Q1726.65 1462.22 1725 1464.21 Q1723.36 1466.18 1720.33 1466.95 Z" fill="#000000" fill-rule="evenodd" fill-opacity="1" /><path clip-path="url(#clip750)" d="M1736.37 1451.02 L1754.72 1451.02 L1754.72 1454.96 L1740.65 1454.96 L1740.65 1463.43 Q1741.67 1463.08 1742.69 1462.92 Q1743.71 1462.73 1744.72 1462.73 Q1750.51 1462.73 1753.89 1465.9 Q1757.27 1469.08 1757.27 1474.49 Q1757.27 1480.07 1753.8 1483.17 Q1750.33 1486.25 1744.01 1486.25 Q1741.83 1486.25 1739.56 1485.88 Q1737.32 1485.51 1734.91 1484.77 L1734.91 1480.07 Q1736.99 1481.2 1739.22 1481.76 Q1741.44 1482.32 1743.91 1482.32 Q1747.92 1482.32 1750.26 1480.21 Q1752.59 1478.1 1752.59 1474.49 Q1752.59 1470.88 1750.26 1468.77 Q1747.92 1466.67 1743.91 1466.67 Q1742.04 1466.67 1740.16 1467.08 Q1738.31 1467.5 1736.37 1468.38 L1736.37 1451.02 Z" fill="#000000" fill-rule="evenodd" fill-opacity="1" /><path clip-path="url(#clip750)" d="M1926.41 1455.09 L1914.61 1473.54 L1926.41 1473.54 L1926.41 1455.09 M1925.19 1451.02 L1931.07 1451.02 L1931.07 1473.54 L1936 1473.54 L1936 1477.43 L1931.07 1477.43 L1931.07 1485.58 L1926.41 1485.58 L1926.41 1477.43 L1910.81 1477.43 L1910.81 1472.92 L1925.19 1451.02 Z" fill="#000000" fill-rule="evenodd" fill-opacity="1" /><path clip-path="url(#clip750)" d="M1953.73 1454.1 Q1950.12 1454.1 1948.29 1457.66 Q1946.48 1461.2 1946.48 1468.33 Q1946.48 1475.44 1948.29 1479.01 Q1950.12 1482.55 1953.73 1482.55 Q1957.36 1482.55 1959.17 1479.01 Q1961 1475.44 1961 1468.33 Q1961 1461.2 1959.17 1457.66 Q1957.36 1454.1 1953.73 1454.1 M1953.73 1450.39 Q1959.54 1450.39 1962.59 1455 Q1965.67 1459.58 1965.67 1468.33 Q1965.67 1477.06 1962.59 1481.67 Q1959.54 1486.25 1953.73 1486.25 Q1947.92 1486.25 1944.84 1481.67 Q1941.78 1477.06 1941.78 1468.33 Q1941.78 1459.58 1944.84 1455 Q1947.92 1450.39 1953.73 1450.39 Z" fill="#000000" fill-rule="evenodd" fill-opacity="1" /><path clip-path="url(#clip750)" d="M2134.17 1455.09 L2122.36 1473.54 L2134.17 1473.54 L2134.17 1455.09 M2132.94 1451.02 L2138.82 1451.02 L2138.82 1473.54 L2143.75 1473.54 L2143.75 1477.43 L2138.82 1477.43 L2138.82 1485.58 L2134.17 1485.58 L2134.17 1477.43 L2118.57 1477.43 L2118.57 1472.92 L2132.94 1451.02 Z" fill="#000000" fill-rule="evenodd" fill-opacity="1" /><path clip-path="url(#clip750)" d="M2151.53 1451.02 L2169.89 1451.02 L2169.89 1454.96 L2155.81 1454.96 L2155.81 1463.43 Q2156.83 1463.08 2157.85 1462.92 Q2158.87 1462.73 2159.89 1462.73 Q2165.67 1462.73 2169.05 1465.9 Q2172.43 1469.08 2172.43 1474.49 Q2172.43 1480.07 2168.96 1483.17 Q2165.49 1486.25 2159.17 1486.25 Q2156.99 1486.25 2154.72 1485.88 Q2152.48 1485.51 2150.07 1484.77 L2150.07 1480.07 Q2152.15 1481.2 2154.38 1481.76 Q2156.6 1482.32 2159.08 1482.32 Q2163.08 1482.32 2165.42 1480.21 Q2167.76 1478.1 2167.76 1474.49 Q2167.76 1470.88 2165.42 1468.77 Q2163.08 1466.67 2159.08 1466.67 Q2157.2 1466.67 2155.33 1467.08 Q2153.47 1467.5 2151.53 1468.38 L2151.53 1451.02 Z" fill="#000000" fill-rule="evenodd" fill-opacity="1" /><path clip-path="url(#clip750)" d="M2327.46 1451.02 L2345.81 1451.02 L2345.81 1454.96 L2331.74 1454.96 L2331.74 1463.43 Q2332.76 1463.08 2333.77 1462.92 Q2334.79 1462.73 2335.81 1462.73 Q2341.6 1462.73 2344.98 1465.9 Q2348.36 1469.08 2348.36 1474.49 Q2348.36 1480.07 2344.89 1483.17 Q2341.41 1486.25 2335.09 1486.25 Q2332.92 1486.25 2330.65 1485.88 Q2328.4 1485.51 2326 1484.77 L2326 1480.07 Q2328.08 1481.2 2330.3 1481.76 Q2332.52 1482.32 2335 1482.32 Q2339.01 1482.32 2341.34 1480.21 Q2343.68 1478.1 2343.68 1474.49 Q2343.68 1470.88 2341.34 1468.77 Q2339.01 1466.67 2335 1466.67 Q2333.13 1466.67 2331.25 1467.08 Q2329.4 1467.5 2327.46 1468.38 L2327.46 1451.02 Z" fill="#000000" fill-rule="evenodd" fill-opacity="1" /><path clip-path="url(#clip750)" d="M2367.57 1454.1 Q2363.96 1454.1 2362.13 1457.66 Q2360.33 1461.2 2360.33 1468.33 Q2360.33 1475.44 2362.13 1479.01 Q2363.96 1482.55 2367.57 1482.55 Q2371.2 1482.55 2373.01 1479.01 Q2374.84 1475.44 2374.84 1468.33 Q2374.84 1461.2 2373.01 1457.66 Q2371.2 1454.1 2367.57 1454.1 M2367.57 1450.39 Q2373.38 1450.39 2376.44 1455 Q2379.52 1459.58 2379.52 1468.33 Q2379.52 1477.06 2376.44 1481.67 Q2373.38 1486.25 2367.57 1486.25 Q2361.76 1486.25 2358.68 1481.67 Q2355.63 1477.06 2355.63 1468.33 Q2355.63 1459.58 2358.68 1455 Q2361.76 1450.39 2367.57 1450.39 Z" fill="#000000" fill-rule="evenodd" fill-opacity="1" /><path clip-path="url(#clip750)" d="M1145.35 1522.08 L1145.35 1528.35 Q1141.69 1526.6 1138.44 1525.74 Q1135.19 1524.88 1132.17 1524.88 Q1126.92 1524.88 1124.05 1526.92 Q1121.22 1528.96 1121.22 1532.71 Q1121.22 1535.87 1123.1 1537.49 Q1125.01 1539.08 1130.29 1540.07 L1134.18 1540.86 Q1141.37 1542.23 1144.77 1545.7 Q1148.21 1549.14 1148.21 1554.93 Q1148.21 1561.84 1143.56 1565.4 Q1138.95 1568.97 1130.01 1568.97 Q1126.63 1568.97 1122.81 1568.2 Q1119.02 1567.44 1114.95 1565.94 L1114.95 1559.32 Q1118.87 1561.52 1122.62 1562.63 Q1126.38 1563.75 1130.01 1563.75 Q1135.51 1563.75 1138.5 1561.58 Q1141.5 1559.42 1141.5 1555.41 Q1141.5 1551.91 1139.33 1549.93 Q1137.2 1547.96 1132.3 1546.97 L1128.38 1546.21 Q1121.19 1544.78 1117.97 1541.72 Q1114.76 1538.67 1114.76 1533.22 Q1114.76 1526.92 1119.18 1523.29 Q1123.64 1519.66 1131.44 1519.66 Q1134.78 1519.66 1138.25 1520.27 Q1141.72 1520.87 1145.35 1522.08 Z" fill="#000000" fill-rule="evenodd" fill-opacity="1" /><path clip-path="url(#clip750)" d="M1157.98 1532.4 L1163.84 1532.4 L1163.84 1568.04 L1157.98 1568.04 L1157.98 1532.4 M1157.98 1518.52 L1163.84 1518.52 L1163.84 1525.93 L1157.98 1525.93 L1157.98 1518.52 Z" fill="#000000" fill-rule="evenodd" fill-opacity="1" /><path clip-path="url(#clip750)" d="M1181.89 1522.27 L1181.89 1532.4 L1193.95 1532.4 L1193.95 1536.95 L1181.89 1536.95 L1181.89 1556.3 Q1181.89 1560.66 1183.06 1561.9 Q1184.27 1563.14 1187.93 1563.14 L1193.95 1563.14 L1193.95 1568.04 L1187.93 1568.04 Q1181.15 1568.04 1178.58 1565.53 Q1176 1562.98 1176 1556.3 L1176 1536.95 L1171.7 1536.95 L1171.7 1532.4 L1176 1532.4 L1176 1522.27 L1181.89 1522.27 Z" fill="#000000" fill-rule="evenodd" fill-opacity="1" /><path clip-path="url(#clip750)" d="M1232.14 1548.76 L1232.14 1551.62 L1205.22 1551.62 Q1205.6 1557.67 1208.84 1560.85 Q1212.12 1564 1217.95 1564 Q1221.32 1564 1224.47 1563.17 Q1227.66 1562.35 1230.77 1560.69 L1230.77 1566.23 Q1227.62 1567.57 1224.31 1568.27 Q1221 1568.97 1217.6 1568.97 Q1209.07 1568.97 1204.07 1564 Q1199.11 1559.04 1199.11 1550.57 Q1199.11 1541.82 1203.82 1536.69 Q1208.56 1531.54 1216.58 1531.54 Q1223.77 1531.54 1227.94 1536.18 Q1232.14 1540.8 1232.14 1548.76 M1226.29 1547.04 Q1226.22 1542.23 1223.58 1539.37 Q1220.97 1536.5 1216.64 1536.5 Q1211.74 1536.5 1208.78 1539.27 Q1205.85 1542.04 1205.41 1547.07 L1226.29 1547.04 Z" fill="#000000" fill-rule="evenodd" fill-opacity="1" /><path clip-path="url(#clip750)" d="M1262.73 1520.52 L1271.39 1520.52 L1292.46 1560.28 L1292.46 1520.52 L1298.7 1520.52 L1298.7 1568.04 L1290.04 1568.04 L1268.97 1528.29 L1268.97 1568.04 L1262.73 1568.04 L1262.73 1520.52 Z" fill="#000000" fill-rule="evenodd" fill-opacity="1" /><path clip-path="url(#clip750)" d="M1310.63 1553.98 L1310.63 1532.4 L1316.49 1532.4 L1316.49 1553.75 Q1316.49 1558.81 1318.46 1561.36 Q1320.44 1563.87 1324.38 1563.87 Q1329.12 1563.87 1331.86 1560.85 Q1334.63 1557.83 1334.63 1552.61 L1334.63 1532.4 L1340.49 1532.4 L1340.49 1568.04 L1334.63 1568.04 L1334.63 1562.57 Q1332.5 1565.82 1329.67 1567.41 Q1326.86 1568.97 1323.14 1568.97 Q1317 1568.97 1313.82 1565.15 Q1310.63 1561.33 1310.63 1553.98 M1325.37 1531.54 L1325.37 1531.54 Z" fill="#000000" fill-rule="evenodd" fill-opacity="1" /><path clip-path="url(#clip750)" d="M1380.31 1539.24 Q1382.5 1535.29 1385.56 1533.41 Q1388.61 1531.54 1392.75 1531.54 Q1398.32 1531.54 1401.34 1535.45 Q1404.37 1539.33 1404.37 1546.53 L1404.37 1568.04 L1398.48 1568.04 L1398.48 1546.72 Q1398.48 1541.59 1396.66 1539.11 Q1394.85 1536.63 1391.13 1536.63 Q1386.58 1536.63 1383.93 1539.65 Q1381.29 1542.68 1381.29 1547.9 L1381.29 1568.04 L1375.4 1568.04 L1375.4 1546.72 Q1375.4 1541.56 1373.59 1539.11 Q1371.78 1536.63 1367.99 1536.63 Q1363.5 1536.63 1360.86 1539.68 Q1358.22 1542.71 1358.22 1547.9 L1358.22 1568.04 L1352.33 1568.04 L1352.33 1532.4 L1358.22 1532.4 L1358.22 1537.93 Q1360.22 1534.66 1363.02 1533.1 Q1365.82 1531.54 1369.67 1531.54 Q1373.56 1531.54 1376.26 1533.51 Q1379 1535.48 1380.31 1539.24 Z" fill="#000000" fill-rule="evenodd" fill-opacity="1" /><path clip-path="url(#clip750)" d="M1441.64 1550.25 Q1441.64 1543.79 1438.97 1540.13 Q1436.32 1536.44 1431.68 1536.44 Q1427.03 1536.44 1424.36 1540.13 Q1421.71 1543.79 1421.71 1550.25 Q1421.71 1556.71 1424.36 1560.4 Q1427.03 1564.07 1431.68 1564.07 Q1436.32 1564.07 1438.97 1560.4 Q1441.64 1556.71 1441.64 1550.25 M1421.71 1537.81 Q1423.56 1534.62 1426.36 1533.1 Q1429.19 1531.54 1433.11 1531.54 Q1439.6 1531.54 1443.64 1536.69 Q1447.72 1541.85 1447.72 1550.25 Q1447.72 1558.65 1443.64 1563.81 Q1439.6 1568.97 1433.11 1568.97 Q1429.19 1568.97 1426.36 1567.44 Q1423.56 1565.88 1421.71 1562.7 L1421.71 1568.04 L1415.83 1568.04 L1415.83 1518.52 L1421.71 1518.52 L1421.71 1537.81 Z" fill="#000000" fill-rule="evenodd" fill-opacity="1" /><path clip-path="url(#clip750)" d="M1487.92 1548.76 L1487.92 1551.62 L1460.99 1551.62 Q1461.37 1557.67 1464.62 1560.85 Q1467.9 1564 1473.72 1564 Q1477.1 1564 1480.25 1563.17 Q1483.43 1562.35 1486.55 1560.69 L1486.55 1566.23 Q1483.4 1567.57 1480.09 1568.27 Q1476.78 1568.97 1473.37 1568.97 Q1464.84 1568.97 1459.84 1564 Q1454.88 1559.04 1454.88 1550.57 Q1454.88 1541.82 1459.59 1536.69 Q1464.33 1531.54 1472.35 1531.54 Q1479.55 1531.54 1483.72 1536.18 Q1487.92 1540.8 1487.92 1548.76 M1482.06 1547.04 Q1482 1542.23 1479.36 1539.37 Q1476.75 1536.5 1472.42 1536.5 Q1467.52 1536.5 1464.56 1539.27 Q1461.63 1542.04 1461.18 1547.07 L1482.06 1547.04 Z" fill="#000000" fill-rule="evenodd" fill-opacity="1" /><path clip-path="url(#clip750)" d="M1518.19 1537.87 Q1517.2 1537.3 1516.02 1537.04 Q1514.88 1536.76 1513.48 1536.76 Q1508.51 1536.76 1505.84 1540 Q1503.2 1543.22 1503.2 1549.27 L1503.2 1568.04 L1497.31 1568.04 L1497.31 1532.4 L1503.2 1532.4 L1503.2 1537.93 Q1505.04 1534.69 1508 1533.13 Q1510.96 1531.54 1515.19 1531.54 Q1515.8 1531.54 1516.53 1531.63 Q1517.26 1531.7 1518.15 1531.85 L1518.19 1537.87 Z" fill="#000000" fill-rule="evenodd" fill-opacity="1" /><polyline clip-path="url(#clip752)" style="stroke:#000000; stroke-linecap:round; stroke-linejoin:round; stroke-width:2; stroke-opacity:0.1; fill:none" points="
  280.19,1423.18 2352.76,1423.18 
  "/>
<polyline clip-path="url(#clip752)" style="stroke:#000000; stroke-linecap:round; stroke-linejoin:round; stroke-width:2; stroke-opacity:0.1; fill:none" points="
  280.19,1260.72 2352.76,1260.72 
  "/>
<polyline clip-path="url(#clip752)" style="stroke:#000000; stroke-linecap:round; stroke-linejoin:round; stroke-width:2; stroke-opacity:0.1; fill:none" points="
  280.19,1098.25 2352.76,1098.25 
  "/>
<polyline clip-path="url(#clip752)" style="stroke:#000000; stroke-linecap:round; stroke-linejoin:round; stroke-width:2; stroke-opacity:0.1; fill:none" points="
  280.19,935.789 2352.76,935.789 
  "/>
<polyline clip-path="url(#clip752)" style="stroke:#000000; stroke-linecap:round; stroke-linejoin:round; stroke-width:2; stroke-opacity:0.1; fill:none" points="
  280.19,773.326 2352.76,773.326 
  "/>
<polyline clip-path="url(#clip752)" style="stroke:#000000; stroke-linecap:round; stroke-linejoin:round; stroke-width:2; stroke-opacity:0.1; fill:none" points="
  280.19,610.863 2352.76,610.863 
  "/>
<polyline clip-path="url(#clip752)" style="stroke:#000000; stroke-linecap:round; stroke-linejoin:round; stroke-width:2; stroke-opacity:0.1; fill:none" points="
  280.19,448.399 2352.76,448.399 
  "/>
<polyline clip-path="url(#clip752)" style="stroke:#000000; stroke-linecap:round; stroke-linejoin:round; stroke-width:2; stroke-opacity:0.1; fill:none" points="
  280.19,285.936 2352.76,285.936 
  "/>
<polyline clip-path="url(#clip752)" style="stroke:#000000; stroke-linecap:round; stroke-linejoin:round; stroke-width:2; stroke-opacity:0.1; fill:none" points="
  280.19,123.472 2352.76,123.472 
  "/>
<polyline clip-path="url(#clip750)" style="stroke:#000000; stroke-linecap:round; stroke-linejoin:round; stroke-width:4; stroke-opacity:1; fill:none" points="
  280.19,1423.18 280.19,123.472 
  "/>
<polyline clip-path="url(#clip750)" style="stroke:#000000; stroke-linecap:round; stroke-linejoin:round; stroke-width:4; stroke-opacity:1; fill:none" points="
  280.19,1423.18 299.088,1423.18 
  "/>
<polyline clip-path="url(#clip750)" style="stroke:#000000; stroke-linecap:round; stroke-linejoin:round; stroke-width:4; stroke-opacity:1; fill:none" points="
  280.19,1260.72 299.088,1260.72 
  "/>
<polyline clip-path="url(#clip750)" style="stroke:#000000; stroke-linecap:round; stroke-linejoin:round; stroke-width:4; stroke-opacity:1; fill:none" points="
  280.19,1098.25 299.088,1098.25 
  "/>
<polyline clip-path="url(#clip750)" style="stroke:#000000; stroke-linecap:round; stroke-linejoin:round; stroke-width:4; stroke-opacity:1; fill:none" points="
  280.19,935.789 299.088,935.789 
  "/>
<polyline clip-path="url(#clip750)" style="stroke:#000000; stroke-linecap:round; stroke-linejoin:round; stroke-width:4; stroke-opacity:1; fill:none" points="
  280.19,773.326 299.088,773.326 
  "/>
<polyline clip-path="url(#clip750)" style="stroke:#000000; stroke-linecap:round; stroke-linejoin:round; stroke-width:4; stroke-opacity:1; fill:none" points="
  280.19,610.863 299.088,610.863 
  "/>
<polyline clip-path="url(#clip750)" style="stroke:#000000; stroke-linecap:round; stroke-linejoin:round; stroke-width:4; stroke-opacity:1; fill:none" points="
  280.19,448.399 299.088,448.399 
  "/>
<polyline clip-path="url(#clip750)" style="stroke:#000000; stroke-linecap:round; stroke-linejoin:round; stroke-width:4; stroke-opacity:1; fill:none" points="
  280.19,285.936 299.088,285.936 
  "/>
<polyline clip-path="url(#clip750)" style="stroke:#000000; stroke-linecap:round; stroke-linejoin:round; stroke-width:4; stroke-opacity:1; fill:none" points="
  280.19,123.472 299.088,123.472 
  "/>
<path clip-path="url(#clip750)" d="M127.593 1408.98 Q123.982 1408.98 122.154 1412.54 Q120.348 1416.08 120.348 1423.21 Q120.348 1430.32 122.154 1433.89 Q123.982 1437.43 127.593 1437.43 Q131.228 1437.43 133.033 1433.89 Q134.862 1430.32 134.862 1423.21 Q134.862 1416.08 133.033 1412.54 Q131.228 1408.98 127.593 1408.98 M127.593 1405.27 Q133.404 1405.27 136.459 1409.88 Q139.538 1414.46 139.538 1423.21 Q139.538 1431.94 136.459 1436.55 Q133.404 1441.13 127.593 1441.13 Q121.783 1441.13 118.705 1436.55 Q115.649 1431.94 115.649 1423.21 Q115.649 1414.46 118.705 1409.88 Q121.783 1405.27 127.593 1405.27 Z" fill="#000000" fill-rule="evenodd" fill-opacity="1" /><path clip-path="url(#clip750)" d="M147.755 1434.58 L152.64 1434.58 L152.64 1440.46 L147.755 1440.46 L147.755 1434.58 Z" fill="#000000" fill-rule="evenodd" fill-opacity="1" /><path clip-path="url(#clip750)" d="M175.672 1409.97 L163.866 1428.42 L175.672 1428.42 L175.672 1409.97 M174.445 1405.9 L180.325 1405.9 L180.325 1428.42 L185.255 1428.42 L185.255 1432.31 L180.325 1432.31 L180.325 1440.46 L175.672 1440.46 L175.672 1432.31 L160.07 1432.31 L160.07 1427.8 L174.445 1405.9 Z" fill="#000000" fill-rule="evenodd" fill-opacity="1" /><path clip-path="url(#clip750)" d="M203.565 1421.32 Q200.417 1421.32 198.565 1423.47 Q196.737 1425.62 196.737 1429.37 Q196.737 1433.1 198.565 1435.27 Q200.417 1437.43 203.565 1437.43 Q206.713 1437.43 208.542 1435.27 Q210.394 1433.1 210.394 1429.37 Q210.394 1425.62 208.542 1423.47 Q206.713 1421.32 203.565 1421.32 M212.848 1406.66 L212.848 1410.92 Q211.088 1410.09 209.283 1409.65 Q207.5 1409.21 205.741 1409.21 Q201.112 1409.21 198.658 1412.33 Q196.227 1415.46 195.88 1421.78 Q197.246 1419.77 199.306 1418.7 Q201.366 1417.61 203.843 1417.61 Q209.051 1417.61 212.061 1420.78 Q215.093 1423.93 215.093 1429.37 Q215.093 1434.7 211.945 1437.91 Q208.797 1441.13 203.565 1441.13 Q197.57 1441.13 194.399 1436.55 Q191.227 1431.94 191.227 1423.21 Q191.227 1415.02 195.116 1410.16 Q199.005 1405.27 205.556 1405.27 Q207.315 1405.27 209.098 1405.62 Q210.903 1405.97 212.848 1406.66 Z" fill="#000000" fill-rule="evenodd" fill-opacity="1" /><path clip-path="url(#clip750)" d="M221.968 1405.9 L244.19 1405.9 L244.19 1407.89 L231.644 1440.46 L226.76 1440.46 L238.565 1409.84 L221.968 1409.84 L221.968 1405.9 Z" fill="#000000" fill-rule="evenodd" fill-opacity="1" /><path clip-path="url(#clip750)" d="M126.783 1246.52 Q123.172 1246.52 121.343 1250.08 Q119.538 1253.62 119.538 1260.75 Q119.538 1267.86 121.343 1271.42 Q123.172 1274.96 126.783 1274.96 Q130.417 1274.96 132.223 1271.42 Q134.052 1267.86 134.052 1260.75 Q134.052 1253.62 132.223 1250.08 Q130.417 1246.52 126.783 1246.52 M126.783 1242.81 Q132.593 1242.81 135.649 1247.42 Q138.728 1252 138.728 1260.75 Q138.728 1269.48 135.649 1274.08 Q132.593 1278.67 126.783 1278.67 Q120.973 1278.67 117.894 1274.08 Q114.839 1269.48 114.839 1260.75 Q114.839 1252 117.894 1247.42 Q120.973 1242.81 126.783 1242.81 Z" fill="#000000" fill-rule="evenodd" fill-opacity="1" /><path clip-path="url(#clip750)" d="M146.945 1272.12 L151.829 1272.12 L151.829 1278 L146.945 1278 L146.945 1272.12 Z" fill="#000000" fill-rule="evenodd" fill-opacity="1" /><path clip-path="url(#clip750)" d="M174.862 1247.51 L163.056 1265.96 L174.862 1265.96 L174.862 1247.51 M173.635 1243.44 L179.514 1243.44 L179.514 1265.96 L184.445 1265.96 L184.445 1269.85 L179.514 1269.85 L179.514 1278 L174.862 1278 L174.862 1269.85 L159.26 1269.85 L159.26 1265.33 L173.635 1243.44 Z" fill="#000000" fill-rule="evenodd" fill-opacity="1" /><path clip-path="url(#clip750)" d="M202.755 1258.85 Q199.607 1258.85 197.755 1261.01 Q195.926 1263.16 195.926 1266.91 Q195.926 1270.64 197.755 1272.81 Q199.607 1274.96 202.755 1274.96 Q205.903 1274.96 207.732 1272.81 Q209.584 1270.64 209.584 1266.91 Q209.584 1263.16 207.732 1261.01 Q205.903 1258.85 202.755 1258.85 M212.037 1244.2 L212.037 1248.46 Q210.278 1247.63 208.473 1247.19 Q206.69 1246.75 204.931 1246.75 Q200.301 1246.75 197.848 1249.87 Q195.417 1253 195.07 1259.32 Q196.436 1257.3 198.496 1256.24 Q200.556 1255.15 203.033 1255.15 Q208.241 1255.15 211.25 1258.32 Q214.283 1261.47 214.283 1266.91 Q214.283 1272.23 211.135 1275.45 Q207.987 1278.67 202.755 1278.67 Q196.76 1278.67 193.588 1274.08 Q190.417 1269.48 190.417 1260.75 Q190.417 1252.56 194.306 1247.7 Q198.195 1242.81 204.746 1242.81 Q206.505 1242.81 208.287 1243.16 Q210.093 1243.51 212.037 1244.2 Z" fill="#000000" fill-rule="evenodd" fill-opacity="1" /><path clip-path="url(#clip750)" d="M232.338 1261.58 Q229.005 1261.58 227.084 1263.37 Q225.185 1265.15 225.185 1268.27 Q225.185 1271.4 227.084 1273.18 Q229.005 1274.96 232.338 1274.96 Q235.672 1274.96 237.593 1273.18 Q239.514 1271.38 239.514 1268.27 Q239.514 1265.15 237.593 1263.37 Q235.695 1261.58 232.338 1261.58 M227.662 1259.59 Q224.653 1258.85 222.963 1256.79 Q221.297 1254.73 221.297 1251.77 Q221.297 1247.63 224.236 1245.22 Q227.199 1242.81 232.338 1242.81 Q237.5 1242.81 240.44 1245.22 Q243.38 1247.63 243.38 1251.77 Q243.38 1254.73 241.69 1256.79 Q240.023 1258.85 237.037 1259.59 Q240.417 1260.38 242.292 1262.67 Q244.19 1264.96 244.19 1268.27 Q244.19 1273.3 241.111 1275.98 Q238.056 1278.67 232.338 1278.67 Q226.621 1278.67 223.542 1275.98 Q220.486 1273.3 220.486 1268.27 Q220.486 1264.96 222.385 1262.67 Q224.283 1260.38 227.662 1259.59 M225.949 1252.21 Q225.949 1254.89 227.616 1256.4 Q229.306 1257.9 232.338 1257.9 Q235.347 1257.9 237.037 1256.4 Q238.75 1254.89 238.75 1252.21 Q238.75 1249.52 237.037 1248.02 Q235.347 1246.52 232.338 1246.52 Q229.306 1246.52 227.616 1248.02 Q225.949 1249.52 225.949 1252.21 Z" fill="#000000" fill-rule="evenodd" fill-opacity="1" /><path clip-path="url(#clip750)" d="M126.876 1084.05 Q123.265 1084.05 121.436 1087.62 Q119.63 1091.16 119.63 1098.29 Q119.63 1105.39 121.436 1108.96 Q123.265 1112.5 126.876 1112.5 Q130.51 1112.5 132.316 1108.96 Q134.144 1105.39 134.144 1098.29 Q134.144 1091.16 132.316 1087.62 Q130.51 1084.05 126.876 1084.05 M126.876 1080.35 Q132.686 1080.35 135.742 1084.95 Q138.82 1089.54 138.82 1098.29 Q138.82 1107.01 135.742 1111.62 Q132.686 1116.2 126.876 1116.2 Q121.066 1116.2 117.987 1111.62 Q114.931 1107.01 114.931 1098.29 Q114.931 1089.54 117.987 1084.95 Q121.066 1080.35 126.876 1080.35 Z" fill="#000000" fill-rule="evenodd" fill-opacity="1" /><path clip-path="url(#clip750)" d="M147.038 1109.65 L151.922 1109.65 L151.922 1115.53 L147.038 1115.53 L147.038 1109.65 Z" fill="#000000" fill-rule="evenodd" fill-opacity="1" /><path clip-path="url(#clip750)" d="M174.954 1085.05 L163.149 1103.5 L174.954 1103.5 L174.954 1085.05 M173.727 1080.97 L179.607 1080.97 L179.607 1103.5 L184.538 1103.5 L184.538 1107.38 L179.607 1107.38 L179.607 1115.53 L174.954 1115.53 L174.954 1107.38 L159.353 1107.38 L159.353 1102.87 L173.727 1080.97 Z" fill="#000000" fill-rule="evenodd" fill-opacity="1" /><path clip-path="url(#clip750)" d="M202.848 1096.39 Q199.7 1096.39 197.848 1098.54 Q196.019 1100.7 196.019 1104.45 Q196.019 1108.17 197.848 1110.35 Q199.7 1112.5 202.848 1112.5 Q205.996 1112.5 207.824 1110.35 Q209.676 1108.17 209.676 1104.45 Q209.676 1100.7 207.824 1098.54 Q205.996 1096.39 202.848 1096.39 M212.13 1081.74 L212.13 1086 Q210.371 1085.16 208.565 1084.72 Q206.783 1084.28 205.024 1084.28 Q200.394 1084.28 197.94 1087.41 Q195.51 1090.53 195.163 1096.85 Q196.528 1094.84 198.588 1093.77 Q200.649 1092.69 203.125 1092.69 Q208.334 1092.69 211.343 1095.86 Q214.375 1099.01 214.375 1104.45 Q214.375 1109.77 211.227 1112.99 Q208.079 1116.2 202.848 1116.2 Q196.852 1116.2 193.681 1111.62 Q190.51 1107.01 190.51 1098.29 Q190.51 1090.09 194.399 1085.23 Q198.287 1080.35 204.838 1080.35 Q206.598 1080.35 208.38 1080.7 Q210.186 1081.04 212.13 1081.74 Z" fill="#000000" fill-rule="evenodd" fill-opacity="1" /><path clip-path="url(#clip750)" d="M222.57 1114.82 L222.57 1110.56 Q224.329 1111.39 226.135 1111.83 Q227.94 1112.27 229.676 1112.27 Q234.306 1112.27 236.736 1109.17 Q239.19 1106.04 239.537 1099.7 Q238.195 1101.69 236.135 1102.76 Q234.074 1103.82 231.574 1103.82 Q226.389 1103.82 223.357 1100.7 Q220.348 1097.55 220.348 1092.11 Q220.348 1086.78 223.496 1083.57 Q226.644 1080.35 231.875 1080.35 Q237.871 1080.35 241.019 1084.95 Q244.19 1089.54 244.19 1098.29 Q244.19 1106.46 240.301 1111.34 Q236.435 1116.2 229.885 1116.2 Q228.125 1116.2 226.32 1115.86 Q224.514 1115.51 222.57 1114.82 M231.875 1100.16 Q235.023 1100.16 236.852 1098.01 Q238.704 1095.86 238.704 1092.11 Q238.704 1088.38 236.852 1086.23 Q235.023 1084.05 231.875 1084.05 Q228.727 1084.05 226.875 1086.23 Q225.047 1088.38 225.047 1092.11 Q225.047 1095.86 226.875 1098.01 Q228.727 1100.16 231.875 1100.16 Z" fill="#000000" fill-rule="evenodd" fill-opacity="1" /><path clip-path="url(#clip750)" d="M126.691 921.588 Q123.08 921.588 121.251 925.153 Q119.445 928.695 119.445 935.824 Q119.445 942.931 121.251 946.495 Q123.08 950.037 126.691 950.037 Q130.325 950.037 132.13 946.495 Q133.959 942.931 133.959 935.824 Q133.959 928.695 132.13 925.153 Q130.325 921.588 126.691 921.588 M126.691 917.884 Q132.501 917.884 135.556 922.491 Q138.635 927.074 138.635 935.824 Q138.635 944.551 135.556 949.157 Q132.501 953.741 126.691 953.741 Q120.88 953.741 117.802 949.157 Q114.746 944.551 114.746 935.824 Q114.746 927.074 117.802 922.491 Q120.88 917.884 126.691 917.884 Z" fill="#000000" fill-rule="evenodd" fill-opacity="1" /><path clip-path="url(#clip750)" d="M146.853 947.19 L151.737 947.19 L151.737 953.069 L146.853 953.069 L146.853 947.19 Z" fill="#000000" fill-rule="evenodd" fill-opacity="1" /><path clip-path="url(#clip750)" d="M174.769 922.584 L162.964 941.032 L174.769 941.032 L174.769 922.584 M173.542 918.509 L179.422 918.509 L179.422 941.032 L184.352 941.032 L184.352 944.921 L179.422 944.921 L179.422 953.069 L174.769 953.069 L174.769 944.921 L159.167 944.921 L159.167 940.407 L173.542 918.509 Z" fill="#000000" fill-rule="evenodd" fill-opacity="1" /><path clip-path="url(#clip750)" d="M190.903 918.509 L213.125 918.509 L213.125 920.5 L200.579 953.069 L195.695 953.069 L207.5 922.445 L190.903 922.445 L190.903 918.509 Z" fill="#000000" fill-rule="evenodd" fill-opacity="1" /><path clip-path="url(#clip750)" d="M232.246 921.588 Q228.635 921.588 226.806 925.153 Q225 928.695 225 935.824 Q225 942.931 226.806 946.495 Q228.635 950.037 232.246 950.037 Q235.88 950.037 237.685 946.495 Q239.514 942.931 239.514 935.824 Q239.514 928.695 237.685 925.153 Q235.88 921.588 232.246 921.588 M232.246 917.884 Q238.056 917.884 241.111 922.491 Q244.19 927.074 244.19 935.824 Q244.19 944.551 241.111 949.157 Q238.056 953.741 232.246 953.741 Q226.435 953.741 223.357 949.157 Q220.301 944.551 220.301 935.824 Q220.301 927.074 223.357 922.491 Q226.435 917.884 232.246 917.884 Z" fill="#000000" fill-rule="evenodd" fill-opacity="1" /><path clip-path="url(#clip750)" d="M127.917 759.125 Q124.306 759.125 122.478 762.689 Q120.672 766.231 120.672 773.361 Q120.672 780.467 122.478 784.032 Q124.306 787.574 127.917 787.574 Q131.552 787.574 133.357 784.032 Q135.186 780.467 135.186 773.361 Q135.186 766.231 133.357 762.689 Q131.552 759.125 127.917 759.125 M127.917 755.421 Q133.728 755.421 136.783 760.027 Q139.862 764.611 139.862 773.361 Q139.862 782.088 136.783 786.694 Q133.728 791.277 127.917 791.277 Q122.107 791.277 119.029 786.694 Q115.973 782.088 115.973 773.361 Q115.973 764.611 119.029 760.027 Q122.107 755.421 127.917 755.421 Z" fill="#000000" fill-rule="evenodd" fill-opacity="1" /><path clip-path="url(#clip750)" d="M148.079 784.726 L152.964 784.726 L152.964 790.606 L148.079 790.606 L148.079 784.726 Z" fill="#000000" fill-rule="evenodd" fill-opacity="1" /><path clip-path="url(#clip750)" d="M175.996 760.12 L164.19 778.569 L175.996 778.569 L175.996 760.12 M174.769 756.046 L180.649 756.046 L180.649 778.569 L185.579 778.569 L185.579 782.458 L180.649 782.458 L180.649 790.606 L175.996 790.606 L175.996 782.458 L160.394 782.458 L160.394 777.944 L174.769 756.046 Z" fill="#000000" fill-rule="evenodd" fill-opacity="1" /><path clip-path="url(#clip750)" d="M192.13 756.046 L214.352 756.046 L214.352 758.037 L201.806 790.606 L196.922 790.606 L208.727 759.981 L192.13 759.981 L192.13 756.046 Z" fill="#000000" fill-rule="evenodd" fill-opacity="1" /><path clip-path="url(#clip750)" d="M224.283 786.671 L231.922 786.671 L231.922 760.305 L223.611 761.972 L223.611 757.713 L231.875 756.046 L236.551 756.046 L236.551 786.671 L244.19 786.671 L244.19 790.606 L224.283 790.606 L224.283 786.671 Z" fill="#000000" fill-rule="evenodd" fill-opacity="1" /><path clip-path="url(#clip750)" d="M128.288 596.661 Q124.677 596.661 122.848 600.226 Q121.043 603.768 121.043 610.897 Q121.043 618.004 122.848 621.568 Q124.677 625.11 128.288 625.11 Q131.922 625.11 133.728 621.568 Q135.556 618.004 135.556 610.897 Q135.556 603.768 133.728 600.226 Q131.922 596.661 128.288 596.661 M128.288 592.958 Q134.098 592.958 137.154 597.564 Q140.232 602.147 140.232 610.897 Q140.232 619.624 137.154 624.231 Q134.098 628.814 128.288 628.814 Q122.478 628.814 119.399 624.231 Q116.343 619.624 116.343 610.897 Q116.343 602.147 119.399 597.564 Q122.478 592.958 128.288 592.958 Z" fill="#000000" fill-rule="evenodd" fill-opacity="1" /><path clip-path="url(#clip750)" d="M148.45 622.263 L153.334 622.263 L153.334 628.143 L148.45 628.143 L148.45 622.263 Z" fill="#000000" fill-rule="evenodd" fill-opacity="1" /><path clip-path="url(#clip750)" d="M176.366 597.657 L164.561 616.106 L176.366 616.106 L176.366 597.657 M175.139 593.583 L181.019 593.583 L181.019 616.106 L185.95 616.106 L185.95 619.994 L181.019 619.994 L181.019 628.143 L176.366 628.143 L176.366 619.994 L160.765 619.994 L160.765 615.481 L175.139 593.583 Z" fill="#000000" fill-rule="evenodd" fill-opacity="1" /><path clip-path="url(#clip750)" d="M192.5 593.583 L214.723 593.583 L214.723 595.573 L202.176 628.143 L197.292 628.143 L209.098 597.518 L192.5 597.518 L192.5 593.583 Z" fill="#000000" fill-rule="evenodd" fill-opacity="1" /><path clip-path="url(#clip750)" d="M227.871 624.207 L244.19 624.207 L244.19 628.143 L222.246 628.143 L222.246 624.207 Q224.908 621.453 229.491 616.823 Q234.097 612.17 235.278 610.828 Q237.523 608.305 238.403 606.569 Q239.306 604.809 239.306 603.12 Q239.306 600.365 237.361 598.629 Q235.44 596.893 232.338 596.893 Q230.139 596.893 227.685 597.657 Q225.255 598.42 222.477 599.971 L222.477 595.249 Q225.301 594.115 227.755 593.536 Q230.209 592.958 232.246 592.958 Q237.616 592.958 240.81 595.643 Q244.005 598.328 244.005 602.819 Q244.005 604.948 243.195 606.869 Q242.408 608.768 240.301 611.36 Q239.722 612.031 236.621 615.249 Q233.519 618.443 227.871 624.207 Z" fill="#000000" fill-rule="evenodd" fill-opacity="1" /><path clip-path="url(#clip750)" d="M127.339 434.198 Q123.728 434.198 121.899 437.763 Q120.093 441.304 120.093 448.434 Q120.093 455.54 121.899 459.105 Q123.728 462.647 127.339 462.647 Q130.973 462.647 132.779 459.105 Q134.607 455.54 134.607 448.434 Q134.607 441.304 132.779 437.763 Q130.973 434.198 127.339 434.198 M127.339 430.494 Q133.149 430.494 136.204 435.101 Q139.283 439.684 139.283 448.434 Q139.283 457.161 136.204 461.767 Q133.149 466.35 127.339 466.35 Q121.529 466.35 118.45 461.767 Q115.394 457.161 115.394 448.434 Q115.394 439.684 118.45 435.101 Q121.529 430.494 127.339 430.494 Z" fill="#000000" fill-rule="evenodd" fill-opacity="1" /><path clip-path="url(#clip750)" d="M147.501 459.799 L152.385 459.799 L152.385 465.679 L147.501 465.679 L147.501 459.799 Z" fill="#000000" fill-rule="evenodd" fill-opacity="1" /><path clip-path="url(#clip750)" d="M175.417 435.193 L163.612 453.642 L175.417 453.642 L175.417 435.193 M174.19 431.119 L180.07 431.119 L180.07 453.642 L185.001 453.642 L185.001 457.531 L180.07 457.531 L180.07 465.679 L175.417 465.679 L175.417 457.531 L159.815 457.531 L159.815 453.017 L174.19 431.119 Z" fill="#000000" fill-rule="evenodd" fill-opacity="1" /><path clip-path="url(#clip750)" d="M191.551 431.119 L213.774 431.119 L213.774 433.11 L201.227 465.679 L196.343 465.679 L208.149 435.054 L191.551 435.054 L191.551 431.119 Z" fill="#000000" fill-rule="evenodd" fill-opacity="1" /><path clip-path="url(#clip750)" d="M237.06 447.045 Q240.417 447.762 242.292 450.031 Q244.19 452.299 244.19 455.633 Q244.19 460.749 240.672 463.549 Q237.153 466.35 230.672 466.35 Q228.496 466.35 226.181 465.911 Q223.889 465.494 221.436 464.637 L221.436 460.124 Q223.38 461.258 225.695 461.836 Q228.01 462.415 230.533 462.415 Q234.931 462.415 237.222 460.679 Q239.537 458.943 239.537 455.633 Q239.537 452.577 237.384 450.864 Q235.255 449.128 231.435 449.128 L227.408 449.128 L227.408 445.286 L231.621 445.286 Q235.07 445.286 236.898 443.92 Q238.727 442.531 238.727 439.938 Q238.727 437.276 236.829 435.864 Q234.954 434.429 231.435 434.429 Q229.514 434.429 227.315 434.846 Q225.116 435.263 222.477 436.142 L222.477 431.976 Q225.139 431.235 227.454 430.864 Q229.792 430.494 231.852 430.494 Q237.176 430.494 240.278 432.925 Q243.38 435.332 243.38 439.452 Q243.38 442.323 241.736 444.313 Q240.093 446.281 237.06 447.045 Z" fill="#000000" fill-rule="evenodd" fill-opacity="1" /><path clip-path="url(#clip750)" d="M126.205 271.734 Q122.593 271.734 120.765 275.299 Q118.959 278.841 118.959 285.97 Q118.959 293.077 120.765 296.642 Q122.593 300.183 126.205 300.183 Q129.839 300.183 131.644 296.642 Q133.473 293.077 133.473 285.97 Q133.473 278.841 131.644 275.299 Q129.839 271.734 126.205 271.734 M126.205 268.031 Q132.015 268.031 135.07 272.637 Q138.149 277.22 138.149 285.97 Q138.149 294.697 135.07 299.304 Q132.015 303.887 126.205 303.887 Q120.394 303.887 117.316 299.304 Q114.26 294.697 114.26 285.97 Q114.26 277.22 117.316 272.637 Q120.394 268.031 126.205 268.031 Z" fill="#000000" fill-rule="evenodd" fill-opacity="1" /><path clip-path="url(#clip750)" d="M146.366 297.336 L151.251 297.336 L151.251 303.216 L146.366 303.216 L146.366 297.336 Z" fill="#000000" fill-rule="evenodd" fill-opacity="1" /><path clip-path="url(#clip750)" d="M174.283 272.73 L162.477 291.179 L174.283 291.179 L174.283 272.73 M173.056 268.656 L178.936 268.656 L178.936 291.179 L183.866 291.179 L183.866 295.067 L178.936 295.067 L178.936 303.216 L174.283 303.216 L174.283 295.067 L158.681 295.067 L158.681 290.554 L173.056 268.656 Z" fill="#000000" fill-rule="evenodd" fill-opacity="1" /><path clip-path="url(#clip750)" d="M190.417 268.656 L212.639 268.656 L212.639 270.646 L200.093 303.216 L195.209 303.216 L207.014 272.591 L190.417 272.591 L190.417 268.656 Z" fill="#000000" fill-rule="evenodd" fill-opacity="1" /><path clip-path="url(#clip750)" d="M234.607 272.73 L222.801 291.179 L234.607 291.179 L234.607 272.73 M233.38 268.656 L239.259 268.656 L239.259 291.179 L244.19 291.179 L244.19 295.067 L239.259 295.067 L239.259 303.216 L234.607 303.216 L234.607 295.067 L219.005 295.067 L219.005 290.554 L233.38 268.656 Z" fill="#000000" fill-rule="evenodd" fill-opacity="1" /><path clip-path="url(#clip750)" d="M127.686 109.271 Q124.075 109.271 122.246 112.836 Q120.441 116.377 120.441 123.507 Q120.441 130.613 122.246 134.178 Q124.075 137.72 127.686 137.72 Q131.32 137.72 133.126 134.178 Q134.954 130.613 134.954 123.507 Q134.954 116.377 133.126 112.836 Q131.32 109.271 127.686 109.271 M127.686 105.567 Q133.496 105.567 136.552 110.174 Q139.63 114.757 139.63 123.507 Q139.63 132.234 136.552 136.84 Q133.496 141.423 127.686 141.423 Q121.876 141.423 118.797 136.84 Q115.742 132.234 115.742 123.507 Q115.742 114.757 118.797 110.174 Q121.876 105.567 127.686 105.567 Z" fill="#000000" fill-rule="evenodd" fill-opacity="1" /><path clip-path="url(#clip750)" d="M147.848 134.873 L152.732 134.873 L152.732 140.752 L147.848 140.752 L147.848 134.873 Z" fill="#000000" fill-rule="evenodd" fill-opacity="1" /><path clip-path="url(#clip750)" d="M175.764 110.266 L163.959 128.715 L175.764 128.715 L175.764 110.266 M174.538 106.192 L180.417 106.192 L180.417 128.715 L185.348 128.715 L185.348 132.604 L180.417 132.604 L180.417 140.752 L175.764 140.752 L175.764 132.604 L160.163 132.604 L160.163 128.09 L174.538 106.192 Z" fill="#000000" fill-rule="evenodd" fill-opacity="1" /><path clip-path="url(#clip750)" d="M191.899 106.192 L214.121 106.192 L214.121 108.183 L201.575 140.752 L196.69 140.752 L208.496 110.127 L191.899 110.127 L191.899 106.192 Z" fill="#000000" fill-rule="evenodd" fill-opacity="1" /><path clip-path="url(#clip750)" d="M223.287 106.192 L241.644 106.192 L241.644 110.127 L227.57 110.127 L227.57 118.599 Q228.588 118.252 229.607 118.09 Q230.625 117.905 231.644 117.905 Q237.431 117.905 240.81 121.076 Q244.19 124.248 244.19 129.664 Q244.19 135.243 240.718 138.345 Q237.246 141.423 230.926 141.423 Q228.75 141.423 226.482 141.053 Q224.236 140.683 221.829 139.942 L221.829 135.243 Q223.912 136.377 226.135 136.933 Q228.357 137.488 230.834 137.488 Q234.838 137.488 237.176 135.382 Q239.514 133.275 239.514 129.664 Q239.514 126.053 237.176 123.947 Q234.838 121.84 230.834 121.84 Q228.959 121.84 227.084 122.257 Q225.232 122.674 223.287 123.553 L223.287 106.192 Z" fill="#000000" fill-rule="evenodd" fill-opacity="1" /><path clip-path="url(#clip750)" d="M16.4842 987.834 L16.4842 981.405 L64.0042 981.405 L64.0042 987.834 L16.4842 987.834 Z" fill="#000000" fill-rule="evenodd" fill-opacity="1" /><path clip-path="url(#clip750)" d="M42.4881 939.232 L64.0042 939.232 L64.0042 945.089 L42.679 945.089 Q37.6183 945.089 35.1038 947.062 Q32.5894 949.035 32.5894 952.982 Q32.5894 957.725 35.6131 960.462 Q38.6368 963.199 43.8567 963.199 L64.0042 963.199 L64.0042 969.087 L28.3562 969.087 L28.3562 963.199 L33.8944 963.199 Q30.6797 961.098 29.0883 958.266 Q27.4968 955.401 27.4968 951.677 Q27.4968 945.534 31.3163 942.383 Q35.1038 939.232 42.4881 939.232 Z" fill="#000000" fill-rule="evenodd" fill-opacity="1" /><path clip-path="url(#clip750)" d="M42.4881 897.919 L64.0042 897.919 L64.0042 903.775 L42.679 903.775 Q37.6183 903.775 35.1038 905.749 Q32.5894 907.722 32.5894 911.669 Q32.5894 916.411 35.6131 919.148 Q38.6368 921.886 43.8567 921.886 L64.0042 921.886 L64.0042 927.774 L28.3562 927.774 L28.3562 921.886 L33.8944 921.886 Q30.6797 919.785 29.0883 916.952 Q27.4968 914.088 27.4968 910.364 Q27.4968 904.221 31.3163 901.07 Q35.1038 897.919 42.4881 897.919 Z" fill="#000000" fill-rule="evenodd" fill-opacity="1" /><path clip-path="url(#clip750)" d="M44.7161 855.746 L47.5806 855.746 L47.5806 882.673 Q53.6281 882.291 56.8109 879.044 Q59.9619 875.766 59.9619 869.941 Q59.9619 866.568 59.1344 863.417 Q58.3069 860.234 56.6518 857.115 L62.1899 857.115 Q63.5267 860.266 64.227 863.576 Q64.9272 866.886 64.9272 870.292 Q64.9272 878.822 59.9619 883.819 Q54.9967 888.784 46.5303 888.784 Q37.7774 888.784 32.6531 884.073 Q27.4968 879.331 27.4968 871.31 Q27.4968 864.117 32.1438 859.947 Q36.7589 855.746 44.7161 855.746 M42.9973 861.602 Q38.1912 861.666 35.3266 864.308 Q32.4621 866.918 32.4621 871.246 Q32.4621 876.148 35.2312 879.108 Q38.0002 882.036 43.0292 882.482 L42.9973 861.602 Z" fill="#000000" fill-rule="evenodd" fill-opacity="1" /><path clip-path="url(#clip750)" d="M33.8307 825.477 Q33.2578 826.464 33.0032 827.641 Q32.7167 828.787 32.7167 830.188 Q32.7167 835.153 35.9632 837.827 Q39.1779 840.468 45.2253 840.468 L64.0042 840.468 L64.0042 846.357 L28.3562 846.357 L28.3562 840.468 L33.8944 840.468 Q30.6479 838.622 29.0883 835.662 Q27.4968 832.702 27.4968 828.469 Q27.4968 827.864 27.5923 827.132 Q27.656 826.4 27.8151 825.509 L33.8307 825.477 Z" fill="#000000" fill-rule="evenodd" fill-opacity="1" /><path clip-path="url(#clip750)" d="M21.7677 791.93 L39.6235 791.93 L39.6235 783.845 Q39.6235 779.357 37.3 776.907 Q34.9765 774.456 30.6797 774.456 Q26.4147 774.456 24.0912 776.907 Q21.7677 779.357 21.7677 783.845 L21.7677 791.93 M16.4842 798.359 L16.4842 783.845 Q16.4842 775.856 20.1126 771.782 Q23.7092 767.676 30.6797 767.676 Q37.7138 767.676 41.3104 771.782 Q44.907 775.856 44.907 783.845 L44.907 791.93 L64.0042 791.93 L64.0042 798.359 L16.4842 798.359 Z" fill="#000000" fill-rule="evenodd" fill-opacity="1" /><path clip-path="url(#clip750)" d="M33.8307 739.795 Q33.2578 740.781 33.0032 741.959 Q32.7167 743.105 32.7167 744.505 Q32.7167 749.47 35.9632 752.144 Q39.1779 754.786 45.2253 754.786 L64.0042 754.786 L64.0042 760.674 L28.3562 760.674 L28.3562 754.786 L33.8944 754.786 Q30.6479 752.94 29.0883 749.98 Q27.4968 747.02 27.4968 742.787 Q27.4968 742.182 27.5923 741.45 Q27.656 740.718 27.8151 739.826 L33.8307 739.795 Z" fill="#000000" fill-rule="evenodd" fill-opacity="1" /><path clip-path="url(#clip750)" d="M32.4621 721.27 Q32.4621 725.981 36.1542 728.718 Q39.8145 731.456 46.212 731.456 Q52.6095 731.456 56.3017 728.75 Q59.9619 726.013 59.9619 721.27 Q59.9619 716.592 56.2698 713.854 Q52.5777 711.117 46.212 711.117 Q39.8781 711.117 36.186 713.854 Q32.4621 716.592 32.4621 721.27 M27.4968 721.27 Q27.4968 713.632 32.4621 709.271 Q37.4273 704.911 46.212 704.911 Q54.9649 704.911 59.9619 709.271 Q64.9272 713.632 64.9272 721.27 Q64.9272 728.941 59.9619 733.302 Q54.9649 737.63 46.212 737.63 Q37.4273 737.63 32.4621 733.302 Q27.4968 728.941 27.4968 721.27 Z" fill="#000000" fill-rule="evenodd" fill-opacity="1" /><path clip-path="url(#clip750)" d="M33.7671 671.745 L14.479 671.745 L14.479 665.889 L64.0042 665.889 L64.0042 671.745 L58.657 671.745 Q61.8398 673.591 63.3994 676.424 Q64.9272 679.225 64.9272 683.172 Q64.9272 689.633 59.771 693.707 Q54.6147 697.749 46.212 697.749 Q37.8093 697.749 32.6531 693.707 Q27.4968 689.633 27.4968 683.172 Q27.4968 679.225 29.0564 676.424 Q30.5842 673.591 33.7671 671.745 M46.212 691.702 Q52.6732 691.702 56.3653 689.06 Q60.0256 686.386 60.0256 681.739 Q60.0256 677.092 56.3653 674.419 Q52.6732 671.745 46.212 671.745 Q39.7508 671.745 36.0905 674.419 Q32.3984 677.092 32.3984 681.739 Q32.3984 686.386 36.0905 689.06 Q39.7508 691.702 46.212 691.702 Z" fill="#000000" fill-rule="evenodd" fill-opacity="1" /><path clip-path="url(#clip750)" d="M49.9359 654.43 L28.3562 654.43 L28.3562 648.574 L49.7131 648.574 Q54.7739 648.574 57.3202 646.601 Q59.8346 644.627 59.8346 640.681 Q59.8346 635.938 56.8109 633.201 Q53.7872 630.432 48.5673 630.432 L28.3562 630.432 L28.3562 624.575 L64.0042 624.575 L64.0042 630.432 L58.5296 630.432 Q61.7762 632.564 63.3676 635.397 Q64.9272 638.198 64.9272 641.922 Q64.9272 648.065 61.1078 651.248 Q57.2883 654.43 49.9359 654.43 M27.4968 639.694 L27.4968 639.694 Z" fill="#000000" fill-rule="evenodd" fill-opacity="1" /><path clip-path="url(#clip750)" d="M29.7248 586.859 L35.1993 586.859 Q33.8307 589.341 33.1623 591.856 Q32.4621 594.338 32.4621 596.885 Q32.4621 602.582 36.0905 605.733 Q39.6872 608.884 46.212 608.884 Q52.7369 608.884 56.3653 605.733 Q59.9619 602.582 59.9619 596.885 Q59.9619 594.338 59.2935 591.856 Q58.5933 589.341 57.2247 586.859 L62.6355 586.859 Q63.7814 589.309 64.3543 591.951 Q64.9272 594.561 64.9272 597.521 Q64.9272 605.574 59.8664 610.316 Q54.8057 615.059 46.212 615.059 Q37.491 615.059 32.4939 610.284 Q27.4968 605.478 27.4968 597.139 Q27.4968 594.434 28.0697 591.856 Q28.6108 589.277 29.7248 586.859 Z" fill="#000000" fill-rule="evenodd" fill-opacity="1" /><path clip-path="url(#clip750)" d="M18.2347 570.881 L28.3562 570.881 L28.3562 558.818 L32.9077 558.818 L32.9077 570.881 L52.2594 570.881 Q56.6199 570.881 57.8613 569.703 Q59.1026 568.493 59.1026 564.833 L59.1026 558.818 L64.0042 558.818 L64.0042 564.833 Q64.0042 571.613 61.4897 574.191 Q58.9434 576.769 52.2594 576.769 L32.9077 576.769 L32.9077 581.066 L28.3562 581.066 L28.3562 576.769 L18.2347 576.769 L18.2347 570.881 Z" fill="#000000" fill-rule="evenodd" fill-opacity="1" /><path clip-path="url(#clip750)" d="M1186.05 17.6457 Q1177.14 17.6457 1171.88 24.2892 Q1166.65 30.9327 1166.65 42.3968 Q1166.65 53.8203 1171.88 60.4638 Q1177.14 67.1073 1186.05 67.1073 Q1194.97 67.1073 1200.15 60.4638 Q1205.38 53.8203 1205.38 42.3968 Q1205.38 30.9327 1200.15 24.2892 Q1194.97 17.6457 1186.05 17.6457 M1186.05 11.0023 Q1198.77 11.0023 1206.39 19.5497 Q1214.01 28.0566 1214.01 42.3968 Q1214.01 56.6965 1206.39 65.2439 Q1198.77 73.7508 1186.05 73.7508 Q1173.29 73.7508 1165.64 65.2439 Q1158.02 56.737 1158.02 42.3968 Q1158.02 28.0566 1165.64 19.5497 Q1173.29 11.0023 1186.05 11.0023 Z" fill="#000000" fill-rule="evenodd" fill-opacity="1" /><path clip-path="url(#clip750)" d="M1221.13 27.2059 L1229.03 27.2059 L1243.21 65.2844 L1257.39 27.2059 L1265.29 27.2059 L1248.28 72.576 L1238.15 72.576 L1221.13 27.2059 Z" fill="#000000" fill-rule="evenodd" fill-opacity="1" /><path clip-path="url(#clip750)" d="M1314.39 48.0275 L1314.39 51.6733 L1280.12 51.6733 Q1280.6 59.3701 1284.73 63.421 Q1288.91 67.4314 1296.32 67.4314 Q1300.61 67.4314 1304.62 66.3781 Q1308.67 65.3249 1312.64 63.2184 L1312.64 70.267 Q1308.63 71.9684 1304.42 72.8596 Q1300.21 73.7508 1295.87 73.7508 Q1285.02 73.7508 1278.66 67.4314 Q1272.34 61.1119 1272.34 50.3365 Q1272.34 39.1965 1278.33 32.6746 Q1284.37 26.1121 1294.58 26.1121 Q1303.73 26.1121 1309.04 32.0264 Q1314.39 37.9003 1314.39 48.0275 M1306.93 45.84 Q1306.85 39.7232 1303.49 36.0774 Q1300.17 32.4315 1294.66 32.4315 Q1288.42 32.4315 1284.65 35.9558 Q1280.93 39.4801 1280.36 45.8805 L1306.93 45.84 Z" fill="#000000" fill-rule="evenodd" fill-opacity="1" /><path clip-path="url(#clip750)" d="M1352.91 34.1734 Q1351.66 33.4443 1350.16 33.1202 Q1348.7 32.7556 1346.92 32.7556 Q1340.6 32.7556 1337.19 36.8875 Q1333.83 40.9789 1333.83 48.6757 L1333.83 72.576 L1326.34 72.576 L1326.34 27.2059 L1333.83 27.2059 L1333.83 34.2544 Q1336.18 30.1225 1339.95 28.1376 Q1343.72 26.1121 1349.1 26.1121 Q1349.87 26.1121 1350.8 26.2337 Q1351.74 26.3147 1352.87 26.5172 L1352.91 34.1734 Z" fill="#000000" fill-rule="evenodd" fill-opacity="1" /><path clip-path="url(#clip750)" d="M1360.73 9.54393 L1368.18 9.54393 L1368.18 72.576 L1360.73 72.576 L1360.73 9.54393 Z" fill="#000000" fill-rule="evenodd" fill-opacity="1" /><path clip-path="url(#clip750)" d="M1404.4 49.7694 Q1395.36 49.7694 1391.88 51.8354 Q1388.4 53.9013 1388.4 58.8839 Q1388.4 62.8538 1390.99 65.2034 Q1393.62 67.5124 1398.12 67.5124 Q1404.32 67.5124 1408.04 63.1374 Q1411.81 58.7219 1411.81 51.4303 L1411.81 49.7694 L1404.4 49.7694 M1419.26 46.6907 L1419.26 72.576 L1411.81 72.576 L1411.81 65.6895 Q1409.26 69.8214 1405.45 71.8063 Q1401.64 73.7508 1396.13 73.7508 Q1389.17 73.7508 1385.03 69.8619 Q1380.94 65.9325 1380.94 59.3701 Q1380.94 51.7138 1386.05 47.825 Q1391.19 43.9361 1401.36 43.9361 L1411.81 43.9361 L1411.81 43.2069 Q1411.81 38.0623 1408.41 35.2672 Q1405.05 32.4315 1398.93 32.4315 Q1395.04 32.4315 1391.35 33.3632 Q1387.67 34.295 1384.26 36.1584 L1384.26 29.2718 Q1388.36 27.692 1392.2 26.9223 Q1396.05 26.1121 1399.7 26.1121 Q1409.54 26.1121 1414.4 31.2163 Q1419.26 36.3204 1419.26 46.6907 Z" fill="#000000" fill-rule="evenodd" fill-opacity="1" /><path clip-path="url(#clip750)" d="M1441.83 65.7705 L1441.83 89.8329 L1434.33 89.8329 L1434.33 27.2059 L1441.83 27.2059 L1441.83 34.0924 Q1444.18 30.0415 1447.74 28.0971 Q1451.35 26.1121 1456.33 26.1121 Q1464.59 26.1121 1469.74 32.6746 Q1474.92 39.2371 1474.92 49.9314 Q1474.92 60.6258 1469.74 67.1883 Q1464.59 73.7508 1456.33 73.7508 Q1451.35 73.7508 1447.74 71.8063 Q1444.18 69.8214 1441.83 65.7705 M1467.19 49.9314 Q1467.19 41.7081 1463.78 37.0496 Q1460.42 32.3505 1454.51 32.3505 Q1448.59 32.3505 1445.19 37.0496 Q1441.83 41.7081 1441.83 49.9314 Q1441.83 58.1548 1445.19 62.8538 Q1448.59 67.5124 1454.51 67.5124 Q1460.42 67.5124 1463.78 62.8538 Q1467.19 58.1548 1467.19 49.9314 Z" fill="#000000" fill-rule="evenodd" fill-opacity="1" /><polyline clip-path="url(#clip752)" style="stroke:#000000; stroke-linecap:round; stroke-linejoin:round; stroke-width:4; stroke-opacity:1; fill:none" points="
  321.641,255.72 321.641,255.719 
  "/>
<polyline clip-path="url(#clip752)" style="stroke:#000000; stroke-linecap:round; stroke-linejoin:round; stroke-width:4; stroke-opacity:1; fill:none" points="
  363.093,1013.03 363.093,1013.02 
  "/>
<polyline clip-path="url(#clip752)" style="stroke:#000000; stroke-linecap:round; stroke-linejoin:round; stroke-width:4; stroke-opacity:1; fill:none" points="
  404.544,1205.77 404.544,1205.76 
  "/>
<polyline clip-path="url(#clip752)" style="stroke:#000000; stroke-linecap:round; stroke-linejoin:round; stroke-width:4; stroke-opacity:1; fill:none" points="
  445.995,1260.18 445.995,1258.74 
  "/>
<polyline clip-path="url(#clip752)" style="stroke:#000000; stroke-linecap:round; stroke-linejoin:round; stroke-width:4; stroke-opacity:1; fill:none" points="
  487.447,1275.6 487.447,1274.73 
  "/>
<polyline clip-path="url(#clip752)" style="stroke:#000000; stroke-linecap:round; stroke-linejoin:round; stroke-width:4; stroke-opacity:1; fill:none" points="
  528.898,1280.57 528.898,1279.3 
  "/>
<polyline clip-path="url(#clip752)" style="stroke:#000000; stroke-linecap:round; stroke-linejoin:round; stroke-width:4; stroke-opacity:1; fill:none" points="
  570.349,1282.15 570.349,1280.69 
  "/>
<polyline clip-path="url(#clip752)" style="stroke:#000000; stroke-linecap:round; stroke-linejoin:round; stroke-width:4; stroke-opacity:1; fill:none" points="
  611.801,1282.71 611.801,1281.07 
  "/>
<polyline clip-path="url(#clip752)" style="stroke:#000000; stroke-linecap:round; stroke-linejoin:round; stroke-width:4; stroke-opacity:1; fill:none" points="
  653.252,1282.92 653.252,1281.16 
  "/>
<polyline clip-path="url(#clip752)" style="stroke:#000000; stroke-linecap:round; stroke-linejoin:round; stroke-width:4; stroke-opacity:1; fill:none" points="
  694.703,1282.94 694.703,1281.23 
  "/>
<polyline clip-path="url(#clip752)" style="stroke:#000000; stroke-linecap:round; stroke-linejoin:round; stroke-width:4; stroke-opacity:1; fill:none" points="
  736.155,1282.95 736.155,1281.23 
  "/>
<polyline clip-path="url(#clip752)" style="stroke:#000000; stroke-linecap:round; stroke-linejoin:round; stroke-width:4; stroke-opacity:1; fill:none" points="
  777.606,1283.09 777.606,1281.08 
  "/>
<polyline clip-path="url(#clip752)" style="stroke:#000000; stroke-linecap:round; stroke-linejoin:round; stroke-width:4; stroke-opacity:1; fill:none" points="
  819.057,1285.47 819.057,1278.65 
  "/>
<polyline clip-path="url(#clip752)" style="stroke:#000000; stroke-linecap:round; stroke-linejoin:round; stroke-width:4; stroke-opacity:1; fill:none" points="
  860.508,1283.08 860.508,1281.12 
  "/>
<polyline clip-path="url(#clip752)" style="stroke:#000000; stroke-linecap:round; stroke-linejoin:round; stroke-width:4; stroke-opacity:1; fill:none" points="
  901.96,1283.02 901.96,1281.08 
  "/>
<polyline clip-path="url(#clip752)" style="stroke:#000000; stroke-linecap:round; stroke-linejoin:round; stroke-width:4; stroke-opacity:1; fill:none" points="
  943.411,1283.01 943.411,1281.21 
  "/>
<polyline clip-path="url(#clip752)" style="stroke:#000000; stroke-linecap:round; stroke-linejoin:round; stroke-width:4; stroke-opacity:1; fill:none" points="
  984.862,1283.05 984.862,1281.15 
  "/>
<polyline clip-path="url(#clip752)" style="stroke:#000000; stroke-linecap:round; stroke-linejoin:round; stroke-width:4; stroke-opacity:1; fill:none" points="
  1026.31,1283.02 1026.31,1281.18 
  "/>
<polyline clip-path="url(#clip752)" style="stroke:#000000; stroke-linecap:round; stroke-linejoin:round; stroke-width:4; stroke-opacity:1; fill:none" points="
  1067.77,1283.08 1067.77,1281.09 
  "/>
<polyline clip-path="url(#clip752)" style="stroke:#000000; stroke-linecap:round; stroke-linejoin:round; stroke-width:4; stroke-opacity:1; fill:none" points="
  1109.22,1283.06 1109.22,1281.15 
  "/>
<polyline clip-path="url(#clip752)" style="stroke:#000000; stroke-linecap:round; stroke-linejoin:round; stroke-width:4; stroke-opacity:1; fill:none" points="
  1150.67,1283.02 1150.67,1281.19 
  "/>
<polyline clip-path="url(#clip752)" style="stroke:#000000; stroke-linecap:round; stroke-linejoin:round; stroke-width:4; stroke-opacity:1; fill:none" points="
  1192.12,1283.04 1192.12,1281.16 
  "/>
<polyline clip-path="url(#clip752)" style="stroke:#000000; stroke-linecap:round; stroke-linejoin:round; stroke-width:4; stroke-opacity:1; fill:none" points="
  1233.57,1283.15 1233.57,1281.06 
  "/>
<polyline clip-path="url(#clip752)" style="stroke:#000000; stroke-linecap:round; stroke-linejoin:round; stroke-width:4; stroke-opacity:1; fill:none" points="
  1275.02,1283.18 1275.02,1281.26 
  "/>
<polyline clip-path="url(#clip752)" style="stroke:#000000; stroke-linecap:round; stroke-linejoin:round; stroke-width:4; stroke-opacity:1; fill:none" points="
  1316.47,1283.07 1316.47,1281.14 
  "/>
<polyline clip-path="url(#clip752)" style="stroke:#000000; stroke-linecap:round; stroke-linejoin:round; stroke-width:4; stroke-opacity:1; fill:none" points="
  1357.92,1283.08 1357.92,1281.13 
  "/>
<polyline clip-path="url(#clip752)" style="stroke:#000000; stroke-linecap:round; stroke-linejoin:round; stroke-width:4; stroke-opacity:1; fill:none" points="
  1399.38,1283.08 1399.38,1281.13 
  "/>
<polyline clip-path="url(#clip752)" style="stroke:#000000; stroke-linecap:round; stroke-linejoin:round; stroke-width:4; stroke-opacity:1; fill:none" points="
  1440.83,1283.15 1440.83,1281.03 
  "/>
<polyline clip-path="url(#clip752)" style="stroke:#000000; stroke-linecap:round; stroke-linejoin:round; stroke-width:4; stroke-opacity:1; fill:none" points="
  1482.28,1282.97 1482.28,1281.07 
  "/>
<polyline clip-path="url(#clip752)" style="stroke:#000000; stroke-linecap:round; stroke-linejoin:round; stroke-width:4; stroke-opacity:1; fill:none" points="
  1523.73,1283.05 1523.73,1281.15 
  "/>
<polyline clip-path="url(#clip752)" style="stroke:#000000; stroke-linecap:round; stroke-linejoin:round; stroke-width:4; stroke-opacity:1; fill:none" points="
  1565.18,1283.06 1565.18,1281.14 
  "/>
<polyline clip-path="url(#clip752)" style="stroke:#000000; stroke-linecap:round; stroke-linejoin:round; stroke-width:4; stroke-opacity:1; fill:none" points="
  1606.63,1283.72 1606.63,1281.81 
  "/>
<polyline clip-path="url(#clip752)" style="stroke:#000000; stroke-linecap:round; stroke-linejoin:round; stroke-width:4; stroke-opacity:1; fill:none" points="
  1648.08,1283.1 1648.08,1281.1 
  "/>
<polyline clip-path="url(#clip752)" style="stroke:#000000; stroke-linecap:round; stroke-linejoin:round; stroke-width:4; stroke-opacity:1; fill:none" points="
  1689.53,1283.65 1689.53,1281.37 
  "/>
<polyline clip-path="url(#clip752)" style="stroke:#000000; stroke-linecap:round; stroke-linejoin:round; stroke-width:4; stroke-opacity:1; fill:none" points="
  1730.99,1283.08 1730.99,1281.19 
  "/>
<polyline clip-path="url(#clip752)" style="stroke:#000000; stroke-linecap:round; stroke-linejoin:round; stroke-width:4; stroke-opacity:1; fill:none" points="
  1772.44,1282.58 1772.44,1280.71 
  "/>
<polyline clip-path="url(#clip752)" style="stroke:#000000; stroke-linecap:round; stroke-linejoin:round; stroke-width:4; stroke-opacity:1; fill:none" points="
  1813.89,1283.31 1813.89,1280.85 
  "/>
<polyline clip-path="url(#clip752)" style="stroke:#000000; stroke-linecap:round; stroke-linejoin:round; stroke-width:4; stroke-opacity:1; fill:none" points="
  1855.34,1284.1 1855.34,1280.06 
  "/>
<polyline clip-path="url(#clip752)" style="stroke:#000000; stroke-linecap:round; stroke-linejoin:round; stroke-width:4; stroke-opacity:1; fill:none" points="
  1896.79,1286.06 1896.79,1277.71 
  "/>
<polyline clip-path="url(#clip752)" style="stroke:#000000; stroke-linecap:round; stroke-linejoin:round; stroke-width:4; stroke-opacity:1; fill:none" points="
  1938.24,1300.47 1938.24,1264.7 
  "/>
<polyline clip-path="url(#clip752)" style="stroke:#000000; stroke-linecap:round; stroke-linejoin:round; stroke-width:4; stroke-opacity:1; fill:none" points="
  1979.69,1283.47 1979.69,1280.75 
  "/>
<polyline clip-path="url(#clip752)" style="stroke:#000000; stroke-linecap:round; stroke-linejoin:round; stroke-width:4; stroke-opacity:1; fill:none" points="
  2021.15,1288.61 2021.15,1275.48 
  "/>
<polyline clip-path="url(#clip752)" style="stroke:#000000; stroke-linecap:round; stroke-linejoin:round; stroke-width:4; stroke-opacity:1; fill:none" points="
  2062.6,1286.28 2062.6,1278.34 
  "/>
<polyline clip-path="url(#clip752)" style="stroke:#000000; stroke-linecap:round; stroke-linejoin:round; stroke-width:4; stroke-opacity:1; fill:none" points="
  2104.05,1284.7 2104.05,1279.57 
  "/>
<polyline clip-path="url(#clip752)" style="stroke:#000000; stroke-linecap:round; stroke-linejoin:round; stroke-width:4; stroke-opacity:1; fill:none" points="
  2145.5,1288.4 2145.5,1275.72 
  "/>
<polyline clip-path="url(#clip752)" style="stroke:#000000; stroke-linecap:round; stroke-linejoin:round; stroke-width:4; stroke-opacity:1; fill:none" points="
  2186.95,1283.47 2186.95,1281.6 
  "/>
<polyline clip-path="url(#clip752)" style="stroke:#000000; stroke-linecap:round; stroke-linejoin:round; stroke-width:4; stroke-opacity:1; fill:none" points="
  2228.4,1286.84 2228.4,1278.33 
  "/>
<polyline clip-path="url(#clip752)" style="stroke:#000000; stroke-linecap:round; stroke-linejoin:round; stroke-width:4; stroke-opacity:1; fill:none" points="
  2269.85,1283.36 2269.85,1281.09 
  "/>
<polyline clip-path="url(#clip752)" style="stroke:#000000; stroke-linecap:round; stroke-linejoin:round; stroke-width:4; stroke-opacity:1; fill:none" points="
  2311.3,1286.14 2311.3,1277.05 
  "/>
<line clip-path="url(#clip752)" x1="329.641" y1="255.72" x2="313.641" y2="255.72" style="stroke:#000000; stroke-width:3.2; stroke-opacity:1"/>
<line clip-path="url(#clip752)" x1="329.641" y1="255.719" x2="313.641" y2="255.719" style="stroke:#000000; stroke-width:3.2; stroke-opacity:1"/>
<line clip-path="url(#clip752)" x1="371.093" y1="1013.03" x2="355.093" y2="1013.03" style="stroke:#000000; stroke-width:3.2; stroke-opacity:1"/>
<line clip-path="url(#clip752)" x1="371.093" y1="1013.02" x2="355.093" y2="1013.02" style="stroke:#000000; stroke-width:3.2; stroke-opacity:1"/>
<line clip-path="url(#clip752)" x1="412.544" y1="1205.77" x2="396.544" y2="1205.77" style="stroke:#000000; stroke-width:3.2; stroke-opacity:1"/>
<line clip-path="url(#clip752)" x1="412.544" y1="1205.76" x2="396.544" y2="1205.76" style="stroke:#000000; stroke-width:3.2; stroke-opacity:1"/>
<line clip-path="url(#clip752)" x1="453.995" y1="1260.18" x2="437.995" y2="1260.18" style="stroke:#000000; stroke-width:3.2; stroke-opacity:1"/>
<line clip-path="url(#clip752)" x1="453.995" y1="1258.74" x2="437.995" y2="1258.74" style="stroke:#000000; stroke-width:3.2; stroke-opacity:1"/>
<line clip-path="url(#clip752)" x1="495.447" y1="1275.6" x2="479.447" y2="1275.6" style="stroke:#000000; stroke-width:3.2; stroke-opacity:1"/>
<line clip-path="url(#clip752)" x1="495.447" y1="1274.73" x2="479.447" y2="1274.73" style="stroke:#000000; stroke-width:3.2; stroke-opacity:1"/>
<line clip-path="url(#clip752)" x1="536.898" y1="1280.57" x2="520.898" y2="1280.57" style="stroke:#000000; stroke-width:3.2; stroke-opacity:1"/>
<line clip-path="url(#clip752)" x1="536.898" y1="1279.3" x2="520.898" y2="1279.3" style="stroke:#000000; stroke-width:3.2; stroke-opacity:1"/>
<line clip-path="url(#clip752)" x1="578.349" y1="1282.15" x2="562.349" y2="1282.15" style="stroke:#000000; stroke-width:3.2; stroke-opacity:1"/>
<line clip-path="url(#clip752)" x1="578.349" y1="1280.69" x2="562.349" y2="1280.69" style="stroke:#000000; stroke-width:3.2; stroke-opacity:1"/>
<line clip-path="url(#clip752)" x1="619.801" y1="1282.71" x2="603.801" y2="1282.71" style="stroke:#000000; stroke-width:3.2; stroke-opacity:1"/>
<line clip-path="url(#clip752)" x1="619.801" y1="1281.07" x2="603.801" y2="1281.07" style="stroke:#000000; stroke-width:3.2; stroke-opacity:1"/>
<line clip-path="url(#clip752)" x1="661.252" y1="1282.92" x2="645.252" y2="1282.92" style="stroke:#000000; stroke-width:3.2; stroke-opacity:1"/>
<line clip-path="url(#clip752)" x1="661.252" y1="1281.16" x2="645.252" y2="1281.16" style="stroke:#000000; stroke-width:3.2; stroke-opacity:1"/>
<line clip-path="url(#clip752)" x1="702.703" y1="1282.94" x2="686.703" y2="1282.94" style="stroke:#000000; stroke-width:3.2; stroke-opacity:1"/>
<line clip-path="url(#clip752)" x1="702.703" y1="1281.23" x2="686.703" y2="1281.23" style="stroke:#000000; stroke-width:3.2; stroke-opacity:1"/>
<line clip-path="url(#clip752)" x1="744.155" y1="1282.95" x2="728.155" y2="1282.95" style="stroke:#000000; stroke-width:3.2; stroke-opacity:1"/>
<line clip-path="url(#clip752)" x1="744.155" y1="1281.23" x2="728.155" y2="1281.23" style="stroke:#000000; stroke-width:3.2; stroke-opacity:1"/>
<line clip-path="url(#clip752)" x1="785.606" y1="1283.09" x2="769.606" y2="1283.09" style="stroke:#000000; stroke-width:3.2; stroke-opacity:1"/>
<line clip-path="url(#clip752)" x1="785.606" y1="1281.08" x2="769.606" y2="1281.08" style="stroke:#000000; stroke-width:3.2; stroke-opacity:1"/>
<line clip-path="url(#clip752)" x1="827.057" y1="1285.47" x2="811.057" y2="1285.47" style="stroke:#000000; stroke-width:3.2; stroke-opacity:1"/>
<line clip-path="url(#clip752)" x1="827.057" y1="1278.65" x2="811.057" y2="1278.65" style="stroke:#000000; stroke-width:3.2; stroke-opacity:1"/>
<line clip-path="url(#clip752)" x1="868.508" y1="1283.08" x2="852.508" y2="1283.08" style="stroke:#000000; stroke-width:3.2; stroke-opacity:1"/>
<line clip-path="url(#clip752)" x1="868.508" y1="1281.12" x2="852.508" y2="1281.12" style="stroke:#000000; stroke-width:3.2; stroke-opacity:1"/>
<line clip-path="url(#clip752)" x1="909.96" y1="1283.02" x2="893.96" y2="1283.02" style="stroke:#000000; stroke-width:3.2; stroke-opacity:1"/>
<line clip-path="url(#clip752)" x1="909.96" y1="1281.08" x2="893.96" y2="1281.08" style="stroke:#000000; stroke-width:3.2; stroke-opacity:1"/>
<line clip-path="url(#clip752)" x1="951.411" y1="1283.01" x2="935.411" y2="1283.01" style="stroke:#000000; stroke-width:3.2; stroke-opacity:1"/>
<line clip-path="url(#clip752)" x1="951.411" y1="1281.21" x2="935.411" y2="1281.21" style="stroke:#000000; stroke-width:3.2; stroke-opacity:1"/>
<line clip-path="url(#clip752)" x1="992.862" y1="1283.05" x2="976.862" y2="1283.05" style="stroke:#000000; stroke-width:3.2; stroke-opacity:1"/>
<line clip-path="url(#clip752)" x1="992.862" y1="1281.15" x2="976.862" y2="1281.15" style="stroke:#000000; stroke-width:3.2; stroke-opacity:1"/>
<line clip-path="url(#clip752)" x1="1034.31" y1="1283.02" x2="1018.31" y2="1283.02" style="stroke:#000000; stroke-width:3.2; stroke-opacity:1"/>
<line clip-path="url(#clip752)" x1="1034.31" y1="1281.18" x2="1018.31" y2="1281.18" style="stroke:#000000; stroke-width:3.2; stroke-opacity:1"/>
<line clip-path="url(#clip752)" x1="1075.77" y1="1283.08" x2="1059.77" y2="1283.08" style="stroke:#000000; stroke-width:3.2; stroke-opacity:1"/>
<line clip-path="url(#clip752)" x1="1075.77" y1="1281.09" x2="1059.77" y2="1281.09" style="stroke:#000000; stroke-width:3.2; stroke-opacity:1"/>
<line clip-path="url(#clip752)" x1="1117.22" y1="1283.06" x2="1101.22" y2="1283.06" style="stroke:#000000; stroke-width:3.2; stroke-opacity:1"/>
<line clip-path="url(#clip752)" x1="1117.22" y1="1281.15" x2="1101.22" y2="1281.15" style="stroke:#000000; stroke-width:3.2; stroke-opacity:1"/>
<line clip-path="url(#clip752)" x1="1158.67" y1="1283.02" x2="1142.67" y2="1283.02" style="stroke:#000000; stroke-width:3.2; stroke-opacity:1"/>
<line clip-path="url(#clip752)" x1="1158.67" y1="1281.19" x2="1142.67" y2="1281.19" style="stroke:#000000; stroke-width:3.2; stroke-opacity:1"/>
<line clip-path="url(#clip752)" x1="1200.12" y1="1283.04" x2="1184.12" y2="1283.04" style="stroke:#000000; stroke-width:3.2; stroke-opacity:1"/>
<line clip-path="url(#clip752)" x1="1200.12" y1="1281.16" x2="1184.12" y2="1281.16" style="stroke:#000000; stroke-width:3.2; stroke-opacity:1"/>
<line clip-path="url(#clip752)" x1="1241.57" y1="1283.15" x2="1225.57" y2="1283.15" style="stroke:#000000; stroke-width:3.2; stroke-opacity:1"/>
<line clip-path="url(#clip752)" x1="1241.57" y1="1281.06" x2="1225.57" y2="1281.06" style="stroke:#000000; stroke-width:3.2; stroke-opacity:1"/>
<line clip-path="url(#clip752)" x1="1283.02" y1="1283.18" x2="1267.02" y2="1283.18" style="stroke:#000000; stroke-width:3.2; stroke-opacity:1"/>
<line clip-path="url(#clip752)" x1="1283.02" y1="1281.26" x2="1267.02" y2="1281.26" style="stroke:#000000; stroke-width:3.2; stroke-opacity:1"/>
<line clip-path="url(#clip752)" x1="1324.47" y1="1283.07" x2="1308.47" y2="1283.07" style="stroke:#000000; stroke-width:3.2; stroke-opacity:1"/>
<line clip-path="url(#clip752)" x1="1324.47" y1="1281.14" x2="1308.47" y2="1281.14" style="stroke:#000000; stroke-width:3.2; stroke-opacity:1"/>
<line clip-path="url(#clip752)" x1="1365.92" y1="1283.08" x2="1349.92" y2="1283.08" style="stroke:#000000; stroke-width:3.2; stroke-opacity:1"/>
<line clip-path="url(#clip752)" x1="1365.92" y1="1281.13" x2="1349.92" y2="1281.13" style="stroke:#000000; stroke-width:3.2; stroke-opacity:1"/>
<line clip-path="url(#clip752)" x1="1407.38" y1="1283.08" x2="1391.38" y2="1283.08" style="stroke:#000000; stroke-width:3.2; stroke-opacity:1"/>
<line clip-path="url(#clip752)" x1="1407.38" y1="1281.13" x2="1391.38" y2="1281.13" style="stroke:#000000; stroke-width:3.2; stroke-opacity:1"/>
<line clip-path="url(#clip752)" x1="1448.83" y1="1283.15" x2="1432.83" y2="1283.15" style="stroke:#000000; stroke-width:3.2; stroke-opacity:1"/>
<line clip-path="url(#clip752)" x1="1448.83" y1="1281.03" x2="1432.83" y2="1281.03" style="stroke:#000000; stroke-width:3.2; stroke-opacity:1"/>
<line clip-path="url(#clip752)" x1="1490.28" y1="1282.97" x2="1474.28" y2="1282.97" style="stroke:#000000; stroke-width:3.2; stroke-opacity:1"/>
<line clip-path="url(#clip752)" x1="1490.28" y1="1281.07" x2="1474.28" y2="1281.07" style="stroke:#000000; stroke-width:3.2; stroke-opacity:1"/>
<line clip-path="url(#clip752)" x1="1531.73" y1="1283.05" x2="1515.73" y2="1283.05" style="stroke:#000000; stroke-width:3.2; stroke-opacity:1"/>
<line clip-path="url(#clip752)" x1="1531.73" y1="1281.15" x2="1515.73" y2="1281.15" style="stroke:#000000; stroke-width:3.2; stroke-opacity:1"/>
<line clip-path="url(#clip752)" x1="1573.18" y1="1283.06" x2="1557.18" y2="1283.06" style="stroke:#000000; stroke-width:3.2; stroke-opacity:1"/>
<line clip-path="url(#clip752)" x1="1573.18" y1="1281.14" x2="1557.18" y2="1281.14" style="stroke:#000000; stroke-width:3.2; stroke-opacity:1"/>
<line clip-path="url(#clip752)" x1="1614.63" y1="1283.72" x2="1598.63" y2="1283.72" style="stroke:#000000; stroke-width:3.2; stroke-opacity:1"/>
<line clip-path="url(#clip752)" x1="1614.63" y1="1281.81" x2="1598.63" y2="1281.81" style="stroke:#000000; stroke-width:3.2; stroke-opacity:1"/>
<line clip-path="url(#clip752)" x1="1656.08" y1="1283.1" x2="1640.08" y2="1283.1" style="stroke:#000000; stroke-width:3.2; stroke-opacity:1"/>
<line clip-path="url(#clip752)" x1="1656.08" y1="1281.1" x2="1640.08" y2="1281.1" style="stroke:#000000; stroke-width:3.2; stroke-opacity:1"/>
<line clip-path="url(#clip752)" x1="1697.53" y1="1283.65" x2="1681.53" y2="1283.65" style="stroke:#000000; stroke-width:3.2; stroke-opacity:1"/>
<line clip-path="url(#clip752)" x1="1697.53" y1="1281.37" x2="1681.53" y2="1281.37" style="stroke:#000000; stroke-width:3.2; stroke-opacity:1"/>
<line clip-path="url(#clip752)" x1="1738.99" y1="1283.08" x2="1722.99" y2="1283.08" style="stroke:#000000; stroke-width:3.2; stroke-opacity:1"/>
<line clip-path="url(#clip752)" x1="1738.99" y1="1281.19" x2="1722.99" y2="1281.19" style="stroke:#000000; stroke-width:3.2; stroke-opacity:1"/>
<line clip-path="url(#clip752)" x1="1780.44" y1="1282.58" x2="1764.44" y2="1282.58" style="stroke:#000000; stroke-width:3.2; stroke-opacity:1"/>
<line clip-path="url(#clip752)" x1="1780.44" y1="1280.71" x2="1764.44" y2="1280.71" style="stroke:#000000; stroke-width:3.2; stroke-opacity:1"/>
<line clip-path="url(#clip752)" x1="1821.89" y1="1283.31" x2="1805.89" y2="1283.31" style="stroke:#000000; stroke-width:3.2; stroke-opacity:1"/>
<line clip-path="url(#clip752)" x1="1821.89" y1="1280.85" x2="1805.89" y2="1280.85" style="stroke:#000000; stroke-width:3.2; stroke-opacity:1"/>
<line clip-path="url(#clip752)" x1="1863.34" y1="1284.1" x2="1847.34" y2="1284.1" style="stroke:#000000; stroke-width:3.2; stroke-opacity:1"/>
<line clip-path="url(#clip752)" x1="1863.34" y1="1280.06" x2="1847.34" y2="1280.06" style="stroke:#000000; stroke-width:3.2; stroke-opacity:1"/>
<line clip-path="url(#clip752)" x1="1904.79" y1="1286.06" x2="1888.79" y2="1286.06" style="stroke:#000000; stroke-width:3.2; stroke-opacity:1"/>
<line clip-path="url(#clip752)" x1="1904.79" y1="1277.71" x2="1888.79" y2="1277.71" style="stroke:#000000; stroke-width:3.2; stroke-opacity:1"/>
<line clip-path="url(#clip752)" x1="1946.24" y1="1300.47" x2="1930.24" y2="1300.47" style="stroke:#000000; stroke-width:3.2; stroke-opacity:1"/>
<line clip-path="url(#clip752)" x1="1946.24" y1="1264.7" x2="1930.24" y2="1264.7" style="stroke:#000000; stroke-width:3.2; stroke-opacity:1"/>
<line clip-path="url(#clip752)" x1="1987.69" y1="1283.47" x2="1971.69" y2="1283.47" style="stroke:#000000; stroke-width:3.2; stroke-opacity:1"/>
<line clip-path="url(#clip752)" x1="1987.69" y1="1280.75" x2="1971.69" y2="1280.75" style="stroke:#000000; stroke-width:3.2; stroke-opacity:1"/>
<line clip-path="url(#clip752)" x1="2029.15" y1="1288.61" x2="2013.15" y2="1288.61" style="stroke:#000000; stroke-width:3.2; stroke-opacity:1"/>
<line clip-path="url(#clip752)" x1="2029.15" y1="1275.48" x2="2013.15" y2="1275.48" style="stroke:#000000; stroke-width:3.2; stroke-opacity:1"/>
<line clip-path="url(#clip752)" x1="2070.6" y1="1286.28" x2="2054.6" y2="1286.28" style="stroke:#000000; stroke-width:3.2; stroke-opacity:1"/>
<line clip-path="url(#clip752)" x1="2070.6" y1="1278.34" x2="2054.6" y2="1278.34" style="stroke:#000000; stroke-width:3.2; stroke-opacity:1"/>
<line clip-path="url(#clip752)" x1="2112.05" y1="1284.7" x2="2096.05" y2="1284.7" style="stroke:#000000; stroke-width:3.2; stroke-opacity:1"/>
<line clip-path="url(#clip752)" x1="2112.05" y1="1279.57" x2="2096.05" y2="1279.57" style="stroke:#000000; stroke-width:3.2; stroke-opacity:1"/>
<line clip-path="url(#clip752)" x1="2153.5" y1="1288.4" x2="2137.5" y2="1288.4" style="stroke:#000000; stroke-width:3.2; stroke-opacity:1"/>
<line clip-path="url(#clip752)" x1="2153.5" y1="1275.72" x2="2137.5" y2="1275.72" style="stroke:#000000; stroke-width:3.2; stroke-opacity:1"/>
<line clip-path="url(#clip752)" x1="2194.95" y1="1283.47" x2="2178.95" y2="1283.47" style="stroke:#000000; stroke-width:3.2; stroke-opacity:1"/>
<line clip-path="url(#clip752)" x1="2194.95" y1="1281.6" x2="2178.95" y2="1281.6" style="stroke:#000000; stroke-width:3.2; stroke-opacity:1"/>
<line clip-path="url(#clip752)" x1="2236.4" y1="1286.84" x2="2220.4" y2="1286.84" style="stroke:#000000; stroke-width:3.2; stroke-opacity:1"/>
<line clip-path="url(#clip752)" x1="2236.4" y1="1278.33" x2="2220.4" y2="1278.33" style="stroke:#000000; stroke-width:3.2; stroke-opacity:1"/>
<line clip-path="url(#clip752)" x1="2277.85" y1="1283.36" x2="2261.85" y2="1283.36" style="stroke:#000000; stroke-width:3.2; stroke-opacity:1"/>
<line clip-path="url(#clip752)" x1="2277.85" y1="1281.09" x2="2261.85" y2="1281.09" style="stroke:#000000; stroke-width:3.2; stroke-opacity:1"/>
<line clip-path="url(#clip752)" x1="2319.3" y1="1286.14" x2="2303.3" y2="1286.14" style="stroke:#000000; stroke-width:3.2; stroke-opacity:1"/>
<line clip-path="url(#clip752)" x1="2319.3" y1="1277.05" x2="2303.3" y2="1277.05" style="stroke:#000000; stroke-width:3.2; stroke-opacity:1"/>
<circle clip-path="url(#clip752)" cx="321.641" cy="255.72" r="7.2" fill="#009af9" fill-rule="evenodd" fill-opacity="1" stroke="#000000" stroke-opacity="1" stroke-width="3.2"/>
<circle clip-path="url(#clip752)" cx="363.093" cy="1013.02" r="7.2" fill="#009af9" fill-rule="evenodd" fill-opacity="1" stroke="#000000" stroke-opacity="1" stroke-width="3.2"/>
<circle clip-path="url(#clip752)" cx="404.544" cy="1205.77" r="7.2" fill="#009af9" fill-rule="evenodd" fill-opacity="1" stroke="#000000" stroke-opacity="1" stroke-width="3.2"/>
<circle clip-path="url(#clip752)" cx="445.995" cy="1259.46" r="7.2" fill="#009af9" fill-rule="evenodd" fill-opacity="1" stroke="#000000" stroke-opacity="1" stroke-width="3.2"/>
<circle clip-path="url(#clip752)" cx="487.447" cy="1275.17" r="7.2" fill="#009af9" fill-rule="evenodd" fill-opacity="1" stroke="#000000" stroke-opacity="1" stroke-width="3.2"/>
<circle clip-path="url(#clip752)" cx="528.898" cy="1279.93" r="7.2" fill="#009af9" fill-rule="evenodd" fill-opacity="1" stroke="#000000" stroke-opacity="1" stroke-width="3.2"/>
<circle clip-path="url(#clip752)" cx="570.349" cy="1281.42" r="7.2" fill="#009af9" fill-rule="evenodd" fill-opacity="1" stroke="#000000" stroke-opacity="1" stroke-width="3.2"/>
<circle clip-path="url(#clip752)" cx="611.801" cy="1281.89" r="7.2" fill="#009af9" fill-rule="evenodd" fill-opacity="1" stroke="#000000" stroke-opacity="1" stroke-width="3.2"/>
<circle clip-path="url(#clip752)" cx="653.252" cy="1282.04" r="7.2" fill="#009af9" fill-rule="evenodd" fill-opacity="1" stroke="#000000" stroke-opacity="1" stroke-width="3.2"/>
<circle clip-path="url(#clip752)" cx="694.703" cy="1282.08" r="7.2" fill="#009af9" fill-rule="evenodd" fill-opacity="1" stroke="#000000" stroke-opacity="1" stroke-width="3.2"/>
<circle clip-path="url(#clip752)" cx="736.155" cy="1282.09" r="7.2" fill="#009af9" fill-rule="evenodd" fill-opacity="1" stroke="#000000" stroke-opacity="1" stroke-width="3.2"/>
<circle clip-path="url(#clip752)" cx="777.606" cy="1282.09" r="7.2" fill="#009af9" fill-rule="evenodd" fill-opacity="1" stroke="#000000" stroke-opacity="1" stroke-width="3.2"/>
<circle clip-path="url(#clip752)" cx="819.057" cy="1282.06" r="7.2" fill="#009af9" fill-rule="evenodd" fill-opacity="1" stroke="#000000" stroke-opacity="1" stroke-width="3.2"/>
<circle clip-path="url(#clip752)" cx="860.508" cy="1282.1" r="7.2" fill="#009af9" fill-rule="evenodd" fill-opacity="1" stroke="#000000" stroke-opacity="1" stroke-width="3.2"/>
<circle clip-path="url(#clip752)" cx="901.96" cy="1282.05" r="7.2" fill="#009af9" fill-rule="evenodd" fill-opacity="1" stroke="#000000" stroke-opacity="1" stroke-width="3.2"/>
<circle clip-path="url(#clip752)" cx="943.411" cy="1282.11" r="7.2" fill="#009af9" fill-rule="evenodd" fill-opacity="1" stroke="#000000" stroke-opacity="1" stroke-width="3.2"/>
<circle clip-path="url(#clip752)" cx="984.862" cy="1282.1" r="7.2" fill="#009af9" fill-rule="evenodd" fill-opacity="1" stroke="#000000" stroke-opacity="1" stroke-width="3.2"/>
<circle clip-path="url(#clip752)" cx="1026.31" cy="1282.1" r="7.2" fill="#009af9" fill-rule="evenodd" fill-opacity="1" stroke="#000000" stroke-opacity="1" stroke-width="3.2"/>
<circle clip-path="url(#clip752)" cx="1067.77" cy="1282.09" r="7.2" fill="#009af9" fill-rule="evenodd" fill-opacity="1" stroke="#000000" stroke-opacity="1" stroke-width="3.2"/>
<circle clip-path="url(#clip752)" cx="1109.22" cy="1282.11" r="7.2" fill="#009af9" fill-rule="evenodd" fill-opacity="1" stroke="#000000" stroke-opacity="1" stroke-width="3.2"/>
<circle clip-path="url(#clip752)" cx="1150.67" cy="1282.1" r="7.2" fill="#009af9" fill-rule="evenodd" fill-opacity="1" stroke="#000000" stroke-opacity="1" stroke-width="3.2"/>
<circle clip-path="url(#clip752)" cx="1192.12" cy="1282.1" r="7.2" fill="#009af9" fill-rule="evenodd" fill-opacity="1" stroke="#000000" stroke-opacity="1" stroke-width="3.2"/>
<circle clip-path="url(#clip752)" cx="1233.57" cy="1282.11" r="7.2" fill="#009af9" fill-rule="evenodd" fill-opacity="1" stroke="#000000" stroke-opacity="1" stroke-width="3.2"/>
<circle clip-path="url(#clip752)" cx="1275.02" cy="1282.22" r="7.2" fill="#009af9" fill-rule="evenodd" fill-opacity="1" stroke="#000000" stroke-opacity="1" stroke-width="3.2"/>
<circle clip-path="url(#clip752)" cx="1316.47" cy="1282.1" r="7.2" fill="#009af9" fill-rule="evenodd" fill-opacity="1" stroke="#000000" stroke-opacity="1" stroke-width="3.2"/>
<circle clip-path="url(#clip752)" cx="1357.92" cy="1282.1" r="7.2" fill="#009af9" fill-rule="evenodd" fill-opacity="1" stroke="#000000" stroke-opacity="1" stroke-width="3.2"/>
<circle clip-path="url(#clip752)" cx="1399.38" cy="1282.11" r="7.2" fill="#009af9" fill-rule="evenodd" fill-opacity="1" stroke="#000000" stroke-opacity="1" stroke-width="3.2"/>
<circle clip-path="url(#clip752)" cx="1440.83" cy="1282.09" r="7.2" fill="#009af9" fill-rule="evenodd" fill-opacity="1" stroke="#000000" stroke-opacity="1" stroke-width="3.2"/>
<circle clip-path="url(#clip752)" cx="1482.28" cy="1282.02" r="7.2" fill="#009af9" fill-rule="evenodd" fill-opacity="1" stroke="#000000" stroke-opacity="1" stroke-width="3.2"/>
<circle clip-path="url(#clip752)" cx="1523.73" cy="1282.1" r="7.2" fill="#009af9" fill-rule="evenodd" fill-opacity="1" stroke="#000000" stroke-opacity="1" stroke-width="3.2"/>
<circle clip-path="url(#clip752)" cx="1565.18" cy="1282.1" r="7.2" fill="#009af9" fill-rule="evenodd" fill-opacity="1" stroke="#000000" stroke-opacity="1" stroke-width="3.2"/>
<circle clip-path="url(#clip752)" cx="1606.63" cy="1282.77" r="7.2" fill="#009af9" fill-rule="evenodd" fill-opacity="1" stroke="#000000" stroke-opacity="1" stroke-width="3.2"/>
<circle clip-path="url(#clip752)" cx="1648.08" cy="1282.1" r="7.2" fill="#009af9" fill-rule="evenodd" fill-opacity="1" stroke="#000000" stroke-opacity="1" stroke-width="3.2"/>
<circle clip-path="url(#clip752)" cx="1689.53" cy="1282.51" r="7.2" fill="#009af9" fill-rule="evenodd" fill-opacity="1" stroke="#000000" stroke-opacity="1" stroke-width="3.2"/>
<circle clip-path="url(#clip752)" cx="1730.99" cy="1282.13" r="7.2" fill="#009af9" fill-rule="evenodd" fill-opacity="1" stroke="#000000" stroke-opacity="1" stroke-width="3.2"/>
<circle clip-path="url(#clip752)" cx="1772.44" cy="1281.64" r="7.2" fill="#009af9" fill-rule="evenodd" fill-opacity="1" stroke="#000000" stroke-opacity="1" stroke-width="3.2"/>
<circle clip-path="url(#clip752)" cx="1813.89" cy="1282.08" r="7.2" fill="#009af9" fill-rule="evenodd" fill-opacity="1" stroke="#000000" stroke-opacity="1" stroke-width="3.2"/>
<circle clip-path="url(#clip752)" cx="1855.34" cy="1282.08" r="7.2" fill="#009af9" fill-rule="evenodd" fill-opacity="1" stroke="#000000" stroke-opacity="1" stroke-width="3.2"/>
<circle clip-path="url(#clip752)" cx="1896.79" cy="1281.88" r="7.2" fill="#009af9" fill-rule="evenodd" fill-opacity="1" stroke="#000000" stroke-opacity="1" stroke-width="3.2"/>
<circle clip-path="url(#clip752)" cx="1938.24" cy="1282.59" r="7.2" fill="#009af9" fill-rule="evenodd" fill-opacity="1" stroke="#000000" stroke-opacity="1" stroke-width="3.2"/>
<circle clip-path="url(#clip752)" cx="1979.69" cy="1282.11" r="7.2" fill="#009af9" fill-rule="evenodd" fill-opacity="1" stroke="#000000" stroke-opacity="1" stroke-width="3.2"/>
<circle clip-path="url(#clip752)" cx="2021.15" cy="1282.04" r="7.2" fill="#009af9" fill-rule="evenodd" fill-opacity="1" stroke="#000000" stroke-opacity="1" stroke-width="3.2"/>
<circle clip-path="url(#clip752)" cx="2062.6" cy="1282.31" r="7.2" fill="#009af9" fill-rule="evenodd" fill-opacity="1" stroke="#000000" stroke-opacity="1" stroke-width="3.2"/>
<circle clip-path="url(#clip752)" cx="2104.05" cy="1282.13" r="7.2" fill="#009af9" fill-rule="evenodd" fill-opacity="1" stroke="#000000" stroke-opacity="1" stroke-width="3.2"/>
<circle clip-path="url(#clip752)" cx="2145.5" cy="1282.06" r="7.2" fill="#009af9" fill-rule="evenodd" fill-opacity="1" stroke="#000000" stroke-opacity="1" stroke-width="3.2"/>
<circle clip-path="url(#clip752)" cx="2186.95" cy="1282.54" r="7.2" fill="#009af9" fill-rule="evenodd" fill-opacity="1" stroke="#000000" stroke-opacity="1" stroke-width="3.2"/>
<circle clip-path="url(#clip752)" cx="2228.4" cy="1282.58" r="7.2" fill="#009af9" fill-rule="evenodd" fill-opacity="1" stroke="#000000" stroke-opacity="1" stroke-width="3.2"/>
<circle clip-path="url(#clip752)" cx="2269.85" cy="1282.23" r="7.2" fill="#009af9" fill-rule="evenodd" fill-opacity="1" stroke="#000000" stroke-opacity="1" stroke-width="3.2"/>
<circle clip-path="url(#clip752)" cx="2311.3" cy="1281.6" r="7.2" fill="#009af9" fill-rule="evenodd" fill-opacity="1" stroke="#000000" stroke-opacity="1" stroke-width="3.2"/>
<path clip-path="url(#clip750)" d="
M1718.64 270.476 L2283.67 270.476 L2283.67 166.796 L1718.64 166.796  Z
  " fill="#ffffff" fill-rule="evenodd" fill-opacity="1"/>
<polyline clip-path="url(#clip750)" style="stroke:#000000; stroke-linecap:round; stroke-linejoin:round; stroke-width:4; stroke-opacity:1; fill:none" points="
  1718.64,270.476 2283.67,270.476 2283.67,166.796 1718.64,166.796 1718.64,270.476 
  "/>
<circle clip-path="url(#clip750)" cx="1810.75" cy="218.636" r="23.04" fill="#009af9" fill-rule="evenodd" fill-opacity="1" stroke="#000000" stroke-opacity="1" stroke-width="10.24"/>
<path clip-path="url(#clip750)" d="M1923.21 214.967 Q1924.81 212.096 1927.03 210.731 Q1929.25 209.365 1932.26 209.365 Q1936.31 209.365 1938.51 212.212 Q1940.71 215.036 1940.71 220.268 L1940.71 235.916 L1936.43 235.916 L1936.43 220.407 Q1936.43 216.68 1935.11 214.874 Q1933.79 213.069 1931.08 213.069 Q1927.77 213.069 1925.85 215.268 Q1923.93 217.467 1923.93 221.263 L1923.93 235.916 L1919.65 235.916 L1919.65 220.407 Q1919.65 216.657 1918.33 214.874 Q1917.01 213.069 1914.25 213.069 Q1910.99 213.069 1909.07 215.291 Q1907.15 217.49 1907.15 221.263 L1907.15 235.916 L1902.87 235.916 L1902.87 209.99 L1907.15 209.99 L1907.15 214.018 Q1908.61 211.633 1910.64 210.499 Q1912.68 209.365 1915.48 209.365 Q1918.31 209.365 1920.27 210.8 Q1922.26 212.235 1923.21 214.967 Z" fill="#000000" fill-rule="evenodd" fill-opacity="1" /><path clip-path="url(#clip750)" d="M1957.94 220.245 Q1956.78 218.254 1954.44 218.254 Q1952.1 218.254 1950.94 220.245 Q1949.76 222.235 1949.76 226.217 Q1949.76 230.221 1950.94 232.212 Q1952.1 234.203 1954.44 234.203 Q1956.78 234.203 1957.94 232.212 Q1959.12 230.221 1959.12 226.217 Q1959.12 222.235 1957.94 220.245 M1954.44 216.194 Q1958.17 216.194 1960.13 218.763 Q1962.1 221.332 1962.1 226.217 Q1962.1 231.124 1960.13 233.694 Q1958.17 236.263 1954.44 236.263 Q1950.69 236.263 1948.72 233.694 Q1946.75 231.124 1946.75 226.217 Q1946.75 221.332 1948.72 218.763 Q1950.69 216.194 1954.44 216.194 Z" fill="#000000" fill-rule="evenodd" fill-opacity="1" /><path clip-path="url(#clip750)" d="M1968.77 214.388 L1998.44 214.388 L1998.44 218.277 L1968.77 218.277 L1968.77 214.388 M1968.77 223.832 L1998.44 223.832 L1998.44 227.768 L1968.77 227.768 L1968.77 223.832 Z" fill="#000000" fill-rule="evenodd" fill-opacity="1" /><path clip-path="url(#clip750)" d="M2018.54 204.434 Q2014.93 204.434 2013.1 207.999 Q2011.29 211.541 2011.29 218.67 Q2011.29 225.777 2013.1 229.342 Q2014.93 232.883 2018.54 232.883 Q2022.17 232.883 2023.98 229.342 Q2025.81 225.777 2025.81 218.67 Q2025.81 211.541 2023.98 207.999 Q2022.17 204.434 2018.54 204.434 M2018.54 200.731 Q2024.35 200.731 2027.4 205.337 Q2030.48 209.92 2030.48 218.67 Q2030.48 227.397 2027.4 232.004 Q2024.35 236.587 2018.54 236.587 Q2012.73 236.587 2009.65 232.004 Q2006.59 227.397 2006.59 218.67 Q2006.59 209.92 2009.65 205.337 Q2012.73 200.731 2018.54 200.731 Z" fill="#000000" fill-rule="evenodd" fill-opacity="1" /><path clip-path="url(#clip750)" d="M2038.7 230.036 L2043.58 230.036 L2043.58 235.916 L2038.7 235.916 L2038.7 230.036 Z" fill="#000000" fill-rule="evenodd" fill-opacity="1" /><path clip-path="url(#clip750)" d="M2066.62 205.43 L2054.81 223.879 L2066.62 223.879 L2066.62 205.43 M2065.39 201.356 L2071.27 201.356 L2071.27 223.879 L2076.2 223.879 L2076.2 227.768 L2071.27 227.768 L2071.27 235.916 L2066.62 235.916 L2066.62 227.768 L2051.01 227.768 L2051.01 223.254 L2065.39 201.356 Z" fill="#000000" fill-rule="evenodd" fill-opacity="1" /><path clip-path="url(#clip750)" d="M2084.42 230.036 L2089.3 230.036 L2089.3 234.018 L2085.5 241.425 L2082.52 241.425 L2084.42 234.018 L2084.42 230.036 Z" fill="#000000" fill-rule="evenodd" fill-opacity="1" /><path clip-path="url(#clip750)" d="M2122.15 230.985 L2122.15 221.703 L2114.51 221.703 L2114.51 217.86 L2126.78 217.86 L2126.78 232.698 Q2124.07 234.619 2120.8 235.615 Q2117.54 236.587 2113.84 236.587 Q2105.74 236.587 2101.15 231.865 Q2096.59 227.119 2096.59 218.67 Q2096.59 210.198 2101.15 205.476 Q2105.74 200.731 2113.84 200.731 Q2117.22 200.731 2120.25 201.564 Q2123.3 202.397 2125.87 204.018 L2125.87 208.995 Q2123.28 206.796 2120.36 205.684 Q2117.45 204.573 2114.23 204.573 Q2107.89 204.573 2104.69 208.115 Q2101.52 211.657 2101.52 218.67 Q2101.52 225.661 2104.69 229.203 Q2107.89 232.744 2114.23 232.744 Q2116.71 232.744 2118.65 232.328 Q2120.6 231.888 2122.15 230.985 Z" fill="#000000" fill-rule="evenodd" fill-opacity="1" /><path clip-path="url(#clip750)" d="M2136.87 217.814 L2146.68 217.814 L2146.68 220.453 L2132.84 220.453 L2132.84 217.907 Q2133.63 217.189 2135.09 215.893 Q2143.05 208.833 2143.05 206.657 Q2143.05 205.129 2141.85 204.203 Q2140.64 203.254 2138.67 203.254 Q2137.47 203.254 2136.06 203.671 Q2134.65 204.064 2132.98 204.874 L2132.98 202.027 Q2134.76 201.379 2136.29 201.055 Q2137.84 200.731 2139.16 200.731 Q2142.52 200.731 2144.53 202.258 Q2146.55 203.786 2146.55 206.286 Q2146.55 209.504 2138.88 216.078 Q2137.59 217.189 2136.87 217.814 Z" fill="#000000" fill-rule="evenodd" fill-opacity="1" /><path clip-path="url(#clip750)" d="M2154.69 214.388 L2184.37 214.388 L2184.37 218.277 L2154.69 218.277 L2154.69 214.388 M2154.69 223.832 L2184.37 223.832 L2184.37 227.768 L2154.69 227.768 L2154.69 223.832 Z" fill="#000000" fill-rule="evenodd" fill-opacity="1" /><path clip-path="url(#clip750)" d="M2204.46 204.434 Q2200.85 204.434 2199.02 207.999 Q2197.22 211.541 2197.22 218.67 Q2197.22 225.777 2199.02 229.342 Q2200.85 232.883 2204.46 232.883 Q2208.1 232.883 2209.9 229.342 Q2211.73 225.777 2211.73 218.67 Q2211.73 211.541 2209.9 207.999 Q2208.1 204.434 2204.46 204.434 M2204.46 200.731 Q2210.27 200.731 2213.33 205.337 Q2216.41 209.92 2216.41 218.67 Q2216.41 227.397 2213.33 232.004 Q2210.27 236.587 2204.46 236.587 Q2198.65 236.587 2195.57 232.004 Q2192.52 227.397 2192.52 218.67 Q2192.52 209.92 2195.57 205.337 Q2198.65 200.731 2204.46 200.731 Z" fill="#000000" fill-rule="evenodd" fill-opacity="1" /><path clip-path="url(#clip750)" d="M2224.62 230.036 L2229.51 230.036 L2229.51 235.916 L2224.62 235.916 L2224.62 230.036 Z" fill="#000000" fill-rule="evenodd" fill-opacity="1" /><path clip-path="url(#clip750)" d="M2239.74 201.356 L2258.1 201.356 L2258.1 205.291 L2244.02 205.291 L2244.02 213.763 Q2245.04 213.416 2246.06 213.254 Q2247.08 213.069 2248.1 213.069 Q2253.88 213.069 2257.26 216.24 Q2260.64 219.411 2260.64 224.828 Q2260.64 230.406 2257.17 233.508 Q2253.7 236.587 2247.38 236.587 Q2245.2 236.587 2242.93 236.217 Q2240.69 235.846 2238.28 235.106 L2238.28 230.406 Q2240.36 231.541 2242.59 232.096 Q2244.81 232.652 2247.29 232.652 Q2251.29 232.652 2253.63 230.545 Q2255.97 228.439 2255.97 224.828 Q2255.97 221.217 2253.63 219.11 Q2251.29 217.004 2247.29 217.004 Q2245.41 217.004 2243.54 217.42 Q2241.68 217.837 2239.74 218.717 L2239.74 201.356 Z" fill="#000000" fill-rule="evenodd" fill-opacity="1" /></svg>
