<?xml version="1.0" encoding="utf-8"?>
<svg xmlns="http://www.w3.org/2000/svg" xmlns:xlink="http://www.w3.org/1999/xlink" width="600" height="400" viewBox="0 0 2400 1600">
<defs>
  <clipPath id="clip550">
    <rect x="0" y="0" width="2400" height="1600"/>
  </clipPath>
</defs>
<path clip-path="url(#clip550)" d="
M0 1600 L2400 1600 L2400 0 L0 0  Z
  " fill="#ffffff" fill-rule="evenodd" fill-opacity="1"/>
<defs>
  <clipPath id="clip551">
    <rect x="480" y="0" width="1681" height="1600"/>
  </clipPath>
</defs>
<path clip-path="url(#clip550)" d="
M286.139 1423.18 L2352.76 1423.18 L2352.76 123.472 L286.139 123.472  Z
  " fill="#ffffff" fill-rule="evenodd" fill-opacity="1"/>
<defs>
  <clipPath id="clip552">
    <rect x="286" y="123" width="2068" height="1301"/>
  </clipPath>
</defs>
<polyline clip-path="url(#clip552)" style="stroke:#000000; stroke-linecap:round; stroke-linejoin:round; stroke-width:2; stroke-opacity:0.1; fill:none" points="
  465.845,1423.18 465.845,123.472 
  "/>
<polyline clip-path="url(#clip552)" style="stroke:#000000; stroke-linecap:round; stroke-linejoin:round; stroke-width:2; stroke-opacity:0.1; fill:none" points="
  645.551,1423.18 645.551,123.472 
  "/>
<polyline clip-path="url(#clip552)" style="stroke:#000000; stroke-linecap:round; stroke-linejoin:round; stroke-width:2; stroke-opacity:0.1; fill:none" points="
  825.256,1423.18 825.256,123.472 
  "/>
<polyline clip-path="url(#clip552)" style="stroke:#000000; stroke-linecap:round; stroke-linejoin:round; stroke-width:2; stroke-opacity:0.1; fill:none" points="
  1004.96,1423.18 1004.96,123.472 
  "/>
<polyline clip-path="url(#clip552)" style="stroke:#000000; stroke-linecap:round; stroke-linejoin:round; stroke-width:2; stroke-opacity:0.1; fill:none" points="
  1184.67,1423.18 1184.67,123.472 
  "/>
<polyline clip-path="url(#clip552)" style="stroke:#000000; stroke-linecap:round; stroke-linejoin:round; stroke-width:2; stroke-opacity:0.1; fill:none" points="
  1364.37,1423.18 1364.37,123.472 
  "/>
<polyline clip-path="url(#clip552)" style="stroke:#000000; stroke-linecap:round; stroke-linejoin:round; stroke-width:2; stroke-opacity:0.1; fill:none" points="
  1544.08,1423.18 1544.08,123.472 
  "/>
<polyline clip-path="url(#clip552)" style="stroke:#000000; stroke-linecap:round; stroke-linejoin:round; stroke-width:2; stroke-opacity:0.1; fill:none" points="
  1723.79,1423.18 1723.79,123.472 
  "/>
<polyline clip-path="url(#clip552)" style="stroke:#000000; stroke-linecap:round; stroke-linejoin:round; stroke-width:2; stroke-opacity:0.1; fill:none" points="
  1903.49,1423.18 1903.49,123.472 
  "/>
<polyline clip-path="url(#clip552)" style="stroke:#000000; stroke-linecap:round; stroke-linejoin:round; stroke-width:2; stroke-opacity:0.1; fill:none" points="
  2083.2,1423.18 2083.2,123.472 
  "/>
<polyline clip-path="url(#clip552)" style="stroke:#000000; stroke-linecap:round; stroke-linejoin:round; stroke-width:2; stroke-opacity:0.1; fill:none" points="
  2262.9,1423.18 2262.9,123.472 
  "/>
<polyline clip-path="url(#clip550)" style="stroke:#000000; stroke-linecap:round; stroke-linejoin:round; stroke-width:4; stroke-opacity:1; fill:none" points="
  286.139,1423.18 2352.76,1423.18 
  "/>
<polyline clip-path="url(#clip550)" style="stroke:#000000; stroke-linecap:round; stroke-linejoin:round; stroke-width:4; stroke-opacity:1; fill:none" points="
  465.845,1423.18 465.845,1404.28 
  "/>
<polyline clip-path="url(#clip550)" style="stroke:#000000; stroke-linecap:round; stroke-linejoin:round; stroke-width:4; stroke-opacity:1; fill:none" points="
  645.551,1423.18 645.551,1404.28 
  "/>
<polyline clip-path="url(#clip550)" style="stroke:#000000; stroke-linecap:round; stroke-linejoin:round; stroke-width:4; stroke-opacity:1; fill:none" points="
  825.256,1423.18 825.256,1404.28 
  "/>
<polyline clip-path="url(#clip550)" style="stroke:#000000; stroke-linecap:round; stroke-linejoin:round; stroke-width:4; stroke-opacity:1; fill:none" points="
  1004.96,1423.18 1004.96,1404.28 
  "/>
<polyline clip-path="url(#clip550)" style="stroke:#000000; stroke-linecap:round; stroke-linejoin:round; stroke-width:4; stroke-opacity:1; fill:none" points="
  1184.67,1423.18 1184.67,1404.28 
  "/>
<polyline clip-path="url(#clip550)" style="stroke:#000000; stroke-linecap:round; stroke-linejoin:round; stroke-width:4; stroke-opacity:1; fill:none" points="
  1364.37,1423.18 1364.37,1404.28 
  "/>
<polyline clip-path="url(#clip550)" style="stroke:#000000; stroke-linecap:round; stroke-linejoin:round; stroke-width:4; stroke-opacity:1; fill:none" points="
  1544.08,1423.18 1544.08,1404.28 
  "/>
<polyline clip-path="url(#clip550)" style="stroke:#000000; stroke-linecap:round; stroke-linejoin:round; stroke-width:4; stroke-opacity:1; fill:none" points="
  1723.79,1423.18 1723.79,1404.28 
  "/>
<polyline clip-path="url(#clip550)" style="stroke:#000000; stroke-linecap:round; stroke-linejoin:round; stroke-width:4; stroke-opacity:1; fill:none" points="
  1903.49,1423.18 1903.49,1404.28 
  "/>
<polyline clip-path="url(#clip550)" style="stroke:#000000; stroke-linecap:round; stroke-linejoin:round; stroke-width:4; stroke-opacity:1; fill:none" points="
  2083.2,1423.18 2083.2,1404.28 
  "/>
<polyline clip-path="url(#clip550)" style="stroke:#000000; stroke-linecap:round; stroke-linejoin:round; stroke-width:4; stroke-opacity:1; fill:none" points="
  2262.9,1423.18 2262.9,1404.28 
  "/>
<path clip-path="url(#clip550)" d="M456.227 1481.64 L463.866 1481.64 L463.866 1455.28 L455.556 1456.95 L455.556 1452.69 L463.819 1451.02 L468.495 1451.02 L468.495 1481.64 L476.134 1481.64 L476.134 1485.58 L456.227 1485.58 L456.227 1481.64 Z" fill="#000000" fill-rule="evenodd" fill-opacity="1" /><path clip-path="url(#clip550)" d="M649.798 1466.95 Q653.155 1467.66 655.03 1469.93 Q656.928 1472.2 656.928 1475.53 Q656.928 1480.65 653.409 1483.45 Q649.891 1486.25 643.409 1486.25 Q641.234 1486.25 638.919 1485.81 Q636.627 1485.39 634.173 1484.54 L634.173 1480.02 Q636.118 1481.16 638.433 1481.74 Q640.747 1482.32 643.271 1482.32 Q647.669 1482.32 649.96 1480.58 Q652.275 1478.84 652.275 1475.53 Q652.275 1472.48 650.122 1470.77 Q647.993 1469.03 644.173 1469.03 L640.146 1469.03 L640.146 1465.19 L644.359 1465.19 Q647.808 1465.19 649.636 1463.82 Q651.465 1462.43 651.465 1459.84 Q651.465 1457.18 649.567 1455.77 Q647.692 1454.33 644.173 1454.33 Q642.252 1454.33 640.053 1454.75 Q637.854 1455.16 635.215 1456.04 L635.215 1451.88 Q637.877 1451.14 640.192 1450.77 Q642.53 1450.39 644.59 1450.39 Q649.914 1450.39 653.016 1452.83 Q656.118 1455.23 656.118 1459.35 Q656.118 1462.22 654.474 1464.21 Q652.831 1466.18 649.798 1466.95 Z" fill="#000000" fill-rule="evenodd" fill-opacity="1" /><path clip-path="url(#clip550)" d="M815.534 1451.02 L833.891 1451.02 L833.891 1454.96 L819.817 1454.96 L819.817 1463.43 Q820.835 1463.08 821.854 1462.92 Q822.872 1462.73 823.891 1462.73 Q829.678 1462.73 833.057 1465.9 Q836.437 1469.08 836.437 1474.49 Q836.437 1480.07 832.965 1483.17 Q829.493 1486.25 823.173 1486.25 Q820.997 1486.25 818.729 1485.88 Q816.483 1485.51 814.076 1484.77 L814.076 1480.07 Q816.159 1481.2 818.382 1481.76 Q820.604 1482.32 823.081 1482.32 Q827.085 1482.32 829.423 1480.21 Q831.761 1478.1 831.761 1474.49 Q831.761 1470.88 829.423 1468.77 Q827.085 1466.67 823.081 1466.67 Q821.206 1466.67 819.331 1467.08 Q817.479 1467.5 815.534 1468.38 L815.534 1451.02 Z" fill="#000000" fill-rule="evenodd" fill-opacity="1" /><path clip-path="url(#clip550)" d="M993.851 1451.02 L1016.07 1451.02 L1016.07 1453.01 L1003.53 1485.58 L998.643 1485.58 L1010.45 1454.96 L993.851 1454.96 L993.851 1451.02 Z" fill="#000000" fill-rule="evenodd" fill-opacity="1" /><path clip-path="url(#clip550)" d="M1174.97 1484.86 L1174.97 1480.6 Q1176.73 1481.44 1178.53 1481.88 Q1180.34 1482.32 1182.08 1482.32 Q1186.71 1482.32 1189.14 1479.21 Q1191.59 1476.09 1191.94 1469.75 Q1190.59 1471.74 1188.53 1472.8 Q1186.47 1473.87 1183.97 1473.87 Q1178.79 1473.87 1175.76 1470.74 Q1172.75 1467.59 1172.75 1462.15 Q1172.75 1456.83 1175.9 1453.61 Q1179.04 1450.39 1184.27 1450.39 Q1190.27 1450.39 1193.42 1455 Q1196.59 1459.58 1196.59 1468.33 Q1196.59 1476.51 1192.7 1481.39 Q1188.83 1486.25 1182.28 1486.25 Q1180.52 1486.25 1178.72 1485.9 Q1176.91 1485.56 1174.97 1484.86 M1184.27 1470.21 Q1187.42 1470.21 1189.25 1468.06 Q1191.1 1465.9 1191.1 1462.15 Q1191.1 1458.43 1189.25 1456.27 Q1187.42 1454.1 1184.27 1454.1 Q1181.13 1454.1 1179.27 1456.27 Q1177.45 1458.43 1177.45 1462.15 Q1177.45 1465.9 1179.27 1468.06 Q1181.13 1470.21 1184.27 1470.21 Z" fill="#000000" fill-rule="evenodd" fill-opacity="1" /><path clip-path="url(#clip550)" d="M1339.67 1481.64 L1347.31 1481.64 L1347.31 1455.28 L1339 1456.95 L1339 1452.69 L1347.27 1451.02 L1351.94 1451.02 L1351.94 1481.64 L1359.58 1481.64 L1359.58 1485.58 L1339.67 1485.58 L1339.67 1481.64 Z" fill="#000000" fill-rule="evenodd" fill-opacity="1" /><path clip-path="url(#clip550)" d="M1369.84 1481.64 L1377.48 1481.64 L1377.48 1455.28 L1369.17 1456.95 L1369.17 1452.69 L1377.43 1451.02 L1382.11 1451.02 L1382.11 1481.64 L1389.74 1481.64 L1389.74 1485.58 L1369.84 1485.58 L1369.84 1481.64 Z" fill="#000000" fill-rule="evenodd" fill-opacity="1" /><path clip-path="url(#clip550)" d="M1519.09 1481.64 L1526.73 1481.64 L1526.73 1455.28 L1518.42 1456.95 L1518.42 1452.69 L1526.68 1451.02 L1531.36 1451.02 L1531.36 1481.64 L1539 1481.64 L1539 1485.58 L1519.09 1485.58 L1519.09 1481.64 Z" fill="#000000" fill-rule="evenodd" fill-opacity="1" /><path clip-path="url(#clip550)" d="M1562.61 1466.95 Q1565.97 1467.66 1567.84 1469.93 Q1569.74 1472.2 1569.74 1475.53 Q1569.74 1480.65 1566.22 1483.45 Q1562.7 1486.25 1556.22 1486.25 Q1554.04 1486.25 1551.73 1485.81 Q1549.44 1485.39 1546.98 1484.54 L1546.98 1480.02 Q1548.93 1481.16 1551.24 1481.74 Q1553.56 1482.32 1556.08 1482.32 Q1560.48 1482.32 1562.77 1480.58 Q1565.09 1478.84 1565.09 1475.53 Q1565.09 1472.48 1562.93 1470.77 Q1560.8 1469.03 1556.98 1469.03 L1552.96 1469.03 L1552.96 1465.19 L1557.17 1465.19 Q1560.62 1465.19 1562.45 1463.82 Q1564.28 1462.43 1564.28 1459.84 Q1564.28 1457.18 1562.38 1455.77 Q1560.5 1454.33 1556.98 1454.33 Q1555.06 1454.33 1552.86 1454.75 Q1550.67 1455.16 1548.03 1456.04 L1548.03 1451.88 Q1550.69 1451.14 1553 1450.77 Q1555.34 1450.39 1557.4 1450.39 Q1562.73 1450.39 1565.83 1452.83 Q1568.93 1455.23 1568.93 1459.35 Q1568.93 1462.22 1567.29 1464.21 Q1565.64 1466.18 1562.61 1466.95 Z" fill="#000000" fill-rule="evenodd" fill-opacity="1" /><path clip-path="url(#clip550)" d="M1698.97 1481.64 L1706.61 1481.64 L1706.61 1455.28 L1698.3 1456.95 L1698.3 1452.69 L1706.56 1451.02 L1711.24 1451.02 L1711.24 1481.64 L1718.88 1481.64 L1718.88 1485.58 L1698.97 1485.58 L1698.97 1481.64 Z" fill="#000000" fill-rule="evenodd" fill-opacity="1" /><path clip-path="url(#clip550)" d="M1728.37 1451.02 L1746.73 1451.02 L1746.73 1454.96 L1732.65 1454.96 L1732.65 1463.43 Q1733.67 1463.08 1734.69 1462.92 Q1735.71 1462.73 1736.73 1462.73 Q1742.51 1462.73 1745.89 1465.9 Q1749.27 1469.08 1749.27 1474.49 Q1749.27 1480.07 1745.8 1483.17 Q1742.33 1486.25 1736.01 1486.25 Q1733.83 1486.25 1731.56 1485.88 Q1729.32 1485.51 1726.91 1484.77 L1726.91 1480.07 Q1728.99 1481.2 1731.22 1481.76 Q1733.44 1482.32 1735.92 1482.32 Q1739.92 1482.32 1742.26 1480.21 Q1744.6 1478.1 1744.6 1474.49 Q1744.6 1470.88 1742.26 1468.77 Q1739.92 1466.67 1735.92 1466.67 Q1734.04 1466.67 1732.17 1467.08 Q1730.31 1467.5 1728.37 1468.38 L1728.37 1451.02 Z" fill="#000000" fill-rule="evenodd" fill-opacity="1" /><path clip-path="url(#clip550)" d="M1878.63 1481.64 L1886.27 1481.64 L1886.27 1455.28 L1877.96 1456.95 L1877.96 1452.69 L1886.22 1451.02 L1890.9 1451.02 L1890.9 1481.64 L1898.54 1481.64 L1898.54 1485.58 L1878.63 1485.58 L1878.63 1481.64 Z" fill="#000000" fill-rule="evenodd" fill-opacity="1" /><path clip-path="url(#clip550)" d="M1906.8 1451.02 L1929.02 1451.02 L1929.02 1453.01 L1916.48 1485.58 L1911.59 1485.58 L1923.4 1454.96 L1906.8 1454.96 L1906.8 1451.02 Z" fill="#000000" fill-rule="evenodd" fill-opacity="1" /><path clip-path="url(#clip550)" d="M2057.98 1481.64 L2065.62 1481.64 L2065.62 1455.28 L2057.31 1456.95 L2057.31 1452.69 L2065.57 1451.02 L2070.25 1451.02 L2070.25 1481.64 L2077.88 1481.64 L2077.88 1485.58 L2057.98 1485.58 L2057.98 1481.64 Z" fill="#000000" fill-rule="evenodd" fill-opacity="1" /><path clip-path="url(#clip550)" d="M2087.47 1484.86 L2087.47 1480.6 Q2089.23 1481.44 2091.03 1481.88 Q2092.84 1482.32 2094.57 1482.32 Q2099.2 1482.32 2101.63 1479.21 Q2104.09 1476.09 2104.44 1469.75 Q2103.09 1471.74 2101.03 1472.8 Q2098.97 1473.87 2096.47 1473.87 Q2091.29 1473.87 2088.26 1470.74 Q2085.25 1467.59 2085.25 1462.15 Q2085.25 1456.83 2088.39 1453.61 Q2091.54 1450.39 2096.77 1450.39 Q2102.77 1450.39 2105.92 1455 Q2109.09 1459.58 2109.09 1468.33 Q2109.09 1476.51 2105.2 1481.39 Q2101.33 1486.25 2094.78 1486.25 Q2093.02 1486.25 2091.22 1485.9 Q2089.41 1485.56 2087.47 1484.86 M2096.77 1470.21 Q2099.92 1470.21 2101.75 1468.06 Q2103.6 1465.9 2103.6 1462.15 Q2103.6 1458.43 2101.75 1456.27 Q2099.92 1454.1 2096.77 1454.1 Q2093.63 1454.1 2091.77 1456.27 Q2089.94 1458.43 2089.94 1462.15 Q2089.94 1465.9 2091.77 1468.06 Q2093.63 1470.21 2096.77 1470.21 Z" fill="#000000" fill-rule="evenodd" fill-opacity="1" /><path clip-path="url(#clip550)" d="M2242.29 1481.64 L2258.61 1481.64 L2258.61 1485.58 L2236.66 1485.58 L2236.66 1481.64 Q2239.33 1478.89 2243.91 1474.26 Q2248.52 1469.61 2249.7 1468.27 Q2251.94 1465.74 2252.82 1464.01 Q2253.72 1462.25 2253.72 1460.56 Q2253.72 1457.8 2251.78 1456.07 Q2249.86 1454.33 2246.76 1454.33 Q2244.56 1454.33 2242.1 1455.09 Q2239.67 1455.86 2236.9 1457.41 L2236.9 1452.69 Q2239.72 1451.55 2242.17 1450.97 Q2244.63 1450.39 2246.66 1450.39 Q2252.04 1450.39 2255.23 1453.08 Q2258.42 1455.77 2258.42 1460.26 Q2258.42 1462.39 2257.61 1464.31 Q2256.83 1466.2 2254.72 1468.8 Q2254.14 1469.47 2251.04 1472.69 Q2247.94 1475.88 2242.29 1481.64 Z" fill="#000000" fill-rule="evenodd" fill-opacity="1" /><path clip-path="url(#clip550)" d="M2269.23 1481.64 L2276.87 1481.64 L2276.87 1455.28 L2268.56 1456.95 L2268.56 1452.69 L2276.83 1451.02 L2281.5 1451.02 L2281.5 1481.64 L2289.14 1481.64 L2289.14 1485.58 L2269.23 1485.58 L2269.23 1481.64 Z" fill="#000000" fill-rule="evenodd" fill-opacity="1" /><path clip-path="url(#clip550)" d="M1148.32 1522.08 L1148.32 1528.35 Q1144.66 1526.6 1141.41 1525.74 Q1138.17 1524.88 1135.14 1524.88 Q1129.89 1524.88 1127.03 1526.92 Q1124.2 1528.96 1124.2 1532.71 Q1124.2 1535.87 1126.07 1537.49 Q1127.98 1539.08 1133.27 1540.07 L1137.15 1540.86 Q1144.34 1542.23 1147.75 1545.7 Q1151.19 1549.14 1151.19 1554.93 Q1151.19 1561.84 1146.54 1565.4 Q1141.92 1568.97 1132.98 1568.97 Q1129.61 1568.97 1125.79 1568.2 Q1122 1567.44 1117.93 1565.94 L1117.93 1559.32 Q1121.84 1561.52 1125.6 1562.63 Q1129.35 1563.75 1132.98 1563.75 Q1138.49 1563.75 1141.48 1561.58 Q1144.47 1559.42 1144.47 1555.41 Q1144.47 1551.91 1142.31 1549.93 Q1140.17 1547.96 1135.27 1546.97 L1131.36 1546.21 Q1124.16 1544.78 1120.95 1541.72 Q1117.73 1538.67 1117.73 1533.22 Q1117.73 1526.92 1122.16 1523.29 Q1126.61 1519.66 1134.41 1519.66 Q1137.75 1519.66 1141.22 1520.27 Q1144.69 1520.87 1148.32 1522.08 Z" fill="#000000" fill-rule="evenodd" fill-opacity="1" /><path clip-path="url(#clip550)" d="M1160.96 1532.4 L1166.81 1532.4 L1166.81 1568.04 L1160.96 1568.04 L1160.96 1532.4 M1160.96 1518.52 L1166.81 1518.52 L1166.81 1525.93 L1160.96 1525.93 L1160.96 1518.52 Z" fill="#000000" fill-rule="evenodd" fill-opacity="1" /><path clip-path="url(#clip550)" d="M1184.86 1522.27 L1184.86 1532.4 L1196.92 1532.4 L1196.92 1536.95 L1184.86 1536.95 L1184.86 1556.3 Q1184.86 1560.66 1186.04 1561.9 Q1187.25 1563.14 1190.91 1563.14 L1196.92 1563.14 L1196.92 1568.04 L1190.91 1568.04 Q1184.13 1568.04 1181.55 1565.53 Q1178.97 1562.98 1178.97 1556.3 L1178.97 1536.95 L1174.68 1536.95 L1174.68 1532.4 L1178.97 1532.4 L1178.97 1522.27 L1184.86 1522.27 Z" fill="#000000" fill-rule="evenodd" fill-opacity="1" /><path clip-path="url(#clip550)" d="M1235.12 1548.76 L1235.12 1551.62 L1208.19 1551.62 Q1208.57 1557.67 1211.82 1560.85 Q1215.1 1564 1220.92 1564 Q1224.3 1564 1227.45 1563.17 Q1230.63 1562.35 1233.75 1560.69 L1233.75 1566.23 Q1230.6 1567.57 1227.29 1568.27 Q1223.98 1568.97 1220.57 1568.97 Q1212.04 1568.97 1207.05 1564 Q1202.08 1559.04 1202.08 1550.57 Q1202.08 1541.82 1206.79 1536.69 Q1211.53 1531.54 1219.55 1531.54 Q1226.75 1531.54 1230.92 1536.18 Q1235.12 1540.8 1235.12 1548.76 M1229.26 1547.04 Q1229.2 1542.23 1226.56 1539.37 Q1223.95 1536.5 1219.62 1536.5 Q1214.72 1536.5 1211.76 1539.27 Q1208.83 1542.04 1208.38 1547.07 L1229.26 1547.04 Z" fill="#000000" fill-rule="evenodd" fill-opacity="1" /><path clip-path="url(#clip550)" d="M1265.71 1520.52 L1274.36 1520.52 L1295.43 1560.28 L1295.43 1520.52 L1301.67 1520.52 L1301.67 1568.04 L1293.01 1568.04 L1271.94 1528.29 L1271.94 1568.04 L1265.71 1568.04 L1265.71 1520.52 Z" fill="#000000" fill-rule="evenodd" fill-opacity="1" /><path clip-path="url(#clip550)" d="M1313.61 1553.98 L1313.61 1532.4 L1319.46 1532.4 L1319.46 1553.75 Q1319.46 1558.81 1321.44 1561.36 Q1323.41 1563.87 1327.36 1563.87 Q1332.1 1563.87 1334.84 1560.85 Q1337.61 1557.83 1337.61 1552.61 L1337.61 1532.4 L1343.46 1532.4 L1343.46 1568.04 L1337.61 1568.04 L1337.61 1562.57 Q1335.47 1565.82 1332.64 1567.41 Q1329.84 1568.97 1326.12 1568.97 Q1319.97 1568.97 1316.79 1565.15 Q1313.61 1561.33 1313.61 1553.98 M1328.34 1531.54 L1328.34 1531.54 Z" fill="#000000" fill-rule="evenodd" fill-opacity="1" /><path clip-path="url(#clip550)" d="M1383.28 1539.24 Q1385.48 1535.29 1388.53 1533.41 Q1391.59 1531.54 1395.72 1531.54 Q1401.29 1531.54 1404.32 1535.45 Q1407.34 1539.33 1407.34 1546.53 L1407.34 1568.04 L1401.45 1568.04 L1401.45 1546.72 Q1401.45 1541.59 1399.64 1539.11 Q1397.83 1536.63 1394.1 1536.63 Q1389.55 1536.63 1386.91 1539.65 Q1384.27 1542.68 1384.27 1547.9 L1384.27 1568.04 L1378.38 1568.04 L1378.38 1546.72 Q1378.38 1541.56 1376.56 1539.11 Q1374.75 1536.63 1370.96 1536.63 Q1366.47 1536.63 1363.83 1539.68 Q1361.19 1542.71 1361.19 1547.9 L1361.19 1568.04 L1355.3 1568.04 L1355.3 1532.4 L1361.19 1532.4 L1361.19 1537.93 Q1363.2 1534.66 1366 1533.1 Q1368.8 1531.54 1372.65 1531.54 Q1376.53 1531.54 1379.24 1533.51 Q1381.97 1535.48 1383.28 1539.24 Z" fill="#000000" fill-rule="evenodd" fill-opacity="1" /><path clip-path="url(#clip550)" d="M1444.61 1550.25 Q1444.61 1543.79 1441.94 1540.13 Q1439.3 1536.44 1434.65 1536.44 Q1430 1536.44 1427.33 1540.13 Q1424.69 1543.79 1424.69 1550.25 Q1424.69 1556.71 1427.33 1560.4 Q1430 1564.07 1434.65 1564.07 Q1439.3 1564.07 1441.94 1560.4 Q1444.61 1556.71 1444.61 1550.25 M1424.69 1537.81 Q1426.53 1534.62 1429.34 1533.1 Q1432.17 1531.54 1436.08 1531.54 Q1442.58 1531.54 1446.62 1536.69 Q1450.69 1541.85 1450.69 1550.25 Q1450.69 1558.65 1446.62 1563.81 Q1442.58 1568.97 1436.08 1568.97 Q1432.17 1568.97 1429.34 1567.44 Q1426.53 1565.88 1424.69 1562.7 L1424.69 1568.04 L1418.8 1568.04 L1418.8 1518.52 L1424.69 1518.52 L1424.69 1537.81 Z" fill="#000000" fill-rule="evenodd" fill-opacity="1" /><path clip-path="url(#clip550)" d="M1490.89 1548.76 L1490.89 1551.62 L1463.96 1551.62 Q1464.35 1557.67 1467.59 1560.85 Q1470.87 1564 1476.7 1564 Q1480.07 1564 1483.22 1563.17 Q1486.4 1562.35 1489.52 1560.69 L1489.52 1566.23 Q1486.37 1567.57 1483.06 1568.27 Q1479.75 1568.97 1476.35 1568.97 Q1467.82 1568.97 1462.82 1564 Q1457.85 1559.04 1457.85 1550.57 Q1457.85 1541.82 1462.56 1536.69 Q1467.31 1531.54 1475.33 1531.54 Q1482.52 1531.54 1486.69 1536.18 Q1490.89 1540.8 1490.89 1548.76 M1485.04 1547.04 Q1484.97 1542.23 1482.33 1539.37 Q1479.72 1536.5 1475.39 1536.5 Q1470.49 1536.5 1467.53 1539.27 Q1464.6 1542.04 1464.16 1547.07 L1485.04 1547.04 Z" fill="#000000" fill-rule="evenodd" fill-opacity="1" /><path clip-path="url(#clip550)" d="M1521.16 1537.87 Q1520.17 1537.3 1519 1537.04 Q1517.85 1536.76 1516.45 1536.76 Q1511.48 1536.76 1508.81 1540 Q1506.17 1543.22 1506.17 1549.27 L1506.17 1568.04 L1500.28 1568.04 L1500.28 1532.4 L1506.17 1532.4 L1506.17 1537.93 Q1508.02 1534.69 1510.98 1533.13 Q1513.94 1531.54 1518.17 1531.54 Q1518.77 1531.54 1519.51 1531.63 Q1520.24 1531.7 1521.13 1531.85 L1521.16 1537.87 Z" fill="#000000" fill-rule="evenodd" fill-opacity="1" /><polyline clip-path="url(#clip552)" style="stroke:#000000; stroke-linecap:round; stroke-linejoin:round; stroke-width:2; stroke-opacity:0.1; fill:none" points="
  286.139,1314.87 2352.76,1314.87 
  "/>
<polyline clip-path="url(#clip552)" style="stroke:#000000; stroke-linecap:round; stroke-linejoin:round; stroke-width:2; stroke-opacity:0.1; fill:none" points="
  286.139,1206.56 2352.76,1206.56 
  "/>
<polyline clip-path="url(#clip552)" style="stroke:#000000; stroke-linecap:round; stroke-linejoin:round; stroke-width:2; stroke-opacity:0.1; fill:none" points="
  286.139,1098.25 2352.76,1098.25 
  "/>
<polyline clip-path="url(#clip552)" style="stroke:#000000; stroke-linecap:round; stroke-linejoin:round; stroke-width:2; stroke-opacity:0.1; fill:none" points="
  286.139,989.944 2352.76,989.944 
  "/>
<polyline clip-path="url(#clip552)" style="stroke:#000000; stroke-linecap:round; stroke-linejoin:round; stroke-width:2; stroke-opacity:0.1; fill:none" points="
  286.139,881.635 2352.76,881.635 
  "/>
<polyline clip-path="url(#clip552)" style="stroke:#000000; stroke-linecap:round; stroke-linejoin:round; stroke-width:2; stroke-opacity:0.1; fill:none" points="
  286.139,773.326 2352.76,773.326 
  "/>
<polyline clip-path="url(#clip552)" style="stroke:#000000; stroke-linecap:round; stroke-linejoin:round; stroke-width:2; stroke-opacity:0.1; fill:none" points="
  286.139,665.017 2352.76,665.017 
  "/>
<polyline clip-path="url(#clip552)" style="stroke:#000000; stroke-linecap:round; stroke-linejoin:round; stroke-width:2; stroke-opacity:0.1; fill:none" points="
  286.139,556.708 2352.76,556.708 
  "/>
<polyline clip-path="url(#clip552)" style="stroke:#000000; stroke-linecap:round; stroke-linejoin:round; stroke-width:2; stroke-opacity:0.1; fill:none" points="
  286.139,448.399 2352.76,448.399 
  "/>
<polyline clip-path="url(#clip552)" style="stroke:#000000; stroke-linecap:round; stroke-linejoin:round; stroke-width:2; stroke-opacity:0.1; fill:none" points="
  286.139,340.09 2352.76,340.09 
  "/>
<polyline clip-path="url(#clip552)" style="stroke:#000000; stroke-linecap:round; stroke-linejoin:round; stroke-width:2; stroke-opacity:0.1; fill:none" points="
  286.139,231.781 2352.76,231.781 
  "/>
<polyline clip-path="url(#clip552)" style="stroke:#000000; stroke-linecap:round; stroke-linejoin:round; stroke-width:2; stroke-opacity:0.1; fill:none" points="
  286.139,123.472 2352.76,123.472 
  "/>
<polyline clip-path="url(#clip550)" style="stroke:#000000; stroke-linecap:round; stroke-linejoin:round; stroke-width:4; stroke-opacity:1; fill:none" points="
  286.139,1423.18 286.139,123.472 
  "/>
<polyline clip-path="url(#clip550)" style="stroke:#000000; stroke-linecap:round; stroke-linejoin:round; stroke-width:4; stroke-opacity:1; fill:none" points="
  286.139,1314.87 305.037,1314.87 
  "/>
<polyline clip-path="url(#clip550)" style="stroke:#000000; stroke-linecap:round; stroke-linejoin:round; stroke-width:4; stroke-opacity:1; fill:none" points="
  286.139,1206.56 305.037,1206.56 
  "/>
<polyline clip-path="url(#clip550)" style="stroke:#000000; stroke-linecap:round; stroke-linejoin:round; stroke-width:4; stroke-opacity:1; fill:none" points="
  286.139,1098.25 305.037,1098.25 
  "/>
<polyline clip-path="url(#clip550)" style="stroke:#000000; stroke-linecap:round; stroke-linejoin:round; stroke-width:4; stroke-opacity:1; fill:none" points="
  286.139,989.944 305.037,989.944 
  "/>
<polyline clip-path="url(#clip550)" style="stroke:#000000; stroke-linecap:round; stroke-linejoin:round; stroke-width:4; stroke-opacity:1; fill:none" points="
  286.139,881.635 305.037,881.635 
  "/>
<polyline clip-path="url(#clip550)" style="stroke:#000000; stroke-linecap:round; stroke-linejoin:round; stroke-width:4; stroke-opacity:1; fill:none" points="
  286.139,773.326 305.037,773.326 
  "/>
<polyline clip-path="url(#clip550)" style="stroke:#000000; stroke-linecap:round; stroke-linejoin:round; stroke-width:4; stroke-opacity:1; fill:none" points="
  286.139,665.017 305.037,665.017 
  "/>
<polyline clip-path="url(#clip550)" style="stroke:#000000; stroke-linecap:round; stroke-linejoin:round; stroke-width:4; stroke-opacity:1; fill:none" points="
  286.139,556.708 305.037,556.708 
  "/>
<polyline clip-path="url(#clip550)" style="stroke:#000000; stroke-linecap:round; stroke-linejoin:round; stroke-width:4; stroke-opacity:1; fill:none" points="
  286.139,448.399 305.037,448.399 
  "/>
<polyline clip-path="url(#clip550)" style="stroke:#000000; stroke-linecap:round; stroke-linejoin:round; stroke-width:4; stroke-opacity:1; fill:none" points="
  286.139,340.09 305.037,340.09 
  "/>
<polyline clip-path="url(#clip550)" style="stroke:#000000; stroke-linecap:round; stroke-linejoin:round; stroke-width:4; stroke-opacity:1; fill:none" points="
  286.139,231.781 305.037,231.781 
  "/>
<polyline clip-path="url(#clip550)" style="stroke:#000000; stroke-linecap:round; stroke-linejoin:round; stroke-width:4; stroke-opacity:1; fill:none" points="
  286.139,123.472 305.037,123.472 
  "/>
<path clip-path="url(#clip550)" d="M114.26 1315.32 L143.936 1315.32 L143.936 1319.26 L114.26 1319.26 L114.26 1315.32 Z" fill="#000000" fill-rule="evenodd" fill-opacity="1" /><path clip-path="url(#clip550)" d="M164.028 1300.67 Q160.417 1300.67 158.589 1304.23 Q156.783 1307.78 156.783 1314.91 Q156.783 1322.01 158.589 1325.58 Q160.417 1329.12 164.028 1329.12 Q167.663 1329.12 169.468 1325.58 Q171.297 1322.01 171.297 1314.91 Q171.297 1307.78 169.468 1304.23 Q167.663 1300.67 164.028 1300.67 M164.028 1296.97 Q169.839 1296.97 172.894 1301.57 Q175.973 1306.16 175.973 1314.91 Q175.973 1323.63 172.894 1328.24 Q169.839 1332.82 164.028 1332.82 Q158.218 1332.82 155.14 1328.24 Q152.084 1323.63 152.084 1314.91 Q152.084 1306.16 155.14 1301.57 Q158.218 1296.97 164.028 1296.97 Z" fill="#000000" fill-rule="evenodd" fill-opacity="1" /><path clip-path="url(#clip550)" d="M184.19 1326.27 L189.075 1326.27 L189.075 1332.15 L184.19 1332.15 L184.19 1326.27 Z" fill="#000000" fill-rule="evenodd" fill-opacity="1" /><path clip-path="url(#clip550)" d="M209.26 1300.67 Q205.649 1300.67 203.82 1304.23 Q202.014 1307.78 202.014 1314.91 Q202.014 1322.01 203.82 1325.58 Q205.649 1329.12 209.26 1329.12 Q212.894 1329.12 214.699 1325.58 Q216.528 1322.01 216.528 1314.91 Q216.528 1307.78 214.699 1304.23 Q212.894 1300.67 209.26 1300.67 M209.26 1296.97 Q215.07 1296.97 218.125 1301.57 Q221.204 1306.16 221.204 1314.91 Q221.204 1323.63 218.125 1328.24 Q215.07 1332.82 209.26 1332.82 Q203.449 1332.82 200.371 1328.24 Q197.315 1323.63 197.315 1314.91 Q197.315 1306.16 200.371 1301.57 Q203.449 1296.97 209.26 1296.97 Z" fill="#000000" fill-rule="evenodd" fill-opacity="1" /><path clip-path="url(#clip550)" d="M230.232 1328.22 L237.871 1328.22 L237.871 1301.85 L229.56 1303.52 L229.56 1299.26 L237.824 1297.59 L242.5 1297.59 L242.5 1328.22 L250.139 1328.22 L250.139 1332.15 L230.232 1332.15 L230.232 1328.22 Z" fill="#000000" fill-rule="evenodd" fill-opacity="1" /><path clip-path="url(#clip550)" d="M162.802 1192.36 Q159.19 1192.36 157.362 1195.93 Q155.556 1199.47 155.556 1206.6 Q155.556 1213.7 157.362 1217.27 Q159.19 1220.81 162.802 1220.81 Q166.436 1220.81 168.241 1217.27 Q170.07 1213.7 170.07 1206.6 Q170.07 1199.47 168.241 1195.93 Q166.436 1192.36 162.802 1192.36 M162.802 1188.66 Q168.612 1188.66 171.667 1193.26 Q174.746 1197.85 174.746 1206.6 Q174.746 1215.32 171.667 1219.93 Q168.612 1224.51 162.802 1224.51 Q156.991 1224.51 153.913 1219.93 Q150.857 1215.32 150.857 1206.6 Q150.857 1197.85 153.913 1193.26 Q156.991 1188.66 162.802 1188.66 Z" fill="#000000" fill-rule="evenodd" fill-opacity="1" /><path clip-path="url(#clip550)" d="M182.963 1217.96 L187.848 1217.96 L187.848 1223.84 L182.963 1223.84 L182.963 1217.96 Z" fill="#000000" fill-rule="evenodd" fill-opacity="1" /><path clip-path="url(#clip550)" d="M208.033 1192.36 Q204.422 1192.36 202.593 1195.93 Q200.787 1199.47 200.787 1206.6 Q200.787 1213.7 202.593 1217.27 Q204.422 1220.81 208.033 1220.81 Q211.667 1220.81 213.473 1217.27 Q215.301 1213.7 215.301 1206.6 Q215.301 1199.47 213.473 1195.93 Q211.667 1192.36 208.033 1192.36 M208.033 1188.66 Q213.843 1188.66 216.898 1193.26 Q219.977 1197.85 219.977 1206.6 Q219.977 1215.32 216.898 1219.93 Q213.843 1224.51 208.033 1224.51 Q202.223 1224.51 199.144 1219.93 Q196.088 1215.32 196.088 1206.6 Q196.088 1197.85 199.144 1193.26 Q202.223 1188.66 208.033 1188.66 Z" fill="#000000" fill-rule="evenodd" fill-opacity="1" /><path clip-path="url(#clip550)" d="M238.195 1192.36 Q234.584 1192.36 232.755 1195.93 Q230.949 1199.47 230.949 1206.6 Q230.949 1213.7 232.755 1217.27 Q234.584 1220.81 238.195 1220.81 Q241.829 1220.81 243.634 1217.27 Q245.463 1213.7 245.463 1206.6 Q245.463 1199.47 243.634 1195.93 Q241.829 1192.36 238.195 1192.36 M238.195 1188.66 Q244.005 1188.66 247.06 1193.26 Q250.139 1197.85 250.139 1206.6 Q250.139 1215.32 247.06 1219.93 Q244.005 1224.51 238.195 1224.51 Q232.385 1224.51 229.306 1219.93 Q226.25 1215.32 226.25 1206.6 Q226.25 1197.85 229.306 1193.26 Q232.385 1188.66 238.195 1188.66 Z" fill="#000000" fill-rule="evenodd" fill-opacity="1" /><path clip-path="url(#clip550)" d="M164.028 1084.05 Q160.417 1084.05 158.589 1087.62 Q156.783 1091.16 156.783 1098.29 Q156.783 1105.39 158.589 1108.96 Q160.417 1112.5 164.028 1112.5 Q167.663 1112.5 169.468 1108.96 Q171.297 1105.39 171.297 1098.29 Q171.297 1091.16 169.468 1087.62 Q167.663 1084.05 164.028 1084.05 M164.028 1080.35 Q169.839 1080.35 172.894 1084.95 Q175.973 1089.54 175.973 1098.29 Q175.973 1107.01 172.894 1111.62 Q169.839 1116.2 164.028 1116.2 Q158.218 1116.2 155.14 1111.62 Q152.084 1107.01 152.084 1098.29 Q152.084 1089.54 155.14 1084.95 Q158.218 1080.35 164.028 1080.35 Z" fill="#000000" fill-rule="evenodd" fill-opacity="1" /><path clip-path="url(#clip550)" d="M184.19 1109.65 L189.075 1109.65 L189.075 1115.53 L184.19 1115.53 L184.19 1109.65 Z" fill="#000000" fill-rule="evenodd" fill-opacity="1" /><path clip-path="url(#clip550)" d="M209.26 1084.05 Q205.649 1084.05 203.82 1087.62 Q202.014 1091.16 202.014 1098.29 Q202.014 1105.39 203.82 1108.96 Q205.649 1112.5 209.26 1112.5 Q212.894 1112.5 214.699 1108.96 Q216.528 1105.39 216.528 1098.29 Q216.528 1091.16 214.699 1087.62 Q212.894 1084.05 209.26 1084.05 M209.26 1080.35 Q215.07 1080.35 218.125 1084.95 Q221.204 1089.54 221.204 1098.29 Q221.204 1107.01 218.125 1111.62 Q215.07 1116.2 209.26 1116.2 Q203.449 1116.2 200.371 1111.62 Q197.315 1107.01 197.315 1098.29 Q197.315 1089.54 200.371 1084.95 Q203.449 1080.35 209.26 1080.35 Z" fill="#000000" fill-rule="evenodd" fill-opacity="1" /><path clip-path="url(#clip550)" d="M230.232 1111.6 L237.871 1111.6 L237.871 1085.23 L229.56 1086.9 L229.56 1082.64 L237.824 1080.97 L242.5 1080.97 L242.5 1111.6 L250.139 1111.6 L250.139 1115.53 L230.232 1115.53 L230.232 1111.6 Z" fill="#000000" fill-rule="evenodd" fill-opacity="1" /><path clip-path="url(#clip550)" d="M164.399 975.743 Q160.788 975.743 158.959 979.307 Q157.153 982.849 157.153 989.979 Q157.153 997.085 158.959 1000.65 Q160.788 1004.19 164.399 1004.19 Q168.033 1004.19 169.839 1000.65 Q171.667 997.085 171.667 989.979 Q171.667 982.849 169.839 979.307 Q168.033 975.743 164.399 975.743 M164.399 972.039 Q170.209 972.039 173.264 976.645 Q176.343 981.229 176.343 989.979 Q176.343 998.705 173.264 1003.31 Q170.209 1007.9 164.399 1007.9 Q158.589 1007.9 155.51 1003.31 Q152.454 998.705 152.454 989.979 Q152.454 981.229 155.51 976.645 Q158.589 972.039 164.399 972.039 Z" fill="#000000" fill-rule="evenodd" fill-opacity="1" /><path clip-path="url(#clip550)" d="M184.561 1001.34 L189.445 1001.34 L189.445 1007.22 L184.561 1007.22 L184.561 1001.34 Z" fill="#000000" fill-rule="evenodd" fill-opacity="1" /><path clip-path="url(#clip550)" d="M209.63 975.743 Q206.019 975.743 204.19 979.307 Q202.385 982.849 202.385 989.979 Q202.385 997.085 204.19 1000.65 Q206.019 1004.19 209.63 1004.19 Q213.264 1004.19 215.07 1000.65 Q216.898 997.085 216.898 989.979 Q216.898 982.849 215.07 979.307 Q213.264 975.743 209.63 975.743 M209.63 972.039 Q215.44 972.039 218.496 976.645 Q221.574 981.229 221.574 989.979 Q221.574 998.705 218.496 1003.31 Q215.44 1007.9 209.63 1007.9 Q203.82 1007.9 200.741 1003.31 Q197.686 998.705 197.686 989.979 Q197.686 981.229 200.741 976.645 Q203.82 972.039 209.63 972.039 Z" fill="#000000" fill-rule="evenodd" fill-opacity="1" /><path clip-path="url(#clip550)" d="M233.82 1003.29 L250.139 1003.29 L250.139 1007.22 L228.195 1007.22 L228.195 1003.29 Q230.857 1000.53 235.44 995.905 Q240.047 991.252 241.227 989.909 Q243.472 987.386 244.352 985.65 Q245.255 983.891 245.255 982.201 Q245.255 979.446 243.31 977.71 Q241.389 975.974 238.287 975.974 Q236.088 975.974 233.635 976.738 Q231.204 977.502 228.426 979.053 L228.426 974.331 Q231.25 973.196 233.704 972.618 Q236.158 972.039 238.195 972.039 Q243.565 972.039 246.759 974.724 Q249.954 977.409 249.954 981.9 Q249.954 984.03 249.144 985.951 Q248.357 987.849 246.25 990.442 Q245.671 991.113 242.57 994.33 Q239.468 997.525 233.82 1003.29 Z" fill="#000000" fill-rule="evenodd" fill-opacity="1" /><path clip-path="url(#clip550)" d="M163.45 867.434 Q159.839 867.434 158.01 870.998 Q156.204 874.54 156.204 881.67 Q156.204 888.776 158.01 892.341 Q159.839 895.883 163.45 895.883 Q167.084 895.883 168.889 892.341 Q170.718 888.776 170.718 881.67 Q170.718 874.54 168.889 870.998 Q167.084 867.434 163.45 867.434 M163.45 863.73 Q169.26 863.73 172.315 868.336 Q175.394 872.92 175.394 881.67 Q175.394 890.396 172.315 895.003 Q169.26 899.586 163.45 899.586 Q157.64 899.586 154.561 895.003 Q151.505 890.396 151.505 881.67 Q151.505 872.92 154.561 868.336 Q157.64 863.73 163.45 863.73 Z" fill="#000000" fill-rule="evenodd" fill-opacity="1" /><path clip-path="url(#clip550)" d="M183.612 893.035 L188.496 893.035 L188.496 898.915 L183.612 898.915 L183.612 893.035 Z" fill="#000000" fill-rule="evenodd" fill-opacity="1" /><path clip-path="url(#clip550)" d="M208.681 867.434 Q205.07 867.434 203.241 870.998 Q201.436 874.54 201.436 881.67 Q201.436 888.776 203.241 892.341 Q205.07 895.883 208.681 895.883 Q212.315 895.883 214.121 892.341 Q215.949 888.776 215.949 881.67 Q215.949 874.54 214.121 870.998 Q212.315 867.434 208.681 867.434 M208.681 863.73 Q214.491 863.73 217.547 868.336 Q220.625 872.92 220.625 881.67 Q220.625 890.396 217.547 895.003 Q214.491 899.586 208.681 899.586 Q202.871 899.586 199.792 895.003 Q196.737 890.396 196.737 881.67 Q196.737 872.92 199.792 868.336 Q202.871 863.73 208.681 863.73 Z" fill="#000000" fill-rule="evenodd" fill-opacity="1" /><path clip-path="url(#clip550)" d="M243.009 880.281 Q246.366 880.998 248.241 883.267 Q250.139 885.535 250.139 888.869 Q250.139 893.984 246.621 896.785 Q243.102 899.586 236.621 899.586 Q234.445 899.586 232.13 899.146 Q229.838 898.73 227.385 897.873 L227.385 893.359 Q229.329 894.494 231.644 895.072 Q233.959 895.651 236.482 895.651 Q240.88 895.651 243.172 893.915 Q245.486 892.179 245.486 888.869 Q245.486 885.813 243.334 884.1 Q241.204 882.364 237.384 882.364 L233.357 882.364 L233.357 878.522 L237.57 878.522 Q241.019 878.522 242.847 877.156 Q244.676 875.767 244.676 873.174 Q244.676 870.512 242.778 869.1 Q240.903 867.665 237.384 867.665 Q235.463 867.665 233.264 868.082 Q231.065 868.498 228.426 869.378 L228.426 865.211 Q231.088 864.471 233.403 864.1 Q235.741 863.73 237.801 863.73 Q243.125 863.73 246.227 866.161 Q249.329 868.568 249.329 872.688 Q249.329 875.559 247.685 877.549 Q246.042 879.517 243.009 880.281 Z" fill="#000000" fill-rule="evenodd" fill-opacity="1" /><path clip-path="url(#clip550)" d="M162.315 759.125 Q158.704 759.125 156.876 762.689 Q155.07 766.231 155.07 773.361 Q155.07 780.467 156.876 784.032 Q158.704 787.574 162.315 787.574 Q165.95 787.574 167.755 784.032 Q169.584 780.467 169.584 773.361 Q169.584 766.231 167.755 762.689 Q165.95 759.125 162.315 759.125 M162.315 755.421 Q168.126 755.421 171.181 760.027 Q174.26 764.611 174.26 773.361 Q174.26 782.088 171.181 786.694 Q168.126 791.277 162.315 791.277 Q156.505 791.277 153.427 786.694 Q150.371 782.088 150.371 773.361 Q150.371 764.611 153.427 760.027 Q156.505 755.421 162.315 755.421 Z" fill="#000000" fill-rule="evenodd" fill-opacity="1" /><path clip-path="url(#clip550)" d="M182.477 784.726 L187.362 784.726 L187.362 790.606 L182.477 790.606 L182.477 784.726 Z" fill="#000000" fill-rule="evenodd" fill-opacity="1" /><path clip-path="url(#clip550)" d="M207.547 759.125 Q203.936 759.125 202.107 762.689 Q200.301 766.231 200.301 773.361 Q200.301 780.467 202.107 784.032 Q203.936 787.574 207.547 787.574 Q211.181 787.574 212.986 784.032 Q214.815 780.467 214.815 773.361 Q214.815 766.231 212.986 762.689 Q211.181 759.125 207.547 759.125 M207.547 755.421 Q213.357 755.421 216.412 760.027 Q219.491 764.611 219.491 773.361 Q219.491 782.088 216.412 786.694 Q213.357 791.277 207.547 791.277 Q201.737 791.277 198.658 786.694 Q195.602 782.088 195.602 773.361 Q195.602 764.611 198.658 760.027 Q201.737 755.421 207.547 755.421 Z" fill="#000000" fill-rule="evenodd" fill-opacity="1" /><path clip-path="url(#clip550)" d="M240.556 760.12 L228.75 778.569 L240.556 778.569 L240.556 760.12 M239.329 756.046 L245.209 756.046 L245.209 778.569 L250.139 778.569 L250.139 782.458 L245.209 782.458 L245.209 790.606 L240.556 790.606 L240.556 782.458 L224.954 782.458 L224.954 777.944 L239.329 756.046 Z" fill="#000000" fill-rule="evenodd" fill-opacity="1" /><path clip-path="url(#clip550)" d="M163.797 650.816 Q160.186 650.816 158.357 654.38 Q156.552 657.922 156.552 665.052 Q156.552 672.158 158.357 675.723 Q160.186 679.265 163.797 679.265 Q167.431 679.265 169.237 675.723 Q171.065 672.158 171.065 665.052 Q171.065 657.922 169.237 654.38 Q167.431 650.816 163.797 650.816 M163.797 647.112 Q169.607 647.112 172.663 651.718 Q175.741 656.302 175.741 665.052 Q175.741 673.779 172.663 678.385 Q169.607 682.968 163.797 682.968 Q157.987 682.968 154.908 678.385 Q151.853 673.779 151.853 665.052 Q151.853 656.302 154.908 651.718 Q157.987 647.112 163.797 647.112 Z" fill="#000000" fill-rule="evenodd" fill-opacity="1" /><path clip-path="url(#clip550)" d="M183.959 676.417 L188.843 676.417 L188.843 682.297 L183.959 682.297 L183.959 676.417 Z" fill="#000000" fill-rule="evenodd" fill-opacity="1" /><path clip-path="url(#clip550)" d="M209.028 650.816 Q205.417 650.816 203.588 654.38 Q201.783 657.922 201.783 665.052 Q201.783 672.158 203.588 675.723 Q205.417 679.265 209.028 679.265 Q212.662 679.265 214.468 675.723 Q216.297 672.158 216.297 665.052 Q216.297 657.922 214.468 654.38 Q212.662 650.816 209.028 650.816 M209.028 647.112 Q214.838 647.112 217.894 651.718 Q220.973 656.302 220.973 665.052 Q220.973 673.779 217.894 678.385 Q214.838 682.968 209.028 682.968 Q203.218 682.968 200.139 678.385 Q197.084 673.779 197.084 665.052 Q197.084 656.302 200.139 651.718 Q203.218 647.112 209.028 647.112 Z" fill="#000000" fill-rule="evenodd" fill-opacity="1" /><path clip-path="url(#clip550)" d="M229.236 647.737 L247.593 647.737 L247.593 651.672 L233.519 651.672 L233.519 660.144 Q234.537 659.797 235.556 659.635 Q236.574 659.45 237.593 659.45 Q243.38 659.45 246.759 662.621 Q250.139 665.792 250.139 671.209 Q250.139 676.788 246.667 679.89 Q243.195 682.968 236.875 682.968 Q234.699 682.968 232.431 682.598 Q230.185 682.228 227.778 681.487 L227.778 676.788 Q229.861 677.922 232.084 678.478 Q234.306 679.033 236.783 679.033 Q240.787 679.033 243.125 676.927 Q245.463 674.82 245.463 671.209 Q245.463 667.598 243.125 665.492 Q240.787 663.385 236.783 663.385 Q234.908 663.385 233.033 663.802 Q231.181 664.218 229.236 665.098 L229.236 647.737 Z" fill="#000000" fill-rule="evenodd" fill-opacity="1" /><path clip-path="url(#clip550)" d="M162.64 542.507 Q159.028 542.507 157.2 546.072 Q155.394 549.613 155.394 556.743 Q155.394 563.849 157.2 567.414 Q159.028 570.956 162.64 570.956 Q166.274 570.956 168.079 567.414 Q169.908 563.849 169.908 556.743 Q169.908 549.613 168.079 546.072 Q166.274 542.507 162.64 542.507 M162.64 538.803 Q168.45 538.803 171.505 543.409 Q174.584 547.993 174.584 556.743 Q174.584 565.47 171.505 570.076 Q168.45 574.659 162.64 574.659 Q156.829 574.659 153.751 570.076 Q150.695 565.47 150.695 556.743 Q150.695 547.993 153.751 543.409 Q156.829 538.803 162.64 538.803 Z" fill="#000000" fill-rule="evenodd" fill-opacity="1" /><path clip-path="url(#clip550)" d="M182.801 568.108 L187.686 568.108 L187.686 573.988 L182.801 573.988 L182.801 568.108 Z" fill="#000000" fill-rule="evenodd" fill-opacity="1" /><path clip-path="url(#clip550)" d="M207.871 542.507 Q204.26 542.507 202.431 546.072 Q200.625 549.613 200.625 556.743 Q200.625 563.849 202.431 567.414 Q204.26 570.956 207.871 570.956 Q211.505 570.956 213.311 567.414 Q215.139 563.849 215.139 556.743 Q215.139 549.613 213.311 546.072 Q211.505 542.507 207.871 542.507 M207.871 538.803 Q213.681 538.803 216.736 543.409 Q219.815 547.993 219.815 556.743 Q219.815 565.47 216.736 570.076 Q213.681 574.659 207.871 574.659 Q202.061 574.659 198.982 570.076 Q195.926 565.47 195.926 556.743 Q195.926 547.993 198.982 543.409 Q202.061 538.803 207.871 538.803 Z" fill="#000000" fill-rule="evenodd" fill-opacity="1" /><path clip-path="url(#clip550)" d="M238.611 554.845 Q235.463 554.845 233.611 556.997 Q231.783 559.15 231.783 562.9 Q231.783 566.627 233.611 568.803 Q235.463 570.956 238.611 570.956 Q241.759 570.956 243.588 568.803 Q245.44 566.627 245.44 562.9 Q245.44 559.15 243.588 556.997 Q241.759 554.845 238.611 554.845 M247.894 540.192 L247.894 544.451 Q246.134 543.618 244.329 543.178 Q242.547 542.738 240.787 542.738 Q236.158 542.738 233.704 545.863 Q231.273 548.988 230.926 555.308 Q232.292 553.294 234.352 552.229 Q236.412 551.141 238.889 551.141 Q244.097 551.141 247.107 554.312 Q250.139 557.46 250.139 562.9 Q250.139 568.224 246.991 571.442 Q243.843 574.659 238.611 574.659 Q232.616 574.659 229.445 570.076 Q226.273 565.47 226.273 556.743 Q226.273 548.548 230.162 543.687 Q234.051 538.803 240.602 538.803 Q242.361 538.803 244.144 539.15 Q245.949 539.497 247.894 540.192 Z" fill="#000000" fill-rule="evenodd" fill-opacity="1" /><path clip-path="url(#clip550)" d="M163.704 434.198 Q160.093 434.198 158.265 437.763 Q156.459 441.304 156.459 448.434 Q156.459 455.54 158.265 459.105 Q160.093 462.647 163.704 462.647 Q167.339 462.647 169.144 459.105 Q170.973 455.54 170.973 448.434 Q170.973 441.304 169.144 437.763 Q167.339 434.198 163.704 434.198 M163.704 430.494 Q169.514 430.494 172.57 435.101 Q175.649 439.684 175.649 448.434 Q175.649 457.161 172.57 461.767 Q169.514 466.35 163.704 466.35 Q157.894 466.35 154.815 461.767 Q151.76 457.161 151.76 448.434 Q151.76 439.684 154.815 435.101 Q157.894 430.494 163.704 430.494 Z" fill="#000000" fill-rule="evenodd" fill-opacity="1" /><path clip-path="url(#clip550)" d="M183.866 459.799 L188.75 459.799 L188.75 465.679 L183.866 465.679 L183.866 459.799 Z" fill="#000000" fill-rule="evenodd" fill-opacity="1" /><path clip-path="url(#clip550)" d="M208.936 434.198 Q205.324 434.198 203.496 437.763 Q201.69 441.304 201.69 448.434 Q201.69 455.54 203.496 459.105 Q205.324 462.647 208.936 462.647 Q212.57 462.647 214.375 459.105 Q216.204 455.54 216.204 448.434 Q216.204 441.304 214.375 437.763 Q212.57 434.198 208.936 434.198 M208.936 430.494 Q214.746 430.494 217.801 435.101 Q220.88 439.684 220.88 448.434 Q220.88 457.161 217.801 461.767 Q214.746 466.35 208.936 466.35 Q203.125 466.35 200.047 461.767 Q196.991 457.161 196.991 448.434 Q196.991 439.684 200.047 435.101 Q203.125 430.494 208.936 430.494 Z" fill="#000000" fill-rule="evenodd" fill-opacity="1" /><path clip-path="url(#clip550)" d="M227.917 431.119 L250.139 431.119 L250.139 433.11 L237.593 465.679 L232.709 465.679 L244.514 435.054 L227.917 435.054 L227.917 431.119 Z" fill="#000000" fill-rule="evenodd" fill-opacity="1" /><path clip-path="url(#clip550)" d="M162.894 325.889 Q159.283 325.889 157.454 329.454 Q155.649 332.995 155.649 340.125 Q155.649 347.231 157.454 350.796 Q159.283 354.338 162.894 354.338 Q166.528 354.338 168.334 350.796 Q170.163 347.231 170.163 340.125 Q170.163 332.995 168.334 329.454 Q166.528 325.889 162.894 325.889 M162.894 322.185 Q168.704 322.185 171.76 326.792 Q174.839 331.375 174.839 340.125 Q174.839 348.852 171.76 353.458 Q168.704 358.041 162.894 358.041 Q157.084 358.041 154.005 353.458 Q150.95 348.852 150.95 340.125 Q150.95 331.375 154.005 326.792 Q157.084 322.185 162.894 322.185 Z" fill="#000000" fill-rule="evenodd" fill-opacity="1" /><path clip-path="url(#clip550)" d="M183.056 351.49 L187.94 351.49 L187.94 357.37 L183.056 357.37 L183.056 351.49 Z" fill="#000000" fill-rule="evenodd" fill-opacity="1" /><path clip-path="url(#clip550)" d="M208.125 325.889 Q204.514 325.889 202.686 329.454 Q200.88 332.995 200.88 340.125 Q200.88 347.231 202.686 350.796 Q204.514 354.338 208.125 354.338 Q211.76 354.338 213.565 350.796 Q215.394 347.231 215.394 340.125 Q215.394 332.995 213.565 329.454 Q211.76 325.889 208.125 325.889 M208.125 322.185 Q213.936 322.185 216.991 326.792 Q220.07 331.375 220.07 340.125 Q220.07 348.852 216.991 353.458 Q213.936 358.041 208.125 358.041 Q202.315 358.041 199.237 353.458 Q196.181 348.852 196.181 340.125 Q196.181 331.375 199.237 326.792 Q202.315 322.185 208.125 322.185 Z" fill="#000000" fill-rule="evenodd" fill-opacity="1" /><path clip-path="url(#clip550)" d="M238.287 340.958 Q234.954 340.958 233.033 342.741 Q231.135 344.523 231.135 347.648 Q231.135 350.773 233.033 352.555 Q234.954 354.338 238.287 354.338 Q241.621 354.338 243.542 352.555 Q245.463 350.75 245.463 347.648 Q245.463 344.523 243.542 342.741 Q241.644 340.958 238.287 340.958 M233.611 338.967 Q230.602 338.227 228.912 336.166 Q227.246 334.106 227.246 331.143 Q227.246 327 230.185 324.592 Q233.148 322.185 238.287 322.185 Q243.449 322.185 246.389 324.592 Q249.329 327 249.329 331.143 Q249.329 334.106 247.639 336.166 Q245.972 338.227 242.986 338.967 Q246.366 339.754 248.241 342.046 Q250.139 344.338 250.139 347.648 Q250.139 352.671 247.06 355.356 Q244.005 358.041 238.287 358.041 Q232.57 358.041 229.491 355.356 Q226.435 352.671 226.435 347.648 Q226.435 344.338 228.334 342.046 Q230.232 339.754 233.611 338.967 M231.898 331.583 Q231.898 334.268 233.565 335.773 Q235.255 337.278 238.287 337.278 Q241.297 337.278 242.986 335.773 Q244.699 334.268 244.699 331.583 Q244.699 328.898 242.986 327.393 Q241.297 325.889 238.287 325.889 Q235.255 325.889 233.565 327.393 Q231.898 328.898 231.898 331.583 Z" fill="#000000" fill-rule="evenodd" fill-opacity="1" /><path clip-path="url(#clip550)" d="M162.987 217.58 Q159.376 217.58 157.547 221.145 Q155.741 224.686 155.741 231.816 Q155.741 238.922 157.547 242.487 Q159.376 246.029 162.987 246.029 Q166.621 246.029 168.427 242.487 Q170.255 238.922 170.255 231.816 Q170.255 224.686 168.427 221.145 Q166.621 217.58 162.987 217.58 M162.987 213.876 Q168.797 213.876 171.852 218.483 Q174.931 223.066 174.931 231.816 Q174.931 240.543 171.852 245.149 Q168.797 249.732 162.987 249.732 Q157.177 249.732 154.098 245.149 Q151.042 240.543 151.042 231.816 Q151.042 223.066 154.098 218.483 Q157.177 213.876 162.987 213.876 Z" fill="#000000" fill-rule="evenodd" fill-opacity="1" /><path clip-path="url(#clip550)" d="M183.149 243.182 L188.033 243.182 L188.033 249.061 L183.149 249.061 L183.149 243.182 Z" fill="#000000" fill-rule="evenodd" fill-opacity="1" /><path clip-path="url(#clip550)" d="M208.218 217.58 Q204.607 217.58 202.778 221.145 Q200.973 224.686 200.973 231.816 Q200.973 238.922 202.778 242.487 Q204.607 246.029 208.218 246.029 Q211.852 246.029 213.658 242.487 Q215.486 238.922 215.486 231.816 Q215.486 224.686 213.658 221.145 Q211.852 217.58 208.218 217.58 M208.218 213.876 Q214.028 213.876 217.084 218.483 Q220.162 223.066 220.162 231.816 Q220.162 240.543 217.084 245.149 Q214.028 249.732 208.218 249.732 Q202.408 249.732 199.329 245.149 Q196.274 240.543 196.274 231.816 Q196.274 223.066 199.329 218.483 Q202.408 213.876 208.218 213.876 Z" fill="#000000" fill-rule="evenodd" fill-opacity="1" /><path clip-path="url(#clip550)" d="M228.519 248.344 L228.519 244.084 Q230.278 244.918 232.084 245.357 Q233.889 245.797 235.625 245.797 Q240.255 245.797 242.685 242.695 Q245.139 239.57 245.486 233.228 Q244.144 235.219 242.084 236.283 Q240.023 237.348 237.523 237.348 Q232.338 237.348 229.306 234.223 Q226.297 231.075 226.297 225.635 Q226.297 220.311 229.445 217.094 Q232.593 213.876 237.824 213.876 Q243.82 213.876 246.968 218.483 Q250.139 223.066 250.139 231.816 Q250.139 239.987 246.25 244.871 Q242.384 249.732 235.834 249.732 Q234.074 249.732 232.269 249.385 Q230.463 249.038 228.519 248.344 M237.824 233.691 Q240.972 233.691 242.801 231.538 Q244.653 229.385 244.653 225.635 Q244.653 221.908 242.801 219.756 Q240.972 217.58 237.824 217.58 Q234.676 217.58 232.824 219.756 Q230.996 221.908 230.996 225.635 Q230.996 229.385 232.824 231.538 Q234.676 233.691 237.824 233.691 Z" fill="#000000" fill-rule="evenodd" fill-opacity="1" /><path clip-path="url(#clip550)" d="M162.802 109.271 Q159.19 109.271 157.362 112.836 Q155.556 116.377 155.556 123.507 Q155.556 130.613 157.362 134.178 Q159.19 137.72 162.802 137.72 Q166.436 137.72 168.241 134.178 Q170.07 130.613 170.07 123.507 Q170.07 116.377 168.241 112.836 Q166.436 109.271 162.802 109.271 M162.802 105.567 Q168.612 105.567 171.667 110.174 Q174.746 114.757 174.746 123.507 Q174.746 132.234 171.667 136.84 Q168.612 141.423 162.802 141.423 Q156.991 141.423 153.913 136.84 Q150.857 132.234 150.857 123.507 Q150.857 114.757 153.913 110.174 Q156.991 105.567 162.802 105.567 Z" fill="#000000" fill-rule="evenodd" fill-opacity="1" /><path clip-path="url(#clip550)" d="M182.963 134.873 L187.848 134.873 L187.848 140.752 L182.963 140.752 L182.963 134.873 Z" fill="#000000" fill-rule="evenodd" fill-opacity="1" /><path clip-path="url(#clip550)" d="M198.843 136.817 L206.482 136.817 L206.482 110.451 L198.172 112.118 L198.172 107.859 L206.436 106.192 L211.111 106.192 L211.111 136.817 L218.75 136.817 L218.75 140.752 L198.843 140.752 L198.843 136.817 Z" fill="#000000" fill-rule="evenodd" fill-opacity="1" /><path clip-path="url(#clip550)" d="M238.195 109.271 Q234.584 109.271 232.755 112.836 Q230.949 116.377 230.949 123.507 Q230.949 130.613 232.755 134.178 Q234.584 137.72 238.195 137.72 Q241.829 137.72 243.634 134.178 Q245.463 130.613 245.463 123.507 Q245.463 116.377 243.634 112.836 Q241.829 109.271 238.195 109.271 M238.195 105.567 Q244.005 105.567 247.06 110.174 Q250.139 114.757 250.139 123.507 Q250.139 132.234 247.06 136.84 Q244.005 141.423 238.195 141.423 Q232.385 141.423 229.306 136.84 Q226.25 132.234 226.25 123.507 Q226.25 114.757 229.306 110.174 Q232.385 105.567 238.195 105.567 Z" fill="#000000" fill-rule="evenodd" fill-opacity="1" /><path clip-path="url(#clip550)" d="M16.4842 987.834 L16.4842 981.405 L64.0042 981.405 L64.0042 987.834 L16.4842 987.834 Z" fill="#000000" fill-rule="evenodd" fill-opacity="1" /><path clip-path="url(#clip550)" d="M42.4881 939.232 L64.0042 939.232 L64.0042 945.089 L42.679 945.089 Q37.6183 945.089 35.1038 947.062 Q32.5894 949.035 32.5894 952.982 Q32.5894 957.725 35.6131 960.462 Q38.6368 963.199 43.8567 963.199 L64.0042 963.199 L64.0042 969.087 L28.3562 969.087 L28.3562 963.199 L33.8944 963.199 Q30.6797 961.098 29.0883 958.266 Q27.4968 955.401 27.4968 951.677 Q27.4968 945.534 31.3163 942.383 Q35.1038 939.232 42.4881 939.232 Z" fill="#000000" fill-rule="evenodd" fill-opacity="1" /><path clip-path="url(#clip550)" d="M42.4881 897.919 L64.0042 897.919 L64.0042 903.775 L42.679 903.775 Q37.6183 903.775 35.1038 905.749 Q32.5894 907.722 32.5894 911.669 Q32.5894 916.411 35.6131 919.148 Q38.6368 921.886 43.8567 921.886 L64.0042 921.886 L64.0042 927.774 L28.3562 927.774 L28.3562 921.886 L33.8944 921.886 Q30.6797 919.785 29.0883 916.952 Q27.4968 914.088 27.4968 910.364 Q27.4968 904.221 31.3163 901.07 Q35.1038 897.919 42.4881 897.919 Z" fill="#000000" fill-rule="evenodd" fill-opacity="1" /><path clip-path="url(#clip550)" d="M44.7161 855.746 L47.5806 855.746 L47.5806 882.673 Q53.6281 882.291 56.8109 879.044 Q59.9619 875.766 59.9619 869.941 Q59.9619 866.568 59.1344 863.417 Q58.3069 860.234 56.6518 857.115 L62.1899 857.115 Q63.5267 860.266 64.227 863.576 Q64.9272 866.886 64.9272 870.292 Q64.9272 878.822 59.9619 883.819 Q54.9967 888.784 46.5303 888.784 Q37.7774 888.784 32.6531 884.073 Q27.4968 879.331 27.4968 871.31 Q27.4968 864.117 32.1438 859.947 Q36.7589 855.746 44.7161 855.746 M42.9973 861.602 Q38.1912 861.666 35.3266 864.308 Q32.4621 866.918 32.4621 871.246 Q32.4621 876.148 35.2312 879.108 Q38.0002 882.036 43.0292 882.482 L42.9973 861.602 Z" fill="#000000" fill-rule="evenodd" fill-opacity="1" /><path clip-path="url(#clip550)" d="M33.8307 825.477 Q33.2578 826.464 33.0032 827.641 Q32.7167 828.787 32.7167 830.188 Q32.7167 835.153 35.9632 837.827 Q39.1779 840.468 45.2253 840.468 L64.0042 840.468 L64.0042 846.357 L28.3562 846.357 L28.3562 840.468 L33.8944 840.468 Q30.6479 838.622 29.0883 835.662 Q27.4968 832.702 27.4968 828.469 Q27.4968 827.864 27.5923 827.132 Q27.656 826.4 27.8151 825.509 L33.8307 825.477 Z" fill="#000000" fill-rule="evenodd" fill-opacity="1" /><path clip-path="url(#clip550)" d="M21.7677 791.93 L39.6235 791.93 L39.6235 783.845 Q39.6235 779.357 37.3 776.907 Q34.9765 774.456 30.6797 774.456 Q26.4147 774.456 24.0912 776.907 Q21.7677 779.357 21.7677 783.845 L21.7677 791.93 M16.4842 798.359 L16.4842 783.845 Q16.4842 775.856 20.1126 771.782 Q23.7092 767.676 30.6797 767.676 Q37.7138 767.676 41.3104 771.782 Q44.907 775.856 44.907 783.845 L44.907 791.93 L64.0042 791.93 L64.0042 798.359 L16.4842 798.359 Z" fill="#000000" fill-rule="evenodd" fill-opacity="1" /><path clip-path="url(#clip550)" d="M33.8307 739.795 Q33.2578 740.781 33.0032 741.959 Q32.7167 743.105 32.7167 744.505 Q32.7167 749.47 35.9632 752.144 Q39.1779 754.786 45.2253 754.786 L64.0042 754.786 L64.0042 760.674 L28.3562 760.674 L28.3562 754.786 L33.8944 754.786 Q30.6479 752.94 29.0883 749.98 Q27.4968 747.02 27.4968 742.787 Q27.4968 742.182 27.5923 741.45 Q27.656 740.718 27.8151 739.826 L33.8307 739.795 Z" fill="#000000" fill-rule="evenodd" fill-opacity="1" /><path clip-path="url(#clip550)" d="M32.4621 721.27 Q32.4621 725.981 36.1542 728.718 Q39.8145 731.456 46.212 731.456 Q52.6095 731.456 56.3017 728.75 Q59.9619 726.013 59.9619 721.27 Q59.9619 716.592 56.2698 713.854 Q52.5777 711.117 46.212 711.117 Q39.8781 711.117 36.186 713.854 Q32.4621 716.592 32.4621 721.27 M27.4968 721.27 Q27.4968 713.632 32.4621 709.271 Q37.4273 704.911 46.212 704.911 Q54.9649 704.911 59.9619 709.271 Q64.9272 713.632 64.9272 721.27 Q64.9272 728.941 59.9619 733.302 Q54.9649 737.63 46.212 737.63 Q37.4273 737.63 32.4621 733.302 Q27.4968 728.941 27.4968 721.27 Z" fill="#000000" fill-rule="evenodd" fill-opacity="1" /><path clip-path="url(#clip550)" d="M33.7671 671.745 L14.479 671.745 L14.479 665.889 L64.0042 665.889 L64.0042 671.745 L58.657 671.745 Q61.8398 673.591 63.3994 676.424 Q64.9272 679.225 64.9272 683.172 Q64.9272 689.633 59.771 693.707 Q54.6147 697.749 46.212 697.749 Q37.8093 697.749 32.6531 693.707 Q27.4968 689.633 27.4968 683.172 Q27.4968 679.225 29.0564 676.424 Q30.5842 673.591 33.7671 671.745 M46.212 691.702 Q52.6732 691.702 56.3653 689.06 Q60.0256 686.386 60.0256 681.739 Q60.0256 677.092 56.3653 674.419 Q52.6732 671.745 46.212 671.745 Q39.7508 671.745 36.0905 674.419 Q32.3984 677.092 32.3984 681.739 Q32.3984 686.386 36.0905 689.06 Q39.7508 691.702 46.212 691.702 Z" fill="#000000" fill-rule="evenodd" fill-opacity="1" /><path clip-path="url(#clip550)" d="M49.9359 654.43 L28.3562 654.43 L28.3562 648.574 L49.7131 648.574 Q54.7739 648.574 57.3202 646.601 Q59.8346 644.627 59.8346 640.681 Q59.8346 635.938 56.8109 633.201 Q53.7872 630.432 48.5673 630.432 L28.3562 630.432 L28.3562 624.575 L64.0042 624.575 L64.0042 630.432 L58.5296 630.432 Q61.7762 632.564 63.3676 635.397 Q64.9272 638.198 64.9272 641.922 Q64.9272 648.065 61.1078 651.248 Q57.2883 654.43 49.9359 654.43 M27.4968 639.694 L27.4968 639.694 Z" fill="#000000" fill-rule="evenodd" fill-opacity="1" /><path clip-path="url(#clip550)" d="M29.7248 586.859 L35.1993 586.859 Q33.8307 589.341 33.1623 591.856 Q32.4621 594.338 32.4621 596.885 Q32.4621 602.582 36.0905 605.733 Q39.6872 608.884 46.212 608.884 Q52.7369 608.884 56.3653 605.733 Q59.9619 602.582 59.9619 596.885 Q59.9619 594.338 59.2935 591.856 Q58.5933 589.341 57.2247 586.859 L62.6355 586.859 Q63.7814 589.309 64.3543 591.951 Q64.9272 594.561 64.9272 597.521 Q64.9272 605.574 59.8664 610.316 Q54.8057 615.059 46.212 615.059 Q37.491 615.059 32.4939 610.284 Q27.4968 605.478 27.4968 597.139 Q27.4968 594.434 28.0697 591.856 Q28.6108 589.277 29.7248 586.859 Z" fill="#000000" fill-rule="evenodd" fill-opacity="1" /><path clip-path="url(#clip550)" d="M18.2347 570.881 L28.3562 570.881 L28.3562 558.818 L32.9077 558.818 L32.9077 570.881 L52.2594 570.881 Q56.6199 570.881 57.8613 569.703 Q59.1026 568.493 59.1026 564.833 L59.1026 558.818 L64.0042 558.818 L64.0042 564.833 Q64.0042 571.613 61.4897 574.191 Q58.9434 576.769 52.2594 576.769 L32.9077 576.769 L32.9077 581.066 L28.3562 581.066 L28.3562 576.769 L18.2347 576.769 L18.2347 570.881 Z" fill="#000000" fill-rule="evenodd" fill-opacity="1" /><path clip-path="url(#clip550)" d="M1189.03 17.6457 Q1180.12 17.6457 1174.85 24.2892 Q1169.62 30.9327 1169.62 42.3968 Q1169.62 53.8203 1174.85 60.4638 Q1180.12 67.1073 1189.03 67.1073 Q1197.94 67.1073 1203.13 60.4638 Q1208.35 53.8203 1208.35 42.3968 Q1208.35 30.9327 1203.13 24.2892 Q1197.94 17.6457 1189.03 17.6457 M1189.03 11.0023 Q1201.75 11.0023 1209.36 19.5497 Q1216.98 28.0566 1216.98 42.3968 Q1216.98 56.6965 1209.36 65.2439 Q1201.75 73.7508 1189.03 73.7508 Q1176.27 73.7508 1168.61 65.2439 Q1161 56.737 1161 42.3968 Q1161 28.0566 1168.61 19.5497 Q1176.27 11.0023 1189.03 11.0023 Z" fill="#000000" fill-rule="evenodd" fill-opacity="1" /><path clip-path="url(#clip550)" d="M1224.11 27.2059 L1232.01 27.2059 L1246.19 65.2844 L1260.37 27.2059 L1268.26 27.2059 L1251.25 72.576 L1241.12 72.576 L1224.11 27.2059 Z" fill="#000000" fill-rule="evenodd" fill-opacity="1" /><path clip-path="url(#clip550)" d="M1317.36 48.0275 L1317.36 51.6733 L1283.09 51.6733 Q1283.58 59.3701 1287.71 63.421 Q1291.88 67.4314 1299.29 67.4314 Q1303.59 67.4314 1307.6 66.3781 Q1311.65 65.3249 1315.62 63.2184 L1315.62 70.267 Q1311.61 71.9684 1307.4 72.8596 Q1303.18 73.7508 1298.85 73.7508 Q1287.99 73.7508 1281.63 67.4314 Q1275.31 61.1119 1275.31 50.3365 Q1275.31 39.1965 1281.31 32.6746 Q1287.34 26.1121 1297.55 26.1121 Q1306.71 26.1121 1312.01 32.0264 Q1317.36 37.9003 1317.36 48.0275 M1309.91 45.84 Q1309.83 39.7232 1306.46 36.0774 Q1303.14 32.4315 1297.63 32.4315 Q1291.39 32.4315 1287.63 35.9558 Q1283.9 39.4801 1283.33 45.8805 L1309.91 45.84 Z" fill="#000000" fill-rule="evenodd" fill-opacity="1" /><path clip-path="url(#clip550)" d="M1355.89 34.1734 Q1354.63 33.4443 1353.13 33.1202 Q1351.67 32.7556 1349.89 32.7556 Q1343.57 32.7556 1340.17 36.8875 Q1336.81 40.9789 1336.81 48.6757 L1336.81 72.576 L1329.31 72.576 L1329.31 27.2059 L1336.81 27.2059 L1336.81 34.2544 Q1339.16 30.1225 1342.92 28.1376 Q1346.69 26.1121 1352.08 26.1121 Q1352.85 26.1121 1353.78 26.2337 Q1354.71 26.3147 1355.84 26.5172 L1355.89 34.1734 Z" fill="#000000" fill-rule="evenodd" fill-opacity="1" /><path clip-path="url(#clip550)" d="M1363.7 9.54393 L1371.16 9.54393 L1371.16 72.576 L1363.7 72.576 L1363.7 9.54393 Z" fill="#000000" fill-rule="evenodd" fill-opacity="1" /><path clip-path="url(#clip550)" d="M1407.37 49.7694 Q1398.34 49.7694 1394.86 51.8354 Q1391.37 53.9013 1391.37 58.8839 Q1391.37 62.8538 1393.96 65.2034 Q1396.6 67.5124 1401.09 67.5124 Q1407.29 67.5124 1411.02 63.1374 Q1414.79 58.7219 1414.79 51.4303 L1414.79 49.7694 L1407.37 49.7694 M1422.24 46.6907 L1422.24 72.576 L1414.79 72.576 L1414.79 65.6895 Q1412.23 69.8214 1408.43 71.8063 Q1404.62 73.7508 1399.11 73.7508 Q1392.14 73.7508 1388.01 69.8619 Q1383.92 65.9325 1383.92 59.3701 Q1383.92 51.7138 1389.02 47.825 Q1394.17 43.9361 1404.33 43.9361 L1414.79 43.9361 L1414.79 43.2069 Q1414.79 38.0623 1411.38 35.2672 Q1408.02 32.4315 1401.9 32.4315 Q1398.01 32.4315 1394.33 33.3632 Q1390.64 34.295 1387.24 36.1584 L1387.24 29.2718 Q1391.33 27.692 1395.18 26.9223 Q1399.03 26.1121 1402.67 26.1121 Q1412.52 26.1121 1417.38 31.2163 Q1422.24 36.3204 1422.24 46.6907 Z" fill="#000000" fill-rule="evenodd" fill-opacity="1" /><path clip-path="url(#clip550)" d="M1444.8 65.7705 L1444.8 89.8329 L1437.31 89.8329 L1437.31 27.2059 L1444.8 27.2059 L1444.8 34.0924 Q1447.15 30.0415 1450.72 28.0971 Q1454.32 26.1121 1459.3 26.1121 Q1467.57 26.1121 1472.71 32.6746 Q1477.9 39.2371 1477.9 49.9314 Q1477.9 60.6258 1472.71 67.1883 Q1467.57 73.7508 1459.3 73.7508 Q1454.32 73.7508 1450.72 71.8063 Q1447.15 69.8214 1444.8 65.7705 M1470.16 49.9314 Q1470.16 41.7081 1466.76 37.0496 Q1463.4 32.3505 1457.48 32.3505 Q1451.57 32.3505 1448.16 37.0496 Q1444.8 41.7081 1444.8 49.9314 Q1444.8 58.1548 1448.16 62.8538 Q1451.57 67.5124 1457.48 67.5124 Q1463.4 67.5124 1466.76 62.8538 Q1470.16 58.1548 1470.16 49.9314 Z" fill="#000000" fill-rule="evenodd" fill-opacity="1" /><circle clip-path="url(#clip552)" cx="465.845" cy="1206.56" r="7.2" fill="#009af9" fill-rule="evenodd" fill-opacity="1" stroke="#000000" stroke-opacity="1" stroke-width="3.2"/>
<circle clip-path="url(#clip552)" cx="555.698" cy="1206.45" r="7.2" fill="#009af9" fill-rule="evenodd" fill-opacity="1" stroke="#000000" stroke-opacity="1" stroke-width="3.2"/>
<circle clip-path="url(#clip552)" cx="645.551" cy="1206.56" r="7.2" fill="#009af9" fill-rule="evenodd" fill-opacity="1" stroke="#000000" stroke-opacity="1" stroke-width="3.2"/>
<circle clip-path="url(#clip552)" cx="735.404" cy="1206.23" r="7.2" fill="#009af9" fill-rule="evenodd" fill-opacity="1" stroke="#000000" stroke-opacity="1" stroke-width="3.2"/>
<circle clip-path="url(#clip552)" cx="825.256" cy="1206.56" r="7.2" fill="#009af9" fill-rule="evenodd" fill-opacity="1" stroke="#000000" stroke-opacity="1" stroke-width="3.2"/>
<circle clip-path="url(#clip552)" cx="915.109" cy="1193.29" r="7.2" fill="#009af9" fill-rule="evenodd" fill-opacity="1" stroke="#000000" stroke-opacity="1" stroke-width="3.2"/>
<circle clip-path="url(#clip552)" cx="1004.96" cy="1206.55" r="7.2" fill="#009af9" fill-rule="evenodd" fill-opacity="1" stroke="#000000" stroke-opacity="1" stroke-width="3.2"/>
<circle clip-path="url(#clip552)" cx="1094.82" cy="1153.5" r="7.2" fill="#009af9" fill-rule="evenodd" fill-opacity="1" stroke="#000000" stroke-opacity="1" stroke-width="3.2"/>
<circle clip-path="url(#clip552)" cx="1184.67" cy="1206.38" r="7.2" fill="#009af9" fill-rule="evenodd" fill-opacity="1" stroke="#000000" stroke-opacity="1" stroke-width="3.2"/>
<circle clip-path="url(#clip552)" cx="1274.52" cy="1195.41" r="7.2" fill="#009af9" fill-rule="evenodd" fill-opacity="1" stroke="#000000" stroke-opacity="1" stroke-width="3.2"/>
<circle clip-path="url(#clip552)" cx="1364.37" cy="1202.25" r="7.2" fill="#009af9" fill-rule="evenodd" fill-opacity="1" stroke="#000000" stroke-opacity="1" stroke-width="3.2"/>
<circle clip-path="url(#clip552)" cx="1454.23" cy="1123.21" r="7.2" fill="#009af9" fill-rule="evenodd" fill-opacity="1" stroke="#000000" stroke-opacity="1" stroke-width="3.2"/>
<circle clip-path="url(#clip552)" cx="1544.08" cy="1181.9" r="7.2" fill="#009af9" fill-rule="evenodd" fill-opacity="1" stroke="#000000" stroke-opacity="1" stroke-width="3.2"/>
<circle clip-path="url(#clip552)" cx="1633.93" cy="787.517" r="7.2" fill="#009af9" fill-rule="evenodd" fill-opacity="1" stroke="#000000" stroke-opacity="1" stroke-width="3.2"/>
<circle clip-path="url(#clip552)" cx="1723.79" cy="1114.5" r="7.2" fill="#009af9" fill-rule="evenodd" fill-opacity="1" stroke="#000000" stroke-opacity="1" stroke-width="3.2"/>
<circle clip-path="url(#clip552)" cx="1813.64" cy="1019.64" r="7.2" fill="#009af9" fill-rule="evenodd" fill-opacity="1" stroke="#000000" stroke-opacity="1" stroke-width="3.2"/>
<circle clip-path="url(#clip552)" cx="1903.49" cy="1164.75" r="7.2" fill="#009af9" fill-rule="evenodd" fill-opacity="1" stroke="#000000" stroke-opacity="1" stroke-width="3.2"/>
<circle clip-path="url(#clip552)" cx="1993.34" cy="1060.93" r="7.2" fill="#009af9" fill-rule="evenodd" fill-opacity="1" stroke="#000000" stroke-opacity="1" stroke-width="3.2"/>
<circle clip-path="url(#clip552)" cx="2083.2" cy="1012.64" r="7.2" fill="#009af9" fill-rule="evenodd" fill-opacity="1" stroke="#000000" stroke-opacity="1" stroke-width="3.2"/>
<path clip-path="url(#clip550)" d="
M2001.81 270.476 L2283.87 270.476 L2283.87 166.796 L2001.81 166.796  Z
  " fill="#ffffff" fill-rule="evenodd" fill-opacity="1"/>
<polyline clip-path="url(#clip550)" style="stroke:#000000; stroke-linecap:round; stroke-linejoin:round; stroke-width:4; stroke-opacity:1; fill:none" points="
  2001.81,270.476 2283.87,270.476 2283.87,166.796 2001.81,166.796 2001.81,270.476 
  "/>
<circle clip-path="url(#clip550)" cx="2093.66" cy="218.636" r="23.04" fill="#009af9" fill-rule="evenodd" fill-opacity="1" stroke="#000000" stroke-opacity="1" stroke-width="10.24"/>
<path clip-path="url(#clip550)" d="M2199.36 238.323 Q2197.55 242.953 2195.84 244.365 Q2194.12 245.777 2191.25 245.777 L2187.85 245.777 L2187.85 242.212 L2190.35 242.212 Q2192.11 242.212 2193.08 241.379 Q2194.06 240.545 2195.24 237.443 L2196 235.499 L2185.51 209.99 L2190.03 209.99 L2198.13 230.268 L2206.23 209.99 L2210.74 209.99 L2199.36 238.323 Z" fill="#000000" fill-rule="evenodd" fill-opacity="1" /><path clip-path="url(#clip550)" d="M2218.04 231.981 L2225.68 231.981 L2225.68 205.615 L2217.37 207.282 L2217.37 203.022 L2225.63 201.356 L2230.31 201.356 L2230.31 231.981 L2237.94 231.981 L2237.94 235.916 L2218.04 235.916 L2218.04 231.981 Z" fill="#000000" fill-rule="evenodd" fill-opacity="1" /></svg>
