<?xml version="1.0" encoding="utf-8"?>
<svg xmlns="http://www.w3.org/2000/svg" xmlns:xlink="http://www.w3.org/1999/xlink" width="600" height="400" viewBox="0 0 2400 1600">
<defs>
  <clipPath id="clip830">
    <rect x="0" y="0" width="2400" height="1600"/>
  </clipPath>
</defs>
<path clip-path="url(#clip830)" d="
M0 1600 L2400 1600 L2400 0 L0 0  Z
  " fill="#ffffff" fill-rule="evenodd" fill-opacity="1"/>
<defs>
  <clipPath id="clip831">
    <rect x="480" y="0" width="1681" height="1600"/>
  </clipPath>
</defs>
<path clip-path="url(#clip830)" d="
M249.542 1423.18 L2352.76 1423.18 L2352.76 123.472 L249.542 123.472  Z
  " fill="#ffffff" fill-rule="evenodd" fill-opacity="1"/>
<defs>
  <clipPath id="clip832">
    <rect x="249" y="123" width="2104" height="1301"/>
  </clipPath>
</defs>
<polyline clip-path="url(#clip832)" style="stroke:#000000; stroke-linecap:round; stroke-linejoin:round; stroke-width:2; stroke-opacity:0.1; fill:none" points="
  249.542,1423.18 249.542,123.472 
  "/>
<polyline clip-path="url(#clip832)" style="stroke:#000000; stroke-linecap:round; stroke-linejoin:round; stroke-width:2; stroke-opacity:0.1; fill:none" points="
  459.863,1423.18 459.863,123.472 
  "/>
<polyline clip-path="url(#clip832)" style="stroke:#000000; stroke-linecap:round; stroke-linejoin:round; stroke-width:2; stroke-opacity:0.1; fill:none" points="
  670.185,1423.18 670.185,123.472 
  "/>
<polyline clip-path="url(#clip832)" style="stroke:#000000; stroke-linecap:round; stroke-linejoin:round; stroke-width:2; stroke-opacity:0.1; fill:none" points="
  880.506,1423.18 880.506,123.472 
  "/>
<polyline clip-path="url(#clip832)" style="stroke:#000000; stroke-linecap:round; stroke-linejoin:round; stroke-width:2; stroke-opacity:0.1; fill:none" points="
  1090.83,1423.18 1090.83,123.472 
  "/>
<polyline clip-path="url(#clip832)" style="stroke:#000000; stroke-linecap:round; stroke-linejoin:round; stroke-width:2; stroke-opacity:0.1; fill:none" points="
  1301.15,1423.18 1301.15,123.472 
  "/>
<polyline clip-path="url(#clip832)" style="stroke:#000000; stroke-linecap:round; stroke-linejoin:round; stroke-width:2; stroke-opacity:0.1; fill:none" points="
  1511.47,1423.18 1511.47,123.472 
  "/>
<polyline clip-path="url(#clip832)" style="stroke:#000000; stroke-linecap:round; stroke-linejoin:round; stroke-width:2; stroke-opacity:0.1; fill:none" points="
  1721.79,1423.18 1721.79,123.472 
  "/>
<polyline clip-path="url(#clip832)" style="stroke:#000000; stroke-linecap:round; stroke-linejoin:round; stroke-width:2; stroke-opacity:0.1; fill:none" points="
  1932.11,1423.18 1932.11,123.472 
  "/>
<polyline clip-path="url(#clip832)" style="stroke:#000000; stroke-linecap:round; stroke-linejoin:round; stroke-width:2; stroke-opacity:0.1; fill:none" points="
  2142.43,1423.18 2142.43,123.472 
  "/>
<polyline clip-path="url(#clip832)" style="stroke:#000000; stroke-linecap:round; stroke-linejoin:round; stroke-width:2; stroke-opacity:0.1; fill:none" points="
  2352.76,1423.18 2352.76,123.472 
  "/>
<polyline clip-path="url(#clip830)" style="stroke:#000000; stroke-linecap:round; stroke-linejoin:round; stroke-width:4; stroke-opacity:1; fill:none" points="
  249.542,1423.18 2352.76,1423.18 
  "/>
<polyline clip-path="url(#clip830)" style="stroke:#000000; stroke-linecap:round; stroke-linejoin:round; stroke-width:4; stroke-opacity:1; fill:none" points="
  249.542,1423.18 249.542,1404.28 
  "/>
<polyline clip-path="url(#clip830)" style="stroke:#000000; stroke-linecap:round; stroke-linejoin:round; stroke-width:4; stroke-opacity:1; fill:none" points="
  459.863,1423.18 459.863,1404.28 
  "/>
<polyline clip-path="url(#clip830)" style="stroke:#000000; stroke-linecap:round; stroke-linejoin:round; stroke-width:4; stroke-opacity:1; fill:none" points="
  670.185,1423.18 670.185,1404.28 
  "/>
<polyline clip-path="url(#clip830)" style="stroke:#000000; stroke-linecap:round; stroke-linejoin:round; stroke-width:4; stroke-opacity:1; fill:none" points="
  880.506,1423.18 880.506,1404.28 
  "/>
<polyline clip-path="url(#clip830)" style="stroke:#000000; stroke-linecap:round; stroke-linejoin:round; stroke-width:4; stroke-opacity:1; fill:none" points="
  1090.83,1423.18 1090.83,1404.28 
  "/>
<polyline clip-path="url(#clip830)" style="stroke:#000000; stroke-linecap:round; stroke-linejoin:round; stroke-width:4; stroke-opacity:1; fill:none" points="
  1301.15,1423.18 1301.15,1404.28 
  "/>
<polyline clip-path="url(#clip830)" style="stroke:#000000; stroke-linecap:round; stroke-linejoin:round; stroke-width:4; stroke-opacity:1; fill:none" points="
  1511.47,1423.18 1511.47,1404.28 
  "/>
<polyline clip-path="url(#clip830)" style="stroke:#000000; stroke-linecap:round; stroke-linejoin:round; stroke-width:4; stroke-opacity:1; fill:none" points="
  1721.79,1423.18 1721.79,1404.28 
  "/>
<polyline clip-path="url(#clip830)" style="stroke:#000000; stroke-linecap:round; stroke-linejoin:round; stroke-width:4; stroke-opacity:1; fill:none" points="
  1932.11,1423.18 1932.11,1404.28 
  "/>
<polyline clip-path="url(#clip830)" style="stroke:#000000; stroke-linecap:round; stroke-linejoin:round; stroke-width:4; stroke-opacity:1; fill:none" points="
  2142.43,1423.18 2142.43,1404.28 
  "/>
<polyline clip-path="url(#clip830)" style="stroke:#000000; stroke-linecap:round; stroke-linejoin:round; stroke-width:4; stroke-opacity:1; fill:none" points="
  2352.76,1423.18 2352.76,1404.28 
  "/>
<path clip-path="url(#clip830)" d="M249.542 1454.1 Q245.931 1454.1 244.102 1457.66 Q242.297 1461.2 242.297 1468.33 Q242.297 1475.44 244.102 1479.01 Q245.931 1482.55 249.542 1482.55 Q253.176 1482.55 254.982 1479.01 Q256.811 1475.44 256.811 1468.33 Q256.811 1461.2 254.982 1457.66 Q253.176 1454.1 249.542 1454.1 M249.542 1450.39 Q255.352 1450.39 258.408 1455 Q261.486 1459.58 261.486 1468.33 Q261.486 1477.06 258.408 1481.67 Q255.352 1486.25 249.542 1486.25 Q243.732 1486.25 240.653 1481.67 Q237.598 1477.06 237.598 1468.33 Q237.598 1459.58 240.653 1455 Q243.732 1450.39 249.542 1450.39 Z" fill="#000000" fill-rule="evenodd" fill-opacity="1" /><path clip-path="url(#clip830)" d="M450.141 1451.02 L468.498 1451.02 L468.498 1454.96 L454.424 1454.96 L454.424 1463.43 Q455.442 1463.08 456.461 1462.92 Q457.479 1462.73 458.498 1462.73 Q464.285 1462.73 467.664 1465.9 Q471.044 1469.08 471.044 1474.49 Q471.044 1480.07 467.572 1483.17 Q464.1 1486.25 457.78 1486.25 Q455.604 1486.25 453.336 1485.88 Q451.09 1485.51 448.683 1484.77 L448.683 1480.07 Q450.766 1481.2 452.988 1481.76 Q455.211 1482.32 457.688 1482.32 Q461.692 1482.32 464.03 1480.21 Q466.368 1478.1 466.368 1474.49 Q466.368 1470.88 464.03 1468.77 Q461.692 1466.67 457.688 1466.67 Q455.813 1466.67 453.938 1467.08 Q452.086 1467.5 450.141 1468.38 L450.141 1451.02 Z" fill="#000000" fill-rule="evenodd" fill-opacity="1" /><path clip-path="url(#clip830)" d="M644.872 1481.64 L652.511 1481.64 L652.511 1455.28 L644.201 1456.95 L644.201 1452.69 L652.465 1451.02 L657.141 1451.02 L657.141 1481.64 L664.78 1481.64 L664.78 1485.58 L644.872 1485.58 L644.872 1481.64 Z" fill="#000000" fill-rule="evenodd" fill-opacity="1" /><path clip-path="url(#clip830)" d="M684.224 1454.1 Q680.613 1454.1 678.784 1457.66 Q676.979 1461.2 676.979 1468.33 Q676.979 1475.44 678.784 1479.01 Q680.613 1482.55 684.224 1482.55 Q687.858 1482.55 689.664 1479.01 Q691.493 1475.44 691.493 1468.33 Q691.493 1461.2 689.664 1457.66 Q687.858 1454.1 684.224 1454.1 M684.224 1450.39 Q690.034 1450.39 693.09 1455 Q696.168 1459.58 696.168 1468.33 Q696.168 1477.06 693.09 1481.67 Q690.034 1486.25 684.224 1486.25 Q678.414 1486.25 675.335 1481.67 Q672.28 1477.06 672.28 1468.33 Q672.28 1459.58 675.335 1455 Q678.414 1450.39 684.224 1450.39 Z" fill="#000000" fill-rule="evenodd" fill-opacity="1" /><path clip-path="url(#clip830)" d="M855.692 1481.64 L863.33 1481.64 L863.33 1455.28 L855.02 1456.95 L855.02 1452.69 L863.284 1451.02 L867.96 1451.02 L867.96 1481.64 L875.599 1481.64 L875.599 1485.58 L855.692 1485.58 L855.692 1481.64 Z" fill="#000000" fill-rule="evenodd" fill-opacity="1" /><path clip-path="url(#clip830)" d="M885.09 1451.02 L903.446 1451.02 L903.446 1454.96 L889.372 1454.96 L889.372 1463.43 Q890.39 1463.08 891.409 1462.92 Q892.427 1462.73 893.446 1462.73 Q899.233 1462.73 902.613 1465.9 Q905.992 1469.08 905.992 1474.49 Q905.992 1480.07 902.52 1483.17 Q899.048 1486.25 892.728 1486.25 Q890.552 1486.25 888.284 1485.88 Q886.039 1485.51 883.631 1484.77 L883.631 1480.07 Q885.715 1481.2 887.937 1481.76 Q890.159 1482.32 892.636 1482.32 Q896.64 1482.32 898.978 1480.21 Q901.316 1478.1 901.316 1474.49 Q901.316 1470.88 898.978 1468.77 Q896.64 1466.67 892.636 1466.67 Q890.761 1466.67 888.886 1467.08 Q887.034 1467.5 885.09 1468.38 L885.09 1451.02 Z" fill="#000000" fill-rule="evenodd" fill-opacity="1" /><path clip-path="url(#clip830)" d="M1069.6 1481.64 L1085.92 1481.64 L1085.92 1485.58 L1063.98 1485.58 L1063.98 1481.64 Q1066.64 1478.89 1071.22 1474.26 Q1075.83 1469.61 1077.01 1468.27 Q1079.25 1465.74 1080.13 1464.01 Q1081.04 1462.25 1081.04 1460.56 Q1081.04 1457.8 1079.09 1456.07 Q1077.17 1454.33 1074.07 1454.33 Q1071.87 1454.33 1069.42 1455.09 Q1066.99 1455.86 1064.21 1457.41 L1064.21 1452.69 Q1067.03 1451.55 1069.49 1450.97 Q1071.94 1450.39 1073.98 1450.39 Q1079.35 1450.39 1082.54 1453.08 Q1085.74 1455.77 1085.74 1460.26 Q1085.74 1462.39 1084.92 1464.31 Q1084.14 1466.2 1082.03 1468.8 Q1081.45 1469.47 1078.35 1472.69 Q1075.25 1475.88 1069.6 1481.64 Z" fill="#000000" fill-rule="evenodd" fill-opacity="1" /><path clip-path="url(#clip830)" d="M1105.73 1454.1 Q1102.12 1454.1 1100.3 1457.66 Q1098.49 1461.2 1098.49 1468.33 Q1098.49 1475.44 1100.3 1479.01 Q1102.12 1482.55 1105.73 1482.55 Q1109.37 1482.55 1111.17 1479.01 Q1113 1475.44 1113 1468.33 Q1113 1461.2 1111.17 1457.66 Q1109.37 1454.1 1105.73 1454.1 M1105.73 1450.39 Q1111.55 1450.39 1114.6 1455 Q1117.68 1459.58 1117.68 1468.33 Q1117.68 1477.06 1114.6 1481.67 Q1111.55 1486.25 1105.73 1486.25 Q1099.92 1486.25 1096.85 1481.67 Q1093.79 1477.06 1093.79 1468.33 Q1093.79 1459.58 1096.85 1455 Q1099.92 1450.39 1105.73 1450.39 Z" fill="#000000" fill-rule="evenodd" fill-opacity="1" /><path clip-path="url(#clip830)" d="M1280.42 1481.64 L1296.74 1481.64 L1296.74 1485.58 L1274.79 1485.58 L1274.79 1481.64 Q1277.46 1478.89 1282.04 1474.26 Q1286.65 1469.61 1287.83 1468.27 Q1290.07 1465.74 1290.95 1464.01 Q1291.86 1462.25 1291.86 1460.56 Q1291.86 1457.8 1289.91 1456.07 Q1287.99 1454.33 1284.89 1454.33 Q1282.69 1454.33 1280.23 1455.09 Q1277.8 1455.86 1275.03 1457.41 L1275.03 1452.69 Q1277.85 1451.55 1280.3 1450.97 Q1282.76 1450.39 1284.79 1450.39 Q1290.17 1450.39 1293.36 1453.08 Q1296.55 1455.77 1296.55 1460.26 Q1296.55 1462.39 1295.74 1464.31 Q1294.96 1466.2 1292.85 1468.8 Q1292.27 1469.47 1289.17 1472.69 Q1286.07 1475.88 1280.42 1481.64 Z" fill="#000000" fill-rule="evenodd" fill-opacity="1" /><path clip-path="url(#clip830)" d="M1306.6 1451.02 L1324.96 1451.02 L1324.96 1454.96 L1310.88 1454.96 L1310.88 1463.43 Q1311.9 1463.08 1312.92 1462.92 Q1313.94 1462.73 1314.96 1462.73 Q1320.74 1462.73 1324.12 1465.9 Q1327.5 1469.08 1327.5 1474.49 Q1327.5 1480.07 1324.03 1483.17 Q1320.56 1486.25 1314.24 1486.25 Q1312.06 1486.25 1309.79 1485.88 Q1307.55 1485.51 1305.14 1484.77 L1305.14 1480.07 Q1307.23 1481.2 1309.45 1481.76 Q1311.67 1482.32 1314.15 1482.32 Q1318.15 1482.32 1320.49 1480.21 Q1322.83 1478.1 1322.83 1474.49 Q1322.83 1470.88 1320.49 1468.77 Q1318.15 1466.67 1314.15 1466.67 Q1312.27 1466.67 1310.4 1467.08 Q1308.54 1467.5 1306.6 1468.38 L1306.6 1451.02 Z" fill="#000000" fill-rule="evenodd" fill-opacity="1" /><path clip-path="url(#clip830)" d="M1500.31 1466.95 Q1503.67 1467.66 1505.54 1469.93 Q1507.44 1472.2 1507.44 1475.53 Q1507.44 1480.65 1503.92 1483.45 Q1500.41 1486.25 1493.92 1486.25 Q1491.75 1486.25 1489.43 1485.81 Q1487.14 1485.39 1484.69 1484.54 L1484.69 1480.02 Q1486.63 1481.16 1488.95 1481.74 Q1491.26 1482.32 1493.79 1482.32 Q1498.18 1482.32 1500.48 1480.58 Q1502.79 1478.84 1502.79 1475.53 Q1502.79 1472.48 1500.64 1470.77 Q1498.51 1469.03 1494.69 1469.03 L1490.66 1469.03 L1490.66 1465.19 L1494.87 1465.19 Q1498.32 1465.19 1500.15 1463.82 Q1501.98 1462.43 1501.98 1459.84 Q1501.98 1457.18 1500.08 1455.77 Q1498.21 1454.33 1494.69 1454.33 Q1492.77 1454.33 1490.57 1454.75 Q1488.37 1455.16 1485.73 1456.04 L1485.73 1451.88 Q1488.39 1451.14 1490.71 1450.77 Q1493.04 1450.39 1495.1 1450.39 Q1500.43 1450.39 1503.53 1452.83 Q1506.63 1455.23 1506.63 1459.35 Q1506.63 1462.22 1504.99 1464.21 Q1503.35 1466.18 1500.31 1466.95 Z" fill="#000000" fill-rule="evenodd" fill-opacity="1" /><path clip-path="url(#clip830)" d="M1526.31 1454.1 Q1522.7 1454.1 1520.87 1457.66 Q1519.06 1461.2 1519.06 1468.33 Q1519.06 1475.44 1520.87 1479.01 Q1522.7 1482.55 1526.31 1482.55 Q1529.94 1482.55 1531.75 1479.01 Q1533.58 1475.44 1533.58 1468.33 Q1533.58 1461.2 1531.75 1457.66 Q1529.94 1454.1 1526.31 1454.1 M1526.31 1450.39 Q1532.12 1450.39 1535.17 1455 Q1538.25 1459.58 1538.25 1468.33 Q1538.25 1477.06 1535.17 1481.67 Q1532.12 1486.25 1526.31 1486.25 Q1520.5 1486.25 1517.42 1481.67 Q1514.36 1477.06 1514.36 1468.33 Q1514.36 1459.58 1517.42 1455 Q1520.5 1450.39 1526.31 1450.39 Z" fill="#000000" fill-rule="evenodd" fill-opacity="1" /><path clip-path="url(#clip830)" d="M1711.13 1466.95 Q1714.49 1467.66 1716.36 1469.93 Q1718.26 1472.2 1718.26 1475.53 Q1718.26 1480.65 1714.74 1483.45 Q1711.22 1486.25 1704.74 1486.25 Q1702.57 1486.25 1700.25 1485.81 Q1697.96 1485.39 1695.51 1484.54 L1695.51 1480.02 Q1697.45 1481.16 1699.77 1481.74 Q1702.08 1482.32 1704.6 1482.32 Q1709 1482.32 1711.29 1480.58 Q1713.61 1478.84 1713.61 1475.53 Q1713.61 1472.48 1711.46 1470.77 Q1709.33 1469.03 1705.51 1469.03 L1701.48 1469.03 L1701.48 1465.19 L1705.69 1465.19 Q1709.14 1465.19 1710.97 1463.82 Q1712.8 1462.43 1712.8 1459.84 Q1712.8 1457.18 1710.9 1455.77 Q1709.03 1454.33 1705.51 1454.33 Q1703.59 1454.33 1701.39 1454.75 Q1699.19 1455.16 1696.55 1456.04 L1696.55 1451.88 Q1699.21 1451.14 1701.53 1450.77 Q1703.86 1450.39 1705.92 1450.39 Q1711.25 1450.39 1714.35 1452.83 Q1717.45 1455.23 1717.45 1459.35 Q1717.45 1462.22 1715.81 1464.21 Q1714.16 1466.18 1711.13 1466.95 Z" fill="#000000" fill-rule="evenodd" fill-opacity="1" /><path clip-path="url(#clip830)" d="M1727.17 1451.02 L1745.53 1451.02 L1745.53 1454.96 L1731.46 1454.96 L1731.46 1463.43 Q1732.47 1463.08 1733.49 1462.92 Q1734.51 1462.73 1735.53 1462.73 Q1741.32 1462.73 1744.7 1465.9 Q1748.08 1469.08 1748.08 1474.49 Q1748.08 1480.07 1744.6 1483.17 Q1741.13 1486.25 1734.81 1486.25 Q1732.64 1486.25 1730.37 1485.88 Q1728.12 1485.51 1725.72 1484.77 L1725.72 1480.07 Q1727.8 1481.2 1730.02 1481.76 Q1732.24 1482.32 1734.72 1482.32 Q1738.72 1482.32 1741.06 1480.21 Q1743.4 1478.1 1743.4 1474.49 Q1743.4 1470.88 1741.06 1468.77 Q1738.72 1466.67 1734.72 1466.67 Q1732.84 1466.67 1730.97 1467.08 Q1729.12 1467.5 1727.17 1468.38 L1727.17 1451.02 Z" fill="#000000" fill-rule="evenodd" fill-opacity="1" /><path clip-path="url(#clip830)" d="M1920.28 1455.09 L1908.48 1473.54 L1920.28 1473.54 L1920.28 1455.09 M1919.06 1451.02 L1924.94 1451.02 L1924.94 1473.54 L1929.87 1473.54 L1929.87 1477.43 L1924.94 1477.43 L1924.94 1485.58 L1920.28 1485.58 L1920.28 1477.43 L1904.68 1477.43 L1904.68 1472.92 L1919.06 1451.02 Z" fill="#000000" fill-rule="evenodd" fill-opacity="1" /><path clip-path="url(#clip830)" d="M1947.6 1454.1 Q1943.99 1454.1 1942.16 1457.66 Q1940.35 1461.2 1940.35 1468.33 Q1940.35 1475.44 1942.16 1479.01 Q1943.99 1482.55 1947.6 1482.55 Q1951.23 1482.55 1953.04 1479.01 Q1954.87 1475.44 1954.87 1468.33 Q1954.87 1461.2 1953.04 1457.66 Q1951.23 1454.1 1947.6 1454.1 M1947.6 1450.39 Q1953.41 1450.39 1956.46 1455 Q1959.54 1459.58 1959.54 1468.33 Q1959.54 1477.06 1956.46 1481.67 Q1953.41 1486.25 1947.6 1486.25 Q1941.79 1486.25 1938.71 1481.67 Q1935.65 1477.06 1935.65 1468.33 Q1935.65 1459.58 1938.71 1455 Q1941.79 1450.39 1947.6 1450.39 Z" fill="#000000" fill-rule="evenodd" fill-opacity="1" /><path clip-path="url(#clip830)" d="M2131.1 1455.09 L2119.3 1473.54 L2131.1 1473.54 L2131.1 1455.09 M2129.88 1451.02 L2135.76 1451.02 L2135.76 1473.54 L2140.69 1473.54 L2140.69 1477.43 L2135.76 1477.43 L2135.76 1485.58 L2131.1 1485.58 L2131.1 1477.43 L2115.5 1477.43 L2115.5 1472.92 L2129.88 1451.02 Z" fill="#000000" fill-rule="evenodd" fill-opacity="1" /><path clip-path="url(#clip830)" d="M2148.46 1451.02 L2166.82 1451.02 L2166.82 1454.96 L2152.75 1454.96 L2152.75 1463.43 Q2153.77 1463.08 2154.78 1462.92 Q2155.8 1462.73 2156.82 1462.73 Q2162.61 1462.73 2165.99 1465.9 Q2169.37 1469.08 2169.37 1474.49 Q2169.37 1480.07 2165.9 1483.17 Q2162.42 1486.25 2156.1 1486.25 Q2153.93 1486.25 2151.66 1485.88 Q2149.41 1485.51 2147.01 1484.77 L2147.01 1480.07 Q2149.09 1481.2 2151.31 1481.76 Q2153.53 1482.32 2156.01 1482.32 Q2160.02 1482.32 2162.35 1480.21 Q2164.69 1478.1 2164.69 1474.49 Q2164.69 1470.88 2162.35 1468.77 Q2160.02 1466.67 2156.01 1466.67 Q2154.14 1466.67 2152.26 1467.08 Q2150.41 1467.5 2148.46 1468.38 L2148.46 1451.02 Z" fill="#000000" fill-rule="evenodd" fill-opacity="1" /><path clip-path="url(#clip830)" d="M2327.46 1451.02 L2345.81 1451.02 L2345.81 1454.96 L2331.74 1454.96 L2331.74 1463.43 Q2332.76 1463.08 2333.77 1462.92 Q2334.79 1462.73 2335.81 1462.73 Q2341.6 1462.73 2344.98 1465.9 Q2348.36 1469.08 2348.36 1474.49 Q2348.36 1480.07 2344.89 1483.17 Q2341.41 1486.25 2335.09 1486.25 Q2332.92 1486.25 2330.65 1485.88 Q2328.4 1485.51 2326 1484.77 L2326 1480.07 Q2328.08 1481.2 2330.3 1481.76 Q2332.52 1482.32 2335 1482.32 Q2339.01 1482.32 2341.34 1480.21 Q2343.68 1478.1 2343.68 1474.49 Q2343.68 1470.88 2341.34 1468.77 Q2339.01 1466.67 2335 1466.67 Q2333.13 1466.67 2331.25 1467.08 Q2329.4 1467.5 2327.46 1468.38 L2327.46 1451.02 Z" fill="#000000" fill-rule="evenodd" fill-opacity="1" /><path clip-path="url(#clip830)" d="M2367.57 1454.1 Q2363.96 1454.1 2362.13 1457.66 Q2360.33 1461.2 2360.33 1468.33 Q2360.33 1475.44 2362.13 1479.01 Q2363.96 1482.55 2367.57 1482.55 Q2371.2 1482.55 2373.01 1479.01 Q2374.84 1475.44 2374.84 1468.33 Q2374.84 1461.2 2373.01 1457.66 Q2371.2 1454.1 2367.57 1454.1 M2367.57 1450.39 Q2373.38 1450.39 2376.44 1455 Q2379.52 1459.58 2379.52 1468.33 Q2379.52 1477.06 2376.44 1481.67 Q2373.38 1486.25 2367.57 1486.25 Q2361.76 1486.25 2358.68 1481.67 Q2355.63 1477.06 2355.63 1468.33 Q2355.63 1459.58 2358.68 1455 Q2361.76 1450.39 2367.57 1450.39 Z" fill="#000000" fill-rule="evenodd" fill-opacity="1" /><path clip-path="url(#clip830)" d="M1130.02 1522.08 L1130.02 1528.35 Q1126.36 1526.6 1123.12 1525.74 Q1119.87 1524.88 1116.85 1524.88 Q1111.59 1524.88 1108.73 1526.92 Q1105.9 1528.96 1105.9 1532.71 Q1105.9 1535.87 1107.77 1537.49 Q1109.68 1539.08 1114.97 1540.07 L1118.85 1540.86 Q1126.04 1542.23 1129.45 1545.7 Q1132.89 1549.14 1132.89 1554.93 Q1132.89 1561.84 1128.24 1565.4 Q1123.63 1568.97 1114.68 1568.97 Q1111.31 1568.97 1107.49 1568.2 Q1103.7 1567.44 1099.63 1565.94 L1099.63 1559.32 Q1103.54 1561.52 1107.3 1562.63 Q1111.05 1563.75 1114.68 1563.75 Q1120.19 1563.75 1123.18 1561.58 Q1126.17 1559.42 1126.17 1555.41 Q1126.17 1551.91 1124.01 1549.93 Q1121.87 1547.96 1116.97 1546.97 L1113.06 1546.21 Q1105.87 1544.78 1102.65 1541.72 Q1099.44 1538.67 1099.44 1533.22 Q1099.44 1526.92 1103.86 1523.29 Q1108.32 1519.66 1116.11 1519.66 Q1119.46 1519.66 1122.93 1520.27 Q1126.39 1520.87 1130.02 1522.08 Z" fill="#000000" fill-rule="evenodd" fill-opacity="1" /><path clip-path="url(#clip830)" d="M1142.66 1532.4 L1148.52 1532.4 L1148.52 1568.04 L1142.66 1568.04 L1142.66 1532.4 M1142.66 1518.52 L1148.52 1518.52 L1148.52 1525.93 L1142.66 1525.93 L1142.66 1518.52 Z" fill="#000000" fill-rule="evenodd" fill-opacity="1" /><path clip-path="url(#clip830)" d="M1166.56 1522.27 L1166.56 1532.4 L1178.63 1532.4 L1178.63 1536.95 L1166.56 1536.95 L1166.56 1556.3 Q1166.56 1560.66 1167.74 1561.9 Q1168.95 1563.14 1172.61 1563.14 L1178.63 1563.14 L1178.63 1568.04 L1172.61 1568.04 Q1165.83 1568.04 1163.25 1565.53 Q1160.67 1562.98 1160.67 1556.3 L1160.67 1536.95 L1156.38 1536.95 L1156.38 1532.4 L1160.67 1532.4 L1160.67 1522.27 L1166.56 1522.27 Z" fill="#000000" fill-rule="evenodd" fill-opacity="1" /><path clip-path="url(#clip830)" d="M1216.82 1548.76 L1216.82 1551.62 L1189.89 1551.62 Q1190.27 1557.67 1193.52 1560.85 Q1196.8 1564 1202.62 1564 Q1206 1564 1209.15 1563.17 Q1212.33 1562.35 1215.45 1560.69 L1215.45 1566.23 Q1212.3 1567.57 1208.99 1568.27 Q1205.68 1568.97 1202.27 1568.97 Q1193.74 1568.97 1188.75 1564 Q1183.78 1559.04 1183.78 1550.57 Q1183.78 1541.82 1188.49 1536.69 Q1193.23 1531.54 1201.26 1531.54 Q1208.45 1531.54 1212.62 1536.18 Q1216.82 1540.8 1216.82 1548.76 M1210.96 1547.04 Q1210.9 1542.23 1208.26 1539.37 Q1205.65 1536.5 1201.32 1536.5 Q1196.42 1536.5 1193.46 1539.27 Q1190.53 1542.04 1190.08 1547.07 L1210.96 1547.04 Z" fill="#000000" fill-rule="evenodd" fill-opacity="1" /><path clip-path="url(#clip830)" d="M1247.41 1520.52 L1256.06 1520.52 L1277.13 1560.28 L1277.13 1520.52 L1283.37 1520.52 L1283.37 1568.04 L1274.72 1568.04 L1253.64 1528.29 L1253.64 1568.04 L1247.41 1568.04 L1247.41 1520.52 Z" fill="#000000" fill-rule="evenodd" fill-opacity="1" /><path clip-path="url(#clip830)" d="M1295.31 1553.98 L1295.31 1532.4 L1301.16 1532.4 L1301.16 1553.75 Q1301.16 1558.81 1303.14 1561.36 Q1305.11 1563.87 1309.06 1563.87 Q1313.8 1563.87 1316.54 1560.85 Q1319.31 1557.83 1319.31 1552.61 L1319.31 1532.4 L1325.16 1532.4 L1325.16 1568.04 L1319.31 1568.04 L1319.31 1562.57 Q1317.17 1565.82 1314.34 1567.41 Q1311.54 1568.97 1307.82 1568.97 Q1301.67 1568.97 1298.49 1565.15 Q1295.31 1561.33 1295.31 1553.98 M1310.05 1531.54 L1310.05 1531.54 Z" fill="#000000" fill-rule="evenodd" fill-opacity="1" /><path clip-path="url(#clip830)" d="M1364.98 1539.24 Q1367.18 1535.29 1370.23 1533.41 Q1373.29 1531.54 1377.43 1531.54 Q1383 1531.54 1386.02 1535.45 Q1389.04 1539.33 1389.04 1546.53 L1389.04 1568.04 L1383.16 1568.04 L1383.16 1546.72 Q1383.16 1541.59 1381.34 1539.11 Q1379.53 1536.63 1375.8 1536.63 Q1371.25 1536.63 1368.61 1539.65 Q1365.97 1542.68 1365.97 1547.9 L1365.97 1568.04 L1360.08 1568.04 L1360.08 1546.72 Q1360.08 1541.56 1358.27 1539.11 Q1356.45 1536.63 1352.66 1536.63 Q1348.18 1536.63 1345.53 1539.68 Q1342.89 1542.71 1342.89 1547.9 L1342.89 1568.04 L1337 1568.04 L1337 1532.4 L1342.89 1532.4 L1342.89 1537.93 Q1344.9 1534.66 1347.7 1533.1 Q1350.5 1531.54 1354.35 1531.54 Q1358.23 1531.54 1360.94 1533.51 Q1363.68 1535.48 1364.98 1539.24 Z" fill="#000000" fill-rule="evenodd" fill-opacity="1" /><path clip-path="url(#clip830)" d="M1426.31 1550.25 Q1426.31 1543.79 1423.64 1540.13 Q1421 1536.44 1416.35 1536.44 Q1411.71 1536.44 1409.03 1540.13 Q1406.39 1543.79 1406.39 1550.25 Q1406.39 1556.71 1409.03 1560.4 Q1411.71 1564.07 1416.35 1564.07 Q1421 1564.07 1423.64 1560.4 Q1426.31 1556.71 1426.31 1550.25 M1406.39 1537.81 Q1408.24 1534.62 1411.04 1533.1 Q1413.87 1531.54 1417.78 1531.54 Q1424.28 1531.54 1428.32 1536.69 Q1432.39 1541.85 1432.39 1550.25 Q1432.39 1558.65 1428.32 1563.81 Q1424.28 1568.97 1417.78 1568.97 Q1413.87 1568.97 1411.04 1567.44 Q1408.24 1565.88 1406.39 1562.7 L1406.39 1568.04 L1400.5 1568.04 L1400.5 1518.52 L1406.39 1518.52 L1406.39 1537.81 Z" fill="#000000" fill-rule="evenodd" fill-opacity="1" /><path clip-path="url(#clip830)" d="M1472.59 1548.76 L1472.59 1551.62 L1445.67 1551.62 Q1446.05 1557.67 1449.29 1560.85 Q1452.57 1564 1458.4 1564 Q1461.77 1564 1464.92 1563.17 Q1468.11 1562.35 1471.22 1560.69 L1471.22 1566.23 Q1468.07 1567.57 1464.76 1568.27 Q1461.45 1568.97 1458.05 1568.97 Q1449.52 1568.97 1444.52 1564 Q1439.56 1559.04 1439.56 1550.57 Q1439.56 1541.82 1444.27 1536.69 Q1449.01 1531.54 1457.03 1531.54 Q1464.22 1531.54 1468.39 1536.18 Q1472.59 1540.8 1472.59 1548.76 M1466.74 1547.04 Q1466.67 1542.23 1464.03 1539.37 Q1461.42 1536.5 1457.09 1536.5 Q1452.19 1536.5 1449.23 1539.27 Q1446.3 1542.04 1445.86 1547.07 L1466.74 1547.04 Z" fill="#000000" fill-rule="evenodd" fill-opacity="1" /><path clip-path="url(#clip830)" d="M1502.86 1537.87 Q1501.88 1537.3 1500.7 1537.04 Q1499.55 1536.76 1498.15 1536.76 Q1493.19 1536.76 1490.51 1540 Q1487.87 1543.22 1487.87 1549.27 L1487.87 1568.04 L1481.98 1568.04 L1481.98 1532.4 L1487.87 1532.4 L1487.87 1537.93 Q1489.72 1534.69 1492.68 1533.13 Q1495.64 1531.54 1499.87 1531.54 Q1500.48 1531.54 1501.21 1531.63 Q1501.94 1531.7 1502.83 1531.85 L1502.86 1537.87 Z" fill="#000000" fill-rule="evenodd" fill-opacity="1" /><polyline clip-path="url(#clip832)" style="stroke:#000000; stroke-linecap:round; stroke-linejoin:round; stroke-width:2; stroke-opacity:0.1; fill:none" points="
  249.542,1423.18 2352.76,1423.18 
  "/>
<polyline clip-path="url(#clip832)" style="stroke:#000000; stroke-linecap:round; stroke-linejoin:round; stroke-width:2; stroke-opacity:0.1; fill:none" points="
  249.542,1206.56 2352.76,1206.56 
  "/>
<polyline clip-path="url(#clip832)" style="stroke:#000000; stroke-linecap:round; stroke-linejoin:round; stroke-width:2; stroke-opacity:0.1; fill:none" points="
  249.542,989.944 2352.76,989.944 
  "/>
<polyline clip-path="url(#clip832)" style="stroke:#000000; stroke-linecap:round; stroke-linejoin:round; stroke-width:2; stroke-opacity:0.1; fill:none" points="
  249.542,773.326 2352.76,773.326 
  "/>
<polyline clip-path="url(#clip832)" style="stroke:#000000; stroke-linecap:round; stroke-linejoin:round; stroke-width:2; stroke-opacity:0.1; fill:none" points="
  249.542,556.708 2352.76,556.708 
  "/>
<polyline clip-path="url(#clip832)" style="stroke:#000000; stroke-linecap:round; stroke-linejoin:round; stroke-width:2; stroke-opacity:0.1; fill:none" points="
  249.542,340.09 2352.76,340.09 
  "/>
<polyline clip-path="url(#clip832)" style="stroke:#000000; stroke-linecap:round; stroke-linejoin:round; stroke-width:2; stroke-opacity:0.1; fill:none" points="
  249.542,123.472 2352.76,123.472 
  "/>
<polyline clip-path="url(#clip830)" style="stroke:#000000; stroke-linecap:round; stroke-linejoin:round; stroke-width:4; stroke-opacity:1; fill:none" points="
  249.542,1423.18 249.542,123.472 
  "/>
<polyline clip-path="url(#clip830)" style="stroke:#000000; stroke-linecap:round; stroke-linejoin:round; stroke-width:4; stroke-opacity:1; fill:none" points="
  249.542,1423.18 268.44,1423.18 
  "/>
<polyline clip-path="url(#clip830)" style="stroke:#000000; stroke-linecap:round; stroke-linejoin:round; stroke-width:4; stroke-opacity:1; fill:none" points="
  249.542,1206.56 268.44,1206.56 
  "/>
<polyline clip-path="url(#clip830)" style="stroke:#000000; stroke-linecap:round; stroke-linejoin:round; stroke-width:4; stroke-opacity:1; fill:none" points="
  249.542,989.944 268.44,989.944 
  "/>
<polyline clip-path="url(#clip830)" style="stroke:#000000; stroke-linecap:round; stroke-linejoin:round; stroke-width:4; stroke-opacity:1; fill:none" points="
  249.542,773.326 268.44,773.326 
  "/>
<polyline clip-path="url(#clip830)" style="stroke:#000000; stroke-linecap:round; stroke-linejoin:round; stroke-width:4; stroke-opacity:1; fill:none" points="
  249.542,556.708 268.44,556.708 
  "/>
<polyline clip-path="url(#clip830)" style="stroke:#000000; stroke-linecap:round; stroke-linejoin:round; stroke-width:4; stroke-opacity:1; fill:none" points="
  249.542,340.09 268.44,340.09 
  "/>
<polyline clip-path="url(#clip830)" style="stroke:#000000; stroke-linecap:round; stroke-linejoin:round; stroke-width:4; stroke-opacity:1; fill:none" points="
  249.542,123.472 268.44,123.472 
  "/>
<path clip-path="url(#clip830)" d="M126.205 1408.98 Q122.593 1408.98 120.765 1412.54 Q118.959 1416.08 118.959 1423.21 Q118.959 1430.32 120.765 1433.89 Q122.593 1437.43 126.205 1437.43 Q129.839 1437.43 131.644 1433.89 Q133.473 1430.32 133.473 1423.21 Q133.473 1416.08 131.644 1412.54 Q129.839 1408.98 126.205 1408.98 M126.205 1405.27 Q132.015 1405.27 135.07 1409.88 Q138.149 1414.46 138.149 1423.21 Q138.149 1431.94 135.07 1436.55 Q132.015 1441.13 126.205 1441.13 Q120.394 1441.13 117.316 1436.55 Q114.26 1431.94 114.26 1423.21 Q114.26 1414.46 117.316 1409.88 Q120.394 1405.27 126.205 1405.27 Z" fill="#000000" fill-rule="evenodd" fill-opacity="1" /><path clip-path="url(#clip830)" d="M146.366 1434.58 L151.251 1434.58 L151.251 1440.46 L146.366 1440.46 L146.366 1434.58 Z" fill="#000000" fill-rule="evenodd" fill-opacity="1" /><path clip-path="url(#clip830)" d="M175.602 1421.83 Q178.959 1422.54 180.834 1424.81 Q182.732 1427.08 182.732 1430.41 Q182.732 1435.53 179.214 1438.33 Q175.695 1441.13 169.214 1441.13 Q167.038 1441.13 164.723 1440.69 Q162.431 1440.27 159.978 1439.42 L159.978 1434.9 Q161.922 1436.04 164.237 1436.62 Q166.552 1437.2 169.075 1437.2 Q173.473 1437.2 175.764 1435.46 Q178.079 1433.72 178.079 1430.41 Q178.079 1427.36 175.926 1425.65 Q173.797 1423.91 169.977 1423.91 L165.95 1423.91 L165.95 1420.07 L170.163 1420.07 Q173.612 1420.07 175.44 1418.7 Q177.269 1417.31 177.269 1414.72 Q177.269 1412.06 175.371 1410.65 Q173.496 1409.21 169.977 1409.21 Q168.056 1409.21 165.857 1409.63 Q163.658 1410.04 161.019 1410.92 L161.019 1406.76 Q163.681 1406.02 165.996 1405.65 Q168.334 1405.27 170.394 1405.27 Q175.718 1405.27 178.82 1407.71 Q181.922 1410.11 181.922 1414.23 Q181.922 1417.1 180.278 1419.09 Q178.635 1421.06 175.602 1421.83 Z" fill="#000000" fill-rule="evenodd" fill-opacity="1" /><path clip-path="url(#clip830)" d="M201.598 1408.98 Q197.987 1408.98 196.158 1412.54 Q194.352 1416.08 194.352 1423.21 Q194.352 1430.32 196.158 1433.89 Q197.987 1437.43 201.598 1437.43 Q205.232 1437.43 207.037 1433.89 Q208.866 1430.32 208.866 1423.21 Q208.866 1416.08 207.037 1412.54 Q205.232 1408.98 201.598 1408.98 M201.598 1405.27 Q207.408 1405.27 210.463 1409.88 Q213.542 1414.46 213.542 1423.21 Q213.542 1431.94 210.463 1436.55 Q207.408 1441.13 201.598 1441.13 Q195.787 1441.13 192.709 1436.55 Q189.653 1431.94 189.653 1423.21 Q189.653 1414.46 192.709 1409.88 Q195.787 1405.27 201.598 1405.27 Z" fill="#000000" fill-rule="evenodd" fill-opacity="1" /><path clip-path="url(#clip830)" d="M127.2 1192.36 Q123.589 1192.36 121.76 1195.93 Q119.955 1199.47 119.955 1206.6 Q119.955 1213.7 121.76 1217.27 Q123.589 1220.81 127.2 1220.81 Q130.834 1220.81 132.64 1217.27 Q134.468 1213.7 134.468 1206.6 Q134.468 1199.47 132.64 1195.93 Q130.834 1192.36 127.2 1192.36 M127.2 1188.66 Q133.01 1188.66 136.066 1193.26 Q139.144 1197.85 139.144 1206.6 Q139.144 1215.32 136.066 1219.93 Q133.01 1224.51 127.2 1224.51 Q121.39 1224.51 118.311 1219.93 Q115.256 1215.32 115.256 1206.6 Q115.256 1197.85 118.311 1193.26 Q121.39 1188.66 127.2 1188.66 Z" fill="#000000" fill-rule="evenodd" fill-opacity="1" /><path clip-path="url(#clip830)" d="M147.362 1217.96 L152.246 1217.96 L152.246 1223.84 L147.362 1223.84 L147.362 1217.96 Z" fill="#000000" fill-rule="evenodd" fill-opacity="1" /><path clip-path="url(#clip830)" d="M176.598 1205.21 Q179.954 1205.93 181.829 1208.19 Q183.727 1210.46 183.727 1213.8 Q183.727 1218.91 180.209 1221.71 Q176.69 1224.51 170.209 1224.51 Q168.033 1224.51 165.718 1224.07 Q163.427 1223.66 160.973 1222.8 L160.973 1218.29 Q162.917 1219.42 165.232 1220 Q167.547 1220.58 170.07 1220.58 Q174.468 1220.58 176.76 1218.84 Q179.075 1217.11 179.075 1213.8 Q179.075 1210.74 176.922 1209.03 Q174.792 1207.29 170.973 1207.29 L166.945 1207.29 L166.945 1203.45 L171.158 1203.45 Q174.607 1203.45 176.436 1202.08 Q178.264 1200.69 178.264 1198.1 Q178.264 1195.44 176.366 1194.03 Q174.491 1192.59 170.973 1192.59 Q169.052 1192.59 166.852 1193.01 Q164.653 1193.43 162.015 1194.31 L162.015 1190.14 Q164.677 1189.4 166.991 1189.03 Q169.329 1188.66 171.389 1188.66 Q176.714 1188.66 179.815 1191.09 Q182.917 1193.49 182.917 1197.62 Q182.917 1200.49 181.274 1202.48 Q179.63 1204.44 176.598 1205.21 Z" fill="#000000" fill-rule="evenodd" fill-opacity="1" /><path clip-path="url(#clip830)" d="M192.639 1189.28 L210.996 1189.28 L210.996 1193.22 L196.922 1193.22 L196.922 1201.69 Q197.94 1201.34 198.959 1201.18 Q199.977 1200.99 200.996 1200.99 Q206.783 1200.99 210.162 1204.17 Q213.542 1207.34 213.542 1212.75 Q213.542 1218.33 210.07 1221.43 Q206.598 1224.51 200.278 1224.51 Q198.102 1224.51 195.834 1224.14 Q193.588 1223.77 191.181 1223.03 L191.181 1218.33 Q193.264 1219.47 195.487 1220.02 Q197.709 1220.58 200.186 1220.58 Q204.19 1220.58 206.528 1218.47 Q208.866 1216.37 208.866 1212.75 Q208.866 1209.14 206.528 1207.04 Q204.19 1204.93 200.186 1204.93 Q198.311 1204.93 196.436 1205.35 Q194.584 1205.76 192.639 1206.64 L192.639 1189.28 Z" fill="#000000" fill-rule="evenodd" fill-opacity="1" /><path clip-path="url(#clip830)" d="M126.205 975.743 Q122.593 975.743 120.765 979.307 Q118.959 982.849 118.959 989.979 Q118.959 997.085 120.765 1000.65 Q122.593 1004.19 126.205 1004.19 Q129.839 1004.19 131.644 1000.65 Q133.473 997.085 133.473 989.979 Q133.473 982.849 131.644 979.307 Q129.839 975.743 126.205 975.743 M126.205 972.039 Q132.015 972.039 135.07 976.645 Q138.149 981.229 138.149 989.979 Q138.149 998.705 135.07 1003.31 Q132.015 1007.9 126.205 1007.9 Q120.394 1007.9 117.316 1003.31 Q114.26 998.705 114.26 989.979 Q114.26 981.229 117.316 976.645 Q120.394 972.039 126.205 972.039 Z" fill="#000000" fill-rule="evenodd" fill-opacity="1" /><path clip-path="url(#clip830)" d="M146.366 1001.34 L151.251 1001.34 L151.251 1007.22 L146.366 1007.22 L146.366 1001.34 Z" fill="#000000" fill-rule="evenodd" fill-opacity="1" /><path clip-path="url(#clip830)" d="M174.283 976.738 L162.477 995.187 L174.283 995.187 L174.283 976.738 M173.056 972.664 L178.936 972.664 L178.936 995.187 L183.866 995.187 L183.866 999.076 L178.936 999.076 L178.936 1007.22 L174.283 1007.22 L174.283 999.076 L158.681 999.076 L158.681 994.562 L173.056 972.664 Z" fill="#000000" fill-rule="evenodd" fill-opacity="1" /><path clip-path="url(#clip830)" d="M201.598 975.743 Q197.987 975.743 196.158 979.307 Q194.352 982.849 194.352 989.979 Q194.352 997.085 196.158 1000.65 Q197.987 1004.19 201.598 1004.19 Q205.232 1004.19 207.037 1000.65 Q208.866 997.085 208.866 989.979 Q208.866 982.849 207.037 979.307 Q205.232 975.743 201.598 975.743 M201.598 972.039 Q207.408 972.039 210.463 976.645 Q213.542 981.229 213.542 989.979 Q213.542 998.705 210.463 1003.31 Q207.408 1007.9 201.598 1007.9 Q195.787 1007.9 192.709 1003.31 Q189.653 998.705 189.653 989.979 Q189.653 981.229 192.709 976.645 Q195.787 972.039 201.598 972.039 Z" fill="#000000" fill-rule="evenodd" fill-opacity="1" /><path clip-path="url(#clip830)" d="M127.2 759.125 Q123.589 759.125 121.76 762.689 Q119.955 766.231 119.955 773.361 Q119.955 780.467 121.76 784.032 Q123.589 787.574 127.2 787.574 Q130.834 787.574 132.64 784.032 Q134.468 780.467 134.468 773.361 Q134.468 766.231 132.64 762.689 Q130.834 759.125 127.2 759.125 M127.2 755.421 Q133.01 755.421 136.066 760.027 Q139.144 764.611 139.144 773.361 Q139.144 782.088 136.066 786.694 Q133.01 791.277 127.2 791.277 Q121.39 791.277 118.311 786.694 Q115.256 782.088 115.256 773.361 Q115.256 764.611 118.311 760.027 Q121.39 755.421 127.2 755.421 Z" fill="#000000" fill-rule="evenodd" fill-opacity="1" /><path clip-path="url(#clip830)" d="M147.362 784.726 L152.246 784.726 L152.246 790.606 L147.362 790.606 L147.362 784.726 Z" fill="#000000" fill-rule="evenodd" fill-opacity="1" /><path clip-path="url(#clip830)" d="M175.278 760.12 L163.473 778.569 L175.278 778.569 L175.278 760.12 M174.052 756.046 L179.931 756.046 L179.931 778.569 L184.862 778.569 L184.862 782.458 L179.931 782.458 L179.931 790.606 L175.278 790.606 L175.278 782.458 L159.677 782.458 L159.677 777.944 L174.052 756.046 Z" fill="#000000" fill-rule="evenodd" fill-opacity="1" /><path clip-path="url(#clip830)" d="M192.639 756.046 L210.996 756.046 L210.996 759.981 L196.922 759.981 L196.922 768.453 Q197.94 768.106 198.959 767.944 Q199.977 767.759 200.996 767.759 Q206.783 767.759 210.162 770.93 Q213.542 774.101 213.542 779.518 Q213.542 785.097 210.07 788.199 Q206.598 791.277 200.278 791.277 Q198.102 791.277 195.834 790.907 Q193.588 790.537 191.181 789.796 L191.181 785.097 Q193.264 786.231 195.487 786.787 Q197.709 787.342 200.186 787.342 Q204.19 787.342 206.528 785.236 Q208.866 783.129 208.866 779.518 Q208.866 775.907 206.528 773.801 Q204.19 771.694 200.186 771.694 Q198.311 771.694 196.436 772.111 Q194.584 772.527 192.639 773.407 L192.639 756.046 Z" fill="#000000" fill-rule="evenodd" fill-opacity="1" /><path clip-path="url(#clip830)" d="M126.205 542.507 Q122.593 542.507 120.765 546.072 Q118.959 549.613 118.959 556.743 Q118.959 563.849 120.765 567.414 Q122.593 570.956 126.205 570.956 Q129.839 570.956 131.644 567.414 Q133.473 563.849 133.473 556.743 Q133.473 549.613 131.644 546.072 Q129.839 542.507 126.205 542.507 M126.205 538.803 Q132.015 538.803 135.07 543.409 Q138.149 547.993 138.149 556.743 Q138.149 565.47 135.07 570.076 Q132.015 574.659 126.205 574.659 Q120.394 574.659 117.316 570.076 Q114.26 565.47 114.26 556.743 Q114.26 547.993 117.316 543.409 Q120.394 538.803 126.205 538.803 Z" fill="#000000" fill-rule="evenodd" fill-opacity="1" /><path clip-path="url(#clip830)" d="M146.366 568.108 L151.251 568.108 L151.251 573.988 L146.366 573.988 L146.366 568.108 Z" fill="#000000" fill-rule="evenodd" fill-opacity="1" /><path clip-path="url(#clip830)" d="M161.482 539.428 L179.839 539.428 L179.839 543.363 L165.765 543.363 L165.765 551.835 Q166.783 551.488 167.802 551.326 Q168.82 551.141 169.839 551.141 Q175.626 551.141 179.005 554.312 Q182.385 557.483 182.385 562.9 Q182.385 568.479 178.913 571.581 Q175.44 574.659 169.121 574.659 Q166.945 574.659 164.677 574.289 Q162.431 573.919 160.024 573.178 L160.024 568.479 Q162.107 569.613 164.329 570.169 Q166.552 570.724 169.028 570.724 Q173.033 570.724 175.371 568.618 Q177.709 566.511 177.709 562.9 Q177.709 559.289 175.371 557.183 Q173.033 555.076 169.028 555.076 Q167.153 555.076 165.278 555.493 Q163.427 555.909 161.482 556.789 L161.482 539.428 Z" fill="#000000" fill-rule="evenodd" fill-opacity="1" /><path clip-path="url(#clip830)" d="M201.598 542.507 Q197.987 542.507 196.158 546.072 Q194.352 549.613 194.352 556.743 Q194.352 563.849 196.158 567.414 Q197.987 570.956 201.598 570.956 Q205.232 570.956 207.037 567.414 Q208.866 563.849 208.866 556.743 Q208.866 549.613 207.037 546.072 Q205.232 542.507 201.598 542.507 M201.598 538.803 Q207.408 538.803 210.463 543.409 Q213.542 547.993 213.542 556.743 Q213.542 565.47 210.463 570.076 Q207.408 574.659 201.598 574.659 Q195.787 574.659 192.709 570.076 Q189.653 565.47 189.653 556.743 Q189.653 547.993 192.709 543.409 Q195.787 538.803 201.598 538.803 Z" fill="#000000" fill-rule="evenodd" fill-opacity="1" /><path clip-path="url(#clip830)" d="M127.2 325.889 Q123.589 325.889 121.76 329.454 Q119.955 332.995 119.955 340.125 Q119.955 347.231 121.76 350.796 Q123.589 354.338 127.2 354.338 Q130.834 354.338 132.64 350.796 Q134.468 347.231 134.468 340.125 Q134.468 332.995 132.64 329.454 Q130.834 325.889 127.2 325.889 M127.2 322.185 Q133.01 322.185 136.066 326.792 Q139.144 331.375 139.144 340.125 Q139.144 348.852 136.066 353.458 Q133.01 358.041 127.2 358.041 Q121.39 358.041 118.311 353.458 Q115.256 348.852 115.256 340.125 Q115.256 331.375 118.311 326.792 Q121.39 322.185 127.2 322.185 Z" fill="#000000" fill-rule="evenodd" fill-opacity="1" /><path clip-path="url(#clip830)" d="M147.362 351.49 L152.246 351.49 L152.246 357.37 L147.362 357.37 L147.362 351.49 Z" fill="#000000" fill-rule="evenodd" fill-opacity="1" /><path clip-path="url(#clip830)" d="M162.477 322.81 L180.834 322.81 L180.834 326.745 L166.76 326.745 L166.76 335.217 Q167.778 334.87 168.797 334.708 Q169.815 334.523 170.834 334.523 Q176.621 334.523 180.001 337.694 Q183.38 340.866 183.38 346.282 Q183.38 351.861 179.908 354.963 Q176.436 358.041 170.116 358.041 Q167.94 358.041 165.672 357.671 Q163.427 357.301 161.019 356.56 L161.019 351.861 Q163.102 352.995 165.325 353.551 Q167.547 354.106 170.024 354.106 Q174.028 354.106 176.366 352 Q178.704 349.893 178.704 346.282 Q178.704 342.671 176.366 340.565 Q174.028 338.458 170.024 338.458 Q168.149 338.458 166.274 338.875 Q164.422 339.291 162.477 340.171 L162.477 322.81 Z" fill="#000000" fill-rule="evenodd" fill-opacity="1" /><path clip-path="url(#clip830)" d="M192.639 322.81 L210.996 322.81 L210.996 326.745 L196.922 326.745 L196.922 335.217 Q197.94 334.87 198.959 334.708 Q199.977 334.523 200.996 334.523 Q206.783 334.523 210.162 337.694 Q213.542 340.866 213.542 346.282 Q213.542 351.861 210.07 354.963 Q206.598 358.041 200.278 358.041 Q198.102 358.041 195.834 357.671 Q193.588 357.301 191.181 356.56 L191.181 351.861 Q193.264 352.995 195.487 353.551 Q197.709 354.106 200.186 354.106 Q204.19 354.106 206.528 352 Q208.866 349.893 208.866 346.282 Q208.866 342.671 206.528 340.565 Q204.19 338.458 200.186 338.458 Q198.311 338.458 196.436 338.875 Q194.584 339.291 192.639 340.171 L192.639 322.81 Z" fill="#000000" fill-rule="evenodd" fill-opacity="1" /><path clip-path="url(#clip830)" d="M126.205 109.271 Q122.593 109.271 120.765 112.836 Q118.959 116.377 118.959 123.507 Q118.959 130.613 120.765 134.178 Q122.593 137.72 126.205 137.72 Q129.839 137.72 131.644 134.178 Q133.473 130.613 133.473 123.507 Q133.473 116.377 131.644 112.836 Q129.839 109.271 126.205 109.271 M126.205 105.567 Q132.015 105.567 135.07 110.174 Q138.149 114.757 138.149 123.507 Q138.149 132.234 135.07 136.84 Q132.015 141.423 126.205 141.423 Q120.394 141.423 117.316 136.84 Q114.26 132.234 114.26 123.507 Q114.26 114.757 117.316 110.174 Q120.394 105.567 126.205 105.567 Z" fill="#000000" fill-rule="evenodd" fill-opacity="1" /><path clip-path="url(#clip830)" d="M146.366 134.873 L151.251 134.873 L151.251 140.752 L146.366 140.752 L146.366 134.873 Z" fill="#000000" fill-rule="evenodd" fill-opacity="1" /><path clip-path="url(#clip830)" d="M172.014 121.609 Q168.866 121.609 167.015 123.761 Q165.186 125.914 165.186 129.664 Q165.186 133.391 167.015 135.567 Q168.866 137.72 172.014 137.72 Q175.163 137.72 176.991 135.567 Q178.843 133.391 178.843 129.664 Q178.843 125.914 176.991 123.761 Q175.163 121.609 172.014 121.609 M181.297 106.956 L181.297 111.215 Q179.538 110.382 177.732 109.942 Q175.95 109.502 174.19 109.502 Q169.561 109.502 167.107 112.627 Q164.677 115.752 164.329 122.072 Q165.695 120.058 167.755 118.993 Q169.815 117.905 172.292 117.905 Q177.501 117.905 180.51 121.076 Q183.542 124.224 183.542 129.664 Q183.542 134.988 180.394 138.206 Q177.246 141.423 172.014 141.423 Q166.019 141.423 162.848 136.84 Q159.677 132.234 159.677 123.507 Q159.677 115.312 163.565 110.451 Q167.454 105.567 174.005 105.567 Q175.764 105.567 177.547 105.914 Q179.352 106.262 181.297 106.956 Z" fill="#000000" fill-rule="evenodd" fill-opacity="1" /><path clip-path="url(#clip830)" d="M201.598 109.271 Q197.987 109.271 196.158 112.836 Q194.352 116.377 194.352 123.507 Q194.352 130.613 196.158 134.178 Q197.987 137.72 201.598 137.72 Q205.232 137.72 207.037 134.178 Q208.866 130.613 208.866 123.507 Q208.866 116.377 207.037 112.836 Q205.232 109.271 201.598 109.271 M201.598 105.567 Q207.408 105.567 210.463 110.174 Q213.542 114.757 213.542 123.507 Q213.542 132.234 210.463 136.84 Q207.408 141.423 201.598 141.423 Q195.787 141.423 192.709 136.84 Q189.653 132.234 189.653 123.507 Q189.653 114.757 192.709 110.174 Q195.787 105.567 201.598 105.567 Z" fill="#000000" fill-rule="evenodd" fill-opacity="1" /><path clip-path="url(#clip830)" d="M16.4842 987.834 L16.4842 981.405 L64.0042 981.405 L64.0042 987.834 L16.4842 987.834 Z" fill="#000000" fill-rule="evenodd" fill-opacity="1" /><path clip-path="url(#clip830)" d="M42.4881 939.232 L64.0042 939.232 L64.0042 945.089 L42.679 945.089 Q37.6183 945.089 35.1038 947.062 Q32.5894 949.035 32.5894 952.982 Q32.5894 957.725 35.6131 960.462 Q38.6368 963.199 43.8567 963.199 L64.0042 963.199 L64.0042 969.087 L28.3562 969.087 L28.3562 963.199 L33.8944 963.199 Q30.6797 961.098 29.0883 958.266 Q27.4968 955.401 27.4968 951.677 Q27.4968 945.534 31.3163 942.383 Q35.1038 939.232 42.4881 939.232 Z" fill="#000000" fill-rule="evenodd" fill-opacity="1" /><path clip-path="url(#clip830)" d="M42.4881 897.919 L64.0042 897.919 L64.0042 903.775 L42.679 903.775 Q37.6183 903.775 35.1038 905.749 Q32.5894 907.722 32.5894 911.669 Q32.5894 916.411 35.6131 919.148 Q38.6368 921.886 43.8567 921.886 L64.0042 921.886 L64.0042 927.774 L28.3562 927.774 L28.3562 921.886 L33.8944 921.886 Q30.6797 919.785 29.0883 916.952 Q27.4968 914.088 27.4968 910.364 Q27.4968 904.221 31.3163 901.07 Q35.1038 897.919 42.4881 897.919 Z" fill="#000000" fill-rule="evenodd" fill-opacity="1" /><path clip-path="url(#clip830)" d="M44.7161 855.746 L47.5806 855.746 L47.5806 882.673 Q53.6281 882.291 56.8109 879.044 Q59.9619 875.766 59.9619 869.941 Q59.9619 866.568 59.1344 863.417 Q58.3069 860.234 56.6518 857.115 L62.1899 857.115 Q63.5267 860.266 64.227 863.576 Q64.9272 866.886 64.9272 870.292 Q64.9272 878.822 59.9619 883.819 Q54.9967 888.784 46.5303 888.784 Q37.7774 888.784 32.6531 884.073 Q27.4968 879.331 27.4968 871.31 Q27.4968 864.117 32.1438 859.947 Q36.7589 855.746 44.7161 855.746 M42.9973 861.602 Q38.1912 861.666 35.3266 864.308 Q32.4621 866.918 32.4621 871.246 Q32.4621 876.148 35.2312 879.108 Q38.0002 882.036 43.0292 882.482 L42.9973 861.602 Z" fill="#000000" fill-rule="evenodd" fill-opacity="1" /><path clip-path="url(#clip830)" d="M33.8307 825.477 Q33.2578 826.464 33.0032 827.641 Q32.7167 828.787 32.7167 830.188 Q32.7167 835.153 35.9632 837.827 Q39.1779 840.468 45.2253 840.468 L64.0042 840.468 L64.0042 846.357 L28.3562 846.357 L28.3562 840.468 L33.8944 840.468 Q30.6479 838.622 29.0883 835.662 Q27.4968 832.702 27.4968 828.469 Q27.4968 827.864 27.5923 827.132 Q27.656 826.4 27.8151 825.509 L33.8307 825.477 Z" fill="#000000" fill-rule="evenodd" fill-opacity="1" /><path clip-path="url(#clip830)" d="M21.7677 791.93 L39.6235 791.93 L39.6235 783.845 Q39.6235 779.357 37.3 776.907 Q34.9765 774.456 30.6797 774.456 Q26.4147 774.456 24.0912 776.907 Q21.7677 779.357 21.7677 783.845 L21.7677 791.93 M16.4842 798.359 L16.4842 783.845 Q16.4842 775.856 20.1126 771.782 Q23.7092 767.676 30.6797 767.676 Q37.7138 767.676 41.3104 771.782 Q44.907 775.856 44.907 783.845 L44.907 791.93 L64.0042 791.93 L64.0042 798.359 L16.4842 798.359 Z" fill="#000000" fill-rule="evenodd" fill-opacity="1" /><path clip-path="url(#clip830)" d="M33.8307 739.795 Q33.2578 740.781 33.0032 741.959 Q32.7167 743.105 32.7167 744.505 Q32.7167 749.47 35.9632 752.144 Q39.1779 754.786 45.2253 754.786 L64.0042 754.786 L64.0042 760.674 L28.3562 760.674 L28.3562 754.786 L33.8944 754.786 Q30.6479 752.94 29.0883 749.98 Q27.4968 747.02 27.4968 742.787 Q27.4968 742.182 27.5923 741.45 Q27.656 740.718 27.8151 739.826 L33.8307 739.795 Z" fill="#000000" fill-rule="evenodd" fill-opacity="1" /><path clip-path="url(#clip830)" d="M32.4621 721.27 Q32.4621 725.981 36.1542 728.718 Q39.8145 731.456 46.212 731.456 Q52.6095 731.456 56.3017 728.75 Q59.9619 726.013 59.9619 721.27 Q59.9619 716.592 56.2698 713.854 Q52.5777 711.117 46.212 711.117 Q39.8781 711.117 36.186 713.854 Q32.4621 716.592 32.4621 721.27 M27.4968 721.27 Q27.4968 713.632 32.4621 709.271 Q37.4273 704.911 46.212 704.911 Q54.9649 704.911 59.9619 709.271 Q64.9272 713.632 64.9272 721.27 Q64.9272 728.941 59.9619 733.302 Q54.9649 737.63 46.212 737.63 Q37.4273 737.63 32.4621 733.302 Q27.4968 728.941 27.4968 721.27 Z" fill="#000000" fill-rule="evenodd" fill-opacity="1" /><path clip-path="url(#clip830)" d="M33.7671 671.745 L14.479 671.745 L14.479 665.889 L64.0042 665.889 L64.0042 671.745 L58.657 671.745 Q61.8398 673.591 63.3994 676.424 Q64.9272 679.225 64.9272 683.172 Q64.9272 689.633 59.771 693.707 Q54.6147 697.749 46.212 697.749 Q37.8093 697.749 32.6531 693.707 Q27.4968 689.633 27.4968 683.172 Q27.4968 679.225 29.0564 676.424 Q30.5842 673.591 33.7671 671.745 M46.212 691.702 Q52.6732 691.702 56.3653 689.06 Q60.0256 686.386 60.0256 681.739 Q60.0256 677.092 56.3653 674.419 Q52.6732 671.745 46.212 671.745 Q39.7508 671.745 36.0905 674.419 Q32.3984 677.092 32.3984 681.739 Q32.3984 686.386 36.0905 689.06 Q39.7508 691.702 46.212 691.702 Z" fill="#000000" fill-rule="evenodd" fill-opacity="1" /><path clip-path="url(#clip830)" d="M49.9359 654.43 L28.3562 654.43 L28.3562 648.574 L49.7131 648.574 Q54.7739 648.574 57.3202 646.601 Q59.8346 644.627 59.8346 640.681 Q59.8346 635.938 56.8109 633.201 Q53.7872 630.432 48.5673 630.432 L28.3562 630.432 L28.3562 624.575 L64.0042 624.575 L64.0042 630.432 L58.5296 630.432 Q61.7762 632.564 63.3676 635.397 Q64.9272 638.198 64.9272 641.922 Q64.9272 648.065 61.1078 651.248 Q57.2883 654.43 49.9359 654.43 M27.4968 639.694 L27.4968 639.694 Z" fill="#000000" fill-rule="evenodd" fill-opacity="1" /><path clip-path="url(#clip830)" d="M29.7248 586.859 L35.1993 586.859 Q33.8307 589.341 33.1623 591.856 Q32.4621 594.338 32.4621 596.885 Q32.4621 602.582 36.0905 605.733 Q39.6872 608.884 46.212 608.884 Q52.7369 608.884 56.3653 605.733 Q59.9619 602.582 59.9619 596.885 Q59.9619 594.338 59.2935 591.856 Q58.5933 589.341 57.2247 586.859 L62.6355 586.859 Q63.7814 589.309 64.3543 591.951 Q64.9272 594.561 64.9272 597.521 Q64.9272 605.574 59.8664 610.316 Q54.8057 615.059 46.212 615.059 Q37.491 615.059 32.4939 610.284 Q27.4968 605.478 27.4968 597.139 Q27.4968 594.434 28.0697 591.856 Q28.6108 589.277 29.7248 586.859 Z" fill="#000000" fill-rule="evenodd" fill-opacity="1" /><path clip-path="url(#clip830)" d="M18.2347 570.881 L28.3562 570.881 L28.3562 558.818 L32.9077 558.818 L32.9077 570.881 L52.2594 570.881 Q56.6199 570.881 57.8613 569.703 Q59.1026 568.493 59.1026 564.833 L59.1026 558.818 L64.0042 558.818 L64.0042 564.833 Q64.0042 571.613 61.4897 574.191 Q58.9434 576.769 52.2594 576.769 L32.9077 576.769 L32.9077 581.066 L28.3562 581.066 L28.3562 576.769 L18.2347 576.769 L18.2347 570.881 Z" fill="#000000" fill-rule="evenodd" fill-opacity="1" /><path clip-path="url(#clip830)" d="M1170.73 17.6457 Q1161.82 17.6457 1156.55 24.2892 Q1151.33 30.9327 1151.33 42.3968 Q1151.33 53.8203 1156.55 60.4638 Q1161.82 67.1073 1170.73 67.1073 Q1179.64 67.1073 1184.83 60.4638 Q1190.05 53.8203 1190.05 42.3968 Q1190.05 30.9327 1184.83 24.2892 Q1179.64 17.6457 1170.73 17.6457 M1170.73 11.0023 Q1183.45 11.0023 1191.07 19.5497 Q1198.68 28.0566 1198.68 42.3968 Q1198.68 56.6965 1191.07 65.2439 Q1183.45 73.7508 1170.73 73.7508 Q1157.97 73.7508 1150.31 65.2439 Q1142.7 56.737 1142.7 42.3968 Q1142.7 28.0566 1150.31 19.5497 Q1157.97 11.0023 1170.73 11.0023 Z" fill="#000000" fill-rule="evenodd" fill-opacity="1" /><path clip-path="url(#clip830)" d="M1205.81 27.2059 L1213.71 27.2059 L1227.89 65.2844 L1242.07 27.2059 L1249.97 27.2059 L1232.95 72.576 L1222.82 72.576 L1205.81 27.2059 Z" fill="#000000" fill-rule="evenodd" fill-opacity="1" /><path clip-path="url(#clip830)" d="M1299.06 48.0275 L1299.06 51.6733 L1264.79 51.6733 Q1265.28 59.3701 1269.41 63.421 Q1273.58 67.4314 1281 67.4314 Q1285.29 67.4314 1289.3 66.3781 Q1293.35 65.3249 1297.32 63.2184 L1297.32 70.267 Q1293.31 71.9684 1289.1 72.8596 Q1284.88 73.7508 1280.55 73.7508 Q1269.69 73.7508 1263.33 67.4314 Q1257.01 61.1119 1257.01 50.3365 Q1257.01 39.1965 1263.01 32.6746 Q1269.05 26.1121 1279.25 26.1121 Q1288.41 26.1121 1293.72 32.0264 Q1299.06 37.9003 1299.06 48.0275 M1291.61 45.84 Q1291.53 39.7232 1288.17 36.0774 Q1284.84 32.4315 1279.33 32.4315 Q1273.1 32.4315 1269.33 35.9558 Q1265.6 39.4801 1265.04 45.8805 L1291.61 45.84 Z" fill="#000000" fill-rule="evenodd" fill-opacity="1" /><path clip-path="url(#clip830)" d="M1337.59 34.1734 Q1336.33 33.4443 1334.83 33.1202 Q1333.37 32.7556 1331.59 32.7556 Q1325.27 32.7556 1321.87 36.8875 Q1318.51 40.9789 1318.51 48.6757 L1318.51 72.576 L1311.01 72.576 L1311.01 27.2059 L1318.51 27.2059 L1318.51 34.2544 Q1320.86 30.1225 1324.62 28.1376 Q1328.39 26.1121 1333.78 26.1121 Q1334.55 26.1121 1335.48 26.2337 Q1336.41 26.3147 1337.55 26.5172 L1337.59 34.1734 Z" fill="#000000" fill-rule="evenodd" fill-opacity="1" /><path clip-path="url(#clip830)" d="M1345.41 9.54393 L1352.86 9.54393 L1352.86 72.576 L1345.41 72.576 L1345.41 9.54393 Z" fill="#000000" fill-rule="evenodd" fill-opacity="1" /><path clip-path="url(#clip830)" d="M1389.07 49.7694 Q1380.04 49.7694 1376.56 51.8354 Q1373.07 53.9013 1373.07 58.8839 Q1373.07 62.8538 1375.67 65.2034 Q1378.3 67.5124 1382.79 67.5124 Q1388.99 67.5124 1392.72 63.1374 Q1396.49 58.7219 1396.49 51.4303 L1396.49 49.7694 L1389.07 49.7694 M1403.94 46.6907 L1403.94 72.576 L1396.49 72.576 L1396.49 65.6895 Q1393.93 69.8214 1390.13 71.8063 Q1386.32 73.7508 1380.81 73.7508 Q1373.84 73.7508 1369.71 69.8619 Q1365.62 65.9325 1365.62 59.3701 Q1365.62 51.7138 1370.72 47.825 Q1375.87 43.9361 1386.04 43.9361 L1396.49 43.9361 L1396.49 43.2069 Q1396.49 38.0623 1393.08 35.2672 Q1389.72 32.4315 1383.61 32.4315 Q1379.72 32.4315 1376.03 33.3632 Q1372.34 34.295 1368.94 36.1584 L1368.94 29.2718 Q1373.03 27.692 1376.88 26.9223 Q1380.73 26.1121 1384.37 26.1121 Q1394.22 26.1121 1399.08 31.2163 Q1403.94 36.3204 1403.94 46.6907 Z" fill="#000000" fill-rule="evenodd" fill-opacity="1" /><path clip-path="url(#clip830)" d="M1426.5 65.7705 L1426.5 89.8329 L1419.01 89.8329 L1419.01 27.2059 L1426.5 27.2059 L1426.5 34.0924 Q1428.85 30.0415 1432.42 28.0971 Q1436.02 26.1121 1441.01 26.1121 Q1449.27 26.1121 1454.41 32.6746 Q1459.6 39.2371 1459.6 49.9314 Q1459.6 60.6258 1454.41 67.1883 Q1449.27 73.7508 1441.01 73.7508 Q1436.02 73.7508 1432.42 71.8063 Q1428.85 69.8214 1426.5 65.7705 M1451.86 49.9314 Q1451.86 41.7081 1448.46 37.0496 Q1445.1 32.3505 1439.18 32.3505 Q1433.27 32.3505 1429.87 37.0496 Q1426.5 41.7081 1426.5 49.9314 Q1426.5 58.1548 1429.87 62.8538 Q1433.27 67.5124 1439.18 67.5124 Q1445.1 67.5124 1448.46 62.8538 Q1451.86 58.1548 1451.86 49.9314 Z" fill="#000000" fill-rule="evenodd" fill-opacity="1" /><polyline clip-path="url(#clip832)" style="stroke:#000000; stroke-linecap:round; stroke-linejoin:round; stroke-width:4; stroke-opacity:1; fill:none" points="
  291.606,665.641 291.606,665.641 
  "/>
<polyline clip-path="url(#clip832)" style="stroke:#000000; stroke-linecap:round; stroke-linejoin:round; stroke-width:4; stroke-opacity:1; fill:none" points="
  333.671,682.908 333.671,682.908 
  "/>
<polyline clip-path="url(#clip832)" style="stroke:#000000; stroke-linecap:round; stroke-linejoin:round; stroke-width:4; stroke-opacity:1; fill:none" points="
  375.735,686.552 375.735,686.552 
  "/>
<polyline clip-path="url(#clip832)" style="stroke:#000000; stroke-linecap:round; stroke-linejoin:round; stroke-width:4; stroke-opacity:1; fill:none" points="
  417.799,687.413 417.799,687.392 
  "/>
<polyline clip-path="url(#clip832)" style="stroke:#000000; stroke-linecap:round; stroke-linejoin:round; stroke-width:4; stroke-opacity:1; fill:none" points="
  459.863,687.636 459.863,687.597 
  "/>
<polyline clip-path="url(#clip832)" style="stroke:#000000; stroke-linecap:round; stroke-linejoin:round; stroke-width:4; stroke-opacity:1; fill:none" points="
  501.928,687.694 501.928,687.654 
  "/>
<polyline clip-path="url(#clip832)" style="stroke:#000000; stroke-linecap:round; stroke-linejoin:round; stroke-width:4; stroke-opacity:1; fill:none" points="
  543.992,687.713 543.992,687.668 
  "/>
<polyline clip-path="url(#clip832)" style="stroke:#000000; stroke-linecap:round; stroke-linejoin:round; stroke-width:4; stroke-opacity:1; fill:none" points="
  586.056,687.719 586.056,687.671 
  "/>
<polyline clip-path="url(#clip832)" style="stroke:#000000; stroke-linecap:round; stroke-linejoin:round; stroke-width:4; stroke-opacity:1; fill:none" points="
  628.121,687.721 628.121,687.672 
  "/>
<polyline clip-path="url(#clip832)" style="stroke:#000000; stroke-linecap:round; stroke-linejoin:round; stroke-width:4; stroke-opacity:1; fill:none" points="
  670.185,687.723 670.185,687.67 
  "/>
<polyline clip-path="url(#clip832)" style="stroke:#000000; stroke-linecap:round; stroke-linejoin:round; stroke-width:4; stroke-opacity:1; fill:none" points="
  712.249,687.723 712.249,687.671 
  "/>
<polyline clip-path="url(#clip832)" style="stroke:#000000; stroke-linecap:round; stroke-linejoin:round; stroke-width:4; stroke-opacity:1; fill:none" points="
  754.313,687.723 754.313,687.671 
  "/>
<polyline clip-path="url(#clip832)" style="stroke:#000000; stroke-linecap:round; stroke-linejoin:round; stroke-width:4; stroke-opacity:1; fill:none" points="
  796.378,687.723 796.378,687.671 
  "/>
<polyline clip-path="url(#clip832)" style="stroke:#000000; stroke-linecap:round; stroke-linejoin:round; stroke-width:4; stroke-opacity:1; fill:none" points="
  838.442,687.723 838.442,687.671 
  "/>
<polyline clip-path="url(#clip832)" style="stroke:#000000; stroke-linecap:round; stroke-linejoin:round; stroke-width:4; stroke-opacity:1; fill:none" points="
  880.506,687.723 880.506,687.671 
  "/>
<polyline clip-path="url(#clip832)" style="stroke:#000000; stroke-linecap:round; stroke-linejoin:round; stroke-width:4; stroke-opacity:1; fill:none" points="
  922.57,687.723 922.57,687.671 
  "/>
<polyline clip-path="url(#clip832)" style="stroke:#000000; stroke-linecap:round; stroke-linejoin:round; stroke-width:4; stroke-opacity:1; fill:none" points="
  964.635,687.723 964.635,687.671 
  "/>
<polyline clip-path="url(#clip832)" style="stroke:#000000; stroke-linecap:round; stroke-linejoin:round; stroke-width:4; stroke-opacity:1; fill:none" points="
  1006.7,687.723 1006.7,687.67 
  "/>
<polyline clip-path="url(#clip832)" style="stroke:#000000; stroke-linecap:round; stroke-linejoin:round; stroke-width:4; stroke-opacity:1; fill:none" points="
  1048.76,687.723 1048.76,687.67 
  "/>
<polyline clip-path="url(#clip832)" style="stroke:#000000; stroke-linecap:round; stroke-linejoin:round; stroke-width:4; stroke-opacity:1; fill:none" points="
  1090.83,687.723 1090.83,687.67 
  "/>
<polyline clip-path="url(#clip832)" style="stroke:#000000; stroke-linecap:round; stroke-linejoin:round; stroke-width:4; stroke-opacity:1; fill:none" points="
  1132.89,687.723 1132.89,687.67 
  "/>
<polyline clip-path="url(#clip832)" style="stroke:#000000; stroke-linecap:round; stroke-linejoin:round; stroke-width:4; stroke-opacity:1; fill:none" points="
  1174.96,687.724 1174.96,687.67 
  "/>
<polyline clip-path="url(#clip832)" style="stroke:#000000; stroke-linecap:round; stroke-linejoin:round; stroke-width:4; stroke-opacity:1; fill:none" points="
  1217.02,687.724 1217.02,687.67 
  "/>
<polyline clip-path="url(#clip832)" style="stroke:#000000; stroke-linecap:round; stroke-linejoin:round; stroke-width:4; stroke-opacity:1; fill:none" points="
  1259.08,687.724 1259.08,687.67 
  "/>
<polyline clip-path="url(#clip832)" style="stroke:#000000; stroke-linecap:round; stroke-linejoin:round; stroke-width:4; stroke-opacity:1; fill:none" points="
  1301.15,687.724 1301.15,687.67 
  "/>
<polyline clip-path="url(#clip832)" style="stroke:#000000; stroke-linecap:round; stroke-linejoin:round; stroke-width:4; stroke-opacity:1; fill:none" points="
  1343.21,687.724 1343.21,687.67 
  "/>
<polyline clip-path="url(#clip832)" style="stroke:#000000; stroke-linecap:round; stroke-linejoin:round; stroke-width:4; stroke-opacity:1; fill:none" points="
  1385.28,687.724 1385.28,687.67 
  "/>
<polyline clip-path="url(#clip832)" style="stroke:#000000; stroke-linecap:round; stroke-linejoin:round; stroke-width:4; stroke-opacity:1; fill:none" points="
  1427.34,687.724 1427.34,687.67 
  "/>
<polyline clip-path="url(#clip832)" style="stroke:#000000; stroke-linecap:round; stroke-linejoin:round; stroke-width:4; stroke-opacity:1; fill:none" points="
  1469.41,687.724 1469.41,687.669 
  "/>
<polyline clip-path="url(#clip832)" style="stroke:#000000; stroke-linecap:round; stroke-linejoin:round; stroke-width:4; stroke-opacity:1; fill:none" points="
  1511.47,687.724 1511.47,687.669 
  "/>
<polyline clip-path="url(#clip832)" style="stroke:#000000; stroke-linecap:round; stroke-linejoin:round; stroke-width:4; stroke-opacity:1; fill:none" points="
  1553.53,687.724 1553.53,687.669 
  "/>
<polyline clip-path="url(#clip832)" style="stroke:#000000; stroke-linecap:round; stroke-linejoin:round; stroke-width:4; stroke-opacity:1; fill:none" points="
  1595.6,687.724 1595.6,687.669 
  "/>
<polyline clip-path="url(#clip832)" style="stroke:#000000; stroke-linecap:round; stroke-linejoin:round; stroke-width:4; stroke-opacity:1; fill:none" points="
  1637.66,687.724 1637.66,687.669 
  "/>
<polyline clip-path="url(#clip832)" style="stroke:#000000; stroke-linecap:round; stroke-linejoin:round; stroke-width:4; stroke-opacity:1; fill:none" points="
  1679.73,687.724 1679.73,687.669 
  "/>
<polyline clip-path="url(#clip832)" style="stroke:#000000; stroke-linecap:round; stroke-linejoin:round; stroke-width:4; stroke-opacity:1; fill:none" points="
  1721.79,687.724 1721.79,687.669 
  "/>
<polyline clip-path="url(#clip832)" style="stroke:#000000; stroke-linecap:round; stroke-linejoin:round; stroke-width:4; stroke-opacity:1; fill:none" points="
  1763.86,687.724 1763.86,687.669 
  "/>
<polyline clip-path="url(#clip832)" style="stroke:#000000; stroke-linecap:round; stroke-linejoin:round; stroke-width:4; stroke-opacity:1; fill:none" points="
  1805.92,687.724 1805.92,687.669 
  "/>
<polyline clip-path="url(#clip832)" style="stroke:#000000; stroke-linecap:round; stroke-linejoin:round; stroke-width:4; stroke-opacity:1; fill:none" points="
  1847.98,687.724 1847.98,687.669 
  "/>
<polyline clip-path="url(#clip832)" style="stroke:#000000; stroke-linecap:round; stroke-linejoin:round; stroke-width:4; stroke-opacity:1; fill:none" points="
  1890.05,687.725 1890.05,687.669 
  "/>
<polyline clip-path="url(#clip832)" style="stroke:#000000; stroke-linecap:round; stroke-linejoin:round; stroke-width:4; stroke-opacity:1; fill:none" points="
  1932.11,687.724 1932.11,687.67 
  "/>
<polyline clip-path="url(#clip832)" style="stroke:#000000; stroke-linecap:round; stroke-linejoin:round; stroke-width:4; stroke-opacity:1; fill:none" points="
  1974.18,687.724 1974.18,687.669 
  "/>
<polyline clip-path="url(#clip832)" style="stroke:#000000; stroke-linecap:round; stroke-linejoin:round; stroke-width:4; stroke-opacity:1; fill:none" points="
  2016.24,687.724 2016.24,687.669 
  "/>
<polyline clip-path="url(#clip832)" style="stroke:#000000; stroke-linecap:round; stroke-linejoin:round; stroke-width:4; stroke-opacity:1; fill:none" points="
  2058.31,687.725 2058.31,687.669 
  "/>
<polyline clip-path="url(#clip832)" style="stroke:#000000; stroke-linecap:round; stroke-linejoin:round; stroke-width:4; stroke-opacity:1; fill:none" points="
  2100.37,687.724 2100.37,687.669 
  "/>
<polyline clip-path="url(#clip832)" style="stroke:#000000; stroke-linecap:round; stroke-linejoin:round; stroke-width:4; stroke-opacity:1; fill:none" points="
  2142.43,687.725 2142.43,687.669 
  "/>
<polyline clip-path="url(#clip832)" style="stroke:#000000; stroke-linecap:round; stroke-linejoin:round; stroke-width:4; stroke-opacity:1; fill:none" points="
  2184.5,687.724 2184.5,687.67 
  "/>
<polyline clip-path="url(#clip832)" style="stroke:#000000; stroke-linecap:round; stroke-linejoin:round; stroke-width:4; stroke-opacity:1; fill:none" points="
  2226.56,687.724 2226.56,687.67 
  "/>
<polyline clip-path="url(#clip832)" style="stroke:#000000; stroke-linecap:round; stroke-linejoin:round; stroke-width:4; stroke-opacity:1; fill:none" points="
  2268.63,687.725 2268.63,687.669 
  "/>
<polyline clip-path="url(#clip832)" style="stroke:#000000; stroke-linecap:round; stroke-linejoin:round; stroke-width:4; stroke-opacity:1; fill:none" points="
  2310.69,687.724 2310.69,687.669 
  "/>
<line clip-path="url(#clip832)" x1="299.606" y1="665.641" x2="283.606" y2="665.641" style="stroke:#000000; stroke-width:3.2; stroke-opacity:1"/>
<line clip-path="url(#clip832)" x1="299.606" y1="665.641" x2="283.606" y2="665.641" style="stroke:#000000; stroke-width:3.2; stroke-opacity:1"/>
<line clip-path="url(#clip832)" x1="341.671" y1="682.908" x2="325.671" y2="682.908" style="stroke:#000000; stroke-width:3.2; stroke-opacity:1"/>
<line clip-path="url(#clip832)" x1="341.671" y1="682.908" x2="325.671" y2="682.908" style="stroke:#000000; stroke-width:3.2; stroke-opacity:1"/>
<line clip-path="url(#clip832)" x1="383.735" y1="686.552" x2="367.735" y2="686.552" style="stroke:#000000; stroke-width:3.2; stroke-opacity:1"/>
<line clip-path="url(#clip832)" x1="383.735" y1="686.552" x2="367.735" y2="686.552" style="stroke:#000000; stroke-width:3.2; stroke-opacity:1"/>
<line clip-path="url(#clip832)" x1="425.799" y1="687.413" x2="409.799" y2="687.413" style="stroke:#000000; stroke-width:3.2; stroke-opacity:1"/>
<line clip-path="url(#clip832)" x1="425.799" y1="687.392" x2="409.799" y2="687.392" style="stroke:#000000; stroke-width:3.2; stroke-opacity:1"/>
<line clip-path="url(#clip832)" x1="467.863" y1="687.636" x2="451.863" y2="687.636" style="stroke:#000000; stroke-width:3.2; stroke-opacity:1"/>
<line clip-path="url(#clip832)" x1="467.863" y1="687.597" x2="451.863" y2="687.597" style="stroke:#000000; stroke-width:3.2; stroke-opacity:1"/>
<line clip-path="url(#clip832)" x1="509.928" y1="687.694" x2="493.928" y2="687.694" style="stroke:#000000; stroke-width:3.2; stroke-opacity:1"/>
<line clip-path="url(#clip832)" x1="509.928" y1="687.654" x2="493.928" y2="687.654" style="stroke:#000000; stroke-width:3.2; stroke-opacity:1"/>
<line clip-path="url(#clip832)" x1="551.992" y1="687.713" x2="535.992" y2="687.713" style="stroke:#000000; stroke-width:3.2; stroke-opacity:1"/>
<line clip-path="url(#clip832)" x1="551.992" y1="687.668" x2="535.992" y2="687.668" style="stroke:#000000; stroke-width:3.2; stroke-opacity:1"/>
<line clip-path="url(#clip832)" x1="594.056" y1="687.719" x2="578.056" y2="687.719" style="stroke:#000000; stroke-width:3.2; stroke-opacity:1"/>
<line clip-path="url(#clip832)" x1="594.056" y1="687.671" x2="578.056" y2="687.671" style="stroke:#000000; stroke-width:3.2; stroke-opacity:1"/>
<line clip-path="url(#clip832)" x1="636.121" y1="687.721" x2="620.121" y2="687.721" style="stroke:#000000; stroke-width:3.2; stroke-opacity:1"/>
<line clip-path="url(#clip832)" x1="636.121" y1="687.672" x2="620.121" y2="687.672" style="stroke:#000000; stroke-width:3.2; stroke-opacity:1"/>
<line clip-path="url(#clip832)" x1="678.185" y1="687.723" x2="662.185" y2="687.723" style="stroke:#000000; stroke-width:3.2; stroke-opacity:1"/>
<line clip-path="url(#clip832)" x1="678.185" y1="687.67" x2="662.185" y2="687.67" style="stroke:#000000; stroke-width:3.2; stroke-opacity:1"/>
<line clip-path="url(#clip832)" x1="720.249" y1="687.723" x2="704.249" y2="687.723" style="stroke:#000000; stroke-width:3.2; stroke-opacity:1"/>
<line clip-path="url(#clip832)" x1="720.249" y1="687.671" x2="704.249" y2="687.671" style="stroke:#000000; stroke-width:3.2; stroke-opacity:1"/>
<line clip-path="url(#clip832)" x1="762.313" y1="687.723" x2="746.313" y2="687.723" style="stroke:#000000; stroke-width:3.2; stroke-opacity:1"/>
<line clip-path="url(#clip832)" x1="762.313" y1="687.671" x2="746.313" y2="687.671" style="stroke:#000000; stroke-width:3.2; stroke-opacity:1"/>
<line clip-path="url(#clip832)" x1="804.378" y1="687.723" x2="788.378" y2="687.723" style="stroke:#000000; stroke-width:3.2; stroke-opacity:1"/>
<line clip-path="url(#clip832)" x1="804.378" y1="687.671" x2="788.378" y2="687.671" style="stroke:#000000; stroke-width:3.2; stroke-opacity:1"/>
<line clip-path="url(#clip832)" x1="846.442" y1="687.723" x2="830.442" y2="687.723" style="stroke:#000000; stroke-width:3.2; stroke-opacity:1"/>
<line clip-path="url(#clip832)" x1="846.442" y1="687.671" x2="830.442" y2="687.671" style="stroke:#000000; stroke-width:3.2; stroke-opacity:1"/>
<line clip-path="url(#clip832)" x1="888.506" y1="687.723" x2="872.506" y2="687.723" style="stroke:#000000; stroke-width:3.2; stroke-opacity:1"/>
<line clip-path="url(#clip832)" x1="888.506" y1="687.671" x2="872.506" y2="687.671" style="stroke:#000000; stroke-width:3.2; stroke-opacity:1"/>
<line clip-path="url(#clip832)" x1="930.57" y1="687.723" x2="914.57" y2="687.723" style="stroke:#000000; stroke-width:3.2; stroke-opacity:1"/>
<line clip-path="url(#clip832)" x1="930.57" y1="687.671" x2="914.57" y2="687.671" style="stroke:#000000; stroke-width:3.2; stroke-opacity:1"/>
<line clip-path="url(#clip832)" x1="972.635" y1="687.723" x2="956.635" y2="687.723" style="stroke:#000000; stroke-width:3.2; stroke-opacity:1"/>
<line clip-path="url(#clip832)" x1="972.635" y1="687.671" x2="956.635" y2="687.671" style="stroke:#000000; stroke-width:3.2; stroke-opacity:1"/>
<line clip-path="url(#clip832)" x1="1014.7" y1="687.723" x2="998.699" y2="687.723" style="stroke:#000000; stroke-width:3.2; stroke-opacity:1"/>
<line clip-path="url(#clip832)" x1="1014.7" y1="687.67" x2="998.699" y2="687.67" style="stroke:#000000; stroke-width:3.2; stroke-opacity:1"/>
<line clip-path="url(#clip832)" x1="1056.76" y1="687.723" x2="1040.76" y2="687.723" style="stroke:#000000; stroke-width:3.2; stroke-opacity:1"/>
<line clip-path="url(#clip832)" x1="1056.76" y1="687.67" x2="1040.76" y2="687.67" style="stroke:#000000; stroke-width:3.2; stroke-opacity:1"/>
<line clip-path="url(#clip832)" x1="1098.83" y1="687.723" x2="1082.83" y2="687.723" style="stroke:#000000; stroke-width:3.2; stroke-opacity:1"/>
<line clip-path="url(#clip832)" x1="1098.83" y1="687.67" x2="1082.83" y2="687.67" style="stroke:#000000; stroke-width:3.2; stroke-opacity:1"/>
<line clip-path="url(#clip832)" x1="1140.89" y1="687.723" x2="1124.89" y2="687.723" style="stroke:#000000; stroke-width:3.2; stroke-opacity:1"/>
<line clip-path="url(#clip832)" x1="1140.89" y1="687.67" x2="1124.89" y2="687.67" style="stroke:#000000; stroke-width:3.2; stroke-opacity:1"/>
<line clip-path="url(#clip832)" x1="1182.96" y1="687.724" x2="1166.96" y2="687.724" style="stroke:#000000; stroke-width:3.2; stroke-opacity:1"/>
<line clip-path="url(#clip832)" x1="1182.96" y1="687.67" x2="1166.96" y2="687.67" style="stroke:#000000; stroke-width:3.2; stroke-opacity:1"/>
<line clip-path="url(#clip832)" x1="1225.02" y1="687.724" x2="1209.02" y2="687.724" style="stroke:#000000; stroke-width:3.2; stroke-opacity:1"/>
<line clip-path="url(#clip832)" x1="1225.02" y1="687.67" x2="1209.02" y2="687.67" style="stroke:#000000; stroke-width:3.2; stroke-opacity:1"/>
<line clip-path="url(#clip832)" x1="1267.08" y1="687.724" x2="1251.08" y2="687.724" style="stroke:#000000; stroke-width:3.2; stroke-opacity:1"/>
<line clip-path="url(#clip832)" x1="1267.08" y1="687.67" x2="1251.08" y2="687.67" style="stroke:#000000; stroke-width:3.2; stroke-opacity:1"/>
<line clip-path="url(#clip832)" x1="1309.15" y1="687.724" x2="1293.15" y2="687.724" style="stroke:#000000; stroke-width:3.2; stroke-opacity:1"/>
<line clip-path="url(#clip832)" x1="1309.15" y1="687.67" x2="1293.15" y2="687.67" style="stroke:#000000; stroke-width:3.2; stroke-opacity:1"/>
<line clip-path="url(#clip832)" x1="1351.21" y1="687.724" x2="1335.21" y2="687.724" style="stroke:#000000; stroke-width:3.2; stroke-opacity:1"/>
<line clip-path="url(#clip832)" x1="1351.21" y1="687.67" x2="1335.21" y2="687.67" style="stroke:#000000; stroke-width:3.2; stroke-opacity:1"/>
<line clip-path="url(#clip832)" x1="1393.28" y1="687.724" x2="1377.28" y2="687.724" style="stroke:#000000; stroke-width:3.2; stroke-opacity:1"/>
<line clip-path="url(#clip832)" x1="1393.28" y1="687.67" x2="1377.28" y2="687.67" style="stroke:#000000; stroke-width:3.2; stroke-opacity:1"/>
<line clip-path="url(#clip832)" x1="1435.34" y1="687.724" x2="1419.34" y2="687.724" style="stroke:#000000; stroke-width:3.2; stroke-opacity:1"/>
<line clip-path="url(#clip832)" x1="1435.34" y1="687.67" x2="1419.34" y2="687.67" style="stroke:#000000; stroke-width:3.2; stroke-opacity:1"/>
<line clip-path="url(#clip832)" x1="1477.41" y1="687.724" x2="1461.41" y2="687.724" style="stroke:#000000; stroke-width:3.2; stroke-opacity:1"/>
<line clip-path="url(#clip832)" x1="1477.41" y1="687.669" x2="1461.41" y2="687.669" style="stroke:#000000; stroke-width:3.2; stroke-opacity:1"/>
<line clip-path="url(#clip832)" x1="1519.47" y1="687.724" x2="1503.47" y2="687.724" style="stroke:#000000; stroke-width:3.2; stroke-opacity:1"/>
<line clip-path="url(#clip832)" x1="1519.47" y1="687.669" x2="1503.47" y2="687.669" style="stroke:#000000; stroke-width:3.2; stroke-opacity:1"/>
<line clip-path="url(#clip832)" x1="1561.53" y1="687.724" x2="1545.53" y2="687.724" style="stroke:#000000; stroke-width:3.2; stroke-opacity:1"/>
<line clip-path="url(#clip832)" x1="1561.53" y1="687.669" x2="1545.53" y2="687.669" style="stroke:#000000; stroke-width:3.2; stroke-opacity:1"/>
<line clip-path="url(#clip832)" x1="1603.6" y1="687.724" x2="1587.6" y2="687.724" style="stroke:#000000; stroke-width:3.2; stroke-opacity:1"/>
<line clip-path="url(#clip832)" x1="1603.6" y1="687.669" x2="1587.6" y2="687.669" style="stroke:#000000; stroke-width:3.2; stroke-opacity:1"/>
<line clip-path="url(#clip832)" x1="1645.66" y1="687.724" x2="1629.66" y2="687.724" style="stroke:#000000; stroke-width:3.2; stroke-opacity:1"/>
<line clip-path="url(#clip832)" x1="1645.66" y1="687.669" x2="1629.66" y2="687.669" style="stroke:#000000; stroke-width:3.2; stroke-opacity:1"/>
<line clip-path="url(#clip832)" x1="1687.73" y1="687.724" x2="1671.73" y2="687.724" style="stroke:#000000; stroke-width:3.2; stroke-opacity:1"/>
<line clip-path="url(#clip832)" x1="1687.73" y1="687.669" x2="1671.73" y2="687.669" style="stroke:#000000; stroke-width:3.2; stroke-opacity:1"/>
<line clip-path="url(#clip832)" x1="1729.79" y1="687.724" x2="1713.79" y2="687.724" style="stroke:#000000; stroke-width:3.2; stroke-opacity:1"/>
<line clip-path="url(#clip832)" x1="1729.79" y1="687.669" x2="1713.79" y2="687.669" style="stroke:#000000; stroke-width:3.2; stroke-opacity:1"/>
<line clip-path="url(#clip832)" x1="1771.86" y1="687.724" x2="1755.86" y2="687.724" style="stroke:#000000; stroke-width:3.2; stroke-opacity:1"/>
<line clip-path="url(#clip832)" x1="1771.86" y1="687.669" x2="1755.86" y2="687.669" style="stroke:#000000; stroke-width:3.2; stroke-opacity:1"/>
<line clip-path="url(#clip832)" x1="1813.92" y1="687.724" x2="1797.92" y2="687.724" style="stroke:#000000; stroke-width:3.2; stroke-opacity:1"/>
<line clip-path="url(#clip832)" x1="1813.92" y1="687.669" x2="1797.92" y2="687.669" style="stroke:#000000; stroke-width:3.2; stroke-opacity:1"/>
<line clip-path="url(#clip832)" x1="1855.98" y1="687.724" x2="1839.98" y2="687.724" style="stroke:#000000; stroke-width:3.2; stroke-opacity:1"/>
<line clip-path="url(#clip832)" x1="1855.98" y1="687.669" x2="1839.98" y2="687.669" style="stroke:#000000; stroke-width:3.2; stroke-opacity:1"/>
<line clip-path="url(#clip832)" x1="1898.05" y1="687.725" x2="1882.05" y2="687.725" style="stroke:#000000; stroke-width:3.2; stroke-opacity:1"/>
<line clip-path="url(#clip832)" x1="1898.05" y1="687.669" x2="1882.05" y2="687.669" style="stroke:#000000; stroke-width:3.2; stroke-opacity:1"/>
<line clip-path="url(#clip832)" x1="1940.11" y1="687.724" x2="1924.11" y2="687.724" style="stroke:#000000; stroke-width:3.2; stroke-opacity:1"/>
<line clip-path="url(#clip832)" x1="1940.11" y1="687.67" x2="1924.11" y2="687.67" style="stroke:#000000; stroke-width:3.2; stroke-opacity:1"/>
<line clip-path="url(#clip832)" x1="1982.18" y1="687.724" x2="1966.18" y2="687.724" style="stroke:#000000; stroke-width:3.2; stroke-opacity:1"/>
<line clip-path="url(#clip832)" x1="1982.18" y1="687.669" x2="1966.18" y2="687.669" style="stroke:#000000; stroke-width:3.2; stroke-opacity:1"/>
<line clip-path="url(#clip832)" x1="2024.24" y1="687.724" x2="2008.24" y2="687.724" style="stroke:#000000; stroke-width:3.2; stroke-opacity:1"/>
<line clip-path="url(#clip832)" x1="2024.24" y1="687.669" x2="2008.24" y2="687.669" style="stroke:#000000; stroke-width:3.2; stroke-opacity:1"/>
<line clip-path="url(#clip832)" x1="2066.31" y1="687.725" x2="2050.31" y2="687.725" style="stroke:#000000; stroke-width:3.2; stroke-opacity:1"/>
<line clip-path="url(#clip832)" x1="2066.31" y1="687.669" x2="2050.31" y2="687.669" style="stroke:#000000; stroke-width:3.2; stroke-opacity:1"/>
<line clip-path="url(#clip832)" x1="2108.37" y1="687.724" x2="2092.37" y2="687.724" style="stroke:#000000; stroke-width:3.2; stroke-opacity:1"/>
<line clip-path="url(#clip832)" x1="2108.37" y1="687.669" x2="2092.37" y2="687.669" style="stroke:#000000; stroke-width:3.2; stroke-opacity:1"/>
<line clip-path="url(#clip832)" x1="2150.43" y1="687.725" x2="2134.43" y2="687.725" style="stroke:#000000; stroke-width:3.2; stroke-opacity:1"/>
<line clip-path="url(#clip832)" x1="2150.43" y1="687.669" x2="2134.43" y2="687.669" style="stroke:#000000; stroke-width:3.2; stroke-opacity:1"/>
<line clip-path="url(#clip832)" x1="2192.5" y1="687.724" x2="2176.5" y2="687.724" style="stroke:#000000; stroke-width:3.2; stroke-opacity:1"/>
<line clip-path="url(#clip832)" x1="2192.5" y1="687.67" x2="2176.5" y2="687.67" style="stroke:#000000; stroke-width:3.2; stroke-opacity:1"/>
<line clip-path="url(#clip832)" x1="2234.56" y1="687.724" x2="2218.56" y2="687.724" style="stroke:#000000; stroke-width:3.2; stroke-opacity:1"/>
<line clip-path="url(#clip832)" x1="2234.56" y1="687.67" x2="2218.56" y2="687.67" style="stroke:#000000; stroke-width:3.2; stroke-opacity:1"/>
<line clip-path="url(#clip832)" x1="2276.63" y1="687.725" x2="2260.63" y2="687.725" style="stroke:#000000; stroke-width:3.2; stroke-opacity:1"/>
<line clip-path="url(#clip832)" x1="2276.63" y1="687.669" x2="2260.63" y2="687.669" style="stroke:#000000; stroke-width:3.2; stroke-opacity:1"/>
<line clip-path="url(#clip832)" x1="2318.69" y1="687.724" x2="2302.69" y2="687.724" style="stroke:#000000; stroke-width:3.2; stroke-opacity:1"/>
<line clip-path="url(#clip832)" x1="2318.69" y1="687.669" x2="2302.69" y2="687.669" style="stroke:#000000; stroke-width:3.2; stroke-opacity:1"/>
<circle clip-path="url(#clip832)" cx="291.606" cy="665.641" r="7.2" fill="#009af9" fill-rule="evenodd" fill-opacity="1" stroke="#000000" stroke-opacity="1" stroke-width="3.2"/>
<circle clip-path="url(#clip832)" cx="333.671" cy="682.908" r="7.2" fill="#009af9" fill-rule="evenodd" fill-opacity="1" stroke="#000000" stroke-opacity="1" stroke-width="3.2"/>
<circle clip-path="url(#clip832)" cx="375.735" cy="686.552" r="7.2" fill="#009af9" fill-rule="evenodd" fill-opacity="1" stroke="#000000" stroke-opacity="1" stroke-width="3.2"/>
<circle clip-path="url(#clip832)" cx="417.799" cy="687.402" r="7.2" fill="#009af9" fill-rule="evenodd" fill-opacity="1" stroke="#000000" stroke-opacity="1" stroke-width="3.2"/>
<circle clip-path="url(#clip832)" cx="459.863" cy="687.617" r="7.2" fill="#009af9" fill-rule="evenodd" fill-opacity="1" stroke="#000000" stroke-opacity="1" stroke-width="3.2"/>
<circle clip-path="url(#clip832)" cx="501.928" cy="687.674" r="7.2" fill="#009af9" fill-rule="evenodd" fill-opacity="1" stroke="#000000" stroke-opacity="1" stroke-width="3.2"/>
<circle clip-path="url(#clip832)" cx="543.992" cy="687.69" r="7.2" fill="#009af9" fill-rule="evenodd" fill-opacity="1" stroke="#000000" stroke-opacity="1" stroke-width="3.2"/>
<circle clip-path="url(#clip832)" cx="586.056" cy="687.695" r="7.2" fill="#009af9" fill-rule="evenodd" fill-opacity="1" stroke="#000000" stroke-opacity="1" stroke-width="3.2"/>
<circle clip-path="url(#clip832)" cx="628.121" cy="687.696" r="7.2" fill="#009af9" fill-rule="evenodd" fill-opacity="1" stroke="#000000" stroke-opacity="1" stroke-width="3.2"/>
<circle clip-path="url(#clip832)" cx="670.185" cy="687.697" r="7.2" fill="#009af9" fill-rule="evenodd" fill-opacity="1" stroke="#000000" stroke-opacity="1" stroke-width="3.2"/>
<circle clip-path="url(#clip832)" cx="712.249" cy="687.697" r="7.2" fill="#009af9" fill-rule="evenodd" fill-opacity="1" stroke="#000000" stroke-opacity="1" stroke-width="3.2"/>
<circle clip-path="url(#clip832)" cx="754.313" cy="687.697" r="7.2" fill="#009af9" fill-rule="evenodd" fill-opacity="1" stroke="#000000" stroke-opacity="1" stroke-width="3.2"/>
<circle clip-path="url(#clip832)" cx="796.378" cy="687.697" r="7.2" fill="#009af9" fill-rule="evenodd" fill-opacity="1" stroke="#000000" stroke-opacity="1" stroke-width="3.2"/>
<circle clip-path="url(#clip832)" cx="838.442" cy="687.697" r="7.2" fill="#009af9" fill-rule="evenodd" fill-opacity="1" stroke="#000000" stroke-opacity="1" stroke-width="3.2"/>
<circle clip-path="url(#clip832)" cx="880.506" cy="687.697" r="7.2" fill="#009af9" fill-rule="evenodd" fill-opacity="1" stroke="#000000" stroke-opacity="1" stroke-width="3.2"/>
<circle clip-path="url(#clip832)" cx="922.57" cy="687.697" r="7.2" fill="#009af9" fill-rule="evenodd" fill-opacity="1" stroke="#000000" stroke-opacity="1" stroke-width="3.2"/>
<circle clip-path="url(#clip832)" cx="964.635" cy="687.697" r="7.2" fill="#009af9" fill-rule="evenodd" fill-opacity="1" stroke="#000000" stroke-opacity="1" stroke-width="3.2"/>
<circle clip-path="url(#clip832)" cx="1006.7" cy="687.697" r="7.2" fill="#009af9" fill-rule="evenodd" fill-opacity="1" stroke="#000000" stroke-opacity="1" stroke-width="3.2"/>
<circle clip-path="url(#clip832)" cx="1048.76" cy="687.697" r="7.2" fill="#009af9" fill-rule="evenodd" fill-opacity="1" stroke="#000000" stroke-opacity="1" stroke-width="3.2"/>
<circle clip-path="url(#clip832)" cx="1090.83" cy="687.697" r="7.2" fill="#009af9" fill-rule="evenodd" fill-opacity="1" stroke="#000000" stroke-opacity="1" stroke-width="3.2"/>
<circle clip-path="url(#clip832)" cx="1132.89" cy="687.697" r="7.2" fill="#009af9" fill-rule="evenodd" fill-opacity="1" stroke="#000000" stroke-opacity="1" stroke-width="3.2"/>
<circle clip-path="url(#clip832)" cx="1174.96" cy="687.697" r="7.2" fill="#009af9" fill-rule="evenodd" fill-opacity="1" stroke="#000000" stroke-opacity="1" stroke-width="3.2"/>
<circle clip-path="url(#clip832)" cx="1217.02" cy="687.697" r="7.2" fill="#009af9" fill-rule="evenodd" fill-opacity="1" stroke="#000000" stroke-opacity="1" stroke-width="3.2"/>
<circle clip-path="url(#clip832)" cx="1259.08" cy="687.697" r="7.2" fill="#009af9" fill-rule="evenodd" fill-opacity="1" stroke="#000000" stroke-opacity="1" stroke-width="3.2"/>
<circle clip-path="url(#clip832)" cx="1301.15" cy="687.697" r="7.2" fill="#009af9" fill-rule="evenodd" fill-opacity="1" stroke="#000000" stroke-opacity="1" stroke-width="3.2"/>
<circle clip-path="url(#clip832)" cx="1343.21" cy="687.697" r="7.2" fill="#009af9" fill-rule="evenodd" fill-opacity="1" stroke="#000000" stroke-opacity="1" stroke-width="3.2"/>
<circle clip-path="url(#clip832)" cx="1385.28" cy="687.697" r="7.2" fill="#009af9" fill-rule="evenodd" fill-opacity="1" stroke="#000000" stroke-opacity="1" stroke-width="3.2"/>
<circle clip-path="url(#clip832)" cx="1427.34" cy="687.697" r="7.2" fill="#009af9" fill-rule="evenodd" fill-opacity="1" stroke="#000000" stroke-opacity="1" stroke-width="3.2"/>
<circle clip-path="url(#clip832)" cx="1469.41" cy="687.697" r="7.2" fill="#009af9" fill-rule="evenodd" fill-opacity="1" stroke="#000000" stroke-opacity="1" stroke-width="3.2"/>
<circle clip-path="url(#clip832)" cx="1511.47" cy="687.697" r="7.2" fill="#009af9" fill-rule="evenodd" fill-opacity="1" stroke="#000000" stroke-opacity="1" stroke-width="3.2"/>
<circle clip-path="url(#clip832)" cx="1553.53" cy="687.697" r="7.2" fill="#009af9" fill-rule="evenodd" fill-opacity="1" stroke="#000000" stroke-opacity="1" stroke-width="3.2"/>
<circle clip-path="url(#clip832)" cx="1595.6" cy="687.697" r="7.2" fill="#009af9" fill-rule="evenodd" fill-opacity="1" stroke="#000000" stroke-opacity="1" stroke-width="3.2"/>
<circle clip-path="url(#clip832)" cx="1637.66" cy="687.697" r="7.2" fill="#009af9" fill-rule="evenodd" fill-opacity="1" stroke="#000000" stroke-opacity="1" stroke-width="3.2"/>
<circle clip-path="url(#clip832)" cx="1679.73" cy="687.697" r="7.2" fill="#009af9" fill-rule="evenodd" fill-opacity="1" stroke="#000000" stroke-opacity="1" stroke-width="3.2"/>
<circle clip-path="url(#clip832)" cx="1721.79" cy="687.697" r="7.2" fill="#009af9" fill-rule="evenodd" fill-opacity="1" stroke="#000000" stroke-opacity="1" stroke-width="3.2"/>
<circle clip-path="url(#clip832)" cx="1763.86" cy="687.697" r="7.2" fill="#009af9" fill-rule="evenodd" fill-opacity="1" stroke="#000000" stroke-opacity="1" stroke-width="3.2"/>
<circle clip-path="url(#clip832)" cx="1805.92" cy="687.697" r="7.2" fill="#009af9" fill-rule="evenodd" fill-opacity="1" stroke="#000000" stroke-opacity="1" stroke-width="3.2"/>
<circle clip-path="url(#clip832)" cx="1847.98" cy="687.697" r="7.2" fill="#009af9" fill-rule="evenodd" fill-opacity="1" stroke="#000000" stroke-opacity="1" stroke-width="3.2"/>
<circle clip-path="url(#clip832)" cx="1890.05" cy="687.697" r="7.2" fill="#009af9" fill-rule="evenodd" fill-opacity="1" stroke="#000000" stroke-opacity="1" stroke-width="3.2"/>
<circle clip-path="url(#clip832)" cx="1932.11" cy="687.697" r="7.2" fill="#009af9" fill-rule="evenodd" fill-opacity="1" stroke="#000000" stroke-opacity="1" stroke-width="3.2"/>
<circle clip-path="url(#clip832)" cx="1974.18" cy="687.697" r="7.2" fill="#009af9" fill-rule="evenodd" fill-opacity="1" stroke="#000000" stroke-opacity="1" stroke-width="3.2"/>
<circle clip-path="url(#clip832)" cx="2016.24" cy="687.697" r="7.2" fill="#009af9" fill-rule="evenodd" fill-opacity="1" stroke="#000000" stroke-opacity="1" stroke-width="3.2"/>
<circle clip-path="url(#clip832)" cx="2058.31" cy="687.697" r="7.2" fill="#009af9" fill-rule="evenodd" fill-opacity="1" stroke="#000000" stroke-opacity="1" stroke-width="3.2"/>
<circle clip-path="url(#clip832)" cx="2100.37" cy="687.697" r="7.2" fill="#009af9" fill-rule="evenodd" fill-opacity="1" stroke="#000000" stroke-opacity="1" stroke-width="3.2"/>
<circle clip-path="url(#clip832)" cx="2142.43" cy="687.697" r="7.2" fill="#009af9" fill-rule="evenodd" fill-opacity="1" stroke="#000000" stroke-opacity="1" stroke-width="3.2"/>
<circle clip-path="url(#clip832)" cx="2184.5" cy="687.697" r="7.2" fill="#009af9" fill-rule="evenodd" fill-opacity="1" stroke="#000000" stroke-opacity="1" stroke-width="3.2"/>
<circle clip-path="url(#clip832)" cx="2226.56" cy="687.697" r="7.2" fill="#009af9" fill-rule="evenodd" fill-opacity="1" stroke="#000000" stroke-opacity="1" stroke-width="3.2"/>
<circle clip-path="url(#clip832)" cx="2268.63" cy="687.697" r="7.2" fill="#009af9" fill-rule="evenodd" fill-opacity="1" stroke="#000000" stroke-opacity="1" stroke-width="3.2"/>
<circle clip-path="url(#clip832)" cx="2310.69" cy="687.697" r="7.2" fill="#009af9" fill-rule="evenodd" fill-opacity="1" stroke="#000000" stroke-opacity="1" stroke-width="3.2"/>
<path clip-path="url(#clip830)" d="
M1714.55 270.476 L2282.65 270.476 L2282.65 166.796 L1714.55 166.796  Z
  " fill="#ffffff" fill-rule="evenodd" fill-opacity="1"/>
<polyline clip-path="url(#clip830)" style="stroke:#000000; stroke-linecap:round; stroke-linejoin:round; stroke-width:4; stroke-opacity:1; fill:none" points="
  1714.55,270.476 2282.65,270.476 2282.65,166.796 1714.55,166.796 1714.55,270.476 
  "/>
<circle clip-path="url(#clip830)" cx="1808.03" cy="218.636" r="23.04" fill="#009af9" fill-rule="evenodd" fill-opacity="1" stroke="#000000" stroke-opacity="1" stroke-width="10.24"/>
<path clip-path="url(#clip830)" d="M1921.85 214.967 Q1923.45 212.096 1925.67 210.731 Q1927.89 209.365 1930.9 209.365 Q1934.95 209.365 1937.15 212.212 Q1939.35 215.036 1939.35 220.268 L1939.35 235.916 L1935.07 235.916 L1935.07 220.407 Q1935.07 216.68 1933.75 214.874 Q1932.43 213.069 1929.72 213.069 Q1926.41 213.069 1924.49 215.268 Q1922.57 217.467 1922.57 221.263 L1922.57 235.916 L1918.29 235.916 L1918.29 220.407 Q1918.29 216.657 1916.97 214.874 Q1915.65 213.069 1912.89 213.069 Q1909.63 213.069 1907.71 215.291 Q1905.79 217.49 1905.79 221.263 L1905.79 235.916 L1901.5 235.916 L1901.5 209.99 L1905.79 209.99 L1905.79 214.018 Q1907.24 211.633 1909.28 210.499 Q1911.32 209.365 1914.12 209.365 Q1916.94 209.365 1918.91 210.8 Q1920.9 212.235 1921.85 214.967 Z" fill="#000000" fill-rule="evenodd" fill-opacity="1" /><path clip-path="url(#clip830)" d="M1956.57 220.245 Q1955.42 218.254 1953.08 218.254 Q1950.74 218.254 1949.58 220.245 Q1948.4 222.235 1948.4 226.217 Q1948.4 230.221 1949.58 232.212 Q1950.74 234.203 1953.08 234.203 Q1955.42 234.203 1956.57 232.212 Q1957.75 230.221 1957.75 226.217 Q1957.75 222.235 1956.57 220.245 M1953.08 216.194 Q1956.8 216.194 1958.77 218.763 Q1960.74 221.332 1960.74 226.217 Q1960.74 231.124 1958.77 233.694 Q1956.8 236.263 1953.08 236.263 Q1949.33 236.263 1947.36 233.694 Q1945.39 231.124 1945.39 226.217 Q1945.39 221.332 1947.36 218.763 Q1949.33 216.194 1953.08 216.194 Z" fill="#000000" fill-rule="evenodd" fill-opacity="1" /><path clip-path="url(#clip830)" d="M1967.41 214.388 L1997.08 214.388 L1997.08 218.277 L1967.41 218.277 L1967.41 214.388 M1967.41 223.832 L1997.08 223.832 L1997.08 227.768 L1967.41 227.768 L1967.41 223.832 Z" fill="#000000" fill-rule="evenodd" fill-opacity="1" /><path clip-path="url(#clip830)" d="M2017.17 204.434 Q2013.56 204.434 2011.73 207.999 Q2009.93 211.541 2009.93 218.67 Q2009.93 225.777 2011.73 229.342 Q2013.56 232.883 2017.17 232.883 Q2020.81 232.883 2022.61 229.342 Q2024.44 225.777 2024.44 218.67 Q2024.44 211.541 2022.61 207.999 Q2020.81 204.434 2017.17 204.434 M2017.17 200.731 Q2022.98 200.731 2026.04 205.337 Q2029.12 209.92 2029.12 218.67 Q2029.12 227.397 2026.04 232.004 Q2022.98 236.587 2017.17 236.587 Q2011.36 236.587 2008.29 232.004 Q2005.23 227.397 2005.23 218.67 Q2005.23 209.92 2008.29 205.337 Q2011.36 200.731 2017.17 200.731 Z" fill="#000000" fill-rule="evenodd" fill-opacity="1" /><path clip-path="url(#clip830)" d="M2037.34 230.036 L2042.22 230.036 L2042.22 235.916 L2037.34 235.916 L2037.34 230.036 Z" fill="#000000" fill-rule="evenodd" fill-opacity="1" /><path clip-path="url(#clip830)" d="M2052.45 201.356 L2070.81 201.356 L2070.81 205.291 L2056.73 205.291 L2056.73 213.763 Q2057.75 213.416 2058.77 213.254 Q2059.79 213.069 2060.81 213.069 Q2066.6 213.069 2069.98 216.24 Q2073.35 219.411 2073.35 224.828 Q2073.35 230.406 2069.88 233.508 Q2066.41 236.587 2060.09 236.587 Q2057.92 236.587 2055.65 236.217 Q2053.4 235.846 2050.99 235.106 L2050.99 230.406 Q2053.08 231.541 2055.3 232.096 Q2057.52 232.652 2060 232.652 Q2064 232.652 2066.34 230.545 Q2068.68 228.439 2068.68 224.828 Q2068.68 221.217 2066.34 219.11 Q2064 217.004 2060 217.004 Q2058.12 217.004 2056.25 217.42 Q2054.4 217.837 2052.45 218.717 L2052.45 201.356 Z" fill="#000000" fill-rule="evenodd" fill-opacity="1" /><path clip-path="url(#clip830)" d="M2083.05 230.036 L2087.94 230.036 L2087.94 234.018 L2084.14 241.425 L2081.16 241.425 L2083.05 234.018 L2083.05 230.036 Z" fill="#000000" fill-rule="evenodd" fill-opacity="1" /><path clip-path="url(#clip830)" d="M2120.79 230.985 L2120.79 221.703 L2113.15 221.703 L2113.15 217.86 L2125.41 217.86 L2125.41 232.698 Q2122.71 234.619 2119.44 235.615 Q2116.18 236.587 2112.47 236.587 Q2104.37 236.587 2099.79 231.865 Q2095.23 227.119 2095.23 218.67 Q2095.23 210.198 2099.79 205.476 Q2104.37 200.731 2112.47 200.731 Q2115.85 200.731 2118.89 201.564 Q2121.94 202.397 2124.51 204.018 L2124.51 208.995 Q2121.92 206.796 2119 205.684 Q2116.09 204.573 2112.87 204.573 Q2106.53 204.573 2103.33 208.115 Q2100.16 211.657 2100.16 218.67 Q2100.16 225.661 2103.33 229.203 Q2106.53 232.744 2112.87 232.744 Q2115.35 232.744 2117.29 232.328 Q2119.23 231.888 2120.79 230.985 Z" fill="#000000" fill-rule="evenodd" fill-opacity="1" /><path clip-path="url(#clip830)" d="M2135.51 217.814 L2145.32 217.814 L2145.32 220.453 L2131.48 220.453 L2131.48 217.907 Q2132.27 217.189 2133.72 215.893 Q2141.69 208.833 2141.69 206.657 Q2141.69 205.129 2140.48 204.203 Q2139.28 203.254 2137.31 203.254 Q2136.11 203.254 2134.7 203.671 Q2133.29 204.064 2131.62 204.874 L2131.62 202.027 Q2133.4 201.379 2134.93 201.055 Q2136.48 200.731 2137.8 200.731 Q2141.16 200.731 2143.17 202.258 Q2145.18 203.786 2145.18 206.286 Q2145.18 209.504 2137.52 216.078 Q2136.22 217.189 2135.51 217.814 Z" fill="#000000" fill-rule="evenodd" fill-opacity="1" /><path clip-path="url(#clip830)" d="M2153.33 214.388 L2183.01 214.388 L2183.01 218.277 L2153.33 218.277 L2153.33 214.388 M2153.33 223.832 L2183.01 223.832 L2183.01 227.768 L2153.33 227.768 L2153.33 223.832 Z" fill="#000000" fill-rule="evenodd" fill-opacity="1" /><path clip-path="url(#clip830)" d="M2203.1 204.434 Q2199.49 204.434 2197.66 207.999 Q2195.85 211.541 2195.85 218.67 Q2195.85 225.777 2197.66 229.342 Q2199.49 232.883 2203.1 232.883 Q2206.73 232.883 2208.54 229.342 Q2210.37 225.777 2210.37 218.67 Q2210.37 211.541 2208.54 207.999 Q2206.73 204.434 2203.1 204.434 M2203.1 200.731 Q2208.91 200.731 2211.97 205.337 Q2215.04 209.92 2215.04 218.67 Q2215.04 227.397 2211.97 232.004 Q2208.91 236.587 2203.1 236.587 Q2197.29 236.587 2194.21 232.004 Q2191.16 227.397 2191.16 218.67 Q2191.16 209.92 2194.21 205.337 Q2197.29 200.731 2203.1 200.731 Z" fill="#000000" fill-rule="evenodd" fill-opacity="1" /><path clip-path="url(#clip830)" d="M2223.26 230.036 L2228.15 230.036 L2228.15 235.916 L2223.26 235.916 L2223.26 230.036 Z" fill="#000000" fill-rule="evenodd" fill-opacity="1" /><path clip-path="url(#clip830)" d="M2238.38 201.356 L2256.73 201.356 L2256.73 205.291 L2242.66 205.291 L2242.66 213.763 Q2243.68 213.416 2244.7 213.254 Q2245.71 213.069 2246.73 213.069 Q2252.52 213.069 2255.9 216.24 Q2259.28 219.411 2259.28 224.828 Q2259.28 230.406 2255.81 233.508 Q2252.34 236.587 2246.02 236.587 Q2243.84 236.587 2241.57 236.217 Q2239.33 235.846 2236.92 235.106 L2236.92 230.406 Q2239 231.541 2241.22 232.096 Q2243.45 232.652 2245.92 232.652 Q2249.93 232.652 2252.27 230.545 Q2254.6 228.439 2254.6 224.828 Q2254.6 221.217 2252.27 219.11 Q2249.93 217.004 2245.92 217.004 Q2244.05 217.004 2242.17 217.42 Q2240.32 217.837 2238.38 218.717 L2238.38 201.356 Z" fill="#000000" fill-rule="evenodd" fill-opacity="1" /></svg>
