<?xml version="1.0" encoding="utf-8"?>
<svg xmlns="http://www.w3.org/2000/svg" xmlns:xlink="http://www.w3.org/1999/xlink" width="600" height="400" viewBox="0 0 2400 1600">
<defs>
  <clipPath id="clip820">
    <rect x="0" y="0" width="2400" height="1600"/>
  </clipPath>
</defs>
<path clip-path="url(#clip820)" d="
M0 1600 L2400 1600 L2400 0 L0 0  Z
  " fill="#ffffff" fill-rule="evenodd" fill-opacity="1"/>
<defs>
  <clipPath id="clip821">
    <rect x="480" y="0" width="1681" height="1600"/>
  </clipPath>
</defs>
<path clip-path="url(#clip820)" d="
M279.704 1423.18 L2352.76 1423.18 L2352.76 123.472 L279.704 123.472  Z
  " fill="#ffffff" fill-rule="evenodd" fill-opacity="1"/>
<defs>
  <clipPath id="clip822">
    <rect x="279" y="123" width="2074" height="1301"/>
  </clipPath>
</defs>
<polyline clip-path="url(#clip822)" style="stroke:#000000; stroke-linecap:round; stroke-linejoin:round; stroke-width:2; stroke-opacity:0.1; fill:none" points="
  279.704,1423.18 279.704,123.472 
  "/>
<polyline clip-path="url(#clip822)" style="stroke:#000000; stroke-linecap:round; stroke-linejoin:round; stroke-width:2; stroke-opacity:0.1; fill:none" points="
  575.854,1423.18 575.854,123.472 
  "/>
<polyline clip-path="url(#clip822)" style="stroke:#000000; stroke-linecap:round; stroke-linejoin:round; stroke-width:2; stroke-opacity:0.1; fill:none" points="
  872.004,1423.18 872.004,123.472 
  "/>
<polyline clip-path="url(#clip822)" style="stroke:#000000; stroke-linecap:round; stroke-linejoin:round; stroke-width:2; stroke-opacity:0.1; fill:none" points="
  1168.15,1423.18 1168.15,123.472 
  "/>
<polyline clip-path="url(#clip822)" style="stroke:#000000; stroke-linecap:round; stroke-linejoin:round; stroke-width:2; stroke-opacity:0.1; fill:none" points="
  1464.31,1423.18 1464.31,123.472 
  "/>
<polyline clip-path="url(#clip822)" style="stroke:#000000; stroke-linecap:round; stroke-linejoin:round; stroke-width:2; stroke-opacity:0.1; fill:none" points="
  1760.46,1423.18 1760.46,123.472 
  "/>
<polyline clip-path="url(#clip822)" style="stroke:#000000; stroke-linecap:round; stroke-linejoin:round; stroke-width:2; stroke-opacity:0.1; fill:none" points="
  2056.61,1423.18 2056.61,123.472 
  "/>
<polyline clip-path="url(#clip822)" style="stroke:#000000; stroke-linecap:round; stroke-linejoin:round; stroke-width:2; stroke-opacity:0.1; fill:none" points="
  2352.76,1423.18 2352.76,123.472 
  "/>
<polyline clip-path="url(#clip820)" style="stroke:#000000; stroke-linecap:round; stroke-linejoin:round; stroke-width:4; stroke-opacity:1; fill:none" points="
  279.704,1423.18 2352.76,1423.18 
  "/>
<polyline clip-path="url(#clip820)" style="stroke:#000000; stroke-linecap:round; stroke-linejoin:round; stroke-width:4; stroke-opacity:1; fill:none" points="
  279.704,1423.18 279.704,1404.28 
  "/>
<polyline clip-path="url(#clip820)" style="stroke:#000000; stroke-linecap:round; stroke-linejoin:round; stroke-width:4; stroke-opacity:1; fill:none" points="
  575.854,1423.18 575.854,1404.28 
  "/>
<polyline clip-path="url(#clip820)" style="stroke:#000000; stroke-linecap:round; stroke-linejoin:round; stroke-width:4; stroke-opacity:1; fill:none" points="
  872.004,1423.18 872.004,1404.28 
  "/>
<polyline clip-path="url(#clip820)" style="stroke:#000000; stroke-linecap:round; stroke-linejoin:round; stroke-width:4; stroke-opacity:1; fill:none" points="
  1168.15,1423.18 1168.15,1404.28 
  "/>
<polyline clip-path="url(#clip820)" style="stroke:#000000; stroke-linecap:round; stroke-linejoin:round; stroke-width:4; stroke-opacity:1; fill:none" points="
  1464.31,1423.18 1464.31,1404.28 
  "/>
<polyline clip-path="url(#clip820)" style="stroke:#000000; stroke-linecap:round; stroke-linejoin:round; stroke-width:4; stroke-opacity:1; fill:none" points="
  1760.46,1423.18 1760.46,1404.28 
  "/>
<polyline clip-path="url(#clip820)" style="stroke:#000000; stroke-linecap:round; stroke-linejoin:round; stroke-width:4; stroke-opacity:1; fill:none" points="
  2056.61,1423.18 2056.61,1404.28 
  "/>
<polyline clip-path="url(#clip820)" style="stroke:#000000; stroke-linecap:round; stroke-linejoin:round; stroke-width:4; stroke-opacity:1; fill:none" points="
  2352.76,1423.18 2352.76,1404.28 
  "/>
<path clip-path="url(#clip820)" d="M279.704 1454.1 Q276.093 1454.1 274.264 1457.66 Q272.459 1461.2 272.459 1468.33 Q272.459 1475.44 274.264 1479.01 Q276.093 1482.55 279.704 1482.55 Q283.338 1482.55 285.144 1479.01 Q286.972 1475.44 286.972 1468.33 Q286.972 1461.2 285.144 1457.66 Q283.338 1454.1 279.704 1454.1 M279.704 1450.39 Q285.514 1450.39 288.57 1455 Q291.648 1459.58 291.648 1468.33 Q291.648 1477.06 288.57 1481.67 Q285.514 1486.25 279.704 1486.25 Q273.894 1486.25 270.815 1481.67 Q267.76 1477.06 267.76 1468.33 Q267.76 1459.58 270.815 1455 Q273.894 1450.39 279.704 1450.39 Z" fill="#000000" fill-rule="evenodd" fill-opacity="1" /><path clip-path="url(#clip820)" d="M566.132 1451.02 L584.488 1451.02 L584.488 1454.96 L570.414 1454.96 L570.414 1463.43 Q571.433 1463.08 572.451 1462.92 Q573.47 1462.73 574.488 1462.73 Q580.275 1462.73 583.655 1465.9 Q587.035 1469.08 587.035 1474.49 Q587.035 1480.07 583.562 1483.17 Q580.09 1486.25 573.771 1486.25 Q571.595 1486.25 569.326 1485.88 Q567.081 1485.51 564.674 1484.77 L564.674 1480.07 Q566.757 1481.2 568.979 1481.76 Q571.201 1482.32 573.678 1482.32 Q577.683 1482.32 580.021 1480.21 Q582.359 1478.1 582.359 1474.49 Q582.359 1470.88 580.021 1468.77 Q577.683 1466.67 573.678 1466.67 Q571.803 1466.67 569.928 1467.08 Q568.076 1467.5 566.132 1468.38 L566.132 1451.02 Z" fill="#000000" fill-rule="evenodd" fill-opacity="1" /><path clip-path="url(#clip820)" d="M846.692 1481.64 L854.331 1481.64 L854.331 1455.28 L846.021 1456.95 L846.021 1452.69 L854.285 1451.02 L858.961 1451.02 L858.961 1481.64 L866.599 1481.64 L866.599 1485.58 L846.692 1485.58 L846.692 1481.64 Z" fill="#000000" fill-rule="evenodd" fill-opacity="1" /><path clip-path="url(#clip820)" d="M886.044 1454.1 Q882.433 1454.1 880.604 1457.66 Q878.798 1461.2 878.798 1468.33 Q878.798 1475.44 880.604 1479.01 Q882.433 1482.55 886.044 1482.55 Q889.678 1482.55 891.484 1479.01 Q893.312 1475.44 893.312 1468.33 Q893.312 1461.2 891.484 1457.66 Q889.678 1454.1 886.044 1454.1 M886.044 1450.39 Q891.854 1450.39 894.909 1455 Q897.988 1459.58 897.988 1468.33 Q897.988 1477.06 894.909 1481.67 Q891.854 1486.25 886.044 1486.25 Q880.234 1486.25 877.155 1481.67 Q874.099 1477.06 874.099 1468.33 Q874.099 1459.58 877.155 1455 Q880.234 1450.39 886.044 1450.39 Z" fill="#000000" fill-rule="evenodd" fill-opacity="1" /><path clip-path="url(#clip820)" d="M1143.34 1481.64 L1150.98 1481.64 L1150.98 1455.28 L1142.67 1456.95 L1142.67 1452.69 L1150.93 1451.02 L1155.61 1451.02 L1155.61 1481.64 L1163.25 1481.64 L1163.25 1485.58 L1143.34 1485.58 L1143.34 1481.64 Z" fill="#000000" fill-rule="evenodd" fill-opacity="1" /><path clip-path="url(#clip820)" d="M1172.74 1451.02 L1191.09 1451.02 L1191.09 1454.96 L1177.02 1454.96 L1177.02 1463.43 Q1178.04 1463.08 1179.06 1462.92 Q1180.08 1462.73 1181.09 1462.73 Q1186.88 1462.73 1190.26 1465.9 Q1193.64 1469.08 1193.64 1474.49 Q1193.64 1480.07 1190.17 1483.17 Q1186.7 1486.25 1180.38 1486.25 Q1178.2 1486.25 1175.93 1485.88 Q1173.69 1485.51 1171.28 1484.77 L1171.28 1480.07 Q1173.36 1481.2 1175.59 1481.76 Q1177.81 1482.32 1180.28 1482.32 Q1184.29 1482.32 1186.63 1480.21 Q1188.96 1478.1 1188.96 1474.49 Q1188.96 1470.88 1186.63 1468.77 Q1184.29 1466.67 1180.28 1466.67 Q1178.41 1466.67 1176.53 1467.08 Q1174.68 1467.5 1172.74 1468.38 L1172.74 1451.02 Z" fill="#000000" fill-rule="evenodd" fill-opacity="1" /><path clip-path="url(#clip820)" d="M1443.08 1481.64 L1459.4 1481.64 L1459.4 1485.58 L1437.45 1485.58 L1437.45 1481.64 Q1440.12 1478.89 1444.7 1474.26 Q1449.31 1469.61 1450.49 1468.27 Q1452.73 1465.74 1453.61 1464.01 Q1454.51 1462.25 1454.51 1460.56 Q1454.51 1457.8 1452.57 1456.07 Q1450.65 1454.33 1447.55 1454.33 Q1445.35 1454.33 1442.89 1455.09 Q1440.46 1455.86 1437.68 1457.41 L1437.68 1452.69 Q1440.51 1451.55 1442.96 1450.97 Q1445.42 1450.39 1447.45 1450.39 Q1452.82 1450.39 1456.02 1453.08 Q1459.21 1455.77 1459.21 1460.26 Q1459.21 1462.39 1458.4 1464.31 Q1457.62 1466.2 1455.51 1468.8 Q1454.93 1469.47 1451.83 1472.69 Q1448.73 1475.88 1443.08 1481.64 Z" fill="#000000" fill-rule="evenodd" fill-opacity="1" /><path clip-path="url(#clip820)" d="M1479.21 1454.1 Q1475.6 1454.1 1473.77 1457.66 Q1471.97 1461.2 1471.97 1468.33 Q1471.97 1475.44 1473.77 1479.01 Q1475.6 1482.55 1479.21 1482.55 Q1482.85 1482.55 1484.65 1479.01 Q1486.48 1475.44 1486.48 1468.33 Q1486.48 1461.2 1484.65 1457.66 Q1482.85 1454.1 1479.21 1454.1 M1479.21 1450.39 Q1485.02 1450.39 1488.08 1455 Q1491.16 1459.58 1491.16 1468.33 Q1491.16 1477.06 1488.08 1481.67 Q1485.02 1486.25 1479.21 1486.25 Q1473.4 1486.25 1470.32 1481.67 Q1467.27 1477.06 1467.27 1468.33 Q1467.27 1459.58 1470.32 1455 Q1473.4 1450.39 1479.21 1450.39 Z" fill="#000000" fill-rule="evenodd" fill-opacity="1" /><path clip-path="url(#clip820)" d="M1739.73 1481.64 L1756.05 1481.64 L1756.05 1485.58 L1734.1 1485.58 L1734.1 1481.64 Q1736.76 1478.89 1741.35 1474.26 Q1745.95 1469.61 1747.13 1468.27 Q1749.38 1465.74 1750.26 1464.01 Q1751.16 1462.25 1751.16 1460.56 Q1751.16 1457.8 1749.22 1456.07 Q1747.3 1454.33 1744.19 1454.33 Q1741.99 1454.33 1739.54 1455.09 Q1737.11 1455.86 1734.33 1457.41 L1734.33 1452.69 Q1737.16 1451.55 1739.61 1450.97 Q1742.06 1450.39 1744.1 1450.39 Q1749.47 1450.39 1752.67 1453.08 Q1755.86 1455.77 1755.86 1460.26 Q1755.86 1462.39 1755.05 1464.31 Q1754.26 1466.2 1752.16 1468.8 Q1751.58 1469.47 1748.48 1472.69 Q1745.37 1475.88 1739.73 1481.64 Z" fill="#000000" fill-rule="evenodd" fill-opacity="1" /><path clip-path="url(#clip820)" d="M1765.91 1451.02 L1784.26 1451.02 L1784.26 1454.96 L1770.19 1454.96 L1770.19 1463.43 Q1771.21 1463.08 1772.23 1462.92 Q1773.24 1462.73 1774.26 1462.73 Q1780.05 1462.73 1783.43 1465.9 Q1786.81 1469.08 1786.81 1474.49 Q1786.81 1480.07 1783.34 1483.17 Q1779.86 1486.25 1773.55 1486.25 Q1771.37 1486.25 1769.1 1485.88 Q1766.86 1485.51 1764.45 1484.77 L1764.45 1480.07 Q1766.53 1481.2 1768.75 1481.76 Q1770.98 1482.32 1773.45 1482.32 Q1777.46 1482.32 1779.8 1480.21 Q1782.13 1478.1 1782.13 1474.49 Q1782.13 1470.88 1779.8 1468.77 Q1777.46 1466.67 1773.45 1466.67 Q1771.58 1466.67 1769.7 1467.08 Q1767.85 1467.5 1765.91 1468.38 L1765.91 1451.02 Z" fill="#000000" fill-rule="evenodd" fill-opacity="1" /><path clip-path="url(#clip820)" d="M2045.45 1466.95 Q2048.8 1467.66 2050.68 1469.93 Q2052.58 1472.2 2052.58 1475.53 Q2052.58 1480.65 2049.06 1483.45 Q2045.54 1486.25 2039.06 1486.25 Q2036.88 1486.25 2034.57 1485.81 Q2032.28 1485.39 2029.82 1484.54 L2029.82 1480.02 Q2031.77 1481.16 2034.08 1481.74 Q2036.4 1482.32 2038.92 1482.32 Q2043.32 1482.32 2045.61 1480.58 Q2047.93 1478.84 2047.93 1475.53 Q2047.93 1472.48 2045.77 1470.77 Q2043.64 1469.03 2039.82 1469.03 L2035.8 1469.03 L2035.8 1465.19 L2040.01 1465.19 Q2043.46 1465.19 2045.29 1463.82 Q2047.11 1462.43 2047.11 1459.84 Q2047.11 1457.18 2045.22 1455.77 Q2043.34 1454.33 2039.82 1454.33 Q2037.9 1454.33 2035.7 1454.75 Q2033.5 1455.16 2030.87 1456.04 L2030.87 1451.88 Q2033.53 1451.14 2035.84 1450.77 Q2038.18 1450.39 2040.24 1450.39 Q2045.56 1450.39 2048.67 1452.83 Q2051.77 1455.23 2051.77 1459.35 Q2051.77 1462.22 2050.12 1464.21 Q2048.48 1466.18 2045.45 1466.95 Z" fill="#000000" fill-rule="evenodd" fill-opacity="1" /><path clip-path="url(#clip820)" d="M2071.44 1454.1 Q2067.83 1454.1 2066 1457.66 Q2064.2 1461.2 2064.2 1468.33 Q2064.2 1475.44 2066 1479.01 Q2067.83 1482.55 2071.44 1482.55 Q2075.08 1482.55 2076.88 1479.01 Q2078.71 1475.44 2078.71 1468.33 Q2078.71 1461.2 2076.88 1457.66 Q2075.08 1454.1 2071.44 1454.1 M2071.44 1450.39 Q2077.25 1450.39 2080.31 1455 Q2083.39 1459.58 2083.39 1468.33 Q2083.39 1477.06 2080.31 1481.67 Q2077.25 1486.25 2071.44 1486.25 Q2065.63 1486.25 2062.55 1481.67 Q2059.5 1477.06 2059.5 1468.33 Q2059.5 1459.58 2062.55 1455 Q2065.63 1450.39 2071.44 1450.39 Z" fill="#000000" fill-rule="evenodd" fill-opacity="1" /><path clip-path="url(#clip820)" d="M2342.1 1466.95 Q2345.45 1467.66 2347.33 1469.93 Q2349.23 1472.2 2349.23 1475.53 Q2349.23 1480.65 2345.71 1483.45 Q2342.19 1486.25 2335.71 1486.25 Q2333.53 1486.25 2331.22 1485.81 Q2328.93 1485.39 2326.47 1484.54 L2326.47 1480.02 Q2328.42 1481.16 2330.73 1481.74 Q2333.05 1482.32 2335.57 1482.32 Q2339.97 1482.32 2342.26 1480.58 Q2344.57 1478.84 2344.57 1475.53 Q2344.57 1472.48 2342.42 1470.77 Q2340.29 1469.03 2336.47 1469.03 L2332.44 1469.03 L2332.44 1465.19 L2336.66 1465.19 Q2340.11 1465.19 2341.93 1463.82 Q2343.76 1462.43 2343.76 1459.84 Q2343.76 1457.18 2341.86 1455.77 Q2339.99 1454.33 2336.47 1454.33 Q2334.55 1454.33 2332.35 1454.75 Q2330.15 1455.16 2327.51 1456.04 L2327.51 1451.88 Q2330.18 1451.14 2332.49 1450.77 Q2334.83 1450.39 2336.89 1450.39 Q2342.21 1450.39 2345.31 1452.83 Q2348.42 1455.23 2348.42 1459.35 Q2348.42 1462.22 2346.77 1464.21 Q2345.13 1466.18 2342.1 1466.95 Z" fill="#000000" fill-rule="evenodd" fill-opacity="1" /><path clip-path="url(#clip820)" d="M2358.14 1451.02 L2376.49 1451.02 L2376.49 1454.96 L2362.42 1454.96 L2362.42 1463.43 Q2363.44 1463.08 2364.46 1462.92 Q2365.48 1462.73 2366.49 1462.73 Q2372.28 1462.73 2375.66 1465.9 Q2379.04 1469.08 2379.04 1474.49 Q2379.04 1480.07 2375.57 1483.17 Q2372.1 1486.25 2365.78 1486.25 Q2363.6 1486.25 2361.33 1485.88 Q2359.09 1485.51 2356.68 1484.77 L2356.68 1480.07 Q2358.76 1481.2 2360.99 1481.76 Q2363.21 1482.32 2365.68 1482.32 Q2369.69 1482.32 2372.03 1480.21 Q2374.36 1478.1 2374.36 1474.49 Q2374.36 1470.88 2372.03 1468.77 Q2369.69 1466.67 2365.68 1466.67 Q2363.81 1466.67 2361.93 1467.08 Q2360.08 1467.5 2358.14 1468.38 L2358.14 1451.02 Z" fill="#000000" fill-rule="evenodd" fill-opacity="1" /><path clip-path="url(#clip820)" d="M1145.1 1522.08 L1145.1 1528.35 Q1141.44 1526.6 1138.2 1525.74 Q1134.95 1524.88 1131.93 1524.88 Q1126.68 1524.88 1123.81 1526.92 Q1120.98 1528.96 1120.98 1532.71 Q1120.98 1535.87 1122.86 1537.49 Q1124.77 1539.08 1130.05 1540.07 L1133.93 1540.86 Q1141.13 1542.23 1144.53 1545.7 Q1147.97 1549.14 1147.97 1554.93 Q1147.97 1561.84 1143.32 1565.4 Q1138.71 1568.97 1129.76 1568.97 Q1126.39 1568.97 1122.57 1568.2 Q1118.78 1567.44 1114.71 1565.94 L1114.71 1559.32 Q1118.62 1561.52 1122.38 1562.63 Q1126.13 1563.75 1129.76 1563.75 Q1135.27 1563.75 1138.26 1561.58 Q1141.25 1559.42 1141.25 1555.41 Q1141.25 1551.91 1139.09 1549.93 Q1136.96 1547.96 1132.05 1546.97 L1128.14 1546.21 Q1120.95 1544.78 1117.73 1541.72 Q1114.52 1538.67 1114.52 1533.22 Q1114.52 1526.92 1118.94 1523.29 Q1123.4 1519.66 1131.19 1519.66 Q1134.54 1519.66 1138.01 1520.27 Q1141.48 1520.87 1145.1 1522.08 Z" fill="#000000" fill-rule="evenodd" fill-opacity="1" /><path clip-path="url(#clip820)" d="M1157.74 1532.4 L1163.6 1532.4 L1163.6 1568.04 L1157.74 1568.04 L1157.74 1532.4 M1157.74 1518.52 L1163.6 1518.52 L1163.6 1525.93 L1157.74 1525.93 L1157.74 1518.52 Z" fill="#000000" fill-rule="evenodd" fill-opacity="1" /><path clip-path="url(#clip820)" d="M1181.64 1522.27 L1181.64 1532.4 L1193.71 1532.4 L1193.71 1536.95 L1181.64 1536.95 L1181.64 1556.3 Q1181.64 1560.66 1182.82 1561.9 Q1184.03 1563.14 1187.69 1563.14 L1193.71 1563.14 L1193.71 1568.04 L1187.69 1568.04 Q1180.91 1568.04 1178.33 1565.53 Q1175.75 1562.98 1175.75 1556.3 L1175.75 1536.95 L1171.46 1536.95 L1171.46 1532.4 L1175.75 1532.4 L1175.75 1522.27 L1181.64 1522.27 Z" fill="#000000" fill-rule="evenodd" fill-opacity="1" /><path clip-path="url(#clip820)" d="M1231.9 1548.76 L1231.9 1551.62 L1204.97 1551.62 Q1205.36 1557.67 1208.6 1560.85 Q1211.88 1564 1217.7 1564 Q1221.08 1564 1224.23 1563.17 Q1227.41 1562.35 1230.53 1560.69 L1230.53 1566.23 Q1227.38 1567.57 1224.07 1568.27 Q1220.76 1568.97 1217.35 1568.97 Q1208.82 1568.97 1203.83 1564 Q1198.86 1559.04 1198.86 1550.57 Q1198.86 1541.82 1203.57 1536.69 Q1208.32 1531.54 1216.34 1531.54 Q1223.53 1531.54 1227.7 1536.18 Q1231.9 1540.8 1231.9 1548.76 M1226.04 1547.04 Q1225.98 1542.23 1223.34 1539.37 Q1220.73 1536.5 1216.4 1536.5 Q1211.5 1536.5 1208.54 1539.27 Q1205.61 1542.04 1205.16 1547.07 L1226.04 1547.04 Z" fill="#000000" fill-rule="evenodd" fill-opacity="1" /><path clip-path="url(#clip820)" d="M1262.49 1520.52 L1271.14 1520.52 L1292.22 1560.28 L1292.22 1520.52 L1298.45 1520.52 L1298.45 1568.04 L1289.8 1568.04 L1268.73 1528.29 L1268.73 1568.04 L1262.49 1568.04 L1262.49 1520.52 Z" fill="#000000" fill-rule="evenodd" fill-opacity="1" /><path clip-path="url(#clip820)" d="M1310.39 1553.98 L1310.39 1532.4 L1316.25 1532.4 L1316.25 1553.75 Q1316.25 1558.81 1318.22 1561.36 Q1320.19 1563.87 1324.14 1563.87 Q1328.88 1563.87 1331.62 1560.85 Q1334.39 1557.83 1334.39 1552.61 L1334.39 1532.4 L1340.24 1532.4 L1340.24 1568.04 L1334.39 1568.04 L1334.39 1562.57 Q1332.26 1565.82 1329.42 1567.41 Q1326.62 1568.97 1322.9 1568.97 Q1316.76 1568.97 1313.57 1565.15 Q1310.39 1561.33 1310.39 1553.98 M1325.13 1531.54 L1325.13 1531.54 Z" fill="#000000" fill-rule="evenodd" fill-opacity="1" /><path clip-path="url(#clip820)" d="M1380.06 1539.24 Q1382.26 1535.29 1385.31 1533.41 Q1388.37 1531.54 1392.51 1531.54 Q1398.08 1531.54 1401.1 1535.45 Q1404.12 1539.33 1404.12 1546.53 L1404.12 1568.04 L1398.24 1568.04 L1398.24 1546.72 Q1398.24 1541.59 1396.42 1539.11 Q1394.61 1536.63 1390.88 1536.63 Q1386.33 1536.63 1383.69 1539.65 Q1381.05 1542.68 1381.05 1547.9 L1381.05 1568.04 L1375.16 1568.04 L1375.16 1546.72 Q1375.16 1541.56 1373.35 1539.11 Q1371.53 1536.63 1367.74 1536.63 Q1363.26 1536.63 1360.61 1539.68 Q1357.97 1542.71 1357.97 1547.9 L1357.97 1568.04 L1352.08 1568.04 L1352.08 1532.4 L1357.97 1532.4 L1357.97 1537.93 Q1359.98 1534.66 1362.78 1533.1 Q1365.58 1531.54 1369.43 1531.54 Q1373.31 1531.54 1376.02 1533.51 Q1378.76 1535.48 1380.06 1539.24 Z" fill="#000000" fill-rule="evenodd" fill-opacity="1" /><path clip-path="url(#clip820)" d="M1441.4 1550.25 Q1441.4 1543.79 1438.72 1540.13 Q1436.08 1536.44 1431.43 1536.44 Q1426.79 1536.44 1424.11 1540.13 Q1421.47 1543.79 1421.47 1550.25 Q1421.47 1556.71 1424.11 1560.4 Q1426.79 1564.07 1431.43 1564.07 Q1436.08 1564.07 1438.72 1560.4 Q1441.4 1556.71 1441.4 1550.25 M1421.47 1537.81 Q1423.32 1534.62 1426.12 1533.1 Q1428.95 1531.54 1432.87 1531.54 Q1439.36 1531.54 1443.4 1536.69 Q1447.47 1541.85 1447.47 1550.25 Q1447.47 1558.65 1443.4 1563.81 Q1439.36 1568.97 1432.87 1568.97 Q1428.95 1568.97 1426.12 1567.44 Q1423.32 1565.88 1421.47 1562.7 L1421.47 1568.04 L1415.58 1568.04 L1415.58 1518.52 L1421.47 1518.52 L1421.47 1537.81 Z" fill="#000000" fill-rule="evenodd" fill-opacity="1" /><path clip-path="url(#clip820)" d="M1487.67 1548.76 L1487.67 1551.62 L1460.75 1551.62 Q1461.13 1557.67 1464.38 1560.85 Q1467.65 1564 1473.48 1564 Q1476.85 1564 1480 1563.17 Q1483.19 1562.35 1486.31 1560.69 L1486.31 1566.23 Q1483.15 1567.57 1479.84 1568.27 Q1476.53 1568.97 1473.13 1568.97 Q1464.6 1568.97 1459.6 1564 Q1454.64 1559.04 1454.64 1550.57 Q1454.64 1541.82 1459.35 1536.69 Q1464.09 1531.54 1472.11 1531.54 Q1479.3 1531.54 1483.47 1536.18 Q1487.67 1540.8 1487.67 1548.76 M1481.82 1547.04 Q1481.75 1542.23 1479.11 1539.37 Q1476.5 1536.5 1472.17 1536.5 Q1467.27 1536.5 1464.31 1539.27 Q1461.38 1542.04 1460.94 1547.07 L1481.82 1547.04 Z" fill="#000000" fill-rule="evenodd" fill-opacity="1" /><path clip-path="url(#clip820)" d="M1517.94 1537.87 Q1516.96 1537.3 1515.78 1537.04 Q1514.63 1536.76 1513.23 1536.76 Q1508.27 1536.76 1505.59 1540 Q1502.95 1543.22 1502.95 1549.27 L1502.95 1568.04 L1497.06 1568.04 L1497.06 1532.4 L1502.95 1532.4 L1502.95 1537.93 Q1504.8 1534.69 1507.76 1533.13 Q1510.72 1531.54 1514.95 1531.54 Q1515.56 1531.54 1516.29 1531.63 Q1517.02 1531.7 1517.91 1531.85 L1517.94 1537.87 Z" fill="#000000" fill-rule="evenodd" fill-opacity="1" /><polyline clip-path="url(#clip822)" style="stroke:#000000; stroke-linecap:round; stroke-linejoin:round; stroke-width:2; stroke-opacity:0.1; fill:none" points="
  279.704,1423.18 2352.76,1423.18 
  "/>
<polyline clip-path="url(#clip822)" style="stroke:#000000; stroke-linecap:round; stroke-linejoin:round; stroke-width:2; stroke-opacity:0.1; fill:none" points="
  279.704,1318.36 2352.76,1318.36 
  "/>
<polyline clip-path="url(#clip822)" style="stroke:#000000; stroke-linecap:round; stroke-linejoin:round; stroke-width:2; stroke-opacity:0.1; fill:none" points="
  279.704,1213.55 2352.76,1213.55 
  "/>
<polyline clip-path="url(#clip822)" style="stroke:#000000; stroke-linecap:round; stroke-linejoin:round; stroke-width:2; stroke-opacity:0.1; fill:none" points="
  279.704,1108.73 2352.76,1108.73 
  "/>
<polyline clip-path="url(#clip822)" style="stroke:#000000; stroke-linecap:round; stroke-linejoin:round; stroke-width:2; stroke-opacity:0.1; fill:none" points="
  279.704,1003.92 2352.76,1003.92 
  "/>
<polyline clip-path="url(#clip822)" style="stroke:#000000; stroke-linecap:round; stroke-linejoin:round; stroke-width:2; stroke-opacity:0.1; fill:none" points="
  279.704,899.104 2352.76,899.104 
  "/>
<polyline clip-path="url(#clip822)" style="stroke:#000000; stroke-linecap:round; stroke-linejoin:round; stroke-width:2; stroke-opacity:0.1; fill:none" points="
  279.704,794.289 2352.76,794.289 
  "/>
<polyline clip-path="url(#clip822)" style="stroke:#000000; stroke-linecap:round; stroke-linejoin:round; stroke-width:2; stroke-opacity:0.1; fill:none" points="
  279.704,689.474 2352.76,689.474 
  "/>
<polyline clip-path="url(#clip822)" style="stroke:#000000; stroke-linecap:round; stroke-linejoin:round; stroke-width:2; stroke-opacity:0.1; fill:none" points="
  279.704,584.659 2352.76,584.659 
  "/>
<polyline clip-path="url(#clip822)" style="stroke:#000000; stroke-linecap:round; stroke-linejoin:round; stroke-width:2; stroke-opacity:0.1; fill:none" points="
  279.704,479.844 2352.76,479.844 
  "/>
<polyline clip-path="url(#clip822)" style="stroke:#000000; stroke-linecap:round; stroke-linejoin:round; stroke-width:2; stroke-opacity:0.1; fill:none" points="
  279.704,375.028 2352.76,375.028 
  "/>
<polyline clip-path="url(#clip822)" style="stroke:#000000; stroke-linecap:round; stroke-linejoin:round; stroke-width:2; stroke-opacity:0.1; fill:none" points="
  279.704,270.213 2352.76,270.213 
  "/>
<polyline clip-path="url(#clip822)" style="stroke:#000000; stroke-linecap:round; stroke-linejoin:round; stroke-width:2; stroke-opacity:0.1; fill:none" points="
  279.704,165.398 2352.76,165.398 
  "/>
<polyline clip-path="url(#clip820)" style="stroke:#000000; stroke-linecap:round; stroke-linejoin:round; stroke-width:4; stroke-opacity:1; fill:none" points="
  279.704,1423.18 279.704,123.472 
  "/>
<polyline clip-path="url(#clip820)" style="stroke:#000000; stroke-linecap:round; stroke-linejoin:round; stroke-width:4; stroke-opacity:1; fill:none" points="
  279.704,1423.18 298.602,1423.18 
  "/>
<polyline clip-path="url(#clip820)" style="stroke:#000000; stroke-linecap:round; stroke-linejoin:round; stroke-width:4; stroke-opacity:1; fill:none" points="
  279.704,1318.36 298.602,1318.36 
  "/>
<polyline clip-path="url(#clip820)" style="stroke:#000000; stroke-linecap:round; stroke-linejoin:round; stroke-width:4; stroke-opacity:1; fill:none" points="
  279.704,1213.55 298.602,1213.55 
  "/>
<polyline clip-path="url(#clip820)" style="stroke:#000000; stroke-linecap:round; stroke-linejoin:round; stroke-width:4; stroke-opacity:1; fill:none" points="
  279.704,1108.73 298.602,1108.73 
  "/>
<polyline clip-path="url(#clip820)" style="stroke:#000000; stroke-linecap:round; stroke-linejoin:round; stroke-width:4; stroke-opacity:1; fill:none" points="
  279.704,1003.92 298.602,1003.92 
  "/>
<polyline clip-path="url(#clip820)" style="stroke:#000000; stroke-linecap:round; stroke-linejoin:round; stroke-width:4; stroke-opacity:1; fill:none" points="
  279.704,899.104 298.602,899.104 
  "/>
<polyline clip-path="url(#clip820)" style="stroke:#000000; stroke-linecap:round; stroke-linejoin:round; stroke-width:4; stroke-opacity:1; fill:none" points="
  279.704,794.289 298.602,794.289 
  "/>
<polyline clip-path="url(#clip820)" style="stroke:#000000; stroke-linecap:round; stroke-linejoin:round; stroke-width:4; stroke-opacity:1; fill:none" points="
  279.704,689.474 298.602,689.474 
  "/>
<polyline clip-path="url(#clip820)" style="stroke:#000000; stroke-linecap:round; stroke-linejoin:round; stroke-width:4; stroke-opacity:1; fill:none" points="
  279.704,584.659 298.602,584.659 
  "/>
<polyline clip-path="url(#clip820)" style="stroke:#000000; stroke-linecap:round; stroke-linejoin:round; stroke-width:4; stroke-opacity:1; fill:none" points="
  279.704,479.844 298.602,479.844 
  "/>
<polyline clip-path="url(#clip820)" style="stroke:#000000; stroke-linecap:round; stroke-linejoin:round; stroke-width:4; stroke-opacity:1; fill:none" points="
  279.704,375.028 298.602,375.028 
  "/>
<polyline clip-path="url(#clip820)" style="stroke:#000000; stroke-linecap:round; stroke-linejoin:round; stroke-width:4; stroke-opacity:1; fill:none" points="
  279.704,270.213 298.602,270.213 
  "/>
<polyline clip-path="url(#clip820)" style="stroke:#000000; stroke-linecap:round; stroke-linejoin:round; stroke-width:4; stroke-opacity:1; fill:none" points="
  279.704,165.398 298.602,165.398 
  "/>
<path clip-path="url(#clip820)" d="M126.205 1408.98 Q122.593 1408.98 120.765 1412.54 Q118.959 1416.08 118.959 1423.21 Q118.959 1430.32 120.765 1433.89 Q122.593 1437.43 126.205 1437.43 Q129.839 1437.43 131.644 1433.89 Q133.473 1430.32 133.473 1423.21 Q133.473 1416.08 131.644 1412.54 Q129.839 1408.98 126.205 1408.98 M126.205 1405.27 Q132.015 1405.27 135.07 1409.88 Q138.149 1414.46 138.149 1423.21 Q138.149 1431.94 135.07 1436.55 Q132.015 1441.13 126.205 1441.13 Q120.394 1441.13 117.316 1436.55 Q114.26 1431.94 114.26 1423.21 Q114.26 1414.46 117.316 1409.88 Q120.394 1405.27 126.205 1405.27 Z" fill="#000000" fill-rule="evenodd" fill-opacity="1" /><path clip-path="url(#clip820)" d="M146.366 1434.58 L151.251 1434.58 L151.251 1440.46 L146.366 1440.46 L146.366 1434.58 Z" fill="#000000" fill-rule="evenodd" fill-opacity="1" /><path clip-path="url(#clip820)" d="M174.283 1409.97 L162.477 1428.42 L174.283 1428.42 L174.283 1409.97 M173.056 1405.9 L178.936 1405.9 L178.936 1428.42 L183.866 1428.42 L183.866 1432.31 L178.936 1432.31 L178.936 1440.46 L174.283 1440.46 L174.283 1432.31 L158.681 1432.31 L158.681 1427.8 L173.056 1405.9 Z" fill="#000000" fill-rule="evenodd" fill-opacity="1" /><path clip-path="url(#clip820)" d="M195.625 1436.52 L211.945 1436.52 L211.945 1440.46 L190 1440.46 L190 1436.52 Q192.663 1433.77 197.246 1429.14 Q201.852 1424.49 203.033 1423.15 Q205.278 1420.62 206.158 1418.89 Q207.061 1417.13 207.061 1415.44 Q207.061 1412.68 205.116 1410.95 Q203.195 1409.21 200.093 1409.21 Q197.894 1409.21 195.44 1409.97 Q193.01 1410.74 190.232 1412.29 L190.232 1407.57 Q193.056 1406.43 195.51 1405.85 Q197.963 1405.27 200 1405.27 Q205.371 1405.27 208.565 1407.96 Q211.76 1410.65 211.76 1415.14 Q211.76 1417.27 210.949 1419.19 Q210.162 1421.08 208.056 1423.68 Q207.477 1424.35 204.375 1427.57 Q201.274 1430.76 195.625 1436.52 Z" fill="#000000" fill-rule="evenodd" fill-opacity="1" /><path clip-path="url(#clip820)" d="M231.76 1408.98 Q228.148 1408.98 226.32 1412.54 Q224.514 1416.08 224.514 1423.21 Q224.514 1430.32 226.32 1433.89 Q228.148 1437.43 231.76 1437.43 Q235.394 1437.43 237.199 1433.89 Q239.028 1430.32 239.028 1423.21 Q239.028 1416.08 237.199 1412.54 Q235.394 1408.98 231.76 1408.98 M231.76 1405.27 Q237.57 1405.27 240.625 1409.88 Q243.704 1414.46 243.704 1423.21 Q243.704 1431.94 240.625 1436.55 Q237.57 1441.13 231.76 1441.13 Q225.949 1441.13 222.871 1436.55 Q219.815 1431.94 219.815 1423.21 Q219.815 1414.46 222.871 1409.88 Q225.949 1405.27 231.76 1405.27 Z" fill="#000000" fill-rule="evenodd" fill-opacity="1" /><path clip-path="url(#clip820)" d="M127.2 1304.16 Q123.589 1304.16 121.76 1307.73 Q119.955 1311.27 119.955 1318.4 Q119.955 1325.51 121.76 1329.07 Q123.589 1332.61 127.2 1332.61 Q130.834 1332.61 132.64 1329.07 Q134.468 1325.51 134.468 1318.4 Q134.468 1311.27 132.64 1307.73 Q130.834 1304.16 127.2 1304.16 M127.2 1300.46 Q133.01 1300.46 136.066 1305.07 Q139.144 1309.65 139.144 1318.4 Q139.144 1327.13 136.066 1331.73 Q133.01 1336.32 127.2 1336.32 Q121.39 1336.32 118.311 1331.73 Q115.256 1327.13 115.256 1318.4 Q115.256 1309.65 118.311 1305.07 Q121.39 1300.46 127.2 1300.46 Z" fill="#000000" fill-rule="evenodd" fill-opacity="1" /><path clip-path="url(#clip820)" d="M147.362 1329.77 L152.246 1329.77 L152.246 1335.64 L147.362 1335.64 L147.362 1329.77 Z" fill="#000000" fill-rule="evenodd" fill-opacity="1" /><path clip-path="url(#clip820)" d="M175.278 1305.16 L163.473 1323.61 L175.278 1323.61 L175.278 1305.16 M174.052 1301.08 L179.931 1301.08 L179.931 1323.61 L184.862 1323.61 L184.862 1327.5 L179.931 1327.5 L179.931 1335.64 L175.278 1335.64 L175.278 1327.5 L159.677 1327.5 L159.677 1322.98 L174.052 1301.08 Z" fill="#000000" fill-rule="evenodd" fill-opacity="1" /><path clip-path="url(#clip820)" d="M196.621 1331.71 L212.94 1331.71 L212.94 1335.64 L190.996 1335.64 L190.996 1331.71 Q193.658 1328.95 198.241 1324.33 Q202.848 1319.67 204.028 1318.33 Q206.274 1315.81 207.153 1314.07 Q208.056 1312.31 208.056 1310.62 Q208.056 1307.87 206.112 1306.13 Q204.19 1304.39 201.088 1304.39 Q198.889 1304.39 196.436 1305.16 Q194.005 1305.92 191.227 1307.47 L191.227 1302.75 Q194.051 1301.62 196.505 1301.04 Q198.959 1300.46 200.996 1300.46 Q206.366 1300.46 209.561 1303.14 Q212.755 1305.83 212.755 1310.32 Q212.755 1312.45 211.945 1314.37 Q211.158 1316.27 209.051 1318.86 Q208.473 1319.53 205.371 1322.75 Q202.269 1325.95 196.621 1331.71 Z" fill="#000000" fill-rule="evenodd" fill-opacity="1" /><path clip-path="url(#clip820)" d="M222.801 1301.08 L241.158 1301.08 L241.158 1305.02 L227.084 1305.02 L227.084 1313.49 Q228.102 1313.14 229.121 1312.98 Q230.139 1312.8 231.158 1312.8 Q236.945 1312.8 240.324 1315.97 Q243.704 1319.14 243.704 1324.56 Q243.704 1330.14 240.232 1333.24 Q236.76 1336.32 230.44 1336.32 Q228.264 1336.32 225.996 1335.95 Q223.75 1335.58 221.343 1334.83 L221.343 1330.14 Q223.426 1331.27 225.648 1331.83 Q227.871 1332.38 230.347 1332.38 Q234.352 1332.38 236.69 1330.27 Q239.028 1328.17 239.028 1324.56 Q239.028 1320.95 236.69 1318.84 Q234.352 1316.73 230.347 1316.73 Q228.473 1316.73 226.598 1317.15 Q224.746 1317.57 222.801 1318.45 L222.801 1301.08 Z" fill="#000000" fill-rule="evenodd" fill-opacity="1" /><path clip-path="url(#clip820)" d="M126.205 1199.35 Q122.593 1199.35 120.765 1202.91 Q118.959 1206.45 118.959 1213.58 Q118.959 1220.69 120.765 1224.26 Q122.593 1227.8 126.205 1227.8 Q129.839 1227.8 131.644 1224.26 Q133.473 1220.69 133.473 1213.58 Q133.473 1206.45 131.644 1202.91 Q129.839 1199.35 126.205 1199.35 M126.205 1195.64 Q132.015 1195.64 135.07 1200.25 Q138.149 1204.83 138.149 1213.58 Q138.149 1222.31 135.07 1226.92 Q132.015 1231.5 126.205 1231.5 Q120.394 1231.5 117.316 1226.92 Q114.26 1222.31 114.26 1213.58 Q114.26 1204.83 117.316 1200.25 Q120.394 1195.64 126.205 1195.64 Z" fill="#000000" fill-rule="evenodd" fill-opacity="1" /><path clip-path="url(#clip820)" d="M146.366 1224.95 L151.251 1224.95 L151.251 1230.83 L146.366 1230.83 L146.366 1224.95 Z" fill="#000000" fill-rule="evenodd" fill-opacity="1" /><path clip-path="url(#clip820)" d="M174.283 1200.34 L162.477 1218.79 L174.283 1218.79 L174.283 1200.34 M173.056 1196.27 L178.936 1196.27 L178.936 1218.79 L183.866 1218.79 L183.866 1222.68 L178.936 1222.68 L178.936 1230.83 L174.283 1230.83 L174.283 1222.68 L158.681 1222.68 L158.681 1218.17 L173.056 1196.27 Z" fill="#000000" fill-rule="evenodd" fill-opacity="1" /><path clip-path="url(#clip820)" d="M205.764 1212.2 Q209.121 1212.91 210.996 1215.18 Q212.894 1217.45 212.894 1220.78 Q212.894 1225.9 209.375 1228.7 Q205.857 1231.5 199.375 1231.5 Q197.2 1231.5 194.885 1231.06 Q192.593 1230.64 190.139 1229.79 L190.139 1225.27 Q192.084 1226.41 194.399 1226.99 Q196.713 1227.57 199.237 1227.57 Q203.635 1227.57 205.926 1225.83 Q208.241 1224.09 208.241 1220.78 Q208.241 1217.73 206.088 1216.01 Q203.959 1214.28 200.139 1214.28 L196.112 1214.28 L196.112 1210.44 L200.325 1210.44 Q203.774 1210.44 205.602 1209.07 Q207.431 1207.68 207.431 1205.09 Q207.431 1202.43 205.533 1201.01 Q203.658 1199.58 200.139 1199.58 Q198.218 1199.58 196.019 1200 Q193.82 1200.41 191.181 1201.29 L191.181 1197.13 Q193.843 1196.39 196.158 1196.01 Q198.496 1195.64 200.556 1195.64 Q205.88 1195.64 208.982 1198.08 Q212.084 1200.48 212.084 1204.6 Q212.084 1207.47 210.44 1209.46 Q208.797 1211.43 205.764 1212.2 Z" fill="#000000" fill-rule="evenodd" fill-opacity="1" /><path clip-path="url(#clip820)" d="M231.76 1199.35 Q228.148 1199.35 226.32 1202.91 Q224.514 1206.45 224.514 1213.58 Q224.514 1220.69 226.32 1224.26 Q228.148 1227.8 231.76 1227.8 Q235.394 1227.8 237.199 1224.26 Q239.028 1220.69 239.028 1213.58 Q239.028 1206.45 237.199 1202.91 Q235.394 1199.35 231.76 1199.35 M231.76 1195.64 Q237.57 1195.64 240.625 1200.25 Q243.704 1204.83 243.704 1213.58 Q243.704 1222.31 240.625 1226.92 Q237.57 1231.5 231.76 1231.5 Q225.949 1231.5 222.871 1226.92 Q219.815 1222.31 219.815 1213.58 Q219.815 1204.83 222.871 1200.25 Q225.949 1195.64 231.76 1195.64 Z" fill="#000000" fill-rule="evenodd" fill-opacity="1" /><path clip-path="url(#clip820)" d="M127.2 1094.53 Q123.589 1094.53 121.76 1098.1 Q119.955 1101.64 119.955 1108.77 Q119.955 1115.88 121.76 1119.44 Q123.589 1122.98 127.2 1122.98 Q130.834 1122.98 132.64 1119.44 Q134.468 1115.88 134.468 1108.77 Q134.468 1101.64 132.64 1098.1 Q130.834 1094.53 127.2 1094.53 M127.2 1090.83 Q133.01 1090.83 136.066 1095.44 Q139.144 1100.02 139.144 1108.77 Q139.144 1117.5 136.066 1122.1 Q133.01 1126.69 127.2 1126.69 Q121.39 1126.69 118.311 1122.1 Q115.256 1117.5 115.256 1108.77 Q115.256 1100.02 118.311 1095.44 Q121.39 1090.83 127.2 1090.83 Z" fill="#000000" fill-rule="evenodd" fill-opacity="1" /><path clip-path="url(#clip820)" d="M147.362 1120.13 L152.246 1120.13 L152.246 1126.01 L147.362 1126.01 L147.362 1120.13 Z" fill="#000000" fill-rule="evenodd" fill-opacity="1" /><path clip-path="url(#clip820)" d="M175.278 1095.53 L163.473 1113.98 L175.278 1113.98 L175.278 1095.53 M174.052 1091.45 L179.931 1091.45 L179.931 1113.98 L184.862 1113.98 L184.862 1117.87 L179.931 1117.87 L179.931 1126.01 L175.278 1126.01 L175.278 1117.87 L159.677 1117.87 L159.677 1113.35 L174.052 1091.45 Z" fill="#000000" fill-rule="evenodd" fill-opacity="1" /><path clip-path="url(#clip820)" d="M206.76 1107.38 Q210.116 1108.1 211.991 1110.37 Q213.889 1112.63 213.889 1115.97 Q213.889 1121.08 210.371 1123.88 Q206.852 1126.69 200.371 1126.69 Q198.195 1126.69 195.88 1126.25 Q193.588 1125.83 191.135 1124.97 L191.135 1120.46 Q193.079 1121.59 195.394 1122.17 Q197.709 1122.75 200.232 1122.75 Q204.63 1122.75 206.922 1121.01 Q209.237 1119.28 209.237 1115.97 Q209.237 1112.91 207.084 1111.2 Q204.954 1109.46 201.135 1109.46 L197.107 1109.46 L197.107 1105.62 L201.32 1105.62 Q204.769 1105.62 206.598 1104.26 Q208.426 1102.87 208.426 1100.27 Q208.426 1097.61 206.528 1096.2 Q204.653 1094.76 201.135 1094.76 Q199.213 1094.76 197.014 1095.18 Q194.815 1095.6 192.176 1096.48 L192.176 1092.31 Q194.838 1091.57 197.153 1091.2 Q199.491 1090.83 201.551 1090.83 Q206.875 1090.83 209.977 1093.26 Q213.079 1095.67 213.079 1099.79 Q213.079 1102.66 211.436 1104.65 Q209.792 1106.62 206.76 1107.38 Z" fill="#000000" fill-rule="evenodd" fill-opacity="1" /><path clip-path="url(#clip820)" d="M222.801 1091.45 L241.158 1091.45 L241.158 1095.39 L227.084 1095.39 L227.084 1103.86 Q228.102 1103.51 229.121 1103.35 Q230.139 1103.17 231.158 1103.17 Q236.945 1103.17 240.324 1106.34 Q243.704 1109.51 243.704 1114.93 Q243.704 1120.51 240.232 1123.61 Q236.76 1126.69 230.44 1126.69 Q228.264 1126.69 225.996 1126.32 Q223.75 1125.94 221.343 1125.2 L221.343 1120.51 Q223.426 1121.64 225.648 1122.2 Q227.871 1122.75 230.347 1122.75 Q234.352 1122.75 236.69 1120.64 Q239.028 1118.54 239.028 1114.93 Q239.028 1111.32 236.69 1109.21 Q234.352 1107.1 230.347 1107.1 Q228.473 1107.1 226.598 1107.52 Q224.746 1107.94 222.801 1108.82 L222.801 1091.45 Z" fill="#000000" fill-rule="evenodd" fill-opacity="1" /><path clip-path="url(#clip820)" d="M126.205 989.718 Q122.593 989.718 120.765 993.283 Q118.959 996.824 118.959 1003.95 Q118.959 1011.06 120.765 1014.63 Q122.593 1018.17 126.205 1018.17 Q129.839 1018.17 131.644 1014.63 Q133.473 1011.06 133.473 1003.95 Q133.473 996.824 131.644 993.283 Q129.839 989.718 126.205 989.718 M126.205 986.014 Q132.015 986.014 135.07 990.621 Q138.149 995.204 138.149 1003.95 Q138.149 1012.68 135.07 1017.29 Q132.015 1021.87 126.205 1021.87 Q120.394 1021.87 117.316 1017.29 Q114.26 1012.68 114.26 1003.95 Q114.26 995.204 117.316 990.621 Q120.394 986.014 126.205 986.014 Z" fill="#000000" fill-rule="evenodd" fill-opacity="1" /><path clip-path="url(#clip820)" d="M146.366 1015.32 L151.251 1015.32 L151.251 1021.2 L146.366 1021.2 L146.366 1015.32 Z" fill="#000000" fill-rule="evenodd" fill-opacity="1" /><path clip-path="url(#clip820)" d="M174.283 990.713 L162.477 1009.16 L174.283 1009.16 L174.283 990.713 M173.056 986.639 L178.936 986.639 L178.936 1009.16 L183.866 1009.16 L183.866 1013.05 L178.936 1013.05 L178.936 1021.2 L174.283 1021.2 L174.283 1013.05 L158.681 1013.05 L158.681 1008.54 L173.056 986.639 Z" fill="#000000" fill-rule="evenodd" fill-opacity="1" /><path clip-path="url(#clip820)" d="M204.445 990.713 L192.639 1009.16 L204.445 1009.16 L204.445 990.713 M203.218 986.639 L209.098 986.639 L209.098 1009.16 L214.028 1009.16 L214.028 1013.05 L209.098 1013.05 L209.098 1021.2 L204.445 1021.2 L204.445 1013.05 L188.843 1013.05 L188.843 1008.54 L203.218 986.639 Z" fill="#000000" fill-rule="evenodd" fill-opacity="1" /><path clip-path="url(#clip820)" d="M231.76 989.718 Q228.148 989.718 226.32 993.283 Q224.514 996.824 224.514 1003.95 Q224.514 1011.06 226.32 1014.63 Q228.148 1018.17 231.76 1018.17 Q235.394 1018.17 237.199 1014.63 Q239.028 1011.06 239.028 1003.95 Q239.028 996.824 237.199 993.283 Q235.394 989.718 231.76 989.718 M231.76 986.014 Q237.57 986.014 240.625 990.621 Q243.704 995.204 243.704 1003.95 Q243.704 1012.68 240.625 1017.29 Q237.57 1021.87 231.76 1021.87 Q225.949 1021.87 222.871 1017.29 Q219.815 1012.68 219.815 1003.95 Q219.815 995.204 222.871 990.621 Q225.949 986.014 231.76 986.014 Z" fill="#000000" fill-rule="evenodd" fill-opacity="1" /><path clip-path="url(#clip820)" d="M127.2 884.903 Q123.589 884.903 121.76 888.468 Q119.955 892.009 119.955 899.139 Q119.955 906.245 121.76 909.81 Q123.589 913.352 127.2 913.352 Q130.834 913.352 132.64 909.81 Q134.468 906.245 134.468 899.139 Q134.468 892.009 132.64 888.468 Q130.834 884.903 127.2 884.903 M127.2 881.199 Q133.01 881.199 136.066 885.806 Q139.144 890.389 139.144 899.139 Q139.144 907.866 136.066 912.472 Q133.01 917.055 127.2 917.055 Q121.39 917.055 118.311 912.472 Q115.256 907.866 115.256 899.139 Q115.256 890.389 118.311 885.806 Q121.39 881.199 127.2 881.199 Z" fill="#000000" fill-rule="evenodd" fill-opacity="1" /><path clip-path="url(#clip820)" d="M147.362 910.505 L152.246 910.505 L152.246 916.384 L147.362 916.384 L147.362 910.505 Z" fill="#000000" fill-rule="evenodd" fill-opacity="1" /><path clip-path="url(#clip820)" d="M175.278 885.898 L163.473 904.347 L175.278 904.347 L175.278 885.898 M174.052 881.824 L179.931 881.824 L179.931 904.347 L184.862 904.347 L184.862 908.236 L179.931 908.236 L179.931 916.384 L175.278 916.384 L175.278 908.236 L159.677 908.236 L159.677 903.722 L174.052 881.824 Z" fill="#000000" fill-rule="evenodd" fill-opacity="1" /><path clip-path="url(#clip820)" d="M205.44 885.898 L193.635 904.347 L205.44 904.347 L205.44 885.898 M204.213 881.824 L210.093 881.824 L210.093 904.347 L215.024 904.347 L215.024 908.236 L210.093 908.236 L210.093 916.384 L205.44 916.384 L205.44 908.236 L189.838 908.236 L189.838 903.722 L204.213 881.824 Z" fill="#000000" fill-rule="evenodd" fill-opacity="1" /><path clip-path="url(#clip820)" d="M222.801 881.824 L241.158 881.824 L241.158 885.759 L227.084 885.759 L227.084 894.231 Q228.102 893.884 229.121 893.722 Q230.139 893.537 231.158 893.537 Q236.945 893.537 240.324 896.708 Q243.704 899.88 243.704 905.296 Q243.704 910.875 240.232 913.977 Q236.76 917.055 230.44 917.055 Q228.264 917.055 225.996 916.685 Q223.75 916.315 221.343 915.574 L221.343 910.875 Q223.426 912.009 225.648 912.565 Q227.871 913.12 230.347 913.12 Q234.352 913.12 236.69 911.014 Q239.028 908.907 239.028 905.296 Q239.028 901.685 236.69 899.579 Q234.352 897.472 230.347 897.472 Q228.473 897.472 226.598 897.889 Q224.746 898.306 222.801 899.185 L222.801 881.824 Z" fill="#000000" fill-rule="evenodd" fill-opacity="1" /><path clip-path="url(#clip820)" d="M126.205 780.088 Q122.593 780.088 120.765 783.652 Q118.959 787.194 118.959 794.324 Q118.959 801.43 120.765 804.995 Q122.593 808.537 126.205 808.537 Q129.839 808.537 131.644 804.995 Q133.473 801.43 133.473 794.324 Q133.473 787.194 131.644 783.652 Q129.839 780.088 126.205 780.088 M126.205 776.384 Q132.015 776.384 135.07 780.99 Q138.149 785.574 138.149 794.324 Q138.149 803.051 135.07 807.657 Q132.015 812.24 126.205 812.24 Q120.394 812.24 117.316 807.657 Q114.26 803.051 114.26 794.324 Q114.26 785.574 117.316 780.99 Q120.394 776.384 126.205 776.384 Z" fill="#000000" fill-rule="evenodd" fill-opacity="1" /><path clip-path="url(#clip820)" d="M146.366 805.689 L151.251 805.689 L151.251 811.569 L146.366 811.569 L146.366 805.689 Z" fill="#000000" fill-rule="evenodd" fill-opacity="1" /><path clip-path="url(#clip820)" d="M174.283 781.083 L162.477 799.532 L174.283 799.532 L174.283 781.083 M173.056 777.009 L178.936 777.009 L178.936 799.532 L183.866 799.532 L183.866 803.421 L178.936 803.421 L178.936 811.569 L174.283 811.569 L174.283 803.421 L158.681 803.421 L158.681 798.907 L173.056 777.009 Z" fill="#000000" fill-rule="evenodd" fill-opacity="1" /><path clip-path="url(#clip820)" d="M191.644 777.009 L210 777.009 L210 780.944 L195.926 780.944 L195.926 789.416 Q196.945 789.069 197.963 788.907 Q198.982 788.722 200 788.722 Q205.787 788.722 209.167 791.893 Q212.547 795.064 212.547 800.481 Q212.547 806.06 209.074 809.162 Q205.602 812.24 199.283 812.24 Q197.107 812.24 194.838 811.87 Q192.593 811.5 190.186 810.759 L190.186 806.06 Q192.269 807.194 194.491 807.75 Q196.713 808.305 199.19 808.305 Q203.195 808.305 205.533 806.199 Q207.871 804.092 207.871 800.481 Q207.871 796.87 205.533 794.764 Q203.195 792.657 199.19 792.657 Q197.315 792.657 195.44 793.074 Q193.588 793.49 191.644 794.37 L191.644 777.009 Z" fill="#000000" fill-rule="evenodd" fill-opacity="1" /><path clip-path="url(#clip820)" d="M231.76 780.088 Q228.148 780.088 226.32 783.652 Q224.514 787.194 224.514 794.324 Q224.514 801.43 226.32 804.995 Q228.148 808.537 231.76 808.537 Q235.394 808.537 237.199 804.995 Q239.028 801.43 239.028 794.324 Q239.028 787.194 237.199 783.652 Q235.394 780.088 231.76 780.088 M231.76 776.384 Q237.57 776.384 240.625 780.99 Q243.704 785.574 243.704 794.324 Q243.704 803.051 240.625 807.657 Q237.57 812.24 231.76 812.24 Q225.949 812.24 222.871 807.657 Q219.815 803.051 219.815 794.324 Q219.815 785.574 222.871 780.99 Q225.949 776.384 231.76 776.384 Z" fill="#000000" fill-rule="evenodd" fill-opacity="1" /><path clip-path="url(#clip820)" d="M127.2 675.273 Q123.589 675.273 121.76 678.837 Q119.955 682.379 119.955 689.509 Q119.955 696.615 121.76 700.18 Q123.589 703.721 127.2 703.721 Q130.834 703.721 132.64 700.18 Q134.468 696.615 134.468 689.509 Q134.468 682.379 132.64 678.837 Q130.834 675.273 127.2 675.273 M127.2 671.569 Q133.01 671.569 136.066 676.175 Q139.144 680.759 139.144 689.509 Q139.144 698.235 136.066 702.842 Q133.01 707.425 127.2 707.425 Q121.39 707.425 118.311 702.842 Q115.256 698.235 115.256 689.509 Q115.256 680.759 118.311 676.175 Q121.39 671.569 127.2 671.569 Z" fill="#000000" fill-rule="evenodd" fill-opacity="1" /><path clip-path="url(#clip820)" d="M147.362 700.874 L152.246 700.874 L152.246 706.754 L147.362 706.754 L147.362 700.874 Z" fill="#000000" fill-rule="evenodd" fill-opacity="1" /><path clip-path="url(#clip820)" d="M175.278 676.268 L163.473 694.717 L175.278 694.717 L175.278 676.268 M174.052 672.194 L179.931 672.194 L179.931 694.717 L184.862 694.717 L184.862 698.606 L179.931 698.606 L179.931 706.754 L175.278 706.754 L175.278 698.606 L159.677 698.606 L159.677 694.092 L174.052 672.194 Z" fill="#000000" fill-rule="evenodd" fill-opacity="1" /><path clip-path="url(#clip820)" d="M192.639 672.194 L210.996 672.194 L210.996 676.129 L196.922 676.129 L196.922 684.601 Q197.94 684.254 198.959 684.092 Q199.977 683.907 200.996 683.907 Q206.783 683.907 210.162 687.078 Q213.542 690.249 213.542 695.666 Q213.542 701.245 210.07 704.346 Q206.598 707.425 200.278 707.425 Q198.102 707.425 195.834 707.055 Q193.588 706.684 191.181 705.944 L191.181 701.245 Q193.264 702.379 195.487 702.934 Q197.709 703.49 200.186 703.49 Q204.19 703.49 206.528 701.384 Q208.866 699.277 208.866 695.666 Q208.866 692.055 206.528 689.948 Q204.19 687.842 200.186 687.842 Q198.311 687.842 196.436 688.259 Q194.584 688.675 192.639 689.555 L192.639 672.194 Z" fill="#000000" fill-rule="evenodd" fill-opacity="1" /><path clip-path="url(#clip820)" d="M222.801 672.194 L241.158 672.194 L241.158 676.129 L227.084 676.129 L227.084 684.601 Q228.102 684.254 229.121 684.092 Q230.139 683.907 231.158 683.907 Q236.945 683.907 240.324 687.078 Q243.704 690.249 243.704 695.666 Q243.704 701.245 240.232 704.346 Q236.76 707.425 230.44 707.425 Q228.264 707.425 225.996 707.055 Q223.75 706.684 221.343 705.944 L221.343 701.245 Q223.426 702.379 225.648 702.934 Q227.871 703.49 230.347 703.49 Q234.352 703.49 236.69 701.384 Q239.028 699.277 239.028 695.666 Q239.028 692.055 236.69 689.948 Q234.352 687.842 230.347 687.842 Q228.473 687.842 226.598 688.259 Q224.746 688.675 222.801 689.555 L222.801 672.194 Z" fill="#000000" fill-rule="evenodd" fill-opacity="1" /><path clip-path="url(#clip820)" d="M126.205 570.457 Q122.593 570.457 120.765 574.022 Q118.959 577.564 118.959 584.693 Q118.959 591.8 120.765 595.365 Q122.593 598.906 126.205 598.906 Q129.839 598.906 131.644 595.365 Q133.473 591.8 133.473 584.693 Q133.473 577.564 131.644 574.022 Q129.839 570.457 126.205 570.457 M126.205 566.754 Q132.015 566.754 135.07 571.36 Q138.149 575.944 138.149 584.693 Q138.149 593.42 135.07 598.027 Q132.015 602.61 126.205 602.61 Q120.394 602.61 117.316 598.027 Q114.26 593.42 114.26 584.693 Q114.26 575.944 117.316 571.36 Q120.394 566.754 126.205 566.754 Z" fill="#000000" fill-rule="evenodd" fill-opacity="1" /><path clip-path="url(#clip820)" d="M146.366 596.059 L151.251 596.059 L151.251 601.939 L146.366 601.939 L146.366 596.059 Z" fill="#000000" fill-rule="evenodd" fill-opacity="1" /><path clip-path="url(#clip820)" d="M174.283 571.453 L162.477 589.902 L174.283 589.902 L174.283 571.453 M173.056 567.379 L178.936 567.379 L178.936 589.902 L183.866 589.902 L183.866 593.791 L178.936 593.791 L178.936 601.939 L174.283 601.939 L174.283 593.791 L158.681 593.791 L158.681 589.277 L173.056 567.379 Z" fill="#000000" fill-rule="evenodd" fill-opacity="1" /><path clip-path="url(#clip820)" d="M202.176 582.795 Q199.028 582.795 197.176 584.948 Q195.348 587.101 195.348 590.851 Q195.348 594.578 197.176 596.754 Q199.028 598.906 202.176 598.906 Q205.324 598.906 207.153 596.754 Q209.005 594.578 209.005 590.851 Q209.005 587.101 207.153 584.948 Q205.324 582.795 202.176 582.795 M211.459 568.143 L211.459 572.402 Q209.699 571.569 207.894 571.129 Q206.112 570.689 204.352 570.689 Q199.723 570.689 197.269 573.814 Q194.838 576.939 194.491 583.258 Q195.857 581.244 197.917 580.18 Q199.977 579.092 202.454 579.092 Q207.662 579.092 210.672 582.263 Q213.704 585.411 213.704 590.851 Q213.704 596.175 210.556 599.392 Q207.408 602.61 202.176 602.61 Q196.181 602.61 193.01 598.027 Q189.838 593.42 189.838 584.693 Q189.838 576.499 193.727 571.638 Q197.616 566.754 204.167 566.754 Q205.926 566.754 207.709 567.101 Q209.514 567.448 211.459 568.143 Z" fill="#000000" fill-rule="evenodd" fill-opacity="1" /><path clip-path="url(#clip820)" d="M231.76 570.457 Q228.148 570.457 226.32 574.022 Q224.514 577.564 224.514 584.693 Q224.514 591.8 226.32 595.365 Q228.148 598.906 231.76 598.906 Q235.394 598.906 237.199 595.365 Q239.028 591.8 239.028 584.693 Q239.028 577.564 237.199 574.022 Q235.394 570.457 231.76 570.457 M231.76 566.754 Q237.57 566.754 240.625 571.36 Q243.704 575.944 243.704 584.693 Q243.704 593.42 240.625 598.027 Q237.57 602.61 231.76 602.61 Q225.949 602.61 222.871 598.027 Q219.815 593.42 219.815 584.693 Q219.815 575.944 222.871 571.36 Q225.949 566.754 231.76 566.754 Z" fill="#000000" fill-rule="evenodd" fill-opacity="1" /><path clip-path="url(#clip820)" d="M127.2 465.642 Q123.589 465.642 121.76 469.207 Q119.955 472.749 119.955 479.878 Q119.955 486.985 121.76 490.55 Q123.589 494.091 127.2 494.091 Q130.834 494.091 132.64 490.55 Q134.468 486.985 134.468 479.878 Q134.468 472.749 132.64 469.207 Q130.834 465.642 127.2 465.642 M127.2 461.939 Q133.01 461.939 136.066 466.545 Q139.144 471.128 139.144 479.878 Q139.144 488.605 136.066 493.212 Q133.01 497.795 127.2 497.795 Q121.39 497.795 118.311 493.212 Q115.256 488.605 115.256 479.878 Q115.256 471.128 118.311 466.545 Q121.39 461.939 127.2 461.939 Z" fill="#000000" fill-rule="evenodd" fill-opacity="1" /><path clip-path="url(#clip820)" d="M147.362 491.244 L152.246 491.244 L152.246 497.124 L147.362 497.124 L147.362 491.244 Z" fill="#000000" fill-rule="evenodd" fill-opacity="1" /><path clip-path="url(#clip820)" d="M175.278 466.638 L163.473 485.087 L175.278 485.087 L175.278 466.638 M174.052 462.564 L179.931 462.564 L179.931 485.087 L184.862 485.087 L184.862 488.975 L179.931 488.975 L179.931 497.124 L175.278 497.124 L175.278 488.975 L159.677 488.975 L159.677 484.462 L174.052 462.564 Z" fill="#000000" fill-rule="evenodd" fill-opacity="1" /><path clip-path="url(#clip820)" d="M203.172 477.98 Q200.024 477.98 198.172 480.133 Q196.343 482.286 196.343 486.036 Q196.343 489.763 198.172 491.938 Q200.024 494.091 203.172 494.091 Q206.32 494.091 208.149 491.938 Q210 489.763 210 486.036 Q210 482.286 208.149 480.133 Q206.32 477.98 203.172 477.98 M212.454 463.327 L212.454 467.587 Q210.695 466.753 208.889 466.314 Q207.107 465.874 205.348 465.874 Q200.718 465.874 198.264 468.999 Q195.834 472.124 195.487 478.443 Q196.852 476.429 198.912 475.364 Q200.973 474.276 203.449 474.276 Q208.658 474.276 211.667 477.448 Q214.699 480.596 214.699 486.036 Q214.699 491.36 211.551 494.577 Q208.403 497.795 203.172 497.795 Q197.176 497.795 194.005 493.212 Q190.834 488.605 190.834 479.878 Q190.834 471.684 194.723 466.823 Q198.612 461.939 205.162 461.939 Q206.922 461.939 208.704 462.286 Q210.51 462.633 212.454 463.327 Z" fill="#000000" fill-rule="evenodd" fill-opacity="1" /><path clip-path="url(#clip820)" d="M222.801 462.564 L241.158 462.564 L241.158 466.499 L227.084 466.499 L227.084 474.971 Q228.102 474.624 229.121 474.462 Q230.139 474.276 231.158 474.276 Q236.945 474.276 240.324 477.448 Q243.704 480.619 243.704 486.036 Q243.704 491.614 240.232 494.716 Q236.76 497.795 230.44 497.795 Q228.264 497.795 225.996 497.425 Q223.75 497.054 221.343 496.313 L221.343 491.614 Q223.426 492.749 225.648 493.304 Q227.871 493.86 230.347 493.86 Q234.352 493.86 236.69 491.753 Q239.028 489.647 239.028 486.036 Q239.028 482.425 236.69 480.318 Q234.352 478.212 230.347 478.212 Q228.473 478.212 226.598 478.628 Q224.746 479.045 222.801 479.925 L222.801 462.564 Z" fill="#000000" fill-rule="evenodd" fill-opacity="1" /><path clip-path="url(#clip820)" d="M126.205 360.827 Q122.593 360.827 120.765 364.392 Q118.959 367.934 118.959 375.063 Q118.959 382.17 120.765 385.734 Q122.593 389.276 126.205 389.276 Q129.839 389.276 131.644 385.734 Q133.473 382.17 133.473 375.063 Q133.473 367.934 131.644 364.392 Q129.839 360.827 126.205 360.827 M126.205 357.123 Q132.015 357.123 135.07 361.73 Q138.149 366.313 138.149 375.063 Q138.149 383.79 135.07 388.396 Q132.015 392.98 126.205 392.98 Q120.394 392.98 117.316 388.396 Q114.26 383.79 114.26 375.063 Q114.26 366.313 117.316 361.73 Q120.394 357.123 126.205 357.123 Z" fill="#000000" fill-rule="evenodd" fill-opacity="1" /><path clip-path="url(#clip820)" d="M146.366 386.429 L151.251 386.429 L151.251 392.308 L146.366 392.308 L146.366 386.429 Z" fill="#000000" fill-rule="evenodd" fill-opacity="1" /><path clip-path="url(#clip820)" d="M174.283 361.823 L162.477 380.271 L174.283 380.271 L174.283 361.823 M173.056 357.748 L178.936 357.748 L178.936 380.271 L183.866 380.271 L183.866 384.16 L178.936 384.16 L178.936 392.308 L174.283 392.308 L174.283 384.16 L158.681 384.16 L158.681 379.646 L173.056 357.748 Z" fill="#000000" fill-rule="evenodd" fill-opacity="1" /><path clip-path="url(#clip820)" d="M190.417 357.748 L212.639 357.748 L212.639 359.739 L200.093 392.308 L195.209 392.308 L207.014 361.684 L190.417 361.684 L190.417 357.748 Z" fill="#000000" fill-rule="evenodd" fill-opacity="1" /><path clip-path="url(#clip820)" d="M231.76 360.827 Q228.148 360.827 226.32 364.392 Q224.514 367.934 224.514 375.063 Q224.514 382.17 226.32 385.734 Q228.148 389.276 231.76 389.276 Q235.394 389.276 237.199 385.734 Q239.028 382.17 239.028 375.063 Q239.028 367.934 237.199 364.392 Q235.394 360.827 231.76 360.827 M231.76 357.123 Q237.57 357.123 240.625 361.73 Q243.704 366.313 243.704 375.063 Q243.704 383.79 240.625 388.396 Q237.57 392.98 231.76 392.98 Q225.949 392.98 222.871 388.396 Q219.815 383.79 219.815 375.063 Q219.815 366.313 222.871 361.73 Q225.949 357.123 231.76 357.123 Z" fill="#000000" fill-rule="evenodd" fill-opacity="1" /><path clip-path="url(#clip820)" d="M127.2 256.012 Q123.589 256.012 121.76 259.577 Q119.955 263.118 119.955 270.248 Q119.955 277.354 121.76 280.919 Q123.589 284.461 127.2 284.461 Q130.834 284.461 132.64 280.919 Q134.468 277.354 134.468 270.248 Q134.468 263.118 132.64 259.577 Q130.834 256.012 127.2 256.012 M127.2 252.308 Q133.01 252.308 136.066 256.915 Q139.144 261.498 139.144 270.248 Q139.144 278.975 136.066 283.581 Q133.01 288.165 127.2 288.165 Q121.39 288.165 118.311 283.581 Q115.256 278.975 115.256 270.248 Q115.256 261.498 118.311 256.915 Q121.39 252.308 127.2 252.308 Z" fill="#000000" fill-rule="evenodd" fill-opacity="1" /><path clip-path="url(#clip820)" d="M147.362 281.614 L152.246 281.614 L152.246 287.493 L147.362 287.493 L147.362 281.614 Z" fill="#000000" fill-rule="evenodd" fill-opacity="1" /><path clip-path="url(#clip820)" d="M175.278 257.007 L163.473 275.456 L175.278 275.456 L175.278 257.007 M174.052 252.933 L179.931 252.933 L179.931 275.456 L184.862 275.456 L184.862 279.345 L179.931 279.345 L179.931 287.493 L175.278 287.493 L175.278 279.345 L159.677 279.345 L159.677 274.831 L174.052 252.933 Z" fill="#000000" fill-rule="evenodd" fill-opacity="1" /><path clip-path="url(#clip820)" d="M191.413 252.933 L213.635 252.933 L213.635 254.924 L201.088 287.493 L196.204 287.493 L208.01 256.868 L191.413 256.868 L191.413 252.933 Z" fill="#000000" fill-rule="evenodd" fill-opacity="1" /><path clip-path="url(#clip820)" d="M222.801 252.933 L241.158 252.933 L241.158 256.868 L227.084 256.868 L227.084 265.341 Q228.102 264.993 229.121 264.831 Q230.139 264.646 231.158 264.646 Q236.945 264.646 240.324 267.817 Q243.704 270.989 243.704 276.405 Q243.704 281.984 240.232 285.086 Q236.76 288.165 230.44 288.165 Q228.264 288.165 225.996 287.794 Q223.75 287.424 221.343 286.683 L221.343 281.984 Q223.426 283.118 225.648 283.674 Q227.871 284.229 230.347 284.229 Q234.352 284.229 236.69 282.123 Q239.028 280.017 239.028 276.405 Q239.028 272.794 236.69 270.688 Q234.352 268.581 230.347 268.581 Q228.473 268.581 226.598 268.998 Q224.746 269.415 222.801 270.294 L222.801 252.933 Z" fill="#000000" fill-rule="evenodd" fill-opacity="1" /><path clip-path="url(#clip820)" d="M126.205 151.197 Q122.593 151.197 120.765 154.762 Q118.959 158.303 118.959 165.433 Q118.959 172.539 120.765 176.104 Q122.593 179.646 126.205 179.646 Q129.839 179.646 131.644 176.104 Q133.473 172.539 133.473 165.433 Q133.473 158.303 131.644 154.762 Q129.839 151.197 126.205 151.197 M126.205 147.493 Q132.015 147.493 135.07 152.1 Q138.149 156.683 138.149 165.433 Q138.149 174.16 135.07 178.766 Q132.015 183.349 126.205 183.349 Q120.394 183.349 117.316 178.766 Q114.26 174.16 114.26 165.433 Q114.26 156.683 117.316 152.1 Q120.394 147.493 126.205 147.493 Z" fill="#000000" fill-rule="evenodd" fill-opacity="1" /><path clip-path="url(#clip820)" d="M146.366 176.799 L151.251 176.799 L151.251 182.678 L146.366 182.678 L146.366 176.799 Z" fill="#000000" fill-rule="evenodd" fill-opacity="1" /><path clip-path="url(#clip820)" d="M174.283 152.192 L162.477 170.641 L174.283 170.641 L174.283 152.192 M173.056 148.118 L178.936 148.118 L178.936 170.641 L183.866 170.641 L183.866 174.53 L178.936 174.53 L178.936 182.678 L174.283 182.678 L174.283 174.53 L158.681 174.53 L158.681 170.016 L173.056 148.118 Z" fill="#000000" fill-rule="evenodd" fill-opacity="1" /><path clip-path="url(#clip820)" d="M201.598 166.266 Q198.264 166.266 196.343 168.049 Q194.445 169.831 194.445 172.956 Q194.445 176.081 196.343 177.863 Q198.264 179.646 201.598 179.646 Q204.931 179.646 206.852 177.863 Q208.774 176.058 208.774 172.956 Q208.774 169.831 206.852 168.049 Q204.954 166.266 201.598 166.266 M196.922 164.276 Q193.913 163.535 192.223 161.475 Q190.556 159.414 190.556 156.451 Q190.556 152.308 193.496 149.901 Q196.459 147.493 201.598 147.493 Q206.76 147.493 209.699 149.901 Q212.639 152.308 212.639 156.451 Q212.639 159.414 210.949 161.475 Q209.283 163.535 206.297 164.276 Q209.676 165.063 211.551 167.354 Q213.449 169.646 213.449 172.956 Q213.449 177.979 210.371 180.664 Q207.315 183.349 201.598 183.349 Q195.88 183.349 192.801 180.664 Q189.746 177.979 189.746 172.956 Q189.746 169.646 191.644 167.354 Q193.542 165.063 196.922 164.276 M195.209 156.891 Q195.209 159.576 196.875 161.081 Q198.565 162.586 201.598 162.586 Q204.607 162.586 206.297 161.081 Q208.01 159.576 208.01 156.891 Q208.01 154.206 206.297 152.701 Q204.607 151.197 201.598 151.197 Q198.565 151.197 196.875 152.701 Q195.209 154.206 195.209 156.891 Z" fill="#000000" fill-rule="evenodd" fill-opacity="1" /><path clip-path="url(#clip820)" d="M231.76 151.197 Q228.148 151.197 226.32 154.762 Q224.514 158.303 224.514 165.433 Q224.514 172.539 226.32 176.104 Q228.148 179.646 231.76 179.646 Q235.394 179.646 237.199 176.104 Q239.028 172.539 239.028 165.433 Q239.028 158.303 237.199 154.762 Q235.394 151.197 231.76 151.197 M231.76 147.493 Q237.57 147.493 240.625 152.1 Q243.704 156.683 243.704 165.433 Q243.704 174.16 240.625 178.766 Q237.57 183.349 231.76 183.349 Q225.949 183.349 222.871 178.766 Q219.815 174.16 219.815 165.433 Q219.815 156.683 222.871 152.1 Q225.949 147.493 231.76 147.493 Z" fill="#000000" fill-rule="evenodd" fill-opacity="1" /><path clip-path="url(#clip820)" d="M16.4842 987.834 L16.4842 981.405 L64.0042 981.405 L64.0042 987.834 L16.4842 987.834 Z" fill="#000000" fill-rule="evenodd" fill-opacity="1" /><path clip-path="url(#clip820)" d="M42.4881 939.232 L64.0042 939.232 L64.0042 945.089 L42.679 945.089 Q37.6183 945.089 35.1038 947.062 Q32.5894 949.035 32.5894 952.982 Q32.5894 957.725 35.6131 960.462 Q38.6368 963.199 43.8567 963.199 L64.0042 963.199 L64.0042 969.087 L28.3562 969.087 L28.3562 963.199 L33.8944 963.199 Q30.6797 961.098 29.0883 958.266 Q27.4968 955.401 27.4968 951.677 Q27.4968 945.534 31.3163 942.383 Q35.1038 939.232 42.4881 939.232 Z" fill="#000000" fill-rule="evenodd" fill-opacity="1" /><path clip-path="url(#clip820)" d="M42.4881 897.919 L64.0042 897.919 L64.0042 903.775 L42.679 903.775 Q37.6183 903.775 35.1038 905.749 Q32.5894 907.722 32.5894 911.669 Q32.5894 916.411 35.6131 919.148 Q38.6368 921.886 43.8567 921.886 L64.0042 921.886 L64.0042 927.774 L28.3562 927.774 L28.3562 921.886 L33.8944 921.886 Q30.6797 919.785 29.0883 916.952 Q27.4968 914.088 27.4968 910.364 Q27.4968 904.221 31.3163 901.07 Q35.1038 897.919 42.4881 897.919 Z" fill="#000000" fill-rule="evenodd" fill-opacity="1" /><path clip-path="url(#clip820)" d="M44.7161 855.746 L47.5806 855.746 L47.5806 882.673 Q53.6281 882.291 56.8109 879.044 Q59.9619 875.766 59.9619 869.941 Q59.9619 866.568 59.1344 863.417 Q58.3069 860.234 56.6518 857.115 L62.1899 857.115 Q63.5267 860.266 64.227 863.576 Q64.9272 866.886 64.9272 870.292 Q64.9272 878.822 59.9619 883.819 Q54.9967 888.784 46.5303 888.784 Q37.7774 888.784 32.6531 884.073 Q27.4968 879.331 27.4968 871.31 Q27.4968 864.117 32.1438 859.947 Q36.7589 855.746 44.7161 855.746 M42.9973 861.602 Q38.1912 861.666 35.3266 864.308 Q32.4621 866.918 32.4621 871.246 Q32.4621 876.148 35.2312 879.108 Q38.0002 882.036 43.0292 882.482 L42.9973 861.602 Z" fill="#000000" fill-rule="evenodd" fill-opacity="1" /><path clip-path="url(#clip820)" d="M33.8307 825.477 Q33.2578 826.464 33.0032 827.641 Q32.7167 828.787 32.7167 830.188 Q32.7167 835.153 35.9632 837.827 Q39.1779 840.468 45.2253 840.468 L64.0042 840.468 L64.0042 846.357 L28.3562 846.357 L28.3562 840.468 L33.8944 840.468 Q30.6479 838.622 29.0883 835.662 Q27.4968 832.702 27.4968 828.469 Q27.4968 827.864 27.5923 827.132 Q27.656 826.4 27.8151 825.509 L33.8307 825.477 Z" fill="#000000" fill-rule="evenodd" fill-opacity="1" /><path clip-path="url(#clip820)" d="M21.7677 791.93 L39.6235 791.93 L39.6235 783.845 Q39.6235 779.357 37.3 776.907 Q34.9765 774.456 30.6797 774.456 Q26.4147 774.456 24.0912 776.907 Q21.7677 779.357 21.7677 783.845 L21.7677 791.93 M16.4842 798.359 L16.4842 783.845 Q16.4842 775.856 20.1126 771.782 Q23.7092 767.676 30.6797 767.676 Q37.7138 767.676 41.3104 771.782 Q44.907 775.856 44.907 783.845 L44.907 791.93 L64.0042 791.93 L64.0042 798.359 L16.4842 798.359 Z" fill="#000000" fill-rule="evenodd" fill-opacity="1" /><path clip-path="url(#clip820)" d="M33.8307 739.795 Q33.2578 740.781 33.0032 741.959 Q32.7167 743.105 32.7167 744.505 Q32.7167 749.47 35.9632 752.144 Q39.1779 754.786 45.2253 754.786 L64.0042 754.786 L64.0042 760.674 L28.3562 760.674 L28.3562 754.786 L33.8944 754.786 Q30.6479 752.94 29.0883 749.98 Q27.4968 747.02 27.4968 742.787 Q27.4968 742.182 27.5923 741.45 Q27.656 740.718 27.8151 739.826 L33.8307 739.795 Z" fill="#000000" fill-rule="evenodd" fill-opacity="1" /><path clip-path="url(#clip820)" d="M32.4621 721.27 Q32.4621 725.981 36.1542 728.718 Q39.8145 731.456 46.212 731.456 Q52.6095 731.456 56.3017 728.75 Q59.9619 726.013 59.9619 721.27 Q59.9619 716.592 56.2698 713.854 Q52.5777 711.117 46.212 711.117 Q39.8781 711.117 36.186 713.854 Q32.4621 716.592 32.4621 721.27 M27.4968 721.27 Q27.4968 713.632 32.4621 709.271 Q37.4273 704.911 46.212 704.911 Q54.9649 704.911 59.9619 709.271 Q64.9272 713.632 64.9272 721.27 Q64.9272 728.941 59.9619 733.302 Q54.9649 737.63 46.212 737.63 Q37.4273 737.63 32.4621 733.302 Q27.4968 728.941 27.4968 721.27 Z" fill="#000000" fill-rule="evenodd" fill-opacity="1" /><path clip-path="url(#clip820)" d="M33.7671 671.745 L14.479 671.745 L14.479 665.889 L64.0042 665.889 L64.0042 671.745 L58.657 671.745 Q61.8398 673.591 63.3994 676.424 Q64.9272 679.225 64.9272 683.172 Q64.9272 689.633 59.771 693.707 Q54.6147 697.749 46.212 697.749 Q37.8093 697.749 32.6531 693.707 Q27.4968 689.633 27.4968 683.172 Q27.4968 679.225 29.0564 676.424 Q30.5842 673.591 33.7671 671.745 M46.212 691.702 Q52.6732 691.702 56.3653 689.06 Q60.0256 686.386 60.0256 681.739 Q60.0256 677.092 56.3653 674.419 Q52.6732 671.745 46.212 671.745 Q39.7508 671.745 36.0905 674.419 Q32.3984 677.092 32.3984 681.739 Q32.3984 686.386 36.0905 689.06 Q39.7508 691.702 46.212 691.702 Z" fill="#000000" fill-rule="evenodd" fill-opacity="1" /><path clip-path="url(#clip820)" d="M49.9359 654.43 L28.3562 654.43 L28.3562 648.574 L49.7131 648.574 Q54.7739 648.574 57.3202 646.601 Q59.8346 644.627 59.8346 640.681 Q59.8346 635.938 56.8109 633.201 Q53.7872 630.432 48.5673 630.432 L28.3562 630.432 L28.3562 624.575 L64.0042 624.575 L64.0042 630.432 L58.5296 630.432 Q61.7762 632.564 63.3676 635.397 Q64.9272 638.198 64.9272 641.922 Q64.9272 648.065 61.1078 651.248 Q57.2883 654.43 49.9359 654.43 M27.4968 639.694 L27.4968 639.694 Z" fill="#000000" fill-rule="evenodd" fill-opacity="1" /><path clip-path="url(#clip820)" d="M29.7248 586.859 L35.1993 586.859 Q33.8307 589.341 33.1623 591.856 Q32.4621 594.338 32.4621 596.885 Q32.4621 602.582 36.0905 605.733 Q39.6872 608.884 46.212 608.884 Q52.7369 608.884 56.3653 605.733 Q59.9619 602.582 59.9619 596.885 Q59.9619 594.338 59.2935 591.856 Q58.5933 589.341 57.2247 586.859 L62.6355 586.859 Q63.7814 589.309 64.3543 591.951 Q64.9272 594.561 64.9272 597.521 Q64.9272 605.574 59.8664 610.316 Q54.8057 615.059 46.212 615.059 Q37.491 615.059 32.4939 610.284 Q27.4968 605.478 27.4968 597.139 Q27.4968 594.434 28.0697 591.856 Q28.6108 589.277 29.7248 586.859 Z" fill="#000000" fill-rule="evenodd" fill-opacity="1" /><path clip-path="url(#clip820)" d="M18.2347 570.881 L28.3562 570.881 L28.3562 558.818 L32.9077 558.818 L32.9077 570.881 L52.2594 570.881 Q56.6199 570.881 57.8613 569.703 Q59.1026 568.493 59.1026 564.833 L59.1026 558.818 L64.0042 558.818 L64.0042 564.833 Q64.0042 571.613 61.4897 574.191 Q58.9434 576.769 52.2594 576.769 L32.9077 576.769 L32.9077 581.066 L28.3562 581.066 L28.3562 576.769 L18.2347 576.769 L18.2347 570.881 Z" fill="#000000" fill-rule="evenodd" fill-opacity="1" /><path clip-path="url(#clip820)" d="M1185.81 17.6457 Q1176.9 17.6457 1171.63 24.2892 Q1166.41 30.9327 1166.41 42.3968 Q1166.41 53.8203 1171.63 60.4638 Q1176.9 67.1073 1185.81 67.1073 Q1194.72 67.1073 1199.91 60.4638 Q1205.13 53.8203 1205.13 42.3968 Q1205.13 30.9327 1199.91 24.2892 Q1194.72 17.6457 1185.81 17.6457 M1185.81 11.0023 Q1198.53 11.0023 1206.15 19.5497 Q1213.76 28.0566 1213.76 42.3968 Q1213.76 56.6965 1206.15 65.2439 Q1198.53 73.7508 1185.81 73.7508 Q1173.05 73.7508 1165.39 65.2439 Q1157.78 56.737 1157.78 42.3968 Q1157.78 28.0566 1165.39 19.5497 Q1173.05 11.0023 1185.81 11.0023 Z" fill="#000000" fill-rule="evenodd" fill-opacity="1" /><path clip-path="url(#clip820)" d="M1220.89 27.2059 L1228.79 27.2059 L1242.97 65.2844 L1257.15 27.2059 L1265.05 27.2059 L1248.03 72.576 L1237.91 72.576 L1220.89 27.2059 Z" fill="#000000" fill-rule="evenodd" fill-opacity="1" /><path clip-path="url(#clip820)" d="M1314.14 48.0275 L1314.14 51.6733 L1279.87 51.6733 Q1280.36 59.3701 1284.49 63.421 Q1288.66 67.4314 1296.08 67.4314 Q1300.37 67.4314 1304.38 66.3781 Q1308.43 65.3249 1312.4 63.2184 L1312.4 70.267 Q1308.39 71.9684 1304.18 72.8596 Q1299.97 73.7508 1295.63 73.7508 Q1284.77 73.7508 1278.41 67.4314 Q1272.1 61.1119 1272.1 50.3365 Q1272.1 39.1965 1278.09 32.6746 Q1284.13 26.1121 1294.33 26.1121 Q1303.49 26.1121 1308.8 32.0264 Q1314.14 37.9003 1314.14 48.0275 M1306.69 45.84 Q1306.61 39.7232 1303.25 36.0774 Q1299.93 32.4315 1294.42 32.4315 Q1288.18 32.4315 1284.41 35.9558 Q1280.68 39.4801 1280.12 45.8805 L1306.69 45.84 Z" fill="#000000" fill-rule="evenodd" fill-opacity="1" /><path clip-path="url(#clip820)" d="M1352.67 34.1734 Q1351.41 33.4443 1349.91 33.1202 Q1348.45 32.7556 1346.67 32.7556 Q1340.35 32.7556 1336.95 36.8875 Q1333.59 40.9789 1333.59 48.6757 L1333.59 72.576 L1326.09 72.576 L1326.09 27.2059 L1333.59 27.2059 L1333.59 34.2544 Q1335.94 30.1225 1339.7 28.1376 Q1343.47 26.1121 1348.86 26.1121 Q1349.63 26.1121 1350.56 26.2337 Q1351.49 26.3147 1352.63 26.5172 L1352.67 34.1734 Z" fill="#000000" fill-rule="evenodd" fill-opacity="1" /><path clip-path="url(#clip820)" d="M1360.49 9.54393 L1367.94 9.54393 L1367.94 72.576 L1360.49 72.576 L1360.49 9.54393 Z" fill="#000000" fill-rule="evenodd" fill-opacity="1" /><path clip-path="url(#clip820)" d="M1404.15 49.7694 Q1395.12 49.7694 1391.64 51.8354 Q1388.15 53.9013 1388.15 58.8839 Q1388.15 62.8538 1390.75 65.2034 Q1393.38 67.5124 1397.88 67.5124 Q1404.07 67.5124 1407.8 63.1374 Q1411.57 58.7219 1411.57 51.4303 L1411.57 49.7694 L1404.15 49.7694 M1419.02 46.6907 L1419.02 72.576 L1411.57 72.576 L1411.57 65.6895 Q1409.02 69.8214 1405.21 71.8063 Q1401.4 73.7508 1395.89 73.7508 Q1388.92 73.7508 1384.79 69.8619 Q1380.7 65.9325 1380.7 59.3701 Q1380.7 51.7138 1385.8 47.825 Q1390.95 43.9361 1401.12 43.9361 L1411.57 43.9361 L1411.57 43.2069 Q1411.57 38.0623 1408.17 35.2672 Q1404.8 32.4315 1398.69 32.4315 Q1394.8 32.4315 1391.11 33.3632 Q1387.42 34.295 1384.02 36.1584 L1384.02 29.2718 Q1388.11 27.692 1391.96 26.9223 Q1395.81 26.1121 1399.46 26.1121 Q1409.3 26.1121 1414.16 31.2163 Q1419.02 36.3204 1419.02 46.6907 Z" fill="#000000" fill-rule="evenodd" fill-opacity="1" /><path clip-path="url(#clip820)" d="M1441.59 65.7705 L1441.59 89.8329 L1434.09 89.8329 L1434.09 27.2059 L1441.59 27.2059 L1441.59 34.0924 Q1443.93 30.0415 1447.5 28.0971 Q1451.1 26.1121 1456.09 26.1121 Q1464.35 26.1121 1469.5 32.6746 Q1474.68 39.2371 1474.68 49.9314 Q1474.68 60.6258 1469.5 67.1883 Q1464.35 73.7508 1456.09 73.7508 Q1451.1 73.7508 1447.5 71.8063 Q1443.93 69.8214 1441.59 65.7705 M1466.94 49.9314 Q1466.94 41.7081 1463.54 37.0496 Q1460.18 32.3505 1454.26 32.3505 Q1448.35 32.3505 1444.95 37.0496 Q1441.59 41.7081 1441.59 49.9314 Q1441.59 58.1548 1444.95 62.8538 Q1448.35 67.5124 1454.26 67.5124 Q1460.18 67.5124 1463.54 62.8538 Q1466.94 58.1548 1466.94 49.9314 Z" fill="#000000" fill-rule="evenodd" fill-opacity="1" /><polyline clip-path="url(#clip822)" style="stroke:#000000; stroke-linecap:round; stroke-linejoin:round; stroke-width:4; stroke-opacity:1; fill:none" points="
  338.934,332.124 338.934,332.124 
  "/>
<polyline clip-path="url(#clip822)" style="stroke:#000000; stroke-linecap:round; stroke-linejoin:round; stroke-width:4; stroke-opacity:1; fill:none" points="
  398.164,2469.43 398.164,2465.45 
  "/>
<polyline clip-path="url(#clip822)" style="stroke:#000000; stroke-linecap:round; stroke-linejoin:round; stroke-width:4; stroke-opacity:1; fill:none" points="
  457.394,378.669 457.394,378.245 
  "/>
<polyline clip-path="url(#clip822)" style="stroke:#000000; stroke-linecap:round; stroke-linejoin:round; stroke-width:4; stroke-opacity:1; fill:none" points="
  516.624,8619.89 516.624,8497.55 
  "/>
<polyline clip-path="url(#clip822)" style="stroke:#000000; stroke-linecap:round; stroke-linejoin:round; stroke-width:4; stroke-opacity:1; fill:none" points="
  575.854,9482.75 575.854,9112.65 
  "/>
<polyline clip-path="url(#clip822)" style="stroke:#000000; stroke-linecap:round; stroke-linejoin:round; stroke-width:4; stroke-opacity:1; fill:none" points="
  635.084,538.676 635.084,530.795 
  "/>
<polyline clip-path="url(#clip822)" style="stroke:#000000; stroke-linecap:round; stroke-linejoin:round; stroke-width:4; stroke-opacity:1; fill:none" points="
  694.314,895.385 694.314,289.364 
  "/>
<polyline clip-path="url(#clip822)" style="stroke:#000000; stroke-linecap:round; stroke-linejoin:round; stroke-width:4; stroke-opacity:1; fill:none" points="
  753.544,519.019 753.544,518.358 
  "/>
<polyline clip-path="url(#clip822)" style="stroke:#000000; stroke-linecap:round; stroke-linejoin:round; stroke-width:4; stroke-opacity:1; fill:none" points="
  812.774,531.153 812.774,525.478 
  "/>
<polyline clip-path="url(#clip822)" style="stroke:#000000; stroke-linecap:round; stroke-linejoin:round; stroke-width:4; stroke-opacity:1; fill:none" points="
  872.004,506.526 872.004,506.509 
  "/>
<polyline clip-path="url(#clip822)" style="stroke:#000000; stroke-linecap:round; stroke-linejoin:round; stroke-width:4; stroke-opacity:1; fill:none" points="
  931.235,494.769 931.235,494.597 
  "/>
<polyline clip-path="url(#clip822)" style="stroke:#000000; stroke-linecap:round; stroke-linejoin:round; stroke-width:4; stroke-opacity:1; fill:none" points="
  990.465,497.155 990.465,497.146 
  "/>
<polyline clip-path="url(#clip822)" style="stroke:#000000; stroke-linecap:round; stroke-linejoin:round; stroke-width:4; stroke-opacity:1; fill:none" points="
  1049.69,472.773 1049.69,472.755 
  "/>
<polyline clip-path="url(#clip822)" style="stroke:#000000; stroke-linecap:round; stroke-linejoin:round; stroke-width:4; stroke-opacity:1; fill:none" points="
  1108.92,494.589 1108.92,459.372 
  "/>
<polyline clip-path="url(#clip822)" style="stroke:#000000; stroke-linecap:round; stroke-linejoin:round; stroke-width:4; stroke-opacity:1; fill:none" points="
  1168.15,461.057 1168.15,458.761 
  "/>
<polyline clip-path="url(#clip822)" style="stroke:#000000; stroke-linecap:round; stroke-linejoin:round; stroke-width:4; stroke-opacity:1; fill:none" points="
  1227.38,2664.42 1227.38,2393.37 
  "/>
<polyline clip-path="url(#clip822)" style="stroke:#000000; stroke-linecap:round; stroke-linejoin:round; stroke-width:4; stroke-opacity:1; fill:none" points="
  1286.61,922.549 1286.61,885.219 
  "/>
<polyline clip-path="url(#clip822)" style="stroke:#000000; stroke-linecap:round; stroke-linejoin:round; stroke-width:4; stroke-opacity:1; fill:none" points="
  1345.84,2776.66 1345.84,2539.27 
  "/>
<polyline clip-path="url(#clip822)" style="stroke:#000000; stroke-linecap:round; stroke-linejoin:round; stroke-width:4; stroke-opacity:1; fill:none" points="
  1405.07,5385.1 1405.07,4743.92 
  "/>
<polyline clip-path="url(#clip822)" style="stroke:#000000; stroke-linecap:round; stroke-linejoin:round; stroke-width:4; stroke-opacity:1; fill:none" points="
  1464.31,1090.08 1464.31,607.06 
  "/>
<polyline clip-path="url(#clip822)" style="stroke:#000000; stroke-linecap:round; stroke-linejoin:round; stroke-width:4; stroke-opacity:1; fill:none" points="
  1523.54,1404.17 1523.54,709.982 
  "/>
<polyline clip-path="url(#clip822)" style="stroke:#000000; stroke-linecap:round; stroke-linejoin:round; stroke-width:4; stroke-opacity:1; fill:none" points="
  1582.77,616.49 1582.77,586.356 
  "/>
<polyline clip-path="url(#clip822)" style="stroke:#000000; stroke-linecap:round; stroke-linejoin:round; stroke-width:4; stroke-opacity:1; fill:none" points="
  1642,823.062 1642,340.026 
  "/>
<polyline clip-path="url(#clip822)" style="stroke:#000000; stroke-linecap:round; stroke-linejoin:round; stroke-width:4; stroke-opacity:1; fill:none" points="
  1701.23,767.839 1701.23,420.362 
  "/>
<polyline clip-path="url(#clip822)" style="stroke:#000000; stroke-linecap:round; stroke-linejoin:round; stroke-width:4; stroke-opacity:1; fill:none" points="
  1760.46,1154.14 1760.46,146.485 
  "/>
<polyline clip-path="url(#clip822)" style="stroke:#000000; stroke-linecap:round; stroke-linejoin:round; stroke-width:4; stroke-opacity:1; fill:none" points="
  1819.69,613.498 1819.69,568.7 
  "/>
<polyline clip-path="url(#clip822)" style="stroke:#000000; stroke-linecap:round; stroke-linejoin:round; stroke-width:4; stroke-opacity:1; fill:none" points="
  1878.92,857.455 1878.92,831.173 
  "/>
<line clip-path="url(#clip822)" x1="346.934" y1="332.124" x2="330.934" y2="332.124" style="stroke:#000000; stroke-width:3.2; stroke-opacity:1"/>
<line clip-path="url(#clip822)" x1="346.934" y1="332.124" x2="330.934" y2="332.124" style="stroke:#000000; stroke-width:3.2; stroke-opacity:1"/>
<line clip-path="url(#clip822)" x1="465.394" y1="378.669" x2="449.394" y2="378.669" style="stroke:#000000; stroke-width:3.2; stroke-opacity:1"/>
<line clip-path="url(#clip822)" x1="465.394" y1="378.245" x2="449.394" y2="378.245" style="stroke:#000000; stroke-width:3.2; stroke-opacity:1"/>
<line clip-path="url(#clip822)" x1="643.084" y1="538.676" x2="627.084" y2="538.676" style="stroke:#000000; stroke-width:3.2; stroke-opacity:1"/>
<line clip-path="url(#clip822)" x1="643.084" y1="530.795" x2="627.084" y2="530.795" style="stroke:#000000; stroke-width:3.2; stroke-opacity:1"/>
<line clip-path="url(#clip822)" x1="702.314" y1="895.385" x2="686.314" y2="895.385" style="stroke:#000000; stroke-width:3.2; stroke-opacity:1"/>
<line clip-path="url(#clip822)" x1="702.314" y1="289.364" x2="686.314" y2="289.364" style="stroke:#000000; stroke-width:3.2; stroke-opacity:1"/>
<line clip-path="url(#clip822)" x1="761.544" y1="519.019" x2="745.544" y2="519.019" style="stroke:#000000; stroke-width:3.2; stroke-opacity:1"/>
<line clip-path="url(#clip822)" x1="761.544" y1="518.358" x2="745.544" y2="518.358" style="stroke:#000000; stroke-width:3.2; stroke-opacity:1"/>
<line clip-path="url(#clip822)" x1="820.774" y1="531.153" x2="804.774" y2="531.153" style="stroke:#000000; stroke-width:3.2; stroke-opacity:1"/>
<line clip-path="url(#clip822)" x1="820.774" y1="525.478" x2="804.774" y2="525.478" style="stroke:#000000; stroke-width:3.2; stroke-opacity:1"/>
<line clip-path="url(#clip822)" x1="880.004" y1="506.526" x2="864.004" y2="506.526" style="stroke:#000000; stroke-width:3.2; stroke-opacity:1"/>
<line clip-path="url(#clip822)" x1="880.004" y1="506.509" x2="864.004" y2="506.509" style="stroke:#000000; stroke-width:3.2; stroke-opacity:1"/>
<line clip-path="url(#clip822)" x1="939.235" y1="494.769" x2="923.235" y2="494.769" style="stroke:#000000; stroke-width:3.2; stroke-opacity:1"/>
<line clip-path="url(#clip822)" x1="939.235" y1="494.597" x2="923.235" y2="494.597" style="stroke:#000000; stroke-width:3.2; stroke-opacity:1"/>
<line clip-path="url(#clip822)" x1="998.465" y1="497.155" x2="982.465" y2="497.155" style="stroke:#000000; stroke-width:3.2; stroke-opacity:1"/>
<line clip-path="url(#clip822)" x1="998.465" y1="497.146" x2="982.465" y2="497.146" style="stroke:#000000; stroke-width:3.2; stroke-opacity:1"/>
<line clip-path="url(#clip822)" x1="1057.69" y1="472.773" x2="1041.69" y2="472.773" style="stroke:#000000; stroke-width:3.2; stroke-opacity:1"/>
<line clip-path="url(#clip822)" x1="1057.69" y1="472.755" x2="1041.69" y2="472.755" style="stroke:#000000; stroke-width:3.2; stroke-opacity:1"/>
<line clip-path="url(#clip822)" x1="1116.92" y1="494.589" x2="1100.92" y2="494.589" style="stroke:#000000; stroke-width:3.2; stroke-opacity:1"/>
<line clip-path="url(#clip822)" x1="1116.92" y1="459.372" x2="1100.92" y2="459.372" style="stroke:#000000; stroke-width:3.2; stroke-opacity:1"/>
<line clip-path="url(#clip822)" x1="1176.15" y1="461.057" x2="1160.15" y2="461.057" style="stroke:#000000; stroke-width:3.2; stroke-opacity:1"/>
<line clip-path="url(#clip822)" x1="1176.15" y1="458.761" x2="1160.15" y2="458.761" style="stroke:#000000; stroke-width:3.2; stroke-opacity:1"/>
<line clip-path="url(#clip822)" x1="1294.61" y1="922.549" x2="1278.61" y2="922.549" style="stroke:#000000; stroke-width:3.2; stroke-opacity:1"/>
<line clip-path="url(#clip822)" x1="1294.61" y1="885.219" x2="1278.61" y2="885.219" style="stroke:#000000; stroke-width:3.2; stroke-opacity:1"/>
<line clip-path="url(#clip822)" x1="1472.31" y1="1090.08" x2="1456.31" y2="1090.08" style="stroke:#000000; stroke-width:3.2; stroke-opacity:1"/>
<line clip-path="url(#clip822)" x1="1472.31" y1="607.06" x2="1456.31" y2="607.06" style="stroke:#000000; stroke-width:3.2; stroke-opacity:1"/>
<line clip-path="url(#clip822)" x1="1531.54" y1="1404.17" x2="1515.54" y2="1404.17" style="stroke:#000000; stroke-width:3.2; stroke-opacity:1"/>
<line clip-path="url(#clip822)" x1="1531.54" y1="709.982" x2="1515.54" y2="709.982" style="stroke:#000000; stroke-width:3.2; stroke-opacity:1"/>
<line clip-path="url(#clip822)" x1="1590.77" y1="616.49" x2="1574.77" y2="616.49" style="stroke:#000000; stroke-width:3.2; stroke-opacity:1"/>
<line clip-path="url(#clip822)" x1="1590.77" y1="586.356" x2="1574.77" y2="586.356" style="stroke:#000000; stroke-width:3.2; stroke-opacity:1"/>
<line clip-path="url(#clip822)" x1="1650" y1="823.062" x2="1634" y2="823.062" style="stroke:#000000; stroke-width:3.2; stroke-opacity:1"/>
<line clip-path="url(#clip822)" x1="1650" y1="340.026" x2="1634" y2="340.026" style="stroke:#000000; stroke-width:3.2; stroke-opacity:1"/>
<line clip-path="url(#clip822)" x1="1709.23" y1="767.839" x2="1693.23" y2="767.839" style="stroke:#000000; stroke-width:3.2; stroke-opacity:1"/>
<line clip-path="url(#clip822)" x1="1709.23" y1="420.362" x2="1693.23" y2="420.362" style="stroke:#000000; stroke-width:3.2; stroke-opacity:1"/>
<line clip-path="url(#clip822)" x1="1768.46" y1="1154.14" x2="1752.46" y2="1154.14" style="stroke:#000000; stroke-width:3.2; stroke-opacity:1"/>
<line clip-path="url(#clip822)" x1="1768.46" y1="146.485" x2="1752.46" y2="146.485" style="stroke:#000000; stroke-width:3.2; stroke-opacity:1"/>
<line clip-path="url(#clip822)" x1="1827.69" y1="613.498" x2="1811.69" y2="613.498" style="stroke:#000000; stroke-width:3.2; stroke-opacity:1"/>
<line clip-path="url(#clip822)" x1="1827.69" y1="568.7" x2="1811.69" y2="568.7" style="stroke:#000000; stroke-width:3.2; stroke-opacity:1"/>
<line clip-path="url(#clip822)" x1="1886.92" y1="857.455" x2="1870.92" y2="857.455" style="stroke:#000000; stroke-width:3.2; stroke-opacity:1"/>
<line clip-path="url(#clip822)" x1="1886.92" y1="831.173" x2="1870.92" y2="831.173" style="stroke:#000000; stroke-width:3.2; stroke-opacity:1"/>
<circle clip-path="url(#clip822)" cx="338.934" cy="332.124" r="7.2" fill="#009af9" fill-rule="evenodd" fill-opacity="1" stroke="#000000" stroke-opacity="1" stroke-width="3.2"/>
<circle clip-path="url(#clip822)" cx="457.394" cy="378.457" r="7.2" fill="#009af9" fill-rule="evenodd" fill-opacity="1" stroke="#000000" stroke-opacity="1" stroke-width="3.2"/>
<circle clip-path="url(#clip822)" cx="635.084" cy="534.735" r="7.2" fill="#009af9" fill-rule="evenodd" fill-opacity="1" stroke="#000000" stroke-opacity="1" stroke-width="3.2"/>
<circle clip-path="url(#clip822)" cx="694.314" cy="592.374" r="7.2" fill="#009af9" fill-rule="evenodd" fill-opacity="1" stroke="#000000" stroke-opacity="1" stroke-width="3.2"/>
<circle clip-path="url(#clip822)" cx="753.544" cy="518.689" r="7.2" fill="#009af9" fill-rule="evenodd" fill-opacity="1" stroke="#000000" stroke-opacity="1" stroke-width="3.2"/>
<circle clip-path="url(#clip822)" cx="812.774" cy="528.316" r="7.2" fill="#009af9" fill-rule="evenodd" fill-opacity="1" stroke="#000000" stroke-opacity="1" stroke-width="3.2"/>
<circle clip-path="url(#clip822)" cx="872.004" cy="506.517" r="7.2" fill="#009af9" fill-rule="evenodd" fill-opacity="1" stroke="#000000" stroke-opacity="1" stroke-width="3.2"/>
<circle clip-path="url(#clip822)" cx="931.235" cy="494.683" r="7.2" fill="#009af9" fill-rule="evenodd" fill-opacity="1" stroke="#000000" stroke-opacity="1" stroke-width="3.2"/>
<circle clip-path="url(#clip822)" cx="990.465" cy="497.151" r="7.2" fill="#009af9" fill-rule="evenodd" fill-opacity="1" stroke="#000000" stroke-opacity="1" stroke-width="3.2"/>
<circle clip-path="url(#clip822)" cx="1049.69" cy="472.764" r="7.2" fill="#009af9" fill-rule="evenodd" fill-opacity="1" stroke="#000000" stroke-opacity="1" stroke-width="3.2"/>
<circle clip-path="url(#clip822)" cx="1108.92" cy="476.98" r="7.2" fill="#009af9" fill-rule="evenodd" fill-opacity="1" stroke="#000000" stroke-opacity="1" stroke-width="3.2"/>
<circle clip-path="url(#clip822)" cx="1168.15" cy="459.909" r="7.2" fill="#009af9" fill-rule="evenodd" fill-opacity="1" stroke="#000000" stroke-opacity="1" stroke-width="3.2"/>
<circle clip-path="url(#clip822)" cx="1286.61" cy="903.884" r="7.2" fill="#009af9" fill-rule="evenodd" fill-opacity="1" stroke="#000000" stroke-opacity="1" stroke-width="3.2"/>
<circle clip-path="url(#clip822)" cx="1464.31" cy="848.568" r="7.2" fill="#009af9" fill-rule="evenodd" fill-opacity="1" stroke="#000000" stroke-opacity="1" stroke-width="3.2"/>
<circle clip-path="url(#clip822)" cx="1523.54" cy="1057.08" r="7.2" fill="#009af9" fill-rule="evenodd" fill-opacity="1" stroke="#000000" stroke-opacity="1" stroke-width="3.2"/>
<circle clip-path="url(#clip822)" cx="1582.77" cy="601.423" r="7.2" fill="#009af9" fill-rule="evenodd" fill-opacity="1" stroke="#000000" stroke-opacity="1" stroke-width="3.2"/>
<circle clip-path="url(#clip822)" cx="1642" cy="581.544" r="7.2" fill="#009af9" fill-rule="evenodd" fill-opacity="1" stroke="#000000" stroke-opacity="1" stroke-width="3.2"/>
<circle clip-path="url(#clip822)" cx="1701.23" cy="594.1" r="7.2" fill="#009af9" fill-rule="evenodd" fill-opacity="1" stroke="#000000" stroke-opacity="1" stroke-width="3.2"/>
<circle clip-path="url(#clip822)" cx="1760.46" cy="650.31" r="7.2" fill="#009af9" fill-rule="evenodd" fill-opacity="1" stroke="#000000" stroke-opacity="1" stroke-width="3.2"/>
<circle clip-path="url(#clip822)" cx="1819.69" cy="591.099" r="7.2" fill="#009af9" fill-rule="evenodd" fill-opacity="1" stroke="#000000" stroke-opacity="1" stroke-width="3.2"/>
<circle clip-path="url(#clip822)" cx="1878.92" cy="844.314" r="7.2" fill="#009af9" fill-rule="evenodd" fill-opacity="1" stroke="#000000" stroke-opacity="1" stroke-width="3.2"/>
<path clip-path="url(#clip820)" d="
M1718.57 270.476 L2283.65 270.476 L2283.65 166.796 L1718.57 166.796  Z
  " fill="#ffffff" fill-rule="evenodd" fill-opacity="1"/>
<polyline clip-path="url(#clip820)" style="stroke:#000000; stroke-linecap:round; stroke-linejoin:round; stroke-width:4; stroke-opacity:1; fill:none" points="
  1718.57,270.476 2283.65,270.476 2283.65,166.796 1718.57,166.796 1718.57,270.476 
  "/>
<circle clip-path="url(#clip820)" cx="1810.71" cy="218.636" r="23.04" fill="#009af9" fill-rule="evenodd" fill-opacity="1" stroke="#000000" stroke-opacity="1" stroke-width="10.24"/>
<path clip-path="url(#clip820)" d="M1923.19 214.967 Q1924.79 212.096 1927.01 210.731 Q1929.23 209.365 1932.24 209.365 Q1936.29 209.365 1938.49 212.212 Q1940.69 215.036 1940.69 220.268 L1940.69 235.916 L1936.41 235.916 L1936.41 220.407 Q1936.41 216.68 1935.09 214.874 Q1933.77 213.069 1931.06 213.069 Q1927.75 213.069 1925.83 215.268 Q1923.91 217.467 1923.91 221.263 L1923.91 235.916 L1919.63 235.916 L1919.63 220.407 Q1919.63 216.657 1918.31 214.874 Q1916.99 213.069 1914.23 213.069 Q1910.97 213.069 1909.05 215.291 Q1907.13 217.49 1907.13 221.263 L1907.13 235.916 L1902.84 235.916 L1902.84 209.99 L1907.13 209.99 L1907.13 214.018 Q1908.59 211.633 1910.62 210.499 Q1912.66 209.365 1915.46 209.365 Q1918.28 209.365 1920.25 210.8 Q1922.24 212.235 1923.19 214.967 Z" fill="#000000" fill-rule="evenodd" fill-opacity="1" /><path clip-path="url(#clip820)" d="M1957.91 220.245 Q1956.76 218.254 1954.42 218.254 Q1952.08 218.254 1950.92 220.245 Q1949.74 222.235 1949.74 226.217 Q1949.74 230.221 1950.92 232.212 Q1952.08 234.203 1954.42 234.203 Q1956.76 234.203 1957.91 232.212 Q1959.09 230.221 1959.09 226.217 Q1959.09 222.235 1957.91 220.245 M1954.42 216.194 Q1958.15 216.194 1960.11 218.763 Q1962.08 221.332 1962.08 226.217 Q1962.08 231.124 1960.11 233.694 Q1958.15 236.263 1954.42 236.263 Q1950.67 236.263 1948.7 233.694 Q1946.73 231.124 1946.73 226.217 Q1946.73 221.332 1948.7 218.763 Q1950.67 216.194 1954.42 216.194 Z" fill="#000000" fill-rule="evenodd" fill-opacity="1" /><path clip-path="url(#clip820)" d="M1968.75 214.388 L1998.42 214.388 L1998.42 218.277 L1968.75 218.277 L1968.75 214.388 M1968.75 223.832 L1998.42 223.832 L1998.42 227.768 L1968.75 227.768 L1968.75 223.832 Z" fill="#000000" fill-rule="evenodd" fill-opacity="1" /><path clip-path="url(#clip820)" d="M2018.52 204.434 Q2014.9 204.434 2013.08 207.999 Q2011.27 211.541 2011.27 218.67 Q2011.27 225.777 2013.08 229.342 Q2014.9 232.883 2018.52 232.883 Q2022.15 232.883 2023.95 229.342 Q2025.78 225.777 2025.78 218.67 Q2025.78 211.541 2023.95 207.999 Q2022.15 204.434 2018.52 204.434 M2018.52 200.731 Q2024.33 200.731 2027.38 205.337 Q2030.46 209.92 2030.46 218.67 Q2030.46 227.397 2027.38 232.004 Q2024.33 236.587 2018.52 236.587 Q2012.7 236.587 2009.63 232.004 Q2006.57 227.397 2006.57 218.67 Q2006.57 209.92 2009.63 205.337 Q2012.7 200.731 2018.52 200.731 Z" fill="#000000" fill-rule="evenodd" fill-opacity="1" /><path clip-path="url(#clip820)" d="M2038.68 230.036 L2043.56 230.036 L2043.56 235.916 L2038.68 235.916 L2038.68 230.036 Z" fill="#000000" fill-rule="evenodd" fill-opacity="1" /><path clip-path="url(#clip820)" d="M2064.33 216.772 Q2061.18 216.772 2059.33 218.925 Q2057.5 221.078 2057.5 224.828 Q2057.5 228.555 2059.33 230.731 Q2061.18 232.883 2064.33 232.883 Q2067.47 232.883 2069.3 230.731 Q2071.15 228.555 2071.15 224.828 Q2071.15 221.078 2069.3 218.925 Q2067.47 216.772 2064.33 216.772 M2073.61 202.12 L2073.61 206.379 Q2071.85 205.546 2070.04 205.106 Q2068.26 204.666 2066.5 204.666 Q2061.87 204.666 2059.42 207.791 Q2056.99 210.916 2056.64 217.235 Q2058.01 215.221 2060.07 214.157 Q2062.13 213.069 2064.6 213.069 Q2069.81 213.069 2072.82 216.24 Q2075.85 219.388 2075.85 224.828 Q2075.85 230.152 2072.7 233.369 Q2069.56 236.587 2064.33 236.587 Q2058.33 236.587 2055.16 232.004 Q2051.99 227.397 2051.99 218.67 Q2051.99 210.476 2055.88 205.615 Q2059.76 200.731 2066.32 200.731 Q2068.07 200.731 2069.86 201.078 Q2071.66 201.425 2073.61 202.12 Z" fill="#000000" fill-rule="evenodd" fill-opacity="1" /><path clip-path="url(#clip820)" d="M2084.39 230.036 L2089.28 230.036 L2089.28 234.018 L2085.48 241.425 L2082.5 241.425 L2084.39 234.018 L2084.39 230.036 Z" fill="#000000" fill-rule="evenodd" fill-opacity="1" /><path clip-path="url(#clip820)" d="M2122.13 230.985 L2122.13 221.703 L2114.49 221.703 L2114.49 217.86 L2126.76 217.86 L2126.76 232.698 Q2124.05 234.619 2120.78 235.615 Q2117.52 236.587 2113.82 236.587 Q2105.71 236.587 2101.13 231.865 Q2096.57 227.119 2096.57 218.67 Q2096.57 210.198 2101.13 205.476 Q2105.71 200.731 2113.82 200.731 Q2117.2 200.731 2120.23 201.564 Q2123.28 202.397 2125.85 204.018 L2125.85 208.995 Q2123.26 206.796 2120.34 205.684 Q2117.43 204.573 2114.21 204.573 Q2107.87 204.573 2104.67 208.115 Q2101.5 211.657 2101.5 218.67 Q2101.5 225.661 2104.67 229.203 Q2107.87 232.744 2114.21 232.744 Q2116.69 232.744 2118.63 232.328 Q2120.57 231.888 2122.13 230.985 Z" fill="#000000" fill-rule="evenodd" fill-opacity="1" /><path clip-path="url(#clip820)" d="M2136.85 217.814 L2146.66 217.814 L2146.66 220.453 L2132.82 220.453 L2132.82 217.907 Q2133.61 217.189 2135.07 215.893 Q2143.03 208.833 2143.03 206.657 Q2143.03 205.129 2141.82 204.203 Q2140.62 203.254 2138.65 203.254 Q2137.45 203.254 2136.04 203.671 Q2134.63 204.064 2132.96 204.874 L2132.96 202.027 Q2134.74 201.379 2136.27 201.055 Q2137.82 200.731 2139.14 200.731 Q2142.5 200.731 2144.51 202.258 Q2146.52 203.786 2146.52 206.286 Q2146.52 209.504 2138.86 216.078 Q2137.57 217.189 2136.85 217.814 Z" fill="#000000" fill-rule="evenodd" fill-opacity="1" /><path clip-path="url(#clip820)" d="M2154.67 214.388 L2184.35 214.388 L2184.35 218.277 L2154.67 218.277 L2154.67 214.388 M2154.67 223.832 L2184.35 223.832 L2184.35 227.768 L2154.67 227.768 L2154.67 223.832 Z" fill="#000000" fill-rule="evenodd" fill-opacity="1" /><path clip-path="url(#clip820)" d="M2195.25 231.981 L2202.89 231.981 L2202.89 205.615 L2194.58 207.282 L2194.58 203.022 L2202.84 201.356 L2207.52 201.356 L2207.52 231.981 L2215.16 231.981 L2215.16 235.916 L2195.25 235.916 L2195.25 231.981 Z" fill="#000000" fill-rule="evenodd" fill-opacity="1" /><path clip-path="url(#clip820)" d="M2224.6 230.036 L2229.49 230.036 L2229.49 235.916 L2224.6 235.916 L2224.6 230.036 Z" fill="#000000" fill-rule="evenodd" fill-opacity="1" /><path clip-path="url(#clip820)" d="M2239.72 201.356 L2258.07 201.356 L2258.07 205.291 L2244 205.291 L2244 213.763 Q2245.02 213.416 2246.04 213.254 Q2247.06 213.069 2248.07 213.069 Q2253.86 213.069 2257.24 216.24 Q2260.62 219.411 2260.62 224.828 Q2260.62 230.406 2257.15 233.508 Q2253.68 236.587 2247.36 236.587 Q2245.18 236.587 2242.91 236.217 Q2240.67 235.846 2238.26 235.106 L2238.26 230.406 Q2240.34 231.541 2242.56 232.096 Q2244.79 232.652 2247.26 232.652 Q2251.27 232.652 2253.61 230.545 Q2255.94 228.439 2255.94 224.828 Q2255.94 221.217 2253.61 219.11 Q2251.27 217.004 2247.26 217.004 Q2245.39 217.004 2243.51 217.42 Q2241.66 217.837 2239.72 218.717 L2239.72 201.356 Z" fill="#000000" fill-rule="evenodd" fill-opacity="1" /></svg>
