<?xml version="1.0" encoding="utf-8"?>
<svg xmlns="http://www.w3.org/2000/svg" xmlns:xlink="http://www.w3.org/1999/xlink" width="600" height="400" viewBox="0 0 2400 1600">
<defs>
  <clipPath id="clip540">
    <rect x="0" y="0" width="2400" height="1600"/>
  </clipPath>
</defs>
<path clip-path="url(#clip540)" d="
M0 1600 L2400 1600 L2400 0 L0 0  Z
  " fill="#ffffff" fill-rule="evenodd" fill-opacity="1"/>
<defs>
  <clipPath id="clip541">
    <rect x="480" y="0" width="1681" height="1600"/>
  </clipPath>
</defs>
<path clip-path="url(#clip540)" d="
M249.542 1423.18 L2352.76 1423.18 L2352.76 123.472 L249.542 123.472  Z
  " fill="#ffffff" fill-rule="evenodd" fill-opacity="1"/>
<defs>
  <clipPath id="clip542">
    <rect x="249" y="123" width="2104" height="1301"/>
  </clipPath>
</defs>
<polyline clip-path="url(#clip542)" style="stroke:#000000; stroke-linecap:round; stroke-linejoin:round; stroke-width:2; stroke-opacity:0.1; fill:none" points="
  249.542,1423.18 249.542,123.472 
  "/>
<polyline clip-path="url(#clip542)" style="stroke:#000000; stroke-linecap:round; stroke-linejoin:round; stroke-width:2; stroke-opacity:0.1; fill:none" points="
  550.001,1423.18 550.001,123.472 
  "/>
<polyline clip-path="url(#clip542)" style="stroke:#000000; stroke-linecap:round; stroke-linejoin:round; stroke-width:2; stroke-opacity:0.1; fill:none" points="
  850.46,1423.18 850.46,123.472 
  "/>
<polyline clip-path="url(#clip542)" style="stroke:#000000; stroke-linecap:round; stroke-linejoin:round; stroke-width:2; stroke-opacity:0.1; fill:none" points="
  1150.92,1423.18 1150.92,123.472 
  "/>
<polyline clip-path="url(#clip542)" style="stroke:#000000; stroke-linecap:round; stroke-linejoin:round; stroke-width:2; stroke-opacity:0.1; fill:none" points="
  1451.38,1423.18 1451.38,123.472 
  "/>
<polyline clip-path="url(#clip542)" style="stroke:#000000; stroke-linecap:round; stroke-linejoin:round; stroke-width:2; stroke-opacity:0.1; fill:none" points="
  1751.84,1423.18 1751.84,123.472 
  "/>
<polyline clip-path="url(#clip542)" style="stroke:#000000; stroke-linecap:round; stroke-linejoin:round; stroke-width:2; stroke-opacity:0.1; fill:none" points="
  2052.3,1423.18 2052.3,123.472 
  "/>
<polyline clip-path="url(#clip542)" style="stroke:#000000; stroke-linecap:round; stroke-linejoin:round; stroke-width:2; stroke-opacity:0.1; fill:none" points="
  2352.76,1423.18 2352.76,123.472 
  "/>
<polyline clip-path="url(#clip540)" style="stroke:#000000; stroke-linecap:round; stroke-linejoin:round; stroke-width:4; stroke-opacity:1; fill:none" points="
  249.542,1423.18 2352.76,1423.18 
  "/>
<polyline clip-path="url(#clip540)" style="stroke:#000000; stroke-linecap:round; stroke-linejoin:round; stroke-width:4; stroke-opacity:1; fill:none" points="
  249.542,1423.18 249.542,1404.28 
  "/>
<polyline clip-path="url(#clip540)" style="stroke:#000000; stroke-linecap:round; stroke-linejoin:round; stroke-width:4; stroke-opacity:1; fill:none" points="
  550.001,1423.18 550.001,1404.28 
  "/>
<polyline clip-path="url(#clip540)" style="stroke:#000000; stroke-linecap:round; stroke-linejoin:round; stroke-width:4; stroke-opacity:1; fill:none" points="
  850.46,1423.18 850.46,1404.28 
  "/>
<polyline clip-path="url(#clip540)" style="stroke:#000000; stroke-linecap:round; stroke-linejoin:round; stroke-width:4; stroke-opacity:1; fill:none" points="
  1150.92,1423.18 1150.92,1404.28 
  "/>
<polyline clip-path="url(#clip540)" style="stroke:#000000; stroke-linecap:round; stroke-linejoin:round; stroke-width:4; stroke-opacity:1; fill:none" points="
  1451.38,1423.18 1451.38,1404.28 
  "/>
<polyline clip-path="url(#clip540)" style="stroke:#000000; stroke-linecap:round; stroke-linejoin:round; stroke-width:4; stroke-opacity:1; fill:none" points="
  1751.84,1423.18 1751.84,1404.28 
  "/>
<polyline clip-path="url(#clip540)" style="stroke:#000000; stroke-linecap:round; stroke-linejoin:round; stroke-width:4; stroke-opacity:1; fill:none" points="
  2052.3,1423.18 2052.3,1404.28 
  "/>
<polyline clip-path="url(#clip540)" style="stroke:#000000; stroke-linecap:round; stroke-linejoin:round; stroke-width:4; stroke-opacity:1; fill:none" points="
  2352.76,1423.18 2352.76,1404.28 
  "/>
<path clip-path="url(#clip540)" d="M249.542 1454.1 Q245.931 1454.1 244.102 1457.66 Q242.297 1461.2 242.297 1468.33 Q242.297 1475.44 244.102 1479.01 Q245.931 1482.55 249.542 1482.55 Q253.176 1482.55 254.982 1479.01 Q256.811 1475.44 256.811 1468.33 Q256.811 1461.2 254.982 1457.66 Q253.176 1454.1 249.542 1454.1 M249.542 1450.39 Q255.352 1450.39 258.408 1455 Q261.486 1459.58 261.486 1468.33 Q261.486 1477.06 258.408 1481.67 Q255.352 1486.25 249.542 1486.25 Q243.732 1486.25 240.653 1481.67 Q237.598 1477.06 237.598 1468.33 Q237.598 1459.58 240.653 1455 Q243.732 1450.39 249.542 1450.39 Z" fill="#000000" fill-rule="evenodd" fill-opacity="1" /><path clip-path="url(#clip540)" d="M540.279 1451.02 L558.635 1451.02 L558.635 1454.96 L544.561 1454.96 L544.561 1463.43 Q545.58 1463.08 546.598 1462.92 Q547.617 1462.73 548.635 1462.73 Q554.422 1462.73 557.802 1465.9 Q561.182 1469.08 561.182 1474.49 Q561.182 1480.07 557.709 1483.17 Q554.237 1486.25 547.918 1486.25 Q545.742 1486.25 543.473 1485.88 Q541.228 1485.51 538.821 1484.77 L538.821 1480.07 Q540.904 1481.2 543.126 1481.76 Q545.348 1482.32 547.825 1482.32 Q551.83 1482.32 554.168 1480.21 Q556.506 1478.1 556.506 1474.49 Q556.506 1470.88 554.168 1468.77 Q551.83 1466.67 547.825 1466.67 Q545.95 1466.67 544.075 1467.08 Q542.223 1467.5 540.279 1468.38 L540.279 1451.02 Z" fill="#000000" fill-rule="evenodd" fill-opacity="1" /><path clip-path="url(#clip540)" d="M825.148 1481.64 L832.787 1481.64 L832.787 1455.28 L824.477 1456.95 L824.477 1452.69 L832.74 1451.02 L837.416 1451.02 L837.416 1481.64 L845.055 1481.64 L845.055 1485.58 L825.148 1485.58 L825.148 1481.64 Z" fill="#000000" fill-rule="evenodd" fill-opacity="1" /><path clip-path="url(#clip540)" d="M864.5 1454.1 Q860.888 1454.1 859.06 1457.66 Q857.254 1461.2 857.254 1468.33 Q857.254 1475.44 859.06 1479.01 Q860.888 1482.55 864.5 1482.55 Q868.134 1482.55 869.939 1479.01 Q871.768 1475.44 871.768 1468.33 Q871.768 1461.2 869.939 1457.66 Q868.134 1454.1 864.5 1454.1 M864.5 1450.39 Q870.31 1450.39 873.365 1455 Q876.444 1459.58 876.444 1468.33 Q876.444 1477.06 873.365 1481.67 Q870.31 1486.25 864.5 1486.25 Q858.689 1486.25 855.611 1481.67 Q852.555 1477.06 852.555 1468.33 Q852.555 1459.58 855.611 1455 Q858.689 1450.39 864.5 1450.39 Z" fill="#000000" fill-rule="evenodd" fill-opacity="1" /><path clip-path="url(#clip540)" d="M1126.1 1481.64 L1133.74 1481.64 L1133.74 1455.28 L1125.43 1456.95 L1125.43 1452.69 L1133.7 1451.02 L1138.37 1451.02 L1138.37 1481.64 L1146.01 1481.64 L1146.01 1485.58 L1126.1 1485.58 L1126.1 1481.64 Z" fill="#000000" fill-rule="evenodd" fill-opacity="1" /><path clip-path="url(#clip540)" d="M1155.5 1451.02 L1173.86 1451.02 L1173.86 1454.96 L1159.79 1454.96 L1159.79 1463.43 Q1160.8 1463.08 1161.82 1462.92 Q1162.84 1462.73 1163.86 1462.73 Q1169.65 1462.73 1173.03 1465.9 Q1176.41 1469.08 1176.41 1474.49 Q1176.41 1480.07 1172.93 1483.17 Q1169.46 1486.25 1163.14 1486.25 Q1160.97 1486.25 1158.7 1485.88 Q1156.45 1485.51 1154.04 1484.77 L1154.04 1480.07 Q1156.13 1481.2 1158.35 1481.76 Q1160.57 1482.32 1163.05 1482.32 Q1167.05 1482.32 1169.39 1480.21 Q1171.73 1478.1 1171.73 1474.49 Q1171.73 1470.88 1169.39 1468.77 Q1167.05 1466.67 1163.05 1466.67 Q1161.17 1466.67 1159.3 1467.08 Q1157.45 1467.5 1155.5 1468.38 L1155.5 1451.02 Z" fill="#000000" fill-rule="evenodd" fill-opacity="1" /><path clip-path="url(#clip540)" d="M1430.15 1481.64 L1446.47 1481.64 L1446.47 1485.58 L1424.53 1485.58 L1424.53 1481.64 Q1427.19 1478.89 1431.77 1474.26 Q1436.38 1469.61 1437.56 1468.27 Q1439.8 1465.74 1440.68 1464.01 Q1441.59 1462.25 1441.59 1460.56 Q1441.59 1457.8 1439.64 1456.07 Q1437.72 1454.33 1434.62 1454.33 Q1432.42 1454.33 1429.97 1455.09 Q1427.54 1455.86 1424.76 1457.41 L1424.76 1452.69 Q1427.58 1451.55 1430.04 1450.97 Q1432.49 1450.39 1434.53 1450.39 Q1439.9 1450.39 1443.09 1453.08 Q1446.29 1455.77 1446.29 1460.26 Q1446.29 1462.39 1445.48 1464.31 Q1444.69 1466.2 1442.58 1468.8 Q1442 1469.47 1438.9 1472.69 Q1435.8 1475.88 1430.15 1481.64 Z" fill="#000000" fill-rule="evenodd" fill-opacity="1" /><path clip-path="url(#clip540)" d="M1466.29 1454.1 Q1462.67 1454.1 1460.85 1457.66 Q1459.04 1461.2 1459.04 1468.33 Q1459.04 1475.44 1460.85 1479.01 Q1462.67 1482.55 1466.29 1482.55 Q1469.92 1482.55 1471.73 1479.01 Q1473.55 1475.44 1473.55 1468.33 Q1473.55 1461.2 1471.73 1457.66 Q1469.92 1454.1 1466.29 1454.1 M1466.29 1450.39 Q1472.1 1450.39 1475.15 1455 Q1478.23 1459.58 1478.23 1468.33 Q1478.23 1477.06 1475.15 1481.67 Q1472.1 1486.25 1466.29 1486.25 Q1460.48 1486.25 1457.4 1481.67 Q1454.34 1477.06 1454.34 1468.33 Q1454.34 1459.58 1457.4 1455 Q1460.48 1450.39 1466.29 1450.39 Z" fill="#000000" fill-rule="evenodd" fill-opacity="1" /><path clip-path="url(#clip540)" d="M1731.11 1481.64 L1747.43 1481.64 L1747.43 1485.58 L1725.48 1485.58 L1725.48 1481.64 Q1728.15 1478.89 1732.73 1474.26 Q1737.34 1469.61 1738.52 1468.27 Q1740.76 1465.74 1741.64 1464.01 Q1742.54 1462.25 1742.54 1460.56 Q1742.54 1457.8 1740.6 1456.07 Q1738.68 1454.33 1735.58 1454.33 Q1733.38 1454.33 1730.92 1455.09 Q1728.49 1455.86 1725.72 1457.41 L1725.72 1452.69 Q1728.54 1451.55 1730.99 1450.97 Q1733.45 1450.39 1735.48 1450.39 Q1740.85 1450.39 1744.05 1453.08 Q1747.24 1455.77 1747.24 1460.26 Q1747.24 1462.39 1746.43 1464.31 Q1745.65 1466.2 1743.54 1468.8 Q1742.96 1469.47 1739.86 1472.69 Q1736.76 1475.88 1731.11 1481.64 Z" fill="#000000" fill-rule="evenodd" fill-opacity="1" /><path clip-path="url(#clip540)" d="M1757.29 1451.02 L1775.65 1451.02 L1775.65 1454.96 L1761.57 1454.96 L1761.57 1463.43 Q1762.59 1463.08 1763.61 1462.92 Q1764.63 1462.73 1765.65 1462.73 Q1771.43 1462.73 1774.81 1465.9 Q1778.19 1469.08 1778.19 1474.49 Q1778.19 1480.07 1774.72 1483.17 Q1771.25 1486.25 1764.93 1486.25 Q1762.75 1486.25 1760.48 1485.88 Q1758.24 1485.51 1755.83 1484.77 L1755.83 1480.07 Q1757.91 1481.2 1760.14 1481.76 Q1762.36 1482.32 1764.84 1482.32 Q1768.84 1482.32 1771.18 1480.21 Q1773.52 1478.1 1773.52 1474.49 Q1773.52 1470.88 1771.18 1468.77 Q1768.84 1466.67 1764.84 1466.67 Q1762.96 1466.67 1761.09 1467.08 Q1759.23 1467.5 1757.29 1468.38 L1757.29 1451.02 Z" fill="#000000" fill-rule="evenodd" fill-opacity="1" /><path clip-path="url(#clip540)" d="M2041.14 1466.95 Q2044.5 1467.66 2046.37 1469.93 Q2048.27 1472.2 2048.27 1475.53 Q2048.27 1480.65 2044.75 1483.45 Q2041.23 1486.25 2034.75 1486.25 Q2032.57 1486.25 2030.26 1485.81 Q2027.97 1485.39 2025.51 1484.54 L2025.51 1480.02 Q2027.46 1481.16 2029.77 1481.74 Q2032.09 1482.32 2034.61 1482.32 Q2039.01 1482.32 2041.3 1480.58 Q2043.62 1478.84 2043.62 1475.53 Q2043.62 1472.48 2041.46 1470.77 Q2039.33 1469.03 2035.51 1469.03 L2031.49 1469.03 L2031.49 1465.19 L2035.7 1465.19 Q2039.15 1465.19 2040.98 1463.82 Q2042.81 1462.43 2042.81 1459.84 Q2042.81 1457.18 2040.91 1455.77 Q2039.03 1454.33 2035.51 1454.33 Q2033.59 1454.33 2031.39 1454.75 Q2029.2 1455.16 2026.56 1456.04 L2026.56 1451.88 Q2029.22 1451.14 2031.53 1450.77 Q2033.87 1450.39 2035.93 1450.39 Q2041.26 1450.39 2044.36 1452.83 Q2047.46 1455.23 2047.46 1459.35 Q2047.46 1462.22 2045.82 1464.21 Q2044.17 1466.18 2041.14 1466.95 Z" fill="#000000" fill-rule="evenodd" fill-opacity="1" /><path clip-path="url(#clip540)" d="M2067.13 1454.1 Q2063.52 1454.1 2061.69 1457.66 Q2059.89 1461.2 2059.89 1468.33 Q2059.89 1475.44 2061.69 1479.01 Q2063.52 1482.55 2067.13 1482.55 Q2070.77 1482.55 2072.57 1479.01 Q2074.4 1475.44 2074.4 1468.33 Q2074.4 1461.2 2072.57 1457.66 Q2070.77 1454.1 2067.13 1454.1 M2067.13 1450.39 Q2072.94 1450.39 2076 1455 Q2079.08 1459.58 2079.08 1468.33 Q2079.08 1477.06 2076 1481.67 Q2072.94 1486.25 2067.13 1486.25 Q2061.32 1486.25 2058.25 1481.67 Q2055.19 1477.06 2055.19 1468.33 Q2055.19 1459.58 2058.25 1455 Q2061.32 1450.39 2067.13 1450.39 Z" fill="#000000" fill-rule="evenodd" fill-opacity="1" /><path clip-path="url(#clip540)" d="M2342.1 1466.95 Q2345.45 1467.66 2347.33 1469.93 Q2349.23 1472.2 2349.23 1475.53 Q2349.23 1480.65 2345.71 1483.45 Q2342.19 1486.25 2335.71 1486.25 Q2333.53 1486.25 2331.22 1485.81 Q2328.93 1485.39 2326.47 1484.54 L2326.47 1480.02 Q2328.42 1481.16 2330.73 1481.74 Q2333.05 1482.32 2335.57 1482.32 Q2339.97 1482.32 2342.26 1480.58 Q2344.57 1478.84 2344.57 1475.53 Q2344.57 1472.48 2342.42 1470.77 Q2340.29 1469.03 2336.47 1469.03 L2332.44 1469.03 L2332.44 1465.19 L2336.66 1465.19 Q2340.11 1465.19 2341.93 1463.82 Q2343.76 1462.43 2343.76 1459.84 Q2343.76 1457.18 2341.86 1455.77 Q2339.99 1454.33 2336.47 1454.33 Q2334.55 1454.33 2332.35 1454.75 Q2330.15 1455.16 2327.51 1456.04 L2327.51 1451.88 Q2330.18 1451.14 2332.49 1450.77 Q2334.83 1450.39 2336.89 1450.39 Q2342.21 1450.39 2345.31 1452.83 Q2348.42 1455.23 2348.42 1459.35 Q2348.42 1462.22 2346.77 1464.21 Q2345.13 1466.18 2342.1 1466.95 Z" fill="#000000" fill-rule="evenodd" fill-opacity="1" /><path clip-path="url(#clip540)" d="M2358.14 1451.02 L2376.49 1451.02 L2376.49 1454.96 L2362.42 1454.96 L2362.42 1463.43 Q2363.44 1463.08 2364.46 1462.92 Q2365.48 1462.73 2366.49 1462.73 Q2372.28 1462.73 2375.66 1465.9 Q2379.04 1469.08 2379.04 1474.49 Q2379.04 1480.07 2375.57 1483.17 Q2372.1 1486.25 2365.78 1486.25 Q2363.6 1486.25 2361.33 1485.88 Q2359.09 1485.51 2356.68 1484.77 L2356.68 1480.07 Q2358.76 1481.2 2360.99 1481.76 Q2363.21 1482.32 2365.68 1482.32 Q2369.69 1482.32 2372.03 1480.21 Q2374.36 1478.1 2374.36 1474.49 Q2374.36 1470.88 2372.03 1468.77 Q2369.69 1466.67 2365.68 1466.67 Q2363.81 1466.67 2361.93 1467.08 Q2360.08 1467.5 2358.14 1468.38 L2358.14 1451.02 Z" fill="#000000" fill-rule="evenodd" fill-opacity="1" /><path clip-path="url(#clip540)" d="M1130.02 1522.08 L1130.02 1528.35 Q1126.36 1526.6 1123.12 1525.74 Q1119.87 1524.88 1116.85 1524.88 Q1111.59 1524.88 1108.73 1526.92 Q1105.9 1528.96 1105.9 1532.71 Q1105.9 1535.87 1107.77 1537.49 Q1109.68 1539.08 1114.97 1540.07 L1118.85 1540.86 Q1126.04 1542.23 1129.45 1545.7 Q1132.89 1549.14 1132.89 1554.93 Q1132.89 1561.84 1128.24 1565.4 Q1123.63 1568.97 1114.68 1568.97 Q1111.31 1568.97 1107.49 1568.2 Q1103.7 1567.44 1099.63 1565.94 L1099.63 1559.32 Q1103.54 1561.52 1107.3 1562.63 Q1111.05 1563.75 1114.68 1563.75 Q1120.19 1563.75 1123.18 1561.58 Q1126.17 1559.42 1126.17 1555.41 Q1126.17 1551.91 1124.01 1549.93 Q1121.87 1547.96 1116.97 1546.97 L1113.06 1546.21 Q1105.87 1544.78 1102.65 1541.72 Q1099.44 1538.67 1099.44 1533.22 Q1099.44 1526.92 1103.86 1523.29 Q1108.32 1519.66 1116.11 1519.66 Q1119.46 1519.66 1122.93 1520.27 Q1126.39 1520.87 1130.02 1522.08 Z" fill="#000000" fill-rule="evenodd" fill-opacity="1" /><path clip-path="url(#clip540)" d="M1142.66 1532.4 L1148.52 1532.4 L1148.52 1568.04 L1142.66 1568.04 L1142.66 1532.4 M1142.66 1518.52 L1148.52 1518.52 L1148.52 1525.93 L1142.66 1525.93 L1142.66 1518.52 Z" fill="#000000" fill-rule="evenodd" fill-opacity="1" /><path clip-path="url(#clip540)" d="M1166.56 1522.27 L1166.56 1532.4 L1178.63 1532.4 L1178.63 1536.95 L1166.56 1536.95 L1166.56 1556.3 Q1166.56 1560.66 1167.74 1561.9 Q1168.95 1563.14 1172.61 1563.14 L1178.63 1563.14 L1178.63 1568.04 L1172.61 1568.04 Q1165.83 1568.04 1163.25 1565.53 Q1160.67 1562.98 1160.67 1556.3 L1160.67 1536.95 L1156.38 1536.95 L1156.38 1532.4 L1160.67 1532.4 L1160.67 1522.27 L1166.56 1522.27 Z" fill="#000000" fill-rule="evenodd" fill-opacity="1" /><path clip-path="url(#clip540)" d="M1216.82 1548.76 L1216.82 1551.62 L1189.89 1551.62 Q1190.27 1557.67 1193.52 1560.85 Q1196.8 1564 1202.62 1564 Q1206 1564 1209.15 1563.17 Q1212.33 1562.35 1215.45 1560.69 L1215.45 1566.23 Q1212.3 1567.57 1208.99 1568.27 Q1205.68 1568.97 1202.27 1568.97 Q1193.74 1568.97 1188.75 1564 Q1183.78 1559.04 1183.78 1550.57 Q1183.78 1541.82 1188.49 1536.69 Q1193.23 1531.54 1201.26 1531.54 Q1208.45 1531.54 1212.62 1536.18 Q1216.82 1540.8 1216.82 1548.76 M1210.96 1547.04 Q1210.9 1542.23 1208.26 1539.37 Q1205.65 1536.5 1201.32 1536.5 Q1196.42 1536.5 1193.46 1539.27 Q1190.53 1542.04 1190.08 1547.07 L1210.96 1547.04 Z" fill="#000000" fill-rule="evenodd" fill-opacity="1" /><path clip-path="url(#clip540)" d="M1247.41 1520.52 L1256.06 1520.52 L1277.13 1560.28 L1277.13 1520.52 L1283.37 1520.52 L1283.37 1568.04 L1274.72 1568.04 L1253.64 1528.29 L1253.64 1568.04 L1247.41 1568.04 L1247.41 1520.52 Z" fill="#000000" fill-rule="evenodd" fill-opacity="1" /><path clip-path="url(#clip540)" d="M1295.31 1553.98 L1295.31 1532.4 L1301.16 1532.4 L1301.16 1553.75 Q1301.16 1558.81 1303.14 1561.36 Q1305.11 1563.87 1309.06 1563.87 Q1313.8 1563.87 1316.54 1560.85 Q1319.31 1557.83 1319.31 1552.61 L1319.31 1532.4 L1325.16 1532.4 L1325.16 1568.04 L1319.31 1568.04 L1319.31 1562.57 Q1317.17 1565.82 1314.34 1567.41 Q1311.54 1568.97 1307.82 1568.97 Q1301.67 1568.97 1298.49 1565.15 Q1295.31 1561.33 1295.31 1553.98 M1310.05 1531.54 L1310.05 1531.54 Z" fill="#000000" fill-rule="evenodd" fill-opacity="1" /><path clip-path="url(#clip540)" d="M1364.98 1539.24 Q1367.18 1535.29 1370.23 1533.41 Q1373.29 1531.54 1377.43 1531.54 Q1383 1531.54 1386.02 1535.45 Q1389.04 1539.33 1389.04 1546.53 L1389.04 1568.04 L1383.16 1568.04 L1383.16 1546.72 Q1383.16 1541.59 1381.34 1539.11 Q1379.53 1536.63 1375.8 1536.63 Q1371.25 1536.63 1368.61 1539.65 Q1365.97 1542.68 1365.97 1547.9 L1365.97 1568.04 L1360.08 1568.04 L1360.08 1546.72 Q1360.08 1541.56 1358.27 1539.11 Q1356.45 1536.63 1352.66 1536.63 Q1348.18 1536.63 1345.53 1539.68 Q1342.89 1542.71 1342.89 1547.9 L1342.89 1568.04 L1337 1568.04 L1337 1532.4 L1342.89 1532.4 L1342.89 1537.93 Q1344.9 1534.66 1347.7 1533.1 Q1350.5 1531.54 1354.35 1531.54 Q1358.23 1531.54 1360.94 1533.51 Q1363.68 1535.48 1364.98 1539.24 Z" fill="#000000" fill-rule="evenodd" fill-opacity="1" /><path clip-path="url(#clip540)" d="M1426.31 1550.25 Q1426.31 1543.79 1423.64 1540.13 Q1421 1536.44 1416.35 1536.44 Q1411.71 1536.44 1409.03 1540.13 Q1406.39 1543.79 1406.39 1550.25 Q1406.39 1556.71 1409.03 1560.4 Q1411.71 1564.07 1416.35 1564.07 Q1421 1564.07 1423.64 1560.4 Q1426.31 1556.71 1426.31 1550.25 M1406.39 1537.81 Q1408.24 1534.62 1411.04 1533.1 Q1413.87 1531.54 1417.78 1531.54 Q1424.28 1531.54 1428.32 1536.69 Q1432.39 1541.85 1432.39 1550.25 Q1432.39 1558.65 1428.32 1563.81 Q1424.28 1568.97 1417.78 1568.97 Q1413.87 1568.97 1411.04 1567.44 Q1408.24 1565.88 1406.39 1562.7 L1406.39 1568.04 L1400.5 1568.04 L1400.5 1518.52 L1406.39 1518.52 L1406.39 1537.81 Z" fill="#000000" fill-rule="evenodd" fill-opacity="1" /><path clip-path="url(#clip540)" d="M1472.59 1548.76 L1472.59 1551.62 L1445.67 1551.62 Q1446.05 1557.67 1449.29 1560.85 Q1452.57 1564 1458.4 1564 Q1461.77 1564 1464.92 1563.17 Q1468.11 1562.35 1471.22 1560.69 L1471.22 1566.23 Q1468.07 1567.57 1464.76 1568.27 Q1461.45 1568.97 1458.05 1568.97 Q1449.52 1568.97 1444.52 1564 Q1439.56 1559.04 1439.56 1550.57 Q1439.56 1541.82 1444.27 1536.69 Q1449.01 1531.54 1457.03 1531.54 Q1464.22 1531.54 1468.39 1536.18 Q1472.59 1540.8 1472.59 1548.76 M1466.74 1547.04 Q1466.67 1542.23 1464.03 1539.37 Q1461.42 1536.5 1457.09 1536.5 Q1452.19 1536.5 1449.23 1539.27 Q1446.3 1542.04 1445.86 1547.07 L1466.74 1547.04 Z" fill="#000000" fill-rule="evenodd" fill-opacity="1" /><path clip-path="url(#clip540)" d="M1502.86 1537.87 Q1501.88 1537.3 1500.7 1537.04 Q1499.55 1536.76 1498.15 1536.76 Q1493.19 1536.76 1490.51 1540 Q1487.87 1543.22 1487.87 1549.27 L1487.87 1568.04 L1481.98 1568.04 L1481.98 1532.4 L1487.87 1532.4 L1487.87 1537.93 Q1489.72 1534.69 1492.68 1533.13 Q1495.64 1531.54 1499.87 1531.54 Q1500.48 1531.54 1501.21 1531.63 Q1501.94 1531.7 1502.83 1531.85 L1502.86 1537.87 Z" fill="#000000" fill-rule="evenodd" fill-opacity="1" /><polyline clip-path="url(#clip542)" style="stroke:#000000; stroke-linecap:round; stroke-linejoin:round; stroke-width:2; stroke-opacity:0.1; fill:none" points="
  249.542,1423.18 2352.76,1423.18 
  "/>
<polyline clip-path="url(#clip542)" style="stroke:#000000; stroke-linecap:round; stroke-linejoin:round; stroke-width:2; stroke-opacity:0.1; fill:none" points="
  249.542,989.944 2352.76,989.944 
  "/>
<polyline clip-path="url(#clip542)" style="stroke:#000000; stroke-linecap:round; stroke-linejoin:round; stroke-width:2; stroke-opacity:0.1; fill:none" points="
  249.542,556.708 2352.76,556.708 
  "/>
<polyline clip-path="url(#clip542)" style="stroke:#000000; stroke-linecap:round; stroke-linejoin:round; stroke-width:2; stroke-opacity:0.1; fill:none" points="
  249.542,123.472 2352.76,123.472 
  "/>
<polyline clip-path="url(#clip540)" style="stroke:#000000; stroke-linecap:round; stroke-linejoin:round; stroke-width:4; stroke-opacity:1; fill:none" points="
  249.542,1423.18 249.542,123.472 
  "/>
<polyline clip-path="url(#clip540)" style="stroke:#000000; stroke-linecap:round; stroke-linejoin:round; stroke-width:4; stroke-opacity:1; fill:none" points="
  249.542,1423.18 268.44,1423.18 
  "/>
<polyline clip-path="url(#clip540)" style="stroke:#000000; stroke-linecap:round; stroke-linejoin:round; stroke-width:4; stroke-opacity:1; fill:none" points="
  249.542,989.944 268.44,989.944 
  "/>
<polyline clip-path="url(#clip540)" style="stroke:#000000; stroke-linecap:round; stroke-linejoin:round; stroke-width:4; stroke-opacity:1; fill:none" points="
  249.542,556.708 268.44,556.708 
  "/>
<polyline clip-path="url(#clip540)" style="stroke:#000000; stroke-linecap:round; stroke-linejoin:round; stroke-width:4; stroke-opacity:1; fill:none" points="
  249.542,123.472 268.44,123.472 
  "/>
<path clip-path="url(#clip540)" d="M127.2 1408.98 Q123.589 1408.98 121.76 1412.54 Q119.955 1416.08 119.955 1423.21 Q119.955 1430.32 121.76 1433.89 Q123.589 1437.43 127.2 1437.43 Q130.834 1437.43 132.64 1433.89 Q134.468 1430.32 134.468 1423.21 Q134.468 1416.08 132.64 1412.54 Q130.834 1408.98 127.2 1408.98 M127.2 1405.27 Q133.01 1405.27 136.066 1409.88 Q139.144 1414.46 139.144 1423.21 Q139.144 1431.94 136.066 1436.55 Q133.01 1441.13 127.2 1441.13 Q121.39 1441.13 118.311 1436.55 Q115.256 1431.94 115.256 1423.21 Q115.256 1414.46 118.311 1409.88 Q121.39 1405.27 127.2 1405.27 Z" fill="#000000" fill-rule="evenodd" fill-opacity="1" /><path clip-path="url(#clip540)" d="M147.362 1434.58 L152.246 1434.58 L152.246 1440.46 L147.362 1440.46 L147.362 1434.58 Z" fill="#000000" fill-rule="evenodd" fill-opacity="1" /><path clip-path="url(#clip540)" d="M176.598 1421.83 Q179.954 1422.54 181.829 1424.81 Q183.727 1427.08 183.727 1430.41 Q183.727 1435.53 180.209 1438.33 Q176.69 1441.13 170.209 1441.13 Q168.033 1441.13 165.718 1440.69 Q163.427 1440.27 160.973 1439.42 L160.973 1434.9 Q162.917 1436.04 165.232 1436.62 Q167.547 1437.2 170.07 1437.2 Q174.468 1437.2 176.76 1435.46 Q179.075 1433.72 179.075 1430.41 Q179.075 1427.36 176.922 1425.65 Q174.792 1423.91 170.973 1423.91 L166.945 1423.91 L166.945 1420.07 L171.158 1420.07 Q174.607 1420.07 176.436 1418.7 Q178.264 1417.31 178.264 1414.72 Q178.264 1412.06 176.366 1410.65 Q174.491 1409.21 170.973 1409.21 Q169.052 1409.21 166.852 1409.63 Q164.653 1410.04 162.015 1410.92 L162.015 1406.76 Q164.677 1406.02 166.991 1405.65 Q169.329 1405.27 171.389 1405.27 Q176.714 1405.27 179.815 1407.71 Q182.917 1410.11 182.917 1414.23 Q182.917 1417.1 181.274 1419.09 Q179.63 1421.06 176.598 1421.83 Z" fill="#000000" fill-rule="evenodd" fill-opacity="1" /><path clip-path="url(#clip540)" d="M192.639 1405.9 L210.996 1405.9 L210.996 1409.84 L196.922 1409.84 L196.922 1418.31 Q197.94 1417.96 198.959 1417.8 Q199.977 1417.61 200.996 1417.61 Q206.783 1417.61 210.162 1420.78 Q213.542 1423.96 213.542 1429.37 Q213.542 1434.95 210.07 1438.05 Q206.598 1441.13 200.278 1441.13 Q198.102 1441.13 195.834 1440.76 Q193.588 1440.39 191.181 1439.65 L191.181 1434.95 Q193.264 1436.08 195.487 1436.64 Q197.709 1437.2 200.186 1437.2 Q204.19 1437.2 206.528 1435.09 Q208.866 1432.98 208.866 1429.37 Q208.866 1425.76 206.528 1423.65 Q204.19 1421.55 200.186 1421.55 Q198.311 1421.55 196.436 1421.96 Q194.584 1422.38 192.639 1423.26 L192.639 1405.9 Z" fill="#000000" fill-rule="evenodd" fill-opacity="1" /><path clip-path="url(#clip540)" d="M126.205 975.743 Q122.593 975.743 120.765 979.307 Q118.959 982.849 118.959 989.979 Q118.959 997.085 120.765 1000.65 Q122.593 1004.19 126.205 1004.19 Q129.839 1004.19 131.644 1000.65 Q133.473 997.085 133.473 989.979 Q133.473 982.849 131.644 979.307 Q129.839 975.743 126.205 975.743 M126.205 972.039 Q132.015 972.039 135.07 976.645 Q138.149 981.229 138.149 989.979 Q138.149 998.705 135.07 1003.31 Q132.015 1007.9 126.205 1007.9 Q120.394 1007.9 117.316 1003.31 Q114.26 998.705 114.26 989.979 Q114.26 981.229 117.316 976.645 Q120.394 972.039 126.205 972.039 Z" fill="#000000" fill-rule="evenodd" fill-opacity="1" /><path clip-path="url(#clip540)" d="M146.366 1001.34 L151.251 1001.34 L151.251 1007.22 L146.366 1007.22 L146.366 1001.34 Z" fill="#000000" fill-rule="evenodd" fill-opacity="1" /><path clip-path="url(#clip540)" d="M174.283 976.738 L162.477 995.187 L174.283 995.187 L174.283 976.738 M173.056 972.664 L178.936 972.664 L178.936 995.187 L183.866 995.187 L183.866 999.076 L178.936 999.076 L178.936 1007.22 L174.283 1007.22 L174.283 999.076 L158.681 999.076 L158.681 994.562 L173.056 972.664 Z" fill="#000000" fill-rule="evenodd" fill-opacity="1" /><path clip-path="url(#clip540)" d="M201.598 975.743 Q197.987 975.743 196.158 979.307 Q194.352 982.849 194.352 989.979 Q194.352 997.085 196.158 1000.65 Q197.987 1004.19 201.598 1004.19 Q205.232 1004.19 207.037 1000.65 Q208.866 997.085 208.866 989.979 Q208.866 982.849 207.037 979.307 Q205.232 975.743 201.598 975.743 M201.598 972.039 Q207.408 972.039 210.463 976.645 Q213.542 981.229 213.542 989.979 Q213.542 998.705 210.463 1003.31 Q207.408 1007.9 201.598 1007.9 Q195.787 1007.9 192.709 1003.31 Q189.653 998.705 189.653 989.979 Q189.653 981.229 192.709 976.645 Q195.787 972.039 201.598 972.039 Z" fill="#000000" fill-rule="evenodd" fill-opacity="1" /><path clip-path="url(#clip540)" d="M127.2 542.507 Q123.589 542.507 121.76 546.072 Q119.955 549.613 119.955 556.743 Q119.955 563.849 121.76 567.414 Q123.589 570.956 127.2 570.956 Q130.834 570.956 132.64 567.414 Q134.468 563.849 134.468 556.743 Q134.468 549.613 132.64 546.072 Q130.834 542.507 127.2 542.507 M127.2 538.803 Q133.01 538.803 136.066 543.409 Q139.144 547.993 139.144 556.743 Q139.144 565.47 136.066 570.076 Q133.01 574.659 127.2 574.659 Q121.39 574.659 118.311 570.076 Q115.256 565.47 115.256 556.743 Q115.256 547.993 118.311 543.409 Q121.39 538.803 127.2 538.803 Z" fill="#000000" fill-rule="evenodd" fill-opacity="1" /><path clip-path="url(#clip540)" d="M147.362 568.108 L152.246 568.108 L152.246 573.988 L147.362 573.988 L147.362 568.108 Z" fill="#000000" fill-rule="evenodd" fill-opacity="1" /><path clip-path="url(#clip540)" d="M175.278 543.502 L163.473 561.951 L175.278 561.951 L175.278 543.502 M174.052 539.428 L179.931 539.428 L179.931 561.951 L184.862 561.951 L184.862 565.84 L179.931 565.84 L179.931 573.988 L175.278 573.988 L175.278 565.84 L159.677 565.84 L159.677 561.326 L174.052 539.428 Z" fill="#000000" fill-rule="evenodd" fill-opacity="1" /><path clip-path="url(#clip540)" d="M192.639 539.428 L210.996 539.428 L210.996 543.363 L196.922 543.363 L196.922 551.835 Q197.94 551.488 198.959 551.326 Q199.977 551.141 200.996 551.141 Q206.783 551.141 210.162 554.312 Q213.542 557.483 213.542 562.9 Q213.542 568.479 210.07 571.581 Q206.598 574.659 200.278 574.659 Q198.102 574.659 195.834 574.289 Q193.588 573.919 191.181 573.178 L191.181 568.479 Q193.264 569.613 195.487 570.169 Q197.709 570.724 200.186 570.724 Q204.19 570.724 206.528 568.618 Q208.866 566.511 208.866 562.9 Q208.866 559.289 206.528 557.183 Q204.19 555.076 200.186 555.076 Q198.311 555.076 196.436 555.493 Q194.584 555.909 192.639 556.789 L192.639 539.428 Z" fill="#000000" fill-rule="evenodd" fill-opacity="1" /><path clip-path="url(#clip540)" d="M126.205 109.271 Q122.593 109.271 120.765 112.836 Q118.959 116.377 118.959 123.507 Q118.959 130.613 120.765 134.178 Q122.593 137.72 126.205 137.72 Q129.839 137.72 131.644 134.178 Q133.473 130.613 133.473 123.507 Q133.473 116.377 131.644 112.836 Q129.839 109.271 126.205 109.271 M126.205 105.567 Q132.015 105.567 135.07 110.174 Q138.149 114.757 138.149 123.507 Q138.149 132.234 135.07 136.84 Q132.015 141.423 126.205 141.423 Q120.394 141.423 117.316 136.84 Q114.26 132.234 114.26 123.507 Q114.26 114.757 117.316 110.174 Q120.394 105.567 126.205 105.567 Z" fill="#000000" fill-rule="evenodd" fill-opacity="1" /><path clip-path="url(#clip540)" d="M146.366 134.873 L151.251 134.873 L151.251 140.752 L146.366 140.752 L146.366 134.873 Z" fill="#000000" fill-rule="evenodd" fill-opacity="1" /><path clip-path="url(#clip540)" d="M161.482 106.192 L179.839 106.192 L179.839 110.127 L165.765 110.127 L165.765 118.599 Q166.783 118.252 167.802 118.09 Q168.82 117.905 169.839 117.905 Q175.626 117.905 179.005 121.076 Q182.385 124.248 182.385 129.664 Q182.385 135.243 178.913 138.345 Q175.44 141.423 169.121 141.423 Q166.945 141.423 164.677 141.053 Q162.431 140.683 160.024 139.942 L160.024 135.243 Q162.107 136.377 164.329 136.933 Q166.552 137.488 169.028 137.488 Q173.033 137.488 175.371 135.382 Q177.709 133.275 177.709 129.664 Q177.709 126.053 175.371 123.947 Q173.033 121.84 169.028 121.84 Q167.153 121.84 165.278 122.257 Q163.427 122.674 161.482 123.553 L161.482 106.192 Z" fill="#000000" fill-rule="evenodd" fill-opacity="1" /><path clip-path="url(#clip540)" d="M201.598 109.271 Q197.987 109.271 196.158 112.836 Q194.352 116.377 194.352 123.507 Q194.352 130.613 196.158 134.178 Q197.987 137.72 201.598 137.72 Q205.232 137.72 207.037 134.178 Q208.866 130.613 208.866 123.507 Q208.866 116.377 207.037 112.836 Q205.232 109.271 201.598 109.271 M201.598 105.567 Q207.408 105.567 210.463 110.174 Q213.542 114.757 213.542 123.507 Q213.542 132.234 210.463 136.84 Q207.408 141.423 201.598 141.423 Q195.787 141.423 192.709 136.84 Q189.653 132.234 189.653 123.507 Q189.653 114.757 192.709 110.174 Q195.787 105.567 201.598 105.567 Z" fill="#000000" fill-rule="evenodd" fill-opacity="1" /><path clip-path="url(#clip540)" d="M16.4842 987.834 L16.4842 981.405 L64.0042 981.405 L64.0042 987.834 L16.4842 987.834 Z" fill="#000000" fill-rule="evenodd" fill-opacity="1" /><path clip-path="url(#clip540)" d="M42.4881 939.232 L64.0042 939.232 L64.0042 945.089 L42.679 945.089 Q37.6183 945.089 35.1038 947.062 Q32.5894 949.035 32.5894 952.982 Q32.5894 957.725 35.6131 960.462 Q38.6368 963.199 43.8567 963.199 L64.0042 963.199 L64.0042 969.087 L28.3562 969.087 L28.3562 963.199 L33.8944 963.199 Q30.6797 961.098 29.0883 958.266 Q27.4968 955.401 27.4968 951.677 Q27.4968 945.534 31.3163 942.383 Q35.1038 939.232 42.4881 939.232 Z" fill="#000000" fill-rule="evenodd" fill-opacity="1" /><path clip-path="url(#clip540)" d="M42.4881 897.919 L64.0042 897.919 L64.0042 903.775 L42.679 903.775 Q37.6183 903.775 35.1038 905.749 Q32.5894 907.722 32.5894 911.669 Q32.5894 916.411 35.6131 919.148 Q38.6368 921.886 43.8567 921.886 L64.0042 921.886 L64.0042 927.774 L28.3562 927.774 L28.3562 921.886 L33.8944 921.886 Q30.6797 919.785 29.0883 916.952 Q27.4968 914.088 27.4968 910.364 Q27.4968 904.221 31.3163 901.07 Q35.1038 897.919 42.4881 897.919 Z" fill="#000000" fill-rule="evenodd" fill-opacity="1" /><path clip-path="url(#clip540)" d="M44.7161 855.746 L47.5806 855.746 L47.5806 882.673 Q53.6281 882.291 56.8109 879.044 Q59.9619 875.766 59.9619 869.941 Q59.9619 866.568 59.1344 863.417 Q58.3069 860.234 56.6518 857.115 L62.1899 857.115 Q63.5267 860.266 64.227 863.576 Q64.9272 866.886 64.9272 870.292 Q64.9272 878.822 59.9619 883.819 Q54.9967 888.784 46.5303 888.784 Q37.7774 888.784 32.6531 884.073 Q27.4968 879.331 27.4968 871.31 Q27.4968 864.117 32.1438 859.947 Q36.7589 855.746 44.7161 855.746 M42.9973 861.602 Q38.1912 861.666 35.3266 864.308 Q32.4621 866.918 32.4621 871.246 Q32.4621 876.148 35.2312 879.108 Q38.0002 882.036 43.0292 882.482 L42.9973 861.602 Z" fill="#000000" fill-rule="evenodd" fill-opacity="1" /><path clip-path="url(#clip540)" d="M33.8307 825.477 Q33.2578 826.464 33.0032 827.641 Q32.7167 828.787 32.7167 830.188 Q32.7167 835.153 35.9632 837.827 Q39.1779 840.468 45.2253 840.468 L64.0042 840.468 L64.0042 846.357 L28.3562 846.357 L28.3562 840.468 L33.8944 840.468 Q30.6479 838.622 29.0883 835.662 Q27.4968 832.702 27.4968 828.469 Q27.4968 827.864 27.5923 827.132 Q27.656 826.4 27.8151 825.509 L33.8307 825.477 Z" fill="#000000" fill-rule="evenodd" fill-opacity="1" /><path clip-path="url(#clip540)" d="M21.7677 791.93 L39.6235 791.93 L39.6235 783.845 Q39.6235 779.357 37.3 776.907 Q34.9765 774.456 30.6797 774.456 Q26.4147 774.456 24.0912 776.907 Q21.7677 779.357 21.7677 783.845 L21.7677 791.93 M16.4842 798.359 L16.4842 783.845 Q16.4842 775.856 20.1126 771.782 Q23.7092 767.676 30.6797 767.676 Q37.7138 767.676 41.3104 771.782 Q44.907 775.856 44.907 783.845 L44.907 791.93 L64.0042 791.93 L64.0042 798.359 L16.4842 798.359 Z" fill="#000000" fill-rule="evenodd" fill-opacity="1" /><path clip-path="url(#clip540)" d="M33.8307 739.795 Q33.2578 740.781 33.0032 741.959 Q32.7167 743.105 32.7167 744.505 Q32.7167 749.47 35.9632 752.144 Q39.1779 754.786 45.2253 754.786 L64.0042 754.786 L64.0042 760.674 L28.3562 760.674 L28.3562 754.786 L33.8944 754.786 Q30.6479 752.94 29.0883 749.98 Q27.4968 747.02 27.4968 742.787 Q27.4968 742.182 27.5923 741.45 Q27.656 740.718 27.8151 739.826 L33.8307 739.795 Z" fill="#000000" fill-rule="evenodd" fill-opacity="1" /><path clip-path="url(#clip540)" d="M32.4621 721.27 Q32.4621 725.981 36.1542 728.718 Q39.8145 731.456 46.212 731.456 Q52.6095 731.456 56.3017 728.75 Q59.9619 726.013 59.9619 721.27 Q59.9619 716.592 56.2698 713.854 Q52.5777 711.117 46.212 711.117 Q39.8781 711.117 36.186 713.854 Q32.4621 716.592 32.4621 721.27 M27.4968 721.27 Q27.4968 713.632 32.4621 709.271 Q37.4273 704.911 46.212 704.911 Q54.9649 704.911 59.9619 709.271 Q64.9272 713.632 64.9272 721.27 Q64.9272 728.941 59.9619 733.302 Q54.9649 737.63 46.212 737.63 Q37.4273 737.63 32.4621 733.302 Q27.4968 728.941 27.4968 721.27 Z" fill="#000000" fill-rule="evenodd" fill-opacity="1" /><path clip-path="url(#clip540)" d="M33.7671 671.745 L14.479 671.745 L14.479 665.889 L64.0042 665.889 L64.0042 671.745 L58.657 671.745 Q61.8398 673.591 63.3994 676.424 Q64.9272 679.225 64.9272 683.172 Q64.9272 689.633 59.771 693.707 Q54.6147 697.749 46.212 697.749 Q37.8093 697.749 32.6531 693.707 Q27.4968 689.633 27.4968 683.172 Q27.4968 679.225 29.0564 676.424 Q30.5842 673.591 33.7671 671.745 M46.212 691.702 Q52.6732 691.702 56.3653 689.06 Q60.0256 686.386 60.0256 681.739 Q60.0256 677.092 56.3653 674.419 Q52.6732 671.745 46.212 671.745 Q39.7508 671.745 36.0905 674.419 Q32.3984 677.092 32.3984 681.739 Q32.3984 686.386 36.0905 689.06 Q39.7508 691.702 46.212 691.702 Z" fill="#000000" fill-rule="evenodd" fill-opacity="1" /><path clip-path="url(#clip540)" d="M49.9359 654.43 L28.3562 654.43 L28.3562 648.574 L49.7131 648.574 Q54.7739 648.574 57.3202 646.601 Q59.8346 644.627 59.8346 640.681 Q59.8346 635.938 56.8109 633.201 Q53.7872 630.432 48.5673 630.432 L28.3562 630.432 L28.3562 624.575 L64.0042 624.575 L64.0042 630.432 L58.5296 630.432 Q61.7762 632.564 63.3676 635.397 Q64.9272 638.198 64.9272 641.922 Q64.9272 648.065 61.1078 651.248 Q57.2883 654.43 49.9359 654.43 M27.4968 639.694 L27.4968 639.694 Z" fill="#000000" fill-rule="evenodd" fill-opacity="1" /><path clip-path="url(#clip540)" d="M29.7248 586.859 L35.1993 586.859 Q33.8307 589.341 33.1623 591.856 Q32.4621 594.338 32.4621 596.885 Q32.4621 602.582 36.0905 605.733 Q39.6872 608.884 46.212 608.884 Q52.7369 608.884 56.3653 605.733 Q59.9619 602.582 59.9619 596.885 Q59.9619 594.338 59.2935 591.856 Q58.5933 589.341 57.2247 586.859 L62.6355 586.859 Q63.7814 589.309 64.3543 591.951 Q64.9272 594.561 64.9272 597.521 Q64.9272 605.574 59.8664 610.316 Q54.8057 615.059 46.212 615.059 Q37.491 615.059 32.4939 610.284 Q27.4968 605.478 27.4968 597.139 Q27.4968 594.434 28.0697 591.856 Q28.6108 589.277 29.7248 586.859 Z" fill="#000000" fill-rule="evenodd" fill-opacity="1" /><path clip-path="url(#clip540)" d="M18.2347 570.881 L28.3562 570.881 L28.3562 558.818 L32.9077 558.818 L32.9077 570.881 L52.2594 570.881 Q56.6199 570.881 57.8613 569.703 Q59.1026 568.493 59.1026 564.833 L59.1026 558.818 L64.0042 558.818 L64.0042 564.833 Q64.0042 571.613 61.4897 574.191 Q58.9434 576.769 52.2594 576.769 L32.9077 576.769 L32.9077 581.066 L28.3562 581.066 L28.3562 576.769 L18.2347 576.769 L18.2347 570.881 Z" fill="#000000" fill-rule="evenodd" fill-opacity="1" /><path clip-path="url(#clip540)" d="M1170.73 17.6457 Q1161.82 17.6457 1156.55 24.2892 Q1151.33 30.9327 1151.33 42.3968 Q1151.33 53.8203 1156.55 60.4638 Q1161.82 67.1073 1170.73 67.1073 Q1179.64 67.1073 1184.83 60.4638 Q1190.05 53.8203 1190.05 42.3968 Q1190.05 30.9327 1184.83 24.2892 Q1179.64 17.6457 1170.73 17.6457 M1170.73 11.0023 Q1183.45 11.0023 1191.07 19.5497 Q1198.68 28.0566 1198.68 42.3968 Q1198.68 56.6965 1191.07 65.2439 Q1183.45 73.7508 1170.73 73.7508 Q1157.97 73.7508 1150.31 65.2439 Q1142.7 56.737 1142.7 42.3968 Q1142.7 28.0566 1150.31 19.5497 Q1157.97 11.0023 1170.73 11.0023 Z" fill="#000000" fill-rule="evenodd" fill-opacity="1" /><path clip-path="url(#clip540)" d="M1205.81 27.2059 L1213.71 27.2059 L1227.89 65.2844 L1242.07 27.2059 L1249.97 27.2059 L1232.95 72.576 L1222.82 72.576 L1205.81 27.2059 Z" fill="#000000" fill-rule="evenodd" fill-opacity="1" /><path clip-path="url(#clip540)" d="M1299.06 48.0275 L1299.06 51.6733 L1264.79 51.6733 Q1265.28 59.3701 1269.41 63.421 Q1273.58 67.4314 1281 67.4314 Q1285.29 67.4314 1289.3 66.3781 Q1293.35 65.3249 1297.32 63.2184 L1297.32 70.267 Q1293.31 71.9684 1289.1 72.8596 Q1284.88 73.7508 1280.55 73.7508 Q1269.69 73.7508 1263.33 67.4314 Q1257.01 61.1119 1257.01 50.3365 Q1257.01 39.1965 1263.01 32.6746 Q1269.05 26.1121 1279.25 26.1121 Q1288.41 26.1121 1293.72 32.0264 Q1299.06 37.9003 1299.06 48.0275 M1291.61 45.84 Q1291.53 39.7232 1288.17 36.0774 Q1284.84 32.4315 1279.33 32.4315 Q1273.1 32.4315 1269.33 35.9558 Q1265.6 39.4801 1265.04 45.8805 L1291.61 45.84 Z" fill="#000000" fill-rule="evenodd" fill-opacity="1" /><path clip-path="url(#clip540)" d="M1337.59 34.1734 Q1336.33 33.4443 1334.83 33.1202 Q1333.37 32.7556 1331.59 32.7556 Q1325.27 32.7556 1321.87 36.8875 Q1318.51 40.9789 1318.51 48.6757 L1318.51 72.576 L1311.01 72.576 L1311.01 27.2059 L1318.51 27.2059 L1318.51 34.2544 Q1320.86 30.1225 1324.62 28.1376 Q1328.39 26.1121 1333.78 26.1121 Q1334.55 26.1121 1335.48 26.2337 Q1336.41 26.3147 1337.55 26.5172 L1337.59 34.1734 Z" fill="#000000" fill-rule="evenodd" fill-opacity="1" /><path clip-path="url(#clip540)" d="M1345.41 9.54393 L1352.86 9.54393 L1352.86 72.576 L1345.41 72.576 L1345.41 9.54393 Z" fill="#000000" fill-rule="evenodd" fill-opacity="1" /><path clip-path="url(#clip540)" d="M1389.07 49.7694 Q1380.04 49.7694 1376.56 51.8354 Q1373.07 53.9013 1373.07 58.8839 Q1373.07 62.8538 1375.67 65.2034 Q1378.3 67.5124 1382.79 67.5124 Q1388.99 67.5124 1392.72 63.1374 Q1396.49 58.7219 1396.49 51.4303 L1396.49 49.7694 L1389.07 49.7694 M1403.94 46.6907 L1403.94 72.576 L1396.49 72.576 L1396.49 65.6895 Q1393.93 69.8214 1390.13 71.8063 Q1386.32 73.7508 1380.81 73.7508 Q1373.84 73.7508 1369.71 69.8619 Q1365.62 65.9325 1365.62 59.3701 Q1365.62 51.7138 1370.72 47.825 Q1375.87 43.9361 1386.04 43.9361 L1396.49 43.9361 L1396.49 43.2069 Q1396.49 38.0623 1393.08 35.2672 Q1389.72 32.4315 1383.61 32.4315 Q1379.72 32.4315 1376.03 33.3632 Q1372.34 34.295 1368.94 36.1584 L1368.94 29.2718 Q1373.03 27.692 1376.88 26.9223 Q1380.73 26.1121 1384.37 26.1121 Q1394.22 26.1121 1399.08 31.2163 Q1403.94 36.3204 1403.94 46.6907 Z" fill="#000000" fill-rule="evenodd" fill-opacity="1" /><path clip-path="url(#clip540)" d="M1426.5 65.7705 L1426.5 89.8329 L1419.01 89.8329 L1419.01 27.2059 L1426.5 27.2059 L1426.5 34.0924 Q1428.85 30.0415 1432.42 28.0971 Q1436.02 26.1121 1441.01 26.1121 Q1449.27 26.1121 1454.41 32.6746 Q1459.6 39.2371 1459.6 49.9314 Q1459.6 60.6258 1454.41 67.1883 Q1449.27 73.7508 1441.01 73.7508 Q1436.02 73.7508 1432.42 71.8063 Q1428.85 69.8214 1426.5 65.7705 M1451.86 49.9314 Q1451.86 41.7081 1448.46 37.0496 Q1445.1 32.3505 1439.18 32.3505 Q1433.27 32.3505 1429.87 37.0496 Q1426.5 41.7081 1426.5 49.9314 Q1426.5 58.1548 1429.87 62.8538 Q1433.27 67.5124 1439.18 67.5124 Q1445.1 67.5124 1448.46 62.8538 Q1451.86 58.1548 1451.86 49.9314 Z" fill="#000000" fill-rule="evenodd" fill-opacity="1" /><polyline clip-path="url(#clip542)" style="stroke:#000000; stroke-linecap:round; stroke-linejoin:round; stroke-width:4; stroke-opacity:1; fill:none" points="
  309.634,365.68 309.634,365.68 
  "/>
<polyline clip-path="url(#clip542)" style="stroke:#000000; stroke-linecap:round; stroke-linejoin:round; stroke-width:4; stroke-opacity:1; fill:none" points="
  369.726,1249.1 369.726,1247.45 
  "/>
<polyline clip-path="url(#clip542)" style="stroke:#000000; stroke-linecap:round; stroke-linejoin:round; stroke-width:4; stroke-opacity:1; fill:none" points="
  429.818,384.918 429.818,384.743 
  "/>
<polyline clip-path="url(#clip542)" style="stroke:#000000; stroke-linecap:round; stroke-linejoin:round; stroke-width:4; stroke-opacity:1; fill:none" points="
  489.909,3791.29 489.909,3740.72 
  "/>
<polyline clip-path="url(#clip542)" style="stroke:#000000; stroke-linecap:round; stroke-linejoin:round; stroke-width:4; stroke-opacity:1; fill:none" points="
  550.001,4147.94 550.001,3994.96 
  "/>
<polyline clip-path="url(#clip542)" style="stroke:#000000; stroke-linecap:round; stroke-linejoin:round; stroke-width:4; stroke-opacity:1; fill:none" points="
  610.093,451.055 610.093,447.797 
  "/>
<polyline clip-path="url(#clip542)" style="stroke:#000000; stroke-linecap:round; stroke-linejoin:round; stroke-width:4; stroke-opacity:1; fill:none" points="
  670.185,598.494 670.185,348.006 
  "/>
<polyline clip-path="url(#clip542)" style="stroke:#000000; stroke-linecap:round; stroke-linejoin:round; stroke-width:4; stroke-opacity:1; fill:none" points="
  730.277,442.93 730.277,442.657 
  "/>
<polyline clip-path="url(#clip542)" style="stroke:#000000; stroke-linecap:round; stroke-linejoin:round; stroke-width:4; stroke-opacity:1; fill:none" points="
  790.368,447.945 790.368,445.6 
  "/>
<polyline clip-path="url(#clip542)" style="stroke:#000000; stroke-linecap:round; stroke-linejoin:round; stroke-width:4; stroke-opacity:1; fill:none" points="
  850.46,437.766 850.46,437.759 
  "/>
<polyline clip-path="url(#clip542)" style="stroke:#000000; stroke-linecap:round; stroke-linejoin:round; stroke-width:4; stroke-opacity:1; fill:none" points="
  910.552,432.906 910.552,432.835 
  "/>
<polyline clip-path="url(#clip542)" style="stroke:#000000; stroke-linecap:round; stroke-linejoin:round; stroke-width:4; stroke-opacity:1; fill:none" points="
  970.644,433.893 970.644,433.889 
  "/>
<polyline clip-path="url(#clip542)" style="stroke:#000000; stroke-linecap:round; stroke-linejoin:round; stroke-width:4; stroke-opacity:1; fill:none" points="
  1030.74,423.815 1030.74,423.807 
  "/>
<polyline clip-path="url(#clip542)" style="stroke:#000000; stroke-linecap:round; stroke-linejoin:round; stroke-width:4; stroke-opacity:1; fill:none" points="
  1090.83,432.832 1090.83,418.276 
  "/>
<polyline clip-path="url(#clip542)" style="stroke:#000000; stroke-linecap:round; stroke-linejoin:round; stroke-width:4; stroke-opacity:1; fill:none" points="
  1150.92,418.972 1150.92,418.023 
  "/>
<polyline clip-path="url(#clip542)" style="stroke:#000000; stroke-linecap:round; stroke-linejoin:round; stroke-width:4; stroke-opacity:1; fill:none" points="
  1211.01,1329.7 1211.01,1217.66 
  "/>
<polyline clip-path="url(#clip542)" style="stroke:#000000; stroke-linecap:round; stroke-linejoin:round; stroke-width:4; stroke-opacity:1; fill:none" points="
  1271.1,609.722 1271.1,594.293 
  "/>
<polyline clip-path="url(#clip542)" style="stroke:#000000; stroke-linecap:round; stroke-linejoin:round; stroke-width:4; stroke-opacity:1; fill:none" points="
  1331.19,1376.09 1331.19,1277.97 
  "/>
<polyline clip-path="url(#clip542)" style="stroke:#000000; stroke-linecap:round; stroke-linejoin:round; stroke-width:4; stroke-opacity:1; fill:none" points="
  1391.29,2454.24 1391.29,2189.22 
  "/>
<polyline clip-path="url(#clip542)" style="stroke:#000000; stroke-linecap:round; stroke-linejoin:round; stroke-width:4; stroke-opacity:1; fill:none" points="
  1451.38,678.966 1451.38,479.32 
  "/>
<polyline clip-path="url(#clip542)" style="stroke:#000000; stroke-linecap:round; stroke-linejoin:round; stroke-width:4; stroke-opacity:1; fill:none" points="
  1511.47,808.794 1511.47,521.861 
  "/>
<polyline clip-path="url(#clip542)" style="stroke:#000000; stroke-linecap:round; stroke-linejoin:round; stroke-width:4; stroke-opacity:1; fill:none" points="
  1571.56,483.218 1571.56,470.763 
  "/>
<polyline clip-path="url(#clip542)" style="stroke:#000000; stroke-linecap:round; stroke-linejoin:round; stroke-width:4; stroke-opacity:1; fill:none" points="
  1631.65,568.601 1631.65,368.946 
  "/>
<polyline clip-path="url(#clip542)" style="stroke:#000000; stroke-linecap:round; stroke-linejoin:round; stroke-width:4; stroke-opacity:1; fill:none" points="
  1691.75,545.775 1691.75,402.152 
  "/>
<polyline clip-path="url(#clip542)" style="stroke:#000000; stroke-linecap:round; stroke-linejoin:round; stroke-width:4; stroke-opacity:1; fill:none" points="
  1751.84,705.445 1751.84,288.949 
  "/>
<polyline clip-path="url(#clip542)" style="stroke:#000000; stroke-linecap:round; stroke-linejoin:round; stroke-width:4; stroke-opacity:1; fill:none" points="
  1811.93,481.981 1811.93,463.465 
  "/>
<polyline clip-path="url(#clip542)" style="stroke:#000000; stroke-linecap:round; stroke-linejoin:round; stroke-width:4; stroke-opacity:1; fill:none" points="
  1872.02,582.816 1872.02,571.953 
  "/>
<line clip-path="url(#clip542)" x1="317.634" y1="365.68" x2="301.634" y2="365.68" style="stroke:#000000; stroke-width:3.2; stroke-opacity:1"/>
<line clip-path="url(#clip542)" x1="317.634" y1="365.68" x2="301.634" y2="365.68" style="stroke:#000000; stroke-width:3.2; stroke-opacity:1"/>
<line clip-path="url(#clip542)" x1="377.726" y1="1249.1" x2="361.726" y2="1249.1" style="stroke:#000000; stroke-width:3.2; stroke-opacity:1"/>
<line clip-path="url(#clip542)" x1="377.726" y1="1247.45" x2="361.726" y2="1247.45" style="stroke:#000000; stroke-width:3.2; stroke-opacity:1"/>
<line clip-path="url(#clip542)" x1="437.818" y1="384.918" x2="421.818" y2="384.918" style="stroke:#000000; stroke-width:3.2; stroke-opacity:1"/>
<line clip-path="url(#clip542)" x1="437.818" y1="384.743" x2="421.818" y2="384.743" style="stroke:#000000; stroke-width:3.2; stroke-opacity:1"/>
<line clip-path="url(#clip542)" x1="618.093" y1="451.055" x2="602.093" y2="451.055" style="stroke:#000000; stroke-width:3.2; stroke-opacity:1"/>
<line clip-path="url(#clip542)" x1="618.093" y1="447.797" x2="602.093" y2="447.797" style="stroke:#000000; stroke-width:3.2; stroke-opacity:1"/>
<line clip-path="url(#clip542)" x1="678.185" y1="598.494" x2="662.185" y2="598.494" style="stroke:#000000; stroke-width:3.2; stroke-opacity:1"/>
<line clip-path="url(#clip542)" x1="678.185" y1="348.006" x2="662.185" y2="348.006" style="stroke:#000000; stroke-width:3.2; stroke-opacity:1"/>
<line clip-path="url(#clip542)" x1="738.277" y1="442.93" x2="722.277" y2="442.93" style="stroke:#000000; stroke-width:3.2; stroke-opacity:1"/>
<line clip-path="url(#clip542)" x1="738.277" y1="442.657" x2="722.277" y2="442.657" style="stroke:#000000; stroke-width:3.2; stroke-opacity:1"/>
<line clip-path="url(#clip542)" x1="798.368" y1="447.945" x2="782.368" y2="447.945" style="stroke:#000000; stroke-width:3.2; stroke-opacity:1"/>
<line clip-path="url(#clip542)" x1="798.368" y1="445.6" x2="782.368" y2="445.6" style="stroke:#000000; stroke-width:3.2; stroke-opacity:1"/>
<line clip-path="url(#clip542)" x1="858.46" y1="437.766" x2="842.46" y2="437.766" style="stroke:#000000; stroke-width:3.2; stroke-opacity:1"/>
<line clip-path="url(#clip542)" x1="858.46" y1="437.759" x2="842.46" y2="437.759" style="stroke:#000000; stroke-width:3.2; stroke-opacity:1"/>
<line clip-path="url(#clip542)" x1="918.552" y1="432.906" x2="902.552" y2="432.906" style="stroke:#000000; stroke-width:3.2; stroke-opacity:1"/>
<line clip-path="url(#clip542)" x1="918.552" y1="432.835" x2="902.552" y2="432.835" style="stroke:#000000; stroke-width:3.2; stroke-opacity:1"/>
<line clip-path="url(#clip542)" x1="978.644" y1="433.893" x2="962.644" y2="433.893" style="stroke:#000000; stroke-width:3.2; stroke-opacity:1"/>
<line clip-path="url(#clip542)" x1="978.644" y1="433.889" x2="962.644" y2="433.889" style="stroke:#000000; stroke-width:3.2; stroke-opacity:1"/>
<line clip-path="url(#clip542)" x1="1038.74" y1="423.815" x2="1022.74" y2="423.815" style="stroke:#000000; stroke-width:3.2; stroke-opacity:1"/>
<line clip-path="url(#clip542)" x1="1038.74" y1="423.807" x2="1022.74" y2="423.807" style="stroke:#000000; stroke-width:3.2; stroke-opacity:1"/>
<line clip-path="url(#clip542)" x1="1098.83" y1="432.832" x2="1082.83" y2="432.832" style="stroke:#000000; stroke-width:3.2; stroke-opacity:1"/>
<line clip-path="url(#clip542)" x1="1098.83" y1="418.276" x2="1082.83" y2="418.276" style="stroke:#000000; stroke-width:3.2; stroke-opacity:1"/>
<line clip-path="url(#clip542)" x1="1158.92" y1="418.972" x2="1142.92" y2="418.972" style="stroke:#000000; stroke-width:3.2; stroke-opacity:1"/>
<line clip-path="url(#clip542)" x1="1158.92" y1="418.023" x2="1142.92" y2="418.023" style="stroke:#000000; stroke-width:3.2; stroke-opacity:1"/>
<line clip-path="url(#clip542)" x1="1219.01" y1="1329.7" x2="1203.01" y2="1329.7" style="stroke:#000000; stroke-width:3.2; stroke-opacity:1"/>
<line clip-path="url(#clip542)" x1="1219.01" y1="1217.66" x2="1203.01" y2="1217.66" style="stroke:#000000; stroke-width:3.2; stroke-opacity:1"/>
<line clip-path="url(#clip542)" x1="1279.1" y1="609.722" x2="1263.1" y2="609.722" style="stroke:#000000; stroke-width:3.2; stroke-opacity:1"/>
<line clip-path="url(#clip542)" x1="1279.1" y1="594.293" x2="1263.1" y2="594.293" style="stroke:#000000; stroke-width:3.2; stroke-opacity:1"/>
<line clip-path="url(#clip542)" x1="1339.19" y1="1376.09" x2="1323.19" y2="1376.09" style="stroke:#000000; stroke-width:3.2; stroke-opacity:1"/>
<line clip-path="url(#clip542)" x1="1339.19" y1="1277.97" x2="1323.19" y2="1277.97" style="stroke:#000000; stroke-width:3.2; stroke-opacity:1"/>
<line clip-path="url(#clip542)" x1="1459.38" y1="678.966" x2="1443.38" y2="678.966" style="stroke:#000000; stroke-width:3.2; stroke-opacity:1"/>
<line clip-path="url(#clip542)" x1="1459.38" y1="479.32" x2="1443.38" y2="479.32" style="stroke:#000000; stroke-width:3.2; stroke-opacity:1"/>
<line clip-path="url(#clip542)" x1="1519.47" y1="808.794" x2="1503.47" y2="808.794" style="stroke:#000000; stroke-width:3.2; stroke-opacity:1"/>
<line clip-path="url(#clip542)" x1="1519.47" y1="521.861" x2="1503.47" y2="521.861" style="stroke:#000000; stroke-width:3.2; stroke-opacity:1"/>
<line clip-path="url(#clip542)" x1="1579.56" y1="483.218" x2="1563.56" y2="483.218" style="stroke:#000000; stroke-width:3.2; stroke-opacity:1"/>
<line clip-path="url(#clip542)" x1="1579.56" y1="470.763" x2="1563.56" y2="470.763" style="stroke:#000000; stroke-width:3.2; stroke-opacity:1"/>
<line clip-path="url(#clip542)" x1="1639.65" y1="568.601" x2="1623.65" y2="568.601" style="stroke:#000000; stroke-width:3.2; stroke-opacity:1"/>
<line clip-path="url(#clip542)" x1="1639.65" y1="368.946" x2="1623.65" y2="368.946" style="stroke:#000000; stroke-width:3.2; stroke-opacity:1"/>
<line clip-path="url(#clip542)" x1="1699.75" y1="545.775" x2="1683.75" y2="545.775" style="stroke:#000000; stroke-width:3.2; stroke-opacity:1"/>
<line clip-path="url(#clip542)" x1="1699.75" y1="402.152" x2="1683.75" y2="402.152" style="stroke:#000000; stroke-width:3.2; stroke-opacity:1"/>
<line clip-path="url(#clip542)" x1="1759.84" y1="705.445" x2="1743.84" y2="705.445" style="stroke:#000000; stroke-width:3.2; stroke-opacity:1"/>
<line clip-path="url(#clip542)" x1="1759.84" y1="288.949" x2="1743.84" y2="288.949" style="stroke:#000000; stroke-width:3.2; stroke-opacity:1"/>
<line clip-path="url(#clip542)" x1="1819.93" y1="481.981" x2="1803.93" y2="481.981" style="stroke:#000000; stroke-width:3.2; stroke-opacity:1"/>
<line clip-path="url(#clip542)" x1="1819.93" y1="463.465" x2="1803.93" y2="463.465" style="stroke:#000000; stroke-width:3.2; stroke-opacity:1"/>
<line clip-path="url(#clip542)" x1="1880.02" y1="582.816" x2="1864.02" y2="582.816" style="stroke:#000000; stroke-width:3.2; stroke-opacity:1"/>
<line clip-path="url(#clip542)" x1="1880.02" y1="571.953" x2="1864.02" y2="571.953" style="stroke:#000000; stroke-width:3.2; stroke-opacity:1"/>
<circle clip-path="url(#clip542)" cx="309.634" cy="365.68" r="7.2" fill="#009af9" fill-rule="evenodd" fill-opacity="1" stroke="#000000" stroke-opacity="1" stroke-width="3.2"/>
<circle clip-path="url(#clip542)" cx="369.726" cy="1248.28" r="7.2" fill="#009af9" fill-rule="evenodd" fill-opacity="1" stroke="#000000" stroke-opacity="1" stroke-width="3.2"/>
<circle clip-path="url(#clip542)" cx="429.818" cy="384.831" r="7.2" fill="#009af9" fill-rule="evenodd" fill-opacity="1" stroke="#000000" stroke-opacity="1" stroke-width="3.2"/>
<circle clip-path="url(#clip542)" cx="610.093" cy="449.426" r="7.2" fill="#009af9" fill-rule="evenodd" fill-opacity="1" stroke="#000000" stroke-opacity="1" stroke-width="3.2"/>
<circle clip-path="url(#clip542)" cx="670.185" cy="473.25" r="7.2" fill="#009af9" fill-rule="evenodd" fill-opacity="1" stroke="#000000" stroke-opacity="1" stroke-width="3.2"/>
<circle clip-path="url(#clip542)" cx="730.277" cy="442.793" r="7.2" fill="#009af9" fill-rule="evenodd" fill-opacity="1" stroke="#000000" stroke-opacity="1" stroke-width="3.2"/>
<circle clip-path="url(#clip542)" cx="790.368" cy="446.772" r="7.2" fill="#009af9" fill-rule="evenodd" fill-opacity="1" stroke="#000000" stroke-opacity="1" stroke-width="3.2"/>
<circle clip-path="url(#clip542)" cx="850.46" cy="437.762" r="7.2" fill="#009af9" fill-rule="evenodd" fill-opacity="1" stroke="#000000" stroke-opacity="1" stroke-width="3.2"/>
<circle clip-path="url(#clip542)" cx="910.552" cy="432.871" r="7.2" fill="#009af9" fill-rule="evenodd" fill-opacity="1" stroke="#000000" stroke-opacity="1" stroke-width="3.2"/>
<circle clip-path="url(#clip542)" cx="970.644" cy="433.891" r="7.2" fill="#009af9" fill-rule="evenodd" fill-opacity="1" stroke="#000000" stroke-opacity="1" stroke-width="3.2"/>
<circle clip-path="url(#clip542)" cx="1030.74" cy="423.811" r="7.2" fill="#009af9" fill-rule="evenodd" fill-opacity="1" stroke="#000000" stroke-opacity="1" stroke-width="3.2"/>
<circle clip-path="url(#clip542)" cx="1090.83" cy="425.554" r="7.2" fill="#009af9" fill-rule="evenodd" fill-opacity="1" stroke="#000000" stroke-opacity="1" stroke-width="3.2"/>
<circle clip-path="url(#clip542)" cx="1150.92" cy="418.497" r="7.2" fill="#009af9" fill-rule="evenodd" fill-opacity="1" stroke="#000000" stroke-opacity="1" stroke-width="3.2"/>
<circle clip-path="url(#clip542)" cx="1211.01" cy="1273.68" r="7.2" fill="#009af9" fill-rule="evenodd" fill-opacity="1" stroke="#000000" stroke-opacity="1" stroke-width="3.2"/>
<circle clip-path="url(#clip542)" cx="1271.1" cy="602.007" r="7.2" fill="#009af9" fill-rule="evenodd" fill-opacity="1" stroke="#000000" stroke-opacity="1" stroke-width="3.2"/>
<circle clip-path="url(#clip542)" cx="1331.19" cy="1327.03" r="7.2" fill="#009af9" fill-rule="evenodd" fill-opacity="1" stroke="#000000" stroke-opacity="1" stroke-width="3.2"/>
<circle clip-path="url(#clip542)" cx="1451.38" cy="579.143" r="7.2" fill="#009af9" fill-rule="evenodd" fill-opacity="1" stroke="#000000" stroke-opacity="1" stroke-width="3.2"/>
<circle clip-path="url(#clip542)" cx="1511.47" cy="665.328" r="7.2" fill="#009af9" fill-rule="evenodd" fill-opacity="1" stroke="#000000" stroke-opacity="1" stroke-width="3.2"/>
<circle clip-path="url(#clip542)" cx="1571.56" cy="476.99" r="7.2" fill="#009af9" fill-rule="evenodd" fill-opacity="1" stroke="#000000" stroke-opacity="1" stroke-width="3.2"/>
<circle clip-path="url(#clip542)" cx="1631.65" cy="468.773" r="7.2" fill="#009af9" fill-rule="evenodd" fill-opacity="1" stroke="#000000" stroke-opacity="1" stroke-width="3.2"/>
<circle clip-path="url(#clip542)" cx="1691.75" cy="473.963" r="7.2" fill="#009af9" fill-rule="evenodd" fill-opacity="1" stroke="#000000" stroke-opacity="1" stroke-width="3.2"/>
<circle clip-path="url(#clip542)" cx="1751.84" cy="497.197" r="7.2" fill="#009af9" fill-rule="evenodd" fill-opacity="1" stroke="#000000" stroke-opacity="1" stroke-width="3.2"/>
<circle clip-path="url(#clip542)" cx="1811.93" cy="472.723" r="7.2" fill="#009af9" fill-rule="evenodd" fill-opacity="1" stroke="#000000" stroke-opacity="1" stroke-width="3.2"/>
<circle clip-path="url(#clip542)" cx="1872.02" cy="577.385" r="7.2" fill="#009af9" fill-rule="evenodd" fill-opacity="1" stroke="#000000" stroke-opacity="1" stroke-width="3.2"/>
<path clip-path="url(#clip540)" d="
M1714.55 270.476 L2282.65 270.476 L2282.65 166.796 L1714.55 166.796  Z
  " fill="#ffffff" fill-rule="evenodd" fill-opacity="1"/>
<polyline clip-path="url(#clip540)" style="stroke:#000000; stroke-linecap:round; stroke-linejoin:round; stroke-width:4; stroke-opacity:1; fill:none" points="
  1714.55,270.476 2282.65,270.476 2282.65,166.796 1714.55,166.796 1714.55,270.476 
  "/>
<circle clip-path="url(#clip540)" cx="1808.03" cy="218.636" r="23.04" fill="#009af9" fill-rule="evenodd" fill-opacity="1" stroke="#000000" stroke-opacity="1" stroke-width="10.24"/>
<path clip-path="url(#clip540)" d="M1921.85 214.967 Q1923.45 212.096 1925.67 210.731 Q1927.89 209.365 1930.9 209.365 Q1934.95 209.365 1937.15 212.212 Q1939.35 215.036 1939.35 220.268 L1939.35 235.916 L1935.07 235.916 L1935.07 220.407 Q1935.07 216.68 1933.75 214.874 Q1932.43 213.069 1929.72 213.069 Q1926.41 213.069 1924.49 215.268 Q1922.57 217.467 1922.57 221.263 L1922.57 235.916 L1918.29 235.916 L1918.29 220.407 Q1918.29 216.657 1916.97 214.874 Q1915.65 213.069 1912.89 213.069 Q1909.63 213.069 1907.71 215.291 Q1905.79 217.49 1905.79 221.263 L1905.79 235.916 L1901.5 235.916 L1901.5 209.99 L1905.79 209.99 L1905.79 214.018 Q1907.24 211.633 1909.28 210.499 Q1911.32 209.365 1914.12 209.365 Q1916.94 209.365 1918.91 210.8 Q1920.9 212.235 1921.85 214.967 Z" fill="#000000" fill-rule="evenodd" fill-opacity="1" /><path clip-path="url(#clip540)" d="M1956.57 220.245 Q1955.42 218.254 1953.08 218.254 Q1950.74 218.254 1949.58 220.245 Q1948.4 222.235 1948.4 226.217 Q1948.4 230.221 1949.58 232.212 Q1950.74 234.203 1953.08 234.203 Q1955.42 234.203 1956.57 232.212 Q1957.75 230.221 1957.75 226.217 Q1957.75 222.235 1956.57 220.245 M1953.08 216.194 Q1956.8 216.194 1958.77 218.763 Q1960.74 221.332 1960.74 226.217 Q1960.74 231.124 1958.77 233.694 Q1956.8 236.263 1953.08 236.263 Q1949.33 236.263 1947.36 233.694 Q1945.39 231.124 1945.39 226.217 Q1945.39 221.332 1947.36 218.763 Q1949.33 216.194 1953.08 216.194 Z" fill="#000000" fill-rule="evenodd" fill-opacity="1" /><path clip-path="url(#clip540)" d="M1967.41 214.388 L1997.08 214.388 L1997.08 218.277 L1967.41 218.277 L1967.41 214.388 M1967.41 223.832 L1997.08 223.832 L1997.08 227.768 L1967.41 227.768 L1967.41 223.832 Z" fill="#000000" fill-rule="evenodd" fill-opacity="1" /><path clip-path="url(#clip540)" d="M2017.17 204.434 Q2013.56 204.434 2011.73 207.999 Q2009.93 211.541 2009.93 218.67 Q2009.93 225.777 2011.73 229.342 Q2013.56 232.883 2017.17 232.883 Q2020.81 232.883 2022.61 229.342 Q2024.44 225.777 2024.44 218.67 Q2024.44 211.541 2022.61 207.999 Q2020.81 204.434 2017.17 204.434 M2017.17 200.731 Q2022.98 200.731 2026.04 205.337 Q2029.12 209.92 2029.12 218.67 Q2029.12 227.397 2026.04 232.004 Q2022.98 236.587 2017.17 236.587 Q2011.36 236.587 2008.29 232.004 Q2005.23 227.397 2005.23 218.67 Q2005.23 209.92 2008.29 205.337 Q2011.36 200.731 2017.17 200.731 Z" fill="#000000" fill-rule="evenodd" fill-opacity="1" /><path clip-path="url(#clip540)" d="M2037.34 230.036 L2042.22 230.036 L2042.22 235.916 L2037.34 235.916 L2037.34 230.036 Z" fill="#000000" fill-rule="evenodd" fill-opacity="1" /><path clip-path="url(#clip540)" d="M2051.23 201.356 L2073.45 201.356 L2073.45 203.346 L2060.9 235.916 L2056.02 235.916 L2067.82 205.291 L2051.23 205.291 L2051.23 201.356 Z" fill="#000000" fill-rule="evenodd" fill-opacity="1" /><path clip-path="url(#clip540)" d="M2083.05 230.036 L2087.94 230.036 L2087.94 234.018 L2084.14 241.425 L2081.16 241.425 L2083.05 234.018 L2083.05 230.036 Z" fill="#000000" fill-rule="evenodd" fill-opacity="1" /><path clip-path="url(#clip540)" d="M2120.79 230.985 L2120.79 221.703 L2113.15 221.703 L2113.15 217.86 L2125.41 217.86 L2125.41 232.698 Q2122.71 234.619 2119.44 235.615 Q2116.18 236.587 2112.47 236.587 Q2104.37 236.587 2099.79 231.865 Q2095.23 227.119 2095.23 218.67 Q2095.23 210.198 2099.79 205.476 Q2104.37 200.731 2112.47 200.731 Q2115.85 200.731 2118.89 201.564 Q2121.94 202.397 2124.51 204.018 L2124.51 208.995 Q2121.92 206.796 2119 205.684 Q2116.09 204.573 2112.87 204.573 Q2106.53 204.573 2103.33 208.115 Q2100.16 211.657 2100.16 218.67 Q2100.16 225.661 2103.33 229.203 Q2106.53 232.744 2112.87 232.744 Q2115.35 232.744 2117.29 232.328 Q2119.23 231.888 2120.79 230.985 Z" fill="#000000" fill-rule="evenodd" fill-opacity="1" /><path clip-path="url(#clip540)" d="M2135.51 217.814 L2145.32 217.814 L2145.32 220.453 L2131.48 220.453 L2131.48 217.907 Q2132.27 217.189 2133.72 215.893 Q2141.69 208.833 2141.69 206.657 Q2141.69 205.129 2140.48 204.203 Q2139.28 203.254 2137.31 203.254 Q2136.11 203.254 2134.7 203.671 Q2133.29 204.064 2131.62 204.874 L2131.62 202.027 Q2133.4 201.379 2134.93 201.055 Q2136.48 200.731 2137.8 200.731 Q2141.16 200.731 2143.17 202.258 Q2145.18 203.786 2145.18 206.286 Q2145.18 209.504 2137.52 216.078 Q2136.22 217.189 2135.51 217.814 Z" fill="#000000" fill-rule="evenodd" fill-opacity="1" /><path clip-path="url(#clip540)" d="M2153.33 214.388 L2183.01 214.388 L2183.01 218.277 L2153.33 218.277 L2153.33 214.388 M2153.33 223.832 L2183.01 223.832 L2183.01 227.768 L2153.33 227.768 L2153.33 223.832 Z" fill="#000000" fill-rule="evenodd" fill-opacity="1" /><path clip-path="url(#clip540)" d="M2193.91 231.981 L2201.55 231.981 L2201.55 205.615 L2193.24 207.282 L2193.24 203.022 L2201.5 201.356 L2206.18 201.356 L2206.18 231.981 L2213.82 231.981 L2213.82 235.916 L2193.91 235.916 L2193.91 231.981 Z" fill="#000000" fill-rule="evenodd" fill-opacity="1" /><path clip-path="url(#clip540)" d="M2223.26 230.036 L2228.15 230.036 L2228.15 235.916 L2223.26 235.916 L2223.26 230.036 Z" fill="#000000" fill-rule="evenodd" fill-opacity="1" /><path clip-path="url(#clip540)" d="M2238.38 201.356 L2256.73 201.356 L2256.73 205.291 L2242.66 205.291 L2242.66 213.763 Q2243.68 213.416 2244.7 213.254 Q2245.71 213.069 2246.73 213.069 Q2252.52 213.069 2255.9 216.24 Q2259.28 219.411 2259.28 224.828 Q2259.28 230.406 2255.81 233.508 Q2252.34 236.587 2246.02 236.587 Q2243.84 236.587 2241.57 236.217 Q2239.33 235.846 2236.92 235.106 L2236.92 230.406 Q2239 231.541 2241.22 232.096 Q2243.45 232.652 2245.92 232.652 Q2249.93 232.652 2252.27 230.545 Q2254.6 228.439 2254.6 224.828 Q2254.6 221.217 2252.27 219.11 Q2249.93 217.004 2245.92 217.004 Q2244.05 217.004 2242.17 217.42 Q2240.32 217.837 2238.38 218.717 L2238.38 201.356 Z" fill="#000000" fill-rule="evenodd" fill-opacity="1" /></svg>
