<?xml version="1.0" encoding="utf-8"?>
<svg xmlns="http://www.w3.org/2000/svg" xmlns:xlink="http://www.w3.org/1999/xlink" width="600" height="400" viewBox="0 0 2400 1600">
<defs>
  <clipPath id="clip430">
    <rect x="0" y="0" width="2400" height="1600"/>
  </clipPath>
</defs>
<path clip-path="url(#clip430)" d="
M0 1600 L2400 1600 L2400 0 L0 0  Z
  " fill="#ffffff" fill-rule="evenodd" fill-opacity="1"/>
<defs>
  <clipPath id="clip431">
    <rect x="480" y="0" width="1681" height="1600"/>
  </clipPath>
</defs>
<path clip-path="url(#clip430)" d="
M280.19 1423.18 L2352.76 1423.18 L2352.76 123.472 L280.19 123.472  Z
  " fill="#ffffff" fill-rule="evenodd" fill-opacity="1"/>
<defs>
  <clipPath id="clip432">
    <rect x="280" y="123" width="2074" height="1301"/>
  </clipPath>
</defs>
<polyline clip-path="url(#clip432)" style="stroke:#000000; stroke-linecap:round; stroke-linejoin:round; stroke-width:2; stroke-opacity:0.1; fill:none" points="
  280.19,1423.18 280.19,123.472 
  "/>
<polyline clip-path="url(#clip432)" style="stroke:#000000; stroke-linecap:round; stroke-linejoin:round; stroke-width:2; stroke-opacity:0.1; fill:none" points="
  625.618,1423.18 625.618,123.472 
  "/>
<polyline clip-path="url(#clip432)" style="stroke:#000000; stroke-linecap:round; stroke-linejoin:round; stroke-width:2; stroke-opacity:0.1; fill:none" points="
  971.045,1423.18 971.045,123.472 
  "/>
<polyline clip-path="url(#clip432)" style="stroke:#000000; stroke-linecap:round; stroke-linejoin:round; stroke-width:2; stroke-opacity:0.1; fill:none" points="
  1316.47,1423.18 1316.47,123.472 
  "/>
<polyline clip-path="url(#clip432)" style="stroke:#000000; stroke-linecap:round; stroke-linejoin:round; stroke-width:2; stroke-opacity:0.1; fill:none" points="
  1661.9,1423.18 1661.9,123.472 
  "/>
<polyline clip-path="url(#clip432)" style="stroke:#000000; stroke-linecap:round; stroke-linejoin:round; stroke-width:2; stroke-opacity:0.1; fill:none" points="
  2007.33,1423.18 2007.33,123.472 
  "/>
<polyline clip-path="url(#clip432)" style="stroke:#000000; stroke-linecap:round; stroke-linejoin:round; stroke-width:2; stroke-opacity:0.1; fill:none" points="
  2352.76,1423.18 2352.76,123.472 
  "/>
<polyline clip-path="url(#clip430)" style="stroke:#000000; stroke-linecap:round; stroke-linejoin:round; stroke-width:4; stroke-opacity:1; fill:none" points="
  280.19,1423.18 2352.76,1423.18 
  "/>
<polyline clip-path="url(#clip430)" style="stroke:#000000; stroke-linecap:round; stroke-linejoin:round; stroke-width:4; stroke-opacity:1; fill:none" points="
  280.19,1423.18 280.19,1404.28 
  "/>
<polyline clip-path="url(#clip430)" style="stroke:#000000; stroke-linecap:round; stroke-linejoin:round; stroke-width:4; stroke-opacity:1; fill:none" points="
  625.618,1423.18 625.618,1404.28 
  "/>
<polyline clip-path="url(#clip430)" style="stroke:#000000; stroke-linecap:round; stroke-linejoin:round; stroke-width:4; stroke-opacity:1; fill:none" points="
  971.045,1423.18 971.045,1404.28 
  "/>
<polyline clip-path="url(#clip430)" style="stroke:#000000; stroke-linecap:round; stroke-linejoin:round; stroke-width:4; stroke-opacity:1; fill:none" points="
  1316.47,1423.18 1316.47,1404.28 
  "/>
<polyline clip-path="url(#clip430)" style="stroke:#000000; stroke-linecap:round; stroke-linejoin:round; stroke-width:4; stroke-opacity:1; fill:none" points="
  1661.9,1423.18 1661.9,1404.28 
  "/>
<polyline clip-path="url(#clip430)" style="stroke:#000000; stroke-linecap:round; stroke-linejoin:round; stroke-width:4; stroke-opacity:1; fill:none" points="
  2007.33,1423.18 2007.33,1404.28 
  "/>
<polyline clip-path="url(#clip430)" style="stroke:#000000; stroke-linecap:round; stroke-linejoin:round; stroke-width:4; stroke-opacity:1; fill:none" points="
  2352.76,1423.18 2352.76,1404.28 
  "/>
<path clip-path="url(#clip430)" d="M280.19 1454.1 Q276.579 1454.1 274.75 1457.66 Q272.945 1461.2 272.945 1468.33 Q272.945 1475.44 274.75 1479.01 Q276.579 1482.55 280.19 1482.55 Q283.824 1482.55 285.63 1479.01 Q287.458 1475.44 287.458 1468.33 Q287.458 1461.2 285.63 1457.66 Q283.824 1454.1 280.19 1454.1 M280.19 1450.39 Q286 1450.39 289.056 1455 Q292.134 1459.58 292.134 1468.33 Q292.134 1477.06 289.056 1481.67 Q286 1486.25 280.19 1486.25 Q274.38 1486.25 271.301 1481.67 Q268.246 1477.06 268.246 1468.33 Q268.246 1459.58 271.301 1455 Q274.38 1450.39 280.19 1450.39 Z" fill="#000000" fill-rule="evenodd" fill-opacity="1" /><path clip-path="url(#clip430)" d="M615.895 1451.02 L634.252 1451.02 L634.252 1454.96 L620.178 1454.96 L620.178 1463.43 Q621.196 1463.08 622.215 1462.92 Q623.233 1462.73 624.252 1462.73 Q630.039 1462.73 633.419 1465.9 Q636.798 1469.08 636.798 1474.49 Q636.798 1480.07 633.326 1483.17 Q629.854 1486.25 623.534 1486.25 Q621.358 1486.25 619.09 1485.88 Q616.845 1485.51 614.437 1484.77 L614.437 1480.07 Q616.52 1481.2 618.743 1481.76 Q620.965 1482.32 623.442 1482.32 Q627.446 1482.32 629.784 1480.21 Q632.122 1478.1 632.122 1474.49 Q632.122 1470.88 629.784 1468.77 Q627.446 1466.67 623.442 1466.67 Q621.567 1466.67 619.692 1467.08 Q617.84 1467.5 615.895 1468.38 L615.895 1451.02 Z" fill="#000000" fill-rule="evenodd" fill-opacity="1" /><path clip-path="url(#clip430)" d="M945.733 1481.64 L953.372 1481.64 L953.372 1455.28 L945.062 1456.95 L945.062 1452.69 L953.326 1451.02 L958.001 1451.02 L958.001 1481.64 L965.64 1481.64 L965.64 1485.58 L945.733 1485.58 L945.733 1481.64 Z" fill="#000000" fill-rule="evenodd" fill-opacity="1" /><path clip-path="url(#clip430)" d="M985.085 1454.1 Q981.473 1454.1 979.645 1457.66 Q977.839 1461.2 977.839 1468.33 Q977.839 1475.44 979.645 1479.01 Q981.473 1482.55 985.085 1482.55 Q988.719 1482.55 990.524 1479.01 Q992.353 1475.44 992.353 1468.33 Q992.353 1461.2 990.524 1457.66 Q988.719 1454.1 985.085 1454.1 M985.085 1450.39 Q990.895 1450.39 993.95 1455 Q997.029 1459.58 997.029 1468.33 Q997.029 1477.06 993.95 1481.67 Q990.895 1486.25 985.085 1486.25 Q979.274 1486.25 976.196 1481.67 Q973.14 1477.06 973.14 1468.33 Q973.14 1459.58 976.196 1455 Q979.274 1450.39 985.085 1450.39 Z" fill="#000000" fill-rule="evenodd" fill-opacity="1" /><path clip-path="url(#clip430)" d="M1291.66 1481.64 L1299.3 1481.64 L1299.3 1455.28 L1290.99 1456.95 L1290.99 1452.69 L1299.25 1451.02 L1303.93 1451.02 L1303.93 1481.64 L1311.57 1481.64 L1311.57 1485.58 L1291.66 1485.58 L1291.66 1481.64 Z" fill="#000000" fill-rule="evenodd" fill-opacity="1" /><path clip-path="url(#clip430)" d="M1321.06 1451.02 L1339.41 1451.02 L1339.41 1454.96 L1325.34 1454.96 L1325.34 1463.43 Q1326.36 1463.08 1327.38 1462.92 Q1328.39 1462.73 1329.41 1462.73 Q1335.2 1462.73 1338.58 1465.9 Q1341.96 1469.08 1341.96 1474.49 Q1341.96 1480.07 1338.49 1483.17 Q1335.01 1486.25 1328.7 1486.25 Q1326.52 1486.25 1324.25 1485.88 Q1322.01 1485.51 1319.6 1484.77 L1319.6 1480.07 Q1321.68 1481.2 1323.9 1481.76 Q1326.13 1482.32 1328.6 1482.32 Q1332.61 1482.32 1334.95 1480.21 Q1337.28 1478.1 1337.28 1474.49 Q1337.28 1470.88 1334.95 1468.77 Q1332.61 1466.67 1328.6 1466.67 Q1326.73 1466.67 1324.85 1467.08 Q1323 1467.5 1321.06 1468.38 L1321.06 1451.02 Z" fill="#000000" fill-rule="evenodd" fill-opacity="1" /><path clip-path="url(#clip430)" d="M1640.67 1481.64 L1656.99 1481.64 L1656.99 1485.58 L1635.05 1485.58 L1635.05 1481.64 Q1637.71 1478.89 1642.29 1474.26 Q1646.9 1469.61 1648.08 1468.27 Q1650.33 1465.74 1651.21 1464.01 Q1652.11 1462.25 1652.11 1460.56 Q1652.11 1457.8 1650.16 1456.07 Q1648.24 1454.33 1645.14 1454.33 Q1642.94 1454.33 1640.49 1455.09 Q1638.06 1455.86 1635.28 1457.41 L1635.28 1452.69 Q1638.1 1451.55 1640.56 1450.97 Q1643.01 1450.39 1645.05 1450.39 Q1650.42 1450.39 1653.61 1453.08 Q1656.81 1455.77 1656.81 1460.26 Q1656.81 1462.39 1656 1464.31 Q1655.21 1466.2 1653.1 1468.8 Q1652.53 1469.47 1649.42 1472.69 Q1646.32 1475.88 1640.67 1481.64 Z" fill="#000000" fill-rule="evenodd" fill-opacity="1" /><path clip-path="url(#clip430)" d="M1676.81 1454.1 Q1673.2 1454.1 1671.37 1457.66 Q1669.56 1461.2 1669.56 1468.33 Q1669.56 1475.44 1671.37 1479.01 Q1673.2 1482.55 1676.81 1482.55 Q1680.44 1482.55 1682.25 1479.01 Q1684.08 1475.44 1684.08 1468.33 Q1684.08 1461.2 1682.25 1457.66 Q1680.44 1454.1 1676.81 1454.1 M1676.81 1450.39 Q1682.62 1450.39 1685.67 1455 Q1688.75 1459.58 1688.75 1468.33 Q1688.75 1477.06 1685.67 1481.67 Q1682.62 1486.25 1676.81 1486.25 Q1671 1486.25 1667.92 1481.67 Q1664.86 1477.06 1664.86 1468.33 Q1664.86 1459.58 1667.92 1455 Q1671 1450.39 1676.81 1450.39 Z" fill="#000000" fill-rule="evenodd" fill-opacity="1" /><path clip-path="url(#clip430)" d="M1986.6 1481.64 L2002.92 1481.64 L2002.92 1485.58 L1980.97 1485.58 L1980.97 1481.64 Q1983.64 1478.89 1988.22 1474.26 Q1992.83 1469.61 1994.01 1468.27 Q1996.25 1465.74 1997.13 1464.01 Q1998.03 1462.25 1998.03 1460.56 Q1998.03 1457.8 1996.09 1456.07 Q1994.17 1454.33 1991.07 1454.33 Q1988.87 1454.33 1986.41 1455.09 Q1983.98 1455.86 1981.21 1457.41 L1981.21 1452.69 Q1984.03 1451.55 1986.48 1450.97 Q1988.94 1450.39 1990.97 1450.39 Q1996.34 1450.39 1999.54 1453.08 Q2002.73 1455.77 2002.73 1460.26 Q2002.73 1462.39 2001.92 1464.31 Q2001.14 1466.2 1999.03 1468.8 Q1998.45 1469.47 1995.35 1472.69 Q1992.25 1475.88 1986.6 1481.64 Z" fill="#000000" fill-rule="evenodd" fill-opacity="1" /><path clip-path="url(#clip430)" d="M2012.78 1451.02 L2031.14 1451.02 L2031.14 1454.96 L2017.06 1454.96 L2017.06 1463.43 Q2018.08 1463.08 2019.1 1462.92 Q2020.12 1462.73 2021.14 1462.73 Q2026.92 1462.73 2030.3 1465.9 Q2033.68 1469.08 2033.68 1474.49 Q2033.68 1480.07 2030.21 1483.17 Q2026.74 1486.25 2020.42 1486.25 Q2018.24 1486.25 2015.97 1485.88 Q2013.73 1485.51 2011.32 1484.77 L2011.32 1480.07 Q2013.4 1481.2 2015.63 1481.76 Q2017.85 1482.32 2020.33 1482.32 Q2024.33 1482.32 2026.67 1480.21 Q2029.01 1478.1 2029.01 1474.49 Q2029.01 1470.88 2026.67 1468.77 Q2024.33 1466.67 2020.33 1466.67 Q2018.45 1466.67 2016.58 1467.08 Q2014.72 1467.5 2012.78 1468.38 L2012.78 1451.02 Z" fill="#000000" fill-rule="evenodd" fill-opacity="1" /><path clip-path="url(#clip430)" d="M2341.6 1466.95 Q2344.96 1467.66 2346.83 1469.93 Q2348.73 1472.2 2348.73 1475.53 Q2348.73 1480.65 2345.21 1483.45 Q2341.69 1486.25 2335.21 1486.25 Q2333.03 1486.25 2330.72 1485.81 Q2328.43 1485.39 2325.97 1484.54 L2325.97 1480.02 Q2327.92 1481.16 2330.23 1481.74 Q2332.55 1482.32 2335.07 1482.32 Q2339.47 1482.32 2341.76 1480.58 Q2344.08 1478.84 2344.08 1475.53 Q2344.08 1472.48 2341.92 1470.77 Q2339.79 1469.03 2335.97 1469.03 L2331.95 1469.03 L2331.95 1465.19 L2336.16 1465.19 Q2339.61 1465.19 2341.44 1463.82 Q2343.27 1462.43 2343.27 1459.84 Q2343.27 1457.18 2341.37 1455.77 Q2339.49 1454.33 2335.97 1454.33 Q2334.05 1454.33 2331.85 1454.75 Q2329.65 1455.16 2327.02 1456.04 L2327.02 1451.88 Q2329.68 1451.14 2331.99 1450.77 Q2334.33 1450.39 2336.39 1450.39 Q2341.71 1450.39 2344.82 1452.83 Q2347.92 1455.23 2347.92 1459.35 Q2347.92 1462.22 2346.27 1464.21 Q2344.63 1466.18 2341.6 1466.95 Z" fill="#000000" fill-rule="evenodd" fill-opacity="1" /><path clip-path="url(#clip430)" d="M2367.59 1454.1 Q2363.98 1454.1 2362.15 1457.66 Q2360.35 1461.2 2360.35 1468.33 Q2360.35 1475.44 2362.15 1479.01 Q2363.98 1482.55 2367.59 1482.55 Q2371.23 1482.55 2373.03 1479.01 Q2374.86 1475.44 2374.86 1468.33 Q2374.86 1461.2 2373.03 1457.66 Q2371.23 1454.1 2367.59 1454.1 M2367.59 1450.39 Q2373.4 1450.39 2376.46 1455 Q2379.54 1459.58 2379.54 1468.33 Q2379.54 1477.06 2376.46 1481.67 Q2373.4 1486.25 2367.59 1486.25 Q2361.78 1486.25 2358.7 1481.67 Q2355.65 1477.06 2355.65 1468.33 Q2355.65 1459.58 2358.7 1455 Q2361.78 1450.39 2367.59 1450.39 Z" fill="#000000" fill-rule="evenodd" fill-opacity="1" /><path clip-path="url(#clip430)" d="M1145.35 1522.08 L1145.35 1528.35 Q1141.69 1526.6 1138.44 1525.74 Q1135.19 1524.88 1132.17 1524.88 Q1126.92 1524.88 1124.05 1526.92 Q1121.22 1528.96 1121.22 1532.71 Q1121.22 1535.87 1123.1 1537.49 Q1125.01 1539.08 1130.29 1540.07 L1134.18 1540.86 Q1141.37 1542.23 1144.77 1545.7 Q1148.21 1549.14 1148.21 1554.93 Q1148.21 1561.84 1143.56 1565.4 Q1138.95 1568.97 1130.01 1568.97 Q1126.63 1568.97 1122.81 1568.2 Q1119.02 1567.44 1114.95 1565.94 L1114.95 1559.32 Q1118.87 1561.52 1122.62 1562.63 Q1126.38 1563.75 1130.01 1563.75 Q1135.51 1563.75 1138.5 1561.58 Q1141.5 1559.42 1141.5 1555.41 Q1141.5 1551.91 1139.33 1549.93 Q1137.2 1547.96 1132.3 1546.97 L1128.38 1546.21 Q1121.19 1544.78 1117.97 1541.72 Q1114.76 1538.67 1114.76 1533.22 Q1114.76 1526.92 1119.18 1523.29 Q1123.64 1519.66 1131.44 1519.66 Q1134.78 1519.66 1138.25 1520.27 Q1141.72 1520.87 1145.35 1522.08 Z" fill="#000000" fill-rule="evenodd" fill-opacity="1" /><path clip-path="url(#clip430)" d="M1157.98 1532.4 L1163.84 1532.4 L1163.84 1568.04 L1157.98 1568.04 L1157.98 1532.4 M1157.98 1518.52 L1163.84 1518.52 L1163.84 1525.93 L1157.98 1525.93 L1157.98 1518.52 Z" fill="#000000" fill-rule="evenodd" fill-opacity="1" /><path clip-path="url(#clip430)" d="M1181.89 1522.27 L1181.89 1532.4 L1193.95 1532.4 L1193.95 1536.95 L1181.89 1536.95 L1181.89 1556.3 Q1181.89 1560.66 1183.06 1561.9 Q1184.27 1563.14 1187.93 1563.14 L1193.95 1563.14 L1193.95 1568.04 L1187.93 1568.04 Q1181.15 1568.04 1178.58 1565.53 Q1176 1562.98 1176 1556.3 L1176 1536.95 L1171.7 1536.95 L1171.7 1532.4 L1176 1532.4 L1176 1522.27 L1181.89 1522.27 Z" fill="#000000" fill-rule="evenodd" fill-opacity="1" /><path clip-path="url(#clip430)" d="M1232.14 1548.76 L1232.14 1551.62 L1205.22 1551.62 Q1205.6 1557.67 1208.84 1560.85 Q1212.12 1564 1217.95 1564 Q1221.32 1564 1224.47 1563.17 Q1227.66 1562.35 1230.77 1560.69 L1230.77 1566.23 Q1227.62 1567.57 1224.31 1568.27 Q1221 1568.97 1217.6 1568.97 Q1209.07 1568.97 1204.07 1564 Q1199.11 1559.04 1199.11 1550.57 Q1199.11 1541.82 1203.82 1536.69 Q1208.56 1531.54 1216.58 1531.54 Q1223.77 1531.54 1227.94 1536.18 Q1232.14 1540.8 1232.14 1548.76 M1226.29 1547.04 Q1226.22 1542.23 1223.58 1539.37 Q1220.97 1536.5 1216.64 1536.5 Q1211.74 1536.5 1208.78 1539.27 Q1205.85 1542.04 1205.41 1547.07 L1226.29 1547.04 Z" fill="#000000" fill-rule="evenodd" fill-opacity="1" /><path clip-path="url(#clip430)" d="M1262.73 1520.52 L1271.39 1520.52 L1292.46 1560.28 L1292.46 1520.52 L1298.7 1520.52 L1298.7 1568.04 L1290.04 1568.04 L1268.97 1528.29 L1268.97 1568.04 L1262.73 1568.04 L1262.73 1520.52 Z" fill="#000000" fill-rule="evenodd" fill-opacity="1" /><path clip-path="url(#clip430)" d="M1310.63 1553.98 L1310.63 1532.4 L1316.49 1532.4 L1316.49 1553.75 Q1316.49 1558.81 1318.46 1561.36 Q1320.44 1563.87 1324.38 1563.87 Q1329.12 1563.87 1331.86 1560.85 Q1334.63 1557.83 1334.63 1552.61 L1334.63 1532.4 L1340.49 1532.4 L1340.49 1568.04 L1334.63 1568.04 L1334.63 1562.57 Q1332.5 1565.82 1329.67 1567.41 Q1326.86 1568.97 1323.14 1568.97 Q1317 1568.97 1313.82 1565.15 Q1310.63 1561.33 1310.63 1553.98 M1325.37 1531.54 L1325.37 1531.54 Z" fill="#000000" fill-rule="evenodd" fill-opacity="1" /><path clip-path="url(#clip430)" d="M1380.31 1539.24 Q1382.5 1535.29 1385.56 1533.41 Q1388.61 1531.54 1392.75 1531.54 Q1398.32 1531.54 1401.34 1535.45 Q1404.37 1539.33 1404.37 1546.53 L1404.37 1568.04 L1398.48 1568.04 L1398.48 1546.72 Q1398.48 1541.59 1396.66 1539.11 Q1394.85 1536.63 1391.13 1536.63 Q1386.58 1536.63 1383.93 1539.65 Q1381.29 1542.68 1381.29 1547.9 L1381.29 1568.04 L1375.4 1568.04 L1375.4 1546.72 Q1375.4 1541.56 1373.59 1539.11 Q1371.78 1536.63 1367.99 1536.63 Q1363.5 1536.63 1360.86 1539.68 Q1358.22 1542.71 1358.22 1547.9 L1358.22 1568.04 L1352.33 1568.04 L1352.33 1532.4 L1358.22 1532.4 L1358.22 1537.93 Q1360.22 1534.66 1363.02 1533.1 Q1365.82 1531.54 1369.67 1531.54 Q1373.56 1531.54 1376.26 1533.51 Q1379 1535.48 1380.31 1539.24 Z" fill="#000000" fill-rule="evenodd" fill-opacity="1" /><path clip-path="url(#clip430)" d="M1441.64 1550.25 Q1441.64 1543.79 1438.97 1540.13 Q1436.32 1536.44 1431.68 1536.44 Q1427.03 1536.44 1424.36 1540.13 Q1421.71 1543.79 1421.71 1550.25 Q1421.71 1556.71 1424.36 1560.4 Q1427.03 1564.07 1431.68 1564.07 Q1436.32 1564.07 1438.97 1560.4 Q1441.64 1556.71 1441.64 1550.25 M1421.71 1537.81 Q1423.56 1534.62 1426.36 1533.1 Q1429.19 1531.54 1433.11 1531.54 Q1439.6 1531.54 1443.64 1536.69 Q1447.72 1541.85 1447.72 1550.25 Q1447.72 1558.65 1443.64 1563.81 Q1439.6 1568.97 1433.11 1568.97 Q1429.19 1568.97 1426.36 1567.44 Q1423.56 1565.88 1421.71 1562.7 L1421.71 1568.04 L1415.83 1568.04 L1415.83 1518.52 L1421.71 1518.52 L1421.71 1537.81 Z" fill="#000000" fill-rule="evenodd" fill-opacity="1" /><path clip-path="url(#clip430)" d="M1487.92 1548.76 L1487.92 1551.62 L1460.99 1551.62 Q1461.37 1557.67 1464.62 1560.85 Q1467.9 1564 1473.72 1564 Q1477.1 1564 1480.25 1563.17 Q1483.43 1562.35 1486.55 1560.69 L1486.55 1566.23 Q1483.4 1567.57 1480.09 1568.27 Q1476.78 1568.97 1473.37 1568.97 Q1464.84 1568.97 1459.84 1564 Q1454.88 1559.04 1454.88 1550.57 Q1454.88 1541.82 1459.59 1536.69 Q1464.33 1531.54 1472.35 1531.54 Q1479.55 1531.54 1483.72 1536.18 Q1487.92 1540.8 1487.92 1548.76 M1482.06 1547.04 Q1482 1542.23 1479.36 1539.37 Q1476.75 1536.5 1472.42 1536.5 Q1467.52 1536.5 1464.56 1539.27 Q1461.63 1542.04 1461.18 1547.07 L1482.06 1547.04 Z" fill="#000000" fill-rule="evenodd" fill-opacity="1" /><path clip-path="url(#clip430)" d="M1518.19 1537.87 Q1517.2 1537.3 1516.02 1537.04 Q1514.88 1536.76 1513.48 1536.76 Q1508.51 1536.76 1505.84 1540 Q1503.2 1543.22 1503.2 1549.27 L1503.2 1568.04 L1497.31 1568.04 L1497.31 1532.4 L1503.2 1532.4 L1503.2 1537.93 Q1505.04 1534.69 1508 1533.13 Q1510.96 1531.54 1515.19 1531.54 Q1515.8 1531.54 1516.53 1531.63 Q1517.26 1531.7 1518.15 1531.85 L1518.19 1537.87 Z" fill="#000000" fill-rule="evenodd" fill-opacity="1" /><polyline clip-path="url(#clip432)" style="stroke:#000000; stroke-linecap:round; stroke-linejoin:round; stroke-width:2; stroke-opacity:0.1; fill:none" points="
  280.19,1423.18 2352.76,1423.18 
  "/>
<polyline clip-path="url(#clip432)" style="stroke:#000000; stroke-linecap:round; stroke-linejoin:round; stroke-width:2; stroke-opacity:0.1; fill:none" points="
  280.19,1260.72 2352.76,1260.72 
  "/>
<polyline clip-path="url(#clip432)" style="stroke:#000000; stroke-linecap:round; stroke-linejoin:round; stroke-width:2; stroke-opacity:0.1; fill:none" points="
  280.19,1098.25 2352.76,1098.25 
  "/>
<polyline clip-path="url(#clip432)" style="stroke:#000000; stroke-linecap:round; stroke-linejoin:round; stroke-width:2; stroke-opacity:0.1; fill:none" points="
  280.19,935.789 2352.76,935.789 
  "/>
<polyline clip-path="url(#clip432)" style="stroke:#000000; stroke-linecap:round; stroke-linejoin:round; stroke-width:2; stroke-opacity:0.1; fill:none" points="
  280.19,773.326 2352.76,773.326 
  "/>
<polyline clip-path="url(#clip432)" style="stroke:#000000; stroke-linecap:round; stroke-linejoin:round; stroke-width:2; stroke-opacity:0.1; fill:none" points="
  280.19,610.863 2352.76,610.863 
  "/>
<polyline clip-path="url(#clip432)" style="stroke:#000000; stroke-linecap:round; stroke-linejoin:round; stroke-width:2; stroke-opacity:0.1; fill:none" points="
  280.19,448.399 2352.76,448.399 
  "/>
<polyline clip-path="url(#clip432)" style="stroke:#000000; stroke-linecap:round; stroke-linejoin:round; stroke-width:2; stroke-opacity:0.1; fill:none" points="
  280.19,285.936 2352.76,285.936 
  "/>
<polyline clip-path="url(#clip432)" style="stroke:#000000; stroke-linecap:round; stroke-linejoin:round; stroke-width:2; stroke-opacity:0.1; fill:none" points="
  280.19,123.472 2352.76,123.472 
  "/>
<polyline clip-path="url(#clip430)" style="stroke:#000000; stroke-linecap:round; stroke-linejoin:round; stroke-width:4; stroke-opacity:1; fill:none" points="
  280.19,1423.18 280.19,123.472 
  "/>
<polyline clip-path="url(#clip430)" style="stroke:#000000; stroke-linecap:round; stroke-linejoin:round; stroke-width:4; stroke-opacity:1; fill:none" points="
  280.19,1423.18 299.088,1423.18 
  "/>
<polyline clip-path="url(#clip430)" style="stroke:#000000; stroke-linecap:round; stroke-linejoin:round; stroke-width:4; stroke-opacity:1; fill:none" points="
  280.19,1260.72 299.088,1260.72 
  "/>
<polyline clip-path="url(#clip430)" style="stroke:#000000; stroke-linecap:round; stroke-linejoin:round; stroke-width:4; stroke-opacity:1; fill:none" points="
  280.19,1098.25 299.088,1098.25 
  "/>
<polyline clip-path="url(#clip430)" style="stroke:#000000; stroke-linecap:round; stroke-linejoin:round; stroke-width:4; stroke-opacity:1; fill:none" points="
  280.19,935.789 299.088,935.789 
  "/>
<polyline clip-path="url(#clip430)" style="stroke:#000000; stroke-linecap:round; stroke-linejoin:round; stroke-width:4; stroke-opacity:1; fill:none" points="
  280.19,773.326 299.088,773.326 
  "/>
<polyline clip-path="url(#clip430)" style="stroke:#000000; stroke-linecap:round; stroke-linejoin:round; stroke-width:4; stroke-opacity:1; fill:none" points="
  280.19,610.863 299.088,610.863 
  "/>
<polyline clip-path="url(#clip430)" style="stroke:#000000; stroke-linecap:round; stroke-linejoin:round; stroke-width:4; stroke-opacity:1; fill:none" points="
  280.19,448.399 299.088,448.399 
  "/>
<polyline clip-path="url(#clip430)" style="stroke:#000000; stroke-linecap:round; stroke-linejoin:round; stroke-width:4; stroke-opacity:1; fill:none" points="
  280.19,285.936 299.088,285.936 
  "/>
<polyline clip-path="url(#clip430)" style="stroke:#000000; stroke-linecap:round; stroke-linejoin:round; stroke-width:4; stroke-opacity:1; fill:none" points="
  280.19,123.472 299.088,123.472 
  "/>
<path clip-path="url(#clip430)" d="M126.783 1408.98 Q123.172 1408.98 121.343 1412.54 Q119.538 1416.08 119.538 1423.21 Q119.538 1430.32 121.343 1433.89 Q123.172 1437.43 126.783 1437.43 Q130.417 1437.43 132.223 1433.89 Q134.052 1430.32 134.052 1423.21 Q134.052 1416.08 132.223 1412.54 Q130.417 1408.98 126.783 1408.98 M126.783 1405.27 Q132.593 1405.27 135.649 1409.88 Q138.728 1414.46 138.728 1423.21 Q138.728 1431.94 135.649 1436.55 Q132.593 1441.13 126.783 1441.13 Q120.973 1441.13 117.894 1436.55 Q114.839 1431.94 114.839 1423.21 Q114.839 1414.46 117.894 1409.88 Q120.973 1405.27 126.783 1405.27 Z" fill="#000000" fill-rule="evenodd" fill-opacity="1" /><path clip-path="url(#clip430)" d="M146.945 1434.58 L151.829 1434.58 L151.829 1440.46 L146.945 1440.46 L146.945 1434.58 Z" fill="#000000" fill-rule="evenodd" fill-opacity="1" /><path clip-path="url(#clip430)" d="M174.862 1409.97 L163.056 1428.42 L174.862 1428.42 L174.862 1409.97 M173.635 1405.9 L179.514 1405.9 L179.514 1428.42 L184.445 1428.42 L184.445 1432.31 L179.514 1432.31 L179.514 1440.46 L174.862 1440.46 L174.862 1432.31 L159.26 1432.31 L159.26 1427.8 L173.635 1405.9 Z" fill="#000000" fill-rule="evenodd" fill-opacity="1" /><path clip-path="url(#clip430)" d="M202.755 1421.32 Q199.607 1421.32 197.755 1423.47 Q195.926 1425.62 195.926 1429.37 Q195.926 1433.1 197.755 1435.27 Q199.607 1437.43 202.755 1437.43 Q205.903 1437.43 207.732 1435.27 Q209.584 1433.1 209.584 1429.37 Q209.584 1425.62 207.732 1423.47 Q205.903 1421.32 202.755 1421.32 M212.037 1406.66 L212.037 1410.92 Q210.278 1410.09 208.473 1409.65 Q206.69 1409.21 204.931 1409.21 Q200.301 1409.21 197.848 1412.33 Q195.417 1415.46 195.07 1421.78 Q196.436 1419.77 198.496 1418.7 Q200.556 1417.61 203.033 1417.61 Q208.241 1417.61 211.25 1420.78 Q214.283 1423.93 214.283 1429.37 Q214.283 1434.7 211.135 1437.91 Q207.987 1441.13 202.755 1441.13 Q196.76 1441.13 193.588 1436.55 Q190.417 1431.94 190.417 1423.21 Q190.417 1415.02 194.306 1410.16 Q198.195 1405.27 204.746 1405.27 Q206.505 1405.27 208.287 1405.62 Q210.093 1405.97 212.037 1406.66 Z" fill="#000000" fill-rule="evenodd" fill-opacity="1" /><path clip-path="url(#clip430)" d="M232.338 1424.05 Q229.005 1424.05 227.084 1425.83 Q225.185 1427.61 225.185 1430.74 Q225.185 1433.86 227.084 1435.65 Q229.005 1437.43 232.338 1437.43 Q235.672 1437.43 237.593 1435.65 Q239.514 1433.84 239.514 1430.74 Q239.514 1427.61 237.593 1425.83 Q235.695 1424.05 232.338 1424.05 M227.662 1422.06 Q224.653 1421.32 222.963 1419.26 Q221.297 1417.2 221.297 1414.23 Q221.297 1410.09 224.236 1407.68 Q227.199 1405.27 232.338 1405.27 Q237.5 1405.27 240.44 1407.68 Q243.38 1410.09 243.38 1414.23 Q243.38 1417.2 241.69 1419.26 Q240.023 1421.32 237.037 1422.06 Q240.417 1422.84 242.292 1425.14 Q244.19 1427.43 244.19 1430.74 Q244.19 1435.76 241.111 1438.45 Q238.056 1441.13 232.338 1441.13 Q226.621 1441.13 223.542 1438.45 Q220.486 1435.76 220.486 1430.74 Q220.486 1427.43 222.385 1425.14 Q224.283 1422.84 227.662 1422.06 M225.949 1414.67 Q225.949 1417.36 227.616 1418.86 Q229.306 1420.37 232.338 1420.37 Q235.347 1420.37 237.037 1418.86 Q238.75 1417.36 238.75 1414.67 Q238.75 1411.99 237.037 1410.48 Q235.347 1408.98 232.338 1408.98 Q229.306 1408.98 227.616 1410.48 Q225.949 1411.99 225.949 1414.67 Z" fill="#000000" fill-rule="evenodd" fill-opacity="1" /><path clip-path="url(#clip430)" d="M126.876 1246.52 Q123.265 1246.52 121.436 1250.08 Q119.63 1253.62 119.63 1260.75 Q119.63 1267.86 121.436 1271.42 Q123.265 1274.96 126.876 1274.96 Q130.51 1274.96 132.316 1271.42 Q134.144 1267.86 134.144 1260.75 Q134.144 1253.62 132.316 1250.08 Q130.51 1246.52 126.876 1246.52 M126.876 1242.81 Q132.686 1242.81 135.742 1247.42 Q138.82 1252 138.82 1260.75 Q138.82 1269.48 135.742 1274.08 Q132.686 1278.67 126.876 1278.67 Q121.066 1278.67 117.987 1274.08 Q114.931 1269.48 114.931 1260.75 Q114.931 1252 117.987 1247.42 Q121.066 1242.81 126.876 1242.81 Z" fill="#000000" fill-rule="evenodd" fill-opacity="1" /><path clip-path="url(#clip430)" d="M147.038 1272.12 L151.922 1272.12 L151.922 1278 L147.038 1278 L147.038 1272.12 Z" fill="#000000" fill-rule="evenodd" fill-opacity="1" /><path clip-path="url(#clip430)" d="M174.954 1247.51 L163.149 1265.96 L174.954 1265.96 L174.954 1247.51 M173.727 1243.44 L179.607 1243.44 L179.607 1265.96 L184.538 1265.96 L184.538 1269.85 L179.607 1269.85 L179.607 1278 L174.954 1278 L174.954 1269.85 L159.353 1269.85 L159.353 1265.33 L173.727 1243.44 Z" fill="#000000" fill-rule="evenodd" fill-opacity="1" /><path clip-path="url(#clip430)" d="M202.848 1258.85 Q199.7 1258.85 197.848 1261.01 Q196.019 1263.16 196.019 1266.91 Q196.019 1270.64 197.848 1272.81 Q199.7 1274.96 202.848 1274.96 Q205.996 1274.96 207.824 1272.81 Q209.676 1270.64 209.676 1266.91 Q209.676 1263.16 207.824 1261.01 Q205.996 1258.85 202.848 1258.85 M212.13 1244.2 L212.13 1248.46 Q210.371 1247.63 208.565 1247.19 Q206.783 1246.75 205.024 1246.75 Q200.394 1246.75 197.94 1249.87 Q195.51 1253 195.163 1259.32 Q196.528 1257.3 198.588 1256.24 Q200.649 1255.15 203.125 1255.15 Q208.334 1255.15 211.343 1258.32 Q214.375 1261.47 214.375 1266.91 Q214.375 1272.23 211.227 1275.45 Q208.079 1278.67 202.848 1278.67 Q196.852 1278.67 193.681 1274.08 Q190.51 1269.48 190.51 1260.75 Q190.51 1252.56 194.399 1247.7 Q198.287 1242.81 204.838 1242.81 Q206.598 1242.81 208.38 1243.16 Q210.186 1243.51 212.13 1244.2 Z" fill="#000000" fill-rule="evenodd" fill-opacity="1" /><path clip-path="url(#clip430)" d="M222.57 1277.28 L222.57 1273.02 Q224.329 1273.85 226.135 1274.29 Q227.94 1274.73 229.676 1274.73 Q234.306 1274.73 236.736 1271.63 Q239.19 1268.51 239.537 1262.16 Q238.195 1264.15 236.135 1265.22 Q234.074 1266.28 231.574 1266.28 Q226.389 1266.28 223.357 1263.16 Q220.348 1260.01 220.348 1254.57 Q220.348 1249.25 223.496 1246.03 Q226.644 1242.81 231.875 1242.81 Q237.871 1242.81 241.019 1247.42 Q244.19 1252 244.19 1260.75 Q244.19 1268.92 240.301 1273.81 Q236.435 1278.67 229.885 1278.67 Q228.125 1278.67 226.32 1278.32 Q224.514 1277.97 222.57 1277.28 M231.875 1262.63 Q235.023 1262.63 236.852 1260.47 Q238.704 1258.32 238.704 1254.57 Q238.704 1250.84 236.852 1248.69 Q235.023 1246.52 231.875 1246.52 Q228.727 1246.52 226.875 1248.69 Q225.047 1250.84 225.047 1254.57 Q225.047 1258.32 226.875 1260.47 Q228.727 1262.63 231.875 1262.63 Z" fill="#000000" fill-rule="evenodd" fill-opacity="1" /><path clip-path="url(#clip430)" d="M126.691 1084.05 Q123.08 1084.05 121.251 1087.62 Q119.445 1091.16 119.445 1098.29 Q119.445 1105.39 121.251 1108.96 Q123.08 1112.5 126.691 1112.5 Q130.325 1112.5 132.13 1108.96 Q133.959 1105.39 133.959 1098.29 Q133.959 1091.16 132.13 1087.62 Q130.325 1084.05 126.691 1084.05 M126.691 1080.35 Q132.501 1080.35 135.556 1084.95 Q138.635 1089.54 138.635 1098.29 Q138.635 1107.01 135.556 1111.62 Q132.501 1116.2 126.691 1116.2 Q120.88 1116.2 117.802 1111.62 Q114.746 1107.01 114.746 1098.29 Q114.746 1089.54 117.802 1084.95 Q120.88 1080.35 126.691 1080.35 Z" fill="#000000" fill-rule="evenodd" fill-opacity="1" /><path clip-path="url(#clip430)" d="M146.853 1109.65 L151.737 1109.65 L151.737 1115.53 L146.853 1115.53 L146.853 1109.65 Z" fill="#000000" fill-rule="evenodd" fill-opacity="1" /><path clip-path="url(#clip430)" d="M174.769 1085.05 L162.964 1103.5 L174.769 1103.5 L174.769 1085.05 M173.542 1080.97 L179.422 1080.97 L179.422 1103.5 L184.352 1103.5 L184.352 1107.38 L179.422 1107.38 L179.422 1115.53 L174.769 1115.53 L174.769 1107.38 L159.167 1107.38 L159.167 1102.87 L173.542 1080.97 Z" fill="#000000" fill-rule="evenodd" fill-opacity="1" /><path clip-path="url(#clip430)" d="M190.903 1080.97 L213.125 1080.97 L213.125 1082.96 L200.579 1115.53 L195.695 1115.53 L207.5 1084.91 L190.903 1084.91 L190.903 1080.97 Z" fill="#000000" fill-rule="evenodd" fill-opacity="1" /><path clip-path="url(#clip430)" d="M232.246 1084.05 Q228.635 1084.05 226.806 1087.62 Q225 1091.16 225 1098.29 Q225 1105.39 226.806 1108.96 Q228.635 1112.5 232.246 1112.5 Q235.88 1112.5 237.685 1108.96 Q239.514 1105.39 239.514 1098.29 Q239.514 1091.16 237.685 1087.62 Q235.88 1084.05 232.246 1084.05 M232.246 1080.35 Q238.056 1080.35 241.111 1084.95 Q244.19 1089.54 244.19 1098.29 Q244.19 1107.01 241.111 1111.62 Q238.056 1116.2 232.246 1116.2 Q226.435 1116.2 223.357 1111.62 Q220.301 1107.01 220.301 1098.29 Q220.301 1089.54 223.357 1084.95 Q226.435 1080.35 232.246 1080.35 Z" fill="#000000" fill-rule="evenodd" fill-opacity="1" /><path clip-path="url(#clip430)" d="M127.917 921.588 Q124.306 921.588 122.478 925.153 Q120.672 928.695 120.672 935.824 Q120.672 942.931 122.478 946.495 Q124.306 950.037 127.917 950.037 Q131.552 950.037 133.357 946.495 Q135.186 942.931 135.186 935.824 Q135.186 928.695 133.357 925.153 Q131.552 921.588 127.917 921.588 M127.917 917.884 Q133.728 917.884 136.783 922.491 Q139.862 927.074 139.862 935.824 Q139.862 944.551 136.783 949.157 Q133.728 953.741 127.917 953.741 Q122.107 953.741 119.029 949.157 Q115.973 944.551 115.973 935.824 Q115.973 927.074 119.029 922.491 Q122.107 917.884 127.917 917.884 Z" fill="#000000" fill-rule="evenodd" fill-opacity="1" /><path clip-path="url(#clip430)" d="M148.079 947.19 L152.964 947.19 L152.964 953.069 L148.079 953.069 L148.079 947.19 Z" fill="#000000" fill-rule="evenodd" fill-opacity="1" /><path clip-path="url(#clip430)" d="M175.996 922.584 L164.19 941.032 L175.996 941.032 L175.996 922.584 M174.769 918.509 L180.649 918.509 L180.649 941.032 L185.579 941.032 L185.579 944.921 L180.649 944.921 L180.649 953.069 L175.996 953.069 L175.996 944.921 L160.394 944.921 L160.394 940.407 L174.769 918.509 Z" fill="#000000" fill-rule="evenodd" fill-opacity="1" /><path clip-path="url(#clip430)" d="M192.13 918.509 L214.352 918.509 L214.352 920.5 L201.806 953.069 L196.922 953.069 L208.727 922.445 L192.13 922.445 L192.13 918.509 Z" fill="#000000" fill-rule="evenodd" fill-opacity="1" /><path clip-path="url(#clip430)" d="M224.283 949.134 L231.922 949.134 L231.922 922.769 L223.611 924.435 L223.611 920.176 L231.875 918.509 L236.551 918.509 L236.551 949.134 L244.19 949.134 L244.19 953.069 L224.283 953.069 L224.283 949.134 Z" fill="#000000" fill-rule="evenodd" fill-opacity="1" /><path clip-path="url(#clip430)" d="M128.288 759.125 Q124.677 759.125 122.848 762.689 Q121.043 766.231 121.043 773.361 Q121.043 780.467 122.848 784.032 Q124.677 787.574 128.288 787.574 Q131.922 787.574 133.728 784.032 Q135.556 780.467 135.556 773.361 Q135.556 766.231 133.728 762.689 Q131.922 759.125 128.288 759.125 M128.288 755.421 Q134.098 755.421 137.154 760.027 Q140.232 764.611 140.232 773.361 Q140.232 782.088 137.154 786.694 Q134.098 791.277 128.288 791.277 Q122.478 791.277 119.399 786.694 Q116.343 782.088 116.343 773.361 Q116.343 764.611 119.399 760.027 Q122.478 755.421 128.288 755.421 Z" fill="#000000" fill-rule="evenodd" fill-opacity="1" /><path clip-path="url(#clip430)" d="M148.45 784.726 L153.334 784.726 L153.334 790.606 L148.45 790.606 L148.45 784.726 Z" fill="#000000" fill-rule="evenodd" fill-opacity="1" /><path clip-path="url(#clip430)" d="M176.366 760.12 L164.561 778.569 L176.366 778.569 L176.366 760.12 M175.139 756.046 L181.019 756.046 L181.019 778.569 L185.95 778.569 L185.95 782.458 L181.019 782.458 L181.019 790.606 L176.366 790.606 L176.366 782.458 L160.765 782.458 L160.765 777.944 L175.139 756.046 Z" fill="#000000" fill-rule="evenodd" fill-opacity="1" /><path clip-path="url(#clip430)" d="M192.5 756.046 L214.723 756.046 L214.723 758.037 L202.176 790.606 L197.292 790.606 L209.098 759.981 L192.5 759.981 L192.5 756.046 Z" fill="#000000" fill-rule="evenodd" fill-opacity="1" /><path clip-path="url(#clip430)" d="M227.871 786.671 L244.19 786.671 L244.19 790.606 L222.246 790.606 L222.246 786.671 Q224.908 783.916 229.491 779.287 Q234.097 774.634 235.278 773.291 Q237.523 770.768 238.403 769.032 Q239.306 767.273 239.306 765.583 Q239.306 762.828 237.361 761.092 Q235.44 759.356 232.338 759.356 Q230.139 759.356 227.685 760.12 Q225.255 760.884 222.477 762.435 L222.477 757.713 Q225.301 756.578 227.755 756 Q230.209 755.421 232.246 755.421 Q237.616 755.421 240.81 758.106 Q244.005 760.791 244.005 765.282 Q244.005 767.412 243.195 769.333 Q242.408 771.231 240.301 773.824 Q239.722 774.495 236.621 777.713 Q233.519 780.907 227.871 786.671 Z" fill="#000000" fill-rule="evenodd" fill-opacity="1" /><path clip-path="url(#clip430)" d="M127.339 596.661 Q123.728 596.661 121.899 600.226 Q120.093 603.768 120.093 610.897 Q120.093 618.004 121.899 621.568 Q123.728 625.11 127.339 625.11 Q130.973 625.11 132.779 621.568 Q134.607 618.004 134.607 610.897 Q134.607 603.768 132.779 600.226 Q130.973 596.661 127.339 596.661 M127.339 592.958 Q133.149 592.958 136.204 597.564 Q139.283 602.147 139.283 610.897 Q139.283 619.624 136.204 624.231 Q133.149 628.814 127.339 628.814 Q121.529 628.814 118.45 624.231 Q115.394 619.624 115.394 610.897 Q115.394 602.147 118.45 597.564 Q121.529 592.958 127.339 592.958 Z" fill="#000000" fill-rule="evenodd" fill-opacity="1" /><path clip-path="url(#clip430)" d="M147.501 622.263 L152.385 622.263 L152.385 628.143 L147.501 628.143 L147.501 622.263 Z" fill="#000000" fill-rule="evenodd" fill-opacity="1" /><path clip-path="url(#clip430)" d="M175.417 597.657 L163.612 616.106 L175.417 616.106 L175.417 597.657 M174.19 593.583 L180.07 593.583 L180.07 616.106 L185.001 616.106 L185.001 619.994 L180.07 619.994 L180.07 628.143 L175.417 628.143 L175.417 619.994 L159.815 619.994 L159.815 615.481 L174.19 593.583 Z" fill="#000000" fill-rule="evenodd" fill-opacity="1" /><path clip-path="url(#clip430)" d="M191.551 593.583 L213.774 593.583 L213.774 595.573 L201.227 628.143 L196.343 628.143 L208.149 597.518 L191.551 597.518 L191.551 593.583 Z" fill="#000000" fill-rule="evenodd" fill-opacity="1" /><path clip-path="url(#clip430)" d="M237.06 609.508 Q240.417 610.226 242.292 612.494 Q244.19 614.763 244.19 618.096 Q244.19 623.212 240.672 626.013 Q237.153 628.814 230.672 628.814 Q228.496 628.814 226.181 628.374 Q223.889 627.957 221.436 627.101 L221.436 622.587 Q223.38 623.721 225.695 624.3 Q228.01 624.879 230.533 624.879 Q234.931 624.879 237.222 623.143 Q239.537 621.406 239.537 618.096 Q239.537 615.041 237.384 613.328 Q235.255 611.592 231.435 611.592 L227.408 611.592 L227.408 607.749 L231.621 607.749 Q235.07 607.749 236.898 606.383 Q238.727 604.994 238.727 602.402 Q238.727 599.74 236.829 598.328 Q234.954 596.893 231.435 596.893 Q229.514 596.893 227.315 597.309 Q225.116 597.726 222.477 598.606 L222.477 594.439 Q225.139 593.698 227.454 593.328 Q229.792 592.958 231.852 592.958 Q237.176 592.958 240.278 595.388 Q243.38 597.795 243.38 601.916 Q243.38 604.786 241.736 606.777 Q240.093 608.744 237.06 609.508 Z" fill="#000000" fill-rule="evenodd" fill-opacity="1" /><path clip-path="url(#clip430)" d="M126.205 434.198 Q122.593 434.198 120.765 437.763 Q118.959 441.304 118.959 448.434 Q118.959 455.54 120.765 459.105 Q122.593 462.647 126.205 462.647 Q129.839 462.647 131.644 459.105 Q133.473 455.54 133.473 448.434 Q133.473 441.304 131.644 437.763 Q129.839 434.198 126.205 434.198 M126.205 430.494 Q132.015 430.494 135.07 435.101 Q138.149 439.684 138.149 448.434 Q138.149 457.161 135.07 461.767 Q132.015 466.35 126.205 466.35 Q120.394 466.35 117.316 461.767 Q114.26 457.161 114.26 448.434 Q114.26 439.684 117.316 435.101 Q120.394 430.494 126.205 430.494 Z" fill="#000000" fill-rule="evenodd" fill-opacity="1" /><path clip-path="url(#clip430)" d="M146.366 459.799 L151.251 459.799 L151.251 465.679 L146.366 465.679 L146.366 459.799 Z" fill="#000000" fill-rule="evenodd" fill-opacity="1" /><path clip-path="url(#clip430)" d="M174.283 435.193 L162.477 453.642 L174.283 453.642 L174.283 435.193 M173.056 431.119 L178.936 431.119 L178.936 453.642 L183.866 453.642 L183.866 457.531 L178.936 457.531 L178.936 465.679 L174.283 465.679 L174.283 457.531 L158.681 457.531 L158.681 453.017 L173.056 431.119 Z" fill="#000000" fill-rule="evenodd" fill-opacity="1" /><path clip-path="url(#clip430)" d="M190.417 431.119 L212.639 431.119 L212.639 433.11 L200.093 465.679 L195.209 465.679 L207.014 435.054 L190.417 435.054 L190.417 431.119 Z" fill="#000000" fill-rule="evenodd" fill-opacity="1" /><path clip-path="url(#clip430)" d="M234.607 435.193 L222.801 453.642 L234.607 453.642 L234.607 435.193 M233.38 431.119 L239.259 431.119 L239.259 453.642 L244.19 453.642 L244.19 457.531 L239.259 457.531 L239.259 465.679 L234.607 465.679 L234.607 457.531 L219.005 457.531 L219.005 453.017 L233.38 431.119 Z" fill="#000000" fill-rule="evenodd" fill-opacity="1" /><path clip-path="url(#clip430)" d="M127.686 271.734 Q124.075 271.734 122.246 275.299 Q120.441 278.841 120.441 285.97 Q120.441 293.077 122.246 296.642 Q124.075 300.183 127.686 300.183 Q131.32 300.183 133.126 296.642 Q134.954 293.077 134.954 285.97 Q134.954 278.841 133.126 275.299 Q131.32 271.734 127.686 271.734 M127.686 268.031 Q133.496 268.031 136.552 272.637 Q139.63 277.22 139.63 285.97 Q139.63 294.697 136.552 299.304 Q133.496 303.887 127.686 303.887 Q121.876 303.887 118.797 299.304 Q115.742 294.697 115.742 285.97 Q115.742 277.22 118.797 272.637 Q121.876 268.031 127.686 268.031 Z" fill="#000000" fill-rule="evenodd" fill-opacity="1" /><path clip-path="url(#clip430)" d="M147.848 297.336 L152.732 297.336 L152.732 303.216 L147.848 303.216 L147.848 297.336 Z" fill="#000000" fill-rule="evenodd" fill-opacity="1" /><path clip-path="url(#clip430)" d="M175.764 272.73 L163.959 291.179 L175.764 291.179 L175.764 272.73 M174.538 268.656 L180.417 268.656 L180.417 291.179 L185.348 291.179 L185.348 295.067 L180.417 295.067 L180.417 303.216 L175.764 303.216 L175.764 295.067 L160.163 295.067 L160.163 290.554 L174.538 268.656 Z" fill="#000000" fill-rule="evenodd" fill-opacity="1" /><path clip-path="url(#clip430)" d="M191.899 268.656 L214.121 268.656 L214.121 270.646 L201.575 303.216 L196.69 303.216 L208.496 272.591 L191.899 272.591 L191.899 268.656 Z" fill="#000000" fill-rule="evenodd" fill-opacity="1" /><path clip-path="url(#clip430)" d="M223.287 268.656 L241.644 268.656 L241.644 272.591 L227.57 272.591 L227.57 281.063 Q228.588 280.716 229.607 280.554 Q230.625 280.368 231.644 280.368 Q237.431 280.368 240.81 283.54 Q244.19 286.711 244.19 292.128 Q244.19 297.706 240.718 300.808 Q237.246 303.887 230.926 303.887 Q228.75 303.887 226.482 303.517 Q224.236 303.146 221.829 302.405 L221.829 297.706 Q223.912 298.841 226.135 299.396 Q228.357 299.952 230.834 299.952 Q234.838 299.952 237.176 297.845 Q239.514 295.739 239.514 292.128 Q239.514 288.517 237.176 286.41 Q234.838 284.304 230.834 284.304 Q228.959 284.304 227.084 284.72 Q225.232 285.137 223.287 286.017 L223.287 268.656 Z" fill="#000000" fill-rule="evenodd" fill-opacity="1" /><path clip-path="url(#clip430)" d="M126.529 109.271 Q122.918 109.271 121.089 112.836 Q119.283 116.377 119.283 123.507 Q119.283 130.613 121.089 134.178 Q122.918 137.72 126.529 137.72 Q130.163 137.72 131.968 134.178 Q133.797 130.613 133.797 123.507 Q133.797 116.377 131.968 112.836 Q130.163 109.271 126.529 109.271 M126.529 105.567 Q132.339 105.567 135.394 110.174 Q138.473 114.757 138.473 123.507 Q138.473 132.234 135.394 136.84 Q132.339 141.423 126.529 141.423 Q120.718 141.423 117.64 136.84 Q114.584 132.234 114.584 123.507 Q114.584 114.757 117.64 110.174 Q120.718 105.567 126.529 105.567 Z" fill="#000000" fill-rule="evenodd" fill-opacity="1" /><path clip-path="url(#clip430)" d="M146.691 134.873 L151.575 134.873 L151.575 140.752 L146.691 140.752 L146.691 134.873 Z" fill="#000000" fill-rule="evenodd" fill-opacity="1" /><path clip-path="url(#clip430)" d="M174.607 110.266 L162.802 128.715 L174.607 128.715 L174.607 110.266 M173.38 106.192 L179.26 106.192 L179.26 128.715 L184.19 128.715 L184.19 132.604 L179.26 132.604 L179.26 140.752 L174.607 140.752 L174.607 132.604 L159.005 132.604 L159.005 128.09 L173.38 106.192 Z" fill="#000000" fill-rule="evenodd" fill-opacity="1" /><path clip-path="url(#clip430)" d="M190.741 106.192 L212.963 106.192 L212.963 108.183 L200.417 140.752 L195.533 140.752 L207.338 110.127 L190.741 110.127 L190.741 106.192 Z" fill="#000000" fill-rule="evenodd" fill-opacity="1" /><path clip-path="url(#clip430)" d="M232.662 121.609 Q229.514 121.609 227.662 123.761 Q225.834 125.914 225.834 129.664 Q225.834 133.391 227.662 135.567 Q229.514 137.72 232.662 137.72 Q235.81 137.72 237.639 135.567 Q239.491 133.391 239.491 129.664 Q239.491 125.914 237.639 123.761 Q235.81 121.609 232.662 121.609 M241.945 106.956 L241.945 111.215 Q240.185 110.382 238.38 109.942 Q236.597 109.502 234.838 109.502 Q230.209 109.502 227.755 112.627 Q225.324 115.752 224.977 122.072 Q226.343 120.058 228.403 118.993 Q230.463 117.905 232.94 117.905 Q238.148 117.905 241.158 121.076 Q244.19 124.224 244.19 129.664 Q244.19 134.988 241.042 138.206 Q237.894 141.423 232.662 141.423 Q226.667 141.423 223.496 136.84 Q220.324 132.234 220.324 123.507 Q220.324 115.312 224.213 110.451 Q228.102 105.567 234.653 105.567 Q236.412 105.567 238.195 105.914 Q240 106.262 241.945 106.956 Z" fill="#000000" fill-rule="evenodd" fill-opacity="1" /><path clip-path="url(#clip430)" d="M16.4842 987.834 L16.4842 981.405 L64.0042 981.405 L64.0042 987.834 L16.4842 987.834 Z" fill="#000000" fill-rule="evenodd" fill-opacity="1" /><path clip-path="url(#clip430)" d="M42.4881 939.232 L64.0042 939.232 L64.0042 945.089 L42.679 945.089 Q37.6183 945.089 35.1038 947.062 Q32.5894 949.035 32.5894 952.982 Q32.5894 957.725 35.6131 960.462 Q38.6368 963.199 43.8567 963.199 L64.0042 963.199 L64.0042 969.087 L28.3562 969.087 L28.3562 963.199 L33.8944 963.199 Q30.6797 961.098 29.0883 958.266 Q27.4968 955.401 27.4968 951.677 Q27.4968 945.534 31.3163 942.383 Q35.1038 939.232 42.4881 939.232 Z" fill="#000000" fill-rule="evenodd" fill-opacity="1" /><path clip-path="url(#clip430)" d="M42.4881 897.919 L64.0042 897.919 L64.0042 903.775 L42.679 903.775 Q37.6183 903.775 35.1038 905.749 Q32.5894 907.722 32.5894 911.669 Q32.5894 916.411 35.6131 919.148 Q38.6368 921.886 43.8567 921.886 L64.0042 921.886 L64.0042 927.774 L28.3562 927.774 L28.3562 921.886 L33.8944 921.886 Q30.6797 919.785 29.0883 916.952 Q27.4968 914.088 27.4968 910.364 Q27.4968 904.221 31.3163 901.07 Q35.1038 897.919 42.4881 897.919 Z" fill="#000000" fill-rule="evenodd" fill-opacity="1" /><path clip-path="url(#clip430)" d="M44.7161 855.746 L47.5806 855.746 L47.5806 882.673 Q53.6281 882.291 56.8109 879.044 Q59.9619 875.766 59.9619 869.941 Q59.9619 866.568 59.1344 863.417 Q58.3069 860.234 56.6518 857.115 L62.1899 857.115 Q63.5267 860.266 64.227 863.576 Q64.9272 866.886 64.9272 870.292 Q64.9272 878.822 59.9619 883.819 Q54.9967 888.784 46.5303 888.784 Q37.7774 888.784 32.6531 884.073 Q27.4968 879.331 27.4968 871.31 Q27.4968 864.117 32.1438 859.947 Q36.7589 855.746 44.7161 855.746 M42.9973 861.602 Q38.1912 861.666 35.3266 864.308 Q32.4621 866.918 32.4621 871.246 Q32.4621 876.148 35.2312 879.108 Q38.0002 882.036 43.0292 882.482 L42.9973 861.602 Z" fill="#000000" fill-rule="evenodd" fill-opacity="1" /><path clip-path="url(#clip430)" d="M33.8307 825.477 Q33.2578 826.464 33.0032 827.641 Q32.7167 828.787 32.7167 830.188 Q32.7167 835.153 35.9632 837.827 Q39.1779 840.468 45.2253 840.468 L64.0042 840.468 L64.0042 846.357 L28.3562 846.357 L28.3562 840.468 L33.8944 840.468 Q30.6479 838.622 29.0883 835.662 Q27.4968 832.702 27.4968 828.469 Q27.4968 827.864 27.5923 827.132 Q27.656 826.4 27.8151 825.509 L33.8307 825.477 Z" fill="#000000" fill-rule="evenodd" fill-opacity="1" /><path clip-path="url(#clip430)" d="M21.7677 791.93 L39.6235 791.93 L39.6235 783.845 Q39.6235 779.357 37.3 776.907 Q34.9765 774.456 30.6797 774.456 Q26.4147 774.456 24.0912 776.907 Q21.7677 779.357 21.7677 783.845 L21.7677 791.93 M16.4842 798.359 L16.4842 783.845 Q16.4842 775.856 20.1126 771.782 Q23.7092 767.676 30.6797 767.676 Q37.7138 767.676 41.3104 771.782 Q44.907 775.856 44.907 783.845 L44.907 791.93 L64.0042 791.93 L64.0042 798.359 L16.4842 798.359 Z" fill="#000000" fill-rule="evenodd" fill-opacity="1" /><path clip-path="url(#clip430)" d="M33.8307 739.795 Q33.2578 740.781 33.0032 741.959 Q32.7167 743.105 32.7167 744.505 Q32.7167 749.47 35.9632 752.144 Q39.1779 754.786 45.2253 754.786 L64.0042 754.786 L64.0042 760.674 L28.3562 760.674 L28.3562 754.786 L33.8944 754.786 Q30.6479 752.94 29.0883 749.98 Q27.4968 747.02 27.4968 742.787 Q27.4968 742.182 27.5923 741.45 Q27.656 740.718 27.8151 739.826 L33.8307 739.795 Z" fill="#000000" fill-rule="evenodd" fill-opacity="1" /><path clip-path="url(#clip430)" d="M32.4621 721.27 Q32.4621 725.981 36.1542 728.718 Q39.8145 731.456 46.212 731.456 Q52.6095 731.456 56.3017 728.75 Q59.9619 726.013 59.9619 721.27 Q59.9619 716.592 56.2698 713.854 Q52.5777 711.117 46.212 711.117 Q39.8781 711.117 36.186 713.854 Q32.4621 716.592 32.4621 721.27 M27.4968 721.27 Q27.4968 713.632 32.4621 709.271 Q37.4273 704.911 46.212 704.911 Q54.9649 704.911 59.9619 709.271 Q64.9272 713.632 64.9272 721.27 Q64.9272 728.941 59.9619 733.302 Q54.9649 737.63 46.212 737.63 Q37.4273 737.63 32.4621 733.302 Q27.4968 728.941 27.4968 721.27 Z" fill="#000000" fill-rule="evenodd" fill-opacity="1" /><path clip-path="url(#clip430)" d="M33.7671 671.745 L14.479 671.745 L14.479 665.889 L64.0042 665.889 L64.0042 671.745 L58.657 671.745 Q61.8398 673.591 63.3994 676.424 Q64.9272 679.225 64.9272 683.172 Q64.9272 689.633 59.771 693.707 Q54.6147 697.749 46.212 697.749 Q37.8093 697.749 32.6531 693.707 Q27.4968 689.633 27.4968 683.172 Q27.4968 679.225 29.0564 676.424 Q30.5842 673.591 33.7671 671.745 M46.212 691.702 Q52.6732 691.702 56.3653 689.06 Q60.0256 686.386 60.0256 681.739 Q60.0256 677.092 56.3653 674.419 Q52.6732 671.745 46.212 671.745 Q39.7508 671.745 36.0905 674.419 Q32.3984 677.092 32.3984 681.739 Q32.3984 686.386 36.0905 689.06 Q39.7508 691.702 46.212 691.702 Z" fill="#000000" fill-rule="evenodd" fill-opacity="1" /><path clip-path="url(#clip430)" d="M49.9359 654.43 L28.3562 654.43 L28.3562 648.574 L49.7131 648.574 Q54.7739 648.574 57.3202 646.601 Q59.8346 644.627 59.8346 640.681 Q59.8346 635.938 56.8109 633.201 Q53.7872 630.432 48.5673 630.432 L28.3562 630.432 L28.3562 624.575 L64.0042 624.575 L64.0042 630.432 L58.5296 630.432 Q61.7762 632.564 63.3676 635.397 Q64.9272 638.198 64.9272 641.922 Q64.9272 648.065 61.1078 651.248 Q57.2883 654.43 49.9359 654.43 M27.4968 639.694 L27.4968 639.694 Z" fill="#000000" fill-rule="evenodd" fill-opacity="1" /><path clip-path="url(#clip430)" d="M29.7248 586.859 L35.1993 586.859 Q33.8307 589.341 33.1623 591.856 Q32.4621 594.338 32.4621 596.885 Q32.4621 602.582 36.0905 605.733 Q39.6872 608.884 46.212 608.884 Q52.7369 608.884 56.3653 605.733 Q59.9619 602.582 59.9619 596.885 Q59.9619 594.338 59.2935 591.856 Q58.5933 589.341 57.2247 586.859 L62.6355 586.859 Q63.7814 589.309 64.3543 591.951 Q64.9272 594.561 64.9272 597.521 Q64.9272 605.574 59.8664 610.316 Q54.8057 615.059 46.212 615.059 Q37.491 615.059 32.4939 610.284 Q27.4968 605.478 27.4968 597.139 Q27.4968 594.434 28.0697 591.856 Q28.6108 589.277 29.7248 586.859 Z" fill="#000000" fill-rule="evenodd" fill-opacity="1" /><path clip-path="url(#clip430)" d="M18.2347 570.881 L28.3562 570.881 L28.3562 558.818 L32.9077 558.818 L32.9077 570.881 L52.2594 570.881 Q56.6199 570.881 57.8613 569.703 Q59.1026 568.493 59.1026 564.833 L59.1026 558.818 L64.0042 558.818 L64.0042 564.833 Q64.0042 571.613 61.4897 574.191 Q58.9434 576.769 52.2594 576.769 L32.9077 576.769 L32.9077 581.066 L28.3562 581.066 L28.3562 576.769 L18.2347 576.769 L18.2347 570.881 Z" fill="#000000" fill-rule="evenodd" fill-opacity="1" /><path clip-path="url(#clip430)" d="M1186.05 17.6457 Q1177.14 17.6457 1171.88 24.2892 Q1166.65 30.9327 1166.65 42.3968 Q1166.65 53.8203 1171.88 60.4638 Q1177.14 67.1073 1186.05 67.1073 Q1194.97 67.1073 1200.15 60.4638 Q1205.38 53.8203 1205.38 42.3968 Q1205.38 30.9327 1200.15 24.2892 Q1194.97 17.6457 1186.05 17.6457 M1186.05 11.0023 Q1198.77 11.0023 1206.39 19.5497 Q1214.01 28.0566 1214.01 42.3968 Q1214.01 56.6965 1206.39 65.2439 Q1198.77 73.7508 1186.05 73.7508 Q1173.29 73.7508 1165.64 65.2439 Q1158.02 56.737 1158.02 42.3968 Q1158.02 28.0566 1165.64 19.5497 Q1173.29 11.0023 1186.05 11.0023 Z" fill="#000000" fill-rule="evenodd" fill-opacity="1" /><path clip-path="url(#clip430)" d="M1221.13 27.2059 L1229.03 27.2059 L1243.21 65.2844 L1257.39 27.2059 L1265.29 27.2059 L1248.28 72.576 L1238.15 72.576 L1221.13 27.2059 Z" fill="#000000" fill-rule="evenodd" fill-opacity="1" /><path clip-path="url(#clip430)" d="M1314.39 48.0275 L1314.39 51.6733 L1280.12 51.6733 Q1280.6 59.3701 1284.73 63.421 Q1288.91 67.4314 1296.32 67.4314 Q1300.61 67.4314 1304.62 66.3781 Q1308.67 65.3249 1312.64 63.2184 L1312.64 70.267 Q1308.63 71.9684 1304.42 72.8596 Q1300.21 73.7508 1295.87 73.7508 Q1285.02 73.7508 1278.66 67.4314 Q1272.34 61.1119 1272.34 50.3365 Q1272.34 39.1965 1278.33 32.6746 Q1284.37 26.1121 1294.58 26.1121 Q1303.73 26.1121 1309.04 32.0264 Q1314.39 37.9003 1314.39 48.0275 M1306.93 45.84 Q1306.85 39.7232 1303.49 36.0774 Q1300.17 32.4315 1294.66 32.4315 Q1288.42 32.4315 1284.65 35.9558 Q1280.93 39.4801 1280.36 45.8805 L1306.93 45.84 Z" fill="#000000" fill-rule="evenodd" fill-opacity="1" /><path clip-path="url(#clip430)" d="M1352.91 34.1734 Q1351.66 33.4443 1350.16 33.1202 Q1348.7 32.7556 1346.92 32.7556 Q1340.6 32.7556 1337.19 36.8875 Q1333.83 40.9789 1333.83 48.6757 L1333.83 72.576 L1326.34 72.576 L1326.34 27.2059 L1333.83 27.2059 L1333.83 34.2544 Q1336.18 30.1225 1339.95 28.1376 Q1343.72 26.1121 1349.1 26.1121 Q1349.87 26.1121 1350.8 26.2337 Q1351.74 26.3147 1352.87 26.5172 L1352.91 34.1734 Z" fill="#000000" fill-rule="evenodd" fill-opacity="1" /><path clip-path="url(#clip430)" d="M1360.73 9.54393 L1368.18 9.54393 L1368.18 72.576 L1360.73 72.576 L1360.73 9.54393 Z" fill="#000000" fill-rule="evenodd" fill-opacity="1" /><path clip-path="url(#clip430)" d="M1404.4 49.7694 Q1395.36 49.7694 1391.88 51.8354 Q1388.4 53.9013 1388.4 58.8839 Q1388.4 62.8538 1390.99 65.2034 Q1393.62 67.5124 1398.12 67.5124 Q1404.32 67.5124 1408.04 63.1374 Q1411.81 58.7219 1411.81 51.4303 L1411.81 49.7694 L1404.4 49.7694 M1419.26 46.6907 L1419.26 72.576 L1411.81 72.576 L1411.81 65.6895 Q1409.26 69.8214 1405.45 71.8063 Q1401.64 73.7508 1396.13 73.7508 Q1389.17 73.7508 1385.03 69.8619 Q1380.94 65.9325 1380.94 59.3701 Q1380.94 51.7138 1386.05 47.825 Q1391.19 43.9361 1401.36 43.9361 L1411.81 43.9361 L1411.81 43.2069 Q1411.81 38.0623 1408.41 35.2672 Q1405.05 32.4315 1398.93 32.4315 Q1395.04 32.4315 1391.35 33.3632 Q1387.67 34.295 1384.26 36.1584 L1384.26 29.2718 Q1388.36 27.692 1392.2 26.9223 Q1396.05 26.1121 1399.7 26.1121 Q1409.54 26.1121 1414.4 31.2163 Q1419.26 36.3204 1419.26 46.6907 Z" fill="#000000" fill-rule="evenodd" fill-opacity="1" /><path clip-path="url(#clip430)" d="M1441.83 65.7705 L1441.83 89.8329 L1434.33 89.8329 L1434.33 27.2059 L1441.83 27.2059 L1441.83 34.0924 Q1444.18 30.0415 1447.74 28.0971 Q1451.35 26.1121 1456.33 26.1121 Q1464.59 26.1121 1469.74 32.6746 Q1474.92 39.2371 1474.92 49.9314 Q1474.92 60.6258 1469.74 67.1883 Q1464.59 73.7508 1456.33 73.7508 Q1451.35 73.7508 1447.74 71.8063 Q1444.18 69.8214 1441.83 65.7705 M1467.19 49.9314 Q1467.19 41.7081 1463.78 37.0496 Q1460.42 32.3505 1454.51 32.3505 Q1448.59 32.3505 1445.19 37.0496 Q1441.83 41.7081 1441.83 49.9314 Q1441.83 58.1548 1445.19 62.8538 Q1448.59 67.5124 1454.51 67.5124 Q1460.42 67.5124 1463.78 62.8538 Q1467.19 58.1548 1467.19 49.9314 Z" fill="#000000" fill-rule="evenodd" fill-opacity="1" /><polyline clip-path="url(#clip432)" style="stroke:#000000; stroke-linecap:round; stroke-linejoin:round; stroke-width:4; stroke-opacity:1; fill:none" points="
  349.276,162.674 349.276,162.66 
  "/>
<polyline clip-path="url(#clip432)" style="stroke:#000000; stroke-linecap:round; stroke-linejoin:round; stroke-width:4; stroke-opacity:1; fill:none" points="
  418.361,1250.57 418.361,1250.36 
  "/>
<polyline clip-path="url(#clip432)" style="stroke:#000000; stroke-linecap:round; stroke-linejoin:round; stroke-width:4; stroke-opacity:1; fill:none" points="
  487.447,561.321 487.447,561.301 
  "/>
<polyline clip-path="url(#clip432)" style="stroke:#000000; stroke-linecap:round; stroke-linejoin:round; stroke-width:4; stroke-opacity:1; fill:none" points="
  556.532,1020.94 556.532,1020.91 
  "/>
<polyline clip-path="url(#clip432)" style="stroke:#000000; stroke-linecap:round; stroke-linejoin:round; stroke-width:4; stroke-opacity:1; fill:none" points="
  625.618,592.826 625.618,592.787 
  "/>
<polyline clip-path="url(#clip432)" style="stroke:#000000; stroke-linecap:round; stroke-linejoin:round; stroke-width:4; stroke-opacity:1; fill:none" points="
  694.703,975.574 694.703,975.424 
  "/>
<polyline clip-path="url(#clip432)" style="stroke:#000000; stroke-linecap:round; stroke-linejoin:round; stroke-width:4; stroke-opacity:1; fill:none" points="
  763.789,592.56 763.789,592.498 
  "/>
<polyline clip-path="url(#clip432)" style="stroke:#000000; stroke-linecap:round; stroke-linejoin:round; stroke-width:4; stroke-opacity:1; fill:none" points="
  832.874,965.799 832.874,965.77 
  "/>
<polyline clip-path="url(#clip432)" style="stroke:#000000; stroke-linecap:round; stroke-linejoin:round; stroke-width:4; stroke-opacity:1; fill:none" points="
  901.96,591.493 901.96,591.371 
  "/>
<polyline clip-path="url(#clip432)" style="stroke:#000000; stroke-linecap:round; stroke-linejoin:round; stroke-width:4; stroke-opacity:1; fill:none" points="
  971.045,963.659 971.045,963.579 
  "/>
<polyline clip-path="url(#clip432)" style="stroke:#000000; stroke-linecap:round; stroke-linejoin:round; stroke-width:4; stroke-opacity:1; fill:none" points="
  1040.13,591.1 1040.13,590.926 
  "/>
<polyline clip-path="url(#clip432)" style="stroke:#000000; stroke-linecap:round; stroke-linejoin:round; stroke-width:4; stroke-opacity:1; fill:none" points="
  1109.22,963.482 1109.22,962.768 
  "/>
<polyline clip-path="url(#clip432)" style="stroke:#000000; stroke-linecap:round; stroke-linejoin:round; stroke-width:4; stroke-opacity:1; fill:none" points="
  1178.3,590.939 1178.3,590.829 
  "/>
<polyline clip-path="url(#clip432)" style="stroke:#000000; stroke-linecap:round; stroke-linejoin:round; stroke-width:4; stroke-opacity:1; fill:none" points="
  1247.39,963.059 1247.39,962.961 
  "/>
<polyline clip-path="url(#clip432)" style="stroke:#000000; stroke-linecap:round; stroke-linejoin:round; stroke-width:4; stroke-opacity:1; fill:none" points="
  1316.47,591.01 1316.47,590.685 
  "/>
<polyline clip-path="url(#clip432)" style="stroke:#000000; stroke-linecap:round; stroke-linejoin:round; stroke-width:4; stroke-opacity:1; fill:none" points="
  1385.56,966.627 1385.56,959.408 
  "/>
<polyline clip-path="url(#clip432)" style="stroke:#000000; stroke-linecap:round; stroke-linejoin:round; stroke-width:4; stroke-opacity:1; fill:none" points="
  1454.64,591.113 1454.64,590.549 
  "/>
<polyline clip-path="url(#clip432)" style="stroke:#000000; stroke-linecap:round; stroke-linejoin:round; stroke-width:4; stroke-opacity:1; fill:none" points="
  1523.73,963.379 1523.73,962.657 
  "/>
<polyline clip-path="url(#clip432)" style="stroke:#000000; stroke-linecap:round; stroke-linejoin:round; stroke-width:4; stroke-opacity:1; fill:none" points="
  1592.82,594.125 1592.82,587.571 
  "/>
<polyline clip-path="url(#clip432)" style="stroke:#000000; stroke-linecap:round; stroke-linejoin:round; stroke-width:4; stroke-opacity:1; fill:none" points="
  1661.9,971.543 1661.9,954.646 
  "/>
<polyline clip-path="url(#clip432)" style="stroke:#000000; stroke-linecap:round; stroke-linejoin:round; stroke-width:4; stroke-opacity:1; fill:none" points="
  1730.99,594.438 1730.99,587.213 
  "/>
<polyline clip-path="url(#clip432)" style="stroke:#000000; stroke-linecap:round; stroke-linejoin:round; stroke-width:4; stroke-opacity:1; fill:none" points="
  1800.07,970.767 1800.07,955.103 
  "/>
<polyline clip-path="url(#clip432)" style="stroke:#000000; stroke-linecap:round; stroke-linejoin:round; stroke-width:4; stroke-opacity:1; fill:none" points="
  1869.16,596.416 1869.16,585.392 
  "/>
<polyline clip-path="url(#clip432)" style="stroke:#000000; stroke-linecap:round; stroke-linejoin:round; stroke-width:4; stroke-opacity:1; fill:none" points="
  1938.24,973.605 1938.24,952.603 
  "/>
<polyline clip-path="url(#clip432)" style="stroke:#000000; stroke-linecap:round; stroke-linejoin:round; stroke-width:4; stroke-opacity:1; fill:none" points="
  2007.33,597.371 2007.33,584.293 
  "/>
<polyline clip-path="url(#clip432)" style="stroke:#000000; stroke-linecap:round; stroke-linejoin:round; stroke-width:4; stroke-opacity:1; fill:none" points="
  2076.41,989.651 2076.41,935.851 
  "/>
<polyline clip-path="url(#clip432)" style="stroke:#000000; stroke-linecap:round; stroke-linejoin:round; stroke-width:4; stroke-opacity:1; fill:none" points="
  2145.5,605.369 2145.5,576.336 
  "/>
<line clip-path="url(#clip432)" x1="357.276" y1="162.674" x2="341.276" y2="162.674" style="stroke:#000000; stroke-width:3.2; stroke-opacity:1"/>
<line clip-path="url(#clip432)" x1="357.276" y1="162.66" x2="341.276" y2="162.66" style="stroke:#000000; stroke-width:3.2; stroke-opacity:1"/>
<line clip-path="url(#clip432)" x1="426.361" y1="1250.57" x2="410.361" y2="1250.57" style="stroke:#000000; stroke-width:3.2; stroke-opacity:1"/>
<line clip-path="url(#clip432)" x1="426.361" y1="1250.36" x2="410.361" y2="1250.36" style="stroke:#000000; stroke-width:3.2; stroke-opacity:1"/>
<line clip-path="url(#clip432)" x1="495.447" y1="561.321" x2="479.447" y2="561.321" style="stroke:#000000; stroke-width:3.2; stroke-opacity:1"/>
<line clip-path="url(#clip432)" x1="495.447" y1="561.301" x2="479.447" y2="561.301" style="stroke:#000000; stroke-width:3.2; stroke-opacity:1"/>
<line clip-path="url(#clip432)" x1="564.532" y1="1020.94" x2="548.532" y2="1020.94" style="stroke:#000000; stroke-width:3.2; stroke-opacity:1"/>
<line clip-path="url(#clip432)" x1="564.532" y1="1020.91" x2="548.532" y2="1020.91" style="stroke:#000000; stroke-width:3.2; stroke-opacity:1"/>
<line clip-path="url(#clip432)" x1="633.618" y1="592.826" x2="617.618" y2="592.826" style="stroke:#000000; stroke-width:3.2; stroke-opacity:1"/>
<line clip-path="url(#clip432)" x1="633.618" y1="592.787" x2="617.618" y2="592.787" style="stroke:#000000; stroke-width:3.2; stroke-opacity:1"/>
<line clip-path="url(#clip432)" x1="702.703" y1="975.574" x2="686.703" y2="975.574" style="stroke:#000000; stroke-width:3.2; stroke-opacity:1"/>
<line clip-path="url(#clip432)" x1="702.703" y1="975.424" x2="686.703" y2="975.424" style="stroke:#000000; stroke-width:3.2; stroke-opacity:1"/>
<line clip-path="url(#clip432)" x1="771.789" y1="592.56" x2="755.789" y2="592.56" style="stroke:#000000; stroke-width:3.2; stroke-opacity:1"/>
<line clip-path="url(#clip432)" x1="771.789" y1="592.498" x2="755.789" y2="592.498" style="stroke:#000000; stroke-width:3.2; stroke-opacity:1"/>
<line clip-path="url(#clip432)" x1="840.874" y1="965.799" x2="824.874" y2="965.799" style="stroke:#000000; stroke-width:3.2; stroke-opacity:1"/>
<line clip-path="url(#clip432)" x1="840.874" y1="965.77" x2="824.874" y2="965.77" style="stroke:#000000; stroke-width:3.2; stroke-opacity:1"/>
<line clip-path="url(#clip432)" x1="909.96" y1="591.493" x2="893.96" y2="591.493" style="stroke:#000000; stroke-width:3.2; stroke-opacity:1"/>
<line clip-path="url(#clip432)" x1="909.96" y1="591.371" x2="893.96" y2="591.371" style="stroke:#000000; stroke-width:3.2; stroke-opacity:1"/>
<line clip-path="url(#clip432)" x1="979.045" y1="963.659" x2="963.045" y2="963.659" style="stroke:#000000; stroke-width:3.2; stroke-opacity:1"/>
<line clip-path="url(#clip432)" x1="979.045" y1="963.579" x2="963.045" y2="963.579" style="stroke:#000000; stroke-width:3.2; stroke-opacity:1"/>
<line clip-path="url(#clip432)" x1="1048.13" y1="591.1" x2="1032.13" y2="591.1" style="stroke:#000000; stroke-width:3.2; stroke-opacity:1"/>
<line clip-path="url(#clip432)" x1="1048.13" y1="590.926" x2="1032.13" y2="590.926" style="stroke:#000000; stroke-width:3.2; stroke-opacity:1"/>
<line clip-path="url(#clip432)" x1="1117.22" y1="963.482" x2="1101.22" y2="963.482" style="stroke:#000000; stroke-width:3.2; stroke-opacity:1"/>
<line clip-path="url(#clip432)" x1="1117.22" y1="962.768" x2="1101.22" y2="962.768" style="stroke:#000000; stroke-width:3.2; stroke-opacity:1"/>
<line clip-path="url(#clip432)" x1="1186.3" y1="590.939" x2="1170.3" y2="590.939" style="stroke:#000000; stroke-width:3.2; stroke-opacity:1"/>
<line clip-path="url(#clip432)" x1="1186.3" y1="590.829" x2="1170.3" y2="590.829" style="stroke:#000000; stroke-width:3.2; stroke-opacity:1"/>
<line clip-path="url(#clip432)" x1="1255.39" y1="963.059" x2="1239.39" y2="963.059" style="stroke:#000000; stroke-width:3.2; stroke-opacity:1"/>
<line clip-path="url(#clip432)" x1="1255.39" y1="962.961" x2="1239.39" y2="962.961" style="stroke:#000000; stroke-width:3.2; stroke-opacity:1"/>
<line clip-path="url(#clip432)" x1="1324.47" y1="591.01" x2="1308.47" y2="591.01" style="stroke:#000000; stroke-width:3.2; stroke-opacity:1"/>
<line clip-path="url(#clip432)" x1="1324.47" y1="590.685" x2="1308.47" y2="590.685" style="stroke:#000000; stroke-width:3.2; stroke-opacity:1"/>
<line clip-path="url(#clip432)" x1="1393.56" y1="966.627" x2="1377.56" y2="966.627" style="stroke:#000000; stroke-width:3.2; stroke-opacity:1"/>
<line clip-path="url(#clip432)" x1="1393.56" y1="959.408" x2="1377.56" y2="959.408" style="stroke:#000000; stroke-width:3.2; stroke-opacity:1"/>
<line clip-path="url(#clip432)" x1="1462.64" y1="591.113" x2="1446.64" y2="591.113" style="stroke:#000000; stroke-width:3.2; stroke-opacity:1"/>
<line clip-path="url(#clip432)" x1="1462.64" y1="590.549" x2="1446.64" y2="590.549" style="stroke:#000000; stroke-width:3.2; stroke-opacity:1"/>
<line clip-path="url(#clip432)" x1="1531.73" y1="963.379" x2="1515.73" y2="963.379" style="stroke:#000000; stroke-width:3.2; stroke-opacity:1"/>
<line clip-path="url(#clip432)" x1="1531.73" y1="962.657" x2="1515.73" y2="962.657" style="stroke:#000000; stroke-width:3.2; stroke-opacity:1"/>
<line clip-path="url(#clip432)" x1="1600.82" y1="594.125" x2="1584.82" y2="594.125" style="stroke:#000000; stroke-width:3.2; stroke-opacity:1"/>
<line clip-path="url(#clip432)" x1="1600.82" y1="587.571" x2="1584.82" y2="587.571" style="stroke:#000000; stroke-width:3.2; stroke-opacity:1"/>
<line clip-path="url(#clip432)" x1="1669.9" y1="971.543" x2="1653.9" y2="971.543" style="stroke:#000000; stroke-width:3.2; stroke-opacity:1"/>
<line clip-path="url(#clip432)" x1="1669.9" y1="954.646" x2="1653.9" y2="954.646" style="stroke:#000000; stroke-width:3.2; stroke-opacity:1"/>
<line clip-path="url(#clip432)" x1="1738.99" y1="594.438" x2="1722.99" y2="594.438" style="stroke:#000000; stroke-width:3.2; stroke-opacity:1"/>
<line clip-path="url(#clip432)" x1="1738.99" y1="587.213" x2="1722.99" y2="587.213" style="stroke:#000000; stroke-width:3.2; stroke-opacity:1"/>
<line clip-path="url(#clip432)" x1="1808.07" y1="970.767" x2="1792.07" y2="970.767" style="stroke:#000000; stroke-width:3.2; stroke-opacity:1"/>
<line clip-path="url(#clip432)" x1="1808.07" y1="955.103" x2="1792.07" y2="955.103" style="stroke:#000000; stroke-width:3.2; stroke-opacity:1"/>
<line clip-path="url(#clip432)" x1="1877.16" y1="596.416" x2="1861.16" y2="596.416" style="stroke:#000000; stroke-width:3.2; stroke-opacity:1"/>
<line clip-path="url(#clip432)" x1="1877.16" y1="585.392" x2="1861.16" y2="585.392" style="stroke:#000000; stroke-width:3.2; stroke-opacity:1"/>
<line clip-path="url(#clip432)" x1="1946.24" y1="973.605" x2="1930.24" y2="973.605" style="stroke:#000000; stroke-width:3.2; stroke-opacity:1"/>
<line clip-path="url(#clip432)" x1="1946.24" y1="952.603" x2="1930.24" y2="952.603" style="stroke:#000000; stroke-width:3.2; stroke-opacity:1"/>
<line clip-path="url(#clip432)" x1="2015.33" y1="597.371" x2="1999.33" y2="597.371" style="stroke:#000000; stroke-width:3.2; stroke-opacity:1"/>
<line clip-path="url(#clip432)" x1="2015.33" y1="584.293" x2="1999.33" y2="584.293" style="stroke:#000000; stroke-width:3.2; stroke-opacity:1"/>
<line clip-path="url(#clip432)" x1="2084.41" y1="989.651" x2="2068.41" y2="989.651" style="stroke:#000000; stroke-width:3.2; stroke-opacity:1"/>
<line clip-path="url(#clip432)" x1="2084.41" y1="935.851" x2="2068.41" y2="935.851" style="stroke:#000000; stroke-width:3.2; stroke-opacity:1"/>
<line clip-path="url(#clip432)" x1="2153.5" y1="605.369" x2="2137.5" y2="605.369" style="stroke:#000000; stroke-width:3.2; stroke-opacity:1"/>
<line clip-path="url(#clip432)" x1="2153.5" y1="576.336" x2="2137.5" y2="576.336" style="stroke:#000000; stroke-width:3.2; stroke-opacity:1"/>
<circle clip-path="url(#clip432)" cx="349.276" cy="162.667" r="7.2" fill="#009af9" fill-rule="evenodd" fill-opacity="1" stroke="#000000" stroke-opacity="1" stroke-width="3.2"/>
<circle clip-path="url(#clip432)" cx="418.361" cy="1250.47" r="7.2" fill="#009af9" fill-rule="evenodd" fill-opacity="1" stroke="#000000" stroke-opacity="1" stroke-width="3.2"/>
<circle clip-path="url(#clip432)" cx="487.447" cy="561.311" r="7.2" fill="#009af9" fill-rule="evenodd" fill-opacity="1" stroke="#000000" stroke-opacity="1" stroke-width="3.2"/>
<circle clip-path="url(#clip432)" cx="556.532" cy="1020.93" r="7.2" fill="#009af9" fill-rule="evenodd" fill-opacity="1" stroke="#000000" stroke-opacity="1" stroke-width="3.2"/>
<circle clip-path="url(#clip432)" cx="625.618" cy="592.807" r="7.2" fill="#009af9" fill-rule="evenodd" fill-opacity="1" stroke="#000000" stroke-opacity="1" stroke-width="3.2"/>
<circle clip-path="url(#clip432)" cx="694.703" cy="975.499" r="7.2" fill="#009af9" fill-rule="evenodd" fill-opacity="1" stroke="#000000" stroke-opacity="1" stroke-width="3.2"/>
<circle clip-path="url(#clip432)" cx="763.789" cy="592.529" r="7.2" fill="#009af9" fill-rule="evenodd" fill-opacity="1" stroke="#000000" stroke-opacity="1" stroke-width="3.2"/>
<circle clip-path="url(#clip432)" cx="832.874" cy="965.785" r="7.2" fill="#009af9" fill-rule="evenodd" fill-opacity="1" stroke="#000000" stroke-opacity="1" stroke-width="3.2"/>
<circle clip-path="url(#clip432)" cx="901.96" cy="591.432" r="7.2" fill="#009af9" fill-rule="evenodd" fill-opacity="1" stroke="#000000" stroke-opacity="1" stroke-width="3.2"/>
<circle clip-path="url(#clip432)" cx="971.045" cy="963.619" r="7.2" fill="#009af9" fill-rule="evenodd" fill-opacity="1" stroke="#000000" stroke-opacity="1" stroke-width="3.2"/>
<circle clip-path="url(#clip432)" cx="1040.13" cy="591.013" r="7.2" fill="#009af9" fill-rule="evenodd" fill-opacity="1" stroke="#000000" stroke-opacity="1" stroke-width="3.2"/>
<circle clip-path="url(#clip432)" cx="1109.22" cy="963.125" r="7.2" fill="#009af9" fill-rule="evenodd" fill-opacity="1" stroke="#000000" stroke-opacity="1" stroke-width="3.2"/>
<circle clip-path="url(#clip432)" cx="1178.3" cy="590.884" r="7.2" fill="#009af9" fill-rule="evenodd" fill-opacity="1" stroke="#000000" stroke-opacity="1" stroke-width="3.2"/>
<circle clip-path="url(#clip432)" cx="1247.39" cy="963.01" r="7.2" fill="#009af9" fill-rule="evenodd" fill-opacity="1" stroke="#000000" stroke-opacity="1" stroke-width="3.2"/>
<circle clip-path="url(#clip432)" cx="1316.47" cy="590.847" r="7.2" fill="#009af9" fill-rule="evenodd" fill-opacity="1" stroke="#000000" stroke-opacity="1" stroke-width="3.2"/>
<circle clip-path="url(#clip432)" cx="1385.56" cy="963.018" r="7.2" fill="#009af9" fill-rule="evenodd" fill-opacity="1" stroke="#000000" stroke-opacity="1" stroke-width="3.2"/>
<circle clip-path="url(#clip432)" cx="1454.64" cy="590.831" r="7.2" fill="#009af9" fill-rule="evenodd" fill-opacity="1" stroke="#000000" stroke-opacity="1" stroke-width="3.2"/>
<circle clip-path="url(#clip432)" cx="1523.73" cy="963.018" r="7.2" fill="#009af9" fill-rule="evenodd" fill-opacity="1" stroke="#000000" stroke-opacity="1" stroke-width="3.2"/>
<circle clip-path="url(#clip432)" cx="1592.82" cy="590.848" r="7.2" fill="#009af9" fill-rule="evenodd" fill-opacity="1" stroke="#000000" stroke-opacity="1" stroke-width="3.2"/>
<circle clip-path="url(#clip432)" cx="1661.9" cy="963.095" r="7.2" fill="#009af9" fill-rule="evenodd" fill-opacity="1" stroke="#000000" stroke-opacity="1" stroke-width="3.2"/>
<circle clip-path="url(#clip432)" cx="1730.99" cy="590.825" r="7.2" fill="#009af9" fill-rule="evenodd" fill-opacity="1" stroke="#000000" stroke-opacity="1" stroke-width="3.2"/>
<circle clip-path="url(#clip432)" cx="1800.07" cy="962.935" r="7.2" fill="#009af9" fill-rule="evenodd" fill-opacity="1" stroke="#000000" stroke-opacity="1" stroke-width="3.2"/>
<circle clip-path="url(#clip432)" cx="1869.16" cy="590.904" r="7.2" fill="#009af9" fill-rule="evenodd" fill-opacity="1" stroke="#000000" stroke-opacity="1" stroke-width="3.2"/>
<circle clip-path="url(#clip432)" cx="1938.24" cy="963.104" r="7.2" fill="#009af9" fill-rule="evenodd" fill-opacity="1" stroke="#000000" stroke-opacity="1" stroke-width="3.2"/>
<circle clip-path="url(#clip432)" cx="2007.33" cy="590.832" r="7.2" fill="#009af9" fill-rule="evenodd" fill-opacity="1" stroke="#000000" stroke-opacity="1" stroke-width="3.2"/>
<circle clip-path="url(#clip432)" cx="2076.41" cy="962.751" r="7.2" fill="#009af9" fill-rule="evenodd" fill-opacity="1" stroke="#000000" stroke-opacity="1" stroke-width="3.2"/>
<circle clip-path="url(#clip432)" cx="2145.5" cy="590.853" r="7.2" fill="#009af9" fill-rule="evenodd" fill-opacity="1" stroke="#000000" stroke-opacity="1" stroke-width="3.2"/>
<path clip-path="url(#clip430)" d="
M1717.64 270.476 L2283.67 270.476 L2283.67 166.796 L1717.64 166.796  Z
  " fill="#ffffff" fill-rule="evenodd" fill-opacity="1"/>
<polyline clip-path="url(#clip430)" style="stroke:#000000; stroke-linecap:round; stroke-linejoin:round; stroke-width:4; stroke-opacity:1; fill:none" points="
  1717.64,270.476 2283.67,270.476 2283.67,166.796 1717.64,166.796 1717.64,270.476 
  "/>
<circle clip-path="url(#clip430)" cx="1809.76" cy="218.636" r="23.04" fill="#009af9" fill-rule="evenodd" fill-opacity="1" stroke="#000000" stroke-opacity="1" stroke-width="10.24"/>
<path clip-path="url(#clip430)" d="M1922.22 214.967 Q1923.81 212.096 1926.04 210.731 Q1928.26 209.365 1931.27 209.365 Q1935.32 209.365 1937.52 212.212 Q1939.72 215.036 1939.72 220.268 L1939.72 235.916 L1935.44 235.916 L1935.44 220.407 Q1935.44 216.68 1934.12 214.874 Q1932.8 213.069 1930.09 213.069 Q1926.78 213.069 1924.86 215.268 Q1922.94 217.467 1922.94 221.263 L1922.94 235.916 L1918.65 235.916 L1918.65 220.407 Q1918.65 216.657 1917.33 214.874 Q1916.01 213.069 1913.26 213.069 Q1910 213.069 1908.07 215.291 Q1906.15 217.49 1906.15 221.263 L1906.15 235.916 L1901.87 235.916 L1901.87 209.99 L1906.15 209.99 L1906.15 214.018 Q1907.61 211.633 1909.65 210.499 Q1911.69 209.365 1914.49 209.365 Q1917.31 209.365 1919.28 210.8 Q1921.27 212.235 1922.22 214.967 Z" fill="#000000" fill-rule="evenodd" fill-opacity="1" /><path clip-path="url(#clip430)" d="M1956.94 220.245 Q1955.78 218.254 1953.44 218.254 Q1951.11 218.254 1949.95 220.245 Q1948.77 222.235 1948.77 226.217 Q1948.77 230.221 1949.95 232.212 Q1951.11 234.203 1953.44 234.203 Q1955.78 234.203 1956.94 232.212 Q1958.12 230.221 1958.12 226.217 Q1958.12 222.235 1956.94 220.245 M1953.44 216.194 Q1957.17 216.194 1959.14 218.763 Q1961.11 221.332 1961.11 226.217 Q1961.11 231.124 1959.14 233.694 Q1957.17 236.263 1953.44 236.263 Q1949.69 236.263 1947.73 233.694 Q1945.76 231.124 1945.76 226.217 Q1945.76 221.332 1947.73 218.763 Q1949.69 216.194 1953.44 216.194 Z" fill="#000000" fill-rule="evenodd" fill-opacity="1" /><path clip-path="url(#clip430)" d="M1967.77 214.388 L1997.45 214.388 L1997.45 218.277 L1967.77 218.277 L1967.77 214.388 M1967.77 223.832 L1997.45 223.832 L1997.45 227.768 L1967.77 227.768 L1967.77 223.832 Z" fill="#000000" fill-rule="evenodd" fill-opacity="1" /><path clip-path="url(#clip430)" d="M2017.54 204.434 Q2013.93 204.434 2012.1 207.999 Q2010.3 211.541 2010.3 218.67 Q2010.3 225.777 2012.1 229.342 Q2013.93 232.883 2017.54 232.883 Q2021.18 232.883 2022.98 229.342 Q2024.81 225.777 2024.81 218.67 Q2024.81 211.541 2022.98 207.999 Q2021.18 204.434 2017.54 204.434 M2017.54 200.731 Q2023.35 200.731 2026.41 205.337 Q2029.49 209.92 2029.49 218.67 Q2029.49 227.397 2026.41 232.004 Q2023.35 236.587 2017.54 236.587 Q2011.73 236.587 2008.65 232.004 Q2005.6 227.397 2005.6 218.67 Q2005.6 209.92 2008.65 205.337 Q2011.73 200.731 2017.54 200.731 Z" fill="#000000" fill-rule="evenodd" fill-opacity="1" /><path clip-path="url(#clip430)" d="M2037.7 230.036 L2042.59 230.036 L2042.59 235.916 L2037.7 235.916 L2037.7 230.036 Z" fill="#000000" fill-rule="evenodd" fill-opacity="1" /><path clip-path="url(#clip430)" d="M2051.59 201.356 L2073.81 201.356 L2073.81 203.346 L2061.27 235.916 L2056.38 235.916 L2068.19 205.291 L2051.59 205.291 L2051.59 201.356 Z" fill="#000000" fill-rule="evenodd" fill-opacity="1" /><path clip-path="url(#clip430)" d="M2083.42 230.036 L2088.3 230.036 L2088.3 234.018 L2084.51 241.425 L2081.52 241.425 L2083.42 234.018 L2083.42 230.036 Z" fill="#000000" fill-rule="evenodd" fill-opacity="1" /><path clip-path="url(#clip430)" d="M2121.15 230.985 L2121.15 221.703 L2113.51 221.703 L2113.51 217.86 L2125.78 217.86 L2125.78 232.698 Q2123.07 234.619 2119.81 235.615 Q2116.55 236.587 2112.84 236.587 Q2104.74 236.587 2100.16 231.865 Q2095.6 227.119 2095.6 218.67 Q2095.6 210.198 2100.16 205.476 Q2104.74 200.731 2112.84 200.731 Q2116.22 200.731 2119.25 201.564 Q2122.31 202.397 2124.88 204.018 L2124.88 208.995 Q2122.29 206.796 2119.37 205.684 Q2116.45 204.573 2113.24 204.573 Q2106.89 204.573 2103.7 208.115 Q2100.53 211.657 2100.53 218.67 Q2100.53 225.661 2103.7 229.203 Q2106.89 232.744 2113.24 232.744 Q2115.71 232.744 2117.66 232.328 Q2119.6 231.888 2121.15 230.985 Z" fill="#000000" fill-rule="evenodd" fill-opacity="1" /><path clip-path="url(#clip430)" d="M2135.87 217.814 L2145.69 217.814 L2145.69 220.453 L2131.85 220.453 L2131.85 217.907 Q2132.63 217.189 2134.09 215.893 Q2142.05 208.833 2142.05 206.657 Q2142.05 205.129 2140.85 204.203 Q2139.65 203.254 2137.68 203.254 Q2136.48 203.254 2135.06 203.671 Q2133.65 204.064 2131.99 204.874 L2131.99 202.027 Q2133.77 201.379 2135.3 201.055 Q2136.85 200.731 2138.17 200.731 Q2141.52 200.731 2143.54 202.258 Q2145.55 203.786 2145.55 206.286 Q2145.55 209.504 2137.89 216.078 Q2136.59 217.189 2135.87 217.814 Z" fill="#000000" fill-rule="evenodd" fill-opacity="1" /><path clip-path="url(#clip430)" d="M2153.7 214.388 L2183.37 214.388 L2183.37 218.277 L2153.7 218.277 L2153.7 214.388 M2153.7 223.832 L2183.37 223.832 L2183.37 227.768 L2153.7 227.768 L2153.7 223.832 Z" fill="#000000" fill-rule="evenodd" fill-opacity="1" /><path clip-path="url(#clip430)" d="M2194.28 231.981 L2201.92 231.981 L2201.92 205.615 L2193.61 207.282 L2193.61 203.022 L2201.87 201.356 L2206.54 201.356 L2206.54 231.981 L2214.18 231.981 L2214.18 235.916 L2194.28 235.916 L2194.28 231.981 Z" fill="#000000" fill-rule="evenodd" fill-opacity="1" /><path clip-path="url(#clip430)" d="M2223.63 230.036 L2228.51 230.036 L2228.51 235.916 L2223.63 235.916 L2223.63 230.036 Z" fill="#000000" fill-rule="evenodd" fill-opacity="1" /><path clip-path="url(#clip430)" d="M2248.7 204.434 Q2245.09 204.434 2243.26 207.999 Q2241.45 211.541 2241.45 218.67 Q2241.45 225.777 2243.26 229.342 Q2245.09 232.883 2248.7 232.883 Q2252.33 232.883 2254.14 229.342 Q2255.97 225.777 2255.97 218.67 Q2255.97 211.541 2254.14 207.999 Q2252.33 204.434 2248.7 204.434 M2248.7 200.731 Q2254.51 200.731 2257.56 205.337 Q2260.64 209.92 2260.64 218.67 Q2260.64 227.397 2257.56 232.004 Q2254.51 236.587 2248.7 236.587 Q2242.89 236.587 2239.81 232.004 Q2236.75 227.397 2236.75 218.67 Q2236.75 209.92 2239.81 205.337 Q2242.89 200.731 2248.7 200.731 Z" fill="#000000" fill-rule="evenodd" fill-opacity="1" /></svg>
