<?xml version="1.0" encoding="utf-8"?>
<svg xmlns="http://www.w3.org/2000/svg" xmlns:xlink="http://www.w3.org/1999/xlink" width="300" height="300" viewBox="0 0 1200 1200">
<defs>
  <clipPath id="clip690">
    <rect x="0" y="0" width="1200" height="1200"/>
  </clipPath>
</defs>
<path clip-path="url(#clip690)" d="M0 1200 L1200 1200 L1200 0 L0 0  Z" fill="#ffffff" fill-rule="evenodd" fill-opacity="1"/>
<defs>
  <clipPath id="clip691">
    <rect x="240" y="120" width="841" height="841"/>
  </clipPath>
</defs>
<path clip-path="url(#clip690)" d="M178.799 1021.33 L1137.01 1021.33 L1137.01 166.672 L178.799 166.672  Z" fill="#ffffff" fill-rule="evenodd" fill-opacity="1"/>
<defs>
  <clipPath id="clip692">
    <rect x="178" y="166" width="959" height="856"/>
  </clipPath>
</defs>
<polyline clip-path="url(#clip692)" style="stroke:#000000; stroke-linecap:round; stroke-linejoin:round; stroke-width:2; stroke-opacity:0.1; fill:none" points="178.799,1021.33 178.799,166.672 "/>
<polyline clip-path="url(#clip692)" style="stroke:#000000; stroke-linecap:round; stroke-linejoin:round; stroke-width:2; stroke-opacity:0.1; fill:none" points="338.501,1021.33 338.501,166.672 "/>
<polyline clip-path="url(#clip692)" style="stroke:#000000; stroke-linecap:round; stroke-linejoin:round; stroke-width:2; stroke-opacity:0.1; fill:none" points="498.202,1021.33 498.202,166.672 "/>
<polyline clip-path="url(#clip692)" style="stroke:#000000; stroke-linecap:round; stroke-linejoin:round; stroke-width:2; stroke-opacity:0.1; fill:none" points="657.904,1021.33 657.904,166.672 "/>
<polyline clip-path="url(#clip692)" style="stroke:#000000; stroke-linecap:round; stroke-linejoin:round; stroke-width:2; stroke-opacity:0.1; fill:none" points="817.605,1021.33 817.605,166.672 "/>
<polyline clip-path="url(#clip692)" style="stroke:#000000; stroke-linecap:round; stroke-linejoin:round; stroke-width:2; stroke-opacity:0.1; fill:none" points="977.306,1021.33 977.306,166.672 "/>
<polyline clip-path="url(#clip692)" style="stroke:#000000; stroke-linecap:round; stroke-linejoin:round; stroke-width:2; stroke-opacity:0.1; fill:none" points="1137.01,1021.33 1137.01,166.672 "/>
<polyline clip-path="url(#clip690)" style="stroke:#000000; stroke-linecap:round; stroke-linejoin:round; stroke-width:4; stroke-opacity:1; fill:none" points="178.799,1021.33 1137.01,1021.33 "/>
<polyline clip-path="url(#clip690)" style="stroke:#000000; stroke-linecap:round; stroke-linejoin:round; stroke-width:4; stroke-opacity:1; fill:none" points="178.799,1021.33 178.799,1002.43 "/>
<polyline clip-path="url(#clip690)" style="stroke:#000000; stroke-linecap:round; stroke-linejoin:round; stroke-width:4; stroke-opacity:1; fill:none" points="338.501,1021.33 338.501,1002.43 "/>
<polyline clip-path="url(#clip690)" style="stroke:#000000; stroke-linecap:round; stroke-linejoin:round; stroke-width:4; stroke-opacity:1; fill:none" points="498.202,1021.33 498.202,1002.43 "/>
<polyline clip-path="url(#clip690)" style="stroke:#000000; stroke-linecap:round; stroke-linejoin:round; stroke-width:4; stroke-opacity:1; fill:none" points="657.904,1021.33 657.904,1002.43 "/>
<polyline clip-path="url(#clip690)" style="stroke:#000000; stroke-linecap:round; stroke-linejoin:round; stroke-width:4; stroke-opacity:1; fill:none" points="817.605,1021.33 817.605,1002.43 "/>
<polyline clip-path="url(#clip690)" style="stroke:#000000; stroke-linecap:round; stroke-linejoin:round; stroke-width:4; stroke-opacity:1; fill:none" points="977.306,1021.33 977.306,1002.43 "/>
<polyline clip-path="url(#clip690)" style="stroke:#000000; stroke-linecap:round; stroke-linejoin:round; stroke-width:4; stroke-opacity:1; fill:none" points="1137.01,1021.33 1137.01,1002.43 "/>
<path clip-path="url(#clip690)" d="M178.799 1042.65 Q175.188 1042.65 173.36 1046.21 Q171.554 1049.75 171.554 1056.88 Q171.554 1063.99 173.36 1067.55 Q175.188 1071.1 178.799 1071.1 Q182.434 1071.1 184.239 1067.55 Q186.068 1063.99 186.068 1056.88 Q186.068 1049.75 184.239 1046.21 Q182.434 1042.65 178.799 1042.65 M178.799 1038.94 Q184.61 1038.94 187.665 1043.55 Q190.744 1048.13 190.744 1056.88 Q190.744 1065.61 187.665 1070.22 Q184.61 1074.8 178.799 1074.8 Q172.989 1074.8 169.911 1070.22 Q166.855 1065.61 166.855 1056.88 Q166.855 1048.13 169.911 1043.55 Q172.989 1038.94 178.799 1038.94 Z" fill="#000000" fill-rule="nonzero" fill-opacity="1" /><path clip-path="url(#clip690)" d="M333.154 1070.19 L349.473 1070.19 L349.473 1074.13 L327.529 1074.13 L327.529 1070.19 Q330.191 1067.44 334.774 1062.81 Q339.38 1058.16 340.561 1056.81 Q342.806 1054.29 343.686 1052.55 Q344.589 1050.79 344.589 1049.1 Q344.589 1046.35 342.644 1044.61 Q340.723 1042.88 337.621 1042.88 Q335.422 1042.88 332.968 1043.64 Q330.538 1044.41 327.76 1045.96 L327.76 1041.23 Q330.584 1040.1 333.038 1039.52 Q335.492 1038.94 337.529 1038.94 Q342.899 1038.94 346.093 1041.63 Q349.288 1044.31 349.288 1048.8 Q349.288 1050.93 348.478 1052.85 Q347.691 1054.75 345.584 1057.35 Q345.005 1058.02 341.904 1061.23 Q338.802 1064.43 333.154 1070.19 Z" fill="#000000" fill-rule="nonzero" fill-opacity="1" /><path clip-path="url(#clip690)" d="M501.211 1043.64 L489.406 1062.09 L501.211 1062.09 L501.211 1043.64 M499.985 1039.57 L505.864 1039.57 L505.864 1062.09 L510.795 1062.09 L510.795 1065.98 L505.864 1065.98 L505.864 1074.13 L501.211 1074.13 L501.211 1065.98 L485.61 1065.98 L485.61 1061.47 L499.985 1039.57 Z" fill="#000000" fill-rule="nonzero" fill-opacity="1" /><path clip-path="url(#clip690)" d="M658.309 1054.98 Q655.161 1054.98 653.309 1057.14 Q651.48 1059.29 651.48 1063.04 Q651.48 1066.77 653.309 1068.94 Q655.161 1071.1 658.309 1071.1 Q661.457 1071.1 663.286 1068.94 Q665.137 1066.77 665.137 1063.04 Q665.137 1059.29 663.286 1057.14 Q661.457 1054.98 658.309 1054.98 M667.591 1040.33 L667.591 1044.59 Q665.832 1043.76 664.026 1043.32 Q662.244 1042.88 660.485 1042.88 Q655.855 1042.88 653.401 1046 Q650.971 1049.13 650.624 1055.45 Q651.989 1053.43 654.05 1052.37 Q656.11 1051.28 658.587 1051.28 Q663.795 1051.28 666.804 1054.45 Q669.836 1057.6 669.836 1063.04 Q669.836 1068.36 666.688 1071.58 Q663.54 1074.8 658.309 1074.8 Q652.313 1074.8 649.142 1070.22 Q645.971 1065.61 645.971 1056.88 Q645.971 1048.69 649.86 1043.83 Q653.749 1038.94 660.299 1038.94 Q662.059 1038.94 663.841 1039.29 Q665.647 1039.64 667.591 1040.33 Z" fill="#000000" fill-rule="nonzero" fill-opacity="1" /><path clip-path="url(#clip690)" d="M817.605 1057.72 Q814.272 1057.72 812.35 1059.5 Q810.452 1061.28 810.452 1064.41 Q810.452 1067.53 812.35 1069.31 Q814.272 1071.1 817.605 1071.1 Q820.938 1071.1 822.86 1069.31 Q824.781 1067.51 824.781 1064.41 Q824.781 1061.28 822.86 1059.5 Q820.962 1057.72 817.605 1057.72 M812.929 1055.73 Q809.92 1054.98 808.23 1052.92 Q806.563 1050.86 806.563 1047.9 Q806.563 1043.76 809.503 1041.35 Q812.466 1038.94 817.605 1038.94 Q822.767 1038.94 825.707 1041.35 Q828.647 1043.76 828.647 1047.9 Q828.647 1050.86 826.957 1052.92 Q825.29 1054.98 822.304 1055.73 Q825.684 1056.51 827.559 1058.8 Q829.457 1061.1 829.457 1064.41 Q829.457 1069.43 826.378 1072.11 Q823.323 1074.8 817.605 1074.8 Q811.888 1074.8 808.809 1072.11 Q805.753 1069.43 805.753 1064.41 Q805.753 1061.1 807.651 1058.8 Q809.55 1056.51 812.929 1055.73 M811.216 1048.34 Q811.216 1051.03 812.883 1052.53 Q814.573 1054.04 817.605 1054.04 Q820.614 1054.04 822.304 1052.53 Q824.017 1051.03 824.017 1048.34 Q824.017 1045.66 822.304 1044.15 Q820.614 1042.65 817.605 1042.65 Q814.573 1042.65 812.883 1044.15 Q811.216 1045.66 811.216 1048.34 Z" fill="#000000" fill-rule="nonzero" fill-opacity="1" /><path clip-path="url(#clip690)" d="M951.994 1070.19 L959.633 1070.19 L959.633 1043.83 L951.323 1045.49 L951.323 1041.23 L959.587 1039.57 L964.263 1039.57 L964.263 1070.19 L971.901 1070.19 L971.901 1074.13 L951.994 1074.13 L951.994 1070.19 Z" fill="#000000" fill-rule="nonzero" fill-opacity="1" /><path clip-path="url(#clip690)" d="M991.346 1042.65 Q987.735 1042.65 985.906 1046.21 Q984.1 1049.75 984.1 1056.88 Q984.1 1063.99 985.906 1067.55 Q987.735 1071.1 991.346 1071.1 Q994.98 1071.1 996.786 1067.55 Q998.614 1063.99 998.614 1056.88 Q998.614 1049.75 996.786 1046.21 Q994.98 1042.65 991.346 1042.65 M991.346 1038.94 Q997.156 1038.94 1000.21 1043.55 Q1003.29 1048.13 1003.29 1056.88 Q1003.29 1065.61 1000.21 1070.22 Q997.156 1074.8 991.346 1074.8 Q985.536 1074.8 982.457 1070.22 Q979.401 1065.61 979.401 1056.88 Q979.401 1048.13 982.457 1043.55 Q985.536 1038.94 991.346 1038.94 Z" fill="#000000" fill-rule="nonzero" fill-opacity="1" /><path clip-path="url(#clip690)" d="M1112.49 1070.19 L1120.13 1070.19 L1120.13 1043.83 L1111.82 1045.49 L1111.82 1041.23 L1120.09 1039.57 L1124.76 1039.57 L1124.76 1070.19 L1132.4 1070.19 L1132.4 1074.13 L1112.49 1074.13 L1112.49 1070.19 Z" fill="#000000" fill-rule="nonzero" fill-opacity="1" /><path clip-path="url(#clip690)" d="M1145.87 1070.19 L1162.19 1070.19 L1162.19 1074.13 L1140.25 1074.13 L1140.25 1070.19 Q1142.91 1067.44 1147.49 1062.81 Q1152.1 1058.16 1153.28 1056.81 Q1155.53 1054.29 1156.41 1052.55 Q1157.31 1050.79 1157.31 1049.1 Q1157.31 1046.35 1155.36 1044.61 Q1153.44 1042.88 1150.34 1042.88 Q1148.14 1042.88 1145.69 1043.64 Q1143.26 1044.41 1140.48 1045.96 L1140.48 1041.23 Q1143.3 1040.1 1145.76 1039.52 Q1148.21 1038.94 1150.25 1038.94 Q1155.62 1038.94 1158.81 1041.63 Q1162.01 1044.31 1162.01 1048.8 Q1162.01 1050.93 1161.2 1052.85 Q1160.41 1054.75 1158.3 1057.35 Q1157.73 1058.02 1154.62 1061.23 Q1151.52 1064.43 1145.87 1070.19 Z" fill="#000000" fill-rule="nonzero" fill-opacity="1" /><path clip-path="url(#clip690)" d="M501.359 1121.49 L501.359 1119.93 Q503.187 1119.93 504.348 1119.58 Q505.509 1119.21 505.929 1118.55 Q506.349 1117.85 506.448 1117.41 Q506.572 1116.94 506.572 1116.17 L506.572 1089.77 Q506.572 1089.05 506.374 1088.88 Q506.201 1088.7 505.337 1088.61 Q503.83 1088.51 502.817 1088.51 L501.359 1088.51 L501.359 1086.93 L509.956 1086.93 Q510.672 1086.93 510.87 1087.02 Q511.068 1087.12 511.414 1087.59 L529.274 1113.85 L529.274 1092.24 Q529.274 1091.47 529.175 1091.03 Q529.076 1090.58 528.632 1089.89 Q528.212 1089.2 527.051 1088.85 Q525.89 1088.51 524.062 1088.51 L524.062 1086.93 Q529.373 1087.07 529.966 1087.07 Q530.583 1087.07 535.895 1086.93 L535.895 1088.51 Q534.067 1088.51 532.905 1088.85 Q531.744 1089.2 531.324 1089.89 Q530.905 1090.58 530.781 1091.05 Q530.682 1091.5 530.682 1092.24 L530.682 1120.18 Q530.682 1120.99 530.583 1121.24 Q530.485 1121.49 529.99 1121.49 Q529.645 1121.49 529.126 1120.82 L508.474 1090.48 Q508.276 1090.19 507.98 1089.87 L507.98 1116.17 Q507.98 1116.94 508.079 1117.41 Q508.177 1117.85 508.597 1118.55 Q509.042 1119.21 510.203 1119.58 Q511.364 1119.93 513.192 1119.93 L513.192 1121.49 Q507.881 1121.34 507.263 1121.34 Q506.671 1121.34 501.359 1121.49 Z" fill="#000000" fill-rule="nonzero" fill-opacity="1" /><path clip-path="url(#clip690)" d="M539.254 1101.25 L539.254 1099.67 L546.69 1099.13 L546.69 1115.93 Q546.69 1117.14 546.789 1117.85 Q546.888 1118.55 547.283 1119.36 Q547.703 1120.18 548.642 1120.55 Q549.605 1120.92 551.137 1120.92 Q553.879 1120.92 555.558 1118.67 Q557.263 1116.42 557.263 1113.09 L557.263 1104.07 Q557.263 1102.19 556.596 1101.72 Q555.929 1101.25 553.31 1101.25 L553.31 1099.67 L560.746 1099.13 L560.746 1117.09 Q560.746 1118.97 561.388 1119.46 Q562.055 1119.93 564.699 1119.93 L564.699 1121.49 L557.411 1122.05 L557.411 1117.48 Q555.287 1122.03 550.89 1122.05 Q548.666 1122.05 547.135 1121.49 Q545.628 1120.92 544.862 1120.23 Q544.096 1119.51 543.676 1118.15 Q543.281 1116.79 543.231 1115.95 Q543.182 1115.11 543.182 1113.48 L543.182 1105.9 Q543.182 1102.46 542.688 1101.87 Q542.194 1101.25 539.254 1101.25 Z" fill="#000000" fill-rule="nonzero" fill-opacity="1" /><path clip-path="url(#clip690)" d="M567.317 1121.49 L567.317 1119.93 Q570.01 1119.93 570.628 1119.61 Q571.245 1119.26 571.245 1117.63 L571.245 1104.07 Q571.245 1102.19 570.578 1101.72 Q569.936 1101.25 567.317 1101.25 L567.317 1099.67 L574.432 1099.13 L574.432 1104.44 Q576.803 1099.13 581.917 1099.13 Q587.846 1099.13 588.661 1104.07 Q589.526 1102.14 591.329 1100.64 Q593.157 1099.13 595.998 1099.13 Q599.802 1099.13 601.309 1101.01 Q602.421 1102.27 602.643 1103.67 Q602.865 1105.08 602.865 1108.74 L602.865 1118.4 Q602.915 1119.46 603.73 1119.71 Q604.545 1119.93 606.818 1119.93 L606.818 1121.49 Q601.655 1121.34 601.161 1121.34 Q600.766 1121.34 595.43 1121.49 L595.43 1119.93 Q598.122 1119.93 598.74 1119.61 Q599.382 1119.26 599.382 1117.63 L599.382 1105.85 Q599.382 1103.28 598.592 1101.77 Q597.801 1100.24 595.627 1100.24 Q593.009 1100.24 590.909 1102.44 Q588.809 1104.64 588.809 1108.34 L588.809 1117.63 Q588.809 1119.26 589.427 1119.61 Q590.069 1119.93 592.762 1119.93 L592.762 1121.49 Q587.599 1121.34 587.08 1121.34 Q586.685 1121.34 581.373 1121.49 L581.373 1119.93 Q584.066 1119.93 584.684 1119.61 Q585.326 1119.26 585.326 1117.63 L585.326 1105.85 Q585.326 1103.28 584.536 1101.77 Q583.745 1100.24 581.571 1100.24 Q578.953 1100.24 576.853 1102.44 Q574.753 1104.64 574.753 1108.34 L574.753 1117.63 Q574.753 1119.26 575.371 1119.61 Q576.013 1119.93 578.681 1119.93 L578.681 1121.49 Q573.518 1121.34 573.024 1121.34 Q572.628 1121.34 567.317 1121.49 Z" fill="#000000" fill-rule="nonzero" fill-opacity="1" /><path clip-path="url(#clip690)" d="M607.806 1088.51 L607.806 1086.93 L615.094 1086.38 L615.094 1102.41 Q618.033 1099.13 622.035 1099.13 Q626.383 1099.13 629.57 1102.46 Q632.756 1105.8 632.756 1110.57 Q632.756 1115.38 629.422 1118.72 Q626.087 1122.05 621.467 1122.05 Q617.267 1122.05 614.847 1118.35 Q613.068 1121.44 613.018 1121.49 L611.759 1121.49 L611.759 1091.32 Q611.759 1089.45 611.092 1088.98 Q610.425 1088.51 607.806 1088.51 M615.242 1115.73 Q615.242 1116.79 615.958 1117.85 Q617.959 1120.92 621.22 1120.92 Q621.245 1120.92 621.269 1120.92 Q624.802 1120.92 627.001 1117.68 Q628.557 1115.26 628.557 1110.52 Q628.557 1105.82 627.099 1103.48 Q625.074 1100.24 621.788 1100.24 Q618.083 1100.24 615.81 1103.48 Q615.242 1104.29 615.242 1105.31 L615.242 1115.73 Z" fill="#000000" fill-rule="nonzero" fill-opacity="1" /><path clip-path="url(#clip690)" d="M637.277 1110.34 Q637.277 1105.58 640.34 1102.19 Q643.404 1098.81 647.801 1098.81 Q652.247 1098.81 654.545 1101.7 Q656.867 1104.59 656.867 1108.74 Q656.867 1109.5 656.669 1109.65 Q656.472 1109.8 655.607 1109.8 L641.477 1109.8 Q641.477 1114.96 643.008 1117.39 Q645.133 1120.77 648.715 1120.77 Q649.209 1120.77 649.802 1120.67 Q650.395 1120.57 651.605 1120.15 Q652.816 1119.71 653.878 1118.55 Q654.94 1117.39 655.558 1115.56 Q655.706 1114.84 656.2 1114.87 Q656.867 1114.87 656.867 1115.46 Q656.867 1115.9 656.373 1116.92 Q655.904 1117.9 654.989 1119.09 Q654.075 1120.28 652.297 1121.16 Q650.543 1122.05 648.418 1122.05 Q643.972 1122.05 640.612 1118.69 Q637.277 1115.31 637.277 1110.34 M641.526 1108.74 L653.532 1108.74 Q653.532 1107.68 653.334 1106.49 Q653.161 1105.31 652.618 1103.67 Q652.099 1102.02 650.864 1100.98 Q649.629 1099.94 647.801 1099.94 Q646.986 1099.94 646.096 1100.29 Q645.232 1100.64 644.169 1101.48 Q643.107 1102.32 642.366 1104.22 Q641.625 1106.12 641.526 1108.74 Z" fill="#000000" fill-rule="nonzero" fill-opacity="1" /><path clip-path="url(#clip690)" d="M659.733 1121.49 L659.733 1119.93 Q662.425 1119.93 663.043 1119.61 Q663.685 1119.26 663.685 1117.63 L663.685 1104.07 Q663.685 1102.19 663.018 1101.72 Q662.376 1101.25 659.733 1101.25 L659.733 1099.67 L666.773 1099.13 L666.773 1104.69 Q667.489 1102.51 668.996 1100.83 Q670.528 1099.13 672.998 1099.13 Q674.629 1099.13 675.666 1100.04 Q676.728 1100.96 676.728 1102.22 Q676.728 1103.33 676.037 1103.9 Q675.37 1104.44 674.555 1104.44 Q673.641 1104.44 672.998 1103.87 Q672.381 1103.28 672.381 1102.27 Q672.381 1101.65 672.652 1101.18 Q672.949 1100.69 673.171 1100.51 Q673.393 1100.34 673.542 1100.29 Q673.443 1100.24 672.998 1100.24 Q670.207 1100.24 668.601 1103.03 Q667.02 1105.8 667.02 1109.75 L667.02 1117.53 Q667.02 1118.99 667.613 1119.46 Q668.23 1119.93 670.874 1119.93 L671.936 1119.93 L671.936 1121.49 Q669.91 1121.34 665.513 1121.34 Q664.896 1121.34 663.932 1121.36 Q662.969 1121.39 661.709 1121.44 Q660.449 1121.49 659.733 1121.49 Z" fill="#000000" fill-rule="nonzero" fill-opacity="1" /><path clip-path="url(#clip690)" d="M699.653 1118.77 Q696.318 1115.46 696.318 1110.67 Q696.318 1105.85 699.579 1102.34 Q702.865 1098.81 707.558 1098.81 Q712.153 1098.81 715.439 1102.32 Q718.749 1105.8 718.749 1110.67 Q718.749 1115.43 715.414 1118.74 Q712.104 1122.05 707.509 1122.05 Q703.013 1122.05 699.653 1118.77 M700.518 1110.25 Q700.518 1115.16 701.802 1117.39 Q703.779 1120.77 707.558 1120.77 Q709.436 1120.77 710.992 1119.76 Q712.573 1118.74 713.438 1117.04 Q714.549 1114.82 714.549 1110.25 Q714.549 1105.38 713.215 1103.23 Q711.239 1099.94 707.509 1099.94 Q705.878 1099.94 704.273 1100.81 Q702.692 1101.65 701.728 1103.33 Q700.518 1105.55 700.518 1110.25 Z" fill="#000000" fill-rule="nonzero" fill-opacity="1" /><path clip-path="url(#clip690)" d="M721.886 1101.25 L721.886 1099.67 L725.863 1099.67 L725.863 1093.87 Q725.863 1090.11 728.284 1087.96 Q730.73 1085.81 733.719 1085.81 Q735.695 1085.81 736.98 1086.88 Q738.265 1087.94 738.265 1089.37 Q738.265 1090.33 737.672 1090.98 Q737.103 1091.59 736.041 1091.59 Q735.028 1091.59 734.435 1090.95 Q733.867 1090.31 733.867 1089.42 Q733.867 1087.79 735.374 1087.3 Q734.608 1086.95 733.719 1086.93 Q731.891 1086.93 730.458 1088.8 Q729.05 1090.68 729.05 1093.82 L729.05 1099.67 L734.979 1099.67 L734.979 1101.25 L729.223 1101.25 L729.223 1117.53 Q729.223 1118.99 729.816 1119.46 Q730.434 1119.93 733.052 1119.93 L734.114 1119.93 L734.114 1121.49 Q732.089 1121.34 727.691 1121.34 Q727.074 1121.34 726.11 1121.36 Q725.172 1121.39 723.887 1121.44 Q722.627 1121.49 721.936 1121.49 L721.936 1119.93 Q724.628 1119.93 725.246 1119.61 Q725.863 1119.26 725.863 1117.63 L725.863 1101.25 L721.886 1101.25 Z" fill="#000000" fill-rule="nonzero" fill-opacity="1" /><path clip-path="url(#clip690)" d="M791.318 1089.26 Q791.318 1089.94 791.014 1090.08 Q790.732 1090.22 789.702 1090.22 Q787.945 1090.22 787.149 1090.45 Q786.376 1090.66 786.142 1091.04 Q785.931 1091.39 785.673 1092.42 L779.185 1118.32 Q779.185 1118.35 779.115 1118.68 Q779.045 1118.98 779.045 1119.14 Q779.045 1119.45 779.232 1119.64 Q779.443 1119.82 779.958 1119.92 Q780.473 1119.99 780.872 1120.01 Q781.293 1120.01 782.16 1120.01 Q783.237 1120.01 783.401 1120.2 Q783.495 1120.31 783.495 1120.53 Q783.495 1120.97 783.308 1121.2 Q783.144 1121.42 782.98 1121.46 Q782.839 1121.49 782.558 1121.49 Q782.066 1121.49 781.012 1121.44 Q779.958 1121.39 779.419 1121.39 L776.351 1121.35 L770.261 1121.49 Q769.605 1121.49 769.605 1120.95 Q769.605 1120.48 769.769 1120.27 Q769.933 1120.06 770.097 1120.03 Q770.285 1120.01 770.753 1120.01 Q773.166 1120.01 773.962 1119.78 Q774.782 1119.52 775.11 1118.42 L778.412 1105.18 L763.797 1105.18 L760.517 1118.32 Q760.517 1118.35 760.447 1118.68 Q760.377 1118.98 760.377 1119.14 Q760.377 1119.45 760.564 1119.64 Q760.775 1119.82 761.29 1119.92 Q761.806 1119.99 762.204 1120.01 Q762.626 1120.01 763.492 1120.01 Q764.57 1120.01 764.757 1120.2 Q764.851 1120.31 764.851 1120.53 Q764.851 1120.85 764.757 1121.09 Q764.687 1121.3 764.499 1121.37 Q764.335 1121.44 764.218 1121.46 Q764.101 1121.49 763.89 1121.49 Q763.398 1121.49 762.344 1121.44 Q761.314 1121.39 760.775 1121.39 L757.707 1121.35 L751.617 1121.49 Q750.938 1121.49 750.938 1120.95 Q750.938 1120.48 751.102 1120.29 Q751.266 1120.08 751.476 1120.06 Q751.687 1120.01 752.226 1120.01 Q753.397 1120.01 754.1 1119.94 Q754.802 1119.87 755.247 1119.78 Q755.716 1119.66 755.95 1119.33 Q756.208 1119 756.325 1118.72 Q756.442 1118.42 756.606 1117.74 L763.024 1091.97 Q763.211 1091.2 763.211 1091.08 Q763.211 1090.64 762.93 1090.52 Q762.672 1090.38 761.923 1090.31 L760.096 1090.22 Q759.534 1090.22 759.3 1090.19 Q759.089 1090.17 758.925 1090.05 Q758.761 1089.94 758.761 1089.68 Q758.761 1089.35 758.831 1089.14 Q758.925 1088.91 759.089 1088.84 Q759.253 1088.76 759.37 1088.74 Q759.487 1088.72 759.674 1088.72 L765.858 1088.86 L771.994 1088.72 Q772.674 1088.72 772.674 1089.26 Q772.674 1089.94 772.369 1090.08 Q772.065 1090.22 771.034 1090.22 Q769.324 1090.22 768.528 1090.45 Q767.732 1090.66 767.474 1091.04 Q767.24 1091.41 767.005 1092.42 L764.171 1103.68 L778.81 1103.68 L781.691 1091.97 Q781.879 1091.13 781.879 1091.08 Q781.879 1090.64 781.598 1090.52 Q781.34 1090.38 780.591 1090.31 L778.764 1090.22 Q778.201 1090.22 777.967 1090.19 Q777.756 1090.17 777.569 1090.05 Q777.405 1089.94 777.405 1089.68 Q777.405 1089.35 777.475 1089.14 Q777.569 1088.91 777.733 1088.84 Q777.897 1088.76 778.014 1088.74 Q778.131 1088.72 778.319 1088.72 L784.502 1088.86 L790.662 1088.72 Q791.318 1088.72 791.318 1089.26 Z" fill="#000000" fill-rule="nonzero" fill-opacity="1" /><path clip-path="url(#clip690)" d="M796.05 1134.77 Q796.05 1134.17 796.099 1133.99 Q796.165 1133.81 796.427 1133.53 L802.871 1126.35 Q806.396 1122.38 806.396 1118.92 Q806.396 1116.67 805.215 1115.07 Q804.051 1113.46 801.903 1113.46 Q800.428 1113.46 799.181 1114.36 Q797.935 1115.26 797.362 1116.87 Q797.46 1116.84 797.804 1116.84 Q798.64 1116.84 799.099 1117.36 Q799.575 1117.89 799.575 1118.59 Q799.575 1119.49 798.985 1119.94 Q798.411 1120.36 797.837 1120.36 Q797.607 1120.36 797.296 1120.31 Q797.001 1120.26 796.525 1119.81 Q796.05 1119.33 796.05 1118.49 Q796.05 1116.15 797.821 1114.28 Q799.608 1112.41 802.329 1112.41 Q805.412 1112.41 807.429 1114.25 Q809.462 1116.07 809.462 1118.92 Q809.462 1119.92 809.15 1120.84 Q808.855 1121.74 808.445 1122.45 Q808.052 1123.15 806.969 1124.28 Q805.887 1125.41 805.018 1126.22 Q804.149 1127.02 802.198 1128.72 L798.64 1132.18 L804.69 1132.18 Q807.642 1132.18 807.871 1131.92 Q808.199 1131.45 808.609 1128.94 L809.462 1128.94 L808.511 1134.77 L796.05 1134.77 Z" fill="#000000" fill-rule="nonzero" fill-opacity="1" /><polyline clip-path="url(#clip692)" style="stroke:#000000; stroke-linecap:round; stroke-linejoin:round; stroke-width:2; stroke-opacity:0.1; fill:none" points="178.799,987.68 1137.01,987.68 "/>
<polyline clip-path="url(#clip692)" style="stroke:#000000; stroke-linecap:round; stroke-linejoin:round; stroke-width:2; stroke-opacity:0.1; fill:none" points="178.799,933.843 1137.01,933.843 "/>
<polyline clip-path="url(#clip692)" style="stroke:#000000; stroke-linecap:round; stroke-linejoin:round; stroke-width:2; stroke-opacity:0.1; fill:none" points="178.799,880.007 1137.01,880.007 "/>
<polyline clip-path="url(#clip692)" style="stroke:#000000; stroke-linecap:round; stroke-linejoin:round; stroke-width:2; stroke-opacity:0.1; fill:none" points="178.799,826.17 1137.01,826.17 "/>
<polyline clip-path="url(#clip692)" style="stroke:#000000; stroke-linecap:round; stroke-linejoin:round; stroke-width:2; stroke-opacity:0.1; fill:none" points="178.799,772.334 1137.01,772.334 "/>
<polyline clip-path="url(#clip692)" style="stroke:#000000; stroke-linecap:round; stroke-linejoin:round; stroke-width:2; stroke-opacity:0.1; fill:none" points="178.799,718.497 1137.01,718.497 "/>
<polyline clip-path="url(#clip692)" style="stroke:#000000; stroke-linecap:round; stroke-linejoin:round; stroke-width:2; stroke-opacity:0.1; fill:none" points="178.799,664.661 1137.01,664.661 "/>
<polyline clip-path="url(#clip692)" style="stroke:#000000; stroke-linecap:round; stroke-linejoin:round; stroke-width:2; stroke-opacity:0.1; fill:none" points="178.799,610.824 1137.01,610.824 "/>
<polyline clip-path="url(#clip692)" style="stroke:#000000; stroke-linecap:round; stroke-linejoin:round; stroke-width:2; stroke-opacity:0.1; fill:none" points="178.799,556.987 1137.01,556.987 "/>
<polyline clip-path="url(#clip692)" style="stroke:#000000; stroke-linecap:round; stroke-linejoin:round; stroke-width:2; stroke-opacity:0.1; fill:none" points="178.799,503.151 1137.01,503.151 "/>
<polyline clip-path="url(#clip692)" style="stroke:#000000; stroke-linecap:round; stroke-linejoin:round; stroke-width:2; stroke-opacity:0.1; fill:none" points="178.799,449.314 1137.01,449.314 "/>
<polyline clip-path="url(#clip692)" style="stroke:#000000; stroke-linecap:round; stroke-linejoin:round; stroke-width:2; stroke-opacity:0.1; fill:none" points="178.799,395.478 1137.01,395.478 "/>
<polyline clip-path="url(#clip692)" style="stroke:#000000; stroke-linecap:round; stroke-linejoin:round; stroke-width:2; stroke-opacity:0.1; fill:none" points="178.799,341.641 1137.01,341.641 "/>
<polyline clip-path="url(#clip692)" style="stroke:#000000; stroke-linecap:round; stroke-linejoin:round; stroke-width:2; stroke-opacity:0.1; fill:none" points="178.799,287.804 1137.01,287.804 "/>
<polyline clip-path="url(#clip692)" style="stroke:#000000; stroke-linecap:round; stroke-linejoin:round; stroke-width:2; stroke-opacity:0.1; fill:none" points="178.799,233.968 1137.01,233.968 "/>
<polyline clip-path="url(#clip692)" style="stroke:#000000; stroke-linecap:round; stroke-linejoin:round; stroke-width:2; stroke-opacity:0.1; fill:none" points="178.799,180.131 1137.01,180.131 "/>
<polyline clip-path="url(#clip690)" style="stroke:#000000; stroke-linecap:round; stroke-linejoin:round; stroke-width:4; stroke-opacity:1; fill:none" points="178.799,1021.33 178.799,166.672 "/>
<polyline clip-path="url(#clip690)" style="stroke:#000000; stroke-linecap:round; stroke-linejoin:round; stroke-width:4; stroke-opacity:1; fill:none" points="178.799,987.68 197.697,987.68 "/>
<polyline clip-path="url(#clip690)" style="stroke:#000000; stroke-linecap:round; stroke-linejoin:round; stroke-width:4; stroke-opacity:1; fill:none" points="178.799,933.843 197.697,933.843 "/>
<polyline clip-path="url(#clip690)" style="stroke:#000000; stroke-linecap:round; stroke-linejoin:round; stroke-width:4; stroke-opacity:1; fill:none" points="178.799,880.007 197.697,880.007 "/>
<polyline clip-path="url(#clip690)" style="stroke:#000000; stroke-linecap:round; stroke-linejoin:round; stroke-width:4; stroke-opacity:1; fill:none" points="178.799,826.17 197.697,826.17 "/>
<polyline clip-path="url(#clip690)" style="stroke:#000000; stroke-linecap:round; stroke-linejoin:round; stroke-width:4; stroke-opacity:1; fill:none" points="178.799,772.334 197.697,772.334 "/>
<polyline clip-path="url(#clip690)" style="stroke:#000000; stroke-linecap:round; stroke-linejoin:round; stroke-width:4; stroke-opacity:1; fill:none" points="178.799,718.497 197.697,718.497 "/>
<polyline clip-path="url(#clip690)" style="stroke:#000000; stroke-linecap:round; stroke-linejoin:round; stroke-width:4; stroke-opacity:1; fill:none" points="178.799,664.661 197.697,664.661 "/>
<polyline clip-path="url(#clip690)" style="stroke:#000000; stroke-linecap:round; stroke-linejoin:round; stroke-width:4; stroke-opacity:1; fill:none" points="178.799,610.824 197.697,610.824 "/>
<polyline clip-path="url(#clip690)" style="stroke:#000000; stroke-linecap:round; stroke-linejoin:round; stroke-width:4; stroke-opacity:1; fill:none" points="178.799,556.987 197.697,556.987 "/>
<polyline clip-path="url(#clip690)" style="stroke:#000000; stroke-linecap:round; stroke-linejoin:round; stroke-width:4; stroke-opacity:1; fill:none" points="178.799,503.151 197.697,503.151 "/>
<polyline clip-path="url(#clip690)" style="stroke:#000000; stroke-linecap:round; stroke-linejoin:round; stroke-width:4; stroke-opacity:1; fill:none" points="178.799,449.314 197.697,449.314 "/>
<polyline clip-path="url(#clip690)" style="stroke:#000000; stroke-linecap:round; stroke-linejoin:round; stroke-width:4; stroke-opacity:1; fill:none" points="178.799,395.478 197.697,395.478 "/>
<polyline clip-path="url(#clip690)" style="stroke:#000000; stroke-linecap:round; stroke-linejoin:round; stroke-width:4; stroke-opacity:1; fill:none" points="178.799,341.641 197.697,341.641 "/>
<polyline clip-path="url(#clip690)" style="stroke:#000000; stroke-linecap:round; stroke-linejoin:round; stroke-width:4; stroke-opacity:1; fill:none" points="178.799,287.804 197.697,287.804 "/>
<polyline clip-path="url(#clip690)" style="stroke:#000000; stroke-linecap:round; stroke-linejoin:round; stroke-width:4; stroke-opacity:1; fill:none" points="178.799,233.968 197.697,233.968 "/>
<polyline clip-path="url(#clip690)" style="stroke:#000000; stroke-linecap:round; stroke-linejoin:round; stroke-width:4; stroke-opacity:1; fill:none" points="178.799,180.131 197.697,180.131 "/>
<path clip-path="url(#clip690)" d="M148.855 973.479 Q145.244 973.479 143.415 977.043 Q141.61 980.585 141.61 987.715 Q141.61 994.821 143.415 998.386 Q145.244 1001.93 148.855 1001.93 Q152.489 1001.93 154.295 998.386 Q156.124 994.821 156.124 987.715 Q156.124 980.585 154.295 977.043 Q152.489 973.479 148.855 973.479 M148.855 969.775 Q154.665 969.775 157.721 974.381 Q160.799 978.965 160.799 987.715 Q160.799 996.442 157.721 1001.05 Q154.665 1005.63 148.855 1005.63 Q143.045 1005.63 139.966 1001.05 Q136.911 996.442 136.911 987.715 Q136.911 978.965 139.966 974.381 Q143.045 969.775 148.855 969.775 Z" fill="#000000" fill-rule="nonzero" fill-opacity="1" /><path clip-path="url(#clip690)" d="M140.892 947.188 L148.531 947.188 L148.531 920.823 L140.221 922.489 L140.221 918.23 L148.485 916.563 L153.161 916.563 L153.161 947.188 L160.799 947.188 L160.799 951.123 L140.892 951.123 L140.892 947.188 Z" fill="#000000" fill-rule="nonzero" fill-opacity="1" /><path clip-path="url(#clip690)" d="M144.48 893.352 L160.799 893.352 L160.799 897.287 L138.855 897.287 L138.855 893.352 Q141.517 890.597 146.1 885.967 Q150.707 881.315 151.887 879.972 Q154.133 877.449 155.012 875.713 Q155.915 873.954 155.915 872.264 Q155.915 869.509 153.971 867.773 Q152.049 866.037 148.948 866.037 Q146.749 866.037 144.295 866.801 Q141.864 867.565 139.087 869.116 L139.087 864.394 Q141.911 863.259 144.364 862.681 Q146.818 862.102 148.855 862.102 Q154.225 862.102 157.42 864.787 Q160.614 867.472 160.614 871.963 Q160.614 874.093 159.804 876.014 Q159.017 877.912 156.911 880.505 Q156.332 881.176 153.23 884.393 Q150.128 887.588 144.48 893.352 Z" fill="#000000" fill-rule="nonzero" fill-opacity="1" /><path clip-path="url(#clip690)" d="M144.48 839.515 L160.799 839.515 L160.799 843.45 L138.855 843.45 L138.855 839.515 Q141.517 836.76 146.1 832.131 Q150.707 827.478 151.887 826.136 Q154.133 823.612 155.012 821.876 Q155.915 820.117 155.915 818.427 Q155.915 815.673 153.971 813.937 Q152.049 812.2 148.948 812.2 Q146.749 812.2 144.295 812.964 Q141.864 813.728 139.087 815.279 L139.087 810.557 Q141.911 809.423 144.364 808.844 Q146.818 808.265 148.855 808.265 Q154.225 808.265 157.42 810.95 Q160.614 813.636 160.614 818.126 Q160.614 820.256 159.804 822.177 Q159.017 824.075 156.911 826.668 Q156.332 827.339 153.23 830.557 Q150.128 833.751 144.48 839.515 Z" fill="#000000" fill-rule="nonzero" fill-opacity="1" /><path clip-path="url(#clip690)" d="M153.67 770.98 Q157.026 771.697 158.901 773.966 Q160.799 776.234 160.799 779.567 Q160.799 784.683 157.281 787.484 Q153.762 790.285 147.281 790.285 Q145.105 790.285 142.79 789.845 Q140.499 789.428 138.045 788.572 L138.045 784.058 Q139.989 785.192 142.304 785.771 Q144.619 786.35 147.142 786.35 Q151.54 786.35 153.832 784.614 Q156.147 782.878 156.147 779.567 Q156.147 776.512 153.994 774.799 Q151.864 773.063 148.045 773.063 L144.017 773.063 L144.017 769.22 L148.23 769.22 Q151.679 769.22 153.508 767.855 Q155.337 766.466 155.337 763.873 Q155.337 761.211 153.438 759.799 Q151.563 758.364 148.045 758.364 Q146.124 758.364 143.925 758.781 Q141.725 759.197 139.087 760.077 L139.087 755.91 Q141.749 755.169 144.063 754.799 Q146.401 754.429 148.462 754.429 Q153.786 754.429 156.887 756.859 Q159.989 759.267 159.989 763.387 Q159.989 766.257 158.346 768.248 Q156.702 770.216 153.67 770.98 Z" fill="#000000" fill-rule="nonzero" fill-opacity="1" /><path clip-path="url(#clip690)" d="M151.216 705.291 L139.411 723.74 L151.216 723.74 L151.216 705.291 M149.989 701.217 L155.869 701.217 L155.869 723.74 L160.799 723.74 L160.799 727.629 L155.869 727.629 L155.869 735.777 L151.216 735.777 L151.216 727.629 L135.614 727.629 L135.614 723.115 L149.989 701.217 Z" fill="#000000" fill-rule="nonzero" fill-opacity="1" /><path clip-path="url(#clip690)" d="M139.897 647.381 L158.253 647.381 L158.253 651.316 L144.179 651.316 L144.179 659.788 Q145.198 659.441 146.216 659.279 Q147.235 659.093 148.253 659.093 Q154.04 659.093 157.42 662.265 Q160.799 665.436 160.799 670.853 Q160.799 676.431 157.327 679.533 Q153.855 682.612 147.536 682.612 Q145.36 682.612 143.091 682.241 Q140.846 681.871 138.438 681.13 L138.438 676.431 Q140.522 677.566 142.744 678.121 Q144.966 678.677 147.443 678.677 Q151.448 678.677 153.786 676.57 Q156.124 674.464 156.124 670.853 Q156.124 667.242 153.786 665.135 Q151.448 663.029 147.443 663.029 Q145.568 663.029 143.693 663.445 Q141.841 663.862 139.897 664.742 L139.897 647.381 Z" fill="#000000" fill-rule="nonzero" fill-opacity="1" /><path clip-path="url(#clip690)" d="M149.272 608.961 Q146.124 608.961 144.272 611.113 Q142.443 613.266 142.443 617.016 Q142.443 620.743 144.272 622.919 Q146.124 625.072 149.272 625.072 Q152.42 625.072 154.249 622.919 Q156.1 620.743 156.1 617.016 Q156.1 613.266 154.249 611.113 Q152.42 608.961 149.272 608.961 M158.554 594.308 L158.554 598.567 Q156.795 597.734 154.989 597.294 Q153.207 596.854 151.448 596.854 Q146.818 596.854 144.364 599.979 Q141.934 603.104 141.587 609.423 Q142.952 607.41 145.012 606.345 Q147.073 605.257 149.55 605.257 Q154.758 605.257 157.767 608.428 Q160.799 611.576 160.799 617.016 Q160.799 622.34 157.651 625.558 Q154.503 628.775 149.272 628.775 Q143.276 628.775 140.105 624.192 Q136.934 619.585 136.934 610.859 Q136.934 602.664 140.823 597.803 Q144.712 592.919 151.262 592.919 Q153.022 592.919 154.804 593.266 Q156.61 593.613 158.554 594.308 Z" fill="#000000" fill-rule="nonzero" fill-opacity="1" /><path clip-path="url(#clip690)" d="M149.272 555.124 Q146.124 555.124 144.272 557.277 Q142.443 559.429 142.443 563.179 Q142.443 566.906 144.272 569.082 Q146.124 571.235 149.272 571.235 Q152.42 571.235 154.249 569.082 Q156.1 566.906 156.1 563.179 Q156.1 559.429 154.249 557.277 Q152.42 555.124 149.272 555.124 M158.554 540.471 L158.554 544.73 Q156.795 543.897 154.989 543.457 Q153.207 543.018 151.448 543.018 Q146.818 543.018 144.364 546.143 Q141.934 549.267 141.587 555.587 Q142.952 553.573 145.012 552.508 Q147.073 551.42 149.55 551.42 Q154.758 551.42 157.767 554.592 Q160.799 557.74 160.799 563.179 Q160.799 568.503 157.651 571.721 Q154.503 574.939 149.272 574.939 Q143.276 574.939 140.105 570.355 Q136.934 565.749 136.934 557.022 Q136.934 548.828 140.823 543.967 Q144.712 539.082 151.262 539.082 Q153.022 539.082 154.804 539.43 Q156.61 539.777 158.554 540.471 Z" fill="#000000" fill-rule="nonzero" fill-opacity="1" /><path clip-path="url(#clip690)" d="M138.577 485.871 L160.799 485.871 L160.799 487.861 L148.253 520.431 L143.369 520.431 L155.174 489.806 L138.577 489.806 L138.577 485.871 Z" fill="#000000" fill-rule="nonzero" fill-opacity="1" /><path clip-path="url(#clip690)" d="M148.948 450.182 Q145.614 450.182 143.693 451.965 Q141.795 453.747 141.795 456.872 Q141.795 459.997 143.693 461.779 Q145.614 463.562 148.948 463.562 Q152.281 463.562 154.202 461.779 Q156.124 459.974 156.124 456.872 Q156.124 453.747 154.202 451.965 Q152.304 450.182 148.948 450.182 M144.272 448.192 Q141.263 447.451 139.573 445.391 Q137.906 443.33 137.906 440.367 Q137.906 436.224 140.846 433.817 Q143.809 431.409 148.948 431.409 Q154.11 431.409 157.049 433.817 Q159.989 436.224 159.989 440.367 Q159.989 443.33 158.299 445.391 Q156.633 447.451 153.647 448.192 Q157.026 448.979 158.901 451.27 Q160.799 453.562 160.799 456.872 Q160.799 461.895 157.721 464.58 Q154.665 467.265 148.948 467.265 Q143.23 467.265 140.151 464.58 Q137.096 461.895 137.096 456.872 Q137.096 453.562 138.994 451.27 Q140.892 448.979 144.272 448.192 M142.559 440.807 Q142.559 443.492 144.225 444.997 Q145.915 446.502 148.948 446.502 Q151.957 446.502 153.647 444.997 Q155.36 443.492 155.36 440.807 Q155.36 438.122 153.647 436.617 Q151.957 435.113 148.948 435.113 Q145.915 435.113 144.225 436.617 Q142.559 438.122 142.559 440.807 Z" fill="#000000" fill-rule="nonzero" fill-opacity="1" /><path clip-path="url(#clip690)" d="M139.179 412.04 L139.179 407.781 Q140.938 408.614 142.744 409.054 Q144.55 409.494 146.286 409.494 Q150.915 409.494 153.346 406.392 Q155.799 403.267 156.147 396.924 Q154.804 398.915 152.744 399.98 Q150.684 401.045 148.184 401.045 Q142.999 401.045 139.966 397.92 Q136.957 394.772 136.957 389.332 Q136.957 384.008 140.105 380.79 Q143.253 377.573 148.485 377.573 Q154.48 377.573 157.628 382.179 Q160.799 386.762 160.799 395.512 Q160.799 403.684 156.911 408.568 Q153.045 413.429 146.494 413.429 Q144.735 413.429 142.929 413.082 Q141.124 412.734 139.179 412.04 M148.485 397.387 Q151.633 397.387 153.462 395.235 Q155.313 393.082 155.313 389.332 Q155.313 385.605 153.462 383.452 Q151.633 381.276 148.485 381.276 Q145.337 381.276 143.485 383.452 Q141.656 385.605 141.656 389.332 Q141.656 393.082 143.485 395.235 Q145.337 397.387 148.485 397.387 Z" fill="#000000" fill-rule="nonzero" fill-opacity="1" /><path clip-path="url(#clip690)" d="M109.503 354.986 L117.142 354.986 L117.142 328.62 L108.832 330.287 L108.832 326.028 L117.096 324.361 L121.772 324.361 L121.772 354.986 L129.411 354.986 L129.411 358.921 L109.503 358.921 L109.503 354.986 Z" fill="#000000" fill-rule="nonzero" fill-opacity="1" /><path clip-path="url(#clip690)" d="M148.855 327.44 Q145.244 327.44 143.415 331.005 Q141.61 334.546 141.61 341.676 Q141.61 348.782 143.415 352.347 Q145.244 355.889 148.855 355.889 Q152.489 355.889 154.295 352.347 Q156.124 348.782 156.124 341.676 Q156.124 334.546 154.295 331.005 Q152.489 327.44 148.855 327.44 M148.855 323.736 Q154.665 323.736 157.721 328.342 Q160.799 332.926 160.799 341.676 Q160.799 350.403 157.721 355.009 Q154.665 359.592 148.855 359.592 Q143.045 359.592 139.966 355.009 Q136.911 350.403 136.911 341.676 Q136.911 332.926 139.966 328.342 Q143.045 323.736 148.855 323.736 Z" fill="#000000" fill-rule="nonzero" fill-opacity="1" /><path clip-path="url(#clip690)" d="M109.503 301.149 L117.142 301.149 L117.142 274.784 L108.832 276.45 L108.832 272.191 L117.096 270.524 L121.772 270.524 L121.772 301.149 L129.411 301.149 L129.411 305.084 L109.503 305.084 L109.503 301.149 Z" fill="#000000" fill-rule="nonzero" fill-opacity="1" /><path clip-path="url(#clip690)" d="M148.855 273.603 Q145.244 273.603 143.415 277.168 Q141.61 280.71 141.61 287.839 Q141.61 294.946 143.415 298.51 Q145.244 302.052 148.855 302.052 Q152.489 302.052 154.295 298.51 Q156.124 294.946 156.124 287.839 Q156.124 280.71 154.295 277.168 Q152.489 273.603 148.855 273.603 M148.855 269.899 Q154.665 269.899 157.721 274.506 Q160.799 279.089 160.799 287.839 Q160.799 296.566 157.721 301.172 Q154.665 305.756 148.855 305.756 Q143.045 305.756 139.966 301.172 Q136.911 296.566 136.911 287.839 Q136.911 279.089 139.966 274.506 Q143.045 269.899 148.855 269.899 Z" fill="#000000" fill-rule="nonzero" fill-opacity="1" /><path clip-path="url(#clip690)" d="M110.73 247.313 L118.369 247.313 L118.369 220.947 L110.059 222.614 L110.059 218.355 L118.323 216.688 L122.999 216.688 L122.999 247.313 L130.638 247.313 L130.638 251.248 L110.73 251.248 L110.73 247.313 Z" fill="#000000" fill-rule="nonzero" fill-opacity="1" /><path clip-path="url(#clip690)" d="M140.892 247.313 L148.531 247.313 L148.531 220.947 L140.221 222.614 L140.221 218.355 L148.485 216.688 L153.161 216.688 L153.161 247.313 L160.799 247.313 L160.799 251.248 L140.892 251.248 L140.892 247.313 Z" fill="#000000" fill-rule="nonzero" fill-opacity="1" /><path clip-path="url(#clip690)" d="M111.101 193.476 L118.739 193.476 L118.739 167.111 L110.429 168.777 L110.429 164.518 L118.693 162.851 L123.369 162.851 L123.369 193.476 L131.008 193.476 L131.008 197.411 L111.101 197.411 L111.101 193.476 Z" fill="#000000" fill-rule="nonzero" fill-opacity="1" /><path clip-path="url(#clip690)" d="M144.48 193.476 L160.799 193.476 L160.799 197.411 L138.855 197.411 L138.855 193.476 Q141.517 190.721 146.1 186.092 Q150.707 181.439 151.887 180.097 Q154.133 177.573 155.012 175.837 Q155.915 174.078 155.915 172.388 Q155.915 169.634 153.971 167.898 Q152.049 166.161 148.948 166.161 Q146.749 166.161 144.295 166.925 Q141.864 167.689 139.087 169.24 L139.087 164.518 Q141.911 163.384 144.364 162.805 Q146.818 162.226 148.855 162.226 Q154.225 162.226 157.42 164.911 Q160.614 167.597 160.614 172.087 Q160.614 174.217 159.804 176.138 Q159.017 178.036 156.911 180.629 Q156.332 181.3 153.23 184.518 Q150.128 187.712 144.48 193.476 Z" fill="#000000" fill-rule="nonzero" fill-opacity="1" /><path clip-path="url(#clip690)" d="M63.32 678.794 Q55.5878 678.794 50.2025 673.854 Q44.7925 668.888 44.7925 661.996 Q44.7925 655.054 50.2025 650.114 Q55.6125 645.148 63.32 645.148 Q70.9533 645.148 76.2646 650.114 Q81.5758 655.079 81.5758 661.996 Q81.5758 668.814 76.2893 673.804 Q71.0027 678.794 63.32 678.794 M62.6036 673.582 Q67.2972 673.582 70.9039 672.47 Q74.4859 671.359 76.4375 669.58 Q78.389 667.777 79.3278 665.85 Q80.2665 663.923 80.2665 661.947 Q80.2665 660.02 79.3525 658.142 Q78.4385 656.24 76.5116 654.437 Q74.5847 652.633 70.978 651.497 Q67.3713 650.361 62.6036 650.361 Q58.8981 650.361 55.9337 651.151 Q52.9446 651.942 51.1412 653.177 Q49.3379 654.412 48.1521 656.018 Q46.9664 657.599 46.5217 659.106 Q46.0523 660.588 46.0523 661.996 Q46.0523 663.775 46.8429 665.627 Q47.6334 667.48 49.3873 669.358 Q51.1165 671.21 54.5503 672.396 Q57.9594 673.582 62.6036 673.582 Z" fill="#000000" fill-rule="nonzero" fill-opacity="1" /><path clip-path="url(#clip690)" d="M60.2321 641.369 L58.6511 641.369 Q58.7993 639.096 58.7993 636.453 Q58.7993 635.489 58.6511 630.944 L60.2321 630.944 Q60.2321 633.834 61.5414 633.834 Q61.739 633.834 62.406 633.538 L76.5116 627.856 L63.6164 622.693 Q62.7518 622.397 62.406 622.397 Q61.5414 622.397 60.9238 622.989 Q60.2815 623.558 60.2321 624.817 L58.6511 624.817 Q58.7993 622.248 58.7993 620.42 Q58.7993 618.345 58.6511 616.641 L60.2321 616.641 Q60.2321 618.148 60.9238 619.21 Q61.5908 620.272 62.1836 620.618 Q62.7518 620.939 63.6164 621.285 L80.0689 627.905 Q81.0323 628.301 81.0323 628.968 Q81.0323 629.412 80.8347 629.61 Q80.6618 629.783 80.0689 630.03 L62.1095 637.317 Q60.8497 637.811 60.5532 638.454 Q60.2321 639.096 60.2321 641.369 Z" fill="#000000" fill-rule="nonzero" fill-opacity="1" /><path clip-path="url(#clip690)" d="M69.3229 615.677 Q64.5552 615.677 61.1708 612.614 Q57.7864 609.551 57.7864 605.154 Q57.7864 600.707 60.6767 598.41 Q63.567 596.087 67.7172 596.087 Q68.483 596.087 68.6312 596.285 Q68.7794 596.483 68.7794 597.347 L68.7794 611.478 Q73.9424 611.478 76.3634 609.946 Q79.7477 607.822 79.7477 604.24 Q79.7477 603.745 79.6489 603.153 Q79.5501 602.56 79.1301 601.349 Q78.6855 600.139 77.5244 599.077 Q76.3634 598.014 74.5353 597.397 Q73.8189 597.248 73.8436 596.754 Q73.8436 596.087 74.4365 596.087 Q74.8812 596.087 75.894 596.582 Q76.8821 597.051 78.0679 597.965 Q79.2537 598.879 80.143 600.658 Q81.0323 602.411 81.0323 604.536 Q81.0323 608.983 77.6726 612.342 Q74.2883 615.677 69.3229 615.677 M67.7172 611.428 L67.7172 599.422 Q66.6549 599.422 65.4692 599.62 Q64.2834 599.793 62.653 600.336 Q60.9979 600.855 59.9603 602.09 Q58.9228 603.326 58.9228 605.154 Q58.9228 605.969 59.2686 606.858 Q59.6145 607.723 60.4544 608.785 Q61.2943 609.847 63.1965 610.588 Q65.0986 611.329 67.7172 611.428 Z" fill="#000000" fill-rule="nonzero" fill-opacity="1" /><path clip-path="url(#clip690)" d="M80.4641 593.222 L78.9078 593.222 Q78.9078 590.529 78.5867 589.912 Q78.2408 589.269 76.6104 589.269 L63.0483 589.269 Q61.1708 589.269 60.7014 589.936 Q60.2321 590.579 60.2321 593.222 L58.6511 593.222 L58.1076 586.181 L63.6658 586.181 Q61.4919 585.465 59.8121 583.958 Q58.1076 582.426 58.1076 579.956 Q58.1076 578.326 59.0216 577.288 Q59.9356 576.226 61.1955 576.226 Q62.3072 576.226 62.8753 576.918 Q63.4188 577.585 63.4188 578.4 Q63.4188 579.314 62.8506 579.956 Q62.2578 580.574 61.2449 580.574 Q60.6273 580.574 60.158 580.302 Q59.6639 580.006 59.491 579.783 Q59.3181 579.561 59.2686 579.413 Q59.2192 579.511 59.2192 579.956 Q59.2192 582.748 62.0107 584.353 Q64.7775 585.934 68.73 585.934 L76.5116 585.934 Q77.9691 585.934 78.4385 585.341 Q78.9078 584.724 78.9078 582.081 L78.9078 581.018 L80.4641 581.018 Q80.3159 583.044 80.3159 587.441 Q80.3159 588.059 80.3406 589.022 Q80.3653 589.986 80.4147 591.246 Q80.4641 592.505 80.4641 593.222 Z" fill="#000000" fill-rule="nonzero" fill-opacity="1" /><path clip-path="url(#clip690)" d="M80.4641 573.187 L78.9078 573.187 Q78.9078 570.495 78.5867 569.877 Q78.2408 569.26 76.6104 569.26 L50.3013 569.26 Q48.4239 569.26 47.9545 569.927 Q47.4851 570.569 47.4851 573.187 L45.9041 573.187 L45.3607 565.925 L76.6104 565.925 Q78.2408 565.925 78.5867 565.282 Q78.9078 564.64 78.9078 561.972 L80.4641 561.972 Q80.4641 562.59 80.4147 563.874 Q80.3653 565.159 80.3406 566.098 Q80.3159 567.036 80.3159 567.58 Q80.3159 568.173 80.4641 573.187 Z" fill="#000000" fill-rule="nonzero" fill-opacity="1" /><path clip-path="url(#clip690)" d="M75.647 558.736 Q71.3486 558.736 69.0759 553.672 Q67.6184 550.633 67.2478 544.359 L65.3951 544.359 Q62.2578 544.359 60.6026 546.014 Q58.9228 547.644 58.9228 549.719 Q58.9228 553.425 61.2449 555.203 Q61.2943 553.696 62.0601 553.153 Q62.8012 552.61 63.567 552.61 Q64.5799 552.61 65.2469 553.252 Q65.8891 553.869 65.8891 554.932 Q65.8891 555.944 65.2716 556.611 Q64.6293 557.278 63.5176 557.278 Q61.0473 557.278 59.4169 555.055 Q57.7864 552.807 57.7864 549.62 Q57.7864 545.47 60.5779 542.703 Q61.4425 541.839 62.5542 541.419 Q63.6658 540.974 64.4069 540.925 Q65.1233 540.875 66.5561 540.875 L76.6598 540.875 Q76.9562 540.875 77.4503 540.777 Q77.9444 540.678 78.5867 540.233 Q79.2043 539.764 79.2043 538.998 Q79.2043 537.17 75.9681 537.195 L73.1272 537.195 L73.1272 535.91 L75.9681 535.91 Q78.6608 535.91 79.723 537.343 Q80.7606 538.751 80.7606 540.06 Q80.7606 541.74 79.5254 542.802 Q78.2902 543.865 76.6104 544.013 Q78.5373 544.779 79.7971 546.532 Q81.0323 548.262 81.0323 550.633 Q81.0323 552.461 80.5629 554.191 Q80.1183 555.895 78.8584 557.328 Q77.5738 558.736 75.647 558.736 M75.5976 554.833 Q77.475 554.833 78.6855 553.499 Q79.8959 552.165 79.8959 550.287 Q79.8959 548.163 78.2655 546.261 Q76.6104 544.359 73.3743 544.359 L68.3101 544.359 Q68.5077 549.966 70.7557 552.412 Q72.979 554.833 75.5976 554.833 Z" fill="#000000" fill-rule="nonzero" fill-opacity="1" /><path clip-path="url(#clip690)" d="M88.715 534.156 Q88.715 531.463 88.3692 530.846 Q88.0481 530.204 86.4423 530.204 L62.7518 530.204 Q61.072 530.204 60.652 530.846 Q60.2321 531.463 60.2321 534.156 L58.6511 534.156 L58.1076 526.869 L61.4425 526.869 Q58.1076 523.83 58.1076 519.779 Q58.1076 515.48 61.4425 512.343 Q64.7775 509.206 69.5452 509.206 Q74.3624 509.206 77.6973 512.541 Q81.0323 515.876 81.0323 520.495 Q81.0323 523.015 79.7477 524.719 Q78.4385 526.399 77.475 526.72 L77.9444 526.72 L86.4423 526.72 Q88.0728 526.72 88.3939 526.078 Q88.715 525.436 88.715 522.768 L90.2714 522.768 Q90.1231 528.079 90.1231 528.474 Q90.1231 528.968 90.2714 534.156 L88.715 534.156 M74.7082 526.72 Q75.474 526.72 75.7458 526.622 Q76.0175 526.498 76.8327 526.004 Q79.8959 524.003 79.8959 520.742 Q79.8959 520.717 79.8959 520.693 Q79.8959 517.802 76.9562 515.604 Q73.9918 513.405 69.5452 513.405 Q65.2963 513.405 62.3319 515.406 Q59.3675 517.407 59.3675 520.174 Q59.3675 522.15 60.4297 523.88 Q61.4919 525.609 63.4188 526.72 L74.7082 526.72 Z" fill="#000000" fill-rule="nonzero" fill-opacity="1" /><path clip-path="url(#clip690)" d="M416.49 36.4239 Q416.49 28.6917 421.431 23.3064 Q426.396 17.8963 433.288 17.8963 Q440.23 17.8963 445.171 23.3064 Q450.136 28.7164 450.136 36.4239 Q450.136 44.0572 445.171 49.3684 Q440.205 54.6797 433.288 54.6797 Q426.47 54.6797 421.48 49.3931 Q416.49 44.1066 416.49 36.4239 M421.702 35.7075 Q421.702 40.4011 422.814 44.0078 Q423.926 47.5898 425.704 49.5414 Q427.508 51.4929 429.435 52.4316 Q431.361 53.3704 433.338 53.3704 Q435.265 53.3704 437.142 52.4563 Q439.044 51.5423 440.848 49.6155 Q442.651 47.6886 443.787 44.0819 Q444.924 40.4752 444.924 35.7075 Q444.924 32.002 444.133 29.0376 Q443.343 26.0485 442.107 24.2451 Q440.872 22.4418 439.267 21.256 Q437.686 20.0702 436.179 19.6256 Q434.696 19.1562 433.288 19.1562 Q431.51 19.1562 429.657 19.9467 Q427.804 20.7372 425.927 22.4912 Q424.074 24.2204 422.888 27.6542 Q421.702 31.0632 421.702 35.7075 Z" fill="#000000" fill-rule="nonzero" fill-opacity="1" /><path clip-path="url(#clip690)" d="M453.916 33.3359 L453.916 31.7549 Q456.188 31.9032 458.832 31.9032 Q459.795 31.9032 464.34 31.7549 L464.34 33.3359 Q461.45 33.3359 461.45 34.6452 Q461.45 34.8429 461.747 35.5098 L467.428 49.6155 L472.591 36.7203 Q472.888 35.8557 472.888 35.5098 Q472.888 34.6452 472.295 34.0276 Q471.727 33.3854 470.467 33.3359 L470.467 31.7549 Q473.036 31.9032 474.864 31.9032 Q476.939 31.9032 478.644 31.7549 L478.644 33.3359 Q477.137 33.3359 476.075 34.0276 Q475.012 34.6946 474.666 35.2875 Q474.345 35.8557 473.999 36.7203 L467.379 53.1727 Q466.984 54.1362 466.317 54.1362 Q465.872 54.1362 465.674 53.9386 Q465.502 53.7656 465.255 53.1727 L457.967 35.2134 Q457.473 33.9535 456.831 33.6571 Q456.188 33.3359 453.916 33.3359 Z" fill="#000000" fill-rule="nonzero" fill-opacity="1" /><path clip-path="url(#clip690)" d="M479.607 42.4268 Q479.607 37.659 482.67 34.2747 Q485.734 30.8903 490.131 30.8903 Q494.577 30.8903 496.875 33.7806 Q499.197 36.6709 499.197 40.8211 Q499.197 41.5869 498.999 41.7351 Q498.802 41.8833 497.937 41.8833 L483.807 41.8833 Q483.807 47.0463 485.338 49.4672 Q487.463 52.8516 491.045 52.8516 Q491.539 52.8516 492.132 52.7528 Q492.725 52.654 493.935 52.234 Q495.146 51.7894 496.208 50.6283 Q497.27 49.4672 497.888 47.6392 Q498.036 46.9228 498.53 46.9475 Q499.197 46.9475 499.197 47.5404 Q499.197 47.985 498.703 48.9979 Q498.233 49.986 497.319 51.1718 Q496.405 52.3575 494.627 53.2469 Q492.873 54.1362 490.748 54.1362 Q486.302 54.1362 482.942 50.7765 Q479.607 47.3922 479.607 42.4268 M483.856 40.8211 L495.862 40.8211 Q495.862 39.7588 495.664 38.5731 Q495.491 37.3873 494.948 35.7569 Q494.429 34.1018 493.194 33.0642 Q491.959 32.0267 490.131 32.0267 Q489.316 32.0267 488.426 32.3725 Q487.562 32.7184 486.499 33.5583 Q485.437 34.3982 484.696 36.3004 Q483.955 38.2025 483.856 40.8211 Z" fill="#000000" fill-rule="nonzero" fill-opacity="1" /><path clip-path="url(#clip690)" d="M502.063 53.568 L502.063 52.0117 Q504.755 52.0117 505.373 51.6905 Q506.015 51.3447 506.015 49.7143 L506.015 36.1521 Q506.015 34.2747 505.348 33.8053 Q504.706 33.3359 502.063 33.3359 L502.063 31.7549 L509.103 31.2115 L509.103 36.7697 Q509.819 34.5958 511.326 32.916 Q512.858 31.2115 515.328 31.2115 Q516.959 31.2115 517.996 32.1255 Q519.058 33.0395 519.058 34.2994 Q519.058 35.411 518.367 35.9792 Q517.7 36.5227 516.885 36.5227 Q515.971 36.5227 515.328 35.9545 Q514.711 35.3616 514.711 34.3488 Q514.711 33.7312 514.982 33.2618 Q515.279 32.7678 515.501 32.5948 Q515.723 32.4219 515.872 32.3725 Q515.773 32.3231 515.328 32.3231 Q512.537 32.3231 510.931 35.1146 Q509.35 37.8814 509.35 41.8339 L509.35 49.6155 Q509.35 51.073 509.943 51.5423 Q510.56 52.0117 513.204 52.0117 L514.266 52.0117 L514.266 53.568 Q512.24 53.4198 507.843 53.4198 Q507.226 53.4198 506.262 53.4445 Q505.299 53.4692 504.039 53.5186 Q502.779 53.568 502.063 53.568 Z" fill="#000000" fill-rule="nonzero" fill-opacity="1" /><path clip-path="url(#clip690)" d="M522.097 53.568 L522.097 52.0117 Q524.79 52.0117 525.407 51.6905 Q526.025 51.3447 526.025 49.7143 L526.025 23.4052 Q526.025 21.5277 525.358 21.0584 Q524.715 20.589 522.097 20.589 L522.097 19.008 L529.36 18.4645 L529.36 49.7143 Q529.36 51.3447 530.002 51.6905 Q530.644 52.0117 533.312 52.0117 L533.312 53.568 Q532.695 53.568 531.41 53.5186 Q530.126 53.4692 529.187 53.4445 Q528.248 53.4198 527.705 53.4198 Q527.112 53.4198 522.097 53.568 Z" fill="#000000" fill-rule="nonzero" fill-opacity="1" /><path clip-path="url(#clip690)" d="M536.548 48.7508 Q536.548 44.4525 541.613 42.1798 Q544.651 40.7223 550.926 40.3517 L550.926 38.499 Q550.926 35.3616 549.271 33.7065 Q547.64 32.0267 545.565 32.0267 Q541.86 32.0267 540.081 34.3488 Q541.588 34.3982 542.131 35.164 Q542.675 35.9051 542.675 36.6709 Q542.675 37.6837 542.033 38.3507 Q541.415 38.993 540.353 38.993 Q539.34 38.993 538.673 38.3754 Q538.006 37.7331 538.006 36.6215 Q538.006 34.1512 540.229 32.5207 Q542.477 30.8903 545.664 30.8903 Q549.814 30.8903 552.581 33.6818 Q553.446 34.5464 553.865 35.6581 Q554.31 36.7697 554.36 37.5108 Q554.409 38.2272 554.409 39.66 L554.409 49.7637 Q554.409 50.0601 554.508 50.5542 Q554.607 51.0483 555.051 51.6905 Q555.521 52.3081 556.286 52.3081 Q558.114 52.3081 558.09 49.072 L558.09 46.2311 L559.374 46.2311 L559.374 49.072 Q559.374 51.7647 557.942 52.8269 Q556.533 53.8644 555.224 53.8644 Q553.544 53.8644 552.482 52.6293 Q551.42 51.3941 551.272 49.7143 Q550.506 51.6411 548.752 52.901 Q547.023 54.1362 544.651 54.1362 Q542.823 54.1362 541.094 53.6668 Q539.389 53.2222 537.956 51.9623 Q536.548 50.6777 536.548 48.7508 M540.452 48.7014 Q540.452 50.5789 541.786 51.7894 Q543.119 52.9998 544.997 52.9998 Q547.121 52.9998 549.024 51.3694 Q550.926 49.7143 550.926 46.4781 L550.926 41.4139 Q545.318 41.6116 542.872 43.8596 Q540.452 46.0829 540.452 48.7014 Z" fill="#000000" fill-rule="nonzero" fill-opacity="1" /><path clip-path="url(#clip690)" d="M561.128 61.8189 Q563.821 61.8189 564.438 61.4731 Q565.081 61.1519 565.081 59.5462 L565.081 35.8557 Q565.081 34.1759 564.438 33.7559 Q563.821 33.3359 561.128 33.3359 L561.128 31.7549 L568.416 31.2115 L568.416 34.5464 Q571.454 31.2115 575.506 31.2115 Q579.804 31.2115 582.941 34.5464 Q586.079 37.8814 586.079 42.6491 Q586.079 47.4663 582.744 50.8012 Q579.409 54.1362 574.789 54.1362 Q572.269 54.1362 570.565 52.8516 Q568.885 51.5423 568.564 50.5789 L568.564 51.0483 L568.564 59.5462 Q568.564 61.1766 569.206 61.4978 Q569.849 61.8189 572.516 61.8189 L572.516 63.3752 Q567.205 63.227 566.81 63.227 Q566.316 63.227 561.128 63.3752 L561.128 61.8189 M568.564 47.8121 Q568.564 48.5779 568.663 48.8497 Q568.786 49.1214 569.28 49.9366 Q571.281 52.9998 574.542 52.9998 Q574.567 52.9998 574.592 52.9998 Q577.482 52.9998 579.68 50.0601 Q581.879 47.0957 581.879 42.6491 Q581.879 38.4001 579.878 35.4357 Q577.877 32.4713 575.11 32.4713 Q573.134 32.4713 571.405 33.5336 Q569.676 34.5958 568.564 36.5227 L568.564 47.8121 Z" fill="#000000" fill-rule="nonzero" fill-opacity="1" /><path clip-path="url(#clip690)" d="M609.547 50.8012 Q606.335 47.4416 606.335 42.6491 Q606.335 37.832 609.497 34.3735 Q612.659 30.8903 617.304 30.8903 Q620.392 30.8903 622.714 32.3725 Q625.036 33.83 625.036 36.3251 Q625.036 37.4367 624.369 38.079 Q623.727 38.6966 622.714 38.6966 Q621.651 38.6966 621.009 38.0543 Q620.392 37.3873 620.392 36.3745 Q620.392 35.9298 620.54 35.4851 Q620.688 35.0405 621.232 34.5711 Q621.8 34.1018 622.763 34.0276 Q620.96 32.1749 617.452 32.1749 Q617.402 32.1749 617.353 32.1749 Q614.784 32.1749 612.659 34.5958 Q610.535 37.0167 610.535 42.5503 Q610.535 45.4406 611.227 47.5651 Q611.943 49.6649 613.104 50.7518 Q614.265 51.8388 615.402 52.3575 Q616.538 52.8516 617.65 52.8516 Q622.615 52.8516 624.295 47.5404 Q624.443 47.0463 624.937 47.0463 Q625.604 47.0463 625.604 47.5404 Q625.604 47.7874 625.406 48.4297 Q625.209 49.072 624.591 50.0848 Q623.974 51.0977 623.084 51.987 Q622.22 52.8516 620.663 53.4939 Q619.132 54.1362 617.205 54.1362 Q612.758 54.1362 609.547 50.8012 Z" fill="#000000" fill-rule="nonzero" fill-opacity="1" /><path clip-path="url(#clip690)" d="M631.805 50.8506 Q628.47 47.5404 628.47 42.7479 Q628.47 37.9308 631.73 34.4229 Q635.016 30.8903 639.71 30.8903 Q644.304 30.8903 647.59 34.3982 Q650.9 37.8814 650.9 42.7479 Q650.9 47.5157 647.565 50.8259 Q644.255 54.1362 639.66 54.1362 Q635.164 54.1362 631.805 50.8506 M632.669 42.328 Q632.669 47.2439 633.954 49.4672 Q635.93 52.8516 639.71 52.8516 Q641.587 52.8516 643.143 51.8388 Q644.724 50.8259 645.589 49.1214 Q646.701 46.8981 646.701 42.328 Q646.701 37.4614 645.367 35.3122 Q643.39 32.0267 639.66 32.0267 Q638.03 32.0267 636.424 32.8913 Q634.843 33.7312 633.88 35.411 Q632.669 37.6343 632.669 42.328 Z" fill="#000000" fill-rule="nonzero" fill-opacity="1" /><path clip-path="url(#clip690)" d="M653.988 53.568 L653.988 52.0117 Q656.681 52.0117 657.298 51.6905 Q657.916 51.3447 657.916 49.7143 L657.916 36.1521 Q657.916 34.2747 657.249 33.8053 Q656.607 33.3359 653.988 33.3359 L653.988 31.7549 L661.103 31.2115 L661.103 36.5227 Q663.474 31.2115 668.588 31.2115 Q674.517 31.2115 675.332 36.1521 Q676.196 34.2253 678 32.7184 Q679.828 31.2115 682.669 31.2115 Q686.473 31.2115 687.98 33.0889 Q689.092 34.3488 689.314 35.7569 Q689.536 37.165 689.536 40.8211 L689.536 50.4801 Q689.586 51.5423 690.401 51.7894 Q691.216 52.0117 693.489 52.0117 L693.489 53.568 Q688.326 53.4198 687.832 53.4198 Q687.437 53.4198 682.101 53.568 L682.101 52.0117 Q684.793 52.0117 685.411 51.6905 Q686.053 51.3447 686.053 49.7143 L686.053 37.9308 Q686.053 35.3616 685.263 33.8547 Q684.472 32.3231 682.298 32.3231 Q679.68 32.3231 677.58 34.5217 Q675.48 36.7203 675.48 40.4258 L675.48 49.7143 Q675.48 51.3447 676.098 51.6905 Q676.74 52.0117 679.433 52.0117 L679.433 53.568 Q674.27 53.4198 673.751 53.4198 Q673.356 53.4198 668.044 53.568 L668.044 52.0117 Q670.737 52.0117 671.355 51.6905 Q671.997 51.3447 671.997 49.7143 L671.997 37.9308 Q671.997 35.3616 671.206 33.8547 Q670.416 32.3231 668.242 32.3231 Q665.623 32.3231 663.524 34.5217 Q661.424 36.7203 661.424 40.4258 L661.424 49.7143 Q661.424 51.3447 662.041 51.6905 Q662.684 52.0117 665.352 52.0117 L665.352 53.568 Q660.189 53.4198 659.695 53.4198 Q659.299 53.4198 653.988 53.568 Z" fill="#000000" fill-rule="nonzero" fill-opacity="1" /><path clip-path="url(#clip690)" d="M695.885 61.8189 Q698.578 61.8189 699.195 61.4731 Q699.838 61.1519 699.838 59.5462 L699.838 35.8557 Q699.838 34.1759 699.195 33.7559 Q698.578 33.3359 695.885 33.3359 L695.885 31.7549 L703.173 31.2115 L703.173 34.5464 Q706.211 31.2115 710.262 31.2115 Q714.561 31.2115 717.698 34.5464 Q720.835 37.8814 720.835 42.6491 Q720.835 47.4663 717.501 50.8012 Q714.166 54.1362 709.546 54.1362 Q707.026 54.1362 705.322 52.8516 Q703.642 51.5423 703.321 50.5789 L703.321 51.0483 L703.321 59.5462 Q703.321 61.1766 703.963 61.4978 Q704.605 61.8189 707.273 61.8189 L707.273 63.3752 Q701.962 63.227 701.567 63.227 Q701.073 63.227 695.885 63.3752 L695.885 61.8189 M703.321 47.8121 Q703.321 48.5779 703.42 48.8497 Q703.543 49.1214 704.037 49.9366 Q706.038 52.9998 709.299 52.9998 Q709.324 52.9998 709.348 52.9998 Q712.239 52.9998 714.437 50.0601 Q716.636 47.0957 716.636 42.6491 Q716.636 38.4001 714.635 35.4357 Q712.634 32.4713 709.867 32.4713 Q707.891 32.4713 706.162 33.5336 Q704.432 34.5958 703.321 36.5227 L703.321 47.8121 Z" fill="#000000" fill-rule="nonzero" fill-opacity="1" /><path clip-path="url(#clip690)" d="M724.17 33.3359 L724.17 31.7549 L731.606 31.2115 L731.606 48.0097 Q731.606 49.2202 731.705 49.9366 Q731.804 50.6283 732.199 51.4435 Q732.619 52.2587 733.558 52.6293 Q734.521 52.9998 736.053 52.9998 Q738.795 52.9998 740.475 50.7518 Q742.179 48.5038 742.179 45.1689 L742.179 36.1521 Q742.179 34.2747 741.512 33.8053 Q740.845 33.3359 738.227 33.3359 L738.227 31.7549 L745.662 31.2115 L745.662 49.1708 Q745.662 51.0483 746.305 51.5423 Q746.972 52.0117 749.615 52.0117 L749.615 53.568 L742.327 54.1362 L742.327 49.5661 Q740.203 54.1115 735.806 54.1362 Q733.582 54.1362 732.051 53.568 Q730.544 52.9998 729.778 52.3081 Q729.012 51.5917 728.592 50.233 Q728.197 48.8744 728.148 48.0344 Q728.098 47.1945 728.098 45.5641 L728.098 37.9802 Q728.098 34.5464 727.604 33.9535 Q727.11 33.3359 724.17 33.3359 Z" fill="#000000" fill-rule="nonzero" fill-opacity="1" /><path clip-path="url(#clip690)" d="M751.566 33.3359 L751.566 32.2243 Q753.889 32.1255 755.42 30.4951 Q756.976 28.8399 757.495 26.8143 Q758.039 24.7886 758.088 22.4418 L759.348 22.4418 L759.348 31.7549 L766.586 31.7549 L766.586 33.3359 L759.348 33.3359 L759.348 47.3922 Q759.348 52.8516 762.757 52.8516 Q764.215 52.8516 765.178 51.3694 Q766.141 49.8625 766.141 47.1945 L766.141 44.4031 L767.401 44.4031 L767.401 47.2933 Q767.401 50.0354 766.141 52.0858 Q764.882 54.1362 762.387 54.1362 Q761.472 54.1362 760.558 53.8891 Q759.669 53.6668 758.483 53.0739 Q757.322 52.4563 756.581 50.9741 Q755.865 49.4672 755.865 47.2933 L755.865 33.3359 L751.566 33.3359 Z" fill="#000000" fill-rule="nonzero" fill-opacity="1" /><path clip-path="url(#clip690)" d="M772.342 48.7508 Q772.342 44.4525 777.406 42.1798 Q780.445 40.7223 786.719 40.3517 L786.719 38.499 Q786.719 35.3616 785.064 33.7065 Q783.434 32.0267 781.359 32.0267 Q777.653 32.0267 775.875 34.3488 Q777.381 34.3982 777.925 35.164 Q778.468 35.9051 778.468 36.6709 Q778.468 37.6837 777.826 38.3507 Q777.209 38.993 776.146 38.993 Q775.133 38.993 774.466 38.3754 Q773.799 37.7331 773.799 36.6215 Q773.799 34.1512 776.023 32.5207 Q778.271 30.8903 781.458 30.8903 Q785.608 30.8903 788.374 33.6818 Q789.239 34.5464 789.659 35.6581 Q790.104 36.7697 790.153 37.5108 Q790.202 38.2272 790.202 39.66 L790.202 49.7637 Q790.202 50.0601 790.301 50.5542 Q790.4 51.0483 790.845 51.6905 Q791.314 52.3081 792.08 52.3081 Q793.908 52.3081 793.883 49.072 L793.883 46.2311 L795.168 46.2311 L795.168 49.072 Q795.168 51.7647 793.735 52.8269 Q792.327 53.8644 791.018 53.8644 Q789.338 53.8644 788.276 52.6293 Q787.213 51.3941 787.065 49.7143 Q786.299 51.6411 784.545 52.901 Q782.816 54.1362 780.445 54.1362 Q778.617 54.1362 776.887 53.6668 Q775.183 53.2222 773.75 51.9623 Q772.342 50.6777 772.342 48.7508 M776.245 48.7014 Q776.245 50.5789 777.579 51.7894 Q778.913 52.9998 780.791 52.9998 Q782.915 52.9998 784.817 51.3694 Q786.719 49.7143 786.719 46.4781 L786.719 41.4139 Q781.112 41.6116 778.666 43.8596 Q776.245 46.0829 776.245 48.7014 Z" fill="#000000" fill-rule="nonzero" fill-opacity="1" /><path clip-path="url(#clip690)" d="M796.477 33.3359 L796.477 32.2243 Q798.799 32.1255 800.331 30.4951 Q801.887 28.8399 802.406 26.8143 Q802.949 24.7886 802.999 22.4418 L804.259 22.4418 L804.259 31.7549 L811.497 31.7549 L811.497 33.3359 L804.259 33.3359 L804.259 47.3922 Q804.259 52.8516 807.668 52.8516 Q809.125 52.8516 810.089 51.3694 Q811.052 49.8625 811.052 47.1945 L811.052 44.4031 L812.312 44.4031 L812.312 47.2933 Q812.312 50.0354 811.052 52.0858 Q809.792 54.1362 807.297 54.1362 Q806.383 54.1362 805.469 53.8891 Q804.58 53.6668 803.394 53.0739 Q802.233 52.4563 801.492 50.9741 Q800.776 49.4672 800.776 47.2933 L800.776 33.3359 L796.477 33.3359 Z" fill="#000000" fill-rule="nonzero" fill-opacity="1" /><path clip-path="url(#clip690)" d="M816.808 53.568 L816.808 52.0117 Q819.501 52.0117 820.118 51.6905 Q820.736 51.3447 820.736 49.7143 L820.736 36.1027 Q820.736 34.2253 820.094 33.7806 Q819.476 33.3359 817.006 33.3359 L817.006 31.7549 L824.071 31.2115 L824.071 49.7637 Q824.071 51.2706 824.614 51.6411 Q825.158 52.0117 827.628 52.0117 L827.628 53.568 Q822.465 53.4198 822.366 53.4198 Q821.675 53.4198 816.808 53.568 M818.933 22.3924 Q818.933 21.3795 819.698 20.5643 Q820.489 19.7244 821.6 19.7244 Q822.712 19.7244 823.503 20.4902 Q824.293 21.2313 824.293 22.4171 Q824.293 23.5781 823.503 24.3439 Q822.712 25.085 821.6 25.085 Q820.439 25.085 819.674 24.2698 Q818.933 23.4546 818.933 22.3924 Z" fill="#000000" fill-rule="nonzero" fill-opacity="1" /><path clip-path="url(#clip690)" d="M833.878 50.8506 Q830.543 47.5404 830.543 42.7479 Q830.543 37.9308 833.804 34.4229 Q837.089 30.8903 841.783 30.8903 Q846.378 30.8903 849.663 34.3982 Q852.974 37.8814 852.974 42.7479 Q852.974 47.5157 849.639 50.8259 Q846.329 54.1362 841.734 54.1362 Q837.238 54.1362 833.878 50.8506 M834.743 42.328 Q834.743 47.2439 836.027 49.4672 Q838.003 52.8516 841.783 52.8516 Q843.661 52.8516 845.217 51.8388 Q846.798 50.8259 847.663 49.1214 Q848.774 46.8981 848.774 42.328 Q848.774 37.4614 847.44 35.3122 Q845.464 32.0267 841.734 32.0267 Q840.103 32.0267 838.498 32.8913 Q836.917 33.7312 835.953 35.411 Q834.743 37.6343 834.743 42.328 Z" fill="#000000" fill-rule="nonzero" fill-opacity="1" /><path clip-path="url(#clip690)" d="M856.062 53.568 L856.062 52.0117 Q858.754 52.0117 859.372 51.6905 Q859.989 51.3447 859.989 49.7143 L859.989 36.1521 Q859.989 34.2747 859.322 33.8053 Q858.68 33.3359 856.062 33.3359 L856.062 31.7549 L863.176 31.2115 L863.176 36.5227 Q865.548 31.2115 870.661 31.2115 Q874.466 31.2115 875.973 33.0889 Q877.084 34.3488 877.307 35.7569 Q877.554 37.165 877.554 40.8211 L877.554 50.4801 Q877.603 51.5423 878.418 51.7894 Q879.233 52.0117 881.506 52.0117 L881.506 53.568 Q876.343 53.4198 875.824 53.4198 Q875.429 53.4198 870.118 53.568 L870.118 52.0117 Q872.811 52.0117 873.428 51.6905 Q874.07 51.3447 874.07 49.7143 L874.07 37.9308 Q874.07 35.3616 873.28 33.8547 Q872.489 32.3231 870.315 32.3231 Q867.697 32.3231 865.597 34.5217 Q863.497 36.7203 863.497 40.4258 L863.497 49.7143 Q863.497 51.3447 864.115 51.6905 Q864.757 52.0117 867.425 52.0117 L867.425 53.568 Q862.262 53.4198 861.768 53.4198 Q861.373 53.4198 856.062 53.568 Z" fill="#000000" fill-rule="nonzero" fill-opacity="1" /><path clip-path="url(#clip690)" d="M465.625 105.408 L465.625 103.852 Q468.318 103.852 468.935 103.531 Q469.553 103.185 469.553 101.554 L469.553 87.9427 Q469.553 86.0653 468.911 85.6206 Q468.293 85.1759 465.823 85.1759 L465.823 83.5949 L472.888 83.0515 L472.888 101.604 Q472.888 103.111 473.431 103.481 Q473.975 103.852 476.445 103.852 L476.445 105.408 Q471.282 105.26 471.183 105.26 Q470.492 105.26 465.625 105.408 M467.75 74.2324 Q467.75 73.2195 468.515 72.4043 Q469.306 71.5644 470.418 71.5644 Q471.529 71.5644 472.32 72.3302 Q473.11 73.0713 473.11 74.2571 Q473.11 75.4181 472.32 76.1839 Q471.529 76.925 470.418 76.925 Q469.256 76.925 468.491 76.1098 Q467.75 75.2946 467.75 74.2324 Z" fill="#000000" fill-rule="nonzero" fill-opacity="1" /><path clip-path="url(#clip690)" d="M479.582 105.408 L479.582 103.852 Q482.275 103.852 482.893 103.531 Q483.51 103.185 483.51 101.554 L483.51 87.9921 Q483.51 86.1147 482.843 85.6453 Q482.201 85.1759 479.582 85.1759 L479.582 83.5949 L486.697 83.0515 L486.697 88.3627 Q489.069 83.0515 494.182 83.0515 Q497.986 83.0515 499.493 84.9289 Q500.605 86.1888 500.827 87.5969 Q501.074 89.005 501.074 92.6611 L501.074 102.32 Q501.124 103.382 501.939 103.629 Q502.754 103.852 505.027 103.852 L505.027 105.408 Q499.864 105.26 499.345 105.26 Q498.95 105.26 493.639 105.408 L493.639 103.852 Q496.331 103.852 496.949 103.531 Q497.591 103.185 497.591 101.554 L497.591 89.7708 Q497.591 87.2016 496.801 85.6947 Q496.01 84.1631 493.836 84.1631 Q491.218 84.1631 489.118 86.3617 Q487.018 88.5603 487.018 92.2658 L487.018 101.554 Q487.018 103.185 487.636 103.531 Q488.278 103.852 490.946 103.852 L490.946 105.408 Q485.783 105.26 485.289 105.26 Q484.894 105.26 479.582 105.408 Z" fill="#000000" fill-rule="nonzero" fill-opacity="1" /><path clip-path="url(#clip690)" d="M524.518 105.408 L524.518 103.852 L525.728 103.852 Q528.47 103.852 529.088 103.407 Q529.73 102.938 529.73 101.455 L529.73 74.8005 Q529.73 73.343 529.088 72.8984 Q528.446 72.429 525.728 72.429 L524.518 72.429 L524.518 70.848 Q526.297 70.9962 532.003 70.9962 Q537.66 70.9962 539.439 70.848 L539.439 72.429 L538.228 72.429 Q535.486 72.429 534.844 72.8984 Q534.226 73.343 534.226 74.8005 L534.226 86.6334 L549.345 86.6334 L549.345 74.8005 Q549.345 73.343 548.702 72.8984 Q548.085 72.429 545.343 72.429 L544.132 72.429 L544.132 70.848 Q545.911 70.9962 551.617 70.9962 Q557.275 70.9962 559.053 70.848 L559.053 72.429 L557.843 72.429 Q555.101 72.429 554.458 72.8984 Q553.841 73.343 553.841 74.8005 L553.841 101.455 Q553.841 102.913 554.483 103.382 Q555.125 103.852 557.843 103.852 L559.053 103.852 L559.053 105.408 Q557.275 105.26 551.568 105.26 Q545.911 105.26 544.132 105.408 L544.132 103.852 L545.343 103.852 Q548.085 103.852 548.702 103.407 Q549.345 102.938 549.345 101.455 L549.345 88.2145 L534.226 88.2145 L534.226 101.455 Q534.226 102.913 534.844 103.382 Q535.486 103.852 538.228 103.852 L539.439 103.852 L539.439 105.408 Q537.66 105.26 531.954 105.26 Q526.297 105.26 524.518 105.408 Z" fill="#000000" fill-rule="nonzero" fill-opacity="1" /><path clip-path="url(#clip690)" d="M561.746 111.683 Q561.746 110.62 562.363 110.052 Q563.006 109.509 563.87 109.509 Q564.784 109.509 565.377 110.077 Q565.995 110.67 565.995 111.633 Q565.995 113.511 564.019 113.758 Q564.982 114.672 566.39 114.672 Q567.897 114.672 569.107 113.56 Q570.343 112.448 570.861 111.386 Q571.405 110.324 572.171 108.397 Q572.887 106.89 573.431 105.408 L565.847 86.9299 Q565.353 85.7194 564.587 85.4477 Q563.821 85.1759 561.746 85.1759 L561.746 83.5949 Q564.019 83.7432 566.662 83.7432 Q568.218 83.7432 572.171 83.5949 L572.171 85.1759 Q569.33 85.1759 569.33 86.4852 Q569.33 86.6334 569.626 87.3993 L575.259 101.011 L580.372 88.5603 Q580.669 87.8439 580.669 87.3498 Q580.669 85.2748 578.297 85.1759 L578.297 83.5949 Q581.632 83.7432 582.694 83.7432 Q584.769 83.7432 586.474 83.5949 L586.474 85.1759 Q583.09 85.1759 581.78 88.4121 L572.862 110.003 Q570.441 115.759 566.39 115.783 Q564.463 115.783 563.105 114.598 Q561.746 113.412 561.746 111.683 Z" fill="#000000" fill-rule="nonzero" fill-opacity="1" /><path clip-path="url(#clip690)" d="M589.167 94.5385 Q589.167 89.7214 592.526 86.3864 Q595.886 83.0515 600.431 83.0515 Q604.285 83.0515 606.805 86.1888 L606.805 75.2452 Q606.805 73.3677 606.138 72.8984 Q605.495 72.429 602.877 72.429 L602.877 70.848 L610.164 70.3045 L610.164 101.011 Q610.164 102.888 610.807 103.382 Q611.474 103.852 614.092 103.852 L614.092 105.408 L606.657 105.976 L606.657 102.617 Q604.038 105.951 599.888 105.976 Q595.54 105.976 592.353 102.641 Q589.167 99.3063 589.167 94.5385 M593.366 94.5879 Q593.366 99.2816 594.824 101.604 Q596.849 104.84 600.135 104.84 Q603.89 104.84 606.113 101.307 Q606.681 100.443 606.657 99.4298 L606.657 89.0544 Q606.657 88.0415 606.113 87.2016 Q604.038 84.1631 600.654 84.1631 Q597.121 84.1631 594.922 87.3993 Q593.366 89.8202 593.366 94.5879 Z" fill="#000000" fill-rule="nonzero" fill-opacity="1" /><path clip-path="url(#clip690)" d="M616.908 105.408 L616.908 103.852 Q619.601 103.852 620.219 103.531 Q620.861 103.185 620.861 101.554 L620.861 87.9921 Q620.861 86.1147 620.194 85.6453 Q619.552 85.1759 616.908 85.1759 L616.908 83.5949 L623.949 83.0515 L623.949 88.6097 Q624.665 86.4358 626.172 84.756 Q627.704 83.0515 630.174 83.0515 Q631.805 83.0515 632.842 83.9655 Q633.904 84.8795 633.904 86.1394 Q633.904 87.251 633.213 87.8192 Q632.546 88.3627 631.73 88.3627 Q630.816 88.3627 630.174 87.7945 Q629.557 87.2016 629.557 86.1888 Q629.557 85.5712 629.828 85.1018 Q630.125 84.6078 630.347 84.4348 Q630.569 84.2619 630.718 84.2125 Q630.619 84.1631 630.174 84.1631 Q627.383 84.1631 625.777 86.9546 Q624.196 89.7214 624.196 93.6739 L624.196 101.455 Q624.196 102.913 624.789 103.382 Q625.406 103.852 628.05 103.852 L629.112 103.852 L629.112 105.408 Q627.086 105.26 622.689 105.26 Q622.071 105.26 621.108 105.284 Q620.145 105.309 618.885 105.359 Q617.625 105.408 616.908 105.408 Z" fill="#000000" fill-rule="nonzero" fill-opacity="1" /><path clip-path="url(#clip690)" d="M640.006 102.691 Q636.671 99.3804 636.671 94.5879 Q636.671 89.7708 639.932 86.2629 Q643.218 82.7303 647.911 82.7303 Q652.506 82.7303 655.792 86.2382 Q659.102 89.7214 659.102 94.5879 Q659.102 99.3557 655.767 102.666 Q652.457 105.976 647.862 105.976 Q643.366 105.976 640.006 102.691 M640.871 94.168 Q640.871 99.0839 642.155 101.307 Q644.132 104.692 647.911 104.692 Q649.789 104.692 651.345 103.679 Q652.926 102.666 653.791 100.961 Q654.902 98.7381 654.902 94.168 Q654.902 89.3014 653.568 87.1522 Q651.592 83.8667 647.862 83.8667 Q646.231 83.8667 644.626 84.7313 Q643.045 85.5712 642.081 87.251 Q640.871 89.4743 640.871 94.168 Z" fill="#000000" fill-rule="nonzero" fill-opacity="1" /><path clip-path="url(#clip690)" d="M661.967 109.41 Q661.967 107.78 663.203 106.371 Q664.462 104.963 666.636 104.346 Q664.413 102.938 664.413 99.8497 Q664.413 97.4782 665.969 95.6502 Q663.598 93.6739 663.598 90.4378 Q663.598 87.4487 665.969 85.2501 Q668.341 83.0515 671.799 83.0515 Q674.838 83.0515 677.16 84.8795 Q679.581 82.508 682.521 82.4833 Q683.83 82.4833 684.447 83.2985 Q685.09 84.1137 685.09 84.9783 Q685.09 85.7441 684.596 86.1147 Q684.126 86.4852 683.632 86.4852 Q683.015 86.4852 682.57 86.09 Q682.15 85.67 682.15 85.0277 Q682.15 83.9655 682.965 83.6443 Q682.817 83.5949 682.471 83.5949 Q680.001 83.5949 677.901 85.5712 Q679.976 87.4981 679.976 90.4872 Q679.976 93.4763 677.605 95.6749 Q675.233 97.8735 671.799 97.8735 Q668.958 97.8735 666.785 96.2925 Q665.92 97.3053 665.92 98.6887 Q665.92 99.9486 666.686 100.937 Q667.452 101.925 668.613 102.073 Q668.958 102.122 672.392 102.122 Q674.418 102.122 675.53 102.172 Q676.641 102.221 678.222 102.567 Q679.828 102.888 681.088 103.531 Q684.373 105.359 684.398 109.311 Q684.398 112.201 681.063 114.005 Q677.753 115.833 673.158 115.833 Q668.514 115.833 665.228 113.98 Q661.967 112.152 661.967 109.41 M664.611 109.41 Q664.611 111.485 667.056 113.066 Q669.502 114.672 673.207 114.672 Q676.839 114.672 679.284 113.091 Q681.755 111.534 681.755 109.41 Q681.755 107.903 680.89 106.94 Q680.026 105.976 678.247 105.581 Q676.493 105.21 675.258 105.136 Q674.023 105.062 671.75 105.062 L668.761 105.062 Q667.032 105.161 665.821 106.421 Q664.611 107.681 664.611 109.41 M667.377 90.4872 Q667.377 96.7124 671.799 96.7124 Q674.023 96.7124 675.381 94.6867 Q676.196 93.3281 676.196 90.4378 Q676.196 84.2125 671.799 84.2125 Q669.576 84.2125 668.193 86.2382 Q667.377 87.5969 667.377 90.4872 Z" fill="#000000" fill-rule="nonzero" fill-opacity="1" /><path clip-path="url(#clip690)" d="M687.264 94.2668 Q687.264 89.499 690.327 86.1147 Q693.39 82.7303 697.787 82.7303 Q702.234 82.7303 704.531 85.6206 Q706.853 88.5109 706.853 92.6611 Q706.853 93.4269 706.656 93.5751 Q706.458 93.7233 705.593 93.7233 L691.463 93.7233 Q691.463 98.8863 692.995 101.307 Q695.119 104.692 698.701 104.692 Q699.195 104.692 699.788 104.593 Q700.381 104.494 701.592 104.074 Q702.802 103.629 703.864 102.468 Q704.927 101.307 705.544 99.4792 Q705.692 98.7628 706.186 98.7875 Q706.853 98.7875 706.853 99.3804 Q706.853 99.825 706.359 100.838 Q705.89 101.826 704.976 103.012 Q704.062 104.198 702.283 105.087 Q700.529 105.976 698.405 105.976 Q693.958 105.976 690.599 102.617 Q687.264 99.2322 687.264 94.2668 M691.513 92.6611 L703.518 92.6611 Q703.518 91.5988 703.321 90.4131 Q703.148 89.2273 702.604 87.5969 Q702.086 85.9418 700.85 84.9042 Q699.615 83.8667 697.787 83.8667 Q696.972 83.8667 696.083 84.2125 Q695.218 84.5584 694.156 85.3983 Q693.094 86.2382 692.352 88.1404 Q691.611 90.0425 691.513 92.6611 Z" fill="#000000" fill-rule="nonzero" fill-opacity="1" /><path clip-path="url(#clip690)" d="M709.941 105.408 L709.941 103.852 Q712.634 103.852 713.252 103.531 Q713.869 103.185 713.869 101.554 L713.869 87.9921 Q713.869 86.1147 713.202 85.6453 Q712.56 85.1759 709.941 85.1759 L709.941 83.5949 L717.056 83.0515 L717.056 88.3627 Q719.427 83.0515 724.541 83.0515 Q728.345 83.0515 729.852 84.9289 Q730.964 86.1888 731.186 87.5969 Q731.433 89.005 731.433 92.6611 L731.433 102.32 Q731.483 103.382 732.298 103.629 Q733.113 103.852 735.386 103.852 L735.386 105.408 Q730.223 105.26 729.704 105.26 Q729.309 105.26 723.997 105.408 L723.997 103.852 Q726.69 103.852 727.308 103.531 Q727.95 103.185 727.95 101.554 L727.95 89.7708 Q727.95 87.2016 727.16 85.6947 Q726.369 84.1631 724.195 84.1631 Q721.577 84.1631 719.477 86.3617 Q717.377 88.5603 717.377 92.2658 L717.377 101.554 Q717.377 103.185 717.995 103.531 Q718.637 103.852 721.305 103.852 L721.305 105.408 Q716.142 105.26 715.648 105.26 Q715.253 105.26 709.941 105.408 Z" fill="#000000" fill-rule="nonzero" fill-opacity="1" /><path clip-path="url(#clip690)" d="M758.138 102.641 Q754.926 99.2816 754.926 94.4891 Q754.926 89.672 758.088 86.2135 Q761.25 82.7303 765.894 82.7303 Q768.982 82.7303 771.304 84.2125 Q773.627 85.67 773.627 88.1651 Q773.627 89.2767 772.96 89.919 Q772.317 90.5366 771.304 90.5366 Q770.242 90.5366 769.6 89.8943 Q768.982 89.2273 768.982 88.2145 Q768.982 87.7698 769.131 87.3251 Q769.279 86.8805 769.822 86.4111 Q770.39 85.9418 771.354 85.8676 Q769.55 84.0149 766.043 84.0149 Q765.993 84.0149 765.944 84.0149 Q763.375 84.0149 761.25 86.4358 Q759.126 88.8567 759.126 94.3903 Q759.126 97.2806 759.817 99.4051 Q760.534 101.505 761.695 102.592 Q762.856 103.679 763.992 104.198 Q765.129 104.692 766.24 104.692 Q771.206 104.692 772.885 99.3804 Q773.034 98.8863 773.528 98.8863 Q774.195 98.8863 774.195 99.3804 Q774.195 99.6274 773.997 100.27 Q773.799 100.912 773.182 101.925 Q772.564 102.938 771.675 103.827 Q770.81 104.692 769.254 105.334 Q767.722 105.976 765.796 105.976 Q761.349 105.976 758.138 102.641 Z" fill="#000000" fill-rule="nonzero" fill-opacity="1" /><path clip-path="url(#clip690)" d="M775.875 105.408 L775.875 103.852 Q778.567 103.852 779.185 103.531 Q779.802 103.185 779.802 101.554 L779.802 75.2452 Q779.802 73.3677 779.135 72.8984 Q778.493 72.429 775.875 72.429 L775.875 70.848 L783.137 70.3045 L783.137 87.8933 L783.187 87.8933 Q784.002 86.0653 785.83 84.5584 Q787.658 83.0515 790.474 83.0515 Q794.279 83.0515 795.785 84.9289 Q796.897 86.1888 797.119 87.5969 Q797.366 89.005 797.366 92.6611 L797.366 102.32 Q797.416 103.382 798.231 103.629 Q799.046 103.852 801.319 103.852 L801.319 105.408 Q796.156 105.26 795.637 105.26 Q795.242 105.26 789.931 105.408 L789.931 103.852 Q792.623 103.852 793.241 103.531 Q793.883 103.185 793.883 101.554 L793.883 89.7708 Q793.883 87.2016 793.093 85.6947 Q792.302 84.1631 790.128 84.1631 Q787.51 84.1631 785.41 86.3617 Q783.31 88.5603 783.31 92.2658 L783.31 101.554 Q783.31 103.185 783.928 103.531 Q784.57 103.852 787.238 103.852 L787.238 105.408 Q782.075 105.26 781.581 105.26 Q781.186 105.26 775.875 105.408 Z" fill="#000000" fill-rule="nonzero" fill-opacity="1" /><path clip-path="url(#clip690)" d="M804.432 100.591 Q804.432 96.2925 809.496 94.0198 Q812.534 92.5623 818.809 92.1917 L818.809 90.339 Q818.809 87.2016 817.154 85.5465 Q815.523 83.8667 813.448 83.8667 Q809.743 83.8667 807.964 86.1888 Q809.471 86.2382 810.015 87.004 Q810.558 87.7451 810.558 88.5109 Q810.558 89.5237 809.916 90.1907 Q809.298 90.833 808.236 90.833 Q807.223 90.833 806.556 90.2154 Q805.889 89.5731 805.889 88.4615 Q805.889 85.9912 808.112 84.3607 Q810.36 82.7303 813.547 82.7303 Q817.697 82.7303 820.464 85.5218 Q821.329 86.3864 821.749 87.4981 Q822.193 88.6097 822.243 89.3508 Q822.292 90.0672 822.292 91.5 L822.292 101.604 Q822.292 101.9 822.391 102.394 Q822.49 102.888 822.934 103.531 Q823.404 104.148 824.17 104.148 Q825.998 104.148 825.973 100.912 L825.973 98.0711 L827.258 98.0711 L827.258 100.912 Q827.258 103.605 825.825 104.667 Q824.417 105.704 823.107 105.704 Q821.428 105.704 820.365 104.469 Q819.303 103.234 819.155 101.554 Q818.389 103.481 816.635 104.741 Q814.906 105.976 812.534 105.976 Q810.706 105.976 808.977 105.507 Q807.273 105.062 805.84 103.802 Q804.432 102.518 804.432 100.591 M808.335 100.541 Q808.335 102.419 809.669 103.629 Q811.003 104.84 812.88 104.84 Q815.005 104.84 816.907 103.209 Q818.809 101.554 818.809 98.3181 L818.809 93.2539 Q813.201 93.4516 810.756 95.6996 Q808.335 97.9229 808.335 100.541 Z" fill="#000000" fill-rule="nonzero" fill-opacity="1" /><path clip-path="url(#clip690)" d="M829.283 105.408 L829.283 103.852 Q831.976 103.852 832.593 103.531 Q833.211 103.185 833.211 101.554 L833.211 87.9427 Q833.211 86.0653 832.569 85.6206 Q831.951 85.1759 829.481 85.1759 L829.481 83.5949 L836.546 83.0515 L836.546 101.604 Q836.546 103.111 837.089 103.481 Q837.633 103.852 840.103 103.852 L840.103 105.408 Q834.94 105.26 834.841 105.26 Q834.15 105.26 829.283 105.408 M831.408 74.2324 Q831.408 73.2195 832.174 72.4043 Q832.964 71.5644 834.076 71.5644 Q835.187 71.5644 835.978 72.3302 Q836.768 73.0713 836.768 74.2571 Q836.768 75.4181 835.978 76.1839 Q835.187 76.925 834.076 76.925 Q832.915 76.925 832.149 76.1098 Q831.408 75.2946 831.408 74.2324 Z" fill="#000000" fill-rule="nonzero" fill-opacity="1" /><path clip-path="url(#clip690)" d="M843.241 105.408 L843.241 103.852 Q845.933 103.852 846.551 103.531 Q847.168 103.185 847.168 101.554 L847.168 87.9921 Q847.168 86.1147 846.501 85.6453 Q845.859 85.1759 843.241 85.1759 L843.241 83.5949 L850.355 83.0515 L850.355 88.3627 Q852.727 83.0515 857.84 83.0515 Q861.645 83.0515 863.152 84.9289 Q864.263 86.1888 864.486 87.5969 Q864.733 89.005 864.733 92.6611 L864.733 102.32 Q864.782 103.382 865.597 103.629 Q866.412 103.852 868.685 103.852 L868.685 105.408 Q863.522 105.26 863.003 105.26 Q862.608 105.26 857.297 105.408 L857.297 103.852 Q859.989 103.852 860.607 103.531 Q861.249 103.185 861.249 101.554 L861.249 89.7708 Q861.249 87.2016 860.459 85.6947 Q859.668 84.1631 857.494 84.1631 Q854.876 84.1631 852.776 86.3617 Q850.676 88.5603 850.676 92.2658 L850.676 101.554 Q850.676 103.185 851.294 103.531 Q851.936 103.852 854.604 103.852 L854.604 105.408 Q849.441 105.26 848.947 105.26 Q848.552 105.26 843.241 105.408 Z" fill="#000000" fill-rule="nonzero" fill-opacity="1" /><circle clip-path="url(#clip692)" cx="338.501" cy="208.285" r="10.8" fill="#009af9" fill-rule="evenodd" fill-opacity="1" stroke="#000000" stroke-opacity="1" stroke-width="2.4"/>
<circle clip-path="url(#clip692)" cx="498.202" cy="804.531" r="10.8" fill="#009af9" fill-rule="evenodd" fill-opacity="1" stroke="#000000" stroke-opacity="1" stroke-width="2.4"/>
<circle clip-path="url(#clip692)" cx="657.904" cy="899.406" r="10.8" fill="#009af9" fill-rule="evenodd" fill-opacity="1" stroke="#000000" stroke-opacity="1" stroke-width="2.4"/>
<circle clip-path="url(#clip692)" cx="817.605" cy="899.259" r="10.8" fill="#009af9" fill-rule="evenodd" fill-opacity="1" stroke="#000000" stroke-opacity="1" stroke-width="2.4"/>
<circle clip-path="url(#clip692)" cx="977.306" cy="969.11" r="10.8" fill="#009af9" fill-rule="evenodd" fill-opacity="1" stroke="#000000" stroke-opacity="1" stroke-width="2.4"/>
<path clip-path="url(#clip690)" d="M853.64 298.841 L1105.07 298.841 L1105.07 195.161 L853.64 195.161  Z" fill="#ffffff" fill-rule="evenodd" fill-opacity="1"/>
<polyline clip-path="url(#clip690)" style="stroke:#000000; stroke-linecap:round; stroke-linejoin:round; stroke-width:4; stroke-opacity:1; fill:none" points="853.64,298.841 1105.07,298.841 1105.07,195.161 853.64,195.161 853.64,298.841 "/>
<circle clip-path="url(#clip690)" cx="896.227" cy="247.001" r="19.7486" fill="#009af9" fill-rule="evenodd" fill-opacity="1" stroke="#000000" stroke-opacity="1" stroke-width="4.38857"/>
<path clip-path="url(#clip690)" d="M942.149 261.563 Q938.814 258.253 938.814 253.461 Q938.814 248.643 942.075 245.136 Q945.361 241.603 950.054 241.603 Q954.649 241.603 957.935 245.111 Q961.245 248.594 961.245 253.461 Q961.245 258.228 957.91 261.539 Q954.6 264.849 950.005 264.849 Q945.509 264.849 942.149 261.563 M943.014 253.041 Q943.014 257.957 944.299 260.18 Q946.275 263.564 950.054 263.564 Q951.932 263.564 953.488 262.551 Q955.069 261.539 955.934 259.834 Q957.045 257.611 957.045 253.041 Q957.045 248.174 955.711 246.025 Q953.735 242.739 950.005 242.739 Q948.375 242.739 946.769 243.604 Q945.188 244.444 944.224 246.124 Q943.014 248.347 943.014 253.041 Z" fill="#000000" fill-rule="nonzero" fill-opacity="1" /><path clip-path="url(#clip690)" d="M962.258 244.049 L962.258 242.468 Q964.531 242.616 967.174 242.616 Q968.137 242.616 972.683 242.468 L972.683 244.049 Q969.792 244.049 969.792 245.358 Q969.792 245.556 970.089 246.222 L975.771 260.328 L980.934 247.433 Q981.23 246.568 981.23 246.222 Q981.23 245.358 980.637 244.74 Q980.069 244.098 978.809 244.049 L978.809 242.468 Q981.378 242.616 983.206 242.616 Q985.281 242.616 986.986 242.468 L986.986 244.049 Q985.479 244.049 984.417 244.74 Q983.355 245.407 983.009 246 Q982.688 246.568 982.342 247.433 L975.721 263.885 Q975.326 264.849 974.659 264.849 Q974.214 264.849 974.017 264.651 Q973.844 264.478 973.597 263.885 L966.309 245.926 Q965.815 244.666 965.173 244.37 Q964.531 244.049 962.258 244.049 Z" fill="#000000" fill-rule="nonzero" fill-opacity="1" /><path clip-path="url(#clip690)" d="M987.949 253.139 Q987.949 248.372 991.013 244.987 Q994.076 241.603 998.473 241.603 Q1002.92 241.603 1005.22 244.493 Q1007.54 247.384 1007.54 251.534 Q1007.54 252.3 1007.34 252.448 Q1007.14 252.596 1006.28 252.596 L992.149 252.596 Q992.149 257.759 993.681 260.18 Q995.805 263.564 999.387 263.564 Q999.881 263.564 1000.47 263.465 Q1001.07 263.367 1002.28 262.947 Q1003.49 262.502 1004.55 261.341 Q1005.61 260.18 1006.23 258.352 Q1006.38 257.635 1006.87 257.66 Q1007.54 257.66 1007.54 258.253 Q1007.54 258.698 1007.05 259.711 Q1006.58 260.699 1005.66 261.884 Q1004.75 263.07 1002.97 263.96 Q1001.22 264.849 999.091 264.849 Q994.644 264.849 991.284 261.489 Q987.949 258.105 987.949 253.139 M992.198 251.534 L1004.2 251.534 Q1004.2 250.471 1004.01 249.286 Q1003.83 248.1 1003.29 246.47 Q1002.77 244.814 1001.54 243.777 Q1000.3 242.739 998.473 242.739 Q997.658 242.739 996.768 243.085 Q995.904 243.431 994.842 244.271 Q993.779 245.111 993.038 247.013 Q992.297 248.915 992.198 251.534 Z" fill="#000000" fill-rule="nonzero" fill-opacity="1" /><path clip-path="url(#clip690)" d="M1010.4 264.281 L1010.4 262.724 Q1013.1 262.724 1013.71 262.403 Q1014.36 262.057 1014.36 260.427 L1014.36 246.865 Q1014.36 244.987 1013.69 244.518 Q1013.05 244.049 1010.4 244.049 L1010.4 242.468 L1017.45 241.924 L1017.45 247.482 Q1018.16 245.308 1019.67 243.629 Q1021.2 241.924 1023.67 241.924 Q1025.3 241.924 1026.34 242.838 Q1027.4 243.752 1027.4 245.012 Q1027.4 246.124 1026.71 246.692 Q1026.04 247.235 1025.23 247.235 Q1024.31 247.235 1023.67 246.667 Q1023.05 246.074 1023.05 245.061 Q1023.05 244.444 1023.32 243.974 Q1023.62 243.48 1023.84 243.307 Q1024.07 243.135 1024.21 243.085 Q1024.12 243.036 1023.67 243.036 Q1020.88 243.036 1019.27 245.827 Q1017.69 248.594 1017.69 252.547 L1017.69 260.328 Q1017.69 261.786 1018.29 262.255 Q1018.9 262.724 1021.55 262.724 L1022.61 262.724 L1022.61 264.281 Q1020.58 264.132 1016.19 264.132 Q1015.57 264.132 1014.6 264.157 Q1013.64 264.182 1012.38 264.231 Q1011.12 264.281 1010.4 264.281 Z" fill="#000000" fill-rule="nonzero" fill-opacity="1" /><path clip-path="url(#clip690)" d="M1030.44 264.281 L1030.44 262.724 Q1033.13 262.724 1033.75 262.403 Q1034.37 262.057 1034.37 260.427 L1034.37 234.118 Q1034.37 232.24 1033.7 231.771 Q1033.06 231.302 1030.44 231.302 L1030.44 229.721 L1037.7 229.177 L1037.7 260.427 Q1037.7 262.057 1038.34 262.403 Q1038.99 262.724 1041.65 262.724 L1041.65 264.281 Q1041.04 264.281 1039.75 264.231 Q1038.47 264.182 1037.53 264.157 Q1036.59 264.132 1036.05 264.132 Q1035.45 264.132 1030.44 264.281 Z" fill="#000000" fill-rule="nonzero" fill-opacity="1" /><path clip-path="url(#clip690)" d="M1044.89 259.463 Q1044.89 255.165 1049.95 252.892 Q1052.99 251.435 1059.27 251.064 L1059.27 249.212 Q1059.27 246.074 1057.61 244.419 Q1055.98 242.739 1053.91 242.739 Q1050.2 242.739 1048.42 245.061 Q1049.93 245.111 1050.47 245.877 Q1051.02 246.618 1051.02 247.384 Q1051.02 248.396 1050.37 249.063 Q1049.76 249.706 1048.69 249.706 Q1047.68 249.706 1047.02 249.088 Q1046.35 248.446 1046.35 247.334 Q1046.35 244.864 1048.57 243.233 Q1050.82 241.603 1054.01 241.603 Q1058.16 241.603 1060.92 244.394 Q1061.79 245.259 1062.21 246.371 Q1062.65 247.482 1062.7 248.223 Q1062.75 248.94 1062.75 250.373 L1062.75 260.476 Q1062.75 260.773 1062.85 261.267 Q1062.95 261.761 1063.39 262.403 Q1063.86 263.021 1064.63 263.021 Q1066.46 263.021 1066.43 259.785 L1066.43 256.944 L1067.72 256.944 L1067.72 259.785 Q1067.72 262.477 1066.28 263.54 Q1064.88 264.577 1063.57 264.577 Q1061.89 264.577 1060.82 263.342 Q1059.76 262.107 1059.61 260.427 Q1058.85 262.354 1057.09 263.614 Q1055.36 264.849 1052.99 264.849 Q1051.17 264.849 1049.44 264.379 Q1047.73 263.935 1046.3 262.675 Q1044.89 261.39 1044.89 259.463 M1048.79 259.414 Q1048.79 261.292 1050.13 262.502 Q1051.46 263.712 1053.34 263.712 Q1055.46 263.712 1057.37 262.082 Q1059.27 260.427 1059.27 257.191 L1059.27 252.127 Q1053.66 252.324 1051.21 254.572 Q1048.79 256.796 1048.79 259.414 Z" fill="#000000" fill-rule="nonzero" fill-opacity="1" /><path clip-path="url(#clip690)" d="M1069.47 272.532 Q1072.16 272.532 1072.78 272.186 Q1073.42 271.865 1073.42 270.259 L1073.42 246.568 Q1073.42 244.889 1072.78 244.469 Q1072.16 244.049 1069.47 244.049 L1069.47 242.468 L1076.76 241.924 L1076.76 245.259 Q1079.8 241.924 1083.85 241.924 Q1088.15 241.924 1091.28 245.259 Q1094.42 248.594 1094.42 253.362 Q1094.42 258.179 1091.09 261.514 Q1087.75 264.849 1083.13 264.849 Q1080.61 264.849 1078.91 263.564 Q1077.23 262.255 1076.91 261.292 L1076.91 261.761 L1076.91 270.259 Q1076.91 271.889 1077.55 272.21 Q1078.19 272.532 1080.86 272.532 L1080.86 274.088 Q1075.55 273.94 1075.15 273.94 Q1074.66 273.94 1069.47 274.088 L1069.47 272.532 M1076.91 258.525 Q1076.91 259.291 1077 259.562 Q1077.13 259.834 1077.62 260.649 Q1079.62 263.712 1082.88 263.712 Q1082.91 263.712 1082.93 263.712 Q1085.82 263.712 1088.02 260.773 Q1090.22 257.808 1090.22 253.362 Q1090.22 249.113 1088.22 246.148 Q1086.22 243.184 1083.45 243.184 Q1081.48 243.184 1079.75 244.246 Q1078.02 245.308 1076.91 247.235 L1076.91 258.525 Z" fill="#000000" fill-rule="nonzero" fill-opacity="1" /><path clip-path="url(#clip690)" d="M139.857 135.158 Q139.623 135.439 139.201 135.439 Q138.803 135.439 138.522 135.158 L128.591 125.227 L118.66 135.158 Q118.379 135.439 117.957 135.439 Q117.559 135.439 117.301 135.158 Q117.02 134.901 117.02 134.502 Q117.02 134.104 117.301 133.823 L127.232 123.892 L117.301 113.961 Q117.02 113.68 117.02 113.282 Q117.02 112.86 117.301 112.626 Q117.559 112.345 117.957 112.345 Q118.379 112.345 118.66 112.626 L128.591 122.557 L138.522 112.626 Q138.803 112.345 139.201 112.345 Q139.623 112.345 139.857 112.626 Q140.138 112.86 140.138 113.282 Q140.138 113.68 139.857 113.961 L129.926 123.892 L139.857 133.823 Q140.138 134.104 140.138 134.526 Q140.138 134.924 139.857 135.158 Z" fill="#000000" fill-rule="nonzero" fill-opacity="1" /><path clip-path="url(#clip690)" d="M144.098 108.504 L144.098 107.004 Q149.86 107.004 152.834 103.936 Q153.654 103.936 153.794 104.124 Q153.935 104.311 153.935 105.178 L153.935 132.09 Q153.935 133.519 154.638 133.964 Q155.34 134.409 158.409 134.409 L159.931 134.409 L159.931 135.884 Q158.245 135.744 152.155 135.744 Q146.065 135.744 144.402 135.884 L144.402 134.409 L145.925 134.409 Q148.946 134.409 149.672 133.987 Q150.398 133.542 150.398 132.09 L150.398 107.239 Q147.892 108.504 144.098 108.504 Z" fill="#000000" fill-rule="nonzero" fill-opacity="1" /><path clip-path="url(#clip690)" d="M167.851 120.543 Q167.851 113.493 169.632 109.651 Q172.114 103.936 177.97 103.936 Q179.211 103.936 180.5 104.287 Q181.811 104.615 183.451 105.904 Q185.114 107.192 186.121 109.3 Q188.042 113.375 188.042 120.543 Q188.042 127.546 186.262 131.364 Q183.662 136.938 177.923 136.938 Q175.768 136.938 173.567 135.838 Q171.388 134.737 170.006 132.09 Q167.851 128.132 167.851 120.543 M171.833 119.957 Q171.833 127.195 172.349 130.076 Q172.934 133.191 174.527 134.549 Q176.143 135.884 177.923 135.884 Q179.844 135.884 181.437 134.456 Q183.053 133.003 183.545 129.888 Q184.083 126.82 184.06 119.957 Q184.06 113.282 183.591 110.612 Q182.959 107.496 181.273 106.255 Q179.61 104.99 177.923 104.99 Q177.291 104.99 176.611 105.178 Q175.956 105.365 174.995 105.904 Q174.035 106.442 173.285 107.777 Q172.559 109.113 172.208 111.127 Q171.833 113.727 171.833 119.957 Z" fill="#000000" fill-rule="nonzero" fill-opacity="1" /><path clip-path="url(#clip690)" d="M215.131 102.018 Q215.327 102.215 215.327 102.494 Q215.327 102.772 215.131 102.969 Q214.934 103.166 214.655 103.166 L193.636 103.166 Q193.357 103.166 193.16 102.969 Q192.964 102.772 192.964 102.494 Q192.964 102.215 193.16 102.018 Q193.357 101.821 193.636 101.821 L214.655 101.821 Q214.934 101.821 215.131 102.018 Z" fill="#000000" fill-rule="nonzero" fill-opacity="1" /><path clip-path="url(#clip690)" d="M218.831 110.888 Q218.831 110.282 218.88 110.101 Q218.946 109.921 219.208 109.642 L225.651 102.461 Q229.177 98.4931 229.177 95.0336 Q229.177 92.7874 227.996 91.1806 Q226.832 89.5739 224.684 89.5739 Q223.208 89.5739 221.962 90.4756 Q220.716 91.3774 220.143 92.9842 Q220.241 92.9514 220.585 92.9514 Q221.421 92.9514 221.88 93.476 Q222.356 94.0007 222.356 94.7057 Q222.356 95.6075 221.766 96.0502 Q221.192 96.4764 220.618 96.4764 Q220.388 96.4764 220.077 96.4273 Q219.782 96.3781 219.306 95.919 Q218.831 95.4435 218.831 94.6073 Q218.831 92.2627 220.602 90.3936 Q222.389 88.5245 225.11 88.5245 Q228.193 88.5245 230.209 90.3608 Q232.243 92.1808 232.243 95.0336 Q232.243 96.0338 231.931 96.9519 Q231.636 97.8537 231.226 98.5587 Q230.833 99.2637 229.75 100.395 Q228.668 101.526 227.799 102.33 Q226.93 103.133 224.979 104.838 L221.421 108.298 L227.471 108.298 Q230.423 108.298 230.652 108.035 Q230.98 107.56 231.39 105.051 L232.243 105.051 L231.292 110.888 L218.831 110.888 Z" fill="#000000" fill-rule="nonzero" fill-opacity="1" /></svg>
