<?xml version="1.0" encoding="utf-8"?>
<svg xmlns="http://www.w3.org/2000/svg" xmlns:xlink="http://www.w3.org/1999/xlink" width="600" height="400" viewBox="0 0 2400 1600">
<defs>
  <clipPath id="clip910">
    <rect x="0" y="0" width="2400" height="1600"/>
  </clipPath>
</defs>
<path clip-path="url(#clip910)" d="
M0 1600 L2400 1600 L2400 0 L0 0  Z
  " fill="#ffffff" fill-rule="evenodd" fill-opacity="1"/>
<defs>
  <clipPath id="clip911">
    <rect x="480" y="0" width="1681" height="1600"/>
  </clipPath>
</defs>
<path clip-path="url(#clip910)" d="
M280.19 1423.18 L2352.76 1423.18 L2352.76 123.472 L280.19 123.472  Z
  " fill="#ffffff" fill-rule="evenodd" fill-opacity="1"/>
<defs>
  <clipPath id="clip912">
    <rect x="280" y="123" width="2074" height="1301"/>
  </clipPath>
</defs>
<polyline clip-path="url(#clip912)" style="stroke:#000000; stroke-linecap:round; stroke-linejoin:round; stroke-width:2; stroke-opacity:0.1; fill:none" points="
  298.113,1423.18 298.113,123.472 
  "/>
<polyline clip-path="url(#clip912)" style="stroke:#000000; stroke-linecap:round; stroke-linejoin:round; stroke-width:2; stroke-opacity:0.1; fill:none" points="
  705.457,1423.18 705.457,123.472 
  "/>
<polyline clip-path="url(#clip912)" style="stroke:#000000; stroke-linecap:round; stroke-linejoin:round; stroke-width:2; stroke-opacity:0.1; fill:none" points="
  1112.8,1423.18 1112.8,123.472 
  "/>
<polyline clip-path="url(#clip912)" style="stroke:#000000; stroke-linecap:round; stroke-linejoin:round; stroke-width:2; stroke-opacity:0.1; fill:none" points="
  1520.14,1423.18 1520.14,123.472 
  "/>
<polyline clip-path="url(#clip912)" style="stroke:#000000; stroke-linecap:round; stroke-linejoin:round; stroke-width:2; stroke-opacity:0.1; fill:none" points="
  1927.49,1423.18 1927.49,123.472 
  "/>
<polyline clip-path="url(#clip912)" style="stroke:#000000; stroke-linecap:round; stroke-linejoin:round; stroke-width:2; stroke-opacity:0.1; fill:none" points="
  2334.83,1423.18 2334.83,123.472 
  "/>
<polyline clip-path="url(#clip910)" style="stroke:#000000; stroke-linecap:round; stroke-linejoin:round; stroke-width:4; stroke-opacity:1; fill:none" points="
  280.19,1423.18 2352.76,1423.18 
  "/>
<polyline clip-path="url(#clip910)" style="stroke:#000000; stroke-linecap:round; stroke-linejoin:round; stroke-width:4; stroke-opacity:1; fill:none" points="
  298.113,1423.18 298.113,1404.28 
  "/>
<polyline clip-path="url(#clip910)" style="stroke:#000000; stroke-linecap:round; stroke-linejoin:round; stroke-width:4; stroke-opacity:1; fill:none" points="
  705.457,1423.18 705.457,1404.28 
  "/>
<polyline clip-path="url(#clip910)" style="stroke:#000000; stroke-linecap:round; stroke-linejoin:round; stroke-width:4; stroke-opacity:1; fill:none" points="
  1112.8,1423.18 1112.8,1404.28 
  "/>
<polyline clip-path="url(#clip910)" style="stroke:#000000; stroke-linecap:round; stroke-linejoin:round; stroke-width:4; stroke-opacity:1; fill:none" points="
  1520.14,1423.18 1520.14,1404.28 
  "/>
<polyline clip-path="url(#clip910)" style="stroke:#000000; stroke-linecap:round; stroke-linejoin:round; stroke-width:4; stroke-opacity:1; fill:none" points="
  1927.49,1423.18 1927.49,1404.28 
  "/>
<polyline clip-path="url(#clip910)" style="stroke:#000000; stroke-linecap:round; stroke-linejoin:round; stroke-width:4; stroke-opacity:1; fill:none" points="
  2334.83,1423.18 2334.83,1404.28 
  "/>
<path clip-path="url(#clip910)" d="M298.113 1454.1 Q294.502 1454.1 292.673 1457.66 Q290.868 1461.2 290.868 1468.33 Q290.868 1475.44 292.673 1479.01 Q294.502 1482.55 298.113 1482.55 Q301.747 1482.55 303.553 1479.01 Q305.382 1475.44 305.382 1468.33 Q305.382 1461.2 303.553 1457.66 Q301.747 1454.1 298.113 1454.1 M298.113 1450.39 Q303.923 1450.39 306.979 1455 Q310.058 1459.58 310.058 1468.33 Q310.058 1477.06 306.979 1481.67 Q303.923 1486.25 298.113 1486.25 Q292.303 1486.25 289.224 1481.67 Q286.169 1477.06 286.169 1468.33 Q286.169 1459.58 289.224 1455 Q292.303 1450.39 298.113 1450.39 Z" fill="#000000" fill-rule="evenodd" fill-opacity="1" /><path clip-path="url(#clip910)" d="M680.145 1481.64 L687.784 1481.64 L687.784 1455.28 L679.473 1456.95 L679.473 1452.69 L687.737 1451.02 L692.413 1451.02 L692.413 1481.64 L700.052 1481.64 L700.052 1485.58 L680.145 1485.58 L680.145 1481.64 Z" fill="#000000" fill-rule="evenodd" fill-opacity="1" /><path clip-path="url(#clip910)" d="M719.496 1454.1 Q715.885 1454.1 714.057 1457.66 Q712.251 1461.2 712.251 1468.33 Q712.251 1475.44 714.057 1479.01 Q715.885 1482.55 719.496 1482.55 Q723.131 1482.55 724.936 1479.01 Q726.765 1475.44 726.765 1468.33 Q726.765 1461.2 724.936 1457.66 Q723.131 1454.1 719.496 1454.1 M719.496 1450.39 Q725.307 1450.39 728.362 1455 Q731.441 1459.58 731.441 1468.33 Q731.441 1477.06 728.362 1481.67 Q725.307 1486.25 719.496 1486.25 Q713.686 1486.25 710.608 1481.67 Q707.552 1477.06 707.552 1468.33 Q707.552 1459.58 710.608 1455 Q713.686 1450.39 719.496 1450.39 Z" fill="#000000" fill-rule="evenodd" fill-opacity="1" /><path clip-path="url(#clip910)" d="M1091.57 1481.64 L1107.89 1481.64 L1107.89 1485.58 L1085.95 1485.58 L1085.95 1481.64 Q1088.61 1478.89 1093.19 1474.26 Q1097.8 1469.61 1098.98 1468.27 Q1101.23 1465.74 1102.11 1464.01 Q1103.01 1462.25 1103.01 1460.56 Q1103.01 1457.8 1101.06 1456.07 Q1099.14 1454.33 1096.04 1454.33 Q1093.84 1454.33 1091.39 1455.09 Q1088.96 1455.86 1086.18 1457.41 L1086.18 1452.69 Q1089 1451.55 1091.46 1450.97 Q1093.91 1450.39 1095.95 1450.39 Q1101.32 1450.39 1104.51 1453.08 Q1107.71 1455.77 1107.71 1460.26 Q1107.71 1462.39 1106.9 1464.31 Q1106.11 1466.2 1104 1468.8 Q1103.43 1469.47 1100.32 1472.69 Q1097.22 1475.88 1091.57 1481.64 Z" fill="#000000" fill-rule="evenodd" fill-opacity="1" /><path clip-path="url(#clip910)" d="M1127.71 1454.1 Q1124.1 1454.1 1122.27 1457.66 Q1120.46 1461.2 1120.46 1468.33 Q1120.46 1475.44 1122.27 1479.01 Q1124.1 1482.55 1127.71 1482.55 Q1131.34 1482.55 1133.15 1479.01 Q1134.98 1475.44 1134.98 1468.33 Q1134.98 1461.2 1133.15 1457.66 Q1131.34 1454.1 1127.71 1454.1 M1127.71 1450.39 Q1133.52 1450.39 1136.57 1455 Q1139.65 1459.58 1139.65 1468.33 Q1139.65 1477.06 1136.57 1481.67 Q1133.52 1486.25 1127.71 1486.25 Q1121.9 1486.25 1118.82 1481.67 Q1115.76 1477.06 1115.76 1468.33 Q1115.76 1459.58 1118.82 1455 Q1121.9 1450.39 1127.71 1450.39 Z" fill="#000000" fill-rule="evenodd" fill-opacity="1" /><path clip-path="url(#clip910)" d="M1508.99 1466.95 Q1512.34 1467.66 1514.22 1469.93 Q1516.12 1472.2 1516.12 1475.53 Q1516.12 1480.65 1512.6 1483.45 Q1509.08 1486.25 1502.6 1486.25 Q1500.42 1486.25 1498.11 1485.81 Q1495.82 1485.39 1493.36 1484.54 L1493.36 1480.02 Q1495.31 1481.16 1497.62 1481.74 Q1499.94 1482.32 1502.46 1482.32 Q1506.86 1482.32 1509.15 1480.58 Q1511.46 1478.84 1511.46 1475.53 Q1511.46 1472.48 1509.31 1470.77 Q1507.18 1469.03 1503.36 1469.03 L1499.33 1469.03 L1499.33 1465.19 L1503.55 1465.19 Q1507 1465.19 1508.83 1463.82 Q1510.65 1462.43 1510.65 1459.84 Q1510.65 1457.18 1508.76 1455.77 Q1506.88 1454.33 1503.36 1454.33 Q1501.44 1454.33 1499.24 1454.75 Q1497.04 1455.16 1494.4 1456.04 L1494.4 1451.88 Q1497.07 1451.14 1499.38 1450.77 Q1501.72 1450.39 1503.78 1450.39 Q1509.1 1450.39 1512.21 1452.83 Q1515.31 1455.23 1515.31 1459.35 Q1515.31 1462.22 1513.66 1464.21 Q1512.02 1466.18 1508.99 1466.95 Z" fill="#000000" fill-rule="evenodd" fill-opacity="1" /><path clip-path="url(#clip910)" d="M1534.98 1454.1 Q1531.37 1454.1 1529.54 1457.66 Q1527.74 1461.2 1527.74 1468.33 Q1527.74 1475.44 1529.54 1479.01 Q1531.37 1482.55 1534.98 1482.55 Q1538.62 1482.55 1540.42 1479.01 Q1542.25 1475.44 1542.25 1468.33 Q1542.25 1461.2 1540.42 1457.66 Q1538.62 1454.1 1534.98 1454.1 M1534.98 1450.39 Q1540.79 1450.39 1543.85 1455 Q1546.93 1459.58 1546.93 1468.33 Q1546.93 1477.06 1543.85 1481.67 Q1540.79 1486.25 1534.98 1486.25 Q1529.17 1486.25 1526.09 1481.67 Q1523.04 1477.06 1523.04 1468.33 Q1523.04 1459.58 1526.09 1455 Q1529.17 1450.39 1534.98 1450.39 Z" fill="#000000" fill-rule="evenodd" fill-opacity="1" /><path clip-path="url(#clip910)" d="M1915.66 1455.09 L1903.85 1473.54 L1915.66 1473.54 L1915.66 1455.09 M1914.43 1451.02 L1920.31 1451.02 L1920.31 1473.54 L1925.24 1473.54 L1925.24 1477.43 L1920.31 1477.43 L1920.31 1485.58 L1915.66 1485.58 L1915.66 1477.43 L1900.06 1477.43 L1900.06 1472.92 L1914.43 1451.02 Z" fill="#000000" fill-rule="evenodd" fill-opacity="1" /><path clip-path="url(#clip910)" d="M1942.97 1454.1 Q1939.36 1454.1 1937.54 1457.66 Q1935.73 1461.2 1935.73 1468.33 Q1935.73 1475.44 1937.54 1479.01 Q1939.36 1482.55 1942.97 1482.55 Q1946.61 1482.55 1948.41 1479.01 Q1950.24 1475.44 1950.24 1468.33 Q1950.24 1461.2 1948.41 1457.66 Q1946.61 1454.1 1942.97 1454.1 M1942.97 1450.39 Q1948.79 1450.39 1951.84 1455 Q1954.92 1459.58 1954.92 1468.33 Q1954.92 1477.06 1951.84 1481.67 Q1948.79 1486.25 1942.97 1486.25 Q1937.16 1486.25 1934.09 1481.67 Q1931.03 1477.06 1931.03 1468.33 Q1931.03 1459.58 1934.09 1455 Q1937.16 1450.39 1942.97 1450.39 Z" fill="#000000" fill-rule="evenodd" fill-opacity="1" /><path clip-path="url(#clip910)" d="M2309.53 1451.02 L2327.89 1451.02 L2327.89 1454.96 L2313.81 1454.96 L2313.81 1463.43 Q2314.83 1463.08 2315.85 1462.92 Q2316.87 1462.73 2317.89 1462.73 Q2323.68 1462.73 2327.06 1465.9 Q2330.43 1469.08 2330.43 1474.49 Q2330.43 1480.07 2326.96 1483.17 Q2323.49 1486.25 2317.17 1486.25 Q2314.99 1486.25 2312.73 1485.88 Q2310.48 1485.51 2308.07 1484.77 L2308.07 1480.07 Q2310.16 1481.2 2312.38 1481.76 Q2314.6 1482.32 2317.08 1482.32 Q2321.08 1482.32 2323.42 1480.21 Q2325.76 1478.1 2325.76 1474.49 Q2325.76 1470.88 2323.42 1468.77 Q2321.08 1466.67 2317.08 1466.67 Q2315.2 1466.67 2313.33 1467.08 Q2311.48 1467.5 2309.53 1468.38 L2309.53 1451.02 Z" fill="#000000" fill-rule="evenodd" fill-opacity="1" /><path clip-path="url(#clip910)" d="M2349.65 1454.1 Q2346.04 1454.1 2344.21 1457.66 Q2342.4 1461.2 2342.4 1468.33 Q2342.4 1475.44 2344.21 1479.01 Q2346.04 1482.55 2349.65 1482.55 Q2353.28 1482.55 2355.09 1479.01 Q2356.92 1475.44 2356.92 1468.33 Q2356.92 1461.2 2355.09 1457.66 Q2353.28 1454.1 2349.65 1454.1 M2349.65 1450.39 Q2355.46 1450.39 2358.51 1455 Q2361.59 1459.58 2361.59 1468.33 Q2361.59 1477.06 2358.51 1481.67 Q2355.46 1486.25 2349.65 1486.25 Q2343.84 1486.25 2340.76 1481.67 Q2337.7 1477.06 2337.7 1468.33 Q2337.7 1459.58 2340.76 1455 Q2343.84 1450.39 2349.65 1450.39 Z" fill="#000000" fill-rule="evenodd" fill-opacity="1" /><path clip-path="url(#clip910)" d="M1145.35 1522.08 L1145.35 1528.35 Q1141.69 1526.6 1138.44 1525.74 Q1135.19 1524.88 1132.17 1524.88 Q1126.92 1524.88 1124.05 1526.92 Q1121.22 1528.96 1121.22 1532.71 Q1121.22 1535.87 1123.1 1537.49 Q1125.01 1539.08 1130.29 1540.07 L1134.18 1540.86 Q1141.37 1542.23 1144.77 1545.7 Q1148.21 1549.14 1148.21 1554.93 Q1148.21 1561.84 1143.56 1565.4 Q1138.95 1568.97 1130.01 1568.97 Q1126.63 1568.97 1122.81 1568.2 Q1119.02 1567.44 1114.95 1565.94 L1114.95 1559.32 Q1118.87 1561.52 1122.62 1562.63 Q1126.38 1563.75 1130.01 1563.75 Q1135.51 1563.75 1138.5 1561.58 Q1141.5 1559.42 1141.5 1555.41 Q1141.5 1551.91 1139.33 1549.93 Q1137.2 1547.96 1132.3 1546.97 L1128.38 1546.21 Q1121.19 1544.78 1117.97 1541.72 Q1114.76 1538.67 1114.76 1533.22 Q1114.76 1526.92 1119.18 1523.29 Q1123.64 1519.66 1131.44 1519.66 Q1134.78 1519.66 1138.25 1520.27 Q1141.72 1520.87 1145.35 1522.08 Z" fill="#000000" fill-rule="evenodd" fill-opacity="1" /><path clip-path="url(#clip910)" d="M1157.98 1532.4 L1163.84 1532.4 L1163.84 1568.04 L1157.98 1568.04 L1157.98 1532.4 M1157.98 1518.52 L1163.84 1518.52 L1163.84 1525.93 L1157.98 1525.93 L1157.98 1518.52 Z" fill="#000000" fill-rule="evenodd" fill-opacity="1" /><path clip-path="url(#clip910)" d="M1181.89 1522.27 L1181.89 1532.4 L1193.95 1532.4 L1193.95 1536.95 L1181.89 1536.95 L1181.89 1556.3 Q1181.89 1560.66 1183.06 1561.9 Q1184.27 1563.14 1187.93 1563.14 L1193.95 1563.14 L1193.95 1568.04 L1187.93 1568.04 Q1181.15 1568.04 1178.58 1565.53 Q1176 1562.98 1176 1556.3 L1176 1536.95 L1171.7 1536.95 L1171.7 1532.4 L1176 1532.4 L1176 1522.27 L1181.89 1522.27 Z" fill="#000000" fill-rule="evenodd" fill-opacity="1" /><path clip-path="url(#clip910)" d="M1232.14 1548.76 L1232.14 1551.62 L1205.22 1551.62 Q1205.6 1557.67 1208.84 1560.85 Q1212.12 1564 1217.95 1564 Q1221.32 1564 1224.47 1563.17 Q1227.66 1562.35 1230.77 1560.69 L1230.77 1566.23 Q1227.62 1567.57 1224.31 1568.27 Q1221 1568.97 1217.6 1568.97 Q1209.07 1568.97 1204.07 1564 Q1199.11 1559.04 1199.11 1550.57 Q1199.11 1541.82 1203.82 1536.69 Q1208.56 1531.54 1216.58 1531.54 Q1223.77 1531.54 1227.94 1536.18 Q1232.14 1540.8 1232.14 1548.76 M1226.29 1547.04 Q1226.22 1542.23 1223.58 1539.37 Q1220.97 1536.5 1216.64 1536.5 Q1211.74 1536.5 1208.78 1539.27 Q1205.85 1542.04 1205.41 1547.07 L1226.29 1547.04 Z" fill="#000000" fill-rule="evenodd" fill-opacity="1" /><path clip-path="url(#clip910)" d="M1262.73 1520.52 L1271.39 1520.52 L1292.46 1560.28 L1292.46 1520.52 L1298.7 1520.52 L1298.7 1568.04 L1290.04 1568.04 L1268.97 1528.29 L1268.97 1568.04 L1262.73 1568.04 L1262.73 1520.52 Z" fill="#000000" fill-rule="evenodd" fill-opacity="1" /><path clip-path="url(#clip910)" d="M1310.63 1553.98 L1310.63 1532.4 L1316.49 1532.4 L1316.49 1553.75 Q1316.49 1558.81 1318.46 1561.36 Q1320.44 1563.87 1324.38 1563.87 Q1329.12 1563.87 1331.86 1560.85 Q1334.63 1557.83 1334.63 1552.61 L1334.63 1532.4 L1340.49 1532.4 L1340.49 1568.04 L1334.63 1568.04 L1334.63 1562.57 Q1332.5 1565.82 1329.67 1567.41 Q1326.86 1568.97 1323.14 1568.97 Q1317 1568.97 1313.82 1565.15 Q1310.63 1561.33 1310.63 1553.98 M1325.37 1531.54 L1325.37 1531.54 Z" fill="#000000" fill-rule="evenodd" fill-opacity="1" /><path clip-path="url(#clip910)" d="M1380.31 1539.24 Q1382.5 1535.29 1385.56 1533.41 Q1388.61 1531.54 1392.75 1531.54 Q1398.32 1531.54 1401.34 1535.45 Q1404.37 1539.33 1404.37 1546.53 L1404.37 1568.04 L1398.48 1568.04 L1398.48 1546.72 Q1398.48 1541.59 1396.66 1539.11 Q1394.85 1536.63 1391.13 1536.63 Q1386.58 1536.63 1383.93 1539.65 Q1381.29 1542.68 1381.29 1547.9 L1381.29 1568.04 L1375.4 1568.04 L1375.4 1546.72 Q1375.4 1541.56 1373.59 1539.11 Q1371.78 1536.63 1367.99 1536.63 Q1363.5 1536.63 1360.86 1539.68 Q1358.22 1542.71 1358.22 1547.9 L1358.22 1568.04 L1352.33 1568.04 L1352.33 1532.4 L1358.22 1532.4 L1358.22 1537.93 Q1360.22 1534.66 1363.02 1533.1 Q1365.82 1531.54 1369.67 1531.54 Q1373.56 1531.54 1376.26 1533.51 Q1379 1535.48 1380.31 1539.24 Z" fill="#000000" fill-rule="evenodd" fill-opacity="1" /><path clip-path="url(#clip910)" d="M1441.64 1550.25 Q1441.64 1543.79 1438.97 1540.13 Q1436.32 1536.44 1431.68 1536.44 Q1427.03 1536.44 1424.36 1540.13 Q1421.71 1543.79 1421.71 1550.25 Q1421.71 1556.71 1424.36 1560.4 Q1427.03 1564.07 1431.68 1564.07 Q1436.32 1564.07 1438.97 1560.4 Q1441.64 1556.71 1441.64 1550.25 M1421.71 1537.81 Q1423.56 1534.62 1426.36 1533.1 Q1429.19 1531.54 1433.11 1531.54 Q1439.6 1531.54 1443.64 1536.69 Q1447.72 1541.85 1447.72 1550.25 Q1447.72 1558.65 1443.64 1563.81 Q1439.6 1568.97 1433.11 1568.97 Q1429.19 1568.97 1426.36 1567.44 Q1423.56 1565.88 1421.71 1562.7 L1421.71 1568.04 L1415.83 1568.04 L1415.83 1518.52 L1421.71 1518.52 L1421.71 1537.81 Z" fill="#000000" fill-rule="evenodd" fill-opacity="1" /><path clip-path="url(#clip910)" d="M1487.92 1548.76 L1487.92 1551.62 L1460.99 1551.62 Q1461.37 1557.67 1464.62 1560.85 Q1467.9 1564 1473.72 1564 Q1477.1 1564 1480.25 1563.17 Q1483.43 1562.35 1486.55 1560.69 L1486.55 1566.23 Q1483.4 1567.57 1480.09 1568.27 Q1476.78 1568.97 1473.37 1568.97 Q1464.84 1568.97 1459.84 1564 Q1454.88 1559.04 1454.88 1550.57 Q1454.88 1541.82 1459.59 1536.69 Q1464.33 1531.54 1472.35 1531.54 Q1479.55 1531.54 1483.72 1536.18 Q1487.92 1540.8 1487.92 1548.76 M1482.06 1547.04 Q1482 1542.23 1479.36 1539.37 Q1476.75 1536.5 1472.42 1536.5 Q1467.52 1536.5 1464.56 1539.27 Q1461.63 1542.04 1461.18 1547.07 L1482.06 1547.04 Z" fill="#000000" fill-rule="evenodd" fill-opacity="1" /><path clip-path="url(#clip910)" d="M1518.19 1537.87 Q1517.2 1537.3 1516.02 1537.04 Q1514.88 1536.76 1513.48 1536.76 Q1508.51 1536.76 1505.84 1540 Q1503.2 1543.22 1503.2 1549.27 L1503.2 1568.04 L1497.31 1568.04 L1497.31 1532.4 L1503.2 1532.4 L1503.2 1537.93 Q1505.04 1534.69 1508 1533.13 Q1510.96 1531.54 1515.19 1531.54 Q1515.8 1531.54 1516.53 1531.63 Q1517.26 1531.7 1518.15 1531.85 L1518.19 1537.87 Z" fill="#000000" fill-rule="evenodd" fill-opacity="1" /><polyline clip-path="url(#clip912)" style="stroke:#000000; stroke-linecap:round; stroke-linejoin:round; stroke-width:2; stroke-opacity:0.1; fill:none" points="
  280.19,1285.95 2352.76,1285.95 
  "/>
<polyline clip-path="url(#clip912)" style="stroke:#000000; stroke-linecap:round; stroke-linejoin:round; stroke-width:2; stroke-opacity:0.1; fill:none" points="
  280.19,982.918 2352.76,982.918 
  "/>
<polyline clip-path="url(#clip912)" style="stroke:#000000; stroke-linecap:round; stroke-linejoin:round; stroke-width:2; stroke-opacity:0.1; fill:none" points="
  280.19,679.888 2352.76,679.888 
  "/>
<polyline clip-path="url(#clip912)" style="stroke:#000000; stroke-linecap:round; stroke-linejoin:round; stroke-width:2; stroke-opacity:0.1; fill:none" points="
  280.19,376.858 2352.76,376.858 
  "/>
<polyline clip-path="url(#clip910)" style="stroke:#000000; stroke-linecap:round; stroke-linejoin:round; stroke-width:4; stroke-opacity:1; fill:none" points="
  280.19,1423.18 280.19,123.472 
  "/>
<polyline clip-path="url(#clip910)" style="stroke:#000000; stroke-linecap:round; stroke-linejoin:round; stroke-width:4; stroke-opacity:1; fill:none" points="
  280.19,1285.95 299.088,1285.95 
  "/>
<polyline clip-path="url(#clip910)" style="stroke:#000000; stroke-linecap:round; stroke-linejoin:round; stroke-width:4; stroke-opacity:1; fill:none" points="
  280.19,982.918 299.088,982.918 
  "/>
<polyline clip-path="url(#clip910)" style="stroke:#000000; stroke-linecap:round; stroke-linejoin:round; stroke-width:4; stroke-opacity:1; fill:none" points="
  280.19,679.888 299.088,679.888 
  "/>
<polyline clip-path="url(#clip910)" style="stroke:#000000; stroke-linecap:round; stroke-linejoin:round; stroke-width:4; stroke-opacity:1; fill:none" points="
  280.19,376.858 299.088,376.858 
  "/>
<path clip-path="url(#clip910)" d="M128.288 1271.75 Q124.677 1271.75 122.848 1275.31 Q121.043 1278.85 121.043 1285.98 Q121.043 1293.09 122.848 1296.65 Q124.677 1300.2 128.288 1300.2 Q131.922 1300.2 133.728 1296.65 Q135.556 1293.09 135.556 1285.98 Q135.556 1278.85 133.728 1275.31 Q131.922 1271.75 128.288 1271.75 M128.288 1268.04 Q134.098 1268.04 137.154 1272.65 Q140.232 1277.23 140.232 1285.98 Q140.232 1294.71 137.154 1299.32 Q134.098 1303.9 128.288 1303.9 Q122.478 1303.9 119.399 1299.32 Q116.343 1294.71 116.343 1285.98 Q116.343 1277.23 119.399 1272.65 Q122.478 1268.04 128.288 1268.04 Z" fill="#000000" fill-rule="evenodd" fill-opacity="1" /><path clip-path="url(#clip910)" d="M148.45 1297.35 L153.334 1297.35 L153.334 1303.23 L148.45 1303.23 L148.45 1297.35 Z" fill="#000000" fill-rule="evenodd" fill-opacity="1" /><path clip-path="url(#clip910)" d="M176.366 1272.74 L164.561 1291.19 L176.366 1291.19 L176.366 1272.74 M175.139 1268.67 L181.019 1268.67 L181.019 1291.19 L185.95 1291.19 L185.95 1295.08 L181.019 1295.08 L181.019 1303.23 L176.366 1303.23 L176.366 1295.08 L160.765 1295.08 L160.765 1290.57 L175.139 1268.67 Z" fill="#000000" fill-rule="evenodd" fill-opacity="1" /><path clip-path="url(#clip910)" d="M192.5 1268.67 L214.723 1268.67 L214.723 1270.66 L202.176 1303.23 L197.292 1303.23 L209.098 1272.6 L192.5 1272.6 L192.5 1268.67 Z" fill="#000000" fill-rule="evenodd" fill-opacity="1" /><path clip-path="url(#clip910)" d="M227.871 1299.29 L244.19 1299.29 L244.19 1303.23 L222.246 1303.23 L222.246 1299.29 Q224.908 1296.54 229.491 1291.91 Q234.097 1287.26 235.278 1285.91 Q237.523 1283.39 238.403 1281.65 Q239.306 1279.9 239.306 1278.21 Q239.306 1275.45 237.361 1273.71 Q235.44 1271.98 232.338 1271.98 Q230.139 1271.98 227.685 1272.74 Q225.255 1273.51 222.477 1275.06 L222.477 1270.33 Q225.301 1269.2 227.755 1268.62 Q230.209 1268.04 232.246 1268.04 Q237.616 1268.04 240.81 1270.73 Q244.005 1273.41 244.005 1277.9 Q244.005 1280.03 243.195 1281.96 Q242.408 1283.85 240.301 1286.45 Q239.722 1287.12 236.621 1290.33 Q233.519 1293.53 227.871 1299.29 Z" fill="#000000" fill-rule="evenodd" fill-opacity="1" /><path clip-path="url(#clip910)" d="M127.339 968.717 Q123.728 968.717 121.899 972.282 Q120.093 975.823 120.093 982.953 Q120.093 990.059 121.899 993.624 Q123.728 997.166 127.339 997.166 Q130.973 997.166 132.779 993.624 Q134.607 990.059 134.607 982.953 Q134.607 975.823 132.779 972.282 Q130.973 968.717 127.339 968.717 M127.339 965.013 Q133.149 965.013 136.204 969.62 Q139.283 974.203 139.283 982.953 Q139.283 991.68 136.204 996.286 Q133.149 1000.87 127.339 1000.87 Q121.529 1000.87 118.45 996.286 Q115.394 991.68 115.394 982.953 Q115.394 974.203 118.45 969.62 Q121.529 965.013 127.339 965.013 Z" fill="#000000" fill-rule="evenodd" fill-opacity="1" /><path clip-path="url(#clip910)" d="M147.501 994.319 L152.385 994.319 L152.385 1000.2 L147.501 1000.2 L147.501 994.319 Z" fill="#000000" fill-rule="evenodd" fill-opacity="1" /><path clip-path="url(#clip910)" d="M175.417 969.712 L163.612 988.161 L175.417 988.161 L175.417 969.712 M174.19 965.638 L180.07 965.638 L180.07 988.161 L185.001 988.161 L185.001 992.05 L180.07 992.05 L180.07 1000.2 L175.417 1000.2 L175.417 992.05 L159.815 992.05 L159.815 987.536 L174.19 965.638 Z" fill="#000000" fill-rule="evenodd" fill-opacity="1" /><path clip-path="url(#clip910)" d="M191.551 965.638 L213.774 965.638 L213.774 967.629 L201.227 1000.2 L196.343 1000.2 L208.149 969.573 L191.551 969.573 L191.551 965.638 Z" fill="#000000" fill-rule="evenodd" fill-opacity="1" /><path clip-path="url(#clip910)" d="M237.06 981.564 Q240.417 982.282 242.292 984.55 Q244.19 986.819 244.19 990.152 Q244.19 995.268 240.672 998.069 Q237.153 1000.87 230.672 1000.87 Q228.496 1000.87 226.181 1000.43 Q223.889 1000.01 221.436 999.157 L221.436 994.643 Q223.38 995.777 225.695 996.356 Q228.01 996.934 230.533 996.934 Q234.931 996.934 237.222 995.198 Q239.537 993.462 239.537 990.152 Q239.537 987.096 237.384 985.384 Q235.255 983.647 231.435 983.647 L227.408 983.647 L227.408 979.805 L231.621 979.805 Q235.07 979.805 236.898 978.439 Q238.727 977.05 238.727 974.458 Q238.727 971.796 236.829 970.384 Q234.954 968.948 231.435 968.948 Q229.514 968.948 227.315 969.365 Q225.116 969.782 222.477 970.661 L222.477 966.495 Q225.139 965.754 227.454 965.384 Q229.792 965.013 231.852 965.013 Q237.176 965.013 240.278 967.444 Q243.38 969.851 243.38 973.972 Q243.38 976.842 241.736 978.833 Q240.093 980.8 237.06 981.564 Z" fill="#000000" fill-rule="evenodd" fill-opacity="1" /><path clip-path="url(#clip910)" d="M126.205 665.687 Q122.593 665.687 120.765 669.252 Q118.959 672.793 118.959 679.923 Q118.959 687.029 120.765 690.594 Q122.593 694.136 126.205 694.136 Q129.839 694.136 131.644 690.594 Q133.473 687.029 133.473 679.923 Q133.473 672.793 131.644 669.252 Q129.839 665.687 126.205 665.687 M126.205 661.983 Q132.015 661.983 135.07 666.59 Q138.149 671.173 138.149 679.923 Q138.149 688.65 135.07 693.256 Q132.015 697.839 126.205 697.839 Q120.394 697.839 117.316 693.256 Q114.26 688.65 114.26 679.923 Q114.26 671.173 117.316 666.59 Q120.394 661.983 126.205 661.983 Z" fill="#000000" fill-rule="evenodd" fill-opacity="1" /><path clip-path="url(#clip910)" d="M146.366 691.289 L151.251 691.289 L151.251 697.168 L146.366 697.168 L146.366 691.289 Z" fill="#000000" fill-rule="evenodd" fill-opacity="1" /><path clip-path="url(#clip910)" d="M174.283 666.682 L162.477 685.131 L174.283 685.131 L174.283 666.682 M173.056 662.608 L178.936 662.608 L178.936 685.131 L183.866 685.131 L183.866 689.02 L178.936 689.02 L178.936 697.168 L174.283 697.168 L174.283 689.02 L158.681 689.02 L158.681 684.506 L173.056 662.608 Z" fill="#000000" fill-rule="evenodd" fill-opacity="1" /><path clip-path="url(#clip910)" d="M190.417 662.608 L212.639 662.608 L212.639 664.599 L200.093 697.168 L195.209 697.168 L207.014 666.543 L190.417 666.543 L190.417 662.608 Z" fill="#000000" fill-rule="evenodd" fill-opacity="1" /><path clip-path="url(#clip910)" d="M234.607 666.682 L222.801 685.131 L234.607 685.131 L234.607 666.682 M233.38 662.608 L239.259 662.608 L239.259 685.131 L244.19 685.131 L244.19 689.02 L239.259 689.02 L239.259 697.168 L234.607 697.168 L234.607 689.02 L219.005 689.02 L219.005 684.506 L233.38 662.608 Z" fill="#000000" fill-rule="evenodd" fill-opacity="1" /><path clip-path="url(#clip910)" d="M127.686 362.657 Q124.075 362.657 122.246 366.222 Q120.441 369.763 120.441 376.893 Q120.441 383.999 122.246 387.564 Q124.075 391.106 127.686 391.106 Q131.32 391.106 133.126 387.564 Q134.954 383.999 134.954 376.893 Q134.954 369.763 133.126 366.222 Q131.32 362.657 127.686 362.657 M127.686 358.953 Q133.496 358.953 136.552 363.56 Q139.63 368.143 139.63 376.893 Q139.63 385.62 136.552 390.226 Q133.496 394.809 127.686 394.809 Q121.876 394.809 118.797 390.226 Q115.742 385.62 115.742 376.893 Q115.742 368.143 118.797 363.56 Q121.876 358.953 127.686 358.953 Z" fill="#000000" fill-rule="evenodd" fill-opacity="1" /><path clip-path="url(#clip910)" d="M147.848 388.259 L152.732 388.259 L152.732 394.138 L147.848 394.138 L147.848 388.259 Z" fill="#000000" fill-rule="evenodd" fill-opacity="1" /><path clip-path="url(#clip910)" d="M175.764 363.652 L163.959 382.101 L175.764 382.101 L175.764 363.652 M174.538 359.578 L180.417 359.578 L180.417 382.101 L185.348 382.101 L185.348 385.99 L180.417 385.99 L180.417 394.138 L175.764 394.138 L175.764 385.99 L160.163 385.99 L160.163 381.476 L174.538 359.578 Z" fill="#000000" fill-rule="evenodd" fill-opacity="1" /><path clip-path="url(#clip910)" d="M191.899 359.578 L214.121 359.578 L214.121 361.569 L201.575 394.138 L196.69 394.138 L208.496 363.513 L191.899 363.513 L191.899 359.578 Z" fill="#000000" fill-rule="evenodd" fill-opacity="1" /><path clip-path="url(#clip910)" d="M223.287 359.578 L241.644 359.578 L241.644 363.513 L227.57 363.513 L227.57 371.985 Q228.588 371.638 229.607 371.476 Q230.625 371.291 231.644 371.291 Q237.431 371.291 240.81 374.462 Q244.19 377.634 244.19 383.05 Q244.19 388.629 240.718 391.731 Q237.246 394.809 230.926 394.809 Q228.75 394.809 226.482 394.439 Q224.236 394.069 221.829 393.328 L221.829 388.629 Q223.912 389.763 226.135 390.319 Q228.357 390.874 230.834 390.874 Q234.838 390.874 237.176 388.768 Q239.514 386.661 239.514 383.05 Q239.514 379.439 237.176 377.333 Q234.838 375.226 230.834 375.226 Q228.959 375.226 227.084 375.643 Q225.232 376.06 223.287 376.939 L223.287 359.578 Z" fill="#000000" fill-rule="evenodd" fill-opacity="1" /><path clip-path="url(#clip910)" d="M16.4842 987.834 L16.4842 981.405 L64.0042 981.405 L64.0042 987.834 L16.4842 987.834 Z" fill="#000000" fill-rule="evenodd" fill-opacity="1" /><path clip-path="url(#clip910)" d="M42.4881 939.232 L64.0042 939.232 L64.0042 945.089 L42.679 945.089 Q37.6183 945.089 35.1038 947.062 Q32.5894 949.035 32.5894 952.982 Q32.5894 957.725 35.6131 960.462 Q38.6368 963.199 43.8567 963.199 L64.0042 963.199 L64.0042 969.087 L28.3562 969.087 L28.3562 963.199 L33.8944 963.199 Q30.6797 961.098 29.0883 958.266 Q27.4968 955.401 27.4968 951.677 Q27.4968 945.534 31.3163 942.383 Q35.1038 939.232 42.4881 939.232 Z" fill="#000000" fill-rule="evenodd" fill-opacity="1" /><path clip-path="url(#clip910)" d="M42.4881 897.919 L64.0042 897.919 L64.0042 903.775 L42.679 903.775 Q37.6183 903.775 35.1038 905.749 Q32.5894 907.722 32.5894 911.669 Q32.5894 916.411 35.6131 919.148 Q38.6368 921.886 43.8567 921.886 L64.0042 921.886 L64.0042 927.774 L28.3562 927.774 L28.3562 921.886 L33.8944 921.886 Q30.6797 919.785 29.0883 916.952 Q27.4968 914.088 27.4968 910.364 Q27.4968 904.221 31.3163 901.07 Q35.1038 897.919 42.4881 897.919 Z" fill="#000000" fill-rule="evenodd" fill-opacity="1" /><path clip-path="url(#clip910)" d="M44.7161 855.746 L47.5806 855.746 L47.5806 882.673 Q53.6281 882.291 56.8109 879.044 Q59.9619 875.766 59.9619 869.941 Q59.9619 866.568 59.1344 863.417 Q58.3069 860.234 56.6518 857.115 L62.1899 857.115 Q63.5267 860.266 64.227 863.576 Q64.9272 866.886 64.9272 870.292 Q64.9272 878.822 59.9619 883.819 Q54.9967 888.784 46.5303 888.784 Q37.7774 888.784 32.6531 884.073 Q27.4968 879.331 27.4968 871.31 Q27.4968 864.117 32.1438 859.947 Q36.7589 855.746 44.7161 855.746 M42.9973 861.602 Q38.1912 861.666 35.3266 864.308 Q32.4621 866.918 32.4621 871.246 Q32.4621 876.148 35.2312 879.108 Q38.0002 882.036 43.0292 882.482 L42.9973 861.602 Z" fill="#000000" fill-rule="evenodd" fill-opacity="1" /><path clip-path="url(#clip910)" d="M33.8307 825.477 Q33.2578 826.464 33.0032 827.641 Q32.7167 828.787 32.7167 830.188 Q32.7167 835.153 35.9632 837.827 Q39.1779 840.468 45.2253 840.468 L64.0042 840.468 L64.0042 846.357 L28.3562 846.357 L28.3562 840.468 L33.8944 840.468 Q30.6479 838.622 29.0883 835.662 Q27.4968 832.702 27.4968 828.469 Q27.4968 827.864 27.5923 827.132 Q27.656 826.4 27.8151 825.509 L33.8307 825.477 Z" fill="#000000" fill-rule="evenodd" fill-opacity="1" /><path clip-path="url(#clip910)" d="M21.7677 791.93 L39.6235 791.93 L39.6235 783.845 Q39.6235 779.357 37.3 776.907 Q34.9765 774.456 30.6797 774.456 Q26.4147 774.456 24.0912 776.907 Q21.7677 779.357 21.7677 783.845 L21.7677 791.93 M16.4842 798.359 L16.4842 783.845 Q16.4842 775.856 20.1126 771.782 Q23.7092 767.676 30.6797 767.676 Q37.7138 767.676 41.3104 771.782 Q44.907 775.856 44.907 783.845 L44.907 791.93 L64.0042 791.93 L64.0042 798.359 L16.4842 798.359 Z" fill="#000000" fill-rule="evenodd" fill-opacity="1" /><path clip-path="url(#clip910)" d="M33.8307 739.795 Q33.2578 740.781 33.0032 741.959 Q32.7167 743.105 32.7167 744.505 Q32.7167 749.47 35.9632 752.144 Q39.1779 754.786 45.2253 754.786 L64.0042 754.786 L64.0042 760.674 L28.3562 760.674 L28.3562 754.786 L33.8944 754.786 Q30.6479 752.94 29.0883 749.98 Q27.4968 747.02 27.4968 742.787 Q27.4968 742.182 27.5923 741.45 Q27.656 740.718 27.8151 739.826 L33.8307 739.795 Z" fill="#000000" fill-rule="evenodd" fill-opacity="1" /><path clip-path="url(#clip910)" d="M32.4621 721.27 Q32.4621 725.981 36.1542 728.718 Q39.8145 731.456 46.212 731.456 Q52.6095 731.456 56.3017 728.75 Q59.9619 726.013 59.9619 721.27 Q59.9619 716.592 56.2698 713.854 Q52.5777 711.117 46.212 711.117 Q39.8781 711.117 36.186 713.854 Q32.4621 716.592 32.4621 721.27 M27.4968 721.27 Q27.4968 713.632 32.4621 709.271 Q37.4273 704.911 46.212 704.911 Q54.9649 704.911 59.9619 709.271 Q64.9272 713.632 64.9272 721.27 Q64.9272 728.941 59.9619 733.302 Q54.9649 737.63 46.212 737.63 Q37.4273 737.63 32.4621 733.302 Q27.4968 728.941 27.4968 721.27 Z" fill="#000000" fill-rule="evenodd" fill-opacity="1" /><path clip-path="url(#clip910)" d="M33.7671 671.745 L14.479 671.745 L14.479 665.889 L64.0042 665.889 L64.0042 671.745 L58.657 671.745 Q61.8398 673.591 63.3994 676.424 Q64.9272 679.225 64.9272 683.172 Q64.9272 689.633 59.771 693.707 Q54.6147 697.749 46.212 697.749 Q37.8093 697.749 32.6531 693.707 Q27.4968 689.633 27.4968 683.172 Q27.4968 679.225 29.0564 676.424 Q30.5842 673.591 33.7671 671.745 M46.212 691.702 Q52.6732 691.702 56.3653 689.06 Q60.0256 686.386 60.0256 681.739 Q60.0256 677.092 56.3653 674.419 Q52.6732 671.745 46.212 671.745 Q39.7508 671.745 36.0905 674.419 Q32.3984 677.092 32.3984 681.739 Q32.3984 686.386 36.0905 689.06 Q39.7508 691.702 46.212 691.702 Z" fill="#000000" fill-rule="evenodd" fill-opacity="1" /><path clip-path="url(#clip910)" d="M49.9359 654.43 L28.3562 654.43 L28.3562 648.574 L49.7131 648.574 Q54.7739 648.574 57.3202 646.601 Q59.8346 644.627 59.8346 640.681 Q59.8346 635.938 56.8109 633.201 Q53.7872 630.432 48.5673 630.432 L28.3562 630.432 L28.3562 624.575 L64.0042 624.575 L64.0042 630.432 L58.5296 630.432 Q61.7762 632.564 63.3676 635.397 Q64.9272 638.198 64.9272 641.922 Q64.9272 648.065 61.1078 651.248 Q57.2883 654.43 49.9359 654.43 M27.4968 639.694 L27.4968 639.694 Z" fill="#000000" fill-rule="evenodd" fill-opacity="1" /><path clip-path="url(#clip910)" d="M29.7248 586.859 L35.1993 586.859 Q33.8307 589.341 33.1623 591.856 Q32.4621 594.338 32.4621 596.885 Q32.4621 602.582 36.0905 605.733 Q39.6872 608.884 46.212 608.884 Q52.7369 608.884 56.3653 605.733 Q59.9619 602.582 59.9619 596.885 Q59.9619 594.338 59.2935 591.856 Q58.5933 589.341 57.2247 586.859 L62.6355 586.859 Q63.7814 589.309 64.3543 591.951 Q64.9272 594.561 64.9272 597.521 Q64.9272 605.574 59.8664 610.316 Q54.8057 615.059 46.212 615.059 Q37.491 615.059 32.4939 610.284 Q27.4968 605.478 27.4968 597.139 Q27.4968 594.434 28.0697 591.856 Q28.6108 589.277 29.7248 586.859 Z" fill="#000000" fill-rule="evenodd" fill-opacity="1" /><path clip-path="url(#clip910)" d="M18.2347 570.881 L28.3562 570.881 L28.3562 558.818 L32.9077 558.818 L32.9077 570.881 L52.2594 570.881 Q56.6199 570.881 57.8613 569.703 Q59.1026 568.493 59.1026 564.833 L59.1026 558.818 L64.0042 558.818 L64.0042 564.833 Q64.0042 571.613 61.4897 574.191 Q58.9434 576.769 52.2594 576.769 L32.9077 576.769 L32.9077 581.066 L28.3562 581.066 L28.3562 576.769 L18.2347 576.769 L18.2347 570.881 Z" fill="#000000" fill-rule="evenodd" fill-opacity="1" /><path clip-path="url(#clip910)" d="M1186.05 17.6457 Q1177.14 17.6457 1171.88 24.2892 Q1166.65 30.9327 1166.65 42.3968 Q1166.65 53.8203 1171.88 60.4638 Q1177.14 67.1073 1186.05 67.1073 Q1194.97 67.1073 1200.15 60.4638 Q1205.38 53.8203 1205.38 42.3968 Q1205.38 30.9327 1200.15 24.2892 Q1194.97 17.6457 1186.05 17.6457 M1186.05 11.0023 Q1198.77 11.0023 1206.39 19.5497 Q1214.01 28.0566 1214.01 42.3968 Q1214.01 56.6965 1206.39 65.2439 Q1198.77 73.7508 1186.05 73.7508 Q1173.29 73.7508 1165.64 65.2439 Q1158.02 56.737 1158.02 42.3968 Q1158.02 28.0566 1165.64 19.5497 Q1173.29 11.0023 1186.05 11.0023 Z" fill="#000000" fill-rule="evenodd" fill-opacity="1" /><path clip-path="url(#clip910)" d="M1221.13 27.2059 L1229.03 27.2059 L1243.21 65.2844 L1257.39 27.2059 L1265.29 27.2059 L1248.28 72.576 L1238.15 72.576 L1221.13 27.2059 Z" fill="#000000" fill-rule="evenodd" fill-opacity="1" /><path clip-path="url(#clip910)" d="M1314.39 48.0275 L1314.39 51.6733 L1280.12 51.6733 Q1280.6 59.3701 1284.73 63.421 Q1288.91 67.4314 1296.32 67.4314 Q1300.61 67.4314 1304.62 66.3781 Q1308.67 65.3249 1312.64 63.2184 L1312.64 70.267 Q1308.63 71.9684 1304.42 72.8596 Q1300.21 73.7508 1295.87 73.7508 Q1285.02 73.7508 1278.66 67.4314 Q1272.34 61.1119 1272.34 50.3365 Q1272.34 39.1965 1278.33 32.6746 Q1284.37 26.1121 1294.58 26.1121 Q1303.73 26.1121 1309.04 32.0264 Q1314.39 37.9003 1314.39 48.0275 M1306.93 45.84 Q1306.85 39.7232 1303.49 36.0774 Q1300.17 32.4315 1294.66 32.4315 Q1288.42 32.4315 1284.65 35.9558 Q1280.93 39.4801 1280.36 45.8805 L1306.93 45.84 Z" fill="#000000" fill-rule="evenodd" fill-opacity="1" /><path clip-path="url(#clip910)" d="M1352.91 34.1734 Q1351.66 33.4443 1350.16 33.1202 Q1348.7 32.7556 1346.92 32.7556 Q1340.6 32.7556 1337.19 36.8875 Q1333.83 40.9789 1333.83 48.6757 L1333.83 72.576 L1326.34 72.576 L1326.34 27.2059 L1333.83 27.2059 L1333.83 34.2544 Q1336.18 30.1225 1339.95 28.1376 Q1343.72 26.1121 1349.1 26.1121 Q1349.87 26.1121 1350.8 26.2337 Q1351.74 26.3147 1352.87 26.5172 L1352.91 34.1734 Z" fill="#000000" fill-rule="evenodd" fill-opacity="1" /><path clip-path="url(#clip910)" d="M1360.73 9.54393 L1368.18 9.54393 L1368.18 72.576 L1360.73 72.576 L1360.73 9.54393 Z" fill="#000000" fill-rule="evenodd" fill-opacity="1" /><path clip-path="url(#clip910)" d="M1404.4 49.7694 Q1395.36 49.7694 1391.88 51.8354 Q1388.4 53.9013 1388.4 58.8839 Q1388.4 62.8538 1390.99 65.2034 Q1393.62 67.5124 1398.12 67.5124 Q1404.32 67.5124 1408.04 63.1374 Q1411.81 58.7219 1411.81 51.4303 L1411.81 49.7694 L1404.4 49.7694 M1419.26 46.6907 L1419.26 72.576 L1411.81 72.576 L1411.81 65.6895 Q1409.26 69.8214 1405.45 71.8063 Q1401.64 73.7508 1396.13 73.7508 Q1389.17 73.7508 1385.03 69.8619 Q1380.94 65.9325 1380.94 59.3701 Q1380.94 51.7138 1386.05 47.825 Q1391.19 43.9361 1401.36 43.9361 L1411.81 43.9361 L1411.81 43.2069 Q1411.81 38.0623 1408.41 35.2672 Q1405.05 32.4315 1398.93 32.4315 Q1395.04 32.4315 1391.35 33.3632 Q1387.67 34.295 1384.26 36.1584 L1384.26 29.2718 Q1388.36 27.692 1392.2 26.9223 Q1396.05 26.1121 1399.7 26.1121 Q1409.54 26.1121 1414.4 31.2163 Q1419.26 36.3204 1419.26 46.6907 Z" fill="#000000" fill-rule="evenodd" fill-opacity="1" /><path clip-path="url(#clip910)" d="M1441.83 65.7705 L1441.83 89.8329 L1434.33 89.8329 L1434.33 27.2059 L1441.83 27.2059 L1441.83 34.0924 Q1444.18 30.0415 1447.74 28.0971 Q1451.35 26.1121 1456.33 26.1121 Q1464.59 26.1121 1469.74 32.6746 Q1474.92 39.2371 1474.92 49.9314 Q1474.92 60.6258 1469.74 67.1883 Q1464.59 73.7508 1456.33 73.7508 Q1451.35 73.7508 1447.74 71.8063 Q1444.18 69.8214 1441.83 65.7705 M1467.19 49.9314 Q1467.19 41.7081 1463.78 37.0496 Q1460.42 32.3505 1454.51 32.3505 Q1448.59 32.3505 1445.19 37.0496 Q1441.83 41.7081 1441.83 49.9314 Q1441.83 58.1548 1445.19 62.8538 Q1448.59 67.5124 1454.51 67.5124 Q1460.42 67.5124 1463.78 62.8538 Q1467.19 58.1548 1467.19 49.9314 Z" fill="#000000" fill-rule="evenodd" fill-opacity="1" /><polyline clip-path="url(#clip912)" style="stroke:#000000; stroke-linecap:round; stroke-linejoin:round; stroke-width:4; stroke-opacity:1; fill:none" points="
  338.848,160.263 338.848,160.256 
  "/>
<polyline clip-path="url(#clip912)" style="stroke:#000000; stroke-linecap:round; stroke-linejoin:round; stroke-width:4; stroke-opacity:1; fill:none" points="
  379.582,1162.7 379.582,1162.68 
  "/>
<polyline clip-path="url(#clip912)" style="stroke:#000000; stroke-linecap:round; stroke-linejoin:round; stroke-width:4; stroke-opacity:1; fill:none" points="
  420.316,1339.03 420.316,1338.99 
  "/>
<polyline clip-path="url(#clip912)" style="stroke:#000000; stroke-linecap:round; stroke-linejoin:round; stroke-width:4; stroke-opacity:1; fill:none" points="
  461.051,1374.98 461.051,1373.28 
  "/>
<polyline clip-path="url(#clip912)" style="stroke:#000000; stroke-linecap:round; stroke-linejoin:round; stroke-width:4; stroke-opacity:1; fill:none" points="
  501.785,1383.07 501.785,1380.57 
  "/>
<polyline clip-path="url(#clip912)" style="stroke:#000000; stroke-linecap:round; stroke-linejoin:round; stroke-width:4; stroke-opacity:1; fill:none" points="
  542.52,1385.03 542.52,1382.21 
  "/>
<polyline clip-path="url(#clip912)" style="stroke:#000000; stroke-linecap:round; stroke-linejoin:round; stroke-width:4; stroke-opacity:1; fill:none" points="
  583.254,1385.44 583.254,1382.68 
  "/>
<polyline clip-path="url(#clip912)" style="stroke:#000000; stroke-linecap:round; stroke-linejoin:round; stroke-width:4; stroke-opacity:1; fill:none" points="
  623.988,1385.81 623.988,1382.53 
  "/>
<polyline clip-path="url(#clip912)" style="stroke:#000000; stroke-linecap:round; stroke-linejoin:round; stroke-width:4; stroke-opacity:1; fill:none" points="
  664.723,1385.93 664.723,1382.46 
  "/>
<polyline clip-path="url(#clip912)" style="stroke:#000000; stroke-linecap:round; stroke-linejoin:round; stroke-width:4; stroke-opacity:1; fill:none" points="
  705.457,1386.05 705.457,1382.36 
  "/>
<polyline clip-path="url(#clip912)" style="stroke:#000000; stroke-linecap:round; stroke-linejoin:round; stroke-width:4; stroke-opacity:1; fill:none" points="
  746.191,1386.1 746.191,1382.31 
  "/>
<polyline clip-path="url(#clip912)" style="stroke:#000000; stroke-linecap:round; stroke-linejoin:round; stroke-width:4; stroke-opacity:1; fill:none" points="
  786.926,1386.09 786.926,1382.32 
  "/>
<polyline clip-path="url(#clip912)" style="stroke:#000000; stroke-linecap:round; stroke-linejoin:round; stroke-width:4; stroke-opacity:1; fill:none" points="
  827.66,1386.12 827.66,1382.29 
  "/>
<polyline clip-path="url(#clip912)" style="stroke:#000000; stroke-linecap:round; stroke-linejoin:round; stroke-width:4; stroke-opacity:1; fill:none" points="
  868.395,1386.14 868.395,1382.27 
  "/>
<polyline clip-path="url(#clip912)" style="stroke:#000000; stroke-linecap:round; stroke-linejoin:round; stroke-width:4; stroke-opacity:1; fill:none" points="
  909.129,1386.14 909.129,1382.27 
  "/>
<polyline clip-path="url(#clip912)" style="stroke:#000000; stroke-linecap:round; stroke-linejoin:round; stroke-width:4; stroke-opacity:1; fill:none" points="
  949.863,1386.17 949.863,1382.24 
  "/>
<polyline clip-path="url(#clip912)" style="stroke:#000000; stroke-linecap:round; stroke-linejoin:round; stroke-width:4; stroke-opacity:1; fill:none" points="
  990.598,1386.19 990.598,1382.22 
  "/>
<polyline clip-path="url(#clip912)" style="stroke:#000000; stroke-linecap:round; stroke-linejoin:round; stroke-width:4; stroke-opacity:1; fill:none" points="
  1031.33,1386.21 1031.33,1382.2 
  "/>
<polyline clip-path="url(#clip912)" style="stroke:#000000; stroke-linecap:round; stroke-linejoin:round; stroke-width:4; stroke-opacity:1; fill:none" points="
  1072.07,1386.22 1072.07,1382.19 
  "/>
<polyline clip-path="url(#clip912)" style="stroke:#000000; stroke-linecap:round; stroke-linejoin:round; stroke-width:4; stroke-opacity:1; fill:none" points="
  1112.8,1386.24 1112.8,1382.17 
  "/>
<polyline clip-path="url(#clip912)" style="stroke:#000000; stroke-linecap:round; stroke-linejoin:round; stroke-width:4; stroke-opacity:1; fill:none" points="
  1153.54,1386.25 1153.54,1382.16 
  "/>
<polyline clip-path="url(#clip912)" style="stroke:#000000; stroke-linecap:round; stroke-linejoin:round; stroke-width:4; stroke-opacity:1; fill:none" points="
  1194.27,1386.26 1194.27,1382.15 
  "/>
<polyline clip-path="url(#clip912)" style="stroke:#000000; stroke-linecap:round; stroke-linejoin:round; stroke-width:4; stroke-opacity:1; fill:none" points="
  1235,1386.27 1235,1382.14 
  "/>
<polyline clip-path="url(#clip912)" style="stroke:#000000; stroke-linecap:round; stroke-linejoin:round; stroke-width:4; stroke-opacity:1; fill:none" points="
  1275.74,1386.28 1275.74,1382.13 
  "/>
<polyline clip-path="url(#clip912)" style="stroke:#000000; stroke-linecap:round; stroke-linejoin:round; stroke-width:4; stroke-opacity:1; fill:none" points="
  1316.47,1386.29 1316.47,1382.12 
  "/>
<polyline clip-path="url(#clip912)" style="stroke:#000000; stroke-linecap:round; stroke-linejoin:round; stroke-width:4; stroke-opacity:1; fill:none" points="
  1357.21,1386.29 1357.21,1382.12 
  "/>
<polyline clip-path="url(#clip912)" style="stroke:#000000; stroke-linecap:round; stroke-linejoin:round; stroke-width:4; stroke-opacity:1; fill:none" points="
  1397.94,1386.3 1397.94,1382.11 
  "/>
<polyline clip-path="url(#clip912)" style="stroke:#000000; stroke-linecap:round; stroke-linejoin:round; stroke-width:4; stroke-opacity:1; fill:none" points="
  1438.68,1386.31 1438.68,1382.1 
  "/>
<polyline clip-path="url(#clip912)" style="stroke:#000000; stroke-linecap:round; stroke-linejoin:round; stroke-width:4; stroke-opacity:1; fill:none" points="
  1479.41,1386.32 1479.41,1382.09 
  "/>
<polyline clip-path="url(#clip912)" style="stroke:#000000; stroke-linecap:round; stroke-linejoin:round; stroke-width:4; stroke-opacity:1; fill:none" points="
  1520.14,1386.31 1520.14,1382.1 
  "/>
<polyline clip-path="url(#clip912)" style="stroke:#000000; stroke-linecap:round; stroke-linejoin:round; stroke-width:4; stroke-opacity:1; fill:none" points="
  1560.88,1386.32 1560.88,1382.09 
  "/>
<polyline clip-path="url(#clip912)" style="stroke:#000000; stroke-linecap:round; stroke-linejoin:round; stroke-width:4; stroke-opacity:1; fill:none" points="
  1601.61,1386.33 1601.61,1382.08 
  "/>
<polyline clip-path="url(#clip912)" style="stroke:#000000; stroke-linecap:round; stroke-linejoin:round; stroke-width:4; stroke-opacity:1; fill:none" points="
  1642.35,1386.34 1642.35,1382.08 
  "/>
<polyline clip-path="url(#clip912)" style="stroke:#000000; stroke-linecap:round; stroke-linejoin:round; stroke-width:4; stroke-opacity:1; fill:none" points="
  1683.08,1386.34 1683.08,1382.07 
  "/>
<polyline clip-path="url(#clip912)" style="stroke:#000000; stroke-linecap:round; stroke-linejoin:round; stroke-width:4; stroke-opacity:1; fill:none" points="
  1723.82,1386.34 1723.82,1382.07 
  "/>
<polyline clip-path="url(#clip912)" style="stroke:#000000; stroke-linecap:round; stroke-linejoin:round; stroke-width:4; stroke-opacity:1; fill:none" points="
  1764.55,1386.35 1764.55,1382.07 
  "/>
<polyline clip-path="url(#clip912)" style="stroke:#000000; stroke-linecap:round; stroke-linejoin:round; stroke-width:4; stroke-opacity:1; fill:none" points="
  1805.29,1386.36 1805.29,1382.06 
  "/>
<polyline clip-path="url(#clip912)" style="stroke:#000000; stroke-linecap:round; stroke-linejoin:round; stroke-width:4; stroke-opacity:1; fill:none" points="
  1846.02,1386.35 1846.02,1382.06 
  "/>
<polyline clip-path="url(#clip912)" style="stroke:#000000; stroke-linecap:round; stroke-linejoin:round; stroke-width:4; stroke-opacity:1; fill:none" points="
  1886.75,1386.36 1886.75,1382.05 
  "/>
<polyline clip-path="url(#clip912)" style="stroke:#000000; stroke-linecap:round; stroke-linejoin:round; stroke-width:4; stroke-opacity:1; fill:none" points="
  1927.49,1386.35 1927.49,1382.06 
  "/>
<polyline clip-path="url(#clip912)" style="stroke:#000000; stroke-linecap:round; stroke-linejoin:round; stroke-width:4; stroke-opacity:1; fill:none" points="
  1968.22,1386.36 1968.22,1382.05 
  "/>
<polyline clip-path="url(#clip912)" style="stroke:#000000; stroke-linecap:round; stroke-linejoin:round; stroke-width:4; stroke-opacity:1; fill:none" points="
  2008.96,1386.36 2008.96,1382.05 
  "/>
<polyline clip-path="url(#clip912)" style="stroke:#000000; stroke-linecap:round; stroke-linejoin:round; stroke-width:4; stroke-opacity:1; fill:none" points="
  2049.69,1386.37 2049.69,1382.04 
  "/>
<polyline clip-path="url(#clip912)" style="stroke:#000000; stroke-linecap:round; stroke-linejoin:round; stroke-width:4; stroke-opacity:1; fill:none" points="
  2090.43,1386.37 2090.43,1382.04 
  "/>
<polyline clip-path="url(#clip912)" style="stroke:#000000; stroke-linecap:round; stroke-linejoin:round; stroke-width:4; stroke-opacity:1; fill:none" points="
  2131.16,1386.38 2131.16,1382.04 
  "/>
<polyline clip-path="url(#clip912)" style="stroke:#000000; stroke-linecap:round; stroke-linejoin:round; stroke-width:4; stroke-opacity:1; fill:none" points="
  2171.9,1386.37 2171.9,1382.04 
  "/>
<polyline clip-path="url(#clip912)" style="stroke:#000000; stroke-linecap:round; stroke-linejoin:round; stroke-width:4; stroke-opacity:1; fill:none" points="
  2212.63,1386.38 2212.63,1382.03 
  "/>
<polyline clip-path="url(#clip912)" style="stroke:#000000; stroke-linecap:round; stroke-linejoin:round; stroke-width:4; stroke-opacity:1; fill:none" points="
  2253.36,1386.39 2253.36,1382.03 
  "/>
<polyline clip-path="url(#clip912)" style="stroke:#000000; stroke-linecap:round; stroke-linejoin:round; stroke-width:4; stroke-opacity:1; fill:none" points="
  2294.1,1386.4 2294.1,1382.02 
  "/>
<line clip-path="url(#clip912)" x1="346.848" y1="160.263" x2="330.848" y2="160.263" style="stroke:#000000; stroke-width:3.2; stroke-opacity:1"/>
<line clip-path="url(#clip912)" x1="346.848" y1="160.256" x2="330.848" y2="160.256" style="stroke:#000000; stroke-width:3.2; stroke-opacity:1"/>
<line clip-path="url(#clip912)" x1="387.582" y1="1162.7" x2="371.582" y2="1162.7" style="stroke:#000000; stroke-width:3.2; stroke-opacity:1"/>
<line clip-path="url(#clip912)" x1="387.582" y1="1162.68" x2="371.582" y2="1162.68" style="stroke:#000000; stroke-width:3.2; stroke-opacity:1"/>
<line clip-path="url(#clip912)" x1="428.316" y1="1339.03" x2="412.316" y2="1339.03" style="stroke:#000000; stroke-width:3.2; stroke-opacity:1"/>
<line clip-path="url(#clip912)" x1="428.316" y1="1338.99" x2="412.316" y2="1338.99" style="stroke:#000000; stroke-width:3.2; stroke-opacity:1"/>
<line clip-path="url(#clip912)" x1="469.051" y1="1374.98" x2="453.051" y2="1374.98" style="stroke:#000000; stroke-width:3.2; stroke-opacity:1"/>
<line clip-path="url(#clip912)" x1="469.051" y1="1373.28" x2="453.051" y2="1373.28" style="stroke:#000000; stroke-width:3.2; stroke-opacity:1"/>
<line clip-path="url(#clip912)" x1="509.785" y1="1383.07" x2="493.785" y2="1383.07" style="stroke:#000000; stroke-width:3.2; stroke-opacity:1"/>
<line clip-path="url(#clip912)" x1="509.785" y1="1380.57" x2="493.785" y2="1380.57" style="stroke:#000000; stroke-width:3.2; stroke-opacity:1"/>
<line clip-path="url(#clip912)" x1="550.52" y1="1385.03" x2="534.52" y2="1385.03" style="stroke:#000000; stroke-width:3.2; stroke-opacity:1"/>
<line clip-path="url(#clip912)" x1="550.52" y1="1382.21" x2="534.52" y2="1382.21" style="stroke:#000000; stroke-width:3.2; stroke-opacity:1"/>
<line clip-path="url(#clip912)" x1="591.254" y1="1385.44" x2="575.254" y2="1385.44" style="stroke:#000000; stroke-width:3.2; stroke-opacity:1"/>
<line clip-path="url(#clip912)" x1="591.254" y1="1382.68" x2="575.254" y2="1382.68" style="stroke:#000000; stroke-width:3.2; stroke-opacity:1"/>
<line clip-path="url(#clip912)" x1="631.988" y1="1385.81" x2="615.988" y2="1385.81" style="stroke:#000000; stroke-width:3.2; stroke-opacity:1"/>
<line clip-path="url(#clip912)" x1="631.988" y1="1382.53" x2="615.988" y2="1382.53" style="stroke:#000000; stroke-width:3.2; stroke-opacity:1"/>
<line clip-path="url(#clip912)" x1="672.723" y1="1385.93" x2="656.723" y2="1385.93" style="stroke:#000000; stroke-width:3.2; stroke-opacity:1"/>
<line clip-path="url(#clip912)" x1="672.723" y1="1382.46" x2="656.723" y2="1382.46" style="stroke:#000000; stroke-width:3.2; stroke-opacity:1"/>
<line clip-path="url(#clip912)" x1="713.457" y1="1386.05" x2="697.457" y2="1386.05" style="stroke:#000000; stroke-width:3.2; stroke-opacity:1"/>
<line clip-path="url(#clip912)" x1="713.457" y1="1382.36" x2="697.457" y2="1382.36" style="stroke:#000000; stroke-width:3.2; stroke-opacity:1"/>
<line clip-path="url(#clip912)" x1="754.191" y1="1386.1" x2="738.191" y2="1386.1" style="stroke:#000000; stroke-width:3.2; stroke-opacity:1"/>
<line clip-path="url(#clip912)" x1="754.191" y1="1382.31" x2="738.191" y2="1382.31" style="stroke:#000000; stroke-width:3.2; stroke-opacity:1"/>
<line clip-path="url(#clip912)" x1="794.926" y1="1386.09" x2="778.926" y2="1386.09" style="stroke:#000000; stroke-width:3.2; stroke-opacity:1"/>
<line clip-path="url(#clip912)" x1="794.926" y1="1382.32" x2="778.926" y2="1382.32" style="stroke:#000000; stroke-width:3.2; stroke-opacity:1"/>
<line clip-path="url(#clip912)" x1="835.66" y1="1386.12" x2="819.66" y2="1386.12" style="stroke:#000000; stroke-width:3.2; stroke-opacity:1"/>
<line clip-path="url(#clip912)" x1="835.66" y1="1382.29" x2="819.66" y2="1382.29" style="stroke:#000000; stroke-width:3.2; stroke-opacity:1"/>
<line clip-path="url(#clip912)" x1="876.395" y1="1386.14" x2="860.395" y2="1386.14" style="stroke:#000000; stroke-width:3.2; stroke-opacity:1"/>
<line clip-path="url(#clip912)" x1="876.395" y1="1382.27" x2="860.395" y2="1382.27" style="stroke:#000000; stroke-width:3.2; stroke-opacity:1"/>
<line clip-path="url(#clip912)" x1="917.129" y1="1386.14" x2="901.129" y2="1386.14" style="stroke:#000000; stroke-width:3.2; stroke-opacity:1"/>
<line clip-path="url(#clip912)" x1="917.129" y1="1382.27" x2="901.129" y2="1382.27" style="stroke:#000000; stroke-width:3.2; stroke-opacity:1"/>
<line clip-path="url(#clip912)" x1="957.863" y1="1386.17" x2="941.863" y2="1386.17" style="stroke:#000000; stroke-width:3.2; stroke-opacity:1"/>
<line clip-path="url(#clip912)" x1="957.863" y1="1382.24" x2="941.863" y2="1382.24" style="stroke:#000000; stroke-width:3.2; stroke-opacity:1"/>
<line clip-path="url(#clip912)" x1="998.598" y1="1386.19" x2="982.598" y2="1386.19" style="stroke:#000000; stroke-width:3.2; stroke-opacity:1"/>
<line clip-path="url(#clip912)" x1="998.598" y1="1382.22" x2="982.598" y2="1382.22" style="stroke:#000000; stroke-width:3.2; stroke-opacity:1"/>
<line clip-path="url(#clip912)" x1="1039.33" y1="1386.21" x2="1023.33" y2="1386.21" style="stroke:#000000; stroke-width:3.2; stroke-opacity:1"/>
<line clip-path="url(#clip912)" x1="1039.33" y1="1382.2" x2="1023.33" y2="1382.2" style="stroke:#000000; stroke-width:3.2; stroke-opacity:1"/>
<line clip-path="url(#clip912)" x1="1080.07" y1="1386.22" x2="1064.07" y2="1386.22" style="stroke:#000000; stroke-width:3.2; stroke-opacity:1"/>
<line clip-path="url(#clip912)" x1="1080.07" y1="1382.19" x2="1064.07" y2="1382.19" style="stroke:#000000; stroke-width:3.2; stroke-opacity:1"/>
<line clip-path="url(#clip912)" x1="1120.8" y1="1386.24" x2="1104.8" y2="1386.24" style="stroke:#000000; stroke-width:3.2; stroke-opacity:1"/>
<line clip-path="url(#clip912)" x1="1120.8" y1="1382.17" x2="1104.8" y2="1382.17" style="stroke:#000000; stroke-width:3.2; stroke-opacity:1"/>
<line clip-path="url(#clip912)" x1="1161.54" y1="1386.25" x2="1145.54" y2="1386.25" style="stroke:#000000; stroke-width:3.2; stroke-opacity:1"/>
<line clip-path="url(#clip912)" x1="1161.54" y1="1382.16" x2="1145.54" y2="1382.16" style="stroke:#000000; stroke-width:3.2; stroke-opacity:1"/>
<line clip-path="url(#clip912)" x1="1202.27" y1="1386.26" x2="1186.27" y2="1386.26" style="stroke:#000000; stroke-width:3.2; stroke-opacity:1"/>
<line clip-path="url(#clip912)" x1="1202.27" y1="1382.15" x2="1186.27" y2="1382.15" style="stroke:#000000; stroke-width:3.2; stroke-opacity:1"/>
<line clip-path="url(#clip912)" x1="1243" y1="1386.27" x2="1227" y2="1386.27" style="stroke:#000000; stroke-width:3.2; stroke-opacity:1"/>
<line clip-path="url(#clip912)" x1="1243" y1="1382.14" x2="1227" y2="1382.14" style="stroke:#000000; stroke-width:3.2; stroke-opacity:1"/>
<line clip-path="url(#clip912)" x1="1283.74" y1="1386.28" x2="1267.74" y2="1386.28" style="stroke:#000000; stroke-width:3.2; stroke-opacity:1"/>
<line clip-path="url(#clip912)" x1="1283.74" y1="1382.13" x2="1267.74" y2="1382.13" style="stroke:#000000; stroke-width:3.2; stroke-opacity:1"/>
<line clip-path="url(#clip912)" x1="1324.47" y1="1386.29" x2="1308.47" y2="1386.29" style="stroke:#000000; stroke-width:3.2; stroke-opacity:1"/>
<line clip-path="url(#clip912)" x1="1324.47" y1="1382.12" x2="1308.47" y2="1382.12" style="stroke:#000000; stroke-width:3.2; stroke-opacity:1"/>
<line clip-path="url(#clip912)" x1="1365.21" y1="1386.29" x2="1349.21" y2="1386.29" style="stroke:#000000; stroke-width:3.2; stroke-opacity:1"/>
<line clip-path="url(#clip912)" x1="1365.21" y1="1382.12" x2="1349.21" y2="1382.12" style="stroke:#000000; stroke-width:3.2; stroke-opacity:1"/>
<line clip-path="url(#clip912)" x1="1405.94" y1="1386.3" x2="1389.94" y2="1386.3" style="stroke:#000000; stroke-width:3.2; stroke-opacity:1"/>
<line clip-path="url(#clip912)" x1="1405.94" y1="1382.11" x2="1389.94" y2="1382.11" style="stroke:#000000; stroke-width:3.2; stroke-opacity:1"/>
<line clip-path="url(#clip912)" x1="1446.68" y1="1386.31" x2="1430.68" y2="1386.31" style="stroke:#000000; stroke-width:3.2; stroke-opacity:1"/>
<line clip-path="url(#clip912)" x1="1446.68" y1="1382.1" x2="1430.68" y2="1382.1" style="stroke:#000000; stroke-width:3.2; stroke-opacity:1"/>
<line clip-path="url(#clip912)" x1="1487.41" y1="1386.32" x2="1471.41" y2="1386.32" style="stroke:#000000; stroke-width:3.2; stroke-opacity:1"/>
<line clip-path="url(#clip912)" x1="1487.41" y1="1382.09" x2="1471.41" y2="1382.09" style="stroke:#000000; stroke-width:3.2; stroke-opacity:1"/>
<line clip-path="url(#clip912)" x1="1528.14" y1="1386.31" x2="1512.14" y2="1386.31" style="stroke:#000000; stroke-width:3.2; stroke-opacity:1"/>
<line clip-path="url(#clip912)" x1="1528.14" y1="1382.1" x2="1512.14" y2="1382.1" style="stroke:#000000; stroke-width:3.2; stroke-opacity:1"/>
<line clip-path="url(#clip912)" x1="1568.88" y1="1386.32" x2="1552.88" y2="1386.32" style="stroke:#000000; stroke-width:3.2; stroke-opacity:1"/>
<line clip-path="url(#clip912)" x1="1568.88" y1="1382.09" x2="1552.88" y2="1382.09" style="stroke:#000000; stroke-width:3.2; stroke-opacity:1"/>
<line clip-path="url(#clip912)" x1="1609.61" y1="1386.33" x2="1593.61" y2="1386.33" style="stroke:#000000; stroke-width:3.2; stroke-opacity:1"/>
<line clip-path="url(#clip912)" x1="1609.61" y1="1382.08" x2="1593.61" y2="1382.08" style="stroke:#000000; stroke-width:3.2; stroke-opacity:1"/>
<line clip-path="url(#clip912)" x1="1650.35" y1="1386.34" x2="1634.35" y2="1386.34" style="stroke:#000000; stroke-width:3.2; stroke-opacity:1"/>
<line clip-path="url(#clip912)" x1="1650.35" y1="1382.08" x2="1634.35" y2="1382.08" style="stroke:#000000; stroke-width:3.2; stroke-opacity:1"/>
<line clip-path="url(#clip912)" x1="1691.08" y1="1386.34" x2="1675.08" y2="1386.34" style="stroke:#000000; stroke-width:3.2; stroke-opacity:1"/>
<line clip-path="url(#clip912)" x1="1691.08" y1="1382.07" x2="1675.08" y2="1382.07" style="stroke:#000000; stroke-width:3.2; stroke-opacity:1"/>
<line clip-path="url(#clip912)" x1="1731.82" y1="1386.34" x2="1715.82" y2="1386.34" style="stroke:#000000; stroke-width:3.2; stroke-opacity:1"/>
<line clip-path="url(#clip912)" x1="1731.82" y1="1382.07" x2="1715.82" y2="1382.07" style="stroke:#000000; stroke-width:3.2; stroke-opacity:1"/>
<line clip-path="url(#clip912)" x1="1772.55" y1="1386.35" x2="1756.55" y2="1386.35" style="stroke:#000000; stroke-width:3.2; stroke-opacity:1"/>
<line clip-path="url(#clip912)" x1="1772.55" y1="1382.07" x2="1756.55" y2="1382.07" style="stroke:#000000; stroke-width:3.2; stroke-opacity:1"/>
<line clip-path="url(#clip912)" x1="1813.29" y1="1386.36" x2="1797.29" y2="1386.36" style="stroke:#000000; stroke-width:3.2; stroke-opacity:1"/>
<line clip-path="url(#clip912)" x1="1813.29" y1="1382.06" x2="1797.29" y2="1382.06" style="stroke:#000000; stroke-width:3.2; stroke-opacity:1"/>
<line clip-path="url(#clip912)" x1="1854.02" y1="1386.35" x2="1838.02" y2="1386.35" style="stroke:#000000; stroke-width:3.2; stroke-opacity:1"/>
<line clip-path="url(#clip912)" x1="1854.02" y1="1382.06" x2="1838.02" y2="1382.06" style="stroke:#000000; stroke-width:3.2; stroke-opacity:1"/>
<line clip-path="url(#clip912)" x1="1894.75" y1="1386.36" x2="1878.75" y2="1386.36" style="stroke:#000000; stroke-width:3.2; stroke-opacity:1"/>
<line clip-path="url(#clip912)" x1="1894.75" y1="1382.05" x2="1878.75" y2="1382.05" style="stroke:#000000; stroke-width:3.2; stroke-opacity:1"/>
<line clip-path="url(#clip912)" x1="1935.49" y1="1386.35" x2="1919.49" y2="1386.35" style="stroke:#000000; stroke-width:3.2; stroke-opacity:1"/>
<line clip-path="url(#clip912)" x1="1935.49" y1="1382.06" x2="1919.49" y2="1382.06" style="stroke:#000000; stroke-width:3.2; stroke-opacity:1"/>
<line clip-path="url(#clip912)" x1="1976.22" y1="1386.36" x2="1960.22" y2="1386.36" style="stroke:#000000; stroke-width:3.2; stroke-opacity:1"/>
<line clip-path="url(#clip912)" x1="1976.22" y1="1382.05" x2="1960.22" y2="1382.05" style="stroke:#000000; stroke-width:3.2; stroke-opacity:1"/>
<line clip-path="url(#clip912)" x1="2016.96" y1="1386.36" x2="2000.96" y2="1386.36" style="stroke:#000000; stroke-width:3.2; stroke-opacity:1"/>
<line clip-path="url(#clip912)" x1="2016.96" y1="1382.05" x2="2000.96" y2="1382.05" style="stroke:#000000; stroke-width:3.2; stroke-opacity:1"/>
<line clip-path="url(#clip912)" x1="2057.69" y1="1386.37" x2="2041.69" y2="1386.37" style="stroke:#000000; stroke-width:3.2; stroke-opacity:1"/>
<line clip-path="url(#clip912)" x1="2057.69" y1="1382.04" x2="2041.69" y2="1382.04" style="stroke:#000000; stroke-width:3.2; stroke-opacity:1"/>
<line clip-path="url(#clip912)" x1="2098.43" y1="1386.37" x2="2082.43" y2="1386.37" style="stroke:#000000; stroke-width:3.2; stroke-opacity:1"/>
<line clip-path="url(#clip912)" x1="2098.43" y1="1382.04" x2="2082.43" y2="1382.04" style="stroke:#000000; stroke-width:3.2; stroke-opacity:1"/>
<line clip-path="url(#clip912)" x1="2139.16" y1="1386.38" x2="2123.16" y2="1386.38" style="stroke:#000000; stroke-width:3.2; stroke-opacity:1"/>
<line clip-path="url(#clip912)" x1="2139.16" y1="1382.04" x2="2123.16" y2="1382.04" style="stroke:#000000; stroke-width:3.2; stroke-opacity:1"/>
<line clip-path="url(#clip912)" x1="2179.9" y1="1386.37" x2="2163.9" y2="1386.37" style="stroke:#000000; stroke-width:3.2; stroke-opacity:1"/>
<line clip-path="url(#clip912)" x1="2179.9" y1="1382.04" x2="2163.9" y2="1382.04" style="stroke:#000000; stroke-width:3.2; stroke-opacity:1"/>
<line clip-path="url(#clip912)" x1="2220.63" y1="1386.38" x2="2204.63" y2="1386.38" style="stroke:#000000; stroke-width:3.2; stroke-opacity:1"/>
<line clip-path="url(#clip912)" x1="2220.63" y1="1382.03" x2="2204.63" y2="1382.03" style="stroke:#000000; stroke-width:3.2; stroke-opacity:1"/>
<line clip-path="url(#clip912)" x1="2261.36" y1="1386.39" x2="2245.36" y2="1386.39" style="stroke:#000000; stroke-width:3.2; stroke-opacity:1"/>
<line clip-path="url(#clip912)" x1="2261.36" y1="1382.03" x2="2245.36" y2="1382.03" style="stroke:#000000; stroke-width:3.2; stroke-opacity:1"/>
<line clip-path="url(#clip912)" x1="2302.1" y1="1386.4" x2="2286.1" y2="1386.4" style="stroke:#000000; stroke-width:3.2; stroke-opacity:1"/>
<line clip-path="url(#clip912)" x1="2302.1" y1="1382.02" x2="2286.1" y2="1382.02" style="stroke:#000000; stroke-width:3.2; stroke-opacity:1"/>
<circle clip-path="url(#clip912)" cx="338.848" cy="160.26" r="7.2" fill="#009af9" fill-rule="evenodd" fill-opacity="1" stroke="#000000" stroke-opacity="1" stroke-width="3.2"/>
<circle clip-path="url(#clip912)" cx="379.582" cy="1162.69" r="7.2" fill="#009af9" fill-rule="evenodd" fill-opacity="1" stroke="#000000" stroke-opacity="1" stroke-width="3.2"/>
<circle clip-path="url(#clip912)" cx="420.316" cy="1339.01" r="7.2" fill="#009af9" fill-rule="evenodd" fill-opacity="1" stroke="#000000" stroke-opacity="1" stroke-width="3.2"/>
<circle clip-path="url(#clip912)" cx="461.051" cy="1374.13" r="7.2" fill="#009af9" fill-rule="evenodd" fill-opacity="1" stroke="#000000" stroke-opacity="1" stroke-width="3.2"/>
<circle clip-path="url(#clip912)" cx="501.785" cy="1381.82" r="7.2" fill="#009af9" fill-rule="evenodd" fill-opacity="1" stroke="#000000" stroke-opacity="1" stroke-width="3.2"/>
<circle clip-path="url(#clip912)" cx="542.52" cy="1383.62" r="7.2" fill="#009af9" fill-rule="evenodd" fill-opacity="1" stroke="#000000" stroke-opacity="1" stroke-width="3.2"/>
<circle clip-path="url(#clip912)" cx="583.254" cy="1384.06" r="7.2" fill="#009af9" fill-rule="evenodd" fill-opacity="1" stroke="#000000" stroke-opacity="1" stroke-width="3.2"/>
<circle clip-path="url(#clip912)" cx="623.988" cy="1384.17" r="7.2" fill="#009af9" fill-rule="evenodd" fill-opacity="1" stroke="#000000" stroke-opacity="1" stroke-width="3.2"/>
<circle clip-path="url(#clip912)" cx="664.723" cy="1384.2" r="7.2" fill="#009af9" fill-rule="evenodd" fill-opacity="1" stroke="#000000" stroke-opacity="1" stroke-width="3.2"/>
<circle clip-path="url(#clip912)" cx="705.457" cy="1384.2" r="7.2" fill="#009af9" fill-rule="evenodd" fill-opacity="1" stroke="#000000" stroke-opacity="1" stroke-width="3.2"/>
<circle clip-path="url(#clip912)" cx="746.191" cy="1384.21" r="7.2" fill="#009af9" fill-rule="evenodd" fill-opacity="1" stroke="#000000" stroke-opacity="1" stroke-width="3.2"/>
<circle clip-path="url(#clip912)" cx="786.926" cy="1384.21" r="7.2" fill="#009af9" fill-rule="evenodd" fill-opacity="1" stroke="#000000" stroke-opacity="1" stroke-width="3.2"/>
<circle clip-path="url(#clip912)" cx="827.66" cy="1384.21" r="7.2" fill="#009af9" fill-rule="evenodd" fill-opacity="1" stroke="#000000" stroke-opacity="1" stroke-width="3.2"/>
<circle clip-path="url(#clip912)" cx="868.395" cy="1384.21" r="7.2" fill="#009af9" fill-rule="evenodd" fill-opacity="1" stroke="#000000" stroke-opacity="1" stroke-width="3.2"/>
<circle clip-path="url(#clip912)" cx="909.129" cy="1384.21" r="7.2" fill="#009af9" fill-rule="evenodd" fill-opacity="1" stroke="#000000" stroke-opacity="1" stroke-width="3.2"/>
<circle clip-path="url(#clip912)" cx="949.863" cy="1384.21" r="7.2" fill="#009af9" fill-rule="evenodd" fill-opacity="1" stroke="#000000" stroke-opacity="1" stroke-width="3.2"/>
<circle clip-path="url(#clip912)" cx="990.598" cy="1384.21" r="7.2" fill="#009af9" fill-rule="evenodd" fill-opacity="1" stroke="#000000" stroke-opacity="1" stroke-width="3.2"/>
<circle clip-path="url(#clip912)" cx="1031.33" cy="1384.21" r="7.2" fill="#009af9" fill-rule="evenodd" fill-opacity="1" stroke="#000000" stroke-opacity="1" stroke-width="3.2"/>
<circle clip-path="url(#clip912)" cx="1072.07" cy="1384.21" r="7.2" fill="#009af9" fill-rule="evenodd" fill-opacity="1" stroke="#000000" stroke-opacity="1" stroke-width="3.2"/>
<circle clip-path="url(#clip912)" cx="1112.8" cy="1384.21" r="7.2" fill="#009af9" fill-rule="evenodd" fill-opacity="1" stroke="#000000" stroke-opacity="1" stroke-width="3.2"/>
<circle clip-path="url(#clip912)" cx="1153.54" cy="1384.21" r="7.2" fill="#009af9" fill-rule="evenodd" fill-opacity="1" stroke="#000000" stroke-opacity="1" stroke-width="3.2"/>
<circle clip-path="url(#clip912)" cx="1194.27" cy="1384.21" r="7.2" fill="#009af9" fill-rule="evenodd" fill-opacity="1" stroke="#000000" stroke-opacity="1" stroke-width="3.2"/>
<circle clip-path="url(#clip912)" cx="1235" cy="1384.21" r="7.2" fill="#009af9" fill-rule="evenodd" fill-opacity="1" stroke="#000000" stroke-opacity="1" stroke-width="3.2"/>
<circle clip-path="url(#clip912)" cx="1275.74" cy="1384.21" r="7.2" fill="#009af9" fill-rule="evenodd" fill-opacity="1" stroke="#000000" stroke-opacity="1" stroke-width="3.2"/>
<circle clip-path="url(#clip912)" cx="1316.47" cy="1384.21" r="7.2" fill="#009af9" fill-rule="evenodd" fill-opacity="1" stroke="#000000" stroke-opacity="1" stroke-width="3.2"/>
<circle clip-path="url(#clip912)" cx="1357.21" cy="1384.21" r="7.2" fill="#009af9" fill-rule="evenodd" fill-opacity="1" stroke="#000000" stroke-opacity="1" stroke-width="3.2"/>
<circle clip-path="url(#clip912)" cx="1397.94" cy="1384.21" r="7.2" fill="#009af9" fill-rule="evenodd" fill-opacity="1" stroke="#000000" stroke-opacity="1" stroke-width="3.2"/>
<circle clip-path="url(#clip912)" cx="1438.68" cy="1384.21" r="7.2" fill="#009af9" fill-rule="evenodd" fill-opacity="1" stroke="#000000" stroke-opacity="1" stroke-width="3.2"/>
<circle clip-path="url(#clip912)" cx="1479.41" cy="1384.21" r="7.2" fill="#009af9" fill-rule="evenodd" fill-opacity="1" stroke="#000000" stroke-opacity="1" stroke-width="3.2"/>
<circle clip-path="url(#clip912)" cx="1520.14" cy="1384.21" r="7.2" fill="#009af9" fill-rule="evenodd" fill-opacity="1" stroke="#000000" stroke-opacity="1" stroke-width="3.2"/>
<circle clip-path="url(#clip912)" cx="1560.88" cy="1384.21" r="7.2" fill="#009af9" fill-rule="evenodd" fill-opacity="1" stroke="#000000" stroke-opacity="1" stroke-width="3.2"/>
<circle clip-path="url(#clip912)" cx="1601.61" cy="1384.21" r="7.2" fill="#009af9" fill-rule="evenodd" fill-opacity="1" stroke="#000000" stroke-opacity="1" stroke-width="3.2"/>
<circle clip-path="url(#clip912)" cx="1642.35" cy="1384.21" r="7.2" fill="#009af9" fill-rule="evenodd" fill-opacity="1" stroke="#000000" stroke-opacity="1" stroke-width="3.2"/>
<circle clip-path="url(#clip912)" cx="1683.08" cy="1384.21" r="7.2" fill="#009af9" fill-rule="evenodd" fill-opacity="1" stroke="#000000" stroke-opacity="1" stroke-width="3.2"/>
<circle clip-path="url(#clip912)" cx="1723.82" cy="1384.21" r="7.2" fill="#009af9" fill-rule="evenodd" fill-opacity="1" stroke="#000000" stroke-opacity="1" stroke-width="3.2"/>
<circle clip-path="url(#clip912)" cx="1764.55" cy="1384.21" r="7.2" fill="#009af9" fill-rule="evenodd" fill-opacity="1" stroke="#000000" stroke-opacity="1" stroke-width="3.2"/>
<circle clip-path="url(#clip912)" cx="1805.29" cy="1384.21" r="7.2" fill="#009af9" fill-rule="evenodd" fill-opacity="1" stroke="#000000" stroke-opacity="1" stroke-width="3.2"/>
<circle clip-path="url(#clip912)" cx="1846.02" cy="1384.21" r="7.2" fill="#009af9" fill-rule="evenodd" fill-opacity="1" stroke="#000000" stroke-opacity="1" stroke-width="3.2"/>
<circle clip-path="url(#clip912)" cx="1886.75" cy="1384.21" r="7.2" fill="#009af9" fill-rule="evenodd" fill-opacity="1" stroke="#000000" stroke-opacity="1" stroke-width="3.2"/>
<circle clip-path="url(#clip912)" cx="1927.49" cy="1384.21" r="7.2" fill="#009af9" fill-rule="evenodd" fill-opacity="1" stroke="#000000" stroke-opacity="1" stroke-width="3.2"/>
<circle clip-path="url(#clip912)" cx="1968.22" cy="1384.21" r="7.2" fill="#009af9" fill-rule="evenodd" fill-opacity="1" stroke="#000000" stroke-opacity="1" stroke-width="3.2"/>
<circle clip-path="url(#clip912)" cx="2008.96" cy="1384.21" r="7.2" fill="#009af9" fill-rule="evenodd" fill-opacity="1" stroke="#000000" stroke-opacity="1" stroke-width="3.2"/>
<circle clip-path="url(#clip912)" cx="2049.69" cy="1384.21" r="7.2" fill="#009af9" fill-rule="evenodd" fill-opacity="1" stroke="#000000" stroke-opacity="1" stroke-width="3.2"/>
<circle clip-path="url(#clip912)" cx="2090.43" cy="1384.21" r="7.2" fill="#009af9" fill-rule="evenodd" fill-opacity="1" stroke="#000000" stroke-opacity="1" stroke-width="3.2"/>
<circle clip-path="url(#clip912)" cx="2131.16" cy="1384.21" r="7.2" fill="#009af9" fill-rule="evenodd" fill-opacity="1" stroke="#000000" stroke-opacity="1" stroke-width="3.2"/>
<circle clip-path="url(#clip912)" cx="2171.9" cy="1384.21" r="7.2" fill="#009af9" fill-rule="evenodd" fill-opacity="1" stroke="#000000" stroke-opacity="1" stroke-width="3.2"/>
<circle clip-path="url(#clip912)" cx="2212.63" cy="1384.21" r="7.2" fill="#009af9" fill-rule="evenodd" fill-opacity="1" stroke="#000000" stroke-opacity="1" stroke-width="3.2"/>
<circle clip-path="url(#clip912)" cx="2253.36" cy="1384.21" r="7.2" fill="#009af9" fill-rule="evenodd" fill-opacity="1" stroke="#000000" stroke-opacity="1" stroke-width="3.2"/>
<circle clip-path="url(#clip912)" cx="2294.1" cy="1384.21" r="7.2" fill="#009af9" fill-rule="evenodd" fill-opacity="1" stroke="#000000" stroke-opacity="1" stroke-width="3.2"/>
<path clip-path="url(#clip910)" d="
M1718.64 270.476 L2283.67 270.476 L2283.67 166.796 L1718.64 166.796  Z
  " fill="#ffffff" fill-rule="evenodd" fill-opacity="1"/>
<polyline clip-path="url(#clip910)" style="stroke:#000000; stroke-linecap:round; stroke-linejoin:round; stroke-width:4; stroke-opacity:1; fill:none" points="
  1718.64,270.476 2283.67,270.476 2283.67,166.796 1718.64,166.796 1718.64,270.476 
  "/>
<circle clip-path="url(#clip910)" cx="1810.75" cy="218.636" r="23.04" fill="#009af9" fill-rule="evenodd" fill-opacity="1" stroke="#000000" stroke-opacity="1" stroke-width="10.24"/>
<path clip-path="url(#clip910)" d="M1923.21 214.967 Q1924.81 212.096 1927.03 210.731 Q1929.25 209.365 1932.26 209.365 Q1936.31 209.365 1938.51 212.212 Q1940.71 215.036 1940.71 220.268 L1940.71 235.916 L1936.43 235.916 L1936.43 220.407 Q1936.43 216.68 1935.11 214.874 Q1933.79 213.069 1931.08 213.069 Q1927.77 213.069 1925.85 215.268 Q1923.93 217.467 1923.93 221.263 L1923.93 235.916 L1919.65 235.916 L1919.65 220.407 Q1919.65 216.657 1918.33 214.874 Q1917.01 213.069 1914.25 213.069 Q1910.99 213.069 1909.07 215.291 Q1907.15 217.49 1907.15 221.263 L1907.15 235.916 L1902.87 235.916 L1902.87 209.99 L1907.15 209.99 L1907.15 214.018 Q1908.61 211.633 1910.64 210.499 Q1912.68 209.365 1915.48 209.365 Q1918.31 209.365 1920.27 210.8 Q1922.26 212.235 1923.21 214.967 Z" fill="#000000" fill-rule="evenodd" fill-opacity="1" /><path clip-path="url(#clip910)" d="M1957.94 220.245 Q1956.78 218.254 1954.44 218.254 Q1952.1 218.254 1950.94 220.245 Q1949.76 222.235 1949.76 226.217 Q1949.76 230.221 1950.94 232.212 Q1952.1 234.203 1954.44 234.203 Q1956.78 234.203 1957.94 232.212 Q1959.12 230.221 1959.12 226.217 Q1959.12 222.235 1957.94 220.245 M1954.44 216.194 Q1958.17 216.194 1960.13 218.763 Q1962.1 221.332 1962.1 226.217 Q1962.1 231.124 1960.13 233.694 Q1958.17 236.263 1954.44 236.263 Q1950.69 236.263 1948.72 233.694 Q1946.75 231.124 1946.75 226.217 Q1946.75 221.332 1948.72 218.763 Q1950.69 216.194 1954.44 216.194 Z" fill="#000000" fill-rule="evenodd" fill-opacity="1" /><path clip-path="url(#clip910)" d="M1968.77 214.388 L1998.44 214.388 L1998.44 218.277 L1968.77 218.277 L1968.77 214.388 M1968.77 223.832 L1998.44 223.832 L1998.44 227.768 L1968.77 227.768 L1968.77 223.832 Z" fill="#000000" fill-rule="evenodd" fill-opacity="1" /><path clip-path="url(#clip910)" d="M2018.54 204.434 Q2014.93 204.434 2013.1 207.999 Q2011.29 211.541 2011.29 218.67 Q2011.29 225.777 2013.1 229.342 Q2014.93 232.883 2018.54 232.883 Q2022.17 232.883 2023.98 229.342 Q2025.81 225.777 2025.81 218.67 Q2025.81 211.541 2023.98 207.999 Q2022.17 204.434 2018.54 204.434 M2018.54 200.731 Q2024.35 200.731 2027.4 205.337 Q2030.48 209.92 2030.48 218.67 Q2030.48 227.397 2027.4 232.004 Q2024.35 236.587 2018.54 236.587 Q2012.73 236.587 2009.65 232.004 Q2006.59 227.397 2006.59 218.67 Q2006.59 209.92 2009.65 205.337 Q2012.73 200.731 2018.54 200.731 Z" fill="#000000" fill-rule="evenodd" fill-opacity="1" /><path clip-path="url(#clip910)" d="M2038.7 230.036 L2043.58 230.036 L2043.58 235.916 L2038.7 235.916 L2038.7 230.036 Z" fill="#000000" fill-rule="evenodd" fill-opacity="1" /><path clip-path="url(#clip910)" d="M2064.35 216.772 Q2061.2 216.772 2059.35 218.925 Q2057.52 221.078 2057.52 224.828 Q2057.52 228.555 2059.35 230.731 Q2061.2 232.883 2064.35 232.883 Q2067.49 232.883 2069.32 230.731 Q2071.18 228.555 2071.18 224.828 Q2071.18 221.078 2069.32 218.925 Q2067.49 216.772 2064.35 216.772 M2073.63 202.12 L2073.63 206.379 Q2071.87 205.546 2070.06 205.106 Q2068.28 204.666 2066.52 204.666 Q2061.89 204.666 2059.44 207.791 Q2057.01 210.916 2056.66 217.235 Q2058.03 215.221 2060.09 214.157 Q2062.15 213.069 2064.62 213.069 Q2069.83 213.069 2072.84 216.24 Q2075.87 219.388 2075.87 224.828 Q2075.87 230.152 2072.73 233.369 Q2069.58 236.587 2064.35 236.587 Q2058.35 236.587 2055.18 232.004 Q2052.01 227.397 2052.01 218.67 Q2052.01 210.476 2055.9 205.615 Q2059.79 200.731 2066.34 200.731 Q2068.1 200.731 2069.88 201.078 Q2071.68 201.425 2073.63 202.12 Z" fill="#000000" fill-rule="evenodd" fill-opacity="1" /><path clip-path="url(#clip910)" d="M2084.42 230.036 L2089.3 230.036 L2089.3 234.018 L2085.5 241.425 L2082.52 241.425 L2084.42 234.018 L2084.42 230.036 Z" fill="#000000" fill-rule="evenodd" fill-opacity="1" /><path clip-path="url(#clip910)" d="M2122.15 230.985 L2122.15 221.703 L2114.51 221.703 L2114.51 217.86 L2126.78 217.86 L2126.78 232.698 Q2124.07 234.619 2120.8 235.615 Q2117.54 236.587 2113.84 236.587 Q2105.74 236.587 2101.15 231.865 Q2096.59 227.119 2096.59 218.67 Q2096.59 210.198 2101.15 205.476 Q2105.74 200.731 2113.84 200.731 Q2117.22 200.731 2120.25 201.564 Q2123.3 202.397 2125.87 204.018 L2125.87 208.995 Q2123.28 206.796 2120.36 205.684 Q2117.45 204.573 2114.23 204.573 Q2107.89 204.573 2104.69 208.115 Q2101.52 211.657 2101.52 218.67 Q2101.52 225.661 2104.69 229.203 Q2107.89 232.744 2114.23 232.744 Q2116.71 232.744 2118.65 232.328 Q2120.6 231.888 2122.15 230.985 Z" fill="#000000" fill-rule="evenodd" fill-opacity="1" /><path clip-path="url(#clip910)" d="M2136.87 217.814 L2146.68 217.814 L2146.68 220.453 L2132.84 220.453 L2132.84 217.907 Q2133.63 217.189 2135.09 215.893 Q2143.05 208.833 2143.05 206.657 Q2143.05 205.129 2141.85 204.203 Q2140.64 203.254 2138.67 203.254 Q2137.47 203.254 2136.06 203.671 Q2134.65 204.064 2132.98 204.874 L2132.98 202.027 Q2134.76 201.379 2136.29 201.055 Q2137.84 200.731 2139.16 200.731 Q2142.52 200.731 2144.53 202.258 Q2146.55 203.786 2146.55 206.286 Q2146.55 209.504 2138.88 216.078 Q2137.59 217.189 2136.87 217.814 Z" fill="#000000" fill-rule="evenodd" fill-opacity="1" /><path clip-path="url(#clip910)" d="M2154.69 214.388 L2184.37 214.388 L2184.37 218.277 L2154.69 218.277 L2154.69 214.388 M2154.69 223.832 L2184.37 223.832 L2184.37 227.768 L2154.69 227.768 L2154.69 223.832 Z" fill="#000000" fill-rule="evenodd" fill-opacity="1" /><path clip-path="url(#clip910)" d="M2204.46 204.434 Q2200.85 204.434 2199.02 207.999 Q2197.22 211.541 2197.22 218.67 Q2197.22 225.777 2199.02 229.342 Q2200.85 232.883 2204.46 232.883 Q2208.1 232.883 2209.9 229.342 Q2211.73 225.777 2211.73 218.67 Q2211.73 211.541 2209.9 207.999 Q2208.1 204.434 2204.46 204.434 M2204.46 200.731 Q2210.27 200.731 2213.33 205.337 Q2216.41 209.92 2216.41 218.67 Q2216.41 227.397 2213.33 232.004 Q2210.27 236.587 2204.46 236.587 Q2198.65 236.587 2195.57 232.004 Q2192.52 227.397 2192.52 218.67 Q2192.52 209.92 2195.57 205.337 Q2198.65 200.731 2204.46 200.731 Z" fill="#000000" fill-rule="evenodd" fill-opacity="1" /><path clip-path="url(#clip910)" d="M2224.62 230.036 L2229.51 230.036 L2229.51 235.916 L2224.62 235.916 L2224.62 230.036 Z" fill="#000000" fill-rule="evenodd" fill-opacity="1" /><path clip-path="url(#clip910)" d="M2239.74 201.356 L2258.1 201.356 L2258.1 205.291 L2244.02 205.291 L2244.02 213.763 Q2245.04 213.416 2246.06 213.254 Q2247.08 213.069 2248.1 213.069 Q2253.88 213.069 2257.26 216.24 Q2260.64 219.411 2260.64 224.828 Q2260.64 230.406 2257.17 233.508 Q2253.7 236.587 2247.38 236.587 Q2245.2 236.587 2242.93 236.217 Q2240.69 235.846 2238.28 235.106 L2238.28 230.406 Q2240.36 231.541 2242.59 232.096 Q2244.81 232.652 2247.29 232.652 Q2251.29 232.652 2253.63 230.545 Q2255.97 228.439 2255.97 224.828 Q2255.97 221.217 2253.63 219.11 Q2251.29 217.004 2247.29 217.004 Q2245.41 217.004 2243.54 217.42 Q2241.68 217.837 2239.74 218.717 L2239.74 201.356 Z" fill="#000000" fill-rule="evenodd" fill-opacity="1" /></svg>
