<?xml version="1.0" encoding="utf-8"?>
<svg xmlns="http://www.w3.org/2000/svg" xmlns:xlink="http://www.w3.org/1999/xlink" width="600" height="400" viewBox="0 0 2400 1600">
<defs>
  <clipPath id="clip350">
    <rect x="0" y="0" width="2400" height="1600"/>
  </clipPath>
</defs>
<path clip-path="url(#clip350)" d="
M0 1600 L2400 1600 L2400 0 L0 0  Z
  " fill="#ffffff" fill-rule="evenodd" fill-opacity="1"/>
<defs>
  <clipPath id="clip351">
    <rect x="480" y="0" width="1681" height="1600"/>
  </clipPath>
</defs>
<path clip-path="url(#clip350)" d="
M219.866 1423.18 L2352.76 1423.18 L2352.76 123.472 L219.866 123.472  Z
  " fill="#ffffff" fill-rule="evenodd" fill-opacity="1"/>
<defs>
  <clipPath id="clip352">
    <rect x="219" y="123" width="2134" height="1301"/>
  </clipPath>
</defs>
<polyline clip-path="url(#clip352)" style="stroke:#000000; stroke-linecap:round; stroke-linejoin:round; stroke-width:2; stroke-opacity:0.1; fill:none" points="
  219.866,1423.18 219.866,123.472 
  "/>
<polyline clip-path="url(#clip352)" style="stroke:#000000; stroke-linecap:round; stroke-linejoin:round; stroke-width:2; stroke-opacity:0.1; fill:none" points="
  433.155,1423.18 433.155,123.472 
  "/>
<polyline clip-path="url(#clip352)" style="stroke:#000000; stroke-linecap:round; stroke-linejoin:round; stroke-width:2; stroke-opacity:0.1; fill:none" points="
  646.444,1423.18 646.444,123.472 
  "/>
<polyline clip-path="url(#clip352)" style="stroke:#000000; stroke-linecap:round; stroke-linejoin:round; stroke-width:2; stroke-opacity:0.1; fill:none" points="
  859.733,1423.18 859.733,123.472 
  "/>
<polyline clip-path="url(#clip352)" style="stroke:#000000; stroke-linecap:round; stroke-linejoin:round; stroke-width:2; stroke-opacity:0.1; fill:none" points="
  1073.02,1423.18 1073.02,123.472 
  "/>
<polyline clip-path="url(#clip352)" style="stroke:#000000; stroke-linecap:round; stroke-linejoin:round; stroke-width:2; stroke-opacity:0.1; fill:none" points="
  1286.31,1423.18 1286.31,123.472 
  "/>
<polyline clip-path="url(#clip352)" style="stroke:#000000; stroke-linecap:round; stroke-linejoin:round; stroke-width:2; stroke-opacity:0.1; fill:none" points="
  1499.6,1423.18 1499.6,123.472 
  "/>
<polyline clip-path="url(#clip352)" style="stroke:#000000; stroke-linecap:round; stroke-linejoin:round; stroke-width:2; stroke-opacity:0.1; fill:none" points="
  1712.89,1423.18 1712.89,123.472 
  "/>
<polyline clip-path="url(#clip352)" style="stroke:#000000; stroke-linecap:round; stroke-linejoin:round; stroke-width:2; stroke-opacity:0.1; fill:none" points="
  1926.18,1423.18 1926.18,123.472 
  "/>
<polyline clip-path="url(#clip352)" style="stroke:#000000; stroke-linecap:round; stroke-linejoin:round; stroke-width:2; stroke-opacity:0.1; fill:none" points="
  2139.47,1423.18 2139.47,123.472 
  "/>
<polyline clip-path="url(#clip352)" style="stroke:#000000; stroke-linecap:round; stroke-linejoin:round; stroke-width:2; stroke-opacity:0.1; fill:none" points="
  2352.76,1423.18 2352.76,123.472 
  "/>
<polyline clip-path="url(#clip350)" style="stroke:#000000; stroke-linecap:round; stroke-linejoin:round; stroke-width:4; stroke-opacity:1; fill:none" points="
  219.866,1423.18 2352.76,1423.18 
  "/>
<polyline clip-path="url(#clip350)" style="stroke:#000000; stroke-linecap:round; stroke-linejoin:round; stroke-width:4; stroke-opacity:1; fill:none" points="
  219.866,1423.18 219.866,1404.28 
  "/>
<polyline clip-path="url(#clip350)" style="stroke:#000000; stroke-linecap:round; stroke-linejoin:round; stroke-width:4; stroke-opacity:1; fill:none" points="
  433.155,1423.18 433.155,1404.28 
  "/>
<polyline clip-path="url(#clip350)" style="stroke:#000000; stroke-linecap:round; stroke-linejoin:round; stroke-width:4; stroke-opacity:1; fill:none" points="
  646.444,1423.18 646.444,1404.28 
  "/>
<polyline clip-path="url(#clip350)" style="stroke:#000000; stroke-linecap:round; stroke-linejoin:round; stroke-width:4; stroke-opacity:1; fill:none" points="
  859.733,1423.18 859.733,1404.28 
  "/>
<polyline clip-path="url(#clip350)" style="stroke:#000000; stroke-linecap:round; stroke-linejoin:round; stroke-width:4; stroke-opacity:1; fill:none" points="
  1073.02,1423.18 1073.02,1404.28 
  "/>
<polyline clip-path="url(#clip350)" style="stroke:#000000; stroke-linecap:round; stroke-linejoin:round; stroke-width:4; stroke-opacity:1; fill:none" points="
  1286.31,1423.18 1286.31,1404.28 
  "/>
<polyline clip-path="url(#clip350)" style="stroke:#000000; stroke-linecap:round; stroke-linejoin:round; stroke-width:4; stroke-opacity:1; fill:none" points="
  1499.6,1423.18 1499.6,1404.28 
  "/>
<polyline clip-path="url(#clip350)" style="stroke:#000000; stroke-linecap:round; stroke-linejoin:round; stroke-width:4; stroke-opacity:1; fill:none" points="
  1712.89,1423.18 1712.89,1404.28 
  "/>
<polyline clip-path="url(#clip350)" style="stroke:#000000; stroke-linecap:round; stroke-linejoin:round; stroke-width:4; stroke-opacity:1; fill:none" points="
  1926.18,1423.18 1926.18,1404.28 
  "/>
<polyline clip-path="url(#clip350)" style="stroke:#000000; stroke-linecap:round; stroke-linejoin:round; stroke-width:4; stroke-opacity:1; fill:none" points="
  2139.47,1423.18 2139.47,1404.28 
  "/>
<polyline clip-path="url(#clip350)" style="stroke:#000000; stroke-linecap:round; stroke-linejoin:round; stroke-width:4; stroke-opacity:1; fill:none" points="
  2352.76,1423.18 2352.76,1404.28 
  "/>
<path clip-path="url(#clip350)" d="M219.866 1454.1 Q216.255 1454.1 214.426 1457.66 Q212.621 1461.2 212.621 1468.33 Q212.621 1475.44 214.426 1479.01 Q216.255 1482.55 219.866 1482.55 Q223.501 1482.55 225.306 1479.01 Q227.135 1475.44 227.135 1468.33 Q227.135 1461.2 225.306 1457.66 Q223.501 1454.1 219.866 1454.1 M219.866 1450.39 Q225.676 1450.39 228.732 1455 Q231.811 1459.58 231.811 1468.33 Q231.811 1477.06 228.732 1481.67 Q225.676 1486.25 219.866 1486.25 Q214.056 1486.25 210.977 1481.67 Q207.922 1477.06 207.922 1468.33 Q207.922 1459.58 210.977 1455 Q214.056 1450.39 219.866 1450.39 Z" fill="#000000" fill-rule="evenodd" fill-opacity="1" /><path clip-path="url(#clip350)" d="M423.433 1451.02 L441.789 1451.02 L441.789 1454.96 L427.715 1454.96 L427.715 1463.43 Q428.734 1463.08 429.752 1462.92 Q430.771 1462.73 431.789 1462.73 Q437.577 1462.73 440.956 1465.9 Q444.336 1469.08 444.336 1474.49 Q444.336 1480.07 440.864 1483.17 Q437.391 1486.25 431.072 1486.25 Q428.896 1486.25 426.627 1485.88 Q424.382 1485.51 421.975 1484.77 L421.975 1480.07 Q424.058 1481.2 426.28 1481.76 Q428.502 1482.32 430.979 1482.32 Q434.984 1482.32 437.322 1480.21 Q439.66 1478.1 439.66 1474.49 Q439.66 1470.88 437.322 1468.77 Q434.984 1466.67 430.979 1466.67 Q429.104 1466.67 427.229 1467.08 Q425.377 1467.5 423.433 1468.38 L423.433 1451.02 Z" fill="#000000" fill-rule="evenodd" fill-opacity="1" /><path clip-path="url(#clip350)" d="M621.132 1481.64 L628.771 1481.64 L628.771 1455.28 L620.461 1456.95 L620.461 1452.69 L628.724 1451.02 L633.4 1451.02 L633.4 1481.64 L641.039 1481.64 L641.039 1485.58 L621.132 1485.58 L621.132 1481.64 Z" fill="#000000" fill-rule="evenodd" fill-opacity="1" /><path clip-path="url(#clip350)" d="M660.483 1454.1 Q656.872 1454.1 655.044 1457.66 Q653.238 1461.2 653.238 1468.33 Q653.238 1475.44 655.044 1479.01 Q656.872 1482.55 660.483 1482.55 Q664.118 1482.55 665.923 1479.01 Q667.752 1475.44 667.752 1468.33 Q667.752 1461.2 665.923 1457.66 Q664.118 1454.1 660.483 1454.1 M660.483 1450.39 Q666.294 1450.39 669.349 1455 Q672.428 1459.58 672.428 1468.33 Q672.428 1477.06 669.349 1481.67 Q666.294 1486.25 660.483 1486.25 Q654.673 1486.25 651.595 1481.67 Q648.539 1477.06 648.539 1468.33 Q648.539 1459.58 651.595 1455 Q654.673 1450.39 660.483 1450.39 Z" fill="#000000" fill-rule="evenodd" fill-opacity="1" /><path clip-path="url(#clip350)" d="M834.918 1481.64 L842.557 1481.64 L842.557 1455.28 L834.247 1456.95 L834.247 1452.69 L842.511 1451.02 L847.187 1451.02 L847.187 1481.64 L854.826 1481.64 L854.826 1485.58 L834.918 1485.58 L834.918 1481.64 Z" fill="#000000" fill-rule="evenodd" fill-opacity="1" /><path clip-path="url(#clip350)" d="M864.316 1451.02 L882.673 1451.02 L882.673 1454.96 L868.599 1454.96 L868.599 1463.43 Q869.617 1463.08 870.636 1462.92 Q871.654 1462.73 872.673 1462.73 Q878.46 1462.73 881.84 1465.9 Q885.219 1469.08 885.219 1474.49 Q885.219 1480.07 881.747 1483.17 Q878.275 1486.25 871.955 1486.25 Q869.779 1486.25 867.511 1485.88 Q865.266 1485.51 862.858 1484.77 L862.858 1480.07 Q864.941 1481.2 867.164 1481.76 Q869.386 1482.32 871.863 1482.32 Q875.867 1482.32 878.205 1480.21 Q880.543 1478.1 880.543 1474.49 Q880.543 1470.88 878.205 1468.77 Q875.867 1466.67 871.863 1466.67 Q869.988 1466.67 868.113 1467.08 Q866.261 1467.5 864.316 1468.38 L864.316 1451.02 Z" fill="#000000" fill-rule="evenodd" fill-opacity="1" /><path clip-path="url(#clip350)" d="M1051.8 1481.64 L1068.11 1481.64 L1068.11 1485.58 L1046.17 1485.58 L1046.17 1481.64 Q1048.83 1478.89 1053.42 1474.26 Q1058.02 1469.61 1059.2 1468.27 Q1061.45 1465.74 1062.33 1464.01 Q1063.23 1462.25 1063.23 1460.56 Q1063.23 1457.8 1061.29 1456.07 Q1059.36 1454.33 1056.26 1454.33 Q1054.06 1454.33 1051.61 1455.09 Q1049.18 1455.86 1046.4 1457.41 L1046.4 1452.69 Q1049.23 1451.55 1051.68 1450.97 Q1054.13 1450.39 1056.17 1450.39 Q1061.54 1450.39 1064.74 1453.08 Q1067.93 1455.77 1067.93 1460.26 Q1067.93 1462.39 1067.12 1464.31 Q1066.33 1466.2 1064.23 1468.8 Q1063.65 1469.47 1060.55 1472.69 Q1057.44 1475.88 1051.8 1481.64 Z" fill="#000000" fill-rule="evenodd" fill-opacity="1" /><path clip-path="url(#clip350)" d="M1087.93 1454.1 Q1084.32 1454.1 1082.49 1457.66 Q1080.68 1461.2 1080.68 1468.33 Q1080.68 1475.44 1082.49 1479.01 Q1084.32 1482.55 1087.93 1482.55 Q1091.56 1482.55 1093.37 1479.01 Q1095.2 1475.44 1095.2 1468.33 Q1095.2 1461.2 1093.37 1457.66 Q1091.56 1454.1 1087.93 1454.1 M1087.93 1450.39 Q1093.74 1450.39 1096.8 1455 Q1099.87 1459.58 1099.87 1468.33 Q1099.87 1477.06 1096.8 1481.67 Q1093.74 1486.25 1087.93 1486.25 Q1082.12 1486.25 1079.04 1481.67 Q1075.99 1477.06 1075.99 1468.33 Q1075.99 1459.58 1079.04 1455 Q1082.12 1450.39 1087.93 1450.39 Z" fill="#000000" fill-rule="evenodd" fill-opacity="1" /><path clip-path="url(#clip350)" d="M1265.58 1481.64 L1281.9 1481.64 L1281.9 1485.58 L1259.96 1485.58 L1259.96 1481.64 Q1262.62 1478.89 1267.2 1474.26 Q1271.81 1469.61 1272.99 1468.27 Q1275.23 1465.74 1276.11 1464.01 Q1277.02 1462.25 1277.02 1460.56 Q1277.02 1457.8 1275.07 1456.07 Q1273.15 1454.33 1270.05 1454.33 Q1267.85 1454.33 1265.4 1455.09 Q1262.97 1455.86 1260.19 1457.41 L1260.19 1452.69 Q1263.01 1451.55 1265.47 1450.97 Q1267.92 1450.39 1269.96 1450.39 Q1275.33 1450.39 1278.52 1453.08 Q1281.72 1455.77 1281.72 1460.26 Q1281.72 1462.39 1280.91 1464.31 Q1280.12 1466.2 1278.01 1468.8 Q1277.43 1469.47 1274.33 1472.69 Q1271.23 1475.88 1265.58 1481.64 Z" fill="#000000" fill-rule="evenodd" fill-opacity="1" /><path clip-path="url(#clip350)" d="M1291.76 1451.02 L1310.12 1451.02 L1310.12 1454.96 L1296.04 1454.96 L1296.04 1463.43 Q1297.06 1463.08 1298.08 1462.92 Q1299.1 1462.73 1300.12 1462.73 Q1305.91 1462.73 1309.29 1465.9 Q1312.67 1469.08 1312.67 1474.49 Q1312.67 1480.07 1309.19 1483.17 Q1305.72 1486.25 1299.4 1486.25 Q1297.23 1486.25 1294.96 1485.88 Q1292.71 1485.51 1290.3 1484.77 L1290.3 1480.07 Q1292.39 1481.2 1294.61 1481.76 Q1296.83 1482.32 1299.31 1482.32 Q1303.31 1482.32 1305.65 1480.21 Q1307.99 1478.1 1307.99 1474.49 Q1307.99 1470.88 1305.65 1468.77 Q1303.31 1466.67 1299.31 1466.67 Q1297.43 1466.67 1295.56 1467.08 Q1293.71 1467.5 1291.76 1468.38 L1291.76 1451.02 Z" fill="#000000" fill-rule="evenodd" fill-opacity="1" /><path clip-path="url(#clip350)" d="M1488.44 1466.95 Q1491.8 1467.66 1493.67 1469.93 Q1495.57 1472.2 1495.57 1475.53 Q1495.57 1480.65 1492.05 1483.45 Q1488.54 1486.25 1482.05 1486.25 Q1479.88 1486.25 1477.56 1485.81 Q1475.27 1485.39 1472.82 1484.54 L1472.82 1480.02 Q1474.76 1481.16 1477.08 1481.74 Q1479.39 1482.32 1481.91 1482.32 Q1486.31 1482.32 1488.6 1480.58 Q1490.92 1478.84 1490.92 1475.53 Q1490.92 1472.48 1488.77 1470.77 Q1486.64 1469.03 1482.82 1469.03 L1478.79 1469.03 L1478.79 1465.19 L1483 1465.19 Q1486.45 1465.19 1488.28 1463.82 Q1490.11 1462.43 1490.11 1459.84 Q1490.11 1457.18 1488.21 1455.77 Q1486.34 1454.33 1482.82 1454.33 Q1480.9 1454.33 1478.7 1454.75 Q1476.5 1455.16 1473.86 1456.04 L1473.86 1451.88 Q1476.52 1451.14 1478.84 1450.77 Q1481.17 1450.39 1483.23 1450.39 Q1488.56 1450.39 1491.66 1452.83 Q1494.76 1455.23 1494.76 1459.35 Q1494.76 1462.22 1493.12 1464.21 Q1491.48 1466.18 1488.44 1466.95 Z" fill="#000000" fill-rule="evenodd" fill-opacity="1" /><path clip-path="url(#clip350)" d="M1514.44 1454.1 Q1510.83 1454.1 1509 1457.66 Q1507.19 1461.2 1507.19 1468.33 Q1507.19 1475.44 1509 1479.01 Q1510.83 1482.55 1514.44 1482.55 Q1518.07 1482.55 1519.88 1479.01 Q1521.71 1475.44 1521.71 1468.33 Q1521.71 1461.2 1519.88 1457.66 Q1518.07 1454.1 1514.44 1454.1 M1514.44 1450.39 Q1520.25 1450.39 1523.3 1455 Q1526.38 1459.58 1526.38 1468.33 Q1526.38 1477.06 1523.3 1481.67 Q1520.25 1486.25 1514.44 1486.25 Q1508.63 1486.25 1505.55 1481.67 Q1502.49 1477.06 1502.49 1468.33 Q1502.49 1459.58 1505.55 1455 Q1508.63 1450.39 1514.44 1450.39 Z" fill="#000000" fill-rule="evenodd" fill-opacity="1" /><path clip-path="url(#clip350)" d="M1702.23 1466.95 Q1705.59 1467.66 1707.46 1469.93 Q1709.36 1472.2 1709.36 1475.53 Q1709.36 1480.65 1705.84 1483.45 Q1702.32 1486.25 1695.84 1486.25 Q1693.66 1486.25 1691.35 1485.81 Q1689.06 1485.39 1686.6 1484.54 L1686.6 1480.02 Q1688.55 1481.16 1690.86 1481.74 Q1693.18 1482.32 1695.7 1482.32 Q1700.1 1482.32 1702.39 1480.58 Q1704.71 1478.84 1704.71 1475.53 Q1704.71 1472.48 1702.55 1470.77 Q1700.42 1469.03 1696.6 1469.03 L1692.58 1469.03 L1692.58 1465.19 L1696.79 1465.19 Q1700.24 1465.19 1702.07 1463.82 Q1703.9 1462.43 1703.9 1459.84 Q1703.9 1457.18 1702 1455.77 Q1700.12 1454.33 1696.6 1454.33 Q1694.68 1454.33 1692.48 1454.75 Q1690.28 1455.16 1687.65 1456.04 L1687.65 1451.88 Q1690.31 1451.14 1692.62 1450.77 Q1694.96 1450.39 1697.02 1450.39 Q1702.35 1450.39 1705.45 1452.83 Q1708.55 1455.23 1708.55 1459.35 Q1708.55 1462.22 1706.91 1464.21 Q1705.26 1466.18 1702.23 1466.95 Z" fill="#000000" fill-rule="evenodd" fill-opacity="1" /><path clip-path="url(#clip350)" d="M1718.27 1451.02 L1736.63 1451.02 L1736.63 1454.96 L1722.55 1454.96 L1722.55 1463.43 Q1723.57 1463.08 1724.59 1462.92 Q1725.61 1462.73 1726.63 1462.73 Q1732.41 1462.73 1735.79 1465.9 Q1739.17 1469.08 1739.17 1474.49 Q1739.17 1480.07 1735.7 1483.17 Q1732.23 1486.25 1725.91 1486.25 Q1723.73 1486.25 1721.47 1485.88 Q1719.22 1485.51 1716.81 1484.77 L1716.81 1480.07 Q1718.9 1481.2 1721.12 1481.76 Q1723.34 1482.32 1725.82 1482.32 Q1729.82 1482.32 1732.16 1480.21 Q1734.5 1478.1 1734.5 1474.49 Q1734.5 1470.88 1732.16 1468.77 Q1729.82 1466.67 1725.82 1466.67 Q1723.94 1466.67 1722.07 1467.08 Q1720.22 1467.5 1718.27 1468.38 L1718.27 1451.02 Z" fill="#000000" fill-rule="evenodd" fill-opacity="1" /><path clip-path="url(#clip350)" d="M1914.35 1455.09 L1902.54 1473.54 L1914.35 1473.54 L1914.35 1455.09 M1913.12 1451.02 L1919 1451.02 L1919 1473.54 L1923.93 1473.54 L1923.93 1477.43 L1919 1477.43 L1919 1485.58 L1914.35 1485.58 L1914.35 1477.43 L1898.75 1477.43 L1898.75 1472.92 L1913.12 1451.02 Z" fill="#000000" fill-rule="evenodd" fill-opacity="1" /><path clip-path="url(#clip350)" d="M1941.66 1454.1 Q1938.05 1454.1 1936.22 1457.66 Q1934.42 1461.2 1934.42 1468.33 Q1934.42 1475.44 1936.22 1479.01 Q1938.05 1482.55 1941.66 1482.55 Q1945.3 1482.55 1947.1 1479.01 Q1948.93 1475.44 1948.93 1468.33 Q1948.93 1461.2 1947.1 1457.66 Q1945.3 1454.1 1941.66 1454.1 M1941.66 1450.39 Q1947.47 1450.39 1950.53 1455 Q1953.61 1459.58 1953.61 1468.33 Q1953.61 1477.06 1950.53 1481.67 Q1947.47 1486.25 1941.66 1486.25 Q1935.85 1486.25 1932.78 1481.67 Q1929.72 1477.06 1929.72 1468.33 Q1929.72 1459.58 1932.78 1455 Q1935.85 1450.39 1941.66 1450.39 Z" fill="#000000" fill-rule="evenodd" fill-opacity="1" /><path clip-path="url(#clip350)" d="M2128.14 1455.09 L2116.33 1473.54 L2128.14 1473.54 L2128.14 1455.09 M2126.91 1451.02 L2132.79 1451.02 L2132.79 1473.54 L2137.72 1473.54 L2137.72 1477.43 L2132.79 1477.43 L2132.79 1485.58 L2128.14 1485.58 L2128.14 1477.43 L2112.53 1477.43 L2112.53 1472.92 L2126.91 1451.02 Z" fill="#000000" fill-rule="evenodd" fill-opacity="1" /><path clip-path="url(#clip350)" d="M2145.5 1451.02 L2163.85 1451.02 L2163.85 1454.96 L2149.78 1454.96 L2149.78 1463.43 Q2150.8 1463.08 2151.82 1462.92 Q2152.83 1462.73 2153.85 1462.73 Q2159.64 1462.73 2163.02 1465.9 Q2166.4 1469.08 2166.4 1474.49 Q2166.4 1480.07 2162.93 1483.17 Q2159.46 1486.25 2153.14 1486.25 Q2150.96 1486.25 2148.69 1485.88 Q2146.45 1485.51 2144.04 1484.77 L2144.04 1480.07 Q2146.12 1481.2 2148.34 1481.76 Q2150.57 1482.32 2153.04 1482.32 Q2157.05 1482.32 2159.39 1480.21 Q2161.72 1478.1 2161.72 1474.49 Q2161.72 1470.88 2159.39 1468.77 Q2157.05 1466.67 2153.04 1466.67 Q2151.17 1466.67 2149.29 1467.08 Q2147.44 1467.5 2145.5 1468.38 L2145.5 1451.02 Z" fill="#000000" fill-rule="evenodd" fill-opacity="1" /><path clip-path="url(#clip350)" d="M2327.46 1451.02 L2345.81 1451.02 L2345.81 1454.96 L2331.74 1454.96 L2331.74 1463.43 Q2332.76 1463.08 2333.77 1462.92 Q2334.79 1462.73 2335.81 1462.73 Q2341.6 1462.73 2344.98 1465.9 Q2348.36 1469.08 2348.36 1474.49 Q2348.36 1480.07 2344.89 1483.17 Q2341.41 1486.25 2335.09 1486.25 Q2332.92 1486.25 2330.65 1485.88 Q2328.4 1485.51 2326 1484.77 L2326 1480.07 Q2328.08 1481.2 2330.3 1481.76 Q2332.52 1482.32 2335 1482.32 Q2339.01 1482.32 2341.34 1480.21 Q2343.68 1478.1 2343.68 1474.49 Q2343.68 1470.88 2341.34 1468.77 Q2339.01 1466.67 2335 1466.67 Q2333.13 1466.67 2331.25 1467.08 Q2329.4 1467.5 2327.46 1468.38 L2327.46 1451.02 Z" fill="#000000" fill-rule="evenodd" fill-opacity="1" /><path clip-path="url(#clip350)" d="M2367.57 1454.1 Q2363.96 1454.1 2362.13 1457.66 Q2360.33 1461.2 2360.33 1468.33 Q2360.33 1475.44 2362.13 1479.01 Q2363.96 1482.55 2367.57 1482.55 Q2371.2 1482.55 2373.01 1479.01 Q2374.84 1475.44 2374.84 1468.33 Q2374.84 1461.2 2373.01 1457.66 Q2371.2 1454.1 2367.57 1454.1 M2367.57 1450.39 Q2373.38 1450.39 2376.44 1455 Q2379.52 1459.58 2379.52 1468.33 Q2379.52 1477.06 2376.44 1481.67 Q2373.38 1486.25 2367.57 1486.25 Q2361.76 1486.25 2358.68 1481.67 Q2355.63 1477.06 2355.63 1468.33 Q2355.63 1459.58 2358.68 1455 Q2361.76 1450.39 2367.57 1450.39 Z" fill="#000000" fill-rule="evenodd" fill-opacity="1" /><path clip-path="url(#clip350)" d="M1115.18 1522.08 L1115.18 1528.35 Q1111.52 1526.6 1108.28 1525.74 Q1105.03 1524.88 1102.01 1524.88 Q1096.76 1524.88 1093.89 1526.92 Q1091.06 1528.96 1091.06 1532.71 Q1091.06 1535.87 1092.94 1537.49 Q1094.85 1539.08 1100.13 1540.07 L1104.01 1540.86 Q1111.21 1542.23 1114.61 1545.7 Q1118.05 1549.14 1118.05 1554.93 Q1118.05 1561.84 1113.4 1565.4 Q1108.79 1568.97 1099.84 1568.97 Q1096.47 1568.97 1092.65 1568.2 Q1088.86 1567.44 1084.79 1565.94 L1084.79 1559.32 Q1088.7 1561.52 1092.46 1562.63 Q1096.22 1563.75 1099.84 1563.75 Q1105.35 1563.75 1108.34 1561.58 Q1111.33 1559.42 1111.33 1555.41 Q1111.33 1551.91 1109.17 1549.93 Q1107.04 1547.96 1102.14 1546.97 L1098.22 1546.21 Q1091.03 1544.78 1087.81 1541.72 Q1084.6 1538.67 1084.6 1533.22 Q1084.6 1526.92 1089.02 1523.29 Q1093.48 1519.66 1101.28 1519.66 Q1104.62 1519.66 1108.09 1520.27 Q1111.56 1520.87 1115.18 1522.08 Z" fill="#000000" fill-rule="evenodd" fill-opacity="1" /><path clip-path="url(#clip350)" d="M1127.82 1532.4 L1133.68 1532.4 L1133.68 1568.04 L1127.82 1568.04 L1127.82 1532.4 M1127.82 1518.52 L1133.68 1518.52 L1133.68 1525.93 L1127.82 1525.93 L1127.82 1518.52 Z" fill="#000000" fill-rule="evenodd" fill-opacity="1" /><path clip-path="url(#clip350)" d="M1151.72 1522.27 L1151.72 1532.4 L1163.79 1532.4 L1163.79 1536.95 L1151.72 1536.95 L1151.72 1556.3 Q1151.72 1560.66 1152.9 1561.9 Q1154.11 1563.14 1157.77 1563.14 L1163.79 1563.14 L1163.79 1568.04 L1157.77 1568.04 Q1150.99 1568.04 1148.41 1565.53 Q1145.84 1562.98 1145.84 1556.3 L1145.84 1536.95 L1141.54 1536.95 L1141.54 1532.4 L1145.84 1532.4 L1145.84 1522.27 L1151.72 1522.27 Z" fill="#000000" fill-rule="evenodd" fill-opacity="1" /><path clip-path="url(#clip350)" d="M1201.98 1548.76 L1201.98 1551.62 L1175.05 1551.62 Q1175.44 1557.67 1178.68 1560.85 Q1181.96 1564 1187.79 1564 Q1191.16 1564 1194.31 1563.17 Q1197.49 1562.35 1200.61 1560.69 L1200.61 1566.23 Q1197.46 1567.57 1194.15 1568.27 Q1190.84 1568.97 1187.44 1568.97 Q1178.91 1568.97 1173.91 1564 Q1168.94 1559.04 1168.94 1550.57 Q1168.94 1541.82 1173.65 1536.69 Q1178.4 1531.54 1186.42 1531.54 Q1193.61 1531.54 1197.78 1536.18 Q1201.98 1540.8 1201.98 1548.76 M1196.12 1547.04 Q1196.06 1542.23 1193.42 1539.37 Q1190.81 1536.5 1186.48 1536.5 Q1181.58 1536.5 1178.62 1539.27 Q1175.69 1542.04 1175.25 1547.07 L1196.12 1547.04 Z" fill="#000000" fill-rule="evenodd" fill-opacity="1" /><path clip-path="url(#clip350)" d="M1232.57 1520.52 L1241.23 1520.52 L1262.3 1560.28 L1262.3 1520.52 L1268.53 1520.52 L1268.53 1568.04 L1259.88 1568.04 L1238.81 1528.29 L1238.81 1568.04 L1232.57 1568.04 L1232.57 1520.52 Z" fill="#000000" fill-rule="evenodd" fill-opacity="1" /><path clip-path="url(#clip350)" d="M1280.47 1553.98 L1280.47 1532.4 L1286.33 1532.4 L1286.33 1553.75 Q1286.33 1558.81 1288.3 1561.36 Q1290.27 1563.87 1294.22 1563.87 Q1298.96 1563.87 1301.7 1560.85 Q1304.47 1557.83 1304.47 1552.61 L1304.47 1532.4 L1310.33 1532.4 L1310.33 1568.04 L1304.47 1568.04 L1304.47 1562.57 Q1302.34 1565.82 1299.5 1567.41 Q1296.7 1568.97 1292.98 1568.97 Q1286.84 1568.97 1283.65 1565.15 Q1280.47 1561.33 1280.47 1553.98 M1295.21 1531.54 L1295.21 1531.54 Z" fill="#000000" fill-rule="evenodd" fill-opacity="1" /><path clip-path="url(#clip350)" d="M1350.14 1539.24 Q1352.34 1535.29 1355.39 1533.41 Q1358.45 1531.54 1362.59 1531.54 Q1368.16 1531.54 1371.18 1535.45 Q1374.21 1539.33 1374.21 1546.53 L1374.21 1568.04 L1368.32 1568.04 L1368.32 1546.72 Q1368.32 1541.59 1366.5 1539.11 Q1364.69 1536.63 1360.96 1536.63 Q1356.41 1536.63 1353.77 1539.65 Q1351.13 1542.68 1351.13 1547.9 L1351.13 1568.04 L1345.24 1568.04 L1345.24 1546.72 Q1345.24 1541.56 1343.43 1539.11 Q1341.61 1536.63 1337.83 1536.63 Q1333.34 1536.63 1330.7 1539.68 Q1328.05 1542.71 1328.05 1547.9 L1328.05 1568.04 L1322.17 1568.04 L1322.17 1532.4 L1328.05 1532.4 L1328.05 1537.93 Q1330.06 1534.66 1332.86 1533.1 Q1335.66 1531.54 1339.51 1531.54 Q1343.4 1531.54 1346.1 1533.51 Q1348.84 1535.48 1350.14 1539.24 Z" fill="#000000" fill-rule="evenodd" fill-opacity="1" /><path clip-path="url(#clip350)" d="M1411.48 1550.25 Q1411.48 1543.79 1408.8 1540.13 Q1406.16 1536.44 1401.51 1536.44 Q1396.87 1536.44 1394.19 1540.13 Q1391.55 1543.79 1391.55 1550.25 Q1391.55 1556.71 1394.19 1560.4 Q1396.87 1564.07 1401.51 1564.07 Q1406.16 1564.07 1408.8 1560.4 Q1411.48 1556.71 1411.48 1550.25 M1391.55 1537.81 Q1393.4 1534.62 1396.2 1533.1 Q1399.03 1531.54 1402.95 1531.54 Q1409.44 1531.54 1413.48 1536.69 Q1417.56 1541.85 1417.56 1550.25 Q1417.56 1558.65 1413.48 1563.81 Q1409.44 1568.97 1402.95 1568.97 Q1399.03 1568.97 1396.2 1567.44 Q1393.4 1565.88 1391.55 1562.7 L1391.55 1568.04 L1385.66 1568.04 L1385.66 1518.52 L1391.55 1518.52 L1391.55 1537.81 Z" fill="#000000" fill-rule="evenodd" fill-opacity="1" /><path clip-path="url(#clip350)" d="M1457.76 1548.76 L1457.76 1551.62 L1430.83 1551.62 Q1431.21 1557.67 1434.46 1560.85 Q1437.74 1564 1443.56 1564 Q1446.93 1564 1450.08 1563.17 Q1453.27 1562.35 1456.39 1560.69 L1456.39 1566.23 Q1453.24 1567.57 1449.93 1568.27 Q1446.62 1568.97 1443.21 1568.97 Q1434.68 1568.97 1429.68 1564 Q1424.72 1559.04 1424.72 1550.57 Q1424.72 1541.82 1429.43 1536.69 Q1434.17 1531.54 1442.19 1531.54 Q1449.38 1531.54 1453.55 1536.18 Q1457.76 1540.8 1457.76 1548.76 M1451.9 1547.04 Q1451.84 1542.23 1449.19 1539.37 Q1446.58 1536.5 1442.25 1536.5 Q1437.35 1536.5 1434.39 1539.27 Q1431.47 1542.04 1431.02 1547.07 L1451.9 1547.04 Z" fill="#000000" fill-rule="evenodd" fill-opacity="1" /><path clip-path="url(#clip350)" d="M1488.02 1537.87 Q1487.04 1537.3 1485.86 1537.04 Q1484.71 1536.76 1483.31 1536.76 Q1478.35 1536.76 1475.67 1540 Q1473.03 1543.22 1473.03 1549.27 L1473.03 1568.04 L1467.14 1568.04 L1467.14 1532.4 L1473.03 1532.4 L1473.03 1537.93 Q1474.88 1534.69 1477.84 1533.13 Q1480.8 1531.54 1485.03 1531.54 Q1485.64 1531.54 1486.37 1531.63 Q1487.1 1531.7 1487.99 1531.85 L1488.02 1537.87 Z" fill="#000000" fill-rule="evenodd" fill-opacity="1" /><polyline clip-path="url(#clip352)" style="stroke:#000000; stroke-linecap:round; stroke-linejoin:round; stroke-width:2; stroke-opacity:0.1; fill:none" points="
  219.866,1423.18 2352.76,1423.18 
  "/>
<polyline clip-path="url(#clip352)" style="stroke:#000000; stroke-linecap:round; stroke-linejoin:round; stroke-width:2; stroke-opacity:0.1; fill:none" points="
  219.866,1163.24 2352.76,1163.24 
  "/>
<polyline clip-path="url(#clip352)" style="stroke:#000000; stroke-linecap:round; stroke-linejoin:round; stroke-width:2; stroke-opacity:0.1; fill:none" points="
  219.866,903.297 2352.76,903.297 
  "/>
<polyline clip-path="url(#clip352)" style="stroke:#000000; stroke-linecap:round; stroke-linejoin:round; stroke-width:2; stroke-opacity:0.1; fill:none" points="
  219.866,643.355 2352.76,643.355 
  "/>
<polyline clip-path="url(#clip352)" style="stroke:#000000; stroke-linecap:round; stroke-linejoin:round; stroke-width:2; stroke-opacity:0.1; fill:none" points="
  219.866,383.414 2352.76,383.414 
  "/>
<polyline clip-path="url(#clip352)" style="stroke:#000000; stroke-linecap:round; stroke-linejoin:round; stroke-width:2; stroke-opacity:0.1; fill:none" points="
  219.866,123.472 2352.76,123.472 
  "/>
<polyline clip-path="url(#clip350)" style="stroke:#000000; stroke-linecap:round; stroke-linejoin:round; stroke-width:4; stroke-opacity:1; fill:none" points="
  219.866,1423.18 219.866,123.472 
  "/>
<polyline clip-path="url(#clip350)" style="stroke:#000000; stroke-linecap:round; stroke-linejoin:round; stroke-width:4; stroke-opacity:1; fill:none" points="
  219.866,1423.18 238.764,1423.18 
  "/>
<polyline clip-path="url(#clip350)" style="stroke:#000000; stroke-linecap:round; stroke-linejoin:round; stroke-width:4; stroke-opacity:1; fill:none" points="
  219.866,1163.24 238.764,1163.24 
  "/>
<polyline clip-path="url(#clip350)" style="stroke:#000000; stroke-linecap:round; stroke-linejoin:round; stroke-width:4; stroke-opacity:1; fill:none" points="
  219.866,903.297 238.764,903.297 
  "/>
<polyline clip-path="url(#clip350)" style="stroke:#000000; stroke-linecap:round; stroke-linejoin:round; stroke-width:4; stroke-opacity:1; fill:none" points="
  219.866,643.355 238.764,643.355 
  "/>
<polyline clip-path="url(#clip350)" style="stroke:#000000; stroke-linecap:round; stroke-linejoin:round; stroke-width:4; stroke-opacity:1; fill:none" points="
  219.866,383.414 238.764,383.414 
  "/>
<polyline clip-path="url(#clip350)" style="stroke:#000000; stroke-linecap:round; stroke-linejoin:round; stroke-width:4; stroke-opacity:1; fill:none" points="
  219.866,123.472 238.764,123.472 
  "/>
<path clip-path="url(#clip350)" d="M126.691 1408.98 Q123.08 1408.98 121.251 1412.54 Q119.445 1416.08 119.445 1423.21 Q119.445 1430.32 121.251 1433.89 Q123.08 1437.43 126.691 1437.43 Q130.325 1437.43 132.13 1433.89 Q133.959 1430.32 133.959 1423.21 Q133.959 1416.08 132.13 1412.54 Q130.325 1408.98 126.691 1408.98 M126.691 1405.27 Q132.501 1405.27 135.556 1409.88 Q138.635 1414.46 138.635 1423.21 Q138.635 1431.94 135.556 1436.55 Q132.501 1441.13 126.691 1441.13 Q120.88 1441.13 117.802 1436.55 Q114.746 1431.94 114.746 1423.21 Q114.746 1414.46 117.802 1409.88 Q120.88 1405.27 126.691 1405.27 Z" fill="#000000" fill-rule="evenodd" fill-opacity="1" /><path clip-path="url(#clip350)" d="M146.853 1434.58 L151.737 1434.58 L151.737 1440.46 L146.853 1440.46 L146.853 1434.58 Z" fill="#000000" fill-rule="evenodd" fill-opacity="1" /><path clip-path="url(#clip350)" d="M171.922 1408.98 Q168.311 1408.98 166.482 1412.54 Q164.677 1416.08 164.677 1423.21 Q164.677 1430.32 166.482 1433.89 Q168.311 1437.43 171.922 1437.43 Q175.556 1437.43 177.362 1433.89 Q179.19 1430.32 179.19 1423.21 Q179.19 1416.08 177.362 1412.54 Q175.556 1408.98 171.922 1408.98 M171.922 1405.27 Q177.732 1405.27 180.788 1409.88 Q183.866 1414.46 183.866 1423.21 Q183.866 1431.94 180.788 1436.55 Q177.732 1441.13 171.922 1441.13 Q166.112 1441.13 163.033 1436.55 Q159.978 1431.94 159.978 1423.21 Q159.978 1414.46 163.033 1409.88 Q166.112 1405.27 171.922 1405.27 Z" fill="#000000" fill-rule="evenodd" fill-opacity="1" /><path clip-path="url(#clip350)" d="M128.288 1149.04 Q124.677 1149.04 122.848 1152.6 Q121.043 1156.14 121.043 1163.27 Q121.043 1170.38 122.848 1173.94 Q124.677 1177.49 128.288 1177.49 Q131.922 1177.49 133.728 1173.94 Q135.556 1170.38 135.556 1163.27 Q135.556 1156.14 133.728 1152.6 Q131.922 1149.04 128.288 1149.04 M128.288 1145.33 Q134.098 1145.33 137.154 1149.94 Q140.232 1154.52 140.232 1163.27 Q140.232 1172 137.154 1176.61 Q134.098 1181.19 128.288 1181.19 Q122.478 1181.19 119.399 1176.61 Q116.343 1172 116.343 1163.27 Q116.343 1154.52 119.399 1149.94 Q122.478 1145.33 128.288 1145.33 Z" fill="#000000" fill-rule="evenodd" fill-opacity="1" /><path clip-path="url(#clip350)" d="M148.45 1174.64 L153.334 1174.64 L153.334 1180.52 L148.45 1180.52 L148.45 1174.64 Z" fill="#000000" fill-rule="evenodd" fill-opacity="1" /><path clip-path="url(#clip350)" d="M167.547 1176.58 L183.866 1176.58 L183.866 1180.52 L161.922 1180.52 L161.922 1176.58 Q164.584 1173.83 169.167 1169.2 Q173.774 1164.55 174.954 1163.2 Q177.2 1160.68 178.079 1158.94 Q178.982 1157.19 178.982 1155.5 Q178.982 1152.74 177.038 1151 Q175.116 1149.27 172.014 1149.27 Q169.815 1149.27 167.362 1150.03 Q164.931 1150.8 162.153 1152.35 L162.153 1147.62 Q164.977 1146.49 167.431 1145.91 Q169.885 1145.33 171.922 1145.33 Q177.292 1145.33 180.487 1148.02 Q183.681 1150.7 183.681 1155.19 Q183.681 1157.32 182.871 1159.25 Q182.084 1161.14 179.977 1163.74 Q179.399 1164.41 176.297 1167.62 Q173.195 1170.82 167.547 1176.58 Z" fill="#000000" fill-rule="evenodd" fill-opacity="1" /><path clip-path="url(#clip350)" d="M126.205 889.095 Q122.593 889.095 120.765 892.66 Q118.959 896.202 118.959 903.331 Q118.959 910.438 120.765 914.003 Q122.593 917.544 126.205 917.544 Q129.839 917.544 131.644 914.003 Q133.473 910.438 133.473 903.331 Q133.473 896.202 131.644 892.66 Q129.839 889.095 126.205 889.095 M126.205 885.392 Q132.015 885.392 135.07 889.998 Q138.149 894.582 138.149 903.331 Q138.149 912.058 135.07 916.665 Q132.015 921.248 126.205 921.248 Q120.394 921.248 117.316 916.665 Q114.26 912.058 114.26 903.331 Q114.26 894.582 117.316 889.998 Q120.394 885.392 126.205 885.392 Z" fill="#000000" fill-rule="evenodd" fill-opacity="1" /><path clip-path="url(#clip350)" d="M146.366 914.697 L151.251 914.697 L151.251 920.577 L146.366 920.577 L146.366 914.697 Z" fill="#000000" fill-rule="evenodd" fill-opacity="1" /><path clip-path="url(#clip350)" d="M174.283 890.091 L162.477 908.54 L174.283 908.54 L174.283 890.091 M173.056 886.017 L178.936 886.017 L178.936 908.54 L183.866 908.54 L183.866 912.429 L178.936 912.429 L178.936 920.577 L174.283 920.577 L174.283 912.429 L158.681 912.429 L158.681 907.915 L173.056 886.017 Z" fill="#000000" fill-rule="evenodd" fill-opacity="1" /><path clip-path="url(#clip350)" d="M126.529 629.154 Q122.918 629.154 121.089 632.719 Q119.283 636.26 119.283 643.39 Q119.283 650.496 121.089 654.061 Q122.918 657.603 126.529 657.603 Q130.163 657.603 131.968 654.061 Q133.797 650.496 133.797 643.39 Q133.797 636.26 131.968 632.719 Q130.163 629.154 126.529 629.154 M126.529 625.45 Q132.339 625.45 135.394 630.057 Q138.473 634.64 138.473 643.39 Q138.473 652.117 135.394 656.723 Q132.339 661.307 126.529 661.307 Q120.718 661.307 117.64 656.723 Q114.584 652.117 114.584 643.39 Q114.584 634.64 117.64 630.057 Q120.718 625.45 126.529 625.45 Z" fill="#000000" fill-rule="evenodd" fill-opacity="1" /><path clip-path="url(#clip350)" d="M146.691 654.756 L151.575 654.756 L151.575 660.635 L146.691 660.635 L146.691 654.756 Z" fill="#000000" fill-rule="evenodd" fill-opacity="1" /><path clip-path="url(#clip350)" d="M172.339 641.492 Q169.19 641.492 167.339 643.645 Q165.51 645.797 165.51 649.547 Q165.51 653.274 167.339 655.45 Q169.19 657.603 172.339 657.603 Q175.487 657.603 177.315 655.45 Q179.167 653.274 179.167 649.547 Q179.167 645.797 177.315 643.645 Q175.487 641.492 172.339 641.492 M181.621 626.839 L181.621 631.098 Q179.862 630.265 178.056 629.825 Q176.274 629.385 174.514 629.385 Q169.885 629.385 167.431 632.51 Q165.001 635.635 164.653 641.955 Q166.019 639.941 168.079 638.876 Q170.139 637.788 172.616 637.788 Q177.825 637.788 180.834 640.959 Q183.866 644.108 183.866 649.547 Q183.866 654.871 180.718 658.089 Q177.57 661.307 172.339 661.307 Q166.343 661.307 163.172 656.723 Q160.001 652.117 160.001 643.39 Q160.001 635.196 163.89 630.334 Q167.778 625.45 174.329 625.45 Q176.089 625.45 177.871 625.797 Q179.676 626.145 181.621 626.839 Z" fill="#000000" fill-rule="evenodd" fill-opacity="1" /><path clip-path="url(#clip350)" d="M126.783 369.212 Q123.172 369.212 121.343 372.777 Q119.538 376.319 119.538 383.448 Q119.538 390.555 121.343 394.12 Q123.172 397.661 126.783 397.661 Q130.417 397.661 132.223 394.12 Q134.052 390.555 134.052 383.448 Q134.052 376.319 132.223 372.777 Q130.417 369.212 126.783 369.212 M126.783 365.509 Q132.593 365.509 135.649 370.115 Q138.728 374.698 138.728 383.448 Q138.728 392.175 135.649 396.782 Q132.593 401.365 126.783 401.365 Q120.973 401.365 117.894 396.782 Q114.839 392.175 114.839 383.448 Q114.839 374.698 117.894 370.115 Q120.973 365.509 126.783 365.509 Z" fill="#000000" fill-rule="evenodd" fill-opacity="1" /><path clip-path="url(#clip350)" d="M146.945 394.814 L151.829 394.814 L151.829 400.694 L146.945 400.694 L146.945 394.814 Z" fill="#000000" fill-rule="evenodd" fill-opacity="1" /><path clip-path="url(#clip350)" d="M172.014 384.282 Q168.681 384.282 166.76 386.064 Q164.862 387.847 164.862 390.971 Q164.862 394.096 166.76 395.879 Q168.681 397.661 172.014 397.661 Q175.348 397.661 177.269 395.879 Q179.19 394.073 179.19 390.971 Q179.19 387.847 177.269 386.064 Q175.371 384.282 172.014 384.282 M167.339 382.291 Q164.329 381.55 162.64 379.49 Q160.973 377.43 160.973 374.467 Q160.973 370.323 163.913 367.916 Q166.876 365.509 172.014 365.509 Q177.176 365.509 180.116 367.916 Q183.056 370.323 183.056 374.467 Q183.056 377.43 181.366 379.49 Q179.7 381.55 176.714 382.291 Q180.093 383.078 181.968 385.37 Q183.866 387.661 183.866 390.971 Q183.866 395.995 180.788 398.68 Q177.732 401.365 172.014 401.365 Q166.297 401.365 163.218 398.68 Q160.163 395.995 160.163 390.971 Q160.163 387.661 162.061 385.37 Q163.959 383.078 167.339 382.291 M165.626 374.907 Q165.626 377.592 167.292 379.097 Q168.982 380.601 172.014 380.601 Q175.024 380.601 176.714 379.097 Q178.426 377.592 178.426 374.907 Q178.426 372.222 176.714 370.717 Q175.024 369.212 172.014 369.212 Q168.982 369.212 167.292 370.717 Q165.626 372.222 165.626 374.907 Z" fill="#000000" fill-rule="evenodd" fill-opacity="1" /><path clip-path="url(#clip350)" d="M117.501 136.817 L125.14 136.817 L125.14 110.451 L116.83 112.118 L116.83 107.859 L125.093 106.192 L129.769 106.192 L129.769 136.817 L137.408 136.817 L137.408 140.752 L117.501 140.752 L117.501 136.817 Z" fill="#000000" fill-rule="evenodd" fill-opacity="1" /><path clip-path="url(#clip350)" d="M146.853 134.873 L151.737 134.873 L151.737 140.752 L146.853 140.752 L146.853 134.873 Z" fill="#000000" fill-rule="evenodd" fill-opacity="1" /><path clip-path="url(#clip350)" d="M171.922 109.271 Q168.311 109.271 166.482 112.836 Q164.677 116.377 164.677 123.507 Q164.677 130.613 166.482 134.178 Q168.311 137.72 171.922 137.72 Q175.556 137.72 177.362 134.178 Q179.19 130.613 179.19 123.507 Q179.19 116.377 177.362 112.836 Q175.556 109.271 171.922 109.271 M171.922 105.567 Q177.732 105.567 180.788 110.174 Q183.866 114.757 183.866 123.507 Q183.866 132.234 180.788 136.84 Q177.732 141.423 171.922 141.423 Q166.112 141.423 163.033 136.84 Q159.978 132.234 159.978 123.507 Q159.978 114.757 163.033 110.174 Q166.112 105.567 171.922 105.567 Z" fill="#000000" fill-rule="evenodd" fill-opacity="1" /><path clip-path="url(#clip350)" d="M16.4842 987.834 L16.4842 981.405 L64.0042 981.405 L64.0042 987.834 L16.4842 987.834 Z" fill="#000000" fill-rule="evenodd" fill-opacity="1" /><path clip-path="url(#clip350)" d="M42.4881 939.232 L64.0042 939.232 L64.0042 945.089 L42.679 945.089 Q37.6183 945.089 35.1038 947.062 Q32.5894 949.035 32.5894 952.982 Q32.5894 957.725 35.6131 960.462 Q38.6368 963.199 43.8567 963.199 L64.0042 963.199 L64.0042 969.087 L28.3562 969.087 L28.3562 963.199 L33.8944 963.199 Q30.6797 961.098 29.0883 958.266 Q27.4968 955.401 27.4968 951.677 Q27.4968 945.534 31.3163 942.383 Q35.1038 939.232 42.4881 939.232 Z" fill="#000000" fill-rule="evenodd" fill-opacity="1" /><path clip-path="url(#clip350)" d="M42.4881 897.919 L64.0042 897.919 L64.0042 903.775 L42.679 903.775 Q37.6183 903.775 35.1038 905.749 Q32.5894 907.722 32.5894 911.669 Q32.5894 916.411 35.6131 919.148 Q38.6368 921.886 43.8567 921.886 L64.0042 921.886 L64.0042 927.774 L28.3562 927.774 L28.3562 921.886 L33.8944 921.886 Q30.6797 919.785 29.0883 916.952 Q27.4968 914.088 27.4968 910.364 Q27.4968 904.221 31.3163 901.07 Q35.1038 897.919 42.4881 897.919 Z" fill="#000000" fill-rule="evenodd" fill-opacity="1" /><path clip-path="url(#clip350)" d="M44.7161 855.746 L47.5806 855.746 L47.5806 882.673 Q53.6281 882.291 56.8109 879.044 Q59.9619 875.766 59.9619 869.941 Q59.9619 866.568 59.1344 863.417 Q58.3069 860.234 56.6518 857.115 L62.1899 857.115 Q63.5267 860.266 64.227 863.576 Q64.9272 866.886 64.9272 870.292 Q64.9272 878.822 59.9619 883.819 Q54.9967 888.784 46.5303 888.784 Q37.7774 888.784 32.6531 884.073 Q27.4968 879.331 27.4968 871.31 Q27.4968 864.117 32.1438 859.947 Q36.7589 855.746 44.7161 855.746 M42.9973 861.602 Q38.1912 861.666 35.3266 864.308 Q32.4621 866.918 32.4621 871.246 Q32.4621 876.148 35.2312 879.108 Q38.0002 882.036 43.0292 882.482 L42.9973 861.602 Z" fill="#000000" fill-rule="evenodd" fill-opacity="1" /><path clip-path="url(#clip350)" d="M33.8307 825.477 Q33.2578 826.464 33.0032 827.641 Q32.7167 828.787 32.7167 830.188 Q32.7167 835.153 35.9632 837.827 Q39.1779 840.468 45.2253 840.468 L64.0042 840.468 L64.0042 846.357 L28.3562 846.357 L28.3562 840.468 L33.8944 840.468 Q30.6479 838.622 29.0883 835.662 Q27.4968 832.702 27.4968 828.469 Q27.4968 827.864 27.5923 827.132 Q27.656 826.4 27.8151 825.509 L33.8307 825.477 Z" fill="#000000" fill-rule="evenodd" fill-opacity="1" /><path clip-path="url(#clip350)" d="M21.7677 791.93 L39.6235 791.93 L39.6235 783.845 Q39.6235 779.357 37.3 776.907 Q34.9765 774.456 30.6797 774.456 Q26.4147 774.456 24.0912 776.907 Q21.7677 779.357 21.7677 783.845 L21.7677 791.93 M16.4842 798.359 L16.4842 783.845 Q16.4842 775.856 20.1126 771.782 Q23.7092 767.676 30.6797 767.676 Q37.7138 767.676 41.3104 771.782 Q44.907 775.856 44.907 783.845 L44.907 791.93 L64.0042 791.93 L64.0042 798.359 L16.4842 798.359 Z" fill="#000000" fill-rule="evenodd" fill-opacity="1" /><path clip-path="url(#clip350)" d="M33.8307 739.795 Q33.2578 740.781 33.0032 741.959 Q32.7167 743.105 32.7167 744.505 Q32.7167 749.47 35.9632 752.144 Q39.1779 754.786 45.2253 754.786 L64.0042 754.786 L64.0042 760.674 L28.3562 760.674 L28.3562 754.786 L33.8944 754.786 Q30.6479 752.94 29.0883 749.98 Q27.4968 747.02 27.4968 742.787 Q27.4968 742.182 27.5923 741.45 Q27.656 740.718 27.8151 739.826 L33.8307 739.795 Z" fill="#000000" fill-rule="evenodd" fill-opacity="1" /><path clip-path="url(#clip350)" d="M32.4621 721.27 Q32.4621 725.981 36.1542 728.718 Q39.8145 731.456 46.212 731.456 Q52.6095 731.456 56.3017 728.75 Q59.9619 726.013 59.9619 721.27 Q59.9619 716.592 56.2698 713.854 Q52.5777 711.117 46.212 711.117 Q39.8781 711.117 36.186 713.854 Q32.4621 716.592 32.4621 721.27 M27.4968 721.27 Q27.4968 713.632 32.4621 709.271 Q37.4273 704.911 46.212 704.911 Q54.9649 704.911 59.9619 709.271 Q64.9272 713.632 64.9272 721.27 Q64.9272 728.941 59.9619 733.302 Q54.9649 737.63 46.212 737.63 Q37.4273 737.63 32.4621 733.302 Q27.4968 728.941 27.4968 721.27 Z" fill="#000000" fill-rule="evenodd" fill-opacity="1" /><path clip-path="url(#clip350)" d="M33.7671 671.745 L14.479 671.745 L14.479 665.889 L64.0042 665.889 L64.0042 671.745 L58.657 671.745 Q61.8398 673.591 63.3994 676.424 Q64.9272 679.225 64.9272 683.172 Q64.9272 689.633 59.771 693.707 Q54.6147 697.749 46.212 697.749 Q37.8093 697.749 32.6531 693.707 Q27.4968 689.633 27.4968 683.172 Q27.4968 679.225 29.0564 676.424 Q30.5842 673.591 33.7671 671.745 M46.212 691.702 Q52.6732 691.702 56.3653 689.06 Q60.0256 686.386 60.0256 681.739 Q60.0256 677.092 56.3653 674.419 Q52.6732 671.745 46.212 671.745 Q39.7508 671.745 36.0905 674.419 Q32.3984 677.092 32.3984 681.739 Q32.3984 686.386 36.0905 689.06 Q39.7508 691.702 46.212 691.702 Z" fill="#000000" fill-rule="evenodd" fill-opacity="1" /><path clip-path="url(#clip350)" d="M49.9359 654.43 L28.3562 654.43 L28.3562 648.574 L49.7131 648.574 Q54.7739 648.574 57.3202 646.601 Q59.8346 644.627 59.8346 640.681 Q59.8346 635.938 56.8109 633.201 Q53.7872 630.432 48.5673 630.432 L28.3562 630.432 L28.3562 624.575 L64.0042 624.575 L64.0042 630.432 L58.5296 630.432 Q61.7762 632.564 63.3676 635.397 Q64.9272 638.198 64.9272 641.922 Q64.9272 648.065 61.1078 651.248 Q57.2883 654.43 49.9359 654.43 M27.4968 639.694 L27.4968 639.694 Z" fill="#000000" fill-rule="evenodd" fill-opacity="1" /><path clip-path="url(#clip350)" d="M29.7248 586.859 L35.1993 586.859 Q33.8307 589.341 33.1623 591.856 Q32.4621 594.338 32.4621 596.885 Q32.4621 602.582 36.0905 605.733 Q39.6872 608.884 46.212 608.884 Q52.7369 608.884 56.3653 605.733 Q59.9619 602.582 59.9619 596.885 Q59.9619 594.338 59.2935 591.856 Q58.5933 589.341 57.2247 586.859 L62.6355 586.859 Q63.7814 589.309 64.3543 591.951 Q64.9272 594.561 64.9272 597.521 Q64.9272 605.574 59.8664 610.316 Q54.8057 615.059 46.212 615.059 Q37.491 615.059 32.4939 610.284 Q27.4968 605.478 27.4968 597.139 Q27.4968 594.434 28.0697 591.856 Q28.6108 589.277 29.7248 586.859 Z" fill="#000000" fill-rule="evenodd" fill-opacity="1" /><path clip-path="url(#clip350)" d="M18.2347 570.881 L28.3562 570.881 L28.3562 558.818 L32.9077 558.818 L32.9077 570.881 L52.2594 570.881 Q56.6199 570.881 57.8613 569.703 Q59.1026 568.493 59.1026 564.833 L59.1026 558.818 L64.0042 558.818 L64.0042 564.833 Q64.0042 571.613 61.4897 574.191 Q58.9434 576.769 52.2594 576.769 L32.9077 576.769 L32.9077 581.066 L28.3562 581.066 L28.3562 576.769 L18.2347 576.769 L18.2347 570.881 Z" fill="#000000" fill-rule="evenodd" fill-opacity="1" /><path clip-path="url(#clip350)" d="M1155.89 17.6457 Q1146.98 17.6457 1141.71 24.2892 Q1136.49 30.9327 1136.49 42.3968 Q1136.49 53.8203 1141.71 60.4638 Q1146.98 67.1073 1155.89 67.1073 Q1164.8 67.1073 1169.99 60.4638 Q1175.22 53.8203 1175.22 42.3968 Q1175.22 30.9327 1169.99 24.2892 Q1164.8 17.6457 1155.89 17.6457 M1155.89 11.0023 Q1168.61 11.0023 1176.23 19.5497 Q1183.84 28.0566 1183.84 42.3968 Q1183.84 56.6965 1176.23 65.2439 Q1168.61 73.7508 1155.89 73.7508 Q1143.13 73.7508 1135.48 65.2439 Q1127.86 56.737 1127.86 42.3968 Q1127.86 28.0566 1135.48 19.5497 Q1143.13 11.0023 1155.89 11.0023 Z" fill="#000000" fill-rule="evenodd" fill-opacity="1" /><path clip-path="url(#clip350)" d="M1190.97 27.2059 L1198.87 27.2059 L1213.05 65.2844 L1227.23 27.2059 L1235.13 27.2059 L1218.11 72.576 L1207.99 72.576 L1190.97 27.2059 Z" fill="#000000" fill-rule="evenodd" fill-opacity="1" /><path clip-path="url(#clip350)" d="M1284.22 48.0275 L1284.22 51.6733 L1249.95 51.6733 Q1250.44 59.3701 1254.57 63.421 Q1258.74 67.4314 1266.16 67.4314 Q1270.45 67.4314 1274.46 66.3781 Q1278.51 65.3249 1282.48 63.2184 L1282.48 70.267 Q1278.47 71.9684 1274.26 72.8596 Q1270.05 73.7508 1265.71 73.7508 Q1254.86 73.7508 1248.5 67.4314 Q1242.18 61.1119 1242.18 50.3365 Q1242.18 39.1965 1248.17 32.6746 Q1254.21 26.1121 1264.42 26.1121 Q1273.57 26.1121 1278.88 32.0264 Q1284.22 37.9003 1284.22 48.0275 M1276.77 45.84 Q1276.69 39.7232 1273.33 36.0774 Q1270.01 32.4315 1264.5 32.4315 Q1258.26 32.4315 1254.49 35.9558 Q1250.76 39.4801 1250.2 45.8805 L1276.77 45.84 Z" fill="#000000" fill-rule="evenodd" fill-opacity="1" /><path clip-path="url(#clip350)" d="M1322.75 34.1734 Q1321.49 33.4443 1319.99 33.1202 Q1318.54 32.7556 1316.75 32.7556 Q1310.43 32.7556 1307.03 36.8875 Q1303.67 40.9789 1303.67 48.6757 L1303.67 72.576 L1296.18 72.576 L1296.18 27.2059 L1303.67 27.2059 L1303.67 34.2544 Q1306.02 30.1225 1309.79 28.1376 Q1313.55 26.1121 1318.94 26.1121 Q1319.71 26.1121 1320.64 26.2337 Q1321.57 26.3147 1322.71 26.5172 L1322.75 34.1734 Z" fill="#000000" fill-rule="evenodd" fill-opacity="1" /><path clip-path="url(#clip350)" d="M1330.57 9.54393 L1338.02 9.54393 L1338.02 72.576 L1330.57 72.576 L1330.57 9.54393 Z" fill="#000000" fill-rule="evenodd" fill-opacity="1" /><path clip-path="url(#clip350)" d="M1374.24 49.7694 Q1365.2 49.7694 1361.72 51.8354 Q1358.23 53.9013 1358.23 58.8839 Q1358.23 62.8538 1360.83 65.2034 Q1363.46 67.5124 1367.96 67.5124 Q1374.15 67.5124 1377.88 63.1374 Q1381.65 58.7219 1381.65 51.4303 L1381.65 49.7694 L1374.24 49.7694 M1389.1 46.6907 L1389.1 72.576 L1381.65 72.576 L1381.65 65.6895 Q1379.1 69.8214 1375.29 71.8063 Q1371.48 73.7508 1365.97 73.7508 Q1359 73.7508 1354.87 69.8619 Q1350.78 65.9325 1350.78 59.3701 Q1350.78 51.7138 1355.89 47.825 Q1361.03 43.9361 1371.2 43.9361 L1381.65 43.9361 L1381.65 43.2069 Q1381.65 38.0623 1378.25 35.2672 Q1374.88 32.4315 1368.77 32.4315 Q1364.88 32.4315 1361.19 33.3632 Q1357.51 34.295 1354.1 36.1584 L1354.1 29.2718 Q1358.19 27.692 1362.04 26.9223 Q1365.89 26.1121 1369.54 26.1121 Q1379.38 26.1121 1384.24 31.2163 Q1389.1 36.3204 1389.1 46.6907 Z" fill="#000000" fill-rule="evenodd" fill-opacity="1" /><path clip-path="url(#clip350)" d="M1411.67 65.7705 L1411.67 89.8329 L1404.17 89.8329 L1404.17 27.2059 L1411.67 27.2059 L1411.67 34.0924 Q1414.02 30.0415 1417.58 28.0971 Q1421.19 26.1121 1426.17 26.1121 Q1434.43 26.1121 1439.58 32.6746 Q1444.76 39.2371 1444.76 49.9314 Q1444.76 60.6258 1439.58 67.1883 Q1434.43 73.7508 1426.17 73.7508 Q1421.19 73.7508 1417.58 71.8063 Q1414.02 69.8214 1411.67 65.7705 M1437.02 49.9314 Q1437.02 41.7081 1433.62 37.0496 Q1430.26 32.3505 1424.35 32.3505 Q1418.43 32.3505 1415.03 37.0496 Q1411.67 41.7081 1411.67 49.9314 Q1411.67 58.1548 1415.03 62.8538 Q1418.43 67.5124 1424.35 67.5124 Q1430.26 67.5124 1433.62 62.8538 Q1437.02 58.1548 1437.02 49.9314 Z" fill="#000000" fill-rule="evenodd" fill-opacity="1" /><polyline clip-path="url(#clip352)" style="stroke:#000000; stroke-linecap:round; stroke-linejoin:round; stroke-width:4; stroke-opacity:1; fill:none" points="
  262.524,807.993 262.524,807.993 
  "/>
<polyline clip-path="url(#clip352)" style="stroke:#000000; stroke-linecap:round; stroke-linejoin:round; stroke-width:4; stroke-opacity:1; fill:none" points="
  305.182,815.391 305.182,815.391 
  "/>
<polyline clip-path="url(#clip352)" style="stroke:#000000; stroke-linecap:round; stroke-linejoin:round; stroke-width:4; stroke-opacity:1; fill:none" points="
  347.84,817.963 347.84,817.963 
  "/>
<polyline clip-path="url(#clip352)" style="stroke:#000000; stroke-linecap:round; stroke-linejoin:round; stroke-width:4; stroke-opacity:1; fill:none" points="
  390.497,819.015 390.497,819.015 
  "/>
<polyline clip-path="url(#clip352)" style="stroke:#000000; stroke-linecap:round; stroke-linejoin:round; stroke-width:4; stroke-opacity:1; fill:none" points="
  433.155,819.525 433.155,819.52 
  "/>
<polyline clip-path="url(#clip352)" style="stroke:#000000; stroke-linecap:round; stroke-linejoin:round; stroke-width:4; stroke-opacity:1; fill:none" points="
  475.813,821.23 475.813,820.222 
  "/>
<polyline clip-path="url(#clip352)" style="stroke:#000000; stroke-linecap:round; stroke-linejoin:round; stroke-width:4; stroke-opacity:1; fill:none" points="
  518.471,819.141 518.471,817.785 
  "/>
<polyline clip-path="url(#clip352)" style="stroke:#000000; stroke-linecap:round; stroke-linejoin:round; stroke-width:4; stroke-opacity:1; fill:none" points="
  561.129,923.619 561.129,911.276 
  "/>
<polyline clip-path="url(#clip352)" style="stroke:#000000; stroke-linecap:round; stroke-linejoin:round; stroke-width:4; stroke-opacity:1; fill:none" points="
  603.786,1029.46 603.786,995.27 
  "/>
<polyline clip-path="url(#clip352)" style="stroke:#000000; stroke-linecap:round; stroke-linejoin:round; stroke-width:4; stroke-opacity:1; fill:none" points="
  646.444,1359.49 646.444,1357.33 
  "/>
<polyline clip-path="url(#clip352)" style="stroke:#000000; stroke-linecap:round; stroke-linejoin:round; stroke-width:4; stroke-opacity:1; fill:none" points="
  689.102,884.335 689.102,880.068 
  "/>
<polyline clip-path="url(#clip352)" style="stroke:#000000; stroke-linecap:round; stroke-linejoin:round; stroke-width:4; stroke-opacity:1; fill:none" points="
  731.76,887.343 731.76,873.697 
  "/>
<polyline clip-path="url(#clip352)" style="stroke:#000000; stroke-linecap:round; stroke-linejoin:round; stroke-width:4; stroke-opacity:1; fill:none" points="
  774.418,1007.22 774.418,981.549 
  "/>
<polyline clip-path="url(#clip352)" style="stroke:#000000; stroke-linecap:round; stroke-linejoin:round; stroke-width:4; stroke-opacity:1; fill:none" points="
  817.075,857.188 817.075,831.58 
  "/>
<polyline clip-path="url(#clip352)" style="stroke:#000000; stroke-linecap:round; stroke-linejoin:round; stroke-width:4; stroke-opacity:1; fill:none" points="
  859.733,845.309 859.733,826.388 
  "/>
<polyline clip-path="url(#clip352)" style="stroke:#000000; stroke-linecap:round; stroke-linejoin:round; stroke-width:4; stroke-opacity:1; fill:none" points="
  902.391,824.961 902.391,817.303 
  "/>
<polyline clip-path="url(#clip352)" style="stroke:#000000; stroke-linecap:round; stroke-linejoin:round; stroke-width:4; stroke-opacity:1; fill:none" points="
  945.049,823.297 945.049,820.74 
  "/>
<polyline clip-path="url(#clip352)" style="stroke:#000000; stroke-linecap:round; stroke-linejoin:round; stroke-width:4; stroke-opacity:1; fill:none" points="
  987.707,823.317 987.707,816.196 
  "/>
<polyline clip-path="url(#clip352)" style="stroke:#000000; stroke-linecap:round; stroke-linejoin:round; stroke-width:4; stroke-opacity:1; fill:none" points="
  1030.36,825.772 1030.36,819.449 
  "/>
<polyline clip-path="url(#clip352)" style="stroke:#000000; stroke-linecap:round; stroke-linejoin:round; stroke-width:4; stroke-opacity:1; fill:none" points="
  1073.02,820.905 1073.02,819.27 
  "/>
<polyline clip-path="url(#clip352)" style="stroke:#000000; stroke-linecap:round; stroke-linejoin:round; stroke-width:4; stroke-opacity:1; fill:none" points="
  1115.68,828.645 1115.68,824.797 
  "/>
<polyline clip-path="url(#clip352)" style="stroke:#000000; stroke-linecap:round; stroke-linejoin:round; stroke-width:4; stroke-opacity:1; fill:none" points="
  1158.34,829.001 1158.34,825.719 
  "/>
<polyline clip-path="url(#clip352)" style="stroke:#000000; stroke-linecap:round; stroke-linejoin:round; stroke-width:4; stroke-opacity:1; fill:none" points="
  1201,829.696 1201,825.253 
  "/>
<polyline clip-path="url(#clip352)" style="stroke:#000000; stroke-linecap:round; stroke-linejoin:round; stroke-width:4; stroke-opacity:1; fill:none" points="
  1243.65,860.404 1243.65,854.476 
  "/>
<polyline clip-path="url(#clip352)" style="stroke:#000000; stroke-linecap:round; stroke-linejoin:round; stroke-width:4; stroke-opacity:1; fill:none" points="
  1286.31,807.639 1286.31,799.935 
  "/>
<polyline clip-path="url(#clip352)" style="stroke:#000000; stroke-linecap:round; stroke-linejoin:round; stroke-width:4; stroke-opacity:1; fill:none" points="
  1328.97,846.428 1328.97,838.504 
  "/>
<polyline clip-path="url(#clip352)" style="stroke:#000000; stroke-linecap:round; stroke-linejoin:round; stroke-width:4; stroke-opacity:1; fill:none" points="
  1371.63,930.697 1371.63,921.294 
  "/>
<polyline clip-path="url(#clip352)" style="stroke:#000000; stroke-linecap:round; stroke-linejoin:round; stroke-width:4; stroke-opacity:1; fill:none" points="
  1414.28,890.609 1414.28,881.255 
  "/>
<polyline clip-path="url(#clip352)" style="stroke:#000000; stroke-linecap:round; stroke-linejoin:round; stroke-width:4; stroke-opacity:1; fill:none" points="
  1456.94,1294.13 1456.94,1288.07 
  "/>
<polyline clip-path="url(#clip352)" style="stroke:#000000; stroke-linecap:round; stroke-linejoin:round; stroke-width:4; stroke-opacity:1; fill:none" points="
  1499.6,1143.2 1499.6,1139.04 
  "/>
<polyline clip-path="url(#clip352)" style="stroke:#000000; stroke-linecap:round; stroke-linejoin:round; stroke-width:4; stroke-opacity:1; fill:none" points="
  1542.26,989.296 1542.26,985.056 
  "/>
<polyline clip-path="url(#clip352)" style="stroke:#000000; stroke-linecap:round; stroke-linejoin:round; stroke-width:4; stroke-opacity:1; fill:none" points="
  1584.92,1264.18 1584.92,1254.11 
  "/>
<polyline clip-path="url(#clip352)" style="stroke:#000000; stroke-linecap:round; stroke-linejoin:round; stroke-width:4; stroke-opacity:1; fill:none" points="
  1627.57,976.763 1627.57,971.87 
  "/>
<polyline clip-path="url(#clip352)" style="stroke:#000000; stroke-linecap:round; stroke-linejoin:round; stroke-width:4; stroke-opacity:1; fill:none" points="
  1670.23,969.157 1670.23,959.35 
  "/>
<polyline clip-path="url(#clip352)" style="stroke:#000000; stroke-linecap:round; stroke-linejoin:round; stroke-width:4; stroke-opacity:1; fill:none" points="
  1712.89,1026.63 1712.89,1010.14 
  "/>
<polyline clip-path="url(#clip352)" style="stroke:#000000; stroke-linecap:round; stroke-linejoin:round; stroke-width:4; stroke-opacity:1; fill:none" points="
  1755.55,934.14 1755.55,922.659 
  "/>
<polyline clip-path="url(#clip352)" style="stroke:#000000; stroke-linecap:round; stroke-linejoin:round; stroke-width:4; stroke-opacity:1; fill:none" points="
  1798.2,937.758 1798.2,922.374 
  "/>
<polyline clip-path="url(#clip352)" style="stroke:#000000; stroke-linecap:round; stroke-linejoin:round; stroke-width:4; stroke-opacity:1; fill:none" points="
  1840.86,905.939 1840.86,878.251 
  "/>
<polyline clip-path="url(#clip352)" style="stroke:#000000; stroke-linecap:round; stroke-linejoin:round; stroke-width:4; stroke-opacity:1; fill:none" points="
  1883.52,903.189 1883.52,891.061 
  "/>
<polyline clip-path="url(#clip352)" style="stroke:#000000; stroke-linecap:round; stroke-linejoin:round; stroke-width:4; stroke-opacity:1; fill:none" points="
  1926.18,993.068 1926.18,975.101 
  "/>
<polyline clip-path="url(#clip352)" style="stroke:#000000; stroke-linecap:round; stroke-linejoin:round; stroke-width:4; stroke-opacity:1; fill:none" points="
  1968.84,927.77 1968.84,906.231 
  "/>
<polyline clip-path="url(#clip352)" style="stroke:#000000; stroke-linecap:round; stroke-linejoin:round; stroke-width:4; stroke-opacity:1; fill:none" points="
  2011.49,987.285 2011.49,967.399 
  "/>
<polyline clip-path="url(#clip352)" style="stroke:#000000; stroke-linecap:round; stroke-linejoin:round; stroke-width:4; stroke-opacity:1; fill:none" points="
  2054.15,921.323 2054.15,899.928 
  "/>
<polyline clip-path="url(#clip352)" style="stroke:#000000; stroke-linecap:round; stroke-linejoin:round; stroke-width:4; stroke-opacity:1; fill:none" points="
  2096.81,1058.9 2096.81,1038.23 
  "/>
<polyline clip-path="url(#clip352)" style="stroke:#000000; stroke-linecap:round; stroke-linejoin:round; stroke-width:4; stroke-opacity:1; fill:none" points="
  2139.47,932.928 2139.47,922.344 
  "/>
<polyline clip-path="url(#clip352)" style="stroke:#000000; stroke-linecap:round; stroke-linejoin:round; stroke-width:4; stroke-opacity:1; fill:none" points="
  2182.12,942.342 2182.12,929.462 
  "/>
<polyline clip-path="url(#clip352)" style="stroke:#000000; stroke-linecap:round; stroke-linejoin:round; stroke-width:4; stroke-opacity:1; fill:none" points="
  2224.78,1181.02 2224.78,1170.74 
  "/>
<polyline clip-path="url(#clip352)" style="stroke:#000000; stroke-linecap:round; stroke-linejoin:round; stroke-width:4; stroke-opacity:1; fill:none" points="
  2267.44,1174.22 2267.44,1159.61 
  "/>
<polyline clip-path="url(#clip352)" style="stroke:#000000; stroke-linecap:round; stroke-linejoin:round; stroke-width:4; stroke-opacity:1; fill:none" points="
  2310.1,1157.28 2310.1,1143.89 
  "/>
<line clip-path="url(#clip352)" x1="270.524" y1="807.993" x2="254.524" y2="807.993" style="stroke:#000000; stroke-width:3.2; stroke-opacity:1"/>
<line clip-path="url(#clip352)" x1="270.524" y1="807.993" x2="254.524" y2="807.993" style="stroke:#000000; stroke-width:3.2; stroke-opacity:1"/>
<line clip-path="url(#clip352)" x1="313.182" y1="815.391" x2="297.182" y2="815.391" style="stroke:#000000; stroke-width:3.2; stroke-opacity:1"/>
<line clip-path="url(#clip352)" x1="313.182" y1="815.391" x2="297.182" y2="815.391" style="stroke:#000000; stroke-width:3.2; stroke-opacity:1"/>
<line clip-path="url(#clip352)" x1="355.84" y1="817.963" x2="339.84" y2="817.963" style="stroke:#000000; stroke-width:3.2; stroke-opacity:1"/>
<line clip-path="url(#clip352)" x1="355.84" y1="817.963" x2="339.84" y2="817.963" style="stroke:#000000; stroke-width:3.2; stroke-opacity:1"/>
<line clip-path="url(#clip352)" x1="398.497" y1="819.015" x2="382.497" y2="819.015" style="stroke:#000000; stroke-width:3.2; stroke-opacity:1"/>
<line clip-path="url(#clip352)" x1="398.497" y1="819.015" x2="382.497" y2="819.015" style="stroke:#000000; stroke-width:3.2; stroke-opacity:1"/>
<line clip-path="url(#clip352)" x1="441.155" y1="819.525" x2="425.155" y2="819.525" style="stroke:#000000; stroke-width:3.2; stroke-opacity:1"/>
<line clip-path="url(#clip352)" x1="441.155" y1="819.52" x2="425.155" y2="819.52" style="stroke:#000000; stroke-width:3.2; stroke-opacity:1"/>
<line clip-path="url(#clip352)" x1="483.813" y1="821.23" x2="467.813" y2="821.23" style="stroke:#000000; stroke-width:3.2; stroke-opacity:1"/>
<line clip-path="url(#clip352)" x1="483.813" y1="820.222" x2="467.813" y2="820.222" style="stroke:#000000; stroke-width:3.2; stroke-opacity:1"/>
<line clip-path="url(#clip352)" x1="526.471" y1="819.141" x2="510.471" y2="819.141" style="stroke:#000000; stroke-width:3.2; stroke-opacity:1"/>
<line clip-path="url(#clip352)" x1="526.471" y1="817.785" x2="510.471" y2="817.785" style="stroke:#000000; stroke-width:3.2; stroke-opacity:1"/>
<line clip-path="url(#clip352)" x1="569.129" y1="923.619" x2="553.129" y2="923.619" style="stroke:#000000; stroke-width:3.2; stroke-opacity:1"/>
<line clip-path="url(#clip352)" x1="569.129" y1="911.276" x2="553.129" y2="911.276" style="stroke:#000000; stroke-width:3.2; stroke-opacity:1"/>
<line clip-path="url(#clip352)" x1="611.786" y1="1029.46" x2="595.786" y2="1029.46" style="stroke:#000000; stroke-width:3.2; stroke-opacity:1"/>
<line clip-path="url(#clip352)" x1="611.786" y1="995.27" x2="595.786" y2="995.27" style="stroke:#000000; stroke-width:3.2; stroke-opacity:1"/>
<line clip-path="url(#clip352)" x1="654.444" y1="1359.49" x2="638.444" y2="1359.49" style="stroke:#000000; stroke-width:3.2; stroke-opacity:1"/>
<line clip-path="url(#clip352)" x1="654.444" y1="1357.33" x2="638.444" y2="1357.33" style="stroke:#000000; stroke-width:3.2; stroke-opacity:1"/>
<line clip-path="url(#clip352)" x1="697.102" y1="884.335" x2="681.102" y2="884.335" style="stroke:#000000; stroke-width:3.2; stroke-opacity:1"/>
<line clip-path="url(#clip352)" x1="697.102" y1="880.068" x2="681.102" y2="880.068" style="stroke:#000000; stroke-width:3.2; stroke-opacity:1"/>
<line clip-path="url(#clip352)" x1="739.76" y1="887.343" x2="723.76" y2="887.343" style="stroke:#000000; stroke-width:3.2; stroke-opacity:1"/>
<line clip-path="url(#clip352)" x1="739.76" y1="873.697" x2="723.76" y2="873.697" style="stroke:#000000; stroke-width:3.2; stroke-opacity:1"/>
<line clip-path="url(#clip352)" x1="782.418" y1="1007.22" x2="766.418" y2="1007.22" style="stroke:#000000; stroke-width:3.2; stroke-opacity:1"/>
<line clip-path="url(#clip352)" x1="782.418" y1="981.549" x2="766.418" y2="981.549" style="stroke:#000000; stroke-width:3.2; stroke-opacity:1"/>
<line clip-path="url(#clip352)" x1="825.075" y1="857.188" x2="809.075" y2="857.188" style="stroke:#000000; stroke-width:3.2; stroke-opacity:1"/>
<line clip-path="url(#clip352)" x1="825.075" y1="831.58" x2="809.075" y2="831.58" style="stroke:#000000; stroke-width:3.2; stroke-opacity:1"/>
<line clip-path="url(#clip352)" x1="867.733" y1="845.309" x2="851.733" y2="845.309" style="stroke:#000000; stroke-width:3.2; stroke-opacity:1"/>
<line clip-path="url(#clip352)" x1="867.733" y1="826.388" x2="851.733" y2="826.388" style="stroke:#000000; stroke-width:3.2; stroke-opacity:1"/>
<line clip-path="url(#clip352)" x1="910.391" y1="824.961" x2="894.391" y2="824.961" style="stroke:#000000; stroke-width:3.2; stroke-opacity:1"/>
<line clip-path="url(#clip352)" x1="910.391" y1="817.303" x2="894.391" y2="817.303" style="stroke:#000000; stroke-width:3.2; stroke-opacity:1"/>
<line clip-path="url(#clip352)" x1="953.049" y1="823.297" x2="937.049" y2="823.297" style="stroke:#000000; stroke-width:3.2; stroke-opacity:1"/>
<line clip-path="url(#clip352)" x1="953.049" y1="820.74" x2="937.049" y2="820.74" style="stroke:#000000; stroke-width:3.2; stroke-opacity:1"/>
<line clip-path="url(#clip352)" x1="995.707" y1="823.317" x2="979.707" y2="823.317" style="stroke:#000000; stroke-width:3.2; stroke-opacity:1"/>
<line clip-path="url(#clip352)" x1="995.707" y1="816.196" x2="979.707" y2="816.196" style="stroke:#000000; stroke-width:3.2; stroke-opacity:1"/>
<line clip-path="url(#clip352)" x1="1038.36" y1="825.772" x2="1022.36" y2="825.772" style="stroke:#000000; stroke-width:3.2; stroke-opacity:1"/>
<line clip-path="url(#clip352)" x1="1038.36" y1="819.449" x2="1022.36" y2="819.449" style="stroke:#000000; stroke-width:3.2; stroke-opacity:1"/>
<line clip-path="url(#clip352)" x1="1081.02" y1="820.905" x2="1065.02" y2="820.905" style="stroke:#000000; stroke-width:3.2; stroke-opacity:1"/>
<line clip-path="url(#clip352)" x1="1081.02" y1="819.27" x2="1065.02" y2="819.27" style="stroke:#000000; stroke-width:3.2; stroke-opacity:1"/>
<line clip-path="url(#clip352)" x1="1123.68" y1="828.645" x2="1107.68" y2="828.645" style="stroke:#000000; stroke-width:3.2; stroke-opacity:1"/>
<line clip-path="url(#clip352)" x1="1123.68" y1="824.797" x2="1107.68" y2="824.797" style="stroke:#000000; stroke-width:3.2; stroke-opacity:1"/>
<line clip-path="url(#clip352)" x1="1166.34" y1="829.001" x2="1150.34" y2="829.001" style="stroke:#000000; stroke-width:3.2; stroke-opacity:1"/>
<line clip-path="url(#clip352)" x1="1166.34" y1="825.719" x2="1150.34" y2="825.719" style="stroke:#000000; stroke-width:3.2; stroke-opacity:1"/>
<line clip-path="url(#clip352)" x1="1209" y1="829.696" x2="1193" y2="829.696" style="stroke:#000000; stroke-width:3.2; stroke-opacity:1"/>
<line clip-path="url(#clip352)" x1="1209" y1="825.253" x2="1193" y2="825.253" style="stroke:#000000; stroke-width:3.2; stroke-opacity:1"/>
<line clip-path="url(#clip352)" x1="1251.65" y1="860.404" x2="1235.65" y2="860.404" style="stroke:#000000; stroke-width:3.2; stroke-opacity:1"/>
<line clip-path="url(#clip352)" x1="1251.65" y1="854.476" x2="1235.65" y2="854.476" style="stroke:#000000; stroke-width:3.2; stroke-opacity:1"/>
<line clip-path="url(#clip352)" x1="1294.31" y1="807.639" x2="1278.31" y2="807.639" style="stroke:#000000; stroke-width:3.2; stroke-opacity:1"/>
<line clip-path="url(#clip352)" x1="1294.31" y1="799.935" x2="1278.31" y2="799.935" style="stroke:#000000; stroke-width:3.2; stroke-opacity:1"/>
<line clip-path="url(#clip352)" x1="1336.97" y1="846.428" x2="1320.97" y2="846.428" style="stroke:#000000; stroke-width:3.2; stroke-opacity:1"/>
<line clip-path="url(#clip352)" x1="1336.97" y1="838.504" x2="1320.97" y2="838.504" style="stroke:#000000; stroke-width:3.2; stroke-opacity:1"/>
<line clip-path="url(#clip352)" x1="1379.63" y1="930.697" x2="1363.63" y2="930.697" style="stroke:#000000; stroke-width:3.2; stroke-opacity:1"/>
<line clip-path="url(#clip352)" x1="1379.63" y1="921.294" x2="1363.63" y2="921.294" style="stroke:#000000; stroke-width:3.2; stroke-opacity:1"/>
<line clip-path="url(#clip352)" x1="1422.28" y1="890.609" x2="1406.28" y2="890.609" style="stroke:#000000; stroke-width:3.2; stroke-opacity:1"/>
<line clip-path="url(#clip352)" x1="1422.28" y1="881.255" x2="1406.28" y2="881.255" style="stroke:#000000; stroke-width:3.2; stroke-opacity:1"/>
<line clip-path="url(#clip352)" x1="1464.94" y1="1294.13" x2="1448.94" y2="1294.13" style="stroke:#000000; stroke-width:3.2; stroke-opacity:1"/>
<line clip-path="url(#clip352)" x1="1464.94" y1="1288.07" x2="1448.94" y2="1288.07" style="stroke:#000000; stroke-width:3.2; stroke-opacity:1"/>
<line clip-path="url(#clip352)" x1="1507.6" y1="1143.2" x2="1491.6" y2="1143.2" style="stroke:#000000; stroke-width:3.2; stroke-opacity:1"/>
<line clip-path="url(#clip352)" x1="1507.6" y1="1139.04" x2="1491.6" y2="1139.04" style="stroke:#000000; stroke-width:3.2; stroke-opacity:1"/>
<line clip-path="url(#clip352)" x1="1550.26" y1="989.296" x2="1534.26" y2="989.296" style="stroke:#000000; stroke-width:3.2; stroke-opacity:1"/>
<line clip-path="url(#clip352)" x1="1550.26" y1="985.056" x2="1534.26" y2="985.056" style="stroke:#000000; stroke-width:3.2; stroke-opacity:1"/>
<line clip-path="url(#clip352)" x1="1592.92" y1="1264.18" x2="1576.92" y2="1264.18" style="stroke:#000000; stroke-width:3.2; stroke-opacity:1"/>
<line clip-path="url(#clip352)" x1="1592.92" y1="1254.11" x2="1576.92" y2="1254.11" style="stroke:#000000; stroke-width:3.2; stroke-opacity:1"/>
<line clip-path="url(#clip352)" x1="1635.57" y1="976.763" x2="1619.57" y2="976.763" style="stroke:#000000; stroke-width:3.2; stroke-opacity:1"/>
<line clip-path="url(#clip352)" x1="1635.57" y1="971.87" x2="1619.57" y2="971.87" style="stroke:#000000; stroke-width:3.2; stroke-opacity:1"/>
<line clip-path="url(#clip352)" x1="1678.23" y1="969.157" x2="1662.23" y2="969.157" style="stroke:#000000; stroke-width:3.2; stroke-opacity:1"/>
<line clip-path="url(#clip352)" x1="1678.23" y1="959.35" x2="1662.23" y2="959.35" style="stroke:#000000; stroke-width:3.2; stroke-opacity:1"/>
<line clip-path="url(#clip352)" x1="1720.89" y1="1026.63" x2="1704.89" y2="1026.63" style="stroke:#000000; stroke-width:3.2; stroke-opacity:1"/>
<line clip-path="url(#clip352)" x1="1720.89" y1="1010.14" x2="1704.89" y2="1010.14" style="stroke:#000000; stroke-width:3.2; stroke-opacity:1"/>
<line clip-path="url(#clip352)" x1="1763.55" y1="934.14" x2="1747.55" y2="934.14" style="stroke:#000000; stroke-width:3.2; stroke-opacity:1"/>
<line clip-path="url(#clip352)" x1="1763.55" y1="922.659" x2="1747.55" y2="922.659" style="stroke:#000000; stroke-width:3.2; stroke-opacity:1"/>
<line clip-path="url(#clip352)" x1="1806.2" y1="937.758" x2="1790.2" y2="937.758" style="stroke:#000000; stroke-width:3.2; stroke-opacity:1"/>
<line clip-path="url(#clip352)" x1="1806.2" y1="922.374" x2="1790.2" y2="922.374" style="stroke:#000000; stroke-width:3.2; stroke-opacity:1"/>
<line clip-path="url(#clip352)" x1="1848.86" y1="905.939" x2="1832.86" y2="905.939" style="stroke:#000000; stroke-width:3.2; stroke-opacity:1"/>
<line clip-path="url(#clip352)" x1="1848.86" y1="878.251" x2="1832.86" y2="878.251" style="stroke:#000000; stroke-width:3.2; stroke-opacity:1"/>
<line clip-path="url(#clip352)" x1="1891.52" y1="903.189" x2="1875.52" y2="903.189" style="stroke:#000000; stroke-width:3.2; stroke-opacity:1"/>
<line clip-path="url(#clip352)" x1="1891.52" y1="891.061" x2="1875.52" y2="891.061" style="stroke:#000000; stroke-width:3.2; stroke-opacity:1"/>
<line clip-path="url(#clip352)" x1="1934.18" y1="993.068" x2="1918.18" y2="993.068" style="stroke:#000000; stroke-width:3.2; stroke-opacity:1"/>
<line clip-path="url(#clip352)" x1="1934.18" y1="975.101" x2="1918.18" y2="975.101" style="stroke:#000000; stroke-width:3.2; stroke-opacity:1"/>
<line clip-path="url(#clip352)" x1="1976.84" y1="927.77" x2="1960.84" y2="927.77" style="stroke:#000000; stroke-width:3.2; stroke-opacity:1"/>
<line clip-path="url(#clip352)" x1="1976.84" y1="906.231" x2="1960.84" y2="906.231" style="stroke:#000000; stroke-width:3.2; stroke-opacity:1"/>
<line clip-path="url(#clip352)" x1="2019.49" y1="987.285" x2="2003.49" y2="987.285" style="stroke:#000000; stroke-width:3.2; stroke-opacity:1"/>
<line clip-path="url(#clip352)" x1="2019.49" y1="967.399" x2="2003.49" y2="967.399" style="stroke:#000000; stroke-width:3.2; stroke-opacity:1"/>
<line clip-path="url(#clip352)" x1="2062.15" y1="921.323" x2="2046.15" y2="921.323" style="stroke:#000000; stroke-width:3.2; stroke-opacity:1"/>
<line clip-path="url(#clip352)" x1="2062.15" y1="899.928" x2="2046.15" y2="899.928" style="stroke:#000000; stroke-width:3.2; stroke-opacity:1"/>
<line clip-path="url(#clip352)" x1="2104.81" y1="1058.9" x2="2088.81" y2="1058.9" style="stroke:#000000; stroke-width:3.2; stroke-opacity:1"/>
<line clip-path="url(#clip352)" x1="2104.81" y1="1038.23" x2="2088.81" y2="1038.23" style="stroke:#000000; stroke-width:3.2; stroke-opacity:1"/>
<line clip-path="url(#clip352)" x1="2147.47" y1="932.928" x2="2131.47" y2="932.928" style="stroke:#000000; stroke-width:3.2; stroke-opacity:1"/>
<line clip-path="url(#clip352)" x1="2147.47" y1="922.344" x2="2131.47" y2="922.344" style="stroke:#000000; stroke-width:3.2; stroke-opacity:1"/>
<line clip-path="url(#clip352)" x1="2190.12" y1="942.342" x2="2174.12" y2="942.342" style="stroke:#000000; stroke-width:3.2; stroke-opacity:1"/>
<line clip-path="url(#clip352)" x1="2190.12" y1="929.462" x2="2174.12" y2="929.462" style="stroke:#000000; stroke-width:3.2; stroke-opacity:1"/>
<line clip-path="url(#clip352)" x1="2232.78" y1="1181.02" x2="2216.78" y2="1181.02" style="stroke:#000000; stroke-width:3.2; stroke-opacity:1"/>
<line clip-path="url(#clip352)" x1="2232.78" y1="1170.74" x2="2216.78" y2="1170.74" style="stroke:#000000; stroke-width:3.2; stroke-opacity:1"/>
<line clip-path="url(#clip352)" x1="2275.44" y1="1174.22" x2="2259.44" y2="1174.22" style="stroke:#000000; stroke-width:3.2; stroke-opacity:1"/>
<line clip-path="url(#clip352)" x1="2275.44" y1="1159.61" x2="2259.44" y2="1159.61" style="stroke:#000000; stroke-width:3.2; stroke-opacity:1"/>
<line clip-path="url(#clip352)" x1="2318.1" y1="1157.28" x2="2302.1" y2="1157.28" style="stroke:#000000; stroke-width:3.2; stroke-opacity:1"/>
<line clip-path="url(#clip352)" x1="2318.1" y1="1143.89" x2="2302.1" y2="1143.89" style="stroke:#000000; stroke-width:3.2; stroke-opacity:1"/>
<circle clip-path="url(#clip352)" cx="262.524" cy="807.993" r="7.2" fill="#009af9" fill-rule="evenodd" fill-opacity="1" stroke="#000000" stroke-opacity="1" stroke-width="3.2"/>
<circle clip-path="url(#clip352)" cx="305.182" cy="815.391" r="7.2" fill="#009af9" fill-rule="evenodd" fill-opacity="1" stroke="#000000" stroke-opacity="1" stroke-width="3.2"/>
<circle clip-path="url(#clip352)" cx="347.84" cy="817.963" r="7.2" fill="#009af9" fill-rule="evenodd" fill-opacity="1" stroke="#000000" stroke-opacity="1" stroke-width="3.2"/>
<circle clip-path="url(#clip352)" cx="390.497" cy="819.015" r="7.2" fill="#009af9" fill-rule="evenodd" fill-opacity="1" stroke="#000000" stroke-opacity="1" stroke-width="3.2"/>
<circle clip-path="url(#clip352)" cx="433.155" cy="819.523" r="7.2" fill="#009af9" fill-rule="evenodd" fill-opacity="1" stroke="#000000" stroke-opacity="1" stroke-width="3.2"/>
<circle clip-path="url(#clip352)" cx="475.813" cy="820.726" r="7.2" fill="#009af9" fill-rule="evenodd" fill-opacity="1" stroke="#000000" stroke-opacity="1" stroke-width="3.2"/>
<circle clip-path="url(#clip352)" cx="518.471" cy="818.463" r="7.2" fill="#009af9" fill-rule="evenodd" fill-opacity="1" stroke="#000000" stroke-opacity="1" stroke-width="3.2"/>
<circle clip-path="url(#clip352)" cx="561.129" cy="917.448" r="7.2" fill="#009af9" fill-rule="evenodd" fill-opacity="1" stroke="#000000" stroke-opacity="1" stroke-width="3.2"/>
<circle clip-path="url(#clip352)" cx="603.786" cy="1012.37" r="7.2" fill="#009af9" fill-rule="evenodd" fill-opacity="1" stroke="#000000" stroke-opacity="1" stroke-width="3.2"/>
<circle clip-path="url(#clip352)" cx="646.444" cy="1358.41" r="7.2" fill="#009af9" fill-rule="evenodd" fill-opacity="1" stroke="#000000" stroke-opacity="1" stroke-width="3.2"/>
<circle clip-path="url(#clip352)" cx="689.102" cy="882.202" r="7.2" fill="#009af9" fill-rule="evenodd" fill-opacity="1" stroke="#000000" stroke-opacity="1" stroke-width="3.2"/>
<circle clip-path="url(#clip352)" cx="731.76" cy="880.52" r="7.2" fill="#009af9" fill-rule="evenodd" fill-opacity="1" stroke="#000000" stroke-opacity="1" stroke-width="3.2"/>
<circle clip-path="url(#clip352)" cx="774.418" cy="994.385" r="7.2" fill="#009af9" fill-rule="evenodd" fill-opacity="1" stroke="#000000" stroke-opacity="1" stroke-width="3.2"/>
<circle clip-path="url(#clip352)" cx="817.075" cy="844.384" r="7.2" fill="#009af9" fill-rule="evenodd" fill-opacity="1" stroke="#000000" stroke-opacity="1" stroke-width="3.2"/>
<circle clip-path="url(#clip352)" cx="859.733" cy="835.848" r="7.2" fill="#009af9" fill-rule="evenodd" fill-opacity="1" stroke="#000000" stroke-opacity="1" stroke-width="3.2"/>
<circle clip-path="url(#clip352)" cx="902.391" cy="821.132" r="7.2" fill="#009af9" fill-rule="evenodd" fill-opacity="1" stroke="#000000" stroke-opacity="1" stroke-width="3.2"/>
<circle clip-path="url(#clip352)" cx="945.049" cy="822.019" r="7.2" fill="#009af9" fill-rule="evenodd" fill-opacity="1" stroke="#000000" stroke-opacity="1" stroke-width="3.2"/>
<circle clip-path="url(#clip352)" cx="987.707" cy="819.756" r="7.2" fill="#009af9" fill-rule="evenodd" fill-opacity="1" stroke="#000000" stroke-opacity="1" stroke-width="3.2"/>
<circle clip-path="url(#clip352)" cx="1030.36" cy="822.611" r="7.2" fill="#009af9" fill-rule="evenodd" fill-opacity="1" stroke="#000000" stroke-opacity="1" stroke-width="3.2"/>
<circle clip-path="url(#clip352)" cx="1073.02" cy="820.088" r="7.2" fill="#009af9" fill-rule="evenodd" fill-opacity="1" stroke="#000000" stroke-opacity="1" stroke-width="3.2"/>
<circle clip-path="url(#clip352)" cx="1115.68" cy="826.721" r="7.2" fill="#009af9" fill-rule="evenodd" fill-opacity="1" stroke="#000000" stroke-opacity="1" stroke-width="3.2"/>
<circle clip-path="url(#clip352)" cx="1158.34" cy="827.36" r="7.2" fill="#009af9" fill-rule="evenodd" fill-opacity="1" stroke="#000000" stroke-opacity="1" stroke-width="3.2"/>
<circle clip-path="url(#clip352)" cx="1201" cy="827.474" r="7.2" fill="#009af9" fill-rule="evenodd" fill-opacity="1" stroke="#000000" stroke-opacity="1" stroke-width="3.2"/>
<circle clip-path="url(#clip352)" cx="1243.65" cy="857.44" r="7.2" fill="#009af9" fill-rule="evenodd" fill-opacity="1" stroke="#000000" stroke-opacity="1" stroke-width="3.2"/>
<circle clip-path="url(#clip352)" cx="1286.31" cy="803.787" r="7.2" fill="#009af9" fill-rule="evenodd" fill-opacity="1" stroke="#000000" stroke-opacity="1" stroke-width="3.2"/>
<circle clip-path="url(#clip352)" cx="1328.97" cy="842.466" r="7.2" fill="#009af9" fill-rule="evenodd" fill-opacity="1" stroke="#000000" stroke-opacity="1" stroke-width="3.2"/>
<circle clip-path="url(#clip352)" cx="1371.63" cy="925.996" r="7.2" fill="#009af9" fill-rule="evenodd" fill-opacity="1" stroke="#000000" stroke-opacity="1" stroke-width="3.2"/>
<circle clip-path="url(#clip352)" cx="1414.28" cy="885.932" r="7.2" fill="#009af9" fill-rule="evenodd" fill-opacity="1" stroke="#000000" stroke-opacity="1" stroke-width="3.2"/>
<circle clip-path="url(#clip352)" cx="1456.94" cy="1291.1" r="7.2" fill="#009af9" fill-rule="evenodd" fill-opacity="1" stroke="#000000" stroke-opacity="1" stroke-width="3.2"/>
<circle clip-path="url(#clip352)" cx="1499.6" cy="1141.12" r="7.2" fill="#009af9" fill-rule="evenodd" fill-opacity="1" stroke="#000000" stroke-opacity="1" stroke-width="3.2"/>
<circle clip-path="url(#clip352)" cx="1542.26" cy="987.176" r="7.2" fill="#009af9" fill-rule="evenodd" fill-opacity="1" stroke="#000000" stroke-opacity="1" stroke-width="3.2"/>
<circle clip-path="url(#clip352)" cx="1584.92" cy="1259.14" r="7.2" fill="#009af9" fill-rule="evenodd" fill-opacity="1" stroke="#000000" stroke-opacity="1" stroke-width="3.2"/>
<circle clip-path="url(#clip352)" cx="1627.57" cy="974.317" r="7.2" fill="#009af9" fill-rule="evenodd" fill-opacity="1" stroke="#000000" stroke-opacity="1" stroke-width="3.2"/>
<circle clip-path="url(#clip352)" cx="1670.23" cy="964.253" r="7.2" fill="#009af9" fill-rule="evenodd" fill-opacity="1" stroke="#000000" stroke-opacity="1" stroke-width="3.2"/>
<circle clip-path="url(#clip352)" cx="1712.89" cy="1018.38" r="7.2" fill="#009af9" fill-rule="evenodd" fill-opacity="1" stroke="#000000" stroke-opacity="1" stroke-width="3.2"/>
<circle clip-path="url(#clip352)" cx="1755.55" cy="928.4" r="7.2" fill="#009af9" fill-rule="evenodd" fill-opacity="1" stroke="#000000" stroke-opacity="1" stroke-width="3.2"/>
<circle clip-path="url(#clip352)" cx="1798.2" cy="930.066" r="7.2" fill="#009af9" fill-rule="evenodd" fill-opacity="1" stroke="#000000" stroke-opacity="1" stroke-width="3.2"/>
<circle clip-path="url(#clip352)" cx="1840.86" cy="892.095" r="7.2" fill="#009af9" fill-rule="evenodd" fill-opacity="1" stroke="#000000" stroke-opacity="1" stroke-width="3.2"/>
<circle clip-path="url(#clip352)" cx="1883.52" cy="897.125" r="7.2" fill="#009af9" fill-rule="evenodd" fill-opacity="1" stroke="#000000" stroke-opacity="1" stroke-width="3.2"/>
<circle clip-path="url(#clip352)" cx="1926.18" cy="984.085" r="7.2" fill="#009af9" fill-rule="evenodd" fill-opacity="1" stroke="#000000" stroke-opacity="1" stroke-width="3.2"/>
<circle clip-path="url(#clip352)" cx="1968.84" cy="917.001" r="7.2" fill="#009af9" fill-rule="evenodd" fill-opacity="1" stroke="#000000" stroke-opacity="1" stroke-width="3.2"/>
<circle clip-path="url(#clip352)" cx="2011.49" cy="977.342" r="7.2" fill="#009af9" fill-rule="evenodd" fill-opacity="1" stroke="#000000" stroke-opacity="1" stroke-width="3.2"/>
<circle clip-path="url(#clip352)" cx="2054.15" cy="910.626" r="7.2" fill="#009af9" fill-rule="evenodd" fill-opacity="1" stroke="#000000" stroke-opacity="1" stroke-width="3.2"/>
<circle clip-path="url(#clip352)" cx="2096.81" cy="1048.56" r="7.2" fill="#009af9" fill-rule="evenodd" fill-opacity="1" stroke="#000000" stroke-opacity="1" stroke-width="3.2"/>
<circle clip-path="url(#clip352)" cx="2139.47" cy="927.636" r="7.2" fill="#009af9" fill-rule="evenodd" fill-opacity="1" stroke="#000000" stroke-opacity="1" stroke-width="3.2"/>
<circle clip-path="url(#clip352)" cx="2182.12" cy="935.902" r="7.2" fill="#009af9" fill-rule="evenodd" fill-opacity="1" stroke="#000000" stroke-opacity="1" stroke-width="3.2"/>
<circle clip-path="url(#clip352)" cx="2224.78" cy="1175.88" r="7.2" fill="#009af9" fill-rule="evenodd" fill-opacity="1" stroke="#000000" stroke-opacity="1" stroke-width="3.2"/>
<circle clip-path="url(#clip352)" cx="2267.44" cy="1166.91" r="7.2" fill="#009af9" fill-rule="evenodd" fill-opacity="1" stroke="#000000" stroke-opacity="1" stroke-width="3.2"/>
<circle clip-path="url(#clip352)" cx="2310.1" cy="1150.58" r="7.2" fill="#009af9" fill-rule="evenodd" fill-opacity="1" stroke="#000000" stroke-opacity="1" stroke-width="3.2"/>
<path clip-path="url(#clip350)" d="
M1710.59 270.476 L2281.66 270.476 L2281.66 166.796 L1710.59 166.796  Z
  " fill="#ffffff" fill-rule="evenodd" fill-opacity="1"/>
<polyline clip-path="url(#clip350)" style="stroke:#000000; stroke-linecap:round; stroke-linejoin:round; stroke-width:4; stroke-opacity:1; fill:none" points="
  1710.59,270.476 2281.66,270.476 2281.66,166.796 1710.59,166.796 1710.59,270.476 
  "/>
<circle clip-path="url(#clip350)" cx="1805.39" cy="218.636" r="23.04" fill="#009af9" fill-rule="evenodd" fill-opacity="1" stroke="#000000" stroke-opacity="1" stroke-width="10.24"/>
<path clip-path="url(#clip350)" d="M1920.53 214.967 Q1922.13 212.096 1924.35 210.731 Q1926.57 209.365 1929.58 209.365 Q1933.63 209.365 1935.83 212.212 Q1938.03 215.036 1938.03 220.268 L1938.03 235.916 L1933.75 235.916 L1933.75 220.407 Q1933.75 216.68 1932.43 214.874 Q1931.11 213.069 1928.4 213.069 Q1925.09 213.069 1923.17 215.268 Q1921.25 217.467 1921.25 221.263 L1921.25 235.916 L1916.97 235.916 L1916.97 220.407 Q1916.97 216.657 1915.65 214.874 Q1914.33 213.069 1911.57 213.069 Q1908.31 213.069 1906.39 215.291 Q1904.47 217.49 1904.47 221.263 L1904.47 235.916 L1900.18 235.916 L1900.18 209.99 L1904.47 209.99 L1904.47 214.018 Q1905.93 211.633 1907.96 210.499 Q1910 209.365 1912.8 209.365 Q1915.62 209.365 1917.59 210.8 Q1919.58 212.235 1920.53 214.967 Z" fill="#000000" fill-rule="evenodd" fill-opacity="1" /><path clip-path="url(#clip350)" d="M1955.25 220.245 Q1954.1 218.254 1951.76 218.254 Q1949.42 218.254 1948.26 220.245 Q1947.08 222.235 1947.08 226.217 Q1947.08 230.221 1948.26 232.212 Q1949.42 234.203 1951.76 234.203 Q1954.1 234.203 1955.25 232.212 Q1956.43 230.221 1956.43 226.217 Q1956.43 222.235 1955.25 220.245 M1951.76 216.194 Q1955.49 216.194 1957.45 218.763 Q1959.42 221.332 1959.42 226.217 Q1959.42 231.124 1957.45 233.694 Q1955.49 236.263 1951.76 236.263 Q1948.01 236.263 1946.04 233.694 Q1944.07 231.124 1944.07 226.217 Q1944.07 221.332 1946.04 218.763 Q1948.01 216.194 1951.76 216.194 Z" fill="#000000" fill-rule="evenodd" fill-opacity="1" /><path clip-path="url(#clip350)" d="M1966.09 214.388 L1995.76 214.388 L1995.76 218.277 L1966.09 218.277 L1966.09 214.388 M1966.09 223.832 L1995.76 223.832 L1995.76 227.768 L1966.09 227.768 L1966.09 223.832 Z" fill="#000000" fill-rule="evenodd" fill-opacity="1" /><path clip-path="url(#clip350)" d="M2015.86 204.434 Q2012.24 204.434 2010.42 207.999 Q2008.61 211.541 2008.61 218.67 Q2008.61 225.777 2010.42 229.342 Q2012.24 232.883 2015.86 232.883 Q2019.49 232.883 2021.3 229.342 Q2023.12 225.777 2023.12 218.67 Q2023.12 211.541 2021.3 207.999 Q2019.49 204.434 2015.86 204.434 M2015.86 200.731 Q2021.67 200.731 2024.72 205.337 Q2027.8 209.92 2027.8 218.67 Q2027.8 227.397 2024.72 232.004 Q2021.67 236.587 2015.86 236.587 Q2010.05 236.587 2006.97 232.004 Q2003.91 227.397 2003.91 218.67 Q2003.91 209.92 2006.97 205.337 Q2010.05 200.731 2015.86 200.731 Z" fill="#000000" fill-rule="evenodd" fill-opacity="1" /><path clip-path="url(#clip350)" d="M2036.02 230.036 L2040.9 230.036 L2040.9 235.916 L2036.02 235.916 L2036.02 230.036 Z" fill="#000000" fill-rule="evenodd" fill-opacity="1" /><path clip-path="url(#clip350)" d="M2055.11 231.981 L2071.43 231.981 L2071.43 235.916 L2049.49 235.916 L2049.49 231.981 Q2052.15 229.226 2056.74 224.596 Q2061.34 219.944 2062.52 218.601 Q2064.77 216.078 2065.65 214.342 Q2066.55 212.583 2066.55 210.893 Q2066.55 208.138 2064.61 206.402 Q2062.68 204.666 2059.58 204.666 Q2057.38 204.666 2054.93 205.43 Q2052.5 206.194 2049.72 207.745 L2049.72 203.022 Q2052.55 201.888 2055 201.309 Q2057.45 200.731 2059.49 200.731 Q2064.86 200.731 2068.05 203.416 Q2071.25 206.101 2071.25 210.592 Q2071.25 212.721 2070.44 214.643 Q2069.65 216.541 2067.55 219.133 Q2066.97 219.805 2063.86 223.022 Q2060.76 226.217 2055.11 231.981 Z" fill="#000000" fill-rule="evenodd" fill-opacity="1" /><path clip-path="url(#clip350)" d="M2081.73 230.036 L2086.62 230.036 L2086.62 234.018 L2082.82 241.425 L2079.84 241.425 L2081.73 234.018 L2081.73 230.036 Z" fill="#000000" fill-rule="evenodd" fill-opacity="1" /><path clip-path="url(#clip350)" d="M2119.47 230.985 L2119.47 221.703 L2111.83 221.703 L2111.83 217.86 L2124.1 217.86 L2124.1 232.698 Q2121.39 234.619 2118.12 235.615 Q2114.86 236.587 2111.16 236.587 Q2103.05 236.587 2098.47 231.865 Q2093.91 227.119 2093.91 218.67 Q2093.91 210.198 2098.47 205.476 Q2103.05 200.731 2111.16 200.731 Q2114.54 200.731 2117.57 201.564 Q2120.62 202.397 2123.19 204.018 L2123.19 208.995 Q2120.6 206.796 2117.68 205.684 Q2114.77 204.573 2111.55 204.573 Q2105.21 204.573 2102.01 208.115 Q2098.84 211.657 2098.84 218.67 Q2098.84 225.661 2102.01 229.203 Q2105.21 232.744 2111.55 232.744 Q2114.03 232.744 2115.97 232.328 Q2117.92 231.888 2119.47 230.985 Z" fill="#000000" fill-rule="evenodd" fill-opacity="1" /><path clip-path="url(#clip350)" d="M2134.19 217.814 L2144 217.814 L2144 220.453 L2130.16 220.453 L2130.16 217.907 Q2130.95 217.189 2132.41 215.893 Q2140.37 208.833 2140.37 206.657 Q2140.37 205.129 2139.17 204.203 Q2137.96 203.254 2135.99 203.254 Q2134.79 203.254 2133.38 203.671 Q2131.97 204.064 2130.3 204.874 L2130.3 202.027 Q2132.08 201.379 2133.61 201.055 Q2135.16 200.731 2136.48 200.731 Q2139.84 200.731 2141.85 202.258 Q2143.86 203.786 2143.86 206.286 Q2143.86 209.504 2136.2 216.078 Q2134.91 217.189 2134.19 217.814 Z" fill="#000000" fill-rule="evenodd" fill-opacity="1" /><path clip-path="url(#clip350)" d="M2152.01 214.388 L2181.69 214.388 L2181.69 218.277 L2152.01 218.277 L2152.01 214.388 M2152.01 223.832 L2181.69 223.832 L2181.69 227.768 L2152.01 227.768 L2152.01 223.832 Z" fill="#000000" fill-rule="evenodd" fill-opacity="1" /><path clip-path="url(#clip350)" d="M2201.78 204.434 Q2198.17 204.434 2196.34 207.999 Q2194.54 211.541 2194.54 218.67 Q2194.54 225.777 2196.34 229.342 Q2198.17 232.883 2201.78 232.883 Q2205.41 232.883 2207.22 229.342 Q2209.05 225.777 2209.05 218.67 Q2209.05 211.541 2207.22 207.999 Q2205.41 204.434 2201.78 204.434 M2201.78 200.731 Q2207.59 200.731 2210.65 205.337 Q2213.72 209.92 2213.72 218.67 Q2213.72 227.397 2210.65 232.004 Q2207.59 236.587 2201.78 236.587 Q2195.97 236.587 2192.89 232.004 Q2189.84 227.397 2189.84 218.67 Q2189.84 209.92 2192.89 205.337 Q2195.97 200.731 2201.78 200.731 Z" fill="#000000" fill-rule="evenodd" fill-opacity="1" /><path clip-path="url(#clip350)" d="M2221.94 230.036 L2226.83 230.036 L2226.83 235.916 L2221.94 235.916 L2221.94 230.036 Z" fill="#000000" fill-rule="evenodd" fill-opacity="1" /><path clip-path="url(#clip350)" d="M2237.06 201.356 L2255.41 201.356 L2255.41 205.291 L2241.34 205.291 L2241.34 213.763 Q2242.36 213.416 2243.38 213.254 Q2244.4 213.069 2245.41 213.069 Q2251.2 213.069 2254.58 216.24 Q2257.96 219.411 2257.96 224.828 Q2257.96 230.406 2254.49 233.508 Q2251.02 236.587 2244.7 236.587 Q2242.52 236.587 2240.25 236.217 Q2238.01 235.846 2235.6 235.106 L2235.6 230.406 Q2237.68 231.541 2239.91 232.096 Q2242.13 232.652 2244.6 232.652 Q2248.61 232.652 2250.95 230.545 Q2253.28 228.439 2253.28 224.828 Q2253.28 221.217 2250.95 219.11 Q2248.61 217.004 2244.6 217.004 Q2242.73 217.004 2240.85 217.42 Q2239 217.837 2237.06 218.717 L2237.06 201.356 Z" fill="#000000" fill-rule="evenodd" fill-opacity="1" /></svg>
