<?xml version="1.0" encoding="utf-8"?>
<svg xmlns="http://www.w3.org/2000/svg" xmlns:xlink="http://www.w3.org/1999/xlink" width="600" height="400" viewBox="0 0 2400 1600">
<defs>
  <clipPath id="clip030">
    <rect x="0" y="0" width="2400" height="1600"/>
  </clipPath>
</defs>
<path clip-path="url(#clip030)" d="
M0 1600 L2400 1600 L2400 0 L0 0  Z
  " fill="#ffffff" fill-rule="evenodd" fill-opacity="1"/>
<defs>
  <clipPath id="clip031">
    <rect x="480" y="0" width="1681" height="1600"/>
  </clipPath>
</defs>
<path clip-path="url(#clip030)" d="
M250.028 1423.18 L2352.76 1423.18 L2352.76 123.472 L250.028 123.472  Z
  " fill="#ffffff" fill-rule="evenodd" fill-opacity="1"/>
<defs>
  <clipPath id="clip032">
    <rect x="250" y="123" width="2104" height="1301"/>
  </clipPath>
</defs>
<polyline clip-path="url(#clip032)" style="stroke:#000000; stroke-linecap:round; stroke-linejoin:round; stroke-width:2; stroke-opacity:0.1; fill:none" points="
  614.725,1423.18 614.725,123.472 
  "/>
<polyline clip-path="url(#clip032)" style="stroke:#000000; stroke-linecap:round; stroke-linejoin:round; stroke-width:2; stroke-opacity:0.1; fill:none" points="
  996.207,1423.18 996.207,123.472 
  "/>
<polyline clip-path="url(#clip032)" style="stroke:#000000; stroke-linecap:round; stroke-linejoin:round; stroke-width:2; stroke-opacity:0.1; fill:none" points="
  1377.69,1423.18 1377.69,123.472 
  "/>
<polyline clip-path="url(#clip032)" style="stroke:#000000; stroke-linecap:round; stroke-linejoin:round; stroke-width:2; stroke-opacity:0.1; fill:none" points="
  1759.17,1423.18 1759.17,123.472 
  "/>
<polyline clip-path="url(#clip032)" style="stroke:#000000; stroke-linecap:round; stroke-linejoin:round; stroke-width:2; stroke-opacity:0.1; fill:none" points="
  2140.65,1423.18 2140.65,123.472 
  "/>
<polyline clip-path="url(#clip030)" style="stroke:#000000; stroke-linecap:round; stroke-linejoin:round; stroke-width:4; stroke-opacity:1; fill:none" points="
  250.028,1423.18 2352.76,1423.18 
  "/>
<polyline clip-path="url(#clip030)" style="stroke:#000000; stroke-linecap:round; stroke-linejoin:round; stroke-width:4; stroke-opacity:1; fill:none" points="
  614.725,1423.18 614.725,1404.28 
  "/>
<polyline clip-path="url(#clip030)" style="stroke:#000000; stroke-linecap:round; stroke-linejoin:round; stroke-width:4; stroke-opacity:1; fill:none" points="
  996.207,1423.18 996.207,1404.28 
  "/>
<polyline clip-path="url(#clip030)" style="stroke:#000000; stroke-linecap:round; stroke-linejoin:round; stroke-width:4; stroke-opacity:1; fill:none" points="
  1377.69,1423.18 1377.69,1404.28 
  "/>
<polyline clip-path="url(#clip030)" style="stroke:#000000; stroke-linecap:round; stroke-linejoin:round; stroke-width:4; stroke-opacity:1; fill:none" points="
  1759.17,1423.18 1759.17,1404.28 
  "/>
<polyline clip-path="url(#clip030)" style="stroke:#000000; stroke-linecap:round; stroke-linejoin:round; stroke-width:4; stroke-opacity:1; fill:none" points="
  2140.65,1423.18 2140.65,1404.28 
  "/>
<path clip-path="url(#clip030)" d="M605.003 1451.02 L623.359 1451.02 L623.359 1454.96 L609.285 1454.96 L609.285 1463.43 Q610.303 1463.08 611.322 1462.92 Q612.341 1462.73 613.359 1462.73 Q619.146 1462.73 622.526 1465.9 Q625.905 1469.08 625.905 1474.49 Q625.905 1480.07 622.433 1483.17 Q618.961 1486.25 612.641 1486.25 Q610.466 1486.25 608.197 1485.88 Q605.952 1485.51 603.544 1484.77 L603.544 1480.07 Q605.628 1481.2 607.85 1481.76 Q610.072 1482.32 612.549 1482.32 Q616.553 1482.32 618.891 1480.21 Q621.229 1478.1 621.229 1474.49 Q621.229 1470.88 618.891 1468.77 Q616.553 1466.67 612.549 1466.67 Q610.674 1466.67 608.799 1467.08 Q606.947 1467.5 605.003 1468.38 L605.003 1451.02 Z" fill="#000000" fill-rule="evenodd" fill-opacity="1" /><path clip-path="url(#clip030)" d="M970.894 1481.64 L978.533 1481.64 L978.533 1455.28 L970.223 1456.95 L970.223 1452.69 L978.487 1451.02 L983.163 1451.02 L983.163 1481.64 L990.802 1481.64 L990.802 1485.58 L970.894 1485.58 L970.894 1481.64 Z" fill="#000000" fill-rule="evenodd" fill-opacity="1" /><path clip-path="url(#clip030)" d="M1010.25 1454.1 Q1006.63 1454.1 1004.81 1457.66 Q1003 1461.2 1003 1468.33 Q1003 1475.44 1004.81 1479.01 Q1006.63 1482.55 1010.25 1482.55 Q1013.88 1482.55 1015.69 1479.01 Q1017.51 1475.44 1017.51 1468.33 Q1017.51 1461.2 1015.69 1457.66 Q1013.88 1454.1 1010.25 1454.1 M1010.25 1450.39 Q1016.06 1450.39 1019.11 1455 Q1022.19 1459.58 1022.19 1468.33 Q1022.19 1477.06 1019.11 1481.67 Q1016.06 1486.25 1010.25 1486.25 Q1004.44 1486.25 1001.36 1481.67 Q998.301 1477.06 998.301 1468.33 Q998.301 1459.58 1001.36 1455 Q1004.44 1450.39 1010.25 1450.39 Z" fill="#000000" fill-rule="evenodd" fill-opacity="1" /><path clip-path="url(#clip030)" d="M1352.87 1481.64 L1360.51 1481.64 L1360.51 1455.28 L1352.2 1456.95 L1352.2 1452.69 L1360.47 1451.02 L1365.14 1451.02 L1365.14 1481.64 L1372.78 1481.64 L1372.78 1485.58 L1352.87 1485.58 L1352.87 1481.64 Z" fill="#000000" fill-rule="evenodd" fill-opacity="1" /><path clip-path="url(#clip030)" d="M1382.27 1451.02 L1400.63 1451.02 L1400.63 1454.96 L1386.55 1454.96 L1386.55 1463.43 Q1387.57 1463.08 1388.59 1462.92 Q1389.61 1462.73 1390.63 1462.73 Q1396.42 1462.73 1399.79 1465.9 Q1403.17 1469.08 1403.17 1474.49 Q1403.17 1480.07 1399.7 1483.17 Q1396.23 1486.25 1389.91 1486.25 Q1387.73 1486.25 1385.47 1485.88 Q1383.22 1485.51 1380.81 1484.77 L1380.81 1480.07 Q1382.9 1481.2 1385.12 1481.76 Q1387.34 1482.32 1389.82 1482.32 Q1393.82 1482.32 1396.16 1480.21 Q1398.5 1478.1 1398.5 1474.49 Q1398.5 1470.88 1396.16 1468.77 Q1393.82 1466.67 1389.82 1466.67 Q1387.94 1466.67 1386.07 1467.08 Q1384.22 1467.5 1382.27 1468.38 L1382.27 1451.02 Z" fill="#000000" fill-rule="evenodd" fill-opacity="1" /><path clip-path="url(#clip030)" d="M1737.94 1481.64 L1754.26 1481.64 L1754.26 1485.58 L1732.32 1485.58 L1732.32 1481.64 Q1734.98 1478.89 1739.56 1474.26 Q1744.17 1469.61 1745.35 1468.27 Q1747.6 1465.74 1748.48 1464.01 Q1749.38 1462.25 1749.38 1460.56 Q1749.38 1457.8 1747.43 1456.07 Q1745.51 1454.33 1742.41 1454.33 Q1740.21 1454.33 1737.76 1455.09 Q1735.33 1455.86 1732.55 1457.41 L1732.55 1452.69 Q1735.37 1451.55 1737.83 1450.97 Q1740.28 1450.39 1742.32 1450.39 Q1747.69 1450.39 1750.88 1453.08 Q1754.08 1455.77 1754.08 1460.26 Q1754.08 1462.39 1753.27 1464.31 Q1752.48 1466.2 1750.37 1468.8 Q1749.8 1469.47 1746.69 1472.69 Q1743.59 1475.88 1737.94 1481.64 Z" fill="#000000" fill-rule="evenodd" fill-opacity="1" /><path clip-path="url(#clip030)" d="M1774.08 1454.1 Q1770.47 1454.1 1768.64 1457.66 Q1766.83 1461.2 1766.83 1468.33 Q1766.83 1475.44 1768.64 1479.01 Q1770.47 1482.55 1774.08 1482.55 Q1777.71 1482.55 1779.52 1479.01 Q1781.35 1475.44 1781.35 1468.33 Q1781.35 1461.2 1779.52 1457.66 Q1777.71 1454.1 1774.08 1454.1 M1774.08 1450.39 Q1779.89 1450.39 1782.94 1455 Q1786.02 1459.58 1786.02 1468.33 Q1786.02 1477.06 1782.94 1481.67 Q1779.89 1486.25 1774.08 1486.25 Q1768.27 1486.25 1765.19 1481.67 Q1762.13 1477.06 1762.13 1468.33 Q1762.13 1459.58 1765.19 1455 Q1768.27 1450.39 1774.08 1450.39 Z" fill="#000000" fill-rule="evenodd" fill-opacity="1" /><path clip-path="url(#clip030)" d="M2119.92 1481.64 L2136.24 1481.64 L2136.24 1485.58 L2114.3 1485.58 L2114.3 1481.64 Q2116.96 1478.89 2121.54 1474.26 Q2126.15 1469.61 2127.33 1468.27 Q2129.58 1465.74 2130.46 1464.01 Q2131.36 1462.25 2131.36 1460.56 Q2131.36 1457.8 2129.41 1456.07 Q2127.49 1454.33 2124.39 1454.33 Q2122.19 1454.33 2119.74 1455.09 Q2117.31 1455.86 2114.53 1457.41 L2114.53 1452.69 Q2117.35 1451.55 2119.81 1450.97 Q2122.26 1450.39 2124.3 1450.39 Q2129.67 1450.39 2132.86 1453.08 Q2136.06 1455.77 2136.06 1460.26 Q2136.06 1462.39 2135.25 1464.31 Q2134.46 1466.2 2132.35 1468.8 Q2131.77 1469.47 2128.67 1472.69 Q2125.57 1475.88 2119.92 1481.64 Z" fill="#000000" fill-rule="evenodd" fill-opacity="1" /><path clip-path="url(#clip030)" d="M2146.1 1451.02 L2164.46 1451.02 L2164.46 1454.96 L2150.39 1454.96 L2150.39 1463.43 Q2151.4 1463.08 2152.42 1462.92 Q2153.44 1462.73 2154.46 1462.73 Q2160.25 1462.73 2163.63 1465.9 Q2167.01 1469.08 2167.01 1474.49 Q2167.01 1480.07 2163.53 1483.17 Q2160.06 1486.25 2153.74 1486.25 Q2151.57 1486.25 2149.3 1485.88 Q2147.05 1485.51 2144.65 1484.77 L2144.65 1480.07 Q2146.73 1481.2 2148.95 1481.76 Q2151.17 1482.32 2153.65 1482.32 Q2157.65 1482.32 2159.99 1480.21 Q2162.33 1478.1 2162.33 1474.49 Q2162.33 1470.88 2159.99 1468.77 Q2157.65 1466.67 2153.65 1466.67 Q2151.77 1466.67 2149.9 1467.08 Q2148.05 1467.5 2146.1 1468.38 L2146.1 1451.02 Z" fill="#000000" fill-rule="evenodd" fill-opacity="1" /><path clip-path="url(#clip030)" d="M1130.27 1522.08 L1130.27 1528.35 Q1126.61 1526.6 1123.36 1525.74 Q1120.11 1524.88 1117.09 1524.88 Q1111.84 1524.88 1108.97 1526.92 Q1106.14 1528.96 1106.14 1532.71 Q1106.14 1535.87 1108.02 1537.49 Q1109.93 1539.08 1115.21 1540.07 L1119.09 1540.86 Q1126.29 1542.23 1129.69 1545.7 Q1133.13 1549.14 1133.13 1554.93 Q1133.13 1561.84 1128.48 1565.4 Q1123.87 1568.97 1114.92 1568.97 Q1111.55 1568.97 1107.73 1568.2 Q1103.94 1567.44 1099.87 1565.94 L1099.87 1559.32 Q1103.78 1561.52 1107.54 1562.63 Q1111.3 1563.75 1114.92 1563.75 Q1120.43 1563.75 1123.42 1561.58 Q1126.41 1559.42 1126.41 1555.41 Q1126.41 1551.91 1124.25 1549.93 Q1122.12 1547.96 1117.22 1546.97 L1113.3 1546.21 Q1106.11 1544.78 1102.89 1541.72 Q1099.68 1538.67 1099.68 1533.22 Q1099.68 1526.92 1104.1 1523.29 Q1108.56 1519.66 1116.36 1519.66 Q1119.7 1519.66 1123.17 1520.27 Q1126.64 1520.87 1130.27 1522.08 Z" fill="#000000" fill-rule="evenodd" fill-opacity="1" /><path clip-path="url(#clip030)" d="M1142.9 1532.4 L1148.76 1532.4 L1148.76 1568.04 L1142.9 1568.04 L1142.9 1532.4 M1142.9 1518.52 L1148.76 1518.52 L1148.76 1525.93 L1142.9 1525.93 L1142.9 1518.52 Z" fill="#000000" fill-rule="evenodd" fill-opacity="1" /><path clip-path="url(#clip030)" d="M1166.81 1522.27 L1166.81 1532.4 L1178.87 1532.4 L1178.87 1536.95 L1166.81 1536.95 L1166.81 1556.3 Q1166.81 1560.66 1167.98 1561.9 Q1169.19 1563.14 1172.85 1563.14 L1178.87 1563.14 L1178.87 1568.04 L1172.85 1568.04 Q1166.07 1568.04 1163.49 1565.53 Q1160.92 1562.98 1160.92 1556.3 L1160.92 1536.95 L1156.62 1536.95 L1156.62 1532.4 L1160.92 1532.4 L1160.92 1522.27 L1166.81 1522.27 Z" fill="#000000" fill-rule="evenodd" fill-opacity="1" /><path clip-path="url(#clip030)" d="M1217.06 1548.76 L1217.06 1551.62 L1190.14 1551.62 Q1190.52 1557.67 1193.76 1560.85 Q1197.04 1564 1202.87 1564 Q1206.24 1564 1209.39 1563.17 Q1212.57 1562.35 1215.69 1560.69 L1215.69 1566.23 Q1212.54 1567.57 1209.23 1568.27 Q1205.92 1568.97 1202.52 1568.97 Q1193.99 1568.97 1188.99 1564 Q1184.02 1559.04 1184.02 1550.57 Q1184.02 1541.82 1188.73 1536.69 Q1193.48 1531.54 1201.5 1531.54 Q1208.69 1531.54 1212.86 1536.18 Q1217.06 1540.8 1217.06 1548.76 M1211.21 1547.04 Q1211.14 1542.23 1208.5 1539.37 Q1205.89 1536.5 1201.56 1536.5 Q1196.66 1536.5 1193.7 1539.27 Q1190.77 1542.04 1190.33 1547.07 L1211.21 1547.04 Z" fill="#000000" fill-rule="evenodd" fill-opacity="1" /><path clip-path="url(#clip030)" d="M1247.65 1520.52 L1256.31 1520.52 L1277.38 1560.28 L1277.38 1520.52 L1283.62 1520.52 L1283.62 1568.04 L1274.96 1568.04 L1253.89 1528.29 L1253.89 1568.04 L1247.65 1568.04 L1247.65 1520.52 Z" fill="#000000" fill-rule="evenodd" fill-opacity="1" /><path clip-path="url(#clip030)" d="M1295.55 1553.98 L1295.55 1532.4 L1301.41 1532.4 L1301.41 1553.75 Q1301.41 1558.81 1303.38 1561.36 Q1305.35 1563.87 1309.3 1563.87 Q1314.04 1563.87 1316.78 1560.85 Q1319.55 1557.83 1319.55 1552.61 L1319.55 1532.4 L1325.41 1532.4 L1325.41 1568.04 L1319.55 1568.04 L1319.55 1562.57 Q1317.42 1565.82 1314.58 1567.41 Q1311.78 1568.97 1308.06 1568.97 Q1301.92 1568.97 1298.73 1565.15 Q1295.55 1561.33 1295.55 1553.98 M1310.29 1531.54 L1310.29 1531.54 Z" fill="#000000" fill-rule="evenodd" fill-opacity="1" /><path clip-path="url(#clip030)" d="M1365.22 1539.24 Q1367.42 1535.29 1370.48 1533.41 Q1373.53 1531.54 1377.67 1531.54 Q1383.24 1531.54 1386.26 1535.45 Q1389.29 1539.33 1389.29 1546.53 L1389.29 1568.04 L1383.4 1568.04 L1383.4 1546.72 Q1383.4 1541.59 1381.58 1539.11 Q1379.77 1536.63 1376.05 1536.63 Q1371.49 1536.63 1368.85 1539.65 Q1366.21 1542.68 1366.21 1547.9 L1366.21 1568.04 L1360.32 1568.04 L1360.32 1546.72 Q1360.32 1541.56 1358.51 1539.11 Q1356.69 1536.63 1352.91 1536.63 Q1348.42 1536.63 1345.78 1539.68 Q1343.14 1542.71 1343.14 1547.9 L1343.14 1568.04 L1337.25 1568.04 L1337.25 1532.4 L1343.14 1532.4 L1343.14 1537.93 Q1345.14 1534.66 1347.94 1533.1 Q1350.74 1531.54 1354.59 1531.54 Q1358.48 1531.54 1361.18 1533.51 Q1363.92 1535.48 1365.22 1539.24 Z" fill="#000000" fill-rule="evenodd" fill-opacity="1" /><path clip-path="url(#clip030)" d="M1426.56 1550.25 Q1426.56 1543.79 1423.88 1540.13 Q1421.24 1536.44 1416.6 1536.44 Q1411.95 1536.44 1409.27 1540.13 Q1406.63 1543.79 1406.63 1550.25 Q1406.63 1556.71 1409.27 1560.4 Q1411.95 1564.07 1416.6 1564.07 Q1421.24 1564.07 1423.88 1560.4 Q1426.56 1556.71 1426.56 1550.25 M1406.63 1537.81 Q1408.48 1534.62 1411.28 1533.1 Q1414.11 1531.54 1418.03 1531.54 Q1424.52 1531.54 1428.56 1536.69 Q1432.64 1541.85 1432.64 1550.25 Q1432.64 1558.65 1428.56 1563.81 Q1424.52 1568.97 1418.03 1568.97 Q1414.11 1568.97 1411.28 1567.44 Q1408.48 1565.88 1406.63 1562.7 L1406.63 1568.04 L1400.74 1568.04 L1400.74 1518.52 L1406.63 1518.52 L1406.63 1537.81 Z" fill="#000000" fill-rule="evenodd" fill-opacity="1" /><path clip-path="url(#clip030)" d="M1472.84 1548.76 L1472.84 1551.62 L1445.91 1551.62 Q1446.29 1557.67 1449.54 1560.85 Q1452.82 1564 1458.64 1564 Q1462.01 1564 1465.17 1563.17 Q1468.35 1562.35 1471.47 1560.69 L1471.47 1566.23 Q1468.32 1567.57 1465.01 1568.27 Q1461.7 1568.97 1458.29 1568.97 Q1449.76 1568.97 1444.76 1564 Q1439.8 1559.04 1439.8 1550.57 Q1439.8 1541.82 1444.51 1536.69 Q1449.25 1531.54 1457.27 1531.54 Q1464.47 1531.54 1468.64 1536.18 Q1472.84 1540.8 1472.84 1548.76 M1466.98 1547.04 Q1466.92 1542.23 1464.27 1539.37 Q1461.66 1536.5 1457.34 1536.5 Q1452.43 1536.5 1449.47 1539.27 Q1446.55 1542.04 1446.1 1547.07 L1466.98 1547.04 Z" fill="#000000" fill-rule="evenodd" fill-opacity="1" /><path clip-path="url(#clip030)" d="M1503.11 1537.87 Q1502.12 1537.3 1500.94 1537.04 Q1499.8 1536.76 1498.39 1536.76 Q1493.43 1536.76 1490.76 1540 Q1488.11 1543.22 1488.11 1549.27 L1488.11 1568.04 L1482.23 1568.04 L1482.23 1532.4 L1488.11 1532.4 L1488.11 1537.93 Q1489.96 1534.69 1492.92 1533.13 Q1495.88 1531.54 1500.11 1531.54 Q1500.72 1531.54 1501.45 1531.63 Q1502.18 1531.7 1503.07 1531.85 L1503.11 1537.87 Z" fill="#000000" fill-rule="evenodd" fill-opacity="1" /><polyline clip-path="url(#clip032)" style="stroke:#000000; stroke-linecap:round; stroke-linejoin:round; stroke-width:2; stroke-opacity:0.1; fill:none" points="
  250.028,1423.18 2352.76,1423.18 
  "/>
<polyline clip-path="url(#clip032)" style="stroke:#000000; stroke-linecap:round; stroke-linejoin:round; stroke-width:2; stroke-opacity:0.1; fill:none" points="
  250.028,1323.2 2352.76,1323.2 
  "/>
<polyline clip-path="url(#clip032)" style="stroke:#000000; stroke-linecap:round; stroke-linejoin:round; stroke-width:2; stroke-opacity:0.1; fill:none" points="
  250.028,1223.22 2352.76,1223.22 
  "/>
<polyline clip-path="url(#clip032)" style="stroke:#000000; stroke-linecap:round; stroke-linejoin:round; stroke-width:2; stroke-opacity:0.1; fill:none" points="
  250.028,1123.25 2352.76,1123.25 
  "/>
<polyline clip-path="url(#clip032)" style="stroke:#000000; stroke-linecap:round; stroke-linejoin:round; stroke-width:2; stroke-opacity:0.1; fill:none" points="
  250.028,1023.27 2352.76,1023.27 
  "/>
<polyline clip-path="url(#clip032)" style="stroke:#000000; stroke-linecap:round; stroke-linejoin:round; stroke-width:2; stroke-opacity:0.1; fill:none" points="
  250.028,923.292 2352.76,923.292 
  "/>
<polyline clip-path="url(#clip032)" style="stroke:#000000; stroke-linecap:round; stroke-linejoin:round; stroke-width:2; stroke-opacity:0.1; fill:none" points="
  250.028,823.315 2352.76,823.315 
  "/>
<polyline clip-path="url(#clip032)" style="stroke:#000000; stroke-linecap:round; stroke-linejoin:round; stroke-width:2; stroke-opacity:0.1; fill:none" points="
  250.028,723.337 2352.76,723.337 
  "/>
<polyline clip-path="url(#clip032)" style="stroke:#000000; stroke-linecap:round; stroke-linejoin:round; stroke-width:2; stroke-opacity:0.1; fill:none" points="
  250.028,623.36 2352.76,623.36 
  "/>
<polyline clip-path="url(#clip032)" style="stroke:#000000; stroke-linecap:round; stroke-linejoin:round; stroke-width:2; stroke-opacity:0.1; fill:none" points="
  250.028,523.382 2352.76,523.382 
  "/>
<polyline clip-path="url(#clip032)" style="stroke:#000000; stroke-linecap:round; stroke-linejoin:round; stroke-width:2; stroke-opacity:0.1; fill:none" points="
  250.028,423.405 2352.76,423.405 
  "/>
<polyline clip-path="url(#clip032)" style="stroke:#000000; stroke-linecap:round; stroke-linejoin:round; stroke-width:2; stroke-opacity:0.1; fill:none" points="
  250.028,323.427 2352.76,323.427 
  "/>
<polyline clip-path="url(#clip032)" style="stroke:#000000; stroke-linecap:round; stroke-linejoin:round; stroke-width:2; stroke-opacity:0.1; fill:none" points="
  250.028,223.45 2352.76,223.45 
  "/>
<polyline clip-path="url(#clip032)" style="stroke:#000000; stroke-linecap:round; stroke-linejoin:round; stroke-width:2; stroke-opacity:0.1; fill:none" points="
  250.028,123.472 2352.76,123.472 
  "/>
<polyline clip-path="url(#clip030)" style="stroke:#000000; stroke-linecap:round; stroke-linejoin:round; stroke-width:4; stroke-opacity:1; fill:none" points="
  250.028,1423.18 250.028,123.472 
  "/>
<polyline clip-path="url(#clip030)" style="stroke:#000000; stroke-linecap:round; stroke-linejoin:round; stroke-width:4; stroke-opacity:1; fill:none" points="
  250.028,1423.18 268.926,1423.18 
  "/>
<polyline clip-path="url(#clip030)" style="stroke:#000000; stroke-linecap:round; stroke-linejoin:round; stroke-width:4; stroke-opacity:1; fill:none" points="
  250.028,1323.2 268.926,1323.2 
  "/>
<polyline clip-path="url(#clip030)" style="stroke:#000000; stroke-linecap:round; stroke-linejoin:round; stroke-width:4; stroke-opacity:1; fill:none" points="
  250.028,1223.22 268.926,1223.22 
  "/>
<polyline clip-path="url(#clip030)" style="stroke:#000000; stroke-linecap:round; stroke-linejoin:round; stroke-width:4; stroke-opacity:1; fill:none" points="
  250.028,1123.25 268.926,1123.25 
  "/>
<polyline clip-path="url(#clip030)" style="stroke:#000000; stroke-linecap:round; stroke-linejoin:round; stroke-width:4; stroke-opacity:1; fill:none" points="
  250.028,1023.27 268.926,1023.27 
  "/>
<polyline clip-path="url(#clip030)" style="stroke:#000000; stroke-linecap:round; stroke-linejoin:round; stroke-width:4; stroke-opacity:1; fill:none" points="
  250.028,923.292 268.926,923.292 
  "/>
<polyline clip-path="url(#clip030)" style="stroke:#000000; stroke-linecap:round; stroke-linejoin:round; stroke-width:4; stroke-opacity:1; fill:none" points="
  250.028,823.315 268.926,823.315 
  "/>
<polyline clip-path="url(#clip030)" style="stroke:#000000; stroke-linecap:round; stroke-linejoin:round; stroke-width:4; stroke-opacity:1; fill:none" points="
  250.028,723.337 268.926,723.337 
  "/>
<polyline clip-path="url(#clip030)" style="stroke:#000000; stroke-linecap:round; stroke-linejoin:round; stroke-width:4; stroke-opacity:1; fill:none" points="
  250.028,623.36 268.926,623.36 
  "/>
<polyline clip-path="url(#clip030)" style="stroke:#000000; stroke-linecap:round; stroke-linejoin:round; stroke-width:4; stroke-opacity:1; fill:none" points="
  250.028,523.382 268.926,523.382 
  "/>
<polyline clip-path="url(#clip030)" style="stroke:#000000; stroke-linecap:round; stroke-linejoin:round; stroke-width:4; stroke-opacity:1; fill:none" points="
  250.028,423.405 268.926,423.405 
  "/>
<polyline clip-path="url(#clip030)" style="stroke:#000000; stroke-linecap:round; stroke-linejoin:round; stroke-width:4; stroke-opacity:1; fill:none" points="
  250.028,323.427 268.926,323.427 
  "/>
<polyline clip-path="url(#clip030)" style="stroke:#000000; stroke-linecap:round; stroke-linejoin:round; stroke-width:4; stroke-opacity:1; fill:none" points="
  250.028,223.45 268.926,223.45 
  "/>
<polyline clip-path="url(#clip030)" style="stroke:#000000; stroke-linecap:round; stroke-linejoin:round; stroke-width:4; stroke-opacity:1; fill:none" points="
  250.028,123.472 268.926,123.472 
  "/>
<path clip-path="url(#clip030)" d="M126.529 1408.98 Q122.918 1408.98 121.089 1412.54 Q119.283 1416.08 119.283 1423.21 Q119.283 1430.32 121.089 1433.89 Q122.918 1437.43 126.529 1437.43 Q130.163 1437.43 131.968 1433.89 Q133.797 1430.32 133.797 1423.21 Q133.797 1416.08 131.968 1412.54 Q130.163 1408.98 126.529 1408.98 M126.529 1405.27 Q132.339 1405.27 135.394 1409.88 Q138.473 1414.46 138.473 1423.21 Q138.473 1431.94 135.394 1436.55 Q132.339 1441.13 126.529 1441.13 Q120.718 1441.13 117.64 1436.55 Q114.584 1431.94 114.584 1423.21 Q114.584 1414.46 117.64 1409.88 Q120.718 1405.27 126.529 1405.27 Z" fill="#000000" fill-rule="evenodd" fill-opacity="1" /><path clip-path="url(#clip030)" d="M146.691 1434.58 L151.575 1434.58 L151.575 1440.46 L146.691 1440.46 L146.691 1434.58 Z" fill="#000000" fill-rule="evenodd" fill-opacity="1" /><path clip-path="url(#clip030)" d="M175.926 1421.83 Q179.283 1422.54 181.158 1424.81 Q183.056 1427.08 183.056 1430.41 Q183.056 1435.53 179.538 1438.33 Q176.019 1441.13 169.538 1441.13 Q167.362 1441.13 165.047 1440.69 Q162.755 1440.27 160.302 1439.42 L160.302 1434.9 Q162.246 1436.04 164.561 1436.62 Q166.876 1437.2 169.399 1437.2 Q173.797 1437.2 176.089 1435.46 Q178.403 1433.72 178.403 1430.41 Q178.403 1427.36 176.251 1425.65 Q174.121 1423.91 170.302 1423.91 L166.274 1423.91 L166.274 1420.07 L170.487 1420.07 Q173.936 1420.07 175.764 1418.7 Q177.593 1417.31 177.593 1414.72 Q177.593 1412.06 175.695 1410.65 Q173.82 1409.21 170.302 1409.21 Q168.38 1409.21 166.181 1409.63 Q163.982 1410.04 161.343 1410.92 L161.343 1406.76 Q164.005 1406.02 166.32 1405.65 Q168.658 1405.27 170.718 1405.27 Q176.042 1405.27 179.144 1407.71 Q182.246 1410.11 182.246 1414.23 Q182.246 1417.1 180.602 1419.09 Q178.959 1421.06 175.926 1421.83 Z" fill="#000000" fill-rule="evenodd" fill-opacity="1" /><path clip-path="url(#clip030)" d="M202.5 1421.32 Q199.352 1421.32 197.5 1423.47 Q195.672 1425.62 195.672 1429.37 Q195.672 1433.1 197.5 1435.27 Q199.352 1437.43 202.5 1437.43 Q205.649 1437.43 207.477 1435.27 Q209.329 1433.1 209.329 1429.37 Q209.329 1425.62 207.477 1423.47 Q205.649 1421.32 202.5 1421.32 M211.783 1406.66 L211.783 1410.92 Q210.024 1410.09 208.218 1409.65 Q206.436 1409.21 204.676 1409.21 Q200.047 1409.21 197.593 1412.33 Q195.163 1415.46 194.815 1421.78 Q196.181 1419.77 198.241 1418.7 Q200.301 1417.61 202.778 1417.61 Q207.987 1417.61 210.996 1420.78 Q214.028 1423.93 214.028 1429.37 Q214.028 1434.7 210.88 1437.91 Q207.732 1441.13 202.5 1441.13 Q196.505 1441.13 193.334 1436.55 Q190.163 1431.94 190.163 1423.21 Q190.163 1415.02 194.051 1410.16 Q197.94 1405.27 204.491 1405.27 Q206.25 1405.27 208.033 1405.62 Q209.838 1405.97 211.783 1406.66 Z" fill="#000000" fill-rule="evenodd" fill-opacity="1" /><path clip-path="url(#clip030)" d="M127.593 1309 Q123.982 1309 122.154 1312.57 Q120.348 1316.11 120.348 1323.24 Q120.348 1330.34 122.154 1333.91 Q123.982 1337.45 127.593 1337.45 Q131.228 1337.45 133.033 1333.91 Q134.862 1330.34 134.862 1323.24 Q134.862 1316.11 133.033 1312.57 Q131.228 1309 127.593 1309 M127.593 1305.3 Q133.404 1305.3 136.459 1309.9 Q139.538 1314.49 139.538 1323.24 Q139.538 1331.96 136.459 1336.57 Q133.404 1341.15 127.593 1341.15 Q121.783 1341.15 118.705 1336.57 Q115.649 1331.96 115.649 1323.24 Q115.649 1314.49 118.705 1309.9 Q121.783 1305.3 127.593 1305.3 Z" fill="#000000" fill-rule="evenodd" fill-opacity="1" /><path clip-path="url(#clip030)" d="M147.755 1334.6 L152.64 1334.6 L152.64 1340.48 L147.755 1340.48 L147.755 1334.6 Z" fill="#000000" fill-rule="evenodd" fill-opacity="1" /><path clip-path="url(#clip030)" d="M176.991 1321.85 Q180.348 1322.57 182.223 1324.83 Q184.121 1327.1 184.121 1330.44 Q184.121 1335.55 180.602 1338.35 Q177.084 1341.15 170.602 1341.15 Q168.427 1341.15 166.112 1340.71 Q163.82 1340.3 161.366 1339.44 L161.366 1334.93 Q163.311 1336.06 165.626 1336.64 Q167.94 1337.22 170.464 1337.22 Q174.862 1337.22 177.153 1335.48 Q179.468 1333.75 179.468 1330.44 Q179.468 1327.38 177.315 1325.67 Q175.186 1323.93 171.366 1323.93 L167.339 1323.93 L167.339 1320.09 L171.552 1320.09 Q175.001 1320.09 176.829 1318.72 Q178.658 1317.33 178.658 1314.74 Q178.658 1312.08 176.76 1310.67 Q174.885 1309.23 171.366 1309.23 Q169.445 1309.23 167.246 1309.65 Q165.047 1310.07 162.408 1310.95 L162.408 1306.78 Q165.07 1306.04 167.385 1305.67 Q169.723 1305.3 171.783 1305.3 Q177.107 1305.3 180.209 1307.73 Q183.311 1310.14 183.311 1314.26 Q183.311 1317.13 181.667 1319.12 Q180.024 1321.08 176.991 1321.85 Z" fill="#000000" fill-rule="evenodd" fill-opacity="1" /><path clip-path="url(#clip030)" d="M191.806 1305.92 L214.028 1305.92 L214.028 1307.91 L201.482 1340.48 L196.598 1340.48 L208.403 1309.86 L191.806 1309.86 L191.806 1305.92 Z" fill="#000000" fill-rule="evenodd" fill-opacity="1" /><path clip-path="url(#clip030)" d="M126.783 1209.02 Q123.172 1209.02 121.343 1212.59 Q119.538 1216.13 119.538 1223.26 Q119.538 1230.37 121.343 1233.93 Q123.172 1237.47 126.783 1237.47 Q130.417 1237.47 132.223 1233.93 Q134.052 1230.37 134.052 1223.26 Q134.052 1216.13 132.223 1212.59 Q130.417 1209.02 126.783 1209.02 M126.783 1205.32 Q132.593 1205.32 135.649 1209.93 Q138.728 1214.51 138.728 1223.26 Q138.728 1231.99 135.649 1236.59 Q132.593 1241.18 126.783 1241.18 Q120.973 1241.18 117.894 1236.59 Q114.839 1231.99 114.839 1223.26 Q114.839 1214.51 117.894 1209.93 Q120.973 1205.32 126.783 1205.32 Z" fill="#000000" fill-rule="evenodd" fill-opacity="1" /><path clip-path="url(#clip030)" d="M146.945 1234.63 L151.829 1234.63 L151.829 1240.5 L146.945 1240.5 L146.945 1234.63 Z" fill="#000000" fill-rule="evenodd" fill-opacity="1" /><path clip-path="url(#clip030)" d="M176.181 1221.87 Q179.538 1222.59 181.413 1224.86 Q183.311 1227.13 183.311 1230.46 Q183.311 1235.57 179.792 1238.38 Q176.274 1241.18 169.792 1241.18 Q167.616 1241.18 165.302 1240.74 Q163.01 1240.32 160.556 1239.46 L160.556 1234.95 Q162.501 1236.08 164.815 1236.66 Q167.13 1237.24 169.653 1237.24 Q174.052 1237.24 176.343 1235.5 Q178.658 1233.77 178.658 1230.46 Q178.658 1227.4 176.505 1225.69 Q174.376 1223.95 170.556 1223.95 L166.528 1223.95 L166.528 1220.11 L170.741 1220.11 Q174.19 1220.11 176.019 1218.75 Q177.848 1217.36 177.848 1214.76 Q177.848 1212.1 175.95 1210.69 Q174.075 1209.25 170.556 1209.25 Q168.635 1209.25 166.436 1209.67 Q164.237 1210.09 161.598 1210.97 L161.598 1206.8 Q164.26 1206.06 166.575 1205.69 Q168.913 1205.32 170.973 1205.32 Q176.297 1205.32 179.399 1207.75 Q182.501 1210.16 182.501 1214.28 Q182.501 1217.15 180.857 1219.14 Q179.214 1221.11 176.181 1221.87 Z" fill="#000000" fill-rule="evenodd" fill-opacity="1" /><path clip-path="url(#clip030)" d="M202.176 1224.09 Q198.843 1224.09 196.922 1225.88 Q195.024 1227.66 195.024 1230.78 Q195.024 1233.91 196.922 1235.69 Q198.843 1237.47 202.176 1237.47 Q205.51 1237.47 207.431 1235.69 Q209.352 1233.88 209.352 1230.78 Q209.352 1227.66 207.431 1225.88 Q205.533 1224.09 202.176 1224.09 M197.5 1222.1 Q194.491 1221.36 192.801 1219.3 Q191.135 1217.24 191.135 1214.28 Q191.135 1210.13 194.075 1207.73 Q197.037 1205.32 202.176 1205.32 Q207.338 1205.32 210.278 1207.73 Q213.218 1210.13 213.218 1214.28 Q213.218 1217.24 211.528 1219.3 Q209.861 1221.36 206.875 1222.1 Q210.255 1222.89 212.13 1225.18 Q214.028 1227.47 214.028 1230.78 Q214.028 1235.81 210.949 1238.49 Q207.894 1241.18 202.176 1241.18 Q196.459 1241.18 193.38 1238.49 Q190.325 1235.81 190.325 1230.78 Q190.325 1227.47 192.223 1225.18 Q194.121 1222.89 197.5 1222.1 M195.787 1214.72 Q195.787 1217.4 197.454 1218.91 Q199.144 1220.41 202.176 1220.41 Q205.186 1220.41 206.875 1218.91 Q208.588 1217.4 208.588 1214.72 Q208.588 1212.03 206.875 1210.53 Q205.186 1209.02 202.176 1209.02 Q199.144 1209.02 197.454 1210.53 Q195.787 1212.03 195.787 1214.72 Z" fill="#000000" fill-rule="evenodd" fill-opacity="1" /><path clip-path="url(#clip030)" d="M126.876 1109.05 Q123.265 1109.05 121.436 1112.61 Q119.63 1116.15 119.63 1123.28 Q119.63 1130.39 121.436 1133.95 Q123.265 1137.49 126.876 1137.49 Q130.51 1137.49 132.316 1133.95 Q134.144 1130.39 134.144 1123.28 Q134.144 1116.15 132.316 1112.61 Q130.51 1109.05 126.876 1109.05 M126.876 1105.34 Q132.686 1105.34 135.742 1109.95 Q138.82 1114.53 138.82 1123.28 Q138.82 1132.01 135.742 1136.62 Q132.686 1141.2 126.876 1141.2 Q121.066 1141.2 117.987 1136.62 Q114.931 1132.01 114.931 1123.28 Q114.931 1114.53 117.987 1109.95 Q121.066 1105.34 126.876 1105.34 Z" fill="#000000" fill-rule="evenodd" fill-opacity="1" /><path clip-path="url(#clip030)" d="M147.038 1134.65 L151.922 1134.65 L151.922 1140.53 L147.038 1140.53 L147.038 1134.65 Z" fill="#000000" fill-rule="evenodd" fill-opacity="1" /><path clip-path="url(#clip030)" d="M176.274 1121.89 Q179.63 1122.61 181.505 1124.88 Q183.403 1127.15 183.403 1130.48 Q183.403 1135.6 179.885 1138.4 Q176.366 1141.2 169.885 1141.2 Q167.709 1141.2 165.394 1140.76 Q163.102 1140.34 160.649 1139.49 L160.649 1134.97 Q162.593 1136.11 164.908 1136.68 Q167.223 1137.26 169.746 1137.26 Q174.144 1137.26 176.436 1135.53 Q178.751 1133.79 178.751 1130.48 Q178.751 1127.43 176.598 1125.71 Q174.468 1123.98 170.649 1123.98 L166.621 1123.98 L166.621 1120.13 L170.834 1120.13 Q174.283 1120.13 176.112 1118.77 Q177.94 1117.38 177.94 1114.79 Q177.94 1112.12 176.042 1110.71 Q174.167 1109.28 170.649 1109.28 Q168.727 1109.28 166.528 1109.69 Q164.329 1110.11 161.69 1110.99 L161.69 1106.82 Q164.352 1106.08 166.667 1105.71 Q169.005 1105.34 171.065 1105.34 Q176.389 1105.34 179.491 1107.77 Q182.593 1110.18 182.593 1114.3 Q182.593 1117.17 180.95 1119.16 Q179.306 1121.13 176.274 1121.89 Z" fill="#000000" fill-rule="evenodd" fill-opacity="1" /><path clip-path="url(#clip030)" d="M192.408 1139.81 L192.408 1135.55 Q194.167 1136.38 195.973 1136.82 Q197.778 1137.26 199.514 1137.26 Q204.144 1137.26 206.574 1134.16 Q209.028 1131.04 209.375 1124.69 Q208.033 1126.68 205.973 1127.75 Q203.912 1128.81 201.412 1128.81 Q196.227 1128.81 193.195 1125.69 Q190.186 1122.54 190.186 1117.1 Q190.186 1111.78 193.334 1108.56 Q196.482 1105.34 201.713 1105.34 Q207.709 1105.34 210.857 1109.95 Q214.028 1114.53 214.028 1123.28 Q214.028 1131.45 210.139 1136.34 Q206.274 1141.2 199.723 1141.2 Q197.963 1141.2 196.158 1140.85 Q194.352 1140.5 192.408 1139.81 M201.713 1125.16 Q204.862 1125.16 206.69 1123 Q208.542 1120.85 208.542 1117.1 Q208.542 1113.37 206.69 1111.22 Q204.862 1109.05 201.713 1109.05 Q198.565 1109.05 196.713 1111.22 Q194.885 1113.37 194.885 1117.1 Q194.885 1120.85 196.713 1123 Q198.565 1125.16 201.713 1125.16 Z" fill="#000000" fill-rule="evenodd" fill-opacity="1" /><path clip-path="url(#clip030)" d="M126.691 1009.07 Q123.08 1009.07 121.251 1012.63 Q119.445 1016.17 119.445 1023.3 Q119.445 1030.41 121.251 1033.98 Q123.08 1037.52 126.691 1037.52 Q130.325 1037.52 132.13 1033.98 Q133.959 1030.41 133.959 1023.3 Q133.959 1016.17 132.13 1012.63 Q130.325 1009.07 126.691 1009.07 M126.691 1005.36 Q132.501 1005.36 135.556 1009.97 Q138.635 1014.55 138.635 1023.3 Q138.635 1032.03 135.556 1036.64 Q132.501 1041.22 126.691 1041.22 Q120.88 1041.22 117.802 1036.64 Q114.746 1032.03 114.746 1023.3 Q114.746 1014.55 117.802 1009.97 Q120.88 1005.36 126.691 1005.36 Z" fill="#000000" fill-rule="evenodd" fill-opacity="1" /><path clip-path="url(#clip030)" d="M146.853 1034.67 L151.737 1034.67 L151.737 1040.55 L146.853 1040.55 L146.853 1034.67 Z" fill="#000000" fill-rule="evenodd" fill-opacity="1" /><path clip-path="url(#clip030)" d="M174.769 1010.06 L162.964 1028.51 L174.769 1028.51 L174.769 1010.06 M173.542 1005.99 L179.422 1005.99 L179.422 1028.51 L184.352 1028.51 L184.352 1032.4 L179.422 1032.4 L179.422 1040.55 L174.769 1040.55 L174.769 1032.4 L159.167 1032.4 L159.167 1027.89 L173.542 1005.99 Z" fill="#000000" fill-rule="evenodd" fill-opacity="1" /><path clip-path="url(#clip030)" d="M202.084 1009.07 Q198.473 1009.07 196.644 1012.63 Q194.838 1016.17 194.838 1023.3 Q194.838 1030.41 196.644 1033.98 Q198.473 1037.52 202.084 1037.52 Q205.718 1037.52 207.524 1033.98 Q209.352 1030.41 209.352 1023.3 Q209.352 1016.17 207.524 1012.63 Q205.718 1009.07 202.084 1009.07 M202.084 1005.36 Q207.894 1005.36 210.949 1009.97 Q214.028 1014.55 214.028 1023.3 Q214.028 1032.03 210.949 1036.64 Q207.894 1041.22 202.084 1041.22 Q196.274 1041.22 193.195 1036.64 Q190.139 1032.03 190.139 1023.3 Q190.139 1014.55 193.195 1009.97 Q196.274 1005.36 202.084 1005.36 Z" fill="#000000" fill-rule="evenodd" fill-opacity="1" /><path clip-path="url(#clip030)" d="M127.917 909.091 Q124.306 909.091 122.478 912.656 Q120.672 916.197 120.672 923.327 Q120.672 930.433 122.478 933.998 Q124.306 937.54 127.917 937.54 Q131.552 937.54 133.357 933.998 Q135.186 930.433 135.186 923.327 Q135.186 916.197 133.357 912.656 Q131.552 909.091 127.917 909.091 M127.917 905.387 Q133.728 905.387 136.783 909.994 Q139.862 914.577 139.862 923.327 Q139.862 932.054 136.783 936.66 Q133.728 941.244 127.917 941.244 Q122.107 941.244 119.029 936.66 Q115.973 932.054 115.973 923.327 Q115.973 914.577 119.029 909.994 Q122.107 905.387 127.917 905.387 Z" fill="#000000" fill-rule="evenodd" fill-opacity="1" /><path clip-path="url(#clip030)" d="M148.079 934.693 L152.964 934.693 L152.964 940.572 L148.079 940.572 L148.079 934.693 Z" fill="#000000" fill-rule="evenodd" fill-opacity="1" /><path clip-path="url(#clip030)" d="M175.996 910.086 L164.19 928.535 L175.996 928.535 L175.996 910.086 M174.769 906.012 L180.649 906.012 L180.649 928.535 L185.579 928.535 L185.579 932.424 L180.649 932.424 L180.649 940.572 L175.996 940.572 L175.996 932.424 L160.394 932.424 L160.394 927.91 L174.769 906.012 Z" fill="#000000" fill-rule="evenodd" fill-opacity="1" /><path clip-path="url(#clip030)" d="M194.121 936.637 L201.76 936.637 L201.76 910.271 L193.45 911.938 L193.45 907.679 L201.713 906.012 L206.389 906.012 L206.389 936.637 L214.028 936.637 L214.028 940.572 L194.121 940.572 L194.121 936.637 Z" fill="#000000" fill-rule="evenodd" fill-opacity="1" /><path clip-path="url(#clip030)" d="M128.288 809.113 Q124.677 809.113 122.848 812.678 Q121.043 816.22 121.043 823.349 Q121.043 830.456 122.848 834.021 Q124.677 837.562 128.288 837.562 Q131.922 837.562 133.728 834.021 Q135.556 830.456 135.556 823.349 Q135.556 816.22 133.728 812.678 Q131.922 809.113 128.288 809.113 M128.288 805.41 Q134.098 805.41 137.154 810.016 Q140.232 814.6 140.232 823.349 Q140.232 832.076 137.154 836.683 Q134.098 841.266 128.288 841.266 Q122.478 841.266 119.399 836.683 Q116.343 832.076 116.343 823.349 Q116.343 814.6 119.399 810.016 Q122.478 805.41 128.288 805.41 Z" fill="#000000" fill-rule="evenodd" fill-opacity="1" /><path clip-path="url(#clip030)" d="M148.45 834.715 L153.334 834.715 L153.334 840.595 L148.45 840.595 L148.45 834.715 Z" fill="#000000" fill-rule="evenodd" fill-opacity="1" /><path clip-path="url(#clip030)" d="M176.366 810.109 L164.561 828.558 L176.366 828.558 L176.366 810.109 M175.139 806.035 L181.019 806.035 L181.019 828.558 L185.95 828.558 L185.95 832.447 L181.019 832.447 L181.019 840.595 L176.366 840.595 L176.366 832.447 L160.765 832.447 L160.765 827.933 L175.139 806.035 Z" fill="#000000" fill-rule="evenodd" fill-opacity="1" /><path clip-path="url(#clip030)" d="M197.709 836.66 L214.028 836.66 L214.028 840.595 L192.084 840.595 L192.084 836.66 Q194.746 833.905 199.329 829.275 Q203.936 824.623 205.116 823.28 Q207.362 820.757 208.241 819.021 Q209.144 817.262 209.144 815.572 Q209.144 812.817 207.199 811.081 Q205.278 809.345 202.176 809.345 Q199.977 809.345 197.524 810.109 Q195.093 810.873 192.315 812.424 L192.315 807.701 Q195.139 806.567 197.593 805.988 Q200.047 805.41 202.084 805.41 Q207.454 805.41 210.649 808.095 Q213.843 810.78 213.843 815.271 Q213.843 817.4 213.033 819.322 Q212.246 821.22 210.139 823.812 Q209.561 824.484 206.459 827.701 Q203.357 830.896 197.709 836.66 Z" fill="#000000" fill-rule="evenodd" fill-opacity="1" /><path clip-path="url(#clip030)" d="M127.339 709.136 Q123.728 709.136 121.899 712.701 Q120.093 716.242 120.093 723.372 Q120.093 730.478 121.899 734.043 Q123.728 737.585 127.339 737.585 Q130.973 737.585 132.779 734.043 Q134.607 730.478 134.607 723.372 Q134.607 716.242 132.779 712.701 Q130.973 709.136 127.339 709.136 M127.339 705.432 Q133.149 705.432 136.204 710.039 Q139.283 714.622 139.283 723.372 Q139.283 732.099 136.204 736.705 Q133.149 741.289 127.339 741.289 Q121.529 741.289 118.45 736.705 Q115.394 732.099 115.394 723.372 Q115.394 714.622 118.45 710.039 Q121.529 705.432 127.339 705.432 Z" fill="#000000" fill-rule="evenodd" fill-opacity="1" /><path clip-path="url(#clip030)" d="M147.501 734.738 L152.385 734.738 L152.385 740.617 L147.501 740.617 L147.501 734.738 Z" fill="#000000" fill-rule="evenodd" fill-opacity="1" /><path clip-path="url(#clip030)" d="M175.417 710.131 L163.612 728.58 L175.417 728.58 L175.417 710.131 M174.19 706.057 L180.07 706.057 L180.07 728.58 L185.001 728.58 L185.001 732.469 L180.07 732.469 L180.07 740.617 L175.417 740.617 L175.417 732.469 L159.815 732.469 L159.815 727.955 L174.19 706.057 Z" fill="#000000" fill-rule="evenodd" fill-opacity="1" /><path clip-path="url(#clip030)" d="M206.899 721.983 Q210.255 722.701 212.13 724.969 Q214.028 727.238 214.028 730.571 Q214.028 735.687 210.51 738.488 Q206.991 741.289 200.51 741.289 Q198.334 741.289 196.019 740.849 Q193.727 740.432 191.274 739.576 L191.274 735.062 Q193.218 736.196 195.533 736.775 Q197.848 737.353 200.371 737.353 Q204.769 737.353 207.061 735.617 Q209.375 733.881 209.375 730.571 Q209.375 727.515 207.223 725.802 Q205.093 724.066 201.274 724.066 L197.246 724.066 L197.246 720.224 L201.459 720.224 Q204.908 720.224 206.737 718.858 Q208.565 717.469 208.565 714.877 Q208.565 712.215 206.667 710.803 Q204.792 709.367 201.274 709.367 Q199.352 709.367 197.153 709.784 Q194.954 710.201 192.315 711.08 L192.315 706.914 Q194.977 706.173 197.292 705.803 Q199.63 705.432 201.69 705.432 Q207.014 705.432 210.116 707.863 Q213.218 710.27 213.218 714.391 Q213.218 717.261 211.574 719.252 Q209.931 721.219 206.899 721.983 Z" fill="#000000" fill-rule="evenodd" fill-opacity="1" /><path clip-path="url(#clip030)" d="M126.205 609.158 Q122.593 609.158 120.765 612.723 Q118.959 616.265 118.959 623.394 Q118.959 630.501 120.765 634.066 Q122.593 637.607 126.205 637.607 Q129.839 637.607 131.644 634.066 Q133.473 630.501 133.473 623.394 Q133.473 616.265 131.644 612.723 Q129.839 609.158 126.205 609.158 M126.205 605.455 Q132.015 605.455 135.07 610.061 Q138.149 614.644 138.149 623.394 Q138.149 632.121 135.07 636.728 Q132.015 641.311 126.205 641.311 Q120.394 641.311 117.316 636.728 Q114.26 632.121 114.26 623.394 Q114.26 614.644 117.316 610.061 Q120.394 605.455 126.205 605.455 Z" fill="#000000" fill-rule="evenodd" fill-opacity="1" /><path clip-path="url(#clip030)" d="M146.366 634.76 L151.251 634.76 L151.251 640.64 L146.366 640.64 L146.366 634.76 Z" fill="#000000" fill-rule="evenodd" fill-opacity="1" /><path clip-path="url(#clip030)" d="M174.283 610.154 L162.477 628.603 L174.283 628.603 L174.283 610.154 M173.056 606.08 L178.936 606.08 L178.936 628.603 L183.866 628.603 L183.866 632.492 L178.936 632.492 L178.936 640.64 L174.283 640.64 L174.283 632.492 L158.681 632.492 L158.681 627.978 L173.056 606.08 Z" fill="#000000" fill-rule="evenodd" fill-opacity="1" /><path clip-path="url(#clip030)" d="M204.445 610.154 L192.639 628.603 L204.445 628.603 L204.445 610.154 M203.218 606.08 L209.098 606.08 L209.098 628.603 L214.028 628.603 L214.028 632.492 L209.098 632.492 L209.098 640.64 L204.445 640.64 L204.445 632.492 L188.843 632.492 L188.843 627.978 L203.218 606.08 Z" fill="#000000" fill-rule="evenodd" fill-opacity="1" /><path clip-path="url(#clip030)" d="M127.686 509.181 Q124.075 509.181 122.246 512.746 Q120.441 516.287 120.441 523.417 Q120.441 530.523 122.246 534.088 Q124.075 537.63 127.686 537.63 Q131.32 537.63 133.126 534.088 Q134.954 530.523 134.954 523.417 Q134.954 516.287 133.126 512.746 Q131.32 509.181 127.686 509.181 M127.686 505.477 Q133.496 505.477 136.552 510.084 Q139.63 514.667 139.63 523.417 Q139.63 532.144 136.552 536.75 Q133.496 541.333 127.686 541.333 Q121.876 541.333 118.797 536.75 Q115.742 532.144 115.742 523.417 Q115.742 514.667 118.797 510.084 Q121.876 505.477 127.686 505.477 Z" fill="#000000" fill-rule="evenodd" fill-opacity="1" /><path clip-path="url(#clip030)" d="M147.848 534.783 L152.732 534.783 L152.732 540.662 L147.848 540.662 L147.848 534.783 Z" fill="#000000" fill-rule="evenodd" fill-opacity="1" /><path clip-path="url(#clip030)" d="M175.764 510.176 L163.959 528.625 L175.764 528.625 L175.764 510.176 M174.538 506.102 L180.417 506.102 L180.417 528.625 L185.348 528.625 L185.348 532.514 L180.417 532.514 L180.417 540.662 L175.764 540.662 L175.764 532.514 L160.163 532.514 L160.163 528 L174.538 506.102 Z" fill="#000000" fill-rule="evenodd" fill-opacity="1" /><path clip-path="url(#clip030)" d="M193.125 506.102 L211.482 506.102 L211.482 510.037 L197.408 510.037 L197.408 518.51 Q198.426 518.162 199.445 518 Q200.463 517.815 201.482 517.815 Q207.269 517.815 210.649 520.986 Q214.028 524.158 214.028 529.574 Q214.028 535.153 210.556 538.255 Q207.084 541.333 200.764 541.333 Q198.588 541.333 196.32 540.963 Q194.075 540.593 191.667 539.852 L191.667 535.153 Q193.75 536.287 195.973 536.843 Q198.195 537.398 200.672 537.398 Q204.676 537.398 207.014 535.292 Q209.352 533.185 209.352 529.574 Q209.352 525.963 207.014 523.857 Q204.676 521.75 200.672 521.75 Q198.797 521.75 196.922 522.167 Q195.07 522.584 193.125 523.463 L193.125 506.102 Z" fill="#000000" fill-rule="evenodd" fill-opacity="1" /><path clip-path="url(#clip030)" d="M126.529 409.203 Q122.918 409.203 121.089 412.768 Q119.283 416.31 119.283 423.439 Q119.283 430.546 121.089 434.111 Q122.918 437.652 126.529 437.652 Q130.163 437.652 131.968 434.111 Q133.797 430.546 133.797 423.439 Q133.797 416.31 131.968 412.768 Q130.163 409.203 126.529 409.203 M126.529 405.5 Q132.339 405.5 135.394 410.106 Q138.473 414.689 138.473 423.439 Q138.473 432.166 135.394 436.773 Q132.339 441.356 126.529 441.356 Q120.718 441.356 117.64 436.773 Q114.584 432.166 114.584 423.439 Q114.584 414.689 117.64 410.106 Q120.718 405.5 126.529 405.5 Z" fill="#000000" fill-rule="evenodd" fill-opacity="1" /><path clip-path="url(#clip030)" d="M146.691 434.805 L151.575 434.805 L151.575 440.685 L146.691 440.685 L146.691 434.805 Z" fill="#000000" fill-rule="evenodd" fill-opacity="1" /><path clip-path="url(#clip030)" d="M174.607 410.199 L162.802 428.648 L174.607 428.648 L174.607 410.199 M173.38 406.125 L179.26 406.125 L179.26 428.648 L184.19 428.648 L184.19 432.537 L179.26 432.537 L179.26 440.685 L174.607 440.685 L174.607 432.537 L159.005 432.537 L159.005 428.023 L173.38 406.125 Z" fill="#000000" fill-rule="evenodd" fill-opacity="1" /><path clip-path="url(#clip030)" d="M202.5 421.541 Q199.352 421.541 197.5 423.694 Q195.672 425.847 195.672 429.597 Q195.672 433.324 197.5 435.5 Q199.352 437.652 202.5 437.652 Q205.649 437.652 207.477 435.5 Q209.329 433.324 209.329 429.597 Q209.329 425.847 207.477 423.694 Q205.649 421.541 202.5 421.541 M211.783 406.889 L211.783 411.148 Q210.024 410.314 208.218 409.875 Q206.436 409.435 204.676 409.435 Q200.047 409.435 197.593 412.56 Q195.163 415.685 194.815 422.004 Q196.181 419.99 198.241 418.926 Q200.301 417.838 202.778 417.838 Q207.987 417.838 210.996 421.009 Q214.028 424.157 214.028 429.597 Q214.028 434.921 210.88 438.138 Q207.732 441.356 202.5 441.356 Q196.505 441.356 193.334 436.773 Q190.163 432.166 190.163 423.439 Q190.163 415.245 194.051 410.384 Q197.94 405.5 204.491 405.5 Q206.25 405.5 208.033 405.847 Q209.838 406.194 211.783 406.889 Z" fill="#000000" fill-rule="evenodd" fill-opacity="1" /><path clip-path="url(#clip030)" d="M127.593 309.226 Q123.982 309.226 122.154 312.791 Q120.348 316.332 120.348 323.462 Q120.348 330.568 122.154 334.133 Q123.982 337.675 127.593 337.675 Q131.228 337.675 133.033 334.133 Q134.862 330.568 134.862 323.462 Q134.862 316.332 133.033 312.791 Q131.228 309.226 127.593 309.226 M127.593 305.522 Q133.404 305.522 136.459 310.129 Q139.538 314.712 139.538 323.462 Q139.538 332.189 136.459 336.795 Q133.404 341.378 127.593 341.378 Q121.783 341.378 118.705 336.795 Q115.649 332.189 115.649 323.462 Q115.649 314.712 118.705 310.129 Q121.783 305.522 127.593 305.522 Z" fill="#000000" fill-rule="evenodd" fill-opacity="1" /><path clip-path="url(#clip030)" d="M147.755 334.828 L152.64 334.828 L152.64 340.707 L147.755 340.707 L147.755 334.828 Z" fill="#000000" fill-rule="evenodd" fill-opacity="1" /><path clip-path="url(#clip030)" d="M175.672 310.221 L163.866 328.67 L175.672 328.67 L175.672 310.221 M174.445 306.147 L180.325 306.147 L180.325 328.67 L185.255 328.67 L185.255 332.559 L180.325 332.559 L180.325 340.707 L175.672 340.707 L175.672 332.559 L160.07 332.559 L160.07 328.045 L174.445 306.147 Z" fill="#000000" fill-rule="evenodd" fill-opacity="1" /><path clip-path="url(#clip030)" d="M191.806 306.147 L214.028 306.147 L214.028 308.138 L201.482 340.707 L196.598 340.707 L208.403 310.082 L191.806 310.082 L191.806 306.147 Z" fill="#000000" fill-rule="evenodd" fill-opacity="1" /><path clip-path="url(#clip030)" d="M126.783 209.248 Q123.172 209.248 121.343 212.813 Q119.538 216.355 119.538 223.484 Q119.538 230.591 121.343 234.156 Q123.172 237.697 126.783 237.697 Q130.417 237.697 132.223 234.156 Q134.052 230.591 134.052 223.484 Q134.052 216.355 132.223 212.813 Q130.417 209.248 126.783 209.248 M126.783 205.545 Q132.593 205.545 135.649 210.151 Q138.728 214.734 138.728 223.484 Q138.728 232.211 135.649 236.818 Q132.593 241.401 126.783 241.401 Q120.973 241.401 117.894 236.818 Q114.839 232.211 114.839 223.484 Q114.839 214.734 117.894 210.151 Q120.973 205.545 126.783 205.545 Z" fill="#000000" fill-rule="evenodd" fill-opacity="1" /><path clip-path="url(#clip030)" d="M146.945 234.85 L151.829 234.85 L151.829 240.73 L146.945 240.73 L146.945 234.85 Z" fill="#000000" fill-rule="evenodd" fill-opacity="1" /><path clip-path="url(#clip030)" d="M174.862 210.244 L163.056 228.693 L174.862 228.693 L174.862 210.244 M173.635 206.17 L179.514 206.17 L179.514 228.693 L184.445 228.693 L184.445 232.582 L179.514 232.582 L179.514 240.73 L174.862 240.73 L174.862 232.582 L159.26 232.582 L159.26 228.068 L173.635 206.17 Z" fill="#000000" fill-rule="evenodd" fill-opacity="1" /><path clip-path="url(#clip030)" d="M202.176 224.318 Q198.843 224.318 196.922 226.1 Q195.024 227.882 195.024 231.007 Q195.024 234.132 196.922 235.915 Q198.843 237.697 202.176 237.697 Q205.51 237.697 207.431 235.915 Q209.352 234.109 209.352 231.007 Q209.352 227.882 207.431 226.1 Q205.533 224.318 202.176 224.318 M197.5 222.327 Q194.491 221.586 192.801 219.526 Q191.135 217.466 191.135 214.503 Q191.135 210.359 194.075 207.952 Q197.037 205.545 202.176 205.545 Q207.338 205.545 210.278 207.952 Q213.218 210.359 213.218 214.503 Q213.218 217.466 211.528 219.526 Q209.861 221.586 206.875 222.327 Q210.255 223.114 212.13 225.406 Q214.028 227.697 214.028 231.007 Q214.028 236.031 210.949 238.716 Q207.894 241.401 202.176 241.401 Q196.459 241.401 193.38 238.716 Q190.325 236.031 190.325 231.007 Q190.325 227.697 192.223 225.406 Q194.121 223.114 197.5 222.327 M195.787 214.943 Q195.787 217.628 197.454 219.133 Q199.144 220.637 202.176 220.637 Q205.186 220.637 206.875 219.133 Q208.588 217.628 208.588 214.943 Q208.588 212.258 206.875 210.753 Q205.186 209.248 202.176 209.248 Q199.144 209.248 197.454 210.753 Q195.787 212.258 195.787 214.943 Z" fill="#000000" fill-rule="evenodd" fill-opacity="1" /><path clip-path="url(#clip030)" d="M126.876 109.271 Q123.265 109.271 121.436 112.836 Q119.63 116.377 119.63 123.507 Q119.63 130.613 121.436 134.178 Q123.265 137.72 126.876 137.72 Q130.51 137.72 132.316 134.178 Q134.144 130.613 134.144 123.507 Q134.144 116.377 132.316 112.836 Q130.51 109.271 126.876 109.271 M126.876 105.567 Q132.686 105.567 135.742 110.174 Q138.82 114.757 138.82 123.507 Q138.82 132.234 135.742 136.84 Q132.686 141.423 126.876 141.423 Q121.066 141.423 117.987 136.84 Q114.931 132.234 114.931 123.507 Q114.931 114.757 117.987 110.174 Q121.066 105.567 126.876 105.567 Z" fill="#000000" fill-rule="evenodd" fill-opacity="1" /><path clip-path="url(#clip030)" d="M147.038 134.873 L151.922 134.873 L151.922 140.752 L147.038 140.752 L147.038 134.873 Z" fill="#000000" fill-rule="evenodd" fill-opacity="1" /><path clip-path="url(#clip030)" d="M174.954 110.266 L163.149 128.715 L174.954 128.715 L174.954 110.266 M173.727 106.192 L179.607 106.192 L179.607 128.715 L184.538 128.715 L184.538 132.604 L179.607 132.604 L179.607 140.752 L174.954 140.752 L174.954 132.604 L159.353 132.604 L159.353 128.09 L173.727 106.192 Z" fill="#000000" fill-rule="evenodd" fill-opacity="1" /><path clip-path="url(#clip030)" d="M192.408 140.035 L192.408 135.775 Q194.167 136.609 195.973 137.048 Q197.778 137.488 199.514 137.488 Q204.144 137.488 206.574 134.386 Q209.028 131.261 209.375 124.919 Q208.033 126.91 205.973 127.974 Q203.912 129.039 201.412 129.039 Q196.227 129.039 193.195 125.914 Q190.186 122.766 190.186 117.326 Q190.186 112.002 193.334 108.785 Q196.482 105.567 201.713 105.567 Q207.709 105.567 210.857 110.174 Q214.028 114.757 214.028 123.507 Q214.028 131.678 210.139 136.562 Q206.274 141.423 199.723 141.423 Q197.963 141.423 196.158 141.076 Q194.352 140.729 192.408 140.035 M201.713 125.382 Q204.862 125.382 206.69 123.229 Q208.542 121.076 208.542 117.326 Q208.542 113.599 206.69 111.447 Q204.862 109.271 201.713 109.271 Q198.565 109.271 196.713 111.447 Q194.885 113.599 194.885 117.326 Q194.885 121.076 196.713 123.229 Q198.565 125.382 201.713 125.382 Z" fill="#000000" fill-rule="evenodd" fill-opacity="1" /><path clip-path="url(#clip030)" d="M16.4842 987.834 L16.4842 981.405 L64.0042 981.405 L64.0042 987.834 L16.4842 987.834 Z" fill="#000000" fill-rule="evenodd" fill-opacity="1" /><path clip-path="url(#clip030)" d="M42.4881 939.232 L64.0042 939.232 L64.0042 945.089 L42.679 945.089 Q37.6183 945.089 35.1038 947.062 Q32.5894 949.035 32.5894 952.982 Q32.5894 957.725 35.6131 960.462 Q38.6368 963.199 43.8567 963.199 L64.0042 963.199 L64.0042 969.087 L28.3562 969.087 L28.3562 963.199 L33.8944 963.199 Q30.6797 961.098 29.0883 958.266 Q27.4968 955.401 27.4968 951.677 Q27.4968 945.534 31.3163 942.383 Q35.1038 939.232 42.4881 939.232 Z" fill="#000000" fill-rule="evenodd" fill-opacity="1" /><path clip-path="url(#clip030)" d="M42.4881 897.919 L64.0042 897.919 L64.0042 903.775 L42.679 903.775 Q37.6183 903.775 35.1038 905.749 Q32.5894 907.722 32.5894 911.669 Q32.5894 916.411 35.6131 919.148 Q38.6368 921.886 43.8567 921.886 L64.0042 921.886 L64.0042 927.774 L28.3562 927.774 L28.3562 921.886 L33.8944 921.886 Q30.6797 919.785 29.0883 916.952 Q27.4968 914.088 27.4968 910.364 Q27.4968 904.221 31.3163 901.07 Q35.1038 897.919 42.4881 897.919 Z" fill="#000000" fill-rule="evenodd" fill-opacity="1" /><path clip-path="url(#clip030)" d="M44.7161 855.746 L47.5806 855.746 L47.5806 882.673 Q53.6281 882.291 56.8109 879.044 Q59.9619 875.766 59.9619 869.941 Q59.9619 866.568 59.1344 863.417 Q58.3069 860.234 56.6518 857.115 L62.1899 857.115 Q63.5267 860.266 64.227 863.576 Q64.9272 866.886 64.9272 870.292 Q64.9272 878.822 59.9619 883.819 Q54.9967 888.784 46.5303 888.784 Q37.7774 888.784 32.6531 884.073 Q27.4968 879.331 27.4968 871.31 Q27.4968 864.117 32.1438 859.947 Q36.7589 855.746 44.7161 855.746 M42.9973 861.602 Q38.1912 861.666 35.3266 864.308 Q32.4621 866.918 32.4621 871.246 Q32.4621 876.148 35.2312 879.108 Q38.0002 882.036 43.0292 882.482 L42.9973 861.602 Z" fill="#000000" fill-rule="evenodd" fill-opacity="1" /><path clip-path="url(#clip030)" d="M33.8307 825.477 Q33.2578 826.464 33.0032 827.641 Q32.7167 828.787 32.7167 830.188 Q32.7167 835.153 35.9632 837.827 Q39.1779 840.468 45.2253 840.468 L64.0042 840.468 L64.0042 846.357 L28.3562 846.357 L28.3562 840.468 L33.8944 840.468 Q30.6479 838.622 29.0883 835.662 Q27.4968 832.702 27.4968 828.469 Q27.4968 827.864 27.5923 827.132 Q27.656 826.4 27.8151 825.509 L33.8307 825.477 Z" fill="#000000" fill-rule="evenodd" fill-opacity="1" /><path clip-path="url(#clip030)" d="M21.7677 791.93 L39.6235 791.93 L39.6235 783.845 Q39.6235 779.357 37.3 776.907 Q34.9765 774.456 30.6797 774.456 Q26.4147 774.456 24.0912 776.907 Q21.7677 779.357 21.7677 783.845 L21.7677 791.93 M16.4842 798.359 L16.4842 783.845 Q16.4842 775.856 20.1126 771.782 Q23.7092 767.676 30.6797 767.676 Q37.7138 767.676 41.3104 771.782 Q44.907 775.856 44.907 783.845 L44.907 791.93 L64.0042 791.93 L64.0042 798.359 L16.4842 798.359 Z" fill="#000000" fill-rule="evenodd" fill-opacity="1" /><path clip-path="url(#clip030)" d="M33.8307 739.795 Q33.2578 740.781 33.0032 741.959 Q32.7167 743.105 32.7167 744.505 Q32.7167 749.47 35.9632 752.144 Q39.1779 754.786 45.2253 754.786 L64.0042 754.786 L64.0042 760.674 L28.3562 760.674 L28.3562 754.786 L33.8944 754.786 Q30.6479 752.94 29.0883 749.98 Q27.4968 747.02 27.4968 742.787 Q27.4968 742.182 27.5923 741.45 Q27.656 740.718 27.8151 739.826 L33.8307 739.795 Z" fill="#000000" fill-rule="evenodd" fill-opacity="1" /><path clip-path="url(#clip030)" d="M32.4621 721.27 Q32.4621 725.981 36.1542 728.718 Q39.8145 731.456 46.212 731.456 Q52.6095 731.456 56.3017 728.75 Q59.9619 726.013 59.9619 721.27 Q59.9619 716.592 56.2698 713.854 Q52.5777 711.117 46.212 711.117 Q39.8781 711.117 36.186 713.854 Q32.4621 716.592 32.4621 721.27 M27.4968 721.27 Q27.4968 713.632 32.4621 709.271 Q37.4273 704.911 46.212 704.911 Q54.9649 704.911 59.9619 709.271 Q64.9272 713.632 64.9272 721.27 Q64.9272 728.941 59.9619 733.302 Q54.9649 737.63 46.212 737.63 Q37.4273 737.63 32.4621 733.302 Q27.4968 728.941 27.4968 721.27 Z" fill="#000000" fill-rule="evenodd" fill-opacity="1" /><path clip-path="url(#clip030)" d="M33.7671 671.745 L14.479 671.745 L14.479 665.889 L64.0042 665.889 L64.0042 671.745 L58.657 671.745 Q61.8398 673.591 63.3994 676.424 Q64.9272 679.225 64.9272 683.172 Q64.9272 689.633 59.771 693.707 Q54.6147 697.749 46.212 697.749 Q37.8093 697.749 32.6531 693.707 Q27.4968 689.633 27.4968 683.172 Q27.4968 679.225 29.0564 676.424 Q30.5842 673.591 33.7671 671.745 M46.212 691.702 Q52.6732 691.702 56.3653 689.06 Q60.0256 686.386 60.0256 681.739 Q60.0256 677.092 56.3653 674.419 Q52.6732 671.745 46.212 671.745 Q39.7508 671.745 36.0905 674.419 Q32.3984 677.092 32.3984 681.739 Q32.3984 686.386 36.0905 689.06 Q39.7508 691.702 46.212 691.702 Z" fill="#000000" fill-rule="evenodd" fill-opacity="1" /><path clip-path="url(#clip030)" d="M49.9359 654.43 L28.3562 654.43 L28.3562 648.574 L49.7131 648.574 Q54.7739 648.574 57.3202 646.601 Q59.8346 644.627 59.8346 640.681 Q59.8346 635.938 56.8109 633.201 Q53.7872 630.432 48.5673 630.432 L28.3562 630.432 L28.3562 624.575 L64.0042 624.575 L64.0042 630.432 L58.5296 630.432 Q61.7762 632.564 63.3676 635.397 Q64.9272 638.198 64.9272 641.922 Q64.9272 648.065 61.1078 651.248 Q57.2883 654.43 49.9359 654.43 M27.4968 639.694 L27.4968 639.694 Z" fill="#000000" fill-rule="evenodd" fill-opacity="1" /><path clip-path="url(#clip030)" d="M29.7248 586.859 L35.1993 586.859 Q33.8307 589.341 33.1623 591.856 Q32.4621 594.338 32.4621 596.885 Q32.4621 602.582 36.0905 605.733 Q39.6872 608.884 46.212 608.884 Q52.7369 608.884 56.3653 605.733 Q59.9619 602.582 59.9619 596.885 Q59.9619 594.338 59.2935 591.856 Q58.5933 589.341 57.2247 586.859 L62.6355 586.859 Q63.7814 589.309 64.3543 591.951 Q64.9272 594.561 64.9272 597.521 Q64.9272 605.574 59.8664 610.316 Q54.8057 615.059 46.212 615.059 Q37.491 615.059 32.4939 610.284 Q27.4968 605.478 27.4968 597.139 Q27.4968 594.434 28.0697 591.856 Q28.6108 589.277 29.7248 586.859 Z" fill="#000000" fill-rule="evenodd" fill-opacity="1" /><path clip-path="url(#clip030)" d="M18.2347 570.881 L28.3562 570.881 L28.3562 558.818 L32.9077 558.818 L32.9077 570.881 L52.2594 570.881 Q56.6199 570.881 57.8613 569.703 Q59.1026 568.493 59.1026 564.833 L59.1026 558.818 L64.0042 558.818 L64.0042 564.833 Q64.0042 571.613 61.4897 574.191 Q58.9434 576.769 52.2594 576.769 L32.9077 576.769 L32.9077 581.066 L28.3562 581.066 L28.3562 576.769 L18.2347 576.769 L18.2347 570.881 Z" fill="#000000" fill-rule="evenodd" fill-opacity="1" /><path clip-path="url(#clip030)" d="M1170.97 17.6457 Q1162.06 17.6457 1156.79 24.2892 Q1151.57 30.9327 1151.57 42.3968 Q1151.57 53.8203 1156.79 60.4638 Q1162.06 67.1073 1170.97 67.1073 Q1179.89 67.1073 1185.07 60.4638 Q1190.3 53.8203 1190.3 42.3968 Q1190.3 30.9327 1185.07 24.2892 Q1179.89 17.6457 1170.97 17.6457 M1170.97 11.0023 Q1183.69 11.0023 1191.31 19.5497 Q1198.92 28.0566 1198.92 42.3968 Q1198.92 56.6965 1191.31 65.2439 Q1183.69 73.7508 1170.97 73.7508 Q1158.21 73.7508 1150.56 65.2439 Q1142.94 56.737 1142.94 42.3968 Q1142.94 28.0566 1150.56 19.5497 Q1158.21 11.0023 1170.97 11.0023 Z" fill="#000000" fill-rule="evenodd" fill-opacity="1" /><path clip-path="url(#clip030)" d="M1206.05 27.2059 L1213.95 27.2059 L1228.13 65.2844 L1242.31 27.2059 L1250.21 27.2059 L1233.2 72.576 L1223.07 72.576 L1206.05 27.2059 Z" fill="#000000" fill-rule="evenodd" fill-opacity="1" /><path clip-path="url(#clip030)" d="M1299.31 48.0275 L1299.31 51.6733 L1265.04 51.6733 Q1265.52 59.3701 1269.65 63.421 Q1273.83 67.4314 1281.24 67.4314 Q1285.53 67.4314 1289.54 66.3781 Q1293.59 65.3249 1297.56 63.2184 L1297.56 70.267 Q1293.55 71.9684 1289.34 72.8596 Q1285.13 73.7508 1280.79 73.7508 Q1269.94 73.7508 1263.58 67.4314 Q1257.26 61.1119 1257.26 50.3365 Q1257.26 39.1965 1263.25 32.6746 Q1269.29 26.1121 1279.5 26.1121 Q1288.65 26.1121 1293.96 32.0264 Q1299.31 37.9003 1299.31 48.0275 M1291.85 45.84 Q1291.77 39.7232 1288.41 36.0774 Q1285.09 32.4315 1279.58 32.4315 Q1273.34 32.4315 1269.57 35.9558 Q1265.85 39.4801 1265.28 45.8805 L1291.85 45.84 Z" fill="#000000" fill-rule="evenodd" fill-opacity="1" /><path clip-path="url(#clip030)" d="M1337.83 34.1734 Q1336.57 33.4443 1335.08 33.1202 Q1333.62 32.7556 1331.83 32.7556 Q1325.52 32.7556 1322.11 36.8875 Q1318.75 40.9789 1318.75 48.6757 L1318.75 72.576 L1311.26 72.576 L1311.26 27.2059 L1318.75 27.2059 L1318.75 34.2544 Q1321.1 30.1225 1324.87 28.1376 Q1328.63 26.1121 1334.02 26.1121 Q1334.79 26.1121 1335.72 26.2337 Q1336.66 26.3147 1337.79 26.5172 L1337.83 34.1734 Z" fill="#000000" fill-rule="evenodd" fill-opacity="1" /><path clip-path="url(#clip030)" d="M1345.65 9.54393 L1353.1 9.54393 L1353.1 72.576 L1345.65 72.576 L1345.65 9.54393 Z" fill="#000000" fill-rule="evenodd" fill-opacity="1" /><path clip-path="url(#clip030)" d="M1389.32 49.7694 Q1380.28 49.7694 1376.8 51.8354 Q1373.32 53.9013 1373.32 58.8839 Q1373.32 62.8538 1375.91 65.2034 Q1378.54 67.5124 1383.04 67.5124 Q1389.24 67.5124 1392.96 63.1374 Q1396.73 58.7219 1396.73 51.4303 L1396.73 49.7694 L1389.32 49.7694 M1404.18 46.6907 L1404.18 72.576 L1396.73 72.576 L1396.73 65.6895 Q1394.18 69.8214 1390.37 71.8063 Q1386.56 73.7508 1381.05 73.7508 Q1374.09 73.7508 1369.95 69.8619 Q1365.86 65.9325 1365.86 59.3701 Q1365.86 51.7138 1370.97 47.825 Q1376.11 43.9361 1386.28 43.9361 L1396.73 43.9361 L1396.73 43.2069 Q1396.73 38.0623 1393.33 35.2672 Q1389.97 32.4315 1383.85 32.4315 Q1379.96 32.4315 1376.27 33.3632 Q1372.59 34.295 1369.18 36.1584 L1369.18 29.2718 Q1373.28 27.692 1377.12 26.9223 Q1380.97 26.1121 1384.62 26.1121 Q1394.46 26.1121 1399.32 31.2163 Q1404.18 36.3204 1404.18 46.6907 Z" fill="#000000" fill-rule="evenodd" fill-opacity="1" /><path clip-path="url(#clip030)" d="M1426.75 65.7705 L1426.75 89.8329 L1419.25 89.8329 L1419.25 27.2059 L1426.75 27.2059 L1426.75 34.0924 Q1429.1 30.0415 1432.66 28.0971 Q1436.27 26.1121 1441.25 26.1121 Q1449.51 26.1121 1454.66 32.6746 Q1459.84 39.2371 1459.84 49.9314 Q1459.84 60.6258 1454.66 67.1883 Q1449.51 73.7508 1441.25 73.7508 Q1436.27 73.7508 1432.66 71.8063 Q1429.1 69.8214 1426.75 65.7705 M1452.11 49.9314 Q1452.11 41.7081 1448.7 37.0496 Q1445.34 32.3505 1439.43 32.3505 Q1433.51 32.3505 1430.11 37.0496 Q1426.75 41.7081 1426.75 49.9314 Q1426.75 58.1548 1430.11 62.8538 Q1433.51 67.5124 1439.43 67.5124 Q1445.34 67.5124 1448.7 62.8538 Q1452.11 58.1548 1452.11 49.9314 Z" fill="#000000" fill-rule="evenodd" fill-opacity="1" /><polyline clip-path="url(#clip032)" style="stroke:#000000; stroke-linecap:round; stroke-linejoin:round; stroke-width:4; stroke-opacity:1; fill:none" points="
  309.539,287.902 309.539,287.902 
  "/>
<polyline clip-path="url(#clip032)" style="stroke:#000000; stroke-linecap:round; stroke-linejoin:round; stroke-width:4; stroke-opacity:1; fill:none" points="
  385.836,404.283 385.836,404.111 
  "/>
<polyline clip-path="url(#clip032)" style="stroke:#000000; stroke-linecap:round; stroke-linejoin:round; stroke-width:4; stroke-opacity:1; fill:none" points="
  462.132,327.884 462.132,327.883 
  "/>
<polyline clip-path="url(#clip032)" style="stroke:#000000; stroke-linecap:round; stroke-linejoin:round; stroke-width:4; stroke-opacity:1; fill:none" points="
  538.428,386.238 538.428,383.808 
  "/>
<polyline clip-path="url(#clip032)" style="stroke:#000000; stroke-linecap:round; stroke-linejoin:round; stroke-width:4; stroke-opacity:1; fill:none" points="
  614.725,333.619 614.725,333.618 
  "/>
<polyline clip-path="url(#clip032)" style="stroke:#000000; stroke-linecap:round; stroke-linejoin:round; stroke-width:4; stroke-opacity:1; fill:none" points="
  691.021,404.164 691.021,334.809 
  "/>
<polyline clip-path="url(#clip032)" style="stroke:#000000; stroke-linecap:round; stroke-linejoin:round; stroke-width:4; stroke-opacity:1; fill:none" points="
  767.317,333.875 767.317,333.579 
  "/>
<polyline clip-path="url(#clip032)" style="stroke:#000000; stroke-linecap:round; stroke-linejoin:round; stroke-width:4; stroke-opacity:1; fill:none" points="
  843.614,454.069 843.614,438.565 
  "/>
<polyline clip-path="url(#clip032)" style="stroke:#000000; stroke-linecap:round; stroke-linejoin:round; stroke-width:4; stroke-opacity:1; fill:none" points="
  919.91,341.017 919.91,333.285 
  "/>
<polyline clip-path="url(#clip032)" style="stroke:#000000; stroke-linecap:round; stroke-linejoin:round; stroke-width:4; stroke-opacity:1; fill:none" points="
  996.207,486.378 996.207,155.442 
  "/>
<polyline clip-path="url(#clip032)" style="stroke:#000000; stroke-linecap:round; stroke-linejoin:round; stroke-width:4; stroke-opacity:1; fill:none" points="
  1072.5,337.037 1072.5,323.65 
  "/>
<polyline clip-path="url(#clip032)" style="stroke:#000000; stroke-linecap:round; stroke-linejoin:round; stroke-width:4; stroke-opacity:1; fill:none" points="
  1148.8,620.305 1148.8,305.751 
  "/>
<polyline clip-path="url(#clip032)" style="stroke:#000000; stroke-linecap:round; stroke-linejoin:round; stroke-width:4; stroke-opacity:1; fill:none" points="
  1225.1,419.385 1225.1,402.901 
  "/>
<polyline clip-path="url(#clip032)" style="stroke:#000000; stroke-linecap:round; stroke-linejoin:round; stroke-width:4; stroke-opacity:1; fill:none" points="
  1301.39,720.907 1301.39,258.955 
  "/>
<polyline clip-path="url(#clip032)" style="stroke:#000000; stroke-linecap:round; stroke-linejoin:round; stroke-width:4; stroke-opacity:1; fill:none" points="
  1377.69,844.803 1377.69,355.465 
  "/>
<polyline clip-path="url(#clip032)" style="stroke:#000000; stroke-linecap:round; stroke-linejoin:round; stroke-width:4; stroke-opacity:1; fill:none" points="
  1453.98,473.672 1453.98,372.803 
  "/>
<polyline clip-path="url(#clip032)" style="stroke:#000000; stroke-linecap:round; stroke-linejoin:round; stroke-width:4; stroke-opacity:1; fill:none" points="
  1530.28,737.359 1530.28,220.514 
  "/>
<polyline clip-path="url(#clip032)" style="stroke:#000000; stroke-linecap:round; stroke-linejoin:round; stroke-width:4; stroke-opacity:1; fill:none" points="
  1606.58,438.609 1606.58,130.063 
  "/>
<polyline clip-path="url(#clip032)" style="stroke:#000000; stroke-linecap:round; stroke-linejoin:round; stroke-width:4; stroke-opacity:1; fill:none" points="
  1682.87,723.442 1682.87,503.582 
  "/>
<polyline clip-path="url(#clip032)" style="stroke:#000000; stroke-linecap:round; stroke-linejoin:round; stroke-width:4; stroke-opacity:1; fill:none" points="
  1759.17,916.614 1759.17,316.928 
  "/>
<polyline clip-path="url(#clip032)" style="stroke:#000000; stroke-linecap:round; stroke-linejoin:round; stroke-width:4; stroke-opacity:1; fill:none" points="
  1835.47,1014.73 1835.47,374.066 
  "/>
<polyline clip-path="url(#clip032)" style="stroke:#000000; stroke-linecap:round; stroke-linejoin:round; stroke-width:4; stroke-opacity:1; fill:none" points="
  1911.76,626.194 1911.76,302.294 
  "/>
<polyline clip-path="url(#clip032)" style="stroke:#000000; stroke-linecap:round; stroke-linejoin:round; stroke-width:4; stroke-opacity:1; fill:none" points="
  1988.06,550.134 1988.06,189.824 
  "/>
<polyline clip-path="url(#clip032)" style="stroke:#000000; stroke-linecap:round; stroke-linejoin:round; stroke-width:4; stroke-opacity:1; fill:none" points="
  2064.36,1112.23 2064.36,724.532 
  "/>
<polyline clip-path="url(#clip032)" style="stroke:#000000; stroke-linecap:round; stroke-linejoin:round; stroke-width:4; stroke-opacity:1; fill:none" points="
  2140.65,552.97 2140.65,311.232 
  "/>
<polyline clip-path="url(#clip032)" style="stroke:#000000; stroke-linecap:round; stroke-linejoin:round; stroke-width:4; stroke-opacity:1; fill:none" points="
  2216.95,1351.32 2216.95,933.467 
  "/>
<polyline clip-path="url(#clip032)" style="stroke:#000000; stroke-linecap:round; stroke-linejoin:round; stroke-width:4; stroke-opacity:1; fill:none" points="
  2293.24,589.679 2293.24,303.862 
  "/>
<line clip-path="url(#clip032)" x1="317.539" y1="287.902" x2="301.539" y2="287.902" style="stroke:#000000; stroke-width:3.2; stroke-opacity:1"/>
<line clip-path="url(#clip032)" x1="317.539" y1="287.902" x2="301.539" y2="287.902" style="stroke:#000000; stroke-width:3.2; stroke-opacity:1"/>
<line clip-path="url(#clip032)" x1="393.836" y1="404.283" x2="377.836" y2="404.283" style="stroke:#000000; stroke-width:3.2; stroke-opacity:1"/>
<line clip-path="url(#clip032)" x1="393.836" y1="404.111" x2="377.836" y2="404.111" style="stroke:#000000; stroke-width:3.2; stroke-opacity:1"/>
<line clip-path="url(#clip032)" x1="470.132" y1="327.884" x2="454.132" y2="327.884" style="stroke:#000000; stroke-width:3.2; stroke-opacity:1"/>
<line clip-path="url(#clip032)" x1="470.132" y1="327.883" x2="454.132" y2="327.883" style="stroke:#000000; stroke-width:3.2; stroke-opacity:1"/>
<line clip-path="url(#clip032)" x1="546.428" y1="386.238" x2="530.428" y2="386.238" style="stroke:#000000; stroke-width:3.2; stroke-opacity:1"/>
<line clip-path="url(#clip032)" x1="546.428" y1="383.808" x2="530.428" y2="383.808" style="stroke:#000000; stroke-width:3.2; stroke-opacity:1"/>
<line clip-path="url(#clip032)" x1="622.725" y1="333.619" x2="606.725" y2="333.619" style="stroke:#000000; stroke-width:3.2; stroke-opacity:1"/>
<line clip-path="url(#clip032)" x1="622.725" y1="333.618" x2="606.725" y2="333.618" style="stroke:#000000; stroke-width:3.2; stroke-opacity:1"/>
<line clip-path="url(#clip032)" x1="699.021" y1="404.164" x2="683.021" y2="404.164" style="stroke:#000000; stroke-width:3.2; stroke-opacity:1"/>
<line clip-path="url(#clip032)" x1="699.021" y1="334.809" x2="683.021" y2="334.809" style="stroke:#000000; stroke-width:3.2; stroke-opacity:1"/>
<line clip-path="url(#clip032)" x1="775.317" y1="333.875" x2="759.317" y2="333.875" style="stroke:#000000; stroke-width:3.2; stroke-opacity:1"/>
<line clip-path="url(#clip032)" x1="775.317" y1="333.579" x2="759.317" y2="333.579" style="stroke:#000000; stroke-width:3.2; stroke-opacity:1"/>
<line clip-path="url(#clip032)" x1="851.614" y1="454.069" x2="835.614" y2="454.069" style="stroke:#000000; stroke-width:3.2; stroke-opacity:1"/>
<line clip-path="url(#clip032)" x1="851.614" y1="438.565" x2="835.614" y2="438.565" style="stroke:#000000; stroke-width:3.2; stroke-opacity:1"/>
<line clip-path="url(#clip032)" x1="927.91" y1="341.017" x2="911.91" y2="341.017" style="stroke:#000000; stroke-width:3.2; stroke-opacity:1"/>
<line clip-path="url(#clip032)" x1="927.91" y1="333.285" x2="911.91" y2="333.285" style="stroke:#000000; stroke-width:3.2; stroke-opacity:1"/>
<line clip-path="url(#clip032)" x1="1004.21" y1="486.378" x2="988.207" y2="486.378" style="stroke:#000000; stroke-width:3.2; stroke-opacity:1"/>
<line clip-path="url(#clip032)" x1="1004.21" y1="155.442" x2="988.207" y2="155.442" style="stroke:#000000; stroke-width:3.2; stroke-opacity:1"/>
<line clip-path="url(#clip032)" x1="1080.5" y1="337.037" x2="1064.5" y2="337.037" style="stroke:#000000; stroke-width:3.2; stroke-opacity:1"/>
<line clip-path="url(#clip032)" x1="1080.5" y1="323.65" x2="1064.5" y2="323.65" style="stroke:#000000; stroke-width:3.2; stroke-opacity:1"/>
<line clip-path="url(#clip032)" x1="1156.8" y1="620.305" x2="1140.8" y2="620.305" style="stroke:#000000; stroke-width:3.2; stroke-opacity:1"/>
<line clip-path="url(#clip032)" x1="1156.8" y1="305.751" x2="1140.8" y2="305.751" style="stroke:#000000; stroke-width:3.2; stroke-opacity:1"/>
<line clip-path="url(#clip032)" x1="1233.1" y1="419.385" x2="1217.1" y2="419.385" style="stroke:#000000; stroke-width:3.2; stroke-opacity:1"/>
<line clip-path="url(#clip032)" x1="1233.1" y1="402.901" x2="1217.1" y2="402.901" style="stroke:#000000; stroke-width:3.2; stroke-opacity:1"/>
<line clip-path="url(#clip032)" x1="1309.39" y1="720.907" x2="1293.39" y2="720.907" style="stroke:#000000; stroke-width:3.2; stroke-opacity:1"/>
<line clip-path="url(#clip032)" x1="1309.39" y1="258.955" x2="1293.39" y2="258.955" style="stroke:#000000; stroke-width:3.2; stroke-opacity:1"/>
<line clip-path="url(#clip032)" x1="1385.69" y1="844.803" x2="1369.69" y2="844.803" style="stroke:#000000; stroke-width:3.2; stroke-opacity:1"/>
<line clip-path="url(#clip032)" x1="1385.69" y1="355.465" x2="1369.69" y2="355.465" style="stroke:#000000; stroke-width:3.2; stroke-opacity:1"/>
<line clip-path="url(#clip032)" x1="1461.98" y1="473.672" x2="1445.98" y2="473.672" style="stroke:#000000; stroke-width:3.2; stroke-opacity:1"/>
<line clip-path="url(#clip032)" x1="1461.98" y1="372.803" x2="1445.98" y2="372.803" style="stroke:#000000; stroke-width:3.2; stroke-opacity:1"/>
<line clip-path="url(#clip032)" x1="1538.28" y1="737.359" x2="1522.28" y2="737.359" style="stroke:#000000; stroke-width:3.2; stroke-opacity:1"/>
<line clip-path="url(#clip032)" x1="1538.28" y1="220.514" x2="1522.28" y2="220.514" style="stroke:#000000; stroke-width:3.2; stroke-opacity:1"/>
<line clip-path="url(#clip032)" x1="1614.58" y1="438.609" x2="1598.58" y2="438.609" style="stroke:#000000; stroke-width:3.2; stroke-opacity:1"/>
<line clip-path="url(#clip032)" x1="1614.58" y1="130.063" x2="1598.58" y2="130.063" style="stroke:#000000; stroke-width:3.2; stroke-opacity:1"/>
<line clip-path="url(#clip032)" x1="1690.87" y1="723.442" x2="1674.87" y2="723.442" style="stroke:#000000; stroke-width:3.2; stroke-opacity:1"/>
<line clip-path="url(#clip032)" x1="1690.87" y1="503.582" x2="1674.87" y2="503.582" style="stroke:#000000; stroke-width:3.2; stroke-opacity:1"/>
<line clip-path="url(#clip032)" x1="1767.17" y1="916.614" x2="1751.17" y2="916.614" style="stroke:#000000; stroke-width:3.2; stroke-opacity:1"/>
<line clip-path="url(#clip032)" x1="1767.17" y1="316.928" x2="1751.17" y2="316.928" style="stroke:#000000; stroke-width:3.2; stroke-opacity:1"/>
<line clip-path="url(#clip032)" x1="1843.47" y1="1014.73" x2="1827.47" y2="1014.73" style="stroke:#000000; stroke-width:3.2; stroke-opacity:1"/>
<line clip-path="url(#clip032)" x1="1843.47" y1="374.066" x2="1827.47" y2="374.066" style="stroke:#000000; stroke-width:3.2; stroke-opacity:1"/>
<line clip-path="url(#clip032)" x1="1919.76" y1="626.194" x2="1903.76" y2="626.194" style="stroke:#000000; stroke-width:3.2; stroke-opacity:1"/>
<line clip-path="url(#clip032)" x1="1919.76" y1="302.294" x2="1903.76" y2="302.294" style="stroke:#000000; stroke-width:3.2; stroke-opacity:1"/>
<line clip-path="url(#clip032)" x1="1996.06" y1="550.134" x2="1980.06" y2="550.134" style="stroke:#000000; stroke-width:3.2; stroke-opacity:1"/>
<line clip-path="url(#clip032)" x1="1996.06" y1="189.824" x2="1980.06" y2="189.824" style="stroke:#000000; stroke-width:3.2; stroke-opacity:1"/>
<line clip-path="url(#clip032)" x1="2072.36" y1="1112.23" x2="2056.36" y2="1112.23" style="stroke:#000000; stroke-width:3.2; stroke-opacity:1"/>
<line clip-path="url(#clip032)" x1="2072.36" y1="724.532" x2="2056.36" y2="724.532" style="stroke:#000000; stroke-width:3.2; stroke-opacity:1"/>
<line clip-path="url(#clip032)" x1="2148.65" y1="552.97" x2="2132.65" y2="552.97" style="stroke:#000000; stroke-width:3.2; stroke-opacity:1"/>
<line clip-path="url(#clip032)" x1="2148.65" y1="311.232" x2="2132.65" y2="311.232" style="stroke:#000000; stroke-width:3.2; stroke-opacity:1"/>
<line clip-path="url(#clip032)" x1="2224.95" y1="1351.32" x2="2208.95" y2="1351.32" style="stroke:#000000; stroke-width:3.2; stroke-opacity:1"/>
<line clip-path="url(#clip032)" x1="2224.95" y1="933.467" x2="2208.95" y2="933.467" style="stroke:#000000; stroke-width:3.2; stroke-opacity:1"/>
<line clip-path="url(#clip032)" x1="2301.24" y1="589.679" x2="2285.24" y2="589.679" style="stroke:#000000; stroke-width:3.2; stroke-opacity:1"/>
<line clip-path="url(#clip032)" x1="2301.24" y1="303.862" x2="2285.24" y2="303.862" style="stroke:#000000; stroke-width:3.2; stroke-opacity:1"/>
<circle clip-path="url(#clip032)" cx="309.539" cy="287.902" r="7.2" fill="#009af9" fill-rule="evenodd" fill-opacity="1" stroke="#000000" stroke-opacity="1" stroke-width="3.2"/>
<circle clip-path="url(#clip032)" cx="385.836" cy="404.197" r="7.2" fill="#009af9" fill-rule="evenodd" fill-opacity="1" stroke="#000000" stroke-opacity="1" stroke-width="3.2"/>
<circle clip-path="url(#clip032)" cx="462.132" cy="327.883" r="7.2" fill="#009af9" fill-rule="evenodd" fill-opacity="1" stroke="#000000" stroke-opacity="1" stroke-width="3.2"/>
<circle clip-path="url(#clip032)" cx="538.428" cy="385.023" r="7.2" fill="#009af9" fill-rule="evenodd" fill-opacity="1" stroke="#000000" stroke-opacity="1" stroke-width="3.2"/>
<circle clip-path="url(#clip032)" cx="614.725" cy="333.619" r="7.2" fill="#009af9" fill-rule="evenodd" fill-opacity="1" stroke="#000000" stroke-opacity="1" stroke-width="3.2"/>
<circle clip-path="url(#clip032)" cx="691.021" cy="369.486" r="7.2" fill="#009af9" fill-rule="evenodd" fill-opacity="1" stroke="#000000" stroke-opacity="1" stroke-width="3.2"/>
<circle clip-path="url(#clip032)" cx="767.317" cy="333.727" r="7.2" fill="#009af9" fill-rule="evenodd" fill-opacity="1" stroke="#000000" stroke-opacity="1" stroke-width="3.2"/>
<circle clip-path="url(#clip032)" cx="843.614" cy="446.317" r="7.2" fill="#009af9" fill-rule="evenodd" fill-opacity="1" stroke="#000000" stroke-opacity="1" stroke-width="3.2"/>
<circle clip-path="url(#clip032)" cx="919.91" cy="337.151" r="7.2" fill="#009af9" fill-rule="evenodd" fill-opacity="1" stroke="#000000" stroke-opacity="1" stroke-width="3.2"/>
<circle clip-path="url(#clip032)" cx="996.207" cy="320.91" r="7.2" fill="#009af9" fill-rule="evenodd" fill-opacity="1" stroke="#000000" stroke-opacity="1" stroke-width="3.2"/>
<circle clip-path="url(#clip032)" cx="1072.5" cy="330.344" r="7.2" fill="#009af9" fill-rule="evenodd" fill-opacity="1" stroke="#000000" stroke-opacity="1" stroke-width="3.2"/>
<circle clip-path="url(#clip032)" cx="1148.8" cy="463.028" r="7.2" fill="#009af9" fill-rule="evenodd" fill-opacity="1" stroke="#000000" stroke-opacity="1" stroke-width="3.2"/>
<circle clip-path="url(#clip032)" cx="1225.1" cy="411.143" r="7.2" fill="#009af9" fill-rule="evenodd" fill-opacity="1" stroke="#000000" stroke-opacity="1" stroke-width="3.2"/>
<circle clip-path="url(#clip032)" cx="1301.39" cy="489.931" r="7.2" fill="#009af9" fill-rule="evenodd" fill-opacity="1" stroke="#000000" stroke-opacity="1" stroke-width="3.2"/>
<circle clip-path="url(#clip032)" cx="1377.69" cy="600.134" r="7.2" fill="#009af9" fill-rule="evenodd" fill-opacity="1" stroke="#000000" stroke-opacity="1" stroke-width="3.2"/>
<circle clip-path="url(#clip032)" cx="1453.98" cy="423.237" r="7.2" fill="#009af9" fill-rule="evenodd" fill-opacity="1" stroke="#000000" stroke-opacity="1" stroke-width="3.2"/>
<circle clip-path="url(#clip032)" cx="1530.28" cy="478.936" r="7.2" fill="#009af9" fill-rule="evenodd" fill-opacity="1" stroke="#000000" stroke-opacity="1" stroke-width="3.2"/>
<circle clip-path="url(#clip032)" cx="1606.58" cy="284.336" r="7.2" fill="#009af9" fill-rule="evenodd" fill-opacity="1" stroke="#000000" stroke-opacity="1" stroke-width="3.2"/>
<circle clip-path="url(#clip032)" cx="1682.87" cy="613.512" r="7.2" fill="#009af9" fill-rule="evenodd" fill-opacity="1" stroke="#000000" stroke-opacity="1" stroke-width="3.2"/>
<circle clip-path="url(#clip032)" cx="1759.17" cy="616.771" r="7.2" fill="#009af9" fill-rule="evenodd" fill-opacity="1" stroke="#000000" stroke-opacity="1" stroke-width="3.2"/>
<circle clip-path="url(#clip032)" cx="1835.47" cy="694.398" r="7.2" fill="#009af9" fill-rule="evenodd" fill-opacity="1" stroke="#000000" stroke-opacity="1" stroke-width="3.2"/>
<circle clip-path="url(#clip032)" cx="1911.76" cy="464.244" r="7.2" fill="#009af9" fill-rule="evenodd" fill-opacity="1" stroke="#000000" stroke-opacity="1" stroke-width="3.2"/>
<circle clip-path="url(#clip032)" cx="1988.06" cy="369.979" r="7.2" fill="#009af9" fill-rule="evenodd" fill-opacity="1" stroke="#000000" stroke-opacity="1" stroke-width="3.2"/>
<circle clip-path="url(#clip032)" cx="2064.36" cy="918.381" r="7.2" fill="#009af9" fill-rule="evenodd" fill-opacity="1" stroke="#000000" stroke-opacity="1" stroke-width="3.2"/>
<circle clip-path="url(#clip032)" cx="2140.65" cy="432.101" r="7.2" fill="#009af9" fill-rule="evenodd" fill-opacity="1" stroke="#000000" stroke-opacity="1" stroke-width="3.2"/>
<circle clip-path="url(#clip032)" cx="2216.95" cy="1142.39" r="7.2" fill="#009af9" fill-rule="evenodd" fill-opacity="1" stroke="#000000" stroke-opacity="1" stroke-width="3.2"/>
<circle clip-path="url(#clip032)" cx="2293.24" cy="446.77" r="7.2" fill="#009af9" fill-rule="evenodd" fill-opacity="1" stroke="#000000" stroke-opacity="1" stroke-width="3.2"/>
<path clip-path="url(#clip030)" d="
M320.119 1379.86 L889.163 1379.86 L889.163 1276.18 L320.119 1276.18  Z
  " fill="#ffffff" fill-rule="evenodd" fill-opacity="1"/>
<polyline clip-path="url(#clip030)" style="stroke:#000000; stroke-linecap:round; stroke-linejoin:round; stroke-width:4; stroke-opacity:1; fill:none" points="
  320.119,1379.86 889.163,1379.86 889.163,1276.18 320.119,1276.18 320.119,1379.86 
  "/>
<circle clip-path="url(#clip030)" cx="413.574" cy="1328.02" r="23.04" fill="#009af9" fill-rule="evenodd" fill-opacity="1" stroke="#000000" stroke-opacity="1" stroke-width="10.24"/>
<path clip-path="url(#clip030)" d="M527.375 1324.35 Q528.973 1321.48 531.195 1320.11 Q533.417 1318.75 536.426 1318.75 Q540.477 1318.75 542.676 1321.59 Q544.875 1324.42 544.875 1329.65 L544.875 1345.3 L540.593 1345.3 L540.593 1329.79 Q540.593 1326.06 539.273 1324.25 Q537.954 1322.45 535.246 1322.45 Q531.935 1322.45 530.014 1324.65 Q528.093 1326.85 528.093 1330.64 L528.093 1345.3 L523.811 1345.3 L523.811 1329.79 Q523.811 1326.04 522.491 1324.25 Q521.172 1322.45 518.417 1322.45 Q515.153 1322.45 513.232 1324.67 Q511.311 1326.87 511.311 1330.64 L511.311 1345.3 L507.028 1345.3 L507.028 1319.37 L511.311 1319.37 L511.311 1323.4 Q512.769 1321.01 514.806 1319.88 Q516.843 1318.75 519.644 1318.75 Q522.468 1318.75 524.436 1320.18 Q526.426 1321.62 527.375 1324.35 Z" fill="#000000" fill-rule="evenodd" fill-opacity="1" /><path clip-path="url(#clip030)" d="M562.097 1329.63 Q560.94 1327.63 558.602 1327.63 Q556.264 1327.63 555.107 1329.63 Q553.926 1331.62 553.926 1335.6 Q553.926 1339.6 555.107 1341.59 Q556.264 1343.58 558.602 1343.58 Q560.94 1343.58 562.097 1341.59 Q563.278 1339.6 563.278 1335.6 Q563.278 1331.62 562.097 1329.63 M558.602 1325.57 Q562.329 1325.57 564.296 1328.14 Q566.264 1330.71 566.264 1335.6 Q566.264 1340.5 564.296 1343.07 Q562.329 1345.64 558.602 1345.64 Q554.852 1345.64 552.884 1343.07 Q550.917 1340.5 550.917 1335.6 Q550.917 1330.71 552.884 1328.14 Q554.852 1325.57 558.602 1325.57 Z" fill="#000000" fill-rule="evenodd" fill-opacity="1" /><path clip-path="url(#clip030)" d="M572.931 1323.77 L602.606 1323.77 L602.606 1327.66 L572.931 1327.66 L572.931 1323.77 M572.931 1333.21 L602.606 1333.21 L602.606 1337.15 L572.931 1337.15 L572.931 1333.21 Z" fill="#000000" fill-rule="evenodd" fill-opacity="1" /><path clip-path="url(#clip030)" d="M622.699 1313.81 Q619.088 1313.81 617.259 1317.38 Q615.454 1320.92 615.454 1328.05 Q615.454 1335.16 617.259 1338.72 Q619.088 1342.26 622.699 1342.26 Q626.333 1342.26 628.139 1338.72 Q629.967 1335.16 629.967 1328.05 Q629.967 1320.92 628.139 1317.38 Q626.333 1313.81 622.699 1313.81 M622.699 1310.11 Q628.509 1310.11 631.565 1314.72 Q634.643 1319.3 634.643 1328.05 Q634.643 1336.78 631.565 1341.38 Q628.509 1345.97 622.699 1345.97 Q616.889 1345.97 613.81 1341.38 Q610.754 1336.78 610.754 1328.05 Q610.754 1319.3 613.81 1314.72 Q616.889 1310.11 622.699 1310.11 Z" fill="#000000" fill-rule="evenodd" fill-opacity="1" /><path clip-path="url(#clip030)" d="M642.861 1339.42 L647.745 1339.42 L647.745 1345.3 L642.861 1345.3 L642.861 1339.42 Z" fill="#000000" fill-rule="evenodd" fill-opacity="1" /><path clip-path="url(#clip030)" d="M657.976 1310.74 L676.333 1310.74 L676.333 1314.67 L662.259 1314.67 L662.259 1323.14 Q663.277 1322.8 664.296 1322.63 Q665.314 1322.45 666.333 1322.45 Q672.12 1322.45 675.5 1325.62 Q678.879 1328.79 678.879 1334.21 Q678.879 1339.79 675.407 1342.89 Q671.935 1345.97 665.615 1345.97 Q663.439 1345.97 661.171 1345.6 Q658.926 1345.23 656.518 1344.49 L656.518 1339.79 Q658.601 1340.92 660.824 1341.48 Q663.046 1342.03 665.523 1342.03 Q669.527 1342.03 671.865 1339.93 Q674.203 1337.82 674.203 1334.21 Q674.203 1330.6 671.865 1328.49 Q669.527 1326.38 665.523 1326.38 Q663.648 1326.38 661.773 1326.8 Q659.921 1327.22 657.976 1328.1 L657.976 1310.74 Z" fill="#000000" fill-rule="evenodd" fill-opacity="1" /><path clip-path="url(#clip030)" d="M688.578 1339.42 L693.462 1339.42 L693.462 1343.4 L689.666 1350.81 L686.68 1350.81 L688.578 1343.4 L688.578 1339.42 Z" fill="#000000" fill-rule="evenodd" fill-opacity="1" /><path clip-path="url(#clip030)" d="M726.309 1340.37 L726.309 1331.08 L718.671 1331.08 L718.671 1327.24 L730.939 1327.24 L730.939 1342.08 Q728.231 1344 724.967 1345 Q721.703 1345.97 717.999 1345.97 Q709.897 1345.97 705.314 1341.25 Q700.754 1336.5 700.754 1328.05 Q700.754 1319.58 705.314 1314.86 Q709.897 1310.11 717.999 1310.11 Q721.379 1310.11 724.411 1310.94 Q727.467 1311.78 730.036 1313.4 L730.036 1318.38 Q727.444 1316.18 724.527 1315.06 Q721.61 1313.95 718.393 1313.95 Q712.05 1313.95 708.856 1317.5 Q705.685 1321.04 705.685 1328.05 Q705.685 1335.04 708.856 1338.58 Q712.05 1342.12 718.393 1342.12 Q720.87 1342.12 722.814 1341.71 Q724.759 1341.27 726.309 1340.37 Z" fill="#000000" fill-rule="evenodd" fill-opacity="1" /><path clip-path="url(#clip030)" d="M741.032 1327.19 L750.846 1327.19 L750.846 1329.83 L737.004 1329.83 L737.004 1327.29 Q737.791 1326.57 739.249 1325.27 Q747.212 1318.21 747.212 1316.04 Q747.212 1314.51 746.008 1313.58 Q744.805 1312.63 742.837 1312.63 Q741.633 1312.63 740.221 1313.05 Q738.809 1313.44 737.143 1314.25 L737.143 1311.41 Q738.925 1310.76 740.453 1310.44 Q742.004 1310.11 743.323 1310.11 Q746.68 1310.11 748.694 1311.64 Q750.707 1313.17 750.707 1315.67 Q750.707 1318.88 743.045 1325.46 Q741.749 1326.57 741.032 1327.19 Z" fill="#000000" fill-rule="evenodd" fill-opacity="1" /><path clip-path="url(#clip030)" d="M758.856 1323.77 L788.531 1323.77 L788.531 1327.66 L758.856 1327.66 L758.856 1323.77 M758.856 1333.21 L788.531 1333.21 L788.531 1337.15 L758.856 1337.15 L758.856 1333.21 Z" fill="#000000" fill-rule="evenodd" fill-opacity="1" /><path clip-path="url(#clip030)" d="M799.434 1341.36 L807.073 1341.36 L807.073 1315 L798.763 1316.66 L798.763 1312.4 L807.027 1310.74 L811.702 1310.74 L811.702 1341.36 L819.341 1341.36 L819.341 1345.3 L799.434 1345.3 L799.434 1341.36 Z" fill="#000000" fill-rule="evenodd" fill-opacity="1" /><path clip-path="url(#clip030)" d="M828.786 1339.42 L833.67 1339.42 L833.67 1345.3 L828.786 1345.3 L828.786 1339.42 Z" fill="#000000" fill-rule="evenodd" fill-opacity="1" /><path clip-path="url(#clip030)" d="M853.855 1313.81 Q850.244 1313.81 848.415 1317.38 Q846.61 1320.92 846.61 1328.05 Q846.61 1335.16 848.415 1338.72 Q850.244 1342.26 853.855 1342.26 Q857.489 1342.26 859.295 1338.72 Q861.124 1335.16 861.124 1328.05 Q861.124 1320.92 859.295 1317.38 Q857.489 1313.81 853.855 1313.81 M853.855 1310.11 Q859.665 1310.11 862.721 1314.72 Q865.799 1319.3 865.799 1328.05 Q865.799 1336.78 862.721 1341.38 Q859.665 1345.97 853.855 1345.97 Q848.045 1345.97 844.966 1341.38 Q841.911 1336.78 841.911 1328.05 Q841.911 1319.3 844.966 1314.72 Q848.045 1310.11 853.855 1310.11 Z" fill="#000000" fill-rule="evenodd" fill-opacity="1" /></svg>
