<?xml version="1.0" encoding="utf-8"?>
<svg xmlns="http://www.w3.org/2000/svg" xmlns:xlink="http://www.w3.org/1999/xlink" width="600" height="400" viewBox="0 0 2400 1600">
<defs>
  <clipPath id="clip830">
    <rect x="0" y="0" width="2400" height="1600"/>
  </clipPath>
</defs>
<path clip-path="url(#clip830)" d="
M0 1600 L2400 1600 L2400 0 L0 0  Z
  " fill="#ffffff" fill-rule="evenodd" fill-opacity="1"/>
<defs>
  <clipPath id="clip831">
    <rect x="480" y="0" width="1681" height="1600"/>
  </clipPath>
</defs>
<path clip-path="url(#clip830)" d="
M219.866 1423.18 L2352.76 1423.18 L2352.76 123.472 L219.866 123.472  Z
  " fill="#ffffff" fill-rule="evenodd" fill-opacity="1"/>
<defs>
  <clipPath id="clip832">
    <rect x="219" y="123" width="2134" height="1301"/>
  </clipPath>
</defs>
<polyline clip-path="url(#clip832)" style="stroke:#000000; stroke-linecap:round; stroke-linejoin:round; stroke-width:2; stroke-opacity:0.1; fill:none" points="
  219.866,1423.18 219.866,123.472 
  "/>
<polyline clip-path="url(#clip832)" style="stroke:#000000; stroke-linecap:round; stroke-linejoin:round; stroke-width:2; stroke-opacity:0.1; fill:none" points="
  433.155,1423.18 433.155,123.472 
  "/>
<polyline clip-path="url(#clip832)" style="stroke:#000000; stroke-linecap:round; stroke-linejoin:round; stroke-width:2; stroke-opacity:0.1; fill:none" points="
  646.444,1423.18 646.444,123.472 
  "/>
<polyline clip-path="url(#clip832)" style="stroke:#000000; stroke-linecap:round; stroke-linejoin:round; stroke-width:2; stroke-opacity:0.1; fill:none" points="
  859.733,1423.18 859.733,123.472 
  "/>
<polyline clip-path="url(#clip832)" style="stroke:#000000; stroke-linecap:round; stroke-linejoin:round; stroke-width:2; stroke-opacity:0.1; fill:none" points="
  1073.02,1423.18 1073.02,123.472 
  "/>
<polyline clip-path="url(#clip832)" style="stroke:#000000; stroke-linecap:round; stroke-linejoin:round; stroke-width:2; stroke-opacity:0.1; fill:none" points="
  1286.31,1423.18 1286.31,123.472 
  "/>
<polyline clip-path="url(#clip832)" style="stroke:#000000; stroke-linecap:round; stroke-linejoin:round; stroke-width:2; stroke-opacity:0.1; fill:none" points="
  1499.6,1423.18 1499.6,123.472 
  "/>
<polyline clip-path="url(#clip832)" style="stroke:#000000; stroke-linecap:round; stroke-linejoin:round; stroke-width:2; stroke-opacity:0.1; fill:none" points="
  1712.89,1423.18 1712.89,123.472 
  "/>
<polyline clip-path="url(#clip832)" style="stroke:#000000; stroke-linecap:round; stroke-linejoin:round; stroke-width:2; stroke-opacity:0.1; fill:none" points="
  1926.18,1423.18 1926.18,123.472 
  "/>
<polyline clip-path="url(#clip832)" style="stroke:#000000; stroke-linecap:round; stroke-linejoin:round; stroke-width:2; stroke-opacity:0.1; fill:none" points="
  2139.47,1423.18 2139.47,123.472 
  "/>
<polyline clip-path="url(#clip832)" style="stroke:#000000; stroke-linecap:round; stroke-linejoin:round; stroke-width:2; stroke-opacity:0.1; fill:none" points="
  2352.76,1423.18 2352.76,123.472 
  "/>
<polyline clip-path="url(#clip830)" style="stroke:#000000; stroke-linecap:round; stroke-linejoin:round; stroke-width:4; stroke-opacity:1; fill:none" points="
  219.866,1423.18 2352.76,1423.18 
  "/>
<polyline clip-path="url(#clip830)" style="stroke:#000000; stroke-linecap:round; stroke-linejoin:round; stroke-width:4; stroke-opacity:1; fill:none" points="
  219.866,1423.18 219.866,1404.28 
  "/>
<polyline clip-path="url(#clip830)" style="stroke:#000000; stroke-linecap:round; stroke-linejoin:round; stroke-width:4; stroke-opacity:1; fill:none" points="
  433.155,1423.18 433.155,1404.28 
  "/>
<polyline clip-path="url(#clip830)" style="stroke:#000000; stroke-linecap:round; stroke-linejoin:round; stroke-width:4; stroke-opacity:1; fill:none" points="
  646.444,1423.18 646.444,1404.28 
  "/>
<polyline clip-path="url(#clip830)" style="stroke:#000000; stroke-linecap:round; stroke-linejoin:round; stroke-width:4; stroke-opacity:1; fill:none" points="
  859.733,1423.18 859.733,1404.28 
  "/>
<polyline clip-path="url(#clip830)" style="stroke:#000000; stroke-linecap:round; stroke-linejoin:round; stroke-width:4; stroke-opacity:1; fill:none" points="
  1073.02,1423.18 1073.02,1404.28 
  "/>
<polyline clip-path="url(#clip830)" style="stroke:#000000; stroke-linecap:round; stroke-linejoin:round; stroke-width:4; stroke-opacity:1; fill:none" points="
  1286.31,1423.18 1286.31,1404.28 
  "/>
<polyline clip-path="url(#clip830)" style="stroke:#000000; stroke-linecap:round; stroke-linejoin:round; stroke-width:4; stroke-opacity:1; fill:none" points="
  1499.6,1423.18 1499.6,1404.28 
  "/>
<polyline clip-path="url(#clip830)" style="stroke:#000000; stroke-linecap:round; stroke-linejoin:round; stroke-width:4; stroke-opacity:1; fill:none" points="
  1712.89,1423.18 1712.89,1404.28 
  "/>
<polyline clip-path="url(#clip830)" style="stroke:#000000; stroke-linecap:round; stroke-linejoin:round; stroke-width:4; stroke-opacity:1; fill:none" points="
  1926.18,1423.18 1926.18,1404.28 
  "/>
<polyline clip-path="url(#clip830)" style="stroke:#000000; stroke-linecap:round; stroke-linejoin:round; stroke-width:4; stroke-opacity:1; fill:none" points="
  2139.47,1423.18 2139.47,1404.28 
  "/>
<polyline clip-path="url(#clip830)" style="stroke:#000000; stroke-linecap:round; stroke-linejoin:round; stroke-width:4; stroke-opacity:1; fill:none" points="
  2352.76,1423.18 2352.76,1404.28 
  "/>
<path clip-path="url(#clip830)" d="M219.866 1454.1 Q216.255 1454.1 214.426 1457.66 Q212.621 1461.2 212.621 1468.33 Q212.621 1475.44 214.426 1479.01 Q216.255 1482.55 219.866 1482.55 Q223.501 1482.55 225.306 1479.01 Q227.135 1475.44 227.135 1468.33 Q227.135 1461.2 225.306 1457.66 Q223.501 1454.1 219.866 1454.1 M219.866 1450.39 Q225.676 1450.39 228.732 1455 Q231.811 1459.58 231.811 1468.33 Q231.811 1477.06 228.732 1481.67 Q225.676 1486.25 219.866 1486.25 Q214.056 1486.25 210.977 1481.67 Q207.922 1477.06 207.922 1468.33 Q207.922 1459.58 210.977 1455 Q214.056 1450.39 219.866 1450.39 Z" fill="#000000" fill-rule="evenodd" fill-opacity="1" /><path clip-path="url(#clip830)" d="M423.433 1451.02 L441.789 1451.02 L441.789 1454.96 L427.715 1454.96 L427.715 1463.43 Q428.734 1463.08 429.752 1462.92 Q430.771 1462.73 431.789 1462.73 Q437.577 1462.73 440.956 1465.9 Q444.336 1469.08 444.336 1474.49 Q444.336 1480.07 440.864 1483.17 Q437.391 1486.25 431.072 1486.25 Q428.896 1486.25 426.627 1485.88 Q424.382 1485.51 421.975 1484.77 L421.975 1480.07 Q424.058 1481.2 426.28 1481.76 Q428.502 1482.32 430.979 1482.32 Q434.984 1482.32 437.322 1480.21 Q439.66 1478.1 439.66 1474.49 Q439.66 1470.88 437.322 1468.77 Q434.984 1466.67 430.979 1466.67 Q429.104 1466.67 427.229 1467.08 Q425.377 1467.5 423.433 1468.38 L423.433 1451.02 Z" fill="#000000" fill-rule="evenodd" fill-opacity="1" /><path clip-path="url(#clip830)" d="M621.132 1481.64 L628.771 1481.64 L628.771 1455.28 L620.461 1456.95 L620.461 1452.69 L628.724 1451.02 L633.4 1451.02 L633.4 1481.64 L641.039 1481.64 L641.039 1485.58 L621.132 1485.58 L621.132 1481.64 Z" fill="#000000" fill-rule="evenodd" fill-opacity="1" /><path clip-path="url(#clip830)" d="M660.483 1454.1 Q656.872 1454.1 655.044 1457.66 Q653.238 1461.2 653.238 1468.33 Q653.238 1475.44 655.044 1479.01 Q656.872 1482.55 660.483 1482.55 Q664.118 1482.55 665.923 1479.01 Q667.752 1475.44 667.752 1468.33 Q667.752 1461.2 665.923 1457.66 Q664.118 1454.1 660.483 1454.1 M660.483 1450.39 Q666.294 1450.39 669.349 1455 Q672.428 1459.58 672.428 1468.33 Q672.428 1477.06 669.349 1481.67 Q666.294 1486.25 660.483 1486.25 Q654.673 1486.25 651.595 1481.67 Q648.539 1477.06 648.539 1468.33 Q648.539 1459.58 651.595 1455 Q654.673 1450.39 660.483 1450.39 Z" fill="#000000" fill-rule="evenodd" fill-opacity="1" /><path clip-path="url(#clip830)" d="M834.918 1481.64 L842.557 1481.64 L842.557 1455.28 L834.247 1456.95 L834.247 1452.69 L842.511 1451.02 L847.187 1451.02 L847.187 1481.64 L854.826 1481.64 L854.826 1485.58 L834.918 1485.58 L834.918 1481.64 Z" fill="#000000" fill-rule="evenodd" fill-opacity="1" /><path clip-path="url(#clip830)" d="M864.316 1451.02 L882.673 1451.02 L882.673 1454.96 L868.599 1454.96 L868.599 1463.43 Q869.617 1463.08 870.636 1462.92 Q871.654 1462.73 872.673 1462.73 Q878.46 1462.73 881.84 1465.9 Q885.219 1469.08 885.219 1474.49 Q885.219 1480.07 881.747 1483.17 Q878.275 1486.25 871.955 1486.25 Q869.779 1486.25 867.511 1485.88 Q865.266 1485.51 862.858 1484.77 L862.858 1480.07 Q864.941 1481.2 867.164 1481.76 Q869.386 1482.32 871.863 1482.32 Q875.867 1482.32 878.205 1480.21 Q880.543 1478.1 880.543 1474.49 Q880.543 1470.88 878.205 1468.77 Q875.867 1466.67 871.863 1466.67 Q869.988 1466.67 868.113 1467.08 Q866.261 1467.5 864.316 1468.38 L864.316 1451.02 Z" fill="#000000" fill-rule="evenodd" fill-opacity="1" /><path clip-path="url(#clip830)" d="M1051.8 1481.64 L1068.11 1481.64 L1068.11 1485.58 L1046.17 1485.58 L1046.17 1481.64 Q1048.83 1478.89 1053.42 1474.26 Q1058.02 1469.61 1059.2 1468.27 Q1061.45 1465.74 1062.33 1464.01 Q1063.23 1462.25 1063.23 1460.56 Q1063.23 1457.8 1061.29 1456.07 Q1059.36 1454.33 1056.26 1454.33 Q1054.06 1454.33 1051.61 1455.09 Q1049.18 1455.86 1046.4 1457.41 L1046.4 1452.69 Q1049.23 1451.55 1051.68 1450.97 Q1054.13 1450.39 1056.17 1450.39 Q1061.54 1450.39 1064.74 1453.08 Q1067.93 1455.77 1067.93 1460.26 Q1067.93 1462.39 1067.12 1464.31 Q1066.33 1466.2 1064.23 1468.8 Q1063.65 1469.47 1060.55 1472.69 Q1057.44 1475.88 1051.8 1481.64 Z" fill="#000000" fill-rule="evenodd" fill-opacity="1" /><path clip-path="url(#clip830)" d="M1087.93 1454.1 Q1084.32 1454.1 1082.49 1457.66 Q1080.68 1461.2 1080.68 1468.33 Q1080.68 1475.44 1082.49 1479.01 Q1084.32 1482.55 1087.93 1482.55 Q1091.56 1482.55 1093.37 1479.01 Q1095.2 1475.44 1095.2 1468.33 Q1095.2 1461.2 1093.37 1457.66 Q1091.56 1454.1 1087.93 1454.1 M1087.93 1450.39 Q1093.74 1450.39 1096.8 1455 Q1099.87 1459.58 1099.87 1468.33 Q1099.87 1477.06 1096.8 1481.67 Q1093.74 1486.25 1087.93 1486.25 Q1082.12 1486.25 1079.04 1481.67 Q1075.99 1477.06 1075.99 1468.33 Q1075.99 1459.58 1079.04 1455 Q1082.12 1450.39 1087.93 1450.39 Z" fill="#000000" fill-rule="evenodd" fill-opacity="1" /><path clip-path="url(#clip830)" d="M1265.58 1481.64 L1281.9 1481.64 L1281.9 1485.58 L1259.96 1485.58 L1259.96 1481.64 Q1262.62 1478.89 1267.2 1474.26 Q1271.81 1469.61 1272.99 1468.27 Q1275.23 1465.74 1276.11 1464.01 Q1277.02 1462.25 1277.02 1460.56 Q1277.02 1457.8 1275.07 1456.07 Q1273.15 1454.33 1270.05 1454.33 Q1267.85 1454.33 1265.4 1455.09 Q1262.97 1455.86 1260.19 1457.41 L1260.19 1452.69 Q1263.01 1451.55 1265.47 1450.97 Q1267.92 1450.39 1269.96 1450.39 Q1275.33 1450.39 1278.52 1453.08 Q1281.72 1455.77 1281.72 1460.26 Q1281.72 1462.39 1280.91 1464.31 Q1280.12 1466.2 1278.01 1468.8 Q1277.43 1469.47 1274.33 1472.69 Q1271.23 1475.88 1265.58 1481.64 Z" fill="#000000" fill-rule="evenodd" fill-opacity="1" /><path clip-path="url(#clip830)" d="M1291.76 1451.02 L1310.12 1451.02 L1310.12 1454.96 L1296.04 1454.96 L1296.04 1463.43 Q1297.06 1463.08 1298.08 1462.92 Q1299.1 1462.73 1300.12 1462.73 Q1305.91 1462.73 1309.29 1465.9 Q1312.67 1469.08 1312.67 1474.49 Q1312.67 1480.07 1309.19 1483.17 Q1305.72 1486.25 1299.4 1486.25 Q1297.23 1486.25 1294.96 1485.88 Q1292.71 1485.51 1290.3 1484.77 L1290.3 1480.07 Q1292.39 1481.2 1294.61 1481.76 Q1296.83 1482.32 1299.31 1482.32 Q1303.31 1482.32 1305.65 1480.21 Q1307.99 1478.1 1307.99 1474.49 Q1307.99 1470.88 1305.65 1468.77 Q1303.31 1466.67 1299.31 1466.67 Q1297.43 1466.67 1295.56 1467.08 Q1293.71 1467.5 1291.76 1468.38 L1291.76 1451.02 Z" fill="#000000" fill-rule="evenodd" fill-opacity="1" /><path clip-path="url(#clip830)" d="M1488.44 1466.95 Q1491.8 1467.66 1493.67 1469.93 Q1495.57 1472.2 1495.57 1475.53 Q1495.57 1480.65 1492.05 1483.45 Q1488.54 1486.25 1482.05 1486.25 Q1479.88 1486.25 1477.56 1485.81 Q1475.27 1485.39 1472.82 1484.54 L1472.82 1480.02 Q1474.76 1481.16 1477.08 1481.74 Q1479.39 1482.32 1481.91 1482.32 Q1486.31 1482.32 1488.6 1480.58 Q1490.92 1478.84 1490.92 1475.53 Q1490.92 1472.48 1488.77 1470.77 Q1486.64 1469.03 1482.82 1469.03 L1478.79 1469.03 L1478.79 1465.19 L1483 1465.19 Q1486.45 1465.19 1488.28 1463.82 Q1490.11 1462.43 1490.11 1459.84 Q1490.11 1457.18 1488.21 1455.77 Q1486.34 1454.33 1482.82 1454.33 Q1480.9 1454.33 1478.7 1454.75 Q1476.5 1455.16 1473.86 1456.04 L1473.86 1451.88 Q1476.52 1451.14 1478.84 1450.77 Q1481.17 1450.39 1483.23 1450.39 Q1488.56 1450.39 1491.66 1452.83 Q1494.76 1455.23 1494.76 1459.35 Q1494.76 1462.22 1493.12 1464.21 Q1491.48 1466.18 1488.44 1466.95 Z" fill="#000000" fill-rule="evenodd" fill-opacity="1" /><path clip-path="url(#clip830)" d="M1514.44 1454.1 Q1510.83 1454.1 1509 1457.66 Q1507.19 1461.2 1507.19 1468.33 Q1507.19 1475.44 1509 1479.01 Q1510.83 1482.55 1514.44 1482.55 Q1518.07 1482.55 1519.88 1479.01 Q1521.71 1475.44 1521.71 1468.33 Q1521.71 1461.2 1519.88 1457.66 Q1518.07 1454.1 1514.44 1454.1 M1514.44 1450.39 Q1520.25 1450.39 1523.3 1455 Q1526.38 1459.58 1526.38 1468.33 Q1526.38 1477.06 1523.3 1481.67 Q1520.25 1486.25 1514.44 1486.25 Q1508.63 1486.25 1505.55 1481.67 Q1502.49 1477.06 1502.49 1468.33 Q1502.49 1459.58 1505.55 1455 Q1508.63 1450.39 1514.44 1450.39 Z" fill="#000000" fill-rule="evenodd" fill-opacity="1" /><path clip-path="url(#clip830)" d="M1702.23 1466.95 Q1705.59 1467.66 1707.46 1469.93 Q1709.36 1472.2 1709.36 1475.53 Q1709.36 1480.65 1705.84 1483.45 Q1702.32 1486.25 1695.84 1486.25 Q1693.66 1486.25 1691.35 1485.81 Q1689.06 1485.39 1686.6 1484.54 L1686.6 1480.02 Q1688.55 1481.16 1690.86 1481.74 Q1693.18 1482.32 1695.7 1482.32 Q1700.1 1482.32 1702.39 1480.58 Q1704.71 1478.84 1704.71 1475.53 Q1704.71 1472.48 1702.55 1470.77 Q1700.42 1469.03 1696.6 1469.03 L1692.58 1469.03 L1692.58 1465.19 L1696.79 1465.19 Q1700.24 1465.19 1702.07 1463.82 Q1703.9 1462.43 1703.9 1459.84 Q1703.9 1457.18 1702 1455.77 Q1700.12 1454.33 1696.6 1454.33 Q1694.68 1454.33 1692.48 1454.75 Q1690.28 1455.16 1687.65 1456.04 L1687.65 1451.88 Q1690.31 1451.14 1692.62 1450.77 Q1694.96 1450.39 1697.02 1450.39 Q1702.35 1450.39 1705.45 1452.83 Q1708.55 1455.23 1708.55 1459.35 Q1708.55 1462.22 1706.91 1464.21 Q1705.26 1466.18 1702.23 1466.95 Z" fill="#000000" fill-rule="evenodd" fill-opacity="1" /><path clip-path="url(#clip830)" d="M1718.27 1451.02 L1736.63 1451.02 L1736.63 1454.96 L1722.55 1454.96 L1722.55 1463.43 Q1723.57 1463.08 1724.59 1462.92 Q1725.61 1462.73 1726.63 1462.73 Q1732.41 1462.73 1735.79 1465.9 Q1739.17 1469.08 1739.17 1474.49 Q1739.17 1480.07 1735.7 1483.17 Q1732.23 1486.25 1725.91 1486.25 Q1723.73 1486.25 1721.47 1485.88 Q1719.22 1485.51 1716.81 1484.77 L1716.81 1480.07 Q1718.9 1481.2 1721.12 1481.76 Q1723.34 1482.32 1725.82 1482.32 Q1729.82 1482.32 1732.16 1480.21 Q1734.5 1478.1 1734.5 1474.49 Q1734.5 1470.88 1732.16 1468.77 Q1729.82 1466.67 1725.82 1466.67 Q1723.94 1466.67 1722.07 1467.08 Q1720.22 1467.5 1718.27 1468.38 L1718.27 1451.02 Z" fill="#000000" fill-rule="evenodd" fill-opacity="1" /><path clip-path="url(#clip830)" d="M1914.35 1455.09 L1902.54 1473.54 L1914.35 1473.54 L1914.35 1455.09 M1913.12 1451.02 L1919 1451.02 L1919 1473.54 L1923.93 1473.54 L1923.93 1477.43 L1919 1477.43 L1919 1485.58 L1914.35 1485.58 L1914.35 1477.43 L1898.75 1477.43 L1898.75 1472.92 L1913.12 1451.02 Z" fill="#000000" fill-rule="evenodd" fill-opacity="1" /><path clip-path="url(#clip830)" d="M1941.66 1454.1 Q1938.05 1454.1 1936.22 1457.66 Q1934.42 1461.2 1934.42 1468.33 Q1934.42 1475.44 1936.22 1479.01 Q1938.05 1482.55 1941.66 1482.55 Q1945.3 1482.55 1947.1 1479.01 Q1948.93 1475.44 1948.93 1468.33 Q1948.93 1461.2 1947.1 1457.66 Q1945.3 1454.1 1941.66 1454.1 M1941.66 1450.39 Q1947.47 1450.39 1950.53 1455 Q1953.61 1459.58 1953.61 1468.33 Q1953.61 1477.06 1950.53 1481.67 Q1947.47 1486.25 1941.66 1486.25 Q1935.85 1486.25 1932.78 1481.67 Q1929.72 1477.06 1929.72 1468.33 Q1929.72 1459.58 1932.78 1455 Q1935.85 1450.39 1941.66 1450.39 Z" fill="#000000" fill-rule="evenodd" fill-opacity="1" /><path clip-path="url(#clip830)" d="M2128.14 1455.09 L2116.33 1473.54 L2128.14 1473.54 L2128.14 1455.09 M2126.91 1451.02 L2132.79 1451.02 L2132.79 1473.54 L2137.72 1473.54 L2137.72 1477.43 L2132.79 1477.43 L2132.79 1485.58 L2128.14 1485.58 L2128.14 1477.43 L2112.53 1477.43 L2112.53 1472.92 L2126.91 1451.02 Z" fill="#000000" fill-rule="evenodd" fill-opacity="1" /><path clip-path="url(#clip830)" d="M2145.5 1451.02 L2163.85 1451.02 L2163.85 1454.96 L2149.78 1454.96 L2149.78 1463.43 Q2150.8 1463.08 2151.82 1462.92 Q2152.83 1462.73 2153.85 1462.73 Q2159.64 1462.73 2163.02 1465.9 Q2166.4 1469.08 2166.4 1474.49 Q2166.4 1480.07 2162.93 1483.17 Q2159.46 1486.25 2153.14 1486.25 Q2150.96 1486.25 2148.69 1485.88 Q2146.45 1485.51 2144.04 1484.77 L2144.04 1480.07 Q2146.12 1481.2 2148.34 1481.76 Q2150.57 1482.32 2153.04 1482.32 Q2157.05 1482.32 2159.39 1480.21 Q2161.72 1478.1 2161.72 1474.49 Q2161.72 1470.88 2159.39 1468.77 Q2157.05 1466.67 2153.04 1466.67 Q2151.17 1466.67 2149.29 1467.08 Q2147.44 1467.5 2145.5 1468.38 L2145.5 1451.02 Z" fill="#000000" fill-rule="evenodd" fill-opacity="1" /><path clip-path="url(#clip830)" d="M2327.46 1451.02 L2345.81 1451.02 L2345.81 1454.96 L2331.74 1454.96 L2331.74 1463.43 Q2332.76 1463.08 2333.77 1462.92 Q2334.79 1462.73 2335.81 1462.73 Q2341.6 1462.73 2344.98 1465.9 Q2348.36 1469.08 2348.36 1474.49 Q2348.36 1480.07 2344.89 1483.17 Q2341.41 1486.25 2335.09 1486.25 Q2332.92 1486.25 2330.65 1485.88 Q2328.4 1485.51 2326 1484.77 L2326 1480.07 Q2328.08 1481.2 2330.3 1481.76 Q2332.52 1482.32 2335 1482.32 Q2339.01 1482.32 2341.34 1480.21 Q2343.68 1478.1 2343.68 1474.49 Q2343.68 1470.88 2341.34 1468.77 Q2339.01 1466.67 2335 1466.67 Q2333.13 1466.67 2331.25 1467.08 Q2329.4 1467.5 2327.46 1468.38 L2327.46 1451.02 Z" fill="#000000" fill-rule="evenodd" fill-opacity="1" /><path clip-path="url(#clip830)" d="M2367.57 1454.1 Q2363.96 1454.1 2362.13 1457.66 Q2360.33 1461.2 2360.33 1468.33 Q2360.33 1475.44 2362.13 1479.01 Q2363.96 1482.55 2367.57 1482.55 Q2371.2 1482.55 2373.01 1479.01 Q2374.84 1475.44 2374.84 1468.33 Q2374.84 1461.2 2373.01 1457.66 Q2371.2 1454.1 2367.57 1454.1 M2367.57 1450.39 Q2373.38 1450.39 2376.44 1455 Q2379.52 1459.58 2379.52 1468.33 Q2379.52 1477.06 2376.44 1481.67 Q2373.38 1486.25 2367.57 1486.25 Q2361.76 1486.25 2358.68 1481.67 Q2355.63 1477.06 2355.63 1468.33 Q2355.63 1459.58 2358.68 1455 Q2361.76 1450.39 2367.57 1450.39 Z" fill="#000000" fill-rule="evenodd" fill-opacity="1" /><path clip-path="url(#clip830)" d="M1115.18 1522.08 L1115.18 1528.35 Q1111.52 1526.6 1108.28 1525.74 Q1105.03 1524.88 1102.01 1524.88 Q1096.76 1524.88 1093.89 1526.92 Q1091.06 1528.96 1091.06 1532.71 Q1091.06 1535.87 1092.94 1537.49 Q1094.85 1539.08 1100.13 1540.07 L1104.01 1540.86 Q1111.21 1542.23 1114.61 1545.7 Q1118.05 1549.14 1118.05 1554.93 Q1118.05 1561.84 1113.4 1565.4 Q1108.79 1568.97 1099.84 1568.97 Q1096.47 1568.97 1092.65 1568.2 Q1088.86 1567.44 1084.79 1565.94 L1084.79 1559.32 Q1088.7 1561.52 1092.46 1562.63 Q1096.22 1563.75 1099.84 1563.75 Q1105.35 1563.75 1108.34 1561.58 Q1111.33 1559.42 1111.33 1555.41 Q1111.33 1551.91 1109.17 1549.93 Q1107.04 1547.96 1102.14 1546.97 L1098.22 1546.21 Q1091.03 1544.78 1087.81 1541.72 Q1084.6 1538.67 1084.6 1533.22 Q1084.6 1526.92 1089.02 1523.29 Q1093.48 1519.66 1101.28 1519.66 Q1104.62 1519.66 1108.09 1520.27 Q1111.56 1520.87 1115.18 1522.08 Z" fill="#000000" fill-rule="evenodd" fill-opacity="1" /><path clip-path="url(#clip830)" d="M1127.82 1532.4 L1133.68 1532.4 L1133.68 1568.04 L1127.82 1568.04 L1127.82 1532.4 M1127.82 1518.52 L1133.68 1518.52 L1133.68 1525.93 L1127.82 1525.93 L1127.82 1518.52 Z" fill="#000000" fill-rule="evenodd" fill-opacity="1" /><path clip-path="url(#clip830)" d="M1151.72 1522.27 L1151.72 1532.4 L1163.79 1532.4 L1163.79 1536.95 L1151.72 1536.95 L1151.72 1556.3 Q1151.72 1560.66 1152.9 1561.9 Q1154.11 1563.14 1157.77 1563.14 L1163.79 1563.14 L1163.79 1568.04 L1157.77 1568.04 Q1150.99 1568.04 1148.41 1565.53 Q1145.84 1562.98 1145.84 1556.3 L1145.84 1536.95 L1141.54 1536.95 L1141.54 1532.4 L1145.84 1532.4 L1145.84 1522.27 L1151.72 1522.27 Z" fill="#000000" fill-rule="evenodd" fill-opacity="1" /><path clip-path="url(#clip830)" d="M1201.98 1548.76 L1201.98 1551.62 L1175.05 1551.62 Q1175.44 1557.67 1178.68 1560.85 Q1181.96 1564 1187.79 1564 Q1191.16 1564 1194.31 1563.17 Q1197.49 1562.35 1200.61 1560.69 L1200.61 1566.23 Q1197.46 1567.57 1194.15 1568.27 Q1190.84 1568.97 1187.44 1568.97 Q1178.91 1568.97 1173.91 1564 Q1168.94 1559.04 1168.94 1550.57 Q1168.94 1541.82 1173.65 1536.69 Q1178.4 1531.54 1186.42 1531.54 Q1193.61 1531.54 1197.78 1536.18 Q1201.98 1540.8 1201.98 1548.76 M1196.12 1547.04 Q1196.06 1542.23 1193.42 1539.37 Q1190.81 1536.5 1186.48 1536.5 Q1181.58 1536.5 1178.62 1539.27 Q1175.69 1542.04 1175.25 1547.07 L1196.12 1547.04 Z" fill="#000000" fill-rule="evenodd" fill-opacity="1" /><path clip-path="url(#clip830)" d="M1232.57 1520.52 L1241.23 1520.52 L1262.3 1560.28 L1262.3 1520.52 L1268.53 1520.52 L1268.53 1568.04 L1259.88 1568.04 L1238.81 1528.29 L1238.81 1568.04 L1232.57 1568.04 L1232.57 1520.52 Z" fill="#000000" fill-rule="evenodd" fill-opacity="1" /><path clip-path="url(#clip830)" d="M1280.47 1553.98 L1280.47 1532.4 L1286.33 1532.4 L1286.33 1553.75 Q1286.33 1558.81 1288.3 1561.36 Q1290.27 1563.87 1294.22 1563.87 Q1298.96 1563.87 1301.7 1560.85 Q1304.47 1557.83 1304.47 1552.61 L1304.47 1532.4 L1310.33 1532.4 L1310.33 1568.04 L1304.47 1568.04 L1304.47 1562.57 Q1302.34 1565.82 1299.5 1567.41 Q1296.7 1568.97 1292.98 1568.97 Q1286.84 1568.97 1283.65 1565.15 Q1280.47 1561.33 1280.47 1553.98 M1295.21 1531.54 L1295.21 1531.54 Z" fill="#000000" fill-rule="evenodd" fill-opacity="1" /><path clip-path="url(#clip830)" d="M1350.14 1539.24 Q1352.34 1535.29 1355.39 1533.41 Q1358.45 1531.54 1362.59 1531.54 Q1368.16 1531.54 1371.18 1535.45 Q1374.21 1539.33 1374.21 1546.53 L1374.21 1568.04 L1368.32 1568.04 L1368.32 1546.72 Q1368.32 1541.59 1366.5 1539.11 Q1364.69 1536.63 1360.96 1536.63 Q1356.41 1536.63 1353.77 1539.65 Q1351.13 1542.68 1351.13 1547.9 L1351.13 1568.04 L1345.24 1568.04 L1345.24 1546.72 Q1345.24 1541.56 1343.43 1539.11 Q1341.61 1536.63 1337.83 1536.63 Q1333.34 1536.63 1330.7 1539.68 Q1328.05 1542.71 1328.05 1547.9 L1328.05 1568.04 L1322.17 1568.04 L1322.17 1532.4 L1328.05 1532.4 L1328.05 1537.93 Q1330.06 1534.66 1332.86 1533.1 Q1335.66 1531.54 1339.51 1531.54 Q1343.4 1531.54 1346.1 1533.51 Q1348.84 1535.48 1350.14 1539.24 Z" fill="#000000" fill-rule="evenodd" fill-opacity="1" /><path clip-path="url(#clip830)" d="M1411.48 1550.25 Q1411.48 1543.79 1408.8 1540.13 Q1406.16 1536.44 1401.51 1536.44 Q1396.87 1536.44 1394.19 1540.13 Q1391.55 1543.79 1391.55 1550.25 Q1391.55 1556.71 1394.19 1560.4 Q1396.87 1564.07 1401.51 1564.07 Q1406.16 1564.07 1408.8 1560.4 Q1411.48 1556.71 1411.48 1550.25 M1391.55 1537.81 Q1393.4 1534.62 1396.2 1533.1 Q1399.03 1531.54 1402.95 1531.54 Q1409.44 1531.54 1413.48 1536.69 Q1417.56 1541.85 1417.56 1550.25 Q1417.56 1558.65 1413.48 1563.81 Q1409.44 1568.97 1402.95 1568.97 Q1399.03 1568.97 1396.2 1567.44 Q1393.4 1565.88 1391.55 1562.7 L1391.55 1568.04 L1385.66 1568.04 L1385.66 1518.52 L1391.55 1518.52 L1391.55 1537.81 Z" fill="#000000" fill-rule="evenodd" fill-opacity="1" /><path clip-path="url(#clip830)" d="M1457.76 1548.76 L1457.76 1551.62 L1430.83 1551.62 Q1431.21 1557.67 1434.46 1560.85 Q1437.74 1564 1443.56 1564 Q1446.93 1564 1450.08 1563.17 Q1453.27 1562.35 1456.39 1560.69 L1456.39 1566.23 Q1453.24 1567.57 1449.93 1568.27 Q1446.62 1568.97 1443.21 1568.97 Q1434.68 1568.97 1429.68 1564 Q1424.72 1559.04 1424.72 1550.57 Q1424.72 1541.82 1429.43 1536.69 Q1434.17 1531.54 1442.19 1531.54 Q1449.38 1531.54 1453.55 1536.18 Q1457.76 1540.8 1457.76 1548.76 M1451.9 1547.04 Q1451.84 1542.23 1449.19 1539.37 Q1446.58 1536.5 1442.25 1536.5 Q1437.35 1536.5 1434.39 1539.27 Q1431.47 1542.04 1431.02 1547.07 L1451.9 1547.04 Z" fill="#000000" fill-rule="evenodd" fill-opacity="1" /><path clip-path="url(#clip830)" d="M1488.02 1537.87 Q1487.04 1537.3 1485.86 1537.04 Q1484.71 1536.76 1483.31 1536.76 Q1478.35 1536.76 1475.67 1540 Q1473.03 1543.22 1473.03 1549.27 L1473.03 1568.04 L1467.14 1568.04 L1467.14 1532.4 L1473.03 1532.4 L1473.03 1537.93 Q1474.88 1534.69 1477.84 1533.13 Q1480.8 1531.54 1485.03 1531.54 Q1485.64 1531.54 1486.37 1531.63 Q1487.1 1531.7 1487.99 1531.85 L1488.02 1537.87 Z" fill="#000000" fill-rule="evenodd" fill-opacity="1" /><polyline clip-path="url(#clip832)" style="stroke:#000000; stroke-linecap:round; stroke-linejoin:round; stroke-width:2; stroke-opacity:0.1; fill:none" points="
  219.866,1423.18 2352.76,1423.18 
  "/>
<polyline clip-path="url(#clip832)" style="stroke:#000000; stroke-linecap:round; stroke-linejoin:round; stroke-width:2; stroke-opacity:0.1; fill:none" points="
  219.866,1206.56 2352.76,1206.56 
  "/>
<polyline clip-path="url(#clip832)" style="stroke:#000000; stroke-linecap:round; stroke-linejoin:round; stroke-width:2; stroke-opacity:0.1; fill:none" points="
  219.866,989.944 2352.76,989.944 
  "/>
<polyline clip-path="url(#clip832)" style="stroke:#000000; stroke-linecap:round; stroke-linejoin:round; stroke-width:2; stroke-opacity:0.1; fill:none" points="
  219.866,773.326 2352.76,773.326 
  "/>
<polyline clip-path="url(#clip832)" style="stroke:#000000; stroke-linecap:round; stroke-linejoin:round; stroke-width:2; stroke-opacity:0.1; fill:none" points="
  219.866,556.708 2352.76,556.708 
  "/>
<polyline clip-path="url(#clip832)" style="stroke:#000000; stroke-linecap:round; stroke-linejoin:round; stroke-width:2; stroke-opacity:0.1; fill:none" points="
  219.866,340.09 2352.76,340.09 
  "/>
<polyline clip-path="url(#clip832)" style="stroke:#000000; stroke-linecap:round; stroke-linejoin:round; stroke-width:2; stroke-opacity:0.1; fill:none" points="
  219.866,123.472 2352.76,123.472 
  "/>
<polyline clip-path="url(#clip830)" style="stroke:#000000; stroke-linecap:round; stroke-linejoin:round; stroke-width:4; stroke-opacity:1; fill:none" points="
  219.866,1423.18 219.866,123.472 
  "/>
<polyline clip-path="url(#clip830)" style="stroke:#000000; stroke-linecap:round; stroke-linejoin:round; stroke-width:4; stroke-opacity:1; fill:none" points="
  219.866,1423.18 238.764,1423.18 
  "/>
<polyline clip-path="url(#clip830)" style="stroke:#000000; stroke-linecap:round; stroke-linejoin:round; stroke-width:4; stroke-opacity:1; fill:none" points="
  219.866,1206.56 238.764,1206.56 
  "/>
<polyline clip-path="url(#clip830)" style="stroke:#000000; stroke-linecap:round; stroke-linejoin:round; stroke-width:4; stroke-opacity:1; fill:none" points="
  219.866,989.944 238.764,989.944 
  "/>
<polyline clip-path="url(#clip830)" style="stroke:#000000; stroke-linecap:round; stroke-linejoin:round; stroke-width:4; stroke-opacity:1; fill:none" points="
  219.866,773.326 238.764,773.326 
  "/>
<polyline clip-path="url(#clip830)" style="stroke:#000000; stroke-linecap:round; stroke-linejoin:round; stroke-width:4; stroke-opacity:1; fill:none" points="
  219.866,556.708 238.764,556.708 
  "/>
<polyline clip-path="url(#clip830)" style="stroke:#000000; stroke-linecap:round; stroke-linejoin:round; stroke-width:4; stroke-opacity:1; fill:none" points="
  219.866,340.09 238.764,340.09 
  "/>
<polyline clip-path="url(#clip830)" style="stroke:#000000; stroke-linecap:round; stroke-linejoin:round; stroke-width:4; stroke-opacity:1; fill:none" points="
  219.866,123.472 238.764,123.472 
  "/>
<path clip-path="url(#clip830)" d="M126.691 1408.98 Q123.08 1408.98 121.251 1412.54 Q119.445 1416.08 119.445 1423.21 Q119.445 1430.32 121.251 1433.89 Q123.08 1437.43 126.691 1437.43 Q130.325 1437.43 132.13 1433.89 Q133.959 1430.32 133.959 1423.21 Q133.959 1416.08 132.13 1412.54 Q130.325 1408.98 126.691 1408.98 M126.691 1405.27 Q132.501 1405.27 135.556 1409.88 Q138.635 1414.46 138.635 1423.21 Q138.635 1431.94 135.556 1436.55 Q132.501 1441.13 126.691 1441.13 Q120.88 1441.13 117.802 1436.55 Q114.746 1431.94 114.746 1423.21 Q114.746 1414.46 117.802 1409.88 Q120.88 1405.27 126.691 1405.27 Z" fill="#000000" fill-rule="evenodd" fill-opacity="1" /><path clip-path="url(#clip830)" d="M146.853 1434.58 L151.737 1434.58 L151.737 1440.46 L146.853 1440.46 L146.853 1434.58 Z" fill="#000000" fill-rule="evenodd" fill-opacity="1" /><path clip-path="url(#clip830)" d="M171.922 1408.98 Q168.311 1408.98 166.482 1412.54 Q164.677 1416.08 164.677 1423.21 Q164.677 1430.32 166.482 1433.89 Q168.311 1437.43 171.922 1437.43 Q175.556 1437.43 177.362 1433.89 Q179.19 1430.32 179.19 1423.21 Q179.19 1416.08 177.362 1412.54 Q175.556 1408.98 171.922 1408.98 M171.922 1405.27 Q177.732 1405.27 180.788 1409.88 Q183.866 1414.46 183.866 1423.21 Q183.866 1431.94 180.788 1436.55 Q177.732 1441.13 171.922 1441.13 Q166.112 1441.13 163.033 1436.55 Q159.978 1431.94 159.978 1423.21 Q159.978 1414.46 163.033 1409.88 Q166.112 1405.27 171.922 1405.27 Z" fill="#000000" fill-rule="evenodd" fill-opacity="1" /><path clip-path="url(#clip830)" d="M127.917 1192.36 Q124.306 1192.36 122.478 1195.93 Q120.672 1199.47 120.672 1206.6 Q120.672 1213.7 122.478 1217.27 Q124.306 1220.81 127.917 1220.81 Q131.552 1220.81 133.357 1217.27 Q135.186 1213.7 135.186 1206.6 Q135.186 1199.47 133.357 1195.93 Q131.552 1192.36 127.917 1192.36 M127.917 1188.66 Q133.728 1188.66 136.783 1193.26 Q139.862 1197.85 139.862 1206.6 Q139.862 1215.32 136.783 1219.93 Q133.728 1224.51 127.917 1224.51 Q122.107 1224.51 119.029 1219.93 Q115.973 1215.32 115.973 1206.6 Q115.973 1197.85 119.029 1193.26 Q122.107 1188.66 127.917 1188.66 Z" fill="#000000" fill-rule="evenodd" fill-opacity="1" /><path clip-path="url(#clip830)" d="M148.079 1217.96 L152.964 1217.96 L152.964 1223.84 L148.079 1223.84 L148.079 1217.96 Z" fill="#000000" fill-rule="evenodd" fill-opacity="1" /><path clip-path="url(#clip830)" d="M163.959 1219.91 L171.598 1219.91 L171.598 1193.54 L163.288 1195.21 L163.288 1190.95 L171.552 1189.28 L176.227 1189.28 L176.227 1219.91 L183.866 1219.91 L183.866 1223.84 L163.959 1223.84 L163.959 1219.91 Z" fill="#000000" fill-rule="evenodd" fill-opacity="1" /><path clip-path="url(#clip830)" d="M128.288 975.743 Q124.677 975.743 122.848 979.307 Q121.043 982.849 121.043 989.979 Q121.043 997.085 122.848 1000.65 Q124.677 1004.19 128.288 1004.19 Q131.922 1004.19 133.728 1000.65 Q135.556 997.085 135.556 989.979 Q135.556 982.849 133.728 979.307 Q131.922 975.743 128.288 975.743 M128.288 972.039 Q134.098 972.039 137.154 976.645 Q140.232 981.229 140.232 989.979 Q140.232 998.705 137.154 1003.31 Q134.098 1007.9 128.288 1007.9 Q122.478 1007.9 119.399 1003.31 Q116.343 998.705 116.343 989.979 Q116.343 981.229 119.399 976.645 Q122.478 972.039 128.288 972.039 Z" fill="#000000" fill-rule="evenodd" fill-opacity="1" /><path clip-path="url(#clip830)" d="M148.45 1001.34 L153.334 1001.34 L153.334 1007.22 L148.45 1007.22 L148.45 1001.34 Z" fill="#000000" fill-rule="evenodd" fill-opacity="1" /><path clip-path="url(#clip830)" d="M167.547 1003.29 L183.866 1003.29 L183.866 1007.22 L161.922 1007.22 L161.922 1003.29 Q164.584 1000.53 169.167 995.905 Q173.774 991.252 174.954 989.909 Q177.2 987.386 178.079 985.65 Q178.982 983.891 178.982 982.201 Q178.982 979.446 177.038 977.71 Q175.116 975.974 172.014 975.974 Q169.815 975.974 167.362 976.738 Q164.931 977.502 162.153 979.053 L162.153 974.331 Q164.977 973.196 167.431 972.618 Q169.885 972.039 171.922 972.039 Q177.292 972.039 180.487 974.724 Q183.681 977.409 183.681 981.9 Q183.681 984.03 182.871 985.951 Q182.084 987.849 179.977 990.442 Q179.399 991.113 176.297 994.33 Q173.195 997.525 167.547 1003.29 Z" fill="#000000" fill-rule="evenodd" fill-opacity="1" /><path clip-path="url(#clip830)" d="M127.339 759.125 Q123.728 759.125 121.899 762.689 Q120.093 766.231 120.093 773.361 Q120.093 780.467 121.899 784.032 Q123.728 787.574 127.339 787.574 Q130.973 787.574 132.779 784.032 Q134.607 780.467 134.607 773.361 Q134.607 766.231 132.779 762.689 Q130.973 759.125 127.339 759.125 M127.339 755.421 Q133.149 755.421 136.204 760.027 Q139.283 764.611 139.283 773.361 Q139.283 782.088 136.204 786.694 Q133.149 791.277 127.339 791.277 Q121.529 791.277 118.45 786.694 Q115.394 782.088 115.394 773.361 Q115.394 764.611 118.45 760.027 Q121.529 755.421 127.339 755.421 Z" fill="#000000" fill-rule="evenodd" fill-opacity="1" /><path clip-path="url(#clip830)" d="M147.501 784.726 L152.385 784.726 L152.385 790.606 L147.501 790.606 L147.501 784.726 Z" fill="#000000" fill-rule="evenodd" fill-opacity="1" /><path clip-path="url(#clip830)" d="M176.737 771.972 Q180.093 772.689 181.968 774.958 Q183.866 777.226 183.866 780.56 Q183.866 785.675 180.348 788.476 Q176.829 791.277 170.348 791.277 Q168.172 791.277 165.857 790.837 Q163.565 790.421 161.112 789.564 L161.112 785.05 Q163.056 786.185 165.371 786.763 Q167.686 787.342 170.209 787.342 Q174.607 787.342 176.899 785.606 Q179.214 783.87 179.214 780.56 Q179.214 777.504 177.061 775.791 Q174.931 774.055 171.112 774.055 L167.084 774.055 L167.084 770.213 L171.297 770.213 Q174.746 770.213 176.575 768.847 Q178.403 767.458 178.403 764.865 Q178.403 762.203 176.505 760.791 Q174.63 759.356 171.112 759.356 Q169.19 759.356 166.991 759.773 Q164.792 760.189 162.153 761.069 L162.153 756.902 Q164.815 756.162 167.13 755.791 Q169.468 755.421 171.528 755.421 Q176.852 755.421 179.954 757.852 Q183.056 760.259 183.056 764.379 Q183.056 767.25 181.413 769.24 Q179.769 771.208 176.737 771.972 Z" fill="#000000" fill-rule="evenodd" fill-opacity="1" /><path clip-path="url(#clip830)" d="M126.205 542.507 Q122.593 542.507 120.765 546.072 Q118.959 549.613 118.959 556.743 Q118.959 563.849 120.765 567.414 Q122.593 570.956 126.205 570.956 Q129.839 570.956 131.644 567.414 Q133.473 563.849 133.473 556.743 Q133.473 549.613 131.644 546.072 Q129.839 542.507 126.205 542.507 M126.205 538.803 Q132.015 538.803 135.07 543.409 Q138.149 547.993 138.149 556.743 Q138.149 565.47 135.07 570.076 Q132.015 574.659 126.205 574.659 Q120.394 574.659 117.316 570.076 Q114.26 565.47 114.26 556.743 Q114.26 547.993 117.316 543.409 Q120.394 538.803 126.205 538.803 Z" fill="#000000" fill-rule="evenodd" fill-opacity="1" /><path clip-path="url(#clip830)" d="M146.366 568.108 L151.251 568.108 L151.251 573.988 L146.366 573.988 L146.366 568.108 Z" fill="#000000" fill-rule="evenodd" fill-opacity="1" /><path clip-path="url(#clip830)" d="M174.283 543.502 L162.477 561.951 L174.283 561.951 L174.283 543.502 M173.056 539.428 L178.936 539.428 L178.936 561.951 L183.866 561.951 L183.866 565.84 L178.936 565.84 L178.936 573.988 L174.283 573.988 L174.283 565.84 L158.681 565.84 L158.681 561.326 L173.056 539.428 Z" fill="#000000" fill-rule="evenodd" fill-opacity="1" /><path clip-path="url(#clip830)" d="M127.686 325.889 Q124.075 325.889 122.246 329.454 Q120.441 332.995 120.441 340.125 Q120.441 347.231 122.246 350.796 Q124.075 354.338 127.686 354.338 Q131.32 354.338 133.126 350.796 Q134.954 347.231 134.954 340.125 Q134.954 332.995 133.126 329.454 Q131.32 325.889 127.686 325.889 M127.686 322.185 Q133.496 322.185 136.552 326.792 Q139.63 331.375 139.63 340.125 Q139.63 348.852 136.552 353.458 Q133.496 358.041 127.686 358.041 Q121.876 358.041 118.797 353.458 Q115.742 348.852 115.742 340.125 Q115.742 331.375 118.797 326.792 Q121.876 322.185 127.686 322.185 Z" fill="#000000" fill-rule="evenodd" fill-opacity="1" /><path clip-path="url(#clip830)" d="M147.848 351.49 L152.732 351.49 L152.732 357.37 L147.848 357.37 L147.848 351.49 Z" fill="#000000" fill-rule="evenodd" fill-opacity="1" /><path clip-path="url(#clip830)" d="M162.964 322.81 L181.32 322.81 L181.32 326.745 L167.246 326.745 L167.246 335.217 Q168.264 334.87 169.283 334.708 Q170.302 334.523 171.32 334.523 Q177.107 334.523 180.487 337.694 Q183.866 340.866 183.866 346.282 Q183.866 351.861 180.394 354.963 Q176.922 358.041 170.602 358.041 Q168.427 358.041 166.158 357.671 Q163.913 357.301 161.505 356.56 L161.505 351.861 Q163.589 352.995 165.811 353.551 Q168.033 354.106 170.51 354.106 Q174.514 354.106 176.852 352 Q179.19 349.893 179.19 346.282 Q179.19 342.671 176.852 340.565 Q174.514 338.458 170.51 338.458 Q168.635 338.458 166.76 338.875 Q164.908 339.291 162.964 340.171 L162.964 322.81 Z" fill="#000000" fill-rule="evenodd" fill-opacity="1" /><path clip-path="url(#clip830)" d="M126.529 109.271 Q122.918 109.271 121.089 112.836 Q119.283 116.377 119.283 123.507 Q119.283 130.613 121.089 134.178 Q122.918 137.72 126.529 137.72 Q130.163 137.72 131.968 134.178 Q133.797 130.613 133.797 123.507 Q133.797 116.377 131.968 112.836 Q130.163 109.271 126.529 109.271 M126.529 105.567 Q132.339 105.567 135.394 110.174 Q138.473 114.757 138.473 123.507 Q138.473 132.234 135.394 136.84 Q132.339 141.423 126.529 141.423 Q120.718 141.423 117.64 136.84 Q114.584 132.234 114.584 123.507 Q114.584 114.757 117.64 110.174 Q120.718 105.567 126.529 105.567 Z" fill="#000000" fill-rule="evenodd" fill-opacity="1" /><path clip-path="url(#clip830)" d="M146.691 134.873 L151.575 134.873 L151.575 140.752 L146.691 140.752 L146.691 134.873 Z" fill="#000000" fill-rule="evenodd" fill-opacity="1" /><path clip-path="url(#clip830)" d="M172.339 121.609 Q169.19 121.609 167.339 123.761 Q165.51 125.914 165.51 129.664 Q165.51 133.391 167.339 135.567 Q169.19 137.72 172.339 137.72 Q175.487 137.72 177.315 135.567 Q179.167 133.391 179.167 129.664 Q179.167 125.914 177.315 123.761 Q175.487 121.609 172.339 121.609 M181.621 106.956 L181.621 111.215 Q179.862 110.382 178.056 109.942 Q176.274 109.502 174.514 109.502 Q169.885 109.502 167.431 112.627 Q165.001 115.752 164.653 122.072 Q166.019 120.058 168.079 118.993 Q170.139 117.905 172.616 117.905 Q177.825 117.905 180.834 121.076 Q183.866 124.224 183.866 129.664 Q183.866 134.988 180.718 138.206 Q177.57 141.423 172.339 141.423 Q166.343 141.423 163.172 136.84 Q160.001 132.234 160.001 123.507 Q160.001 115.312 163.89 110.451 Q167.778 105.567 174.329 105.567 Q176.089 105.567 177.871 105.914 Q179.676 106.262 181.621 106.956 Z" fill="#000000" fill-rule="evenodd" fill-opacity="1" /><path clip-path="url(#clip830)" d="M16.4842 987.834 L16.4842 981.405 L64.0042 981.405 L64.0042 987.834 L16.4842 987.834 Z" fill="#000000" fill-rule="evenodd" fill-opacity="1" /><path clip-path="url(#clip830)" d="M42.4881 939.232 L64.0042 939.232 L64.0042 945.089 L42.679 945.089 Q37.6183 945.089 35.1038 947.062 Q32.5894 949.035 32.5894 952.982 Q32.5894 957.725 35.6131 960.462 Q38.6368 963.199 43.8567 963.199 L64.0042 963.199 L64.0042 969.087 L28.3562 969.087 L28.3562 963.199 L33.8944 963.199 Q30.6797 961.098 29.0883 958.266 Q27.4968 955.401 27.4968 951.677 Q27.4968 945.534 31.3163 942.383 Q35.1038 939.232 42.4881 939.232 Z" fill="#000000" fill-rule="evenodd" fill-opacity="1" /><path clip-path="url(#clip830)" d="M42.4881 897.919 L64.0042 897.919 L64.0042 903.775 L42.679 903.775 Q37.6183 903.775 35.1038 905.749 Q32.5894 907.722 32.5894 911.669 Q32.5894 916.411 35.6131 919.148 Q38.6368 921.886 43.8567 921.886 L64.0042 921.886 L64.0042 927.774 L28.3562 927.774 L28.3562 921.886 L33.8944 921.886 Q30.6797 919.785 29.0883 916.952 Q27.4968 914.088 27.4968 910.364 Q27.4968 904.221 31.3163 901.07 Q35.1038 897.919 42.4881 897.919 Z" fill="#000000" fill-rule="evenodd" fill-opacity="1" /><path clip-path="url(#clip830)" d="M44.7161 855.746 L47.5806 855.746 L47.5806 882.673 Q53.6281 882.291 56.8109 879.044 Q59.9619 875.766 59.9619 869.941 Q59.9619 866.568 59.1344 863.417 Q58.3069 860.234 56.6518 857.115 L62.1899 857.115 Q63.5267 860.266 64.227 863.576 Q64.9272 866.886 64.9272 870.292 Q64.9272 878.822 59.9619 883.819 Q54.9967 888.784 46.5303 888.784 Q37.7774 888.784 32.6531 884.073 Q27.4968 879.331 27.4968 871.31 Q27.4968 864.117 32.1438 859.947 Q36.7589 855.746 44.7161 855.746 M42.9973 861.602 Q38.1912 861.666 35.3266 864.308 Q32.4621 866.918 32.4621 871.246 Q32.4621 876.148 35.2312 879.108 Q38.0002 882.036 43.0292 882.482 L42.9973 861.602 Z" fill="#000000" fill-rule="evenodd" fill-opacity="1" /><path clip-path="url(#clip830)" d="M33.8307 825.477 Q33.2578 826.464 33.0032 827.641 Q32.7167 828.787 32.7167 830.188 Q32.7167 835.153 35.9632 837.827 Q39.1779 840.468 45.2253 840.468 L64.0042 840.468 L64.0042 846.357 L28.3562 846.357 L28.3562 840.468 L33.8944 840.468 Q30.6479 838.622 29.0883 835.662 Q27.4968 832.702 27.4968 828.469 Q27.4968 827.864 27.5923 827.132 Q27.656 826.4 27.8151 825.509 L33.8307 825.477 Z" fill="#000000" fill-rule="evenodd" fill-opacity="1" /><path clip-path="url(#clip830)" d="M21.7677 791.93 L39.6235 791.93 L39.6235 783.845 Q39.6235 779.357 37.3 776.907 Q34.9765 774.456 30.6797 774.456 Q26.4147 774.456 24.0912 776.907 Q21.7677 779.357 21.7677 783.845 L21.7677 791.93 M16.4842 798.359 L16.4842 783.845 Q16.4842 775.856 20.1126 771.782 Q23.7092 767.676 30.6797 767.676 Q37.7138 767.676 41.3104 771.782 Q44.907 775.856 44.907 783.845 L44.907 791.93 L64.0042 791.93 L64.0042 798.359 L16.4842 798.359 Z" fill="#000000" fill-rule="evenodd" fill-opacity="1" /><path clip-path="url(#clip830)" d="M33.8307 739.795 Q33.2578 740.781 33.0032 741.959 Q32.7167 743.105 32.7167 744.505 Q32.7167 749.47 35.9632 752.144 Q39.1779 754.786 45.2253 754.786 L64.0042 754.786 L64.0042 760.674 L28.3562 760.674 L28.3562 754.786 L33.8944 754.786 Q30.6479 752.94 29.0883 749.98 Q27.4968 747.02 27.4968 742.787 Q27.4968 742.182 27.5923 741.45 Q27.656 740.718 27.8151 739.826 L33.8307 739.795 Z" fill="#000000" fill-rule="evenodd" fill-opacity="1" /><path clip-path="url(#clip830)" d="M32.4621 721.27 Q32.4621 725.981 36.1542 728.718 Q39.8145 731.456 46.212 731.456 Q52.6095 731.456 56.3017 728.75 Q59.9619 726.013 59.9619 721.27 Q59.9619 716.592 56.2698 713.854 Q52.5777 711.117 46.212 711.117 Q39.8781 711.117 36.186 713.854 Q32.4621 716.592 32.4621 721.27 M27.4968 721.27 Q27.4968 713.632 32.4621 709.271 Q37.4273 704.911 46.212 704.911 Q54.9649 704.911 59.9619 709.271 Q64.9272 713.632 64.9272 721.27 Q64.9272 728.941 59.9619 733.302 Q54.9649 737.63 46.212 737.63 Q37.4273 737.63 32.4621 733.302 Q27.4968 728.941 27.4968 721.27 Z" fill="#000000" fill-rule="evenodd" fill-opacity="1" /><path clip-path="url(#clip830)" d="M33.7671 671.745 L14.479 671.745 L14.479 665.889 L64.0042 665.889 L64.0042 671.745 L58.657 671.745 Q61.8398 673.591 63.3994 676.424 Q64.9272 679.225 64.9272 683.172 Q64.9272 689.633 59.771 693.707 Q54.6147 697.749 46.212 697.749 Q37.8093 697.749 32.6531 693.707 Q27.4968 689.633 27.4968 683.172 Q27.4968 679.225 29.0564 676.424 Q30.5842 673.591 33.7671 671.745 M46.212 691.702 Q52.6732 691.702 56.3653 689.06 Q60.0256 686.386 60.0256 681.739 Q60.0256 677.092 56.3653 674.419 Q52.6732 671.745 46.212 671.745 Q39.7508 671.745 36.0905 674.419 Q32.3984 677.092 32.3984 681.739 Q32.3984 686.386 36.0905 689.06 Q39.7508 691.702 46.212 691.702 Z" fill="#000000" fill-rule="evenodd" fill-opacity="1" /><path clip-path="url(#clip830)" d="M49.9359 654.43 L28.3562 654.43 L28.3562 648.574 L49.7131 648.574 Q54.7739 648.574 57.3202 646.601 Q59.8346 644.627 59.8346 640.681 Q59.8346 635.938 56.8109 633.201 Q53.7872 630.432 48.5673 630.432 L28.3562 630.432 L28.3562 624.575 L64.0042 624.575 L64.0042 630.432 L58.5296 630.432 Q61.7762 632.564 63.3676 635.397 Q64.9272 638.198 64.9272 641.922 Q64.9272 648.065 61.1078 651.248 Q57.2883 654.43 49.9359 654.43 M27.4968 639.694 L27.4968 639.694 Z" fill="#000000" fill-rule="evenodd" fill-opacity="1" /><path clip-path="url(#clip830)" d="M29.7248 586.859 L35.1993 586.859 Q33.8307 589.341 33.1623 591.856 Q32.4621 594.338 32.4621 596.885 Q32.4621 602.582 36.0905 605.733 Q39.6872 608.884 46.212 608.884 Q52.7369 608.884 56.3653 605.733 Q59.9619 602.582 59.9619 596.885 Q59.9619 594.338 59.2935 591.856 Q58.5933 589.341 57.2247 586.859 L62.6355 586.859 Q63.7814 589.309 64.3543 591.951 Q64.9272 594.561 64.9272 597.521 Q64.9272 605.574 59.8664 610.316 Q54.8057 615.059 46.212 615.059 Q37.491 615.059 32.4939 610.284 Q27.4968 605.478 27.4968 597.139 Q27.4968 594.434 28.0697 591.856 Q28.6108 589.277 29.7248 586.859 Z" fill="#000000" fill-rule="evenodd" fill-opacity="1" /><path clip-path="url(#clip830)" d="M18.2347 570.881 L28.3562 570.881 L28.3562 558.818 L32.9077 558.818 L32.9077 570.881 L52.2594 570.881 Q56.6199 570.881 57.8613 569.703 Q59.1026 568.493 59.1026 564.833 L59.1026 558.818 L64.0042 558.818 L64.0042 564.833 Q64.0042 571.613 61.4897 574.191 Q58.9434 576.769 52.2594 576.769 L32.9077 576.769 L32.9077 581.066 L28.3562 581.066 L28.3562 576.769 L18.2347 576.769 L18.2347 570.881 Z" fill="#000000" fill-rule="evenodd" fill-opacity="1" /><path clip-path="url(#clip830)" d="M1155.89 17.6457 Q1146.98 17.6457 1141.71 24.2892 Q1136.49 30.9327 1136.49 42.3968 Q1136.49 53.8203 1141.71 60.4638 Q1146.98 67.1073 1155.89 67.1073 Q1164.8 67.1073 1169.99 60.4638 Q1175.22 53.8203 1175.22 42.3968 Q1175.22 30.9327 1169.99 24.2892 Q1164.8 17.6457 1155.89 17.6457 M1155.89 11.0023 Q1168.61 11.0023 1176.23 19.5497 Q1183.84 28.0566 1183.84 42.3968 Q1183.84 56.6965 1176.23 65.2439 Q1168.61 73.7508 1155.89 73.7508 Q1143.13 73.7508 1135.48 65.2439 Q1127.86 56.737 1127.86 42.3968 Q1127.86 28.0566 1135.48 19.5497 Q1143.13 11.0023 1155.89 11.0023 Z" fill="#000000" fill-rule="evenodd" fill-opacity="1" /><path clip-path="url(#clip830)" d="M1190.97 27.2059 L1198.87 27.2059 L1213.05 65.2844 L1227.23 27.2059 L1235.13 27.2059 L1218.11 72.576 L1207.99 72.576 L1190.97 27.2059 Z" fill="#000000" fill-rule="evenodd" fill-opacity="1" /><path clip-path="url(#clip830)" d="M1284.22 48.0275 L1284.22 51.6733 L1249.95 51.6733 Q1250.44 59.3701 1254.57 63.421 Q1258.74 67.4314 1266.16 67.4314 Q1270.45 67.4314 1274.46 66.3781 Q1278.51 65.3249 1282.48 63.2184 L1282.48 70.267 Q1278.47 71.9684 1274.26 72.8596 Q1270.05 73.7508 1265.71 73.7508 Q1254.86 73.7508 1248.5 67.4314 Q1242.18 61.1119 1242.18 50.3365 Q1242.18 39.1965 1248.17 32.6746 Q1254.21 26.1121 1264.42 26.1121 Q1273.57 26.1121 1278.88 32.0264 Q1284.22 37.9003 1284.22 48.0275 M1276.77 45.84 Q1276.69 39.7232 1273.33 36.0774 Q1270.01 32.4315 1264.5 32.4315 Q1258.26 32.4315 1254.49 35.9558 Q1250.76 39.4801 1250.2 45.8805 L1276.77 45.84 Z" fill="#000000" fill-rule="evenodd" fill-opacity="1" /><path clip-path="url(#clip830)" d="M1322.75 34.1734 Q1321.49 33.4443 1319.99 33.1202 Q1318.54 32.7556 1316.75 32.7556 Q1310.43 32.7556 1307.03 36.8875 Q1303.67 40.9789 1303.67 48.6757 L1303.67 72.576 L1296.18 72.576 L1296.18 27.2059 L1303.67 27.2059 L1303.67 34.2544 Q1306.02 30.1225 1309.79 28.1376 Q1313.55 26.1121 1318.94 26.1121 Q1319.71 26.1121 1320.64 26.2337 Q1321.57 26.3147 1322.71 26.5172 L1322.75 34.1734 Z" fill="#000000" fill-rule="evenodd" fill-opacity="1" /><path clip-path="url(#clip830)" d="M1330.57 9.54393 L1338.02 9.54393 L1338.02 72.576 L1330.57 72.576 L1330.57 9.54393 Z" fill="#000000" fill-rule="evenodd" fill-opacity="1" /><path clip-path="url(#clip830)" d="M1374.24 49.7694 Q1365.2 49.7694 1361.72 51.8354 Q1358.23 53.9013 1358.23 58.8839 Q1358.23 62.8538 1360.83 65.2034 Q1363.46 67.5124 1367.96 67.5124 Q1374.15 67.5124 1377.88 63.1374 Q1381.65 58.7219 1381.65 51.4303 L1381.65 49.7694 L1374.24 49.7694 M1389.1 46.6907 L1389.1 72.576 L1381.65 72.576 L1381.65 65.6895 Q1379.1 69.8214 1375.29 71.8063 Q1371.48 73.7508 1365.97 73.7508 Q1359 73.7508 1354.87 69.8619 Q1350.78 65.9325 1350.78 59.3701 Q1350.78 51.7138 1355.89 47.825 Q1361.03 43.9361 1371.2 43.9361 L1381.65 43.9361 L1381.65 43.2069 Q1381.65 38.0623 1378.25 35.2672 Q1374.88 32.4315 1368.77 32.4315 Q1364.88 32.4315 1361.19 33.3632 Q1357.51 34.295 1354.1 36.1584 L1354.1 29.2718 Q1358.19 27.692 1362.04 26.9223 Q1365.89 26.1121 1369.54 26.1121 Q1379.38 26.1121 1384.24 31.2163 Q1389.1 36.3204 1389.1 46.6907 Z" fill="#000000" fill-rule="evenodd" fill-opacity="1" /><path clip-path="url(#clip830)" d="M1411.67 65.7705 L1411.67 89.8329 L1404.17 89.8329 L1404.17 27.2059 L1411.67 27.2059 L1411.67 34.0924 Q1414.02 30.0415 1417.58 28.0971 Q1421.19 26.1121 1426.17 26.1121 Q1434.43 26.1121 1439.58 32.6746 Q1444.76 39.2371 1444.76 49.9314 Q1444.76 60.6258 1439.58 67.1883 Q1434.43 73.7508 1426.17 73.7508 Q1421.19 73.7508 1417.58 71.8063 Q1414.02 69.8214 1411.67 65.7705 M1437.02 49.9314 Q1437.02 41.7081 1433.62 37.0496 Q1430.26 32.3505 1424.35 32.3505 Q1418.43 32.3505 1415.03 37.0496 Q1411.67 41.7081 1411.67 49.9314 Q1411.67 58.1548 1415.03 62.8538 Q1418.43 67.5124 1424.35 67.5124 Q1430.26 67.5124 1433.62 62.8538 Q1437.02 58.1548 1437.02 49.9314 Z" fill="#000000" fill-rule="evenodd" fill-opacity="1" /><polyline clip-path="url(#clip832)" style="stroke:#000000; stroke-linecap:round; stroke-linejoin:round; stroke-width:4; stroke-opacity:1; fill:none" points="
  262.524,399.283 262.524,399.283 
  "/>
<polyline clip-path="url(#clip832)" style="stroke:#000000; stroke-linecap:round; stroke-linejoin:round; stroke-width:4; stroke-opacity:1; fill:none" points="
  305.182,409.902 305.182,409.902 
  "/>
<polyline clip-path="url(#clip832)" style="stroke:#000000; stroke-linecap:round; stroke-linejoin:round; stroke-width:4; stroke-opacity:1; fill:none" points="
  347.84,411.734 347.84,411.71 
  "/>
<polyline clip-path="url(#clip832)" style="stroke:#000000; stroke-linecap:round; stroke-linejoin:round; stroke-width:4; stroke-opacity:1; fill:none" points="
  390.497,870.597 390.497,867.48 
  "/>
<polyline clip-path="url(#clip832)" style="stroke:#000000; stroke-linecap:round; stroke-linejoin:round; stroke-width:4; stroke-opacity:1; fill:none" points="
  433.155,529.571 433.155,480.534 
  "/>
<polyline clip-path="url(#clip832)" style="stroke:#000000; stroke-linecap:round; stroke-linejoin:round; stroke-width:4; stroke-opacity:1; fill:none" points="
  475.813,456.172 475.813,406.888 
  "/>
<polyline clip-path="url(#clip832)" style="stroke:#000000; stroke-linecap:round; stroke-linejoin:round; stroke-width:4; stroke-opacity:1; fill:none" points="
  518.471,423.538 518.471,416.053 
  "/>
<polyline clip-path="url(#clip832)" style="stroke:#000000; stroke-linecap:round; stroke-linejoin:round; stroke-width:4; stroke-opacity:1; fill:none" points="
  561.129,418.62 561.129,418.401 
  "/>
<polyline clip-path="url(#clip832)" style="stroke:#000000; stroke-linecap:round; stroke-linejoin:round; stroke-width:4; stroke-opacity:1; fill:none" points="
  603.786,417.832 603.786,416.716 
  "/>
<polyline clip-path="url(#clip832)" style="stroke:#000000; stroke-linecap:round; stroke-linejoin:round; stroke-width:4; stroke-opacity:1; fill:none" points="
  646.444,416.429 646.444,415.097 
  "/>
<polyline clip-path="url(#clip832)" style="stroke:#000000; stroke-linecap:round; stroke-linejoin:round; stroke-width:4; stroke-opacity:1; fill:none" points="
  689.102,406.453 689.102,405.656 
  "/>
<polyline clip-path="url(#clip832)" style="stroke:#000000; stroke-linecap:round; stroke-linejoin:round; stroke-width:4; stroke-opacity:1; fill:none" points="
  731.76,412.457 731.76,410.417 
  "/>
<polyline clip-path="url(#clip832)" style="stroke:#000000; stroke-linecap:round; stroke-linejoin:round; stroke-width:4; stroke-opacity:1; fill:none" points="
  774.418,444.083 774.418,424.265 
  "/>
<polyline clip-path="url(#clip832)" style="stroke:#000000; stroke-linecap:round; stroke-linejoin:round; stroke-width:4; stroke-opacity:1; fill:none" points="
  817.075,409.564 817.075,403.814 
  "/>
<polyline clip-path="url(#clip832)" style="stroke:#000000; stroke-linecap:round; stroke-linejoin:round; stroke-width:4; stroke-opacity:1; fill:none" points="
  859.733,1112.02 859.733,1103.98 
  "/>
<polyline clip-path="url(#clip832)" style="stroke:#000000; stroke-linecap:round; stroke-linejoin:round; stroke-width:4; stroke-opacity:1; fill:none" points="
  902.391,960.935 902.391,954.563 
  "/>
<polyline clip-path="url(#clip832)" style="stroke:#000000; stroke-linecap:round; stroke-linejoin:round; stroke-width:4; stroke-opacity:1; fill:none" points="
  945.049,523.413 945.049,502.835 
  "/>
<polyline clip-path="url(#clip832)" style="stroke:#000000; stroke-linecap:round; stroke-linejoin:round; stroke-width:4; stroke-opacity:1; fill:none" points="
  987.707,617.767 987.707,587.049 
  "/>
<polyline clip-path="url(#clip832)" style="stroke:#000000; stroke-linecap:round; stroke-linejoin:round; stroke-width:4; stroke-opacity:1; fill:none" points="
  1030.36,434.4 1030.36,428.092 
  "/>
<polyline clip-path="url(#clip832)" style="stroke:#000000; stroke-linecap:round; stroke-linejoin:round; stroke-width:4; stroke-opacity:1; fill:none" points="
  1073.02,412.204 1073.02,402.985 
  "/>
<polyline clip-path="url(#clip832)" style="stroke:#000000; stroke-linecap:round; stroke-linejoin:round; stroke-width:4; stroke-opacity:1; fill:none" points="
  1115.68,445.821 1115.68,427.533 
  "/>
<polyline clip-path="url(#clip832)" style="stroke:#000000; stroke-linecap:round; stroke-linejoin:round; stroke-width:4; stroke-opacity:1; fill:none" points="
  1158.34,483.109 1158.34,452.437 
  "/>
<polyline clip-path="url(#clip832)" style="stroke:#000000; stroke-linecap:round; stroke-linejoin:round; stroke-width:4; stroke-opacity:1; fill:none" points="
  1201,865.859 1201,835.95 
  "/>
<polyline clip-path="url(#clip832)" style="stroke:#000000; stroke-linecap:round; stroke-linejoin:round; stroke-width:4; stroke-opacity:1; fill:none" points="
  1243.65,751.837 1243.65,725.612 
  "/>
<polyline clip-path="url(#clip832)" style="stroke:#000000; stroke-linecap:round; stroke-linejoin:round; stroke-width:4; stroke-opacity:1; fill:none" points="
  1286.31,824.107 1286.31,809.244 
  "/>
<polyline clip-path="url(#clip832)" style="stroke:#000000; stroke-linecap:round; stroke-linejoin:round; stroke-width:4; stroke-opacity:1; fill:none" points="
  1328.97,1135.43 1328.97,1123.63 
  "/>
<polyline clip-path="url(#clip832)" style="stroke:#000000; stroke-linecap:round; stroke-linejoin:round; stroke-width:4; stroke-opacity:1; fill:none" points="
  1371.63,647.03 1371.63,639.34 
  "/>
<polyline clip-path="url(#clip832)" style="stroke:#000000; stroke-linecap:round; stroke-linejoin:round; stroke-width:4; stroke-opacity:1; fill:none" points="
  1414.28,555.451 1414.28,539.984 
  "/>
<polyline clip-path="url(#clip832)" style="stroke:#000000; stroke-linecap:round; stroke-linejoin:round; stroke-width:4; stroke-opacity:1; fill:none" points="
  1456.94,464.299 1456.94,451.405 
  "/>
<polyline clip-path="url(#clip832)" style="stroke:#000000; stroke-linecap:round; stroke-linejoin:round; stroke-width:4; stroke-opacity:1; fill:none" points="
  1499.6,645.86 1499.6,612.774 
  "/>
<polyline clip-path="url(#clip832)" style="stroke:#000000; stroke-linecap:round; stroke-linejoin:round; stroke-width:4; stroke-opacity:1; fill:none" points="
  1542.26,579.46 1542.26,545.63 
  "/>
<polyline clip-path="url(#clip832)" style="stroke:#000000; stroke-linecap:round; stroke-linejoin:round; stroke-width:4; stroke-opacity:1; fill:none" points="
  1584.92,531.223 1584.92,498.557 
  "/>
<polyline clip-path="url(#clip832)" style="stroke:#000000; stroke-linecap:round; stroke-linejoin:round; stroke-width:4; stroke-opacity:1; fill:none" points="
  1627.57,444.666 1627.57,420.228 
  "/>
<polyline clip-path="url(#clip832)" style="stroke:#000000; stroke-linecap:round; stroke-linejoin:round; stroke-width:4; stroke-opacity:1; fill:none" points="
  1670.23,578.314 1670.23,551.275 
  "/>
<polyline clip-path="url(#clip832)" style="stroke:#000000; stroke-linecap:round; stroke-linejoin:round; stroke-width:4; stroke-opacity:1; fill:none" points="
  1712.89,957.343 1712.89,938.962 
  "/>
<polyline clip-path="url(#clip832)" style="stroke:#000000; stroke-linecap:round; stroke-linejoin:round; stroke-width:4; stroke-opacity:1; fill:none" points="
  1755.55,406.914 1755.55,389.411 
  "/>
<polyline clip-path="url(#clip832)" style="stroke:#000000; stroke-linecap:round; stroke-linejoin:round; stroke-width:4; stroke-opacity:1; fill:none" points="
  1798.2,1200.93 1798.2,1179.49 
  "/>
<polyline clip-path="url(#clip832)" style="stroke:#000000; stroke-linecap:round; stroke-linejoin:round; stroke-width:4; stroke-opacity:1; fill:none" points="
  1840.86,529.64 1840.86,509.54 
  "/>
<polyline clip-path="url(#clip832)" style="stroke:#000000; stroke-linecap:round; stroke-linejoin:round; stroke-width:4; stroke-opacity:1; fill:none" points="
  1883.52,923.886 1883.52,897.75 
  "/>
<polyline clip-path="url(#clip832)" style="stroke:#000000; stroke-linecap:round; stroke-linejoin:round; stroke-width:4; stroke-opacity:1; fill:none" points="
  1926.18,559.797 1926.18,511.44 
  "/>
<polyline clip-path="url(#clip832)" style="stroke:#000000; stroke-linecap:round; stroke-linejoin:round; stroke-width:4; stroke-opacity:1; fill:none" points="
  1968.84,456.586 1968.84,403.493 
  "/>
<polyline clip-path="url(#clip832)" style="stroke:#000000; stroke-linecap:round; stroke-linejoin:round; stroke-width:4; stroke-opacity:1; fill:none" points="
  2011.49,726.942 2011.49,695.772 
  "/>
<polyline clip-path="url(#clip832)" style="stroke:#000000; stroke-linecap:round; stroke-linejoin:round; stroke-width:4; stroke-opacity:1; fill:none" points="
  2054.15,575.606 2054.15,544.719 
  "/>
<polyline clip-path="url(#clip832)" style="stroke:#000000; stroke-linecap:round; stroke-linejoin:round; stroke-width:4; stroke-opacity:1; fill:none" points="
  2096.81,729.762 2096.81,699.372 
  "/>
<polyline clip-path="url(#clip832)" style="stroke:#000000; stroke-linecap:round; stroke-linejoin:round; stroke-width:4; stroke-opacity:1; fill:none" points="
  2139.47,879.809 2139.47,854.318 
  "/>
<polyline clip-path="url(#clip832)" style="stroke:#000000; stroke-linecap:round; stroke-linejoin:round; stroke-width:4; stroke-opacity:1; fill:none" points="
  2182.12,753.872 2182.12,730.28 
  "/>
<polyline clip-path="url(#clip832)" style="stroke:#000000; stroke-linecap:round; stroke-linejoin:round; stroke-width:4; stroke-opacity:1; fill:none" points="
  2224.78,1065.58 2224.78,1042.45 
  "/>
<polyline clip-path="url(#clip832)" style="stroke:#000000; stroke-linecap:round; stroke-linejoin:round; stroke-width:4; stroke-opacity:1; fill:none" points="
  2267.44,621.175 2267.44,588.085 
  "/>
<polyline clip-path="url(#clip832)" style="stroke:#000000; stroke-linecap:round; stroke-linejoin:round; stroke-width:4; stroke-opacity:1; fill:none" points="
  2310.1,1094.65 2310.1,1061.78 
  "/>
<line clip-path="url(#clip832)" x1="270.524" y1="399.283" x2="254.524" y2="399.283" style="stroke:#000000; stroke-width:3.2; stroke-opacity:1"/>
<line clip-path="url(#clip832)" x1="270.524" y1="399.283" x2="254.524" y2="399.283" style="stroke:#000000; stroke-width:3.2; stroke-opacity:1"/>
<line clip-path="url(#clip832)" x1="313.182" y1="409.902" x2="297.182" y2="409.902" style="stroke:#000000; stroke-width:3.2; stroke-opacity:1"/>
<line clip-path="url(#clip832)" x1="313.182" y1="409.902" x2="297.182" y2="409.902" style="stroke:#000000; stroke-width:3.2; stroke-opacity:1"/>
<line clip-path="url(#clip832)" x1="355.84" y1="411.734" x2="339.84" y2="411.734" style="stroke:#000000; stroke-width:3.2; stroke-opacity:1"/>
<line clip-path="url(#clip832)" x1="355.84" y1="411.71" x2="339.84" y2="411.71" style="stroke:#000000; stroke-width:3.2; stroke-opacity:1"/>
<line clip-path="url(#clip832)" x1="398.497" y1="870.597" x2="382.497" y2="870.597" style="stroke:#000000; stroke-width:3.2; stroke-opacity:1"/>
<line clip-path="url(#clip832)" x1="398.497" y1="867.48" x2="382.497" y2="867.48" style="stroke:#000000; stroke-width:3.2; stroke-opacity:1"/>
<line clip-path="url(#clip832)" x1="441.155" y1="529.571" x2="425.155" y2="529.571" style="stroke:#000000; stroke-width:3.2; stroke-opacity:1"/>
<line clip-path="url(#clip832)" x1="441.155" y1="480.534" x2="425.155" y2="480.534" style="stroke:#000000; stroke-width:3.2; stroke-opacity:1"/>
<line clip-path="url(#clip832)" x1="483.813" y1="456.172" x2="467.813" y2="456.172" style="stroke:#000000; stroke-width:3.2; stroke-opacity:1"/>
<line clip-path="url(#clip832)" x1="483.813" y1="406.888" x2="467.813" y2="406.888" style="stroke:#000000; stroke-width:3.2; stroke-opacity:1"/>
<line clip-path="url(#clip832)" x1="526.471" y1="423.538" x2="510.471" y2="423.538" style="stroke:#000000; stroke-width:3.2; stroke-opacity:1"/>
<line clip-path="url(#clip832)" x1="526.471" y1="416.053" x2="510.471" y2="416.053" style="stroke:#000000; stroke-width:3.2; stroke-opacity:1"/>
<line clip-path="url(#clip832)" x1="569.129" y1="418.62" x2="553.129" y2="418.62" style="stroke:#000000; stroke-width:3.2; stroke-opacity:1"/>
<line clip-path="url(#clip832)" x1="569.129" y1="418.401" x2="553.129" y2="418.401" style="stroke:#000000; stroke-width:3.2; stroke-opacity:1"/>
<line clip-path="url(#clip832)" x1="611.786" y1="417.832" x2="595.786" y2="417.832" style="stroke:#000000; stroke-width:3.2; stroke-opacity:1"/>
<line clip-path="url(#clip832)" x1="611.786" y1="416.716" x2="595.786" y2="416.716" style="stroke:#000000; stroke-width:3.2; stroke-opacity:1"/>
<line clip-path="url(#clip832)" x1="654.444" y1="416.429" x2="638.444" y2="416.429" style="stroke:#000000; stroke-width:3.2; stroke-opacity:1"/>
<line clip-path="url(#clip832)" x1="654.444" y1="415.097" x2="638.444" y2="415.097" style="stroke:#000000; stroke-width:3.2; stroke-opacity:1"/>
<line clip-path="url(#clip832)" x1="697.102" y1="406.453" x2="681.102" y2="406.453" style="stroke:#000000; stroke-width:3.2; stroke-opacity:1"/>
<line clip-path="url(#clip832)" x1="697.102" y1="405.656" x2="681.102" y2="405.656" style="stroke:#000000; stroke-width:3.2; stroke-opacity:1"/>
<line clip-path="url(#clip832)" x1="739.76" y1="412.457" x2="723.76" y2="412.457" style="stroke:#000000; stroke-width:3.2; stroke-opacity:1"/>
<line clip-path="url(#clip832)" x1="739.76" y1="410.417" x2="723.76" y2="410.417" style="stroke:#000000; stroke-width:3.2; stroke-opacity:1"/>
<line clip-path="url(#clip832)" x1="782.418" y1="444.083" x2="766.418" y2="444.083" style="stroke:#000000; stroke-width:3.2; stroke-opacity:1"/>
<line clip-path="url(#clip832)" x1="782.418" y1="424.265" x2="766.418" y2="424.265" style="stroke:#000000; stroke-width:3.2; stroke-opacity:1"/>
<line clip-path="url(#clip832)" x1="825.075" y1="409.564" x2="809.075" y2="409.564" style="stroke:#000000; stroke-width:3.2; stroke-opacity:1"/>
<line clip-path="url(#clip832)" x1="825.075" y1="403.814" x2="809.075" y2="403.814" style="stroke:#000000; stroke-width:3.2; stroke-opacity:1"/>
<line clip-path="url(#clip832)" x1="867.733" y1="1112.02" x2="851.733" y2="1112.02" style="stroke:#000000; stroke-width:3.2; stroke-opacity:1"/>
<line clip-path="url(#clip832)" x1="867.733" y1="1103.98" x2="851.733" y2="1103.98" style="stroke:#000000; stroke-width:3.2; stroke-opacity:1"/>
<line clip-path="url(#clip832)" x1="910.391" y1="960.935" x2="894.391" y2="960.935" style="stroke:#000000; stroke-width:3.2; stroke-opacity:1"/>
<line clip-path="url(#clip832)" x1="910.391" y1="954.563" x2="894.391" y2="954.563" style="stroke:#000000; stroke-width:3.2; stroke-opacity:1"/>
<line clip-path="url(#clip832)" x1="953.049" y1="523.413" x2="937.049" y2="523.413" style="stroke:#000000; stroke-width:3.2; stroke-opacity:1"/>
<line clip-path="url(#clip832)" x1="953.049" y1="502.835" x2="937.049" y2="502.835" style="stroke:#000000; stroke-width:3.2; stroke-opacity:1"/>
<line clip-path="url(#clip832)" x1="995.707" y1="617.767" x2="979.707" y2="617.767" style="stroke:#000000; stroke-width:3.2; stroke-opacity:1"/>
<line clip-path="url(#clip832)" x1="995.707" y1="587.049" x2="979.707" y2="587.049" style="stroke:#000000; stroke-width:3.2; stroke-opacity:1"/>
<line clip-path="url(#clip832)" x1="1038.36" y1="434.4" x2="1022.36" y2="434.4" style="stroke:#000000; stroke-width:3.2; stroke-opacity:1"/>
<line clip-path="url(#clip832)" x1="1038.36" y1="428.092" x2="1022.36" y2="428.092" style="stroke:#000000; stroke-width:3.2; stroke-opacity:1"/>
<line clip-path="url(#clip832)" x1="1081.02" y1="412.204" x2="1065.02" y2="412.204" style="stroke:#000000; stroke-width:3.2; stroke-opacity:1"/>
<line clip-path="url(#clip832)" x1="1081.02" y1="402.985" x2="1065.02" y2="402.985" style="stroke:#000000; stroke-width:3.2; stroke-opacity:1"/>
<line clip-path="url(#clip832)" x1="1123.68" y1="445.821" x2="1107.68" y2="445.821" style="stroke:#000000; stroke-width:3.2; stroke-opacity:1"/>
<line clip-path="url(#clip832)" x1="1123.68" y1="427.533" x2="1107.68" y2="427.533" style="stroke:#000000; stroke-width:3.2; stroke-opacity:1"/>
<line clip-path="url(#clip832)" x1="1166.34" y1="483.109" x2="1150.34" y2="483.109" style="stroke:#000000; stroke-width:3.2; stroke-opacity:1"/>
<line clip-path="url(#clip832)" x1="1166.34" y1="452.437" x2="1150.34" y2="452.437" style="stroke:#000000; stroke-width:3.2; stroke-opacity:1"/>
<line clip-path="url(#clip832)" x1="1209" y1="865.859" x2="1193" y2="865.859" style="stroke:#000000; stroke-width:3.2; stroke-opacity:1"/>
<line clip-path="url(#clip832)" x1="1209" y1="835.95" x2="1193" y2="835.95" style="stroke:#000000; stroke-width:3.2; stroke-opacity:1"/>
<line clip-path="url(#clip832)" x1="1251.65" y1="751.837" x2="1235.65" y2="751.837" style="stroke:#000000; stroke-width:3.2; stroke-opacity:1"/>
<line clip-path="url(#clip832)" x1="1251.65" y1="725.612" x2="1235.65" y2="725.612" style="stroke:#000000; stroke-width:3.2; stroke-opacity:1"/>
<line clip-path="url(#clip832)" x1="1294.31" y1="824.107" x2="1278.31" y2="824.107" style="stroke:#000000; stroke-width:3.2; stroke-opacity:1"/>
<line clip-path="url(#clip832)" x1="1294.31" y1="809.244" x2="1278.31" y2="809.244" style="stroke:#000000; stroke-width:3.2; stroke-opacity:1"/>
<line clip-path="url(#clip832)" x1="1336.97" y1="1135.43" x2="1320.97" y2="1135.43" style="stroke:#000000; stroke-width:3.2; stroke-opacity:1"/>
<line clip-path="url(#clip832)" x1="1336.97" y1="1123.63" x2="1320.97" y2="1123.63" style="stroke:#000000; stroke-width:3.2; stroke-opacity:1"/>
<line clip-path="url(#clip832)" x1="1379.63" y1="647.03" x2="1363.63" y2="647.03" style="stroke:#000000; stroke-width:3.2; stroke-opacity:1"/>
<line clip-path="url(#clip832)" x1="1379.63" y1="639.34" x2="1363.63" y2="639.34" style="stroke:#000000; stroke-width:3.2; stroke-opacity:1"/>
<line clip-path="url(#clip832)" x1="1422.28" y1="555.451" x2="1406.28" y2="555.451" style="stroke:#000000; stroke-width:3.2; stroke-opacity:1"/>
<line clip-path="url(#clip832)" x1="1422.28" y1="539.984" x2="1406.28" y2="539.984" style="stroke:#000000; stroke-width:3.2; stroke-opacity:1"/>
<line clip-path="url(#clip832)" x1="1464.94" y1="464.299" x2="1448.94" y2="464.299" style="stroke:#000000; stroke-width:3.2; stroke-opacity:1"/>
<line clip-path="url(#clip832)" x1="1464.94" y1="451.405" x2="1448.94" y2="451.405" style="stroke:#000000; stroke-width:3.2; stroke-opacity:1"/>
<line clip-path="url(#clip832)" x1="1507.6" y1="645.86" x2="1491.6" y2="645.86" style="stroke:#000000; stroke-width:3.2; stroke-opacity:1"/>
<line clip-path="url(#clip832)" x1="1507.6" y1="612.774" x2="1491.6" y2="612.774" style="stroke:#000000; stroke-width:3.2; stroke-opacity:1"/>
<line clip-path="url(#clip832)" x1="1550.26" y1="579.46" x2="1534.26" y2="579.46" style="stroke:#000000; stroke-width:3.2; stroke-opacity:1"/>
<line clip-path="url(#clip832)" x1="1550.26" y1="545.63" x2="1534.26" y2="545.63" style="stroke:#000000; stroke-width:3.2; stroke-opacity:1"/>
<line clip-path="url(#clip832)" x1="1592.92" y1="531.223" x2="1576.92" y2="531.223" style="stroke:#000000; stroke-width:3.2; stroke-opacity:1"/>
<line clip-path="url(#clip832)" x1="1592.92" y1="498.557" x2="1576.92" y2="498.557" style="stroke:#000000; stroke-width:3.2; stroke-opacity:1"/>
<line clip-path="url(#clip832)" x1="1635.57" y1="444.666" x2="1619.57" y2="444.666" style="stroke:#000000; stroke-width:3.2; stroke-opacity:1"/>
<line clip-path="url(#clip832)" x1="1635.57" y1="420.228" x2="1619.57" y2="420.228" style="stroke:#000000; stroke-width:3.2; stroke-opacity:1"/>
<line clip-path="url(#clip832)" x1="1678.23" y1="578.314" x2="1662.23" y2="578.314" style="stroke:#000000; stroke-width:3.2; stroke-opacity:1"/>
<line clip-path="url(#clip832)" x1="1678.23" y1="551.275" x2="1662.23" y2="551.275" style="stroke:#000000; stroke-width:3.2; stroke-opacity:1"/>
<line clip-path="url(#clip832)" x1="1720.89" y1="957.343" x2="1704.89" y2="957.343" style="stroke:#000000; stroke-width:3.2; stroke-opacity:1"/>
<line clip-path="url(#clip832)" x1="1720.89" y1="938.962" x2="1704.89" y2="938.962" style="stroke:#000000; stroke-width:3.2; stroke-opacity:1"/>
<line clip-path="url(#clip832)" x1="1763.55" y1="406.914" x2="1747.55" y2="406.914" style="stroke:#000000; stroke-width:3.2; stroke-opacity:1"/>
<line clip-path="url(#clip832)" x1="1763.55" y1="389.411" x2="1747.55" y2="389.411" style="stroke:#000000; stroke-width:3.2; stroke-opacity:1"/>
<line clip-path="url(#clip832)" x1="1806.2" y1="1200.93" x2="1790.2" y2="1200.93" style="stroke:#000000; stroke-width:3.2; stroke-opacity:1"/>
<line clip-path="url(#clip832)" x1="1806.2" y1="1179.49" x2="1790.2" y2="1179.49" style="stroke:#000000; stroke-width:3.2; stroke-opacity:1"/>
<line clip-path="url(#clip832)" x1="1848.86" y1="529.64" x2="1832.86" y2="529.64" style="stroke:#000000; stroke-width:3.2; stroke-opacity:1"/>
<line clip-path="url(#clip832)" x1="1848.86" y1="509.54" x2="1832.86" y2="509.54" style="stroke:#000000; stroke-width:3.2; stroke-opacity:1"/>
<line clip-path="url(#clip832)" x1="1891.52" y1="923.886" x2="1875.52" y2="923.886" style="stroke:#000000; stroke-width:3.2; stroke-opacity:1"/>
<line clip-path="url(#clip832)" x1="1891.52" y1="897.75" x2="1875.52" y2="897.75" style="stroke:#000000; stroke-width:3.2; stroke-opacity:1"/>
<line clip-path="url(#clip832)" x1="1934.18" y1="559.797" x2="1918.18" y2="559.797" style="stroke:#000000; stroke-width:3.2; stroke-opacity:1"/>
<line clip-path="url(#clip832)" x1="1934.18" y1="511.44" x2="1918.18" y2="511.44" style="stroke:#000000; stroke-width:3.2; stroke-opacity:1"/>
<line clip-path="url(#clip832)" x1="1976.84" y1="456.586" x2="1960.84" y2="456.586" style="stroke:#000000; stroke-width:3.2; stroke-opacity:1"/>
<line clip-path="url(#clip832)" x1="1976.84" y1="403.493" x2="1960.84" y2="403.493" style="stroke:#000000; stroke-width:3.2; stroke-opacity:1"/>
<line clip-path="url(#clip832)" x1="2019.49" y1="726.942" x2="2003.49" y2="726.942" style="stroke:#000000; stroke-width:3.2; stroke-opacity:1"/>
<line clip-path="url(#clip832)" x1="2019.49" y1="695.772" x2="2003.49" y2="695.772" style="stroke:#000000; stroke-width:3.2; stroke-opacity:1"/>
<line clip-path="url(#clip832)" x1="2062.15" y1="575.606" x2="2046.15" y2="575.606" style="stroke:#000000; stroke-width:3.2; stroke-opacity:1"/>
<line clip-path="url(#clip832)" x1="2062.15" y1="544.719" x2="2046.15" y2="544.719" style="stroke:#000000; stroke-width:3.2; stroke-opacity:1"/>
<line clip-path="url(#clip832)" x1="2104.81" y1="729.762" x2="2088.81" y2="729.762" style="stroke:#000000; stroke-width:3.2; stroke-opacity:1"/>
<line clip-path="url(#clip832)" x1="2104.81" y1="699.372" x2="2088.81" y2="699.372" style="stroke:#000000; stroke-width:3.2; stroke-opacity:1"/>
<line clip-path="url(#clip832)" x1="2147.47" y1="879.809" x2="2131.47" y2="879.809" style="stroke:#000000; stroke-width:3.2; stroke-opacity:1"/>
<line clip-path="url(#clip832)" x1="2147.47" y1="854.318" x2="2131.47" y2="854.318" style="stroke:#000000; stroke-width:3.2; stroke-opacity:1"/>
<line clip-path="url(#clip832)" x1="2190.12" y1="753.872" x2="2174.12" y2="753.872" style="stroke:#000000; stroke-width:3.2; stroke-opacity:1"/>
<line clip-path="url(#clip832)" x1="2190.12" y1="730.28" x2="2174.12" y2="730.28" style="stroke:#000000; stroke-width:3.2; stroke-opacity:1"/>
<line clip-path="url(#clip832)" x1="2232.78" y1="1065.58" x2="2216.78" y2="1065.58" style="stroke:#000000; stroke-width:3.2; stroke-opacity:1"/>
<line clip-path="url(#clip832)" x1="2232.78" y1="1042.45" x2="2216.78" y2="1042.45" style="stroke:#000000; stroke-width:3.2; stroke-opacity:1"/>
<line clip-path="url(#clip832)" x1="2275.44" y1="621.175" x2="2259.44" y2="621.175" style="stroke:#000000; stroke-width:3.2; stroke-opacity:1"/>
<line clip-path="url(#clip832)" x1="2275.44" y1="588.085" x2="2259.44" y2="588.085" style="stroke:#000000; stroke-width:3.2; stroke-opacity:1"/>
<line clip-path="url(#clip832)" x1="2318.1" y1="1094.65" x2="2302.1" y2="1094.65" style="stroke:#000000; stroke-width:3.2; stroke-opacity:1"/>
<line clip-path="url(#clip832)" x1="2318.1" y1="1061.78" x2="2302.1" y2="1061.78" style="stroke:#000000; stroke-width:3.2; stroke-opacity:1"/>
<circle clip-path="url(#clip832)" cx="262.524" cy="399.283" r="7.2" fill="#009af9" fill-rule="evenodd" fill-opacity="1" stroke="#000000" stroke-opacity="1" stroke-width="3.2"/>
<circle clip-path="url(#clip832)" cx="305.182" cy="409.902" r="7.2" fill="#009af9" fill-rule="evenodd" fill-opacity="1" stroke="#000000" stroke-opacity="1" stroke-width="3.2"/>
<circle clip-path="url(#clip832)" cx="347.84" cy="411.722" r="7.2" fill="#009af9" fill-rule="evenodd" fill-opacity="1" stroke="#000000" stroke-opacity="1" stroke-width="3.2"/>
<circle clip-path="url(#clip832)" cx="390.497" cy="869.038" r="7.2" fill="#009af9" fill-rule="evenodd" fill-opacity="1" stroke="#000000" stroke-opacity="1" stroke-width="3.2"/>
<circle clip-path="url(#clip832)" cx="433.155" cy="505.052" r="7.2" fill="#009af9" fill-rule="evenodd" fill-opacity="1" stroke="#000000" stroke-opacity="1" stroke-width="3.2"/>
<circle clip-path="url(#clip832)" cx="475.813" cy="431.53" r="7.2" fill="#009af9" fill-rule="evenodd" fill-opacity="1" stroke="#000000" stroke-opacity="1" stroke-width="3.2"/>
<circle clip-path="url(#clip832)" cx="518.471" cy="419.796" r="7.2" fill="#009af9" fill-rule="evenodd" fill-opacity="1" stroke="#000000" stroke-opacity="1" stroke-width="3.2"/>
<circle clip-path="url(#clip832)" cx="561.129" cy="418.511" r="7.2" fill="#009af9" fill-rule="evenodd" fill-opacity="1" stroke="#000000" stroke-opacity="1" stroke-width="3.2"/>
<circle clip-path="url(#clip832)" cx="603.786" cy="417.274" r="7.2" fill="#009af9" fill-rule="evenodd" fill-opacity="1" stroke="#000000" stroke-opacity="1" stroke-width="3.2"/>
<circle clip-path="url(#clip832)" cx="646.444" cy="415.763" r="7.2" fill="#009af9" fill-rule="evenodd" fill-opacity="1" stroke="#000000" stroke-opacity="1" stroke-width="3.2"/>
<circle clip-path="url(#clip832)" cx="689.102" cy="406.055" r="7.2" fill="#009af9" fill-rule="evenodd" fill-opacity="1" stroke="#000000" stroke-opacity="1" stroke-width="3.2"/>
<circle clip-path="url(#clip832)" cx="731.76" cy="411.437" r="7.2" fill="#009af9" fill-rule="evenodd" fill-opacity="1" stroke="#000000" stroke-opacity="1" stroke-width="3.2"/>
<circle clip-path="url(#clip832)" cx="774.418" cy="434.174" r="7.2" fill="#009af9" fill-rule="evenodd" fill-opacity="1" stroke="#000000" stroke-opacity="1" stroke-width="3.2"/>
<circle clip-path="url(#clip832)" cx="817.075" cy="406.689" r="7.2" fill="#009af9" fill-rule="evenodd" fill-opacity="1" stroke="#000000" stroke-opacity="1" stroke-width="3.2"/>
<circle clip-path="url(#clip832)" cx="859.733" cy="1108" r="7.2" fill="#009af9" fill-rule="evenodd" fill-opacity="1" stroke="#000000" stroke-opacity="1" stroke-width="3.2"/>
<circle clip-path="url(#clip832)" cx="902.391" cy="957.749" r="7.2" fill="#009af9" fill-rule="evenodd" fill-opacity="1" stroke="#000000" stroke-opacity="1" stroke-width="3.2"/>
<circle clip-path="url(#clip832)" cx="945.049" cy="513.124" r="7.2" fill="#009af9" fill-rule="evenodd" fill-opacity="1" stroke="#000000" stroke-opacity="1" stroke-width="3.2"/>
<circle clip-path="url(#clip832)" cx="987.707" cy="602.408" r="7.2" fill="#009af9" fill-rule="evenodd" fill-opacity="1" stroke="#000000" stroke-opacity="1" stroke-width="3.2"/>
<circle clip-path="url(#clip832)" cx="1030.36" cy="431.246" r="7.2" fill="#009af9" fill-rule="evenodd" fill-opacity="1" stroke="#000000" stroke-opacity="1" stroke-width="3.2"/>
<circle clip-path="url(#clip832)" cx="1073.02" cy="407.595" r="7.2" fill="#009af9" fill-rule="evenodd" fill-opacity="1" stroke="#000000" stroke-opacity="1" stroke-width="3.2"/>
<circle clip-path="url(#clip832)" cx="1115.68" cy="436.677" r="7.2" fill="#009af9" fill-rule="evenodd" fill-opacity="1" stroke="#000000" stroke-opacity="1" stroke-width="3.2"/>
<circle clip-path="url(#clip832)" cx="1158.34" cy="467.773" r="7.2" fill="#009af9" fill-rule="evenodd" fill-opacity="1" stroke="#000000" stroke-opacity="1" stroke-width="3.2"/>
<circle clip-path="url(#clip832)" cx="1201" cy="850.905" r="7.2" fill="#009af9" fill-rule="evenodd" fill-opacity="1" stroke="#000000" stroke-opacity="1" stroke-width="3.2"/>
<circle clip-path="url(#clip832)" cx="1243.65" cy="738.725" r="7.2" fill="#009af9" fill-rule="evenodd" fill-opacity="1" stroke="#000000" stroke-opacity="1" stroke-width="3.2"/>
<circle clip-path="url(#clip832)" cx="1286.31" cy="816.676" r="7.2" fill="#009af9" fill-rule="evenodd" fill-opacity="1" stroke="#000000" stroke-opacity="1" stroke-width="3.2"/>
<circle clip-path="url(#clip832)" cx="1328.97" cy="1129.53" r="7.2" fill="#009af9" fill-rule="evenodd" fill-opacity="1" stroke="#000000" stroke-opacity="1" stroke-width="3.2"/>
<circle clip-path="url(#clip832)" cx="1371.63" cy="643.185" r="7.2" fill="#009af9" fill-rule="evenodd" fill-opacity="1" stroke="#000000" stroke-opacity="1" stroke-width="3.2"/>
<circle clip-path="url(#clip832)" cx="1414.28" cy="547.718" r="7.2" fill="#009af9" fill-rule="evenodd" fill-opacity="1" stroke="#000000" stroke-opacity="1" stroke-width="3.2"/>
<circle clip-path="url(#clip832)" cx="1456.94" cy="457.852" r="7.2" fill="#009af9" fill-rule="evenodd" fill-opacity="1" stroke="#000000" stroke-opacity="1" stroke-width="3.2"/>
<circle clip-path="url(#clip832)" cx="1499.6" cy="629.317" r="7.2" fill="#009af9" fill-rule="evenodd" fill-opacity="1" stroke="#000000" stroke-opacity="1" stroke-width="3.2"/>
<circle clip-path="url(#clip832)" cx="1542.26" cy="562.545" r="7.2" fill="#009af9" fill-rule="evenodd" fill-opacity="1" stroke="#000000" stroke-opacity="1" stroke-width="3.2"/>
<circle clip-path="url(#clip832)" cx="1584.92" cy="514.89" r="7.2" fill="#009af9" fill-rule="evenodd" fill-opacity="1" stroke="#000000" stroke-opacity="1" stroke-width="3.2"/>
<circle clip-path="url(#clip832)" cx="1627.57" cy="432.447" r="7.2" fill="#009af9" fill-rule="evenodd" fill-opacity="1" stroke="#000000" stroke-opacity="1" stroke-width="3.2"/>
<circle clip-path="url(#clip832)" cx="1670.23" cy="564.794" r="7.2" fill="#009af9" fill-rule="evenodd" fill-opacity="1" stroke="#000000" stroke-opacity="1" stroke-width="3.2"/>
<circle clip-path="url(#clip832)" cx="1712.89" cy="948.152" r="7.2" fill="#009af9" fill-rule="evenodd" fill-opacity="1" stroke="#000000" stroke-opacity="1" stroke-width="3.2"/>
<circle clip-path="url(#clip832)" cx="1755.55" cy="398.163" r="7.2" fill="#009af9" fill-rule="evenodd" fill-opacity="1" stroke="#000000" stroke-opacity="1" stroke-width="3.2"/>
<circle clip-path="url(#clip832)" cx="1798.2" cy="1190.21" r="7.2" fill="#009af9" fill-rule="evenodd" fill-opacity="1" stroke="#000000" stroke-opacity="1" stroke-width="3.2"/>
<circle clip-path="url(#clip832)" cx="1840.86" cy="519.59" r="7.2" fill="#009af9" fill-rule="evenodd" fill-opacity="1" stroke="#000000" stroke-opacity="1" stroke-width="3.2"/>
<circle clip-path="url(#clip832)" cx="1883.52" cy="910.818" r="7.2" fill="#009af9" fill-rule="evenodd" fill-opacity="1" stroke="#000000" stroke-opacity="1" stroke-width="3.2"/>
<circle clip-path="url(#clip832)" cx="1926.18" cy="535.618" r="7.2" fill="#009af9" fill-rule="evenodd" fill-opacity="1" stroke="#000000" stroke-opacity="1" stroke-width="3.2"/>
<circle clip-path="url(#clip832)" cx="1968.84" cy="430.04" r="7.2" fill="#009af9" fill-rule="evenodd" fill-opacity="1" stroke="#000000" stroke-opacity="1" stroke-width="3.2"/>
<circle clip-path="url(#clip832)" cx="2011.49" cy="711.357" r="7.2" fill="#009af9" fill-rule="evenodd" fill-opacity="1" stroke="#000000" stroke-opacity="1" stroke-width="3.2"/>
<circle clip-path="url(#clip832)" cx="2054.15" cy="560.162" r="7.2" fill="#009af9" fill-rule="evenodd" fill-opacity="1" stroke="#000000" stroke-opacity="1" stroke-width="3.2"/>
<circle clip-path="url(#clip832)" cx="2096.81" cy="714.567" r="7.2" fill="#009af9" fill-rule="evenodd" fill-opacity="1" stroke="#000000" stroke-opacity="1" stroke-width="3.2"/>
<circle clip-path="url(#clip832)" cx="2139.47" cy="867.063" r="7.2" fill="#009af9" fill-rule="evenodd" fill-opacity="1" stroke="#000000" stroke-opacity="1" stroke-width="3.2"/>
<circle clip-path="url(#clip832)" cx="2182.12" cy="742.076" r="7.2" fill="#009af9" fill-rule="evenodd" fill-opacity="1" stroke="#000000" stroke-opacity="1" stroke-width="3.2"/>
<circle clip-path="url(#clip832)" cx="2224.78" cy="1054.02" r="7.2" fill="#009af9" fill-rule="evenodd" fill-opacity="1" stroke="#000000" stroke-opacity="1" stroke-width="3.2"/>
<circle clip-path="url(#clip832)" cx="2267.44" cy="604.63" r="7.2" fill="#009af9" fill-rule="evenodd" fill-opacity="1" stroke="#000000" stroke-opacity="1" stroke-width="3.2"/>
<circle clip-path="url(#clip832)" cx="2310.1" cy="1078.21" r="7.2" fill="#009af9" fill-rule="evenodd" fill-opacity="1" stroke="#000000" stroke-opacity="1" stroke-width="3.2"/>
<path clip-path="url(#clip830)" d="
M1709.6 1379.86 L2281.66 1379.86 L2281.66 1276.18 L1709.6 1276.18  Z
  " fill="#ffffff" fill-rule="evenodd" fill-opacity="1"/>
<polyline clip-path="url(#clip830)" style="stroke:#000000; stroke-linecap:round; stroke-linejoin:round; stroke-width:4; stroke-opacity:1; fill:none" points="
  1709.6,1379.86 2281.66,1379.86 2281.66,1276.18 1709.6,1276.18 1709.6,1379.86 
  "/>
<circle clip-path="url(#clip830)" cx="1804.39" cy="1328.02" r="23.04" fill="#009af9" fill-rule="evenodd" fill-opacity="1" stroke="#000000" stroke-opacity="1" stroke-width="10.24"/>
<path clip-path="url(#clip830)" d="M1919.54 1324.35 Q1921.13 1321.48 1923.36 1320.11 Q1925.58 1318.75 1928.59 1318.75 Q1932.64 1318.75 1934.84 1321.59 Q1937.04 1324.42 1937.04 1329.65 L1937.04 1345.3 L1932.75 1345.3 L1932.75 1329.79 Q1932.75 1326.06 1931.43 1324.25 Q1930.12 1322.45 1927.41 1322.45 Q1924.1 1322.45 1922.18 1324.65 Q1920.25 1326.85 1920.25 1330.64 L1920.25 1345.3 L1915.97 1345.3 L1915.97 1329.79 Q1915.97 1326.04 1914.65 1324.25 Q1913.33 1322.45 1910.58 1322.45 Q1907.31 1322.45 1905.39 1324.67 Q1903.47 1326.87 1903.47 1330.64 L1903.47 1345.3 L1899.19 1345.3 L1899.19 1319.37 L1903.47 1319.37 L1903.47 1323.4 Q1904.93 1321.01 1906.97 1319.88 Q1909 1318.75 1911.81 1318.75 Q1914.63 1318.75 1916.6 1320.18 Q1918.59 1321.62 1919.54 1324.35 Z" fill="#000000" fill-rule="evenodd" fill-opacity="1" /><path clip-path="url(#clip830)" d="M1954.26 1329.63 Q1953.1 1327.63 1950.76 1327.63 Q1948.43 1327.63 1947.27 1329.63 Q1946.09 1331.62 1946.09 1335.6 Q1946.09 1339.6 1947.27 1341.59 Q1948.43 1343.58 1950.76 1343.58 Q1953.1 1343.58 1954.26 1341.59 Q1955.44 1339.6 1955.44 1335.6 Q1955.44 1331.62 1954.26 1329.63 M1950.76 1325.57 Q1954.49 1325.57 1956.46 1328.14 Q1958.43 1330.71 1958.43 1335.6 Q1958.43 1340.5 1956.46 1343.07 Q1954.49 1345.64 1950.76 1345.64 Q1947.01 1345.64 1945.05 1343.07 Q1943.08 1340.5 1943.08 1335.6 Q1943.08 1330.71 1945.05 1328.14 Q1947.01 1325.57 1950.76 1325.57 Z" fill="#000000" fill-rule="evenodd" fill-opacity="1" /><path clip-path="url(#clip830)" d="M1965.09 1323.77 L1994.77 1323.77 L1994.77 1327.66 L1965.09 1327.66 L1965.09 1323.77 M1965.09 1333.21 L1994.77 1333.21 L1994.77 1337.15 L1965.09 1337.15 L1965.09 1333.21 Z" fill="#000000" fill-rule="evenodd" fill-opacity="1" /><path clip-path="url(#clip830)" d="M2014.86 1313.81 Q2011.25 1313.81 2009.42 1317.38 Q2007.61 1320.92 2007.61 1328.05 Q2007.61 1335.16 2009.42 1338.72 Q2011.25 1342.26 2014.86 1342.26 Q2018.49 1342.26 2020.3 1338.72 Q2022.13 1335.16 2022.13 1328.05 Q2022.13 1320.92 2020.3 1317.38 Q2018.49 1313.81 2014.86 1313.81 M2014.86 1310.11 Q2020.67 1310.11 2023.73 1314.72 Q2026.8 1319.3 2026.8 1328.05 Q2026.8 1336.78 2023.73 1341.38 Q2020.67 1345.97 2014.86 1345.97 Q2009.05 1345.97 2005.97 1341.38 Q2002.92 1336.78 2002.92 1328.05 Q2002.92 1319.3 2005.97 1314.72 Q2009.05 1310.11 2014.86 1310.11 Z" fill="#000000" fill-rule="evenodd" fill-opacity="1" /><path clip-path="url(#clip830)" d="M2035.02 1339.42 L2039.91 1339.42 L2039.91 1345.3 L2035.02 1345.3 L2035.02 1339.42 Z" fill="#000000" fill-rule="evenodd" fill-opacity="1" /><path clip-path="url(#clip830)" d="M2062.94 1314.81 L2051.13 1333.26 L2062.94 1333.26 L2062.94 1314.81 M2061.71 1310.74 L2067.59 1310.74 L2067.59 1333.26 L2072.52 1333.26 L2072.52 1337.15 L2067.59 1337.15 L2067.59 1345.3 L2062.94 1345.3 L2062.94 1337.15 L2047.34 1337.15 L2047.34 1332.63 L2061.71 1310.74 Z" fill="#000000" fill-rule="evenodd" fill-opacity="1" /><path clip-path="url(#clip830)" d="M2080.74 1339.42 L2085.62 1339.42 L2085.62 1343.4 L2081.83 1350.81 L2078.84 1350.81 L2080.74 1343.4 L2080.74 1339.42 Z" fill="#000000" fill-rule="evenodd" fill-opacity="1" /><path clip-path="url(#clip830)" d="M2118.47 1340.37 L2118.47 1331.08 L2110.83 1331.08 L2110.83 1327.24 L2123.1 1327.24 L2123.1 1342.08 Q2120.39 1344 2117.13 1345 Q2113.86 1345.97 2110.16 1345.97 Q2102.06 1345.97 2097.48 1341.25 Q2092.92 1336.5 2092.92 1328.05 Q2092.92 1319.58 2097.48 1314.86 Q2102.06 1310.11 2110.16 1310.11 Q2113.54 1310.11 2116.57 1310.94 Q2119.63 1311.78 2122.2 1313.4 L2122.2 1318.38 Q2119.61 1316.18 2116.69 1315.06 Q2113.77 1313.95 2110.55 1313.95 Q2104.21 1313.95 2101.02 1317.5 Q2097.85 1321.04 2097.85 1328.05 Q2097.85 1335.04 2101.02 1338.58 Q2104.21 1342.12 2110.55 1342.12 Q2113.03 1342.12 2114.98 1341.71 Q2116.92 1341.27 2118.47 1340.37 Z" fill="#000000" fill-rule="evenodd" fill-opacity="1" /><path clip-path="url(#clip830)" d="M2133.19 1327.19 L2143.01 1327.19 L2143.01 1329.83 L2129.17 1329.83 L2129.17 1327.29 Q2129.95 1326.57 2131.41 1325.27 Q2139.37 1318.21 2139.37 1316.04 Q2139.37 1314.51 2138.17 1313.58 Q2136.97 1312.63 2135 1312.63 Q2133.79 1312.63 2132.38 1313.05 Q2130.97 1313.44 2129.3 1314.25 L2129.3 1311.41 Q2131.09 1310.76 2132.61 1310.44 Q2134.17 1310.11 2135.48 1310.11 Q2138.84 1310.11 2140.85 1311.64 Q2142.87 1313.17 2142.87 1315.67 Q2142.87 1318.88 2135.21 1325.46 Q2133.91 1326.57 2133.19 1327.19 Z" fill="#000000" fill-rule="evenodd" fill-opacity="1" /><path clip-path="url(#clip830)" d="M2151.02 1323.77 L2180.69 1323.77 L2180.69 1327.66 L2151.02 1327.66 L2151.02 1323.77 M2151.02 1333.21 L2180.69 1333.21 L2180.69 1337.15 L2151.02 1337.15 L2151.02 1333.21 Z" fill="#000000" fill-rule="evenodd" fill-opacity="1" /><path clip-path="url(#clip830)" d="M2191.6 1341.36 L2199.23 1341.36 L2199.23 1315 L2190.92 1316.66 L2190.92 1312.4 L2199.19 1310.74 L2203.86 1310.74 L2203.86 1341.36 L2211.5 1341.36 L2211.5 1345.3 L2191.6 1345.3 L2191.6 1341.36 Z" fill="#000000" fill-rule="evenodd" fill-opacity="1" /><path clip-path="url(#clip830)" d="M2220.95 1339.42 L2225.83 1339.42 L2225.83 1345.3 L2220.95 1345.3 L2220.95 1339.42 Z" fill="#000000" fill-rule="evenodd" fill-opacity="1" /><path clip-path="url(#clip830)" d="M2246.02 1313.81 Q2242.41 1313.81 2240.58 1317.38 Q2238.77 1320.92 2238.77 1328.05 Q2238.77 1335.16 2240.58 1338.72 Q2242.41 1342.26 2246.02 1342.26 Q2249.65 1342.26 2251.46 1338.72 Q2253.28 1335.16 2253.28 1328.05 Q2253.28 1320.92 2251.46 1317.38 Q2249.65 1313.81 2246.02 1313.81 M2246.02 1310.11 Q2251.83 1310.11 2254.88 1314.72 Q2257.96 1319.3 2257.96 1328.05 Q2257.96 1336.78 2254.88 1341.38 Q2251.83 1345.97 2246.02 1345.97 Q2240.21 1345.97 2237.13 1341.38 Q2234.07 1336.78 2234.07 1328.05 Q2234.07 1319.3 2237.13 1314.72 Q2240.21 1310.11 2246.02 1310.11 Z" fill="#000000" fill-rule="evenodd" fill-opacity="1" /></svg>
