<?xml version="1.0" encoding="utf-8"?>
<svg xmlns="http://www.w3.org/2000/svg" xmlns:xlink="http://www.w3.org/1999/xlink" width="600" height="400" viewBox="0 0 2400 1600">
<defs>
  <clipPath id="clip620">
    <rect x="0" y="0" width="2400" height="1600"/>
  </clipPath>
</defs>
<path clip-path="url(#clip620)" d="
M0 1600 L2400 1600 L2400 0 L0 0  Z
  " fill="#ffffff" fill-rule="evenodd" fill-opacity="1"/>
<defs>
  <clipPath id="clip621">
    <rect x="480" y="0" width="1681" height="1600"/>
  </clipPath>
</defs>
<path clip-path="url(#clip620)" d="
M250.028 1423.18 L2352.76 1423.18 L2352.76 123.472 L250.028 123.472  Z
  " fill="#ffffff" fill-rule="evenodd" fill-opacity="1"/>
<defs>
  <clipPath id="clip622">
    <rect x="250" y="123" width="2104" height="1301"/>
  </clipPath>
</defs>
<polyline clip-path="url(#clip622)" style="stroke:#000000; stroke-linecap:round; stroke-linejoin:round; stroke-width:2; stroke-opacity:0.1; fill:none" points="
  432.874,1423.18 432.874,123.472 
  "/>
<polyline clip-path="url(#clip622)" style="stroke:#000000; stroke-linecap:round; stroke-linejoin:round; stroke-width:2; stroke-opacity:0.1; fill:none" points="
  615.72,1423.18 615.72,123.472 
  "/>
<polyline clip-path="url(#clip622)" style="stroke:#000000; stroke-linecap:round; stroke-linejoin:round; stroke-width:2; stroke-opacity:0.1; fill:none" points="
  798.566,1423.18 798.566,123.472 
  "/>
<polyline clip-path="url(#clip622)" style="stroke:#000000; stroke-linecap:round; stroke-linejoin:round; stroke-width:2; stroke-opacity:0.1; fill:none" points="
  981.412,1423.18 981.412,123.472 
  "/>
<polyline clip-path="url(#clip622)" style="stroke:#000000; stroke-linecap:round; stroke-linejoin:round; stroke-width:2; stroke-opacity:0.1; fill:none" points="
  1164.26,1423.18 1164.26,123.472 
  "/>
<polyline clip-path="url(#clip622)" style="stroke:#000000; stroke-linecap:round; stroke-linejoin:round; stroke-width:2; stroke-opacity:0.1; fill:none" points="
  1347.1,1423.18 1347.1,123.472 
  "/>
<polyline clip-path="url(#clip622)" style="stroke:#000000; stroke-linecap:round; stroke-linejoin:round; stroke-width:2; stroke-opacity:0.1; fill:none" points="
  1529.95,1423.18 1529.95,123.472 
  "/>
<polyline clip-path="url(#clip622)" style="stroke:#000000; stroke-linecap:round; stroke-linejoin:round; stroke-width:2; stroke-opacity:0.1; fill:none" points="
  1712.8,1423.18 1712.8,123.472 
  "/>
<polyline clip-path="url(#clip622)" style="stroke:#000000; stroke-linecap:round; stroke-linejoin:round; stroke-width:2; stroke-opacity:0.1; fill:none" points="
  1895.64,1423.18 1895.64,123.472 
  "/>
<polyline clip-path="url(#clip622)" style="stroke:#000000; stroke-linecap:round; stroke-linejoin:round; stroke-width:2; stroke-opacity:0.1; fill:none" points="
  2078.49,1423.18 2078.49,123.472 
  "/>
<polyline clip-path="url(#clip622)" style="stroke:#000000; stroke-linecap:round; stroke-linejoin:round; stroke-width:2; stroke-opacity:0.1; fill:none" points="
  2261.33,1423.18 2261.33,123.472 
  "/>
<polyline clip-path="url(#clip620)" style="stroke:#000000; stroke-linecap:round; stroke-linejoin:round; stroke-width:4; stroke-opacity:1; fill:none" points="
  250.028,1423.18 2352.76,1423.18 
  "/>
<polyline clip-path="url(#clip620)" style="stroke:#000000; stroke-linecap:round; stroke-linejoin:round; stroke-width:4; stroke-opacity:1; fill:none" points="
  432.874,1423.18 432.874,1404.28 
  "/>
<polyline clip-path="url(#clip620)" style="stroke:#000000; stroke-linecap:round; stroke-linejoin:round; stroke-width:4; stroke-opacity:1; fill:none" points="
  615.72,1423.18 615.72,1404.28 
  "/>
<polyline clip-path="url(#clip620)" style="stroke:#000000; stroke-linecap:round; stroke-linejoin:round; stroke-width:4; stroke-opacity:1; fill:none" points="
  798.566,1423.18 798.566,1404.28 
  "/>
<polyline clip-path="url(#clip620)" style="stroke:#000000; stroke-linecap:round; stroke-linejoin:round; stroke-width:4; stroke-opacity:1; fill:none" points="
  981.412,1423.18 981.412,1404.28 
  "/>
<polyline clip-path="url(#clip620)" style="stroke:#000000; stroke-linecap:round; stroke-linejoin:round; stroke-width:4; stroke-opacity:1; fill:none" points="
  1164.26,1423.18 1164.26,1404.28 
  "/>
<polyline clip-path="url(#clip620)" style="stroke:#000000; stroke-linecap:round; stroke-linejoin:round; stroke-width:4; stroke-opacity:1; fill:none" points="
  1347.1,1423.18 1347.1,1404.28 
  "/>
<polyline clip-path="url(#clip620)" style="stroke:#000000; stroke-linecap:round; stroke-linejoin:round; stroke-width:4; stroke-opacity:1; fill:none" points="
  1529.95,1423.18 1529.95,1404.28 
  "/>
<polyline clip-path="url(#clip620)" style="stroke:#000000; stroke-linecap:round; stroke-linejoin:round; stroke-width:4; stroke-opacity:1; fill:none" points="
  1712.8,1423.18 1712.8,1404.28 
  "/>
<polyline clip-path="url(#clip620)" style="stroke:#000000; stroke-linecap:round; stroke-linejoin:round; stroke-width:4; stroke-opacity:1; fill:none" points="
  1895.64,1423.18 1895.64,1404.28 
  "/>
<polyline clip-path="url(#clip620)" style="stroke:#000000; stroke-linecap:round; stroke-linejoin:round; stroke-width:4; stroke-opacity:1; fill:none" points="
  2078.49,1423.18 2078.49,1404.28 
  "/>
<polyline clip-path="url(#clip620)" style="stroke:#000000; stroke-linecap:round; stroke-linejoin:round; stroke-width:4; stroke-opacity:1; fill:none" points="
  2261.33,1423.18 2261.33,1404.28 
  "/>
<path clip-path="url(#clip620)" d="M423.256 1481.64 L430.895 1481.64 L430.895 1455.28 L422.585 1456.95 L422.585 1452.69 L430.849 1451.02 L435.524 1451.02 L435.524 1481.64 L443.163 1481.64 L443.163 1485.58 L423.256 1485.58 L423.256 1481.64 Z" fill="#000000" fill-rule="evenodd" fill-opacity="1" /><path clip-path="url(#clip620)" d="M619.968 1466.95 Q623.324 1467.66 625.199 1469.93 Q627.097 1472.2 627.097 1475.53 Q627.097 1480.65 623.579 1483.45 Q620.06 1486.25 613.579 1486.25 Q611.403 1486.25 609.088 1485.81 Q606.796 1485.39 604.343 1484.54 L604.343 1480.02 Q606.287 1481.16 608.602 1481.74 Q610.917 1482.32 613.44 1482.32 Q617.838 1482.32 620.13 1480.58 Q622.444 1478.84 622.444 1475.53 Q622.444 1472.48 620.292 1470.77 Q618.162 1469.03 614.343 1469.03 L610.315 1469.03 L610.315 1465.19 L614.528 1465.19 Q617.977 1465.19 619.806 1463.82 Q621.634 1462.43 621.634 1459.84 Q621.634 1457.18 619.736 1455.77 Q617.861 1454.33 614.343 1454.33 Q612.421 1454.33 610.222 1454.75 Q608.023 1455.16 605.384 1456.04 L605.384 1451.88 Q608.046 1451.14 610.361 1450.77 Q612.699 1450.39 614.759 1450.39 Q620.083 1450.39 623.185 1452.83 Q626.287 1455.23 626.287 1459.35 Q626.287 1462.22 624.643 1464.21 Q623 1466.18 619.968 1466.95 Z" fill="#000000" fill-rule="evenodd" fill-opacity="1" /><path clip-path="url(#clip620)" d="M788.844 1451.02 L807.2 1451.02 L807.2 1454.96 L793.126 1454.96 L793.126 1463.43 Q794.145 1463.08 795.163 1462.92 Q796.182 1462.73 797.2 1462.73 Q802.987 1462.73 806.367 1465.9 Q809.746 1469.08 809.746 1474.49 Q809.746 1480.07 806.274 1483.17 Q802.802 1486.25 796.482 1486.25 Q794.307 1486.25 792.038 1485.88 Q789.793 1485.51 787.385 1484.77 L787.385 1480.07 Q789.469 1481.2 791.691 1481.76 Q793.913 1482.32 796.39 1482.32 Q800.395 1482.32 802.732 1480.21 Q805.07 1478.1 805.07 1474.49 Q805.07 1470.88 802.732 1468.77 Q800.395 1466.67 796.39 1466.67 Q794.515 1466.67 792.64 1467.08 Q790.788 1467.5 788.844 1468.38 L788.844 1451.02 Z" fill="#000000" fill-rule="evenodd" fill-opacity="1" /><path clip-path="url(#clip620)" d="M970.301 1451.02 L992.523 1451.02 L992.523 1453.01 L979.977 1485.58 L975.092 1485.58 L986.898 1454.96 L970.301 1454.96 L970.301 1451.02 Z" fill="#000000" fill-rule="evenodd" fill-opacity="1" /><path clip-path="url(#clip620)" d="M1154.56 1484.86 L1154.56 1480.6 Q1156.32 1481.44 1158.12 1481.88 Q1159.93 1482.32 1161.67 1482.32 Q1166.29 1482.32 1168.73 1479.21 Q1171.18 1476.09 1171.53 1469.75 Q1170.18 1471.74 1168.12 1472.8 Q1166.06 1473.87 1163.56 1473.87 Q1158.38 1473.87 1155.35 1470.74 Q1152.34 1467.59 1152.34 1462.15 Q1152.34 1456.83 1155.48 1453.61 Q1158.63 1450.39 1163.86 1450.39 Q1169.86 1450.39 1173.01 1455 Q1176.18 1459.58 1176.18 1468.33 Q1176.18 1476.51 1172.29 1481.39 Q1168.42 1486.25 1161.87 1486.25 Q1160.11 1486.25 1158.31 1485.9 Q1156.5 1485.56 1154.56 1484.86 M1163.86 1470.21 Q1167.01 1470.21 1168.84 1468.06 Q1170.69 1465.9 1170.69 1462.15 Q1170.69 1458.43 1168.84 1456.27 Q1167.01 1454.1 1163.86 1454.1 Q1160.72 1454.1 1158.86 1456.27 Q1157.04 1458.43 1157.04 1462.15 Q1157.04 1465.9 1158.86 1468.06 Q1160.72 1470.21 1163.86 1470.21 Z" fill="#000000" fill-rule="evenodd" fill-opacity="1" /><path clip-path="url(#clip620)" d="M1322.4 1481.64 L1330.04 1481.64 L1330.04 1455.28 L1321.73 1456.95 L1321.73 1452.69 L1330 1451.02 L1334.67 1451.02 L1334.67 1481.64 L1342.31 1481.64 L1342.31 1485.58 L1322.4 1485.58 L1322.4 1481.64 Z" fill="#000000" fill-rule="evenodd" fill-opacity="1" /><path clip-path="url(#clip620)" d="M1352.57 1481.64 L1360.21 1481.64 L1360.21 1455.28 L1351.9 1456.95 L1351.9 1452.69 L1360.16 1451.02 L1364.83 1451.02 L1364.83 1481.64 L1372.47 1481.64 L1372.47 1485.58 L1352.57 1485.58 L1352.57 1481.64 Z" fill="#000000" fill-rule="evenodd" fill-opacity="1" /><path clip-path="url(#clip620)" d="M1504.96 1481.64 L1512.6 1481.64 L1512.6 1455.28 L1504.29 1456.95 L1504.29 1452.69 L1512.55 1451.02 L1517.23 1451.02 L1517.23 1481.64 L1524.87 1481.64 L1524.87 1485.58 L1504.96 1485.58 L1504.96 1481.64 Z" fill="#000000" fill-rule="evenodd" fill-opacity="1" /><path clip-path="url(#clip620)" d="M1548.48 1466.95 Q1551.84 1467.66 1553.71 1469.93 Q1555.61 1472.2 1555.61 1475.53 Q1555.61 1480.65 1552.09 1483.45 Q1548.57 1486.25 1542.09 1486.25 Q1539.91 1486.25 1537.6 1485.81 Q1535.31 1485.39 1532.85 1484.54 L1532.85 1480.02 Q1534.8 1481.16 1537.11 1481.74 Q1539.43 1482.32 1541.95 1482.32 Q1546.35 1482.32 1548.64 1480.58 Q1550.96 1478.84 1550.96 1475.53 Q1550.96 1472.48 1548.8 1470.77 Q1546.67 1469.03 1542.85 1469.03 L1538.83 1469.03 L1538.83 1465.19 L1543.04 1465.19 Q1546.49 1465.19 1548.32 1463.82 Q1550.15 1462.43 1550.15 1459.84 Q1550.15 1457.18 1548.25 1455.77 Q1546.37 1454.33 1542.85 1454.33 Q1540.93 1454.33 1538.73 1454.75 Q1536.54 1455.16 1533.9 1456.04 L1533.9 1451.88 Q1536.56 1451.14 1538.87 1450.77 Q1541.21 1450.39 1543.27 1450.39 Q1548.6 1450.39 1551.7 1452.83 Q1554.8 1455.23 1554.8 1459.35 Q1554.8 1462.22 1553.16 1464.21 Q1551.51 1466.18 1548.48 1466.95 Z" fill="#000000" fill-rule="evenodd" fill-opacity="1" /><path clip-path="url(#clip620)" d="M1687.98 1481.64 L1695.62 1481.64 L1695.62 1455.28 L1687.31 1456.95 L1687.31 1452.69 L1695.57 1451.02 L1700.25 1451.02 L1700.25 1481.64 L1707.89 1481.64 L1707.89 1485.58 L1687.98 1485.58 L1687.98 1481.64 Z" fill="#000000" fill-rule="evenodd" fill-opacity="1" /><path clip-path="url(#clip620)" d="M1717.38 1451.02 L1735.73 1451.02 L1735.73 1454.96 L1721.66 1454.96 L1721.66 1463.43 Q1722.68 1463.08 1723.7 1462.92 Q1724.72 1462.73 1725.74 1462.73 Q1731.52 1462.73 1734.9 1465.9 Q1738.28 1469.08 1738.28 1474.49 Q1738.28 1480.07 1734.81 1483.17 Q1731.34 1486.25 1725.02 1486.25 Q1722.84 1486.25 1720.57 1485.88 Q1718.33 1485.51 1715.92 1484.77 L1715.92 1480.07 Q1718 1481.2 1720.23 1481.76 Q1722.45 1482.32 1724.92 1482.32 Q1728.93 1482.32 1731.27 1480.21 Q1733.61 1478.1 1733.61 1474.49 Q1733.61 1470.88 1731.27 1468.77 Q1728.93 1466.67 1724.92 1466.67 Q1723.05 1466.67 1721.17 1467.08 Q1719.32 1467.5 1717.38 1468.38 L1717.38 1451.02 Z" fill="#000000" fill-rule="evenodd" fill-opacity="1" /><path clip-path="url(#clip620)" d="M1870.78 1481.64 L1878.42 1481.64 L1878.42 1455.28 L1870.11 1456.95 L1870.11 1452.69 L1878.37 1451.02 L1883.05 1451.02 L1883.05 1481.64 L1890.69 1481.64 L1890.69 1485.58 L1870.78 1485.58 L1870.78 1481.64 Z" fill="#000000" fill-rule="evenodd" fill-opacity="1" /><path clip-path="url(#clip620)" d="M1898.95 1451.02 L1921.17 1451.02 L1921.17 1453.01 L1908.63 1485.58 L1903.74 1485.58 L1915.55 1454.96 L1898.95 1454.96 L1898.95 1451.02 Z" fill="#000000" fill-rule="evenodd" fill-opacity="1" /><path clip-path="url(#clip620)" d="M2053.27 1481.64 L2060.91 1481.64 L2060.91 1455.28 L2052.6 1456.95 L2052.6 1452.69 L2060.86 1451.02 L2065.54 1451.02 L2065.54 1481.64 L2073.17 1481.64 L2073.17 1485.58 L2053.27 1485.58 L2053.27 1481.64 Z" fill="#000000" fill-rule="evenodd" fill-opacity="1" /><path clip-path="url(#clip620)" d="M2082.76 1484.86 L2082.76 1480.6 Q2084.52 1481.44 2086.32 1481.88 Q2088.13 1482.32 2089.86 1482.32 Q2094.49 1482.32 2096.92 1479.21 Q2099.38 1476.09 2099.73 1469.75 Q2098.38 1471.74 2096.32 1472.8 Q2094.26 1473.87 2091.76 1473.87 Q2086.58 1473.87 2083.54 1470.74 Q2080.54 1467.59 2080.54 1462.15 Q2080.54 1456.83 2083.68 1453.61 Q2086.83 1450.39 2092.06 1450.39 Q2098.06 1450.39 2101.21 1455 Q2104.38 1459.58 2104.38 1468.33 Q2104.38 1476.51 2100.49 1481.39 Q2096.62 1486.25 2090.07 1486.25 Q2088.31 1486.25 2086.51 1485.9 Q2084.7 1485.56 2082.76 1484.86 M2092.06 1470.21 Q2095.21 1470.21 2097.04 1468.06 Q2098.89 1465.9 2098.89 1462.15 Q2098.89 1458.43 2097.04 1456.27 Q2095.21 1454.1 2092.06 1454.1 Q2088.92 1454.1 2087.06 1456.27 Q2085.23 1458.43 2085.23 1462.15 Q2085.23 1465.9 2087.06 1468.06 Q2088.92 1470.21 2092.06 1470.21 Z" fill="#000000" fill-rule="evenodd" fill-opacity="1" /><path clip-path="url(#clip620)" d="M2240.72 1481.64 L2257.04 1481.64 L2257.04 1485.58 L2235.09 1485.58 L2235.09 1481.64 Q2237.76 1478.89 2242.34 1474.26 Q2246.95 1469.61 2248.13 1468.27 Q2250.37 1465.74 2251.25 1464.01 Q2252.15 1462.25 2252.15 1460.56 Q2252.15 1457.8 2250.21 1456.07 Q2248.29 1454.33 2245.19 1454.33 Q2242.99 1454.33 2240.53 1455.09 Q2238.1 1455.86 2235.33 1457.41 L2235.33 1452.69 Q2238.15 1451.55 2240.6 1450.97 Q2243.06 1450.39 2245.09 1450.39 Q2250.46 1450.39 2253.66 1453.08 Q2256.85 1455.77 2256.85 1460.26 Q2256.85 1462.39 2256.04 1464.31 Q2255.26 1466.2 2253.15 1468.8 Q2252.57 1469.47 2249.47 1472.69 Q2246.37 1475.88 2240.72 1481.64 Z" fill="#000000" fill-rule="evenodd" fill-opacity="1" /><path clip-path="url(#clip620)" d="M2267.66 1481.64 L2275.3 1481.64 L2275.3 1455.28 L2266.99 1456.95 L2266.99 1452.69 L2275.26 1451.02 L2279.93 1451.02 L2279.93 1481.64 L2287.57 1481.64 L2287.57 1485.58 L2267.66 1485.58 L2267.66 1481.64 Z" fill="#000000" fill-rule="evenodd" fill-opacity="1" /><path clip-path="url(#clip620)" d="M1130.27 1522.08 L1130.27 1528.35 Q1126.61 1526.6 1123.36 1525.74 Q1120.11 1524.88 1117.09 1524.88 Q1111.84 1524.88 1108.97 1526.92 Q1106.14 1528.96 1106.14 1532.71 Q1106.14 1535.87 1108.02 1537.49 Q1109.93 1539.08 1115.21 1540.07 L1119.09 1540.86 Q1126.29 1542.23 1129.69 1545.7 Q1133.13 1549.14 1133.13 1554.93 Q1133.13 1561.84 1128.48 1565.4 Q1123.87 1568.97 1114.92 1568.97 Q1111.55 1568.97 1107.73 1568.2 Q1103.94 1567.44 1099.87 1565.94 L1099.87 1559.32 Q1103.78 1561.52 1107.54 1562.63 Q1111.3 1563.75 1114.92 1563.75 Q1120.43 1563.75 1123.42 1561.58 Q1126.41 1559.42 1126.41 1555.41 Q1126.41 1551.91 1124.25 1549.93 Q1122.12 1547.96 1117.22 1546.97 L1113.3 1546.21 Q1106.11 1544.78 1102.89 1541.72 Q1099.68 1538.67 1099.68 1533.22 Q1099.68 1526.92 1104.1 1523.29 Q1108.56 1519.66 1116.36 1519.66 Q1119.7 1519.66 1123.17 1520.27 Q1126.64 1520.87 1130.27 1522.08 Z" fill="#000000" fill-rule="evenodd" fill-opacity="1" /><path clip-path="url(#clip620)" d="M1142.9 1532.4 L1148.76 1532.4 L1148.76 1568.04 L1142.9 1568.04 L1142.9 1532.4 M1142.9 1518.52 L1148.76 1518.52 L1148.76 1525.93 L1142.9 1525.93 L1142.9 1518.52 Z" fill="#000000" fill-rule="evenodd" fill-opacity="1" /><path clip-path="url(#clip620)" d="M1166.81 1522.27 L1166.81 1532.4 L1178.87 1532.4 L1178.87 1536.95 L1166.81 1536.95 L1166.81 1556.3 Q1166.81 1560.66 1167.98 1561.9 Q1169.19 1563.14 1172.85 1563.14 L1178.87 1563.14 L1178.87 1568.04 L1172.85 1568.04 Q1166.07 1568.04 1163.49 1565.53 Q1160.92 1562.98 1160.92 1556.3 L1160.92 1536.95 L1156.62 1536.95 L1156.62 1532.4 L1160.92 1532.4 L1160.92 1522.27 L1166.81 1522.27 Z" fill="#000000" fill-rule="evenodd" fill-opacity="1" /><path clip-path="url(#clip620)" d="M1217.06 1548.76 L1217.06 1551.62 L1190.14 1551.62 Q1190.52 1557.67 1193.76 1560.85 Q1197.04 1564 1202.87 1564 Q1206.24 1564 1209.39 1563.17 Q1212.57 1562.35 1215.69 1560.69 L1215.69 1566.23 Q1212.54 1567.57 1209.23 1568.27 Q1205.92 1568.97 1202.52 1568.97 Q1193.99 1568.97 1188.99 1564 Q1184.02 1559.04 1184.02 1550.57 Q1184.02 1541.82 1188.73 1536.69 Q1193.48 1531.54 1201.5 1531.54 Q1208.69 1531.54 1212.86 1536.18 Q1217.06 1540.8 1217.06 1548.76 M1211.21 1547.04 Q1211.14 1542.23 1208.5 1539.37 Q1205.89 1536.5 1201.56 1536.5 Q1196.66 1536.5 1193.7 1539.27 Q1190.77 1542.04 1190.33 1547.07 L1211.21 1547.04 Z" fill="#000000" fill-rule="evenodd" fill-opacity="1" /><path clip-path="url(#clip620)" d="M1247.65 1520.52 L1256.31 1520.52 L1277.38 1560.28 L1277.38 1520.52 L1283.62 1520.52 L1283.62 1568.04 L1274.96 1568.04 L1253.89 1528.29 L1253.89 1568.04 L1247.65 1568.04 L1247.65 1520.52 Z" fill="#000000" fill-rule="evenodd" fill-opacity="1" /><path clip-path="url(#clip620)" d="M1295.55 1553.98 L1295.55 1532.4 L1301.41 1532.4 L1301.41 1553.75 Q1301.41 1558.81 1303.38 1561.36 Q1305.35 1563.87 1309.3 1563.87 Q1314.04 1563.87 1316.78 1560.85 Q1319.55 1557.83 1319.55 1552.61 L1319.55 1532.4 L1325.41 1532.4 L1325.41 1568.04 L1319.55 1568.04 L1319.55 1562.57 Q1317.42 1565.82 1314.58 1567.41 Q1311.78 1568.97 1308.06 1568.97 Q1301.92 1568.97 1298.73 1565.15 Q1295.55 1561.33 1295.55 1553.98 M1310.29 1531.54 L1310.29 1531.54 Z" fill="#000000" fill-rule="evenodd" fill-opacity="1" /><path clip-path="url(#clip620)" d="M1365.22 1539.24 Q1367.42 1535.29 1370.48 1533.41 Q1373.53 1531.54 1377.67 1531.54 Q1383.24 1531.54 1386.26 1535.45 Q1389.29 1539.33 1389.29 1546.53 L1389.29 1568.04 L1383.4 1568.04 L1383.4 1546.72 Q1383.4 1541.59 1381.58 1539.11 Q1379.77 1536.63 1376.05 1536.63 Q1371.49 1536.63 1368.85 1539.65 Q1366.21 1542.68 1366.21 1547.9 L1366.21 1568.04 L1360.32 1568.04 L1360.32 1546.72 Q1360.32 1541.56 1358.51 1539.11 Q1356.69 1536.63 1352.91 1536.63 Q1348.42 1536.63 1345.78 1539.68 Q1343.14 1542.71 1343.14 1547.9 L1343.14 1568.04 L1337.25 1568.04 L1337.25 1532.4 L1343.14 1532.4 L1343.14 1537.93 Q1345.14 1534.66 1347.94 1533.1 Q1350.74 1531.54 1354.59 1531.54 Q1358.48 1531.54 1361.18 1533.51 Q1363.92 1535.48 1365.22 1539.24 Z" fill="#000000" fill-rule="evenodd" fill-opacity="1" /><path clip-path="url(#clip620)" d="M1426.56 1550.25 Q1426.56 1543.79 1423.88 1540.13 Q1421.24 1536.44 1416.6 1536.44 Q1411.95 1536.44 1409.27 1540.13 Q1406.63 1543.79 1406.63 1550.25 Q1406.63 1556.71 1409.27 1560.4 Q1411.95 1564.07 1416.6 1564.07 Q1421.24 1564.07 1423.88 1560.4 Q1426.56 1556.71 1426.56 1550.25 M1406.63 1537.81 Q1408.48 1534.62 1411.28 1533.1 Q1414.11 1531.54 1418.03 1531.54 Q1424.52 1531.54 1428.56 1536.69 Q1432.64 1541.85 1432.64 1550.25 Q1432.64 1558.65 1428.56 1563.81 Q1424.52 1568.97 1418.03 1568.97 Q1414.11 1568.97 1411.28 1567.44 Q1408.48 1565.88 1406.63 1562.7 L1406.63 1568.04 L1400.74 1568.04 L1400.74 1518.52 L1406.63 1518.52 L1406.63 1537.81 Z" fill="#000000" fill-rule="evenodd" fill-opacity="1" /><path clip-path="url(#clip620)" d="M1472.84 1548.76 L1472.84 1551.62 L1445.91 1551.62 Q1446.29 1557.67 1449.54 1560.85 Q1452.82 1564 1458.64 1564 Q1462.01 1564 1465.17 1563.17 Q1468.35 1562.35 1471.47 1560.69 L1471.47 1566.23 Q1468.32 1567.57 1465.01 1568.27 Q1461.7 1568.97 1458.29 1568.97 Q1449.76 1568.97 1444.76 1564 Q1439.8 1559.04 1439.8 1550.57 Q1439.8 1541.82 1444.51 1536.69 Q1449.25 1531.54 1457.27 1531.54 Q1464.47 1531.54 1468.64 1536.18 Q1472.84 1540.8 1472.84 1548.76 M1466.98 1547.04 Q1466.92 1542.23 1464.27 1539.37 Q1461.66 1536.5 1457.34 1536.5 Q1452.43 1536.5 1449.47 1539.27 Q1446.55 1542.04 1446.1 1547.07 L1466.98 1547.04 Z" fill="#000000" fill-rule="evenodd" fill-opacity="1" /><path clip-path="url(#clip620)" d="M1503.11 1537.87 Q1502.12 1537.3 1500.94 1537.04 Q1499.8 1536.76 1498.39 1536.76 Q1493.43 1536.76 1490.76 1540 Q1488.11 1543.22 1488.11 1549.27 L1488.11 1568.04 L1482.23 1568.04 L1482.23 1532.4 L1488.11 1532.4 L1488.11 1537.93 Q1489.96 1534.69 1492.92 1533.13 Q1495.88 1531.54 1500.11 1531.54 Q1500.72 1531.54 1501.45 1531.63 Q1502.18 1531.7 1503.07 1531.85 L1503.11 1537.87 Z" fill="#000000" fill-rule="evenodd" fill-opacity="1" /><polyline clip-path="url(#clip622)" style="stroke:#000000; stroke-linecap:round; stroke-linejoin:round; stroke-width:2; stroke-opacity:0.1; fill:none" points="
  250.028,1299.4 2352.76,1299.4 
  "/>
<polyline clip-path="url(#clip622)" style="stroke:#000000; stroke-linecap:round; stroke-linejoin:round; stroke-width:2; stroke-opacity:0.1; fill:none" points="
  250.028,1175.62 2352.76,1175.62 
  "/>
<polyline clip-path="url(#clip622)" style="stroke:#000000; stroke-linecap:round; stroke-linejoin:round; stroke-width:2; stroke-opacity:0.1; fill:none" points="
  250.028,1051.83 2352.76,1051.83 
  "/>
<polyline clip-path="url(#clip622)" style="stroke:#000000; stroke-linecap:round; stroke-linejoin:round; stroke-width:2; stroke-opacity:0.1; fill:none" points="
  250.028,928.053 2352.76,928.053 
  "/>
<polyline clip-path="url(#clip622)" style="stroke:#000000; stroke-linecap:round; stroke-linejoin:round; stroke-width:2; stroke-opacity:0.1; fill:none" points="
  250.028,804.271 2352.76,804.271 
  "/>
<polyline clip-path="url(#clip622)" style="stroke:#000000; stroke-linecap:round; stroke-linejoin:round; stroke-width:2; stroke-opacity:0.1; fill:none" points="
  250.028,680.49 2352.76,680.49 
  "/>
<polyline clip-path="url(#clip622)" style="stroke:#000000; stroke-linecap:round; stroke-linejoin:round; stroke-width:2; stroke-opacity:0.1; fill:none" points="
  250.028,556.708 2352.76,556.708 
  "/>
<polyline clip-path="url(#clip622)" style="stroke:#000000; stroke-linecap:round; stroke-linejoin:round; stroke-width:2; stroke-opacity:0.1; fill:none" points="
  250.028,432.926 2352.76,432.926 
  "/>
<polyline clip-path="url(#clip622)" style="stroke:#000000; stroke-linecap:round; stroke-linejoin:round; stroke-width:2; stroke-opacity:0.1; fill:none" points="
  250.028,309.145 2352.76,309.145 
  "/>
<polyline clip-path="url(#clip620)" style="stroke:#000000; stroke-linecap:round; stroke-linejoin:round; stroke-width:4; stroke-opacity:1; fill:none" points="
  250.028,1423.18 250.028,123.472 
  "/>
<polyline clip-path="url(#clip620)" style="stroke:#000000; stroke-linecap:round; stroke-linejoin:round; stroke-width:4; stroke-opacity:1; fill:none" points="
  250.028,1299.4 268.926,1299.4 
  "/>
<polyline clip-path="url(#clip620)" style="stroke:#000000; stroke-linecap:round; stroke-linejoin:round; stroke-width:4; stroke-opacity:1; fill:none" points="
  250.028,1175.62 268.926,1175.62 
  "/>
<polyline clip-path="url(#clip620)" style="stroke:#000000; stroke-linecap:round; stroke-linejoin:round; stroke-width:4; stroke-opacity:1; fill:none" points="
  250.028,1051.83 268.926,1051.83 
  "/>
<polyline clip-path="url(#clip620)" style="stroke:#000000; stroke-linecap:round; stroke-linejoin:round; stroke-width:4; stroke-opacity:1; fill:none" points="
  250.028,928.053 268.926,928.053 
  "/>
<polyline clip-path="url(#clip620)" style="stroke:#000000; stroke-linecap:round; stroke-linejoin:round; stroke-width:4; stroke-opacity:1; fill:none" points="
  250.028,804.271 268.926,804.271 
  "/>
<polyline clip-path="url(#clip620)" style="stroke:#000000; stroke-linecap:round; stroke-linejoin:round; stroke-width:4; stroke-opacity:1; fill:none" points="
  250.028,680.49 268.926,680.49 
  "/>
<polyline clip-path="url(#clip620)" style="stroke:#000000; stroke-linecap:round; stroke-linejoin:round; stroke-width:4; stroke-opacity:1; fill:none" points="
  250.028,556.708 268.926,556.708 
  "/>
<polyline clip-path="url(#clip620)" style="stroke:#000000; stroke-linecap:round; stroke-linejoin:round; stroke-width:4; stroke-opacity:1; fill:none" points="
  250.028,432.926 268.926,432.926 
  "/>
<polyline clip-path="url(#clip620)" style="stroke:#000000; stroke-linecap:round; stroke-linejoin:round; stroke-width:4; stroke-opacity:1; fill:none" points="
  250.028,309.145 268.926,309.145 
  "/>
<path clip-path="url(#clip620)" d="M126.691 1285.2 Q123.08 1285.2 121.251 1288.76 Q119.445 1292.3 119.445 1299.43 Q119.445 1306.54 121.251 1310.1 Q123.08 1313.65 126.691 1313.65 Q130.325 1313.65 132.13 1310.1 Q133.959 1306.54 133.959 1299.43 Q133.959 1292.3 132.13 1288.76 Q130.325 1285.2 126.691 1285.2 M126.691 1281.49 Q132.501 1281.49 135.556 1286.1 Q138.635 1290.68 138.635 1299.43 Q138.635 1308.16 135.556 1312.77 Q132.501 1317.35 126.691 1317.35 Q120.88 1317.35 117.802 1312.77 Q114.746 1308.16 114.746 1299.43 Q114.746 1290.68 117.802 1286.1 Q120.88 1281.49 126.691 1281.49 Z" fill="#000000" fill-rule="evenodd" fill-opacity="1" /><path clip-path="url(#clip620)" d="M146.853 1310.8 L151.737 1310.8 L151.737 1316.68 L146.853 1316.68 L146.853 1310.8 Z" fill="#000000" fill-rule="evenodd" fill-opacity="1" /><path clip-path="url(#clip620)" d="M161.968 1282.12 L180.325 1282.12 L180.325 1286.05 L166.251 1286.05 L166.251 1294.53 Q167.269 1294.18 168.288 1294.02 Q169.306 1293.83 170.325 1293.83 Q176.112 1293.83 179.491 1297 Q182.871 1300.17 182.871 1305.59 Q182.871 1311.17 179.399 1314.27 Q175.926 1317.35 169.607 1317.35 Q167.431 1317.35 165.163 1316.98 Q162.917 1316.61 160.51 1315.87 L160.51 1311.17 Q162.593 1312.3 164.815 1312.86 Q167.038 1313.41 169.514 1313.41 Q173.519 1313.41 175.857 1311.31 Q178.195 1309.2 178.195 1305.59 Q178.195 1301.98 175.857 1299.87 Q173.519 1297.77 169.514 1297.77 Q167.64 1297.77 165.765 1298.18 Q163.913 1298.6 161.968 1299.48 L161.968 1282.12 Z" fill="#000000" fill-rule="evenodd" fill-opacity="1" /><path clip-path="url(#clip620)" d="M202.084 1285.2 Q198.473 1285.2 196.644 1288.76 Q194.838 1292.3 194.838 1299.43 Q194.838 1306.54 196.644 1310.1 Q198.473 1313.65 202.084 1313.65 Q205.718 1313.65 207.524 1310.1 Q209.352 1306.54 209.352 1299.43 Q209.352 1292.3 207.524 1288.76 Q205.718 1285.2 202.084 1285.2 M202.084 1281.49 Q207.894 1281.49 210.949 1286.1 Q214.028 1290.68 214.028 1299.43 Q214.028 1308.16 210.949 1312.77 Q207.894 1317.35 202.084 1317.35 Q196.274 1317.35 193.195 1312.77 Q190.139 1308.16 190.139 1299.43 Q190.139 1290.68 193.195 1286.1 Q196.274 1281.49 202.084 1281.49 Z" fill="#000000" fill-rule="evenodd" fill-opacity="1" /><path clip-path="url(#clip620)" d="M128.288 1161.42 Q124.677 1161.42 122.848 1164.98 Q121.043 1168.52 121.043 1175.65 Q121.043 1182.76 122.848 1186.32 Q124.677 1189.86 128.288 1189.86 Q131.922 1189.86 133.728 1186.32 Q135.556 1182.76 135.556 1175.65 Q135.556 1168.52 133.728 1164.98 Q131.922 1161.42 128.288 1161.42 M128.288 1157.71 Q134.098 1157.71 137.154 1162.32 Q140.232 1166.9 140.232 1175.65 Q140.232 1184.38 137.154 1188.98 Q134.098 1193.57 128.288 1193.57 Q122.478 1193.57 119.399 1188.98 Q116.343 1184.38 116.343 1175.65 Q116.343 1166.9 119.399 1162.32 Q122.478 1157.71 128.288 1157.71 Z" fill="#000000" fill-rule="evenodd" fill-opacity="1" /><path clip-path="url(#clip620)" d="M148.45 1187.02 L153.334 1187.02 L153.334 1192.9 L148.45 1192.9 L148.45 1187.02 Z" fill="#000000" fill-rule="evenodd" fill-opacity="1" /><path clip-path="url(#clip620)" d="M163.565 1158.34 L181.922 1158.34 L181.922 1162.27 L167.848 1162.27 L167.848 1170.74 Q168.866 1170.4 169.885 1170.23 Q170.903 1170.05 171.922 1170.05 Q177.709 1170.05 181.089 1173.22 Q184.468 1176.39 184.468 1181.81 Q184.468 1187.39 180.996 1190.49 Q177.524 1193.57 171.204 1193.57 Q169.028 1193.57 166.76 1193.2 Q164.515 1192.83 162.107 1192.09 L162.107 1187.39 Q164.19 1188.52 166.413 1189.08 Q168.635 1189.63 171.112 1189.63 Q175.116 1189.63 177.454 1187.53 Q179.792 1185.42 179.792 1181.81 Q179.792 1178.2 177.454 1176.09 Q175.116 1173.98 171.112 1173.98 Q169.237 1173.98 167.362 1174.4 Q165.51 1174.82 163.565 1175.7 L163.565 1158.34 Z" fill="#000000" fill-rule="evenodd" fill-opacity="1" /><path clip-path="url(#clip620)" d="M197.709 1188.96 L214.028 1188.96 L214.028 1192.9 L192.084 1192.9 L192.084 1188.96 Q194.746 1186.21 199.329 1181.58 Q203.936 1176.92 205.116 1175.58 Q207.362 1173.06 208.241 1171.32 Q209.144 1169.56 209.144 1167.87 Q209.144 1165.12 207.199 1163.38 Q205.278 1161.65 202.176 1161.65 Q199.977 1161.65 197.524 1162.41 Q195.093 1163.17 192.315 1164.73 L192.315 1160 Q195.139 1158.87 197.593 1158.29 Q200.047 1157.71 202.084 1157.71 Q207.454 1157.71 210.649 1160.4 Q213.843 1163.08 213.843 1167.57 Q213.843 1169.7 213.033 1171.62 Q212.246 1173.52 210.139 1176.11 Q209.561 1176.79 206.459 1180 Q203.357 1183.2 197.709 1188.96 Z" fill="#000000" fill-rule="evenodd" fill-opacity="1" /><path clip-path="url(#clip620)" d="M126.205 1037.63 Q122.593 1037.63 120.765 1041.2 Q118.959 1044.74 118.959 1051.87 Q118.959 1058.98 120.765 1062.54 Q122.593 1066.08 126.205 1066.08 Q129.839 1066.08 131.644 1062.54 Q133.473 1058.98 133.473 1051.87 Q133.473 1044.74 131.644 1041.2 Q129.839 1037.63 126.205 1037.63 M126.205 1033.93 Q132.015 1033.93 135.07 1038.54 Q138.149 1043.12 138.149 1051.87 Q138.149 1060.6 135.07 1065.2 Q132.015 1069.79 126.205 1069.79 Q120.394 1069.79 117.316 1065.2 Q114.26 1060.6 114.26 1051.87 Q114.26 1043.12 117.316 1038.54 Q120.394 1033.93 126.205 1033.93 Z" fill="#000000" fill-rule="evenodd" fill-opacity="1" /><path clip-path="url(#clip620)" d="M146.366 1063.24 L151.251 1063.24 L151.251 1069.11 L146.366 1069.11 L146.366 1063.24 Z" fill="#000000" fill-rule="evenodd" fill-opacity="1" /><path clip-path="url(#clip620)" d="M161.482 1034.55 L179.839 1034.55 L179.839 1038.49 L165.765 1038.49 L165.765 1046.96 Q166.783 1046.61 167.802 1046.45 Q168.82 1046.27 169.839 1046.27 Q175.626 1046.27 179.005 1049.44 Q182.385 1052.61 182.385 1058.03 Q182.385 1063.61 178.913 1066.71 Q175.44 1069.79 169.121 1069.79 Q166.945 1069.79 164.677 1069.42 Q162.431 1069.05 160.024 1068.3 L160.024 1063.61 Q162.107 1064.74 164.329 1065.3 Q166.552 1065.85 169.028 1065.85 Q173.033 1065.85 175.371 1063.74 Q177.709 1061.64 177.709 1058.03 Q177.709 1054.42 175.371 1052.31 Q173.033 1050.2 169.028 1050.2 Q167.153 1050.2 165.278 1050.62 Q163.427 1051.04 161.482 1051.92 L161.482 1034.55 Z" fill="#000000" fill-rule="evenodd" fill-opacity="1" /><path clip-path="url(#clip620)" d="M204.445 1038.63 L192.639 1057.08 L204.445 1057.08 L204.445 1038.63 M203.218 1034.55 L209.098 1034.55 L209.098 1057.08 L214.028 1057.08 L214.028 1060.97 L209.098 1060.97 L209.098 1069.11 L204.445 1069.11 L204.445 1060.97 L188.843 1060.97 L188.843 1056.45 L203.218 1034.55 Z" fill="#000000" fill-rule="evenodd" fill-opacity="1" /><path clip-path="url(#clip620)" d="M126.529 913.852 Q122.918 913.852 121.089 917.417 Q119.283 920.958 119.283 928.088 Q119.283 935.194 121.089 938.759 Q122.918 942.301 126.529 942.301 Q130.163 942.301 131.968 938.759 Q133.797 935.194 133.797 928.088 Q133.797 920.958 131.968 917.417 Q130.163 913.852 126.529 913.852 M126.529 910.148 Q132.339 910.148 135.394 914.755 Q138.473 919.338 138.473 928.088 Q138.473 936.815 135.394 941.421 Q132.339 946.004 126.529 946.004 Q120.718 946.004 117.64 941.421 Q114.584 936.815 114.584 928.088 Q114.584 919.338 117.64 914.755 Q120.718 910.148 126.529 910.148 Z" fill="#000000" fill-rule="evenodd" fill-opacity="1" /><path clip-path="url(#clip620)" d="M146.691 939.453 L151.575 939.453 L151.575 945.333 L146.691 945.333 L146.691 939.453 Z" fill="#000000" fill-rule="evenodd" fill-opacity="1" /><path clip-path="url(#clip620)" d="M161.806 910.773 L180.163 910.773 L180.163 914.708 L166.089 914.708 L166.089 923.18 Q167.107 922.833 168.126 922.671 Q169.144 922.486 170.163 922.486 Q175.95 922.486 179.329 925.657 Q182.709 928.829 182.709 934.245 Q182.709 939.824 179.237 942.926 Q175.764 946.004 169.445 946.004 Q167.269 946.004 165.001 945.634 Q162.755 945.264 160.348 944.523 L160.348 939.824 Q162.431 940.958 164.653 941.514 Q166.876 942.069 169.352 942.069 Q173.357 942.069 175.695 939.963 Q178.033 937.856 178.033 934.245 Q178.033 930.634 175.695 928.528 Q173.357 926.421 169.352 926.421 Q167.477 926.421 165.602 926.838 Q163.751 927.254 161.806 928.134 L161.806 910.773 Z" fill="#000000" fill-rule="evenodd" fill-opacity="1" /><path clip-path="url(#clip620)" d="M202.5 926.19 Q199.352 926.19 197.5 928.342 Q195.672 930.495 195.672 934.245 Q195.672 937.972 197.5 940.148 Q199.352 942.301 202.5 942.301 Q205.649 942.301 207.477 940.148 Q209.329 937.972 209.329 934.245 Q209.329 930.495 207.477 928.342 Q205.649 926.19 202.5 926.19 M211.783 911.537 L211.783 915.796 Q210.024 914.963 208.218 914.523 Q206.436 914.083 204.676 914.083 Q200.047 914.083 197.593 917.208 Q195.163 920.333 194.815 926.653 Q196.181 924.639 198.241 923.574 Q200.301 922.486 202.778 922.486 Q207.987 922.486 210.996 925.657 Q214.028 928.805 214.028 934.245 Q214.028 939.569 210.88 942.787 Q207.732 946.004 202.5 946.004 Q196.505 946.004 193.334 941.421 Q190.163 936.815 190.163 928.088 Q190.163 919.893 194.051 915.032 Q197.94 910.148 204.491 910.148 Q206.25 910.148 208.033 910.495 Q209.838 910.843 211.783 911.537 Z" fill="#000000" fill-rule="evenodd" fill-opacity="1" /><path clip-path="url(#clip620)" d="M126.783 790.07 Q123.172 790.07 121.343 793.635 Q119.538 797.177 119.538 804.306 Q119.538 811.413 121.343 814.977 Q123.172 818.519 126.783 818.519 Q130.417 818.519 132.223 814.977 Q134.052 811.413 134.052 804.306 Q134.052 797.177 132.223 793.635 Q130.417 790.07 126.783 790.07 M126.783 786.366 Q132.593 786.366 135.649 790.973 Q138.728 795.556 138.728 804.306 Q138.728 813.033 135.649 817.639 Q132.593 822.223 126.783 822.223 Q120.973 822.223 117.894 817.639 Q114.839 813.033 114.839 804.306 Q114.839 795.556 117.894 790.973 Q120.973 786.366 126.783 786.366 Z" fill="#000000" fill-rule="evenodd" fill-opacity="1" /><path clip-path="url(#clip620)" d="M146.945 815.672 L151.829 815.672 L151.829 821.551 L146.945 821.551 L146.945 815.672 Z" fill="#000000" fill-rule="evenodd" fill-opacity="1" /><path clip-path="url(#clip620)" d="M162.061 786.991 L180.417 786.991 L180.417 790.927 L166.343 790.927 L166.343 799.399 Q167.362 799.052 168.38 798.889 Q169.399 798.704 170.417 798.704 Q176.204 798.704 179.584 801.876 Q182.963 805.047 182.963 810.464 Q182.963 816.042 179.491 819.144 Q176.019 822.223 169.7 822.223 Q167.524 822.223 165.255 821.852 Q163.01 821.482 160.603 820.741 L160.603 816.042 Q162.686 817.176 164.908 817.732 Q167.13 818.288 169.607 818.288 Q173.612 818.288 175.95 816.181 Q178.288 814.075 178.288 810.464 Q178.288 806.852 175.95 804.746 Q173.612 802.639 169.607 802.639 Q167.732 802.639 165.857 803.056 Q164.005 803.473 162.061 804.352 L162.061 786.991 Z" fill="#000000" fill-rule="evenodd" fill-opacity="1" /><path clip-path="url(#clip620)" d="M202.176 805.139 Q198.843 805.139 196.922 806.922 Q195.024 808.704 195.024 811.829 Q195.024 814.954 196.922 816.737 Q198.843 818.519 202.176 818.519 Q205.51 818.519 207.431 816.737 Q209.352 814.931 209.352 811.829 Q209.352 808.704 207.431 806.922 Q205.533 805.139 202.176 805.139 M197.5 803.149 Q194.491 802.408 192.801 800.348 Q191.135 798.288 191.135 795.325 Q191.135 791.181 194.075 788.774 Q197.037 786.366 202.176 786.366 Q207.338 786.366 210.278 788.774 Q213.218 791.181 213.218 795.325 Q213.218 798.288 211.528 800.348 Q209.861 802.408 206.875 803.149 Q210.255 803.936 212.13 806.227 Q214.028 808.519 214.028 811.829 Q214.028 816.852 210.949 819.538 Q207.894 822.223 202.176 822.223 Q196.459 822.223 193.38 819.538 Q190.325 816.852 190.325 811.829 Q190.325 808.519 192.223 806.227 Q194.121 803.936 197.5 803.149 M195.787 795.765 Q195.787 798.45 197.454 799.954 Q199.144 801.459 202.176 801.459 Q205.186 801.459 206.875 799.954 Q208.588 798.45 208.588 795.765 Q208.588 793.079 206.875 791.575 Q205.186 790.07 202.176 790.07 Q199.144 790.07 197.454 791.575 Q195.787 793.079 195.787 795.765 Z" fill="#000000" fill-rule="evenodd" fill-opacity="1" /><path clip-path="url(#clip620)" d="M126.691 666.288 Q123.08 666.288 121.251 669.853 Q119.445 673.395 119.445 680.524 Q119.445 687.631 121.251 691.196 Q123.08 694.737 126.691 694.737 Q130.325 694.737 132.13 691.196 Q133.959 687.631 133.959 680.524 Q133.959 673.395 132.13 669.853 Q130.325 666.288 126.691 666.288 M126.691 662.585 Q132.501 662.585 135.556 667.191 Q138.635 671.774 138.635 680.524 Q138.635 689.251 135.556 693.858 Q132.501 698.441 126.691 698.441 Q120.88 698.441 117.802 693.858 Q114.746 689.251 114.746 680.524 Q114.746 671.774 117.802 667.191 Q120.88 662.585 126.691 662.585 Z" fill="#000000" fill-rule="evenodd" fill-opacity="1" /><path clip-path="url(#clip620)" d="M146.853 691.89 L151.737 691.89 L151.737 697.77 L146.853 697.77 L146.853 691.89 Z" fill="#000000" fill-rule="evenodd" fill-opacity="1" /><path clip-path="url(#clip620)" d="M172.501 678.626 Q169.352 678.626 167.501 680.779 Q165.672 682.932 165.672 686.682 Q165.672 690.409 167.501 692.585 Q169.352 694.737 172.501 694.737 Q175.649 694.737 177.477 692.585 Q179.329 690.409 179.329 686.682 Q179.329 682.932 177.477 680.779 Q175.649 678.626 172.501 678.626 M181.783 663.974 L181.783 668.233 Q180.024 667.4 178.218 666.96 Q176.436 666.52 174.677 666.52 Q170.047 666.52 167.593 669.645 Q165.163 672.77 164.815 679.089 Q166.181 677.075 168.241 676.011 Q170.302 674.923 172.778 674.923 Q177.987 674.923 180.996 678.094 Q184.028 681.242 184.028 686.682 Q184.028 692.006 180.88 695.223 Q177.732 698.441 172.501 698.441 Q166.505 698.441 163.334 693.858 Q160.163 689.251 160.163 680.524 Q160.163 672.33 164.052 667.469 Q167.94 662.585 174.491 662.585 Q176.251 662.585 178.033 662.932 Q179.839 663.279 181.783 663.974 Z" fill="#000000" fill-rule="evenodd" fill-opacity="1" /><path clip-path="url(#clip620)" d="M202.084 666.288 Q198.473 666.288 196.644 669.853 Q194.838 673.395 194.838 680.524 Q194.838 687.631 196.644 691.196 Q198.473 694.737 202.084 694.737 Q205.718 694.737 207.524 691.196 Q209.352 687.631 209.352 680.524 Q209.352 673.395 207.524 669.853 Q205.718 666.288 202.084 666.288 M202.084 662.585 Q207.894 662.585 210.949 667.191 Q214.028 671.774 214.028 680.524 Q214.028 689.251 210.949 693.858 Q207.894 698.441 202.084 698.441 Q196.274 698.441 193.195 693.858 Q190.139 689.251 190.139 680.524 Q190.139 671.774 193.195 667.191 Q196.274 662.585 202.084 662.585 Z" fill="#000000" fill-rule="evenodd" fill-opacity="1" /><path clip-path="url(#clip620)" d="M128.288 542.507 Q124.677 542.507 122.848 546.072 Q121.043 549.613 121.043 556.743 Q121.043 563.849 122.848 567.414 Q124.677 570.956 128.288 570.956 Q131.922 570.956 133.728 567.414 Q135.556 563.849 135.556 556.743 Q135.556 549.613 133.728 546.072 Q131.922 542.507 128.288 542.507 M128.288 538.803 Q134.098 538.803 137.154 543.409 Q140.232 547.993 140.232 556.743 Q140.232 565.47 137.154 570.076 Q134.098 574.659 128.288 574.659 Q122.478 574.659 119.399 570.076 Q116.343 565.47 116.343 556.743 Q116.343 547.993 119.399 543.409 Q122.478 538.803 128.288 538.803 Z" fill="#000000" fill-rule="evenodd" fill-opacity="1" /><path clip-path="url(#clip620)" d="M148.45 568.108 L153.334 568.108 L153.334 573.988 L148.45 573.988 L148.45 568.108 Z" fill="#000000" fill-rule="evenodd" fill-opacity="1" /><path clip-path="url(#clip620)" d="M174.098 554.845 Q170.95 554.845 169.098 556.997 Q167.269 559.15 167.269 562.9 Q167.269 566.627 169.098 568.803 Q170.95 570.956 174.098 570.956 Q177.246 570.956 179.075 568.803 Q180.926 566.627 180.926 562.9 Q180.926 559.15 179.075 556.997 Q177.246 554.845 174.098 554.845 M183.38 540.192 L183.38 544.451 Q181.621 543.618 179.815 543.178 Q178.033 542.738 176.274 542.738 Q171.644 542.738 169.19 545.863 Q166.76 548.988 166.413 555.308 Q167.778 553.294 169.839 552.229 Q171.899 551.141 174.376 551.141 Q179.584 551.141 182.593 554.312 Q185.626 557.46 185.626 562.9 Q185.626 568.224 182.477 571.442 Q179.329 574.659 174.098 574.659 Q168.102 574.659 164.931 570.076 Q161.76 565.47 161.76 556.743 Q161.76 548.548 165.649 543.687 Q169.538 538.803 176.089 538.803 Q177.848 538.803 179.63 539.15 Q181.436 539.497 183.38 540.192 Z" fill="#000000" fill-rule="evenodd" fill-opacity="1" /><path clip-path="url(#clip620)" d="M197.709 570.053 L214.028 570.053 L214.028 573.988 L192.084 573.988 L192.084 570.053 Q194.746 567.298 199.329 562.669 Q203.936 558.016 205.116 556.673 Q207.362 554.15 208.241 552.414 Q209.144 550.655 209.144 548.965 Q209.144 546.21 207.199 544.474 Q205.278 542.738 202.176 542.738 Q199.977 542.738 197.524 543.502 Q195.093 544.266 192.315 545.817 L192.315 541.095 Q195.139 539.96 197.593 539.382 Q200.047 538.803 202.084 538.803 Q207.454 538.803 210.649 541.488 Q213.843 544.173 213.843 548.664 Q213.843 550.794 213.033 552.715 Q212.246 554.613 210.139 557.206 Q209.561 557.877 206.459 561.095 Q203.357 564.289 197.709 570.053 Z" fill="#000000" fill-rule="evenodd" fill-opacity="1" /><path clip-path="url(#clip620)" d="M126.205 418.725 Q122.593 418.725 120.765 422.29 Q118.959 425.831 118.959 432.961 Q118.959 440.068 120.765 443.632 Q122.593 447.174 126.205 447.174 Q129.839 447.174 131.644 443.632 Q133.473 440.068 133.473 432.961 Q133.473 425.831 131.644 422.29 Q129.839 418.725 126.205 418.725 M126.205 415.021 Q132.015 415.021 135.07 419.628 Q138.149 424.211 138.149 432.961 Q138.149 441.688 135.07 446.294 Q132.015 450.878 126.205 450.878 Q120.394 450.878 117.316 446.294 Q114.26 441.688 114.26 432.961 Q114.26 424.211 117.316 419.628 Q120.394 415.021 126.205 415.021 Z" fill="#000000" fill-rule="evenodd" fill-opacity="1" /><path clip-path="url(#clip620)" d="M146.366 444.327 L151.251 444.327 L151.251 450.206 L146.366 450.206 L146.366 444.327 Z" fill="#000000" fill-rule="evenodd" fill-opacity="1" /><path clip-path="url(#clip620)" d="M172.014 431.063 Q168.866 431.063 167.015 433.216 Q165.186 435.368 165.186 439.118 Q165.186 442.845 167.015 445.021 Q168.866 447.174 172.014 447.174 Q175.163 447.174 176.991 445.021 Q178.843 442.845 178.843 439.118 Q178.843 435.368 176.991 433.216 Q175.163 431.063 172.014 431.063 M181.297 416.41 L181.297 420.669 Q179.538 419.836 177.732 419.396 Q175.95 418.957 174.19 418.957 Q169.561 418.957 167.107 422.081 Q164.677 425.206 164.329 431.526 Q165.695 429.512 167.755 428.447 Q169.815 427.359 172.292 427.359 Q177.501 427.359 180.51 430.531 Q183.542 433.679 183.542 439.118 Q183.542 444.442 180.394 447.66 Q177.246 450.878 172.014 450.878 Q166.019 450.878 162.848 446.294 Q159.677 441.688 159.677 432.961 Q159.677 424.767 163.565 419.906 Q167.454 415.021 174.005 415.021 Q175.764 415.021 177.547 415.369 Q179.352 415.716 181.297 416.41 Z" fill="#000000" fill-rule="evenodd" fill-opacity="1" /><path clip-path="url(#clip620)" d="M204.445 419.72 L192.639 438.169 L204.445 438.169 L204.445 419.72 M203.218 415.646 L209.098 415.646 L209.098 438.169 L214.028 438.169 L214.028 442.058 L209.098 442.058 L209.098 450.206 L204.445 450.206 L204.445 442.058 L188.843 442.058 L188.843 437.544 L203.218 415.646 Z" fill="#000000" fill-rule="evenodd" fill-opacity="1" /><path clip-path="url(#clip620)" d="M126.529 294.943 Q122.918 294.943 121.089 298.508 Q119.283 302.05 119.283 309.179 Q119.283 316.286 121.089 319.851 Q122.918 323.392 126.529 323.392 Q130.163 323.392 131.968 319.851 Q133.797 316.286 133.797 309.179 Q133.797 302.05 131.968 298.508 Q130.163 294.943 126.529 294.943 M126.529 291.24 Q132.339 291.24 135.394 295.846 Q138.473 300.429 138.473 309.179 Q138.473 317.906 135.394 322.513 Q132.339 327.096 126.529 327.096 Q120.718 327.096 117.64 322.513 Q114.584 317.906 114.584 309.179 Q114.584 300.429 117.64 295.846 Q120.718 291.24 126.529 291.24 Z" fill="#000000" fill-rule="evenodd" fill-opacity="1" /><path clip-path="url(#clip620)" d="M146.691 320.545 L151.575 320.545 L151.575 326.425 L146.691 326.425 L146.691 320.545 Z" fill="#000000" fill-rule="evenodd" fill-opacity="1" /><path clip-path="url(#clip620)" d="M172.339 307.281 Q169.19 307.281 167.339 309.434 Q165.51 311.587 165.51 315.337 Q165.51 319.064 167.339 321.239 Q169.19 323.392 172.339 323.392 Q175.487 323.392 177.315 321.239 Q179.167 319.064 179.167 315.337 Q179.167 311.587 177.315 309.434 Q175.487 307.281 172.339 307.281 M181.621 292.629 L181.621 296.888 Q179.862 296.054 178.056 295.615 Q176.274 295.175 174.514 295.175 Q169.885 295.175 167.431 298.3 Q165.001 301.425 164.653 307.744 Q166.019 305.73 168.079 304.666 Q170.139 303.578 172.616 303.578 Q177.825 303.578 180.834 306.749 Q183.866 309.897 183.866 315.337 Q183.866 320.661 180.718 323.878 Q177.57 327.096 172.339 327.096 Q166.343 327.096 163.172 322.513 Q160.001 317.906 160.001 309.179 Q160.001 300.985 163.89 296.124 Q167.778 291.24 174.329 291.24 Q176.089 291.24 177.871 291.587 Q179.676 291.934 181.621 292.629 Z" fill="#000000" fill-rule="evenodd" fill-opacity="1" /><path clip-path="url(#clip620)" d="M202.5 307.281 Q199.352 307.281 197.5 309.434 Q195.672 311.587 195.672 315.337 Q195.672 319.064 197.5 321.239 Q199.352 323.392 202.5 323.392 Q205.649 323.392 207.477 321.239 Q209.329 319.064 209.329 315.337 Q209.329 311.587 207.477 309.434 Q205.649 307.281 202.5 307.281 M211.783 292.629 L211.783 296.888 Q210.024 296.054 208.218 295.615 Q206.436 295.175 204.676 295.175 Q200.047 295.175 197.593 298.3 Q195.163 301.425 194.815 307.744 Q196.181 305.73 198.241 304.666 Q200.301 303.578 202.778 303.578 Q207.987 303.578 210.996 306.749 Q214.028 309.897 214.028 315.337 Q214.028 320.661 210.88 323.878 Q207.732 327.096 202.5 327.096 Q196.505 327.096 193.334 322.513 Q190.163 317.906 190.163 309.179 Q190.163 300.985 194.051 296.124 Q197.94 291.24 204.491 291.24 Q206.25 291.24 208.033 291.587 Q209.838 291.934 211.783 292.629 Z" fill="#000000" fill-rule="evenodd" fill-opacity="1" /><path clip-path="url(#clip620)" d="M16.4842 987.834 L16.4842 981.405 L64.0042 981.405 L64.0042 987.834 L16.4842 987.834 Z" fill="#000000" fill-rule="evenodd" fill-opacity="1" /><path clip-path="url(#clip620)" d="M42.4881 939.232 L64.0042 939.232 L64.0042 945.089 L42.679 945.089 Q37.6183 945.089 35.1038 947.062 Q32.5894 949.035 32.5894 952.982 Q32.5894 957.725 35.6131 960.462 Q38.6368 963.199 43.8567 963.199 L64.0042 963.199 L64.0042 969.087 L28.3562 969.087 L28.3562 963.199 L33.8944 963.199 Q30.6797 961.098 29.0883 958.266 Q27.4968 955.401 27.4968 951.677 Q27.4968 945.534 31.3163 942.383 Q35.1038 939.232 42.4881 939.232 Z" fill="#000000" fill-rule="evenodd" fill-opacity="1" /><path clip-path="url(#clip620)" d="M42.4881 897.919 L64.0042 897.919 L64.0042 903.775 L42.679 903.775 Q37.6183 903.775 35.1038 905.749 Q32.5894 907.722 32.5894 911.669 Q32.5894 916.411 35.6131 919.148 Q38.6368 921.886 43.8567 921.886 L64.0042 921.886 L64.0042 927.774 L28.3562 927.774 L28.3562 921.886 L33.8944 921.886 Q30.6797 919.785 29.0883 916.952 Q27.4968 914.088 27.4968 910.364 Q27.4968 904.221 31.3163 901.07 Q35.1038 897.919 42.4881 897.919 Z" fill="#000000" fill-rule="evenodd" fill-opacity="1" /><path clip-path="url(#clip620)" d="M44.7161 855.746 L47.5806 855.746 L47.5806 882.673 Q53.6281 882.291 56.8109 879.044 Q59.9619 875.766 59.9619 869.941 Q59.9619 866.568 59.1344 863.417 Q58.3069 860.234 56.6518 857.115 L62.1899 857.115 Q63.5267 860.266 64.227 863.576 Q64.9272 866.886 64.9272 870.292 Q64.9272 878.822 59.9619 883.819 Q54.9967 888.784 46.5303 888.784 Q37.7774 888.784 32.6531 884.073 Q27.4968 879.331 27.4968 871.31 Q27.4968 864.117 32.1438 859.947 Q36.7589 855.746 44.7161 855.746 M42.9973 861.602 Q38.1912 861.666 35.3266 864.308 Q32.4621 866.918 32.4621 871.246 Q32.4621 876.148 35.2312 879.108 Q38.0002 882.036 43.0292 882.482 L42.9973 861.602 Z" fill="#000000" fill-rule="evenodd" fill-opacity="1" /><path clip-path="url(#clip620)" d="M33.8307 825.477 Q33.2578 826.464 33.0032 827.641 Q32.7167 828.787 32.7167 830.188 Q32.7167 835.153 35.9632 837.827 Q39.1779 840.468 45.2253 840.468 L64.0042 840.468 L64.0042 846.357 L28.3562 846.357 L28.3562 840.468 L33.8944 840.468 Q30.6479 838.622 29.0883 835.662 Q27.4968 832.702 27.4968 828.469 Q27.4968 827.864 27.5923 827.132 Q27.656 826.4 27.8151 825.509 L33.8307 825.477 Z" fill="#000000" fill-rule="evenodd" fill-opacity="1" /><path clip-path="url(#clip620)" d="M21.7677 791.93 L39.6235 791.93 L39.6235 783.845 Q39.6235 779.357 37.3 776.907 Q34.9765 774.456 30.6797 774.456 Q26.4147 774.456 24.0912 776.907 Q21.7677 779.357 21.7677 783.845 L21.7677 791.93 M16.4842 798.359 L16.4842 783.845 Q16.4842 775.856 20.1126 771.782 Q23.7092 767.676 30.6797 767.676 Q37.7138 767.676 41.3104 771.782 Q44.907 775.856 44.907 783.845 L44.907 791.93 L64.0042 791.93 L64.0042 798.359 L16.4842 798.359 Z" fill="#000000" fill-rule="evenodd" fill-opacity="1" /><path clip-path="url(#clip620)" d="M33.8307 739.795 Q33.2578 740.781 33.0032 741.959 Q32.7167 743.105 32.7167 744.505 Q32.7167 749.47 35.9632 752.144 Q39.1779 754.786 45.2253 754.786 L64.0042 754.786 L64.0042 760.674 L28.3562 760.674 L28.3562 754.786 L33.8944 754.786 Q30.6479 752.94 29.0883 749.98 Q27.4968 747.02 27.4968 742.787 Q27.4968 742.182 27.5923 741.45 Q27.656 740.718 27.8151 739.826 L33.8307 739.795 Z" fill="#000000" fill-rule="evenodd" fill-opacity="1" /><path clip-path="url(#clip620)" d="M32.4621 721.27 Q32.4621 725.981 36.1542 728.718 Q39.8145 731.456 46.212 731.456 Q52.6095 731.456 56.3017 728.75 Q59.9619 726.013 59.9619 721.27 Q59.9619 716.592 56.2698 713.854 Q52.5777 711.117 46.212 711.117 Q39.8781 711.117 36.186 713.854 Q32.4621 716.592 32.4621 721.27 M27.4968 721.27 Q27.4968 713.632 32.4621 709.271 Q37.4273 704.911 46.212 704.911 Q54.9649 704.911 59.9619 709.271 Q64.9272 713.632 64.9272 721.27 Q64.9272 728.941 59.9619 733.302 Q54.9649 737.63 46.212 737.63 Q37.4273 737.63 32.4621 733.302 Q27.4968 728.941 27.4968 721.27 Z" fill="#000000" fill-rule="evenodd" fill-opacity="1" /><path clip-path="url(#clip620)" d="M33.7671 671.745 L14.479 671.745 L14.479 665.889 L64.0042 665.889 L64.0042 671.745 L58.657 671.745 Q61.8398 673.591 63.3994 676.424 Q64.9272 679.225 64.9272 683.172 Q64.9272 689.633 59.771 693.707 Q54.6147 697.749 46.212 697.749 Q37.8093 697.749 32.6531 693.707 Q27.4968 689.633 27.4968 683.172 Q27.4968 679.225 29.0564 676.424 Q30.5842 673.591 33.7671 671.745 M46.212 691.702 Q52.6732 691.702 56.3653 689.06 Q60.0256 686.386 60.0256 681.739 Q60.0256 677.092 56.3653 674.419 Q52.6732 671.745 46.212 671.745 Q39.7508 671.745 36.0905 674.419 Q32.3984 677.092 32.3984 681.739 Q32.3984 686.386 36.0905 689.06 Q39.7508 691.702 46.212 691.702 Z" fill="#000000" fill-rule="evenodd" fill-opacity="1" /><path clip-path="url(#clip620)" d="M49.9359 654.43 L28.3562 654.43 L28.3562 648.574 L49.7131 648.574 Q54.7739 648.574 57.3202 646.601 Q59.8346 644.627 59.8346 640.681 Q59.8346 635.938 56.8109 633.201 Q53.7872 630.432 48.5673 630.432 L28.3562 630.432 L28.3562 624.575 L64.0042 624.575 L64.0042 630.432 L58.5296 630.432 Q61.7762 632.564 63.3676 635.397 Q64.9272 638.198 64.9272 641.922 Q64.9272 648.065 61.1078 651.248 Q57.2883 654.43 49.9359 654.43 M27.4968 639.694 L27.4968 639.694 Z" fill="#000000" fill-rule="evenodd" fill-opacity="1" /><path clip-path="url(#clip620)" d="M29.7248 586.859 L35.1993 586.859 Q33.8307 589.341 33.1623 591.856 Q32.4621 594.338 32.4621 596.885 Q32.4621 602.582 36.0905 605.733 Q39.6872 608.884 46.212 608.884 Q52.7369 608.884 56.3653 605.733 Q59.9619 602.582 59.9619 596.885 Q59.9619 594.338 59.2935 591.856 Q58.5933 589.341 57.2247 586.859 L62.6355 586.859 Q63.7814 589.309 64.3543 591.951 Q64.9272 594.561 64.9272 597.521 Q64.9272 605.574 59.8664 610.316 Q54.8057 615.059 46.212 615.059 Q37.491 615.059 32.4939 610.284 Q27.4968 605.478 27.4968 597.139 Q27.4968 594.434 28.0697 591.856 Q28.6108 589.277 29.7248 586.859 Z" fill="#000000" fill-rule="evenodd" fill-opacity="1" /><path clip-path="url(#clip620)" d="M18.2347 570.881 L28.3562 570.881 L28.3562 558.818 L32.9077 558.818 L32.9077 570.881 L52.2594 570.881 Q56.6199 570.881 57.8613 569.703 Q59.1026 568.493 59.1026 564.833 L59.1026 558.818 L64.0042 558.818 L64.0042 564.833 Q64.0042 571.613 61.4897 574.191 Q58.9434 576.769 52.2594 576.769 L32.9077 576.769 L32.9077 581.066 L28.3562 581.066 L28.3562 576.769 L18.2347 576.769 L18.2347 570.881 Z" fill="#000000" fill-rule="evenodd" fill-opacity="1" /><path clip-path="url(#clip620)" d="M1170.97 17.6457 Q1162.06 17.6457 1156.79 24.2892 Q1151.57 30.9327 1151.57 42.3968 Q1151.57 53.8203 1156.79 60.4638 Q1162.06 67.1073 1170.97 67.1073 Q1179.89 67.1073 1185.07 60.4638 Q1190.3 53.8203 1190.3 42.3968 Q1190.3 30.9327 1185.07 24.2892 Q1179.89 17.6457 1170.97 17.6457 M1170.97 11.0023 Q1183.69 11.0023 1191.31 19.5497 Q1198.92 28.0566 1198.92 42.3968 Q1198.92 56.6965 1191.31 65.2439 Q1183.69 73.7508 1170.97 73.7508 Q1158.21 73.7508 1150.56 65.2439 Q1142.94 56.737 1142.94 42.3968 Q1142.94 28.0566 1150.56 19.5497 Q1158.21 11.0023 1170.97 11.0023 Z" fill="#000000" fill-rule="evenodd" fill-opacity="1" /><path clip-path="url(#clip620)" d="M1206.05 27.2059 L1213.95 27.2059 L1228.13 65.2844 L1242.31 27.2059 L1250.21 27.2059 L1233.2 72.576 L1223.07 72.576 L1206.05 27.2059 Z" fill="#000000" fill-rule="evenodd" fill-opacity="1" /><path clip-path="url(#clip620)" d="M1299.31 48.0275 L1299.31 51.6733 L1265.04 51.6733 Q1265.52 59.3701 1269.65 63.421 Q1273.83 67.4314 1281.24 67.4314 Q1285.53 67.4314 1289.54 66.3781 Q1293.59 65.3249 1297.56 63.2184 L1297.56 70.267 Q1293.55 71.9684 1289.34 72.8596 Q1285.13 73.7508 1280.79 73.7508 Q1269.94 73.7508 1263.58 67.4314 Q1257.26 61.1119 1257.26 50.3365 Q1257.26 39.1965 1263.25 32.6746 Q1269.29 26.1121 1279.5 26.1121 Q1288.65 26.1121 1293.96 32.0264 Q1299.31 37.9003 1299.31 48.0275 M1291.85 45.84 Q1291.77 39.7232 1288.41 36.0774 Q1285.09 32.4315 1279.58 32.4315 Q1273.34 32.4315 1269.57 35.9558 Q1265.85 39.4801 1265.28 45.8805 L1291.85 45.84 Z" fill="#000000" fill-rule="evenodd" fill-opacity="1" /><path clip-path="url(#clip620)" d="M1337.83 34.1734 Q1336.57 33.4443 1335.08 33.1202 Q1333.62 32.7556 1331.83 32.7556 Q1325.52 32.7556 1322.11 36.8875 Q1318.75 40.9789 1318.75 48.6757 L1318.75 72.576 L1311.26 72.576 L1311.26 27.2059 L1318.75 27.2059 L1318.75 34.2544 Q1321.1 30.1225 1324.87 28.1376 Q1328.63 26.1121 1334.02 26.1121 Q1334.79 26.1121 1335.72 26.2337 Q1336.66 26.3147 1337.79 26.5172 L1337.83 34.1734 Z" fill="#000000" fill-rule="evenodd" fill-opacity="1" /><path clip-path="url(#clip620)" d="M1345.65 9.54393 L1353.1 9.54393 L1353.1 72.576 L1345.65 72.576 L1345.65 9.54393 Z" fill="#000000" fill-rule="evenodd" fill-opacity="1" /><path clip-path="url(#clip620)" d="M1389.32 49.7694 Q1380.28 49.7694 1376.8 51.8354 Q1373.32 53.9013 1373.32 58.8839 Q1373.32 62.8538 1375.91 65.2034 Q1378.54 67.5124 1383.04 67.5124 Q1389.24 67.5124 1392.96 63.1374 Q1396.73 58.7219 1396.73 51.4303 L1396.73 49.7694 L1389.32 49.7694 M1404.18 46.6907 L1404.18 72.576 L1396.73 72.576 L1396.73 65.6895 Q1394.18 69.8214 1390.37 71.8063 Q1386.56 73.7508 1381.05 73.7508 Q1374.09 73.7508 1369.95 69.8619 Q1365.86 65.9325 1365.86 59.3701 Q1365.86 51.7138 1370.97 47.825 Q1376.11 43.9361 1386.28 43.9361 L1396.73 43.9361 L1396.73 43.2069 Q1396.73 38.0623 1393.33 35.2672 Q1389.97 32.4315 1383.85 32.4315 Q1379.96 32.4315 1376.27 33.3632 Q1372.59 34.295 1369.18 36.1584 L1369.18 29.2718 Q1373.28 27.692 1377.12 26.9223 Q1380.97 26.1121 1384.62 26.1121 Q1394.46 26.1121 1399.32 31.2163 Q1404.18 36.3204 1404.18 46.6907 Z" fill="#000000" fill-rule="evenodd" fill-opacity="1" /><path clip-path="url(#clip620)" d="M1426.75 65.7705 L1426.75 89.8329 L1419.25 89.8329 L1419.25 27.2059 L1426.75 27.2059 L1426.75 34.0924 Q1429.1 30.0415 1432.66 28.0971 Q1436.27 26.1121 1441.25 26.1121 Q1449.51 26.1121 1454.66 32.6746 Q1459.84 39.2371 1459.84 49.9314 Q1459.84 60.6258 1454.66 67.1883 Q1449.51 73.7508 1441.25 73.7508 Q1436.27 73.7508 1432.66 71.8063 Q1429.1 69.8214 1426.75 65.7705 M1452.11 49.9314 Q1452.11 41.7081 1448.7 37.0496 Q1445.34 32.3505 1439.43 32.3505 Q1433.51 32.3505 1430.11 37.0496 Q1426.75 41.7081 1426.75 49.9314 Q1426.75 58.1548 1430.11 62.8538 Q1433.51 67.5124 1439.43 67.5124 Q1445.34 67.5124 1448.7 62.8538 Q1452.11 58.1548 1452.11 49.9314 Z" fill="#000000" fill-rule="evenodd" fill-opacity="1" /><polyline clip-path="url(#clip622)" style="stroke:#000000; stroke-linecap:round; stroke-linejoin:round; stroke-width:4; stroke-opacity:1; fill:none" points="
  432.874,353.529 432.874,353.529 
  "/>
<polyline clip-path="url(#clip622)" style="stroke:#000000; stroke-linecap:round; stroke-linejoin:round; stroke-width:4; stroke-opacity:1; fill:none" points="
  524.297,837.675 524.297,837.675 
  "/>
<polyline clip-path="url(#clip622)" style="stroke:#000000; stroke-linecap:round; stroke-linejoin:round; stroke-width:4; stroke-opacity:1; fill:none" points="
  615.72,419.563 615.72,419.563 
  "/>
<polyline clip-path="url(#clip622)" style="stroke:#000000; stroke-linecap:round; stroke-linejoin:round; stroke-width:4; stroke-opacity:1; fill:none" points="
  707.143,791.965 707.143,791.964 
  "/>
<polyline clip-path="url(#clip622)" style="stroke:#000000; stroke-linecap:round; stroke-linejoin:round; stroke-width:4; stroke-opacity:1; fill:none" points="
  798.566,424.525 798.566,424.525 
  "/>
<polyline clip-path="url(#clip622)" style="stroke:#000000; stroke-linecap:round; stroke-linejoin:round; stroke-width:4; stroke-opacity:1; fill:none" points="
  889.989,774.24 889.989,773.775 
  "/>
<polyline clip-path="url(#clip622)" style="stroke:#000000; stroke-linecap:round; stroke-linejoin:round; stroke-width:4; stroke-opacity:1; fill:none" points="
  981.412,442.39 981.412,442.39 
  "/>
<polyline clip-path="url(#clip622)" style="stroke:#000000; stroke-linecap:round; stroke-linejoin:round; stroke-width:4; stroke-opacity:1; fill:none" points="
  1072.83,774.22 1072.83,773.113 
  "/>
<polyline clip-path="url(#clip622)" style="stroke:#000000; stroke-linecap:round; stroke-linejoin:round; stroke-width:4; stroke-opacity:1; fill:none" points="
  1164.26,486.201 1164.26,486.2 
  "/>
<polyline clip-path="url(#clip622)" style="stroke:#000000; stroke-linecap:round; stroke-linejoin:round; stroke-width:4; stroke-opacity:1; fill:none" points="
  1255.68,827.829 1255.68,799.123 
  "/>
<polyline clip-path="url(#clip622)" style="stroke:#000000; stroke-linecap:round; stroke-linejoin:round; stroke-width:4; stroke-opacity:1; fill:none" points="
  1347.1,374.34 1347.1,373.31 
  "/>
<polyline clip-path="url(#clip622)" style="stroke:#000000; stroke-linecap:round; stroke-linejoin:round; stroke-width:4; stroke-opacity:1; fill:none" points="
  1438.53,790.6 1438.53,772.594 
  "/>
<polyline clip-path="url(#clip622)" style="stroke:#000000; stroke-linecap:round; stroke-linejoin:round; stroke-width:4; stroke-opacity:1; fill:none" points="
  1529.95,537.265 1529.95,533.178 
  "/>
<polyline clip-path="url(#clip622)" style="stroke:#000000; stroke-linecap:round; stroke-linejoin:round; stroke-width:4; stroke-opacity:1; fill:none" points="
  1621.37,1043.64 1621.37,980.264 
  "/>
<polyline clip-path="url(#clip622)" style="stroke:#000000; stroke-linecap:round; stroke-linejoin:round; stroke-width:4; stroke-opacity:1; fill:none" points="
  1712.8,617.67 1712.8,575.149 
  "/>
<polyline clip-path="url(#clip622)" style="stroke:#000000; stroke-linecap:round; stroke-linejoin:round; stroke-width:4; stroke-opacity:1; fill:none" points="
  1804.22,1252.36 1804.22,1199.84 
  "/>
<polyline clip-path="url(#clip622)" style="stroke:#000000; stroke-linecap:round; stroke-linejoin:round; stroke-width:4; stroke-opacity:1; fill:none" points="
  1895.64,587.456 1895.64,505.943 
  "/>
<polyline clip-path="url(#clip622)" style="stroke:#000000; stroke-linecap:round; stroke-linejoin:round; stroke-width:4; stroke-opacity:1; fill:none" points="
  1987.06,902.233 1987.06,865.586 
  "/>
<line clip-path="url(#clip622)" x1="440.874" y1="353.529" x2="424.874" y2="353.529" style="stroke:#000000; stroke-width:3.2; stroke-opacity:1"/>
<line clip-path="url(#clip622)" x1="440.874" y1="353.529" x2="424.874" y2="353.529" style="stroke:#000000; stroke-width:3.2; stroke-opacity:1"/>
<line clip-path="url(#clip622)" x1="532.297" y1="837.675" x2="516.297" y2="837.675" style="stroke:#000000; stroke-width:3.2; stroke-opacity:1"/>
<line clip-path="url(#clip622)" x1="532.297" y1="837.675" x2="516.297" y2="837.675" style="stroke:#000000; stroke-width:3.2; stroke-opacity:1"/>
<line clip-path="url(#clip622)" x1="623.72" y1="419.563" x2="607.72" y2="419.563" style="stroke:#000000; stroke-width:3.2; stroke-opacity:1"/>
<line clip-path="url(#clip622)" x1="623.72" y1="419.563" x2="607.72" y2="419.563" style="stroke:#000000; stroke-width:3.2; stroke-opacity:1"/>
<line clip-path="url(#clip622)" x1="715.143" y1="791.965" x2="699.143" y2="791.965" style="stroke:#000000; stroke-width:3.2; stroke-opacity:1"/>
<line clip-path="url(#clip622)" x1="715.143" y1="791.964" x2="699.143" y2="791.964" style="stroke:#000000; stroke-width:3.2; stroke-opacity:1"/>
<line clip-path="url(#clip622)" x1="806.566" y1="424.525" x2="790.566" y2="424.525" style="stroke:#000000; stroke-width:3.2; stroke-opacity:1"/>
<line clip-path="url(#clip622)" x1="806.566" y1="424.525" x2="790.566" y2="424.525" style="stroke:#000000; stroke-width:3.2; stroke-opacity:1"/>
<line clip-path="url(#clip622)" x1="897.989" y1="774.24" x2="881.989" y2="774.24" style="stroke:#000000; stroke-width:3.2; stroke-opacity:1"/>
<line clip-path="url(#clip622)" x1="897.989" y1="773.775" x2="881.989" y2="773.775" style="stroke:#000000; stroke-width:3.2; stroke-opacity:1"/>
<line clip-path="url(#clip622)" x1="989.412" y1="442.39" x2="973.412" y2="442.39" style="stroke:#000000; stroke-width:3.2; stroke-opacity:1"/>
<line clip-path="url(#clip622)" x1="989.412" y1="442.39" x2="973.412" y2="442.39" style="stroke:#000000; stroke-width:3.2; stroke-opacity:1"/>
<line clip-path="url(#clip622)" x1="1080.83" y1="774.22" x2="1064.83" y2="774.22" style="stroke:#000000; stroke-width:3.2; stroke-opacity:1"/>
<line clip-path="url(#clip622)" x1="1080.83" y1="773.113" x2="1064.83" y2="773.113" style="stroke:#000000; stroke-width:3.2; stroke-opacity:1"/>
<line clip-path="url(#clip622)" x1="1172.26" y1="486.201" x2="1156.26" y2="486.201" style="stroke:#000000; stroke-width:3.2; stroke-opacity:1"/>
<line clip-path="url(#clip622)" x1="1172.26" y1="486.2" x2="1156.26" y2="486.2" style="stroke:#000000; stroke-width:3.2; stroke-opacity:1"/>
<line clip-path="url(#clip622)" x1="1263.68" y1="827.829" x2="1247.68" y2="827.829" style="stroke:#000000; stroke-width:3.2; stroke-opacity:1"/>
<line clip-path="url(#clip622)" x1="1263.68" y1="799.123" x2="1247.68" y2="799.123" style="stroke:#000000; stroke-width:3.2; stroke-opacity:1"/>
<line clip-path="url(#clip622)" x1="1355.1" y1="374.34" x2="1339.1" y2="374.34" style="stroke:#000000; stroke-width:3.2; stroke-opacity:1"/>
<line clip-path="url(#clip622)" x1="1355.1" y1="373.31" x2="1339.1" y2="373.31" style="stroke:#000000; stroke-width:3.2; stroke-opacity:1"/>
<line clip-path="url(#clip622)" x1="1446.53" y1="790.6" x2="1430.53" y2="790.6" style="stroke:#000000; stroke-width:3.2; stroke-opacity:1"/>
<line clip-path="url(#clip622)" x1="1446.53" y1="772.594" x2="1430.53" y2="772.594" style="stroke:#000000; stroke-width:3.2; stroke-opacity:1"/>
<line clip-path="url(#clip622)" x1="1537.95" y1="537.265" x2="1521.95" y2="537.265" style="stroke:#000000; stroke-width:3.2; stroke-opacity:1"/>
<line clip-path="url(#clip622)" x1="1537.95" y1="533.178" x2="1521.95" y2="533.178" style="stroke:#000000; stroke-width:3.2; stroke-opacity:1"/>
<line clip-path="url(#clip622)" x1="1629.37" y1="1043.64" x2="1613.37" y2="1043.64" style="stroke:#000000; stroke-width:3.2; stroke-opacity:1"/>
<line clip-path="url(#clip622)" x1="1629.37" y1="980.264" x2="1613.37" y2="980.264" style="stroke:#000000; stroke-width:3.2; stroke-opacity:1"/>
<line clip-path="url(#clip622)" x1="1720.8" y1="617.67" x2="1704.8" y2="617.67" style="stroke:#000000; stroke-width:3.2; stroke-opacity:1"/>
<line clip-path="url(#clip622)" x1="1720.8" y1="575.149" x2="1704.8" y2="575.149" style="stroke:#000000; stroke-width:3.2; stroke-opacity:1"/>
<line clip-path="url(#clip622)" x1="1812.22" y1="1252.36" x2="1796.22" y2="1252.36" style="stroke:#000000; stroke-width:3.2; stroke-opacity:1"/>
<line clip-path="url(#clip622)" x1="1812.22" y1="1199.84" x2="1796.22" y2="1199.84" style="stroke:#000000; stroke-width:3.2; stroke-opacity:1"/>
<line clip-path="url(#clip622)" x1="1903.64" y1="587.456" x2="1887.64" y2="587.456" style="stroke:#000000; stroke-width:3.2; stroke-opacity:1"/>
<line clip-path="url(#clip622)" x1="1903.64" y1="505.943" x2="1887.64" y2="505.943" style="stroke:#000000; stroke-width:3.2; stroke-opacity:1"/>
<line clip-path="url(#clip622)" x1="1995.06" y1="902.233" x2="1979.06" y2="902.233" style="stroke:#000000; stroke-width:3.2; stroke-opacity:1"/>
<line clip-path="url(#clip622)" x1="1995.06" y1="865.586" x2="1979.06" y2="865.586" style="stroke:#000000; stroke-width:3.2; stroke-opacity:1"/>
<circle clip-path="url(#clip622)" cx="432.874" cy="353.529" r="7.2" fill="#009af9" fill-rule="evenodd" fill-opacity="1" stroke="#000000" stroke-opacity="1" stroke-width="3.2"/>
<circle clip-path="url(#clip622)" cx="524.297" cy="837.675" r="7.2" fill="#009af9" fill-rule="evenodd" fill-opacity="1" stroke="#000000" stroke-opacity="1" stroke-width="3.2"/>
<circle clip-path="url(#clip622)" cx="615.72" cy="419.563" r="7.2" fill="#009af9" fill-rule="evenodd" fill-opacity="1" stroke="#000000" stroke-opacity="1" stroke-width="3.2"/>
<circle clip-path="url(#clip622)" cx="707.143" cy="791.965" r="7.2" fill="#009af9" fill-rule="evenodd" fill-opacity="1" stroke="#000000" stroke-opacity="1" stroke-width="3.2"/>
<circle clip-path="url(#clip622)" cx="798.566" cy="424.525" r="7.2" fill="#009af9" fill-rule="evenodd" fill-opacity="1" stroke="#000000" stroke-opacity="1" stroke-width="3.2"/>
<circle clip-path="url(#clip622)" cx="889.989" cy="774.008" r="7.2" fill="#009af9" fill-rule="evenodd" fill-opacity="1" stroke="#000000" stroke-opacity="1" stroke-width="3.2"/>
<circle clip-path="url(#clip622)" cx="981.412" cy="442.39" r="7.2" fill="#009af9" fill-rule="evenodd" fill-opacity="1" stroke="#000000" stroke-opacity="1" stroke-width="3.2"/>
<circle clip-path="url(#clip622)" cx="1072.83" cy="773.666" r="7.2" fill="#009af9" fill-rule="evenodd" fill-opacity="1" stroke="#000000" stroke-opacity="1" stroke-width="3.2"/>
<circle clip-path="url(#clip622)" cx="1164.26" cy="486.201" r="7.2" fill="#009af9" fill-rule="evenodd" fill-opacity="1" stroke="#000000" stroke-opacity="1" stroke-width="3.2"/>
<circle clip-path="url(#clip622)" cx="1255.68" cy="813.476" r="7.2" fill="#009af9" fill-rule="evenodd" fill-opacity="1" stroke="#000000" stroke-opacity="1" stroke-width="3.2"/>
<circle clip-path="url(#clip622)" cx="1347.1" cy="373.825" r="7.2" fill="#009af9" fill-rule="evenodd" fill-opacity="1" stroke="#000000" stroke-opacity="1" stroke-width="3.2"/>
<circle clip-path="url(#clip622)" cx="1438.53" cy="781.597" r="7.2" fill="#009af9" fill-rule="evenodd" fill-opacity="1" stroke="#000000" stroke-opacity="1" stroke-width="3.2"/>
<circle clip-path="url(#clip622)" cx="1529.95" cy="535.221" r="7.2" fill="#009af9" fill-rule="evenodd" fill-opacity="1" stroke="#000000" stroke-opacity="1" stroke-width="3.2"/>
<circle clip-path="url(#clip622)" cx="1621.37" cy="1011.95" r="7.2" fill="#009af9" fill-rule="evenodd" fill-opacity="1" stroke="#000000" stroke-opacity="1" stroke-width="3.2"/>
<circle clip-path="url(#clip622)" cx="1712.8" cy="596.41" r="7.2" fill="#009af9" fill-rule="evenodd" fill-opacity="1" stroke="#000000" stroke-opacity="1" stroke-width="3.2"/>
<circle clip-path="url(#clip622)" cx="1804.22" cy="1226.1" r="7.2" fill="#009af9" fill-rule="evenodd" fill-opacity="1" stroke="#000000" stroke-opacity="1" stroke-width="3.2"/>
<circle clip-path="url(#clip622)" cx="1895.64" cy="546.699" r="7.2" fill="#009af9" fill-rule="evenodd" fill-opacity="1" stroke="#000000" stroke-opacity="1" stroke-width="3.2"/>
<circle clip-path="url(#clip622)" cx="1987.06" cy="883.909" r="7.2" fill="#009af9" fill-rule="evenodd" fill-opacity="1" stroke="#000000" stroke-opacity="1" stroke-width="3.2"/>
<path clip-path="url(#clip620)" d="
M1523.85 270.476 L2282.66 270.476 L2282.66 166.796 L1523.85 166.796  Z
  " fill="#ffffff" fill-rule="evenodd" fill-opacity="1"/>
<polyline clip-path="url(#clip620)" style="stroke:#000000; stroke-linecap:round; stroke-linejoin:round; stroke-width:4; stroke-opacity:1; fill:none" points="
  1523.85,270.476 2282.66,270.476 2282.66,166.796 1523.85,166.796 1523.85,270.476 
  "/>
<circle clip-path="url(#clip620)" cx="1617.3" cy="218.636" r="23.04" fill="#009af9" fill-rule="evenodd" fill-opacity="1" stroke="#000000" stroke-opacity="1" stroke-width="10.24"/>
<path clip-path="url(#clip620)" d="M1731.1 214.967 Q1732.7 212.096 1734.92 210.731 Q1737.14 209.365 1740.15 209.365 Q1744.2 209.365 1746.4 212.212 Q1748.6 215.036 1748.6 220.268 L1748.6 235.916 L1744.32 235.916 L1744.32 220.407 Q1744.32 216.68 1743 214.874 Q1741.68 213.069 1738.97 213.069 Q1735.66 213.069 1733.74 215.268 Q1731.82 217.467 1731.82 221.263 L1731.82 235.916 L1727.54 235.916 L1727.54 220.407 Q1727.54 216.657 1726.22 214.874 Q1724.9 213.069 1722.14 213.069 Q1718.88 213.069 1716.96 215.291 Q1715.04 217.49 1715.04 221.263 L1715.04 235.916 L1710.76 235.916 L1710.76 209.99 L1715.04 209.99 L1715.04 214.018 Q1716.5 211.633 1718.53 210.499 Q1720.57 209.365 1723.37 209.365 Q1726.2 209.365 1728.16 210.8 Q1730.15 212.235 1731.1 214.967 Z" fill="#000000" fill-rule="evenodd" fill-opacity="1" /><path clip-path="url(#clip620)" d="M1765.82 220.245 Q1764.67 218.254 1762.33 218.254 Q1759.99 218.254 1758.83 220.245 Q1757.65 222.235 1757.65 226.217 Q1757.65 230.221 1758.83 232.212 Q1759.99 234.203 1762.33 234.203 Q1764.67 234.203 1765.82 232.212 Q1767.01 230.221 1767.01 226.217 Q1767.01 222.235 1765.82 220.245 M1762.33 216.194 Q1766.06 216.194 1768.02 218.763 Q1769.99 221.332 1769.99 226.217 Q1769.99 231.124 1768.02 233.694 Q1766.06 236.263 1762.33 236.263 Q1758.58 236.263 1756.61 233.694 Q1754.64 231.124 1754.64 226.217 Q1754.64 221.332 1756.61 218.763 Q1758.58 216.194 1762.33 216.194 Z" fill="#000000" fill-rule="evenodd" fill-opacity="1" /><path clip-path="url(#clip620)" d="M1776.66 214.388 L1806.33 214.388 L1806.33 218.277 L1776.66 218.277 L1776.66 214.388 M1776.66 223.832 L1806.33 223.832 L1806.33 227.768 L1776.66 227.768 L1776.66 223.832 Z" fill="#000000" fill-rule="evenodd" fill-opacity="1" /><path clip-path="url(#clip620)" d="M1826.43 204.434 Q1822.81 204.434 1820.99 207.999 Q1819.18 211.541 1819.18 218.67 Q1819.18 225.777 1820.99 229.342 Q1822.81 232.883 1826.43 232.883 Q1830.06 232.883 1831.87 229.342 Q1833.69 225.777 1833.69 218.67 Q1833.69 211.541 1831.87 207.999 Q1830.06 204.434 1826.43 204.434 M1826.43 200.731 Q1832.24 200.731 1835.29 205.337 Q1838.37 209.92 1838.37 218.67 Q1838.37 227.397 1835.29 232.004 Q1832.24 236.587 1826.43 236.587 Q1820.62 236.587 1817.54 232.004 Q1814.48 227.397 1814.48 218.67 Q1814.48 209.92 1817.54 205.337 Q1820.62 200.731 1826.43 200.731 Z" fill="#000000" fill-rule="evenodd" fill-opacity="1" /><path clip-path="url(#clip620)" d="M1846.59 230.036 L1851.47 230.036 L1851.47 235.916 L1846.59 235.916 L1846.59 230.036 Z" fill="#000000" fill-rule="evenodd" fill-opacity="1" /><path clip-path="url(#clip620)" d="M1861.7 201.356 L1880.06 201.356 L1880.06 205.291 L1865.99 205.291 L1865.99 213.763 Q1867 213.416 1868.02 213.254 Q1869.04 213.069 1870.06 213.069 Q1875.85 213.069 1879.23 216.24 Q1882.61 219.411 1882.61 224.828 Q1882.61 230.406 1879.13 233.508 Q1875.66 236.587 1869.34 236.587 Q1867.17 236.587 1864.9 236.217 Q1862.65 235.846 1860.25 235.106 L1860.25 230.406 Q1862.33 231.541 1864.55 232.096 Q1866.77 232.652 1869.25 232.652 Q1873.25 232.652 1875.59 230.545 Q1877.93 228.439 1877.93 224.828 Q1877.93 221.217 1875.59 219.11 Q1873.25 217.004 1869.25 217.004 Q1867.37 217.004 1865.5 217.42 Q1863.65 217.837 1861.7 218.717 L1861.7 201.356 Z" fill="#000000" fill-rule="evenodd" fill-opacity="1" /><path clip-path="url(#clip620)" d="M1892.31 230.036 L1897.19 230.036 L1897.19 234.018 L1893.39 241.425 L1890.41 241.425 L1892.31 234.018 L1892.31 230.036 Z" fill="#000000" fill-rule="evenodd" fill-opacity="1" /><path clip-path="url(#clip620)" d="M1930.04 230.985 L1930.04 221.703 L1922.4 221.703 L1922.4 217.86 L1934.67 217.86 L1934.67 232.698 Q1931.96 234.619 1928.69 235.615 Q1925.43 236.587 1921.73 236.587 Q1913.62 236.587 1909.04 231.865 Q1904.48 227.119 1904.48 218.67 Q1904.48 210.198 1909.04 205.476 Q1913.62 200.731 1921.73 200.731 Q1925.11 200.731 1928.14 201.564 Q1931.19 202.397 1933.76 204.018 L1933.76 208.995 Q1931.17 206.796 1928.25 205.684 Q1925.34 204.573 1922.12 204.573 Q1915.78 204.573 1912.58 208.115 Q1909.41 211.657 1909.41 218.67 Q1909.41 225.661 1912.58 229.203 Q1915.78 232.744 1922.12 232.744 Q1924.6 232.744 1926.54 232.328 Q1928.49 231.888 1930.04 230.985 Z" fill="#000000" fill-rule="evenodd" fill-opacity="1" /><path clip-path="url(#clip620)" d="M1944.76 217.814 L1954.57 217.814 L1954.57 220.453 L1940.73 220.453 L1940.73 217.907 Q1941.52 217.189 1942.98 215.893 Q1950.94 208.833 1950.94 206.657 Q1950.94 205.129 1949.74 204.203 Q1948.53 203.254 1946.56 203.254 Q1945.36 203.254 1943.95 203.671 Q1942.54 204.064 1940.87 204.874 L1940.87 202.027 Q1942.65 201.379 1944.18 201.055 Q1945.73 200.731 1947.05 200.731 Q1950.41 200.731 1952.42 202.258 Q1954.43 203.786 1954.43 206.286 Q1954.43 209.504 1946.77 216.078 Q1945.48 217.189 1944.76 217.814 Z" fill="#000000" fill-rule="evenodd" fill-opacity="1" /><path clip-path="url(#clip620)" d="M1962.58 214.388 L1992.26 214.388 L1992.26 218.277 L1962.58 218.277 L1962.58 214.388 M1962.58 223.832 L1992.26 223.832 L1992.26 227.768 L1962.58 227.768 L1962.58 223.832 Z" fill="#000000" fill-rule="evenodd" fill-opacity="1" /><path clip-path="url(#clip620)" d="M2003.16 231.981 L2010.8 231.981 L2010.8 205.615 L2002.49 207.282 L2002.49 203.022 L2010.75 201.356 L2015.43 201.356 L2015.43 231.981 L2023.07 231.981 L2023.07 235.916 L2003.16 235.916 L2003.16 231.981 Z" fill="#000000" fill-rule="evenodd" fill-opacity="1" /><path clip-path="url(#clip620)" d="M2032.51 230.036 L2037.4 230.036 L2037.4 235.916 L2032.51 235.916 L2032.51 230.036 Z" fill="#000000" fill-rule="evenodd" fill-opacity="1" /><path clip-path="url(#clip620)" d="M2057.58 204.434 Q2053.97 204.434 2052.14 207.999 Q2050.34 211.541 2050.34 218.67 Q2050.34 225.777 2052.14 229.342 Q2053.97 232.883 2057.58 232.883 Q2061.22 232.883 2063.02 229.342 Q2064.85 225.777 2064.85 218.67 Q2064.85 211.541 2063.02 207.999 Q2061.22 204.434 2057.58 204.434 M2057.58 200.731 Q2063.39 200.731 2066.45 205.337 Q2069.53 209.92 2069.53 218.67 Q2069.53 227.397 2066.45 232.004 Q2063.39 236.587 2057.58 236.587 Q2051.77 236.587 2048.69 232.004 Q2045.64 227.397 2045.64 218.67 Q2045.64 209.92 2048.69 205.337 Q2051.77 200.731 2057.58 200.731 Z" fill="#000000" fill-rule="evenodd" fill-opacity="1" /><path clip-path="url(#clip620)" d="M2078.23 230.036 L2083.11 230.036 L2083.11 234.018 L2079.32 241.425 L2076.33 241.425 L2078.23 234.018 L2078.23 230.036 Z" fill="#000000" fill-rule="evenodd" fill-opacity="1" /><path clip-path="url(#clip620)" d="M2114.39 221.888 L2114.39 223.971 L2094.8 223.971 Q2095.08 228.369 2097.44 230.684 Q2099.83 232.976 2104.06 232.976 Q2106.52 232.976 2108.81 232.374 Q2111.12 231.772 2113.39 230.569 L2113.39 234.596 Q2111.1 235.568 2108.69 236.078 Q2106.29 236.587 2103.81 236.587 Q2097.61 236.587 2093.97 232.976 Q2090.36 229.365 2090.36 223.207 Q2090.36 216.842 2093.79 213.115 Q2097.23 209.365 2103.07 209.365 Q2108.3 209.365 2111.33 212.745 Q2114.39 216.101 2114.39 221.888 M2110.13 220.638 Q2110.08 217.143 2108.16 215.059 Q2106.26 212.976 2103.11 212.976 Q2099.55 212.976 2097.4 214.99 Q2095.27 217.004 2094.94 220.661 L2110.13 220.638 Z" fill="#000000" fill-rule="evenodd" fill-opacity="1" /><path clip-path="url(#clip620)" d="M2136.4 213.971 Q2135.68 213.555 2134.83 213.37 Q2133.99 213.161 2132.98 213.161 Q2129.36 213.161 2127.42 215.522 Q2125.5 217.86 2125.5 222.258 L2125.5 235.916 L2121.22 235.916 L2121.22 209.99 L2125.5 209.99 L2125.5 214.018 Q2126.84 211.657 2128.99 210.522 Q2131.15 209.365 2134.23 209.365 Q2134.67 209.365 2135.2 209.434 Q2135.73 209.481 2136.38 209.596 L2136.4 213.971 Z" fill="#000000" fill-rule="evenodd" fill-opacity="1" /><path clip-path="url(#clip620)" d="M2155.06 213.971 Q2154.34 213.555 2153.48 213.37 Q2152.65 213.161 2151.63 213.161 Q2148.02 213.161 2146.08 215.522 Q2144.16 217.86 2144.16 222.258 L2144.16 235.916 L2139.87 235.916 L2139.87 209.99 L2144.16 209.99 L2144.16 214.018 Q2145.5 211.657 2147.65 210.522 Q2149.8 209.365 2152.88 209.365 Q2153.32 209.365 2153.85 209.434 Q2154.39 209.481 2155.04 209.596 L2155.06 213.971 Z" fill="#000000" fill-rule="evenodd" fill-opacity="1" /><path clip-path="url(#clip620)" d="M2177.35 207.05 L2169.04 211.541 L2177.35 216.055 L2176.01 218.323 L2168.23 213.624 L2168.23 222.351 L2165.59 222.351 L2165.59 213.624 L2157.81 218.323 L2156.47 216.055 L2164.78 211.541 L2156.47 207.05 L2157.81 204.758 L2165.59 209.458 L2165.59 200.731 L2168.23 200.731 L2168.23 209.458 L2176.01 204.758 L2177.35 207.05 Z" fill="#000000" fill-rule="evenodd" fill-opacity="1" /><path clip-path="url(#clip620)" d="M2184.64 231.981 L2192.28 231.981 L2192.28 205.615 L2183.97 207.282 L2183.97 203.022 L2192.23 201.356 L2196.91 201.356 L2196.91 231.981 L2204.55 231.981 L2204.55 235.916 L2184.64 235.916 L2184.64 231.981 Z" fill="#000000" fill-rule="evenodd" fill-opacity="1" /><path clip-path="url(#clip620)" d="M2223.99 204.434 Q2220.38 204.434 2218.55 207.999 Q2216.75 211.541 2216.75 218.67 Q2216.75 225.777 2218.55 229.342 Q2220.38 232.883 2223.99 232.883 Q2227.63 232.883 2229.43 229.342 Q2231.26 225.777 2231.26 218.67 Q2231.26 211.541 2229.43 207.999 Q2227.63 204.434 2223.99 204.434 M2223.99 200.731 Q2229.8 200.731 2232.86 205.337 Q2235.94 209.92 2235.94 218.67 Q2235.94 227.397 2232.86 232.004 Q2229.8 236.587 2223.99 236.587 Q2218.18 236.587 2215.1 232.004 Q2212.05 227.397 2212.05 218.67 Q2212.05 209.92 2215.1 205.337 Q2218.18 200.731 2223.99 200.731 Z" fill="#000000" fill-rule="evenodd" fill-opacity="1" /></svg>
