<?xml version="1.0" encoding="utf-8"?>
<svg xmlns="http://www.w3.org/2000/svg" xmlns:xlink="http://www.w3.org/1999/xlink" width="600" height="400" viewBox="0 0 2400 1600">
<defs>
  <clipPath id="clip220">
    <rect x="0" y="0" width="2400" height="1600"/>
  </clipPath>
</defs>
<path clip-path="url(#clip220)" d="
M0 1600 L2400 1600 L2400 0 L0 0  Z
  " fill="#ffffff" fill-rule="evenodd" fill-opacity="1"/>
<defs>
  <clipPath id="clip221">
    <rect x="480" y="0" width="1681" height="1600"/>
  </clipPath>
</defs>
<path clip-path="url(#clip220)" d="
M250.028 1423.18 L2352.76 1423.18 L2352.76 123.472 L250.028 123.472  Z
  " fill="#ffffff" fill-rule="evenodd" fill-opacity="1"/>
<defs>
  <clipPath id="clip222">
    <rect x="250" y="123" width="2104" height="1301"/>
  </clipPath>
</defs>
<polyline clip-path="url(#clip222)" style="stroke:#000000; stroke-linecap:round; stroke-linejoin:round; stroke-width:2; stroke-opacity:0.1; fill:none" points="
  432.874,1423.18 432.874,123.472 
  "/>
<polyline clip-path="url(#clip222)" style="stroke:#000000; stroke-linecap:round; stroke-linejoin:round; stroke-width:2; stroke-opacity:0.1; fill:none" points="
  615.72,1423.18 615.72,123.472 
  "/>
<polyline clip-path="url(#clip222)" style="stroke:#000000; stroke-linecap:round; stroke-linejoin:round; stroke-width:2; stroke-opacity:0.1; fill:none" points="
  798.566,1423.18 798.566,123.472 
  "/>
<polyline clip-path="url(#clip222)" style="stroke:#000000; stroke-linecap:round; stroke-linejoin:round; stroke-width:2; stroke-opacity:0.1; fill:none" points="
  981.412,1423.18 981.412,123.472 
  "/>
<polyline clip-path="url(#clip222)" style="stroke:#000000; stroke-linecap:round; stroke-linejoin:round; stroke-width:2; stroke-opacity:0.1; fill:none" points="
  1164.26,1423.18 1164.26,123.472 
  "/>
<polyline clip-path="url(#clip222)" style="stroke:#000000; stroke-linecap:round; stroke-linejoin:round; stroke-width:2; stroke-opacity:0.1; fill:none" points="
  1347.1,1423.18 1347.1,123.472 
  "/>
<polyline clip-path="url(#clip222)" style="stroke:#000000; stroke-linecap:round; stroke-linejoin:round; stroke-width:2; stroke-opacity:0.1; fill:none" points="
  1529.95,1423.18 1529.95,123.472 
  "/>
<polyline clip-path="url(#clip222)" style="stroke:#000000; stroke-linecap:round; stroke-linejoin:round; stroke-width:2; stroke-opacity:0.1; fill:none" points="
  1712.8,1423.18 1712.8,123.472 
  "/>
<polyline clip-path="url(#clip222)" style="stroke:#000000; stroke-linecap:round; stroke-linejoin:round; stroke-width:2; stroke-opacity:0.1; fill:none" points="
  1895.64,1423.18 1895.64,123.472 
  "/>
<polyline clip-path="url(#clip222)" style="stroke:#000000; stroke-linecap:round; stroke-linejoin:round; stroke-width:2; stroke-opacity:0.1; fill:none" points="
  2078.49,1423.18 2078.49,123.472 
  "/>
<polyline clip-path="url(#clip222)" style="stroke:#000000; stroke-linecap:round; stroke-linejoin:round; stroke-width:2; stroke-opacity:0.1; fill:none" points="
  2261.33,1423.18 2261.33,123.472 
  "/>
<polyline clip-path="url(#clip220)" style="stroke:#000000; stroke-linecap:round; stroke-linejoin:round; stroke-width:4; stroke-opacity:1; fill:none" points="
  250.028,1423.18 2352.76,1423.18 
  "/>
<polyline clip-path="url(#clip220)" style="stroke:#000000; stroke-linecap:round; stroke-linejoin:round; stroke-width:4; stroke-opacity:1; fill:none" points="
  432.874,1423.18 432.874,1404.28 
  "/>
<polyline clip-path="url(#clip220)" style="stroke:#000000; stroke-linecap:round; stroke-linejoin:round; stroke-width:4; stroke-opacity:1; fill:none" points="
  615.72,1423.18 615.72,1404.28 
  "/>
<polyline clip-path="url(#clip220)" style="stroke:#000000; stroke-linecap:round; stroke-linejoin:round; stroke-width:4; stroke-opacity:1; fill:none" points="
  798.566,1423.18 798.566,1404.28 
  "/>
<polyline clip-path="url(#clip220)" style="stroke:#000000; stroke-linecap:round; stroke-linejoin:round; stroke-width:4; stroke-opacity:1; fill:none" points="
  981.412,1423.18 981.412,1404.28 
  "/>
<polyline clip-path="url(#clip220)" style="stroke:#000000; stroke-linecap:round; stroke-linejoin:round; stroke-width:4; stroke-opacity:1; fill:none" points="
  1164.26,1423.18 1164.26,1404.28 
  "/>
<polyline clip-path="url(#clip220)" style="stroke:#000000; stroke-linecap:round; stroke-linejoin:round; stroke-width:4; stroke-opacity:1; fill:none" points="
  1347.1,1423.18 1347.1,1404.28 
  "/>
<polyline clip-path="url(#clip220)" style="stroke:#000000; stroke-linecap:round; stroke-linejoin:round; stroke-width:4; stroke-opacity:1; fill:none" points="
  1529.95,1423.18 1529.95,1404.28 
  "/>
<polyline clip-path="url(#clip220)" style="stroke:#000000; stroke-linecap:round; stroke-linejoin:round; stroke-width:4; stroke-opacity:1; fill:none" points="
  1712.8,1423.18 1712.8,1404.28 
  "/>
<polyline clip-path="url(#clip220)" style="stroke:#000000; stroke-linecap:round; stroke-linejoin:round; stroke-width:4; stroke-opacity:1; fill:none" points="
  1895.64,1423.18 1895.64,1404.28 
  "/>
<polyline clip-path="url(#clip220)" style="stroke:#000000; stroke-linecap:round; stroke-linejoin:round; stroke-width:4; stroke-opacity:1; fill:none" points="
  2078.49,1423.18 2078.49,1404.28 
  "/>
<polyline clip-path="url(#clip220)" style="stroke:#000000; stroke-linecap:round; stroke-linejoin:round; stroke-width:4; stroke-opacity:1; fill:none" points="
  2261.33,1423.18 2261.33,1404.28 
  "/>
<path clip-path="url(#clip220)" d="M423.256 1481.64 L430.895 1481.64 L430.895 1455.28 L422.585 1456.95 L422.585 1452.69 L430.849 1451.02 L435.524 1451.02 L435.524 1481.64 L443.163 1481.64 L443.163 1485.58 L423.256 1485.58 L423.256 1481.64 Z" fill="#000000" fill-rule="evenodd" fill-opacity="1" /><path clip-path="url(#clip220)" d="M619.968 1466.95 Q623.324 1467.66 625.199 1469.93 Q627.097 1472.2 627.097 1475.53 Q627.097 1480.65 623.579 1483.45 Q620.06 1486.25 613.579 1486.25 Q611.403 1486.25 609.088 1485.81 Q606.796 1485.39 604.343 1484.54 L604.343 1480.02 Q606.287 1481.16 608.602 1481.74 Q610.917 1482.32 613.44 1482.32 Q617.838 1482.32 620.13 1480.58 Q622.444 1478.84 622.444 1475.53 Q622.444 1472.48 620.292 1470.77 Q618.162 1469.03 614.343 1469.03 L610.315 1469.03 L610.315 1465.19 L614.528 1465.19 Q617.977 1465.19 619.806 1463.82 Q621.634 1462.43 621.634 1459.84 Q621.634 1457.18 619.736 1455.77 Q617.861 1454.33 614.343 1454.33 Q612.421 1454.33 610.222 1454.75 Q608.023 1455.16 605.384 1456.04 L605.384 1451.88 Q608.046 1451.14 610.361 1450.77 Q612.699 1450.39 614.759 1450.39 Q620.083 1450.39 623.185 1452.83 Q626.287 1455.23 626.287 1459.35 Q626.287 1462.22 624.643 1464.21 Q623 1466.18 619.968 1466.95 Z" fill="#000000" fill-rule="evenodd" fill-opacity="1" /><path clip-path="url(#clip220)" d="M788.844 1451.02 L807.2 1451.02 L807.2 1454.96 L793.126 1454.96 L793.126 1463.43 Q794.145 1463.08 795.163 1462.92 Q796.182 1462.73 797.2 1462.73 Q802.987 1462.73 806.367 1465.9 Q809.746 1469.08 809.746 1474.49 Q809.746 1480.07 806.274 1483.17 Q802.802 1486.25 796.482 1486.25 Q794.307 1486.25 792.038 1485.88 Q789.793 1485.51 787.385 1484.77 L787.385 1480.07 Q789.469 1481.2 791.691 1481.76 Q793.913 1482.32 796.39 1482.32 Q800.395 1482.32 802.732 1480.21 Q805.07 1478.1 805.07 1474.49 Q805.07 1470.88 802.732 1468.77 Q800.395 1466.67 796.39 1466.67 Q794.515 1466.67 792.64 1467.08 Q790.788 1467.5 788.844 1468.38 L788.844 1451.02 Z" fill="#000000" fill-rule="evenodd" fill-opacity="1" /><path clip-path="url(#clip220)" d="M970.301 1451.02 L992.523 1451.02 L992.523 1453.01 L979.977 1485.58 L975.092 1485.58 L986.898 1454.96 L970.301 1454.96 L970.301 1451.02 Z" fill="#000000" fill-rule="evenodd" fill-opacity="1" /><path clip-path="url(#clip220)" d="M1154.56 1484.86 L1154.56 1480.6 Q1156.32 1481.44 1158.12 1481.88 Q1159.93 1482.32 1161.67 1482.32 Q1166.29 1482.32 1168.73 1479.21 Q1171.18 1476.09 1171.53 1469.75 Q1170.18 1471.74 1168.12 1472.8 Q1166.06 1473.87 1163.56 1473.87 Q1158.38 1473.87 1155.35 1470.74 Q1152.34 1467.59 1152.34 1462.15 Q1152.34 1456.83 1155.48 1453.61 Q1158.63 1450.39 1163.86 1450.39 Q1169.86 1450.39 1173.01 1455 Q1176.18 1459.58 1176.18 1468.33 Q1176.18 1476.51 1172.29 1481.39 Q1168.42 1486.25 1161.87 1486.25 Q1160.11 1486.25 1158.31 1485.9 Q1156.5 1485.56 1154.56 1484.86 M1163.86 1470.21 Q1167.01 1470.21 1168.84 1468.06 Q1170.69 1465.9 1170.69 1462.15 Q1170.69 1458.43 1168.84 1456.27 Q1167.01 1454.1 1163.86 1454.1 Q1160.72 1454.1 1158.86 1456.27 Q1157.04 1458.43 1157.04 1462.15 Q1157.04 1465.9 1158.86 1468.06 Q1160.72 1470.21 1163.86 1470.21 Z" fill="#000000" fill-rule="evenodd" fill-opacity="1" /><path clip-path="url(#clip220)" d="M1322.4 1481.64 L1330.04 1481.64 L1330.04 1455.28 L1321.73 1456.95 L1321.73 1452.69 L1330 1451.02 L1334.67 1451.02 L1334.67 1481.64 L1342.31 1481.64 L1342.31 1485.58 L1322.4 1485.58 L1322.4 1481.64 Z" fill="#000000" fill-rule="evenodd" fill-opacity="1" /><path clip-path="url(#clip220)" d="M1352.57 1481.64 L1360.21 1481.64 L1360.21 1455.28 L1351.9 1456.95 L1351.9 1452.69 L1360.16 1451.02 L1364.83 1451.02 L1364.83 1481.64 L1372.47 1481.64 L1372.47 1485.58 L1352.57 1485.58 L1352.57 1481.64 Z" fill="#000000" fill-rule="evenodd" fill-opacity="1" /><path clip-path="url(#clip220)" d="M1504.96 1481.64 L1512.6 1481.64 L1512.6 1455.28 L1504.29 1456.95 L1504.29 1452.69 L1512.55 1451.02 L1517.23 1451.02 L1517.23 1481.64 L1524.87 1481.64 L1524.87 1485.58 L1504.96 1485.58 L1504.96 1481.64 Z" fill="#000000" fill-rule="evenodd" fill-opacity="1" /><path clip-path="url(#clip220)" d="M1548.48 1466.95 Q1551.84 1467.66 1553.71 1469.93 Q1555.61 1472.2 1555.61 1475.53 Q1555.61 1480.65 1552.09 1483.45 Q1548.57 1486.25 1542.09 1486.25 Q1539.91 1486.25 1537.6 1485.81 Q1535.31 1485.39 1532.85 1484.54 L1532.85 1480.02 Q1534.8 1481.16 1537.11 1481.74 Q1539.43 1482.32 1541.95 1482.32 Q1546.35 1482.32 1548.64 1480.58 Q1550.96 1478.84 1550.96 1475.53 Q1550.96 1472.48 1548.8 1470.77 Q1546.67 1469.03 1542.85 1469.03 L1538.83 1469.03 L1538.83 1465.19 L1543.04 1465.19 Q1546.49 1465.19 1548.32 1463.82 Q1550.15 1462.43 1550.15 1459.84 Q1550.15 1457.18 1548.25 1455.77 Q1546.37 1454.33 1542.85 1454.33 Q1540.93 1454.33 1538.73 1454.75 Q1536.54 1455.16 1533.9 1456.04 L1533.9 1451.88 Q1536.56 1451.14 1538.87 1450.77 Q1541.21 1450.39 1543.27 1450.39 Q1548.6 1450.39 1551.7 1452.83 Q1554.8 1455.23 1554.8 1459.35 Q1554.8 1462.22 1553.16 1464.21 Q1551.51 1466.18 1548.48 1466.95 Z" fill="#000000" fill-rule="evenodd" fill-opacity="1" /><path clip-path="url(#clip220)" d="M1687.98 1481.64 L1695.62 1481.64 L1695.62 1455.28 L1687.31 1456.95 L1687.31 1452.69 L1695.57 1451.02 L1700.25 1451.02 L1700.25 1481.64 L1707.89 1481.64 L1707.89 1485.58 L1687.98 1485.58 L1687.98 1481.64 Z" fill="#000000" fill-rule="evenodd" fill-opacity="1" /><path clip-path="url(#clip220)" d="M1717.38 1451.02 L1735.73 1451.02 L1735.73 1454.96 L1721.66 1454.96 L1721.66 1463.43 Q1722.68 1463.08 1723.7 1462.92 Q1724.72 1462.73 1725.74 1462.73 Q1731.52 1462.73 1734.9 1465.9 Q1738.28 1469.08 1738.28 1474.49 Q1738.28 1480.07 1734.81 1483.17 Q1731.34 1486.25 1725.02 1486.25 Q1722.84 1486.25 1720.57 1485.88 Q1718.33 1485.51 1715.92 1484.77 L1715.92 1480.07 Q1718 1481.2 1720.23 1481.76 Q1722.45 1482.32 1724.92 1482.32 Q1728.93 1482.32 1731.27 1480.21 Q1733.61 1478.1 1733.61 1474.49 Q1733.61 1470.88 1731.27 1468.77 Q1728.93 1466.67 1724.92 1466.67 Q1723.05 1466.67 1721.17 1467.08 Q1719.32 1467.5 1717.38 1468.38 L1717.38 1451.02 Z" fill="#000000" fill-rule="evenodd" fill-opacity="1" /><path clip-path="url(#clip220)" d="M1870.78 1481.64 L1878.42 1481.64 L1878.42 1455.28 L1870.11 1456.95 L1870.11 1452.69 L1878.37 1451.02 L1883.05 1451.02 L1883.05 1481.64 L1890.69 1481.64 L1890.69 1485.58 L1870.78 1485.58 L1870.78 1481.64 Z" fill="#000000" fill-rule="evenodd" fill-opacity="1" /><path clip-path="url(#clip220)" d="M1898.95 1451.02 L1921.17 1451.02 L1921.17 1453.01 L1908.63 1485.58 L1903.74 1485.58 L1915.55 1454.96 L1898.95 1454.96 L1898.95 1451.02 Z" fill="#000000" fill-rule="evenodd" fill-opacity="1" /><path clip-path="url(#clip220)" d="M2053.27 1481.64 L2060.91 1481.64 L2060.91 1455.28 L2052.6 1456.95 L2052.6 1452.69 L2060.86 1451.02 L2065.54 1451.02 L2065.54 1481.64 L2073.17 1481.64 L2073.17 1485.58 L2053.27 1485.58 L2053.27 1481.64 Z" fill="#000000" fill-rule="evenodd" fill-opacity="1" /><path clip-path="url(#clip220)" d="M2082.76 1484.86 L2082.76 1480.6 Q2084.52 1481.44 2086.32 1481.88 Q2088.13 1482.32 2089.86 1482.32 Q2094.49 1482.32 2096.92 1479.21 Q2099.38 1476.09 2099.73 1469.75 Q2098.38 1471.74 2096.32 1472.8 Q2094.26 1473.87 2091.76 1473.87 Q2086.58 1473.87 2083.54 1470.74 Q2080.54 1467.59 2080.54 1462.15 Q2080.54 1456.83 2083.68 1453.61 Q2086.83 1450.39 2092.06 1450.39 Q2098.06 1450.39 2101.21 1455 Q2104.38 1459.58 2104.38 1468.33 Q2104.38 1476.51 2100.49 1481.39 Q2096.62 1486.25 2090.07 1486.25 Q2088.31 1486.25 2086.51 1485.9 Q2084.7 1485.56 2082.76 1484.86 M2092.06 1470.21 Q2095.21 1470.21 2097.04 1468.06 Q2098.89 1465.9 2098.89 1462.15 Q2098.89 1458.43 2097.04 1456.27 Q2095.21 1454.1 2092.06 1454.1 Q2088.92 1454.1 2087.06 1456.27 Q2085.23 1458.43 2085.23 1462.15 Q2085.23 1465.9 2087.06 1468.06 Q2088.92 1470.21 2092.06 1470.21 Z" fill="#000000" fill-rule="evenodd" fill-opacity="1" /><path clip-path="url(#clip220)" d="M2240.72 1481.64 L2257.04 1481.64 L2257.04 1485.58 L2235.09 1485.58 L2235.09 1481.64 Q2237.76 1478.89 2242.34 1474.26 Q2246.95 1469.61 2248.13 1468.27 Q2250.37 1465.74 2251.25 1464.01 Q2252.15 1462.25 2252.15 1460.56 Q2252.15 1457.8 2250.21 1456.07 Q2248.29 1454.33 2245.19 1454.33 Q2242.99 1454.33 2240.53 1455.09 Q2238.1 1455.86 2235.33 1457.41 L2235.33 1452.69 Q2238.15 1451.55 2240.6 1450.97 Q2243.06 1450.39 2245.09 1450.39 Q2250.46 1450.39 2253.66 1453.08 Q2256.85 1455.77 2256.85 1460.26 Q2256.85 1462.39 2256.04 1464.31 Q2255.26 1466.2 2253.15 1468.8 Q2252.57 1469.47 2249.47 1472.69 Q2246.37 1475.88 2240.72 1481.64 Z" fill="#000000" fill-rule="evenodd" fill-opacity="1" /><path clip-path="url(#clip220)" d="M2267.66 1481.64 L2275.3 1481.64 L2275.3 1455.28 L2266.99 1456.95 L2266.99 1452.69 L2275.26 1451.02 L2279.93 1451.02 L2279.93 1481.64 L2287.57 1481.64 L2287.57 1485.58 L2267.66 1485.58 L2267.66 1481.64 Z" fill="#000000" fill-rule="evenodd" fill-opacity="1" /><path clip-path="url(#clip220)" d="M1130.27 1522.08 L1130.27 1528.35 Q1126.61 1526.6 1123.36 1525.74 Q1120.11 1524.88 1117.09 1524.88 Q1111.84 1524.88 1108.97 1526.92 Q1106.14 1528.96 1106.14 1532.71 Q1106.14 1535.87 1108.02 1537.49 Q1109.93 1539.08 1115.21 1540.07 L1119.09 1540.86 Q1126.29 1542.23 1129.69 1545.7 Q1133.13 1549.14 1133.13 1554.93 Q1133.13 1561.84 1128.48 1565.4 Q1123.87 1568.97 1114.92 1568.97 Q1111.55 1568.97 1107.73 1568.2 Q1103.94 1567.44 1099.87 1565.94 L1099.87 1559.32 Q1103.78 1561.52 1107.54 1562.63 Q1111.3 1563.75 1114.92 1563.75 Q1120.43 1563.75 1123.42 1561.58 Q1126.41 1559.42 1126.41 1555.41 Q1126.41 1551.91 1124.25 1549.93 Q1122.12 1547.96 1117.22 1546.97 L1113.3 1546.21 Q1106.11 1544.78 1102.89 1541.72 Q1099.68 1538.67 1099.68 1533.22 Q1099.68 1526.92 1104.1 1523.29 Q1108.56 1519.66 1116.36 1519.66 Q1119.7 1519.66 1123.17 1520.27 Q1126.64 1520.87 1130.27 1522.08 Z" fill="#000000" fill-rule="evenodd" fill-opacity="1" /><path clip-path="url(#clip220)" d="M1142.9 1532.4 L1148.76 1532.4 L1148.76 1568.04 L1142.9 1568.04 L1142.9 1532.4 M1142.9 1518.52 L1148.76 1518.52 L1148.76 1525.93 L1142.9 1525.93 L1142.9 1518.52 Z" fill="#000000" fill-rule="evenodd" fill-opacity="1" /><path clip-path="url(#clip220)" d="M1166.81 1522.27 L1166.81 1532.4 L1178.87 1532.4 L1178.87 1536.95 L1166.81 1536.95 L1166.81 1556.3 Q1166.81 1560.66 1167.98 1561.9 Q1169.19 1563.14 1172.85 1563.14 L1178.87 1563.14 L1178.87 1568.04 L1172.85 1568.04 Q1166.07 1568.04 1163.49 1565.53 Q1160.92 1562.98 1160.92 1556.3 L1160.92 1536.95 L1156.62 1536.95 L1156.62 1532.4 L1160.92 1532.4 L1160.92 1522.27 L1166.81 1522.27 Z" fill="#000000" fill-rule="evenodd" fill-opacity="1" /><path clip-path="url(#clip220)" d="M1217.06 1548.76 L1217.06 1551.62 L1190.14 1551.62 Q1190.52 1557.67 1193.76 1560.85 Q1197.04 1564 1202.87 1564 Q1206.24 1564 1209.39 1563.17 Q1212.57 1562.35 1215.69 1560.69 L1215.69 1566.23 Q1212.54 1567.57 1209.23 1568.27 Q1205.92 1568.97 1202.52 1568.97 Q1193.99 1568.97 1188.99 1564 Q1184.02 1559.04 1184.02 1550.57 Q1184.02 1541.82 1188.73 1536.69 Q1193.48 1531.54 1201.5 1531.54 Q1208.69 1531.54 1212.86 1536.18 Q1217.06 1540.8 1217.06 1548.76 M1211.21 1547.04 Q1211.14 1542.23 1208.5 1539.37 Q1205.89 1536.5 1201.56 1536.5 Q1196.66 1536.5 1193.7 1539.27 Q1190.77 1542.04 1190.33 1547.07 L1211.21 1547.04 Z" fill="#000000" fill-rule="evenodd" fill-opacity="1" /><path clip-path="url(#clip220)" d="M1247.65 1520.52 L1256.31 1520.52 L1277.38 1560.28 L1277.38 1520.52 L1283.62 1520.52 L1283.62 1568.04 L1274.96 1568.04 L1253.89 1528.29 L1253.89 1568.04 L1247.65 1568.04 L1247.65 1520.52 Z" fill="#000000" fill-rule="evenodd" fill-opacity="1" /><path clip-path="url(#clip220)" d="M1295.55 1553.98 L1295.55 1532.4 L1301.41 1532.4 L1301.41 1553.75 Q1301.41 1558.81 1303.38 1561.36 Q1305.35 1563.87 1309.3 1563.87 Q1314.04 1563.87 1316.78 1560.85 Q1319.55 1557.83 1319.55 1552.61 L1319.55 1532.4 L1325.41 1532.4 L1325.41 1568.04 L1319.55 1568.04 L1319.55 1562.57 Q1317.42 1565.82 1314.58 1567.41 Q1311.78 1568.97 1308.06 1568.97 Q1301.92 1568.97 1298.73 1565.15 Q1295.55 1561.33 1295.55 1553.98 M1310.29 1531.54 L1310.29 1531.54 Z" fill="#000000" fill-rule="evenodd" fill-opacity="1" /><path clip-path="url(#clip220)" d="M1365.22 1539.24 Q1367.42 1535.29 1370.48 1533.41 Q1373.53 1531.54 1377.67 1531.54 Q1383.24 1531.54 1386.26 1535.45 Q1389.29 1539.33 1389.29 1546.53 L1389.29 1568.04 L1383.4 1568.04 L1383.4 1546.72 Q1383.4 1541.59 1381.58 1539.11 Q1379.77 1536.63 1376.05 1536.63 Q1371.49 1536.63 1368.85 1539.65 Q1366.21 1542.68 1366.21 1547.9 L1366.21 1568.04 L1360.32 1568.04 L1360.32 1546.72 Q1360.32 1541.56 1358.51 1539.11 Q1356.69 1536.63 1352.91 1536.63 Q1348.42 1536.63 1345.78 1539.68 Q1343.14 1542.71 1343.14 1547.9 L1343.14 1568.04 L1337.25 1568.04 L1337.25 1532.4 L1343.14 1532.4 L1343.14 1537.93 Q1345.14 1534.66 1347.94 1533.1 Q1350.74 1531.54 1354.59 1531.54 Q1358.48 1531.54 1361.18 1533.51 Q1363.92 1535.48 1365.22 1539.24 Z" fill="#000000" fill-rule="evenodd" fill-opacity="1" /><path clip-path="url(#clip220)" d="M1426.56 1550.25 Q1426.56 1543.79 1423.88 1540.13 Q1421.24 1536.44 1416.6 1536.44 Q1411.95 1536.44 1409.27 1540.13 Q1406.63 1543.79 1406.63 1550.25 Q1406.63 1556.71 1409.27 1560.4 Q1411.95 1564.07 1416.6 1564.07 Q1421.24 1564.07 1423.88 1560.4 Q1426.56 1556.71 1426.56 1550.25 M1406.63 1537.81 Q1408.48 1534.62 1411.28 1533.1 Q1414.11 1531.54 1418.03 1531.54 Q1424.52 1531.54 1428.56 1536.69 Q1432.64 1541.85 1432.64 1550.25 Q1432.64 1558.65 1428.56 1563.81 Q1424.52 1568.97 1418.03 1568.97 Q1414.11 1568.97 1411.28 1567.44 Q1408.48 1565.88 1406.63 1562.7 L1406.63 1568.04 L1400.74 1568.04 L1400.74 1518.52 L1406.63 1518.52 L1406.63 1537.81 Z" fill="#000000" fill-rule="evenodd" fill-opacity="1" /><path clip-path="url(#clip220)" d="M1472.84 1548.76 L1472.84 1551.62 L1445.91 1551.62 Q1446.29 1557.67 1449.54 1560.85 Q1452.82 1564 1458.64 1564 Q1462.01 1564 1465.17 1563.17 Q1468.35 1562.35 1471.47 1560.69 L1471.47 1566.23 Q1468.32 1567.57 1465.01 1568.27 Q1461.7 1568.97 1458.29 1568.97 Q1449.76 1568.97 1444.76 1564 Q1439.8 1559.04 1439.8 1550.57 Q1439.8 1541.82 1444.51 1536.69 Q1449.25 1531.54 1457.27 1531.54 Q1464.47 1531.54 1468.64 1536.18 Q1472.84 1540.8 1472.84 1548.76 M1466.98 1547.04 Q1466.92 1542.23 1464.27 1539.37 Q1461.66 1536.5 1457.34 1536.5 Q1452.43 1536.5 1449.47 1539.27 Q1446.55 1542.04 1446.1 1547.07 L1466.98 1547.04 Z" fill="#000000" fill-rule="evenodd" fill-opacity="1" /><path clip-path="url(#clip220)" d="M1503.11 1537.87 Q1502.12 1537.3 1500.94 1537.04 Q1499.8 1536.76 1498.39 1536.76 Q1493.43 1536.76 1490.76 1540 Q1488.11 1543.22 1488.11 1549.27 L1488.11 1568.04 L1482.23 1568.04 L1482.23 1532.4 L1488.11 1532.4 L1488.11 1537.93 Q1489.96 1534.69 1492.92 1533.13 Q1495.88 1531.54 1500.11 1531.54 Q1500.72 1531.54 1501.45 1531.63 Q1502.18 1531.7 1503.07 1531.85 L1503.11 1537.87 Z" fill="#000000" fill-rule="evenodd" fill-opacity="1" /><polyline clip-path="url(#clip222)" style="stroke:#000000; stroke-linecap:round; stroke-linejoin:round; stroke-width:2; stroke-opacity:0.1; fill:none" points="
  250.028,1278.77 2352.76,1278.77 
  "/>
<polyline clip-path="url(#clip222)" style="stroke:#000000; stroke-linecap:round; stroke-linejoin:round; stroke-width:2; stroke-opacity:0.1; fill:none" points="
  250.028,1134.36 2352.76,1134.36 
  "/>
<polyline clip-path="url(#clip222)" style="stroke:#000000; stroke-linecap:round; stroke-linejoin:round; stroke-width:2; stroke-opacity:0.1; fill:none" points="
  250.028,989.944 2352.76,989.944 
  "/>
<polyline clip-path="url(#clip222)" style="stroke:#000000; stroke-linecap:round; stroke-linejoin:round; stroke-width:2; stroke-opacity:0.1; fill:none" points="
  250.028,845.532 2352.76,845.532 
  "/>
<polyline clip-path="url(#clip222)" style="stroke:#000000; stroke-linecap:round; stroke-linejoin:round; stroke-width:2; stroke-opacity:0.1; fill:none" points="
  250.028,701.12 2352.76,701.12 
  "/>
<polyline clip-path="url(#clip222)" style="stroke:#000000; stroke-linecap:round; stroke-linejoin:round; stroke-width:2; stroke-opacity:0.1; fill:none" points="
  250.028,556.708 2352.76,556.708 
  "/>
<polyline clip-path="url(#clip222)" style="stroke:#000000; stroke-linecap:round; stroke-linejoin:round; stroke-width:2; stroke-opacity:0.1; fill:none" points="
  250.028,412.296 2352.76,412.296 
  "/>
<polyline clip-path="url(#clip222)" style="stroke:#000000; stroke-linecap:round; stroke-linejoin:round; stroke-width:2; stroke-opacity:0.1; fill:none" points="
  250.028,267.884 2352.76,267.884 
  "/>
<polyline clip-path="url(#clip220)" style="stroke:#000000; stroke-linecap:round; stroke-linejoin:round; stroke-width:4; stroke-opacity:1; fill:none" points="
  250.028,1423.18 250.028,123.472 
  "/>
<polyline clip-path="url(#clip220)" style="stroke:#000000; stroke-linecap:round; stroke-linejoin:round; stroke-width:4; stroke-opacity:1; fill:none" points="
  250.028,1278.77 268.926,1278.77 
  "/>
<polyline clip-path="url(#clip220)" style="stroke:#000000; stroke-linecap:round; stroke-linejoin:round; stroke-width:4; stroke-opacity:1; fill:none" points="
  250.028,1134.36 268.926,1134.36 
  "/>
<polyline clip-path="url(#clip220)" style="stroke:#000000; stroke-linecap:round; stroke-linejoin:round; stroke-width:4; stroke-opacity:1; fill:none" points="
  250.028,989.944 268.926,989.944 
  "/>
<polyline clip-path="url(#clip220)" style="stroke:#000000; stroke-linecap:round; stroke-linejoin:round; stroke-width:4; stroke-opacity:1; fill:none" points="
  250.028,845.532 268.926,845.532 
  "/>
<polyline clip-path="url(#clip220)" style="stroke:#000000; stroke-linecap:round; stroke-linejoin:round; stroke-width:4; stroke-opacity:1; fill:none" points="
  250.028,701.12 268.926,701.12 
  "/>
<polyline clip-path="url(#clip220)" style="stroke:#000000; stroke-linecap:round; stroke-linejoin:round; stroke-width:4; stroke-opacity:1; fill:none" points="
  250.028,556.708 268.926,556.708 
  "/>
<polyline clip-path="url(#clip220)" style="stroke:#000000; stroke-linecap:round; stroke-linejoin:round; stroke-width:4; stroke-opacity:1; fill:none" points="
  250.028,412.296 268.926,412.296 
  "/>
<polyline clip-path="url(#clip220)" style="stroke:#000000; stroke-linecap:round; stroke-linejoin:round; stroke-width:4; stroke-opacity:1; fill:none" points="
  250.028,267.884 268.926,267.884 
  "/>
<path clip-path="url(#clip220)" d="M128.288 1264.57 Q124.677 1264.57 122.848 1268.13 Q121.043 1271.67 121.043 1278.8 Q121.043 1285.91 122.848 1289.47 Q124.677 1293.02 128.288 1293.02 Q131.922 1293.02 133.728 1289.47 Q135.556 1285.91 135.556 1278.8 Q135.556 1271.67 133.728 1268.13 Q131.922 1264.57 128.288 1264.57 M128.288 1260.86 Q134.098 1260.86 137.154 1265.47 Q140.232 1270.05 140.232 1278.8 Q140.232 1287.53 137.154 1292.14 Q134.098 1296.72 128.288 1296.72 Q122.478 1296.72 119.399 1292.14 Q116.343 1287.53 116.343 1278.8 Q116.343 1270.05 119.399 1265.47 Q122.478 1260.86 128.288 1260.86 Z" fill="#000000" fill-rule="evenodd" fill-opacity="1" /><path clip-path="url(#clip220)" d="M148.45 1290.17 L153.334 1290.17 L153.334 1296.05 L148.45 1296.05 L148.45 1290.17 Z" fill="#000000" fill-rule="evenodd" fill-opacity="1" /><path clip-path="url(#clip220)" d="M163.565 1261.49 L181.922 1261.49 L181.922 1265.42 L167.848 1265.42 L167.848 1273.9 Q168.866 1273.55 169.885 1273.39 Q170.903 1273.2 171.922 1273.2 Q177.709 1273.2 181.089 1276.37 Q184.468 1279.54 184.468 1284.96 Q184.468 1290.54 180.996 1293.64 Q177.524 1296.72 171.204 1296.72 Q169.028 1296.72 166.76 1296.35 Q164.515 1295.98 162.107 1295.24 L162.107 1290.54 Q164.19 1291.67 166.413 1292.23 Q168.635 1292.78 171.112 1292.78 Q175.116 1292.78 177.454 1290.68 Q179.792 1288.57 179.792 1284.96 Q179.792 1281.35 177.454 1279.24 Q175.116 1277.14 171.112 1277.14 Q169.237 1277.14 167.362 1277.55 Q165.51 1277.97 163.565 1278.85 L163.565 1261.49 Z" fill="#000000" fill-rule="evenodd" fill-opacity="1" /><path clip-path="url(#clip220)" d="M197.709 1292.11 L214.028 1292.11 L214.028 1296.05 L192.084 1296.05 L192.084 1292.11 Q194.746 1289.36 199.329 1284.73 Q203.936 1280.08 205.116 1278.73 Q207.362 1276.21 208.241 1274.47 Q209.144 1272.71 209.144 1271.02 Q209.144 1268.27 207.199 1266.53 Q205.278 1264.8 202.176 1264.8 Q199.977 1264.8 197.524 1265.56 Q195.093 1266.33 192.315 1267.88 L192.315 1263.15 Q195.139 1262.02 197.593 1261.44 Q200.047 1260.86 202.084 1260.86 Q207.454 1260.86 210.649 1263.55 Q213.843 1266.23 213.843 1270.72 Q213.843 1272.85 213.033 1274.77 Q212.246 1276.67 210.139 1279.27 Q209.561 1279.94 206.459 1283.15 Q203.357 1286.35 197.709 1292.11 Z" fill="#000000" fill-rule="evenodd" fill-opacity="1" /><path clip-path="url(#clip220)" d="M126.205 1120.15 Q122.593 1120.15 120.765 1123.72 Q118.959 1127.26 118.959 1134.39 Q118.959 1141.5 120.765 1145.06 Q122.593 1148.6 126.205 1148.6 Q129.839 1148.6 131.644 1145.06 Q133.473 1141.5 133.473 1134.39 Q133.473 1127.26 131.644 1123.72 Q129.839 1120.15 126.205 1120.15 M126.205 1116.45 Q132.015 1116.45 135.07 1121.06 Q138.149 1125.64 138.149 1134.39 Q138.149 1143.12 135.07 1147.72 Q132.015 1152.31 126.205 1152.31 Q120.394 1152.31 117.316 1147.72 Q114.26 1143.12 114.26 1134.39 Q114.26 1125.64 117.316 1121.06 Q120.394 1116.45 126.205 1116.45 Z" fill="#000000" fill-rule="evenodd" fill-opacity="1" /><path clip-path="url(#clip220)" d="M146.366 1145.76 L151.251 1145.76 L151.251 1151.64 L146.366 1151.64 L146.366 1145.76 Z" fill="#000000" fill-rule="evenodd" fill-opacity="1" /><path clip-path="url(#clip220)" d="M161.482 1117.08 L179.839 1117.08 L179.839 1121.01 L165.765 1121.01 L165.765 1129.48 Q166.783 1129.14 167.802 1128.97 Q168.82 1128.79 169.839 1128.79 Q175.626 1128.79 179.005 1131.96 Q182.385 1135.13 182.385 1140.55 Q182.385 1146.13 178.913 1149.23 Q175.44 1152.31 169.121 1152.31 Q166.945 1152.31 164.677 1151.94 Q162.431 1151.57 160.024 1150.83 L160.024 1146.13 Q162.107 1147.26 164.329 1147.82 Q166.552 1148.37 169.028 1148.37 Q173.033 1148.37 175.371 1146.27 Q177.709 1144.16 177.709 1140.55 Q177.709 1136.94 175.371 1134.83 Q173.033 1132.72 169.028 1132.72 Q167.153 1132.72 165.278 1133.14 Q163.427 1133.56 161.482 1134.44 L161.482 1117.08 Z" fill="#000000" fill-rule="evenodd" fill-opacity="1" /><path clip-path="url(#clip220)" d="M204.445 1121.15 L192.639 1139.6 L204.445 1139.6 L204.445 1121.15 M203.218 1117.08 L209.098 1117.08 L209.098 1139.6 L214.028 1139.6 L214.028 1143.49 L209.098 1143.49 L209.098 1151.64 L204.445 1151.64 L204.445 1143.49 L188.843 1143.49 L188.843 1138.97 L203.218 1117.08 Z" fill="#000000" fill-rule="evenodd" fill-opacity="1" /><path clip-path="url(#clip220)" d="M126.529 975.743 Q122.918 975.743 121.089 979.307 Q119.283 982.849 119.283 989.979 Q119.283 997.085 121.089 1000.65 Q122.918 1004.19 126.529 1004.19 Q130.163 1004.19 131.968 1000.65 Q133.797 997.085 133.797 989.979 Q133.797 982.849 131.968 979.307 Q130.163 975.743 126.529 975.743 M126.529 972.039 Q132.339 972.039 135.394 976.645 Q138.473 981.229 138.473 989.979 Q138.473 998.705 135.394 1003.31 Q132.339 1007.9 126.529 1007.9 Q120.718 1007.9 117.64 1003.31 Q114.584 998.705 114.584 989.979 Q114.584 981.229 117.64 976.645 Q120.718 972.039 126.529 972.039 Z" fill="#000000" fill-rule="evenodd" fill-opacity="1" /><path clip-path="url(#clip220)" d="M146.691 1001.34 L151.575 1001.34 L151.575 1007.22 L146.691 1007.22 L146.691 1001.34 Z" fill="#000000" fill-rule="evenodd" fill-opacity="1" /><path clip-path="url(#clip220)" d="M161.806 972.664 L180.163 972.664 L180.163 976.599 L166.089 976.599 L166.089 985.071 Q167.107 984.724 168.126 984.562 Q169.144 984.377 170.163 984.377 Q175.95 984.377 179.329 987.548 Q182.709 990.719 182.709 996.136 Q182.709 1001.71 179.237 1004.82 Q175.764 1007.9 169.445 1007.9 Q167.269 1007.9 165.001 1007.52 Q162.755 1007.15 160.348 1006.41 L160.348 1001.71 Q162.431 1002.85 164.653 1003.4 Q166.876 1003.96 169.352 1003.96 Q173.357 1003.96 175.695 1001.85 Q178.033 999.747 178.033 996.136 Q178.033 992.525 175.695 990.418 Q173.357 988.312 169.352 988.312 Q167.477 988.312 165.602 988.729 Q163.751 989.145 161.806 990.025 L161.806 972.664 Z" fill="#000000" fill-rule="evenodd" fill-opacity="1" /><path clip-path="url(#clip220)" d="M202.5 988.081 Q199.352 988.081 197.5 990.233 Q195.672 992.386 195.672 996.136 Q195.672 999.863 197.5 1002.04 Q199.352 1004.19 202.5 1004.19 Q205.649 1004.19 207.477 1002.04 Q209.329 999.863 209.329 996.136 Q209.329 992.386 207.477 990.233 Q205.649 988.081 202.5 988.081 M211.783 973.428 L211.783 977.687 Q210.024 976.854 208.218 976.414 Q206.436 975.974 204.676 975.974 Q200.047 975.974 197.593 979.099 Q195.163 982.224 194.815 988.543 Q196.181 986.53 198.241 985.465 Q200.301 984.377 202.778 984.377 Q207.987 984.377 210.996 987.548 Q214.028 990.696 214.028 996.136 Q214.028 1001.46 210.88 1004.68 Q207.732 1007.9 202.5 1007.9 Q196.505 1007.9 193.334 1003.31 Q190.163 998.705 190.163 989.979 Q190.163 981.784 194.051 976.923 Q197.94 972.039 204.491 972.039 Q206.25 972.039 208.033 972.386 Q209.838 972.733 211.783 973.428 Z" fill="#000000" fill-rule="evenodd" fill-opacity="1" /><path clip-path="url(#clip220)" d="M126.783 831.331 Q123.172 831.331 121.343 834.895 Q119.538 838.437 119.538 845.567 Q119.538 852.673 121.343 856.238 Q123.172 859.78 126.783 859.78 Q130.417 859.78 132.223 856.238 Q134.052 852.673 134.052 845.567 Q134.052 838.437 132.223 834.895 Q130.417 831.331 126.783 831.331 M126.783 827.627 Q132.593 827.627 135.649 832.233 Q138.728 836.817 138.728 845.567 Q138.728 854.293 135.649 858.9 Q132.593 863.483 126.783 863.483 Q120.973 863.483 117.894 858.9 Q114.839 854.293 114.839 845.567 Q114.839 836.817 117.894 832.233 Q120.973 827.627 126.783 827.627 Z" fill="#000000" fill-rule="evenodd" fill-opacity="1" /><path clip-path="url(#clip220)" d="M146.945 856.932 L151.829 856.932 L151.829 862.812 L146.945 862.812 L146.945 856.932 Z" fill="#000000" fill-rule="evenodd" fill-opacity="1" /><path clip-path="url(#clip220)" d="M162.061 828.252 L180.417 828.252 L180.417 832.187 L166.343 832.187 L166.343 840.659 Q167.362 840.312 168.38 840.15 Q169.399 839.965 170.417 839.965 Q176.204 839.965 179.584 843.136 Q182.963 846.307 182.963 851.724 Q182.963 857.303 179.491 860.405 Q176.019 863.483 169.7 863.483 Q167.524 863.483 165.255 863.113 Q163.01 862.743 160.603 862.002 L160.603 857.303 Q162.686 858.437 164.908 858.993 Q167.13 859.548 169.607 859.548 Q173.612 859.548 175.95 857.442 Q178.288 855.335 178.288 851.724 Q178.288 848.113 175.95 846.007 Q173.612 843.9 169.607 843.9 Q167.732 843.9 165.857 844.317 Q164.005 844.733 162.061 845.613 L162.061 828.252 Z" fill="#000000" fill-rule="evenodd" fill-opacity="1" /><path clip-path="url(#clip220)" d="M202.176 846.4 Q198.843 846.4 196.922 848.182 Q195.024 849.965 195.024 853.09 Q195.024 856.215 196.922 857.997 Q198.843 859.78 202.176 859.78 Q205.51 859.78 207.431 857.997 Q209.352 856.192 209.352 853.09 Q209.352 849.965 207.431 848.182 Q205.533 846.4 202.176 846.4 M197.5 844.409 Q194.491 843.669 192.801 841.608 Q191.135 839.548 191.135 836.585 Q191.135 832.442 194.075 830.034 Q197.037 827.627 202.176 827.627 Q207.338 827.627 210.278 830.034 Q213.218 832.442 213.218 836.585 Q213.218 839.548 211.528 841.608 Q209.861 843.669 206.875 844.409 Q210.255 845.196 212.13 847.488 Q214.028 849.78 214.028 853.09 Q214.028 858.113 210.949 860.798 Q207.894 863.483 202.176 863.483 Q196.459 863.483 193.38 860.798 Q190.325 858.113 190.325 853.09 Q190.325 849.78 192.223 847.488 Q194.121 845.196 197.5 844.409 M195.787 837.025 Q195.787 839.71 197.454 841.215 Q199.144 842.719 202.176 842.719 Q205.186 842.719 206.875 841.215 Q208.588 839.71 208.588 837.025 Q208.588 834.34 206.875 832.835 Q205.186 831.331 202.176 831.331 Q199.144 831.331 197.454 832.835 Q195.787 834.34 195.787 837.025 Z" fill="#000000" fill-rule="evenodd" fill-opacity="1" /><path clip-path="url(#clip220)" d="M126.691 686.919 Q123.08 686.919 121.251 690.483 Q119.445 694.025 119.445 701.155 Q119.445 708.261 121.251 711.826 Q123.08 715.368 126.691 715.368 Q130.325 715.368 132.13 711.826 Q133.959 708.261 133.959 701.155 Q133.959 694.025 132.13 690.483 Q130.325 686.919 126.691 686.919 M126.691 683.215 Q132.501 683.215 135.556 687.821 Q138.635 692.405 138.635 701.155 Q138.635 709.882 135.556 714.488 Q132.501 719.071 126.691 719.071 Q120.88 719.071 117.802 714.488 Q114.746 709.882 114.746 701.155 Q114.746 692.405 117.802 687.821 Q120.88 683.215 126.691 683.215 Z" fill="#000000" fill-rule="evenodd" fill-opacity="1" /><path clip-path="url(#clip220)" d="M146.853 712.52 L151.737 712.52 L151.737 718.4 L146.853 718.4 L146.853 712.52 Z" fill="#000000" fill-rule="evenodd" fill-opacity="1" /><path clip-path="url(#clip220)" d="M172.501 699.257 Q169.352 699.257 167.501 701.409 Q165.672 703.562 165.672 707.312 Q165.672 711.039 167.501 713.215 Q169.352 715.368 172.501 715.368 Q175.649 715.368 177.477 713.215 Q179.329 711.039 179.329 707.312 Q179.329 703.562 177.477 701.409 Q175.649 699.257 172.501 699.257 M181.783 684.604 L181.783 688.863 Q180.024 688.03 178.218 687.59 Q176.436 687.15 174.677 687.15 Q170.047 687.15 167.593 690.275 Q165.163 693.4 164.815 699.72 Q166.181 697.706 168.241 696.641 Q170.302 695.553 172.778 695.553 Q177.987 695.553 180.996 698.724 Q184.028 701.872 184.028 707.312 Q184.028 712.636 180.88 715.854 Q177.732 719.071 172.501 719.071 Q166.505 719.071 163.334 714.488 Q160.163 709.882 160.163 701.155 Q160.163 692.96 164.052 688.099 Q167.94 683.215 174.491 683.215 Q176.251 683.215 178.033 683.562 Q179.839 683.909 181.783 684.604 Z" fill="#000000" fill-rule="evenodd" fill-opacity="1" /><path clip-path="url(#clip220)" d="M202.084 686.919 Q198.473 686.919 196.644 690.483 Q194.838 694.025 194.838 701.155 Q194.838 708.261 196.644 711.826 Q198.473 715.368 202.084 715.368 Q205.718 715.368 207.524 711.826 Q209.352 708.261 209.352 701.155 Q209.352 694.025 207.524 690.483 Q205.718 686.919 202.084 686.919 M202.084 683.215 Q207.894 683.215 210.949 687.821 Q214.028 692.405 214.028 701.155 Q214.028 709.882 210.949 714.488 Q207.894 719.071 202.084 719.071 Q196.274 719.071 193.195 714.488 Q190.139 709.882 190.139 701.155 Q190.139 692.405 193.195 687.821 Q196.274 683.215 202.084 683.215 Z" fill="#000000" fill-rule="evenodd" fill-opacity="1" /><path clip-path="url(#clip220)" d="M128.288 542.507 Q124.677 542.507 122.848 546.072 Q121.043 549.613 121.043 556.743 Q121.043 563.849 122.848 567.414 Q124.677 570.956 128.288 570.956 Q131.922 570.956 133.728 567.414 Q135.556 563.849 135.556 556.743 Q135.556 549.613 133.728 546.072 Q131.922 542.507 128.288 542.507 M128.288 538.803 Q134.098 538.803 137.154 543.409 Q140.232 547.993 140.232 556.743 Q140.232 565.47 137.154 570.076 Q134.098 574.659 128.288 574.659 Q122.478 574.659 119.399 570.076 Q116.343 565.47 116.343 556.743 Q116.343 547.993 119.399 543.409 Q122.478 538.803 128.288 538.803 Z" fill="#000000" fill-rule="evenodd" fill-opacity="1" /><path clip-path="url(#clip220)" d="M148.45 568.108 L153.334 568.108 L153.334 573.988 L148.45 573.988 L148.45 568.108 Z" fill="#000000" fill-rule="evenodd" fill-opacity="1" /><path clip-path="url(#clip220)" d="M174.098 554.845 Q170.95 554.845 169.098 556.997 Q167.269 559.15 167.269 562.9 Q167.269 566.627 169.098 568.803 Q170.95 570.956 174.098 570.956 Q177.246 570.956 179.075 568.803 Q180.926 566.627 180.926 562.9 Q180.926 559.15 179.075 556.997 Q177.246 554.845 174.098 554.845 M183.38 540.192 L183.38 544.451 Q181.621 543.618 179.815 543.178 Q178.033 542.738 176.274 542.738 Q171.644 542.738 169.19 545.863 Q166.76 548.988 166.413 555.308 Q167.778 553.294 169.839 552.229 Q171.899 551.141 174.376 551.141 Q179.584 551.141 182.593 554.312 Q185.626 557.46 185.626 562.9 Q185.626 568.224 182.477 571.442 Q179.329 574.659 174.098 574.659 Q168.102 574.659 164.931 570.076 Q161.76 565.47 161.76 556.743 Q161.76 548.548 165.649 543.687 Q169.538 538.803 176.089 538.803 Q177.848 538.803 179.63 539.15 Q181.436 539.497 183.38 540.192 Z" fill="#000000" fill-rule="evenodd" fill-opacity="1" /><path clip-path="url(#clip220)" d="M197.709 570.053 L214.028 570.053 L214.028 573.988 L192.084 573.988 L192.084 570.053 Q194.746 567.298 199.329 562.669 Q203.936 558.016 205.116 556.673 Q207.362 554.15 208.241 552.414 Q209.144 550.655 209.144 548.965 Q209.144 546.21 207.199 544.474 Q205.278 542.738 202.176 542.738 Q199.977 542.738 197.524 543.502 Q195.093 544.266 192.315 545.817 L192.315 541.095 Q195.139 539.96 197.593 539.382 Q200.047 538.803 202.084 538.803 Q207.454 538.803 210.649 541.488 Q213.843 544.173 213.843 548.664 Q213.843 550.794 213.033 552.715 Q212.246 554.613 210.139 557.206 Q209.561 557.877 206.459 561.095 Q203.357 564.289 197.709 570.053 Z" fill="#000000" fill-rule="evenodd" fill-opacity="1" /><path clip-path="url(#clip220)" d="M126.205 398.095 Q122.593 398.095 120.765 401.66 Q118.959 405.201 118.959 412.331 Q118.959 419.437 120.765 423.002 Q122.593 426.544 126.205 426.544 Q129.839 426.544 131.644 423.002 Q133.473 419.437 133.473 412.331 Q133.473 405.201 131.644 401.66 Q129.839 398.095 126.205 398.095 M126.205 394.391 Q132.015 394.391 135.07 398.998 Q138.149 403.581 138.149 412.331 Q138.149 421.058 135.07 425.664 Q132.015 430.247 126.205 430.247 Q120.394 430.247 117.316 425.664 Q114.26 421.058 114.26 412.331 Q114.26 403.581 117.316 398.998 Q120.394 394.391 126.205 394.391 Z" fill="#000000" fill-rule="evenodd" fill-opacity="1" /><path clip-path="url(#clip220)" d="M146.366 423.696 L151.251 423.696 L151.251 429.576 L146.366 429.576 L146.366 423.696 Z" fill="#000000" fill-rule="evenodd" fill-opacity="1" /><path clip-path="url(#clip220)" d="M172.014 410.433 Q168.866 410.433 167.015 412.585 Q165.186 414.738 165.186 418.488 Q165.186 422.215 167.015 424.391 Q168.866 426.544 172.014 426.544 Q175.163 426.544 176.991 424.391 Q178.843 422.215 178.843 418.488 Q178.843 414.738 176.991 412.585 Q175.163 410.433 172.014 410.433 M181.297 395.78 L181.297 400.039 Q179.538 399.206 177.732 398.766 Q175.95 398.326 174.19 398.326 Q169.561 398.326 167.107 401.451 Q164.677 404.576 164.329 410.896 Q165.695 408.882 167.755 407.817 Q169.815 406.729 172.292 406.729 Q177.501 406.729 180.51 409.9 Q183.542 413.048 183.542 418.488 Q183.542 423.812 180.394 427.03 Q177.246 430.247 172.014 430.247 Q166.019 430.247 162.848 425.664 Q159.677 421.058 159.677 412.331 Q159.677 404.136 163.565 399.275 Q167.454 394.391 174.005 394.391 Q175.764 394.391 177.547 394.738 Q179.352 395.086 181.297 395.78 Z" fill="#000000" fill-rule="evenodd" fill-opacity="1" /><path clip-path="url(#clip220)" d="M204.445 399.09 L192.639 417.539 L204.445 417.539 L204.445 399.09 M203.218 395.016 L209.098 395.016 L209.098 417.539 L214.028 417.539 L214.028 421.428 L209.098 421.428 L209.098 429.576 L204.445 429.576 L204.445 421.428 L188.843 421.428 L188.843 416.914 L203.218 395.016 Z" fill="#000000" fill-rule="evenodd" fill-opacity="1" /><path clip-path="url(#clip220)" d="M126.529 253.683 Q122.918 253.683 121.089 257.248 Q119.283 260.789 119.283 267.919 Q119.283 275.025 121.089 278.59 Q122.918 282.132 126.529 282.132 Q130.163 282.132 131.968 278.59 Q133.797 275.025 133.797 267.919 Q133.797 260.789 131.968 257.248 Q130.163 253.683 126.529 253.683 M126.529 249.979 Q132.339 249.979 135.394 254.586 Q138.473 259.169 138.473 267.919 Q138.473 276.646 135.394 281.252 Q132.339 285.835 126.529 285.835 Q120.718 285.835 117.64 281.252 Q114.584 276.646 114.584 267.919 Q114.584 259.169 117.64 254.586 Q120.718 249.979 126.529 249.979 Z" fill="#000000" fill-rule="evenodd" fill-opacity="1" /><path clip-path="url(#clip220)" d="M146.691 279.284 L151.575 279.284 L151.575 285.164 L146.691 285.164 L146.691 279.284 Z" fill="#000000" fill-rule="evenodd" fill-opacity="1" /><path clip-path="url(#clip220)" d="M172.339 266.021 Q169.19 266.021 167.339 268.173 Q165.51 270.326 165.51 274.076 Q165.51 277.803 167.339 279.979 Q169.19 282.132 172.339 282.132 Q175.487 282.132 177.315 279.979 Q179.167 277.803 179.167 274.076 Q179.167 270.326 177.315 268.173 Q175.487 266.021 172.339 266.021 M181.621 251.368 L181.621 255.627 Q179.862 254.794 178.056 254.354 Q176.274 253.914 174.514 253.914 Q169.885 253.914 167.431 257.039 Q165.001 260.164 164.653 266.484 Q166.019 264.47 168.079 263.405 Q170.139 262.317 172.616 262.317 Q177.825 262.317 180.834 265.488 Q183.866 268.636 183.866 274.076 Q183.866 279.4 180.718 282.618 Q177.57 285.835 172.339 285.835 Q166.343 285.835 163.172 281.252 Q160.001 276.646 160.001 267.919 Q160.001 259.724 163.89 254.863 Q167.778 249.979 174.329 249.979 Q176.089 249.979 177.871 250.326 Q179.676 250.674 181.621 251.368 Z" fill="#000000" fill-rule="evenodd" fill-opacity="1" /><path clip-path="url(#clip220)" d="M202.5 266.021 Q199.352 266.021 197.5 268.173 Q195.672 270.326 195.672 274.076 Q195.672 277.803 197.5 279.979 Q199.352 282.132 202.5 282.132 Q205.649 282.132 207.477 279.979 Q209.329 277.803 209.329 274.076 Q209.329 270.326 207.477 268.173 Q205.649 266.021 202.5 266.021 M211.783 251.368 L211.783 255.627 Q210.024 254.794 208.218 254.354 Q206.436 253.914 204.676 253.914 Q200.047 253.914 197.593 257.039 Q195.163 260.164 194.815 266.484 Q196.181 264.47 198.241 263.405 Q200.301 262.317 202.778 262.317 Q207.987 262.317 210.996 265.488 Q214.028 268.636 214.028 274.076 Q214.028 279.4 210.88 282.618 Q207.732 285.835 202.5 285.835 Q196.505 285.835 193.334 281.252 Q190.163 276.646 190.163 267.919 Q190.163 259.724 194.051 254.863 Q197.94 249.979 204.491 249.979 Q206.25 249.979 208.033 250.326 Q209.838 250.674 211.783 251.368 Z" fill="#000000" fill-rule="evenodd" fill-opacity="1" /><path clip-path="url(#clip220)" d="M16.4842 987.834 L16.4842 981.405 L64.0042 981.405 L64.0042 987.834 L16.4842 987.834 Z" fill="#000000" fill-rule="evenodd" fill-opacity="1" /><path clip-path="url(#clip220)" d="M42.4881 939.232 L64.0042 939.232 L64.0042 945.089 L42.679 945.089 Q37.6183 945.089 35.1038 947.062 Q32.5894 949.035 32.5894 952.982 Q32.5894 957.725 35.6131 960.462 Q38.6368 963.199 43.8567 963.199 L64.0042 963.199 L64.0042 969.087 L28.3562 969.087 L28.3562 963.199 L33.8944 963.199 Q30.6797 961.098 29.0883 958.266 Q27.4968 955.401 27.4968 951.677 Q27.4968 945.534 31.3163 942.383 Q35.1038 939.232 42.4881 939.232 Z" fill="#000000" fill-rule="evenodd" fill-opacity="1" /><path clip-path="url(#clip220)" d="M42.4881 897.919 L64.0042 897.919 L64.0042 903.775 L42.679 903.775 Q37.6183 903.775 35.1038 905.749 Q32.5894 907.722 32.5894 911.669 Q32.5894 916.411 35.6131 919.148 Q38.6368 921.886 43.8567 921.886 L64.0042 921.886 L64.0042 927.774 L28.3562 927.774 L28.3562 921.886 L33.8944 921.886 Q30.6797 919.785 29.0883 916.952 Q27.4968 914.088 27.4968 910.364 Q27.4968 904.221 31.3163 901.07 Q35.1038 897.919 42.4881 897.919 Z" fill="#000000" fill-rule="evenodd" fill-opacity="1" /><path clip-path="url(#clip220)" d="M44.7161 855.746 L47.5806 855.746 L47.5806 882.673 Q53.6281 882.291 56.8109 879.044 Q59.9619 875.766 59.9619 869.941 Q59.9619 866.568 59.1344 863.417 Q58.3069 860.234 56.6518 857.115 L62.1899 857.115 Q63.5267 860.266 64.227 863.576 Q64.9272 866.886 64.9272 870.292 Q64.9272 878.822 59.9619 883.819 Q54.9967 888.784 46.5303 888.784 Q37.7774 888.784 32.6531 884.073 Q27.4968 879.331 27.4968 871.31 Q27.4968 864.117 32.1438 859.947 Q36.7589 855.746 44.7161 855.746 M42.9973 861.602 Q38.1912 861.666 35.3266 864.308 Q32.4621 866.918 32.4621 871.246 Q32.4621 876.148 35.2312 879.108 Q38.0002 882.036 43.0292 882.482 L42.9973 861.602 Z" fill="#000000" fill-rule="evenodd" fill-opacity="1" /><path clip-path="url(#clip220)" d="M33.8307 825.477 Q33.2578 826.464 33.0032 827.641 Q32.7167 828.787 32.7167 830.188 Q32.7167 835.153 35.9632 837.827 Q39.1779 840.468 45.2253 840.468 L64.0042 840.468 L64.0042 846.357 L28.3562 846.357 L28.3562 840.468 L33.8944 840.468 Q30.6479 838.622 29.0883 835.662 Q27.4968 832.702 27.4968 828.469 Q27.4968 827.864 27.5923 827.132 Q27.656 826.4 27.8151 825.509 L33.8307 825.477 Z" fill="#000000" fill-rule="evenodd" fill-opacity="1" /><path clip-path="url(#clip220)" d="M21.7677 791.93 L39.6235 791.93 L39.6235 783.845 Q39.6235 779.357 37.3 776.907 Q34.9765 774.456 30.6797 774.456 Q26.4147 774.456 24.0912 776.907 Q21.7677 779.357 21.7677 783.845 L21.7677 791.93 M16.4842 798.359 L16.4842 783.845 Q16.4842 775.856 20.1126 771.782 Q23.7092 767.676 30.6797 767.676 Q37.7138 767.676 41.3104 771.782 Q44.907 775.856 44.907 783.845 L44.907 791.93 L64.0042 791.93 L64.0042 798.359 L16.4842 798.359 Z" fill="#000000" fill-rule="evenodd" fill-opacity="1" /><path clip-path="url(#clip220)" d="M33.8307 739.795 Q33.2578 740.781 33.0032 741.959 Q32.7167 743.105 32.7167 744.505 Q32.7167 749.47 35.9632 752.144 Q39.1779 754.786 45.2253 754.786 L64.0042 754.786 L64.0042 760.674 L28.3562 760.674 L28.3562 754.786 L33.8944 754.786 Q30.6479 752.94 29.0883 749.98 Q27.4968 747.02 27.4968 742.787 Q27.4968 742.182 27.5923 741.45 Q27.656 740.718 27.8151 739.826 L33.8307 739.795 Z" fill="#000000" fill-rule="evenodd" fill-opacity="1" /><path clip-path="url(#clip220)" d="M32.4621 721.27 Q32.4621 725.981 36.1542 728.718 Q39.8145 731.456 46.212 731.456 Q52.6095 731.456 56.3017 728.75 Q59.9619 726.013 59.9619 721.27 Q59.9619 716.592 56.2698 713.854 Q52.5777 711.117 46.212 711.117 Q39.8781 711.117 36.186 713.854 Q32.4621 716.592 32.4621 721.27 M27.4968 721.27 Q27.4968 713.632 32.4621 709.271 Q37.4273 704.911 46.212 704.911 Q54.9649 704.911 59.9619 709.271 Q64.9272 713.632 64.9272 721.27 Q64.9272 728.941 59.9619 733.302 Q54.9649 737.63 46.212 737.63 Q37.4273 737.63 32.4621 733.302 Q27.4968 728.941 27.4968 721.27 Z" fill="#000000" fill-rule="evenodd" fill-opacity="1" /><path clip-path="url(#clip220)" d="M33.7671 671.745 L14.479 671.745 L14.479 665.889 L64.0042 665.889 L64.0042 671.745 L58.657 671.745 Q61.8398 673.591 63.3994 676.424 Q64.9272 679.225 64.9272 683.172 Q64.9272 689.633 59.771 693.707 Q54.6147 697.749 46.212 697.749 Q37.8093 697.749 32.6531 693.707 Q27.4968 689.633 27.4968 683.172 Q27.4968 679.225 29.0564 676.424 Q30.5842 673.591 33.7671 671.745 M46.212 691.702 Q52.6732 691.702 56.3653 689.06 Q60.0256 686.386 60.0256 681.739 Q60.0256 677.092 56.3653 674.419 Q52.6732 671.745 46.212 671.745 Q39.7508 671.745 36.0905 674.419 Q32.3984 677.092 32.3984 681.739 Q32.3984 686.386 36.0905 689.06 Q39.7508 691.702 46.212 691.702 Z" fill="#000000" fill-rule="evenodd" fill-opacity="1" /><path clip-path="url(#clip220)" d="M49.9359 654.43 L28.3562 654.43 L28.3562 648.574 L49.7131 648.574 Q54.7739 648.574 57.3202 646.601 Q59.8346 644.627 59.8346 640.681 Q59.8346 635.938 56.8109 633.201 Q53.7872 630.432 48.5673 630.432 L28.3562 630.432 L28.3562 624.575 L64.0042 624.575 L64.0042 630.432 L58.5296 630.432 Q61.7762 632.564 63.3676 635.397 Q64.9272 638.198 64.9272 641.922 Q64.9272 648.065 61.1078 651.248 Q57.2883 654.43 49.9359 654.43 M27.4968 639.694 L27.4968 639.694 Z" fill="#000000" fill-rule="evenodd" fill-opacity="1" /><path clip-path="url(#clip220)" d="M29.7248 586.859 L35.1993 586.859 Q33.8307 589.341 33.1623 591.856 Q32.4621 594.338 32.4621 596.885 Q32.4621 602.582 36.0905 605.733 Q39.6872 608.884 46.212 608.884 Q52.7369 608.884 56.3653 605.733 Q59.9619 602.582 59.9619 596.885 Q59.9619 594.338 59.2935 591.856 Q58.5933 589.341 57.2247 586.859 L62.6355 586.859 Q63.7814 589.309 64.3543 591.951 Q64.9272 594.561 64.9272 597.521 Q64.9272 605.574 59.8664 610.316 Q54.8057 615.059 46.212 615.059 Q37.491 615.059 32.4939 610.284 Q27.4968 605.478 27.4968 597.139 Q27.4968 594.434 28.0697 591.856 Q28.6108 589.277 29.7248 586.859 Z" fill="#000000" fill-rule="evenodd" fill-opacity="1" /><path clip-path="url(#clip220)" d="M18.2347 570.881 L28.3562 570.881 L28.3562 558.818 L32.9077 558.818 L32.9077 570.881 L52.2594 570.881 Q56.6199 570.881 57.8613 569.703 Q59.1026 568.493 59.1026 564.833 L59.1026 558.818 L64.0042 558.818 L64.0042 564.833 Q64.0042 571.613 61.4897 574.191 Q58.9434 576.769 52.2594 576.769 L32.9077 576.769 L32.9077 581.066 L28.3562 581.066 L28.3562 576.769 L18.2347 576.769 L18.2347 570.881 Z" fill="#000000" fill-rule="evenodd" fill-opacity="1" /><path clip-path="url(#clip220)" d="M1170.97 17.6457 Q1162.06 17.6457 1156.79 24.2892 Q1151.57 30.9327 1151.57 42.3968 Q1151.57 53.8203 1156.79 60.4638 Q1162.06 67.1073 1170.97 67.1073 Q1179.89 67.1073 1185.07 60.4638 Q1190.3 53.8203 1190.3 42.3968 Q1190.3 30.9327 1185.07 24.2892 Q1179.89 17.6457 1170.97 17.6457 M1170.97 11.0023 Q1183.69 11.0023 1191.31 19.5497 Q1198.92 28.0566 1198.92 42.3968 Q1198.92 56.6965 1191.31 65.2439 Q1183.69 73.7508 1170.97 73.7508 Q1158.21 73.7508 1150.56 65.2439 Q1142.94 56.737 1142.94 42.3968 Q1142.94 28.0566 1150.56 19.5497 Q1158.21 11.0023 1170.97 11.0023 Z" fill="#000000" fill-rule="evenodd" fill-opacity="1" /><path clip-path="url(#clip220)" d="M1206.05 27.2059 L1213.95 27.2059 L1228.13 65.2844 L1242.31 27.2059 L1250.21 27.2059 L1233.2 72.576 L1223.07 72.576 L1206.05 27.2059 Z" fill="#000000" fill-rule="evenodd" fill-opacity="1" /><path clip-path="url(#clip220)" d="M1299.31 48.0275 L1299.31 51.6733 L1265.04 51.6733 Q1265.52 59.3701 1269.65 63.421 Q1273.83 67.4314 1281.24 67.4314 Q1285.53 67.4314 1289.54 66.3781 Q1293.59 65.3249 1297.56 63.2184 L1297.56 70.267 Q1293.55 71.9684 1289.34 72.8596 Q1285.13 73.7508 1280.79 73.7508 Q1269.94 73.7508 1263.58 67.4314 Q1257.26 61.1119 1257.26 50.3365 Q1257.26 39.1965 1263.25 32.6746 Q1269.29 26.1121 1279.5 26.1121 Q1288.65 26.1121 1293.96 32.0264 Q1299.31 37.9003 1299.31 48.0275 M1291.85 45.84 Q1291.77 39.7232 1288.41 36.0774 Q1285.09 32.4315 1279.58 32.4315 Q1273.34 32.4315 1269.57 35.9558 Q1265.85 39.4801 1265.28 45.8805 L1291.85 45.84 Z" fill="#000000" fill-rule="evenodd" fill-opacity="1" /><path clip-path="url(#clip220)" d="M1337.83 34.1734 Q1336.57 33.4443 1335.08 33.1202 Q1333.62 32.7556 1331.83 32.7556 Q1325.52 32.7556 1322.11 36.8875 Q1318.75 40.9789 1318.75 48.6757 L1318.75 72.576 L1311.26 72.576 L1311.26 27.2059 L1318.75 27.2059 L1318.75 34.2544 Q1321.1 30.1225 1324.87 28.1376 Q1328.63 26.1121 1334.02 26.1121 Q1334.79 26.1121 1335.72 26.2337 Q1336.66 26.3147 1337.79 26.5172 L1337.83 34.1734 Z" fill="#000000" fill-rule="evenodd" fill-opacity="1" /><path clip-path="url(#clip220)" d="M1345.65 9.54393 L1353.1 9.54393 L1353.1 72.576 L1345.65 72.576 L1345.65 9.54393 Z" fill="#000000" fill-rule="evenodd" fill-opacity="1" /><path clip-path="url(#clip220)" d="M1389.32 49.7694 Q1380.28 49.7694 1376.8 51.8354 Q1373.32 53.9013 1373.32 58.8839 Q1373.32 62.8538 1375.91 65.2034 Q1378.54 67.5124 1383.04 67.5124 Q1389.24 67.5124 1392.96 63.1374 Q1396.73 58.7219 1396.73 51.4303 L1396.73 49.7694 L1389.32 49.7694 M1404.18 46.6907 L1404.18 72.576 L1396.73 72.576 L1396.73 65.6895 Q1394.18 69.8214 1390.37 71.8063 Q1386.56 73.7508 1381.05 73.7508 Q1374.09 73.7508 1369.95 69.8619 Q1365.86 65.9325 1365.86 59.3701 Q1365.86 51.7138 1370.97 47.825 Q1376.11 43.9361 1386.28 43.9361 L1396.73 43.9361 L1396.73 43.2069 Q1396.73 38.0623 1393.33 35.2672 Q1389.97 32.4315 1383.85 32.4315 Q1379.96 32.4315 1376.27 33.3632 Q1372.59 34.295 1369.18 36.1584 L1369.18 29.2718 Q1373.28 27.692 1377.12 26.9223 Q1380.97 26.1121 1384.62 26.1121 Q1394.46 26.1121 1399.32 31.2163 Q1404.18 36.3204 1404.18 46.6907 Z" fill="#000000" fill-rule="evenodd" fill-opacity="1" /><path clip-path="url(#clip220)" d="M1426.75 65.7705 L1426.75 89.8329 L1419.25 89.8329 L1419.25 27.2059 L1426.75 27.2059 L1426.75 34.0924 Q1429.1 30.0415 1432.66 28.0971 Q1436.27 26.1121 1441.25 26.1121 Q1449.51 26.1121 1454.66 32.6746 Q1459.84 39.2371 1459.84 49.9314 Q1459.84 60.6258 1454.66 67.1883 Q1449.51 73.7508 1441.25 73.7508 Q1436.27 73.7508 1432.66 71.8063 Q1429.1 69.8214 1426.75 65.7705 M1452.11 49.9314 Q1452.11 41.7081 1448.7 37.0496 Q1445.34 32.3505 1439.43 32.3505 Q1433.51 32.3505 1430.11 37.0496 Q1426.75 41.7081 1426.75 49.9314 Q1426.75 58.1548 1430.11 62.8538 Q1433.51 67.5124 1439.43 67.5124 Q1445.34 67.5124 1448.7 62.8538 Q1452.11 58.1548 1452.11 49.9314 Z" fill="#000000" fill-rule="evenodd" fill-opacity="1" /><polyline clip-path="url(#clip222)" style="stroke:#000000; stroke-linecap:round; stroke-linejoin:round; stroke-width:4; stroke-opacity:1; fill:none" points="
  432.874,320.186 432.874,320.186 
  "/>
<polyline clip-path="url(#clip222)" style="stroke:#000000; stroke-linecap:round; stroke-linejoin:round; stroke-width:4; stroke-opacity:1; fill:none" points="
  524.297,884.389 524.297,884.389 
  "/>
<polyline clip-path="url(#clip222)" style="stroke:#000000; stroke-linecap:round; stroke-linejoin:round; stroke-width:4; stroke-opacity:1; fill:none" points="
  615.72,397.463 615.72,397.463 
  "/>
<polyline clip-path="url(#clip222)" style="stroke:#000000; stroke-linecap:round; stroke-linejoin:round; stroke-width:4; stroke-opacity:1; fill:none" points="
  707.143,829.711 707.143,829.686 
  "/>
<polyline clip-path="url(#clip222)" style="stroke:#000000; stroke-linecap:round; stroke-linejoin:round; stroke-width:4; stroke-opacity:1; fill:none" points="
  798.566,404.503 798.566,404.503 
  "/>
<polyline clip-path="url(#clip222)" style="stroke:#000000; stroke-linecap:round; stroke-linejoin:round; stroke-width:4; stroke-opacity:1; fill:none" points="
  889.989,810.034 889.989,809.731 
  "/>
<polyline clip-path="url(#clip222)" style="stroke:#000000; stroke-linecap:round; stroke-linejoin:round; stroke-width:4; stroke-opacity:1; fill:none" points="
  981.412,406.315 981.412,406.315 
  "/>
<polyline clip-path="url(#clip222)" style="stroke:#000000; stroke-linecap:round; stroke-linejoin:round; stroke-width:4; stroke-opacity:1; fill:none" points="
  1072.83,798.65 1072.83,798.412 
  "/>
<polyline clip-path="url(#clip222)" style="stroke:#000000; stroke-linecap:round; stroke-linejoin:round; stroke-width:4; stroke-opacity:1; fill:none" points="
  1164.26,404.885 1164.26,404.815 
  "/>
<polyline clip-path="url(#clip222)" style="stroke:#000000; stroke-linecap:round; stroke-linejoin:round; stroke-width:4; stroke-opacity:1; fill:none" points="
  1255.68,805.93 1255.68,805.369 
  "/>
<polyline clip-path="url(#clip222)" style="stroke:#000000; stroke-linecap:round; stroke-linejoin:round; stroke-width:4; stroke-opacity:1; fill:none" points="
  1347.1,394.825 1347.1,393.289 
  "/>
<polyline clip-path="url(#clip222)" style="stroke:#000000; stroke-linecap:round; stroke-linejoin:round; stroke-width:4; stroke-opacity:1; fill:none" points="
  1438.53,839.42 1438.53,837.28 
  "/>
<polyline clip-path="url(#clip222)" style="stroke:#000000; stroke-linecap:round; stroke-linejoin:round; stroke-width:4; stroke-opacity:1; fill:none" points="
  1529.95,413.802 1529.95,333.986 
  "/>
<polyline clip-path="url(#clip222)" style="stroke:#000000; stroke-linecap:round; stroke-linejoin:round; stroke-width:4; stroke-opacity:1; fill:none" points="
  1621.37,900.828 1621.37,874.069 
  "/>
<polyline clip-path="url(#clip222)" style="stroke:#000000; stroke-linecap:round; stroke-linejoin:round; stroke-width:4; stroke-opacity:1; fill:none" points="
  1712.8,621.213 1712.8,616.928 
  "/>
<polyline clip-path="url(#clip222)" style="stroke:#000000; stroke-linecap:round; stroke-linejoin:round; stroke-width:4; stroke-opacity:1; fill:none" points="
  1804.22,1179.01 1804.22,1144.52 
  "/>
<polyline clip-path="url(#clip222)" style="stroke:#000000; stroke-linecap:round; stroke-linejoin:round; stroke-width:4; stroke-opacity:1; fill:none" points="
  1895.64,770.682 1895.64,720.545 
  "/>
<polyline clip-path="url(#clip222)" style="stroke:#000000; stroke-linecap:round; stroke-linejoin:round; stroke-width:4; stroke-opacity:1; fill:none" points="
  1987.06,935.598 1987.06,845.453 
  "/>
<line clip-path="url(#clip222)" x1="440.874" y1="320.186" x2="424.874" y2="320.186" style="stroke:#000000; stroke-width:3.2; stroke-opacity:1"/>
<line clip-path="url(#clip222)" x1="440.874" y1="320.186" x2="424.874" y2="320.186" style="stroke:#000000; stroke-width:3.2; stroke-opacity:1"/>
<line clip-path="url(#clip222)" x1="532.297" y1="884.389" x2="516.297" y2="884.389" style="stroke:#000000; stroke-width:3.2; stroke-opacity:1"/>
<line clip-path="url(#clip222)" x1="532.297" y1="884.389" x2="516.297" y2="884.389" style="stroke:#000000; stroke-width:3.2; stroke-opacity:1"/>
<line clip-path="url(#clip222)" x1="623.72" y1="397.463" x2="607.72" y2="397.463" style="stroke:#000000; stroke-width:3.2; stroke-opacity:1"/>
<line clip-path="url(#clip222)" x1="623.72" y1="397.463" x2="607.72" y2="397.463" style="stroke:#000000; stroke-width:3.2; stroke-opacity:1"/>
<line clip-path="url(#clip222)" x1="715.143" y1="829.711" x2="699.143" y2="829.711" style="stroke:#000000; stroke-width:3.2; stroke-opacity:1"/>
<line clip-path="url(#clip222)" x1="715.143" y1="829.686" x2="699.143" y2="829.686" style="stroke:#000000; stroke-width:3.2; stroke-opacity:1"/>
<line clip-path="url(#clip222)" x1="806.566" y1="404.503" x2="790.566" y2="404.503" style="stroke:#000000; stroke-width:3.2; stroke-opacity:1"/>
<line clip-path="url(#clip222)" x1="806.566" y1="404.503" x2="790.566" y2="404.503" style="stroke:#000000; stroke-width:3.2; stroke-opacity:1"/>
<line clip-path="url(#clip222)" x1="897.989" y1="810.034" x2="881.989" y2="810.034" style="stroke:#000000; stroke-width:3.2; stroke-opacity:1"/>
<line clip-path="url(#clip222)" x1="897.989" y1="809.731" x2="881.989" y2="809.731" style="stroke:#000000; stroke-width:3.2; stroke-opacity:1"/>
<line clip-path="url(#clip222)" x1="989.412" y1="406.315" x2="973.412" y2="406.315" style="stroke:#000000; stroke-width:3.2; stroke-opacity:1"/>
<line clip-path="url(#clip222)" x1="989.412" y1="406.315" x2="973.412" y2="406.315" style="stroke:#000000; stroke-width:3.2; stroke-opacity:1"/>
<line clip-path="url(#clip222)" x1="1080.83" y1="798.65" x2="1064.83" y2="798.65" style="stroke:#000000; stroke-width:3.2; stroke-opacity:1"/>
<line clip-path="url(#clip222)" x1="1080.83" y1="798.412" x2="1064.83" y2="798.412" style="stroke:#000000; stroke-width:3.2; stroke-opacity:1"/>
<line clip-path="url(#clip222)" x1="1172.26" y1="404.885" x2="1156.26" y2="404.885" style="stroke:#000000; stroke-width:3.2; stroke-opacity:1"/>
<line clip-path="url(#clip222)" x1="1172.26" y1="404.815" x2="1156.26" y2="404.815" style="stroke:#000000; stroke-width:3.2; stroke-opacity:1"/>
<line clip-path="url(#clip222)" x1="1263.68" y1="805.93" x2="1247.68" y2="805.93" style="stroke:#000000; stroke-width:3.2; stroke-opacity:1"/>
<line clip-path="url(#clip222)" x1="1263.68" y1="805.369" x2="1247.68" y2="805.369" style="stroke:#000000; stroke-width:3.2; stroke-opacity:1"/>
<line clip-path="url(#clip222)" x1="1355.1" y1="394.825" x2="1339.1" y2="394.825" style="stroke:#000000; stroke-width:3.2; stroke-opacity:1"/>
<line clip-path="url(#clip222)" x1="1355.1" y1="393.289" x2="1339.1" y2="393.289" style="stroke:#000000; stroke-width:3.2; stroke-opacity:1"/>
<line clip-path="url(#clip222)" x1="1446.53" y1="839.42" x2="1430.53" y2="839.42" style="stroke:#000000; stroke-width:3.2; stroke-opacity:1"/>
<line clip-path="url(#clip222)" x1="1446.53" y1="837.28" x2="1430.53" y2="837.28" style="stroke:#000000; stroke-width:3.2; stroke-opacity:1"/>
<line clip-path="url(#clip222)" x1="1537.95" y1="413.802" x2="1521.95" y2="413.802" style="stroke:#000000; stroke-width:3.2; stroke-opacity:1"/>
<line clip-path="url(#clip222)" x1="1537.95" y1="333.986" x2="1521.95" y2="333.986" style="stroke:#000000; stroke-width:3.2; stroke-opacity:1"/>
<line clip-path="url(#clip222)" x1="1629.37" y1="900.828" x2="1613.37" y2="900.828" style="stroke:#000000; stroke-width:3.2; stroke-opacity:1"/>
<line clip-path="url(#clip222)" x1="1629.37" y1="874.069" x2="1613.37" y2="874.069" style="stroke:#000000; stroke-width:3.2; stroke-opacity:1"/>
<line clip-path="url(#clip222)" x1="1720.8" y1="621.213" x2="1704.8" y2="621.213" style="stroke:#000000; stroke-width:3.2; stroke-opacity:1"/>
<line clip-path="url(#clip222)" x1="1720.8" y1="616.928" x2="1704.8" y2="616.928" style="stroke:#000000; stroke-width:3.2; stroke-opacity:1"/>
<line clip-path="url(#clip222)" x1="1812.22" y1="1179.01" x2="1796.22" y2="1179.01" style="stroke:#000000; stroke-width:3.2; stroke-opacity:1"/>
<line clip-path="url(#clip222)" x1="1812.22" y1="1144.52" x2="1796.22" y2="1144.52" style="stroke:#000000; stroke-width:3.2; stroke-opacity:1"/>
<line clip-path="url(#clip222)" x1="1903.64" y1="770.682" x2="1887.64" y2="770.682" style="stroke:#000000; stroke-width:3.2; stroke-opacity:1"/>
<line clip-path="url(#clip222)" x1="1903.64" y1="720.545" x2="1887.64" y2="720.545" style="stroke:#000000; stroke-width:3.2; stroke-opacity:1"/>
<line clip-path="url(#clip222)" x1="1995.06" y1="935.598" x2="1979.06" y2="935.598" style="stroke:#000000; stroke-width:3.2; stroke-opacity:1"/>
<line clip-path="url(#clip222)" x1="1995.06" y1="845.453" x2="1979.06" y2="845.453" style="stroke:#000000; stroke-width:3.2; stroke-opacity:1"/>
<circle clip-path="url(#clip222)" cx="432.874" cy="320.186" r="7.2" fill="#009af9" fill-rule="evenodd" fill-opacity="1" stroke="#000000" stroke-opacity="1" stroke-width="3.2"/>
<circle clip-path="url(#clip222)" cx="524.297" cy="884.389" r="7.2" fill="#009af9" fill-rule="evenodd" fill-opacity="1" stroke="#000000" stroke-opacity="1" stroke-width="3.2"/>
<circle clip-path="url(#clip222)" cx="615.72" cy="397.463" r="7.2" fill="#009af9" fill-rule="evenodd" fill-opacity="1" stroke="#000000" stroke-opacity="1" stroke-width="3.2"/>
<circle clip-path="url(#clip222)" cx="707.143" cy="829.698" r="7.2" fill="#009af9" fill-rule="evenodd" fill-opacity="1" stroke="#000000" stroke-opacity="1" stroke-width="3.2"/>
<circle clip-path="url(#clip222)" cx="798.566" cy="404.503" r="7.2" fill="#009af9" fill-rule="evenodd" fill-opacity="1" stroke="#000000" stroke-opacity="1" stroke-width="3.2"/>
<circle clip-path="url(#clip222)" cx="889.989" cy="809.883" r="7.2" fill="#009af9" fill-rule="evenodd" fill-opacity="1" stroke="#000000" stroke-opacity="1" stroke-width="3.2"/>
<circle clip-path="url(#clip222)" cx="981.412" cy="406.315" r="7.2" fill="#009af9" fill-rule="evenodd" fill-opacity="1" stroke="#000000" stroke-opacity="1" stroke-width="3.2"/>
<circle clip-path="url(#clip222)" cx="1072.83" cy="798.531" r="7.2" fill="#009af9" fill-rule="evenodd" fill-opacity="1" stroke="#000000" stroke-opacity="1" stroke-width="3.2"/>
<circle clip-path="url(#clip222)" cx="1164.26" cy="404.85" r="7.2" fill="#009af9" fill-rule="evenodd" fill-opacity="1" stroke="#000000" stroke-opacity="1" stroke-width="3.2"/>
<circle clip-path="url(#clip222)" cx="1255.68" cy="805.649" r="7.2" fill="#009af9" fill-rule="evenodd" fill-opacity="1" stroke="#000000" stroke-opacity="1" stroke-width="3.2"/>
<circle clip-path="url(#clip222)" cx="1347.1" cy="394.057" r="7.2" fill="#009af9" fill-rule="evenodd" fill-opacity="1" stroke="#000000" stroke-opacity="1" stroke-width="3.2"/>
<circle clip-path="url(#clip222)" cx="1438.53" cy="838.35" r="7.2" fill="#009af9" fill-rule="evenodd" fill-opacity="1" stroke="#000000" stroke-opacity="1" stroke-width="3.2"/>
<circle clip-path="url(#clip222)" cx="1529.95" cy="373.894" r="7.2" fill="#009af9" fill-rule="evenodd" fill-opacity="1" stroke="#000000" stroke-opacity="1" stroke-width="3.2"/>
<circle clip-path="url(#clip222)" cx="1621.37" cy="887.449" r="7.2" fill="#009af9" fill-rule="evenodd" fill-opacity="1" stroke="#000000" stroke-opacity="1" stroke-width="3.2"/>
<circle clip-path="url(#clip222)" cx="1712.8" cy="619.07" r="7.2" fill="#009af9" fill-rule="evenodd" fill-opacity="1" stroke="#000000" stroke-opacity="1" stroke-width="3.2"/>
<circle clip-path="url(#clip222)" cx="1804.22" cy="1161.76" r="7.2" fill="#009af9" fill-rule="evenodd" fill-opacity="1" stroke="#000000" stroke-opacity="1" stroke-width="3.2"/>
<circle clip-path="url(#clip222)" cx="1895.64" cy="745.614" r="7.2" fill="#009af9" fill-rule="evenodd" fill-opacity="1" stroke="#000000" stroke-opacity="1" stroke-width="3.2"/>
<circle clip-path="url(#clip222)" cx="1987.06" cy="890.525" r="7.2" fill="#009af9" fill-rule="evenodd" fill-opacity="1" stroke="#000000" stroke-opacity="1" stroke-width="3.2"/>
<path clip-path="url(#clip220)" d="
M1523.85 270.476 L2282.66 270.476 L2282.66 166.796 L1523.85 166.796  Z
  " fill="#ffffff" fill-rule="evenodd" fill-opacity="1"/>
<polyline clip-path="url(#clip220)" style="stroke:#000000; stroke-linecap:round; stroke-linejoin:round; stroke-width:4; stroke-opacity:1; fill:none" points="
  1523.85,270.476 2282.66,270.476 2282.66,166.796 1523.85,166.796 1523.85,270.476 
  "/>
<circle clip-path="url(#clip220)" cx="1617.3" cy="218.636" r="23.04" fill="#009af9" fill-rule="evenodd" fill-opacity="1" stroke="#000000" stroke-opacity="1" stroke-width="10.24"/>
<path clip-path="url(#clip220)" d="M1731.1 214.967 Q1732.7 212.096 1734.92 210.731 Q1737.14 209.365 1740.15 209.365 Q1744.2 209.365 1746.4 212.212 Q1748.6 215.036 1748.6 220.268 L1748.6 235.916 L1744.32 235.916 L1744.32 220.407 Q1744.32 216.68 1743 214.874 Q1741.68 213.069 1738.97 213.069 Q1735.66 213.069 1733.74 215.268 Q1731.82 217.467 1731.82 221.263 L1731.82 235.916 L1727.54 235.916 L1727.54 220.407 Q1727.54 216.657 1726.22 214.874 Q1724.9 213.069 1722.14 213.069 Q1718.88 213.069 1716.96 215.291 Q1715.04 217.49 1715.04 221.263 L1715.04 235.916 L1710.76 235.916 L1710.76 209.99 L1715.04 209.99 L1715.04 214.018 Q1716.5 211.633 1718.53 210.499 Q1720.57 209.365 1723.37 209.365 Q1726.2 209.365 1728.16 210.8 Q1730.15 212.235 1731.1 214.967 Z" fill="#000000" fill-rule="evenodd" fill-opacity="1" /><path clip-path="url(#clip220)" d="M1765.82 220.245 Q1764.67 218.254 1762.33 218.254 Q1759.99 218.254 1758.83 220.245 Q1757.65 222.235 1757.65 226.217 Q1757.65 230.221 1758.83 232.212 Q1759.99 234.203 1762.33 234.203 Q1764.67 234.203 1765.82 232.212 Q1767.01 230.221 1767.01 226.217 Q1767.01 222.235 1765.82 220.245 M1762.33 216.194 Q1766.06 216.194 1768.02 218.763 Q1769.99 221.332 1769.99 226.217 Q1769.99 231.124 1768.02 233.694 Q1766.06 236.263 1762.33 236.263 Q1758.58 236.263 1756.61 233.694 Q1754.64 231.124 1754.64 226.217 Q1754.64 221.332 1756.61 218.763 Q1758.58 216.194 1762.33 216.194 Z" fill="#000000" fill-rule="evenodd" fill-opacity="1" /><path clip-path="url(#clip220)" d="M1776.66 214.388 L1806.33 214.388 L1806.33 218.277 L1776.66 218.277 L1776.66 214.388 M1776.66 223.832 L1806.33 223.832 L1806.33 227.768 L1776.66 227.768 L1776.66 223.832 Z" fill="#000000" fill-rule="evenodd" fill-opacity="1" /><path clip-path="url(#clip220)" d="M1826.43 204.434 Q1822.81 204.434 1820.99 207.999 Q1819.18 211.541 1819.18 218.67 Q1819.18 225.777 1820.99 229.342 Q1822.81 232.883 1826.43 232.883 Q1830.06 232.883 1831.87 229.342 Q1833.69 225.777 1833.69 218.67 Q1833.69 211.541 1831.87 207.999 Q1830.06 204.434 1826.43 204.434 M1826.43 200.731 Q1832.24 200.731 1835.29 205.337 Q1838.37 209.92 1838.37 218.67 Q1838.37 227.397 1835.29 232.004 Q1832.24 236.587 1826.43 236.587 Q1820.62 236.587 1817.54 232.004 Q1814.48 227.397 1814.48 218.67 Q1814.48 209.92 1817.54 205.337 Q1820.62 200.731 1826.43 200.731 Z" fill="#000000" fill-rule="evenodd" fill-opacity="1" /><path clip-path="url(#clip220)" d="M1846.59 230.036 L1851.47 230.036 L1851.47 235.916 L1846.59 235.916 L1846.59 230.036 Z" fill="#000000" fill-rule="evenodd" fill-opacity="1" /><path clip-path="url(#clip220)" d="M1861.7 201.356 L1880.06 201.356 L1880.06 205.291 L1865.99 205.291 L1865.99 213.763 Q1867 213.416 1868.02 213.254 Q1869.04 213.069 1870.06 213.069 Q1875.85 213.069 1879.23 216.24 Q1882.61 219.411 1882.61 224.828 Q1882.61 230.406 1879.13 233.508 Q1875.66 236.587 1869.34 236.587 Q1867.17 236.587 1864.9 236.217 Q1862.65 235.846 1860.25 235.106 L1860.25 230.406 Q1862.33 231.541 1864.55 232.096 Q1866.77 232.652 1869.25 232.652 Q1873.25 232.652 1875.59 230.545 Q1877.93 228.439 1877.93 224.828 Q1877.93 221.217 1875.59 219.11 Q1873.25 217.004 1869.25 217.004 Q1867.37 217.004 1865.5 217.42 Q1863.65 217.837 1861.7 218.717 L1861.7 201.356 Z" fill="#000000" fill-rule="evenodd" fill-opacity="1" /><path clip-path="url(#clip220)" d="M1892.31 230.036 L1897.19 230.036 L1897.19 234.018 L1893.39 241.425 L1890.41 241.425 L1892.31 234.018 L1892.31 230.036 Z" fill="#000000" fill-rule="evenodd" fill-opacity="1" /><path clip-path="url(#clip220)" d="M1930.04 230.985 L1930.04 221.703 L1922.4 221.703 L1922.4 217.86 L1934.67 217.86 L1934.67 232.698 Q1931.96 234.619 1928.69 235.615 Q1925.43 236.587 1921.73 236.587 Q1913.62 236.587 1909.04 231.865 Q1904.48 227.119 1904.48 218.67 Q1904.48 210.198 1909.04 205.476 Q1913.62 200.731 1921.73 200.731 Q1925.11 200.731 1928.14 201.564 Q1931.19 202.397 1933.76 204.018 L1933.76 208.995 Q1931.17 206.796 1928.25 205.684 Q1925.34 204.573 1922.12 204.573 Q1915.78 204.573 1912.58 208.115 Q1909.41 211.657 1909.41 218.67 Q1909.41 225.661 1912.58 229.203 Q1915.78 232.744 1922.12 232.744 Q1924.6 232.744 1926.54 232.328 Q1928.49 231.888 1930.04 230.985 Z" fill="#000000" fill-rule="evenodd" fill-opacity="1" /><path clip-path="url(#clip220)" d="M1944.76 217.814 L1954.57 217.814 L1954.57 220.453 L1940.73 220.453 L1940.73 217.907 Q1941.52 217.189 1942.98 215.893 Q1950.94 208.833 1950.94 206.657 Q1950.94 205.129 1949.74 204.203 Q1948.53 203.254 1946.56 203.254 Q1945.36 203.254 1943.95 203.671 Q1942.54 204.064 1940.87 204.874 L1940.87 202.027 Q1942.65 201.379 1944.18 201.055 Q1945.73 200.731 1947.05 200.731 Q1950.41 200.731 1952.42 202.258 Q1954.43 203.786 1954.43 206.286 Q1954.43 209.504 1946.77 216.078 Q1945.48 217.189 1944.76 217.814 Z" fill="#000000" fill-rule="evenodd" fill-opacity="1" /><path clip-path="url(#clip220)" d="M1962.58 214.388 L1992.26 214.388 L1992.26 218.277 L1962.58 218.277 L1962.58 214.388 M1962.58 223.832 L1992.26 223.832 L1992.26 227.768 L1962.58 227.768 L1962.58 223.832 Z" fill="#000000" fill-rule="evenodd" fill-opacity="1" /><path clip-path="url(#clip220)" d="M2003.16 231.981 L2010.8 231.981 L2010.8 205.615 L2002.49 207.282 L2002.49 203.022 L2010.75 201.356 L2015.43 201.356 L2015.43 231.981 L2023.07 231.981 L2023.07 235.916 L2003.16 235.916 L2003.16 231.981 Z" fill="#000000" fill-rule="evenodd" fill-opacity="1" /><path clip-path="url(#clip220)" d="M2032.51 230.036 L2037.4 230.036 L2037.4 235.916 L2032.51 235.916 L2032.51 230.036 Z" fill="#000000" fill-rule="evenodd" fill-opacity="1" /><path clip-path="url(#clip220)" d="M2057.58 204.434 Q2053.97 204.434 2052.14 207.999 Q2050.34 211.541 2050.34 218.67 Q2050.34 225.777 2052.14 229.342 Q2053.97 232.883 2057.58 232.883 Q2061.22 232.883 2063.02 229.342 Q2064.85 225.777 2064.85 218.67 Q2064.85 211.541 2063.02 207.999 Q2061.22 204.434 2057.58 204.434 M2057.58 200.731 Q2063.39 200.731 2066.45 205.337 Q2069.53 209.92 2069.53 218.67 Q2069.53 227.397 2066.45 232.004 Q2063.39 236.587 2057.58 236.587 Q2051.77 236.587 2048.69 232.004 Q2045.64 227.397 2045.64 218.67 Q2045.64 209.92 2048.69 205.337 Q2051.77 200.731 2057.58 200.731 Z" fill="#000000" fill-rule="evenodd" fill-opacity="1" /><path clip-path="url(#clip220)" d="M2078.23 230.036 L2083.11 230.036 L2083.11 234.018 L2079.32 241.425 L2076.33 241.425 L2078.23 234.018 L2078.23 230.036 Z" fill="#000000" fill-rule="evenodd" fill-opacity="1" /><path clip-path="url(#clip220)" d="M2114.39 221.888 L2114.39 223.971 L2094.8 223.971 Q2095.08 228.369 2097.44 230.684 Q2099.83 232.976 2104.06 232.976 Q2106.52 232.976 2108.81 232.374 Q2111.12 231.772 2113.39 230.569 L2113.39 234.596 Q2111.1 235.568 2108.69 236.078 Q2106.29 236.587 2103.81 236.587 Q2097.61 236.587 2093.97 232.976 Q2090.36 229.365 2090.36 223.207 Q2090.36 216.842 2093.79 213.115 Q2097.23 209.365 2103.07 209.365 Q2108.3 209.365 2111.33 212.745 Q2114.39 216.101 2114.39 221.888 M2110.13 220.638 Q2110.08 217.143 2108.16 215.059 Q2106.26 212.976 2103.11 212.976 Q2099.55 212.976 2097.4 214.99 Q2095.27 217.004 2094.94 220.661 L2110.13 220.638 Z" fill="#000000" fill-rule="evenodd" fill-opacity="1" /><path clip-path="url(#clip220)" d="M2136.4 213.971 Q2135.68 213.555 2134.83 213.37 Q2133.99 213.161 2132.98 213.161 Q2129.36 213.161 2127.42 215.522 Q2125.5 217.86 2125.5 222.258 L2125.5 235.916 L2121.22 235.916 L2121.22 209.99 L2125.5 209.99 L2125.5 214.018 Q2126.84 211.657 2128.99 210.522 Q2131.15 209.365 2134.23 209.365 Q2134.67 209.365 2135.2 209.434 Q2135.73 209.481 2136.38 209.596 L2136.4 213.971 Z" fill="#000000" fill-rule="evenodd" fill-opacity="1" /><path clip-path="url(#clip220)" d="M2155.06 213.971 Q2154.34 213.555 2153.48 213.37 Q2152.65 213.161 2151.63 213.161 Q2148.02 213.161 2146.08 215.522 Q2144.16 217.86 2144.16 222.258 L2144.16 235.916 L2139.87 235.916 L2139.87 209.99 L2144.16 209.99 L2144.16 214.018 Q2145.5 211.657 2147.65 210.522 Q2149.8 209.365 2152.88 209.365 Q2153.32 209.365 2153.85 209.434 Q2154.39 209.481 2155.04 209.596 L2155.06 213.971 Z" fill="#000000" fill-rule="evenodd" fill-opacity="1" /><path clip-path="url(#clip220)" d="M2177.35 207.05 L2169.04 211.541 L2177.35 216.055 L2176.01 218.323 L2168.23 213.624 L2168.23 222.351 L2165.59 222.351 L2165.59 213.624 L2157.81 218.323 L2156.47 216.055 L2164.78 211.541 L2156.47 207.05 L2157.81 204.758 L2165.59 209.458 L2165.59 200.731 L2168.23 200.731 L2168.23 209.458 L2176.01 204.758 L2177.35 207.05 Z" fill="#000000" fill-rule="evenodd" fill-opacity="1" /><path clip-path="url(#clip220)" d="M2184.64 231.981 L2192.28 231.981 L2192.28 205.615 L2183.97 207.282 L2183.97 203.022 L2192.23 201.356 L2196.91 201.356 L2196.91 231.981 L2204.55 231.981 L2204.55 235.916 L2184.64 235.916 L2184.64 231.981 Z" fill="#000000" fill-rule="evenodd" fill-opacity="1" /><path clip-path="url(#clip220)" d="M2223.99 204.434 Q2220.38 204.434 2218.55 207.999 Q2216.75 211.541 2216.75 218.67 Q2216.75 225.777 2218.55 229.342 Q2220.38 232.883 2223.99 232.883 Q2227.63 232.883 2229.43 229.342 Q2231.26 225.777 2231.26 218.67 Q2231.26 211.541 2229.43 207.999 Q2227.63 204.434 2223.99 204.434 M2223.99 200.731 Q2229.8 200.731 2232.86 205.337 Q2235.94 209.92 2235.94 218.67 Q2235.94 227.397 2232.86 232.004 Q2229.8 236.587 2223.99 236.587 Q2218.18 236.587 2215.1 232.004 Q2212.05 227.397 2212.05 218.67 Q2212.05 209.92 2215.1 205.337 Q2218.18 200.731 2223.99 200.731 Z" fill="#000000" fill-rule="evenodd" fill-opacity="1" /></svg>
