<?xml version="1.0" encoding="utf-8"?>
<svg xmlns="http://www.w3.org/2000/svg" xmlns:xlink="http://www.w3.org/1999/xlink" width="600" height="400" viewBox="0 0 2400 1600">
<defs>
  <clipPath id="clip340">
    <rect x="0" y="0" width="2400" height="1600"/>
  </clipPath>
</defs>
<path clip-path="url(#clip340)" d="
M0 1600 L2400 1600 L2400 0 L0 0  Z
  " fill="#ffffff" fill-rule="evenodd" fill-opacity="1"/>
<defs>
  <clipPath id="clip341">
    <rect x="480" y="0" width="1681" height="1600"/>
  </clipPath>
</defs>
<path clip-path="url(#clip340)" d="
M249.542 1423.18 L2352.76 1423.18 L2352.76 123.472 L249.542 123.472  Z
  " fill="#ffffff" fill-rule="evenodd" fill-opacity="1"/>
<defs>
  <clipPath id="clip342">
    <rect x="249" y="123" width="2104" height="1301"/>
  </clipPath>
</defs>
<polyline clip-path="url(#clip342)" style="stroke:#000000; stroke-linecap:round; stroke-linejoin:round; stroke-width:2; stroke-opacity:0.1; fill:none" points="
  249.542,1423.18 249.542,123.472 
  "/>
<polyline clip-path="url(#clip342)" style="stroke:#000000; stroke-linecap:round; stroke-linejoin:round; stroke-width:2; stroke-opacity:0.1; fill:none" points="
  550.001,1423.18 550.001,123.472 
  "/>
<polyline clip-path="url(#clip342)" style="stroke:#000000; stroke-linecap:round; stroke-linejoin:round; stroke-width:2; stroke-opacity:0.1; fill:none" points="
  850.46,1423.18 850.46,123.472 
  "/>
<polyline clip-path="url(#clip342)" style="stroke:#000000; stroke-linecap:round; stroke-linejoin:round; stroke-width:2; stroke-opacity:0.1; fill:none" points="
  1150.92,1423.18 1150.92,123.472 
  "/>
<polyline clip-path="url(#clip342)" style="stroke:#000000; stroke-linecap:round; stroke-linejoin:round; stroke-width:2; stroke-opacity:0.1; fill:none" points="
  1451.38,1423.18 1451.38,123.472 
  "/>
<polyline clip-path="url(#clip342)" style="stroke:#000000; stroke-linecap:round; stroke-linejoin:round; stroke-width:2; stroke-opacity:0.1; fill:none" points="
  1751.84,1423.18 1751.84,123.472 
  "/>
<polyline clip-path="url(#clip342)" style="stroke:#000000; stroke-linecap:round; stroke-linejoin:round; stroke-width:2; stroke-opacity:0.1; fill:none" points="
  2052.3,1423.18 2052.3,123.472 
  "/>
<polyline clip-path="url(#clip342)" style="stroke:#000000; stroke-linecap:round; stroke-linejoin:round; stroke-width:2; stroke-opacity:0.1; fill:none" points="
  2352.76,1423.18 2352.76,123.472 
  "/>
<polyline clip-path="url(#clip340)" style="stroke:#000000; stroke-linecap:round; stroke-linejoin:round; stroke-width:4; stroke-opacity:1; fill:none" points="
  249.542,1423.18 2352.76,1423.18 
  "/>
<polyline clip-path="url(#clip340)" style="stroke:#000000; stroke-linecap:round; stroke-linejoin:round; stroke-width:4; stroke-opacity:1; fill:none" points="
  249.542,1423.18 249.542,1404.28 
  "/>
<polyline clip-path="url(#clip340)" style="stroke:#000000; stroke-linecap:round; stroke-linejoin:round; stroke-width:4; stroke-opacity:1; fill:none" points="
  550.001,1423.18 550.001,1404.28 
  "/>
<polyline clip-path="url(#clip340)" style="stroke:#000000; stroke-linecap:round; stroke-linejoin:round; stroke-width:4; stroke-opacity:1; fill:none" points="
  850.46,1423.18 850.46,1404.28 
  "/>
<polyline clip-path="url(#clip340)" style="stroke:#000000; stroke-linecap:round; stroke-linejoin:round; stroke-width:4; stroke-opacity:1; fill:none" points="
  1150.92,1423.18 1150.92,1404.28 
  "/>
<polyline clip-path="url(#clip340)" style="stroke:#000000; stroke-linecap:round; stroke-linejoin:round; stroke-width:4; stroke-opacity:1; fill:none" points="
  1451.38,1423.18 1451.38,1404.28 
  "/>
<polyline clip-path="url(#clip340)" style="stroke:#000000; stroke-linecap:round; stroke-linejoin:round; stroke-width:4; stroke-opacity:1; fill:none" points="
  1751.84,1423.18 1751.84,1404.28 
  "/>
<polyline clip-path="url(#clip340)" style="stroke:#000000; stroke-linecap:round; stroke-linejoin:round; stroke-width:4; stroke-opacity:1; fill:none" points="
  2052.3,1423.18 2052.3,1404.28 
  "/>
<polyline clip-path="url(#clip340)" style="stroke:#000000; stroke-linecap:round; stroke-linejoin:round; stroke-width:4; stroke-opacity:1; fill:none" points="
  2352.76,1423.18 2352.76,1404.28 
  "/>
<path clip-path="url(#clip340)" d="M249.542 1454.1 Q245.931 1454.1 244.102 1457.66 Q242.297 1461.2 242.297 1468.33 Q242.297 1475.44 244.102 1479.01 Q245.931 1482.55 249.542 1482.55 Q253.176 1482.55 254.982 1479.01 Q256.811 1475.44 256.811 1468.33 Q256.811 1461.2 254.982 1457.66 Q253.176 1454.1 249.542 1454.1 M249.542 1450.39 Q255.352 1450.39 258.408 1455 Q261.486 1459.58 261.486 1468.33 Q261.486 1477.06 258.408 1481.67 Q255.352 1486.25 249.542 1486.25 Q243.732 1486.25 240.653 1481.67 Q237.598 1477.06 237.598 1468.33 Q237.598 1459.58 240.653 1455 Q243.732 1450.39 249.542 1450.39 Z" fill="#000000" fill-rule="evenodd" fill-opacity="1" /><path clip-path="url(#clip340)" d="M540.279 1451.02 L558.635 1451.02 L558.635 1454.96 L544.561 1454.96 L544.561 1463.43 Q545.58 1463.08 546.598 1462.92 Q547.617 1462.73 548.635 1462.73 Q554.422 1462.73 557.802 1465.9 Q561.182 1469.08 561.182 1474.49 Q561.182 1480.07 557.709 1483.17 Q554.237 1486.25 547.918 1486.25 Q545.742 1486.25 543.473 1485.88 Q541.228 1485.51 538.821 1484.77 L538.821 1480.07 Q540.904 1481.2 543.126 1481.76 Q545.348 1482.32 547.825 1482.32 Q551.83 1482.32 554.168 1480.21 Q556.506 1478.1 556.506 1474.49 Q556.506 1470.88 554.168 1468.77 Q551.83 1466.67 547.825 1466.67 Q545.95 1466.67 544.075 1467.08 Q542.223 1467.5 540.279 1468.38 L540.279 1451.02 Z" fill="#000000" fill-rule="evenodd" fill-opacity="1" /><path clip-path="url(#clip340)" d="M825.148 1481.64 L832.787 1481.64 L832.787 1455.28 L824.477 1456.95 L824.477 1452.69 L832.74 1451.02 L837.416 1451.02 L837.416 1481.64 L845.055 1481.64 L845.055 1485.58 L825.148 1485.58 L825.148 1481.64 Z" fill="#000000" fill-rule="evenodd" fill-opacity="1" /><path clip-path="url(#clip340)" d="M864.5 1454.1 Q860.888 1454.1 859.06 1457.66 Q857.254 1461.2 857.254 1468.33 Q857.254 1475.44 859.06 1479.01 Q860.888 1482.55 864.5 1482.55 Q868.134 1482.55 869.939 1479.01 Q871.768 1475.44 871.768 1468.33 Q871.768 1461.2 869.939 1457.66 Q868.134 1454.1 864.5 1454.1 M864.5 1450.39 Q870.31 1450.39 873.365 1455 Q876.444 1459.58 876.444 1468.33 Q876.444 1477.06 873.365 1481.67 Q870.31 1486.25 864.5 1486.25 Q858.689 1486.25 855.611 1481.67 Q852.555 1477.06 852.555 1468.33 Q852.555 1459.58 855.611 1455 Q858.689 1450.39 864.5 1450.39 Z" fill="#000000" fill-rule="evenodd" fill-opacity="1" /><path clip-path="url(#clip340)" d="M1126.1 1481.64 L1133.74 1481.64 L1133.74 1455.28 L1125.43 1456.95 L1125.43 1452.69 L1133.7 1451.02 L1138.37 1451.02 L1138.37 1481.64 L1146.01 1481.64 L1146.01 1485.58 L1126.1 1485.58 L1126.1 1481.64 Z" fill="#000000" fill-rule="evenodd" fill-opacity="1" /><path clip-path="url(#clip340)" d="M1155.5 1451.02 L1173.86 1451.02 L1173.86 1454.96 L1159.79 1454.96 L1159.79 1463.43 Q1160.8 1463.08 1161.82 1462.92 Q1162.84 1462.73 1163.86 1462.73 Q1169.65 1462.73 1173.03 1465.9 Q1176.41 1469.08 1176.41 1474.49 Q1176.41 1480.07 1172.93 1483.17 Q1169.46 1486.25 1163.14 1486.25 Q1160.97 1486.25 1158.7 1485.88 Q1156.45 1485.51 1154.04 1484.77 L1154.04 1480.07 Q1156.13 1481.2 1158.35 1481.76 Q1160.57 1482.32 1163.05 1482.32 Q1167.05 1482.32 1169.39 1480.21 Q1171.73 1478.1 1171.73 1474.49 Q1171.73 1470.88 1169.39 1468.77 Q1167.05 1466.67 1163.05 1466.67 Q1161.17 1466.67 1159.3 1467.08 Q1157.45 1467.5 1155.5 1468.38 L1155.5 1451.02 Z" fill="#000000" fill-rule="evenodd" fill-opacity="1" /><path clip-path="url(#clip340)" d="M1430.15 1481.64 L1446.47 1481.64 L1446.47 1485.58 L1424.53 1485.58 L1424.53 1481.64 Q1427.19 1478.89 1431.77 1474.26 Q1436.38 1469.61 1437.56 1468.27 Q1439.8 1465.74 1440.68 1464.01 Q1441.59 1462.25 1441.59 1460.56 Q1441.59 1457.8 1439.64 1456.07 Q1437.72 1454.33 1434.62 1454.33 Q1432.42 1454.33 1429.97 1455.09 Q1427.54 1455.86 1424.76 1457.41 L1424.76 1452.69 Q1427.58 1451.55 1430.04 1450.97 Q1432.49 1450.39 1434.53 1450.39 Q1439.9 1450.39 1443.09 1453.08 Q1446.29 1455.77 1446.29 1460.26 Q1446.29 1462.39 1445.48 1464.31 Q1444.69 1466.2 1442.58 1468.8 Q1442 1469.47 1438.9 1472.69 Q1435.8 1475.88 1430.15 1481.64 Z" fill="#000000" fill-rule="evenodd" fill-opacity="1" /><path clip-path="url(#clip340)" d="M1466.29 1454.1 Q1462.67 1454.1 1460.85 1457.66 Q1459.04 1461.2 1459.04 1468.33 Q1459.04 1475.44 1460.85 1479.01 Q1462.67 1482.55 1466.29 1482.55 Q1469.92 1482.55 1471.73 1479.01 Q1473.55 1475.44 1473.55 1468.33 Q1473.55 1461.2 1471.73 1457.66 Q1469.92 1454.1 1466.29 1454.1 M1466.29 1450.39 Q1472.1 1450.39 1475.15 1455 Q1478.23 1459.58 1478.23 1468.33 Q1478.23 1477.06 1475.15 1481.67 Q1472.1 1486.25 1466.29 1486.25 Q1460.48 1486.25 1457.4 1481.67 Q1454.34 1477.06 1454.34 1468.33 Q1454.34 1459.58 1457.4 1455 Q1460.48 1450.39 1466.29 1450.39 Z" fill="#000000" fill-rule="evenodd" fill-opacity="1" /><path clip-path="url(#clip340)" d="M1731.11 1481.64 L1747.43 1481.64 L1747.43 1485.58 L1725.48 1485.58 L1725.48 1481.64 Q1728.15 1478.89 1732.73 1474.26 Q1737.34 1469.61 1738.52 1468.27 Q1740.76 1465.74 1741.64 1464.01 Q1742.54 1462.25 1742.54 1460.56 Q1742.54 1457.8 1740.6 1456.07 Q1738.68 1454.33 1735.58 1454.33 Q1733.38 1454.33 1730.92 1455.09 Q1728.49 1455.86 1725.72 1457.41 L1725.72 1452.69 Q1728.54 1451.55 1730.99 1450.97 Q1733.45 1450.39 1735.48 1450.39 Q1740.85 1450.39 1744.05 1453.08 Q1747.24 1455.77 1747.24 1460.26 Q1747.24 1462.39 1746.43 1464.31 Q1745.65 1466.2 1743.54 1468.8 Q1742.96 1469.47 1739.86 1472.69 Q1736.76 1475.88 1731.11 1481.64 Z" fill="#000000" fill-rule="evenodd" fill-opacity="1" /><path clip-path="url(#clip340)" d="M1757.29 1451.02 L1775.65 1451.02 L1775.65 1454.96 L1761.57 1454.96 L1761.57 1463.43 Q1762.59 1463.08 1763.61 1462.92 Q1764.63 1462.73 1765.65 1462.73 Q1771.43 1462.73 1774.81 1465.9 Q1778.19 1469.08 1778.19 1474.49 Q1778.19 1480.07 1774.72 1483.17 Q1771.25 1486.25 1764.93 1486.25 Q1762.75 1486.25 1760.48 1485.88 Q1758.24 1485.51 1755.83 1484.77 L1755.83 1480.07 Q1757.91 1481.2 1760.14 1481.76 Q1762.36 1482.32 1764.84 1482.32 Q1768.84 1482.32 1771.18 1480.21 Q1773.52 1478.1 1773.52 1474.49 Q1773.52 1470.88 1771.18 1468.77 Q1768.84 1466.67 1764.84 1466.67 Q1762.96 1466.67 1761.09 1467.08 Q1759.23 1467.5 1757.29 1468.38 L1757.29 1451.02 Z" fill="#000000" fill-rule="evenodd" fill-opacity="1" /><path clip-path="url(#clip340)" d="M2041.14 1466.95 Q2044.5 1467.66 2046.37 1469.93 Q2048.27 1472.2 2048.27 1475.53 Q2048.27 1480.65 2044.75 1483.45 Q2041.23 1486.25 2034.75 1486.25 Q2032.57 1486.25 2030.26 1485.81 Q2027.97 1485.39 2025.51 1484.54 L2025.51 1480.02 Q2027.46 1481.16 2029.77 1481.74 Q2032.09 1482.32 2034.61 1482.32 Q2039.01 1482.32 2041.3 1480.58 Q2043.62 1478.84 2043.62 1475.53 Q2043.62 1472.48 2041.46 1470.77 Q2039.33 1469.03 2035.51 1469.03 L2031.49 1469.03 L2031.49 1465.19 L2035.7 1465.19 Q2039.15 1465.19 2040.98 1463.82 Q2042.81 1462.43 2042.81 1459.84 Q2042.81 1457.18 2040.91 1455.77 Q2039.03 1454.33 2035.51 1454.33 Q2033.59 1454.33 2031.39 1454.75 Q2029.2 1455.16 2026.56 1456.04 L2026.56 1451.88 Q2029.22 1451.14 2031.53 1450.77 Q2033.87 1450.39 2035.93 1450.39 Q2041.26 1450.39 2044.36 1452.83 Q2047.46 1455.23 2047.46 1459.35 Q2047.46 1462.22 2045.82 1464.21 Q2044.17 1466.18 2041.14 1466.95 Z" fill="#000000" fill-rule="evenodd" fill-opacity="1" /><path clip-path="url(#clip340)" d="M2067.13 1454.1 Q2063.52 1454.1 2061.69 1457.66 Q2059.89 1461.2 2059.89 1468.33 Q2059.89 1475.44 2061.69 1479.01 Q2063.52 1482.55 2067.13 1482.55 Q2070.77 1482.55 2072.57 1479.01 Q2074.4 1475.44 2074.4 1468.33 Q2074.4 1461.2 2072.57 1457.66 Q2070.77 1454.1 2067.13 1454.1 M2067.13 1450.39 Q2072.94 1450.39 2076 1455 Q2079.08 1459.58 2079.08 1468.33 Q2079.08 1477.06 2076 1481.67 Q2072.94 1486.25 2067.13 1486.25 Q2061.32 1486.25 2058.25 1481.67 Q2055.19 1477.06 2055.19 1468.33 Q2055.19 1459.58 2058.25 1455 Q2061.32 1450.39 2067.13 1450.39 Z" fill="#000000" fill-rule="evenodd" fill-opacity="1" /><path clip-path="url(#clip340)" d="M2342.1 1466.95 Q2345.45 1467.66 2347.33 1469.93 Q2349.23 1472.2 2349.23 1475.53 Q2349.23 1480.65 2345.71 1483.45 Q2342.19 1486.25 2335.71 1486.25 Q2333.53 1486.25 2331.22 1485.81 Q2328.93 1485.39 2326.47 1484.54 L2326.47 1480.02 Q2328.42 1481.16 2330.73 1481.74 Q2333.05 1482.32 2335.57 1482.32 Q2339.97 1482.32 2342.26 1480.58 Q2344.57 1478.84 2344.57 1475.53 Q2344.57 1472.48 2342.42 1470.77 Q2340.29 1469.03 2336.47 1469.03 L2332.44 1469.03 L2332.44 1465.19 L2336.66 1465.19 Q2340.11 1465.19 2341.93 1463.82 Q2343.76 1462.43 2343.76 1459.84 Q2343.76 1457.18 2341.86 1455.77 Q2339.99 1454.33 2336.47 1454.33 Q2334.55 1454.33 2332.35 1454.75 Q2330.15 1455.16 2327.51 1456.04 L2327.51 1451.88 Q2330.18 1451.14 2332.49 1450.77 Q2334.83 1450.39 2336.89 1450.39 Q2342.21 1450.39 2345.31 1452.83 Q2348.42 1455.23 2348.42 1459.35 Q2348.42 1462.22 2346.77 1464.21 Q2345.13 1466.18 2342.1 1466.95 Z" fill="#000000" fill-rule="evenodd" fill-opacity="1" /><path clip-path="url(#clip340)" d="M2358.14 1451.02 L2376.49 1451.02 L2376.49 1454.96 L2362.42 1454.96 L2362.42 1463.43 Q2363.44 1463.08 2364.46 1462.92 Q2365.48 1462.73 2366.49 1462.73 Q2372.28 1462.73 2375.66 1465.9 Q2379.04 1469.08 2379.04 1474.49 Q2379.04 1480.07 2375.57 1483.17 Q2372.1 1486.25 2365.78 1486.25 Q2363.6 1486.25 2361.33 1485.88 Q2359.09 1485.51 2356.68 1484.77 L2356.68 1480.07 Q2358.76 1481.2 2360.99 1481.76 Q2363.21 1482.32 2365.68 1482.32 Q2369.69 1482.32 2372.03 1480.21 Q2374.36 1478.1 2374.36 1474.49 Q2374.36 1470.88 2372.03 1468.77 Q2369.69 1466.67 2365.68 1466.67 Q2363.81 1466.67 2361.93 1467.08 Q2360.08 1467.5 2358.14 1468.38 L2358.14 1451.02 Z" fill="#000000" fill-rule="evenodd" fill-opacity="1" /><path clip-path="url(#clip340)" d="M1130.02 1522.08 L1130.02 1528.35 Q1126.36 1526.6 1123.12 1525.74 Q1119.87 1524.88 1116.85 1524.88 Q1111.59 1524.88 1108.73 1526.92 Q1105.9 1528.96 1105.9 1532.71 Q1105.9 1535.87 1107.77 1537.49 Q1109.68 1539.08 1114.97 1540.07 L1118.85 1540.86 Q1126.04 1542.23 1129.45 1545.7 Q1132.89 1549.14 1132.89 1554.93 Q1132.89 1561.84 1128.24 1565.4 Q1123.63 1568.97 1114.68 1568.97 Q1111.31 1568.97 1107.49 1568.2 Q1103.7 1567.44 1099.63 1565.94 L1099.63 1559.32 Q1103.54 1561.52 1107.3 1562.63 Q1111.05 1563.75 1114.68 1563.75 Q1120.19 1563.75 1123.18 1561.58 Q1126.17 1559.42 1126.17 1555.41 Q1126.17 1551.91 1124.01 1549.93 Q1121.87 1547.96 1116.97 1546.97 L1113.06 1546.21 Q1105.87 1544.78 1102.65 1541.72 Q1099.44 1538.67 1099.44 1533.22 Q1099.44 1526.92 1103.86 1523.29 Q1108.32 1519.66 1116.11 1519.66 Q1119.46 1519.66 1122.93 1520.27 Q1126.39 1520.87 1130.02 1522.08 Z" fill="#000000" fill-rule="evenodd" fill-opacity="1" /><path clip-path="url(#clip340)" d="M1142.66 1532.4 L1148.52 1532.4 L1148.52 1568.04 L1142.66 1568.04 L1142.66 1532.4 M1142.66 1518.52 L1148.52 1518.52 L1148.52 1525.93 L1142.66 1525.93 L1142.66 1518.52 Z" fill="#000000" fill-rule="evenodd" fill-opacity="1" /><path clip-path="url(#clip340)" d="M1166.56 1522.27 L1166.56 1532.4 L1178.63 1532.4 L1178.63 1536.95 L1166.56 1536.95 L1166.56 1556.3 Q1166.56 1560.66 1167.74 1561.9 Q1168.95 1563.14 1172.61 1563.14 L1178.63 1563.14 L1178.63 1568.04 L1172.61 1568.04 Q1165.83 1568.04 1163.25 1565.53 Q1160.67 1562.98 1160.67 1556.3 L1160.67 1536.95 L1156.38 1536.95 L1156.38 1532.4 L1160.67 1532.4 L1160.67 1522.27 L1166.56 1522.27 Z" fill="#000000" fill-rule="evenodd" fill-opacity="1" /><path clip-path="url(#clip340)" d="M1216.82 1548.76 L1216.82 1551.62 L1189.89 1551.62 Q1190.27 1557.67 1193.52 1560.85 Q1196.8 1564 1202.62 1564 Q1206 1564 1209.15 1563.17 Q1212.33 1562.35 1215.45 1560.69 L1215.45 1566.23 Q1212.3 1567.57 1208.99 1568.27 Q1205.68 1568.97 1202.27 1568.97 Q1193.74 1568.97 1188.75 1564 Q1183.78 1559.04 1183.78 1550.57 Q1183.78 1541.82 1188.49 1536.69 Q1193.23 1531.54 1201.26 1531.54 Q1208.45 1531.54 1212.62 1536.18 Q1216.82 1540.8 1216.82 1548.76 M1210.96 1547.04 Q1210.9 1542.23 1208.26 1539.37 Q1205.65 1536.5 1201.32 1536.5 Q1196.42 1536.5 1193.46 1539.27 Q1190.53 1542.04 1190.08 1547.07 L1210.96 1547.04 Z" fill="#000000" fill-rule="evenodd" fill-opacity="1" /><path clip-path="url(#clip340)" d="M1247.41 1520.52 L1256.06 1520.52 L1277.13 1560.28 L1277.13 1520.52 L1283.37 1520.52 L1283.37 1568.04 L1274.72 1568.04 L1253.64 1528.29 L1253.64 1568.04 L1247.41 1568.04 L1247.41 1520.52 Z" fill="#000000" fill-rule="evenodd" fill-opacity="1" /><path clip-path="url(#clip340)" d="M1295.31 1553.98 L1295.31 1532.4 L1301.16 1532.4 L1301.16 1553.75 Q1301.16 1558.81 1303.14 1561.36 Q1305.11 1563.87 1309.06 1563.87 Q1313.8 1563.87 1316.54 1560.85 Q1319.31 1557.83 1319.31 1552.61 L1319.31 1532.4 L1325.16 1532.4 L1325.16 1568.04 L1319.31 1568.04 L1319.31 1562.57 Q1317.17 1565.82 1314.34 1567.41 Q1311.54 1568.97 1307.82 1568.97 Q1301.67 1568.97 1298.49 1565.15 Q1295.31 1561.33 1295.31 1553.98 M1310.05 1531.54 L1310.05 1531.54 Z" fill="#000000" fill-rule="evenodd" fill-opacity="1" /><path clip-path="url(#clip340)" d="M1364.98 1539.24 Q1367.18 1535.29 1370.23 1533.41 Q1373.29 1531.54 1377.43 1531.54 Q1383 1531.54 1386.02 1535.45 Q1389.04 1539.33 1389.04 1546.53 L1389.04 1568.04 L1383.16 1568.04 L1383.16 1546.72 Q1383.16 1541.59 1381.34 1539.11 Q1379.53 1536.63 1375.8 1536.63 Q1371.25 1536.63 1368.61 1539.65 Q1365.97 1542.68 1365.97 1547.9 L1365.97 1568.04 L1360.08 1568.04 L1360.08 1546.72 Q1360.08 1541.56 1358.27 1539.11 Q1356.45 1536.63 1352.66 1536.63 Q1348.18 1536.63 1345.53 1539.68 Q1342.89 1542.71 1342.89 1547.9 L1342.89 1568.04 L1337 1568.04 L1337 1532.4 L1342.89 1532.4 L1342.89 1537.93 Q1344.9 1534.66 1347.7 1533.1 Q1350.5 1531.54 1354.35 1531.54 Q1358.23 1531.54 1360.94 1533.51 Q1363.68 1535.48 1364.98 1539.24 Z" fill="#000000" fill-rule="evenodd" fill-opacity="1" /><path clip-path="url(#clip340)" d="M1426.31 1550.25 Q1426.31 1543.79 1423.64 1540.13 Q1421 1536.44 1416.35 1536.44 Q1411.71 1536.44 1409.03 1540.13 Q1406.39 1543.79 1406.39 1550.25 Q1406.39 1556.71 1409.03 1560.4 Q1411.71 1564.07 1416.35 1564.07 Q1421 1564.07 1423.64 1560.4 Q1426.31 1556.71 1426.31 1550.25 M1406.39 1537.81 Q1408.24 1534.62 1411.04 1533.1 Q1413.87 1531.54 1417.78 1531.54 Q1424.28 1531.54 1428.32 1536.69 Q1432.39 1541.85 1432.39 1550.25 Q1432.39 1558.65 1428.32 1563.81 Q1424.28 1568.97 1417.78 1568.97 Q1413.87 1568.97 1411.04 1567.44 Q1408.24 1565.88 1406.39 1562.7 L1406.39 1568.04 L1400.5 1568.04 L1400.5 1518.52 L1406.39 1518.52 L1406.39 1537.81 Z" fill="#000000" fill-rule="evenodd" fill-opacity="1" /><path clip-path="url(#clip340)" d="M1472.59 1548.76 L1472.59 1551.62 L1445.67 1551.62 Q1446.05 1557.67 1449.29 1560.85 Q1452.57 1564 1458.4 1564 Q1461.77 1564 1464.92 1563.17 Q1468.11 1562.35 1471.22 1560.69 L1471.22 1566.23 Q1468.07 1567.57 1464.76 1568.27 Q1461.45 1568.97 1458.05 1568.97 Q1449.52 1568.97 1444.52 1564 Q1439.56 1559.04 1439.56 1550.57 Q1439.56 1541.82 1444.27 1536.69 Q1449.01 1531.54 1457.03 1531.54 Q1464.22 1531.54 1468.39 1536.18 Q1472.59 1540.8 1472.59 1548.76 M1466.74 1547.04 Q1466.67 1542.23 1464.03 1539.37 Q1461.42 1536.5 1457.09 1536.5 Q1452.19 1536.5 1449.23 1539.27 Q1446.3 1542.04 1445.86 1547.07 L1466.74 1547.04 Z" fill="#000000" fill-rule="evenodd" fill-opacity="1" /><path clip-path="url(#clip340)" d="M1502.86 1537.87 Q1501.88 1537.3 1500.7 1537.04 Q1499.55 1536.76 1498.15 1536.76 Q1493.19 1536.76 1490.51 1540 Q1487.87 1543.22 1487.87 1549.27 L1487.87 1568.04 L1481.98 1568.04 L1481.98 1532.4 L1487.87 1532.4 L1487.87 1537.93 Q1489.72 1534.69 1492.68 1533.13 Q1495.64 1531.54 1499.87 1531.54 Q1500.48 1531.54 1501.21 1531.63 Q1501.94 1531.7 1502.83 1531.85 L1502.86 1537.87 Z" fill="#000000" fill-rule="evenodd" fill-opacity="1" /><polyline clip-path="url(#clip342)" style="stroke:#000000; stroke-linecap:round; stroke-linejoin:round; stroke-width:2; stroke-opacity:0.1; fill:none" points="
  249.542,1423.18 2352.76,1423.18 
  "/>
<polyline clip-path="url(#clip342)" style="stroke:#000000; stroke-linecap:round; stroke-linejoin:round; stroke-width:2; stroke-opacity:0.1; fill:none" points="
  249.542,1278.77 2352.76,1278.77 
  "/>
<polyline clip-path="url(#clip342)" style="stroke:#000000; stroke-linecap:round; stroke-linejoin:round; stroke-width:2; stroke-opacity:0.1; fill:none" points="
  249.542,1134.36 2352.76,1134.36 
  "/>
<polyline clip-path="url(#clip342)" style="stroke:#000000; stroke-linecap:round; stroke-linejoin:round; stroke-width:2; stroke-opacity:0.1; fill:none" points="
  249.542,989.944 2352.76,989.944 
  "/>
<polyline clip-path="url(#clip342)" style="stroke:#000000; stroke-linecap:round; stroke-linejoin:round; stroke-width:2; stroke-opacity:0.1; fill:none" points="
  249.542,845.532 2352.76,845.532 
  "/>
<polyline clip-path="url(#clip342)" style="stroke:#000000; stroke-linecap:round; stroke-linejoin:round; stroke-width:2; stroke-opacity:0.1; fill:none" points="
  249.542,701.12 2352.76,701.12 
  "/>
<polyline clip-path="url(#clip342)" style="stroke:#000000; stroke-linecap:round; stroke-linejoin:round; stroke-width:2; stroke-opacity:0.1; fill:none" points="
  249.542,556.708 2352.76,556.708 
  "/>
<polyline clip-path="url(#clip342)" style="stroke:#000000; stroke-linecap:round; stroke-linejoin:round; stroke-width:2; stroke-opacity:0.1; fill:none" points="
  249.542,412.296 2352.76,412.296 
  "/>
<polyline clip-path="url(#clip342)" style="stroke:#000000; stroke-linecap:round; stroke-linejoin:round; stroke-width:2; stroke-opacity:0.1; fill:none" points="
  249.542,267.884 2352.76,267.884 
  "/>
<polyline clip-path="url(#clip342)" style="stroke:#000000; stroke-linecap:round; stroke-linejoin:round; stroke-width:2; stroke-opacity:0.1; fill:none" points="
  249.542,123.472 2352.76,123.472 
  "/>
<polyline clip-path="url(#clip340)" style="stroke:#000000; stroke-linecap:round; stroke-linejoin:round; stroke-width:4; stroke-opacity:1; fill:none" points="
  249.542,1423.18 249.542,123.472 
  "/>
<polyline clip-path="url(#clip340)" style="stroke:#000000; stroke-linecap:round; stroke-linejoin:round; stroke-width:4; stroke-opacity:1; fill:none" points="
  249.542,1423.18 268.44,1423.18 
  "/>
<polyline clip-path="url(#clip340)" style="stroke:#000000; stroke-linecap:round; stroke-linejoin:round; stroke-width:4; stroke-opacity:1; fill:none" points="
  249.542,1278.77 268.44,1278.77 
  "/>
<polyline clip-path="url(#clip340)" style="stroke:#000000; stroke-linecap:round; stroke-linejoin:round; stroke-width:4; stroke-opacity:1; fill:none" points="
  249.542,1134.36 268.44,1134.36 
  "/>
<polyline clip-path="url(#clip340)" style="stroke:#000000; stroke-linecap:round; stroke-linejoin:round; stroke-width:4; stroke-opacity:1; fill:none" points="
  249.542,989.944 268.44,989.944 
  "/>
<polyline clip-path="url(#clip340)" style="stroke:#000000; stroke-linecap:round; stroke-linejoin:round; stroke-width:4; stroke-opacity:1; fill:none" points="
  249.542,845.532 268.44,845.532 
  "/>
<polyline clip-path="url(#clip340)" style="stroke:#000000; stroke-linecap:round; stroke-linejoin:round; stroke-width:4; stroke-opacity:1; fill:none" points="
  249.542,701.12 268.44,701.12 
  "/>
<polyline clip-path="url(#clip340)" style="stroke:#000000; stroke-linecap:round; stroke-linejoin:round; stroke-width:4; stroke-opacity:1; fill:none" points="
  249.542,556.708 268.44,556.708 
  "/>
<polyline clip-path="url(#clip340)" style="stroke:#000000; stroke-linecap:round; stroke-linejoin:round; stroke-width:4; stroke-opacity:1; fill:none" points="
  249.542,412.296 268.44,412.296 
  "/>
<polyline clip-path="url(#clip340)" style="stroke:#000000; stroke-linecap:round; stroke-linejoin:round; stroke-width:4; stroke-opacity:1; fill:none" points="
  249.542,267.884 268.44,267.884 
  "/>
<polyline clip-path="url(#clip340)" style="stroke:#000000; stroke-linecap:round; stroke-linejoin:round; stroke-width:4; stroke-opacity:1; fill:none" points="
  249.542,123.472 268.44,123.472 
  "/>
<path clip-path="url(#clip340)" d="M126.205 1408.98 Q122.593 1408.98 120.765 1412.54 Q118.959 1416.08 118.959 1423.21 Q118.959 1430.32 120.765 1433.89 Q122.593 1437.43 126.205 1437.43 Q129.839 1437.43 131.644 1433.89 Q133.473 1430.32 133.473 1423.21 Q133.473 1416.08 131.644 1412.54 Q129.839 1408.98 126.205 1408.98 M126.205 1405.27 Q132.015 1405.27 135.07 1409.88 Q138.149 1414.46 138.149 1423.21 Q138.149 1431.94 135.07 1436.55 Q132.015 1441.13 126.205 1441.13 Q120.394 1441.13 117.316 1436.55 Q114.26 1431.94 114.26 1423.21 Q114.26 1414.46 117.316 1409.88 Q120.394 1405.27 126.205 1405.27 Z" fill="#000000" fill-rule="evenodd" fill-opacity="1" /><path clip-path="url(#clip340)" d="M146.366 1434.58 L151.251 1434.58 L151.251 1440.46 L146.366 1440.46 L146.366 1434.58 Z" fill="#000000" fill-rule="evenodd" fill-opacity="1" /><path clip-path="url(#clip340)" d="M162.246 1436.52 L169.885 1436.52 L169.885 1410.16 L161.575 1411.83 L161.575 1407.57 L169.839 1405.9 L174.514 1405.9 L174.514 1436.52 L182.153 1436.52 L182.153 1440.46 L162.246 1440.46 L162.246 1436.52 Z" fill="#000000" fill-rule="evenodd" fill-opacity="1" /><path clip-path="url(#clip340)" d="M201.598 1408.98 Q197.987 1408.98 196.158 1412.54 Q194.352 1416.08 194.352 1423.21 Q194.352 1430.32 196.158 1433.89 Q197.987 1437.43 201.598 1437.43 Q205.232 1437.43 207.037 1433.89 Q208.866 1430.32 208.866 1423.21 Q208.866 1416.08 207.037 1412.54 Q205.232 1408.98 201.598 1408.98 M201.598 1405.27 Q207.408 1405.27 210.463 1409.88 Q213.542 1414.46 213.542 1423.21 Q213.542 1431.94 210.463 1436.55 Q207.408 1441.13 201.598 1441.13 Q195.787 1441.13 192.709 1436.55 Q189.653 1431.94 189.653 1423.21 Q189.653 1414.46 192.709 1409.88 Q195.787 1405.27 201.598 1405.27 Z" fill="#000000" fill-rule="evenodd" fill-opacity="1" /><path clip-path="url(#clip340)" d="M127.2 1264.57 Q123.589 1264.57 121.76 1268.13 Q119.955 1271.67 119.955 1278.8 Q119.955 1285.91 121.76 1289.47 Q123.589 1293.02 127.2 1293.02 Q130.834 1293.02 132.64 1289.47 Q134.468 1285.91 134.468 1278.8 Q134.468 1271.67 132.64 1268.13 Q130.834 1264.57 127.2 1264.57 M127.2 1260.86 Q133.01 1260.86 136.066 1265.47 Q139.144 1270.05 139.144 1278.8 Q139.144 1287.53 136.066 1292.14 Q133.01 1296.72 127.2 1296.72 Q121.39 1296.72 118.311 1292.14 Q115.256 1287.53 115.256 1278.8 Q115.256 1270.05 118.311 1265.47 Q121.39 1260.86 127.2 1260.86 Z" fill="#000000" fill-rule="evenodd" fill-opacity="1" /><path clip-path="url(#clip340)" d="M147.362 1290.17 L152.246 1290.17 L152.246 1296.05 L147.362 1296.05 L147.362 1290.17 Z" fill="#000000" fill-rule="evenodd" fill-opacity="1" /><path clip-path="url(#clip340)" d="M163.241 1292.11 L170.88 1292.11 L170.88 1265.75 L162.57 1267.41 L162.57 1263.15 L170.834 1261.49 L175.51 1261.49 L175.51 1292.11 L183.149 1292.11 L183.149 1296.05 L163.241 1296.05 L163.241 1292.11 Z" fill="#000000" fill-rule="evenodd" fill-opacity="1" /><path clip-path="url(#clip340)" d="M192.639 1261.49 L210.996 1261.49 L210.996 1265.42 L196.922 1265.42 L196.922 1273.9 Q197.94 1273.55 198.959 1273.39 Q199.977 1273.2 200.996 1273.2 Q206.783 1273.2 210.162 1276.37 Q213.542 1279.54 213.542 1284.96 Q213.542 1290.54 210.07 1293.64 Q206.598 1296.72 200.278 1296.72 Q198.102 1296.72 195.834 1296.35 Q193.588 1295.98 191.181 1295.24 L191.181 1290.54 Q193.264 1291.67 195.487 1292.23 Q197.709 1292.78 200.186 1292.78 Q204.19 1292.78 206.528 1290.68 Q208.866 1288.57 208.866 1284.96 Q208.866 1281.35 206.528 1279.24 Q204.19 1277.14 200.186 1277.14 Q198.311 1277.14 196.436 1277.55 Q194.584 1277.97 192.639 1278.85 L192.639 1261.49 Z" fill="#000000" fill-rule="evenodd" fill-opacity="1" /><path clip-path="url(#clip340)" d="M126.205 1120.15 Q122.593 1120.15 120.765 1123.72 Q118.959 1127.26 118.959 1134.39 Q118.959 1141.5 120.765 1145.06 Q122.593 1148.6 126.205 1148.6 Q129.839 1148.6 131.644 1145.06 Q133.473 1141.5 133.473 1134.39 Q133.473 1127.26 131.644 1123.72 Q129.839 1120.15 126.205 1120.15 M126.205 1116.45 Q132.015 1116.45 135.07 1121.06 Q138.149 1125.64 138.149 1134.39 Q138.149 1143.12 135.07 1147.72 Q132.015 1152.31 126.205 1152.31 Q120.394 1152.31 117.316 1147.72 Q114.26 1143.12 114.26 1134.39 Q114.26 1125.64 117.316 1121.06 Q120.394 1116.45 126.205 1116.45 Z" fill="#000000" fill-rule="evenodd" fill-opacity="1" /><path clip-path="url(#clip340)" d="M146.366 1145.76 L151.251 1145.76 L151.251 1151.64 L146.366 1151.64 L146.366 1145.76 Z" fill="#000000" fill-rule="evenodd" fill-opacity="1" /><path clip-path="url(#clip340)" d="M165.464 1147.7 L181.783 1147.7 L181.783 1151.64 L159.839 1151.64 L159.839 1147.7 Q162.501 1144.95 167.084 1140.32 Q171.69 1135.66 172.871 1134.32 Q175.116 1131.8 175.996 1130.06 Q176.899 1128.3 176.899 1126.61 Q176.899 1123.86 174.954 1122.12 Q173.033 1120.39 169.931 1120.39 Q167.732 1120.39 165.278 1121.15 Q162.848 1121.91 160.07 1123.46 L160.07 1118.74 Q162.894 1117.61 165.348 1117.03 Q167.802 1116.45 169.839 1116.45 Q175.209 1116.45 178.403 1119.14 Q181.598 1121.82 181.598 1126.31 Q181.598 1128.44 180.788 1130.36 Q180.001 1132.26 177.894 1134.85 Q177.315 1135.52 174.214 1138.74 Q171.112 1141.94 165.464 1147.7 Z" fill="#000000" fill-rule="evenodd" fill-opacity="1" /><path clip-path="url(#clip340)" d="M201.598 1120.15 Q197.987 1120.15 196.158 1123.72 Q194.352 1127.26 194.352 1134.39 Q194.352 1141.5 196.158 1145.06 Q197.987 1148.6 201.598 1148.6 Q205.232 1148.6 207.037 1145.06 Q208.866 1141.5 208.866 1134.39 Q208.866 1127.26 207.037 1123.72 Q205.232 1120.15 201.598 1120.15 M201.598 1116.45 Q207.408 1116.45 210.463 1121.06 Q213.542 1125.64 213.542 1134.39 Q213.542 1143.12 210.463 1147.72 Q207.408 1152.31 201.598 1152.31 Q195.787 1152.31 192.709 1147.72 Q189.653 1143.12 189.653 1134.39 Q189.653 1125.64 192.709 1121.06 Q195.787 1116.45 201.598 1116.45 Z" fill="#000000" fill-rule="evenodd" fill-opacity="1" /><path clip-path="url(#clip340)" d="M127.2 975.743 Q123.589 975.743 121.76 979.307 Q119.955 982.849 119.955 989.979 Q119.955 997.085 121.76 1000.65 Q123.589 1004.19 127.2 1004.19 Q130.834 1004.19 132.64 1000.65 Q134.468 997.085 134.468 989.979 Q134.468 982.849 132.64 979.307 Q130.834 975.743 127.2 975.743 M127.2 972.039 Q133.01 972.039 136.066 976.645 Q139.144 981.229 139.144 989.979 Q139.144 998.705 136.066 1003.31 Q133.01 1007.9 127.2 1007.9 Q121.39 1007.9 118.311 1003.31 Q115.256 998.705 115.256 989.979 Q115.256 981.229 118.311 976.645 Q121.39 972.039 127.2 972.039 Z" fill="#000000" fill-rule="evenodd" fill-opacity="1" /><path clip-path="url(#clip340)" d="M147.362 1001.34 L152.246 1001.34 L152.246 1007.22 L147.362 1007.22 L147.362 1001.34 Z" fill="#000000" fill-rule="evenodd" fill-opacity="1" /><path clip-path="url(#clip340)" d="M166.459 1003.29 L182.778 1003.29 L182.778 1007.22 L160.834 1007.22 L160.834 1003.29 Q163.496 1000.53 168.079 995.905 Q172.686 991.252 173.866 989.909 Q176.112 987.386 176.991 985.65 Q177.894 983.891 177.894 982.201 Q177.894 979.446 175.95 977.71 Q174.028 975.974 170.927 975.974 Q168.727 975.974 166.274 976.738 Q163.843 977.502 161.065 979.053 L161.065 974.331 Q163.89 973.196 166.343 972.618 Q168.797 972.039 170.834 972.039 Q176.204 972.039 179.399 974.724 Q182.593 977.409 182.593 981.9 Q182.593 984.03 181.783 985.951 Q180.996 987.849 178.889 990.442 Q178.311 991.113 175.209 994.33 Q172.107 997.525 166.459 1003.29 Z" fill="#000000" fill-rule="evenodd" fill-opacity="1" /><path clip-path="url(#clip340)" d="M192.639 972.664 L210.996 972.664 L210.996 976.599 L196.922 976.599 L196.922 985.071 Q197.94 984.724 198.959 984.562 Q199.977 984.377 200.996 984.377 Q206.783 984.377 210.162 987.548 Q213.542 990.719 213.542 996.136 Q213.542 1001.71 210.07 1004.82 Q206.598 1007.9 200.278 1007.9 Q198.102 1007.9 195.834 1007.52 Q193.588 1007.15 191.181 1006.41 L191.181 1001.71 Q193.264 1002.85 195.487 1003.4 Q197.709 1003.96 200.186 1003.96 Q204.19 1003.96 206.528 1001.85 Q208.866 999.747 208.866 996.136 Q208.866 992.525 206.528 990.418 Q204.19 988.312 200.186 988.312 Q198.311 988.312 196.436 988.729 Q194.584 989.145 192.639 990.025 L192.639 972.664 Z" fill="#000000" fill-rule="evenodd" fill-opacity="1" /><path clip-path="url(#clip340)" d="M126.205 831.331 Q122.593 831.331 120.765 834.895 Q118.959 838.437 118.959 845.567 Q118.959 852.673 120.765 856.238 Q122.593 859.78 126.205 859.78 Q129.839 859.78 131.644 856.238 Q133.473 852.673 133.473 845.567 Q133.473 838.437 131.644 834.895 Q129.839 831.331 126.205 831.331 M126.205 827.627 Q132.015 827.627 135.07 832.233 Q138.149 836.817 138.149 845.567 Q138.149 854.293 135.07 858.9 Q132.015 863.483 126.205 863.483 Q120.394 863.483 117.316 858.9 Q114.26 854.293 114.26 845.567 Q114.26 836.817 117.316 832.233 Q120.394 827.627 126.205 827.627 Z" fill="#000000" fill-rule="evenodd" fill-opacity="1" /><path clip-path="url(#clip340)" d="M146.366 856.932 L151.251 856.932 L151.251 862.812 L146.366 862.812 L146.366 856.932 Z" fill="#000000" fill-rule="evenodd" fill-opacity="1" /><path clip-path="url(#clip340)" d="M175.602 844.178 Q178.959 844.895 180.834 847.164 Q182.732 849.432 182.732 852.766 Q182.732 857.881 179.214 860.682 Q175.695 863.483 169.214 863.483 Q167.038 863.483 164.723 863.043 Q162.431 862.627 159.978 861.77 L159.978 857.256 Q161.922 858.391 164.237 858.969 Q166.552 859.548 169.075 859.548 Q173.473 859.548 175.764 857.812 Q178.079 856.076 178.079 852.766 Q178.079 849.71 175.926 847.997 Q173.797 846.261 169.977 846.261 L165.95 846.261 L165.95 842.419 L170.163 842.419 Q173.612 842.419 175.44 841.053 Q177.269 839.664 177.269 837.071 Q177.269 834.409 175.371 832.997 Q173.496 831.562 169.977 831.562 Q168.056 831.562 165.857 831.979 Q163.658 832.395 161.019 833.275 L161.019 829.108 Q163.681 828.368 165.996 827.997 Q168.334 827.627 170.394 827.627 Q175.718 827.627 178.82 830.058 Q181.922 832.465 181.922 836.585 Q181.922 839.456 180.278 841.446 Q178.635 843.414 175.602 844.178 Z" fill="#000000" fill-rule="evenodd" fill-opacity="1" /><path clip-path="url(#clip340)" d="M201.598 831.331 Q197.987 831.331 196.158 834.895 Q194.352 838.437 194.352 845.567 Q194.352 852.673 196.158 856.238 Q197.987 859.78 201.598 859.78 Q205.232 859.78 207.037 856.238 Q208.866 852.673 208.866 845.567 Q208.866 838.437 207.037 834.895 Q205.232 831.331 201.598 831.331 M201.598 827.627 Q207.408 827.627 210.463 832.233 Q213.542 836.817 213.542 845.567 Q213.542 854.293 210.463 858.9 Q207.408 863.483 201.598 863.483 Q195.787 863.483 192.709 858.9 Q189.653 854.293 189.653 845.567 Q189.653 836.817 192.709 832.233 Q195.787 827.627 201.598 827.627 Z" fill="#000000" fill-rule="evenodd" fill-opacity="1" /><path clip-path="url(#clip340)" d="M127.2 686.919 Q123.589 686.919 121.76 690.483 Q119.955 694.025 119.955 701.155 Q119.955 708.261 121.76 711.826 Q123.589 715.368 127.2 715.368 Q130.834 715.368 132.64 711.826 Q134.468 708.261 134.468 701.155 Q134.468 694.025 132.64 690.483 Q130.834 686.919 127.2 686.919 M127.2 683.215 Q133.01 683.215 136.066 687.821 Q139.144 692.405 139.144 701.155 Q139.144 709.882 136.066 714.488 Q133.01 719.071 127.2 719.071 Q121.39 719.071 118.311 714.488 Q115.256 709.882 115.256 701.155 Q115.256 692.405 118.311 687.821 Q121.39 683.215 127.2 683.215 Z" fill="#000000" fill-rule="evenodd" fill-opacity="1" /><path clip-path="url(#clip340)" d="M147.362 712.52 L152.246 712.52 L152.246 718.4 L147.362 718.4 L147.362 712.52 Z" fill="#000000" fill-rule="evenodd" fill-opacity="1" /><path clip-path="url(#clip340)" d="M176.598 699.766 Q179.954 700.483 181.829 702.752 Q183.727 705.02 183.727 708.354 Q183.727 713.469 180.209 716.27 Q176.69 719.071 170.209 719.071 Q168.033 719.071 165.718 718.631 Q163.427 718.215 160.973 717.358 L160.973 712.844 Q162.917 713.979 165.232 714.557 Q167.547 715.136 170.07 715.136 Q174.468 715.136 176.76 713.4 Q179.075 711.664 179.075 708.354 Q179.075 705.298 176.922 703.585 Q174.792 701.849 170.973 701.849 L166.945 701.849 L166.945 698.007 L171.158 698.007 Q174.607 698.007 176.436 696.641 Q178.264 695.252 178.264 692.659 Q178.264 689.997 176.366 688.585 Q174.491 687.15 170.973 687.15 Q169.052 687.15 166.852 687.567 Q164.653 687.983 162.015 688.863 L162.015 684.696 Q164.677 683.956 166.991 683.585 Q169.329 683.215 171.389 683.215 Q176.714 683.215 179.815 685.646 Q182.917 688.053 182.917 692.173 Q182.917 695.044 181.274 697.034 Q179.63 699.002 176.598 699.766 Z" fill="#000000" fill-rule="evenodd" fill-opacity="1" /><path clip-path="url(#clip340)" d="M192.639 683.84 L210.996 683.84 L210.996 687.775 L196.922 687.775 L196.922 696.247 Q197.94 695.9 198.959 695.738 Q199.977 695.553 200.996 695.553 Q206.783 695.553 210.162 698.724 Q213.542 701.895 213.542 707.312 Q213.542 712.891 210.07 715.993 Q206.598 719.071 200.278 719.071 Q198.102 719.071 195.834 718.701 Q193.588 718.331 191.181 717.59 L191.181 712.891 Q193.264 714.025 195.487 714.581 Q197.709 715.136 200.186 715.136 Q204.19 715.136 206.528 713.03 Q208.866 710.923 208.866 707.312 Q208.866 703.701 206.528 701.595 Q204.19 699.488 200.186 699.488 Q198.311 699.488 196.436 699.905 Q194.584 700.321 192.639 701.201 L192.639 683.84 Z" fill="#000000" fill-rule="evenodd" fill-opacity="1" /><path clip-path="url(#clip340)" d="M126.205 542.507 Q122.593 542.507 120.765 546.072 Q118.959 549.613 118.959 556.743 Q118.959 563.849 120.765 567.414 Q122.593 570.956 126.205 570.956 Q129.839 570.956 131.644 567.414 Q133.473 563.849 133.473 556.743 Q133.473 549.613 131.644 546.072 Q129.839 542.507 126.205 542.507 M126.205 538.803 Q132.015 538.803 135.07 543.409 Q138.149 547.993 138.149 556.743 Q138.149 565.47 135.07 570.076 Q132.015 574.659 126.205 574.659 Q120.394 574.659 117.316 570.076 Q114.26 565.47 114.26 556.743 Q114.26 547.993 117.316 543.409 Q120.394 538.803 126.205 538.803 Z" fill="#000000" fill-rule="evenodd" fill-opacity="1" /><path clip-path="url(#clip340)" d="M146.366 568.108 L151.251 568.108 L151.251 573.988 L146.366 573.988 L146.366 568.108 Z" fill="#000000" fill-rule="evenodd" fill-opacity="1" /><path clip-path="url(#clip340)" d="M174.283 543.502 L162.477 561.951 L174.283 561.951 L174.283 543.502 M173.056 539.428 L178.936 539.428 L178.936 561.951 L183.866 561.951 L183.866 565.84 L178.936 565.84 L178.936 573.988 L174.283 573.988 L174.283 565.84 L158.681 565.84 L158.681 561.326 L173.056 539.428 Z" fill="#000000" fill-rule="evenodd" fill-opacity="1" /><path clip-path="url(#clip340)" d="M201.598 542.507 Q197.987 542.507 196.158 546.072 Q194.352 549.613 194.352 556.743 Q194.352 563.849 196.158 567.414 Q197.987 570.956 201.598 570.956 Q205.232 570.956 207.037 567.414 Q208.866 563.849 208.866 556.743 Q208.866 549.613 207.037 546.072 Q205.232 542.507 201.598 542.507 M201.598 538.803 Q207.408 538.803 210.463 543.409 Q213.542 547.993 213.542 556.743 Q213.542 565.47 210.463 570.076 Q207.408 574.659 201.598 574.659 Q195.787 574.659 192.709 570.076 Q189.653 565.47 189.653 556.743 Q189.653 547.993 192.709 543.409 Q195.787 538.803 201.598 538.803 Z" fill="#000000" fill-rule="evenodd" fill-opacity="1" /><path clip-path="url(#clip340)" d="M127.2 398.095 Q123.589 398.095 121.76 401.66 Q119.955 405.201 119.955 412.331 Q119.955 419.437 121.76 423.002 Q123.589 426.544 127.2 426.544 Q130.834 426.544 132.64 423.002 Q134.468 419.437 134.468 412.331 Q134.468 405.201 132.64 401.66 Q130.834 398.095 127.2 398.095 M127.2 394.391 Q133.01 394.391 136.066 398.998 Q139.144 403.581 139.144 412.331 Q139.144 421.058 136.066 425.664 Q133.01 430.247 127.2 430.247 Q121.39 430.247 118.311 425.664 Q115.256 421.058 115.256 412.331 Q115.256 403.581 118.311 398.998 Q121.39 394.391 127.2 394.391 Z" fill="#000000" fill-rule="evenodd" fill-opacity="1" /><path clip-path="url(#clip340)" d="M147.362 423.696 L152.246 423.696 L152.246 429.576 L147.362 429.576 L147.362 423.696 Z" fill="#000000" fill-rule="evenodd" fill-opacity="1" /><path clip-path="url(#clip340)" d="M175.278 399.09 L163.473 417.539 L175.278 417.539 L175.278 399.09 M174.052 395.016 L179.931 395.016 L179.931 417.539 L184.862 417.539 L184.862 421.428 L179.931 421.428 L179.931 429.576 L175.278 429.576 L175.278 421.428 L159.677 421.428 L159.677 416.914 L174.052 395.016 Z" fill="#000000" fill-rule="evenodd" fill-opacity="1" /><path clip-path="url(#clip340)" d="M192.639 395.016 L210.996 395.016 L210.996 398.951 L196.922 398.951 L196.922 407.423 Q197.94 407.076 198.959 406.914 Q199.977 406.729 200.996 406.729 Q206.783 406.729 210.162 409.9 Q213.542 413.072 213.542 418.488 Q213.542 424.067 210.07 427.169 Q206.598 430.247 200.278 430.247 Q198.102 430.247 195.834 429.877 Q193.588 429.507 191.181 428.766 L191.181 424.067 Q193.264 425.201 195.487 425.757 Q197.709 426.312 200.186 426.312 Q204.19 426.312 206.528 424.206 Q208.866 422.099 208.866 418.488 Q208.866 414.877 206.528 412.771 Q204.19 410.664 200.186 410.664 Q198.311 410.664 196.436 411.081 Q194.584 411.497 192.639 412.377 L192.639 395.016 Z" fill="#000000" fill-rule="evenodd" fill-opacity="1" /><path clip-path="url(#clip340)" d="M126.205 253.683 Q122.593 253.683 120.765 257.248 Q118.959 260.789 118.959 267.919 Q118.959 275.025 120.765 278.59 Q122.593 282.132 126.205 282.132 Q129.839 282.132 131.644 278.59 Q133.473 275.025 133.473 267.919 Q133.473 260.789 131.644 257.248 Q129.839 253.683 126.205 253.683 M126.205 249.979 Q132.015 249.979 135.07 254.586 Q138.149 259.169 138.149 267.919 Q138.149 276.646 135.07 281.252 Q132.015 285.835 126.205 285.835 Q120.394 285.835 117.316 281.252 Q114.26 276.646 114.26 267.919 Q114.26 259.169 117.316 254.586 Q120.394 249.979 126.205 249.979 Z" fill="#000000" fill-rule="evenodd" fill-opacity="1" /><path clip-path="url(#clip340)" d="M146.366 279.284 L151.251 279.284 L151.251 285.164 L146.366 285.164 L146.366 279.284 Z" fill="#000000" fill-rule="evenodd" fill-opacity="1" /><path clip-path="url(#clip340)" d="M161.482 250.604 L179.839 250.604 L179.839 254.539 L165.765 254.539 L165.765 263.011 Q166.783 262.664 167.802 262.502 Q168.82 262.317 169.839 262.317 Q175.626 262.317 179.005 265.488 Q182.385 268.66 182.385 274.076 Q182.385 279.655 178.913 282.757 Q175.44 285.835 169.121 285.835 Q166.945 285.835 164.677 285.465 Q162.431 285.095 160.024 284.354 L160.024 279.655 Q162.107 280.789 164.329 281.345 Q166.552 281.9 169.028 281.9 Q173.033 281.9 175.371 279.794 Q177.709 277.687 177.709 274.076 Q177.709 270.465 175.371 268.359 Q173.033 266.252 169.028 266.252 Q167.153 266.252 165.278 266.669 Q163.427 267.085 161.482 267.965 L161.482 250.604 Z" fill="#000000" fill-rule="evenodd" fill-opacity="1" /><path clip-path="url(#clip340)" d="M201.598 253.683 Q197.987 253.683 196.158 257.248 Q194.352 260.789 194.352 267.919 Q194.352 275.025 196.158 278.59 Q197.987 282.132 201.598 282.132 Q205.232 282.132 207.037 278.59 Q208.866 275.025 208.866 267.919 Q208.866 260.789 207.037 257.248 Q205.232 253.683 201.598 253.683 M201.598 249.979 Q207.408 249.979 210.463 254.586 Q213.542 259.169 213.542 267.919 Q213.542 276.646 210.463 281.252 Q207.408 285.835 201.598 285.835 Q195.787 285.835 192.709 281.252 Q189.653 276.646 189.653 267.919 Q189.653 259.169 192.709 254.586 Q195.787 249.979 201.598 249.979 Z" fill="#000000" fill-rule="evenodd" fill-opacity="1" /><path clip-path="url(#clip340)" d="M127.2 109.271 Q123.589 109.271 121.76 112.836 Q119.955 116.377 119.955 123.507 Q119.955 130.613 121.76 134.178 Q123.589 137.72 127.2 137.72 Q130.834 137.72 132.64 134.178 Q134.468 130.613 134.468 123.507 Q134.468 116.377 132.64 112.836 Q130.834 109.271 127.2 109.271 M127.2 105.567 Q133.01 105.567 136.066 110.174 Q139.144 114.757 139.144 123.507 Q139.144 132.234 136.066 136.84 Q133.01 141.423 127.2 141.423 Q121.39 141.423 118.311 136.84 Q115.256 132.234 115.256 123.507 Q115.256 114.757 118.311 110.174 Q121.39 105.567 127.2 105.567 Z" fill="#000000" fill-rule="evenodd" fill-opacity="1" /><path clip-path="url(#clip340)" d="M147.362 134.873 L152.246 134.873 L152.246 140.752 L147.362 140.752 L147.362 134.873 Z" fill="#000000" fill-rule="evenodd" fill-opacity="1" /><path clip-path="url(#clip340)" d="M162.477 106.192 L180.834 106.192 L180.834 110.127 L166.76 110.127 L166.76 118.599 Q167.778 118.252 168.797 118.09 Q169.815 117.905 170.834 117.905 Q176.621 117.905 180.001 121.076 Q183.38 124.248 183.38 129.664 Q183.38 135.243 179.908 138.345 Q176.436 141.423 170.116 141.423 Q167.94 141.423 165.672 141.053 Q163.427 140.683 161.019 139.942 L161.019 135.243 Q163.102 136.377 165.325 136.933 Q167.547 137.488 170.024 137.488 Q174.028 137.488 176.366 135.382 Q178.704 133.275 178.704 129.664 Q178.704 126.053 176.366 123.947 Q174.028 121.84 170.024 121.84 Q168.149 121.84 166.274 122.257 Q164.422 122.674 162.477 123.553 L162.477 106.192 Z" fill="#000000" fill-rule="evenodd" fill-opacity="1" /><path clip-path="url(#clip340)" d="M192.639 106.192 L210.996 106.192 L210.996 110.127 L196.922 110.127 L196.922 118.599 Q197.94 118.252 198.959 118.09 Q199.977 117.905 200.996 117.905 Q206.783 117.905 210.162 121.076 Q213.542 124.248 213.542 129.664 Q213.542 135.243 210.07 138.345 Q206.598 141.423 200.278 141.423 Q198.102 141.423 195.834 141.053 Q193.588 140.683 191.181 139.942 L191.181 135.243 Q193.264 136.377 195.487 136.933 Q197.709 137.488 200.186 137.488 Q204.19 137.488 206.528 135.382 Q208.866 133.275 208.866 129.664 Q208.866 126.053 206.528 123.947 Q204.19 121.84 200.186 121.84 Q198.311 121.84 196.436 122.257 Q194.584 122.674 192.639 123.553 L192.639 106.192 Z" fill="#000000" fill-rule="evenodd" fill-opacity="1" /><path clip-path="url(#clip340)" d="M16.4842 987.834 L16.4842 981.405 L64.0042 981.405 L64.0042 987.834 L16.4842 987.834 Z" fill="#000000" fill-rule="evenodd" fill-opacity="1" /><path clip-path="url(#clip340)" d="M42.4881 939.232 L64.0042 939.232 L64.0042 945.089 L42.679 945.089 Q37.6183 945.089 35.1038 947.062 Q32.5894 949.035 32.5894 952.982 Q32.5894 957.725 35.6131 960.462 Q38.6368 963.199 43.8567 963.199 L64.0042 963.199 L64.0042 969.087 L28.3562 969.087 L28.3562 963.199 L33.8944 963.199 Q30.6797 961.098 29.0883 958.266 Q27.4968 955.401 27.4968 951.677 Q27.4968 945.534 31.3163 942.383 Q35.1038 939.232 42.4881 939.232 Z" fill="#000000" fill-rule="evenodd" fill-opacity="1" /><path clip-path="url(#clip340)" d="M42.4881 897.919 L64.0042 897.919 L64.0042 903.775 L42.679 903.775 Q37.6183 903.775 35.1038 905.749 Q32.5894 907.722 32.5894 911.669 Q32.5894 916.411 35.6131 919.148 Q38.6368 921.886 43.8567 921.886 L64.0042 921.886 L64.0042 927.774 L28.3562 927.774 L28.3562 921.886 L33.8944 921.886 Q30.6797 919.785 29.0883 916.952 Q27.4968 914.088 27.4968 910.364 Q27.4968 904.221 31.3163 901.07 Q35.1038 897.919 42.4881 897.919 Z" fill="#000000" fill-rule="evenodd" fill-opacity="1" /><path clip-path="url(#clip340)" d="M44.7161 855.746 L47.5806 855.746 L47.5806 882.673 Q53.6281 882.291 56.8109 879.044 Q59.9619 875.766 59.9619 869.941 Q59.9619 866.568 59.1344 863.417 Q58.3069 860.234 56.6518 857.115 L62.1899 857.115 Q63.5267 860.266 64.227 863.576 Q64.9272 866.886 64.9272 870.292 Q64.9272 878.822 59.9619 883.819 Q54.9967 888.784 46.5303 888.784 Q37.7774 888.784 32.6531 884.073 Q27.4968 879.331 27.4968 871.31 Q27.4968 864.117 32.1438 859.947 Q36.7589 855.746 44.7161 855.746 M42.9973 861.602 Q38.1912 861.666 35.3266 864.308 Q32.4621 866.918 32.4621 871.246 Q32.4621 876.148 35.2312 879.108 Q38.0002 882.036 43.0292 882.482 L42.9973 861.602 Z" fill="#000000" fill-rule="evenodd" fill-opacity="1" /><path clip-path="url(#clip340)" d="M33.8307 825.477 Q33.2578 826.464 33.0032 827.641 Q32.7167 828.787 32.7167 830.188 Q32.7167 835.153 35.9632 837.827 Q39.1779 840.468 45.2253 840.468 L64.0042 840.468 L64.0042 846.357 L28.3562 846.357 L28.3562 840.468 L33.8944 840.468 Q30.6479 838.622 29.0883 835.662 Q27.4968 832.702 27.4968 828.469 Q27.4968 827.864 27.5923 827.132 Q27.656 826.4 27.8151 825.509 L33.8307 825.477 Z" fill="#000000" fill-rule="evenodd" fill-opacity="1" /><path clip-path="url(#clip340)" d="M21.7677 791.93 L39.6235 791.93 L39.6235 783.845 Q39.6235 779.357 37.3 776.907 Q34.9765 774.456 30.6797 774.456 Q26.4147 774.456 24.0912 776.907 Q21.7677 779.357 21.7677 783.845 L21.7677 791.93 M16.4842 798.359 L16.4842 783.845 Q16.4842 775.856 20.1126 771.782 Q23.7092 767.676 30.6797 767.676 Q37.7138 767.676 41.3104 771.782 Q44.907 775.856 44.907 783.845 L44.907 791.93 L64.0042 791.93 L64.0042 798.359 L16.4842 798.359 Z" fill="#000000" fill-rule="evenodd" fill-opacity="1" /><path clip-path="url(#clip340)" d="M33.8307 739.795 Q33.2578 740.781 33.0032 741.959 Q32.7167 743.105 32.7167 744.505 Q32.7167 749.47 35.9632 752.144 Q39.1779 754.786 45.2253 754.786 L64.0042 754.786 L64.0042 760.674 L28.3562 760.674 L28.3562 754.786 L33.8944 754.786 Q30.6479 752.94 29.0883 749.98 Q27.4968 747.02 27.4968 742.787 Q27.4968 742.182 27.5923 741.45 Q27.656 740.718 27.8151 739.826 L33.8307 739.795 Z" fill="#000000" fill-rule="evenodd" fill-opacity="1" /><path clip-path="url(#clip340)" d="M32.4621 721.27 Q32.4621 725.981 36.1542 728.718 Q39.8145 731.456 46.212 731.456 Q52.6095 731.456 56.3017 728.75 Q59.9619 726.013 59.9619 721.27 Q59.9619 716.592 56.2698 713.854 Q52.5777 711.117 46.212 711.117 Q39.8781 711.117 36.186 713.854 Q32.4621 716.592 32.4621 721.27 M27.4968 721.27 Q27.4968 713.632 32.4621 709.271 Q37.4273 704.911 46.212 704.911 Q54.9649 704.911 59.9619 709.271 Q64.9272 713.632 64.9272 721.27 Q64.9272 728.941 59.9619 733.302 Q54.9649 737.63 46.212 737.63 Q37.4273 737.63 32.4621 733.302 Q27.4968 728.941 27.4968 721.27 Z" fill="#000000" fill-rule="evenodd" fill-opacity="1" /><path clip-path="url(#clip340)" d="M33.7671 671.745 L14.479 671.745 L14.479 665.889 L64.0042 665.889 L64.0042 671.745 L58.657 671.745 Q61.8398 673.591 63.3994 676.424 Q64.9272 679.225 64.9272 683.172 Q64.9272 689.633 59.771 693.707 Q54.6147 697.749 46.212 697.749 Q37.8093 697.749 32.6531 693.707 Q27.4968 689.633 27.4968 683.172 Q27.4968 679.225 29.0564 676.424 Q30.5842 673.591 33.7671 671.745 M46.212 691.702 Q52.6732 691.702 56.3653 689.06 Q60.0256 686.386 60.0256 681.739 Q60.0256 677.092 56.3653 674.419 Q52.6732 671.745 46.212 671.745 Q39.7508 671.745 36.0905 674.419 Q32.3984 677.092 32.3984 681.739 Q32.3984 686.386 36.0905 689.06 Q39.7508 691.702 46.212 691.702 Z" fill="#000000" fill-rule="evenodd" fill-opacity="1" /><path clip-path="url(#clip340)" d="M49.9359 654.43 L28.3562 654.43 L28.3562 648.574 L49.7131 648.574 Q54.7739 648.574 57.3202 646.601 Q59.8346 644.627 59.8346 640.681 Q59.8346 635.938 56.8109 633.201 Q53.7872 630.432 48.5673 630.432 L28.3562 630.432 L28.3562 624.575 L64.0042 624.575 L64.0042 630.432 L58.5296 630.432 Q61.7762 632.564 63.3676 635.397 Q64.9272 638.198 64.9272 641.922 Q64.9272 648.065 61.1078 651.248 Q57.2883 654.43 49.9359 654.43 M27.4968 639.694 L27.4968 639.694 Z" fill="#000000" fill-rule="evenodd" fill-opacity="1" /><path clip-path="url(#clip340)" d="M29.7248 586.859 L35.1993 586.859 Q33.8307 589.341 33.1623 591.856 Q32.4621 594.338 32.4621 596.885 Q32.4621 602.582 36.0905 605.733 Q39.6872 608.884 46.212 608.884 Q52.7369 608.884 56.3653 605.733 Q59.9619 602.582 59.9619 596.885 Q59.9619 594.338 59.2935 591.856 Q58.5933 589.341 57.2247 586.859 L62.6355 586.859 Q63.7814 589.309 64.3543 591.951 Q64.9272 594.561 64.9272 597.521 Q64.9272 605.574 59.8664 610.316 Q54.8057 615.059 46.212 615.059 Q37.491 615.059 32.4939 610.284 Q27.4968 605.478 27.4968 597.139 Q27.4968 594.434 28.0697 591.856 Q28.6108 589.277 29.7248 586.859 Z" fill="#000000" fill-rule="evenodd" fill-opacity="1" /><path clip-path="url(#clip340)" d="M18.2347 570.881 L28.3562 570.881 L28.3562 558.818 L32.9077 558.818 L32.9077 570.881 L52.2594 570.881 Q56.6199 570.881 57.8613 569.703 Q59.1026 568.493 59.1026 564.833 L59.1026 558.818 L64.0042 558.818 L64.0042 564.833 Q64.0042 571.613 61.4897 574.191 Q58.9434 576.769 52.2594 576.769 L32.9077 576.769 L32.9077 581.066 L28.3562 581.066 L28.3562 576.769 L18.2347 576.769 L18.2347 570.881 Z" fill="#000000" fill-rule="evenodd" fill-opacity="1" /><path clip-path="url(#clip340)" d="M1170.73 17.6457 Q1161.82 17.6457 1156.55 24.2892 Q1151.33 30.9327 1151.33 42.3968 Q1151.33 53.8203 1156.55 60.4638 Q1161.82 67.1073 1170.73 67.1073 Q1179.64 67.1073 1184.83 60.4638 Q1190.05 53.8203 1190.05 42.3968 Q1190.05 30.9327 1184.83 24.2892 Q1179.64 17.6457 1170.73 17.6457 M1170.73 11.0023 Q1183.45 11.0023 1191.07 19.5497 Q1198.68 28.0566 1198.68 42.3968 Q1198.68 56.6965 1191.07 65.2439 Q1183.45 73.7508 1170.73 73.7508 Q1157.97 73.7508 1150.31 65.2439 Q1142.7 56.737 1142.7 42.3968 Q1142.7 28.0566 1150.31 19.5497 Q1157.97 11.0023 1170.73 11.0023 Z" fill="#000000" fill-rule="evenodd" fill-opacity="1" /><path clip-path="url(#clip340)" d="M1205.81 27.2059 L1213.71 27.2059 L1227.89 65.2844 L1242.07 27.2059 L1249.97 27.2059 L1232.95 72.576 L1222.82 72.576 L1205.81 27.2059 Z" fill="#000000" fill-rule="evenodd" fill-opacity="1" /><path clip-path="url(#clip340)" d="M1299.06 48.0275 L1299.06 51.6733 L1264.79 51.6733 Q1265.28 59.3701 1269.41 63.421 Q1273.58 67.4314 1281 67.4314 Q1285.29 67.4314 1289.3 66.3781 Q1293.35 65.3249 1297.32 63.2184 L1297.32 70.267 Q1293.31 71.9684 1289.1 72.8596 Q1284.88 73.7508 1280.55 73.7508 Q1269.69 73.7508 1263.33 67.4314 Q1257.01 61.1119 1257.01 50.3365 Q1257.01 39.1965 1263.01 32.6746 Q1269.05 26.1121 1279.25 26.1121 Q1288.41 26.1121 1293.72 32.0264 Q1299.06 37.9003 1299.06 48.0275 M1291.61 45.84 Q1291.53 39.7232 1288.17 36.0774 Q1284.84 32.4315 1279.33 32.4315 Q1273.1 32.4315 1269.33 35.9558 Q1265.6 39.4801 1265.04 45.8805 L1291.61 45.84 Z" fill="#000000" fill-rule="evenodd" fill-opacity="1" /><path clip-path="url(#clip340)" d="M1337.59 34.1734 Q1336.33 33.4443 1334.83 33.1202 Q1333.37 32.7556 1331.59 32.7556 Q1325.27 32.7556 1321.87 36.8875 Q1318.51 40.9789 1318.51 48.6757 L1318.51 72.576 L1311.01 72.576 L1311.01 27.2059 L1318.51 27.2059 L1318.51 34.2544 Q1320.86 30.1225 1324.62 28.1376 Q1328.39 26.1121 1333.78 26.1121 Q1334.55 26.1121 1335.48 26.2337 Q1336.41 26.3147 1337.55 26.5172 L1337.59 34.1734 Z" fill="#000000" fill-rule="evenodd" fill-opacity="1" /><path clip-path="url(#clip340)" d="M1345.41 9.54393 L1352.86 9.54393 L1352.86 72.576 L1345.41 72.576 L1345.41 9.54393 Z" fill="#000000" fill-rule="evenodd" fill-opacity="1" /><path clip-path="url(#clip340)" d="M1389.07 49.7694 Q1380.04 49.7694 1376.56 51.8354 Q1373.07 53.9013 1373.07 58.8839 Q1373.07 62.8538 1375.67 65.2034 Q1378.3 67.5124 1382.79 67.5124 Q1388.99 67.5124 1392.72 63.1374 Q1396.49 58.7219 1396.49 51.4303 L1396.49 49.7694 L1389.07 49.7694 M1403.94 46.6907 L1403.94 72.576 L1396.49 72.576 L1396.49 65.6895 Q1393.93 69.8214 1390.13 71.8063 Q1386.32 73.7508 1380.81 73.7508 Q1373.84 73.7508 1369.71 69.8619 Q1365.62 65.9325 1365.62 59.3701 Q1365.62 51.7138 1370.72 47.825 Q1375.87 43.9361 1386.04 43.9361 L1396.49 43.9361 L1396.49 43.2069 Q1396.49 38.0623 1393.08 35.2672 Q1389.72 32.4315 1383.61 32.4315 Q1379.72 32.4315 1376.03 33.3632 Q1372.34 34.295 1368.94 36.1584 L1368.94 29.2718 Q1373.03 27.692 1376.88 26.9223 Q1380.73 26.1121 1384.37 26.1121 Q1394.22 26.1121 1399.08 31.2163 Q1403.94 36.3204 1403.94 46.6907 Z" fill="#000000" fill-rule="evenodd" fill-opacity="1" /><path clip-path="url(#clip340)" d="M1426.5 65.7705 L1426.5 89.8329 L1419.01 89.8329 L1419.01 27.2059 L1426.5 27.2059 L1426.5 34.0924 Q1428.85 30.0415 1432.42 28.0971 Q1436.02 26.1121 1441.01 26.1121 Q1449.27 26.1121 1454.41 32.6746 Q1459.6 39.2371 1459.6 49.9314 Q1459.6 60.6258 1454.41 67.1883 Q1449.27 73.7508 1441.01 73.7508 Q1436.02 73.7508 1432.42 71.8063 Q1428.85 69.8214 1426.5 65.7705 M1451.86 49.9314 Q1451.86 41.7081 1448.46 37.0496 Q1445.1 32.3505 1439.18 32.3505 Q1433.27 32.3505 1429.87 37.0496 Q1426.5 41.7081 1426.5 49.9314 Q1426.5 58.1548 1429.87 62.8538 Q1433.27 67.5124 1439.18 67.5124 Q1445.1 67.5124 1448.46 62.8538 Q1451.86 58.1548 1451.86 49.9314 Z" fill="#000000" fill-rule="evenodd" fill-opacity="1" /><polyline clip-path="url(#clip342)" style="stroke:#000000; stroke-linecap:round; stroke-linejoin:round; stroke-width:4; stroke-opacity:1; fill:none" points="
  309.634,344.352 309.634,344.352 
  "/>
<polyline clip-path="url(#clip342)" style="stroke:#000000; stroke-linecap:round; stroke-linejoin:round; stroke-width:4; stroke-opacity:1; fill:none" points="
  369.726,366.967 369.726,366.957 
  "/>
<polyline clip-path="url(#clip342)" style="stroke:#000000; stroke-linecap:round; stroke-linejoin:round; stroke-width:4; stroke-opacity:1; fill:none" points="
  429.818,351.341 429.818,351.338 
  "/>
<polyline clip-path="url(#clip342)" style="stroke:#000000; stroke-linecap:round; stroke-linejoin:round; stroke-width:4; stroke-opacity:1; fill:none" points="
  489.909,371.543 489.909,360.208 
  "/>
<polyline clip-path="url(#clip342)" style="stroke:#000000; stroke-linecap:round; stroke-linejoin:round; stroke-width:4; stroke-opacity:1; fill:none" points="
  550.001,353.613 550.001,353.601 
  "/>
<polyline clip-path="url(#clip342)" style="stroke:#000000; stroke-linecap:round; stroke-linejoin:round; stroke-width:4; stroke-opacity:1; fill:none" points="
  610.093,380.123 610.093,192.917 
  "/>
<polyline clip-path="url(#clip342)" style="stroke:#000000; stroke-linecap:round; stroke-linejoin:round; stroke-width:4; stroke-opacity:1; fill:none" points="
  670.185,449.938 670.185,427.472 
  "/>
<polyline clip-path="url(#clip342)" style="stroke:#000000; stroke-linecap:round; stroke-linejoin:round; stroke-width:4; stroke-opacity:1; fill:none" points="
  730.277,1286.39 730.277,1183.89 
  "/>
<polyline clip-path="url(#clip342)" style="stroke:#000000; stroke-linecap:round; stroke-linejoin:round; stroke-width:4; stroke-opacity:1; fill:none" points="
  790.368,1281.31 790.368,1206.47 
  "/>
<polyline clip-path="url(#clip342)" style="stroke:#000000; stroke-linecap:round; stroke-linejoin:round; stroke-width:4; stroke-opacity:1; fill:none" points="
  850.46,456.833 850.46,284.032 
  "/>
<polyline clip-path="url(#clip342)" style="stroke:#000000; stroke-linecap:round; stroke-linejoin:round; stroke-width:4; stroke-opacity:1; fill:none" points="
  910.552,723.655 910.552,609.816 
  "/>
<polyline clip-path="url(#clip342)" style="stroke:#000000; stroke-linecap:round; stroke-linejoin:round; stroke-width:4; stroke-opacity:1; fill:none" points="
  970.644,1401.24 970.644,1298.25 
  "/>
<polyline clip-path="url(#clip342)" style="stroke:#000000; stroke-linecap:round; stroke-linejoin:round; stroke-width:4; stroke-opacity:1; fill:none" points="
  1030.74,369.128 1030.74,354.328 
  "/>
<polyline clip-path="url(#clip342)" style="stroke:#000000; stroke-linecap:round; stroke-linejoin:round; stroke-width:4; stroke-opacity:1; fill:none" points="
  1090.83,376.466 1090.83,348.814 
  "/>
<polyline clip-path="url(#clip342)" style="stroke:#000000; stroke-linecap:round; stroke-linejoin:round; stroke-width:4; stroke-opacity:1; fill:none" points="
  1150.92,617.196 1150.92,216.483 
  "/>
<polyline clip-path="url(#clip342)" style="stroke:#000000; stroke-linecap:round; stroke-linejoin:round; stroke-width:4; stroke-opacity:1; fill:none" points="
  1211.01,377.442 1211.01,346.345 
  "/>
<polyline clip-path="url(#clip342)" style="stroke:#000000; stroke-linecap:round; stroke-linejoin:round; stroke-width:4; stroke-opacity:1; fill:none" points="
  1271.1,396.864 1271.1,316.951 
  "/>
<polyline clip-path="url(#clip342)" style="stroke:#000000; stroke-linecap:round; stroke-linejoin:round; stroke-width:4; stroke-opacity:1; fill:none" points="
  1331.19,371.223 1331.19,352.575 
  "/>
<polyline clip-path="url(#clip342)" style="stroke:#000000; stroke-linecap:round; stroke-linejoin:round; stroke-width:4; stroke-opacity:1; fill:none" points="
  1391.29,358.044 1391.29,352.73 
  "/>
<polyline clip-path="url(#clip342)" style="stroke:#000000; stroke-linecap:round; stroke-linejoin:round; stroke-width:4; stroke-opacity:1; fill:none" points="
  1451.38,367.944 1451.38,353.031 
  "/>
<polyline clip-path="url(#clip342)" style="stroke:#000000; stroke-linecap:round; stroke-linejoin:round; stroke-width:4; stroke-opacity:1; fill:none" points="
  1511.47,425.925 1511.47,289.484 
  "/>
<polyline clip-path="url(#clip342)" style="stroke:#000000; stroke-linecap:round; stroke-linejoin:round; stroke-width:4; stroke-opacity:1; fill:none" points="
  1571.56,405.482 1571.56,339.642 
  "/>
<polyline clip-path="url(#clip342)" style="stroke:#000000; stroke-linecap:round; stroke-linejoin:round; stroke-width:4; stroke-opacity:1; fill:none" points="
  1631.65,372.329 1631.65,332.25 
  "/>
<polyline clip-path="url(#clip342)" style="stroke:#000000; stroke-linecap:round; stroke-linejoin:round; stroke-width:4; stroke-opacity:1; fill:none" points="
  1691.75,437.893 1691.75,300.832 
  "/>
<polyline clip-path="url(#clip342)" style="stroke:#000000; stroke-linecap:round; stroke-linejoin:round; stroke-width:4; stroke-opacity:1; fill:none" points="
  1751.84,672.469 1751.84,337.459 
  "/>
<polyline clip-path="url(#clip342)" style="stroke:#000000; stroke-linecap:round; stroke-linejoin:round; stroke-width:4; stroke-opacity:1; fill:none" points="
  1811.93,744.724 1811.93,621.147 
  "/>
<polyline clip-path="url(#clip342)" style="stroke:#000000; stroke-linecap:round; stroke-linejoin:round; stroke-width:4; stroke-opacity:1; fill:none" points="
  1872.02,831.887 1872.02,670.552 
  "/>
<line clip-path="url(#clip342)" x1="317.634" y1="344.352" x2="301.634" y2="344.352" style="stroke:#000000; stroke-width:3.2; stroke-opacity:1"/>
<line clip-path="url(#clip342)" x1="317.634" y1="344.352" x2="301.634" y2="344.352" style="stroke:#000000; stroke-width:3.2; stroke-opacity:1"/>
<line clip-path="url(#clip342)" x1="377.726" y1="366.967" x2="361.726" y2="366.967" style="stroke:#000000; stroke-width:3.2; stroke-opacity:1"/>
<line clip-path="url(#clip342)" x1="377.726" y1="366.957" x2="361.726" y2="366.957" style="stroke:#000000; stroke-width:3.2; stroke-opacity:1"/>
<line clip-path="url(#clip342)" x1="437.818" y1="351.341" x2="421.818" y2="351.341" style="stroke:#000000; stroke-width:3.2; stroke-opacity:1"/>
<line clip-path="url(#clip342)" x1="437.818" y1="351.338" x2="421.818" y2="351.338" style="stroke:#000000; stroke-width:3.2; stroke-opacity:1"/>
<line clip-path="url(#clip342)" x1="497.909" y1="371.543" x2="481.909" y2="371.543" style="stroke:#000000; stroke-width:3.2; stroke-opacity:1"/>
<line clip-path="url(#clip342)" x1="497.909" y1="360.208" x2="481.909" y2="360.208" style="stroke:#000000; stroke-width:3.2; stroke-opacity:1"/>
<line clip-path="url(#clip342)" x1="558.001" y1="353.613" x2="542.001" y2="353.613" style="stroke:#000000; stroke-width:3.2; stroke-opacity:1"/>
<line clip-path="url(#clip342)" x1="558.001" y1="353.601" x2="542.001" y2="353.601" style="stroke:#000000; stroke-width:3.2; stroke-opacity:1"/>
<line clip-path="url(#clip342)" x1="618.093" y1="380.123" x2="602.093" y2="380.123" style="stroke:#000000; stroke-width:3.2; stroke-opacity:1"/>
<line clip-path="url(#clip342)" x1="618.093" y1="192.917" x2="602.093" y2="192.917" style="stroke:#000000; stroke-width:3.2; stroke-opacity:1"/>
<line clip-path="url(#clip342)" x1="678.185" y1="449.938" x2="662.185" y2="449.938" style="stroke:#000000; stroke-width:3.2; stroke-opacity:1"/>
<line clip-path="url(#clip342)" x1="678.185" y1="427.472" x2="662.185" y2="427.472" style="stroke:#000000; stroke-width:3.2; stroke-opacity:1"/>
<line clip-path="url(#clip342)" x1="738.277" y1="1286.39" x2="722.277" y2="1286.39" style="stroke:#000000; stroke-width:3.2; stroke-opacity:1"/>
<line clip-path="url(#clip342)" x1="738.277" y1="1183.89" x2="722.277" y2="1183.89" style="stroke:#000000; stroke-width:3.2; stroke-opacity:1"/>
<line clip-path="url(#clip342)" x1="798.368" y1="1281.31" x2="782.368" y2="1281.31" style="stroke:#000000; stroke-width:3.2; stroke-opacity:1"/>
<line clip-path="url(#clip342)" x1="798.368" y1="1206.47" x2="782.368" y2="1206.47" style="stroke:#000000; stroke-width:3.2; stroke-opacity:1"/>
<line clip-path="url(#clip342)" x1="858.46" y1="456.833" x2="842.46" y2="456.833" style="stroke:#000000; stroke-width:3.2; stroke-opacity:1"/>
<line clip-path="url(#clip342)" x1="858.46" y1="284.032" x2="842.46" y2="284.032" style="stroke:#000000; stroke-width:3.2; stroke-opacity:1"/>
<line clip-path="url(#clip342)" x1="918.552" y1="723.655" x2="902.552" y2="723.655" style="stroke:#000000; stroke-width:3.2; stroke-opacity:1"/>
<line clip-path="url(#clip342)" x1="918.552" y1="609.816" x2="902.552" y2="609.816" style="stroke:#000000; stroke-width:3.2; stroke-opacity:1"/>
<line clip-path="url(#clip342)" x1="978.644" y1="1401.24" x2="962.644" y2="1401.24" style="stroke:#000000; stroke-width:3.2; stroke-opacity:1"/>
<line clip-path="url(#clip342)" x1="978.644" y1="1298.25" x2="962.644" y2="1298.25" style="stroke:#000000; stroke-width:3.2; stroke-opacity:1"/>
<line clip-path="url(#clip342)" x1="1038.74" y1="369.128" x2="1022.74" y2="369.128" style="stroke:#000000; stroke-width:3.2; stroke-opacity:1"/>
<line clip-path="url(#clip342)" x1="1038.74" y1="354.328" x2="1022.74" y2="354.328" style="stroke:#000000; stroke-width:3.2; stroke-opacity:1"/>
<line clip-path="url(#clip342)" x1="1098.83" y1="376.466" x2="1082.83" y2="376.466" style="stroke:#000000; stroke-width:3.2; stroke-opacity:1"/>
<line clip-path="url(#clip342)" x1="1098.83" y1="348.814" x2="1082.83" y2="348.814" style="stroke:#000000; stroke-width:3.2; stroke-opacity:1"/>
<line clip-path="url(#clip342)" x1="1158.92" y1="617.196" x2="1142.92" y2="617.196" style="stroke:#000000; stroke-width:3.2; stroke-opacity:1"/>
<line clip-path="url(#clip342)" x1="1158.92" y1="216.483" x2="1142.92" y2="216.483" style="stroke:#000000; stroke-width:3.2; stroke-opacity:1"/>
<line clip-path="url(#clip342)" x1="1219.01" y1="377.442" x2="1203.01" y2="377.442" style="stroke:#000000; stroke-width:3.2; stroke-opacity:1"/>
<line clip-path="url(#clip342)" x1="1219.01" y1="346.345" x2="1203.01" y2="346.345" style="stroke:#000000; stroke-width:3.2; stroke-opacity:1"/>
<line clip-path="url(#clip342)" x1="1279.1" y1="396.864" x2="1263.1" y2="396.864" style="stroke:#000000; stroke-width:3.2; stroke-opacity:1"/>
<line clip-path="url(#clip342)" x1="1279.1" y1="316.951" x2="1263.1" y2="316.951" style="stroke:#000000; stroke-width:3.2; stroke-opacity:1"/>
<line clip-path="url(#clip342)" x1="1339.19" y1="371.223" x2="1323.19" y2="371.223" style="stroke:#000000; stroke-width:3.2; stroke-opacity:1"/>
<line clip-path="url(#clip342)" x1="1339.19" y1="352.575" x2="1323.19" y2="352.575" style="stroke:#000000; stroke-width:3.2; stroke-opacity:1"/>
<line clip-path="url(#clip342)" x1="1399.29" y1="358.044" x2="1383.29" y2="358.044" style="stroke:#000000; stroke-width:3.2; stroke-opacity:1"/>
<line clip-path="url(#clip342)" x1="1399.29" y1="352.73" x2="1383.29" y2="352.73" style="stroke:#000000; stroke-width:3.2; stroke-opacity:1"/>
<line clip-path="url(#clip342)" x1="1459.38" y1="367.944" x2="1443.38" y2="367.944" style="stroke:#000000; stroke-width:3.2; stroke-opacity:1"/>
<line clip-path="url(#clip342)" x1="1459.38" y1="353.031" x2="1443.38" y2="353.031" style="stroke:#000000; stroke-width:3.2; stroke-opacity:1"/>
<line clip-path="url(#clip342)" x1="1519.47" y1="425.925" x2="1503.47" y2="425.925" style="stroke:#000000; stroke-width:3.2; stroke-opacity:1"/>
<line clip-path="url(#clip342)" x1="1519.47" y1="289.484" x2="1503.47" y2="289.484" style="stroke:#000000; stroke-width:3.2; stroke-opacity:1"/>
<line clip-path="url(#clip342)" x1="1579.56" y1="405.482" x2="1563.56" y2="405.482" style="stroke:#000000; stroke-width:3.2; stroke-opacity:1"/>
<line clip-path="url(#clip342)" x1="1579.56" y1="339.642" x2="1563.56" y2="339.642" style="stroke:#000000; stroke-width:3.2; stroke-opacity:1"/>
<line clip-path="url(#clip342)" x1="1639.65" y1="372.329" x2="1623.65" y2="372.329" style="stroke:#000000; stroke-width:3.2; stroke-opacity:1"/>
<line clip-path="url(#clip342)" x1="1639.65" y1="332.25" x2="1623.65" y2="332.25" style="stroke:#000000; stroke-width:3.2; stroke-opacity:1"/>
<line clip-path="url(#clip342)" x1="1699.75" y1="437.893" x2="1683.75" y2="437.893" style="stroke:#000000; stroke-width:3.2; stroke-opacity:1"/>
<line clip-path="url(#clip342)" x1="1699.75" y1="300.832" x2="1683.75" y2="300.832" style="stroke:#000000; stroke-width:3.2; stroke-opacity:1"/>
<line clip-path="url(#clip342)" x1="1759.84" y1="672.469" x2="1743.84" y2="672.469" style="stroke:#000000; stroke-width:3.2; stroke-opacity:1"/>
<line clip-path="url(#clip342)" x1="1759.84" y1="337.459" x2="1743.84" y2="337.459" style="stroke:#000000; stroke-width:3.2; stroke-opacity:1"/>
<line clip-path="url(#clip342)" x1="1819.93" y1="744.724" x2="1803.93" y2="744.724" style="stroke:#000000; stroke-width:3.2; stroke-opacity:1"/>
<line clip-path="url(#clip342)" x1="1819.93" y1="621.147" x2="1803.93" y2="621.147" style="stroke:#000000; stroke-width:3.2; stroke-opacity:1"/>
<line clip-path="url(#clip342)" x1="1880.02" y1="831.887" x2="1864.02" y2="831.887" style="stroke:#000000; stroke-width:3.2; stroke-opacity:1"/>
<line clip-path="url(#clip342)" x1="1880.02" y1="670.552" x2="1864.02" y2="670.552" style="stroke:#000000; stroke-width:3.2; stroke-opacity:1"/>
<circle clip-path="url(#clip342)" cx="309.634" cy="344.352" r="7.2" fill="#009af9" fill-rule="evenodd" fill-opacity="1" stroke="#000000" stroke-opacity="1" stroke-width="3.2"/>
<circle clip-path="url(#clip342)" cx="369.726" cy="366.962" r="7.2" fill="#009af9" fill-rule="evenodd" fill-opacity="1" stroke="#000000" stroke-opacity="1" stroke-width="3.2"/>
<circle clip-path="url(#clip342)" cx="429.818" cy="351.339" r="7.2" fill="#009af9" fill-rule="evenodd" fill-opacity="1" stroke="#000000" stroke-opacity="1" stroke-width="3.2"/>
<circle clip-path="url(#clip342)" cx="489.909" cy="365.876" r="7.2" fill="#009af9" fill-rule="evenodd" fill-opacity="1" stroke="#000000" stroke-opacity="1" stroke-width="3.2"/>
<circle clip-path="url(#clip342)" cx="550.001" cy="353.607" r="7.2" fill="#009af9" fill-rule="evenodd" fill-opacity="1" stroke="#000000" stroke-opacity="1" stroke-width="3.2"/>
<circle clip-path="url(#clip342)" cx="610.093" cy="286.52" r="7.2" fill="#009af9" fill-rule="evenodd" fill-opacity="1" stroke="#000000" stroke-opacity="1" stroke-width="3.2"/>
<circle clip-path="url(#clip342)" cx="670.185" cy="438.705" r="7.2" fill="#009af9" fill-rule="evenodd" fill-opacity="1" stroke="#000000" stroke-opacity="1" stroke-width="3.2"/>
<circle clip-path="url(#clip342)" cx="730.277" cy="1235.14" r="7.2" fill="#009af9" fill-rule="evenodd" fill-opacity="1" stroke="#000000" stroke-opacity="1" stroke-width="3.2"/>
<circle clip-path="url(#clip342)" cx="790.368" cy="1243.89" r="7.2" fill="#009af9" fill-rule="evenodd" fill-opacity="1" stroke="#000000" stroke-opacity="1" stroke-width="3.2"/>
<circle clip-path="url(#clip342)" cx="850.46" cy="370.432" r="7.2" fill="#009af9" fill-rule="evenodd" fill-opacity="1" stroke="#000000" stroke-opacity="1" stroke-width="3.2"/>
<circle clip-path="url(#clip342)" cx="910.552" cy="666.735" r="7.2" fill="#009af9" fill-rule="evenodd" fill-opacity="1" stroke="#000000" stroke-opacity="1" stroke-width="3.2"/>
<circle clip-path="url(#clip342)" cx="970.644" cy="1349.74" r="7.2" fill="#009af9" fill-rule="evenodd" fill-opacity="1" stroke="#000000" stroke-opacity="1" stroke-width="3.2"/>
<circle clip-path="url(#clip342)" cx="1030.74" cy="361.728" r="7.2" fill="#009af9" fill-rule="evenodd" fill-opacity="1" stroke="#000000" stroke-opacity="1" stroke-width="3.2"/>
<circle clip-path="url(#clip342)" cx="1090.83" cy="362.64" r="7.2" fill="#009af9" fill-rule="evenodd" fill-opacity="1" stroke="#000000" stroke-opacity="1" stroke-width="3.2"/>
<circle clip-path="url(#clip342)" cx="1150.92" cy="416.84" r="7.2" fill="#009af9" fill-rule="evenodd" fill-opacity="1" stroke="#000000" stroke-opacity="1" stroke-width="3.2"/>
<circle clip-path="url(#clip342)" cx="1211.01" cy="361.894" r="7.2" fill="#009af9" fill-rule="evenodd" fill-opacity="1" stroke="#000000" stroke-opacity="1" stroke-width="3.2"/>
<circle clip-path="url(#clip342)" cx="1271.1" cy="356.907" r="7.2" fill="#009af9" fill-rule="evenodd" fill-opacity="1" stroke="#000000" stroke-opacity="1" stroke-width="3.2"/>
<circle clip-path="url(#clip342)" cx="1331.19" cy="361.899" r="7.2" fill="#009af9" fill-rule="evenodd" fill-opacity="1" stroke="#000000" stroke-opacity="1" stroke-width="3.2"/>
<circle clip-path="url(#clip342)" cx="1391.29" cy="355.387" r="7.2" fill="#009af9" fill-rule="evenodd" fill-opacity="1" stroke="#000000" stroke-opacity="1" stroke-width="3.2"/>
<circle clip-path="url(#clip342)" cx="1451.38" cy="360.487" r="7.2" fill="#009af9" fill-rule="evenodd" fill-opacity="1" stroke="#000000" stroke-opacity="1" stroke-width="3.2"/>
<circle clip-path="url(#clip342)" cx="1511.47" cy="357.705" r="7.2" fill="#009af9" fill-rule="evenodd" fill-opacity="1" stroke="#000000" stroke-opacity="1" stroke-width="3.2"/>
<circle clip-path="url(#clip342)" cx="1571.56" cy="372.562" r="7.2" fill="#009af9" fill-rule="evenodd" fill-opacity="1" stroke="#000000" stroke-opacity="1" stroke-width="3.2"/>
<circle clip-path="url(#clip342)" cx="1631.65" cy="352.289" r="7.2" fill="#009af9" fill-rule="evenodd" fill-opacity="1" stroke="#000000" stroke-opacity="1" stroke-width="3.2"/>
<circle clip-path="url(#clip342)" cx="1691.75" cy="369.362" r="7.2" fill="#009af9" fill-rule="evenodd" fill-opacity="1" stroke="#000000" stroke-opacity="1" stroke-width="3.2"/>
<circle clip-path="url(#clip342)" cx="1751.84" cy="504.964" r="7.2" fill="#009af9" fill-rule="evenodd" fill-opacity="1" stroke="#000000" stroke-opacity="1" stroke-width="3.2"/>
<circle clip-path="url(#clip342)" cx="1811.93" cy="682.936" r="7.2" fill="#009af9" fill-rule="evenodd" fill-opacity="1" stroke="#000000" stroke-opacity="1" stroke-width="3.2"/>
<circle clip-path="url(#clip342)" cx="1872.02" cy="751.219" r="7.2" fill="#009af9" fill-rule="evenodd" fill-opacity="1" stroke="#000000" stroke-opacity="1" stroke-width="3.2"/>
<path clip-path="url(#clip340)" d="
M1714.55 270.476 L2282.65 270.476 L2282.65 166.796 L1714.55 166.796  Z
  " fill="#ffffff" fill-rule="evenodd" fill-opacity="1"/>
<polyline clip-path="url(#clip340)" style="stroke:#000000; stroke-linecap:round; stroke-linejoin:round; stroke-width:4; stroke-opacity:1; fill:none" points="
  1714.55,270.476 2282.65,270.476 2282.65,166.796 1714.55,166.796 1714.55,270.476 
  "/>
<circle clip-path="url(#clip340)" cx="1808.03" cy="218.636" r="23.04" fill="#009af9" fill-rule="evenodd" fill-opacity="1" stroke="#000000" stroke-opacity="1" stroke-width="10.24"/>
<path clip-path="url(#clip340)" d="M1921.85 214.967 Q1923.45 212.096 1925.67 210.731 Q1927.89 209.365 1930.9 209.365 Q1934.95 209.365 1937.15 212.212 Q1939.35 215.036 1939.35 220.268 L1939.35 235.916 L1935.07 235.916 L1935.07 220.407 Q1935.07 216.68 1933.75 214.874 Q1932.43 213.069 1929.72 213.069 Q1926.41 213.069 1924.49 215.268 Q1922.57 217.467 1922.57 221.263 L1922.57 235.916 L1918.29 235.916 L1918.29 220.407 Q1918.29 216.657 1916.97 214.874 Q1915.65 213.069 1912.89 213.069 Q1909.63 213.069 1907.71 215.291 Q1905.79 217.49 1905.79 221.263 L1905.79 235.916 L1901.5 235.916 L1901.5 209.99 L1905.79 209.99 L1905.79 214.018 Q1907.24 211.633 1909.28 210.499 Q1911.32 209.365 1914.12 209.365 Q1916.94 209.365 1918.91 210.8 Q1920.9 212.235 1921.85 214.967 Z" fill="#000000" fill-rule="evenodd" fill-opacity="1" /><path clip-path="url(#clip340)" d="M1956.57 220.245 Q1955.42 218.254 1953.08 218.254 Q1950.74 218.254 1949.58 220.245 Q1948.4 222.235 1948.4 226.217 Q1948.4 230.221 1949.58 232.212 Q1950.74 234.203 1953.08 234.203 Q1955.42 234.203 1956.57 232.212 Q1957.75 230.221 1957.75 226.217 Q1957.75 222.235 1956.57 220.245 M1953.08 216.194 Q1956.8 216.194 1958.77 218.763 Q1960.74 221.332 1960.74 226.217 Q1960.74 231.124 1958.77 233.694 Q1956.8 236.263 1953.08 236.263 Q1949.33 236.263 1947.36 233.694 Q1945.39 231.124 1945.39 226.217 Q1945.39 221.332 1947.36 218.763 Q1949.33 216.194 1953.08 216.194 Z" fill="#000000" fill-rule="evenodd" fill-opacity="1" /><path clip-path="url(#clip340)" d="M1967.41 214.388 L1997.08 214.388 L1997.08 218.277 L1967.41 218.277 L1967.41 214.388 M1967.41 223.832 L1997.08 223.832 L1997.08 227.768 L1967.41 227.768 L1967.41 223.832 Z" fill="#000000" fill-rule="evenodd" fill-opacity="1" /><path clip-path="url(#clip340)" d="M2017.17 204.434 Q2013.56 204.434 2011.73 207.999 Q2009.93 211.541 2009.93 218.67 Q2009.93 225.777 2011.73 229.342 Q2013.56 232.883 2017.17 232.883 Q2020.81 232.883 2022.61 229.342 Q2024.44 225.777 2024.44 218.67 Q2024.44 211.541 2022.61 207.999 Q2020.81 204.434 2017.17 204.434 M2017.17 200.731 Q2022.98 200.731 2026.04 205.337 Q2029.12 209.92 2029.12 218.67 Q2029.12 227.397 2026.04 232.004 Q2022.98 236.587 2017.17 236.587 Q2011.36 236.587 2008.29 232.004 Q2005.23 227.397 2005.23 218.67 Q2005.23 209.92 2008.29 205.337 Q2011.36 200.731 2017.17 200.731 Z" fill="#000000" fill-rule="evenodd" fill-opacity="1" /><path clip-path="url(#clip340)" d="M2037.34 230.036 L2042.22 230.036 L2042.22 235.916 L2037.34 235.916 L2037.34 230.036 Z" fill="#000000" fill-rule="evenodd" fill-opacity="1" /><path clip-path="url(#clip340)" d="M2051.23 201.356 L2073.45 201.356 L2073.45 203.346 L2060.9 235.916 L2056.02 235.916 L2067.82 205.291 L2051.23 205.291 L2051.23 201.356 Z" fill="#000000" fill-rule="evenodd" fill-opacity="1" /><path clip-path="url(#clip340)" d="M2083.05 230.036 L2087.94 230.036 L2087.94 234.018 L2084.14 241.425 L2081.16 241.425 L2083.05 234.018 L2083.05 230.036 Z" fill="#000000" fill-rule="evenodd" fill-opacity="1" /><path clip-path="url(#clip340)" d="M2120.79 230.985 L2120.79 221.703 L2113.15 221.703 L2113.15 217.86 L2125.41 217.86 L2125.41 232.698 Q2122.71 234.619 2119.44 235.615 Q2116.18 236.587 2112.47 236.587 Q2104.37 236.587 2099.79 231.865 Q2095.23 227.119 2095.23 218.67 Q2095.23 210.198 2099.79 205.476 Q2104.37 200.731 2112.47 200.731 Q2115.85 200.731 2118.89 201.564 Q2121.94 202.397 2124.51 204.018 L2124.51 208.995 Q2121.92 206.796 2119 205.684 Q2116.09 204.573 2112.87 204.573 Q2106.53 204.573 2103.33 208.115 Q2100.16 211.657 2100.16 218.67 Q2100.16 225.661 2103.33 229.203 Q2106.53 232.744 2112.87 232.744 Q2115.35 232.744 2117.29 232.328 Q2119.23 231.888 2120.79 230.985 Z" fill="#000000" fill-rule="evenodd" fill-opacity="1" /><path clip-path="url(#clip340)" d="M2135.51 217.814 L2145.32 217.814 L2145.32 220.453 L2131.48 220.453 L2131.48 217.907 Q2132.27 217.189 2133.72 215.893 Q2141.69 208.833 2141.69 206.657 Q2141.69 205.129 2140.48 204.203 Q2139.28 203.254 2137.31 203.254 Q2136.11 203.254 2134.7 203.671 Q2133.29 204.064 2131.62 204.874 L2131.62 202.027 Q2133.4 201.379 2134.93 201.055 Q2136.48 200.731 2137.8 200.731 Q2141.16 200.731 2143.17 202.258 Q2145.18 203.786 2145.18 206.286 Q2145.18 209.504 2137.52 216.078 Q2136.22 217.189 2135.51 217.814 Z" fill="#000000" fill-rule="evenodd" fill-opacity="1" /><path clip-path="url(#clip340)" d="M2153.33 214.388 L2183.01 214.388 L2183.01 218.277 L2153.33 218.277 L2153.33 214.388 M2153.33 223.832 L2183.01 223.832 L2183.01 227.768 L2153.33 227.768 L2153.33 223.832 Z" fill="#000000" fill-rule="evenodd" fill-opacity="1" /><path clip-path="url(#clip340)" d="M2193.91 231.981 L2201.55 231.981 L2201.55 205.615 L2193.24 207.282 L2193.24 203.022 L2201.5 201.356 L2206.18 201.356 L2206.18 231.981 L2213.82 231.981 L2213.82 235.916 L2193.91 235.916 L2193.91 231.981 Z" fill="#000000" fill-rule="evenodd" fill-opacity="1" /><path clip-path="url(#clip340)" d="M2223.26 230.036 L2228.15 230.036 L2228.15 235.916 L2223.26 235.916 L2223.26 230.036 Z" fill="#000000" fill-rule="evenodd" fill-opacity="1" /><path clip-path="url(#clip340)" d="M2238.38 201.356 L2256.73 201.356 L2256.73 205.291 L2242.66 205.291 L2242.66 213.763 Q2243.68 213.416 2244.7 213.254 Q2245.71 213.069 2246.73 213.069 Q2252.52 213.069 2255.9 216.24 Q2259.28 219.411 2259.28 224.828 Q2259.28 230.406 2255.81 233.508 Q2252.34 236.587 2246.02 236.587 Q2243.84 236.587 2241.57 236.217 Q2239.33 235.846 2236.92 235.106 L2236.92 230.406 Q2239 231.541 2241.22 232.096 Q2243.45 232.652 2245.92 232.652 Q2249.93 232.652 2252.27 230.545 Q2254.6 228.439 2254.6 224.828 Q2254.6 221.217 2252.27 219.11 Q2249.93 217.004 2245.92 217.004 Q2244.05 217.004 2242.17 217.42 Q2240.32 217.837 2238.38 218.717 L2238.38 201.356 Z" fill="#000000" fill-rule="evenodd" fill-opacity="1" /></svg>
