<?xml version="1.0" encoding="utf-8"?>
<svg xmlns="http://www.w3.org/2000/svg" xmlns:xlink="http://www.w3.org/1999/xlink" width="600" height="400" viewBox="0 0 2400 1600">
<defs>
  <clipPath id="clip220">
    <rect x="0" y="0" width="2400" height="1600"/>
  </clipPath>
</defs>
<path clip-path="url(#clip220)" d="
M0 1600 L2400 1600 L2400 0 L0 0  Z
  " fill="#ffffff" fill-rule="evenodd" fill-opacity="1"/>
<defs>
  <clipPath id="clip221">
    <rect x="480" y="0" width="1681" height="1600"/>
  </clipPath>
</defs>
<path clip-path="url(#clip220)" d="
M250.028 1423.18 L2352.76 1423.18 L2352.76 123.472 L250.028 123.472  Z
  " fill="#ffffff" fill-rule="evenodd" fill-opacity="1"/>
<defs>
  <clipPath id="clip222">
    <rect x="250" y="123" width="2104" height="1301"/>
  </clipPath>
</defs>
<polyline clip-path="url(#clip222)" style="stroke:#000000; stroke-linecap:round; stroke-linejoin:round; stroke-width:2; stroke-opacity:0.1; fill:none" points="
  250.028,1423.18 250.028,123.472 
  "/>
<polyline clip-path="url(#clip222)" style="stroke:#000000; stroke-linecap:round; stroke-linejoin:round; stroke-width:2; stroke-opacity:0.1; fill:none" points="
  550.418,1423.18 550.418,123.472 
  "/>
<polyline clip-path="url(#clip222)" style="stroke:#000000; stroke-linecap:round; stroke-linejoin:round; stroke-width:2; stroke-opacity:0.1; fill:none" points="
  850.808,1423.18 850.808,123.472 
  "/>
<polyline clip-path="url(#clip222)" style="stroke:#000000; stroke-linecap:round; stroke-linejoin:round; stroke-width:2; stroke-opacity:0.1; fill:none" points="
  1151.2,1423.18 1151.2,123.472 
  "/>
<polyline clip-path="url(#clip222)" style="stroke:#000000; stroke-linecap:round; stroke-linejoin:round; stroke-width:2; stroke-opacity:0.1; fill:none" points="
  1451.59,1423.18 1451.59,123.472 
  "/>
<polyline clip-path="url(#clip222)" style="stroke:#000000; stroke-linecap:round; stroke-linejoin:round; stroke-width:2; stroke-opacity:0.1; fill:none" points="
  1751.98,1423.18 1751.98,123.472 
  "/>
<polyline clip-path="url(#clip222)" style="stroke:#000000; stroke-linecap:round; stroke-linejoin:round; stroke-width:2; stroke-opacity:0.1; fill:none" points="
  2052.37,1423.18 2052.37,123.472 
  "/>
<polyline clip-path="url(#clip222)" style="stroke:#000000; stroke-linecap:round; stroke-linejoin:round; stroke-width:2; stroke-opacity:0.1; fill:none" points="
  2352.76,1423.18 2352.76,123.472 
  "/>
<polyline clip-path="url(#clip220)" style="stroke:#000000; stroke-linecap:round; stroke-linejoin:round; stroke-width:4; stroke-opacity:1; fill:none" points="
  250.028,1423.18 2352.76,1423.18 
  "/>
<polyline clip-path="url(#clip220)" style="stroke:#000000; stroke-linecap:round; stroke-linejoin:round; stroke-width:4; stroke-opacity:1; fill:none" points="
  250.028,1423.18 250.028,1404.28 
  "/>
<polyline clip-path="url(#clip220)" style="stroke:#000000; stroke-linecap:round; stroke-linejoin:round; stroke-width:4; stroke-opacity:1; fill:none" points="
  550.418,1423.18 550.418,1404.28 
  "/>
<polyline clip-path="url(#clip220)" style="stroke:#000000; stroke-linecap:round; stroke-linejoin:round; stroke-width:4; stroke-opacity:1; fill:none" points="
  850.808,1423.18 850.808,1404.28 
  "/>
<polyline clip-path="url(#clip220)" style="stroke:#000000; stroke-linecap:round; stroke-linejoin:round; stroke-width:4; stroke-opacity:1; fill:none" points="
  1151.2,1423.18 1151.2,1404.28 
  "/>
<polyline clip-path="url(#clip220)" style="stroke:#000000; stroke-linecap:round; stroke-linejoin:round; stroke-width:4; stroke-opacity:1; fill:none" points="
  1451.59,1423.18 1451.59,1404.28 
  "/>
<polyline clip-path="url(#clip220)" style="stroke:#000000; stroke-linecap:round; stroke-linejoin:round; stroke-width:4; stroke-opacity:1; fill:none" points="
  1751.98,1423.18 1751.98,1404.28 
  "/>
<polyline clip-path="url(#clip220)" style="stroke:#000000; stroke-linecap:round; stroke-linejoin:round; stroke-width:4; stroke-opacity:1; fill:none" points="
  2052.37,1423.18 2052.37,1404.28 
  "/>
<polyline clip-path="url(#clip220)" style="stroke:#000000; stroke-linecap:round; stroke-linejoin:round; stroke-width:4; stroke-opacity:1; fill:none" points="
  2352.76,1423.18 2352.76,1404.28 
  "/>
<path clip-path="url(#clip220)" d="M250.028 1454.1 Q246.417 1454.1 244.588 1457.66 Q242.783 1461.2 242.783 1468.33 Q242.783 1475.44 244.588 1479.01 Q246.417 1482.55 250.028 1482.55 Q253.662 1482.55 255.468 1479.01 Q257.297 1475.44 257.297 1468.33 Q257.297 1461.2 255.468 1457.66 Q253.662 1454.1 250.028 1454.1 M250.028 1450.39 Q255.838 1450.39 258.894 1455 Q261.973 1459.58 261.973 1468.33 Q261.973 1477.06 258.894 1481.67 Q255.838 1486.25 250.028 1486.25 Q244.218 1486.25 241.139 1481.67 Q238.084 1477.06 238.084 1468.33 Q238.084 1459.58 241.139 1455 Q244.218 1450.39 250.028 1450.39 Z" fill="#000000" fill-rule="evenodd" fill-opacity="1" /><path clip-path="url(#clip220)" d="M540.696 1451.02 L559.052 1451.02 L559.052 1454.96 L544.978 1454.96 L544.978 1463.43 Q545.997 1463.08 547.015 1462.92 Q548.034 1462.73 549.052 1462.73 Q554.839 1462.73 558.219 1465.9 Q561.598 1469.08 561.598 1474.49 Q561.598 1480.07 558.126 1483.17 Q554.654 1486.25 548.334 1486.25 Q546.159 1486.25 543.89 1485.88 Q541.645 1485.51 539.237 1484.77 L539.237 1480.07 Q541.321 1481.2 543.543 1481.76 Q545.765 1482.32 548.242 1482.32 Q552.247 1482.32 554.584 1480.21 Q556.922 1478.1 556.922 1474.49 Q556.922 1470.88 554.584 1468.77 Q552.247 1466.67 548.242 1466.67 Q546.367 1466.67 544.492 1467.08 Q542.64 1467.5 540.696 1468.38 L540.696 1451.02 Z" fill="#000000" fill-rule="evenodd" fill-opacity="1" /><path clip-path="url(#clip220)" d="M825.495 1481.64 L833.134 1481.64 L833.134 1455.28 L824.824 1456.95 L824.824 1452.69 L833.088 1451.02 L837.764 1451.02 L837.764 1481.64 L845.402 1481.64 L845.402 1485.58 L825.495 1485.58 L825.495 1481.64 Z" fill="#000000" fill-rule="evenodd" fill-opacity="1" /><path clip-path="url(#clip220)" d="M864.847 1454.1 Q861.236 1454.1 859.407 1457.66 Q857.601 1461.2 857.601 1468.33 Q857.601 1475.44 859.407 1479.01 Q861.236 1482.55 864.847 1482.55 Q868.481 1482.55 870.287 1479.01 Q872.115 1475.44 872.115 1468.33 Q872.115 1461.2 870.287 1457.66 Q868.481 1454.1 864.847 1454.1 M864.847 1450.39 Q870.657 1450.39 873.712 1455 Q876.791 1459.58 876.791 1468.33 Q876.791 1477.06 873.712 1481.67 Q870.657 1486.25 864.847 1486.25 Q859.037 1486.25 855.958 1481.67 Q852.902 1477.06 852.902 1468.33 Q852.902 1459.58 855.958 1455 Q859.037 1450.39 864.847 1450.39 Z" fill="#000000" fill-rule="evenodd" fill-opacity="1" /><path clip-path="url(#clip220)" d="M1126.38 1481.64 L1134.02 1481.64 L1134.02 1455.28 L1125.71 1456.95 L1125.71 1452.69 L1133.98 1451.02 L1138.65 1451.02 L1138.65 1481.64 L1146.29 1481.64 L1146.29 1485.58 L1126.38 1485.58 L1126.38 1481.64 Z" fill="#000000" fill-rule="evenodd" fill-opacity="1" /><path clip-path="url(#clip220)" d="M1155.78 1451.02 L1174.14 1451.02 L1174.14 1454.96 L1160.06 1454.96 L1160.06 1463.43 Q1161.08 1463.08 1162.1 1462.92 Q1163.12 1462.73 1164.14 1462.73 Q1169.92 1462.73 1173.3 1465.9 Q1176.68 1469.08 1176.68 1474.49 Q1176.68 1480.07 1173.21 1483.17 Q1169.74 1486.25 1163.42 1486.25 Q1161.24 1486.25 1158.97 1485.88 Q1156.73 1485.51 1154.32 1484.77 L1154.32 1480.07 Q1156.41 1481.2 1158.63 1481.76 Q1160.85 1482.32 1163.33 1482.32 Q1167.33 1482.32 1169.67 1480.21 Q1172.01 1478.1 1172.01 1474.49 Q1172.01 1470.88 1169.67 1468.77 Q1167.33 1466.67 1163.33 1466.67 Q1161.45 1466.67 1159.58 1467.08 Q1157.72 1467.5 1155.78 1468.38 L1155.78 1451.02 Z" fill="#000000" fill-rule="evenodd" fill-opacity="1" /><path clip-path="url(#clip220)" d="M1430.36 1481.64 L1446.68 1481.64 L1446.68 1485.58 L1424.74 1485.58 L1424.74 1481.64 Q1427.4 1478.89 1431.98 1474.26 Q1436.59 1469.61 1437.77 1468.27 Q1440.01 1465.74 1440.89 1464.01 Q1441.8 1462.25 1441.8 1460.56 Q1441.8 1457.8 1439.85 1456.07 Q1437.93 1454.33 1434.83 1454.33 Q1432.63 1454.33 1430.17 1455.09 Q1427.74 1455.86 1424.97 1457.41 L1424.97 1452.69 Q1427.79 1451.55 1430.24 1450.97 Q1432.7 1450.39 1434.74 1450.39 Q1440.11 1450.39 1443.3 1453.08 Q1446.49 1455.77 1446.49 1460.26 Q1446.49 1462.39 1445.68 1464.31 Q1444.9 1466.2 1442.79 1468.8 Q1442.21 1469.47 1439.11 1472.69 Q1436.01 1475.88 1430.36 1481.64 Z" fill="#000000" fill-rule="evenodd" fill-opacity="1" /><path clip-path="url(#clip220)" d="M1466.49 1454.1 Q1462.88 1454.1 1461.05 1457.66 Q1459.25 1461.2 1459.25 1468.33 Q1459.25 1475.44 1461.05 1479.01 Q1462.88 1482.55 1466.49 1482.55 Q1470.13 1482.55 1471.93 1479.01 Q1473.76 1475.44 1473.76 1468.33 Q1473.76 1461.2 1471.93 1457.66 Q1470.13 1454.1 1466.49 1454.1 M1466.49 1450.39 Q1472.3 1450.39 1475.36 1455 Q1478.44 1459.58 1478.44 1468.33 Q1478.44 1477.06 1475.36 1481.67 Q1472.3 1486.25 1466.49 1486.25 Q1460.68 1486.25 1457.61 1481.67 Q1454.55 1477.06 1454.55 1468.33 Q1454.55 1459.58 1457.61 1455 Q1460.68 1450.39 1466.49 1450.39 Z" fill="#000000" fill-rule="evenodd" fill-opacity="1" /><path clip-path="url(#clip220)" d="M1731.25 1481.64 L1747.57 1481.64 L1747.57 1485.58 L1725.62 1485.58 L1725.62 1481.64 Q1728.28 1478.89 1732.87 1474.26 Q1737.47 1469.61 1738.65 1468.27 Q1740.9 1465.74 1741.78 1464.01 Q1742.68 1462.25 1742.68 1460.56 Q1742.68 1457.8 1740.74 1456.07 Q1738.82 1454.33 1735.72 1454.33 Q1733.52 1454.33 1731.06 1455.09 Q1728.63 1455.86 1725.85 1457.41 L1725.85 1452.69 Q1728.68 1451.55 1731.13 1450.97 Q1733.59 1450.39 1735.62 1450.39 Q1740.99 1450.39 1744.19 1453.08 Q1747.38 1455.77 1747.38 1460.26 Q1747.38 1462.39 1746.57 1464.31 Q1745.78 1466.2 1743.68 1468.8 Q1743.1 1469.47 1740 1472.69 Q1736.9 1475.88 1731.25 1481.64 Z" fill="#000000" fill-rule="evenodd" fill-opacity="1" /><path clip-path="url(#clip220)" d="M1757.43 1451.02 L1775.78 1451.02 L1775.78 1454.96 L1761.71 1454.96 L1761.71 1463.43 Q1762.73 1463.08 1763.75 1462.92 Q1764.77 1462.73 1765.78 1462.73 Q1771.57 1462.73 1774.95 1465.9 Q1778.33 1469.08 1778.33 1474.49 Q1778.33 1480.07 1774.86 1483.17 Q1771.39 1486.25 1765.07 1486.25 Q1762.89 1486.25 1760.62 1485.88 Q1758.38 1485.51 1755.97 1484.77 L1755.97 1480.07 Q1758.05 1481.2 1760.28 1481.76 Q1762.5 1482.32 1764.97 1482.32 Q1768.98 1482.32 1771.32 1480.21 Q1773.65 1478.1 1773.65 1474.49 Q1773.65 1470.88 1771.32 1468.77 Q1768.98 1466.67 1764.97 1466.67 Q1763.1 1466.67 1761.22 1467.08 Q1759.37 1467.5 1757.43 1468.38 L1757.43 1451.02 Z" fill="#000000" fill-rule="evenodd" fill-opacity="1" /><path clip-path="url(#clip220)" d="M2041.21 1466.95 Q2044.57 1467.66 2046.44 1469.93 Q2048.34 1472.2 2048.34 1475.53 Q2048.34 1480.65 2044.82 1483.45 Q2041.3 1486.25 2034.82 1486.25 Q2032.64 1486.25 2030.33 1485.81 Q2028.04 1485.39 2025.58 1484.54 L2025.58 1480.02 Q2027.53 1481.16 2029.84 1481.74 Q2032.16 1482.32 2034.68 1482.32 Q2039.08 1482.32 2041.37 1480.58 Q2043.69 1478.84 2043.69 1475.53 Q2043.69 1472.48 2041.53 1470.77 Q2039.4 1469.03 2035.58 1469.03 L2031.56 1469.03 L2031.56 1465.19 L2035.77 1465.19 Q2039.22 1465.19 2041.05 1463.82 Q2042.88 1462.43 2042.88 1459.84 Q2042.88 1457.18 2040.98 1455.77 Q2039.1 1454.33 2035.58 1454.33 Q2033.66 1454.33 2031.46 1454.75 Q2029.26 1455.16 2026.63 1456.04 L2026.63 1451.88 Q2029.29 1451.14 2031.6 1450.77 Q2033.94 1450.39 2036 1450.39 Q2041.32 1450.39 2044.43 1452.83 Q2047.53 1455.23 2047.53 1459.35 Q2047.53 1462.22 2045.88 1464.21 Q2044.24 1466.18 2041.21 1466.95 Z" fill="#000000" fill-rule="evenodd" fill-opacity="1" /><path clip-path="url(#clip220)" d="M2067.2 1454.1 Q2063.59 1454.1 2061.76 1457.66 Q2059.96 1461.2 2059.96 1468.33 Q2059.96 1475.44 2061.76 1479.01 Q2063.59 1482.55 2067.2 1482.55 Q2070.84 1482.55 2072.64 1479.01 Q2074.47 1475.44 2074.47 1468.33 Q2074.47 1461.2 2072.64 1457.66 Q2070.84 1454.1 2067.2 1454.1 M2067.2 1450.39 Q2073.01 1450.39 2076.07 1455 Q2079.15 1459.58 2079.15 1468.33 Q2079.15 1477.06 2076.07 1481.67 Q2073.01 1486.25 2067.2 1486.25 Q2061.39 1486.25 2058.32 1481.67 Q2055.26 1477.06 2055.26 1468.33 Q2055.26 1459.58 2058.32 1455 Q2061.39 1450.39 2067.2 1450.39 Z" fill="#000000" fill-rule="evenodd" fill-opacity="1" /><path clip-path="url(#clip220)" d="M2342.1 1466.95 Q2345.45 1467.66 2347.33 1469.93 Q2349.23 1472.2 2349.23 1475.53 Q2349.23 1480.65 2345.71 1483.45 Q2342.19 1486.25 2335.71 1486.25 Q2333.53 1486.25 2331.22 1485.81 Q2328.93 1485.39 2326.47 1484.54 L2326.47 1480.02 Q2328.42 1481.16 2330.73 1481.74 Q2333.05 1482.32 2335.57 1482.32 Q2339.97 1482.32 2342.26 1480.58 Q2344.57 1478.84 2344.57 1475.53 Q2344.57 1472.48 2342.42 1470.77 Q2340.29 1469.03 2336.47 1469.03 L2332.44 1469.03 L2332.44 1465.19 L2336.66 1465.19 Q2340.11 1465.19 2341.93 1463.82 Q2343.76 1462.43 2343.76 1459.84 Q2343.76 1457.18 2341.86 1455.77 Q2339.99 1454.33 2336.47 1454.33 Q2334.55 1454.33 2332.35 1454.75 Q2330.15 1455.16 2327.51 1456.04 L2327.51 1451.88 Q2330.18 1451.14 2332.49 1450.77 Q2334.83 1450.39 2336.89 1450.39 Q2342.21 1450.39 2345.31 1452.83 Q2348.42 1455.23 2348.42 1459.35 Q2348.42 1462.22 2346.77 1464.21 Q2345.13 1466.18 2342.1 1466.95 Z" fill="#000000" fill-rule="evenodd" fill-opacity="1" /><path clip-path="url(#clip220)" d="M2358.14 1451.02 L2376.49 1451.02 L2376.49 1454.96 L2362.42 1454.96 L2362.42 1463.43 Q2363.44 1463.08 2364.46 1462.92 Q2365.48 1462.73 2366.49 1462.73 Q2372.28 1462.73 2375.66 1465.9 Q2379.04 1469.08 2379.04 1474.49 Q2379.04 1480.07 2375.57 1483.17 Q2372.1 1486.25 2365.78 1486.25 Q2363.6 1486.25 2361.33 1485.88 Q2359.09 1485.51 2356.68 1484.77 L2356.68 1480.07 Q2358.76 1481.2 2360.99 1481.76 Q2363.21 1482.32 2365.68 1482.32 Q2369.69 1482.32 2372.03 1480.21 Q2374.36 1478.1 2374.36 1474.49 Q2374.36 1470.88 2372.03 1468.77 Q2369.69 1466.67 2365.68 1466.67 Q2363.81 1466.67 2361.93 1467.08 Q2360.08 1467.5 2358.14 1468.38 L2358.14 1451.02 Z" fill="#000000" fill-rule="evenodd" fill-opacity="1" /><path clip-path="url(#clip220)" d="M1130.27 1522.08 L1130.27 1528.35 Q1126.61 1526.6 1123.36 1525.74 Q1120.11 1524.88 1117.09 1524.88 Q1111.84 1524.88 1108.97 1526.92 Q1106.14 1528.96 1106.14 1532.71 Q1106.14 1535.87 1108.02 1537.49 Q1109.93 1539.08 1115.21 1540.07 L1119.09 1540.86 Q1126.29 1542.23 1129.69 1545.7 Q1133.13 1549.14 1133.13 1554.93 Q1133.13 1561.84 1128.48 1565.4 Q1123.87 1568.97 1114.92 1568.97 Q1111.55 1568.97 1107.73 1568.2 Q1103.94 1567.44 1099.87 1565.94 L1099.87 1559.32 Q1103.78 1561.52 1107.54 1562.63 Q1111.3 1563.75 1114.92 1563.75 Q1120.43 1563.75 1123.42 1561.58 Q1126.41 1559.42 1126.41 1555.41 Q1126.41 1551.91 1124.25 1549.93 Q1122.12 1547.96 1117.22 1546.97 L1113.3 1546.21 Q1106.11 1544.78 1102.89 1541.72 Q1099.68 1538.67 1099.68 1533.22 Q1099.68 1526.92 1104.1 1523.29 Q1108.56 1519.66 1116.36 1519.66 Q1119.7 1519.66 1123.17 1520.27 Q1126.64 1520.87 1130.27 1522.08 Z" fill="#000000" fill-rule="evenodd" fill-opacity="1" /><path clip-path="url(#clip220)" d="M1142.9 1532.4 L1148.76 1532.4 L1148.76 1568.04 L1142.9 1568.04 L1142.9 1532.4 M1142.9 1518.52 L1148.76 1518.52 L1148.76 1525.93 L1142.9 1525.93 L1142.9 1518.52 Z" fill="#000000" fill-rule="evenodd" fill-opacity="1" /><path clip-path="url(#clip220)" d="M1166.81 1522.27 L1166.81 1532.4 L1178.87 1532.4 L1178.87 1536.95 L1166.81 1536.95 L1166.81 1556.3 Q1166.81 1560.66 1167.98 1561.9 Q1169.19 1563.14 1172.85 1563.14 L1178.87 1563.14 L1178.87 1568.04 L1172.85 1568.04 Q1166.07 1568.04 1163.49 1565.53 Q1160.92 1562.98 1160.92 1556.3 L1160.92 1536.95 L1156.62 1536.95 L1156.62 1532.4 L1160.92 1532.4 L1160.92 1522.27 L1166.81 1522.27 Z" fill="#000000" fill-rule="evenodd" fill-opacity="1" /><path clip-path="url(#clip220)" d="M1217.06 1548.76 L1217.06 1551.62 L1190.14 1551.62 Q1190.52 1557.67 1193.76 1560.85 Q1197.04 1564 1202.87 1564 Q1206.24 1564 1209.39 1563.17 Q1212.57 1562.35 1215.69 1560.69 L1215.69 1566.23 Q1212.54 1567.57 1209.23 1568.27 Q1205.92 1568.97 1202.52 1568.97 Q1193.99 1568.97 1188.99 1564 Q1184.02 1559.04 1184.02 1550.57 Q1184.02 1541.82 1188.73 1536.69 Q1193.48 1531.54 1201.5 1531.54 Q1208.69 1531.54 1212.86 1536.18 Q1217.06 1540.8 1217.06 1548.76 M1211.21 1547.04 Q1211.14 1542.23 1208.5 1539.37 Q1205.89 1536.5 1201.56 1536.5 Q1196.66 1536.5 1193.7 1539.27 Q1190.77 1542.04 1190.33 1547.07 L1211.21 1547.04 Z" fill="#000000" fill-rule="evenodd" fill-opacity="1" /><path clip-path="url(#clip220)" d="M1247.65 1520.52 L1256.31 1520.52 L1277.38 1560.28 L1277.38 1520.52 L1283.62 1520.52 L1283.62 1568.04 L1274.96 1568.04 L1253.89 1528.29 L1253.89 1568.04 L1247.65 1568.04 L1247.65 1520.52 Z" fill="#000000" fill-rule="evenodd" fill-opacity="1" /><path clip-path="url(#clip220)" d="M1295.55 1553.98 L1295.55 1532.4 L1301.41 1532.4 L1301.41 1553.75 Q1301.41 1558.81 1303.38 1561.36 Q1305.35 1563.87 1309.3 1563.87 Q1314.04 1563.87 1316.78 1560.85 Q1319.55 1557.83 1319.55 1552.61 L1319.55 1532.4 L1325.41 1532.4 L1325.41 1568.04 L1319.55 1568.04 L1319.55 1562.57 Q1317.42 1565.82 1314.58 1567.41 Q1311.78 1568.97 1308.06 1568.97 Q1301.92 1568.97 1298.73 1565.15 Q1295.55 1561.33 1295.55 1553.98 M1310.29 1531.54 L1310.29 1531.54 Z" fill="#000000" fill-rule="evenodd" fill-opacity="1" /><path clip-path="url(#clip220)" d="M1365.22 1539.24 Q1367.42 1535.29 1370.48 1533.41 Q1373.53 1531.54 1377.67 1531.54 Q1383.24 1531.54 1386.26 1535.45 Q1389.29 1539.33 1389.29 1546.53 L1389.29 1568.04 L1383.4 1568.04 L1383.4 1546.72 Q1383.4 1541.59 1381.58 1539.11 Q1379.77 1536.63 1376.05 1536.63 Q1371.49 1536.63 1368.85 1539.65 Q1366.21 1542.68 1366.21 1547.9 L1366.21 1568.04 L1360.32 1568.04 L1360.32 1546.72 Q1360.32 1541.56 1358.51 1539.11 Q1356.69 1536.63 1352.91 1536.63 Q1348.42 1536.63 1345.78 1539.68 Q1343.14 1542.71 1343.14 1547.9 L1343.14 1568.04 L1337.25 1568.04 L1337.25 1532.4 L1343.14 1532.4 L1343.14 1537.93 Q1345.14 1534.66 1347.94 1533.1 Q1350.74 1531.54 1354.59 1531.54 Q1358.48 1531.54 1361.18 1533.51 Q1363.92 1535.48 1365.22 1539.24 Z" fill="#000000" fill-rule="evenodd" fill-opacity="1" /><path clip-path="url(#clip220)" d="M1426.56 1550.25 Q1426.56 1543.79 1423.88 1540.13 Q1421.24 1536.44 1416.6 1536.44 Q1411.95 1536.44 1409.27 1540.13 Q1406.63 1543.79 1406.63 1550.25 Q1406.63 1556.71 1409.27 1560.4 Q1411.95 1564.07 1416.6 1564.07 Q1421.24 1564.07 1423.88 1560.4 Q1426.56 1556.71 1426.56 1550.25 M1406.63 1537.81 Q1408.48 1534.62 1411.28 1533.1 Q1414.11 1531.54 1418.03 1531.54 Q1424.52 1531.54 1428.56 1536.69 Q1432.64 1541.85 1432.64 1550.25 Q1432.64 1558.65 1428.56 1563.81 Q1424.52 1568.97 1418.03 1568.97 Q1414.11 1568.97 1411.28 1567.44 Q1408.48 1565.88 1406.63 1562.7 L1406.63 1568.04 L1400.74 1568.04 L1400.74 1518.52 L1406.63 1518.52 L1406.63 1537.81 Z" fill="#000000" fill-rule="evenodd" fill-opacity="1" /><path clip-path="url(#clip220)" d="M1472.84 1548.76 L1472.84 1551.62 L1445.91 1551.62 Q1446.29 1557.67 1449.54 1560.85 Q1452.82 1564 1458.64 1564 Q1462.01 1564 1465.17 1563.17 Q1468.35 1562.35 1471.47 1560.69 L1471.47 1566.23 Q1468.32 1567.57 1465.01 1568.27 Q1461.7 1568.97 1458.29 1568.97 Q1449.76 1568.97 1444.76 1564 Q1439.8 1559.04 1439.8 1550.57 Q1439.8 1541.82 1444.51 1536.69 Q1449.25 1531.54 1457.27 1531.54 Q1464.47 1531.54 1468.64 1536.18 Q1472.84 1540.8 1472.84 1548.76 M1466.98 1547.04 Q1466.92 1542.23 1464.27 1539.37 Q1461.66 1536.5 1457.34 1536.5 Q1452.43 1536.5 1449.47 1539.27 Q1446.55 1542.04 1446.1 1547.07 L1466.98 1547.04 Z" fill="#000000" fill-rule="evenodd" fill-opacity="1" /><path clip-path="url(#clip220)" d="M1503.11 1537.87 Q1502.12 1537.3 1500.94 1537.04 Q1499.8 1536.76 1498.39 1536.76 Q1493.43 1536.76 1490.76 1540 Q1488.11 1543.22 1488.11 1549.27 L1488.11 1568.04 L1482.23 1568.04 L1482.23 1532.4 L1488.11 1532.4 L1488.11 1537.93 Q1489.96 1534.69 1492.92 1533.13 Q1495.88 1531.54 1500.11 1531.54 Q1500.72 1531.54 1501.45 1531.63 Q1502.18 1531.7 1503.07 1531.85 L1503.11 1537.87 Z" fill="#000000" fill-rule="evenodd" fill-opacity="1" /><polyline clip-path="url(#clip222)" style="stroke:#000000; stroke-linecap:round; stroke-linejoin:round; stroke-width:2; stroke-opacity:0.1; fill:none" points="
  250.028,1423.18 2352.76,1423.18 
  "/>
<polyline clip-path="url(#clip222)" style="stroke:#000000; stroke-linecap:round; stroke-linejoin:round; stroke-width:2; stroke-opacity:0.1; fill:none" points="
  250.028,1336.53 2352.76,1336.53 
  "/>
<polyline clip-path="url(#clip222)" style="stroke:#000000; stroke-linecap:round; stroke-linejoin:round; stroke-width:2; stroke-opacity:0.1; fill:none" points="
  250.028,1249.89 2352.76,1249.89 
  "/>
<polyline clip-path="url(#clip222)" style="stroke:#000000; stroke-linecap:round; stroke-linejoin:round; stroke-width:2; stroke-opacity:0.1; fill:none" points="
  250.028,1163.24 2352.76,1163.24 
  "/>
<polyline clip-path="url(#clip222)" style="stroke:#000000; stroke-linecap:round; stroke-linejoin:round; stroke-width:2; stroke-opacity:0.1; fill:none" points="
  250.028,1076.59 2352.76,1076.59 
  "/>
<polyline clip-path="url(#clip222)" style="stroke:#000000; stroke-linecap:round; stroke-linejoin:round; stroke-width:2; stroke-opacity:0.1; fill:none" points="
  250.028,989.944 2352.76,989.944 
  "/>
<polyline clip-path="url(#clip222)" style="stroke:#000000; stroke-linecap:round; stroke-linejoin:round; stroke-width:2; stroke-opacity:0.1; fill:none" points="
  250.028,903.297 2352.76,903.297 
  "/>
<polyline clip-path="url(#clip222)" style="stroke:#000000; stroke-linecap:round; stroke-linejoin:round; stroke-width:2; stroke-opacity:0.1; fill:none" points="
  250.028,816.65 2352.76,816.65 
  "/>
<polyline clip-path="url(#clip222)" style="stroke:#000000; stroke-linecap:round; stroke-linejoin:round; stroke-width:2; stroke-opacity:0.1; fill:none" points="
  250.028,730.002 2352.76,730.002 
  "/>
<polyline clip-path="url(#clip222)" style="stroke:#000000; stroke-linecap:round; stroke-linejoin:round; stroke-width:2; stroke-opacity:0.1; fill:none" points="
  250.028,643.355 2352.76,643.355 
  "/>
<polyline clip-path="url(#clip222)" style="stroke:#000000; stroke-linecap:round; stroke-linejoin:round; stroke-width:2; stroke-opacity:0.1; fill:none" points="
  250.028,556.708 2352.76,556.708 
  "/>
<polyline clip-path="url(#clip222)" style="stroke:#000000; stroke-linecap:round; stroke-linejoin:round; stroke-width:2; stroke-opacity:0.1; fill:none" points="
  250.028,470.061 2352.76,470.061 
  "/>
<polyline clip-path="url(#clip222)" style="stroke:#000000; stroke-linecap:round; stroke-linejoin:round; stroke-width:2; stroke-opacity:0.1; fill:none" points="
  250.028,383.414 2352.76,383.414 
  "/>
<polyline clip-path="url(#clip222)" style="stroke:#000000; stroke-linecap:round; stroke-linejoin:round; stroke-width:2; stroke-opacity:0.1; fill:none" points="
  250.028,296.766 2352.76,296.766 
  "/>
<polyline clip-path="url(#clip222)" style="stroke:#000000; stroke-linecap:round; stroke-linejoin:round; stroke-width:2; stroke-opacity:0.1; fill:none" points="
  250.028,210.119 2352.76,210.119 
  "/>
<polyline clip-path="url(#clip222)" style="stroke:#000000; stroke-linecap:round; stroke-linejoin:round; stroke-width:2; stroke-opacity:0.1; fill:none" points="
  250.028,123.472 2352.76,123.472 
  "/>
<polyline clip-path="url(#clip220)" style="stroke:#000000; stroke-linecap:round; stroke-linejoin:round; stroke-width:4; stroke-opacity:1; fill:none" points="
  250.028,1423.18 250.028,123.472 
  "/>
<polyline clip-path="url(#clip220)" style="stroke:#000000; stroke-linecap:round; stroke-linejoin:round; stroke-width:4; stroke-opacity:1; fill:none" points="
  250.028,1423.18 268.926,1423.18 
  "/>
<polyline clip-path="url(#clip220)" style="stroke:#000000; stroke-linecap:round; stroke-linejoin:round; stroke-width:4; stroke-opacity:1; fill:none" points="
  250.028,1336.53 268.926,1336.53 
  "/>
<polyline clip-path="url(#clip220)" style="stroke:#000000; stroke-linecap:round; stroke-linejoin:round; stroke-width:4; stroke-opacity:1; fill:none" points="
  250.028,1249.89 268.926,1249.89 
  "/>
<polyline clip-path="url(#clip220)" style="stroke:#000000; stroke-linecap:round; stroke-linejoin:round; stroke-width:4; stroke-opacity:1; fill:none" points="
  250.028,1163.24 268.926,1163.24 
  "/>
<polyline clip-path="url(#clip220)" style="stroke:#000000; stroke-linecap:round; stroke-linejoin:round; stroke-width:4; stroke-opacity:1; fill:none" points="
  250.028,1076.59 268.926,1076.59 
  "/>
<polyline clip-path="url(#clip220)" style="stroke:#000000; stroke-linecap:round; stroke-linejoin:round; stroke-width:4; stroke-opacity:1; fill:none" points="
  250.028,989.944 268.926,989.944 
  "/>
<polyline clip-path="url(#clip220)" style="stroke:#000000; stroke-linecap:round; stroke-linejoin:round; stroke-width:4; stroke-opacity:1; fill:none" points="
  250.028,903.297 268.926,903.297 
  "/>
<polyline clip-path="url(#clip220)" style="stroke:#000000; stroke-linecap:round; stroke-linejoin:round; stroke-width:4; stroke-opacity:1; fill:none" points="
  250.028,816.65 268.926,816.65 
  "/>
<polyline clip-path="url(#clip220)" style="stroke:#000000; stroke-linecap:round; stroke-linejoin:round; stroke-width:4; stroke-opacity:1; fill:none" points="
  250.028,730.002 268.926,730.002 
  "/>
<polyline clip-path="url(#clip220)" style="stroke:#000000; stroke-linecap:round; stroke-linejoin:round; stroke-width:4; stroke-opacity:1; fill:none" points="
  250.028,643.355 268.926,643.355 
  "/>
<polyline clip-path="url(#clip220)" style="stroke:#000000; stroke-linecap:round; stroke-linejoin:round; stroke-width:4; stroke-opacity:1; fill:none" points="
  250.028,556.708 268.926,556.708 
  "/>
<polyline clip-path="url(#clip220)" style="stroke:#000000; stroke-linecap:round; stroke-linejoin:round; stroke-width:4; stroke-opacity:1; fill:none" points="
  250.028,470.061 268.926,470.061 
  "/>
<polyline clip-path="url(#clip220)" style="stroke:#000000; stroke-linecap:round; stroke-linejoin:round; stroke-width:4; stroke-opacity:1; fill:none" points="
  250.028,383.414 268.926,383.414 
  "/>
<polyline clip-path="url(#clip220)" style="stroke:#000000; stroke-linecap:round; stroke-linejoin:round; stroke-width:4; stroke-opacity:1; fill:none" points="
  250.028,296.766 268.926,296.766 
  "/>
<polyline clip-path="url(#clip220)" style="stroke:#000000; stroke-linecap:round; stroke-linejoin:round; stroke-width:4; stroke-opacity:1; fill:none" points="
  250.028,210.119 268.926,210.119 
  "/>
<polyline clip-path="url(#clip220)" style="stroke:#000000; stroke-linecap:round; stroke-linejoin:round; stroke-width:4; stroke-opacity:1; fill:none" points="
  250.028,123.472 268.926,123.472 
  "/>
<path clip-path="url(#clip220)" d="M126.205 1408.98 Q122.593 1408.98 120.765 1412.54 Q118.959 1416.08 118.959 1423.21 Q118.959 1430.32 120.765 1433.89 Q122.593 1437.43 126.205 1437.43 Q129.839 1437.43 131.644 1433.89 Q133.473 1430.32 133.473 1423.21 Q133.473 1416.08 131.644 1412.54 Q129.839 1408.98 126.205 1408.98 M126.205 1405.27 Q132.015 1405.27 135.07 1409.88 Q138.149 1414.46 138.149 1423.21 Q138.149 1431.94 135.07 1436.55 Q132.015 1441.13 126.205 1441.13 Q120.394 1441.13 117.316 1436.55 Q114.26 1431.94 114.26 1423.21 Q114.26 1414.46 117.316 1409.88 Q120.394 1405.27 126.205 1405.27 Z" fill="#000000" fill-rule="evenodd" fill-opacity="1" /><path clip-path="url(#clip220)" d="M146.366 1434.58 L151.251 1434.58 L151.251 1440.46 L146.366 1440.46 L146.366 1434.58 Z" fill="#000000" fill-rule="evenodd" fill-opacity="1" /><path clip-path="url(#clip220)" d="M175.602 1421.83 Q178.959 1422.54 180.834 1424.81 Q182.732 1427.08 182.732 1430.41 Q182.732 1435.53 179.214 1438.33 Q175.695 1441.13 169.214 1441.13 Q167.038 1441.13 164.723 1440.69 Q162.431 1440.27 159.978 1439.42 L159.978 1434.9 Q161.922 1436.04 164.237 1436.62 Q166.552 1437.2 169.075 1437.2 Q173.473 1437.2 175.764 1435.46 Q178.079 1433.72 178.079 1430.41 Q178.079 1427.36 175.926 1425.65 Q173.797 1423.91 169.977 1423.91 L165.95 1423.91 L165.95 1420.07 L170.163 1420.07 Q173.612 1420.07 175.44 1418.7 Q177.269 1417.31 177.269 1414.72 Q177.269 1412.06 175.371 1410.65 Q173.496 1409.21 169.977 1409.21 Q168.056 1409.21 165.857 1409.63 Q163.658 1410.04 161.019 1410.92 L161.019 1406.76 Q163.681 1406.02 165.996 1405.65 Q168.334 1405.27 170.394 1405.27 Q175.718 1405.27 178.82 1407.71 Q181.922 1410.11 181.922 1414.23 Q181.922 1417.1 180.278 1419.09 Q178.635 1421.06 175.602 1421.83 Z" fill="#000000" fill-rule="evenodd" fill-opacity="1" /><path clip-path="url(#clip220)" d="M204.445 1409.97 L192.639 1428.42 L204.445 1428.42 L204.445 1409.97 M203.218 1405.9 L209.098 1405.9 L209.098 1428.42 L214.028 1428.42 L214.028 1432.31 L209.098 1432.31 L209.098 1440.46 L204.445 1440.46 L204.445 1432.31 L188.843 1432.31 L188.843 1427.8 L203.218 1405.9 Z" fill="#000000" fill-rule="evenodd" fill-opacity="1" /><path clip-path="url(#clip220)" d="M127.686 1322.33 Q124.075 1322.33 122.246 1325.9 Q120.441 1329.44 120.441 1336.57 Q120.441 1343.67 122.246 1347.24 Q124.075 1350.78 127.686 1350.78 Q131.32 1350.78 133.126 1347.24 Q134.954 1343.67 134.954 1336.57 Q134.954 1329.44 133.126 1325.9 Q131.32 1322.33 127.686 1322.33 M127.686 1318.63 Q133.496 1318.63 136.552 1323.23 Q139.63 1327.82 139.63 1336.57 Q139.63 1345.29 136.552 1349.9 Q133.496 1354.48 127.686 1354.48 Q121.876 1354.48 118.797 1349.9 Q115.742 1345.29 115.742 1336.57 Q115.742 1327.82 118.797 1323.23 Q121.876 1318.63 127.686 1318.63 Z" fill="#000000" fill-rule="evenodd" fill-opacity="1" /><path clip-path="url(#clip220)" d="M147.848 1347.93 L152.732 1347.93 L152.732 1353.81 L147.848 1353.81 L147.848 1347.93 Z" fill="#000000" fill-rule="evenodd" fill-opacity="1" /><path clip-path="url(#clip220)" d="M177.084 1335.18 Q180.44 1335.9 182.315 1338.16 Q184.213 1340.43 184.213 1343.77 Q184.213 1348.88 180.695 1351.68 Q177.176 1354.48 170.695 1354.48 Q168.519 1354.48 166.204 1354.04 Q163.913 1353.63 161.459 1352.77 L161.459 1348.26 Q163.403 1349.39 165.718 1349.97 Q168.033 1350.55 170.556 1350.55 Q174.954 1350.55 177.246 1348.81 Q179.561 1347.08 179.561 1343.77 Q179.561 1340.71 177.408 1339 Q175.278 1337.26 171.459 1337.26 L167.431 1337.26 L167.431 1333.42 L171.644 1333.42 Q175.093 1333.42 176.922 1332.05 Q178.751 1330.66 178.751 1328.07 Q178.751 1325.41 176.852 1324 Q174.977 1322.56 171.459 1322.56 Q169.538 1322.56 167.339 1322.98 Q165.14 1323.4 162.501 1324.28 L162.501 1320.11 Q165.163 1319.37 167.477 1319 Q169.815 1318.63 171.876 1318.63 Q177.2 1318.63 180.301 1321.06 Q183.403 1323.47 183.403 1327.59 Q183.403 1330.46 181.76 1332.45 Q180.116 1334.41 177.084 1335.18 Z" fill="#000000" fill-rule="evenodd" fill-opacity="1" /><path clip-path="url(#clip220)" d="M193.125 1319.25 L211.482 1319.25 L211.482 1323.19 L197.408 1323.19 L197.408 1331.66 Q198.426 1331.31 199.445 1331.15 Q200.463 1330.97 201.482 1330.97 Q207.269 1330.97 210.649 1334.14 Q214.028 1337.31 214.028 1342.72 Q214.028 1348.3 210.556 1351.41 Q207.084 1354.48 200.764 1354.48 Q198.588 1354.48 196.32 1354.11 Q194.075 1353.74 191.667 1353 L191.667 1348.3 Q193.75 1349.44 195.973 1349.99 Q198.195 1350.55 200.672 1350.55 Q204.676 1350.55 207.014 1348.44 Q209.352 1346.34 209.352 1342.72 Q209.352 1339.11 207.014 1337.01 Q204.676 1334.9 200.672 1334.9 Q198.797 1334.9 196.922 1335.32 Q195.07 1335.73 193.125 1336.61 L193.125 1319.25 Z" fill="#000000" fill-rule="evenodd" fill-opacity="1" /><path clip-path="url(#clip220)" d="M126.529 1235.68 Q122.918 1235.68 121.089 1239.25 Q119.283 1242.79 119.283 1249.92 Q119.283 1257.03 121.089 1260.59 Q122.918 1264.13 126.529 1264.13 Q130.163 1264.13 131.968 1260.59 Q133.797 1257.03 133.797 1249.92 Q133.797 1242.79 131.968 1239.25 Q130.163 1235.68 126.529 1235.68 M126.529 1231.98 Q132.339 1231.98 135.394 1236.59 Q138.473 1241.17 138.473 1249.92 Q138.473 1258.65 135.394 1263.25 Q132.339 1267.84 126.529 1267.84 Q120.718 1267.84 117.64 1263.25 Q114.584 1258.65 114.584 1249.92 Q114.584 1241.17 117.64 1236.59 Q120.718 1231.98 126.529 1231.98 Z" fill="#000000" fill-rule="evenodd" fill-opacity="1" /><path clip-path="url(#clip220)" d="M146.691 1261.29 L151.575 1261.29 L151.575 1267.17 L146.691 1267.17 L146.691 1261.29 Z" fill="#000000" fill-rule="evenodd" fill-opacity="1" /><path clip-path="url(#clip220)" d="M175.926 1248.53 Q179.283 1249.25 181.158 1251.52 Q183.056 1253.79 183.056 1257.12 Q183.056 1262.23 179.538 1265.04 Q176.019 1267.84 169.538 1267.84 Q167.362 1267.84 165.047 1267.4 Q162.755 1266.98 160.302 1266.12 L160.302 1261.61 Q162.246 1262.74 164.561 1263.32 Q166.876 1263.9 169.399 1263.9 Q173.797 1263.9 176.089 1262.17 Q178.403 1260.43 178.403 1257.12 Q178.403 1254.06 176.251 1252.35 Q174.121 1250.61 170.302 1250.61 L166.274 1250.61 L166.274 1246.77 L170.487 1246.77 Q173.936 1246.77 175.764 1245.41 Q177.593 1244.02 177.593 1241.42 Q177.593 1238.76 175.695 1237.35 Q173.82 1235.92 170.302 1235.92 Q168.38 1235.92 166.181 1236.33 Q163.982 1236.75 161.343 1237.63 L161.343 1233.46 Q164.005 1232.72 166.32 1232.35 Q168.658 1231.98 170.718 1231.98 Q176.042 1231.98 179.144 1234.41 Q182.246 1236.82 182.246 1240.94 Q182.246 1243.81 180.602 1245.8 Q178.959 1247.77 175.926 1248.53 Z" fill="#000000" fill-rule="evenodd" fill-opacity="1" /><path clip-path="url(#clip220)" d="M202.5 1248.02 Q199.352 1248.02 197.5 1250.17 Q195.672 1252.33 195.672 1256.08 Q195.672 1259.8 197.5 1261.98 Q199.352 1264.13 202.5 1264.13 Q205.649 1264.13 207.477 1261.98 Q209.329 1259.8 209.329 1256.08 Q209.329 1252.33 207.477 1250.17 Q205.649 1248.02 202.5 1248.02 M211.783 1233.37 L211.783 1237.63 Q210.024 1236.8 208.218 1236.36 Q206.436 1235.92 204.676 1235.92 Q200.047 1235.92 197.593 1239.04 Q195.163 1242.17 194.815 1248.49 Q196.181 1246.47 198.241 1245.41 Q200.301 1244.32 202.778 1244.32 Q207.987 1244.32 210.996 1247.49 Q214.028 1250.64 214.028 1256.08 Q214.028 1261.4 210.88 1264.62 Q207.732 1267.84 202.5 1267.84 Q196.505 1267.84 193.334 1263.25 Q190.163 1258.65 190.163 1249.92 Q190.163 1241.73 194.051 1236.86 Q197.94 1231.98 204.491 1231.98 Q206.25 1231.98 208.033 1232.33 Q209.838 1232.67 211.783 1233.37 Z" fill="#000000" fill-rule="evenodd" fill-opacity="1" /><path clip-path="url(#clip220)" d="M127.593 1149.04 Q123.982 1149.04 122.154 1152.6 Q120.348 1156.14 120.348 1163.27 Q120.348 1170.38 122.154 1173.94 Q123.982 1177.49 127.593 1177.49 Q131.228 1177.49 133.033 1173.94 Q134.862 1170.38 134.862 1163.27 Q134.862 1156.14 133.033 1152.6 Q131.228 1149.04 127.593 1149.04 M127.593 1145.33 Q133.404 1145.33 136.459 1149.94 Q139.538 1154.52 139.538 1163.27 Q139.538 1172 136.459 1176.61 Q133.404 1181.19 127.593 1181.19 Q121.783 1181.19 118.705 1176.61 Q115.649 1172 115.649 1163.27 Q115.649 1154.52 118.705 1149.94 Q121.783 1145.33 127.593 1145.33 Z" fill="#000000" fill-rule="evenodd" fill-opacity="1" /><path clip-path="url(#clip220)" d="M147.755 1174.64 L152.64 1174.64 L152.64 1180.52 L147.755 1180.52 L147.755 1174.64 Z" fill="#000000" fill-rule="evenodd" fill-opacity="1" /><path clip-path="url(#clip220)" d="M176.991 1161.88 Q180.348 1162.6 182.223 1164.87 Q184.121 1167.14 184.121 1170.47 Q184.121 1175.59 180.602 1178.39 Q177.084 1181.19 170.602 1181.19 Q168.427 1181.19 166.112 1180.75 Q163.82 1180.33 161.366 1179.48 L161.366 1174.96 Q163.311 1176.1 165.626 1176.68 Q167.94 1177.25 170.464 1177.25 Q174.862 1177.25 177.153 1175.52 Q179.468 1173.78 179.468 1170.47 Q179.468 1167.42 177.315 1165.7 Q175.186 1163.97 171.366 1163.97 L167.339 1163.97 L167.339 1160.12 L171.552 1160.12 Q175.001 1160.12 176.829 1158.76 Q178.658 1157.37 178.658 1154.78 Q178.658 1152.12 176.76 1150.7 Q174.885 1149.27 171.366 1149.27 Q169.445 1149.27 167.246 1149.69 Q165.047 1150.1 162.408 1150.98 L162.408 1146.81 Q165.07 1146.07 167.385 1145.7 Q169.723 1145.33 171.783 1145.33 Q177.107 1145.33 180.209 1147.76 Q183.311 1150.17 183.311 1154.29 Q183.311 1157.16 181.667 1159.15 Q180.024 1161.12 176.991 1161.88 Z" fill="#000000" fill-rule="evenodd" fill-opacity="1" /><path clip-path="url(#clip220)" d="M191.806 1145.96 L214.028 1145.96 L214.028 1147.95 L201.482 1180.52 L196.598 1180.52 L208.403 1149.89 L191.806 1149.89 L191.806 1145.96 Z" fill="#000000" fill-rule="evenodd" fill-opacity="1" /><path clip-path="url(#clip220)" d="M126.783 1062.39 Q123.172 1062.39 121.343 1065.95 Q119.538 1069.5 119.538 1076.63 Q119.538 1083.73 121.343 1087.3 Q123.172 1090.84 126.783 1090.84 Q130.417 1090.84 132.223 1087.3 Q134.052 1083.73 134.052 1076.63 Q134.052 1069.5 132.223 1065.95 Q130.417 1062.39 126.783 1062.39 M126.783 1058.69 Q132.593 1058.69 135.649 1063.29 Q138.728 1067.88 138.728 1076.63 Q138.728 1085.35 135.649 1089.96 Q132.593 1094.54 126.783 1094.54 Q120.973 1094.54 117.894 1089.96 Q114.839 1085.35 114.839 1076.63 Q114.839 1067.88 117.894 1063.29 Q120.973 1058.69 126.783 1058.69 Z" fill="#000000" fill-rule="evenodd" fill-opacity="1" /><path clip-path="url(#clip220)" d="M146.945 1087.99 L151.829 1087.99 L151.829 1093.87 L146.945 1093.87 L146.945 1087.99 Z" fill="#000000" fill-rule="evenodd" fill-opacity="1" /><path clip-path="url(#clip220)" d="M176.181 1075.24 Q179.538 1075.95 181.413 1078.22 Q183.311 1080.49 183.311 1083.82 Q183.311 1088.94 179.792 1091.74 Q176.274 1094.54 169.792 1094.54 Q167.616 1094.54 165.302 1094.1 Q163.01 1093.69 160.556 1092.83 L160.556 1088.32 Q162.501 1089.45 164.815 1090.03 Q167.13 1090.61 169.653 1090.61 Q174.052 1090.61 176.343 1088.87 Q178.658 1087.14 178.658 1083.82 Q178.658 1080.77 176.505 1079.06 Q174.376 1077.32 170.556 1077.32 L166.528 1077.32 L166.528 1073.48 L170.741 1073.48 Q174.19 1073.48 176.019 1072.11 Q177.848 1070.72 177.848 1068.13 Q177.848 1065.47 175.95 1064.06 Q174.075 1062.62 170.556 1062.62 Q168.635 1062.62 166.436 1063.04 Q164.237 1063.45 161.598 1064.33 L161.598 1060.17 Q164.26 1059.43 166.575 1059.06 Q168.913 1058.69 170.973 1058.69 Q176.297 1058.69 179.399 1061.12 Q182.501 1063.52 182.501 1067.64 Q182.501 1070.51 180.857 1072.51 Q179.214 1074.47 176.181 1075.24 Z" fill="#000000" fill-rule="evenodd" fill-opacity="1" /><path clip-path="url(#clip220)" d="M202.176 1077.46 Q198.843 1077.46 196.922 1079.24 Q195.024 1081.02 195.024 1084.15 Q195.024 1087.27 196.922 1089.06 Q198.843 1090.84 202.176 1090.84 Q205.51 1090.84 207.431 1089.06 Q209.352 1087.25 209.352 1084.15 Q209.352 1081.02 207.431 1079.24 Q205.533 1077.46 202.176 1077.46 M197.5 1075.47 Q194.491 1074.73 192.801 1072.67 Q191.135 1070.61 191.135 1067.64 Q191.135 1063.5 194.075 1061.09 Q197.037 1058.69 202.176 1058.69 Q207.338 1058.69 210.278 1061.09 Q213.218 1063.5 213.218 1067.64 Q213.218 1070.61 211.528 1072.67 Q209.861 1074.73 206.875 1075.47 Q210.255 1076.26 212.13 1078.55 Q214.028 1080.84 214.028 1084.15 Q214.028 1089.17 210.949 1091.86 Q207.894 1094.54 202.176 1094.54 Q196.459 1094.54 193.38 1091.86 Q190.325 1089.17 190.325 1084.15 Q190.325 1080.84 192.223 1078.55 Q194.121 1076.26 197.5 1075.47 M195.787 1068.08 Q195.787 1070.77 197.454 1072.27 Q199.144 1073.78 202.176 1073.78 Q205.186 1073.78 206.875 1072.27 Q208.588 1070.77 208.588 1068.08 Q208.588 1065.4 206.875 1063.89 Q205.186 1062.39 202.176 1062.39 Q199.144 1062.39 197.454 1063.89 Q195.787 1065.4 195.787 1068.08 Z" fill="#000000" fill-rule="evenodd" fill-opacity="1" /><path clip-path="url(#clip220)" d="M126.876 975.743 Q123.265 975.743 121.436 979.307 Q119.63 982.849 119.63 989.979 Q119.63 997.085 121.436 1000.65 Q123.265 1004.19 126.876 1004.19 Q130.51 1004.19 132.316 1000.65 Q134.144 997.085 134.144 989.979 Q134.144 982.849 132.316 979.307 Q130.51 975.743 126.876 975.743 M126.876 972.039 Q132.686 972.039 135.742 976.645 Q138.82 981.229 138.82 989.979 Q138.82 998.705 135.742 1003.31 Q132.686 1007.9 126.876 1007.9 Q121.066 1007.9 117.987 1003.31 Q114.931 998.705 114.931 989.979 Q114.931 981.229 117.987 976.645 Q121.066 972.039 126.876 972.039 Z" fill="#000000" fill-rule="evenodd" fill-opacity="1" /><path clip-path="url(#clip220)" d="M147.038 1001.34 L151.922 1001.34 L151.922 1007.22 L147.038 1007.22 L147.038 1001.34 Z" fill="#000000" fill-rule="evenodd" fill-opacity="1" /><path clip-path="url(#clip220)" d="M176.274 988.59 Q179.63 989.307 181.505 991.576 Q183.403 993.844 183.403 997.178 Q183.403 1002.29 179.885 1005.09 Q176.366 1007.9 169.885 1007.9 Q167.709 1007.9 165.394 1007.46 Q163.102 1007.04 160.649 1006.18 L160.649 1001.67 Q162.593 1002.8 164.908 1003.38 Q167.223 1003.96 169.746 1003.96 Q174.144 1003.96 176.436 1002.22 Q178.751 1000.49 178.751 997.178 Q178.751 994.122 176.598 992.409 Q174.468 990.673 170.649 990.673 L166.621 990.673 L166.621 986.831 L170.834 986.831 Q174.283 986.831 176.112 985.465 Q177.94 984.076 177.94 981.483 Q177.94 978.821 176.042 977.409 Q174.167 975.974 170.649 975.974 Q168.727 975.974 166.528 976.391 Q164.329 976.807 161.69 977.687 L161.69 973.52 Q164.352 972.78 166.667 972.409 Q169.005 972.039 171.065 972.039 Q176.389 972.039 179.491 974.469 Q182.593 976.877 182.593 980.997 Q182.593 983.868 180.95 985.858 Q179.306 987.826 176.274 988.59 Z" fill="#000000" fill-rule="evenodd" fill-opacity="1" /><path clip-path="url(#clip220)" d="M192.408 1006.51 L192.408 1002.25 Q194.167 1003.08 195.973 1003.52 Q197.778 1003.96 199.514 1003.96 Q204.144 1003.96 206.574 1000.86 Q209.028 997.733 209.375 991.391 Q208.033 993.381 205.973 994.446 Q203.912 995.511 201.412 995.511 Q196.227 995.511 193.195 992.386 Q190.186 989.238 190.186 983.798 Q190.186 978.474 193.334 975.257 Q196.482 972.039 201.713 972.039 Q207.709 972.039 210.857 976.645 Q214.028 981.229 214.028 989.979 Q214.028 998.15 210.139 1003.03 Q206.274 1007.9 199.723 1007.9 Q197.963 1007.9 196.158 1007.55 Q194.352 1007.2 192.408 1006.51 M201.713 991.854 Q204.862 991.854 206.69 989.701 Q208.542 987.548 208.542 983.798 Q208.542 980.071 206.69 977.919 Q204.862 975.743 201.713 975.743 Q198.565 975.743 196.713 977.919 Q194.885 980.071 194.885 983.798 Q194.885 987.548 196.713 989.701 Q198.565 991.854 201.713 991.854 Z" fill="#000000" fill-rule="evenodd" fill-opacity="1" /><path clip-path="url(#clip220)" d="M126.691 889.095 Q123.08 889.095 121.251 892.66 Q119.445 896.202 119.445 903.331 Q119.445 910.438 121.251 914.003 Q123.08 917.544 126.691 917.544 Q130.325 917.544 132.13 914.003 Q133.959 910.438 133.959 903.331 Q133.959 896.202 132.13 892.66 Q130.325 889.095 126.691 889.095 M126.691 885.392 Q132.501 885.392 135.556 889.998 Q138.635 894.582 138.635 903.331 Q138.635 912.058 135.556 916.665 Q132.501 921.248 126.691 921.248 Q120.88 921.248 117.802 916.665 Q114.746 912.058 114.746 903.331 Q114.746 894.582 117.802 889.998 Q120.88 885.392 126.691 885.392 Z" fill="#000000" fill-rule="evenodd" fill-opacity="1" /><path clip-path="url(#clip220)" d="M146.853 914.697 L151.737 914.697 L151.737 920.577 L146.853 920.577 L146.853 914.697 Z" fill="#000000" fill-rule="evenodd" fill-opacity="1" /><path clip-path="url(#clip220)" d="M174.769 890.091 L162.964 908.54 L174.769 908.54 L174.769 890.091 M173.542 886.017 L179.422 886.017 L179.422 908.54 L184.352 908.54 L184.352 912.429 L179.422 912.429 L179.422 920.577 L174.769 920.577 L174.769 912.429 L159.167 912.429 L159.167 907.915 L173.542 886.017 Z" fill="#000000" fill-rule="evenodd" fill-opacity="1" /><path clip-path="url(#clip220)" d="M202.084 889.095 Q198.473 889.095 196.644 892.66 Q194.838 896.202 194.838 903.331 Q194.838 910.438 196.644 914.003 Q198.473 917.544 202.084 917.544 Q205.718 917.544 207.524 914.003 Q209.352 910.438 209.352 903.331 Q209.352 896.202 207.524 892.66 Q205.718 889.095 202.084 889.095 M202.084 885.392 Q207.894 885.392 210.949 889.998 Q214.028 894.582 214.028 903.331 Q214.028 912.058 210.949 916.665 Q207.894 921.248 202.084 921.248 Q196.274 921.248 193.195 916.665 Q190.139 912.058 190.139 903.331 Q190.139 894.582 193.195 889.998 Q196.274 885.392 202.084 885.392 Z" fill="#000000" fill-rule="evenodd" fill-opacity="1" /><path clip-path="url(#clip220)" d="M127.917 802.448 Q124.306 802.448 122.478 806.013 Q120.672 809.555 120.672 816.684 Q120.672 823.791 122.478 827.356 Q124.306 830.897 127.917 830.897 Q131.552 830.897 133.357 827.356 Q135.186 823.791 135.186 816.684 Q135.186 809.555 133.357 806.013 Q131.552 802.448 127.917 802.448 M127.917 798.745 Q133.728 798.745 136.783 803.351 Q139.862 807.934 139.862 816.684 Q139.862 825.411 136.783 830.018 Q133.728 834.601 127.917 834.601 Q122.107 834.601 119.029 830.018 Q115.973 825.411 115.973 816.684 Q115.973 807.934 119.029 803.351 Q122.107 798.745 127.917 798.745 Z" fill="#000000" fill-rule="evenodd" fill-opacity="1" /><path clip-path="url(#clip220)" d="M148.079 828.05 L152.964 828.05 L152.964 833.93 L148.079 833.93 L148.079 828.05 Z" fill="#000000" fill-rule="evenodd" fill-opacity="1" /><path clip-path="url(#clip220)" d="M175.996 803.444 L164.19 821.893 L175.996 821.893 L175.996 803.444 M174.769 799.37 L180.649 799.37 L180.649 821.893 L185.579 821.893 L185.579 825.781 L180.649 825.781 L180.649 833.93 L175.996 833.93 L175.996 825.781 L160.394 825.781 L160.394 821.268 L174.769 799.37 Z" fill="#000000" fill-rule="evenodd" fill-opacity="1" /><path clip-path="url(#clip220)" d="M194.121 829.994 L201.76 829.994 L201.76 803.629 L193.45 805.295 L193.45 801.036 L201.713 799.37 L206.389 799.37 L206.389 829.994 L214.028 829.994 L214.028 833.93 L194.121 833.93 L194.121 829.994 Z" fill="#000000" fill-rule="evenodd" fill-opacity="1" /><path clip-path="url(#clip220)" d="M128.288 715.801 Q124.677 715.801 122.848 719.366 Q121.043 722.908 121.043 730.037 Q121.043 737.144 122.848 740.708 Q124.677 744.25 128.288 744.25 Q131.922 744.25 133.728 740.708 Q135.556 737.144 135.556 730.037 Q135.556 722.908 133.728 719.366 Q131.922 715.801 128.288 715.801 M128.288 712.097 Q134.098 712.097 137.154 716.704 Q140.232 721.287 140.232 730.037 Q140.232 738.764 137.154 743.37 Q134.098 747.954 128.288 747.954 Q122.478 747.954 119.399 743.37 Q116.343 738.764 116.343 730.037 Q116.343 721.287 119.399 716.704 Q122.478 712.097 128.288 712.097 Z" fill="#000000" fill-rule="evenodd" fill-opacity="1" /><path clip-path="url(#clip220)" d="M148.45 741.403 L153.334 741.403 L153.334 747.282 L148.45 747.282 L148.45 741.403 Z" fill="#000000" fill-rule="evenodd" fill-opacity="1" /><path clip-path="url(#clip220)" d="M176.366 716.796 L164.561 735.245 L176.366 735.245 L176.366 716.796 M175.139 712.722 L181.019 712.722 L181.019 735.245 L185.95 735.245 L185.95 739.134 L181.019 739.134 L181.019 747.282 L176.366 747.282 L176.366 739.134 L160.765 739.134 L160.765 734.62 L175.139 712.722 Z" fill="#000000" fill-rule="evenodd" fill-opacity="1" /><path clip-path="url(#clip220)" d="M197.709 743.347 L214.028 743.347 L214.028 747.282 L192.084 747.282 L192.084 743.347 Q194.746 740.593 199.329 735.963 Q203.936 731.31 205.116 729.968 Q207.362 727.445 208.241 725.708 Q209.144 723.949 209.144 722.259 Q209.144 719.505 207.199 717.769 Q205.278 716.033 202.176 716.033 Q199.977 716.033 197.524 716.796 Q195.093 717.56 192.315 719.111 L192.315 714.389 Q195.139 713.255 197.593 712.676 Q200.047 712.097 202.084 712.097 Q207.454 712.097 210.649 714.783 Q213.843 717.468 213.843 721.958 Q213.843 724.088 213.033 726.009 Q212.246 727.907 210.139 730.5 Q209.561 731.171 206.459 734.389 Q203.357 737.583 197.709 743.347 Z" fill="#000000" fill-rule="evenodd" fill-opacity="1" /><path clip-path="url(#clip220)" d="M127.339 629.154 Q123.728 629.154 121.899 632.719 Q120.093 636.26 120.093 643.39 Q120.093 650.496 121.899 654.061 Q123.728 657.603 127.339 657.603 Q130.973 657.603 132.779 654.061 Q134.607 650.496 134.607 643.39 Q134.607 636.26 132.779 632.719 Q130.973 629.154 127.339 629.154 M127.339 625.45 Q133.149 625.45 136.204 630.057 Q139.283 634.64 139.283 643.39 Q139.283 652.117 136.204 656.723 Q133.149 661.307 127.339 661.307 Q121.529 661.307 118.45 656.723 Q115.394 652.117 115.394 643.39 Q115.394 634.64 118.45 630.057 Q121.529 625.45 127.339 625.45 Z" fill="#000000" fill-rule="evenodd" fill-opacity="1" /><path clip-path="url(#clip220)" d="M147.501 654.756 L152.385 654.756 L152.385 660.635 L147.501 660.635 L147.501 654.756 Z" fill="#000000" fill-rule="evenodd" fill-opacity="1" /><path clip-path="url(#clip220)" d="M175.417 630.149 L163.612 648.598 L175.417 648.598 L175.417 630.149 M174.19 626.075 L180.07 626.075 L180.07 648.598 L185.001 648.598 L185.001 652.487 L180.07 652.487 L180.07 660.635 L175.417 660.635 L175.417 652.487 L159.815 652.487 L159.815 647.973 L174.19 626.075 Z" fill="#000000" fill-rule="evenodd" fill-opacity="1" /><path clip-path="url(#clip220)" d="M206.899 642.001 Q210.255 642.719 212.13 644.987 Q214.028 647.256 214.028 650.589 Q214.028 655.705 210.51 658.506 Q206.991 661.307 200.51 661.307 Q198.334 661.307 196.019 660.867 Q193.727 660.45 191.274 659.594 L191.274 655.08 Q193.218 656.214 195.533 656.793 Q197.848 657.371 200.371 657.371 Q204.769 657.371 207.061 655.635 Q209.375 653.899 209.375 650.589 Q209.375 647.533 207.223 645.82 Q205.093 644.084 201.274 644.084 L197.246 644.084 L197.246 640.242 L201.459 640.242 Q204.908 640.242 206.737 638.876 Q208.565 637.487 208.565 634.895 Q208.565 632.233 206.667 630.821 Q204.792 629.385 201.274 629.385 Q199.352 629.385 197.153 629.802 Q194.954 630.219 192.315 631.098 L192.315 626.932 Q194.977 626.191 197.292 625.821 Q199.63 625.45 201.69 625.45 Q207.014 625.45 210.116 627.881 Q213.218 630.288 213.218 634.409 Q213.218 637.279 211.574 639.27 Q209.931 641.237 206.899 642.001 Z" fill="#000000" fill-rule="evenodd" fill-opacity="1" /><path clip-path="url(#clip220)" d="M126.205 542.507 Q122.593 542.507 120.765 546.072 Q118.959 549.613 118.959 556.743 Q118.959 563.849 120.765 567.414 Q122.593 570.956 126.205 570.956 Q129.839 570.956 131.644 567.414 Q133.473 563.849 133.473 556.743 Q133.473 549.613 131.644 546.072 Q129.839 542.507 126.205 542.507 M126.205 538.803 Q132.015 538.803 135.07 543.409 Q138.149 547.993 138.149 556.743 Q138.149 565.47 135.07 570.076 Q132.015 574.659 126.205 574.659 Q120.394 574.659 117.316 570.076 Q114.26 565.47 114.26 556.743 Q114.26 547.993 117.316 543.409 Q120.394 538.803 126.205 538.803 Z" fill="#000000" fill-rule="evenodd" fill-opacity="1" /><path clip-path="url(#clip220)" d="M146.366 568.108 L151.251 568.108 L151.251 573.988 L146.366 573.988 L146.366 568.108 Z" fill="#000000" fill-rule="evenodd" fill-opacity="1" /><path clip-path="url(#clip220)" d="M174.283 543.502 L162.477 561.951 L174.283 561.951 L174.283 543.502 M173.056 539.428 L178.936 539.428 L178.936 561.951 L183.866 561.951 L183.866 565.84 L178.936 565.84 L178.936 573.988 L174.283 573.988 L174.283 565.84 L158.681 565.84 L158.681 561.326 L173.056 539.428 Z" fill="#000000" fill-rule="evenodd" fill-opacity="1" /><path clip-path="url(#clip220)" d="M204.445 543.502 L192.639 561.951 L204.445 561.951 L204.445 543.502 M203.218 539.428 L209.098 539.428 L209.098 561.951 L214.028 561.951 L214.028 565.84 L209.098 565.84 L209.098 573.988 L204.445 573.988 L204.445 565.84 L188.843 565.84 L188.843 561.326 L203.218 539.428 Z" fill="#000000" fill-rule="evenodd" fill-opacity="1" /><path clip-path="url(#clip220)" d="M127.686 455.86 Q124.075 455.86 122.246 459.424 Q120.441 462.966 120.441 470.096 Q120.441 477.202 122.246 480.767 Q124.075 484.308 127.686 484.308 Q131.32 484.308 133.126 480.767 Q134.954 477.202 134.954 470.096 Q134.954 462.966 133.126 459.424 Q131.32 455.86 127.686 455.86 M127.686 452.156 Q133.496 452.156 136.552 456.762 Q139.63 461.346 139.63 470.096 Q139.63 478.822 136.552 483.429 Q133.496 488.012 127.686 488.012 Q121.876 488.012 118.797 483.429 Q115.742 478.822 115.742 470.096 Q115.742 461.346 118.797 456.762 Q121.876 452.156 127.686 452.156 Z" fill="#000000" fill-rule="evenodd" fill-opacity="1" /><path clip-path="url(#clip220)" d="M147.848 481.461 L152.732 481.461 L152.732 487.341 L147.848 487.341 L147.848 481.461 Z" fill="#000000" fill-rule="evenodd" fill-opacity="1" /><path clip-path="url(#clip220)" d="M175.764 456.855 L163.959 475.304 L175.764 475.304 L175.764 456.855 M174.538 452.781 L180.417 452.781 L180.417 475.304 L185.348 475.304 L185.348 479.193 L180.417 479.193 L180.417 487.341 L175.764 487.341 L175.764 479.193 L160.163 479.193 L160.163 474.679 L174.538 452.781 Z" fill="#000000" fill-rule="evenodd" fill-opacity="1" /><path clip-path="url(#clip220)" d="M193.125 452.781 L211.482 452.781 L211.482 456.716 L197.408 456.716 L197.408 465.188 Q198.426 464.841 199.445 464.679 Q200.463 464.494 201.482 464.494 Q207.269 464.494 210.649 467.665 Q214.028 470.836 214.028 476.253 Q214.028 481.832 210.556 484.933 Q207.084 488.012 200.764 488.012 Q198.588 488.012 196.32 487.642 Q194.075 487.271 191.667 486.531 L191.667 481.832 Q193.75 482.966 195.973 483.521 Q198.195 484.077 200.672 484.077 Q204.676 484.077 207.014 481.971 Q209.352 479.864 209.352 476.253 Q209.352 472.642 207.014 470.535 Q204.676 468.429 200.672 468.429 Q198.797 468.429 196.922 468.846 Q195.07 469.262 193.125 470.142 L193.125 452.781 Z" fill="#000000" fill-rule="evenodd" fill-opacity="1" /><path clip-path="url(#clip220)" d="M126.529 369.212 Q122.918 369.212 121.089 372.777 Q119.283 376.319 119.283 383.448 Q119.283 390.555 121.089 394.12 Q122.918 397.661 126.529 397.661 Q130.163 397.661 131.968 394.12 Q133.797 390.555 133.797 383.448 Q133.797 376.319 131.968 372.777 Q130.163 369.212 126.529 369.212 M126.529 365.509 Q132.339 365.509 135.394 370.115 Q138.473 374.698 138.473 383.448 Q138.473 392.175 135.394 396.782 Q132.339 401.365 126.529 401.365 Q120.718 401.365 117.64 396.782 Q114.584 392.175 114.584 383.448 Q114.584 374.698 117.64 370.115 Q120.718 365.509 126.529 365.509 Z" fill="#000000" fill-rule="evenodd" fill-opacity="1" /><path clip-path="url(#clip220)" d="M146.691 394.814 L151.575 394.814 L151.575 400.694 L146.691 400.694 L146.691 394.814 Z" fill="#000000" fill-rule="evenodd" fill-opacity="1" /><path clip-path="url(#clip220)" d="M174.607 370.208 L162.802 388.657 L174.607 388.657 L174.607 370.208 M173.38 366.134 L179.26 366.134 L179.26 388.657 L184.19 388.657 L184.19 392.546 L179.26 392.546 L179.26 400.694 L174.607 400.694 L174.607 392.546 L159.005 392.546 L159.005 388.032 L173.38 366.134 Z" fill="#000000" fill-rule="evenodd" fill-opacity="1" /><path clip-path="url(#clip220)" d="M202.5 381.55 Q199.352 381.55 197.5 383.703 Q195.672 385.856 195.672 389.606 Q195.672 393.333 197.5 395.509 Q199.352 397.661 202.5 397.661 Q205.649 397.661 207.477 395.509 Q209.329 393.333 209.329 389.606 Q209.329 385.856 207.477 383.703 Q205.649 381.55 202.5 381.55 M211.783 366.898 L211.783 371.157 Q210.024 370.323 208.218 369.884 Q206.436 369.444 204.676 369.444 Q200.047 369.444 197.593 372.569 Q195.163 375.694 194.815 382.013 Q196.181 379.999 198.241 378.935 Q200.301 377.847 202.778 377.847 Q207.987 377.847 210.996 381.018 Q214.028 384.166 214.028 389.606 Q214.028 394.93 210.88 398.147 Q207.732 401.365 202.5 401.365 Q196.505 401.365 193.334 396.782 Q190.163 392.175 190.163 383.448 Q190.163 375.254 194.051 370.393 Q197.94 365.509 204.491 365.509 Q206.25 365.509 208.033 365.856 Q209.838 366.203 211.783 366.898 Z" fill="#000000" fill-rule="evenodd" fill-opacity="1" /><path clip-path="url(#clip220)" d="M127.593 282.565 Q123.982 282.565 122.154 286.13 Q120.348 289.672 120.348 296.801 Q120.348 303.908 122.154 307.472 Q123.982 311.014 127.593 311.014 Q131.228 311.014 133.033 307.472 Q134.862 303.908 134.862 296.801 Q134.862 289.672 133.033 286.13 Q131.228 282.565 127.593 282.565 M127.593 278.861 Q133.404 278.861 136.459 283.468 Q139.538 288.051 139.538 296.801 Q139.538 305.528 136.459 310.134 Q133.404 314.718 127.593 314.718 Q121.783 314.718 118.705 310.134 Q115.649 305.528 115.649 296.801 Q115.649 288.051 118.705 283.468 Q121.783 278.861 127.593 278.861 Z" fill="#000000" fill-rule="evenodd" fill-opacity="1" /><path clip-path="url(#clip220)" d="M147.755 308.167 L152.64 308.167 L152.64 314.046 L147.755 314.046 L147.755 308.167 Z" fill="#000000" fill-rule="evenodd" fill-opacity="1" /><path clip-path="url(#clip220)" d="M175.672 283.561 L163.866 302.01 L175.672 302.01 L175.672 283.561 M174.445 279.486 L180.325 279.486 L180.325 302.01 L185.255 302.01 L185.255 305.898 L180.325 305.898 L180.325 314.046 L175.672 314.046 L175.672 305.898 L160.07 305.898 L160.07 301.385 L174.445 279.486 Z" fill="#000000" fill-rule="evenodd" fill-opacity="1" /><path clip-path="url(#clip220)" d="M191.806 279.486 L214.028 279.486 L214.028 281.477 L201.482 314.046 L196.598 314.046 L208.403 283.422 L191.806 283.422 L191.806 279.486 Z" fill="#000000" fill-rule="evenodd" fill-opacity="1" /><path clip-path="url(#clip220)" d="M126.783 195.918 Q123.172 195.918 121.343 199.483 Q119.538 203.024 119.538 210.154 Q119.538 217.26 121.343 220.825 Q123.172 224.367 126.783 224.367 Q130.417 224.367 132.223 220.825 Q134.052 217.26 134.052 210.154 Q134.052 203.024 132.223 199.483 Q130.417 195.918 126.783 195.918 M126.783 192.214 Q132.593 192.214 135.649 196.821 Q138.728 201.404 138.728 210.154 Q138.728 218.881 135.649 223.487 Q132.593 228.071 126.783 228.071 Q120.973 228.071 117.894 223.487 Q114.839 218.881 114.839 210.154 Q114.839 201.404 117.894 196.821 Q120.973 192.214 126.783 192.214 Z" fill="#000000" fill-rule="evenodd" fill-opacity="1" /><path clip-path="url(#clip220)" d="M146.945 221.52 L151.829 221.52 L151.829 227.399 L146.945 227.399 L146.945 221.52 Z" fill="#000000" fill-rule="evenodd" fill-opacity="1" /><path clip-path="url(#clip220)" d="M174.862 196.913 L163.056 215.362 L174.862 215.362 L174.862 196.913 M173.635 192.839 L179.514 192.839 L179.514 215.362 L184.445 215.362 L184.445 219.251 L179.514 219.251 L179.514 227.399 L174.862 227.399 L174.862 219.251 L159.26 219.251 L159.26 214.737 L173.635 192.839 Z" fill="#000000" fill-rule="evenodd" fill-opacity="1" /><path clip-path="url(#clip220)" d="M202.176 210.987 Q198.843 210.987 196.922 212.77 Q195.024 214.552 195.024 217.677 Q195.024 220.802 196.922 222.585 Q198.843 224.367 202.176 224.367 Q205.51 224.367 207.431 222.585 Q209.352 220.779 209.352 217.677 Q209.352 214.552 207.431 212.77 Q205.533 210.987 202.176 210.987 M197.5 208.997 Q194.491 208.256 192.801 206.196 Q191.135 204.136 191.135 201.173 Q191.135 197.029 194.075 194.622 Q197.037 192.214 202.176 192.214 Q207.338 192.214 210.278 194.622 Q213.218 197.029 213.218 201.173 Q213.218 204.136 211.528 206.196 Q209.861 208.256 206.875 208.997 Q210.255 209.784 212.13 212.075 Q214.028 214.367 214.028 217.677 Q214.028 222.7 210.949 225.385 Q207.894 228.071 202.176 228.071 Q196.459 228.071 193.38 225.385 Q190.325 222.7 190.325 217.677 Q190.325 214.367 192.223 212.075 Q194.121 209.784 197.5 208.997 M195.787 201.612 Q195.787 204.298 197.454 205.802 Q199.144 207.307 202.176 207.307 Q205.186 207.307 206.875 205.802 Q208.588 204.298 208.588 201.612 Q208.588 198.927 206.875 197.423 Q205.186 195.918 202.176 195.918 Q199.144 195.918 197.454 197.423 Q195.787 198.927 195.787 201.612 Z" fill="#000000" fill-rule="evenodd" fill-opacity="1" /><path clip-path="url(#clip220)" d="M126.876 109.271 Q123.265 109.271 121.436 112.836 Q119.63 116.377 119.63 123.507 Q119.63 130.613 121.436 134.178 Q123.265 137.72 126.876 137.72 Q130.51 137.72 132.316 134.178 Q134.144 130.613 134.144 123.507 Q134.144 116.377 132.316 112.836 Q130.51 109.271 126.876 109.271 M126.876 105.567 Q132.686 105.567 135.742 110.174 Q138.82 114.757 138.82 123.507 Q138.82 132.234 135.742 136.84 Q132.686 141.423 126.876 141.423 Q121.066 141.423 117.987 136.84 Q114.931 132.234 114.931 123.507 Q114.931 114.757 117.987 110.174 Q121.066 105.567 126.876 105.567 Z" fill="#000000" fill-rule="evenodd" fill-opacity="1" /><path clip-path="url(#clip220)" d="M147.038 134.873 L151.922 134.873 L151.922 140.752 L147.038 140.752 L147.038 134.873 Z" fill="#000000" fill-rule="evenodd" fill-opacity="1" /><path clip-path="url(#clip220)" d="M174.954 110.266 L163.149 128.715 L174.954 128.715 L174.954 110.266 M173.727 106.192 L179.607 106.192 L179.607 128.715 L184.538 128.715 L184.538 132.604 L179.607 132.604 L179.607 140.752 L174.954 140.752 L174.954 132.604 L159.353 132.604 L159.353 128.09 L173.727 106.192 Z" fill="#000000" fill-rule="evenodd" fill-opacity="1" /><path clip-path="url(#clip220)" d="M192.408 140.035 L192.408 135.775 Q194.167 136.609 195.973 137.048 Q197.778 137.488 199.514 137.488 Q204.144 137.488 206.574 134.386 Q209.028 131.261 209.375 124.919 Q208.033 126.91 205.973 127.974 Q203.912 129.039 201.412 129.039 Q196.227 129.039 193.195 125.914 Q190.186 122.766 190.186 117.326 Q190.186 112.002 193.334 108.785 Q196.482 105.567 201.713 105.567 Q207.709 105.567 210.857 110.174 Q214.028 114.757 214.028 123.507 Q214.028 131.678 210.139 136.562 Q206.274 141.423 199.723 141.423 Q197.963 141.423 196.158 141.076 Q194.352 140.729 192.408 140.035 M201.713 125.382 Q204.862 125.382 206.69 123.229 Q208.542 121.076 208.542 117.326 Q208.542 113.599 206.69 111.447 Q204.862 109.271 201.713 109.271 Q198.565 109.271 196.713 111.447 Q194.885 113.599 194.885 117.326 Q194.885 121.076 196.713 123.229 Q198.565 125.382 201.713 125.382 Z" fill="#000000" fill-rule="evenodd" fill-opacity="1" /><path clip-path="url(#clip220)" d="M16.4842 987.834 L16.4842 981.405 L64.0042 981.405 L64.0042 987.834 L16.4842 987.834 Z" fill="#000000" fill-rule="evenodd" fill-opacity="1" /><path clip-path="url(#clip220)" d="M42.4881 939.232 L64.0042 939.232 L64.0042 945.089 L42.679 945.089 Q37.6183 945.089 35.1038 947.062 Q32.5894 949.035 32.5894 952.982 Q32.5894 957.725 35.6131 960.462 Q38.6368 963.199 43.8567 963.199 L64.0042 963.199 L64.0042 969.087 L28.3562 969.087 L28.3562 963.199 L33.8944 963.199 Q30.6797 961.098 29.0883 958.266 Q27.4968 955.401 27.4968 951.677 Q27.4968 945.534 31.3163 942.383 Q35.1038 939.232 42.4881 939.232 Z" fill="#000000" fill-rule="evenodd" fill-opacity="1" /><path clip-path="url(#clip220)" d="M42.4881 897.919 L64.0042 897.919 L64.0042 903.775 L42.679 903.775 Q37.6183 903.775 35.1038 905.749 Q32.5894 907.722 32.5894 911.669 Q32.5894 916.411 35.6131 919.148 Q38.6368 921.886 43.8567 921.886 L64.0042 921.886 L64.0042 927.774 L28.3562 927.774 L28.3562 921.886 L33.8944 921.886 Q30.6797 919.785 29.0883 916.952 Q27.4968 914.088 27.4968 910.364 Q27.4968 904.221 31.3163 901.07 Q35.1038 897.919 42.4881 897.919 Z" fill="#000000" fill-rule="evenodd" fill-opacity="1" /><path clip-path="url(#clip220)" d="M44.7161 855.746 L47.5806 855.746 L47.5806 882.673 Q53.6281 882.291 56.8109 879.044 Q59.9619 875.766 59.9619 869.941 Q59.9619 866.568 59.1344 863.417 Q58.3069 860.234 56.6518 857.115 L62.1899 857.115 Q63.5267 860.266 64.227 863.576 Q64.9272 866.886 64.9272 870.292 Q64.9272 878.822 59.9619 883.819 Q54.9967 888.784 46.5303 888.784 Q37.7774 888.784 32.6531 884.073 Q27.4968 879.331 27.4968 871.31 Q27.4968 864.117 32.1438 859.947 Q36.7589 855.746 44.7161 855.746 M42.9973 861.602 Q38.1912 861.666 35.3266 864.308 Q32.4621 866.918 32.4621 871.246 Q32.4621 876.148 35.2312 879.108 Q38.0002 882.036 43.0292 882.482 L42.9973 861.602 Z" fill="#000000" fill-rule="evenodd" fill-opacity="1" /><path clip-path="url(#clip220)" d="M33.8307 825.477 Q33.2578 826.464 33.0032 827.641 Q32.7167 828.787 32.7167 830.188 Q32.7167 835.153 35.9632 837.827 Q39.1779 840.468 45.2253 840.468 L64.0042 840.468 L64.0042 846.357 L28.3562 846.357 L28.3562 840.468 L33.8944 840.468 Q30.6479 838.622 29.0883 835.662 Q27.4968 832.702 27.4968 828.469 Q27.4968 827.864 27.5923 827.132 Q27.656 826.4 27.8151 825.509 L33.8307 825.477 Z" fill="#000000" fill-rule="evenodd" fill-opacity="1" /><path clip-path="url(#clip220)" d="M21.7677 791.93 L39.6235 791.93 L39.6235 783.845 Q39.6235 779.357 37.3 776.907 Q34.9765 774.456 30.6797 774.456 Q26.4147 774.456 24.0912 776.907 Q21.7677 779.357 21.7677 783.845 L21.7677 791.93 M16.4842 798.359 L16.4842 783.845 Q16.4842 775.856 20.1126 771.782 Q23.7092 767.676 30.6797 767.676 Q37.7138 767.676 41.3104 771.782 Q44.907 775.856 44.907 783.845 L44.907 791.93 L64.0042 791.93 L64.0042 798.359 L16.4842 798.359 Z" fill="#000000" fill-rule="evenodd" fill-opacity="1" /><path clip-path="url(#clip220)" d="M33.8307 739.795 Q33.2578 740.781 33.0032 741.959 Q32.7167 743.105 32.7167 744.505 Q32.7167 749.47 35.9632 752.144 Q39.1779 754.786 45.2253 754.786 L64.0042 754.786 L64.0042 760.674 L28.3562 760.674 L28.3562 754.786 L33.8944 754.786 Q30.6479 752.94 29.0883 749.98 Q27.4968 747.02 27.4968 742.787 Q27.4968 742.182 27.5923 741.45 Q27.656 740.718 27.8151 739.826 L33.8307 739.795 Z" fill="#000000" fill-rule="evenodd" fill-opacity="1" /><path clip-path="url(#clip220)" d="M32.4621 721.27 Q32.4621 725.981 36.1542 728.718 Q39.8145 731.456 46.212 731.456 Q52.6095 731.456 56.3017 728.75 Q59.9619 726.013 59.9619 721.27 Q59.9619 716.592 56.2698 713.854 Q52.5777 711.117 46.212 711.117 Q39.8781 711.117 36.186 713.854 Q32.4621 716.592 32.4621 721.27 M27.4968 721.27 Q27.4968 713.632 32.4621 709.271 Q37.4273 704.911 46.212 704.911 Q54.9649 704.911 59.9619 709.271 Q64.9272 713.632 64.9272 721.27 Q64.9272 728.941 59.9619 733.302 Q54.9649 737.63 46.212 737.63 Q37.4273 737.63 32.4621 733.302 Q27.4968 728.941 27.4968 721.27 Z" fill="#000000" fill-rule="evenodd" fill-opacity="1" /><path clip-path="url(#clip220)" d="M33.7671 671.745 L14.479 671.745 L14.479 665.889 L64.0042 665.889 L64.0042 671.745 L58.657 671.745 Q61.8398 673.591 63.3994 676.424 Q64.9272 679.225 64.9272 683.172 Q64.9272 689.633 59.771 693.707 Q54.6147 697.749 46.212 697.749 Q37.8093 697.749 32.6531 693.707 Q27.4968 689.633 27.4968 683.172 Q27.4968 679.225 29.0564 676.424 Q30.5842 673.591 33.7671 671.745 M46.212 691.702 Q52.6732 691.702 56.3653 689.06 Q60.0256 686.386 60.0256 681.739 Q60.0256 677.092 56.3653 674.419 Q52.6732 671.745 46.212 671.745 Q39.7508 671.745 36.0905 674.419 Q32.3984 677.092 32.3984 681.739 Q32.3984 686.386 36.0905 689.06 Q39.7508 691.702 46.212 691.702 Z" fill="#000000" fill-rule="evenodd" fill-opacity="1" /><path clip-path="url(#clip220)" d="M49.9359 654.43 L28.3562 654.43 L28.3562 648.574 L49.7131 648.574 Q54.7739 648.574 57.3202 646.601 Q59.8346 644.627 59.8346 640.681 Q59.8346 635.938 56.8109 633.201 Q53.7872 630.432 48.5673 630.432 L28.3562 630.432 L28.3562 624.575 L64.0042 624.575 L64.0042 630.432 L58.5296 630.432 Q61.7762 632.564 63.3676 635.397 Q64.9272 638.198 64.9272 641.922 Q64.9272 648.065 61.1078 651.248 Q57.2883 654.43 49.9359 654.43 M27.4968 639.694 L27.4968 639.694 Z" fill="#000000" fill-rule="evenodd" fill-opacity="1" /><path clip-path="url(#clip220)" d="M29.7248 586.859 L35.1993 586.859 Q33.8307 589.341 33.1623 591.856 Q32.4621 594.338 32.4621 596.885 Q32.4621 602.582 36.0905 605.733 Q39.6872 608.884 46.212 608.884 Q52.7369 608.884 56.3653 605.733 Q59.9619 602.582 59.9619 596.885 Q59.9619 594.338 59.2935 591.856 Q58.5933 589.341 57.2247 586.859 L62.6355 586.859 Q63.7814 589.309 64.3543 591.951 Q64.9272 594.561 64.9272 597.521 Q64.9272 605.574 59.8664 610.316 Q54.8057 615.059 46.212 615.059 Q37.491 615.059 32.4939 610.284 Q27.4968 605.478 27.4968 597.139 Q27.4968 594.434 28.0697 591.856 Q28.6108 589.277 29.7248 586.859 Z" fill="#000000" fill-rule="evenodd" fill-opacity="1" /><path clip-path="url(#clip220)" d="M18.2347 570.881 L28.3562 570.881 L28.3562 558.818 L32.9077 558.818 L32.9077 570.881 L52.2594 570.881 Q56.6199 570.881 57.8613 569.703 Q59.1026 568.493 59.1026 564.833 L59.1026 558.818 L64.0042 558.818 L64.0042 564.833 Q64.0042 571.613 61.4897 574.191 Q58.9434 576.769 52.2594 576.769 L32.9077 576.769 L32.9077 581.066 L28.3562 581.066 L28.3562 576.769 L18.2347 576.769 L18.2347 570.881 Z" fill="#000000" fill-rule="evenodd" fill-opacity="1" /><path clip-path="url(#clip220)" d="M1170.97 17.6457 Q1162.06 17.6457 1156.79 24.2892 Q1151.57 30.9327 1151.57 42.3968 Q1151.57 53.8203 1156.79 60.4638 Q1162.06 67.1073 1170.97 67.1073 Q1179.89 67.1073 1185.07 60.4638 Q1190.3 53.8203 1190.3 42.3968 Q1190.3 30.9327 1185.07 24.2892 Q1179.89 17.6457 1170.97 17.6457 M1170.97 11.0023 Q1183.69 11.0023 1191.31 19.5497 Q1198.92 28.0566 1198.92 42.3968 Q1198.92 56.6965 1191.31 65.2439 Q1183.69 73.7508 1170.97 73.7508 Q1158.21 73.7508 1150.56 65.2439 Q1142.94 56.737 1142.94 42.3968 Q1142.94 28.0566 1150.56 19.5497 Q1158.21 11.0023 1170.97 11.0023 Z" fill="#000000" fill-rule="evenodd" fill-opacity="1" /><path clip-path="url(#clip220)" d="M1206.05 27.2059 L1213.95 27.2059 L1228.13 65.2844 L1242.31 27.2059 L1250.21 27.2059 L1233.2 72.576 L1223.07 72.576 L1206.05 27.2059 Z" fill="#000000" fill-rule="evenodd" fill-opacity="1" /><path clip-path="url(#clip220)" d="M1299.31 48.0275 L1299.31 51.6733 L1265.04 51.6733 Q1265.52 59.3701 1269.65 63.421 Q1273.83 67.4314 1281.24 67.4314 Q1285.53 67.4314 1289.54 66.3781 Q1293.59 65.3249 1297.56 63.2184 L1297.56 70.267 Q1293.55 71.9684 1289.34 72.8596 Q1285.13 73.7508 1280.79 73.7508 Q1269.94 73.7508 1263.58 67.4314 Q1257.26 61.1119 1257.26 50.3365 Q1257.26 39.1965 1263.25 32.6746 Q1269.29 26.1121 1279.5 26.1121 Q1288.65 26.1121 1293.96 32.0264 Q1299.31 37.9003 1299.31 48.0275 M1291.85 45.84 Q1291.77 39.7232 1288.41 36.0774 Q1285.09 32.4315 1279.58 32.4315 Q1273.34 32.4315 1269.57 35.9558 Q1265.85 39.4801 1265.28 45.8805 L1291.85 45.84 Z" fill="#000000" fill-rule="evenodd" fill-opacity="1" /><path clip-path="url(#clip220)" d="M1337.83 34.1734 Q1336.57 33.4443 1335.08 33.1202 Q1333.62 32.7556 1331.83 32.7556 Q1325.52 32.7556 1322.11 36.8875 Q1318.75 40.9789 1318.75 48.6757 L1318.75 72.576 L1311.26 72.576 L1311.26 27.2059 L1318.75 27.2059 L1318.75 34.2544 Q1321.1 30.1225 1324.87 28.1376 Q1328.63 26.1121 1334.02 26.1121 Q1334.79 26.1121 1335.72 26.2337 Q1336.66 26.3147 1337.79 26.5172 L1337.83 34.1734 Z" fill="#000000" fill-rule="evenodd" fill-opacity="1" /><path clip-path="url(#clip220)" d="M1345.65 9.54393 L1353.1 9.54393 L1353.1 72.576 L1345.65 72.576 L1345.65 9.54393 Z" fill="#000000" fill-rule="evenodd" fill-opacity="1" /><path clip-path="url(#clip220)" d="M1389.32 49.7694 Q1380.28 49.7694 1376.8 51.8354 Q1373.32 53.9013 1373.32 58.8839 Q1373.32 62.8538 1375.91 65.2034 Q1378.54 67.5124 1383.04 67.5124 Q1389.24 67.5124 1392.96 63.1374 Q1396.73 58.7219 1396.73 51.4303 L1396.73 49.7694 L1389.32 49.7694 M1404.18 46.6907 L1404.18 72.576 L1396.73 72.576 L1396.73 65.6895 Q1394.18 69.8214 1390.37 71.8063 Q1386.56 73.7508 1381.05 73.7508 Q1374.09 73.7508 1369.95 69.8619 Q1365.86 65.9325 1365.86 59.3701 Q1365.86 51.7138 1370.97 47.825 Q1376.11 43.9361 1386.28 43.9361 L1396.73 43.9361 L1396.73 43.2069 Q1396.73 38.0623 1393.33 35.2672 Q1389.97 32.4315 1383.85 32.4315 Q1379.96 32.4315 1376.27 33.3632 Q1372.59 34.295 1369.18 36.1584 L1369.18 29.2718 Q1373.28 27.692 1377.12 26.9223 Q1380.97 26.1121 1384.62 26.1121 Q1394.46 26.1121 1399.32 31.2163 Q1404.18 36.3204 1404.18 46.6907 Z" fill="#000000" fill-rule="evenodd" fill-opacity="1" /><path clip-path="url(#clip220)" d="M1426.75 65.7705 L1426.75 89.8329 L1419.25 89.8329 L1419.25 27.2059 L1426.75 27.2059 L1426.75 34.0924 Q1429.1 30.0415 1432.66 28.0971 Q1436.27 26.1121 1441.25 26.1121 Q1449.51 26.1121 1454.66 32.6746 Q1459.84 39.2371 1459.84 49.9314 Q1459.84 60.6258 1454.66 67.1883 Q1449.51 73.7508 1441.25 73.7508 Q1436.27 73.7508 1432.66 71.8063 Q1429.1 69.8214 1426.75 65.7705 M1452.11 49.9314 Q1452.11 41.7081 1448.7 37.0496 Q1445.34 32.3505 1439.43 32.3505 Q1433.51 32.3505 1430.11 37.0496 Q1426.75 41.7081 1426.75 49.9314 Q1426.75 58.1548 1430.11 62.8538 Q1433.51 67.5124 1439.43 67.5124 Q1445.34 67.5124 1448.7 62.8538 Q1452.11 58.1548 1452.11 49.9314 Z" fill="#000000" fill-rule="evenodd" fill-opacity="1" /><polyline clip-path="url(#clip222)" style="stroke:#000000; stroke-linecap:round; stroke-linejoin:round; stroke-width:4; stroke-opacity:1; fill:none" points="
  310.106,290.789 310.106,290.788 
  "/>
<polyline clip-path="url(#clip222)" style="stroke:#000000; stroke-linecap:round; stroke-linejoin:round; stroke-width:4; stroke-opacity:1; fill:none" points="
  370.184,3105.89 370.184,2546.78 
  "/>
<polyline clip-path="url(#clip222)" style="stroke:#000000; stroke-linecap:round; stroke-linejoin:round; stroke-width:4; stroke-opacity:1; fill:none" points="
  430.262,3195.18 430.262,3194.82 
  "/>
<polyline clip-path="url(#clip222)" style="stroke:#000000; stroke-linecap:round; stroke-linejoin:round; stroke-width:4; stroke-opacity:1; fill:none" points="
  490.34,533.954 490.34,196.488 
  "/>
<polyline clip-path="url(#clip222)" style="stroke:#000000; stroke-linecap:round; stroke-linejoin:round; stroke-width:4; stroke-opacity:1; fill:none" points="
  550.418,1277.75 550.418,767.33 
  "/>
<polyline clip-path="url(#clip222)" style="stroke:#000000; stroke-linecap:round; stroke-linejoin:round; stroke-width:4; stroke-opacity:1; fill:none" points="
  610.496,377.132 610.496,377.13 
  "/>
<polyline clip-path="url(#clip222)" style="stroke:#000000; stroke-linecap:round; stroke-linejoin:round; stroke-width:4; stroke-opacity:1; fill:none" points="
  670.574,401.094 670.574,401.044 
  "/>
<polyline clip-path="url(#clip222)" style="stroke:#000000; stroke-linecap:round; stroke-linejoin:round; stroke-width:4; stroke-opacity:1; fill:none" points="
  730.652,374.432 730.652,374.43 
  "/>
<polyline clip-path="url(#clip222)" style="stroke:#000000; stroke-linecap:round; stroke-linejoin:round; stroke-width:4; stroke-opacity:1; fill:none" points="
  790.73,379.496 790.73,379.494 
  "/>
<polyline clip-path="url(#clip222)" style="stroke:#000000; stroke-linecap:round; stroke-linejoin:round; stroke-width:4; stroke-opacity:1; fill:none" points="
  850.808,370.793 850.808,370.789 
  "/>
<polyline clip-path="url(#clip222)" style="stroke:#000000; stroke-linecap:round; stroke-linejoin:round; stroke-width:4; stroke-opacity:1; fill:none" points="
  910.885,366.63 910.885,366.627 
  "/>
<polyline clip-path="url(#clip222)" style="stroke:#000000; stroke-linecap:round; stroke-linejoin:round; stroke-width:4; stroke-opacity:1; fill:none" points="
  970.963,2730.37 970.963,2716.13 
  "/>
<polyline clip-path="url(#clip222)" style="stroke:#000000; stroke-linecap:round; stroke-linejoin:round; stroke-width:4; stroke-opacity:1; fill:none" points="
  1031.04,371.614 1031.04,368.486 
  "/>
<polyline clip-path="url(#clip222)" style="stroke:#000000; stroke-linecap:round; stroke-linejoin:round; stroke-width:4; stroke-opacity:1; fill:none" points="
  1091.12,756.024 1091.12,519.403 
  "/>
<polyline clip-path="url(#clip222)" style="stroke:#000000; stroke-linecap:round; stroke-linejoin:round; stroke-width:4; stroke-opacity:1; fill:none" points="
  1151.2,3801.31 1151.2,2971.61 
  "/>
<polyline clip-path="url(#clip222)" style="stroke:#000000; stroke-linecap:round; stroke-linejoin:round; stroke-width:4; stroke-opacity:1; fill:none" points="
  1211.28,443.747 1211.28,440.298 
  "/>
<polyline clip-path="url(#clip222)" style="stroke:#000000; stroke-linecap:round; stroke-linejoin:round; stroke-width:4; stroke-opacity:1; fill:none" points="
  1271.35,568.081 1271.35,477.309 
  "/>
<polyline clip-path="url(#clip222)" style="stroke:#000000; stroke-linecap:round; stroke-linejoin:round; stroke-width:4; stroke-opacity:1; fill:none" points="
  1331.43,429.501 1331.43,426.084 
  "/>
<polyline clip-path="url(#clip222)" style="stroke:#000000; stroke-linecap:round; stroke-linejoin:round; stroke-width:4; stroke-opacity:1; fill:none" points="
  1391.51,491.41 1391.51,385.305 
  "/>
<polyline clip-path="url(#clip222)" style="stroke:#000000; stroke-linecap:round; stroke-linejoin:round; stroke-width:4; stroke-opacity:1; fill:none" points="
  1451.59,412.706 1451.59,411.36 
  "/>
<polyline clip-path="url(#clip222)" style="stroke:#000000; stroke-linecap:round; stroke-linejoin:round; stroke-width:4; stroke-opacity:1; fill:none" points="
  1511.66,422.883 1511.66,419.289 
  "/>
<polyline clip-path="url(#clip222)" style="stroke:#000000; stroke-linecap:round; stroke-linejoin:round; stroke-width:4; stroke-opacity:1; fill:none" points="
  1571.74,760.249 1571.74,674.328 
  "/>
<polyline clip-path="url(#clip222)" style="stroke:#000000; stroke-linecap:round; stroke-linejoin:round; stroke-width:4; stroke-opacity:1; fill:none" points="
  1631.82,447.904 1631.82,446.686 
  "/>
<polyline clip-path="url(#clip222)" style="stroke:#000000; stroke-linecap:round; stroke-linejoin:round; stroke-width:4; stroke-opacity:1; fill:none" points="
  1691.9,3756.1 1691.9,3642.57 
  "/>
<polyline clip-path="url(#clip222)" style="stroke:#000000; stroke-linecap:round; stroke-linejoin:round; stroke-width:4; stroke-opacity:1; fill:none" points="
  1751.98,2616.79 1751.98,2190.06 
  "/>
<polyline clip-path="url(#clip222)" style="stroke:#000000; stroke-linecap:round; stroke-linejoin:round; stroke-width:4; stroke-opacity:1; fill:none" points="
  1812.05,703.206 1812.05,493.363 
  "/>
<polyline clip-path="url(#clip222)" style="stroke:#000000; stroke-linecap:round; stroke-linejoin:round; stroke-width:4; stroke-opacity:1; fill:none" points="
  1872.13,1381.25 1872.13,1340.24 
  "/>
<line clip-path="url(#clip222)" x1="318.106" y1="290.789" x2="302.106" y2="290.789" style="stroke:#000000; stroke-width:3.2; stroke-opacity:1"/>
<line clip-path="url(#clip222)" x1="318.106" y1="290.788" x2="302.106" y2="290.788" style="stroke:#000000; stroke-width:3.2; stroke-opacity:1"/>
<line clip-path="url(#clip222)" x1="498.34" y1="533.954" x2="482.34" y2="533.954" style="stroke:#000000; stroke-width:3.2; stroke-opacity:1"/>
<line clip-path="url(#clip222)" x1="498.34" y1="196.488" x2="482.34" y2="196.488" style="stroke:#000000; stroke-width:3.2; stroke-opacity:1"/>
<line clip-path="url(#clip222)" x1="558.418" y1="1277.75" x2="542.418" y2="1277.75" style="stroke:#000000; stroke-width:3.2; stroke-opacity:1"/>
<line clip-path="url(#clip222)" x1="558.418" y1="767.33" x2="542.418" y2="767.33" style="stroke:#000000; stroke-width:3.2; stroke-opacity:1"/>
<line clip-path="url(#clip222)" x1="618.496" y1="377.132" x2="602.496" y2="377.132" style="stroke:#000000; stroke-width:3.2; stroke-opacity:1"/>
<line clip-path="url(#clip222)" x1="618.496" y1="377.13" x2="602.496" y2="377.13" style="stroke:#000000; stroke-width:3.2; stroke-opacity:1"/>
<line clip-path="url(#clip222)" x1="678.574" y1="401.094" x2="662.574" y2="401.094" style="stroke:#000000; stroke-width:3.2; stroke-opacity:1"/>
<line clip-path="url(#clip222)" x1="678.574" y1="401.044" x2="662.574" y2="401.044" style="stroke:#000000; stroke-width:3.2; stroke-opacity:1"/>
<line clip-path="url(#clip222)" x1="738.652" y1="374.432" x2="722.652" y2="374.432" style="stroke:#000000; stroke-width:3.2; stroke-opacity:1"/>
<line clip-path="url(#clip222)" x1="738.652" y1="374.43" x2="722.652" y2="374.43" style="stroke:#000000; stroke-width:3.2; stroke-opacity:1"/>
<line clip-path="url(#clip222)" x1="798.73" y1="379.496" x2="782.73" y2="379.496" style="stroke:#000000; stroke-width:3.2; stroke-opacity:1"/>
<line clip-path="url(#clip222)" x1="798.73" y1="379.494" x2="782.73" y2="379.494" style="stroke:#000000; stroke-width:3.2; stroke-opacity:1"/>
<line clip-path="url(#clip222)" x1="858.808" y1="370.793" x2="842.808" y2="370.793" style="stroke:#000000; stroke-width:3.2; stroke-opacity:1"/>
<line clip-path="url(#clip222)" x1="858.808" y1="370.789" x2="842.808" y2="370.789" style="stroke:#000000; stroke-width:3.2; stroke-opacity:1"/>
<line clip-path="url(#clip222)" x1="918.885" y1="366.63" x2="902.885" y2="366.63" style="stroke:#000000; stroke-width:3.2; stroke-opacity:1"/>
<line clip-path="url(#clip222)" x1="918.885" y1="366.627" x2="902.885" y2="366.627" style="stroke:#000000; stroke-width:3.2; stroke-opacity:1"/>
<line clip-path="url(#clip222)" x1="1039.04" y1="371.614" x2="1023.04" y2="371.614" style="stroke:#000000; stroke-width:3.2; stroke-opacity:1"/>
<line clip-path="url(#clip222)" x1="1039.04" y1="368.486" x2="1023.04" y2="368.486" style="stroke:#000000; stroke-width:3.2; stroke-opacity:1"/>
<line clip-path="url(#clip222)" x1="1099.12" y1="756.024" x2="1083.12" y2="756.024" style="stroke:#000000; stroke-width:3.2; stroke-opacity:1"/>
<line clip-path="url(#clip222)" x1="1099.12" y1="519.403" x2="1083.12" y2="519.403" style="stroke:#000000; stroke-width:3.2; stroke-opacity:1"/>
<line clip-path="url(#clip222)" x1="1219.28" y1="443.747" x2="1203.28" y2="443.747" style="stroke:#000000; stroke-width:3.2; stroke-opacity:1"/>
<line clip-path="url(#clip222)" x1="1219.28" y1="440.298" x2="1203.28" y2="440.298" style="stroke:#000000; stroke-width:3.2; stroke-opacity:1"/>
<line clip-path="url(#clip222)" x1="1279.35" y1="568.081" x2="1263.35" y2="568.081" style="stroke:#000000; stroke-width:3.2; stroke-opacity:1"/>
<line clip-path="url(#clip222)" x1="1279.35" y1="477.309" x2="1263.35" y2="477.309" style="stroke:#000000; stroke-width:3.2; stroke-opacity:1"/>
<line clip-path="url(#clip222)" x1="1339.43" y1="429.501" x2="1323.43" y2="429.501" style="stroke:#000000; stroke-width:3.2; stroke-opacity:1"/>
<line clip-path="url(#clip222)" x1="1339.43" y1="426.084" x2="1323.43" y2="426.084" style="stroke:#000000; stroke-width:3.2; stroke-opacity:1"/>
<line clip-path="url(#clip222)" x1="1399.51" y1="491.41" x2="1383.51" y2="491.41" style="stroke:#000000; stroke-width:3.2; stroke-opacity:1"/>
<line clip-path="url(#clip222)" x1="1399.51" y1="385.305" x2="1383.51" y2="385.305" style="stroke:#000000; stroke-width:3.2; stroke-opacity:1"/>
<line clip-path="url(#clip222)" x1="1459.59" y1="412.706" x2="1443.59" y2="412.706" style="stroke:#000000; stroke-width:3.2; stroke-opacity:1"/>
<line clip-path="url(#clip222)" x1="1459.59" y1="411.36" x2="1443.59" y2="411.36" style="stroke:#000000; stroke-width:3.2; stroke-opacity:1"/>
<line clip-path="url(#clip222)" x1="1519.66" y1="422.883" x2="1503.66" y2="422.883" style="stroke:#000000; stroke-width:3.2; stroke-opacity:1"/>
<line clip-path="url(#clip222)" x1="1519.66" y1="419.289" x2="1503.66" y2="419.289" style="stroke:#000000; stroke-width:3.2; stroke-opacity:1"/>
<line clip-path="url(#clip222)" x1="1579.74" y1="760.249" x2="1563.74" y2="760.249" style="stroke:#000000; stroke-width:3.2; stroke-opacity:1"/>
<line clip-path="url(#clip222)" x1="1579.74" y1="674.328" x2="1563.74" y2="674.328" style="stroke:#000000; stroke-width:3.2; stroke-opacity:1"/>
<line clip-path="url(#clip222)" x1="1639.82" y1="447.904" x2="1623.82" y2="447.904" style="stroke:#000000; stroke-width:3.2; stroke-opacity:1"/>
<line clip-path="url(#clip222)" x1="1639.82" y1="446.686" x2="1623.82" y2="446.686" style="stroke:#000000; stroke-width:3.2; stroke-opacity:1"/>
<line clip-path="url(#clip222)" x1="1820.05" y1="703.206" x2="1804.05" y2="703.206" style="stroke:#000000; stroke-width:3.2; stroke-opacity:1"/>
<line clip-path="url(#clip222)" x1="1820.05" y1="493.363" x2="1804.05" y2="493.363" style="stroke:#000000; stroke-width:3.2; stroke-opacity:1"/>
<line clip-path="url(#clip222)" x1="1880.13" y1="1381.25" x2="1864.13" y2="1381.25" style="stroke:#000000; stroke-width:3.2; stroke-opacity:1"/>
<line clip-path="url(#clip222)" x1="1880.13" y1="1340.24" x2="1864.13" y2="1340.24" style="stroke:#000000; stroke-width:3.2; stroke-opacity:1"/>
<circle clip-path="url(#clip222)" cx="310.106" cy="290.788" r="7.2" fill="#009af9" fill-rule="evenodd" fill-opacity="1" stroke="#000000" stroke-opacity="1" stroke-width="3.2"/>
<circle clip-path="url(#clip222)" cx="490.34" cy="365.221" r="7.2" fill="#009af9" fill-rule="evenodd" fill-opacity="1" stroke="#000000" stroke-opacity="1" stroke-width="3.2"/>
<circle clip-path="url(#clip222)" cx="550.418" cy="1022.54" r="7.2" fill="#009af9" fill-rule="evenodd" fill-opacity="1" stroke="#000000" stroke-opacity="1" stroke-width="3.2"/>
<circle clip-path="url(#clip222)" cx="610.496" cy="377.131" r="7.2" fill="#009af9" fill-rule="evenodd" fill-opacity="1" stroke="#000000" stroke-opacity="1" stroke-width="3.2"/>
<circle clip-path="url(#clip222)" cx="670.574" cy="401.069" r="7.2" fill="#009af9" fill-rule="evenodd" fill-opacity="1" stroke="#000000" stroke-opacity="1" stroke-width="3.2"/>
<circle clip-path="url(#clip222)" cx="730.652" cy="374.431" r="7.2" fill="#009af9" fill-rule="evenodd" fill-opacity="1" stroke="#000000" stroke-opacity="1" stroke-width="3.2"/>
<circle clip-path="url(#clip222)" cx="790.73" cy="379.495" r="7.2" fill="#009af9" fill-rule="evenodd" fill-opacity="1" stroke="#000000" stroke-opacity="1" stroke-width="3.2"/>
<circle clip-path="url(#clip222)" cx="850.808" cy="370.791" r="7.2" fill="#009af9" fill-rule="evenodd" fill-opacity="1" stroke="#000000" stroke-opacity="1" stroke-width="3.2"/>
<circle clip-path="url(#clip222)" cx="910.885" cy="366.628" r="7.2" fill="#009af9" fill-rule="evenodd" fill-opacity="1" stroke="#000000" stroke-opacity="1" stroke-width="3.2"/>
<circle clip-path="url(#clip222)" cx="1031.04" cy="370.05" r="7.2" fill="#009af9" fill-rule="evenodd" fill-opacity="1" stroke="#000000" stroke-opacity="1" stroke-width="3.2"/>
<circle clip-path="url(#clip222)" cx="1091.12" cy="637.713" r="7.2" fill="#009af9" fill-rule="evenodd" fill-opacity="1" stroke="#000000" stroke-opacity="1" stroke-width="3.2"/>
<circle clip-path="url(#clip222)" cx="1211.28" cy="442.022" r="7.2" fill="#009af9" fill-rule="evenodd" fill-opacity="1" stroke="#000000" stroke-opacity="1" stroke-width="3.2"/>
<circle clip-path="url(#clip222)" cx="1271.35" cy="522.695" r="7.2" fill="#009af9" fill-rule="evenodd" fill-opacity="1" stroke="#000000" stroke-opacity="1" stroke-width="3.2"/>
<circle clip-path="url(#clip222)" cx="1331.43" cy="427.793" r="7.2" fill="#009af9" fill-rule="evenodd" fill-opacity="1" stroke="#000000" stroke-opacity="1" stroke-width="3.2"/>
<circle clip-path="url(#clip222)" cx="1391.51" cy="438.357" r="7.2" fill="#009af9" fill-rule="evenodd" fill-opacity="1" stroke="#000000" stroke-opacity="1" stroke-width="3.2"/>
<circle clip-path="url(#clip222)" cx="1451.59" cy="412.033" r="7.2" fill="#009af9" fill-rule="evenodd" fill-opacity="1" stroke="#000000" stroke-opacity="1" stroke-width="3.2"/>
<circle clip-path="url(#clip222)" cx="1511.66" cy="421.086" r="7.2" fill="#009af9" fill-rule="evenodd" fill-opacity="1" stroke="#000000" stroke-opacity="1" stroke-width="3.2"/>
<circle clip-path="url(#clip222)" cx="1571.74" cy="717.288" r="7.2" fill="#009af9" fill-rule="evenodd" fill-opacity="1" stroke="#000000" stroke-opacity="1" stroke-width="3.2"/>
<circle clip-path="url(#clip222)" cx="1631.82" cy="447.295" r="7.2" fill="#009af9" fill-rule="evenodd" fill-opacity="1" stroke="#000000" stroke-opacity="1" stroke-width="3.2"/>
<circle clip-path="url(#clip222)" cx="1812.05" cy="598.285" r="7.2" fill="#009af9" fill-rule="evenodd" fill-opacity="1" stroke="#000000" stroke-opacity="1" stroke-width="3.2"/>
<circle clip-path="url(#clip222)" cx="1872.13" cy="1360.74" r="7.2" fill="#009af9" fill-rule="evenodd" fill-opacity="1" stroke="#000000" stroke-opacity="1" stroke-width="3.2"/>
<path clip-path="url(#clip220)" d="
M1714.62 270.476 L2282.66 270.476 L2282.66 166.796 L1714.62 166.796  Z
  " fill="#ffffff" fill-rule="evenodd" fill-opacity="1"/>
<polyline clip-path="url(#clip220)" style="stroke:#000000; stroke-linecap:round; stroke-linejoin:round; stroke-width:4; stroke-opacity:1; fill:none" points="
  1714.62,270.476 2282.66,270.476 2282.66,166.796 1714.62,166.796 1714.62,270.476 
  "/>
<circle clip-path="url(#clip220)" cx="1808.07" cy="218.636" r="23.04" fill="#009af9" fill-rule="evenodd" fill-opacity="1" stroke="#000000" stroke-opacity="1" stroke-width="10.24"/>
<path clip-path="url(#clip220)" d="M1921.87 214.967 Q1923.47 212.096 1925.69 210.731 Q1927.91 209.365 1930.92 209.365 Q1934.97 209.365 1937.17 212.212 Q1939.37 215.036 1939.37 220.268 L1939.37 235.916 L1935.09 235.916 L1935.09 220.407 Q1935.09 216.68 1933.77 214.874 Q1932.45 213.069 1929.74 213.069 Q1926.43 213.069 1924.51 215.268 Q1922.59 217.467 1922.59 221.263 L1922.59 235.916 L1918.31 235.916 L1918.31 220.407 Q1918.31 216.657 1916.99 214.874 Q1915.67 213.069 1912.91 213.069 Q1909.65 213.069 1907.73 215.291 Q1905.81 217.49 1905.81 221.263 L1905.81 235.916 L1901.53 235.916 L1901.53 209.99 L1905.81 209.99 L1905.81 214.018 Q1907.27 211.633 1909.3 210.499 Q1911.34 209.365 1914.14 209.365 Q1916.97 209.365 1918.93 210.8 Q1920.92 212.235 1921.87 214.967 Z" fill="#000000" fill-rule="evenodd" fill-opacity="1" /><path clip-path="url(#clip220)" d="M1956.59 220.245 Q1955.44 218.254 1953.1 218.254 Q1950.76 218.254 1949.6 220.245 Q1948.42 222.235 1948.42 226.217 Q1948.42 230.221 1949.6 232.212 Q1950.76 234.203 1953.1 234.203 Q1955.44 234.203 1956.59 232.212 Q1957.78 230.221 1957.78 226.217 Q1957.78 222.235 1956.59 220.245 M1953.1 216.194 Q1956.83 216.194 1958.79 218.763 Q1960.76 221.332 1960.76 226.217 Q1960.76 231.124 1958.79 233.694 Q1956.83 236.263 1953.1 236.263 Q1949.35 236.263 1947.38 233.694 Q1945.41 231.124 1945.41 226.217 Q1945.41 221.332 1947.38 218.763 Q1949.35 216.194 1953.1 216.194 Z" fill="#000000" fill-rule="evenodd" fill-opacity="1" /><path clip-path="url(#clip220)" d="M1967.43 214.388 L1997.1 214.388 L1997.1 218.277 L1967.43 218.277 L1967.43 214.388 M1967.43 223.832 L1997.1 223.832 L1997.1 227.768 L1967.43 227.768 L1967.43 223.832 Z" fill="#000000" fill-rule="evenodd" fill-opacity="1" /><path clip-path="url(#clip220)" d="M2017.2 204.434 Q2013.59 204.434 2011.76 207.999 Q2009.95 211.541 2009.95 218.67 Q2009.95 225.777 2011.76 229.342 Q2013.59 232.883 2017.2 232.883 Q2020.83 232.883 2022.64 229.342 Q2024.46 225.777 2024.46 218.67 Q2024.46 211.541 2022.64 207.999 Q2020.83 204.434 2017.2 204.434 M2017.2 200.731 Q2023.01 200.731 2026.06 205.337 Q2029.14 209.92 2029.14 218.67 Q2029.14 227.397 2026.06 232.004 Q2023.01 236.587 2017.2 236.587 Q2011.39 236.587 2008.31 232.004 Q2005.25 227.397 2005.25 218.67 Q2005.25 209.92 2008.31 205.337 Q2011.39 200.731 2017.2 200.731 Z" fill="#000000" fill-rule="evenodd" fill-opacity="1" /><path clip-path="url(#clip220)" d="M2037.36 230.036 L2042.24 230.036 L2042.24 235.916 L2037.36 235.916 L2037.36 230.036 Z" fill="#000000" fill-rule="evenodd" fill-opacity="1" /><path clip-path="url(#clip220)" d="M2052.47 201.356 L2070.83 201.356 L2070.83 205.291 L2056.76 205.291 L2056.76 213.763 Q2057.77 213.416 2058.79 213.254 Q2059.81 213.069 2060.83 213.069 Q2066.62 213.069 2070 216.24 Q2073.38 219.411 2073.38 224.828 Q2073.38 230.406 2069.9 233.508 Q2066.43 236.587 2060.11 236.587 Q2057.94 236.587 2055.67 236.217 Q2053.42 235.846 2051.02 235.106 L2051.02 230.406 Q2053.1 231.541 2055.32 232.096 Q2057.54 232.652 2060.02 232.652 Q2064.02 232.652 2066.36 230.545 Q2068.7 228.439 2068.7 224.828 Q2068.7 221.217 2066.36 219.11 Q2064.02 217.004 2060.02 217.004 Q2058.15 217.004 2056.27 217.42 Q2054.42 217.837 2052.47 218.717 L2052.47 201.356 Z" fill="#000000" fill-rule="evenodd" fill-opacity="1" /><path clip-path="url(#clip220)" d="M2083.08 230.036 L2087.96 230.036 L2087.96 234.018 L2084.16 241.425 L2081.18 241.425 L2083.08 234.018 L2083.08 230.036 Z" fill="#000000" fill-rule="evenodd" fill-opacity="1" /><path clip-path="url(#clip220)" d="M2120.81 230.985 L2120.81 221.703 L2113.17 221.703 L2113.17 217.86 L2125.44 217.86 L2125.44 232.698 Q2122.73 234.619 2119.46 235.615 Q2116.2 236.587 2112.5 236.587 Q2104.39 236.587 2099.81 231.865 Q2095.25 227.119 2095.25 218.67 Q2095.25 210.198 2099.81 205.476 Q2104.39 200.731 2112.5 200.731 Q2115.88 200.731 2118.91 201.564 Q2121.96 202.397 2124.53 204.018 L2124.53 208.995 Q2121.94 206.796 2119.02 205.684 Q2116.11 204.573 2112.89 204.573 Q2106.55 204.573 2103.35 208.115 Q2100.18 211.657 2100.18 218.67 Q2100.18 225.661 2103.35 229.203 Q2106.55 232.744 2112.89 232.744 Q2115.37 232.744 2117.31 232.328 Q2119.26 231.888 2120.81 230.985 Z" fill="#000000" fill-rule="evenodd" fill-opacity="1" /><path clip-path="url(#clip220)" d="M2135.53 217.814 L2145.34 217.814 L2145.34 220.453 L2131.5 220.453 L2131.5 217.907 Q2132.29 217.189 2133.75 215.893 Q2141.71 208.833 2141.71 206.657 Q2141.71 205.129 2140.51 204.203 Q2139.3 203.254 2137.33 203.254 Q2136.13 203.254 2134.72 203.671 Q2133.31 204.064 2131.64 204.874 L2131.64 202.027 Q2133.42 201.379 2134.95 201.055 Q2136.5 200.731 2137.82 200.731 Q2141.18 200.731 2143.19 202.258 Q2145.2 203.786 2145.2 206.286 Q2145.2 209.504 2137.54 216.078 Q2136.25 217.189 2135.53 217.814 Z" fill="#000000" fill-rule="evenodd" fill-opacity="1" /><path clip-path="url(#clip220)" d="M2153.35 214.388 L2183.03 214.388 L2183.03 218.277 L2153.35 218.277 L2153.35 214.388 M2153.35 223.832 L2183.03 223.832 L2183.03 227.768 L2153.35 227.768 L2153.35 223.832 Z" fill="#000000" fill-rule="evenodd" fill-opacity="1" /><path clip-path="url(#clip220)" d="M2193.93 231.981 L2201.57 231.981 L2201.57 205.615 L2193.26 207.282 L2193.26 203.022 L2201.52 201.356 L2206.2 201.356 L2206.2 231.981 L2213.84 231.981 L2213.84 235.916 L2193.93 235.916 L2193.93 231.981 Z" fill="#000000" fill-rule="evenodd" fill-opacity="1" /><path clip-path="url(#clip220)" d="M2223.28 230.036 L2228.17 230.036 L2228.17 235.916 L2223.28 235.916 L2223.28 230.036 Z" fill="#000000" fill-rule="evenodd" fill-opacity="1" /><path clip-path="url(#clip220)" d="M2238.4 201.356 L2256.76 201.356 L2256.76 205.291 L2242.68 205.291 L2242.68 213.763 Q2243.7 213.416 2244.72 213.254 Q2245.74 213.069 2246.76 213.069 Q2252.54 213.069 2255.92 216.24 Q2259.3 219.411 2259.3 224.828 Q2259.3 230.406 2255.83 233.508 Q2252.36 236.587 2246.04 236.587 Q2243.86 236.587 2241.59 236.217 Q2239.35 235.846 2236.94 235.106 L2236.94 230.406 Q2239.02 231.541 2241.25 232.096 Q2243.47 232.652 2245.94 232.652 Q2249.95 232.652 2252.29 230.545 Q2254.63 228.439 2254.63 224.828 Q2254.63 221.217 2252.29 219.11 Q2249.95 217.004 2245.94 217.004 Q2244.07 217.004 2242.19 217.42 Q2240.34 217.837 2238.4 218.717 L2238.4 201.356 Z" fill="#000000" fill-rule="evenodd" fill-opacity="1" /></svg>
