<?xml version="1.0" encoding="utf-8"?>
<svg xmlns="http://www.w3.org/2000/svg" xmlns:xlink="http://www.w3.org/1999/xlink" width="600" height="400" viewBox="0 0 2400 1600">
<defs>
  <clipPath id="clip360">
    <rect x="0" y="0" width="2400" height="1600"/>
  </clipPath>
</defs>
<path clip-path="url(#clip360)" d="
M0 1600 L2400 1600 L2400 0 L0 0  Z
  " fill="#ffffff" fill-rule="evenodd" fill-opacity="1"/>
<defs>
  <clipPath id="clip361">
    <rect x="480" y="0" width="1681" height="1600"/>
  </clipPath>
</defs>
<path clip-path="url(#clip360)" d="
M219.866 1423.18 L2352.76 1423.18 L2352.76 123.472 L219.866 123.472  Z
  " fill="#ffffff" fill-rule="evenodd" fill-opacity="1"/>
<defs>
  <clipPath id="clip362">
    <rect x="219" y="123" width="2134" height="1301"/>
  </clipPath>
</defs>
<polyline clip-path="url(#clip362)" style="stroke:#000000; stroke-linecap:round; stroke-linejoin:round; stroke-width:2; stroke-opacity:0.1; fill:none" points="
  405.335,1423.18 405.335,123.472 
  "/>
<polyline clip-path="url(#clip362)" style="stroke:#000000; stroke-linecap:round; stroke-linejoin:round; stroke-width:2; stroke-opacity:0.1; fill:none" points="
  590.804,1423.18 590.804,123.472 
  "/>
<polyline clip-path="url(#clip362)" style="stroke:#000000; stroke-linecap:round; stroke-linejoin:round; stroke-width:2; stroke-opacity:0.1; fill:none" points="
  776.272,1423.18 776.272,123.472 
  "/>
<polyline clip-path="url(#clip362)" style="stroke:#000000; stroke-linecap:round; stroke-linejoin:round; stroke-width:2; stroke-opacity:0.1; fill:none" points="
  961.741,1423.18 961.741,123.472 
  "/>
<polyline clip-path="url(#clip362)" style="stroke:#000000; stroke-linecap:round; stroke-linejoin:round; stroke-width:2; stroke-opacity:0.1; fill:none" points="
  1147.21,1423.18 1147.21,123.472 
  "/>
<polyline clip-path="url(#clip362)" style="stroke:#000000; stroke-linecap:round; stroke-linejoin:round; stroke-width:2; stroke-opacity:0.1; fill:none" points="
  1332.68,1423.18 1332.68,123.472 
  "/>
<polyline clip-path="url(#clip362)" style="stroke:#000000; stroke-linecap:round; stroke-linejoin:round; stroke-width:2; stroke-opacity:0.1; fill:none" points="
  1518.15,1423.18 1518.15,123.472 
  "/>
<polyline clip-path="url(#clip362)" style="stroke:#000000; stroke-linecap:round; stroke-linejoin:round; stroke-width:2; stroke-opacity:0.1; fill:none" points="
  1703.62,1423.18 1703.62,123.472 
  "/>
<polyline clip-path="url(#clip362)" style="stroke:#000000; stroke-linecap:round; stroke-linejoin:round; stroke-width:2; stroke-opacity:0.1; fill:none" points="
  1889.08,1423.18 1889.08,123.472 
  "/>
<polyline clip-path="url(#clip362)" style="stroke:#000000; stroke-linecap:round; stroke-linejoin:round; stroke-width:2; stroke-opacity:0.1; fill:none" points="
  2074.55,1423.18 2074.55,123.472 
  "/>
<polyline clip-path="url(#clip362)" style="stroke:#000000; stroke-linecap:round; stroke-linejoin:round; stroke-width:2; stroke-opacity:0.1; fill:none" points="
  2260.02,1423.18 2260.02,123.472 
  "/>
<polyline clip-path="url(#clip360)" style="stroke:#000000; stroke-linecap:round; stroke-linejoin:round; stroke-width:4; stroke-opacity:1; fill:none" points="
  219.866,1423.18 2352.76,1423.18 
  "/>
<polyline clip-path="url(#clip360)" style="stroke:#000000; stroke-linecap:round; stroke-linejoin:round; stroke-width:4; stroke-opacity:1; fill:none" points="
  405.335,1423.18 405.335,1404.28 
  "/>
<polyline clip-path="url(#clip360)" style="stroke:#000000; stroke-linecap:round; stroke-linejoin:round; stroke-width:4; stroke-opacity:1; fill:none" points="
  590.804,1423.18 590.804,1404.28 
  "/>
<polyline clip-path="url(#clip360)" style="stroke:#000000; stroke-linecap:round; stroke-linejoin:round; stroke-width:4; stroke-opacity:1; fill:none" points="
  776.272,1423.18 776.272,1404.28 
  "/>
<polyline clip-path="url(#clip360)" style="stroke:#000000; stroke-linecap:round; stroke-linejoin:round; stroke-width:4; stroke-opacity:1; fill:none" points="
  961.741,1423.18 961.741,1404.28 
  "/>
<polyline clip-path="url(#clip360)" style="stroke:#000000; stroke-linecap:round; stroke-linejoin:round; stroke-width:4; stroke-opacity:1; fill:none" points="
  1147.21,1423.18 1147.21,1404.28 
  "/>
<polyline clip-path="url(#clip360)" style="stroke:#000000; stroke-linecap:round; stroke-linejoin:round; stroke-width:4; stroke-opacity:1; fill:none" points="
  1332.68,1423.18 1332.68,1404.28 
  "/>
<polyline clip-path="url(#clip360)" style="stroke:#000000; stroke-linecap:round; stroke-linejoin:round; stroke-width:4; stroke-opacity:1; fill:none" points="
  1518.15,1423.18 1518.15,1404.28 
  "/>
<polyline clip-path="url(#clip360)" style="stroke:#000000; stroke-linecap:round; stroke-linejoin:round; stroke-width:4; stroke-opacity:1; fill:none" points="
  1703.62,1423.18 1703.62,1404.28 
  "/>
<polyline clip-path="url(#clip360)" style="stroke:#000000; stroke-linecap:round; stroke-linejoin:round; stroke-width:4; stroke-opacity:1; fill:none" points="
  1889.08,1423.18 1889.08,1404.28 
  "/>
<polyline clip-path="url(#clip360)" style="stroke:#000000; stroke-linecap:round; stroke-linejoin:round; stroke-width:4; stroke-opacity:1; fill:none" points="
  2074.55,1423.18 2074.55,1404.28 
  "/>
<polyline clip-path="url(#clip360)" style="stroke:#000000; stroke-linecap:round; stroke-linejoin:round; stroke-width:4; stroke-opacity:1; fill:none" points="
  2260.02,1423.18 2260.02,1404.28 
  "/>
<path clip-path="url(#clip360)" d="M395.717 1481.64 L403.356 1481.64 L403.356 1455.28 L395.046 1456.95 L395.046 1452.69 L403.309 1451.02 L407.985 1451.02 L407.985 1481.64 L415.624 1481.64 L415.624 1485.58 L395.717 1485.58 L395.717 1481.64 Z" fill="#000000" fill-rule="evenodd" fill-opacity="1" /><path clip-path="url(#clip360)" d="M595.051 1466.95 Q598.408 1467.66 600.283 1469.93 Q602.181 1472.2 602.181 1475.53 Q602.181 1480.65 598.662 1483.45 Q595.144 1486.25 588.662 1486.25 Q586.486 1486.25 584.172 1485.81 Q581.88 1485.39 579.426 1484.54 L579.426 1480.02 Q581.371 1481.16 583.686 1481.74 Q586 1482.32 588.524 1482.32 Q592.922 1482.32 595.213 1480.58 Q597.528 1478.84 597.528 1475.53 Q597.528 1472.48 595.375 1470.77 Q593.246 1469.03 589.426 1469.03 L585.399 1469.03 L585.399 1465.19 L589.611 1465.19 Q593.061 1465.19 594.889 1463.82 Q596.718 1462.43 596.718 1459.84 Q596.718 1457.18 594.82 1455.77 Q592.945 1454.33 589.426 1454.33 Q587.505 1454.33 585.306 1454.75 Q583.107 1455.16 580.468 1456.04 L580.468 1451.88 Q583.13 1451.14 585.445 1450.77 Q587.783 1450.39 589.843 1450.39 Q595.167 1450.39 598.269 1452.83 Q601.371 1455.23 601.371 1459.35 Q601.371 1462.22 599.727 1464.21 Q598.084 1466.18 595.051 1466.95 Z" fill="#000000" fill-rule="evenodd" fill-opacity="1" /><path clip-path="url(#clip360)" d="M766.55 1451.02 L784.906 1451.02 L784.906 1454.96 L770.832 1454.96 L770.832 1463.43 Q771.851 1463.08 772.869 1462.92 Q773.888 1462.73 774.907 1462.73 Q780.694 1462.73 784.073 1465.9 Q787.453 1469.08 787.453 1474.49 Q787.453 1480.07 783.981 1483.17 Q780.508 1486.25 774.189 1486.25 Q772.013 1486.25 769.745 1485.88 Q767.499 1485.51 765.092 1484.77 L765.092 1480.07 Q767.175 1481.2 769.397 1481.76 Q771.62 1482.32 774.096 1482.32 Q778.101 1482.32 780.439 1480.21 Q782.777 1478.1 782.777 1474.49 Q782.777 1470.88 780.439 1468.77 Q778.101 1466.67 774.096 1466.67 Q772.221 1466.67 770.346 1467.08 Q768.495 1467.5 766.55 1468.38 L766.55 1451.02 Z" fill="#000000" fill-rule="evenodd" fill-opacity="1" /><path clip-path="url(#clip360)" d="M950.63 1451.02 L972.852 1451.02 L972.852 1453.01 L960.306 1485.58 L955.422 1485.58 L967.227 1454.96 L950.63 1454.96 L950.63 1451.02 Z" fill="#000000" fill-rule="evenodd" fill-opacity="1" /><path clip-path="url(#clip360)" d="M1137.51 1484.86 L1137.51 1480.6 Q1139.27 1481.44 1141.08 1481.88 Q1142.88 1482.32 1144.62 1482.32 Q1149.25 1482.32 1151.68 1479.21 Q1154.13 1476.09 1154.48 1469.75 Q1153.14 1471.74 1151.08 1472.8 Q1149.02 1473.87 1146.52 1473.87 Q1141.33 1473.87 1138.3 1470.74 Q1135.29 1467.59 1135.29 1462.15 Q1135.29 1456.83 1138.44 1453.61 Q1141.58 1450.39 1146.82 1450.39 Q1152.81 1450.39 1155.96 1455 Q1159.13 1459.58 1159.13 1468.33 Q1159.13 1476.51 1155.24 1481.39 Q1151.38 1486.25 1144.83 1486.25 Q1143.07 1486.25 1141.26 1485.9 Q1139.45 1485.56 1137.51 1484.86 M1146.82 1470.21 Q1149.96 1470.21 1151.79 1468.06 Q1153.64 1465.9 1153.64 1462.15 Q1153.64 1458.43 1151.79 1456.27 Q1149.96 1454.1 1146.82 1454.1 Q1143.67 1454.1 1141.82 1456.27 Q1139.99 1458.43 1139.99 1462.15 Q1139.99 1465.9 1141.82 1468.06 Q1143.67 1470.21 1146.82 1470.21 Z" fill="#000000" fill-rule="evenodd" fill-opacity="1" /><path clip-path="url(#clip360)" d="M1307.98 1481.64 L1315.62 1481.64 L1315.62 1455.28 L1307.31 1456.95 L1307.31 1452.69 L1315.57 1451.02 L1320.25 1451.02 L1320.25 1481.64 L1327.89 1481.64 L1327.89 1485.58 L1307.98 1485.58 L1307.98 1481.64 Z" fill="#000000" fill-rule="evenodd" fill-opacity="1" /><path clip-path="url(#clip360)" d="M1338.14 1481.64 L1345.78 1481.64 L1345.78 1455.28 L1337.47 1456.95 L1337.47 1452.69 L1345.73 1451.02 L1350.41 1451.02 L1350.41 1481.64 L1358.05 1481.64 L1358.05 1485.58 L1338.14 1485.58 L1338.14 1481.64 Z" fill="#000000" fill-rule="evenodd" fill-opacity="1" /><path clip-path="url(#clip360)" d="M1493.16 1481.64 L1500.8 1481.64 L1500.8 1455.28 L1492.49 1456.95 L1492.49 1452.69 L1500.75 1451.02 L1505.43 1451.02 L1505.43 1481.64 L1513.07 1481.64 L1513.07 1485.58 L1493.16 1485.58 L1493.16 1481.64 Z" fill="#000000" fill-rule="evenodd" fill-opacity="1" /><path clip-path="url(#clip360)" d="M1536.68 1466.95 Q1540.03 1467.66 1541.91 1469.93 Q1543.81 1472.2 1543.81 1475.53 Q1543.81 1480.65 1540.29 1483.45 Q1536.77 1486.25 1530.29 1486.25 Q1528.11 1486.25 1525.8 1485.81 Q1523.51 1485.39 1521.05 1484.54 L1521.05 1480.02 Q1523 1481.16 1525.31 1481.74 Q1527.63 1482.32 1530.15 1482.32 Q1534.55 1482.32 1536.84 1480.58 Q1539.15 1478.84 1539.15 1475.53 Q1539.15 1472.48 1537 1470.77 Q1534.87 1469.03 1531.05 1469.03 L1527.02 1469.03 L1527.02 1465.19 L1531.24 1465.19 Q1534.69 1465.19 1536.51 1463.82 Q1538.34 1462.43 1538.34 1459.84 Q1538.34 1457.18 1536.45 1455.77 Q1534.57 1454.33 1531.05 1454.33 Q1529.13 1454.33 1526.93 1454.75 Q1524.73 1455.16 1522.09 1456.04 L1522.09 1451.88 Q1524.76 1451.14 1527.07 1450.77 Q1529.41 1450.39 1531.47 1450.39 Q1536.79 1450.39 1539.89 1452.83 Q1543 1455.23 1543 1459.35 Q1543 1462.22 1541.35 1464.21 Q1539.71 1466.18 1536.68 1466.95 Z" fill="#000000" fill-rule="evenodd" fill-opacity="1" /><path clip-path="url(#clip360)" d="M1678.8 1481.64 L1686.44 1481.64 L1686.44 1455.28 L1678.13 1456.95 L1678.13 1452.69 L1686.39 1451.02 L1691.07 1451.02 L1691.07 1481.64 L1698.71 1481.64 L1698.71 1485.58 L1678.8 1485.58 L1678.8 1481.64 Z" fill="#000000" fill-rule="evenodd" fill-opacity="1" /><path clip-path="url(#clip360)" d="M1708.2 1451.02 L1726.56 1451.02 L1726.56 1454.96 L1712.48 1454.96 L1712.48 1463.43 Q1713.5 1463.08 1714.52 1462.92 Q1715.54 1462.73 1716.56 1462.73 Q1722.34 1462.73 1725.72 1465.9 Q1729.1 1469.08 1729.1 1474.49 Q1729.1 1480.07 1725.63 1483.17 Q1722.16 1486.25 1715.84 1486.25 Q1713.66 1486.25 1711.39 1485.88 Q1709.15 1485.51 1706.74 1484.77 L1706.74 1480.07 Q1708.82 1481.2 1711.05 1481.76 Q1713.27 1482.32 1715.75 1482.32 Q1719.75 1482.32 1722.09 1480.21 Q1724.43 1478.1 1724.43 1474.49 Q1724.43 1470.88 1722.09 1468.77 Q1719.75 1466.67 1715.75 1466.67 Q1713.87 1466.67 1712 1467.08 Q1710.14 1467.5 1708.2 1468.38 L1708.2 1451.02 Z" fill="#000000" fill-rule="evenodd" fill-opacity="1" /><path clip-path="url(#clip360)" d="M1864.22 1481.64 L1871.86 1481.64 L1871.86 1455.28 L1863.55 1456.95 L1863.55 1452.69 L1871.82 1451.02 L1876.49 1451.02 L1876.49 1481.64 L1884.13 1481.64 L1884.13 1485.58 L1864.22 1485.58 L1864.22 1481.64 Z" fill="#000000" fill-rule="evenodd" fill-opacity="1" /><path clip-path="url(#clip360)" d="M1892.39 1451.02 L1914.62 1451.02 L1914.62 1453.01 L1902.07 1485.58 L1897.19 1485.58 L1908.99 1454.96 L1892.39 1454.96 L1892.39 1451.02 Z" fill="#000000" fill-rule="evenodd" fill-opacity="1" /><path clip-path="url(#clip360)" d="M2049.33 1481.64 L2056.97 1481.64 L2056.97 1455.28 L2048.66 1456.95 L2048.66 1452.69 L2056.93 1451.02 L2061.6 1451.02 L2061.6 1481.64 L2069.24 1481.64 L2069.24 1485.58 L2049.33 1485.58 L2049.33 1481.64 Z" fill="#000000" fill-rule="evenodd" fill-opacity="1" /><path clip-path="url(#clip360)" d="M2078.82 1484.86 L2078.82 1480.6 Q2080.58 1481.44 2082.39 1481.88 Q2084.19 1482.32 2085.93 1482.32 Q2090.56 1482.32 2092.99 1479.21 Q2095.44 1476.09 2095.79 1469.75 Q2094.45 1471.74 2092.39 1472.8 Q2090.33 1473.87 2087.83 1473.87 Q2082.64 1473.87 2079.61 1470.74 Q2076.6 1467.59 2076.6 1462.15 Q2076.6 1456.83 2079.75 1453.61 Q2082.9 1450.39 2088.13 1450.39 Q2094.12 1450.39 2097.27 1455 Q2100.44 1459.58 2100.44 1468.33 Q2100.44 1476.51 2096.56 1481.39 Q2092.69 1486.25 2086.14 1486.25 Q2084.38 1486.25 2082.57 1485.9 Q2080.77 1485.56 2078.82 1484.86 M2088.13 1470.21 Q2091.28 1470.21 2093.11 1468.06 Q2094.96 1465.9 2094.96 1462.15 Q2094.96 1458.43 2093.11 1456.27 Q2091.28 1454.1 2088.13 1454.1 Q2084.98 1454.1 2083.13 1456.27 Q2081.3 1458.43 2081.3 1462.15 Q2081.3 1465.9 2083.13 1468.06 Q2084.98 1470.21 2088.13 1470.21 Z" fill="#000000" fill-rule="evenodd" fill-opacity="1" /><path clip-path="url(#clip360)" d="M2239.41 1481.64 L2255.73 1481.64 L2255.73 1485.58 L2233.78 1485.58 L2233.78 1481.64 Q2236.45 1478.89 2241.03 1474.26 Q2245.64 1469.61 2246.82 1468.27 Q2249.06 1465.74 2249.94 1464.01 Q2250.84 1462.25 2250.84 1460.56 Q2250.84 1457.8 2248.9 1456.07 Q2246.98 1454.33 2243.88 1454.33 Q2241.68 1454.33 2239.22 1455.09 Q2236.79 1455.86 2234.01 1457.41 L2234.01 1452.69 Q2236.84 1451.55 2239.29 1450.97 Q2241.75 1450.39 2243.78 1450.39 Q2249.15 1450.39 2252.35 1453.08 Q2255.54 1455.77 2255.54 1460.26 Q2255.54 1462.39 2254.73 1464.31 Q2253.95 1466.2 2251.84 1468.8 Q2251.26 1469.47 2248.16 1472.69 Q2245.06 1475.88 2239.41 1481.64 Z" fill="#000000" fill-rule="evenodd" fill-opacity="1" /><path clip-path="url(#clip360)" d="M2266.35 1481.64 L2273.99 1481.64 L2273.99 1455.28 L2265.68 1456.95 L2265.68 1452.69 L2273.95 1451.02 L2278.62 1451.02 L2278.62 1481.64 L2286.26 1481.64 L2286.26 1485.58 L2266.35 1485.58 L2266.35 1481.64 Z" fill="#000000" fill-rule="evenodd" fill-opacity="1" /><path clip-path="url(#clip360)" d="M1115.18 1522.08 L1115.18 1528.35 Q1111.52 1526.6 1108.28 1525.74 Q1105.03 1524.88 1102.01 1524.88 Q1096.76 1524.88 1093.89 1526.92 Q1091.06 1528.96 1091.06 1532.71 Q1091.06 1535.87 1092.94 1537.49 Q1094.85 1539.08 1100.13 1540.07 L1104.01 1540.86 Q1111.21 1542.23 1114.61 1545.7 Q1118.05 1549.14 1118.05 1554.93 Q1118.05 1561.84 1113.4 1565.4 Q1108.79 1568.97 1099.84 1568.97 Q1096.47 1568.97 1092.65 1568.2 Q1088.86 1567.44 1084.79 1565.94 L1084.79 1559.32 Q1088.7 1561.52 1092.46 1562.63 Q1096.22 1563.75 1099.84 1563.75 Q1105.35 1563.75 1108.34 1561.58 Q1111.33 1559.42 1111.33 1555.41 Q1111.33 1551.91 1109.17 1549.93 Q1107.04 1547.96 1102.14 1546.97 L1098.22 1546.21 Q1091.03 1544.78 1087.81 1541.72 Q1084.6 1538.67 1084.6 1533.22 Q1084.6 1526.92 1089.02 1523.29 Q1093.48 1519.66 1101.28 1519.66 Q1104.62 1519.66 1108.09 1520.27 Q1111.56 1520.87 1115.18 1522.08 Z" fill="#000000" fill-rule="evenodd" fill-opacity="1" /><path clip-path="url(#clip360)" d="M1127.82 1532.4 L1133.68 1532.4 L1133.68 1568.04 L1127.82 1568.04 L1127.82 1532.4 M1127.82 1518.52 L1133.68 1518.52 L1133.68 1525.93 L1127.82 1525.93 L1127.82 1518.52 Z" fill="#000000" fill-rule="evenodd" fill-opacity="1" /><path clip-path="url(#clip360)" d="M1151.72 1522.27 L1151.72 1532.4 L1163.79 1532.4 L1163.79 1536.95 L1151.72 1536.95 L1151.72 1556.3 Q1151.72 1560.66 1152.9 1561.9 Q1154.11 1563.14 1157.77 1563.14 L1163.79 1563.14 L1163.79 1568.04 L1157.77 1568.04 Q1150.99 1568.04 1148.41 1565.53 Q1145.84 1562.98 1145.84 1556.3 L1145.84 1536.95 L1141.54 1536.95 L1141.54 1532.4 L1145.84 1532.4 L1145.84 1522.27 L1151.72 1522.27 Z" fill="#000000" fill-rule="evenodd" fill-opacity="1" /><path clip-path="url(#clip360)" d="M1201.98 1548.76 L1201.98 1551.62 L1175.05 1551.62 Q1175.44 1557.67 1178.68 1560.85 Q1181.96 1564 1187.79 1564 Q1191.16 1564 1194.31 1563.17 Q1197.49 1562.35 1200.61 1560.69 L1200.61 1566.23 Q1197.46 1567.57 1194.15 1568.27 Q1190.84 1568.97 1187.44 1568.97 Q1178.91 1568.97 1173.91 1564 Q1168.94 1559.04 1168.94 1550.57 Q1168.94 1541.82 1173.65 1536.69 Q1178.4 1531.54 1186.42 1531.54 Q1193.61 1531.54 1197.78 1536.18 Q1201.98 1540.8 1201.98 1548.76 M1196.12 1547.04 Q1196.06 1542.23 1193.42 1539.37 Q1190.81 1536.5 1186.48 1536.5 Q1181.58 1536.5 1178.62 1539.27 Q1175.69 1542.04 1175.25 1547.07 L1196.12 1547.04 Z" fill="#000000" fill-rule="evenodd" fill-opacity="1" /><path clip-path="url(#clip360)" d="M1232.57 1520.52 L1241.23 1520.52 L1262.3 1560.28 L1262.3 1520.52 L1268.53 1520.52 L1268.53 1568.04 L1259.88 1568.04 L1238.81 1528.29 L1238.81 1568.04 L1232.57 1568.04 L1232.57 1520.52 Z" fill="#000000" fill-rule="evenodd" fill-opacity="1" /><path clip-path="url(#clip360)" d="M1280.47 1553.98 L1280.47 1532.4 L1286.33 1532.4 L1286.33 1553.75 Q1286.33 1558.81 1288.3 1561.36 Q1290.27 1563.87 1294.22 1563.87 Q1298.96 1563.87 1301.7 1560.85 Q1304.47 1557.83 1304.47 1552.61 L1304.47 1532.4 L1310.33 1532.4 L1310.33 1568.04 L1304.47 1568.04 L1304.47 1562.57 Q1302.34 1565.82 1299.5 1567.41 Q1296.7 1568.97 1292.98 1568.97 Q1286.84 1568.97 1283.65 1565.15 Q1280.47 1561.33 1280.47 1553.98 M1295.21 1531.54 L1295.21 1531.54 Z" fill="#000000" fill-rule="evenodd" fill-opacity="1" /><path clip-path="url(#clip360)" d="M1350.14 1539.24 Q1352.34 1535.29 1355.39 1533.41 Q1358.45 1531.54 1362.59 1531.54 Q1368.16 1531.54 1371.18 1535.45 Q1374.21 1539.33 1374.21 1546.53 L1374.21 1568.04 L1368.32 1568.04 L1368.32 1546.72 Q1368.32 1541.59 1366.5 1539.11 Q1364.69 1536.63 1360.96 1536.63 Q1356.41 1536.63 1353.77 1539.65 Q1351.13 1542.68 1351.13 1547.9 L1351.13 1568.04 L1345.24 1568.04 L1345.24 1546.72 Q1345.24 1541.56 1343.43 1539.11 Q1341.61 1536.63 1337.83 1536.63 Q1333.34 1536.63 1330.7 1539.68 Q1328.05 1542.71 1328.05 1547.9 L1328.05 1568.04 L1322.17 1568.04 L1322.17 1532.4 L1328.05 1532.4 L1328.05 1537.93 Q1330.06 1534.66 1332.86 1533.1 Q1335.66 1531.54 1339.51 1531.54 Q1343.4 1531.54 1346.1 1533.51 Q1348.84 1535.48 1350.14 1539.24 Z" fill="#000000" fill-rule="evenodd" fill-opacity="1" /><path clip-path="url(#clip360)" d="M1411.48 1550.25 Q1411.48 1543.79 1408.8 1540.13 Q1406.16 1536.44 1401.51 1536.44 Q1396.87 1536.44 1394.19 1540.13 Q1391.55 1543.79 1391.55 1550.25 Q1391.55 1556.71 1394.19 1560.4 Q1396.87 1564.07 1401.51 1564.07 Q1406.16 1564.07 1408.8 1560.4 Q1411.48 1556.71 1411.48 1550.25 M1391.55 1537.81 Q1393.4 1534.62 1396.2 1533.1 Q1399.03 1531.54 1402.95 1531.54 Q1409.44 1531.54 1413.48 1536.69 Q1417.56 1541.85 1417.56 1550.25 Q1417.56 1558.65 1413.48 1563.81 Q1409.44 1568.97 1402.95 1568.97 Q1399.03 1568.97 1396.2 1567.44 Q1393.4 1565.88 1391.55 1562.7 L1391.55 1568.04 L1385.66 1568.04 L1385.66 1518.52 L1391.55 1518.52 L1391.55 1537.81 Z" fill="#000000" fill-rule="evenodd" fill-opacity="1" /><path clip-path="url(#clip360)" d="M1457.76 1548.76 L1457.76 1551.62 L1430.83 1551.62 Q1431.21 1557.67 1434.46 1560.85 Q1437.74 1564 1443.56 1564 Q1446.93 1564 1450.08 1563.17 Q1453.27 1562.35 1456.39 1560.69 L1456.39 1566.23 Q1453.24 1567.57 1449.93 1568.27 Q1446.62 1568.97 1443.21 1568.97 Q1434.68 1568.97 1429.68 1564 Q1424.72 1559.04 1424.72 1550.57 Q1424.72 1541.82 1429.43 1536.69 Q1434.17 1531.54 1442.19 1531.54 Q1449.38 1531.54 1453.55 1536.18 Q1457.76 1540.8 1457.76 1548.76 M1451.9 1547.04 Q1451.84 1542.23 1449.19 1539.37 Q1446.58 1536.5 1442.25 1536.5 Q1437.35 1536.5 1434.39 1539.27 Q1431.47 1542.04 1431.02 1547.07 L1451.9 1547.04 Z" fill="#000000" fill-rule="evenodd" fill-opacity="1" /><path clip-path="url(#clip360)" d="M1488.02 1537.87 Q1487.04 1537.3 1485.86 1537.04 Q1484.71 1536.76 1483.31 1536.76 Q1478.35 1536.76 1475.67 1540 Q1473.03 1543.22 1473.03 1549.27 L1473.03 1568.04 L1467.14 1568.04 L1467.14 1532.4 L1473.03 1532.4 L1473.03 1537.93 Q1474.88 1534.69 1477.84 1533.13 Q1480.8 1531.54 1485.03 1531.54 Q1485.64 1531.54 1486.37 1531.63 Q1487.1 1531.7 1487.99 1531.85 L1488.02 1537.87 Z" fill="#000000" fill-rule="evenodd" fill-opacity="1" /><polyline clip-path="url(#clip362)" style="stroke:#000000; stroke-linecap:round; stroke-linejoin:round; stroke-width:2; stroke-opacity:0.1; fill:none" points="
  219.866,1423.18 2352.76,1423.18 
  "/>
<polyline clip-path="url(#clip362)" style="stroke:#000000; stroke-linecap:round; stroke-linejoin:round; stroke-width:2; stroke-opacity:0.1; fill:none" points="
  219.866,1278.77 2352.76,1278.77 
  "/>
<polyline clip-path="url(#clip362)" style="stroke:#000000; stroke-linecap:round; stroke-linejoin:round; stroke-width:2; stroke-opacity:0.1; fill:none" points="
  219.866,1134.36 2352.76,1134.36 
  "/>
<polyline clip-path="url(#clip362)" style="stroke:#000000; stroke-linecap:round; stroke-linejoin:round; stroke-width:2; stroke-opacity:0.1; fill:none" points="
  219.866,989.944 2352.76,989.944 
  "/>
<polyline clip-path="url(#clip362)" style="stroke:#000000; stroke-linecap:round; stroke-linejoin:round; stroke-width:2; stroke-opacity:0.1; fill:none" points="
  219.866,845.532 2352.76,845.532 
  "/>
<polyline clip-path="url(#clip362)" style="stroke:#000000; stroke-linecap:round; stroke-linejoin:round; stroke-width:2; stroke-opacity:0.1; fill:none" points="
  219.866,701.12 2352.76,701.12 
  "/>
<polyline clip-path="url(#clip362)" style="stroke:#000000; stroke-linecap:round; stroke-linejoin:round; stroke-width:2; stroke-opacity:0.1; fill:none" points="
  219.866,556.708 2352.76,556.708 
  "/>
<polyline clip-path="url(#clip362)" style="stroke:#000000; stroke-linecap:round; stroke-linejoin:round; stroke-width:2; stroke-opacity:0.1; fill:none" points="
  219.866,412.296 2352.76,412.296 
  "/>
<polyline clip-path="url(#clip362)" style="stroke:#000000; stroke-linecap:round; stroke-linejoin:round; stroke-width:2; stroke-opacity:0.1; fill:none" points="
  219.866,267.884 2352.76,267.884 
  "/>
<polyline clip-path="url(#clip360)" style="stroke:#000000; stroke-linecap:round; stroke-linejoin:round; stroke-width:4; stroke-opacity:1; fill:none" points="
  219.866,1423.18 219.866,123.472 
  "/>
<polyline clip-path="url(#clip360)" style="stroke:#000000; stroke-linecap:round; stroke-linejoin:round; stroke-width:4; stroke-opacity:1; fill:none" points="
  219.866,1423.18 238.764,1423.18 
  "/>
<polyline clip-path="url(#clip360)" style="stroke:#000000; stroke-linecap:round; stroke-linejoin:round; stroke-width:4; stroke-opacity:1; fill:none" points="
  219.866,1278.77 238.764,1278.77 
  "/>
<polyline clip-path="url(#clip360)" style="stroke:#000000; stroke-linecap:round; stroke-linejoin:round; stroke-width:4; stroke-opacity:1; fill:none" points="
  219.866,1134.36 238.764,1134.36 
  "/>
<polyline clip-path="url(#clip360)" style="stroke:#000000; stroke-linecap:round; stroke-linejoin:round; stroke-width:4; stroke-opacity:1; fill:none" points="
  219.866,989.944 238.764,989.944 
  "/>
<polyline clip-path="url(#clip360)" style="stroke:#000000; stroke-linecap:round; stroke-linejoin:round; stroke-width:4; stroke-opacity:1; fill:none" points="
  219.866,845.532 238.764,845.532 
  "/>
<polyline clip-path="url(#clip360)" style="stroke:#000000; stroke-linecap:round; stroke-linejoin:round; stroke-width:4; stroke-opacity:1; fill:none" points="
  219.866,701.12 238.764,701.12 
  "/>
<polyline clip-path="url(#clip360)" style="stroke:#000000; stroke-linecap:round; stroke-linejoin:round; stroke-width:4; stroke-opacity:1; fill:none" points="
  219.866,556.708 238.764,556.708 
  "/>
<polyline clip-path="url(#clip360)" style="stroke:#000000; stroke-linecap:round; stroke-linejoin:round; stroke-width:4; stroke-opacity:1; fill:none" points="
  219.866,412.296 238.764,412.296 
  "/>
<polyline clip-path="url(#clip360)" style="stroke:#000000; stroke-linecap:round; stroke-linejoin:round; stroke-width:4; stroke-opacity:1; fill:none" points="
  219.866,267.884 238.764,267.884 
  "/>
<path clip-path="url(#clip360)" d="M127.917 1408.98 Q124.306 1408.98 122.478 1412.54 Q120.672 1416.08 120.672 1423.21 Q120.672 1430.32 122.478 1433.89 Q124.306 1437.43 127.917 1437.43 Q131.552 1437.43 133.357 1433.89 Q135.186 1430.32 135.186 1423.21 Q135.186 1416.08 133.357 1412.54 Q131.552 1408.98 127.917 1408.98 M127.917 1405.27 Q133.728 1405.27 136.783 1409.88 Q139.862 1414.46 139.862 1423.21 Q139.862 1431.94 136.783 1436.55 Q133.728 1441.13 127.917 1441.13 Q122.107 1441.13 119.029 1436.55 Q115.973 1431.94 115.973 1423.21 Q115.973 1414.46 119.029 1409.88 Q122.107 1405.27 127.917 1405.27 Z" fill="#000000" fill-rule="evenodd" fill-opacity="1" /><path clip-path="url(#clip360)" d="M148.079 1434.58 L152.964 1434.58 L152.964 1440.46 L148.079 1440.46 L148.079 1434.58 Z" fill="#000000" fill-rule="evenodd" fill-opacity="1" /><path clip-path="url(#clip360)" d="M163.959 1436.52 L171.598 1436.52 L171.598 1410.16 L163.288 1411.83 L163.288 1407.57 L171.552 1405.9 L176.227 1405.9 L176.227 1436.52 L183.866 1436.52 L183.866 1440.46 L163.959 1440.46 L163.959 1436.52 Z" fill="#000000" fill-rule="evenodd" fill-opacity="1" /><path clip-path="url(#clip360)" d="M128.288 1264.57 Q124.677 1264.57 122.848 1268.13 Q121.043 1271.67 121.043 1278.8 Q121.043 1285.91 122.848 1289.47 Q124.677 1293.02 128.288 1293.02 Q131.922 1293.02 133.728 1289.47 Q135.556 1285.91 135.556 1278.8 Q135.556 1271.67 133.728 1268.13 Q131.922 1264.57 128.288 1264.57 M128.288 1260.86 Q134.098 1260.86 137.154 1265.47 Q140.232 1270.05 140.232 1278.8 Q140.232 1287.53 137.154 1292.14 Q134.098 1296.72 128.288 1296.72 Q122.478 1296.72 119.399 1292.14 Q116.343 1287.53 116.343 1278.8 Q116.343 1270.05 119.399 1265.47 Q122.478 1260.86 128.288 1260.86 Z" fill="#000000" fill-rule="evenodd" fill-opacity="1" /><path clip-path="url(#clip360)" d="M148.45 1290.17 L153.334 1290.17 L153.334 1296.05 L148.45 1296.05 L148.45 1290.17 Z" fill="#000000" fill-rule="evenodd" fill-opacity="1" /><path clip-path="url(#clip360)" d="M167.547 1292.11 L183.866 1292.11 L183.866 1296.05 L161.922 1296.05 L161.922 1292.11 Q164.584 1289.36 169.167 1284.73 Q173.774 1280.08 174.954 1278.73 Q177.2 1276.21 178.079 1274.47 Q178.982 1272.71 178.982 1271.02 Q178.982 1268.27 177.038 1266.53 Q175.116 1264.8 172.014 1264.8 Q169.815 1264.8 167.362 1265.56 Q164.931 1266.33 162.153 1267.88 L162.153 1263.15 Q164.977 1262.02 167.431 1261.44 Q169.885 1260.86 171.922 1260.86 Q177.292 1260.86 180.487 1263.55 Q183.681 1266.23 183.681 1270.72 Q183.681 1272.85 182.871 1274.77 Q182.084 1276.67 179.977 1279.27 Q179.399 1279.94 176.297 1283.15 Q173.195 1286.35 167.547 1292.11 Z" fill="#000000" fill-rule="evenodd" fill-opacity="1" /><path clip-path="url(#clip360)" d="M127.339 1120.15 Q123.728 1120.15 121.899 1123.72 Q120.093 1127.26 120.093 1134.39 Q120.093 1141.5 121.899 1145.06 Q123.728 1148.6 127.339 1148.6 Q130.973 1148.6 132.779 1145.06 Q134.607 1141.5 134.607 1134.39 Q134.607 1127.26 132.779 1123.72 Q130.973 1120.15 127.339 1120.15 M127.339 1116.45 Q133.149 1116.45 136.204 1121.06 Q139.283 1125.64 139.283 1134.39 Q139.283 1143.12 136.204 1147.72 Q133.149 1152.31 127.339 1152.31 Q121.529 1152.31 118.45 1147.72 Q115.394 1143.12 115.394 1134.39 Q115.394 1125.64 118.45 1121.06 Q121.529 1116.45 127.339 1116.45 Z" fill="#000000" fill-rule="evenodd" fill-opacity="1" /><path clip-path="url(#clip360)" d="M147.501 1145.76 L152.385 1145.76 L152.385 1151.64 L147.501 1151.64 L147.501 1145.76 Z" fill="#000000" fill-rule="evenodd" fill-opacity="1" /><path clip-path="url(#clip360)" d="M176.737 1133 Q180.093 1133.72 181.968 1135.99 Q183.866 1138.26 183.866 1141.59 Q183.866 1146.71 180.348 1149.51 Q176.829 1152.31 170.348 1152.31 Q168.172 1152.31 165.857 1151.87 Q163.565 1151.45 161.112 1150.59 L161.112 1146.08 Q163.056 1147.21 165.371 1147.79 Q167.686 1148.37 170.209 1148.37 Q174.607 1148.37 176.899 1146.64 Q179.214 1144.9 179.214 1141.59 Q179.214 1138.53 177.061 1136.82 Q174.931 1135.09 171.112 1135.09 L167.084 1135.09 L167.084 1131.24 L171.297 1131.24 Q174.746 1131.24 176.575 1129.88 Q178.403 1128.49 178.403 1125.9 Q178.403 1123.23 176.505 1121.82 Q174.63 1120.39 171.112 1120.39 Q169.19 1120.39 166.991 1120.8 Q164.792 1121.22 162.153 1122.1 L162.153 1117.93 Q164.815 1117.19 167.13 1116.82 Q169.468 1116.45 171.528 1116.45 Q176.852 1116.45 179.954 1118.88 Q183.056 1121.29 183.056 1125.41 Q183.056 1128.28 181.413 1130.27 Q179.769 1132.24 176.737 1133 Z" fill="#000000" fill-rule="evenodd" fill-opacity="1" /><path clip-path="url(#clip360)" d="M126.205 975.743 Q122.593 975.743 120.765 979.307 Q118.959 982.849 118.959 989.979 Q118.959 997.085 120.765 1000.65 Q122.593 1004.19 126.205 1004.19 Q129.839 1004.19 131.644 1000.65 Q133.473 997.085 133.473 989.979 Q133.473 982.849 131.644 979.307 Q129.839 975.743 126.205 975.743 M126.205 972.039 Q132.015 972.039 135.07 976.645 Q138.149 981.229 138.149 989.979 Q138.149 998.705 135.07 1003.31 Q132.015 1007.9 126.205 1007.9 Q120.394 1007.9 117.316 1003.31 Q114.26 998.705 114.26 989.979 Q114.26 981.229 117.316 976.645 Q120.394 972.039 126.205 972.039 Z" fill="#000000" fill-rule="evenodd" fill-opacity="1" /><path clip-path="url(#clip360)" d="M146.366 1001.34 L151.251 1001.34 L151.251 1007.22 L146.366 1007.22 L146.366 1001.34 Z" fill="#000000" fill-rule="evenodd" fill-opacity="1" /><path clip-path="url(#clip360)" d="M174.283 976.738 L162.477 995.187 L174.283 995.187 L174.283 976.738 M173.056 972.664 L178.936 972.664 L178.936 995.187 L183.866 995.187 L183.866 999.076 L178.936 999.076 L178.936 1007.22 L174.283 1007.22 L174.283 999.076 L158.681 999.076 L158.681 994.562 L173.056 972.664 Z" fill="#000000" fill-rule="evenodd" fill-opacity="1" /><path clip-path="url(#clip360)" d="M127.686 831.331 Q124.075 831.331 122.246 834.895 Q120.441 838.437 120.441 845.567 Q120.441 852.673 122.246 856.238 Q124.075 859.78 127.686 859.78 Q131.32 859.78 133.126 856.238 Q134.954 852.673 134.954 845.567 Q134.954 838.437 133.126 834.895 Q131.32 831.331 127.686 831.331 M127.686 827.627 Q133.496 827.627 136.552 832.233 Q139.63 836.817 139.63 845.567 Q139.63 854.293 136.552 858.9 Q133.496 863.483 127.686 863.483 Q121.876 863.483 118.797 858.9 Q115.742 854.293 115.742 845.567 Q115.742 836.817 118.797 832.233 Q121.876 827.627 127.686 827.627 Z" fill="#000000" fill-rule="evenodd" fill-opacity="1" /><path clip-path="url(#clip360)" d="M147.848 856.932 L152.732 856.932 L152.732 862.812 L147.848 862.812 L147.848 856.932 Z" fill="#000000" fill-rule="evenodd" fill-opacity="1" /><path clip-path="url(#clip360)" d="M162.964 828.252 L181.32 828.252 L181.32 832.187 L167.246 832.187 L167.246 840.659 Q168.264 840.312 169.283 840.15 Q170.302 839.965 171.32 839.965 Q177.107 839.965 180.487 843.136 Q183.866 846.307 183.866 851.724 Q183.866 857.303 180.394 860.405 Q176.922 863.483 170.602 863.483 Q168.427 863.483 166.158 863.113 Q163.913 862.743 161.505 862.002 L161.505 857.303 Q163.589 858.437 165.811 858.993 Q168.033 859.548 170.51 859.548 Q174.514 859.548 176.852 857.442 Q179.19 855.335 179.19 851.724 Q179.19 848.113 176.852 846.007 Q174.514 843.9 170.51 843.9 Q168.635 843.9 166.76 844.317 Q164.908 844.733 162.964 845.613 L162.964 828.252 Z" fill="#000000" fill-rule="evenodd" fill-opacity="1" /><path clip-path="url(#clip360)" d="M126.529 686.919 Q122.918 686.919 121.089 690.483 Q119.283 694.025 119.283 701.155 Q119.283 708.261 121.089 711.826 Q122.918 715.368 126.529 715.368 Q130.163 715.368 131.968 711.826 Q133.797 708.261 133.797 701.155 Q133.797 694.025 131.968 690.483 Q130.163 686.919 126.529 686.919 M126.529 683.215 Q132.339 683.215 135.394 687.821 Q138.473 692.405 138.473 701.155 Q138.473 709.882 135.394 714.488 Q132.339 719.071 126.529 719.071 Q120.718 719.071 117.64 714.488 Q114.584 709.882 114.584 701.155 Q114.584 692.405 117.64 687.821 Q120.718 683.215 126.529 683.215 Z" fill="#000000" fill-rule="evenodd" fill-opacity="1" /><path clip-path="url(#clip360)" d="M146.691 712.52 L151.575 712.52 L151.575 718.4 L146.691 718.4 L146.691 712.52 Z" fill="#000000" fill-rule="evenodd" fill-opacity="1" /><path clip-path="url(#clip360)" d="M172.339 699.257 Q169.19 699.257 167.339 701.409 Q165.51 703.562 165.51 707.312 Q165.51 711.039 167.339 713.215 Q169.19 715.368 172.339 715.368 Q175.487 715.368 177.315 713.215 Q179.167 711.039 179.167 707.312 Q179.167 703.562 177.315 701.409 Q175.487 699.257 172.339 699.257 M181.621 684.604 L181.621 688.863 Q179.862 688.03 178.056 687.59 Q176.274 687.15 174.514 687.15 Q169.885 687.15 167.431 690.275 Q165.001 693.4 164.653 699.72 Q166.019 697.706 168.079 696.641 Q170.139 695.553 172.616 695.553 Q177.825 695.553 180.834 698.724 Q183.866 701.872 183.866 707.312 Q183.866 712.636 180.718 715.854 Q177.57 719.071 172.339 719.071 Q166.343 719.071 163.172 714.488 Q160.001 709.882 160.001 701.155 Q160.001 692.96 163.89 688.099 Q167.778 683.215 174.329 683.215 Q176.089 683.215 177.871 683.562 Q179.676 683.909 181.621 684.604 Z" fill="#000000" fill-rule="evenodd" fill-opacity="1" /><path clip-path="url(#clip360)" d="M127.593 542.507 Q123.982 542.507 122.154 546.072 Q120.348 549.613 120.348 556.743 Q120.348 563.849 122.154 567.414 Q123.982 570.956 127.593 570.956 Q131.228 570.956 133.033 567.414 Q134.862 563.849 134.862 556.743 Q134.862 549.613 133.033 546.072 Q131.228 542.507 127.593 542.507 M127.593 538.803 Q133.404 538.803 136.459 543.409 Q139.538 547.993 139.538 556.743 Q139.538 565.47 136.459 570.076 Q133.404 574.659 127.593 574.659 Q121.783 574.659 118.705 570.076 Q115.649 565.47 115.649 556.743 Q115.649 547.993 118.705 543.409 Q121.783 538.803 127.593 538.803 Z" fill="#000000" fill-rule="evenodd" fill-opacity="1" /><path clip-path="url(#clip360)" d="M147.755 568.108 L152.64 568.108 L152.64 573.988 L147.755 573.988 L147.755 568.108 Z" fill="#000000" fill-rule="evenodd" fill-opacity="1" /><path clip-path="url(#clip360)" d="M161.644 539.428 L183.866 539.428 L183.866 541.419 L171.32 573.988 L166.436 573.988 L178.241 543.363 L161.644 543.363 L161.644 539.428 Z" fill="#000000" fill-rule="evenodd" fill-opacity="1" /><path clip-path="url(#clip360)" d="M126.783 398.095 Q123.172 398.095 121.343 401.66 Q119.538 405.201 119.538 412.331 Q119.538 419.437 121.343 423.002 Q123.172 426.544 126.783 426.544 Q130.417 426.544 132.223 423.002 Q134.052 419.437 134.052 412.331 Q134.052 405.201 132.223 401.66 Q130.417 398.095 126.783 398.095 M126.783 394.391 Q132.593 394.391 135.649 398.998 Q138.728 403.581 138.728 412.331 Q138.728 421.058 135.649 425.664 Q132.593 430.247 126.783 430.247 Q120.973 430.247 117.894 425.664 Q114.839 421.058 114.839 412.331 Q114.839 403.581 117.894 398.998 Q120.973 394.391 126.783 394.391 Z" fill="#000000" fill-rule="evenodd" fill-opacity="1" /><path clip-path="url(#clip360)" d="M146.945 423.696 L151.829 423.696 L151.829 429.576 L146.945 429.576 L146.945 423.696 Z" fill="#000000" fill-rule="evenodd" fill-opacity="1" /><path clip-path="url(#clip360)" d="M172.014 413.164 Q168.681 413.164 166.76 414.947 Q164.862 416.729 164.862 419.854 Q164.862 422.979 166.76 424.761 Q168.681 426.544 172.014 426.544 Q175.348 426.544 177.269 424.761 Q179.19 422.956 179.19 419.854 Q179.19 416.729 177.269 414.947 Q175.371 413.164 172.014 413.164 M167.339 411.173 Q164.329 410.433 162.64 408.372 Q160.973 406.312 160.973 403.349 Q160.973 399.206 163.913 396.798 Q166.876 394.391 172.014 394.391 Q177.176 394.391 180.116 396.798 Q183.056 399.206 183.056 403.349 Q183.056 406.312 181.366 408.372 Q179.7 410.433 176.714 411.173 Q180.093 411.96 181.968 414.252 Q183.866 416.544 183.866 419.854 Q183.866 424.877 180.788 427.562 Q177.732 430.247 172.014 430.247 Q166.297 430.247 163.218 427.562 Q160.163 424.877 160.163 419.854 Q160.163 416.544 162.061 414.252 Q163.959 411.96 167.339 411.173 M165.626 403.789 Q165.626 406.474 167.292 407.979 Q168.982 409.484 172.014 409.484 Q175.024 409.484 176.714 407.979 Q178.426 406.474 178.426 403.789 Q178.426 401.104 176.714 399.599 Q175.024 398.095 172.014 398.095 Q168.982 398.095 167.292 399.599 Q165.626 401.104 165.626 403.789 Z" fill="#000000" fill-rule="evenodd" fill-opacity="1" /><path clip-path="url(#clip360)" d="M126.876 253.683 Q123.265 253.683 121.436 257.248 Q119.63 260.789 119.63 267.919 Q119.63 275.025 121.436 278.59 Q123.265 282.132 126.876 282.132 Q130.51 282.132 132.316 278.59 Q134.144 275.025 134.144 267.919 Q134.144 260.789 132.316 257.248 Q130.51 253.683 126.876 253.683 M126.876 249.979 Q132.686 249.979 135.742 254.586 Q138.82 259.169 138.82 267.919 Q138.82 276.646 135.742 281.252 Q132.686 285.835 126.876 285.835 Q121.066 285.835 117.987 281.252 Q114.931 276.646 114.931 267.919 Q114.931 259.169 117.987 254.586 Q121.066 249.979 126.876 249.979 Z" fill="#000000" fill-rule="evenodd" fill-opacity="1" /><path clip-path="url(#clip360)" d="M147.038 279.284 L151.922 279.284 L151.922 285.164 L147.038 285.164 L147.038 279.284 Z" fill="#000000" fill-rule="evenodd" fill-opacity="1" /><path clip-path="url(#clip360)" d="M162.246 284.447 L162.246 280.187 Q164.005 281.021 165.811 281.46 Q167.616 281.9 169.352 281.9 Q173.982 281.9 176.413 278.798 Q178.866 275.673 179.214 269.331 Q177.871 271.322 175.811 272.386 Q173.751 273.451 171.251 273.451 Q166.065 273.451 163.033 270.326 Q160.024 267.178 160.024 261.738 Q160.024 256.414 163.172 253.197 Q166.32 249.979 171.552 249.979 Q177.547 249.979 180.695 254.586 Q183.866 259.169 183.866 267.919 Q183.866 276.09 179.977 280.974 Q176.112 285.835 169.561 285.835 Q167.802 285.835 165.996 285.488 Q164.19 285.141 162.246 284.447 M171.552 269.794 Q174.7 269.794 176.528 267.641 Q178.38 265.488 178.38 261.738 Q178.38 258.011 176.528 255.859 Q174.7 253.683 171.552 253.683 Q168.403 253.683 166.552 255.859 Q164.723 258.011 164.723 261.738 Q164.723 265.488 166.552 267.641 Q168.403 269.794 171.552 269.794 Z" fill="#000000" fill-rule="evenodd" fill-opacity="1" /><path clip-path="url(#clip360)" d="M16.4842 987.834 L16.4842 981.405 L64.0042 981.405 L64.0042 987.834 L16.4842 987.834 Z" fill="#000000" fill-rule="evenodd" fill-opacity="1" /><path clip-path="url(#clip360)" d="M42.4881 939.232 L64.0042 939.232 L64.0042 945.089 L42.679 945.089 Q37.6183 945.089 35.1038 947.062 Q32.5894 949.035 32.5894 952.982 Q32.5894 957.725 35.6131 960.462 Q38.6368 963.199 43.8567 963.199 L64.0042 963.199 L64.0042 969.087 L28.3562 969.087 L28.3562 963.199 L33.8944 963.199 Q30.6797 961.098 29.0883 958.266 Q27.4968 955.401 27.4968 951.677 Q27.4968 945.534 31.3163 942.383 Q35.1038 939.232 42.4881 939.232 Z" fill="#000000" fill-rule="evenodd" fill-opacity="1" /><path clip-path="url(#clip360)" d="M42.4881 897.919 L64.0042 897.919 L64.0042 903.775 L42.679 903.775 Q37.6183 903.775 35.1038 905.749 Q32.5894 907.722 32.5894 911.669 Q32.5894 916.411 35.6131 919.148 Q38.6368 921.886 43.8567 921.886 L64.0042 921.886 L64.0042 927.774 L28.3562 927.774 L28.3562 921.886 L33.8944 921.886 Q30.6797 919.785 29.0883 916.952 Q27.4968 914.088 27.4968 910.364 Q27.4968 904.221 31.3163 901.07 Q35.1038 897.919 42.4881 897.919 Z" fill="#000000" fill-rule="evenodd" fill-opacity="1" /><path clip-path="url(#clip360)" d="M44.7161 855.746 L47.5806 855.746 L47.5806 882.673 Q53.6281 882.291 56.8109 879.044 Q59.9619 875.766 59.9619 869.941 Q59.9619 866.568 59.1344 863.417 Q58.3069 860.234 56.6518 857.115 L62.1899 857.115 Q63.5267 860.266 64.227 863.576 Q64.9272 866.886 64.9272 870.292 Q64.9272 878.822 59.9619 883.819 Q54.9967 888.784 46.5303 888.784 Q37.7774 888.784 32.6531 884.073 Q27.4968 879.331 27.4968 871.31 Q27.4968 864.117 32.1438 859.947 Q36.7589 855.746 44.7161 855.746 M42.9973 861.602 Q38.1912 861.666 35.3266 864.308 Q32.4621 866.918 32.4621 871.246 Q32.4621 876.148 35.2312 879.108 Q38.0002 882.036 43.0292 882.482 L42.9973 861.602 Z" fill="#000000" fill-rule="evenodd" fill-opacity="1" /><path clip-path="url(#clip360)" d="M33.8307 825.477 Q33.2578 826.464 33.0032 827.641 Q32.7167 828.787 32.7167 830.188 Q32.7167 835.153 35.9632 837.827 Q39.1779 840.468 45.2253 840.468 L64.0042 840.468 L64.0042 846.357 L28.3562 846.357 L28.3562 840.468 L33.8944 840.468 Q30.6479 838.622 29.0883 835.662 Q27.4968 832.702 27.4968 828.469 Q27.4968 827.864 27.5923 827.132 Q27.656 826.4 27.8151 825.509 L33.8307 825.477 Z" fill="#000000" fill-rule="evenodd" fill-opacity="1" /><path clip-path="url(#clip360)" d="M21.7677 791.93 L39.6235 791.93 L39.6235 783.845 Q39.6235 779.357 37.3 776.907 Q34.9765 774.456 30.6797 774.456 Q26.4147 774.456 24.0912 776.907 Q21.7677 779.357 21.7677 783.845 L21.7677 791.93 M16.4842 798.359 L16.4842 783.845 Q16.4842 775.856 20.1126 771.782 Q23.7092 767.676 30.6797 767.676 Q37.7138 767.676 41.3104 771.782 Q44.907 775.856 44.907 783.845 L44.907 791.93 L64.0042 791.93 L64.0042 798.359 L16.4842 798.359 Z" fill="#000000" fill-rule="evenodd" fill-opacity="1" /><path clip-path="url(#clip360)" d="M33.8307 739.795 Q33.2578 740.781 33.0032 741.959 Q32.7167 743.105 32.7167 744.505 Q32.7167 749.47 35.9632 752.144 Q39.1779 754.786 45.2253 754.786 L64.0042 754.786 L64.0042 760.674 L28.3562 760.674 L28.3562 754.786 L33.8944 754.786 Q30.6479 752.94 29.0883 749.98 Q27.4968 747.02 27.4968 742.787 Q27.4968 742.182 27.5923 741.45 Q27.656 740.718 27.8151 739.826 L33.8307 739.795 Z" fill="#000000" fill-rule="evenodd" fill-opacity="1" /><path clip-path="url(#clip360)" d="M32.4621 721.27 Q32.4621 725.981 36.1542 728.718 Q39.8145 731.456 46.212 731.456 Q52.6095 731.456 56.3017 728.75 Q59.9619 726.013 59.9619 721.27 Q59.9619 716.592 56.2698 713.854 Q52.5777 711.117 46.212 711.117 Q39.8781 711.117 36.186 713.854 Q32.4621 716.592 32.4621 721.27 M27.4968 721.27 Q27.4968 713.632 32.4621 709.271 Q37.4273 704.911 46.212 704.911 Q54.9649 704.911 59.9619 709.271 Q64.9272 713.632 64.9272 721.27 Q64.9272 728.941 59.9619 733.302 Q54.9649 737.63 46.212 737.63 Q37.4273 737.63 32.4621 733.302 Q27.4968 728.941 27.4968 721.27 Z" fill="#000000" fill-rule="evenodd" fill-opacity="1" /><path clip-path="url(#clip360)" d="M33.7671 671.745 L14.479 671.745 L14.479 665.889 L64.0042 665.889 L64.0042 671.745 L58.657 671.745 Q61.8398 673.591 63.3994 676.424 Q64.9272 679.225 64.9272 683.172 Q64.9272 689.633 59.771 693.707 Q54.6147 697.749 46.212 697.749 Q37.8093 697.749 32.6531 693.707 Q27.4968 689.633 27.4968 683.172 Q27.4968 679.225 29.0564 676.424 Q30.5842 673.591 33.7671 671.745 M46.212 691.702 Q52.6732 691.702 56.3653 689.06 Q60.0256 686.386 60.0256 681.739 Q60.0256 677.092 56.3653 674.419 Q52.6732 671.745 46.212 671.745 Q39.7508 671.745 36.0905 674.419 Q32.3984 677.092 32.3984 681.739 Q32.3984 686.386 36.0905 689.06 Q39.7508 691.702 46.212 691.702 Z" fill="#000000" fill-rule="evenodd" fill-opacity="1" /><path clip-path="url(#clip360)" d="M49.9359 654.43 L28.3562 654.43 L28.3562 648.574 L49.7131 648.574 Q54.7739 648.574 57.3202 646.601 Q59.8346 644.627 59.8346 640.681 Q59.8346 635.938 56.8109 633.201 Q53.7872 630.432 48.5673 630.432 L28.3562 630.432 L28.3562 624.575 L64.0042 624.575 L64.0042 630.432 L58.5296 630.432 Q61.7762 632.564 63.3676 635.397 Q64.9272 638.198 64.9272 641.922 Q64.9272 648.065 61.1078 651.248 Q57.2883 654.43 49.9359 654.43 M27.4968 639.694 L27.4968 639.694 Z" fill="#000000" fill-rule="evenodd" fill-opacity="1" /><path clip-path="url(#clip360)" d="M29.7248 586.859 L35.1993 586.859 Q33.8307 589.341 33.1623 591.856 Q32.4621 594.338 32.4621 596.885 Q32.4621 602.582 36.0905 605.733 Q39.6872 608.884 46.212 608.884 Q52.7369 608.884 56.3653 605.733 Q59.9619 602.582 59.9619 596.885 Q59.9619 594.338 59.2935 591.856 Q58.5933 589.341 57.2247 586.859 L62.6355 586.859 Q63.7814 589.309 64.3543 591.951 Q64.9272 594.561 64.9272 597.521 Q64.9272 605.574 59.8664 610.316 Q54.8057 615.059 46.212 615.059 Q37.491 615.059 32.4939 610.284 Q27.4968 605.478 27.4968 597.139 Q27.4968 594.434 28.0697 591.856 Q28.6108 589.277 29.7248 586.859 Z" fill="#000000" fill-rule="evenodd" fill-opacity="1" /><path clip-path="url(#clip360)" d="M18.2347 570.881 L28.3562 570.881 L28.3562 558.818 L32.9077 558.818 L32.9077 570.881 L52.2594 570.881 Q56.6199 570.881 57.8613 569.703 Q59.1026 568.493 59.1026 564.833 L59.1026 558.818 L64.0042 558.818 L64.0042 564.833 Q64.0042 571.613 61.4897 574.191 Q58.9434 576.769 52.2594 576.769 L32.9077 576.769 L32.9077 581.066 L28.3562 581.066 L28.3562 576.769 L18.2347 576.769 L18.2347 570.881 Z" fill="#000000" fill-rule="evenodd" fill-opacity="1" /><path clip-path="url(#clip360)" d="M1155.89 17.6457 Q1146.98 17.6457 1141.71 24.2892 Q1136.49 30.9327 1136.49 42.3968 Q1136.49 53.8203 1141.71 60.4638 Q1146.98 67.1073 1155.89 67.1073 Q1164.8 67.1073 1169.99 60.4638 Q1175.22 53.8203 1175.22 42.3968 Q1175.22 30.9327 1169.99 24.2892 Q1164.8 17.6457 1155.89 17.6457 M1155.89 11.0023 Q1168.61 11.0023 1176.23 19.5497 Q1183.84 28.0566 1183.84 42.3968 Q1183.84 56.6965 1176.23 65.2439 Q1168.61 73.7508 1155.89 73.7508 Q1143.13 73.7508 1135.48 65.2439 Q1127.86 56.737 1127.86 42.3968 Q1127.86 28.0566 1135.48 19.5497 Q1143.13 11.0023 1155.89 11.0023 Z" fill="#000000" fill-rule="evenodd" fill-opacity="1" /><path clip-path="url(#clip360)" d="M1190.97 27.2059 L1198.87 27.2059 L1213.05 65.2844 L1227.23 27.2059 L1235.13 27.2059 L1218.11 72.576 L1207.99 72.576 L1190.97 27.2059 Z" fill="#000000" fill-rule="evenodd" fill-opacity="1" /><path clip-path="url(#clip360)" d="M1284.22 48.0275 L1284.22 51.6733 L1249.95 51.6733 Q1250.44 59.3701 1254.57 63.421 Q1258.74 67.4314 1266.16 67.4314 Q1270.45 67.4314 1274.46 66.3781 Q1278.51 65.3249 1282.48 63.2184 L1282.48 70.267 Q1278.47 71.9684 1274.26 72.8596 Q1270.05 73.7508 1265.71 73.7508 Q1254.86 73.7508 1248.5 67.4314 Q1242.18 61.1119 1242.18 50.3365 Q1242.18 39.1965 1248.17 32.6746 Q1254.21 26.1121 1264.42 26.1121 Q1273.57 26.1121 1278.88 32.0264 Q1284.22 37.9003 1284.22 48.0275 M1276.77 45.84 Q1276.69 39.7232 1273.33 36.0774 Q1270.01 32.4315 1264.5 32.4315 Q1258.26 32.4315 1254.49 35.9558 Q1250.76 39.4801 1250.2 45.8805 L1276.77 45.84 Z" fill="#000000" fill-rule="evenodd" fill-opacity="1" /><path clip-path="url(#clip360)" d="M1322.75 34.1734 Q1321.49 33.4443 1319.99 33.1202 Q1318.54 32.7556 1316.75 32.7556 Q1310.43 32.7556 1307.03 36.8875 Q1303.67 40.9789 1303.67 48.6757 L1303.67 72.576 L1296.18 72.576 L1296.18 27.2059 L1303.67 27.2059 L1303.67 34.2544 Q1306.02 30.1225 1309.79 28.1376 Q1313.55 26.1121 1318.94 26.1121 Q1319.71 26.1121 1320.64 26.2337 Q1321.57 26.3147 1322.71 26.5172 L1322.75 34.1734 Z" fill="#000000" fill-rule="evenodd" fill-opacity="1" /><path clip-path="url(#clip360)" d="M1330.57 9.54393 L1338.02 9.54393 L1338.02 72.576 L1330.57 72.576 L1330.57 9.54393 Z" fill="#000000" fill-rule="evenodd" fill-opacity="1" /><path clip-path="url(#clip360)" d="M1374.24 49.7694 Q1365.2 49.7694 1361.72 51.8354 Q1358.23 53.9013 1358.23 58.8839 Q1358.23 62.8538 1360.83 65.2034 Q1363.46 67.5124 1367.96 67.5124 Q1374.15 67.5124 1377.88 63.1374 Q1381.65 58.7219 1381.65 51.4303 L1381.65 49.7694 L1374.24 49.7694 M1389.1 46.6907 L1389.1 72.576 L1381.65 72.576 L1381.65 65.6895 Q1379.1 69.8214 1375.29 71.8063 Q1371.48 73.7508 1365.97 73.7508 Q1359 73.7508 1354.87 69.8619 Q1350.78 65.9325 1350.78 59.3701 Q1350.78 51.7138 1355.89 47.825 Q1361.03 43.9361 1371.2 43.9361 L1381.65 43.9361 L1381.65 43.2069 Q1381.65 38.0623 1378.25 35.2672 Q1374.88 32.4315 1368.77 32.4315 Q1364.88 32.4315 1361.19 33.3632 Q1357.51 34.295 1354.1 36.1584 L1354.1 29.2718 Q1358.19 27.692 1362.04 26.9223 Q1365.89 26.1121 1369.54 26.1121 Q1379.38 26.1121 1384.24 31.2163 Q1389.1 36.3204 1389.1 46.6907 Z" fill="#000000" fill-rule="evenodd" fill-opacity="1" /><path clip-path="url(#clip360)" d="M1411.67 65.7705 L1411.67 89.8329 L1404.17 89.8329 L1404.17 27.2059 L1411.67 27.2059 L1411.67 34.0924 Q1414.02 30.0415 1417.58 28.0971 Q1421.19 26.1121 1426.17 26.1121 Q1434.43 26.1121 1439.58 32.6746 Q1444.76 39.2371 1444.76 49.9314 Q1444.76 60.6258 1439.58 67.1883 Q1434.43 73.7508 1426.17 73.7508 Q1421.19 73.7508 1417.58 71.8063 Q1414.02 69.8214 1411.67 65.7705 M1437.02 49.9314 Q1437.02 41.7081 1433.62 37.0496 Q1430.26 32.3505 1424.35 32.3505 Q1418.43 32.3505 1415.03 37.0496 Q1411.67 41.7081 1411.67 49.9314 Q1411.67 58.1548 1415.03 62.8538 Q1418.43 67.5124 1424.35 67.5124 Q1430.26 67.5124 1433.62 62.8538 Q1437.02 58.1548 1437.02 49.9314 Z" fill="#000000" fill-rule="evenodd" fill-opacity="1" /><circle clip-path="url(#clip362)" cx="405.335" cy="614.257" r="7.2" fill="#009af9" fill-rule="evenodd" fill-opacity="1" stroke="#000000" stroke-opacity="1" stroke-width="3.2"/>
<circle clip-path="url(#clip362)" cx="498.069" cy="376.121" r="7.2" fill="#009af9" fill-rule="evenodd" fill-opacity="1" stroke="#000000" stroke-opacity="1" stroke-width="3.2"/>
<circle clip-path="url(#clip362)" cx="590.804" cy="589.264" r="7.2" fill="#009af9" fill-rule="evenodd" fill-opacity="1" stroke="#000000" stroke-opacity="1" stroke-width="3.2"/>
<circle clip-path="url(#clip362)" cx="683.538" cy="422.016" r="7.2" fill="#009af9" fill-rule="evenodd" fill-opacity="1" stroke="#000000" stroke-opacity="1" stroke-width="3.2"/>
<circle clip-path="url(#clip362)" cx="776.272" cy="632.449" r="7.2" fill="#009af9" fill-rule="evenodd" fill-opacity="1" stroke="#000000" stroke-opacity="1" stroke-width="3.2"/>
<circle clip-path="url(#clip362)" cx="869.007" cy="511.373" r="7.2" fill="#009af9" fill-rule="evenodd" fill-opacity="1" stroke="#000000" stroke-opacity="1" stroke-width="3.2"/>
<circle clip-path="url(#clip362)" cx="961.741" cy="613.594" r="7.2" fill="#009af9" fill-rule="evenodd" fill-opacity="1" stroke="#000000" stroke-opacity="1" stroke-width="3.2"/>
<circle clip-path="url(#clip362)" cx="1054.48" cy="561.471" r="7.2" fill="#009af9" fill-rule="evenodd" fill-opacity="1" stroke="#000000" stroke-opacity="1" stroke-width="3.2"/>
<circle clip-path="url(#clip362)" cx="1147.21" cy="681.424" r="7.2" fill="#009af9" fill-rule="evenodd" fill-opacity="1" stroke="#000000" stroke-opacity="1" stroke-width="3.2"/>
<circle clip-path="url(#clip362)" cx="1239.94" cy="511.242" r="7.2" fill="#009af9" fill-rule="evenodd" fill-opacity="1" stroke="#000000" stroke-opacity="1" stroke-width="3.2"/>
<circle clip-path="url(#clip362)" cx="1332.68" cy="665.98" r="7.2" fill="#009af9" fill-rule="evenodd" fill-opacity="1" stroke="#000000" stroke-opacity="1" stroke-width="3.2"/>
<circle clip-path="url(#clip362)" cx="1425.41" cy="718.559" r="7.2" fill="#009af9" fill-rule="evenodd" fill-opacity="1" stroke="#000000" stroke-opacity="1" stroke-width="3.2"/>
<circle clip-path="url(#clip362)" cx="1518.15" cy="1051.75" r="7.2" fill="#009af9" fill-rule="evenodd" fill-opacity="1" stroke="#000000" stroke-opacity="1" stroke-width="3.2"/>
<circle clip-path="url(#clip362)" cx="1610.88" cy="705.362" r="7.2" fill="#009af9" fill-rule="evenodd" fill-opacity="1" stroke="#000000" stroke-opacity="1" stroke-width="3.2"/>
<circle clip-path="url(#clip362)" cx="1703.62" cy="1031.71" r="7.2" fill="#009af9" fill-rule="evenodd" fill-opacity="1" stroke="#000000" stroke-opacity="1" stroke-width="3.2"/>
<circle clip-path="url(#clip362)" cx="1796.35" cy="899.061" r="7.2" fill="#009af9" fill-rule="evenodd" fill-opacity="1" stroke="#000000" stroke-opacity="1" stroke-width="3.2"/>
<circle clip-path="url(#clip362)" cx="1889.08" cy="1286.17" r="7.2" fill="#009af9" fill-rule="evenodd" fill-opacity="1" stroke="#000000" stroke-opacity="1" stroke-width="3.2"/>
<path clip-path="url(#clip360)" d="
M1992.24 270.476 L2281.66 270.476 L2281.66 166.796 L1992.24 166.796  Z
  " fill="#ffffff" fill-rule="evenodd" fill-opacity="1"/>
<polyline clip-path="url(#clip360)" style="stroke:#000000; stroke-linecap:round; stroke-linejoin:round; stroke-width:4; stroke-opacity:1; fill:none" points="
  1992.24,270.476 2281.66,270.476 2281.66,166.796 1992.24,166.796 1992.24,270.476 
  "/>
<circle clip-path="url(#clip360)" cx="2087.04" cy="218.636" r="23.04" fill="#009af9" fill-rule="evenodd" fill-opacity="1" stroke="#000000" stroke-opacity="1" stroke-width="10.24"/>
<path clip-path="url(#clip360)" d="M2195.67 238.323 Q2193.87 242.953 2192.16 244.365 Q2190.44 245.777 2187.57 245.777 L2184.17 245.777 L2184.17 242.212 L2186.67 242.212 Q2188.43 242.212 2189.4 241.379 Q2190.37 240.545 2191.55 237.443 L2192.32 235.499 L2181.83 209.99 L2186.35 209.99 L2194.45 230.268 L2202.55 209.99 L2207.06 209.99 L2195.67 238.323 Z" fill="#000000" fill-rule="evenodd" fill-opacity="1" /><path clip-path="url(#clip360)" d="M2214.35 231.981 L2221.99 231.981 L2221.99 205.615 L2213.68 207.282 L2213.68 203.022 L2221.95 201.356 L2226.62 201.356 L2226.62 231.981 L2234.26 231.981 L2234.26 235.916 L2214.35 235.916 L2214.35 231.981 Z" fill="#000000" fill-rule="evenodd" fill-opacity="1" /></svg>
