<?xml version="1.0" encoding="utf-8"?>
<svg xmlns="http://www.w3.org/2000/svg" xmlns:xlink="http://www.w3.org/1999/xlink" width="600" height="400" viewBox="0 0 2400 1600">
<defs>
  <clipPath id="clip830">
    <rect x="0" y="0" width="2400" height="1600"/>
  </clipPath>
</defs>
<path clip-path="url(#clip830)" d="
M0 1600 L2400 1600 L2400 0 L0 0  Z
  " fill="#ffffff" fill-rule="evenodd" fill-opacity="1"/>
<defs>
  <clipPath id="clip831">
    <rect x="480" y="0" width="1681" height="1600"/>
  </clipPath>
</defs>
<path clip-path="url(#clip830)" d="
M250.028 1423.18 L2352.76 1423.18 L2352.76 123.472 L250.028 123.472  Z
  " fill="#ffffff" fill-rule="evenodd" fill-opacity="1"/>
<defs>
  <clipPath id="clip832">
    <rect x="250" y="123" width="2104" height="1301"/>
  </clipPath>
</defs>
<polyline clip-path="url(#clip832)" style="stroke:#000000; stroke-linecap:round; stroke-linejoin:round; stroke-width:2; stroke-opacity:0.1; fill:none" points="
  250.028,1423.18 250.028,123.472 
  "/>
<polyline clip-path="url(#clip832)" style="stroke:#000000; stroke-linecap:round; stroke-linejoin:round; stroke-width:2; stroke-opacity:0.1; fill:none" points="
  460.301,1423.18 460.301,123.472 
  "/>
<polyline clip-path="url(#clip832)" style="stroke:#000000; stroke-linecap:round; stroke-linejoin:round; stroke-width:2; stroke-opacity:0.1; fill:none" points="
  670.574,1423.18 670.574,123.472 
  "/>
<polyline clip-path="url(#clip832)" style="stroke:#000000; stroke-linecap:round; stroke-linejoin:round; stroke-width:2; stroke-opacity:0.1; fill:none" points="
  880.846,1423.18 880.846,123.472 
  "/>
<polyline clip-path="url(#clip832)" style="stroke:#000000; stroke-linecap:round; stroke-linejoin:round; stroke-width:2; stroke-opacity:0.1; fill:none" points="
  1091.12,1423.18 1091.12,123.472 
  "/>
<polyline clip-path="url(#clip832)" style="stroke:#000000; stroke-linecap:round; stroke-linejoin:round; stroke-width:2; stroke-opacity:0.1; fill:none" points="
  1301.39,1423.18 1301.39,123.472 
  "/>
<polyline clip-path="url(#clip832)" style="stroke:#000000; stroke-linecap:round; stroke-linejoin:round; stroke-width:2; stroke-opacity:0.1; fill:none" points="
  1511.66,1423.18 1511.66,123.472 
  "/>
<polyline clip-path="url(#clip832)" style="stroke:#000000; stroke-linecap:round; stroke-linejoin:round; stroke-width:2; stroke-opacity:0.1; fill:none" points="
  1721.94,1423.18 1721.94,123.472 
  "/>
<polyline clip-path="url(#clip832)" style="stroke:#000000; stroke-linecap:round; stroke-linejoin:round; stroke-width:2; stroke-opacity:0.1; fill:none" points="
  1932.21,1423.18 1932.21,123.472 
  "/>
<polyline clip-path="url(#clip832)" style="stroke:#000000; stroke-linecap:round; stroke-linejoin:round; stroke-width:2; stroke-opacity:0.1; fill:none" points="
  2142.48,1423.18 2142.48,123.472 
  "/>
<polyline clip-path="url(#clip832)" style="stroke:#000000; stroke-linecap:round; stroke-linejoin:round; stroke-width:2; stroke-opacity:0.1; fill:none" points="
  2352.76,1423.18 2352.76,123.472 
  "/>
<polyline clip-path="url(#clip830)" style="stroke:#000000; stroke-linecap:round; stroke-linejoin:round; stroke-width:4; stroke-opacity:1; fill:none" points="
  250.028,1423.18 2352.76,1423.18 
  "/>
<polyline clip-path="url(#clip830)" style="stroke:#000000; stroke-linecap:round; stroke-linejoin:round; stroke-width:4; stroke-opacity:1; fill:none" points="
  250.028,1423.18 250.028,1404.28 
  "/>
<polyline clip-path="url(#clip830)" style="stroke:#000000; stroke-linecap:round; stroke-linejoin:round; stroke-width:4; stroke-opacity:1; fill:none" points="
  460.301,1423.18 460.301,1404.28 
  "/>
<polyline clip-path="url(#clip830)" style="stroke:#000000; stroke-linecap:round; stroke-linejoin:round; stroke-width:4; stroke-opacity:1; fill:none" points="
  670.574,1423.18 670.574,1404.28 
  "/>
<polyline clip-path="url(#clip830)" style="stroke:#000000; stroke-linecap:round; stroke-linejoin:round; stroke-width:4; stroke-opacity:1; fill:none" points="
  880.846,1423.18 880.846,1404.28 
  "/>
<polyline clip-path="url(#clip830)" style="stroke:#000000; stroke-linecap:round; stroke-linejoin:round; stroke-width:4; stroke-opacity:1; fill:none" points="
  1091.12,1423.18 1091.12,1404.28 
  "/>
<polyline clip-path="url(#clip830)" style="stroke:#000000; stroke-linecap:round; stroke-linejoin:round; stroke-width:4; stroke-opacity:1; fill:none" points="
  1301.39,1423.18 1301.39,1404.28 
  "/>
<polyline clip-path="url(#clip830)" style="stroke:#000000; stroke-linecap:round; stroke-linejoin:round; stroke-width:4; stroke-opacity:1; fill:none" points="
  1511.66,1423.18 1511.66,1404.28 
  "/>
<polyline clip-path="url(#clip830)" style="stroke:#000000; stroke-linecap:round; stroke-linejoin:round; stroke-width:4; stroke-opacity:1; fill:none" points="
  1721.94,1423.18 1721.94,1404.28 
  "/>
<polyline clip-path="url(#clip830)" style="stroke:#000000; stroke-linecap:round; stroke-linejoin:round; stroke-width:4; stroke-opacity:1; fill:none" points="
  1932.21,1423.18 1932.21,1404.28 
  "/>
<polyline clip-path="url(#clip830)" style="stroke:#000000; stroke-linecap:round; stroke-linejoin:round; stroke-width:4; stroke-opacity:1; fill:none" points="
  2142.48,1423.18 2142.48,1404.28 
  "/>
<polyline clip-path="url(#clip830)" style="stroke:#000000; stroke-linecap:round; stroke-linejoin:round; stroke-width:4; stroke-opacity:1; fill:none" points="
  2352.76,1423.18 2352.76,1404.28 
  "/>
<path clip-path="url(#clip830)" d="M250.028 1454.1 Q246.417 1454.1 244.588 1457.66 Q242.783 1461.2 242.783 1468.33 Q242.783 1475.44 244.588 1479.01 Q246.417 1482.55 250.028 1482.55 Q253.662 1482.55 255.468 1479.01 Q257.297 1475.44 257.297 1468.33 Q257.297 1461.2 255.468 1457.66 Q253.662 1454.1 250.028 1454.1 M250.028 1450.39 Q255.838 1450.39 258.894 1455 Q261.973 1459.58 261.973 1468.33 Q261.973 1477.06 258.894 1481.67 Q255.838 1486.25 250.028 1486.25 Q244.218 1486.25 241.139 1481.67 Q238.084 1477.06 238.084 1468.33 Q238.084 1459.58 241.139 1455 Q244.218 1450.39 250.028 1450.39 Z" fill="#000000" fill-rule="evenodd" fill-opacity="1" /><path clip-path="url(#clip830)" d="M450.579 1451.02 L468.935 1451.02 L468.935 1454.96 L454.861 1454.96 L454.861 1463.43 Q455.88 1463.08 456.898 1462.92 Q457.917 1462.73 458.935 1462.73 Q464.722 1462.73 468.102 1465.9 Q471.481 1469.08 471.481 1474.49 Q471.481 1480.07 468.009 1483.17 Q464.537 1486.25 458.218 1486.25 Q456.042 1486.25 453.773 1485.88 Q451.528 1485.51 449.12 1484.77 L449.12 1480.07 Q451.204 1481.2 453.426 1481.76 Q455.648 1482.32 458.125 1482.32 Q462.13 1482.32 464.468 1480.21 Q466.806 1478.1 466.806 1474.49 Q466.806 1470.88 464.468 1468.77 Q462.13 1466.67 458.125 1466.67 Q456.25 1466.67 454.375 1467.08 Q452.523 1467.5 450.579 1468.38 L450.579 1451.02 Z" fill="#000000" fill-rule="evenodd" fill-opacity="1" /><path clip-path="url(#clip830)" d="M645.261 1481.64 L652.9 1481.64 L652.9 1455.28 L644.59 1456.95 L644.59 1452.69 L652.854 1451.02 L657.53 1451.02 L657.53 1481.64 L665.169 1481.64 L665.169 1485.58 L645.261 1485.58 L645.261 1481.64 Z" fill="#000000" fill-rule="evenodd" fill-opacity="1" /><path clip-path="url(#clip830)" d="M684.613 1454.1 Q681.002 1454.1 679.173 1457.66 Q677.368 1461.2 677.368 1468.33 Q677.368 1475.44 679.173 1479.01 Q681.002 1482.55 684.613 1482.55 Q688.247 1482.55 690.053 1479.01 Q691.881 1475.44 691.881 1468.33 Q691.881 1461.2 690.053 1457.66 Q688.247 1454.1 684.613 1454.1 M684.613 1450.39 Q690.423 1450.39 693.479 1455 Q696.557 1459.58 696.557 1468.33 Q696.557 1477.06 693.479 1481.67 Q690.423 1486.25 684.613 1486.25 Q678.803 1486.25 675.724 1481.67 Q672.669 1477.06 672.669 1468.33 Q672.669 1459.58 675.724 1455 Q678.803 1450.39 684.613 1450.39 Z" fill="#000000" fill-rule="evenodd" fill-opacity="1" /><path clip-path="url(#clip830)" d="M856.032 1481.64 L863.671 1481.64 L863.671 1455.28 L855.36 1456.95 L855.36 1452.69 L863.624 1451.02 L868.3 1451.02 L868.3 1481.64 L875.939 1481.64 L875.939 1485.58 L856.032 1485.58 L856.032 1481.64 Z" fill="#000000" fill-rule="evenodd" fill-opacity="1" /><path clip-path="url(#clip830)" d="M885.43 1451.02 L903.786 1451.02 L903.786 1454.96 L889.712 1454.96 L889.712 1463.43 Q890.731 1463.08 891.749 1462.92 Q892.768 1462.73 893.786 1462.73 Q899.573 1462.73 902.953 1465.9 Q906.332 1469.08 906.332 1474.49 Q906.332 1480.07 902.86 1483.17 Q899.388 1486.25 893.069 1486.25 Q890.893 1486.25 888.624 1485.88 Q886.379 1485.51 883.971 1484.77 L883.971 1480.07 Q886.055 1481.2 888.277 1481.76 Q890.499 1482.32 892.976 1482.32 Q896.981 1482.32 899.319 1480.21 Q901.657 1478.1 901.657 1474.49 Q901.657 1470.88 899.319 1468.77 Q896.981 1466.67 892.976 1466.67 Q891.101 1466.67 889.226 1467.08 Q887.374 1467.5 885.43 1468.38 L885.43 1451.02 Z" fill="#000000" fill-rule="evenodd" fill-opacity="1" /><path clip-path="url(#clip830)" d="M1069.89 1481.64 L1086.21 1481.64 L1086.21 1485.58 L1064.27 1485.58 L1064.27 1481.64 Q1066.93 1478.89 1071.51 1474.26 Q1076.12 1469.61 1077.3 1468.27 Q1079.55 1465.74 1080.42 1464.01 Q1081.33 1462.25 1081.33 1460.56 Q1081.33 1457.8 1079.38 1456.07 Q1077.46 1454.33 1074.36 1454.33 Q1072.16 1454.33 1069.71 1455.09 Q1067.28 1455.86 1064.5 1457.41 L1064.5 1452.69 Q1067.32 1451.55 1069.78 1450.97 Q1072.23 1450.39 1074.27 1450.39 Q1079.64 1450.39 1082.83 1453.08 Q1086.03 1455.77 1086.03 1460.26 Q1086.03 1462.39 1085.22 1464.31 Q1084.43 1466.2 1082.32 1468.8 Q1081.74 1469.47 1078.64 1472.69 Q1075.54 1475.88 1069.89 1481.64 Z" fill="#000000" fill-rule="evenodd" fill-opacity="1" /><path clip-path="url(#clip830)" d="M1106.03 1454.1 Q1102.42 1454.1 1100.59 1457.66 Q1098.78 1461.2 1098.78 1468.33 Q1098.78 1475.44 1100.59 1479.01 Q1102.42 1482.55 1106.03 1482.55 Q1109.66 1482.55 1111.47 1479.01 Q1113.3 1475.44 1113.3 1468.33 Q1113.3 1461.2 1111.47 1457.66 Q1109.66 1454.1 1106.03 1454.1 M1106.03 1450.39 Q1111.84 1450.39 1114.89 1455 Q1117.97 1459.58 1117.97 1468.33 Q1117.97 1477.06 1114.89 1481.67 Q1111.84 1486.25 1106.03 1486.25 Q1100.22 1486.25 1097.14 1481.67 Q1094.08 1477.06 1094.08 1468.33 Q1094.08 1459.58 1097.14 1455 Q1100.22 1450.39 1106.03 1450.39 Z" fill="#000000" fill-rule="evenodd" fill-opacity="1" /><path clip-path="url(#clip830)" d="M1280.66 1481.64 L1296.98 1481.64 L1296.98 1485.58 L1275.04 1485.58 L1275.04 1481.64 Q1277.7 1478.89 1282.28 1474.26 Q1286.89 1469.61 1288.07 1468.27 Q1290.32 1465.74 1291.2 1464.01 Q1292.1 1462.25 1292.1 1460.56 Q1292.1 1457.8 1290.15 1456.07 Q1288.23 1454.33 1285.13 1454.33 Q1282.93 1454.33 1280.48 1455.09 Q1278.05 1455.86 1275.27 1457.41 L1275.27 1452.69 Q1278.09 1451.55 1280.55 1450.97 Q1283 1450.39 1285.04 1450.39 Q1290.41 1450.39 1293.6 1453.08 Q1296.8 1455.77 1296.8 1460.26 Q1296.8 1462.39 1295.99 1464.31 Q1295.2 1466.2 1293.09 1468.8 Q1292.51 1469.47 1289.41 1472.69 Q1286.31 1475.88 1280.66 1481.64 Z" fill="#000000" fill-rule="evenodd" fill-opacity="1" /><path clip-path="url(#clip830)" d="M1306.84 1451.02 L1325.2 1451.02 L1325.2 1454.96 L1311.13 1454.96 L1311.13 1463.43 Q1312.14 1463.08 1313.16 1462.92 Q1314.18 1462.73 1315.2 1462.73 Q1320.99 1462.73 1324.37 1465.9 Q1327.75 1469.08 1327.75 1474.49 Q1327.75 1480.07 1324.27 1483.17 Q1320.8 1486.25 1314.48 1486.25 Q1312.31 1486.25 1310.04 1485.88 Q1307.79 1485.51 1305.39 1484.77 L1305.39 1480.07 Q1307.47 1481.2 1309.69 1481.76 Q1311.91 1482.32 1314.39 1482.32 Q1318.39 1482.32 1320.73 1480.21 Q1323.07 1478.1 1323.07 1474.49 Q1323.07 1470.88 1320.73 1468.77 Q1318.39 1466.67 1314.39 1466.67 Q1312.51 1466.67 1310.64 1467.08 Q1308.79 1467.5 1306.84 1468.38 L1306.84 1451.02 Z" fill="#000000" fill-rule="evenodd" fill-opacity="1" /><path clip-path="url(#clip830)" d="M1500.51 1466.95 Q1503.86 1467.66 1505.74 1469.93 Q1507.64 1472.2 1507.64 1475.53 Q1507.64 1480.65 1504.12 1483.45 Q1500.6 1486.25 1494.12 1486.25 Q1491.94 1486.25 1489.63 1485.81 Q1487.34 1485.39 1484.88 1484.54 L1484.88 1480.02 Q1486.83 1481.16 1489.14 1481.74 Q1491.46 1482.32 1493.98 1482.32 Q1498.38 1482.32 1500.67 1480.58 Q1502.98 1478.84 1502.98 1475.53 Q1502.98 1472.48 1500.83 1470.77 Q1498.7 1469.03 1494.88 1469.03 L1490.85 1469.03 L1490.85 1465.19 L1495.07 1465.19 Q1498.52 1465.19 1500.35 1463.82 Q1502.17 1462.43 1502.17 1459.84 Q1502.17 1457.18 1500.28 1455.77 Q1498.4 1454.33 1494.88 1454.33 Q1492.96 1454.33 1490.76 1454.75 Q1488.56 1455.16 1485.92 1456.04 L1485.92 1451.88 Q1488.59 1451.14 1490.9 1450.77 Q1493.24 1450.39 1495.3 1450.39 Q1500.62 1450.39 1503.73 1452.83 Q1506.83 1455.23 1506.83 1459.35 Q1506.83 1462.22 1505.18 1464.21 Q1503.54 1466.18 1500.51 1466.95 Z" fill="#000000" fill-rule="evenodd" fill-opacity="1" /><path clip-path="url(#clip830)" d="M1526.5 1454.1 Q1522.89 1454.1 1521.06 1457.66 Q1519.26 1461.2 1519.26 1468.33 Q1519.26 1475.44 1521.06 1479.01 Q1522.89 1482.55 1526.5 1482.55 Q1530.14 1482.55 1531.94 1479.01 Q1533.77 1475.44 1533.77 1468.33 Q1533.77 1461.2 1531.94 1457.66 Q1530.14 1454.1 1526.5 1454.1 M1526.5 1450.39 Q1532.31 1450.39 1535.37 1455 Q1538.45 1459.58 1538.45 1468.33 Q1538.45 1477.06 1535.37 1481.67 Q1532.31 1486.25 1526.5 1486.25 Q1520.69 1486.25 1517.61 1481.67 Q1514.56 1477.06 1514.56 1468.33 Q1514.56 1459.58 1517.61 1455 Q1520.69 1450.39 1526.5 1450.39 Z" fill="#000000" fill-rule="evenodd" fill-opacity="1" /><path clip-path="url(#clip830)" d="M1711.28 1466.95 Q1714.63 1467.66 1716.51 1469.93 Q1718.41 1472.2 1718.41 1475.53 Q1718.41 1480.65 1714.89 1483.45 Q1711.37 1486.25 1704.89 1486.25 Q1702.71 1486.25 1700.4 1485.81 Q1698.11 1485.39 1695.65 1484.54 L1695.65 1480.02 Q1697.6 1481.16 1699.91 1481.74 Q1702.23 1482.32 1704.75 1482.32 Q1709.15 1482.32 1711.44 1480.58 Q1713.75 1478.84 1713.75 1475.53 Q1713.75 1472.48 1711.6 1470.77 Q1709.47 1469.03 1705.65 1469.03 L1701.63 1469.03 L1701.63 1465.19 L1705.84 1465.19 Q1709.29 1465.19 1711.12 1463.82 Q1712.94 1462.43 1712.94 1459.84 Q1712.94 1457.18 1711.05 1455.77 Q1709.17 1454.33 1705.65 1454.33 Q1703.73 1454.33 1701.53 1454.75 Q1699.33 1455.16 1696.69 1456.04 L1696.69 1451.88 Q1699.36 1451.14 1701.67 1450.77 Q1704.01 1450.39 1706.07 1450.39 Q1711.39 1450.39 1714.5 1452.83 Q1717.6 1455.23 1717.6 1459.35 Q1717.6 1462.22 1715.95 1464.21 Q1714.31 1466.18 1711.28 1466.95 Z" fill="#000000" fill-rule="evenodd" fill-opacity="1" /><path clip-path="url(#clip830)" d="M1727.32 1451.02 L1745.68 1451.02 L1745.68 1454.96 L1731.6 1454.96 L1731.6 1463.43 Q1732.62 1463.08 1733.64 1462.92 Q1734.66 1462.73 1735.68 1462.73 Q1741.46 1462.73 1744.84 1465.9 Q1748.22 1469.08 1748.22 1474.49 Q1748.22 1480.07 1744.75 1483.17 Q1741.28 1486.25 1734.96 1486.25 Q1732.78 1486.25 1730.51 1485.88 Q1728.27 1485.51 1725.86 1484.77 L1725.86 1480.07 Q1727.94 1481.2 1730.17 1481.76 Q1732.39 1482.32 1734.87 1482.32 Q1738.87 1482.32 1741.21 1480.21 Q1743.55 1478.1 1743.55 1474.49 Q1743.55 1470.88 1741.21 1468.77 Q1738.87 1466.67 1734.87 1466.67 Q1732.99 1466.67 1731.12 1467.08 Q1729.26 1467.5 1727.32 1468.38 L1727.32 1451.02 Z" fill="#000000" fill-rule="evenodd" fill-opacity="1" /><path clip-path="url(#clip830)" d="M1920.38 1455.09 L1908.58 1473.54 L1920.38 1473.54 L1920.38 1455.09 M1919.15 1451.02 L1925.03 1451.02 L1925.03 1473.54 L1929.96 1473.54 L1929.96 1477.43 L1925.03 1477.43 L1925.03 1485.58 L1920.38 1485.58 L1920.38 1477.43 L1904.78 1477.43 L1904.78 1472.92 L1919.15 1451.02 Z" fill="#000000" fill-rule="evenodd" fill-opacity="1" /><path clip-path="url(#clip830)" d="M1947.7 1454.1 Q1944.09 1454.1 1942.26 1457.66 Q1940.45 1461.2 1940.45 1468.33 Q1940.45 1475.44 1942.26 1479.01 Q1944.09 1482.55 1947.7 1482.55 Q1951.33 1482.55 1953.14 1479.01 Q1954.96 1475.44 1954.96 1468.33 Q1954.96 1461.2 1953.14 1457.66 Q1951.33 1454.1 1947.7 1454.1 M1947.7 1450.39 Q1953.51 1450.39 1956.56 1455 Q1959.64 1459.58 1959.64 1468.33 Q1959.64 1477.06 1956.56 1481.67 Q1953.51 1486.25 1947.7 1486.25 Q1941.89 1486.25 1938.81 1481.67 Q1935.75 1477.06 1935.75 1468.33 Q1935.75 1459.58 1938.81 1455 Q1941.89 1450.39 1947.7 1450.39 Z" fill="#000000" fill-rule="evenodd" fill-opacity="1" /><path clip-path="url(#clip830)" d="M2131.15 1455.09 L2119.35 1473.54 L2131.15 1473.54 L2131.15 1455.09 M2129.93 1451.02 L2135.8 1451.02 L2135.8 1473.54 L2140.74 1473.54 L2140.74 1477.43 L2135.8 1477.43 L2135.8 1485.58 L2131.15 1485.58 L2131.15 1477.43 L2115.55 1477.43 L2115.55 1472.92 L2129.93 1451.02 Z" fill="#000000" fill-rule="evenodd" fill-opacity="1" /><path clip-path="url(#clip830)" d="M2148.51 1451.02 L2166.87 1451.02 L2166.87 1454.96 L2152.8 1454.96 L2152.8 1463.43 Q2153.81 1463.08 2154.83 1462.92 Q2155.85 1462.73 2156.87 1462.73 Q2162.66 1462.73 2166.04 1465.9 Q2169.42 1469.08 2169.42 1474.49 Q2169.42 1480.07 2165.94 1483.17 Q2162.47 1486.25 2156.15 1486.25 Q2153.98 1486.25 2151.71 1485.88 Q2149.46 1485.51 2147.05 1484.77 L2147.05 1480.07 Q2149.14 1481.2 2151.36 1481.76 Q2153.58 1482.32 2156.06 1482.32 Q2160.06 1482.32 2162.4 1480.21 Q2164.74 1478.1 2164.74 1474.49 Q2164.74 1470.88 2162.4 1468.77 Q2160.06 1466.67 2156.06 1466.67 Q2154.18 1466.67 2152.31 1467.08 Q2150.46 1467.5 2148.51 1468.38 L2148.51 1451.02 Z" fill="#000000" fill-rule="evenodd" fill-opacity="1" /><path clip-path="url(#clip830)" d="M2327.46 1451.02 L2345.81 1451.02 L2345.81 1454.96 L2331.74 1454.96 L2331.74 1463.43 Q2332.76 1463.08 2333.77 1462.92 Q2334.79 1462.73 2335.81 1462.73 Q2341.6 1462.73 2344.98 1465.9 Q2348.36 1469.08 2348.36 1474.49 Q2348.36 1480.07 2344.89 1483.17 Q2341.41 1486.25 2335.09 1486.25 Q2332.92 1486.25 2330.65 1485.88 Q2328.4 1485.51 2326 1484.77 L2326 1480.07 Q2328.08 1481.2 2330.3 1481.76 Q2332.52 1482.32 2335 1482.32 Q2339.01 1482.32 2341.34 1480.21 Q2343.68 1478.1 2343.68 1474.49 Q2343.68 1470.88 2341.34 1468.77 Q2339.01 1466.67 2335 1466.67 Q2333.13 1466.67 2331.25 1467.08 Q2329.4 1467.5 2327.46 1468.38 L2327.46 1451.02 Z" fill="#000000" fill-rule="evenodd" fill-opacity="1" /><path clip-path="url(#clip830)" d="M2367.57 1454.1 Q2363.96 1454.1 2362.13 1457.66 Q2360.33 1461.2 2360.33 1468.33 Q2360.33 1475.44 2362.13 1479.01 Q2363.96 1482.55 2367.57 1482.55 Q2371.2 1482.55 2373.01 1479.01 Q2374.84 1475.44 2374.84 1468.33 Q2374.84 1461.2 2373.01 1457.66 Q2371.2 1454.1 2367.57 1454.1 M2367.57 1450.39 Q2373.38 1450.39 2376.44 1455 Q2379.52 1459.58 2379.52 1468.33 Q2379.52 1477.06 2376.44 1481.67 Q2373.38 1486.25 2367.57 1486.25 Q2361.76 1486.25 2358.68 1481.67 Q2355.63 1477.06 2355.63 1468.33 Q2355.63 1459.58 2358.68 1455 Q2361.76 1450.39 2367.57 1450.39 Z" fill="#000000" fill-rule="evenodd" fill-opacity="1" /><path clip-path="url(#clip830)" d="M1130.27 1522.08 L1130.27 1528.35 Q1126.61 1526.6 1123.36 1525.74 Q1120.11 1524.88 1117.09 1524.88 Q1111.84 1524.88 1108.97 1526.92 Q1106.14 1528.96 1106.14 1532.71 Q1106.14 1535.87 1108.02 1537.49 Q1109.93 1539.08 1115.21 1540.07 L1119.09 1540.86 Q1126.29 1542.23 1129.69 1545.7 Q1133.13 1549.14 1133.13 1554.93 Q1133.13 1561.84 1128.48 1565.4 Q1123.87 1568.97 1114.92 1568.97 Q1111.55 1568.97 1107.73 1568.2 Q1103.94 1567.44 1099.87 1565.94 L1099.87 1559.32 Q1103.78 1561.52 1107.54 1562.63 Q1111.3 1563.75 1114.92 1563.75 Q1120.43 1563.75 1123.42 1561.58 Q1126.41 1559.42 1126.41 1555.41 Q1126.41 1551.91 1124.25 1549.93 Q1122.12 1547.96 1117.22 1546.97 L1113.3 1546.21 Q1106.11 1544.78 1102.89 1541.72 Q1099.68 1538.67 1099.68 1533.22 Q1099.68 1526.92 1104.1 1523.29 Q1108.56 1519.66 1116.36 1519.66 Q1119.7 1519.66 1123.17 1520.27 Q1126.64 1520.87 1130.27 1522.08 Z" fill="#000000" fill-rule="evenodd" fill-opacity="1" /><path clip-path="url(#clip830)" d="M1142.9 1532.4 L1148.76 1532.4 L1148.76 1568.04 L1142.9 1568.04 L1142.9 1532.4 M1142.9 1518.52 L1148.76 1518.52 L1148.76 1525.93 L1142.9 1525.93 L1142.9 1518.52 Z" fill="#000000" fill-rule="evenodd" fill-opacity="1" /><path clip-path="url(#clip830)" d="M1166.81 1522.27 L1166.81 1532.4 L1178.87 1532.4 L1178.87 1536.95 L1166.81 1536.95 L1166.81 1556.3 Q1166.81 1560.66 1167.98 1561.9 Q1169.19 1563.14 1172.85 1563.14 L1178.87 1563.14 L1178.87 1568.04 L1172.85 1568.04 Q1166.07 1568.04 1163.49 1565.53 Q1160.92 1562.98 1160.92 1556.3 L1160.92 1536.95 L1156.62 1536.95 L1156.62 1532.4 L1160.92 1532.4 L1160.92 1522.27 L1166.81 1522.27 Z" fill="#000000" fill-rule="evenodd" fill-opacity="1" /><path clip-path="url(#clip830)" d="M1217.06 1548.76 L1217.06 1551.62 L1190.14 1551.62 Q1190.52 1557.67 1193.76 1560.85 Q1197.04 1564 1202.87 1564 Q1206.24 1564 1209.39 1563.17 Q1212.57 1562.35 1215.69 1560.69 L1215.69 1566.23 Q1212.54 1567.57 1209.23 1568.27 Q1205.92 1568.97 1202.52 1568.97 Q1193.99 1568.97 1188.99 1564 Q1184.02 1559.04 1184.02 1550.57 Q1184.02 1541.82 1188.73 1536.69 Q1193.48 1531.54 1201.5 1531.54 Q1208.69 1531.54 1212.86 1536.18 Q1217.06 1540.8 1217.06 1548.76 M1211.21 1547.04 Q1211.14 1542.23 1208.5 1539.37 Q1205.89 1536.5 1201.56 1536.5 Q1196.66 1536.5 1193.7 1539.27 Q1190.77 1542.04 1190.33 1547.07 L1211.21 1547.04 Z" fill="#000000" fill-rule="evenodd" fill-opacity="1" /><path clip-path="url(#clip830)" d="M1247.65 1520.52 L1256.31 1520.52 L1277.38 1560.28 L1277.38 1520.52 L1283.62 1520.52 L1283.62 1568.04 L1274.96 1568.04 L1253.89 1528.29 L1253.89 1568.04 L1247.65 1568.04 L1247.65 1520.52 Z" fill="#000000" fill-rule="evenodd" fill-opacity="1" /><path clip-path="url(#clip830)" d="M1295.55 1553.98 L1295.55 1532.4 L1301.41 1532.4 L1301.41 1553.75 Q1301.41 1558.81 1303.38 1561.36 Q1305.35 1563.87 1309.3 1563.87 Q1314.04 1563.87 1316.78 1560.85 Q1319.55 1557.83 1319.55 1552.61 L1319.55 1532.4 L1325.41 1532.4 L1325.41 1568.04 L1319.55 1568.04 L1319.55 1562.57 Q1317.42 1565.82 1314.58 1567.41 Q1311.78 1568.97 1308.06 1568.97 Q1301.92 1568.97 1298.73 1565.15 Q1295.55 1561.33 1295.55 1553.98 M1310.29 1531.54 L1310.29 1531.54 Z" fill="#000000" fill-rule="evenodd" fill-opacity="1" /><path clip-path="url(#clip830)" d="M1365.22 1539.24 Q1367.42 1535.29 1370.48 1533.41 Q1373.53 1531.54 1377.67 1531.54 Q1383.24 1531.54 1386.26 1535.45 Q1389.29 1539.33 1389.29 1546.53 L1389.29 1568.04 L1383.4 1568.04 L1383.4 1546.72 Q1383.4 1541.59 1381.58 1539.11 Q1379.77 1536.63 1376.05 1536.63 Q1371.49 1536.63 1368.85 1539.65 Q1366.21 1542.68 1366.21 1547.9 L1366.21 1568.04 L1360.32 1568.04 L1360.32 1546.72 Q1360.32 1541.56 1358.51 1539.11 Q1356.69 1536.63 1352.91 1536.63 Q1348.42 1536.63 1345.78 1539.68 Q1343.14 1542.71 1343.14 1547.9 L1343.14 1568.04 L1337.25 1568.04 L1337.25 1532.4 L1343.14 1532.4 L1343.14 1537.93 Q1345.14 1534.66 1347.94 1533.1 Q1350.74 1531.54 1354.59 1531.54 Q1358.48 1531.54 1361.18 1533.51 Q1363.92 1535.48 1365.22 1539.24 Z" fill="#000000" fill-rule="evenodd" fill-opacity="1" /><path clip-path="url(#clip830)" d="M1426.56 1550.25 Q1426.56 1543.79 1423.88 1540.13 Q1421.24 1536.44 1416.6 1536.44 Q1411.95 1536.44 1409.27 1540.13 Q1406.63 1543.79 1406.63 1550.25 Q1406.63 1556.71 1409.27 1560.4 Q1411.95 1564.07 1416.6 1564.07 Q1421.24 1564.07 1423.88 1560.4 Q1426.56 1556.71 1426.56 1550.25 M1406.63 1537.81 Q1408.48 1534.62 1411.28 1533.1 Q1414.11 1531.54 1418.03 1531.54 Q1424.52 1531.54 1428.56 1536.69 Q1432.64 1541.85 1432.64 1550.25 Q1432.64 1558.65 1428.56 1563.81 Q1424.52 1568.97 1418.03 1568.97 Q1414.11 1568.97 1411.28 1567.44 Q1408.48 1565.88 1406.63 1562.7 L1406.63 1568.04 L1400.74 1568.04 L1400.74 1518.52 L1406.63 1518.52 L1406.63 1537.81 Z" fill="#000000" fill-rule="evenodd" fill-opacity="1" /><path clip-path="url(#clip830)" d="M1472.84 1548.76 L1472.84 1551.62 L1445.91 1551.62 Q1446.29 1557.67 1449.54 1560.85 Q1452.82 1564 1458.64 1564 Q1462.01 1564 1465.17 1563.17 Q1468.35 1562.35 1471.47 1560.69 L1471.47 1566.23 Q1468.32 1567.57 1465.01 1568.27 Q1461.7 1568.97 1458.29 1568.97 Q1449.76 1568.97 1444.76 1564 Q1439.8 1559.04 1439.8 1550.57 Q1439.8 1541.82 1444.51 1536.69 Q1449.25 1531.54 1457.27 1531.54 Q1464.47 1531.54 1468.64 1536.18 Q1472.84 1540.8 1472.84 1548.76 M1466.98 1547.04 Q1466.92 1542.23 1464.27 1539.37 Q1461.66 1536.5 1457.34 1536.5 Q1452.43 1536.5 1449.47 1539.27 Q1446.55 1542.04 1446.1 1547.07 L1466.98 1547.04 Z" fill="#000000" fill-rule="evenodd" fill-opacity="1" /><path clip-path="url(#clip830)" d="M1503.11 1537.87 Q1502.12 1537.3 1500.94 1537.04 Q1499.8 1536.76 1498.39 1536.76 Q1493.43 1536.76 1490.76 1540 Q1488.11 1543.22 1488.11 1549.27 L1488.11 1568.04 L1482.23 1568.04 L1482.23 1532.4 L1488.11 1532.4 L1488.11 1537.93 Q1489.96 1534.69 1492.92 1533.13 Q1495.88 1531.54 1500.11 1531.54 Q1500.72 1531.54 1501.45 1531.63 Q1502.18 1531.7 1503.07 1531.85 L1503.11 1537.87 Z" fill="#000000" fill-rule="evenodd" fill-opacity="1" /><polyline clip-path="url(#clip832)" style="stroke:#000000; stroke-linecap:round; stroke-linejoin:round; stroke-width:2; stroke-opacity:0.1; fill:none" points="
  250.028,1423.18 2352.76,1423.18 
  "/>
<polyline clip-path="url(#clip832)" style="stroke:#000000; stroke-linecap:round; stroke-linejoin:round; stroke-width:2; stroke-opacity:0.1; fill:none" points="
  250.028,1237.51 2352.76,1237.51 
  "/>
<polyline clip-path="url(#clip832)" style="stroke:#000000; stroke-linecap:round; stroke-linejoin:round; stroke-width:2; stroke-opacity:0.1; fill:none" points="
  250.028,1051.83 2352.76,1051.83 
  "/>
<polyline clip-path="url(#clip832)" style="stroke:#000000; stroke-linecap:round; stroke-linejoin:round; stroke-width:2; stroke-opacity:0.1; fill:none" points="
  250.028,866.162 2352.76,866.162 
  "/>
<polyline clip-path="url(#clip832)" style="stroke:#000000; stroke-linecap:round; stroke-linejoin:round; stroke-width:2; stroke-opacity:0.1; fill:none" points="
  250.028,680.49 2352.76,680.49 
  "/>
<polyline clip-path="url(#clip832)" style="stroke:#000000; stroke-linecap:round; stroke-linejoin:round; stroke-width:2; stroke-opacity:0.1; fill:none" points="
  250.028,494.817 2352.76,494.817 
  "/>
<polyline clip-path="url(#clip832)" style="stroke:#000000; stroke-linecap:round; stroke-linejoin:round; stroke-width:2; stroke-opacity:0.1; fill:none" points="
  250.028,309.145 2352.76,309.145 
  "/>
<polyline clip-path="url(#clip832)" style="stroke:#000000; stroke-linecap:round; stroke-linejoin:round; stroke-width:2; stroke-opacity:0.1; fill:none" points="
  250.028,123.472 2352.76,123.472 
  "/>
<polyline clip-path="url(#clip830)" style="stroke:#000000; stroke-linecap:round; stroke-linejoin:round; stroke-width:4; stroke-opacity:1; fill:none" points="
  250.028,1423.18 250.028,123.472 
  "/>
<polyline clip-path="url(#clip830)" style="stroke:#000000; stroke-linecap:round; stroke-linejoin:round; stroke-width:4; stroke-opacity:1; fill:none" points="
  250.028,1423.18 268.926,1423.18 
  "/>
<polyline clip-path="url(#clip830)" style="stroke:#000000; stroke-linecap:round; stroke-linejoin:round; stroke-width:4; stroke-opacity:1; fill:none" points="
  250.028,1237.51 268.926,1237.51 
  "/>
<polyline clip-path="url(#clip830)" style="stroke:#000000; stroke-linecap:round; stroke-linejoin:round; stroke-width:4; stroke-opacity:1; fill:none" points="
  250.028,1051.83 268.926,1051.83 
  "/>
<polyline clip-path="url(#clip830)" style="stroke:#000000; stroke-linecap:round; stroke-linejoin:round; stroke-width:4; stroke-opacity:1; fill:none" points="
  250.028,866.162 268.926,866.162 
  "/>
<polyline clip-path="url(#clip830)" style="stroke:#000000; stroke-linecap:round; stroke-linejoin:round; stroke-width:4; stroke-opacity:1; fill:none" points="
  250.028,680.49 268.926,680.49 
  "/>
<polyline clip-path="url(#clip830)" style="stroke:#000000; stroke-linecap:round; stroke-linejoin:round; stroke-width:4; stroke-opacity:1; fill:none" points="
  250.028,494.817 268.926,494.817 
  "/>
<polyline clip-path="url(#clip830)" style="stroke:#000000; stroke-linecap:round; stroke-linejoin:round; stroke-width:4; stroke-opacity:1; fill:none" points="
  250.028,309.145 268.926,309.145 
  "/>
<polyline clip-path="url(#clip830)" style="stroke:#000000; stroke-linecap:round; stroke-linejoin:round; stroke-width:4; stroke-opacity:1; fill:none" points="
  250.028,123.472 268.926,123.472 
  "/>
<path clip-path="url(#clip830)" d="M128.288 1408.98 Q124.677 1408.98 122.848 1412.54 Q121.043 1416.08 121.043 1423.21 Q121.043 1430.32 122.848 1433.89 Q124.677 1437.43 128.288 1437.43 Q131.922 1437.43 133.728 1433.89 Q135.556 1430.32 135.556 1423.21 Q135.556 1416.08 133.728 1412.54 Q131.922 1408.98 128.288 1408.98 M128.288 1405.27 Q134.098 1405.27 137.154 1409.88 Q140.232 1414.46 140.232 1423.21 Q140.232 1431.94 137.154 1436.55 Q134.098 1441.13 128.288 1441.13 Q122.478 1441.13 119.399 1436.55 Q116.343 1431.94 116.343 1423.21 Q116.343 1414.46 119.399 1409.88 Q122.478 1405.27 128.288 1405.27 Z" fill="#000000" fill-rule="evenodd" fill-opacity="1" /><path clip-path="url(#clip830)" d="M148.45 1434.58 L153.334 1434.58 L153.334 1440.46 L148.45 1440.46 L148.45 1434.58 Z" fill="#000000" fill-rule="evenodd" fill-opacity="1" /><path clip-path="url(#clip830)" d="M176.366 1409.97 L164.561 1428.42 L176.366 1428.42 L176.366 1409.97 M175.139 1405.9 L181.019 1405.9 L181.019 1428.42 L185.95 1428.42 L185.95 1432.31 L181.019 1432.31 L181.019 1440.46 L176.366 1440.46 L176.366 1432.31 L160.765 1432.31 L160.765 1427.8 L175.139 1405.9 Z" fill="#000000" fill-rule="evenodd" fill-opacity="1" /><path clip-path="url(#clip830)" d="M197.709 1436.52 L214.028 1436.52 L214.028 1440.46 L192.084 1440.46 L192.084 1436.52 Q194.746 1433.77 199.329 1429.14 Q203.936 1424.49 205.116 1423.15 Q207.362 1420.62 208.241 1418.89 Q209.144 1417.13 209.144 1415.44 Q209.144 1412.68 207.199 1410.95 Q205.278 1409.21 202.176 1409.21 Q199.977 1409.21 197.524 1409.97 Q195.093 1410.74 192.315 1412.29 L192.315 1407.57 Q195.139 1406.43 197.593 1405.85 Q200.047 1405.27 202.084 1405.27 Q207.454 1405.27 210.649 1407.96 Q213.843 1410.65 213.843 1415.14 Q213.843 1417.27 213.033 1419.19 Q212.246 1421.08 210.139 1423.68 Q209.561 1424.35 206.459 1427.57 Q203.357 1430.76 197.709 1436.52 Z" fill="#000000" fill-rule="evenodd" fill-opacity="1" /><path clip-path="url(#clip830)" d="M127.339 1223.31 Q123.728 1223.31 121.899 1226.87 Q120.093 1230.41 120.093 1237.54 Q120.093 1244.65 121.899 1248.21 Q123.728 1251.75 127.339 1251.75 Q130.973 1251.75 132.779 1248.21 Q134.607 1244.65 134.607 1237.54 Q134.607 1230.41 132.779 1226.87 Q130.973 1223.31 127.339 1223.31 M127.339 1219.6 Q133.149 1219.6 136.204 1224.21 Q139.283 1228.79 139.283 1237.54 Q139.283 1246.27 136.204 1250.88 Q133.149 1255.46 127.339 1255.46 Q121.529 1255.46 118.45 1250.88 Q115.394 1246.27 115.394 1237.54 Q115.394 1228.79 118.45 1224.21 Q121.529 1219.6 127.339 1219.6 Z" fill="#000000" fill-rule="evenodd" fill-opacity="1" /><path clip-path="url(#clip830)" d="M147.501 1248.91 L152.385 1248.91 L152.385 1254.79 L147.501 1254.79 L147.501 1248.91 Z" fill="#000000" fill-rule="evenodd" fill-opacity="1" /><path clip-path="url(#clip830)" d="M175.417 1224.3 L163.612 1242.75 L175.417 1242.75 L175.417 1224.3 M174.19 1220.23 L180.07 1220.23 L180.07 1242.75 L185.001 1242.75 L185.001 1246.64 L180.07 1246.64 L180.07 1254.79 L175.417 1254.79 L175.417 1246.64 L159.815 1246.64 L159.815 1242.13 L174.19 1220.23 Z" fill="#000000" fill-rule="evenodd" fill-opacity="1" /><path clip-path="url(#clip830)" d="M206.899 1236.15 Q210.255 1236.87 212.13 1239.14 Q214.028 1241.41 214.028 1244.74 Q214.028 1249.86 210.51 1252.66 Q206.991 1255.46 200.51 1255.46 Q198.334 1255.46 196.019 1255.02 Q193.727 1254.6 191.274 1253.75 L191.274 1249.23 Q193.218 1250.37 195.533 1250.94 Q197.848 1251.52 200.371 1251.52 Q204.769 1251.52 207.061 1249.79 Q209.375 1248.05 209.375 1244.74 Q209.375 1241.69 207.223 1239.97 Q205.093 1238.24 201.274 1238.24 L197.246 1238.24 L197.246 1234.39 L201.459 1234.39 Q204.908 1234.39 206.737 1233.03 Q208.565 1231.64 208.565 1229.05 Q208.565 1226.38 206.667 1224.97 Q204.792 1223.54 201.274 1223.54 Q199.352 1223.54 197.153 1223.95 Q194.954 1224.37 192.315 1225.25 L192.315 1221.08 Q194.977 1220.34 197.292 1219.97 Q199.63 1219.6 201.69 1219.6 Q207.014 1219.6 210.116 1222.03 Q213.218 1224.44 213.218 1228.56 Q213.218 1231.43 211.574 1233.42 Q209.931 1235.39 206.899 1236.15 Z" fill="#000000" fill-rule="evenodd" fill-opacity="1" /><path clip-path="url(#clip830)" d="M126.205 1037.63 Q122.593 1037.63 120.765 1041.2 Q118.959 1044.74 118.959 1051.87 Q118.959 1058.98 120.765 1062.54 Q122.593 1066.08 126.205 1066.08 Q129.839 1066.08 131.644 1062.54 Q133.473 1058.98 133.473 1051.87 Q133.473 1044.74 131.644 1041.2 Q129.839 1037.63 126.205 1037.63 M126.205 1033.93 Q132.015 1033.93 135.07 1038.54 Q138.149 1043.12 138.149 1051.87 Q138.149 1060.6 135.07 1065.2 Q132.015 1069.79 126.205 1069.79 Q120.394 1069.79 117.316 1065.2 Q114.26 1060.6 114.26 1051.87 Q114.26 1043.12 117.316 1038.54 Q120.394 1033.93 126.205 1033.93 Z" fill="#000000" fill-rule="evenodd" fill-opacity="1" /><path clip-path="url(#clip830)" d="M146.366 1063.24 L151.251 1063.24 L151.251 1069.11 L146.366 1069.11 L146.366 1063.24 Z" fill="#000000" fill-rule="evenodd" fill-opacity="1" /><path clip-path="url(#clip830)" d="M174.283 1038.63 L162.477 1057.08 L174.283 1057.08 L174.283 1038.63 M173.056 1034.55 L178.936 1034.55 L178.936 1057.08 L183.866 1057.08 L183.866 1060.97 L178.936 1060.97 L178.936 1069.11 L174.283 1069.11 L174.283 1060.97 L158.681 1060.97 L158.681 1056.45 L173.056 1034.55 Z" fill="#000000" fill-rule="evenodd" fill-opacity="1" /><path clip-path="url(#clip830)" d="M204.445 1038.63 L192.639 1057.08 L204.445 1057.08 L204.445 1038.63 M203.218 1034.55 L209.098 1034.55 L209.098 1057.08 L214.028 1057.08 L214.028 1060.97 L209.098 1060.97 L209.098 1069.11 L204.445 1069.11 L204.445 1060.97 L188.843 1060.97 L188.843 1056.45 L203.218 1034.55 Z" fill="#000000" fill-rule="evenodd" fill-opacity="1" /><path clip-path="url(#clip830)" d="M127.686 851.961 Q124.075 851.961 122.246 855.526 Q120.441 859.067 120.441 866.197 Q120.441 873.303 122.246 876.868 Q124.075 880.41 127.686 880.41 Q131.32 880.41 133.126 876.868 Q134.954 873.303 134.954 866.197 Q134.954 859.067 133.126 855.526 Q131.32 851.961 127.686 851.961 M127.686 848.257 Q133.496 848.257 136.552 852.864 Q139.63 857.447 139.63 866.197 Q139.63 874.924 136.552 879.53 Q133.496 884.114 127.686 884.114 Q121.876 884.114 118.797 879.53 Q115.742 874.924 115.742 866.197 Q115.742 857.447 118.797 852.864 Q121.876 848.257 127.686 848.257 Z" fill="#000000" fill-rule="evenodd" fill-opacity="1" /><path clip-path="url(#clip830)" d="M147.848 877.563 L152.732 877.563 L152.732 883.442 L147.848 883.442 L147.848 877.563 Z" fill="#000000" fill-rule="evenodd" fill-opacity="1" /><path clip-path="url(#clip830)" d="M175.764 852.956 L163.959 871.405 L175.764 871.405 L175.764 852.956 M174.538 848.882 L180.417 848.882 L180.417 871.405 L185.348 871.405 L185.348 875.294 L180.417 875.294 L180.417 883.442 L175.764 883.442 L175.764 875.294 L160.163 875.294 L160.163 870.78 L174.538 848.882 Z" fill="#000000" fill-rule="evenodd" fill-opacity="1" /><path clip-path="url(#clip830)" d="M193.125 848.882 L211.482 848.882 L211.482 852.817 L197.408 852.817 L197.408 861.29 Q198.426 860.942 199.445 860.78 Q200.463 860.595 201.482 860.595 Q207.269 860.595 210.649 863.766 Q214.028 866.938 214.028 872.354 Q214.028 877.933 210.556 881.035 Q207.084 884.114 200.764 884.114 Q198.588 884.114 196.32 883.743 Q194.075 883.373 191.667 882.632 L191.667 877.933 Q193.75 879.067 195.973 879.623 Q198.195 880.178 200.672 880.178 Q204.676 880.178 207.014 878.072 Q209.352 875.965 209.352 872.354 Q209.352 868.743 207.014 866.637 Q204.676 864.53 200.672 864.53 Q198.797 864.53 196.922 864.947 Q195.07 865.364 193.125 866.243 L193.125 848.882 Z" fill="#000000" fill-rule="evenodd" fill-opacity="1" /><path clip-path="url(#clip830)" d="M126.529 666.288 Q122.918 666.288 121.089 669.853 Q119.283 673.395 119.283 680.524 Q119.283 687.631 121.089 691.196 Q122.918 694.737 126.529 694.737 Q130.163 694.737 131.968 691.196 Q133.797 687.631 133.797 680.524 Q133.797 673.395 131.968 669.853 Q130.163 666.288 126.529 666.288 M126.529 662.585 Q132.339 662.585 135.394 667.191 Q138.473 671.774 138.473 680.524 Q138.473 689.251 135.394 693.858 Q132.339 698.441 126.529 698.441 Q120.718 698.441 117.64 693.858 Q114.584 689.251 114.584 680.524 Q114.584 671.774 117.64 667.191 Q120.718 662.585 126.529 662.585 Z" fill="#000000" fill-rule="evenodd" fill-opacity="1" /><path clip-path="url(#clip830)" d="M146.691 691.89 L151.575 691.89 L151.575 697.77 L146.691 697.77 L146.691 691.89 Z" fill="#000000" fill-rule="evenodd" fill-opacity="1" /><path clip-path="url(#clip830)" d="M174.607 667.284 L162.802 685.733 L174.607 685.733 L174.607 667.284 M173.38 663.21 L179.26 663.21 L179.26 685.733 L184.19 685.733 L184.19 689.622 L179.26 689.622 L179.26 697.77 L174.607 697.77 L174.607 689.622 L159.005 689.622 L159.005 685.108 L173.38 663.21 Z" fill="#000000" fill-rule="evenodd" fill-opacity="1" /><path clip-path="url(#clip830)" d="M202.5 678.626 Q199.352 678.626 197.5 680.779 Q195.672 682.932 195.672 686.682 Q195.672 690.409 197.5 692.585 Q199.352 694.737 202.5 694.737 Q205.649 694.737 207.477 692.585 Q209.329 690.409 209.329 686.682 Q209.329 682.932 207.477 680.779 Q205.649 678.626 202.5 678.626 M211.783 663.974 L211.783 668.233 Q210.024 667.4 208.218 666.96 Q206.436 666.52 204.676 666.52 Q200.047 666.52 197.593 669.645 Q195.163 672.77 194.815 679.089 Q196.181 677.075 198.241 676.011 Q200.301 674.923 202.778 674.923 Q207.987 674.923 210.996 678.094 Q214.028 681.242 214.028 686.682 Q214.028 692.006 210.88 695.223 Q207.732 698.441 202.5 698.441 Q196.505 698.441 193.334 693.858 Q190.163 689.251 190.163 680.524 Q190.163 672.33 194.051 667.469 Q197.94 662.585 204.491 662.585 Q206.25 662.585 208.033 662.932 Q209.838 663.279 211.783 663.974 Z" fill="#000000" fill-rule="evenodd" fill-opacity="1" /><path clip-path="url(#clip830)" d="M127.593 480.616 Q123.982 480.616 122.154 484.181 Q120.348 487.722 120.348 494.852 Q120.348 501.958 122.154 505.523 Q123.982 509.065 127.593 509.065 Q131.228 509.065 133.033 505.523 Q134.862 501.958 134.862 494.852 Q134.862 487.722 133.033 484.181 Q131.228 480.616 127.593 480.616 M127.593 476.912 Q133.404 476.912 136.459 481.519 Q139.538 486.102 139.538 494.852 Q139.538 503.579 136.459 508.185 Q133.404 512.768 127.593 512.768 Q121.783 512.768 118.705 508.185 Q115.649 503.579 115.649 494.852 Q115.649 486.102 118.705 481.519 Q121.783 476.912 127.593 476.912 Z" fill="#000000" fill-rule="evenodd" fill-opacity="1" /><path clip-path="url(#clip830)" d="M147.755 506.218 L152.64 506.218 L152.64 512.097 L147.755 512.097 L147.755 506.218 Z" fill="#000000" fill-rule="evenodd" fill-opacity="1" /><path clip-path="url(#clip830)" d="M175.672 481.611 L163.866 500.06 L175.672 500.06 L175.672 481.611 M174.445 477.537 L180.325 477.537 L180.325 500.06 L185.255 500.06 L185.255 503.949 L180.325 503.949 L180.325 512.097 L175.672 512.097 L175.672 503.949 L160.07 503.949 L160.07 499.435 L174.445 477.537 Z" fill="#000000" fill-rule="evenodd" fill-opacity="1" /><path clip-path="url(#clip830)" d="M191.806 477.537 L214.028 477.537 L214.028 479.528 L201.482 512.097 L196.598 512.097 L208.403 481.472 L191.806 481.472 L191.806 477.537 Z" fill="#000000" fill-rule="evenodd" fill-opacity="1" /><path clip-path="url(#clip830)" d="M126.783 294.943 Q123.172 294.943 121.343 298.508 Q119.538 302.05 119.538 309.179 Q119.538 316.286 121.343 319.851 Q123.172 323.392 126.783 323.392 Q130.417 323.392 132.223 319.851 Q134.052 316.286 134.052 309.179 Q134.052 302.05 132.223 298.508 Q130.417 294.943 126.783 294.943 M126.783 291.24 Q132.593 291.24 135.649 295.846 Q138.728 300.429 138.728 309.179 Q138.728 317.906 135.649 322.513 Q132.593 327.096 126.783 327.096 Q120.973 327.096 117.894 322.513 Q114.839 317.906 114.839 309.179 Q114.839 300.429 117.894 295.846 Q120.973 291.24 126.783 291.24 Z" fill="#000000" fill-rule="evenodd" fill-opacity="1" /><path clip-path="url(#clip830)" d="M146.945 320.545 L151.829 320.545 L151.829 326.425 L146.945 326.425 L146.945 320.545 Z" fill="#000000" fill-rule="evenodd" fill-opacity="1" /><path clip-path="url(#clip830)" d="M174.862 295.939 L163.056 314.388 L174.862 314.388 L174.862 295.939 M173.635 291.865 L179.514 291.865 L179.514 314.388 L184.445 314.388 L184.445 318.277 L179.514 318.277 L179.514 326.425 L174.862 326.425 L174.862 318.277 L159.26 318.277 L159.26 313.763 L173.635 291.865 Z" fill="#000000" fill-rule="evenodd" fill-opacity="1" /><path clip-path="url(#clip830)" d="M202.176 310.013 Q198.843 310.013 196.922 311.795 Q195.024 313.578 195.024 316.702 Q195.024 319.827 196.922 321.61 Q198.843 323.392 202.176 323.392 Q205.51 323.392 207.431 321.61 Q209.352 319.804 209.352 316.702 Q209.352 313.578 207.431 311.795 Q205.533 310.013 202.176 310.013 M197.5 308.022 Q194.491 307.281 192.801 305.221 Q191.135 303.161 191.135 300.198 Q191.135 296.054 194.075 293.647 Q197.037 291.24 202.176 291.24 Q207.338 291.24 210.278 293.647 Q213.218 296.054 213.218 300.198 Q213.218 303.161 211.528 305.221 Q209.861 307.281 206.875 308.022 Q210.255 308.809 212.13 311.101 Q214.028 313.392 214.028 316.702 Q214.028 321.726 210.949 324.411 Q207.894 327.096 202.176 327.096 Q196.459 327.096 193.38 324.411 Q190.325 321.726 190.325 316.702 Q190.325 313.392 192.223 311.101 Q194.121 308.809 197.5 308.022 M195.787 300.638 Q195.787 303.323 197.454 304.828 Q199.144 306.332 202.176 306.332 Q205.186 306.332 206.875 304.828 Q208.588 303.323 208.588 300.638 Q208.588 297.953 206.875 296.448 Q205.186 294.943 202.176 294.943 Q199.144 294.943 197.454 296.448 Q195.787 297.953 195.787 300.638 Z" fill="#000000" fill-rule="evenodd" fill-opacity="1" /><path clip-path="url(#clip830)" d="M126.876 109.271 Q123.265 109.271 121.436 112.836 Q119.63 116.377 119.63 123.507 Q119.63 130.613 121.436 134.178 Q123.265 137.72 126.876 137.72 Q130.51 137.72 132.316 134.178 Q134.144 130.613 134.144 123.507 Q134.144 116.377 132.316 112.836 Q130.51 109.271 126.876 109.271 M126.876 105.567 Q132.686 105.567 135.742 110.174 Q138.82 114.757 138.82 123.507 Q138.82 132.234 135.742 136.84 Q132.686 141.423 126.876 141.423 Q121.066 141.423 117.987 136.84 Q114.931 132.234 114.931 123.507 Q114.931 114.757 117.987 110.174 Q121.066 105.567 126.876 105.567 Z" fill="#000000" fill-rule="evenodd" fill-opacity="1" /><path clip-path="url(#clip830)" d="M147.038 134.873 L151.922 134.873 L151.922 140.752 L147.038 140.752 L147.038 134.873 Z" fill="#000000" fill-rule="evenodd" fill-opacity="1" /><path clip-path="url(#clip830)" d="M174.954 110.266 L163.149 128.715 L174.954 128.715 L174.954 110.266 M173.727 106.192 L179.607 106.192 L179.607 128.715 L184.538 128.715 L184.538 132.604 L179.607 132.604 L179.607 140.752 L174.954 140.752 L174.954 132.604 L159.353 132.604 L159.353 128.09 L173.727 106.192 Z" fill="#000000" fill-rule="evenodd" fill-opacity="1" /><path clip-path="url(#clip830)" d="M192.408 140.035 L192.408 135.775 Q194.167 136.609 195.973 137.048 Q197.778 137.488 199.514 137.488 Q204.144 137.488 206.574 134.386 Q209.028 131.261 209.375 124.919 Q208.033 126.91 205.973 127.974 Q203.912 129.039 201.412 129.039 Q196.227 129.039 193.195 125.914 Q190.186 122.766 190.186 117.326 Q190.186 112.002 193.334 108.785 Q196.482 105.567 201.713 105.567 Q207.709 105.567 210.857 110.174 Q214.028 114.757 214.028 123.507 Q214.028 131.678 210.139 136.562 Q206.274 141.423 199.723 141.423 Q197.963 141.423 196.158 141.076 Q194.352 140.729 192.408 140.035 M201.713 125.382 Q204.862 125.382 206.69 123.229 Q208.542 121.076 208.542 117.326 Q208.542 113.599 206.69 111.447 Q204.862 109.271 201.713 109.271 Q198.565 109.271 196.713 111.447 Q194.885 113.599 194.885 117.326 Q194.885 121.076 196.713 123.229 Q198.565 125.382 201.713 125.382 Z" fill="#000000" fill-rule="evenodd" fill-opacity="1" /><path clip-path="url(#clip830)" d="M16.4842 987.834 L16.4842 981.405 L64.0042 981.405 L64.0042 987.834 L16.4842 987.834 Z" fill="#000000" fill-rule="evenodd" fill-opacity="1" /><path clip-path="url(#clip830)" d="M42.4881 939.232 L64.0042 939.232 L64.0042 945.089 L42.679 945.089 Q37.6183 945.089 35.1038 947.062 Q32.5894 949.035 32.5894 952.982 Q32.5894 957.725 35.6131 960.462 Q38.6368 963.199 43.8567 963.199 L64.0042 963.199 L64.0042 969.087 L28.3562 969.087 L28.3562 963.199 L33.8944 963.199 Q30.6797 961.098 29.0883 958.266 Q27.4968 955.401 27.4968 951.677 Q27.4968 945.534 31.3163 942.383 Q35.1038 939.232 42.4881 939.232 Z" fill="#000000" fill-rule="evenodd" fill-opacity="1" /><path clip-path="url(#clip830)" d="M42.4881 897.919 L64.0042 897.919 L64.0042 903.775 L42.679 903.775 Q37.6183 903.775 35.1038 905.749 Q32.5894 907.722 32.5894 911.669 Q32.5894 916.411 35.6131 919.148 Q38.6368 921.886 43.8567 921.886 L64.0042 921.886 L64.0042 927.774 L28.3562 927.774 L28.3562 921.886 L33.8944 921.886 Q30.6797 919.785 29.0883 916.952 Q27.4968 914.088 27.4968 910.364 Q27.4968 904.221 31.3163 901.07 Q35.1038 897.919 42.4881 897.919 Z" fill="#000000" fill-rule="evenodd" fill-opacity="1" /><path clip-path="url(#clip830)" d="M44.7161 855.746 L47.5806 855.746 L47.5806 882.673 Q53.6281 882.291 56.8109 879.044 Q59.9619 875.766 59.9619 869.941 Q59.9619 866.568 59.1344 863.417 Q58.3069 860.234 56.6518 857.115 L62.1899 857.115 Q63.5267 860.266 64.227 863.576 Q64.9272 866.886 64.9272 870.292 Q64.9272 878.822 59.9619 883.819 Q54.9967 888.784 46.5303 888.784 Q37.7774 888.784 32.6531 884.073 Q27.4968 879.331 27.4968 871.31 Q27.4968 864.117 32.1438 859.947 Q36.7589 855.746 44.7161 855.746 M42.9973 861.602 Q38.1912 861.666 35.3266 864.308 Q32.4621 866.918 32.4621 871.246 Q32.4621 876.148 35.2312 879.108 Q38.0002 882.036 43.0292 882.482 L42.9973 861.602 Z" fill="#000000" fill-rule="evenodd" fill-opacity="1" /><path clip-path="url(#clip830)" d="M33.8307 825.477 Q33.2578 826.464 33.0032 827.641 Q32.7167 828.787 32.7167 830.188 Q32.7167 835.153 35.9632 837.827 Q39.1779 840.468 45.2253 840.468 L64.0042 840.468 L64.0042 846.357 L28.3562 846.357 L28.3562 840.468 L33.8944 840.468 Q30.6479 838.622 29.0883 835.662 Q27.4968 832.702 27.4968 828.469 Q27.4968 827.864 27.5923 827.132 Q27.656 826.4 27.8151 825.509 L33.8307 825.477 Z" fill="#000000" fill-rule="evenodd" fill-opacity="1" /><path clip-path="url(#clip830)" d="M21.7677 791.93 L39.6235 791.93 L39.6235 783.845 Q39.6235 779.357 37.3 776.907 Q34.9765 774.456 30.6797 774.456 Q26.4147 774.456 24.0912 776.907 Q21.7677 779.357 21.7677 783.845 L21.7677 791.93 M16.4842 798.359 L16.4842 783.845 Q16.4842 775.856 20.1126 771.782 Q23.7092 767.676 30.6797 767.676 Q37.7138 767.676 41.3104 771.782 Q44.907 775.856 44.907 783.845 L44.907 791.93 L64.0042 791.93 L64.0042 798.359 L16.4842 798.359 Z" fill="#000000" fill-rule="evenodd" fill-opacity="1" /><path clip-path="url(#clip830)" d="M33.8307 739.795 Q33.2578 740.781 33.0032 741.959 Q32.7167 743.105 32.7167 744.505 Q32.7167 749.47 35.9632 752.144 Q39.1779 754.786 45.2253 754.786 L64.0042 754.786 L64.0042 760.674 L28.3562 760.674 L28.3562 754.786 L33.8944 754.786 Q30.6479 752.94 29.0883 749.98 Q27.4968 747.02 27.4968 742.787 Q27.4968 742.182 27.5923 741.45 Q27.656 740.718 27.8151 739.826 L33.8307 739.795 Z" fill="#000000" fill-rule="evenodd" fill-opacity="1" /><path clip-path="url(#clip830)" d="M32.4621 721.27 Q32.4621 725.981 36.1542 728.718 Q39.8145 731.456 46.212 731.456 Q52.6095 731.456 56.3017 728.75 Q59.9619 726.013 59.9619 721.27 Q59.9619 716.592 56.2698 713.854 Q52.5777 711.117 46.212 711.117 Q39.8781 711.117 36.186 713.854 Q32.4621 716.592 32.4621 721.27 M27.4968 721.27 Q27.4968 713.632 32.4621 709.271 Q37.4273 704.911 46.212 704.911 Q54.9649 704.911 59.9619 709.271 Q64.9272 713.632 64.9272 721.27 Q64.9272 728.941 59.9619 733.302 Q54.9649 737.63 46.212 737.63 Q37.4273 737.63 32.4621 733.302 Q27.4968 728.941 27.4968 721.27 Z" fill="#000000" fill-rule="evenodd" fill-opacity="1" /><path clip-path="url(#clip830)" d="M33.7671 671.745 L14.479 671.745 L14.479 665.889 L64.0042 665.889 L64.0042 671.745 L58.657 671.745 Q61.8398 673.591 63.3994 676.424 Q64.9272 679.225 64.9272 683.172 Q64.9272 689.633 59.771 693.707 Q54.6147 697.749 46.212 697.749 Q37.8093 697.749 32.6531 693.707 Q27.4968 689.633 27.4968 683.172 Q27.4968 679.225 29.0564 676.424 Q30.5842 673.591 33.7671 671.745 M46.212 691.702 Q52.6732 691.702 56.3653 689.06 Q60.0256 686.386 60.0256 681.739 Q60.0256 677.092 56.3653 674.419 Q52.6732 671.745 46.212 671.745 Q39.7508 671.745 36.0905 674.419 Q32.3984 677.092 32.3984 681.739 Q32.3984 686.386 36.0905 689.06 Q39.7508 691.702 46.212 691.702 Z" fill="#000000" fill-rule="evenodd" fill-opacity="1" /><path clip-path="url(#clip830)" d="M49.9359 654.43 L28.3562 654.43 L28.3562 648.574 L49.7131 648.574 Q54.7739 648.574 57.3202 646.601 Q59.8346 644.627 59.8346 640.681 Q59.8346 635.938 56.8109 633.201 Q53.7872 630.432 48.5673 630.432 L28.3562 630.432 L28.3562 624.575 L64.0042 624.575 L64.0042 630.432 L58.5296 630.432 Q61.7762 632.564 63.3676 635.397 Q64.9272 638.198 64.9272 641.922 Q64.9272 648.065 61.1078 651.248 Q57.2883 654.43 49.9359 654.43 M27.4968 639.694 L27.4968 639.694 Z" fill="#000000" fill-rule="evenodd" fill-opacity="1" /><path clip-path="url(#clip830)" d="M29.7248 586.859 L35.1993 586.859 Q33.8307 589.341 33.1623 591.856 Q32.4621 594.338 32.4621 596.885 Q32.4621 602.582 36.0905 605.733 Q39.6872 608.884 46.212 608.884 Q52.7369 608.884 56.3653 605.733 Q59.9619 602.582 59.9619 596.885 Q59.9619 594.338 59.2935 591.856 Q58.5933 589.341 57.2247 586.859 L62.6355 586.859 Q63.7814 589.309 64.3543 591.951 Q64.9272 594.561 64.9272 597.521 Q64.9272 605.574 59.8664 610.316 Q54.8057 615.059 46.212 615.059 Q37.491 615.059 32.4939 610.284 Q27.4968 605.478 27.4968 597.139 Q27.4968 594.434 28.0697 591.856 Q28.6108 589.277 29.7248 586.859 Z" fill="#000000" fill-rule="evenodd" fill-opacity="1" /><path clip-path="url(#clip830)" d="M18.2347 570.881 L28.3562 570.881 L28.3562 558.818 L32.9077 558.818 L32.9077 570.881 L52.2594 570.881 Q56.6199 570.881 57.8613 569.703 Q59.1026 568.493 59.1026 564.833 L59.1026 558.818 L64.0042 558.818 L64.0042 564.833 Q64.0042 571.613 61.4897 574.191 Q58.9434 576.769 52.2594 576.769 L32.9077 576.769 L32.9077 581.066 L28.3562 581.066 L28.3562 576.769 L18.2347 576.769 L18.2347 570.881 Z" fill="#000000" fill-rule="evenodd" fill-opacity="1" /><path clip-path="url(#clip830)" d="M1170.97 17.6457 Q1162.06 17.6457 1156.79 24.2892 Q1151.57 30.9327 1151.57 42.3968 Q1151.57 53.8203 1156.79 60.4638 Q1162.06 67.1073 1170.97 67.1073 Q1179.89 67.1073 1185.07 60.4638 Q1190.3 53.8203 1190.3 42.3968 Q1190.3 30.9327 1185.07 24.2892 Q1179.89 17.6457 1170.97 17.6457 M1170.97 11.0023 Q1183.69 11.0023 1191.31 19.5497 Q1198.92 28.0566 1198.92 42.3968 Q1198.92 56.6965 1191.31 65.2439 Q1183.69 73.7508 1170.97 73.7508 Q1158.21 73.7508 1150.56 65.2439 Q1142.94 56.737 1142.94 42.3968 Q1142.94 28.0566 1150.56 19.5497 Q1158.21 11.0023 1170.97 11.0023 Z" fill="#000000" fill-rule="evenodd" fill-opacity="1" /><path clip-path="url(#clip830)" d="M1206.05 27.2059 L1213.95 27.2059 L1228.13 65.2844 L1242.31 27.2059 L1250.21 27.2059 L1233.2 72.576 L1223.07 72.576 L1206.05 27.2059 Z" fill="#000000" fill-rule="evenodd" fill-opacity="1" /><path clip-path="url(#clip830)" d="M1299.31 48.0275 L1299.31 51.6733 L1265.04 51.6733 Q1265.52 59.3701 1269.65 63.421 Q1273.83 67.4314 1281.24 67.4314 Q1285.53 67.4314 1289.54 66.3781 Q1293.59 65.3249 1297.56 63.2184 L1297.56 70.267 Q1293.55 71.9684 1289.34 72.8596 Q1285.13 73.7508 1280.79 73.7508 Q1269.94 73.7508 1263.58 67.4314 Q1257.26 61.1119 1257.26 50.3365 Q1257.26 39.1965 1263.25 32.6746 Q1269.29 26.1121 1279.5 26.1121 Q1288.65 26.1121 1293.96 32.0264 Q1299.31 37.9003 1299.31 48.0275 M1291.85 45.84 Q1291.77 39.7232 1288.41 36.0774 Q1285.09 32.4315 1279.58 32.4315 Q1273.34 32.4315 1269.57 35.9558 Q1265.85 39.4801 1265.28 45.8805 L1291.85 45.84 Z" fill="#000000" fill-rule="evenodd" fill-opacity="1" /><path clip-path="url(#clip830)" d="M1337.83 34.1734 Q1336.57 33.4443 1335.08 33.1202 Q1333.62 32.7556 1331.83 32.7556 Q1325.52 32.7556 1322.11 36.8875 Q1318.75 40.9789 1318.75 48.6757 L1318.75 72.576 L1311.26 72.576 L1311.26 27.2059 L1318.75 27.2059 L1318.75 34.2544 Q1321.1 30.1225 1324.87 28.1376 Q1328.63 26.1121 1334.02 26.1121 Q1334.79 26.1121 1335.72 26.2337 Q1336.66 26.3147 1337.79 26.5172 L1337.83 34.1734 Z" fill="#000000" fill-rule="evenodd" fill-opacity="1" /><path clip-path="url(#clip830)" d="M1345.65 9.54393 L1353.1 9.54393 L1353.1 72.576 L1345.65 72.576 L1345.65 9.54393 Z" fill="#000000" fill-rule="evenodd" fill-opacity="1" /><path clip-path="url(#clip830)" d="M1389.32 49.7694 Q1380.28 49.7694 1376.8 51.8354 Q1373.32 53.9013 1373.32 58.8839 Q1373.32 62.8538 1375.91 65.2034 Q1378.54 67.5124 1383.04 67.5124 Q1389.24 67.5124 1392.96 63.1374 Q1396.73 58.7219 1396.73 51.4303 L1396.73 49.7694 L1389.32 49.7694 M1404.18 46.6907 L1404.18 72.576 L1396.73 72.576 L1396.73 65.6895 Q1394.18 69.8214 1390.37 71.8063 Q1386.56 73.7508 1381.05 73.7508 Q1374.09 73.7508 1369.95 69.8619 Q1365.86 65.9325 1365.86 59.3701 Q1365.86 51.7138 1370.97 47.825 Q1376.11 43.9361 1386.28 43.9361 L1396.73 43.9361 L1396.73 43.2069 Q1396.73 38.0623 1393.33 35.2672 Q1389.97 32.4315 1383.85 32.4315 Q1379.96 32.4315 1376.27 33.3632 Q1372.59 34.295 1369.18 36.1584 L1369.18 29.2718 Q1373.28 27.692 1377.12 26.9223 Q1380.97 26.1121 1384.62 26.1121 Q1394.46 26.1121 1399.32 31.2163 Q1404.18 36.3204 1404.18 46.6907 Z" fill="#000000" fill-rule="evenodd" fill-opacity="1" /><path clip-path="url(#clip830)" d="M1426.75 65.7705 L1426.75 89.8329 L1419.25 89.8329 L1419.25 27.2059 L1426.75 27.2059 L1426.75 34.0924 Q1429.1 30.0415 1432.66 28.0971 Q1436.27 26.1121 1441.25 26.1121 Q1449.51 26.1121 1454.66 32.6746 Q1459.84 39.2371 1459.84 49.9314 Q1459.84 60.6258 1454.66 67.1883 Q1449.51 73.7508 1441.25 73.7508 Q1436.27 73.7508 1432.66 71.8063 Q1429.1 69.8214 1426.75 65.7705 M1452.11 49.9314 Q1452.11 41.7081 1448.7 37.0496 Q1445.34 32.3505 1439.43 32.3505 Q1433.51 32.3505 1430.11 37.0496 Q1426.75 41.7081 1426.75 49.9314 Q1426.75 58.1548 1430.11 62.8538 Q1433.51 67.5124 1439.43 67.5124 Q1445.34 67.5124 1448.7 62.8538 Q1452.11 58.1548 1452.11 49.9314 Z" fill="#000000" fill-rule="evenodd" fill-opacity="1" /><polyline clip-path="url(#clip832)" style="stroke:#000000; stroke-linecap:round; stroke-linejoin:round; stroke-width:4; stroke-opacity:1; fill:none" points="
  292.083,409.672 292.083,409.672 
  "/>
<polyline clip-path="url(#clip832)" style="stroke:#000000; stroke-linecap:round; stroke-linejoin:round; stroke-width:4; stroke-opacity:1; fill:none" points="
  334.137,468.454 334.137,468.453 
  "/>
<polyline clip-path="url(#clip832)" style="stroke:#000000; stroke-linecap:round; stroke-linejoin:round; stroke-width:4; stroke-opacity:1; fill:none" points="
  376.192,474.587 376.192,474.58 
  "/>
<polyline clip-path="url(#clip832)" style="stroke:#000000; stroke-linecap:round; stroke-linejoin:round; stroke-width:4; stroke-opacity:1; fill:none" points="
  418.246,474.618 418.246,474.55 
  "/>
<polyline clip-path="url(#clip832)" style="stroke:#000000; stroke-linecap:round; stroke-linejoin:round; stroke-width:4; stroke-opacity:1; fill:none" points="
  460.301,474.359 460.301,474.237 
  "/>
<polyline clip-path="url(#clip832)" style="stroke:#000000; stroke-linecap:round; stroke-linejoin:round; stroke-width:4; stroke-opacity:1; fill:none" points="
  502.355,474.439 502.355,473.791 
  "/>
<polyline clip-path="url(#clip832)" style="stroke:#000000; stroke-linecap:round; stroke-linejoin:round; stroke-width:4; stroke-opacity:1; fill:none" points="
  544.41,474.279 544.41,474.085 
  "/>
<polyline clip-path="url(#clip832)" style="stroke:#000000; stroke-linecap:round; stroke-linejoin:round; stroke-width:4; stroke-opacity:1; fill:none" points="
  586.465,474.568 586.465,473.753 
  "/>
<polyline clip-path="url(#clip832)" style="stroke:#000000; stroke-linecap:round; stroke-linejoin:round; stroke-width:4; stroke-opacity:1; fill:none" points="
  628.519,479.803 628.519,471.512 
  "/>
<polyline clip-path="url(#clip832)" style="stroke:#000000; stroke-linecap:round; stroke-linejoin:round; stroke-width:4; stroke-opacity:1; fill:none" points="
  670.574,476.583 670.574,471.59 
  "/>
<polyline clip-path="url(#clip832)" style="stroke:#000000; stroke-linecap:round; stroke-linejoin:round; stroke-width:4; stroke-opacity:1; fill:none" points="
  712.628,479.373 712.628,470.543 
  "/>
<polyline clip-path="url(#clip832)" style="stroke:#000000; stroke-linecap:round; stroke-linejoin:round; stroke-width:4; stroke-opacity:1; fill:none" points="
  754.683,475.644 754.683,470.348 
  "/>
<polyline clip-path="url(#clip832)" style="stroke:#000000; stroke-linecap:round; stroke-linejoin:round; stroke-width:4; stroke-opacity:1; fill:none" points="
  796.737,474.757 796.737,474.148 
  "/>
<polyline clip-path="url(#clip832)" style="stroke:#000000; stroke-linecap:round; stroke-linejoin:round; stroke-width:4; stroke-opacity:1; fill:none" points="
  838.792,477.319 838.792,470.675 
  "/>
<polyline clip-path="url(#clip832)" style="stroke:#000000; stroke-linecap:round; stroke-linejoin:round; stroke-width:4; stroke-opacity:1; fill:none" points="
  880.846,475.891 880.846,468.593 
  "/>
<polyline clip-path="url(#clip832)" style="stroke:#000000; stroke-linecap:round; stroke-linejoin:round; stroke-width:4; stroke-opacity:1; fill:none" points="
  922.901,483.19 922.901,465.92 
  "/>
<polyline clip-path="url(#clip832)" style="stroke:#000000; stroke-linecap:round; stroke-linejoin:round; stroke-width:4; stroke-opacity:1; fill:none" points="
  964.956,482.175 964.956,467.802 
  "/>
<polyline clip-path="url(#clip832)" style="stroke:#000000; stroke-linecap:round; stroke-linejoin:round; stroke-width:4; stroke-opacity:1; fill:none" points="
  1007.01,476.131 1007.01,470.967 
  "/>
<polyline clip-path="url(#clip832)" style="stroke:#000000; stroke-linecap:round; stroke-linejoin:round; stroke-width:4; stroke-opacity:1; fill:none" points="
  1049.06,475.565 1049.06,472.672 
  "/>
<polyline clip-path="url(#clip832)" style="stroke:#000000; stroke-linecap:round; stroke-linejoin:round; stroke-width:4; stroke-opacity:1; fill:none" points="
  1091.12,491.675 1091.12,454.646 
  "/>
<polyline clip-path="url(#clip832)" style="stroke:#000000; stroke-linecap:round; stroke-linejoin:round; stroke-width:4; stroke-opacity:1; fill:none" points="
  1133.17,473.703 1133.17,472.725 
  "/>
<polyline clip-path="url(#clip832)" style="stroke:#000000; stroke-linecap:round; stroke-linejoin:round; stroke-width:4; stroke-opacity:1; fill:none" points="
  1175.23,474.758 1175.23,473.599 
  "/>
<polyline clip-path="url(#clip832)" style="stroke:#000000; stroke-linecap:round; stroke-linejoin:round; stroke-width:4; stroke-opacity:1; fill:none" points="
  1217.28,484.529 1217.28,463.646 
  "/>
<polyline clip-path="url(#clip832)" style="stroke:#000000; stroke-linecap:round; stroke-linejoin:round; stroke-width:4; stroke-opacity:1; fill:none" points="
  1259.34,477.7 1259.34,471.29 
  "/>
<polyline clip-path="url(#clip832)" style="stroke:#000000; stroke-linecap:round; stroke-linejoin:round; stroke-width:4; stroke-opacity:1; fill:none" points="
  1301.39,476.015 1301.39,474.143 
  "/>
<polyline clip-path="url(#clip832)" style="stroke:#000000; stroke-linecap:round; stroke-linejoin:round; stroke-width:4; stroke-opacity:1; fill:none" points="
  1343.45,474.881 1343.45,473.433 
  "/>
<polyline clip-path="url(#clip832)" style="stroke:#000000; stroke-linecap:round; stroke-linejoin:round; stroke-width:4; stroke-opacity:1; fill:none" points="
  1385.5,478.1 1385.5,470.974 
  "/>
<polyline clip-path="url(#clip832)" style="stroke:#000000; stroke-linecap:round; stroke-linejoin:round; stroke-width:4; stroke-opacity:1; fill:none" points="
  1427.56,474.815 1427.56,473.428 
  "/>
<polyline clip-path="url(#clip832)" style="stroke:#000000; stroke-linecap:round; stroke-linejoin:round; stroke-width:4; stroke-opacity:1; fill:none" points="
  1469.61,480.606 1469.61,468.177 
  "/>
<polyline clip-path="url(#clip832)" style="stroke:#000000; stroke-linecap:round; stroke-linejoin:round; stroke-width:4; stroke-opacity:1; fill:none" points="
  1511.66,485.71 1511.66,465.082 
  "/>
<polyline clip-path="url(#clip832)" style="stroke:#000000; stroke-linecap:round; stroke-linejoin:round; stroke-width:4; stroke-opacity:1; fill:none" points="
  1553.72,475.214 1553.72,471.31 
  "/>
<polyline clip-path="url(#clip832)" style="stroke:#000000; stroke-linecap:round; stroke-linejoin:round; stroke-width:4; stroke-opacity:1; fill:none" points="
  1595.77,477.134 1595.77,470.841 
  "/>
<polyline clip-path="url(#clip832)" style="stroke:#000000; stroke-linecap:round; stroke-linejoin:round; stroke-width:4; stroke-opacity:1; fill:none" points="
  1637.83,483.357 1637.83,464.973 
  "/>
<polyline clip-path="url(#clip832)" style="stroke:#000000; stroke-linecap:round; stroke-linejoin:round; stroke-width:4; stroke-opacity:1; fill:none" points="
  1679.88,482.62 1679.88,466.605 
  "/>
<polyline clip-path="url(#clip832)" style="stroke:#000000; stroke-linecap:round; stroke-linejoin:round; stroke-width:4; stroke-opacity:1; fill:none" points="
  1721.94,483.039 1721.94,464.606 
  "/>
<polyline clip-path="url(#clip832)" style="stroke:#000000; stroke-linecap:round; stroke-linejoin:round; stroke-width:4; stroke-opacity:1; fill:none" points="
  1763.99,495.181 1763.99,466.516 
  "/>
<polyline clip-path="url(#clip832)" style="stroke:#000000; stroke-linecap:round; stroke-linejoin:round; stroke-width:4; stroke-opacity:1; fill:none" points="
  1806.05,480.591 1806.05,472.956 
  "/>
<polyline clip-path="url(#clip832)" style="stroke:#000000; stroke-linecap:round; stroke-linejoin:round; stroke-width:4; stroke-opacity:1; fill:none" points="
  1848.1,489.911 1848.1,463.828 
  "/>
<polyline clip-path="url(#clip832)" style="stroke:#000000; stroke-linecap:round; stroke-linejoin:round; stroke-width:4; stroke-opacity:1; fill:none" points="
  1890.16,481.737 1890.16,465.706 
  "/>
<polyline clip-path="url(#clip832)" style="stroke:#000000; stroke-linecap:round; stroke-linejoin:round; stroke-width:4; stroke-opacity:1; fill:none" points="
  1932.21,477.227 1932.21,471.686 
  "/>
<polyline clip-path="url(#clip832)" style="stroke:#000000; stroke-linecap:round; stroke-linejoin:round; stroke-width:4; stroke-opacity:1; fill:none" points="
  1974.26,490.633 1974.26,463.214 
  "/>
<polyline clip-path="url(#clip832)" style="stroke:#000000; stroke-linecap:round; stroke-linejoin:round; stroke-width:4; stroke-opacity:1; fill:none" points="
  2016.32,486.181 2016.32,464.337 
  "/>
<polyline clip-path="url(#clip832)" style="stroke:#000000; stroke-linecap:round; stroke-linejoin:round; stroke-width:4; stroke-opacity:1; fill:none" points="
  2058.37,486.656 2058.37,464.336 
  "/>
<polyline clip-path="url(#clip832)" style="stroke:#000000; stroke-linecap:round; stroke-linejoin:round; stroke-width:4; stroke-opacity:1; fill:none" points="
  2100.43,482.67 2100.43,466.572 
  "/>
<polyline clip-path="url(#clip832)" style="stroke:#000000; stroke-linecap:round; stroke-linejoin:round; stroke-width:4; stroke-opacity:1; fill:none" points="
  2142.48,477.779 2142.48,472.377 
  "/>
<polyline clip-path="url(#clip832)" style="stroke:#000000; stroke-linecap:round; stroke-linejoin:round; stroke-width:4; stroke-opacity:1; fill:none" points="
  2184.54,484.881 2184.54,466.577 
  "/>
<polyline clip-path="url(#clip832)" style="stroke:#000000; stroke-linecap:round; stroke-linejoin:round; stroke-width:4; stroke-opacity:1; fill:none" points="
  2226.59,496.886 2226.59,467.454 
  "/>
<polyline clip-path="url(#clip832)" style="stroke:#000000; stroke-linecap:round; stroke-linejoin:round; stroke-width:4; stroke-opacity:1; fill:none" points="
  2268.65,480.752 2268.65,467.133 
  "/>
<polyline clip-path="url(#clip832)" style="stroke:#000000; stroke-linecap:round; stroke-linejoin:round; stroke-width:4; stroke-opacity:1; fill:none" points="
  2310.7,492.481 2310.7,463.903 
  "/>
<line clip-path="url(#clip832)" x1="300.083" y1="409.672" x2="284.083" y2="409.672" style="stroke:#000000; stroke-width:3.2; stroke-opacity:1"/>
<line clip-path="url(#clip832)" x1="300.083" y1="409.672" x2="284.083" y2="409.672" style="stroke:#000000; stroke-width:3.2; stroke-opacity:1"/>
<line clip-path="url(#clip832)" x1="342.137" y1="468.454" x2="326.137" y2="468.454" style="stroke:#000000; stroke-width:3.2; stroke-opacity:1"/>
<line clip-path="url(#clip832)" x1="342.137" y1="468.453" x2="326.137" y2="468.453" style="stroke:#000000; stroke-width:3.2; stroke-opacity:1"/>
<line clip-path="url(#clip832)" x1="384.192" y1="474.587" x2="368.192" y2="474.587" style="stroke:#000000; stroke-width:3.2; stroke-opacity:1"/>
<line clip-path="url(#clip832)" x1="384.192" y1="474.58" x2="368.192" y2="474.58" style="stroke:#000000; stroke-width:3.2; stroke-opacity:1"/>
<line clip-path="url(#clip832)" x1="426.246" y1="474.618" x2="410.246" y2="474.618" style="stroke:#000000; stroke-width:3.2; stroke-opacity:1"/>
<line clip-path="url(#clip832)" x1="426.246" y1="474.55" x2="410.246" y2="474.55" style="stroke:#000000; stroke-width:3.2; stroke-opacity:1"/>
<line clip-path="url(#clip832)" x1="468.301" y1="474.359" x2="452.301" y2="474.359" style="stroke:#000000; stroke-width:3.2; stroke-opacity:1"/>
<line clip-path="url(#clip832)" x1="468.301" y1="474.237" x2="452.301" y2="474.237" style="stroke:#000000; stroke-width:3.2; stroke-opacity:1"/>
<line clip-path="url(#clip832)" x1="510.355" y1="474.439" x2="494.355" y2="474.439" style="stroke:#000000; stroke-width:3.2; stroke-opacity:1"/>
<line clip-path="url(#clip832)" x1="510.355" y1="473.791" x2="494.355" y2="473.791" style="stroke:#000000; stroke-width:3.2; stroke-opacity:1"/>
<line clip-path="url(#clip832)" x1="552.41" y1="474.279" x2="536.41" y2="474.279" style="stroke:#000000; stroke-width:3.2; stroke-opacity:1"/>
<line clip-path="url(#clip832)" x1="552.41" y1="474.085" x2="536.41" y2="474.085" style="stroke:#000000; stroke-width:3.2; stroke-opacity:1"/>
<line clip-path="url(#clip832)" x1="594.465" y1="474.568" x2="578.465" y2="474.568" style="stroke:#000000; stroke-width:3.2; stroke-opacity:1"/>
<line clip-path="url(#clip832)" x1="594.465" y1="473.753" x2="578.465" y2="473.753" style="stroke:#000000; stroke-width:3.2; stroke-opacity:1"/>
<line clip-path="url(#clip832)" x1="636.519" y1="479.803" x2="620.519" y2="479.803" style="stroke:#000000; stroke-width:3.2; stroke-opacity:1"/>
<line clip-path="url(#clip832)" x1="636.519" y1="471.512" x2="620.519" y2="471.512" style="stroke:#000000; stroke-width:3.2; stroke-opacity:1"/>
<line clip-path="url(#clip832)" x1="678.574" y1="476.583" x2="662.574" y2="476.583" style="stroke:#000000; stroke-width:3.2; stroke-opacity:1"/>
<line clip-path="url(#clip832)" x1="678.574" y1="471.59" x2="662.574" y2="471.59" style="stroke:#000000; stroke-width:3.2; stroke-opacity:1"/>
<line clip-path="url(#clip832)" x1="720.628" y1="479.373" x2="704.628" y2="479.373" style="stroke:#000000; stroke-width:3.2; stroke-opacity:1"/>
<line clip-path="url(#clip832)" x1="720.628" y1="470.543" x2="704.628" y2="470.543" style="stroke:#000000; stroke-width:3.2; stroke-opacity:1"/>
<line clip-path="url(#clip832)" x1="762.683" y1="475.644" x2="746.683" y2="475.644" style="stroke:#000000; stroke-width:3.2; stroke-opacity:1"/>
<line clip-path="url(#clip832)" x1="762.683" y1="470.348" x2="746.683" y2="470.348" style="stroke:#000000; stroke-width:3.2; stroke-opacity:1"/>
<line clip-path="url(#clip832)" x1="804.737" y1="474.757" x2="788.737" y2="474.757" style="stroke:#000000; stroke-width:3.2; stroke-opacity:1"/>
<line clip-path="url(#clip832)" x1="804.737" y1="474.148" x2="788.737" y2="474.148" style="stroke:#000000; stroke-width:3.2; stroke-opacity:1"/>
<line clip-path="url(#clip832)" x1="846.792" y1="477.319" x2="830.792" y2="477.319" style="stroke:#000000; stroke-width:3.2; stroke-opacity:1"/>
<line clip-path="url(#clip832)" x1="846.792" y1="470.675" x2="830.792" y2="470.675" style="stroke:#000000; stroke-width:3.2; stroke-opacity:1"/>
<line clip-path="url(#clip832)" x1="888.846" y1="475.891" x2="872.846" y2="475.891" style="stroke:#000000; stroke-width:3.2; stroke-opacity:1"/>
<line clip-path="url(#clip832)" x1="888.846" y1="468.593" x2="872.846" y2="468.593" style="stroke:#000000; stroke-width:3.2; stroke-opacity:1"/>
<line clip-path="url(#clip832)" x1="930.901" y1="483.19" x2="914.901" y2="483.19" style="stroke:#000000; stroke-width:3.2; stroke-opacity:1"/>
<line clip-path="url(#clip832)" x1="930.901" y1="465.92" x2="914.901" y2="465.92" style="stroke:#000000; stroke-width:3.2; stroke-opacity:1"/>
<line clip-path="url(#clip832)" x1="972.956" y1="482.175" x2="956.956" y2="482.175" style="stroke:#000000; stroke-width:3.2; stroke-opacity:1"/>
<line clip-path="url(#clip832)" x1="972.956" y1="467.802" x2="956.956" y2="467.802" style="stroke:#000000; stroke-width:3.2; stroke-opacity:1"/>
<line clip-path="url(#clip832)" x1="1015.01" y1="476.131" x2="999.01" y2="476.131" style="stroke:#000000; stroke-width:3.2; stroke-opacity:1"/>
<line clip-path="url(#clip832)" x1="1015.01" y1="470.967" x2="999.01" y2="470.967" style="stroke:#000000; stroke-width:3.2; stroke-opacity:1"/>
<line clip-path="url(#clip832)" x1="1057.06" y1="475.565" x2="1041.06" y2="475.565" style="stroke:#000000; stroke-width:3.2; stroke-opacity:1"/>
<line clip-path="url(#clip832)" x1="1057.06" y1="472.672" x2="1041.06" y2="472.672" style="stroke:#000000; stroke-width:3.2; stroke-opacity:1"/>
<line clip-path="url(#clip832)" x1="1099.12" y1="491.675" x2="1083.12" y2="491.675" style="stroke:#000000; stroke-width:3.2; stroke-opacity:1"/>
<line clip-path="url(#clip832)" x1="1099.12" y1="454.646" x2="1083.12" y2="454.646" style="stroke:#000000; stroke-width:3.2; stroke-opacity:1"/>
<line clip-path="url(#clip832)" x1="1141.17" y1="473.703" x2="1125.17" y2="473.703" style="stroke:#000000; stroke-width:3.2; stroke-opacity:1"/>
<line clip-path="url(#clip832)" x1="1141.17" y1="472.725" x2="1125.17" y2="472.725" style="stroke:#000000; stroke-width:3.2; stroke-opacity:1"/>
<line clip-path="url(#clip832)" x1="1183.23" y1="474.758" x2="1167.23" y2="474.758" style="stroke:#000000; stroke-width:3.2; stroke-opacity:1"/>
<line clip-path="url(#clip832)" x1="1183.23" y1="473.599" x2="1167.23" y2="473.599" style="stroke:#000000; stroke-width:3.2; stroke-opacity:1"/>
<line clip-path="url(#clip832)" x1="1225.28" y1="484.529" x2="1209.28" y2="484.529" style="stroke:#000000; stroke-width:3.2; stroke-opacity:1"/>
<line clip-path="url(#clip832)" x1="1225.28" y1="463.646" x2="1209.28" y2="463.646" style="stroke:#000000; stroke-width:3.2; stroke-opacity:1"/>
<line clip-path="url(#clip832)" x1="1267.34" y1="477.7" x2="1251.34" y2="477.7" style="stroke:#000000; stroke-width:3.2; stroke-opacity:1"/>
<line clip-path="url(#clip832)" x1="1267.34" y1="471.29" x2="1251.34" y2="471.29" style="stroke:#000000; stroke-width:3.2; stroke-opacity:1"/>
<line clip-path="url(#clip832)" x1="1309.39" y1="476.015" x2="1293.39" y2="476.015" style="stroke:#000000; stroke-width:3.2; stroke-opacity:1"/>
<line clip-path="url(#clip832)" x1="1309.39" y1="474.143" x2="1293.39" y2="474.143" style="stroke:#000000; stroke-width:3.2; stroke-opacity:1"/>
<line clip-path="url(#clip832)" x1="1351.45" y1="474.881" x2="1335.45" y2="474.881" style="stroke:#000000; stroke-width:3.2; stroke-opacity:1"/>
<line clip-path="url(#clip832)" x1="1351.45" y1="473.433" x2="1335.45" y2="473.433" style="stroke:#000000; stroke-width:3.2; stroke-opacity:1"/>
<line clip-path="url(#clip832)" x1="1393.5" y1="478.1" x2="1377.5" y2="478.1" style="stroke:#000000; stroke-width:3.2; stroke-opacity:1"/>
<line clip-path="url(#clip832)" x1="1393.5" y1="470.974" x2="1377.5" y2="470.974" style="stroke:#000000; stroke-width:3.2; stroke-opacity:1"/>
<line clip-path="url(#clip832)" x1="1435.56" y1="474.815" x2="1419.56" y2="474.815" style="stroke:#000000; stroke-width:3.2; stroke-opacity:1"/>
<line clip-path="url(#clip832)" x1="1435.56" y1="473.428" x2="1419.56" y2="473.428" style="stroke:#000000; stroke-width:3.2; stroke-opacity:1"/>
<line clip-path="url(#clip832)" x1="1477.61" y1="480.606" x2="1461.61" y2="480.606" style="stroke:#000000; stroke-width:3.2; stroke-opacity:1"/>
<line clip-path="url(#clip832)" x1="1477.61" y1="468.177" x2="1461.61" y2="468.177" style="stroke:#000000; stroke-width:3.2; stroke-opacity:1"/>
<line clip-path="url(#clip832)" x1="1519.66" y1="485.71" x2="1503.66" y2="485.71" style="stroke:#000000; stroke-width:3.2; stroke-opacity:1"/>
<line clip-path="url(#clip832)" x1="1519.66" y1="465.082" x2="1503.66" y2="465.082" style="stroke:#000000; stroke-width:3.2; stroke-opacity:1"/>
<line clip-path="url(#clip832)" x1="1561.72" y1="475.214" x2="1545.72" y2="475.214" style="stroke:#000000; stroke-width:3.2; stroke-opacity:1"/>
<line clip-path="url(#clip832)" x1="1561.72" y1="471.31" x2="1545.72" y2="471.31" style="stroke:#000000; stroke-width:3.2; stroke-opacity:1"/>
<line clip-path="url(#clip832)" x1="1603.77" y1="477.134" x2="1587.77" y2="477.134" style="stroke:#000000; stroke-width:3.2; stroke-opacity:1"/>
<line clip-path="url(#clip832)" x1="1603.77" y1="470.841" x2="1587.77" y2="470.841" style="stroke:#000000; stroke-width:3.2; stroke-opacity:1"/>
<line clip-path="url(#clip832)" x1="1645.83" y1="483.357" x2="1629.83" y2="483.357" style="stroke:#000000; stroke-width:3.2; stroke-opacity:1"/>
<line clip-path="url(#clip832)" x1="1645.83" y1="464.973" x2="1629.83" y2="464.973" style="stroke:#000000; stroke-width:3.2; stroke-opacity:1"/>
<line clip-path="url(#clip832)" x1="1687.88" y1="482.62" x2="1671.88" y2="482.62" style="stroke:#000000; stroke-width:3.2; stroke-opacity:1"/>
<line clip-path="url(#clip832)" x1="1687.88" y1="466.605" x2="1671.88" y2="466.605" style="stroke:#000000; stroke-width:3.2; stroke-opacity:1"/>
<line clip-path="url(#clip832)" x1="1729.94" y1="483.039" x2="1713.94" y2="483.039" style="stroke:#000000; stroke-width:3.2; stroke-opacity:1"/>
<line clip-path="url(#clip832)" x1="1729.94" y1="464.606" x2="1713.94" y2="464.606" style="stroke:#000000; stroke-width:3.2; stroke-opacity:1"/>
<line clip-path="url(#clip832)" x1="1771.99" y1="495.181" x2="1755.99" y2="495.181" style="stroke:#000000; stroke-width:3.2; stroke-opacity:1"/>
<line clip-path="url(#clip832)" x1="1771.99" y1="466.516" x2="1755.99" y2="466.516" style="stroke:#000000; stroke-width:3.2; stroke-opacity:1"/>
<line clip-path="url(#clip832)" x1="1814.05" y1="480.591" x2="1798.05" y2="480.591" style="stroke:#000000; stroke-width:3.2; stroke-opacity:1"/>
<line clip-path="url(#clip832)" x1="1814.05" y1="472.956" x2="1798.05" y2="472.956" style="stroke:#000000; stroke-width:3.2; stroke-opacity:1"/>
<line clip-path="url(#clip832)" x1="1856.1" y1="489.911" x2="1840.1" y2="489.911" style="stroke:#000000; stroke-width:3.2; stroke-opacity:1"/>
<line clip-path="url(#clip832)" x1="1856.1" y1="463.828" x2="1840.1" y2="463.828" style="stroke:#000000; stroke-width:3.2; stroke-opacity:1"/>
<line clip-path="url(#clip832)" x1="1898.16" y1="481.737" x2="1882.16" y2="481.737" style="stroke:#000000; stroke-width:3.2; stroke-opacity:1"/>
<line clip-path="url(#clip832)" x1="1898.16" y1="465.706" x2="1882.16" y2="465.706" style="stroke:#000000; stroke-width:3.2; stroke-opacity:1"/>
<line clip-path="url(#clip832)" x1="1940.21" y1="477.227" x2="1924.21" y2="477.227" style="stroke:#000000; stroke-width:3.2; stroke-opacity:1"/>
<line clip-path="url(#clip832)" x1="1940.21" y1="471.686" x2="1924.21" y2="471.686" style="stroke:#000000; stroke-width:3.2; stroke-opacity:1"/>
<line clip-path="url(#clip832)" x1="1982.26" y1="490.633" x2="1966.26" y2="490.633" style="stroke:#000000; stroke-width:3.2; stroke-opacity:1"/>
<line clip-path="url(#clip832)" x1="1982.26" y1="463.214" x2="1966.26" y2="463.214" style="stroke:#000000; stroke-width:3.2; stroke-opacity:1"/>
<line clip-path="url(#clip832)" x1="2024.32" y1="486.181" x2="2008.32" y2="486.181" style="stroke:#000000; stroke-width:3.2; stroke-opacity:1"/>
<line clip-path="url(#clip832)" x1="2024.32" y1="464.337" x2="2008.32" y2="464.337" style="stroke:#000000; stroke-width:3.2; stroke-opacity:1"/>
<line clip-path="url(#clip832)" x1="2066.37" y1="486.656" x2="2050.37" y2="486.656" style="stroke:#000000; stroke-width:3.2; stroke-opacity:1"/>
<line clip-path="url(#clip832)" x1="2066.37" y1="464.336" x2="2050.37" y2="464.336" style="stroke:#000000; stroke-width:3.2; stroke-opacity:1"/>
<line clip-path="url(#clip832)" x1="2108.43" y1="482.67" x2="2092.43" y2="482.67" style="stroke:#000000; stroke-width:3.2; stroke-opacity:1"/>
<line clip-path="url(#clip832)" x1="2108.43" y1="466.572" x2="2092.43" y2="466.572" style="stroke:#000000; stroke-width:3.2; stroke-opacity:1"/>
<line clip-path="url(#clip832)" x1="2150.48" y1="477.779" x2="2134.48" y2="477.779" style="stroke:#000000; stroke-width:3.2; stroke-opacity:1"/>
<line clip-path="url(#clip832)" x1="2150.48" y1="472.377" x2="2134.48" y2="472.377" style="stroke:#000000; stroke-width:3.2; stroke-opacity:1"/>
<line clip-path="url(#clip832)" x1="2192.54" y1="484.881" x2="2176.54" y2="484.881" style="stroke:#000000; stroke-width:3.2; stroke-opacity:1"/>
<line clip-path="url(#clip832)" x1="2192.54" y1="466.577" x2="2176.54" y2="466.577" style="stroke:#000000; stroke-width:3.2; stroke-opacity:1"/>
<line clip-path="url(#clip832)" x1="2234.59" y1="496.886" x2="2218.59" y2="496.886" style="stroke:#000000; stroke-width:3.2; stroke-opacity:1"/>
<line clip-path="url(#clip832)" x1="2234.59" y1="467.454" x2="2218.59" y2="467.454" style="stroke:#000000; stroke-width:3.2; stroke-opacity:1"/>
<line clip-path="url(#clip832)" x1="2276.65" y1="480.752" x2="2260.65" y2="480.752" style="stroke:#000000; stroke-width:3.2; stroke-opacity:1"/>
<line clip-path="url(#clip832)" x1="2276.65" y1="467.133" x2="2260.65" y2="467.133" style="stroke:#000000; stroke-width:3.2; stroke-opacity:1"/>
<line clip-path="url(#clip832)" x1="2318.7" y1="492.481" x2="2302.7" y2="492.481" style="stroke:#000000; stroke-width:3.2; stroke-opacity:1"/>
<line clip-path="url(#clip832)" x1="2318.7" y1="463.903" x2="2302.7" y2="463.903" style="stroke:#000000; stroke-width:3.2; stroke-opacity:1"/>
<circle clip-path="url(#clip832)" cx="292.083" cy="409.672" r="7.2" fill="#009af9" fill-rule="evenodd" fill-opacity="1" stroke="#000000" stroke-opacity="1" stroke-width="3.2"/>
<circle clip-path="url(#clip832)" cx="334.137" cy="468.453" r="7.2" fill="#009af9" fill-rule="evenodd" fill-opacity="1" stroke="#000000" stroke-opacity="1" stroke-width="3.2"/>
<circle clip-path="url(#clip832)" cx="376.192" cy="474.583" r="7.2" fill="#009af9" fill-rule="evenodd" fill-opacity="1" stroke="#000000" stroke-opacity="1" stroke-width="3.2"/>
<circle clip-path="url(#clip832)" cx="418.246" cy="474.584" r="7.2" fill="#009af9" fill-rule="evenodd" fill-opacity="1" stroke="#000000" stroke-opacity="1" stroke-width="3.2"/>
<circle clip-path="url(#clip832)" cx="460.301" cy="474.298" r="7.2" fill="#009af9" fill-rule="evenodd" fill-opacity="1" stroke="#000000" stroke-opacity="1" stroke-width="3.2"/>
<circle clip-path="url(#clip832)" cx="502.355" cy="474.115" r="7.2" fill="#009af9" fill-rule="evenodd" fill-opacity="1" stroke="#000000" stroke-opacity="1" stroke-width="3.2"/>
<circle clip-path="url(#clip832)" cx="544.41" cy="474.182" r="7.2" fill="#009af9" fill-rule="evenodd" fill-opacity="1" stroke="#000000" stroke-opacity="1" stroke-width="3.2"/>
<circle clip-path="url(#clip832)" cx="586.465" cy="474.16" r="7.2" fill="#009af9" fill-rule="evenodd" fill-opacity="1" stroke="#000000" stroke-opacity="1" stroke-width="3.2"/>
<circle clip-path="url(#clip832)" cx="628.519" cy="475.658" r="7.2" fill="#009af9" fill-rule="evenodd" fill-opacity="1" stroke="#000000" stroke-opacity="1" stroke-width="3.2"/>
<circle clip-path="url(#clip832)" cx="670.574" cy="474.087" r="7.2" fill="#009af9" fill-rule="evenodd" fill-opacity="1" stroke="#000000" stroke-opacity="1" stroke-width="3.2"/>
<circle clip-path="url(#clip832)" cx="712.628" cy="474.958" r="7.2" fill="#009af9" fill-rule="evenodd" fill-opacity="1" stroke="#000000" stroke-opacity="1" stroke-width="3.2"/>
<circle clip-path="url(#clip832)" cx="754.683" cy="472.996" r="7.2" fill="#009af9" fill-rule="evenodd" fill-opacity="1" stroke="#000000" stroke-opacity="1" stroke-width="3.2"/>
<circle clip-path="url(#clip832)" cx="796.737" cy="474.452" r="7.2" fill="#009af9" fill-rule="evenodd" fill-opacity="1" stroke="#000000" stroke-opacity="1" stroke-width="3.2"/>
<circle clip-path="url(#clip832)" cx="838.792" cy="473.997" r="7.2" fill="#009af9" fill-rule="evenodd" fill-opacity="1" stroke="#000000" stroke-opacity="1" stroke-width="3.2"/>
<circle clip-path="url(#clip832)" cx="880.846" cy="472.242" r="7.2" fill="#009af9" fill-rule="evenodd" fill-opacity="1" stroke="#000000" stroke-opacity="1" stroke-width="3.2"/>
<circle clip-path="url(#clip832)" cx="922.901" cy="474.555" r="7.2" fill="#009af9" fill-rule="evenodd" fill-opacity="1" stroke="#000000" stroke-opacity="1" stroke-width="3.2"/>
<circle clip-path="url(#clip832)" cx="964.956" cy="474.989" r="7.2" fill="#009af9" fill-rule="evenodd" fill-opacity="1" stroke="#000000" stroke-opacity="1" stroke-width="3.2"/>
<circle clip-path="url(#clip832)" cx="1007.01" cy="473.549" r="7.2" fill="#009af9" fill-rule="evenodd" fill-opacity="1" stroke="#000000" stroke-opacity="1" stroke-width="3.2"/>
<circle clip-path="url(#clip832)" cx="1049.06" cy="474.118" r="7.2" fill="#009af9" fill-rule="evenodd" fill-opacity="1" stroke="#000000" stroke-opacity="1" stroke-width="3.2"/>
<circle clip-path="url(#clip832)" cx="1091.12" cy="473.16" r="7.2" fill="#009af9" fill-rule="evenodd" fill-opacity="1" stroke="#000000" stroke-opacity="1" stroke-width="3.2"/>
<circle clip-path="url(#clip832)" cx="1133.17" cy="473.214" r="7.2" fill="#009af9" fill-rule="evenodd" fill-opacity="1" stroke="#000000" stroke-opacity="1" stroke-width="3.2"/>
<circle clip-path="url(#clip832)" cx="1175.23" cy="474.179" r="7.2" fill="#009af9" fill-rule="evenodd" fill-opacity="1" stroke="#000000" stroke-opacity="1" stroke-width="3.2"/>
<circle clip-path="url(#clip832)" cx="1217.28" cy="474.088" r="7.2" fill="#009af9" fill-rule="evenodd" fill-opacity="1" stroke="#000000" stroke-opacity="1" stroke-width="3.2"/>
<circle clip-path="url(#clip832)" cx="1259.34" cy="474.495" r="7.2" fill="#009af9" fill-rule="evenodd" fill-opacity="1" stroke="#000000" stroke-opacity="1" stroke-width="3.2"/>
<circle clip-path="url(#clip832)" cx="1301.39" cy="475.079" r="7.2" fill="#009af9" fill-rule="evenodd" fill-opacity="1" stroke="#000000" stroke-opacity="1" stroke-width="3.2"/>
<circle clip-path="url(#clip832)" cx="1343.45" cy="474.157" r="7.2" fill="#009af9" fill-rule="evenodd" fill-opacity="1" stroke="#000000" stroke-opacity="1" stroke-width="3.2"/>
<circle clip-path="url(#clip832)" cx="1385.5" cy="474.537" r="7.2" fill="#009af9" fill-rule="evenodd" fill-opacity="1" stroke="#000000" stroke-opacity="1" stroke-width="3.2"/>
<circle clip-path="url(#clip832)" cx="1427.56" cy="474.122" r="7.2" fill="#009af9" fill-rule="evenodd" fill-opacity="1" stroke="#000000" stroke-opacity="1" stroke-width="3.2"/>
<circle clip-path="url(#clip832)" cx="1469.61" cy="474.391" r="7.2" fill="#009af9" fill-rule="evenodd" fill-opacity="1" stroke="#000000" stroke-opacity="1" stroke-width="3.2"/>
<circle clip-path="url(#clip832)" cx="1511.66" cy="475.396" r="7.2" fill="#009af9" fill-rule="evenodd" fill-opacity="1" stroke="#000000" stroke-opacity="1" stroke-width="3.2"/>
<circle clip-path="url(#clip832)" cx="1553.72" cy="473.262" r="7.2" fill="#009af9" fill-rule="evenodd" fill-opacity="1" stroke="#000000" stroke-opacity="1" stroke-width="3.2"/>
<circle clip-path="url(#clip832)" cx="1595.77" cy="473.988" r="7.2" fill="#009af9" fill-rule="evenodd" fill-opacity="1" stroke="#000000" stroke-opacity="1" stroke-width="3.2"/>
<circle clip-path="url(#clip832)" cx="1637.83" cy="474.165" r="7.2" fill="#009af9" fill-rule="evenodd" fill-opacity="1" stroke="#000000" stroke-opacity="1" stroke-width="3.2"/>
<circle clip-path="url(#clip832)" cx="1679.88" cy="474.613" r="7.2" fill="#009af9" fill-rule="evenodd" fill-opacity="1" stroke="#000000" stroke-opacity="1" stroke-width="3.2"/>
<circle clip-path="url(#clip832)" cx="1721.94" cy="473.823" r="7.2" fill="#009af9" fill-rule="evenodd" fill-opacity="1" stroke="#000000" stroke-opacity="1" stroke-width="3.2"/>
<circle clip-path="url(#clip832)" cx="1763.99" cy="480.849" r="7.2" fill="#009af9" fill-rule="evenodd" fill-opacity="1" stroke="#000000" stroke-opacity="1" stroke-width="3.2"/>
<circle clip-path="url(#clip832)" cx="1806.05" cy="476.773" r="7.2" fill="#009af9" fill-rule="evenodd" fill-opacity="1" stroke="#000000" stroke-opacity="1" stroke-width="3.2"/>
<circle clip-path="url(#clip832)" cx="1848.1" cy="476.869" r="7.2" fill="#009af9" fill-rule="evenodd" fill-opacity="1" stroke="#000000" stroke-opacity="1" stroke-width="3.2"/>
<circle clip-path="url(#clip832)" cx="1890.16" cy="473.722" r="7.2" fill="#009af9" fill-rule="evenodd" fill-opacity="1" stroke="#000000" stroke-opacity="1" stroke-width="3.2"/>
<circle clip-path="url(#clip832)" cx="1932.21" cy="474.457" r="7.2" fill="#009af9" fill-rule="evenodd" fill-opacity="1" stroke="#000000" stroke-opacity="1" stroke-width="3.2"/>
<circle clip-path="url(#clip832)" cx="1974.26" cy="476.923" r="7.2" fill="#009af9" fill-rule="evenodd" fill-opacity="1" stroke="#000000" stroke-opacity="1" stroke-width="3.2"/>
<circle clip-path="url(#clip832)" cx="2016.32" cy="475.259" r="7.2" fill="#009af9" fill-rule="evenodd" fill-opacity="1" stroke="#000000" stroke-opacity="1" stroke-width="3.2"/>
<circle clip-path="url(#clip832)" cx="2058.37" cy="475.496" r="7.2" fill="#009af9" fill-rule="evenodd" fill-opacity="1" stroke="#000000" stroke-opacity="1" stroke-width="3.2"/>
<circle clip-path="url(#clip832)" cx="2100.43" cy="474.621" r="7.2" fill="#009af9" fill-rule="evenodd" fill-opacity="1" stroke="#000000" stroke-opacity="1" stroke-width="3.2"/>
<circle clip-path="url(#clip832)" cx="2142.48" cy="475.078" r="7.2" fill="#009af9" fill-rule="evenodd" fill-opacity="1" stroke="#000000" stroke-opacity="1" stroke-width="3.2"/>
<circle clip-path="url(#clip832)" cx="2184.54" cy="475.729" r="7.2" fill="#009af9" fill-rule="evenodd" fill-opacity="1" stroke="#000000" stroke-opacity="1" stroke-width="3.2"/>
<circle clip-path="url(#clip832)" cx="2226.59" cy="482.17" r="7.2" fill="#009af9" fill-rule="evenodd" fill-opacity="1" stroke="#000000" stroke-opacity="1" stroke-width="3.2"/>
<circle clip-path="url(#clip832)" cx="2268.65" cy="473.943" r="7.2" fill="#009af9" fill-rule="evenodd" fill-opacity="1" stroke="#000000" stroke-opacity="1" stroke-width="3.2"/>
<circle clip-path="url(#clip832)" cx="2310.7" cy="478.192" r="7.2" fill="#009af9" fill-rule="evenodd" fill-opacity="1" stroke="#000000" stroke-opacity="1" stroke-width="3.2"/>
<path clip-path="url(#clip830)" d="
M1713.62 270.476 L2282.66 270.476 L2282.66 166.796 L1713.62 166.796  Z
  " fill="#ffffff" fill-rule="evenodd" fill-opacity="1"/>
<polyline clip-path="url(#clip830)" style="stroke:#000000; stroke-linecap:round; stroke-linejoin:round; stroke-width:4; stroke-opacity:1; fill:none" points="
  1713.62,270.476 2282.66,270.476 2282.66,166.796 1713.62,166.796 1713.62,270.476 
  "/>
<circle clip-path="url(#clip830)" cx="1807.08" cy="218.636" r="23.04" fill="#009af9" fill-rule="evenodd" fill-opacity="1" stroke="#000000" stroke-opacity="1" stroke-width="10.24"/>
<path clip-path="url(#clip830)" d="M1920.88 214.967 Q1922.47 212.096 1924.7 210.731 Q1926.92 209.365 1929.93 209.365 Q1933.98 209.365 1936.18 212.212 Q1938.38 215.036 1938.38 220.268 L1938.38 235.916 L1934.09 235.916 L1934.09 220.407 Q1934.09 216.68 1932.78 214.874 Q1931.46 213.069 1928.75 213.069 Q1925.44 213.069 1923.52 215.268 Q1921.59 217.467 1921.59 221.263 L1921.59 235.916 L1917.31 235.916 L1917.31 220.407 Q1917.31 216.657 1915.99 214.874 Q1914.67 213.069 1911.92 213.069 Q1908.66 213.069 1906.73 215.291 Q1904.81 217.49 1904.81 221.263 L1904.81 235.916 L1900.53 235.916 L1900.53 209.99 L1904.81 209.99 L1904.81 214.018 Q1906.27 211.633 1908.31 210.499 Q1910.34 209.365 1913.15 209.365 Q1915.97 209.365 1917.94 210.8 Q1919.93 212.235 1920.88 214.967 Z" fill="#000000" fill-rule="evenodd" fill-opacity="1" /><path clip-path="url(#clip830)" d="M1955.6 220.245 Q1954.44 218.254 1952.1 218.254 Q1949.77 218.254 1948.61 220.245 Q1947.43 222.235 1947.43 226.217 Q1947.43 230.221 1948.61 232.212 Q1949.77 234.203 1952.1 234.203 Q1954.44 234.203 1955.6 232.212 Q1956.78 230.221 1956.78 226.217 Q1956.78 222.235 1955.6 220.245 M1952.1 216.194 Q1955.83 216.194 1957.8 218.763 Q1959.77 221.332 1959.77 226.217 Q1959.77 231.124 1957.8 233.694 Q1955.83 236.263 1952.1 236.263 Q1948.35 236.263 1946.39 233.694 Q1944.42 231.124 1944.42 226.217 Q1944.42 221.332 1946.39 218.763 Q1948.35 216.194 1952.1 216.194 Z" fill="#000000" fill-rule="evenodd" fill-opacity="1" /><path clip-path="url(#clip830)" d="M1966.43 214.388 L1996.11 214.388 L1996.11 218.277 L1966.43 218.277 L1966.43 214.388 M1966.43 223.832 L1996.11 223.832 L1996.11 227.768 L1966.43 227.768 L1966.43 223.832 Z" fill="#000000" fill-rule="evenodd" fill-opacity="1" /><path clip-path="url(#clip830)" d="M2016.2 204.434 Q2012.59 204.434 2010.76 207.999 Q2008.96 211.541 2008.96 218.67 Q2008.96 225.777 2010.76 229.342 Q2012.59 232.883 2016.2 232.883 Q2019.84 232.883 2021.64 229.342 Q2023.47 225.777 2023.47 218.67 Q2023.47 211.541 2021.64 207.999 Q2019.84 204.434 2016.2 204.434 M2016.2 200.731 Q2022.01 200.731 2025.07 205.337 Q2028.15 209.92 2028.15 218.67 Q2028.15 227.397 2025.07 232.004 Q2022.01 236.587 2016.2 236.587 Q2010.39 236.587 2007.31 232.004 Q2004.26 227.397 2004.26 218.67 Q2004.26 209.92 2007.31 205.337 Q2010.39 200.731 2016.2 200.731 Z" fill="#000000" fill-rule="evenodd" fill-opacity="1" /><path clip-path="url(#clip830)" d="M2036.36 230.036 L2041.25 230.036 L2041.25 235.916 L2036.36 235.916 L2036.36 230.036 Z" fill="#000000" fill-rule="evenodd" fill-opacity="1" /><path clip-path="url(#clip830)" d="M2062.01 216.772 Q2058.86 216.772 2057.01 218.925 Q2055.18 221.078 2055.18 224.828 Q2055.18 228.555 2057.01 230.731 Q2058.86 232.883 2062.01 232.883 Q2065.16 232.883 2066.99 230.731 Q2068.84 228.555 2068.84 224.828 Q2068.84 221.078 2066.99 218.925 Q2065.16 216.772 2062.01 216.772 M2071.29 202.12 L2071.29 206.379 Q2069.53 205.546 2067.73 205.106 Q2065.95 204.666 2064.19 204.666 Q2059.56 204.666 2057.1 207.791 Q2054.67 210.916 2054.33 217.235 Q2055.69 215.221 2057.75 214.157 Q2059.81 213.069 2062.29 213.069 Q2067.5 213.069 2070.51 216.24 Q2073.54 219.388 2073.54 224.828 Q2073.54 230.152 2070.39 233.369 Q2067.24 236.587 2062.01 236.587 Q2056.02 236.587 2052.84 232.004 Q2049.67 227.397 2049.67 218.67 Q2049.67 210.476 2053.56 205.615 Q2057.45 200.731 2064 200.731 Q2065.76 200.731 2067.54 201.078 Q2069.35 201.425 2071.29 202.12 Z" fill="#000000" fill-rule="evenodd" fill-opacity="1" /><path clip-path="url(#clip830)" d="M2082.08 230.036 L2086.96 230.036 L2086.96 234.018 L2083.17 241.425 L2080.18 241.425 L2082.08 234.018 L2082.08 230.036 Z" fill="#000000" fill-rule="evenodd" fill-opacity="1" /><path clip-path="url(#clip830)" d="M2119.81 230.985 L2119.81 221.703 L2112.17 221.703 L2112.17 217.86 L2124.44 217.86 L2124.44 232.698 Q2121.73 234.619 2118.47 235.615 Q2115.2 236.587 2111.5 236.587 Q2103.4 236.587 2098.82 231.865 Q2094.26 227.119 2094.26 218.67 Q2094.26 210.198 2098.82 205.476 Q2103.4 200.731 2111.5 200.731 Q2114.88 200.731 2117.91 201.564 Q2120.97 202.397 2123.54 204.018 L2123.54 208.995 Q2120.95 206.796 2118.03 205.684 Q2115.11 204.573 2111.89 204.573 Q2105.55 204.573 2102.36 208.115 Q2099.19 211.657 2099.19 218.67 Q2099.19 225.661 2102.36 229.203 Q2105.55 232.744 2111.89 232.744 Q2114.37 232.744 2116.32 232.328 Q2118.26 231.888 2119.81 230.985 Z" fill="#000000" fill-rule="evenodd" fill-opacity="1" /><path clip-path="url(#clip830)" d="M2134.53 217.814 L2144.35 217.814 L2144.35 220.453 L2130.51 220.453 L2130.51 217.907 Q2131.29 217.189 2132.75 215.893 Q2140.71 208.833 2140.71 206.657 Q2140.71 205.129 2139.51 204.203 Q2138.31 203.254 2136.34 203.254 Q2135.14 203.254 2133.72 203.671 Q2132.31 204.064 2130.64 204.874 L2130.64 202.027 Q2132.43 201.379 2133.95 201.055 Q2135.51 200.731 2136.83 200.731 Q2140.18 200.731 2142.2 202.258 Q2144.21 203.786 2144.21 206.286 Q2144.21 209.504 2136.55 216.078 Q2135.25 217.189 2134.53 217.814 Z" fill="#000000" fill-rule="evenodd" fill-opacity="1" /><path clip-path="url(#clip830)" d="M2152.36 214.388 L2182.03 214.388 L2182.03 218.277 L2152.36 218.277 L2152.36 214.388 M2152.36 223.832 L2182.03 223.832 L2182.03 227.768 L2152.36 227.768 L2152.36 223.832 Z" fill="#000000" fill-rule="evenodd" fill-opacity="1" /><path clip-path="url(#clip830)" d="M2192.94 231.981 L2200.57 231.981 L2200.57 205.615 L2192.26 207.282 L2192.26 203.022 L2200.53 201.356 L2205.2 201.356 L2205.2 231.981 L2212.84 231.981 L2212.84 235.916 L2192.94 235.916 L2192.94 231.981 Z" fill="#000000" fill-rule="evenodd" fill-opacity="1" /><path clip-path="url(#clip830)" d="M2222.29 230.036 L2227.17 230.036 L2227.17 235.916 L2222.29 235.916 L2222.29 230.036 Z" fill="#000000" fill-rule="evenodd" fill-opacity="1" /><path clip-path="url(#clip830)" d="M2247.36 204.434 Q2243.75 204.434 2241.92 207.999 Q2240.11 211.541 2240.11 218.67 Q2240.11 225.777 2241.92 229.342 Q2243.75 232.883 2247.36 232.883 Q2250.99 232.883 2252.8 229.342 Q2254.63 225.777 2254.63 218.67 Q2254.63 211.541 2252.8 207.999 Q2250.99 204.434 2247.36 204.434 M2247.36 200.731 Q2253.17 200.731 2256.22 205.337 Q2259.3 209.92 2259.3 218.67 Q2259.3 227.397 2256.22 232.004 Q2253.17 236.587 2247.36 236.587 Q2241.55 236.587 2238.47 232.004 Q2235.41 227.397 2235.41 218.67 Q2235.41 209.92 2238.47 205.337 Q2241.55 200.731 2247.36 200.731 Z" fill="#000000" fill-rule="evenodd" fill-opacity="1" /></svg>
