<?xml version="1.0" encoding="utf-8"?>
<svg xmlns="http://www.w3.org/2000/svg" xmlns:xlink="http://www.w3.org/1999/xlink" width="600" height="400" viewBox="0 0 2400 1600">
<defs>
  <clipPath id="clip990">
    <rect x="0" y="0" width="2400" height="1600"/>
  </clipPath>
</defs>
<path clip-path="url(#clip990)" d="
M0 1600 L2400 1600 L2400 0 L0 0  Z
  " fill="#ffffff" fill-rule="evenodd" fill-opacity="1"/>
<defs>
  <clipPath id="clip991">
    <rect x="480" y="0" width="1681" height="1600"/>
  </clipPath>
</defs>
<path clip-path="url(#clip990)" d="
M309.866 1423.18 L2352.76 1423.18 L2352.76 123.472 L309.866 123.472  Z
  " fill="#ffffff" fill-rule="evenodd" fill-opacity="1"/>
<defs>
  <clipPath id="clip992">
    <rect x="309" y="123" width="2044" height="1301"/>
  </clipPath>
</defs>
<polyline clip-path="url(#clip992)" style="stroke:#000000; stroke-linecap:round; stroke-linejoin:round; stroke-width:2; stroke-opacity:0.1; fill:none" points="
  309.866,1423.18 309.866,123.472 
  "/>
<polyline clip-path="url(#clip992)" style="stroke:#000000; stroke-linecap:round; stroke-linejoin:round; stroke-width:2; stroke-opacity:0.1; fill:none" points="
  650.347,1423.18 650.347,123.472 
  "/>
<polyline clip-path="url(#clip992)" style="stroke:#000000; stroke-linecap:round; stroke-linejoin:round; stroke-width:2; stroke-opacity:0.1; fill:none" points="
  990.829,1423.18 990.829,123.472 
  "/>
<polyline clip-path="url(#clip992)" style="stroke:#000000; stroke-linecap:round; stroke-linejoin:round; stroke-width:2; stroke-opacity:0.1; fill:none" points="
  1331.31,1423.18 1331.31,123.472 
  "/>
<polyline clip-path="url(#clip992)" style="stroke:#000000; stroke-linecap:round; stroke-linejoin:round; stroke-width:2; stroke-opacity:0.1; fill:none" points="
  1671.79,1423.18 1671.79,123.472 
  "/>
<polyline clip-path="url(#clip992)" style="stroke:#000000; stroke-linecap:round; stroke-linejoin:round; stroke-width:2; stroke-opacity:0.1; fill:none" points="
  2012.27,1423.18 2012.27,123.472 
  "/>
<polyline clip-path="url(#clip992)" style="stroke:#000000; stroke-linecap:round; stroke-linejoin:round; stroke-width:2; stroke-opacity:0.1; fill:none" points="
  2352.76,1423.18 2352.76,123.472 
  "/>
<polyline clip-path="url(#clip990)" style="stroke:#000000; stroke-linecap:round; stroke-linejoin:round; stroke-width:4; stroke-opacity:1; fill:none" points="
  309.866,1423.18 2352.76,1423.18 
  "/>
<polyline clip-path="url(#clip990)" style="stroke:#000000; stroke-linecap:round; stroke-linejoin:round; stroke-width:4; stroke-opacity:1; fill:none" points="
  309.866,1423.18 309.866,1404.28 
  "/>
<polyline clip-path="url(#clip990)" style="stroke:#000000; stroke-linecap:round; stroke-linejoin:round; stroke-width:4; stroke-opacity:1; fill:none" points="
  650.347,1423.18 650.347,1404.28 
  "/>
<polyline clip-path="url(#clip990)" style="stroke:#000000; stroke-linecap:round; stroke-linejoin:round; stroke-width:4; stroke-opacity:1; fill:none" points="
  990.829,1423.18 990.829,1404.28 
  "/>
<polyline clip-path="url(#clip990)" style="stroke:#000000; stroke-linecap:round; stroke-linejoin:round; stroke-width:4; stroke-opacity:1; fill:none" points="
  1331.31,1423.18 1331.31,1404.28 
  "/>
<polyline clip-path="url(#clip990)" style="stroke:#000000; stroke-linecap:round; stroke-linejoin:round; stroke-width:4; stroke-opacity:1; fill:none" points="
  1671.79,1423.18 1671.79,1404.28 
  "/>
<polyline clip-path="url(#clip990)" style="stroke:#000000; stroke-linecap:round; stroke-linejoin:round; stroke-width:4; stroke-opacity:1; fill:none" points="
  2012.27,1423.18 2012.27,1404.28 
  "/>
<polyline clip-path="url(#clip990)" style="stroke:#000000; stroke-linecap:round; stroke-linejoin:round; stroke-width:4; stroke-opacity:1; fill:none" points="
  2352.76,1423.18 2352.76,1404.28 
  "/>
<path clip-path="url(#clip990)" d="M309.866 1454.1 Q306.255 1454.1 304.426 1457.66 Q302.62 1461.2 302.62 1468.33 Q302.62 1475.44 304.426 1479.01 Q306.255 1482.55 309.866 1482.55 Q313.5 1482.55 315.306 1479.01 Q317.134 1475.44 317.134 1468.33 Q317.134 1461.2 315.306 1457.66 Q313.5 1454.1 309.866 1454.1 M309.866 1450.39 Q315.676 1450.39 318.731 1455 Q321.81 1459.58 321.81 1468.33 Q321.81 1477.06 318.731 1481.67 Q315.676 1486.25 309.866 1486.25 Q304.056 1486.25 300.977 1481.67 Q297.921 1477.06 297.921 1468.33 Q297.921 1459.58 300.977 1455 Q304.056 1450.39 309.866 1450.39 Z" fill="#000000" fill-rule="evenodd" fill-opacity="1" /><path clip-path="url(#clip990)" d="M640.625 1451.02 L658.982 1451.02 L658.982 1454.96 L644.908 1454.96 L644.908 1463.43 Q645.926 1463.08 646.945 1462.92 Q647.963 1462.73 648.982 1462.73 Q654.769 1462.73 658.148 1465.9 Q661.528 1469.08 661.528 1474.49 Q661.528 1480.07 658.056 1483.17 Q654.584 1486.25 648.264 1486.25 Q646.088 1486.25 643.82 1485.88 Q641.574 1485.51 639.167 1484.77 L639.167 1480.07 Q641.25 1481.2 643.473 1481.76 Q645.695 1482.32 648.172 1482.32 Q652.176 1482.32 654.514 1480.21 Q656.852 1478.1 656.852 1474.49 Q656.852 1470.88 654.514 1468.77 Q652.176 1466.67 648.172 1466.67 Q646.297 1466.67 644.422 1467.08 Q642.57 1467.5 640.625 1468.38 L640.625 1451.02 Z" fill="#000000" fill-rule="evenodd" fill-opacity="1" /><path clip-path="url(#clip990)" d="M965.517 1481.64 L973.156 1481.64 L973.156 1455.28 L964.846 1456.95 L964.846 1452.69 L973.109 1451.02 L977.785 1451.02 L977.785 1481.64 L985.424 1481.64 L985.424 1485.58 L965.517 1485.58 L965.517 1481.64 Z" fill="#000000" fill-rule="evenodd" fill-opacity="1" /><path clip-path="url(#clip990)" d="M1004.87 1454.1 Q1001.26 1454.1 999.429 1457.66 Q997.623 1461.2 997.623 1468.33 Q997.623 1475.44 999.429 1479.01 Q1001.26 1482.55 1004.87 1482.55 Q1008.5 1482.55 1010.31 1479.01 Q1012.14 1475.44 1012.14 1468.33 Q1012.14 1461.2 1010.31 1457.66 Q1008.5 1454.1 1004.87 1454.1 M1004.87 1450.39 Q1010.68 1450.39 1013.73 1455 Q1016.81 1459.58 1016.81 1468.33 Q1016.81 1477.06 1013.73 1481.67 Q1010.68 1486.25 1004.87 1486.25 Q999.058 1486.25 995.98 1481.67 Q992.924 1477.06 992.924 1468.33 Q992.924 1459.58 995.98 1455 Q999.058 1450.39 1004.87 1450.39 Z" fill="#000000" fill-rule="evenodd" fill-opacity="1" /><path clip-path="url(#clip990)" d="M1306.5 1481.64 L1314.14 1481.64 L1314.14 1455.28 L1305.82 1456.95 L1305.82 1452.69 L1314.09 1451.02 L1318.76 1451.02 L1318.76 1481.64 L1326.4 1481.64 L1326.4 1485.58 L1306.5 1485.58 L1306.5 1481.64 Z" fill="#000000" fill-rule="evenodd" fill-opacity="1" /><path clip-path="url(#clip990)" d="M1335.89 1451.02 L1354.25 1451.02 L1354.25 1454.96 L1340.18 1454.96 L1340.18 1463.43 Q1341.2 1463.08 1342.21 1462.92 Q1343.23 1462.73 1344.25 1462.73 Q1350.04 1462.73 1353.42 1465.9 Q1356.8 1469.08 1356.8 1474.49 Q1356.8 1480.07 1353.32 1483.17 Q1349.85 1486.25 1343.53 1486.25 Q1341.36 1486.25 1339.09 1485.88 Q1336.84 1485.51 1334.44 1484.77 L1334.44 1480.07 Q1336.52 1481.2 1338.74 1481.76 Q1340.96 1482.32 1343.44 1482.32 Q1347.45 1482.32 1349.78 1480.21 Q1352.12 1478.1 1352.12 1474.49 Q1352.12 1470.88 1349.78 1468.77 Q1347.45 1466.67 1343.44 1466.67 Q1341.57 1466.67 1339.69 1467.08 Q1337.84 1467.5 1335.89 1468.38 L1335.89 1451.02 Z" fill="#000000" fill-rule="evenodd" fill-opacity="1" /><path clip-path="url(#clip990)" d="M1650.57 1481.64 L1666.89 1481.64 L1666.89 1485.58 L1644.94 1485.58 L1644.94 1481.64 Q1647.6 1478.89 1652.19 1474.26 Q1656.79 1469.61 1657.97 1468.27 Q1660.22 1465.74 1661.1 1464.01 Q1662 1462.25 1662 1460.56 Q1662 1457.8 1660.06 1456.07 Q1658.14 1454.33 1655.03 1454.33 Q1652.83 1454.33 1650.38 1455.09 Q1647.95 1455.86 1645.17 1457.41 L1645.17 1452.69 Q1648 1451.55 1650.45 1450.97 Q1652.9 1450.39 1654.94 1450.39 Q1660.31 1450.39 1663.51 1453.08 Q1666.7 1455.77 1666.7 1460.26 Q1666.7 1462.39 1665.89 1464.31 Q1665.1 1466.2 1663 1468.8 Q1662.42 1469.47 1659.32 1472.69 Q1656.21 1475.88 1650.57 1481.64 Z" fill="#000000" fill-rule="evenodd" fill-opacity="1" /><path clip-path="url(#clip990)" d="M1686.7 1454.1 Q1683.09 1454.1 1681.26 1457.66 Q1679.45 1461.2 1679.45 1468.33 Q1679.45 1475.44 1681.26 1479.01 Q1683.09 1482.55 1686.7 1482.55 Q1690.33 1482.55 1692.14 1479.01 Q1693.97 1475.44 1693.97 1468.33 Q1693.97 1461.2 1692.14 1457.66 Q1690.33 1454.1 1686.7 1454.1 M1686.7 1450.39 Q1692.51 1450.39 1695.57 1455 Q1698.64 1459.58 1698.64 1468.33 Q1698.64 1477.06 1695.57 1481.67 Q1692.51 1486.25 1686.7 1486.25 Q1680.89 1486.25 1677.81 1481.67 Q1674.76 1477.06 1674.76 1468.33 Q1674.76 1459.58 1677.81 1455 Q1680.89 1450.39 1686.7 1450.39 Z" fill="#000000" fill-rule="evenodd" fill-opacity="1" /><path clip-path="url(#clip990)" d="M1991.55 1481.64 L2007.86 1481.64 L2007.86 1485.58 L1985.92 1485.58 L1985.92 1481.64 Q1988.58 1478.89 1993.17 1474.26 Q1997.77 1469.61 1998.95 1468.27 Q2001.2 1465.74 2002.08 1464.01 Q2002.98 1462.25 2002.98 1460.56 Q2002.98 1457.8 2001.04 1456.07 Q1999.11 1454.33 1996.01 1454.33 Q1993.81 1454.33 1991.36 1455.09 Q1988.93 1455.86 1986.15 1457.41 L1986.15 1452.69 Q1988.98 1451.55 1991.43 1450.97 Q1993.88 1450.39 1995.92 1450.39 Q2001.29 1450.39 2004.48 1453.08 Q2007.68 1455.77 2007.68 1460.26 Q2007.68 1462.39 2006.87 1464.31 Q2006.08 1466.2 2003.98 1468.8 Q2003.4 1469.47 2000.3 1472.69 Q1997.19 1475.88 1991.55 1481.64 Z" fill="#000000" fill-rule="evenodd" fill-opacity="1" /><path clip-path="url(#clip990)" d="M2017.73 1451.02 L2036.08 1451.02 L2036.08 1454.96 L2022.01 1454.96 L2022.01 1463.43 Q2023.03 1463.08 2024.04 1462.92 Q2025.06 1462.73 2026.08 1462.73 Q2031.87 1462.73 2035.25 1465.9 Q2038.63 1469.08 2038.63 1474.49 Q2038.63 1480.07 2035.16 1483.17 Q2031.68 1486.25 2025.36 1486.25 Q2023.19 1486.25 2020.92 1485.88 Q2018.67 1485.51 2016.27 1484.77 L2016.27 1480.07 Q2018.35 1481.2 2020.57 1481.76 Q2022.79 1482.32 2025.27 1482.32 Q2029.28 1482.32 2031.61 1480.21 Q2033.95 1478.1 2033.95 1474.49 Q2033.95 1470.88 2031.61 1468.77 Q2029.28 1466.67 2025.27 1466.67 Q2023.4 1466.67 2021.52 1467.08 Q2019.67 1467.5 2017.73 1468.38 L2017.73 1451.02 Z" fill="#000000" fill-rule="evenodd" fill-opacity="1" /><path clip-path="url(#clip990)" d="M2341.6 1466.95 Q2344.96 1467.66 2346.83 1469.93 Q2348.73 1472.2 2348.73 1475.53 Q2348.73 1480.65 2345.21 1483.45 Q2341.69 1486.25 2335.21 1486.25 Q2333.03 1486.25 2330.72 1485.81 Q2328.43 1485.39 2325.97 1484.54 L2325.97 1480.02 Q2327.92 1481.16 2330.23 1481.74 Q2332.55 1482.32 2335.07 1482.32 Q2339.47 1482.32 2341.76 1480.58 Q2344.08 1478.84 2344.08 1475.53 Q2344.08 1472.48 2341.92 1470.77 Q2339.79 1469.03 2335.97 1469.03 L2331.95 1469.03 L2331.95 1465.19 L2336.16 1465.19 Q2339.61 1465.19 2341.44 1463.82 Q2343.27 1462.43 2343.27 1459.84 Q2343.27 1457.18 2341.37 1455.77 Q2339.49 1454.33 2335.97 1454.33 Q2334.05 1454.33 2331.85 1454.75 Q2329.65 1455.16 2327.02 1456.04 L2327.02 1451.88 Q2329.68 1451.14 2331.99 1450.77 Q2334.33 1450.39 2336.39 1450.39 Q2341.71 1450.39 2344.82 1452.83 Q2347.92 1455.23 2347.92 1459.35 Q2347.92 1462.22 2346.27 1464.21 Q2344.63 1466.18 2341.6 1466.95 Z" fill="#000000" fill-rule="evenodd" fill-opacity="1" /><path clip-path="url(#clip990)" d="M2367.59 1454.1 Q2363.98 1454.1 2362.15 1457.66 Q2360.35 1461.2 2360.35 1468.33 Q2360.35 1475.44 2362.15 1479.01 Q2363.98 1482.55 2367.59 1482.55 Q2371.23 1482.55 2373.03 1479.01 Q2374.86 1475.44 2374.86 1468.33 Q2374.86 1461.2 2373.03 1457.66 Q2371.23 1454.1 2367.59 1454.1 M2367.59 1450.39 Q2373.4 1450.39 2376.46 1455 Q2379.54 1459.58 2379.54 1468.33 Q2379.54 1477.06 2376.46 1481.67 Q2373.4 1486.25 2367.59 1486.25 Q2361.78 1486.25 2358.7 1481.67 Q2355.65 1477.06 2355.65 1468.33 Q2355.65 1459.58 2358.7 1455 Q2361.78 1450.39 2367.59 1450.39 Z" fill="#000000" fill-rule="evenodd" fill-opacity="1" /><path clip-path="url(#clip990)" d="M1160.18 1522.08 L1160.18 1528.35 Q1156.52 1526.6 1153.28 1525.74 Q1150.03 1524.88 1147.01 1524.88 Q1141.76 1524.88 1138.89 1526.92 Q1136.06 1528.96 1136.06 1532.71 Q1136.06 1535.87 1137.94 1537.49 Q1139.85 1539.08 1145.13 1540.07 L1149.01 1540.86 Q1156.21 1542.23 1159.61 1545.7 Q1163.05 1549.14 1163.05 1554.93 Q1163.05 1561.84 1158.4 1565.4 Q1153.79 1568.97 1144.84 1568.97 Q1141.47 1568.97 1137.65 1568.2 Q1133.86 1567.44 1129.79 1565.94 L1129.79 1559.32 Q1133.7 1561.52 1137.46 1562.63 Q1141.21 1563.75 1144.84 1563.75 Q1150.35 1563.75 1153.34 1561.58 Q1156.33 1559.42 1156.33 1555.41 Q1156.33 1551.91 1154.17 1549.93 Q1152.04 1547.96 1147.14 1546.97 L1143.22 1546.21 Q1136.03 1544.78 1132.81 1541.72 Q1129.6 1538.67 1129.6 1533.22 Q1129.6 1526.92 1134.02 1523.29 Q1138.48 1519.66 1146.28 1519.66 Q1149.62 1519.66 1153.09 1520.27 Q1156.56 1520.87 1160.18 1522.08 Z" fill="#000000" fill-rule="evenodd" fill-opacity="1" /><path clip-path="url(#clip990)" d="M1172.82 1532.4 L1178.68 1532.4 L1178.68 1568.04 L1172.82 1568.04 L1172.82 1532.4 M1172.82 1518.52 L1178.68 1518.52 L1178.68 1525.93 L1172.82 1525.93 L1172.82 1518.52 Z" fill="#000000" fill-rule="evenodd" fill-opacity="1" /><path clip-path="url(#clip990)" d="M1196.72 1522.27 L1196.72 1532.4 L1208.79 1532.4 L1208.79 1536.95 L1196.72 1536.95 L1196.72 1556.3 Q1196.72 1560.66 1197.9 1561.9 Q1199.11 1563.14 1202.77 1563.14 L1208.79 1563.14 L1208.79 1568.04 L1202.77 1568.04 Q1195.99 1568.04 1193.41 1565.53 Q1190.84 1562.98 1190.84 1556.3 L1190.84 1536.95 L1186.54 1536.95 L1186.54 1532.4 L1190.84 1532.4 L1190.84 1522.27 L1196.72 1522.27 Z" fill="#000000" fill-rule="evenodd" fill-opacity="1" /><path clip-path="url(#clip990)" d="M1246.98 1548.76 L1246.98 1551.62 L1220.05 1551.62 Q1220.44 1557.67 1223.68 1560.85 Q1226.96 1564 1232.79 1564 Q1236.16 1564 1239.31 1563.17 Q1242.49 1562.35 1245.61 1560.69 L1245.61 1566.23 Q1242.46 1567.57 1239.15 1568.27 Q1235.84 1568.97 1232.44 1568.97 Q1223.91 1568.97 1218.91 1564 Q1213.94 1559.04 1213.94 1550.57 Q1213.94 1541.82 1218.65 1536.69 Q1223.4 1531.54 1231.42 1531.54 Q1238.61 1531.54 1242.78 1536.18 Q1246.98 1540.8 1246.98 1548.76 M1241.12 1547.04 Q1241.06 1542.23 1238.42 1539.37 Q1235.81 1536.5 1231.48 1536.5 Q1226.58 1536.5 1223.62 1539.27 Q1220.69 1542.04 1220.25 1547.07 L1241.12 1547.04 Z" fill="#000000" fill-rule="evenodd" fill-opacity="1" /><path clip-path="url(#clip990)" d="M1277.57 1520.52 L1286.23 1520.52 L1307.3 1560.28 L1307.3 1520.52 L1313.53 1520.52 L1313.53 1568.04 L1304.88 1568.04 L1283.81 1528.29 L1283.81 1568.04 L1277.57 1568.04 L1277.57 1520.52 Z" fill="#000000" fill-rule="evenodd" fill-opacity="1" /><path clip-path="url(#clip990)" d="M1325.47 1553.98 L1325.47 1532.4 L1331.33 1532.4 L1331.33 1553.75 Q1331.33 1558.81 1333.3 1561.36 Q1335.27 1563.87 1339.22 1563.87 Q1343.96 1563.87 1346.7 1560.85 Q1349.47 1557.83 1349.47 1552.61 L1349.47 1532.4 L1355.33 1532.4 L1355.33 1568.04 L1349.47 1568.04 L1349.47 1562.57 Q1347.34 1565.82 1344.5 1567.41 Q1341.7 1568.97 1337.98 1568.97 Q1331.84 1568.97 1328.65 1565.15 Q1325.47 1561.33 1325.47 1553.98 M1340.21 1531.54 L1340.21 1531.54 Z" fill="#000000" fill-rule="evenodd" fill-opacity="1" /><path clip-path="url(#clip990)" d="M1395.14 1539.24 Q1397.34 1535.29 1400.39 1533.41 Q1403.45 1531.54 1407.59 1531.54 Q1413.16 1531.54 1416.18 1535.45 Q1419.21 1539.33 1419.21 1546.53 L1419.21 1568.04 L1413.32 1568.04 L1413.32 1546.72 Q1413.32 1541.59 1411.5 1539.11 Q1409.69 1536.63 1405.96 1536.63 Q1401.41 1536.63 1398.77 1539.65 Q1396.13 1542.68 1396.13 1547.9 L1396.13 1568.04 L1390.24 1568.04 L1390.24 1546.72 Q1390.24 1541.56 1388.43 1539.11 Q1386.61 1536.63 1382.83 1536.63 Q1378.34 1536.63 1375.7 1539.68 Q1373.05 1542.71 1373.05 1547.9 L1373.05 1568.04 L1367.17 1568.04 L1367.17 1532.4 L1373.05 1532.4 L1373.05 1537.93 Q1375.06 1534.66 1377.86 1533.1 Q1380.66 1531.54 1384.51 1531.54 Q1388.4 1531.54 1391.1 1533.51 Q1393.84 1535.48 1395.14 1539.24 Z" fill="#000000" fill-rule="evenodd" fill-opacity="1" /><path clip-path="url(#clip990)" d="M1456.48 1550.25 Q1456.48 1543.79 1453.8 1540.13 Q1451.16 1536.44 1446.51 1536.44 Q1441.87 1536.44 1439.19 1540.13 Q1436.55 1543.79 1436.55 1550.25 Q1436.55 1556.71 1439.19 1560.4 Q1441.87 1564.07 1446.51 1564.07 Q1451.16 1564.07 1453.8 1560.4 Q1456.48 1556.71 1456.48 1550.25 M1436.55 1537.81 Q1438.4 1534.62 1441.2 1533.1 Q1444.03 1531.54 1447.95 1531.54 Q1454.44 1531.54 1458.48 1536.69 Q1462.56 1541.85 1462.56 1550.25 Q1462.56 1558.65 1458.48 1563.81 Q1454.44 1568.97 1447.95 1568.97 Q1444.03 1568.97 1441.2 1567.44 Q1438.4 1565.88 1436.55 1562.7 L1436.55 1568.04 L1430.66 1568.04 L1430.66 1518.52 L1436.55 1518.52 L1436.55 1537.81 Z" fill="#000000" fill-rule="evenodd" fill-opacity="1" /><path clip-path="url(#clip990)" d="M1502.76 1548.76 L1502.76 1551.62 L1475.83 1551.62 Q1476.21 1557.67 1479.46 1560.85 Q1482.74 1564 1488.56 1564 Q1491.93 1564 1495.08 1563.17 Q1498.27 1562.35 1501.39 1560.69 L1501.39 1566.23 Q1498.24 1567.57 1494.93 1568.27 Q1491.62 1568.97 1488.21 1568.97 Q1479.68 1568.97 1474.68 1564 Q1469.72 1559.04 1469.72 1550.57 Q1469.72 1541.82 1474.43 1536.69 Q1479.17 1531.54 1487.19 1531.54 Q1494.38 1531.54 1498.55 1536.18 Q1502.76 1540.8 1502.76 1548.76 M1496.9 1547.04 Q1496.84 1542.23 1494.19 1539.37 Q1491.58 1536.5 1487.25 1536.5 Q1482.35 1536.5 1479.39 1539.27 Q1476.46 1542.04 1476.02 1547.07 L1496.9 1547.04 Z" fill="#000000" fill-rule="evenodd" fill-opacity="1" /><path clip-path="url(#clip990)" d="M1533.02 1537.87 Q1532.04 1537.3 1530.86 1537.04 Q1529.71 1536.76 1528.31 1536.76 Q1523.35 1536.76 1520.67 1540 Q1518.03 1543.22 1518.03 1549.27 L1518.03 1568.04 L1512.14 1568.04 L1512.14 1532.4 L1518.03 1532.4 L1518.03 1537.93 Q1519.88 1534.69 1522.84 1533.13 Q1525.8 1531.54 1530.03 1531.54 Q1530.64 1531.54 1531.37 1531.63 Q1532.1 1531.7 1532.99 1531.85 L1533.02 1537.87 Z" fill="#000000" fill-rule="evenodd" fill-opacity="1" /><polyline clip-path="url(#clip992)" style="stroke:#000000; stroke-linecap:round; stroke-linejoin:round; stroke-width:2; stroke-opacity:0.1; fill:none" points="
  309.866,1423.18 2352.76,1423.18 
  "/>
<polyline clip-path="url(#clip992)" style="stroke:#000000; stroke-linecap:round; stroke-linejoin:round; stroke-width:2; stroke-opacity:0.1; fill:none" points="
  309.866,1330.34 2352.76,1330.34 
  "/>
<polyline clip-path="url(#clip992)" style="stroke:#000000; stroke-linecap:round; stroke-linejoin:round; stroke-width:2; stroke-opacity:0.1; fill:none" points="
  309.866,1237.51 2352.76,1237.51 
  "/>
<polyline clip-path="url(#clip992)" style="stroke:#000000; stroke-linecap:round; stroke-linejoin:round; stroke-width:2; stroke-opacity:0.1; fill:none" points="
  309.866,1144.67 2352.76,1144.67 
  "/>
<polyline clip-path="url(#clip992)" style="stroke:#000000; stroke-linecap:round; stroke-linejoin:round; stroke-width:2; stroke-opacity:0.1; fill:none" points="
  309.866,1051.83 2352.76,1051.83 
  "/>
<polyline clip-path="url(#clip992)" style="stroke:#000000; stroke-linecap:round; stroke-linejoin:round; stroke-width:2; stroke-opacity:0.1; fill:none" points="
  309.866,958.999 2352.76,958.999 
  "/>
<polyline clip-path="url(#clip992)" style="stroke:#000000; stroke-linecap:round; stroke-linejoin:round; stroke-width:2; stroke-opacity:0.1; fill:none" points="
  309.866,866.162 2352.76,866.162 
  "/>
<polyline clip-path="url(#clip992)" style="stroke:#000000; stroke-linecap:round; stroke-linejoin:round; stroke-width:2; stroke-opacity:0.1; fill:none" points="
  309.866,773.326 2352.76,773.326 
  "/>
<polyline clip-path="url(#clip992)" style="stroke:#000000; stroke-linecap:round; stroke-linejoin:round; stroke-width:2; stroke-opacity:0.1; fill:none" points="
  309.866,680.49 2352.76,680.49 
  "/>
<polyline clip-path="url(#clip992)" style="stroke:#000000; stroke-linecap:round; stroke-linejoin:round; stroke-width:2; stroke-opacity:0.1; fill:none" points="
  309.866,587.653 2352.76,587.653 
  "/>
<polyline clip-path="url(#clip992)" style="stroke:#000000; stroke-linecap:round; stroke-linejoin:round; stroke-width:2; stroke-opacity:0.1; fill:none" points="
  309.866,494.817 2352.76,494.817 
  "/>
<polyline clip-path="url(#clip992)" style="stroke:#000000; stroke-linecap:round; stroke-linejoin:round; stroke-width:2; stroke-opacity:0.1; fill:none" points="
  309.866,401.981 2352.76,401.981 
  "/>
<polyline clip-path="url(#clip992)" style="stroke:#000000; stroke-linecap:round; stroke-linejoin:round; stroke-width:2; stroke-opacity:0.1; fill:none" points="
  309.866,309.145 2352.76,309.145 
  "/>
<polyline clip-path="url(#clip992)" style="stroke:#000000; stroke-linecap:round; stroke-linejoin:round; stroke-width:2; stroke-opacity:0.1; fill:none" points="
  309.866,216.308 2352.76,216.308 
  "/>
<polyline clip-path="url(#clip992)" style="stroke:#000000; stroke-linecap:round; stroke-linejoin:round; stroke-width:2; stroke-opacity:0.1; fill:none" points="
  309.866,123.472 2352.76,123.472 
  "/>
<polyline clip-path="url(#clip990)" style="stroke:#000000; stroke-linecap:round; stroke-linejoin:round; stroke-width:4; stroke-opacity:1; fill:none" points="
  309.866,1423.18 309.866,123.472 
  "/>
<polyline clip-path="url(#clip990)" style="stroke:#000000; stroke-linecap:round; stroke-linejoin:round; stroke-width:4; stroke-opacity:1; fill:none" points="
  309.866,1423.18 328.763,1423.18 
  "/>
<polyline clip-path="url(#clip990)" style="stroke:#000000; stroke-linecap:round; stroke-linejoin:round; stroke-width:4; stroke-opacity:1; fill:none" points="
  309.866,1330.34 328.763,1330.34 
  "/>
<polyline clip-path="url(#clip990)" style="stroke:#000000; stroke-linecap:round; stroke-linejoin:round; stroke-width:4; stroke-opacity:1; fill:none" points="
  309.866,1237.51 328.763,1237.51 
  "/>
<polyline clip-path="url(#clip990)" style="stroke:#000000; stroke-linecap:round; stroke-linejoin:round; stroke-width:4; stroke-opacity:1; fill:none" points="
  309.866,1144.67 328.763,1144.67 
  "/>
<polyline clip-path="url(#clip990)" style="stroke:#000000; stroke-linecap:round; stroke-linejoin:round; stroke-width:4; stroke-opacity:1; fill:none" points="
  309.866,1051.83 328.763,1051.83 
  "/>
<polyline clip-path="url(#clip990)" style="stroke:#000000; stroke-linecap:round; stroke-linejoin:round; stroke-width:4; stroke-opacity:1; fill:none" points="
  309.866,958.999 328.763,958.999 
  "/>
<polyline clip-path="url(#clip990)" style="stroke:#000000; stroke-linecap:round; stroke-linejoin:round; stroke-width:4; stroke-opacity:1; fill:none" points="
  309.866,866.162 328.763,866.162 
  "/>
<polyline clip-path="url(#clip990)" style="stroke:#000000; stroke-linecap:round; stroke-linejoin:round; stroke-width:4; stroke-opacity:1; fill:none" points="
  309.866,773.326 328.763,773.326 
  "/>
<polyline clip-path="url(#clip990)" style="stroke:#000000; stroke-linecap:round; stroke-linejoin:round; stroke-width:4; stroke-opacity:1; fill:none" points="
  309.866,680.49 328.763,680.49 
  "/>
<polyline clip-path="url(#clip990)" style="stroke:#000000; stroke-linecap:round; stroke-linejoin:round; stroke-width:4; stroke-opacity:1; fill:none" points="
  309.866,587.653 328.763,587.653 
  "/>
<polyline clip-path="url(#clip990)" style="stroke:#000000; stroke-linecap:round; stroke-linejoin:round; stroke-width:4; stroke-opacity:1; fill:none" points="
  309.866,494.817 328.763,494.817 
  "/>
<polyline clip-path="url(#clip990)" style="stroke:#000000; stroke-linecap:round; stroke-linejoin:round; stroke-width:4; stroke-opacity:1; fill:none" points="
  309.866,401.981 328.763,401.981 
  "/>
<polyline clip-path="url(#clip990)" style="stroke:#000000; stroke-linecap:round; stroke-linejoin:round; stroke-width:4; stroke-opacity:1; fill:none" points="
  309.866,309.145 328.763,309.145 
  "/>
<polyline clip-path="url(#clip990)" style="stroke:#000000; stroke-linecap:round; stroke-linejoin:round; stroke-width:4; stroke-opacity:1; fill:none" points="
  309.866,216.308 328.763,216.308 
  "/>
<polyline clip-path="url(#clip990)" style="stroke:#000000; stroke-linecap:round; stroke-linejoin:round; stroke-width:4; stroke-opacity:1; fill:none" points="
  309.866,123.472 328.763,123.472 
  "/>
<path clip-path="url(#clip990)" d="M126.205 1408.98 Q122.593 1408.98 120.765 1412.54 Q118.959 1416.08 118.959 1423.21 Q118.959 1430.32 120.765 1433.89 Q122.593 1437.43 126.205 1437.43 Q129.839 1437.43 131.644 1433.89 Q133.473 1430.32 133.473 1423.21 Q133.473 1416.08 131.644 1412.54 Q129.839 1408.98 126.205 1408.98 M126.205 1405.27 Q132.015 1405.27 135.07 1409.88 Q138.149 1414.46 138.149 1423.21 Q138.149 1431.94 135.07 1436.55 Q132.015 1441.13 126.205 1441.13 Q120.394 1441.13 117.316 1436.55 Q114.26 1431.94 114.26 1423.21 Q114.26 1414.46 117.316 1409.88 Q120.394 1405.27 126.205 1405.27 Z" fill="#000000" fill-rule="evenodd" fill-opacity="1" /><path clip-path="url(#clip990)" d="M146.366 1434.58 L151.251 1434.58 L151.251 1440.46 L146.366 1440.46 L146.366 1434.58 Z" fill="#000000" fill-rule="evenodd" fill-opacity="1" /><path clip-path="url(#clip990)" d="M174.283 1409.97 L162.477 1428.42 L174.283 1428.42 L174.283 1409.97 M173.056 1405.9 L178.936 1405.9 L178.936 1428.42 L183.866 1428.42 L183.866 1432.31 L178.936 1432.31 L178.936 1440.46 L174.283 1440.46 L174.283 1432.31 L158.681 1432.31 L158.681 1427.8 L173.056 1405.9 Z" fill="#000000" fill-rule="evenodd" fill-opacity="1" /><path clip-path="url(#clip990)" d="M190.417 1405.9 L212.639 1405.9 L212.639 1407.89 L200.093 1440.46 L195.209 1440.46 L207.014 1409.84 L190.417 1409.84 L190.417 1405.9 Z" fill="#000000" fill-rule="evenodd" fill-opacity="1" /><path clip-path="url(#clip990)" d="M222.57 1436.52 L230.209 1436.52 L230.209 1410.16 L221.898 1411.83 L221.898 1407.57 L230.162 1405.9 L234.838 1405.9 L234.838 1436.52 L242.477 1436.52 L242.477 1440.46 L222.57 1440.46 L222.57 1436.52 Z" fill="#000000" fill-rule="evenodd" fill-opacity="1" /><path clip-path="url(#clip990)" d="M261.921 1408.98 Q258.31 1408.98 256.482 1412.54 Q254.676 1416.08 254.676 1423.21 Q254.676 1430.32 256.482 1433.89 Q258.31 1437.43 261.921 1437.43 Q265.556 1437.43 267.361 1433.89 Q269.19 1430.32 269.19 1423.21 Q269.19 1416.08 267.361 1412.54 Q265.556 1408.98 261.921 1408.98 M261.921 1405.27 Q267.732 1405.27 270.787 1409.88 Q273.866 1414.46 273.866 1423.21 Q273.866 1431.94 270.787 1436.55 Q267.732 1441.13 261.921 1441.13 Q256.111 1441.13 253.033 1436.55 Q249.977 1431.94 249.977 1423.21 Q249.977 1414.46 253.033 1409.88 Q256.111 1405.27 261.921 1405.27 Z" fill="#000000" fill-rule="evenodd" fill-opacity="1" /><path clip-path="url(#clip990)" d="M127.2 1316.14 Q123.589 1316.14 121.76 1319.71 Q119.955 1323.25 119.955 1330.38 Q119.955 1337.48 121.76 1341.05 Q123.589 1344.59 127.2 1344.59 Q130.834 1344.59 132.64 1341.05 Q134.468 1337.48 134.468 1330.38 Q134.468 1323.25 132.64 1319.71 Q130.834 1316.14 127.2 1316.14 M127.2 1312.44 Q133.01 1312.44 136.066 1317.05 Q139.144 1321.63 139.144 1330.38 Q139.144 1339.11 136.066 1343.71 Q133.01 1348.29 127.2 1348.29 Q121.39 1348.29 118.311 1343.71 Q115.256 1339.11 115.256 1330.38 Q115.256 1321.63 118.311 1317.05 Q121.39 1312.44 127.2 1312.44 Z" fill="#000000" fill-rule="evenodd" fill-opacity="1" /><path clip-path="url(#clip990)" d="M147.362 1341.74 L152.246 1341.74 L152.246 1347.62 L147.362 1347.62 L147.362 1341.74 Z" fill="#000000" fill-rule="evenodd" fill-opacity="1" /><path clip-path="url(#clip990)" d="M175.278 1317.14 L163.473 1335.59 L175.278 1335.59 L175.278 1317.14 M174.052 1313.06 L179.931 1313.06 L179.931 1335.59 L184.862 1335.59 L184.862 1339.48 L179.931 1339.48 L179.931 1347.62 L175.278 1347.62 L175.278 1339.48 L159.677 1339.48 L159.677 1334.96 L174.052 1313.06 Z" fill="#000000" fill-rule="evenodd" fill-opacity="1" /><path clip-path="url(#clip990)" d="M191.413 1313.06 L213.635 1313.06 L213.635 1315.05 L201.088 1347.62 L196.204 1347.62 L208.01 1317 L191.413 1317 L191.413 1313.06 Z" fill="#000000" fill-rule="evenodd" fill-opacity="1" /><path clip-path="url(#clip990)" d="M223.565 1343.69 L231.204 1343.69 L231.204 1317.32 L222.894 1318.99 L222.894 1314.73 L231.158 1313.06 L235.834 1313.06 L235.834 1343.69 L243.472 1343.69 L243.472 1347.62 L223.565 1347.62 L223.565 1343.69 Z" fill="#000000" fill-rule="evenodd" fill-opacity="1" /><path clip-path="url(#clip990)" d="M252.963 1313.06 L271.32 1313.06 L271.32 1317 L257.246 1317 L257.246 1325.47 Q258.264 1325.12 259.283 1324.96 Q260.301 1324.78 261.32 1324.78 Q267.107 1324.78 270.486 1327.95 Q273.866 1331.12 273.866 1336.54 Q273.866 1342.11 270.394 1345.22 Q266.921 1348.29 260.602 1348.29 Q258.426 1348.29 256.158 1347.92 Q253.912 1347.55 251.505 1346.81 L251.505 1342.11 Q253.588 1343.25 255.81 1343.8 Q258.033 1344.36 260.509 1344.36 Q264.514 1344.36 266.852 1342.25 Q269.19 1340.15 269.19 1336.54 Q269.19 1332.92 266.852 1330.82 Q264.514 1328.71 260.509 1328.71 Q258.634 1328.71 256.759 1329.13 Q254.908 1329.54 252.963 1330.42 L252.963 1313.06 Z" fill="#000000" fill-rule="evenodd" fill-opacity="1" /><path clip-path="url(#clip990)" d="M126.205 1223.31 Q122.593 1223.31 120.765 1226.87 Q118.959 1230.41 118.959 1237.54 Q118.959 1244.65 120.765 1248.21 Q122.593 1251.75 126.205 1251.75 Q129.839 1251.75 131.644 1248.21 Q133.473 1244.65 133.473 1237.54 Q133.473 1230.41 131.644 1226.87 Q129.839 1223.31 126.205 1223.31 M126.205 1219.6 Q132.015 1219.6 135.07 1224.21 Q138.149 1228.79 138.149 1237.54 Q138.149 1246.27 135.07 1250.88 Q132.015 1255.46 126.205 1255.46 Q120.394 1255.46 117.316 1250.88 Q114.26 1246.27 114.26 1237.54 Q114.26 1228.79 117.316 1224.21 Q120.394 1219.6 126.205 1219.6 Z" fill="#000000" fill-rule="evenodd" fill-opacity="1" /><path clip-path="url(#clip990)" d="M146.366 1248.91 L151.251 1248.91 L151.251 1254.79 L146.366 1254.79 L146.366 1248.91 Z" fill="#000000" fill-rule="evenodd" fill-opacity="1" /><path clip-path="url(#clip990)" d="M174.283 1224.3 L162.477 1242.75 L174.283 1242.75 L174.283 1224.3 M173.056 1220.23 L178.936 1220.23 L178.936 1242.75 L183.866 1242.75 L183.866 1246.64 L178.936 1246.64 L178.936 1254.79 L174.283 1254.79 L174.283 1246.64 L158.681 1246.64 L158.681 1242.13 L173.056 1220.23 Z" fill="#000000" fill-rule="evenodd" fill-opacity="1" /><path clip-path="url(#clip990)" d="M190.417 1220.23 L212.639 1220.23 L212.639 1222.22 L200.093 1254.79 L195.209 1254.79 L207.014 1224.16 L190.417 1224.16 L190.417 1220.23 Z" fill="#000000" fill-rule="evenodd" fill-opacity="1" /><path clip-path="url(#clip990)" d="M225.787 1250.85 L242.107 1250.85 L242.107 1254.79 L220.162 1254.79 L220.162 1250.85 Q222.824 1248.1 227.408 1243.47 Q232.014 1238.82 233.195 1237.47 Q235.44 1234.95 236.32 1233.21 Q237.222 1231.45 237.222 1229.76 Q237.222 1227.01 235.278 1225.27 Q233.357 1223.54 230.255 1223.54 Q228.056 1223.54 225.602 1224.3 Q223.172 1225.07 220.394 1226.62 L220.394 1221.89 Q223.218 1220.76 225.672 1220.18 Q228.125 1219.6 230.162 1219.6 Q235.533 1219.6 238.727 1222.29 Q241.922 1224.97 241.922 1229.46 Q241.922 1231.59 241.111 1233.51 Q240.324 1235.41 238.218 1238 Q237.639 1238.68 234.537 1241.89 Q231.435 1245.09 225.787 1250.85 Z" fill="#000000" fill-rule="evenodd" fill-opacity="1" /><path clip-path="url(#clip990)" d="M261.921 1223.31 Q258.31 1223.31 256.482 1226.87 Q254.676 1230.41 254.676 1237.54 Q254.676 1244.65 256.482 1248.21 Q258.31 1251.75 261.921 1251.75 Q265.556 1251.75 267.361 1248.21 Q269.19 1244.65 269.19 1237.54 Q269.19 1230.41 267.361 1226.87 Q265.556 1223.31 261.921 1223.31 M261.921 1219.6 Q267.732 1219.6 270.787 1224.21 Q273.866 1228.79 273.866 1237.54 Q273.866 1246.27 270.787 1250.88 Q267.732 1255.46 261.921 1255.46 Q256.111 1255.46 253.033 1250.88 Q249.977 1246.27 249.977 1237.54 Q249.977 1228.79 253.033 1224.21 Q256.111 1219.6 261.921 1219.6 Z" fill="#000000" fill-rule="evenodd" fill-opacity="1" /><path clip-path="url(#clip990)" d="M127.2 1130.47 Q123.589 1130.47 121.76 1134.03 Q119.955 1137.58 119.955 1144.71 Q119.955 1151.81 121.76 1155.38 Q123.589 1158.92 127.2 1158.92 Q130.834 1158.92 132.64 1155.38 Q134.468 1151.81 134.468 1144.71 Q134.468 1137.58 132.64 1134.03 Q130.834 1130.47 127.2 1130.47 M127.2 1126.77 Q133.01 1126.77 136.066 1131.37 Q139.144 1135.96 139.144 1144.71 Q139.144 1153.43 136.066 1158.04 Q133.01 1162.62 127.2 1162.62 Q121.39 1162.62 118.311 1158.04 Q115.256 1153.43 115.256 1144.71 Q115.256 1135.96 118.311 1131.37 Q121.39 1126.77 127.2 1126.77 Z" fill="#000000" fill-rule="evenodd" fill-opacity="1" /><path clip-path="url(#clip990)" d="M147.362 1156.07 L152.246 1156.07 L152.246 1161.95 L147.362 1161.95 L147.362 1156.07 Z" fill="#000000" fill-rule="evenodd" fill-opacity="1" /><path clip-path="url(#clip990)" d="M175.278 1131.47 L163.473 1149.91 L175.278 1149.91 L175.278 1131.47 M174.052 1127.39 L179.931 1127.39 L179.931 1149.91 L184.862 1149.91 L184.862 1153.8 L179.931 1153.8 L179.931 1161.95 L175.278 1161.95 L175.278 1153.8 L159.677 1153.8 L159.677 1149.29 L174.052 1127.39 Z" fill="#000000" fill-rule="evenodd" fill-opacity="1" /><path clip-path="url(#clip990)" d="M191.413 1127.39 L213.635 1127.39 L213.635 1129.38 L201.088 1161.95 L196.204 1161.95 L208.01 1131.33 L191.413 1131.33 L191.413 1127.39 Z" fill="#000000" fill-rule="evenodd" fill-opacity="1" /><path clip-path="url(#clip990)" d="M226.783 1158.02 L243.102 1158.02 L243.102 1161.95 L221.158 1161.95 L221.158 1158.02 Q223.82 1155.26 228.403 1150.63 Q233.01 1145.98 234.19 1144.64 Q236.435 1142.11 237.315 1140.38 Q238.218 1138.62 238.218 1136.93 Q238.218 1134.17 236.273 1132.44 Q234.352 1130.7 231.25 1130.7 Q229.051 1130.7 226.598 1131.47 Q224.167 1132.23 221.389 1133.78 L221.389 1129.06 Q224.213 1127.92 226.667 1127.34 Q229.121 1126.77 231.158 1126.77 Q236.528 1126.77 239.722 1129.45 Q242.917 1132.14 242.917 1136.63 Q242.917 1138.76 242.107 1140.68 Q241.32 1142.58 239.213 1145.17 Q238.634 1145.84 235.533 1149.06 Q232.431 1152.25 226.783 1158.02 Z" fill="#000000" fill-rule="evenodd" fill-opacity="1" /><path clip-path="url(#clip990)" d="M252.963 1127.39 L271.32 1127.39 L271.32 1131.33 L257.246 1131.33 L257.246 1139.8 Q258.264 1139.45 259.283 1139.29 Q260.301 1139.1 261.32 1139.1 Q267.107 1139.1 270.486 1142.28 Q273.866 1145.45 273.866 1150.86 Q273.866 1156.44 270.394 1159.54 Q266.921 1162.62 260.602 1162.62 Q258.426 1162.62 256.158 1162.25 Q253.912 1161.88 251.505 1161.14 L251.505 1156.44 Q253.588 1157.58 255.81 1158.13 Q258.033 1158.69 260.509 1158.69 Q264.514 1158.69 266.852 1156.58 Q269.19 1154.47 269.19 1150.86 Q269.19 1147.25 266.852 1145.15 Q264.514 1143.04 260.509 1143.04 Q258.634 1143.04 256.759 1143.46 Q254.908 1143.87 252.963 1144.75 L252.963 1127.39 Z" fill="#000000" fill-rule="evenodd" fill-opacity="1" /><path clip-path="url(#clip990)" d="M126.205 1037.63 Q122.593 1037.63 120.765 1041.2 Q118.959 1044.74 118.959 1051.87 Q118.959 1058.98 120.765 1062.54 Q122.593 1066.08 126.205 1066.08 Q129.839 1066.08 131.644 1062.54 Q133.473 1058.98 133.473 1051.87 Q133.473 1044.74 131.644 1041.2 Q129.839 1037.63 126.205 1037.63 M126.205 1033.93 Q132.015 1033.93 135.07 1038.54 Q138.149 1043.12 138.149 1051.87 Q138.149 1060.6 135.07 1065.2 Q132.015 1069.79 126.205 1069.79 Q120.394 1069.79 117.316 1065.2 Q114.26 1060.6 114.26 1051.87 Q114.26 1043.12 117.316 1038.54 Q120.394 1033.93 126.205 1033.93 Z" fill="#000000" fill-rule="evenodd" fill-opacity="1" /><path clip-path="url(#clip990)" d="M146.366 1063.24 L151.251 1063.24 L151.251 1069.11 L146.366 1069.11 L146.366 1063.24 Z" fill="#000000" fill-rule="evenodd" fill-opacity="1" /><path clip-path="url(#clip990)" d="M174.283 1038.63 L162.477 1057.08 L174.283 1057.08 L174.283 1038.63 M173.056 1034.55 L178.936 1034.55 L178.936 1057.08 L183.866 1057.08 L183.866 1060.97 L178.936 1060.97 L178.936 1069.11 L174.283 1069.11 L174.283 1060.97 L158.681 1060.97 L158.681 1056.45 L173.056 1034.55 Z" fill="#000000" fill-rule="evenodd" fill-opacity="1" /><path clip-path="url(#clip990)" d="M190.417 1034.55 L212.639 1034.55 L212.639 1036.55 L200.093 1069.11 L195.209 1069.11 L207.014 1038.49 L190.417 1038.49 L190.417 1034.55 Z" fill="#000000" fill-rule="evenodd" fill-opacity="1" /><path clip-path="url(#clip990)" d="M235.926 1050.48 Q239.283 1051.2 241.158 1053.47 Q243.056 1055.74 243.056 1059.07 Q243.056 1064.18 239.537 1066.99 Q236.019 1069.79 229.537 1069.79 Q227.361 1069.79 225.047 1069.35 Q222.755 1068.93 220.301 1068.07 L220.301 1063.56 Q222.246 1064.69 224.56 1065.27 Q226.875 1065.85 229.398 1065.85 Q233.797 1065.85 236.088 1064.11 Q238.403 1062.38 238.403 1059.07 Q238.403 1056.01 236.25 1054.3 Q234.121 1052.56 230.301 1052.56 L226.273 1052.56 L226.273 1048.72 L230.486 1048.72 Q233.935 1048.72 235.764 1047.36 Q237.593 1045.97 237.593 1043.37 Q237.593 1040.71 235.695 1039.3 Q233.82 1037.86 230.301 1037.86 Q228.38 1037.86 226.181 1038.28 Q223.982 1038.7 221.343 1039.58 L221.343 1035.41 Q224.005 1034.67 226.32 1034.3 Q228.658 1033.93 230.718 1033.93 Q236.042 1033.93 239.144 1036.36 Q242.246 1038.77 242.246 1042.89 Q242.246 1045.76 240.602 1047.75 Q238.959 1049.72 235.926 1050.48 Z" fill="#000000" fill-rule="evenodd" fill-opacity="1" /><path clip-path="url(#clip990)" d="M261.921 1037.63 Q258.31 1037.63 256.482 1041.2 Q254.676 1044.74 254.676 1051.87 Q254.676 1058.98 256.482 1062.54 Q258.31 1066.08 261.921 1066.08 Q265.556 1066.08 267.361 1062.54 Q269.19 1058.98 269.19 1051.87 Q269.19 1044.74 267.361 1041.2 Q265.556 1037.63 261.921 1037.63 M261.921 1033.93 Q267.732 1033.93 270.787 1038.54 Q273.866 1043.12 273.866 1051.87 Q273.866 1060.6 270.787 1065.2 Q267.732 1069.79 261.921 1069.79 Q256.111 1069.79 253.033 1065.2 Q249.977 1060.6 249.977 1051.87 Q249.977 1043.12 253.033 1038.54 Q256.111 1033.93 261.921 1033.93 Z" fill="#000000" fill-rule="evenodd" fill-opacity="1" /><path clip-path="url(#clip990)" d="M127.2 944.797 Q123.589 944.797 121.76 948.362 Q119.955 951.904 119.955 959.033 Q119.955 966.14 121.76 969.704 Q123.589 973.246 127.2 973.246 Q130.834 973.246 132.64 969.704 Q134.468 966.14 134.468 959.033 Q134.468 951.904 132.64 948.362 Q130.834 944.797 127.2 944.797 M127.2 941.094 Q133.01 941.094 136.066 945.7 Q139.144 950.283 139.144 959.033 Q139.144 967.76 136.066 972.366 Q133.01 976.95 127.2 976.95 Q121.39 976.95 118.311 972.366 Q115.256 967.76 115.256 959.033 Q115.256 950.283 118.311 945.7 Q121.39 941.094 127.2 941.094 Z" fill="#000000" fill-rule="evenodd" fill-opacity="1" /><path clip-path="url(#clip990)" d="M147.362 970.399 L152.246 970.399 L152.246 976.279 L147.362 976.279 L147.362 970.399 Z" fill="#000000" fill-rule="evenodd" fill-opacity="1" /><path clip-path="url(#clip990)" d="M175.278 945.793 L163.473 964.242 L175.278 964.242 L175.278 945.793 M174.052 941.719 L179.931 941.719 L179.931 964.242 L184.862 964.242 L184.862 968.13 L179.931 968.13 L179.931 976.279 L175.278 976.279 L175.278 968.13 L159.677 968.13 L159.677 963.617 L174.052 941.719 Z" fill="#000000" fill-rule="evenodd" fill-opacity="1" /><path clip-path="url(#clip990)" d="M191.413 941.719 L213.635 941.719 L213.635 943.709 L201.088 976.279 L196.204 976.279 L208.01 945.654 L191.413 945.654 L191.413 941.719 Z" fill="#000000" fill-rule="evenodd" fill-opacity="1" /><path clip-path="url(#clip990)" d="M236.922 957.644 Q240.278 958.362 242.153 960.63 Q244.051 962.899 244.051 966.232 Q244.051 971.348 240.533 974.149 Q237.014 976.95 230.533 976.95 Q228.357 976.95 226.042 976.51 Q223.75 976.093 221.297 975.237 L221.297 970.723 Q223.241 971.857 225.556 972.436 Q227.871 973.015 230.394 973.015 Q234.792 973.015 237.084 971.279 Q239.398 969.542 239.398 966.232 Q239.398 963.177 237.246 961.464 Q235.116 959.728 231.297 959.728 L227.269 959.728 L227.269 955.885 L231.482 955.885 Q234.931 955.885 236.76 954.519 Q238.588 953.13 238.588 950.538 Q238.588 947.876 236.69 946.464 Q234.815 945.029 231.297 945.029 Q229.375 945.029 227.176 945.445 Q224.977 945.862 222.338 946.742 L222.338 942.575 Q225 941.834 227.315 941.464 Q229.653 941.094 231.713 941.094 Q237.037 941.094 240.139 943.524 Q243.241 945.931 243.241 950.052 Q243.241 952.922 241.597 954.913 Q239.954 956.88 236.922 957.644 Z" fill="#000000" fill-rule="evenodd" fill-opacity="1" /><path clip-path="url(#clip990)" d="M252.963 941.719 L271.32 941.719 L271.32 945.654 L257.246 945.654 L257.246 954.126 Q258.264 953.779 259.283 953.617 Q260.301 953.431 261.32 953.431 Q267.107 953.431 270.486 956.603 Q273.866 959.774 273.866 965.191 Q273.866 970.769 270.394 973.871 Q266.921 976.95 260.602 976.95 Q258.426 976.95 256.158 976.579 Q253.912 976.209 251.505 975.468 L251.505 970.769 Q253.588 971.904 255.81 972.459 Q258.033 973.015 260.509 973.015 Q264.514 973.015 266.852 970.908 Q269.19 968.802 269.19 965.191 Q269.19 961.58 266.852 959.473 Q264.514 957.367 260.509 957.367 Q258.634 957.367 256.759 957.783 Q254.908 958.2 252.963 959.08 L252.963 941.719 Z" fill="#000000" fill-rule="evenodd" fill-opacity="1" /><path clip-path="url(#clip990)" d="M126.205 851.961 Q122.593 851.961 120.765 855.526 Q118.959 859.067 118.959 866.197 Q118.959 873.303 120.765 876.868 Q122.593 880.41 126.205 880.41 Q129.839 880.41 131.644 876.868 Q133.473 873.303 133.473 866.197 Q133.473 859.067 131.644 855.526 Q129.839 851.961 126.205 851.961 M126.205 848.257 Q132.015 848.257 135.07 852.864 Q138.149 857.447 138.149 866.197 Q138.149 874.924 135.07 879.53 Q132.015 884.114 126.205 884.114 Q120.394 884.114 117.316 879.53 Q114.26 874.924 114.26 866.197 Q114.26 857.447 117.316 852.864 Q120.394 848.257 126.205 848.257 Z" fill="#000000" fill-rule="evenodd" fill-opacity="1" /><path clip-path="url(#clip990)" d="M146.366 877.563 L151.251 877.563 L151.251 883.442 L146.366 883.442 L146.366 877.563 Z" fill="#000000" fill-rule="evenodd" fill-opacity="1" /><path clip-path="url(#clip990)" d="M174.283 852.956 L162.477 871.405 L174.283 871.405 L174.283 852.956 M173.056 848.882 L178.936 848.882 L178.936 871.405 L183.866 871.405 L183.866 875.294 L178.936 875.294 L178.936 883.442 L174.283 883.442 L174.283 875.294 L158.681 875.294 L158.681 870.78 L173.056 848.882 Z" fill="#000000" fill-rule="evenodd" fill-opacity="1" /><path clip-path="url(#clip990)" d="M190.417 848.882 L212.639 848.882 L212.639 850.873 L200.093 883.442 L195.209 883.442 L207.014 852.817 L190.417 852.817 L190.417 848.882 Z" fill="#000000" fill-rule="evenodd" fill-opacity="1" /><path clip-path="url(#clip990)" d="M234.607 852.956 L222.801 871.405 L234.607 871.405 L234.607 852.956 M233.38 848.882 L239.259 848.882 L239.259 871.405 L244.19 871.405 L244.19 875.294 L239.259 875.294 L239.259 883.442 L234.607 883.442 L234.607 875.294 L219.005 875.294 L219.005 870.78 L233.38 848.882 Z" fill="#000000" fill-rule="evenodd" fill-opacity="1" /><path clip-path="url(#clip990)" d="M261.921 851.961 Q258.31 851.961 256.482 855.526 Q254.676 859.067 254.676 866.197 Q254.676 873.303 256.482 876.868 Q258.31 880.41 261.921 880.41 Q265.556 880.41 267.361 876.868 Q269.19 873.303 269.19 866.197 Q269.19 859.067 267.361 855.526 Q265.556 851.961 261.921 851.961 M261.921 848.257 Q267.732 848.257 270.787 852.864 Q273.866 857.447 273.866 866.197 Q273.866 874.924 270.787 879.53 Q267.732 884.114 261.921 884.114 Q256.111 884.114 253.033 879.53 Q249.977 874.924 249.977 866.197 Q249.977 857.447 253.033 852.864 Q256.111 848.257 261.921 848.257 Z" fill="#000000" fill-rule="evenodd" fill-opacity="1" /><path clip-path="url(#clip990)" d="M127.2 759.125 Q123.589 759.125 121.76 762.689 Q119.955 766.231 119.955 773.361 Q119.955 780.467 121.76 784.032 Q123.589 787.574 127.2 787.574 Q130.834 787.574 132.64 784.032 Q134.468 780.467 134.468 773.361 Q134.468 766.231 132.64 762.689 Q130.834 759.125 127.2 759.125 M127.2 755.421 Q133.01 755.421 136.066 760.027 Q139.144 764.611 139.144 773.361 Q139.144 782.088 136.066 786.694 Q133.01 791.277 127.2 791.277 Q121.39 791.277 118.311 786.694 Q115.256 782.088 115.256 773.361 Q115.256 764.611 118.311 760.027 Q121.39 755.421 127.2 755.421 Z" fill="#000000" fill-rule="evenodd" fill-opacity="1" /><path clip-path="url(#clip990)" d="M147.362 784.726 L152.246 784.726 L152.246 790.606 L147.362 790.606 L147.362 784.726 Z" fill="#000000" fill-rule="evenodd" fill-opacity="1" /><path clip-path="url(#clip990)" d="M175.278 760.12 L163.473 778.569 L175.278 778.569 L175.278 760.12 M174.052 756.046 L179.931 756.046 L179.931 778.569 L184.862 778.569 L184.862 782.458 L179.931 782.458 L179.931 790.606 L175.278 790.606 L175.278 782.458 L159.677 782.458 L159.677 777.944 L174.052 756.046 Z" fill="#000000" fill-rule="evenodd" fill-opacity="1" /><path clip-path="url(#clip990)" d="M191.413 756.046 L213.635 756.046 L213.635 758.037 L201.088 790.606 L196.204 790.606 L208.01 759.981 L191.413 759.981 L191.413 756.046 Z" fill="#000000" fill-rule="evenodd" fill-opacity="1" /><path clip-path="url(#clip990)" d="M235.602 760.12 L223.797 778.569 L235.602 778.569 L235.602 760.12 M234.375 756.046 L240.255 756.046 L240.255 778.569 L245.185 778.569 L245.185 782.458 L240.255 782.458 L240.255 790.606 L235.602 790.606 L235.602 782.458 L220 782.458 L220 777.944 L234.375 756.046 Z" fill="#000000" fill-rule="evenodd" fill-opacity="1" /><path clip-path="url(#clip990)" d="M252.963 756.046 L271.32 756.046 L271.32 759.981 L257.246 759.981 L257.246 768.453 Q258.264 768.106 259.283 767.944 Q260.301 767.759 261.32 767.759 Q267.107 767.759 270.486 770.93 Q273.866 774.101 273.866 779.518 Q273.866 785.097 270.394 788.199 Q266.921 791.277 260.602 791.277 Q258.426 791.277 256.158 790.907 Q253.912 790.537 251.505 789.796 L251.505 785.097 Q253.588 786.231 255.81 786.787 Q258.033 787.342 260.509 787.342 Q264.514 787.342 266.852 785.236 Q269.19 783.129 269.19 779.518 Q269.19 775.907 266.852 773.801 Q264.514 771.694 260.509 771.694 Q258.634 771.694 256.759 772.111 Q254.908 772.527 252.963 773.407 L252.963 756.046 Z" fill="#000000" fill-rule="evenodd" fill-opacity="1" /><path clip-path="url(#clip990)" d="M126.205 666.288 Q122.593 666.288 120.765 669.853 Q118.959 673.395 118.959 680.524 Q118.959 687.631 120.765 691.196 Q122.593 694.737 126.205 694.737 Q129.839 694.737 131.644 691.196 Q133.473 687.631 133.473 680.524 Q133.473 673.395 131.644 669.853 Q129.839 666.288 126.205 666.288 M126.205 662.585 Q132.015 662.585 135.07 667.191 Q138.149 671.774 138.149 680.524 Q138.149 689.251 135.07 693.858 Q132.015 698.441 126.205 698.441 Q120.394 698.441 117.316 693.858 Q114.26 689.251 114.26 680.524 Q114.26 671.774 117.316 667.191 Q120.394 662.585 126.205 662.585 Z" fill="#000000" fill-rule="evenodd" fill-opacity="1" /><path clip-path="url(#clip990)" d="M146.366 691.89 L151.251 691.89 L151.251 697.77 L146.366 697.77 L146.366 691.89 Z" fill="#000000" fill-rule="evenodd" fill-opacity="1" /><path clip-path="url(#clip990)" d="M174.283 667.284 L162.477 685.733 L174.283 685.733 L174.283 667.284 M173.056 663.21 L178.936 663.21 L178.936 685.733 L183.866 685.733 L183.866 689.622 L178.936 689.622 L178.936 697.77 L174.283 697.77 L174.283 689.622 L158.681 689.622 L158.681 685.108 L173.056 663.21 Z" fill="#000000" fill-rule="evenodd" fill-opacity="1" /><path clip-path="url(#clip990)" d="M190.417 663.21 L212.639 663.21 L212.639 665.2 L200.093 697.77 L195.209 697.77 L207.014 667.145 L190.417 667.145 L190.417 663.21 Z" fill="#000000" fill-rule="evenodd" fill-opacity="1" /><path clip-path="url(#clip990)" d="M221.806 663.21 L240.162 663.21 L240.162 667.145 L226.088 667.145 L226.088 675.617 Q227.107 675.27 228.125 675.108 Q229.144 674.923 230.162 674.923 Q235.949 674.923 239.329 678.094 Q242.709 681.265 242.709 686.682 Q242.709 692.26 239.236 695.362 Q235.764 698.441 229.445 698.441 Q227.269 698.441 225 698.071 Q222.755 697.7 220.348 696.96 L220.348 692.26 Q222.431 693.395 224.653 693.95 Q226.875 694.506 229.352 694.506 Q233.357 694.506 235.695 692.399 Q238.033 690.293 238.033 686.682 Q238.033 683.071 235.695 680.964 Q233.357 678.858 229.352 678.858 Q227.477 678.858 225.602 679.274 Q223.75 679.691 221.806 680.571 L221.806 663.21 Z" fill="#000000" fill-rule="evenodd" fill-opacity="1" /><path clip-path="url(#clip990)" d="M261.921 666.288 Q258.31 666.288 256.482 669.853 Q254.676 673.395 254.676 680.524 Q254.676 687.631 256.482 691.196 Q258.31 694.737 261.921 694.737 Q265.556 694.737 267.361 691.196 Q269.19 687.631 269.19 680.524 Q269.19 673.395 267.361 669.853 Q265.556 666.288 261.921 666.288 M261.921 662.585 Q267.732 662.585 270.787 667.191 Q273.866 671.774 273.866 680.524 Q273.866 689.251 270.787 693.858 Q267.732 698.441 261.921 698.441 Q256.111 698.441 253.033 693.858 Q249.977 689.251 249.977 680.524 Q249.977 671.774 253.033 667.191 Q256.111 662.585 261.921 662.585 Z" fill="#000000" fill-rule="evenodd" fill-opacity="1" /><path clip-path="url(#clip990)" d="M127.2 573.452 Q123.589 573.452 121.76 577.017 Q119.955 580.559 119.955 587.688 Q119.955 594.795 121.76 598.359 Q123.589 601.901 127.2 601.901 Q130.834 601.901 132.64 598.359 Q134.468 594.795 134.468 587.688 Q134.468 580.559 132.64 577.017 Q130.834 573.452 127.2 573.452 M127.2 569.748 Q133.01 569.748 136.066 574.355 Q139.144 578.938 139.144 587.688 Q139.144 596.415 136.066 601.021 Q133.01 605.605 127.2 605.605 Q121.39 605.605 118.311 601.021 Q115.256 596.415 115.256 587.688 Q115.256 578.938 118.311 574.355 Q121.39 569.748 127.2 569.748 Z" fill="#000000" fill-rule="evenodd" fill-opacity="1" /><path clip-path="url(#clip990)" d="M147.362 599.054 L152.246 599.054 L152.246 604.933 L147.362 604.933 L147.362 599.054 Z" fill="#000000" fill-rule="evenodd" fill-opacity="1" /><path clip-path="url(#clip990)" d="M175.278 574.448 L163.473 592.896 L175.278 592.896 L175.278 574.448 M174.052 570.373 L179.931 570.373 L179.931 592.896 L184.862 592.896 L184.862 596.785 L179.931 596.785 L179.931 604.933 L175.278 604.933 L175.278 596.785 L159.677 596.785 L159.677 592.271 L174.052 570.373 Z" fill="#000000" fill-rule="evenodd" fill-opacity="1" /><path clip-path="url(#clip990)" d="M191.413 570.373 L213.635 570.373 L213.635 572.364 L201.088 604.933 L196.204 604.933 L208.01 574.309 L191.413 574.309 L191.413 570.373 Z" fill="#000000" fill-rule="evenodd" fill-opacity="1" /><path clip-path="url(#clip990)" d="M222.801 570.373 L241.158 570.373 L241.158 574.309 L227.084 574.309 L227.084 582.781 Q228.102 582.434 229.121 582.272 Q230.139 582.086 231.158 582.086 Q236.945 582.086 240.324 585.258 Q243.704 588.429 243.704 593.846 Q243.704 599.424 240.232 602.526 Q236.76 605.605 230.44 605.605 Q228.264 605.605 225.996 605.234 Q223.75 604.864 221.343 604.123 L221.343 599.424 Q223.426 600.558 225.648 601.114 Q227.871 601.67 230.347 601.67 Q234.352 601.67 236.69 599.563 Q239.028 597.457 239.028 593.846 Q239.028 590.234 236.69 588.128 Q234.352 586.022 230.347 586.022 Q228.473 586.022 226.598 586.438 Q224.746 586.855 222.801 587.734 L222.801 570.373 Z" fill="#000000" fill-rule="evenodd" fill-opacity="1" /><path clip-path="url(#clip990)" d="M252.963 570.373 L271.32 570.373 L271.32 574.309 L257.246 574.309 L257.246 582.781 Q258.264 582.434 259.283 582.272 Q260.301 582.086 261.32 582.086 Q267.107 582.086 270.486 585.258 Q273.866 588.429 273.866 593.846 Q273.866 599.424 270.394 602.526 Q266.921 605.605 260.602 605.605 Q258.426 605.605 256.158 605.234 Q253.912 604.864 251.505 604.123 L251.505 599.424 Q253.588 600.558 255.81 601.114 Q258.033 601.67 260.509 601.67 Q264.514 601.67 266.852 599.563 Q269.19 597.457 269.19 593.846 Q269.19 590.234 266.852 588.128 Q264.514 586.022 260.509 586.022 Q258.634 586.022 256.759 586.438 Q254.908 586.855 252.963 587.734 L252.963 570.373 Z" fill="#000000" fill-rule="evenodd" fill-opacity="1" /><path clip-path="url(#clip990)" d="M126.205 480.616 Q122.593 480.616 120.765 484.181 Q118.959 487.722 118.959 494.852 Q118.959 501.958 120.765 505.523 Q122.593 509.065 126.205 509.065 Q129.839 509.065 131.644 505.523 Q133.473 501.958 133.473 494.852 Q133.473 487.722 131.644 484.181 Q129.839 480.616 126.205 480.616 M126.205 476.912 Q132.015 476.912 135.07 481.519 Q138.149 486.102 138.149 494.852 Q138.149 503.579 135.07 508.185 Q132.015 512.768 126.205 512.768 Q120.394 512.768 117.316 508.185 Q114.26 503.579 114.26 494.852 Q114.26 486.102 117.316 481.519 Q120.394 476.912 126.205 476.912 Z" fill="#000000" fill-rule="evenodd" fill-opacity="1" /><path clip-path="url(#clip990)" d="M146.366 506.218 L151.251 506.218 L151.251 512.097 L146.366 512.097 L146.366 506.218 Z" fill="#000000" fill-rule="evenodd" fill-opacity="1" /><path clip-path="url(#clip990)" d="M174.283 481.611 L162.477 500.06 L174.283 500.06 L174.283 481.611 M173.056 477.537 L178.936 477.537 L178.936 500.06 L183.866 500.06 L183.866 503.949 L178.936 503.949 L178.936 512.097 L174.283 512.097 L174.283 503.949 L158.681 503.949 L158.681 499.435 L173.056 477.537 Z" fill="#000000" fill-rule="evenodd" fill-opacity="1" /><path clip-path="url(#clip990)" d="M190.417 477.537 L212.639 477.537 L212.639 479.528 L200.093 512.097 L195.209 512.097 L207.014 481.472 L190.417 481.472 L190.417 477.537 Z" fill="#000000" fill-rule="evenodd" fill-opacity="1" /><path clip-path="url(#clip990)" d="M232.338 492.954 Q229.19 492.954 227.338 495.107 Q225.51 497.259 225.51 501.009 Q225.51 504.736 227.338 506.912 Q229.19 509.065 232.338 509.065 Q235.486 509.065 237.315 506.912 Q239.167 504.736 239.167 501.009 Q239.167 497.259 237.315 495.107 Q235.486 492.954 232.338 492.954 M241.621 478.301 L241.621 482.56 Q239.861 481.727 238.056 481.287 Q236.273 480.847 234.514 480.847 Q229.885 480.847 227.431 483.972 Q225 487.097 224.653 493.417 Q226.019 491.403 228.079 490.338 Q230.139 489.25 232.616 489.25 Q237.824 489.25 240.834 492.421 Q243.866 495.569 243.866 501.009 Q243.866 506.333 240.718 509.551 Q237.57 512.768 232.338 512.768 Q226.343 512.768 223.172 508.185 Q220 503.579 220 494.852 Q220 486.658 223.889 481.796 Q227.778 476.912 234.329 476.912 Q236.088 476.912 237.871 477.259 Q239.676 477.607 241.621 478.301 Z" fill="#000000" fill-rule="evenodd" fill-opacity="1" /><path clip-path="url(#clip990)" d="M261.921 480.616 Q258.31 480.616 256.482 484.181 Q254.676 487.722 254.676 494.852 Q254.676 501.958 256.482 505.523 Q258.31 509.065 261.921 509.065 Q265.556 509.065 267.361 505.523 Q269.19 501.958 269.19 494.852 Q269.19 487.722 267.361 484.181 Q265.556 480.616 261.921 480.616 M261.921 476.912 Q267.732 476.912 270.787 481.519 Q273.866 486.102 273.866 494.852 Q273.866 503.579 270.787 508.185 Q267.732 512.768 261.921 512.768 Q256.111 512.768 253.033 508.185 Q249.977 503.579 249.977 494.852 Q249.977 486.102 253.033 481.519 Q256.111 476.912 261.921 476.912 Z" fill="#000000" fill-rule="evenodd" fill-opacity="1" /><path clip-path="url(#clip990)" d="M127.2 387.78 Q123.589 387.78 121.76 391.344 Q119.955 394.886 119.955 402.016 Q119.955 409.122 121.76 412.687 Q123.589 416.229 127.2 416.229 Q130.834 416.229 132.64 412.687 Q134.468 409.122 134.468 402.016 Q134.468 394.886 132.64 391.344 Q130.834 387.78 127.2 387.78 M127.2 384.076 Q133.01 384.076 136.066 388.682 Q139.144 393.266 139.144 402.016 Q139.144 410.742 136.066 415.349 Q133.01 419.932 127.2 419.932 Q121.39 419.932 118.311 415.349 Q115.256 410.742 115.256 402.016 Q115.256 393.266 118.311 388.682 Q121.39 384.076 127.2 384.076 Z" fill="#000000" fill-rule="evenodd" fill-opacity="1" /><path clip-path="url(#clip990)" d="M147.362 413.381 L152.246 413.381 L152.246 419.261 L147.362 419.261 L147.362 413.381 Z" fill="#000000" fill-rule="evenodd" fill-opacity="1" /><path clip-path="url(#clip990)" d="M175.278 388.775 L163.473 407.224 L175.278 407.224 L175.278 388.775 M174.052 384.701 L179.931 384.701 L179.931 407.224 L184.862 407.224 L184.862 411.113 L179.931 411.113 L179.931 419.261 L175.278 419.261 L175.278 411.113 L159.677 411.113 L159.677 406.599 L174.052 384.701 Z" fill="#000000" fill-rule="evenodd" fill-opacity="1" /><path clip-path="url(#clip990)" d="M191.413 384.701 L213.635 384.701 L213.635 386.692 L201.088 419.261 L196.204 419.261 L208.01 388.636 L191.413 388.636 L191.413 384.701 Z" fill="#000000" fill-rule="evenodd" fill-opacity="1" /><path clip-path="url(#clip990)" d="M233.334 400.118 Q230.185 400.118 228.334 402.27 Q226.505 404.423 226.505 408.173 Q226.505 411.9 228.334 414.076 Q230.185 416.229 233.334 416.229 Q236.482 416.229 238.31 414.076 Q240.162 411.9 240.162 408.173 Q240.162 404.423 238.31 402.27 Q236.482 400.118 233.334 400.118 M242.616 385.465 L242.616 389.724 Q240.857 388.891 239.051 388.451 Q237.269 388.011 235.51 388.011 Q230.88 388.011 228.426 391.136 Q225.996 394.261 225.648 400.58 Q227.014 398.567 229.074 397.502 Q231.135 396.414 233.611 396.414 Q238.82 396.414 241.829 399.585 Q244.861 402.733 244.861 408.173 Q244.861 413.497 241.713 416.715 Q238.565 419.932 233.334 419.932 Q227.338 419.932 224.167 415.349 Q220.996 410.742 220.996 402.016 Q220.996 393.821 224.885 388.96 Q228.773 384.076 235.324 384.076 Q237.084 384.076 238.866 384.423 Q240.672 384.77 242.616 385.465 Z" fill="#000000" fill-rule="evenodd" fill-opacity="1" /><path clip-path="url(#clip990)" d="M252.963 384.701 L271.32 384.701 L271.32 388.636 L257.246 388.636 L257.246 397.108 Q258.264 396.761 259.283 396.599 Q260.301 396.414 261.32 396.414 Q267.107 396.414 270.486 399.585 Q273.866 402.756 273.866 408.173 Q273.866 413.752 270.394 416.854 Q266.921 419.932 260.602 419.932 Q258.426 419.932 256.158 419.562 Q253.912 419.191 251.505 418.451 L251.505 413.752 Q253.588 414.886 255.81 415.441 Q258.033 415.997 260.509 415.997 Q264.514 415.997 266.852 413.891 Q269.19 411.784 269.19 408.173 Q269.19 404.562 266.852 402.455 Q264.514 400.349 260.509 400.349 Q258.634 400.349 256.759 400.766 Q254.908 401.182 252.963 402.062 L252.963 384.701 Z" fill="#000000" fill-rule="evenodd" fill-opacity="1" /><path clip-path="url(#clip990)" d="M126.205 294.943 Q122.593 294.943 120.765 298.508 Q118.959 302.05 118.959 309.179 Q118.959 316.286 120.765 319.851 Q122.593 323.392 126.205 323.392 Q129.839 323.392 131.644 319.851 Q133.473 316.286 133.473 309.179 Q133.473 302.05 131.644 298.508 Q129.839 294.943 126.205 294.943 M126.205 291.24 Q132.015 291.24 135.07 295.846 Q138.149 300.429 138.149 309.179 Q138.149 317.906 135.07 322.513 Q132.015 327.096 126.205 327.096 Q120.394 327.096 117.316 322.513 Q114.26 317.906 114.26 309.179 Q114.26 300.429 117.316 295.846 Q120.394 291.24 126.205 291.24 Z" fill="#000000" fill-rule="evenodd" fill-opacity="1" /><path clip-path="url(#clip990)" d="M146.366 320.545 L151.251 320.545 L151.251 326.425 L146.366 326.425 L146.366 320.545 Z" fill="#000000" fill-rule="evenodd" fill-opacity="1" /><path clip-path="url(#clip990)" d="M174.283 295.939 L162.477 314.388 L174.283 314.388 L174.283 295.939 M173.056 291.865 L178.936 291.865 L178.936 314.388 L183.866 314.388 L183.866 318.277 L178.936 318.277 L178.936 326.425 L174.283 326.425 L174.283 318.277 L158.681 318.277 L158.681 313.763 L173.056 291.865 Z" fill="#000000" fill-rule="evenodd" fill-opacity="1" /><path clip-path="url(#clip990)" d="M190.417 291.865 L212.639 291.865 L212.639 293.855 L200.093 326.425 L195.209 326.425 L207.014 295.8 L190.417 295.8 L190.417 291.865 Z" fill="#000000" fill-rule="evenodd" fill-opacity="1" /><path clip-path="url(#clip990)" d="M220.579 291.865 L242.801 291.865 L242.801 293.855 L230.255 326.425 L225.371 326.425 L237.176 295.8 L220.579 295.8 L220.579 291.865 Z" fill="#000000" fill-rule="evenodd" fill-opacity="1" /><path clip-path="url(#clip990)" d="M261.921 294.943 Q258.31 294.943 256.482 298.508 Q254.676 302.05 254.676 309.179 Q254.676 316.286 256.482 319.851 Q258.31 323.392 261.921 323.392 Q265.556 323.392 267.361 319.851 Q269.19 316.286 269.19 309.179 Q269.19 302.05 267.361 298.508 Q265.556 294.943 261.921 294.943 M261.921 291.24 Q267.732 291.24 270.787 295.846 Q273.866 300.429 273.866 309.179 Q273.866 317.906 270.787 322.513 Q267.732 327.096 261.921 327.096 Q256.111 327.096 253.033 322.513 Q249.977 317.906 249.977 309.179 Q249.977 300.429 253.033 295.846 Q256.111 291.24 261.921 291.24 Z" fill="#000000" fill-rule="evenodd" fill-opacity="1" /><path clip-path="url(#clip990)" d="M127.2 202.107 Q123.589 202.107 121.76 205.672 Q119.955 209.214 119.955 216.343 Q119.955 223.45 121.76 227.014 Q123.589 230.556 127.2 230.556 Q130.834 230.556 132.64 227.014 Q134.468 223.45 134.468 216.343 Q134.468 209.214 132.64 205.672 Q130.834 202.107 127.2 202.107 M127.2 198.403 Q133.01 198.403 136.066 203.01 Q139.144 207.593 139.144 216.343 Q139.144 225.07 136.066 229.676 Q133.01 234.26 127.2 234.26 Q121.39 234.26 118.311 229.676 Q115.256 225.07 115.256 216.343 Q115.256 207.593 118.311 203.01 Q121.39 198.403 127.2 198.403 Z" fill="#000000" fill-rule="evenodd" fill-opacity="1" /><path clip-path="url(#clip990)" d="M147.362 227.709 L152.246 227.709 L152.246 233.588 L147.362 233.588 L147.362 227.709 Z" fill="#000000" fill-rule="evenodd" fill-opacity="1" /><path clip-path="url(#clip990)" d="M175.278 203.102 L163.473 221.551 L175.278 221.551 L175.278 203.102 M174.052 199.028 L179.931 199.028 L179.931 221.551 L184.862 221.551 L184.862 225.44 L179.931 225.44 L179.931 233.588 L175.278 233.588 L175.278 225.44 L159.677 225.44 L159.677 220.926 L174.052 199.028 Z" fill="#000000" fill-rule="evenodd" fill-opacity="1" /><path clip-path="url(#clip990)" d="M191.413 199.028 L213.635 199.028 L213.635 201.019 L201.088 233.588 L196.204 233.588 L208.01 202.964 L191.413 202.964 L191.413 199.028 Z" fill="#000000" fill-rule="evenodd" fill-opacity="1" /><path clip-path="url(#clip990)" d="M221.574 199.028 L243.797 199.028 L243.797 201.019 L231.25 233.588 L226.366 233.588 L238.172 202.964 L221.574 202.964 L221.574 199.028 Z" fill="#000000" fill-rule="evenodd" fill-opacity="1" /><path clip-path="url(#clip990)" d="M252.963 199.028 L271.32 199.028 L271.32 202.964 L257.246 202.964 L257.246 211.436 Q258.264 211.089 259.283 210.926 Q260.301 210.741 261.32 210.741 Q267.107 210.741 270.486 213.913 Q273.866 217.084 273.866 222.5 Q273.866 228.079 270.394 231.181 Q266.921 234.26 260.602 234.26 Q258.426 234.26 256.158 233.889 Q253.912 233.519 251.505 232.778 L251.505 228.079 Q253.588 229.213 255.81 229.769 Q258.033 230.325 260.509 230.325 Q264.514 230.325 266.852 228.218 Q269.19 226.112 269.19 222.5 Q269.19 218.889 266.852 216.783 Q264.514 214.676 260.509 214.676 Q258.634 214.676 256.759 215.093 Q254.908 215.51 252.963 216.389 L252.963 199.028 Z" fill="#000000" fill-rule="evenodd" fill-opacity="1" /><path clip-path="url(#clip990)" d="M126.205 109.271 Q122.593 109.271 120.765 112.836 Q118.959 116.377 118.959 123.507 Q118.959 130.613 120.765 134.178 Q122.593 137.72 126.205 137.72 Q129.839 137.72 131.644 134.178 Q133.473 130.613 133.473 123.507 Q133.473 116.377 131.644 112.836 Q129.839 109.271 126.205 109.271 M126.205 105.567 Q132.015 105.567 135.07 110.174 Q138.149 114.757 138.149 123.507 Q138.149 132.234 135.07 136.84 Q132.015 141.423 126.205 141.423 Q120.394 141.423 117.316 136.84 Q114.26 132.234 114.26 123.507 Q114.26 114.757 117.316 110.174 Q120.394 105.567 126.205 105.567 Z" fill="#000000" fill-rule="evenodd" fill-opacity="1" /><path clip-path="url(#clip990)" d="M146.366 134.873 L151.251 134.873 L151.251 140.752 L146.366 140.752 L146.366 134.873 Z" fill="#000000" fill-rule="evenodd" fill-opacity="1" /><path clip-path="url(#clip990)" d="M174.283 110.266 L162.477 128.715 L174.283 128.715 L174.283 110.266 M173.056 106.192 L178.936 106.192 L178.936 128.715 L183.866 128.715 L183.866 132.604 L178.936 132.604 L178.936 140.752 L174.283 140.752 L174.283 132.604 L158.681 132.604 L158.681 128.09 L173.056 106.192 Z" fill="#000000" fill-rule="evenodd" fill-opacity="1" /><path clip-path="url(#clip990)" d="M190.417 106.192 L212.639 106.192 L212.639 108.183 L200.093 140.752 L195.209 140.752 L207.014 110.127 L190.417 110.127 L190.417 106.192 Z" fill="#000000" fill-rule="evenodd" fill-opacity="1" /><path clip-path="url(#clip990)" d="M231.76 124.34 Q228.426 124.34 226.505 126.123 Q224.607 127.905 224.607 131.03 Q224.607 134.155 226.505 135.937 Q228.426 137.72 231.76 137.72 Q235.093 137.72 237.014 135.937 Q238.935 134.132 238.935 131.03 Q238.935 127.905 237.014 126.123 Q235.116 124.34 231.76 124.34 M227.084 122.349 Q224.074 121.609 222.385 119.549 Q220.718 117.488 220.718 114.525 Q220.718 110.382 223.658 107.975 Q226.621 105.567 231.76 105.567 Q236.922 105.567 239.861 107.975 Q242.801 110.382 242.801 114.525 Q242.801 117.488 241.111 119.549 Q239.445 121.609 236.459 122.349 Q239.838 123.136 241.713 125.428 Q243.611 127.72 243.611 131.03 Q243.611 136.053 240.533 138.738 Q237.477 141.423 231.76 141.423 Q226.042 141.423 222.963 138.738 Q219.908 136.053 219.908 131.03 Q219.908 127.72 221.806 125.428 Q223.704 123.136 227.084 122.349 M225.371 114.965 Q225.371 117.65 227.037 119.155 Q228.727 120.66 231.76 120.66 Q234.769 120.66 236.459 119.155 Q238.172 117.65 238.172 114.965 Q238.172 112.28 236.459 110.775 Q234.769 109.271 231.76 109.271 Q228.727 109.271 227.037 110.775 Q225.371 112.28 225.371 114.965 Z" fill="#000000" fill-rule="evenodd" fill-opacity="1" /><path clip-path="url(#clip990)" d="M261.921 109.271 Q258.31 109.271 256.482 112.836 Q254.676 116.377 254.676 123.507 Q254.676 130.613 256.482 134.178 Q258.31 137.72 261.921 137.72 Q265.556 137.72 267.361 134.178 Q269.19 130.613 269.19 123.507 Q269.19 116.377 267.361 112.836 Q265.556 109.271 261.921 109.271 M261.921 105.567 Q267.732 105.567 270.787 110.174 Q273.866 114.757 273.866 123.507 Q273.866 132.234 270.787 136.84 Q267.732 141.423 261.921 141.423 Q256.111 141.423 253.033 136.84 Q249.977 132.234 249.977 123.507 Q249.977 114.757 253.033 110.174 Q256.111 105.567 261.921 105.567 Z" fill="#000000" fill-rule="evenodd" fill-opacity="1" /><path clip-path="url(#clip990)" d="M16.4842 987.834 L16.4842 981.405 L64.0042 981.405 L64.0042 987.834 L16.4842 987.834 Z" fill="#000000" fill-rule="evenodd" fill-opacity="1" /><path clip-path="url(#clip990)" d="M42.4881 939.232 L64.0042 939.232 L64.0042 945.089 L42.679 945.089 Q37.6183 945.089 35.1038 947.062 Q32.5894 949.035 32.5894 952.982 Q32.5894 957.725 35.6131 960.462 Q38.6368 963.199 43.8567 963.199 L64.0042 963.199 L64.0042 969.087 L28.3562 969.087 L28.3562 963.199 L33.8944 963.199 Q30.6797 961.098 29.0883 958.266 Q27.4968 955.401 27.4968 951.677 Q27.4968 945.534 31.3163 942.383 Q35.1038 939.232 42.4881 939.232 Z" fill="#000000" fill-rule="evenodd" fill-opacity="1" /><path clip-path="url(#clip990)" d="M42.4881 897.919 L64.0042 897.919 L64.0042 903.775 L42.679 903.775 Q37.6183 903.775 35.1038 905.749 Q32.5894 907.722 32.5894 911.669 Q32.5894 916.411 35.6131 919.148 Q38.6368 921.886 43.8567 921.886 L64.0042 921.886 L64.0042 927.774 L28.3562 927.774 L28.3562 921.886 L33.8944 921.886 Q30.6797 919.785 29.0883 916.952 Q27.4968 914.088 27.4968 910.364 Q27.4968 904.221 31.3163 901.07 Q35.1038 897.919 42.4881 897.919 Z" fill="#000000" fill-rule="evenodd" fill-opacity="1" /><path clip-path="url(#clip990)" d="M44.7161 855.746 L47.5806 855.746 L47.5806 882.673 Q53.6281 882.291 56.8109 879.044 Q59.9619 875.766 59.9619 869.941 Q59.9619 866.568 59.1344 863.417 Q58.3069 860.234 56.6518 857.115 L62.1899 857.115 Q63.5267 860.266 64.227 863.576 Q64.9272 866.886 64.9272 870.292 Q64.9272 878.822 59.9619 883.819 Q54.9967 888.784 46.5303 888.784 Q37.7774 888.784 32.6531 884.073 Q27.4968 879.331 27.4968 871.31 Q27.4968 864.117 32.1438 859.947 Q36.7589 855.746 44.7161 855.746 M42.9973 861.602 Q38.1912 861.666 35.3266 864.308 Q32.4621 866.918 32.4621 871.246 Q32.4621 876.148 35.2312 879.108 Q38.0002 882.036 43.0292 882.482 L42.9973 861.602 Z" fill="#000000" fill-rule="evenodd" fill-opacity="1" /><path clip-path="url(#clip990)" d="M33.8307 825.477 Q33.2578 826.464 33.0032 827.641 Q32.7167 828.787 32.7167 830.188 Q32.7167 835.153 35.9632 837.827 Q39.1779 840.468 45.2253 840.468 L64.0042 840.468 L64.0042 846.357 L28.3562 846.357 L28.3562 840.468 L33.8944 840.468 Q30.6479 838.622 29.0883 835.662 Q27.4968 832.702 27.4968 828.469 Q27.4968 827.864 27.5923 827.132 Q27.656 826.4 27.8151 825.509 L33.8307 825.477 Z" fill="#000000" fill-rule="evenodd" fill-opacity="1" /><path clip-path="url(#clip990)" d="M21.7677 791.93 L39.6235 791.93 L39.6235 783.845 Q39.6235 779.357 37.3 776.907 Q34.9765 774.456 30.6797 774.456 Q26.4147 774.456 24.0912 776.907 Q21.7677 779.357 21.7677 783.845 L21.7677 791.93 M16.4842 798.359 L16.4842 783.845 Q16.4842 775.856 20.1126 771.782 Q23.7092 767.676 30.6797 767.676 Q37.7138 767.676 41.3104 771.782 Q44.907 775.856 44.907 783.845 L44.907 791.93 L64.0042 791.93 L64.0042 798.359 L16.4842 798.359 Z" fill="#000000" fill-rule="evenodd" fill-opacity="1" /><path clip-path="url(#clip990)" d="M33.8307 739.795 Q33.2578 740.781 33.0032 741.959 Q32.7167 743.105 32.7167 744.505 Q32.7167 749.47 35.9632 752.144 Q39.1779 754.786 45.2253 754.786 L64.0042 754.786 L64.0042 760.674 L28.3562 760.674 L28.3562 754.786 L33.8944 754.786 Q30.6479 752.94 29.0883 749.98 Q27.4968 747.02 27.4968 742.787 Q27.4968 742.182 27.5923 741.45 Q27.656 740.718 27.8151 739.826 L33.8307 739.795 Z" fill="#000000" fill-rule="evenodd" fill-opacity="1" /><path clip-path="url(#clip990)" d="M32.4621 721.27 Q32.4621 725.981 36.1542 728.718 Q39.8145 731.456 46.212 731.456 Q52.6095 731.456 56.3017 728.75 Q59.9619 726.013 59.9619 721.27 Q59.9619 716.592 56.2698 713.854 Q52.5777 711.117 46.212 711.117 Q39.8781 711.117 36.186 713.854 Q32.4621 716.592 32.4621 721.27 M27.4968 721.27 Q27.4968 713.632 32.4621 709.271 Q37.4273 704.911 46.212 704.911 Q54.9649 704.911 59.9619 709.271 Q64.9272 713.632 64.9272 721.27 Q64.9272 728.941 59.9619 733.302 Q54.9649 737.63 46.212 737.63 Q37.4273 737.63 32.4621 733.302 Q27.4968 728.941 27.4968 721.27 Z" fill="#000000" fill-rule="evenodd" fill-opacity="1" /><path clip-path="url(#clip990)" d="M33.7671 671.745 L14.479 671.745 L14.479 665.889 L64.0042 665.889 L64.0042 671.745 L58.657 671.745 Q61.8398 673.591 63.3994 676.424 Q64.9272 679.225 64.9272 683.172 Q64.9272 689.633 59.771 693.707 Q54.6147 697.749 46.212 697.749 Q37.8093 697.749 32.6531 693.707 Q27.4968 689.633 27.4968 683.172 Q27.4968 679.225 29.0564 676.424 Q30.5842 673.591 33.7671 671.745 M46.212 691.702 Q52.6732 691.702 56.3653 689.06 Q60.0256 686.386 60.0256 681.739 Q60.0256 677.092 56.3653 674.419 Q52.6732 671.745 46.212 671.745 Q39.7508 671.745 36.0905 674.419 Q32.3984 677.092 32.3984 681.739 Q32.3984 686.386 36.0905 689.06 Q39.7508 691.702 46.212 691.702 Z" fill="#000000" fill-rule="evenodd" fill-opacity="1" /><path clip-path="url(#clip990)" d="M49.9359 654.43 L28.3562 654.43 L28.3562 648.574 L49.7131 648.574 Q54.7739 648.574 57.3202 646.601 Q59.8346 644.627 59.8346 640.681 Q59.8346 635.938 56.8109 633.201 Q53.7872 630.432 48.5673 630.432 L28.3562 630.432 L28.3562 624.575 L64.0042 624.575 L64.0042 630.432 L58.5296 630.432 Q61.7762 632.564 63.3676 635.397 Q64.9272 638.198 64.9272 641.922 Q64.9272 648.065 61.1078 651.248 Q57.2883 654.43 49.9359 654.43 M27.4968 639.694 L27.4968 639.694 Z" fill="#000000" fill-rule="evenodd" fill-opacity="1" /><path clip-path="url(#clip990)" d="M29.7248 586.859 L35.1993 586.859 Q33.8307 589.341 33.1623 591.856 Q32.4621 594.338 32.4621 596.885 Q32.4621 602.582 36.0905 605.733 Q39.6872 608.884 46.212 608.884 Q52.7369 608.884 56.3653 605.733 Q59.9619 602.582 59.9619 596.885 Q59.9619 594.338 59.2935 591.856 Q58.5933 589.341 57.2247 586.859 L62.6355 586.859 Q63.7814 589.309 64.3543 591.951 Q64.9272 594.561 64.9272 597.521 Q64.9272 605.574 59.8664 610.316 Q54.8057 615.059 46.212 615.059 Q37.491 615.059 32.4939 610.284 Q27.4968 605.478 27.4968 597.139 Q27.4968 594.434 28.0697 591.856 Q28.6108 589.277 29.7248 586.859 Z" fill="#000000" fill-rule="evenodd" fill-opacity="1" /><path clip-path="url(#clip990)" d="M18.2347 570.881 L28.3562 570.881 L28.3562 558.818 L32.9077 558.818 L32.9077 570.881 L52.2594 570.881 Q56.6199 570.881 57.8613 569.703 Q59.1026 568.493 59.1026 564.833 L59.1026 558.818 L64.0042 558.818 L64.0042 564.833 Q64.0042 571.613 61.4897 574.191 Q58.9434 576.769 52.2594 576.769 L32.9077 576.769 L32.9077 581.066 L28.3562 581.066 L28.3562 576.769 L18.2347 576.769 L18.2347 570.881 Z" fill="#000000" fill-rule="evenodd" fill-opacity="1" /><path clip-path="url(#clip990)" d="M1200.89 17.6457 Q1191.98 17.6457 1186.71 24.2892 Q1181.49 30.9327 1181.49 42.3968 Q1181.49 53.8203 1186.71 60.4638 Q1191.98 67.1073 1200.89 67.1073 Q1209.8 67.1073 1214.99 60.4638 Q1220.21 53.8203 1220.21 42.3968 Q1220.21 30.9327 1214.99 24.2892 Q1209.8 17.6457 1200.89 17.6457 M1200.89 11.0023 Q1213.61 11.0023 1221.23 19.5497 Q1228.84 28.0566 1228.84 42.3968 Q1228.84 56.6965 1221.23 65.2439 Q1213.61 73.7508 1200.89 73.7508 Q1188.13 73.7508 1180.48 65.2439 Q1172.86 56.737 1172.86 42.3968 Q1172.86 28.0566 1180.48 19.5497 Q1188.13 11.0023 1200.89 11.0023 Z" fill="#000000" fill-rule="evenodd" fill-opacity="1" /><path clip-path="url(#clip990)" d="M1235.97 27.2059 L1243.87 27.2059 L1258.05 65.2844 L1272.23 27.2059 L1280.13 27.2059 L1263.11 72.576 L1252.99 72.576 L1235.97 27.2059 Z" fill="#000000" fill-rule="evenodd" fill-opacity="1" /><path clip-path="url(#clip990)" d="M1329.22 48.0275 L1329.22 51.6733 L1294.95 51.6733 Q1295.44 59.3701 1299.57 63.421 Q1303.74 67.4314 1311.16 67.4314 Q1315.45 67.4314 1319.46 66.3781 Q1323.51 65.3249 1327.48 63.2184 L1327.48 70.267 Q1323.47 71.9684 1319.26 72.8596 Q1315.05 73.7508 1310.71 73.7508 Q1299.86 73.7508 1293.5 67.4314 Q1287.18 61.1119 1287.18 50.3365 Q1287.18 39.1965 1293.17 32.6746 Q1299.21 26.1121 1309.42 26.1121 Q1318.57 26.1121 1323.88 32.0264 Q1329.22 37.9003 1329.22 48.0275 M1321.77 45.84 Q1321.69 39.7232 1318.33 36.0774 Q1315.01 32.4315 1309.5 32.4315 Q1303.26 32.4315 1299.49 35.9558 Q1295.76 39.4801 1295.2 45.8805 L1321.77 45.84 Z" fill="#000000" fill-rule="evenodd" fill-opacity="1" /><path clip-path="url(#clip990)" d="M1367.75 34.1734 Q1366.49 33.4443 1364.99 33.1202 Q1363.54 32.7556 1361.75 32.7556 Q1355.43 32.7556 1352.03 36.8875 Q1348.67 40.9789 1348.67 48.6757 L1348.67 72.576 L1341.17 72.576 L1341.17 27.2059 L1348.67 27.2059 L1348.67 34.2544 Q1351.02 30.1225 1354.79 28.1376 Q1358.55 26.1121 1363.94 26.1121 Q1364.71 26.1121 1365.64 26.2337 Q1366.57 26.3147 1367.71 26.5172 L1367.75 34.1734 Z" fill="#000000" fill-rule="evenodd" fill-opacity="1" /><path clip-path="url(#clip990)" d="M1375.57 9.54393 L1383.02 9.54393 L1383.02 72.576 L1375.57 72.576 L1375.57 9.54393 Z" fill="#000000" fill-rule="evenodd" fill-opacity="1" /><path clip-path="url(#clip990)" d="M1419.24 49.7694 Q1410.2 49.7694 1406.72 51.8354 Q1403.23 53.9013 1403.23 58.8839 Q1403.23 62.8538 1405.83 65.2034 Q1408.46 67.5124 1412.96 67.5124 Q1419.15 67.5124 1422.88 63.1374 Q1426.65 58.7219 1426.65 51.4303 L1426.65 49.7694 L1419.24 49.7694 M1434.1 46.6907 L1434.1 72.576 L1426.65 72.576 L1426.65 65.6895 Q1424.1 69.8214 1420.29 71.8063 Q1416.48 73.7508 1410.97 73.7508 Q1404 73.7508 1399.87 69.8619 Q1395.78 65.9325 1395.78 59.3701 Q1395.78 51.7138 1400.89 47.825 Q1406.03 43.9361 1416.2 43.9361 L1426.65 43.9361 L1426.65 43.2069 Q1426.65 38.0623 1423.25 35.2672 Q1419.88 32.4315 1413.77 32.4315 Q1409.88 32.4315 1406.19 33.3632 Q1402.51 34.295 1399.1 36.1584 L1399.1 29.2718 Q1403.19 27.692 1407.04 26.9223 Q1410.89 26.1121 1414.54 26.1121 Q1424.38 26.1121 1429.24 31.2163 Q1434.1 36.3204 1434.1 46.6907 Z" fill="#000000" fill-rule="evenodd" fill-opacity="1" /><path clip-path="url(#clip990)" d="M1456.67 65.7705 L1456.67 89.8329 L1449.17 89.8329 L1449.17 27.2059 L1456.67 27.2059 L1456.67 34.0924 Q1459.02 30.0415 1462.58 28.0971 Q1466.19 26.1121 1471.17 26.1121 Q1479.43 26.1121 1484.58 32.6746 Q1489.76 39.2371 1489.76 49.9314 Q1489.76 60.6258 1484.58 67.1883 Q1479.43 73.7508 1471.17 73.7508 Q1466.19 73.7508 1462.58 71.8063 Q1459.02 69.8214 1456.67 65.7705 M1482.02 49.9314 Q1482.02 41.7081 1478.62 37.0496 Q1475.26 32.3505 1469.35 32.3505 Q1463.43 32.3505 1460.03 37.0496 Q1456.67 41.7081 1456.67 49.9314 Q1456.67 58.1548 1460.03 62.8538 Q1463.43 67.5124 1469.35 67.5124 Q1475.26 67.5124 1478.62 62.8538 Q1482.02 58.1548 1482.02 49.9314 Z" fill="#000000" fill-rule="evenodd" fill-opacity="1" /><polyline clip-path="url(#clip992)" style="stroke:#000000; stroke-linecap:round; stroke-linejoin:round; stroke-width:4; stroke-opacity:1; fill:none" points="
  377.962,303.096 377.962,303.085 
  "/>
<polyline clip-path="url(#clip992)" style="stroke:#000000; stroke-linecap:round; stroke-linejoin:round; stroke-width:4; stroke-opacity:1; fill:none" points="
  446.058,1246.63 446.058,1246.6 
  "/>
<polyline clip-path="url(#clip992)" style="stroke:#000000; stroke-linecap:round; stroke-linejoin:round; stroke-width:4; stroke-opacity:1; fill:none" points="
  514.155,653.052 514.155,653.035 
  "/>
<polyline clip-path="url(#clip992)" style="stroke:#000000; stroke-linecap:round; stroke-linejoin:round; stroke-width:4; stroke-opacity:1; fill:none" points="
  582.251,1053.94 582.251,1053.86 
  "/>
<polyline clip-path="url(#clip992)" style="stroke:#000000; stroke-linecap:round; stroke-linejoin:round; stroke-width:4; stroke-opacity:1; fill:none" points="
  650.347,675.398 650.347,675.356 
  "/>
<polyline clip-path="url(#clip992)" style="stroke:#000000; stroke-linecap:round; stroke-linejoin:round; stroke-width:4; stroke-opacity:1; fill:none" points="
  718.444,1022.01 718.444,1021.92 
  "/>
<polyline clip-path="url(#clip992)" style="stroke:#000000; stroke-linecap:round; stroke-linejoin:round; stroke-width:4; stroke-opacity:1; fill:none" points="
  786.54,675.425 786.54,675.346 
  "/>
<polyline clip-path="url(#clip992)" style="stroke:#000000; stroke-linecap:round; stroke-linejoin:round; stroke-width:4; stroke-opacity:1; fill:none" points="
  854.636,1016.32 854.636,1016.21 
  "/>
<polyline clip-path="url(#clip992)" style="stroke:#000000; stroke-linecap:round; stroke-linejoin:round; stroke-width:4; stroke-opacity:1; fill:none" points="
  922.733,674.957 922.733,674.869 
  "/>
<polyline clip-path="url(#clip992)" style="stroke:#000000; stroke-linecap:round; stroke-linejoin:round; stroke-width:4; stroke-opacity:1; fill:none" points="
  990.829,1015.32 990.829,1015.11 
  "/>
<polyline clip-path="url(#clip992)" style="stroke:#000000; stroke-linecap:round; stroke-linejoin:round; stroke-width:4; stroke-opacity:1; fill:none" points="
  1058.93,674.828 1058.93,674.69 
  "/>
<polyline clip-path="url(#clip992)" style="stroke:#000000; stroke-linecap:round; stroke-linejoin:round; stroke-width:4; stroke-opacity:1; fill:none" points="
  1127.02,1015.15 1127.02,1014.88 
  "/>
<polyline clip-path="url(#clip992)" style="stroke:#000000; stroke-linecap:round; stroke-linejoin:round; stroke-width:4; stroke-opacity:1; fill:none" points="
  1195.12,674.856 1195.12,674.583 
  "/>
<polyline clip-path="url(#clip992)" style="stroke:#000000; stroke-linecap:round; stroke-linejoin:round; stroke-width:4; stroke-opacity:1; fill:none" points="
  1263.21,1015 1263.21,1014.95 
  "/>
<polyline clip-path="url(#clip992)" style="stroke:#000000; stroke-linecap:round; stroke-linejoin:round; stroke-width:4; stroke-opacity:1; fill:none" points="
  1331.31,674.804 1331.31,674.617 
  "/>
<polyline clip-path="url(#clip992)" style="stroke:#000000; stroke-linecap:round; stroke-linejoin:round; stroke-width:4; stroke-opacity:1; fill:none" points="
  1399.41,1015.23 1399.41,1014.7 
  "/>
<polyline clip-path="url(#clip992)" style="stroke:#000000; stroke-linecap:round; stroke-linejoin:round; stroke-width:4; stroke-opacity:1; fill:none" points="
  1467.5,674.886 1467.5,674.532 
  "/>
<polyline clip-path="url(#clip992)" style="stroke:#000000; stroke-linecap:round; stroke-linejoin:round; stroke-width:4; stroke-opacity:1; fill:none" points="
  1535.6,1015.12 1535.6,1014.78 
  "/>
<polyline clip-path="url(#clip992)" style="stroke:#000000; stroke-linecap:round; stroke-linejoin:round; stroke-width:4; stroke-opacity:1; fill:none" points="
  1603.7,674.881 1603.7,674.535 
  "/>
<polyline clip-path="url(#clip992)" style="stroke:#000000; stroke-linecap:round; stroke-linejoin:round; stroke-width:4; stroke-opacity:1; fill:none" points="
  1671.79,1015.37 1671.79,1014.56 
  "/>
<polyline clip-path="url(#clip992)" style="stroke:#000000; stroke-linecap:round; stroke-linejoin:round; stroke-width:4; stroke-opacity:1; fill:none" points="
  1739.89,675.073 1739.89,674.343 
  "/>
<polyline clip-path="url(#clip992)" style="stroke:#000000; stroke-linecap:round; stroke-linejoin:round; stroke-width:4; stroke-opacity:1; fill:none" points="
  1807.99,1015.93 1807.99,1013.99 
  "/>
<polyline clip-path="url(#clip992)" style="stroke:#000000; stroke-linecap:round; stroke-linejoin:round; stroke-width:4; stroke-opacity:1; fill:none" points="
  1876.08,675.172 1876.08,674.242 
  "/>
<polyline clip-path="url(#clip992)" style="stroke:#000000; stroke-linecap:round; stroke-linejoin:round; stroke-width:4; stroke-opacity:1; fill:none" points="
  1944.18,1017.27 1944.18,1012.65 
  "/>
<polyline clip-path="url(#clip992)" style="stroke:#000000; stroke-linecap:round; stroke-linejoin:round; stroke-width:4; stroke-opacity:1; fill:none" points="
  2012.27,675.4 2012.27,674.063 
  "/>
<polyline clip-path="url(#clip992)" style="stroke:#000000; stroke-linecap:round; stroke-linejoin:round; stroke-width:4; stroke-opacity:1; fill:none" points="
  2080.37,1015.58 2080.37,1014.32 
  "/>
<polyline clip-path="url(#clip992)" style="stroke:#000000; stroke-linecap:round; stroke-linejoin:round; stroke-width:4; stroke-opacity:1; fill:none" points="
  2148.47,677.342 2148.47,672.076 
  "/>
<line clip-path="url(#clip992)" x1="385.962" y1="303.096" x2="369.962" y2="303.096" style="stroke:#000000; stroke-width:3.2; stroke-opacity:1"/>
<line clip-path="url(#clip992)" x1="385.962" y1="303.085" x2="369.962" y2="303.085" style="stroke:#000000; stroke-width:3.2; stroke-opacity:1"/>
<line clip-path="url(#clip992)" x1="454.058" y1="1246.63" x2="438.058" y2="1246.63" style="stroke:#000000; stroke-width:3.2; stroke-opacity:1"/>
<line clip-path="url(#clip992)" x1="454.058" y1="1246.6" x2="438.058" y2="1246.6" style="stroke:#000000; stroke-width:3.2; stroke-opacity:1"/>
<line clip-path="url(#clip992)" x1="522.155" y1="653.052" x2="506.155" y2="653.052" style="stroke:#000000; stroke-width:3.2; stroke-opacity:1"/>
<line clip-path="url(#clip992)" x1="522.155" y1="653.035" x2="506.155" y2="653.035" style="stroke:#000000; stroke-width:3.2; stroke-opacity:1"/>
<line clip-path="url(#clip992)" x1="590.251" y1="1053.94" x2="574.251" y2="1053.94" style="stroke:#000000; stroke-width:3.2; stroke-opacity:1"/>
<line clip-path="url(#clip992)" x1="590.251" y1="1053.86" x2="574.251" y2="1053.86" style="stroke:#000000; stroke-width:3.2; stroke-opacity:1"/>
<line clip-path="url(#clip992)" x1="658.347" y1="675.398" x2="642.347" y2="675.398" style="stroke:#000000; stroke-width:3.2; stroke-opacity:1"/>
<line clip-path="url(#clip992)" x1="658.347" y1="675.356" x2="642.347" y2="675.356" style="stroke:#000000; stroke-width:3.2; stroke-opacity:1"/>
<line clip-path="url(#clip992)" x1="726.444" y1="1022.01" x2="710.444" y2="1022.01" style="stroke:#000000; stroke-width:3.2; stroke-opacity:1"/>
<line clip-path="url(#clip992)" x1="726.444" y1="1021.92" x2="710.444" y2="1021.92" style="stroke:#000000; stroke-width:3.2; stroke-opacity:1"/>
<line clip-path="url(#clip992)" x1="794.54" y1="675.425" x2="778.54" y2="675.425" style="stroke:#000000; stroke-width:3.2; stroke-opacity:1"/>
<line clip-path="url(#clip992)" x1="794.54" y1="675.346" x2="778.54" y2="675.346" style="stroke:#000000; stroke-width:3.2; stroke-opacity:1"/>
<line clip-path="url(#clip992)" x1="862.636" y1="1016.32" x2="846.636" y2="1016.32" style="stroke:#000000; stroke-width:3.2; stroke-opacity:1"/>
<line clip-path="url(#clip992)" x1="862.636" y1="1016.21" x2="846.636" y2="1016.21" style="stroke:#000000; stroke-width:3.2; stroke-opacity:1"/>
<line clip-path="url(#clip992)" x1="930.733" y1="674.957" x2="914.733" y2="674.957" style="stroke:#000000; stroke-width:3.2; stroke-opacity:1"/>
<line clip-path="url(#clip992)" x1="930.733" y1="674.869" x2="914.733" y2="674.869" style="stroke:#000000; stroke-width:3.2; stroke-opacity:1"/>
<line clip-path="url(#clip992)" x1="998.829" y1="1015.32" x2="982.829" y2="1015.32" style="stroke:#000000; stroke-width:3.2; stroke-opacity:1"/>
<line clip-path="url(#clip992)" x1="998.829" y1="1015.11" x2="982.829" y2="1015.11" style="stroke:#000000; stroke-width:3.2; stroke-opacity:1"/>
<line clip-path="url(#clip992)" x1="1066.93" y1="674.828" x2="1050.93" y2="674.828" style="stroke:#000000; stroke-width:3.2; stroke-opacity:1"/>
<line clip-path="url(#clip992)" x1="1066.93" y1="674.69" x2="1050.93" y2="674.69" style="stroke:#000000; stroke-width:3.2; stroke-opacity:1"/>
<line clip-path="url(#clip992)" x1="1135.02" y1="1015.15" x2="1119.02" y2="1015.15" style="stroke:#000000; stroke-width:3.2; stroke-opacity:1"/>
<line clip-path="url(#clip992)" x1="1135.02" y1="1014.88" x2="1119.02" y2="1014.88" style="stroke:#000000; stroke-width:3.2; stroke-opacity:1"/>
<line clip-path="url(#clip992)" x1="1203.12" y1="674.856" x2="1187.12" y2="674.856" style="stroke:#000000; stroke-width:3.2; stroke-opacity:1"/>
<line clip-path="url(#clip992)" x1="1203.12" y1="674.583" x2="1187.12" y2="674.583" style="stroke:#000000; stroke-width:3.2; stroke-opacity:1"/>
<line clip-path="url(#clip992)" x1="1271.21" y1="1015" x2="1255.21" y2="1015" style="stroke:#000000; stroke-width:3.2; stroke-opacity:1"/>
<line clip-path="url(#clip992)" x1="1271.21" y1="1014.95" x2="1255.21" y2="1014.95" style="stroke:#000000; stroke-width:3.2; stroke-opacity:1"/>
<line clip-path="url(#clip992)" x1="1339.31" y1="674.804" x2="1323.31" y2="674.804" style="stroke:#000000; stroke-width:3.2; stroke-opacity:1"/>
<line clip-path="url(#clip992)" x1="1339.31" y1="674.617" x2="1323.31" y2="674.617" style="stroke:#000000; stroke-width:3.2; stroke-opacity:1"/>
<line clip-path="url(#clip992)" x1="1407.41" y1="1015.23" x2="1391.41" y2="1015.23" style="stroke:#000000; stroke-width:3.2; stroke-opacity:1"/>
<line clip-path="url(#clip992)" x1="1407.41" y1="1014.7" x2="1391.41" y2="1014.7" style="stroke:#000000; stroke-width:3.2; stroke-opacity:1"/>
<line clip-path="url(#clip992)" x1="1475.5" y1="674.886" x2="1459.5" y2="674.886" style="stroke:#000000; stroke-width:3.2; stroke-opacity:1"/>
<line clip-path="url(#clip992)" x1="1475.5" y1="674.532" x2="1459.5" y2="674.532" style="stroke:#000000; stroke-width:3.2; stroke-opacity:1"/>
<line clip-path="url(#clip992)" x1="1543.6" y1="1015.12" x2="1527.6" y2="1015.12" style="stroke:#000000; stroke-width:3.2; stroke-opacity:1"/>
<line clip-path="url(#clip992)" x1="1543.6" y1="1014.78" x2="1527.6" y2="1014.78" style="stroke:#000000; stroke-width:3.2; stroke-opacity:1"/>
<line clip-path="url(#clip992)" x1="1611.7" y1="674.881" x2="1595.7" y2="674.881" style="stroke:#000000; stroke-width:3.2; stroke-opacity:1"/>
<line clip-path="url(#clip992)" x1="1611.7" y1="674.535" x2="1595.7" y2="674.535" style="stroke:#000000; stroke-width:3.2; stroke-opacity:1"/>
<line clip-path="url(#clip992)" x1="1679.79" y1="1015.37" x2="1663.79" y2="1015.37" style="stroke:#000000; stroke-width:3.2; stroke-opacity:1"/>
<line clip-path="url(#clip992)" x1="1679.79" y1="1014.56" x2="1663.79" y2="1014.56" style="stroke:#000000; stroke-width:3.2; stroke-opacity:1"/>
<line clip-path="url(#clip992)" x1="1747.89" y1="675.073" x2="1731.89" y2="675.073" style="stroke:#000000; stroke-width:3.2; stroke-opacity:1"/>
<line clip-path="url(#clip992)" x1="1747.89" y1="674.343" x2="1731.89" y2="674.343" style="stroke:#000000; stroke-width:3.2; stroke-opacity:1"/>
<line clip-path="url(#clip992)" x1="1815.99" y1="1015.93" x2="1799.99" y2="1015.93" style="stroke:#000000; stroke-width:3.2; stroke-opacity:1"/>
<line clip-path="url(#clip992)" x1="1815.99" y1="1013.99" x2="1799.99" y2="1013.99" style="stroke:#000000; stroke-width:3.2; stroke-opacity:1"/>
<line clip-path="url(#clip992)" x1="1884.08" y1="675.172" x2="1868.08" y2="675.172" style="stroke:#000000; stroke-width:3.2; stroke-opacity:1"/>
<line clip-path="url(#clip992)" x1="1884.08" y1="674.242" x2="1868.08" y2="674.242" style="stroke:#000000; stroke-width:3.2; stroke-opacity:1"/>
<line clip-path="url(#clip992)" x1="1952.18" y1="1017.27" x2="1936.18" y2="1017.27" style="stroke:#000000; stroke-width:3.2; stroke-opacity:1"/>
<line clip-path="url(#clip992)" x1="1952.18" y1="1012.65" x2="1936.18" y2="1012.65" style="stroke:#000000; stroke-width:3.2; stroke-opacity:1"/>
<line clip-path="url(#clip992)" x1="2020.27" y1="675.4" x2="2004.27" y2="675.4" style="stroke:#000000; stroke-width:3.2; stroke-opacity:1"/>
<line clip-path="url(#clip992)" x1="2020.27" y1="674.063" x2="2004.27" y2="674.063" style="stroke:#000000; stroke-width:3.2; stroke-opacity:1"/>
<line clip-path="url(#clip992)" x1="2088.37" y1="1015.58" x2="2072.37" y2="1015.58" style="stroke:#000000; stroke-width:3.2; stroke-opacity:1"/>
<line clip-path="url(#clip992)" x1="2088.37" y1="1014.32" x2="2072.37" y2="1014.32" style="stroke:#000000; stroke-width:3.2; stroke-opacity:1"/>
<line clip-path="url(#clip992)" x1="2156.47" y1="677.342" x2="2140.47" y2="677.342" style="stroke:#000000; stroke-width:3.2; stroke-opacity:1"/>
<line clip-path="url(#clip992)" x1="2156.47" y1="672.076" x2="2140.47" y2="672.076" style="stroke:#000000; stroke-width:3.2; stroke-opacity:1"/>
<circle clip-path="url(#clip992)" cx="377.962" cy="303.091" r="7.2" fill="#009af9" fill-rule="evenodd" fill-opacity="1" stroke="#000000" stroke-opacity="1" stroke-width="3.2"/>
<circle clip-path="url(#clip992)" cx="446.058" cy="1246.62" r="7.2" fill="#009af9" fill-rule="evenodd" fill-opacity="1" stroke="#000000" stroke-opacity="1" stroke-width="3.2"/>
<circle clip-path="url(#clip992)" cx="514.155" cy="653.043" r="7.2" fill="#009af9" fill-rule="evenodd" fill-opacity="1" stroke="#000000" stroke-opacity="1" stroke-width="3.2"/>
<circle clip-path="url(#clip992)" cx="582.251" cy="1053.9" r="7.2" fill="#009af9" fill-rule="evenodd" fill-opacity="1" stroke="#000000" stroke-opacity="1" stroke-width="3.2"/>
<circle clip-path="url(#clip992)" cx="650.347" cy="675.377" r="7.2" fill="#009af9" fill-rule="evenodd" fill-opacity="1" stroke="#000000" stroke-opacity="1" stroke-width="3.2"/>
<circle clip-path="url(#clip992)" cx="718.444" cy="1021.96" r="7.2" fill="#009af9" fill-rule="evenodd" fill-opacity="1" stroke="#000000" stroke-opacity="1" stroke-width="3.2"/>
<circle clip-path="url(#clip992)" cx="786.54" cy="675.386" r="7.2" fill="#009af9" fill-rule="evenodd" fill-opacity="1" stroke="#000000" stroke-opacity="1" stroke-width="3.2"/>
<circle clip-path="url(#clip992)" cx="854.636" cy="1016.27" r="7.2" fill="#009af9" fill-rule="evenodd" fill-opacity="1" stroke="#000000" stroke-opacity="1" stroke-width="3.2"/>
<circle clip-path="url(#clip992)" cx="922.733" cy="674.913" r="7.2" fill="#009af9" fill-rule="evenodd" fill-opacity="1" stroke="#000000" stroke-opacity="1" stroke-width="3.2"/>
<circle clip-path="url(#clip992)" cx="990.829" cy="1015.21" r="7.2" fill="#009af9" fill-rule="evenodd" fill-opacity="1" stroke="#000000" stroke-opacity="1" stroke-width="3.2"/>
<circle clip-path="url(#clip992)" cx="1058.93" cy="674.759" r="7.2" fill="#009af9" fill-rule="evenodd" fill-opacity="1" stroke="#000000" stroke-opacity="1" stroke-width="3.2"/>
<circle clip-path="url(#clip992)" cx="1127.02" cy="1015.01" r="7.2" fill="#009af9" fill-rule="evenodd" fill-opacity="1" stroke="#000000" stroke-opacity="1" stroke-width="3.2"/>
<circle clip-path="url(#clip992)" cx="1195.12" cy="674.72" r="7.2" fill="#009af9" fill-rule="evenodd" fill-opacity="1" stroke="#000000" stroke-opacity="1" stroke-width="3.2"/>
<circle clip-path="url(#clip992)" cx="1263.21" cy="1014.97" r="7.2" fill="#009af9" fill-rule="evenodd" fill-opacity="1" stroke="#000000" stroke-opacity="1" stroke-width="3.2"/>
<circle clip-path="url(#clip992)" cx="1331.31" cy="674.711" r="7.2" fill="#009af9" fill-rule="evenodd" fill-opacity="1" stroke="#000000" stroke-opacity="1" stroke-width="3.2"/>
<circle clip-path="url(#clip992)" cx="1399.41" cy="1014.97" r="7.2" fill="#009af9" fill-rule="evenodd" fill-opacity="1" stroke="#000000" stroke-opacity="1" stroke-width="3.2"/>
<circle clip-path="url(#clip992)" cx="1467.5" cy="674.709" r="7.2" fill="#009af9" fill-rule="evenodd" fill-opacity="1" stroke="#000000" stroke-opacity="1" stroke-width="3.2"/>
<circle clip-path="url(#clip992)" cx="1535.6" cy="1014.95" r="7.2" fill="#009af9" fill-rule="evenodd" fill-opacity="1" stroke="#000000" stroke-opacity="1" stroke-width="3.2"/>
<circle clip-path="url(#clip992)" cx="1603.7" cy="674.708" r="7.2" fill="#009af9" fill-rule="evenodd" fill-opacity="1" stroke="#000000" stroke-opacity="1" stroke-width="3.2"/>
<circle clip-path="url(#clip992)" cx="1671.79" cy="1014.96" r="7.2" fill="#009af9" fill-rule="evenodd" fill-opacity="1" stroke="#000000" stroke-opacity="1" stroke-width="3.2"/>
<circle clip-path="url(#clip992)" cx="1739.89" cy="674.708" r="7.2" fill="#009af9" fill-rule="evenodd" fill-opacity="1" stroke="#000000" stroke-opacity="1" stroke-width="3.2"/>
<circle clip-path="url(#clip992)" cx="1807.99" cy="1014.96" r="7.2" fill="#009af9" fill-rule="evenodd" fill-opacity="1" stroke="#000000" stroke-opacity="1" stroke-width="3.2"/>
<circle clip-path="url(#clip992)" cx="1876.08" cy="674.707" r="7.2" fill="#009af9" fill-rule="evenodd" fill-opacity="1" stroke="#000000" stroke-opacity="1" stroke-width="3.2"/>
<circle clip-path="url(#clip992)" cx="1944.18" cy="1014.96" r="7.2" fill="#009af9" fill-rule="evenodd" fill-opacity="1" stroke="#000000" stroke-opacity="1" stroke-width="3.2"/>
<circle clip-path="url(#clip992)" cx="2012.27" cy="674.731" r="7.2" fill="#009af9" fill-rule="evenodd" fill-opacity="1" stroke="#000000" stroke-opacity="1" stroke-width="3.2"/>
<circle clip-path="url(#clip992)" cx="2080.37" cy="1014.95" r="7.2" fill="#009af9" fill-rule="evenodd" fill-opacity="1" stroke="#000000" stroke-opacity="1" stroke-width="3.2"/>
<circle clip-path="url(#clip992)" cx="2148.47" cy="674.709" r="7.2" fill="#009af9" fill-rule="evenodd" fill-opacity="1" stroke="#000000" stroke-opacity="1" stroke-width="3.2"/>
<path clip-path="url(#clip990)" d="
M1721.6 270.476 L2284.66 270.476 L2284.66 166.796 L1721.6 166.796  Z
  " fill="#ffffff" fill-rule="evenodd" fill-opacity="1"/>
<polyline clip-path="url(#clip990)" style="stroke:#000000; stroke-linecap:round; stroke-linejoin:round; stroke-width:4; stroke-opacity:1; fill:none" points="
  1721.6,270.476 2284.66,270.476 2284.66,166.796 1721.6,166.796 1721.6,270.476 
  "/>
<circle clip-path="url(#clip990)" cx="1812.39" cy="218.636" r="23.04" fill="#009af9" fill-rule="evenodd" fill-opacity="1" stroke="#000000" stroke-opacity="1" stroke-width="10.24"/>
<path clip-path="url(#clip990)" d="M1923.54 214.967 Q1925.13 212.096 1927.36 210.731 Q1929.58 209.365 1932.59 209.365 Q1936.64 209.365 1938.84 212.212 Q1941.04 215.036 1941.04 220.268 L1941.04 235.916 L1936.75 235.916 L1936.75 220.407 Q1936.75 216.68 1935.43 214.874 Q1934.12 213.069 1931.41 213.069 Q1928.1 213.069 1926.18 215.268 Q1924.25 217.467 1924.25 221.263 L1924.25 235.916 L1919.97 235.916 L1919.97 220.407 Q1919.97 216.657 1918.65 214.874 Q1917.33 213.069 1914.58 213.069 Q1911.31 213.069 1909.39 215.291 Q1907.47 217.49 1907.47 221.263 L1907.47 235.916 L1903.19 235.916 L1903.19 209.99 L1907.47 209.99 L1907.47 214.018 Q1908.93 211.633 1910.97 210.499 Q1913 209.365 1915.81 209.365 Q1918.63 209.365 1920.6 210.8 Q1922.59 212.235 1923.54 214.967 Z" fill="#000000" fill-rule="evenodd" fill-opacity="1" /><path clip-path="url(#clip990)" d="M1958.26 220.245 Q1957.1 218.254 1954.76 218.254 Q1952.43 218.254 1951.27 220.245 Q1950.09 222.235 1950.09 226.217 Q1950.09 230.221 1951.27 232.212 Q1952.43 234.203 1954.76 234.203 Q1957.1 234.203 1958.26 232.212 Q1959.44 230.221 1959.44 226.217 Q1959.44 222.235 1958.26 220.245 M1954.76 216.194 Q1958.49 216.194 1960.46 218.763 Q1962.43 221.332 1962.43 226.217 Q1962.43 231.124 1960.46 233.694 Q1958.49 236.263 1954.76 236.263 Q1951.01 236.263 1949.05 233.694 Q1947.08 231.124 1947.08 226.217 Q1947.08 221.332 1949.05 218.763 Q1951.01 216.194 1954.76 216.194 Z" fill="#000000" fill-rule="evenodd" fill-opacity="1" /><path clip-path="url(#clip990)" d="M1969.09 214.388 L1998.77 214.388 L1998.77 218.277 L1969.09 218.277 L1969.09 214.388 M1969.09 223.832 L1998.77 223.832 L1998.77 227.768 L1969.09 227.768 L1969.09 223.832 Z" fill="#000000" fill-rule="evenodd" fill-opacity="1" /><path clip-path="url(#clip990)" d="M2018.86 204.434 Q2015.25 204.434 2013.42 207.999 Q2011.61 211.541 2011.61 218.67 Q2011.61 225.777 2013.42 229.342 Q2015.25 232.883 2018.86 232.883 Q2022.49 232.883 2024.3 229.342 Q2026.13 225.777 2026.13 218.67 Q2026.13 211.541 2024.3 207.999 Q2022.49 204.434 2018.86 204.434 M2018.86 200.731 Q2024.67 200.731 2027.73 205.337 Q2030.8 209.92 2030.8 218.67 Q2030.8 227.397 2027.73 232.004 Q2024.67 236.587 2018.86 236.587 Q2013.05 236.587 2009.97 232.004 Q2006.92 227.397 2006.92 218.67 Q2006.92 209.92 2009.97 205.337 Q2013.05 200.731 2018.86 200.731 Z" fill="#000000" fill-rule="evenodd" fill-opacity="1" /><path clip-path="url(#clip990)" d="M2039.02 230.036 L2043.91 230.036 L2043.91 235.916 L2039.02 235.916 L2039.02 230.036 Z" fill="#000000" fill-rule="evenodd" fill-opacity="1" /><path clip-path="url(#clip990)" d="M2064.09 219.504 Q2060.76 219.504 2058.84 221.286 Q2056.94 223.069 2056.94 226.194 Q2056.94 229.319 2058.84 231.101 Q2060.76 232.883 2064.09 232.883 Q2067.42 232.883 2069.35 231.101 Q2071.27 229.295 2071.27 226.194 Q2071.27 223.069 2069.35 221.286 Q2067.45 219.504 2064.09 219.504 M2059.42 217.513 Q2056.41 216.772 2054.72 214.712 Q2053.05 212.652 2053.05 209.689 Q2053.05 205.546 2055.99 203.138 Q2058.95 200.731 2064.09 200.731 Q2069.25 200.731 2072.19 203.138 Q2075.13 205.546 2075.13 209.689 Q2075.13 212.652 2073.44 214.712 Q2071.78 216.772 2068.79 217.513 Q2072.17 218.3 2074.05 220.592 Q2075.94 222.883 2075.94 226.194 Q2075.94 231.217 2072.86 233.902 Q2069.81 236.587 2064.09 236.587 Q2058.37 236.587 2055.3 233.902 Q2052.24 231.217 2052.24 226.194 Q2052.24 222.883 2054.14 220.592 Q2056.04 218.3 2059.42 217.513 M2057.7 210.129 Q2057.7 212.814 2059.37 214.319 Q2061.06 215.823 2064.09 215.823 Q2067.1 215.823 2068.79 214.319 Q2070.5 212.814 2070.5 210.129 Q2070.5 207.444 2068.79 205.939 Q2067.1 204.434 2064.09 204.434 Q2061.06 204.434 2059.37 205.939 Q2057.7 207.444 2057.7 210.129 Z" fill="#000000" fill-rule="evenodd" fill-opacity="1" /><path clip-path="url(#clip990)" d="M2084.74 230.036 L2089.62 230.036 L2089.62 234.018 L2085.83 241.425 L2082.84 241.425 L2084.74 234.018 L2084.74 230.036 Z" fill="#000000" fill-rule="evenodd" fill-opacity="1" /><path clip-path="url(#clip990)" d="M2122.47 230.985 L2122.47 221.703 L2114.83 221.703 L2114.83 217.86 L2127.1 217.86 L2127.1 232.698 Q2124.39 234.619 2121.13 235.615 Q2117.86 236.587 2114.16 236.587 Q2106.06 236.587 2101.48 231.865 Q2096.92 227.119 2096.92 218.67 Q2096.92 210.198 2101.48 205.476 Q2106.06 200.731 2114.16 200.731 Q2117.54 200.731 2120.57 201.564 Q2123.63 202.397 2126.2 204.018 L2126.2 208.995 Q2123.61 206.796 2120.69 205.684 Q2117.77 204.573 2114.55 204.573 Q2108.21 204.573 2105.02 208.115 Q2101.85 211.657 2101.85 218.67 Q2101.85 225.661 2105.02 229.203 Q2108.21 232.744 2114.55 232.744 Q2117.03 232.744 2118.98 232.328 Q2120.92 231.888 2122.47 230.985 Z" fill="#000000" fill-rule="evenodd" fill-opacity="1" /><path clip-path="url(#clip990)" d="M2137.19 217.814 L2147.01 217.814 L2147.01 220.453 L2133.17 220.453 L2133.17 217.907 Q2133.95 217.189 2135.41 215.893 Q2143.37 208.833 2143.37 206.657 Q2143.37 205.129 2142.17 204.203 Q2140.97 203.254 2139 203.254 Q2137.79 203.254 2136.38 203.671 Q2134.97 204.064 2133.3 204.874 L2133.3 202.027 Q2135.09 201.379 2136.61 201.055 Q2138.17 200.731 2139.48 200.731 Q2142.84 200.731 2144.85 202.258 Q2146.87 203.786 2146.87 206.286 Q2146.87 209.504 2139.21 216.078 Q2137.91 217.189 2137.19 217.814 Z" fill="#000000" fill-rule="evenodd" fill-opacity="1" /><path clip-path="url(#clip990)" d="M2155.02 214.388 L2184.69 214.388 L2184.69 218.277 L2155.02 218.277 L2155.02 214.388 M2155.02 223.832 L2184.69 223.832 L2184.69 227.768 L2155.02 227.768 L2155.02 223.832 Z" fill="#000000" fill-rule="evenodd" fill-opacity="1" /><path clip-path="url(#clip990)" d="M2195.6 231.981 L2203.23 231.981 L2203.23 205.615 L2194.92 207.282 L2194.92 203.022 L2203.19 201.356 L2207.86 201.356 L2207.86 231.981 L2215.5 231.981 L2215.5 235.916 L2195.6 235.916 L2195.6 231.981 Z" fill="#000000" fill-rule="evenodd" fill-opacity="1" /><path clip-path="url(#clip990)" d="M2224.95 230.036 L2229.83 230.036 L2229.83 235.916 L2224.95 235.916 L2224.95 230.036 Z" fill="#000000" fill-rule="evenodd" fill-opacity="1" /><path clip-path="url(#clip990)" d="M2250.02 204.434 Q2246.41 204.434 2244.58 207.999 Q2242.77 211.541 2242.77 218.67 Q2242.77 225.777 2244.58 229.342 Q2246.41 232.883 2250.02 232.883 Q2253.65 232.883 2255.46 229.342 Q2257.28 225.777 2257.28 218.67 Q2257.28 211.541 2255.46 207.999 Q2253.65 204.434 2250.02 204.434 M2250.02 200.731 Q2255.83 200.731 2258.88 205.337 Q2261.96 209.92 2261.96 218.67 Q2261.96 227.397 2258.88 232.004 Q2255.83 236.587 2250.02 236.587 Q2244.21 236.587 2241.13 232.004 Q2238.07 227.397 2238.07 218.67 Q2238.07 209.92 2241.13 205.337 Q2244.21 200.731 2250.02 200.731 Z" fill="#000000" fill-rule="evenodd" fill-opacity="1" /></svg>
