<?xml version="1.0" encoding="utf-8"?>
<svg xmlns="http://www.w3.org/2000/svg" xmlns:xlink="http://www.w3.org/1999/xlink" width="600" height="400" viewBox="0 0 2400 1600">
<defs>
  <clipPath id="clip230">
    <rect x="0" y="0" width="2400" height="1600"/>
  </clipPath>
</defs>
<path clip-path="url(#clip230)" d="
M0 1600 L2400 1600 L2400 0 L0 0  Z
  " fill="#ffffff" fill-rule="evenodd" fill-opacity="1"/>
<defs>
  <clipPath id="clip231">
    <rect x="480" y="0" width="1681" height="1600"/>
  </clipPath>
</defs>
<path clip-path="url(#clip230)" d="
M218.732 1423.18 L2352.76 1423.18 L2352.76 123.472 L218.732 123.472  Z
  " fill="#ffffff" fill-rule="evenodd" fill-opacity="1"/>
<defs>
  <clipPath id="clip232">
    <rect x="218" y="123" width="2135" height="1301"/>
  </clipPath>
</defs>
<polyline clip-path="url(#clip232)" style="stroke:#000000; stroke-linecap:round; stroke-linejoin:round; stroke-width:2; stroke-opacity:0.1; fill:none" points="
  260.169,1423.18 260.169,123.472 
  "/>
<polyline clip-path="url(#clip232)" style="stroke:#000000; stroke-linecap:round; stroke-linejoin:round; stroke-width:2; stroke-opacity:0.1; fill:none" points="
  467.356,1423.18 467.356,123.472 
  "/>
<polyline clip-path="url(#clip232)" style="stroke:#000000; stroke-linecap:round; stroke-linejoin:round; stroke-width:2; stroke-opacity:0.1; fill:none" points="
  674.543,1423.18 674.543,123.472 
  "/>
<polyline clip-path="url(#clip232)" style="stroke:#000000; stroke-linecap:round; stroke-linejoin:round; stroke-width:2; stroke-opacity:0.1; fill:none" points="
  881.73,1423.18 881.73,123.472 
  "/>
<polyline clip-path="url(#clip232)" style="stroke:#000000; stroke-linecap:round; stroke-linejoin:round; stroke-width:2; stroke-opacity:0.1; fill:none" points="
  1088.92,1423.18 1088.92,123.472 
  "/>
<polyline clip-path="url(#clip232)" style="stroke:#000000; stroke-linecap:round; stroke-linejoin:round; stroke-width:2; stroke-opacity:0.1; fill:none" points="
  1296.1,1423.18 1296.1,123.472 
  "/>
<polyline clip-path="url(#clip232)" style="stroke:#000000; stroke-linecap:round; stroke-linejoin:round; stroke-width:2; stroke-opacity:0.1; fill:none" points="
  1503.29,1423.18 1503.29,123.472 
  "/>
<polyline clip-path="url(#clip232)" style="stroke:#000000; stroke-linecap:round; stroke-linejoin:round; stroke-width:2; stroke-opacity:0.1; fill:none" points="
  1710.48,1423.18 1710.48,123.472 
  "/>
<polyline clip-path="url(#clip232)" style="stroke:#000000; stroke-linecap:round; stroke-linejoin:round; stroke-width:2; stroke-opacity:0.1; fill:none" points="
  1917.66,1423.18 1917.66,123.472 
  "/>
<polyline clip-path="url(#clip232)" style="stroke:#000000; stroke-linecap:round; stroke-linejoin:round; stroke-width:2; stroke-opacity:0.1; fill:none" points="
  2124.85,1423.18 2124.85,123.472 
  "/>
<polyline clip-path="url(#clip232)" style="stroke:#000000; stroke-linecap:round; stroke-linejoin:round; stroke-width:2; stroke-opacity:0.1; fill:none" points="
  2332.04,1423.18 2332.04,123.472 
  "/>
<polyline clip-path="url(#clip230)" style="stroke:#000000; stroke-linecap:round; stroke-linejoin:round; stroke-width:4; stroke-opacity:1; fill:none" points="
  218.732,1423.18 2352.76,1423.18 
  "/>
<polyline clip-path="url(#clip230)" style="stroke:#000000; stroke-linecap:round; stroke-linejoin:round; stroke-width:4; stroke-opacity:1; fill:none" points="
  260.169,1423.18 260.169,1404.28 
  "/>
<polyline clip-path="url(#clip230)" style="stroke:#000000; stroke-linecap:round; stroke-linejoin:round; stroke-width:4; stroke-opacity:1; fill:none" points="
  467.356,1423.18 467.356,1404.28 
  "/>
<polyline clip-path="url(#clip230)" style="stroke:#000000; stroke-linecap:round; stroke-linejoin:round; stroke-width:4; stroke-opacity:1; fill:none" points="
  674.543,1423.18 674.543,1404.28 
  "/>
<polyline clip-path="url(#clip230)" style="stroke:#000000; stroke-linecap:round; stroke-linejoin:round; stroke-width:4; stroke-opacity:1; fill:none" points="
  881.73,1423.18 881.73,1404.28 
  "/>
<polyline clip-path="url(#clip230)" style="stroke:#000000; stroke-linecap:round; stroke-linejoin:round; stroke-width:4; stroke-opacity:1; fill:none" points="
  1088.92,1423.18 1088.92,1404.28 
  "/>
<polyline clip-path="url(#clip230)" style="stroke:#000000; stroke-linecap:round; stroke-linejoin:round; stroke-width:4; stroke-opacity:1; fill:none" points="
  1296.1,1423.18 1296.1,1404.28 
  "/>
<polyline clip-path="url(#clip230)" style="stroke:#000000; stroke-linecap:round; stroke-linejoin:round; stroke-width:4; stroke-opacity:1; fill:none" points="
  1503.29,1423.18 1503.29,1404.28 
  "/>
<polyline clip-path="url(#clip230)" style="stroke:#000000; stroke-linecap:round; stroke-linejoin:round; stroke-width:4; stroke-opacity:1; fill:none" points="
  1710.48,1423.18 1710.48,1404.28 
  "/>
<polyline clip-path="url(#clip230)" style="stroke:#000000; stroke-linecap:round; stroke-linejoin:round; stroke-width:4; stroke-opacity:1; fill:none" points="
  1917.66,1423.18 1917.66,1404.28 
  "/>
<polyline clip-path="url(#clip230)" style="stroke:#000000; stroke-linecap:round; stroke-linejoin:round; stroke-width:4; stroke-opacity:1; fill:none" points="
  2124.85,1423.18 2124.85,1404.28 
  "/>
<polyline clip-path="url(#clip230)" style="stroke:#000000; stroke-linecap:round; stroke-linejoin:round; stroke-width:4; stroke-opacity:1; fill:none" points="
  2332.04,1423.18 2332.04,1404.28 
  "/>
<path clip-path="url(#clip230)" d="M250.551 1481.64 L258.19 1481.64 L258.19 1455.28 L249.88 1456.95 L249.88 1452.69 L258.144 1451.02 L262.82 1451.02 L262.82 1481.64 L270.459 1481.64 L270.459 1485.58 L250.551 1485.58 L250.551 1481.64 Z" fill="#000000" fill-rule="evenodd" fill-opacity="1" /><path clip-path="url(#clip230)" d="M442.657 1481.64 L450.296 1481.64 L450.296 1455.28 L441.986 1456.95 L441.986 1452.69 L450.25 1451.02 L454.926 1451.02 L454.926 1481.64 L462.565 1481.64 L462.565 1485.58 L442.657 1485.58 L442.657 1481.64 Z" fill="#000000" fill-rule="evenodd" fill-opacity="1" /><path clip-path="url(#clip230)" d="M472.819 1481.64 L480.458 1481.64 L480.458 1455.28 L472.148 1456.95 L472.148 1452.69 L480.412 1451.02 L485.088 1451.02 L485.088 1481.64 L492.726 1481.64 L492.726 1485.58 L472.819 1485.58 L472.819 1481.64 Z" fill="#000000" fill-rule="evenodd" fill-opacity="1" /><path clip-path="url(#clip230)" d="M653.93 1481.64 L670.249 1481.64 L670.249 1485.58 L648.305 1485.58 L648.305 1481.64 Q650.967 1478.89 655.55 1474.26 Q660.156 1469.61 661.337 1468.27 Q663.582 1465.74 664.462 1464.01 Q665.365 1462.25 665.365 1460.56 Q665.365 1457.8 663.42 1456.07 Q661.499 1454.33 658.397 1454.33 Q656.198 1454.33 653.744 1455.09 Q651.314 1455.86 648.536 1457.41 L648.536 1452.69 Q651.36 1451.55 653.814 1450.97 Q656.268 1450.39 658.305 1450.39 Q663.675 1450.39 666.869 1453.08 Q670.064 1455.77 670.064 1460.26 Q670.064 1462.39 669.254 1464.31 Q668.467 1466.2 666.36 1468.8 Q665.781 1469.47 662.68 1472.69 Q659.578 1475.88 653.93 1481.64 Z" fill="#000000" fill-rule="evenodd" fill-opacity="1" /><path clip-path="url(#clip230)" d="M680.874 1481.64 L688.513 1481.64 L688.513 1455.28 L680.203 1456.95 L680.203 1452.69 L688.466 1451.02 L693.142 1451.02 L693.142 1481.64 L700.781 1481.64 L700.781 1485.58 L680.874 1485.58 L680.874 1481.64 Z" fill="#000000" fill-rule="evenodd" fill-opacity="1" /><path clip-path="url(#clip230)" d="M871.186 1466.95 Q874.542 1467.66 876.417 1469.93 Q878.315 1472.2 878.315 1475.53 Q878.315 1480.65 874.797 1483.45 Q871.278 1486.25 864.797 1486.25 Q862.621 1486.25 860.306 1485.81 Q858.015 1485.39 855.561 1484.54 L855.561 1480.02 Q857.505 1481.16 859.82 1481.74 Q862.135 1482.32 864.658 1482.32 Q869.056 1482.32 871.348 1480.58 Q873.663 1478.84 873.663 1475.53 Q873.663 1472.48 871.51 1470.77 Q869.38 1469.03 865.561 1469.03 L861.533 1469.03 L861.533 1465.19 L865.746 1465.19 Q869.195 1465.19 871.024 1463.82 Q872.852 1462.43 872.852 1459.84 Q872.852 1457.18 870.954 1455.77 Q869.079 1454.33 865.561 1454.33 Q863.64 1454.33 861.44 1454.75 Q859.241 1455.16 856.603 1456.04 L856.603 1451.88 Q859.265 1451.14 861.579 1450.77 Q863.917 1450.39 865.977 1450.39 Q871.302 1450.39 874.403 1452.83 Q877.505 1455.23 877.505 1459.35 Q877.505 1462.22 875.862 1464.21 Q874.218 1466.18 871.186 1466.95 Z" fill="#000000" fill-rule="evenodd" fill-opacity="1" /><path clip-path="url(#clip230)" d="M887.991 1481.64 L895.63 1481.64 L895.63 1455.28 L887.32 1456.95 L887.32 1452.69 L895.584 1451.02 L900.26 1451.02 L900.26 1481.64 L907.899 1481.64 L907.899 1485.58 L887.991 1485.58 L887.991 1481.64 Z" fill="#000000" fill-rule="evenodd" fill-opacity="1" /><path clip-path="url(#clip230)" d="M1077.7 1455.09 L1065.9 1473.54 L1077.7 1473.54 L1077.7 1455.09 M1076.47 1451.02 L1082.35 1451.02 L1082.35 1473.54 L1087.28 1473.54 L1087.28 1477.43 L1082.35 1477.43 L1082.35 1485.58 L1077.7 1485.58 L1077.7 1477.43 L1062.1 1477.43 L1062.1 1472.92 L1076.47 1451.02 Z" fill="#000000" fill-rule="evenodd" fill-opacity="1" /><path clip-path="url(#clip230)" d="M1095.83 1481.64 L1103.47 1481.64 L1103.47 1455.28 L1095.15 1456.95 L1095.15 1452.69 L1103.42 1451.02 L1108.09 1451.02 L1108.09 1481.64 L1115.73 1481.64 L1115.73 1485.58 L1095.83 1485.58 L1095.83 1481.64 Z" fill="#000000" fill-rule="evenodd" fill-opacity="1" /><path clip-path="url(#clip230)" d="M1271.42 1451.02 L1289.77 1451.02 L1289.77 1454.96 L1275.7 1454.96 L1275.7 1463.43 Q1276.72 1463.08 1277.74 1462.92 Q1278.75 1462.73 1279.77 1462.73 Q1285.56 1462.73 1288.94 1465.9 Q1292.32 1469.08 1292.32 1474.49 Q1292.32 1480.07 1288.85 1483.17 Q1285.37 1486.25 1279.05 1486.25 Q1276.88 1486.25 1274.61 1485.88 Q1272.36 1485.51 1269.96 1484.77 L1269.96 1480.07 Q1272.04 1481.2 1274.26 1481.76 Q1276.49 1482.32 1278.96 1482.32 Q1282.97 1482.32 1285.3 1480.21 Q1287.64 1478.1 1287.64 1474.49 Q1287.64 1470.88 1285.3 1468.77 Q1282.97 1466.67 1278.96 1466.67 Q1277.09 1466.67 1275.21 1467.08 Q1273.36 1467.5 1271.42 1468.38 L1271.42 1451.02 Z" fill="#000000" fill-rule="evenodd" fill-opacity="1" /><path clip-path="url(#clip230)" d="M1302.34 1481.64 L1309.98 1481.64 L1309.98 1455.28 L1301.67 1456.95 L1301.67 1452.69 L1309.93 1451.02 L1314.61 1451.02 L1314.61 1481.64 L1322.25 1481.64 L1322.25 1485.58 L1302.34 1485.58 L1302.34 1481.64 Z" fill="#000000" fill-rule="evenodd" fill-opacity="1" /><path clip-path="url(#clip230)" d="M1489.31 1466.44 Q1486.16 1466.44 1484.31 1468.59 Q1482.48 1470.74 1482.48 1474.49 Q1482.48 1478.22 1484.31 1480.39 Q1486.16 1482.55 1489.31 1482.55 Q1492.46 1482.55 1494.29 1480.39 Q1496.14 1478.22 1496.14 1474.49 Q1496.14 1470.74 1494.29 1468.59 Q1492.46 1466.44 1489.31 1466.44 M1498.59 1451.78 L1498.59 1456.04 Q1496.83 1455.21 1495.03 1454.77 Q1493.24 1454.33 1491.48 1454.33 Q1486.85 1454.33 1484.4 1457.45 Q1481.97 1460.58 1481.62 1466.9 Q1482.99 1464.89 1485.05 1463.82 Q1487.11 1462.73 1489.59 1462.73 Q1494.79 1462.73 1497.8 1465.9 Q1500.84 1469.05 1500.84 1474.49 Q1500.84 1479.82 1497.69 1483.03 Q1494.54 1486.25 1489.31 1486.25 Q1483.31 1486.25 1480.14 1481.67 Q1476.97 1477.06 1476.97 1468.33 Q1476.97 1460.14 1480.86 1455.28 Q1484.75 1450.39 1491.3 1450.39 Q1493.06 1450.39 1494.84 1450.74 Q1496.65 1451.09 1498.59 1451.78 Z" fill="#000000" fill-rule="evenodd" fill-opacity="1" /><path clip-path="url(#clip230)" d="M1509.7 1481.64 L1517.34 1481.64 L1517.34 1455.28 L1509.03 1456.95 L1509.03 1452.69 L1517.29 1451.02 L1521.97 1451.02 L1521.97 1481.64 L1529.61 1481.64 L1529.61 1485.58 L1509.7 1485.58 L1509.7 1481.64 Z" fill="#000000" fill-rule="evenodd" fill-opacity="1" /><path clip-path="url(#clip230)" d="M1684.45 1451.02 L1706.67 1451.02 L1706.67 1453.01 L1694.12 1485.58 L1689.24 1485.58 L1701.04 1454.96 L1684.45 1454.96 L1684.45 1451.02 Z" fill="#000000" fill-rule="evenodd" fill-opacity="1" /><path clip-path="url(#clip230)" d="M1716.6 1481.64 L1724.24 1481.64 L1724.24 1455.28 L1715.93 1456.95 L1715.93 1452.69 L1724.19 1451.02 L1728.87 1451.02 L1728.87 1481.64 L1736.51 1481.64 L1736.51 1485.58 L1716.6 1485.58 L1716.6 1481.64 Z" fill="#000000" fill-rule="evenodd" fill-opacity="1" /><path clip-path="url(#clip230)" d="M1903.15 1469.17 Q1899.82 1469.17 1897.9 1470.95 Q1896 1472.73 1896 1475.86 Q1896 1478.98 1897.9 1480.77 Q1899.82 1482.55 1903.15 1482.55 Q1906.48 1482.55 1908.4 1480.77 Q1910.33 1478.96 1910.33 1475.86 Q1910.33 1472.73 1908.4 1470.95 Q1906.51 1469.17 1903.15 1469.17 M1898.47 1467.18 Q1895.46 1466.44 1893.77 1464.38 Q1892.11 1462.32 1892.11 1459.35 Q1892.11 1455.21 1895.05 1452.8 Q1898.01 1450.39 1903.15 1450.39 Q1908.31 1450.39 1911.25 1452.8 Q1914.19 1455.21 1914.19 1459.35 Q1914.19 1462.32 1912.5 1464.38 Q1910.83 1466.44 1907.85 1467.18 Q1911.23 1467.96 1913.1 1470.26 Q1915 1472.55 1915 1475.86 Q1915 1480.88 1911.92 1483.57 Q1908.87 1486.25 1903.15 1486.25 Q1897.43 1486.25 1894.35 1483.57 Q1891.3 1480.88 1891.3 1475.86 Q1891.3 1472.55 1893.2 1470.26 Q1895.09 1467.96 1898.47 1467.18 M1896.76 1459.79 Q1896.76 1462.48 1898.43 1463.98 Q1900.12 1465.49 1903.15 1465.49 Q1906.16 1465.49 1907.85 1463.98 Q1909.56 1462.48 1909.56 1459.79 Q1909.56 1457.11 1907.85 1455.6 Q1906.16 1454.1 1903.15 1454.1 Q1900.12 1454.1 1898.43 1455.6 Q1896.76 1457.11 1896.76 1459.79 Z" fill="#000000" fill-rule="evenodd" fill-opacity="1" /><path clip-path="url(#clip230)" d="M1924.12 1481.64 L1931.76 1481.64 L1931.76 1455.28 L1923.45 1456.95 L1923.45 1452.69 L1931.71 1451.02 L1936.39 1451.02 L1936.39 1481.64 L1944.03 1481.64 L1944.03 1485.58 L1924.12 1485.58 L1924.12 1481.64 Z" fill="#000000" fill-rule="evenodd" fill-opacity="1" /><path clip-path="url(#clip230)" d="M2100.59 1484.86 L2100.59 1480.6 Q2102.35 1481.44 2104.16 1481.88 Q2105.96 1482.32 2107.7 1482.32 Q2112.33 1482.32 2114.76 1479.21 Q2117.21 1476.09 2117.56 1469.75 Q2116.22 1471.74 2114.16 1472.8 Q2112.1 1473.87 2109.6 1473.87 Q2104.41 1473.87 2101.38 1470.74 Q2098.37 1467.59 2098.37 1462.15 Q2098.37 1456.83 2101.52 1453.61 Q2104.67 1450.39 2109.9 1450.39 Q2115.89 1450.39 2119.04 1455 Q2122.21 1459.58 2122.21 1468.33 Q2122.21 1476.51 2118.32 1481.39 Q2114.46 1486.25 2107.91 1486.25 Q2106.15 1486.25 2104.34 1485.9 Q2102.54 1485.56 2100.59 1484.86 M2109.9 1470.21 Q2113.04 1470.21 2114.87 1468.06 Q2116.73 1465.9 2116.73 1462.15 Q2116.73 1458.43 2114.87 1456.27 Q2113.04 1454.1 2109.9 1454.1 Q2106.75 1454.1 2104.9 1456.27 Q2103.07 1458.43 2103.07 1462.15 Q2103.07 1465.9 2104.9 1468.06 Q2106.75 1470.21 2109.9 1470.21 Z" fill="#000000" fill-rule="evenodd" fill-opacity="1" /><path clip-path="url(#clip230)" d="M2131.42 1481.64 L2139.06 1481.64 L2139.06 1455.28 L2130.75 1456.95 L2130.75 1452.69 L2139.02 1451.02 L2143.69 1451.02 L2143.69 1481.64 L2151.33 1481.64 L2151.33 1485.58 L2131.42 1485.58 L2131.42 1481.64 Z" fill="#000000" fill-rule="evenodd" fill-opacity="1" /><path clip-path="url(#clip230)" d="M2292.26 1481.64 L2299.9 1481.64 L2299.9 1455.28 L2291.59 1456.95 L2291.59 1452.69 L2299.85 1451.02 L2304.53 1451.02 L2304.53 1481.64 L2312.16 1481.64 L2312.16 1485.58 L2292.26 1485.58 L2292.26 1481.64 Z" fill="#000000" fill-rule="evenodd" fill-opacity="1" /><path clip-path="url(#clip230)" d="M2331.61 1454.1 Q2328 1454.1 2326.17 1457.66 Q2324.36 1461.2 2324.36 1468.33 Q2324.36 1475.44 2326.17 1479.01 Q2328 1482.55 2331.61 1482.55 Q2335.24 1482.55 2337.05 1479.01 Q2338.88 1475.44 2338.88 1468.33 Q2338.88 1461.2 2337.05 1457.66 Q2335.24 1454.1 2331.61 1454.1 M2331.61 1450.39 Q2337.42 1450.39 2340.47 1455 Q2343.55 1459.58 2343.55 1468.33 Q2343.55 1477.06 2340.47 1481.67 Q2337.42 1486.25 2331.61 1486.25 Q2325.8 1486.25 2322.72 1481.67 Q2319.66 1477.06 2319.66 1468.33 Q2319.66 1459.58 2322.72 1455 Q2325.8 1450.39 2331.61 1450.39 Z" fill="#000000" fill-rule="evenodd" fill-opacity="1" /><path clip-path="url(#clip230)" d="M2352.58 1481.64 L2360.22 1481.64 L2360.22 1455.28 L2351.91 1456.95 L2351.91 1452.69 L2360.17 1451.02 L2364.85 1451.02 L2364.85 1481.64 L2372.49 1481.64 L2372.49 1485.58 L2352.58 1485.58 L2352.58 1481.64 Z" fill="#000000" fill-rule="evenodd" fill-opacity="1" /><path clip-path="url(#clip230)" d="M1114.62 1522.08 L1114.62 1528.35 Q1110.96 1526.6 1107.71 1525.74 Q1104.46 1524.88 1101.44 1524.88 Q1096.19 1524.88 1093.32 1526.92 Q1090.49 1528.96 1090.49 1532.71 Q1090.49 1535.87 1092.37 1537.49 Q1094.28 1539.08 1099.56 1540.07 L1103.45 1540.86 Q1110.64 1542.23 1114.04 1545.7 Q1117.48 1549.14 1117.48 1554.93 Q1117.48 1561.84 1112.84 1565.4 Q1108.22 1568.97 1099.28 1568.97 Q1095.9 1568.97 1092.08 1568.2 Q1088.3 1567.44 1084.22 1565.94 L1084.22 1559.32 Q1088.14 1561.52 1091.89 1562.63 Q1095.65 1563.75 1099.28 1563.75 Q1104.78 1563.75 1107.77 1561.58 Q1110.77 1559.42 1110.77 1555.41 Q1110.77 1551.91 1108.6 1549.93 Q1106.47 1547.96 1101.57 1546.97 L1097.65 1546.21 Q1090.46 1544.78 1087.25 1541.72 Q1084.03 1538.67 1084.03 1533.22 Q1084.03 1526.92 1088.45 1523.29 Q1092.91 1519.66 1100.71 1519.66 Q1104.05 1519.66 1107.52 1520.27 Q1110.99 1520.87 1114.62 1522.08 Z" fill="#000000" fill-rule="evenodd" fill-opacity="1" /><path clip-path="url(#clip230)" d="M1127.25 1532.4 L1133.11 1532.4 L1133.11 1568.04 L1127.25 1568.04 L1127.25 1532.4 M1127.25 1518.52 L1133.11 1518.52 L1133.11 1525.93 L1127.25 1525.93 L1127.25 1518.52 Z" fill="#000000" fill-rule="evenodd" fill-opacity="1" /><path clip-path="url(#clip230)" d="M1151.16 1522.27 L1151.16 1532.4 L1163.22 1532.4 L1163.22 1536.95 L1151.16 1536.95 L1151.16 1556.3 Q1151.16 1560.66 1152.33 1561.9 Q1153.54 1563.14 1157.2 1563.14 L1163.22 1563.14 L1163.22 1568.04 L1157.2 1568.04 Q1150.42 1568.04 1147.85 1565.53 Q1145.27 1562.98 1145.27 1556.3 L1145.27 1536.95 L1140.97 1536.95 L1140.97 1532.4 L1145.27 1532.4 L1145.27 1522.27 L1151.16 1522.27 Z" fill="#000000" fill-rule="evenodd" fill-opacity="1" /><path clip-path="url(#clip230)" d="M1201.41 1548.76 L1201.41 1551.62 L1174.49 1551.62 Q1174.87 1557.67 1178.12 1560.85 Q1181.39 1564 1187.22 1564 Q1190.59 1564 1193.74 1563.17 Q1196.93 1562.35 1200.05 1560.69 L1200.05 1566.23 Q1196.89 1567.57 1193.58 1568.27 Q1190.27 1568.97 1186.87 1568.97 Q1178.34 1568.97 1173.34 1564 Q1168.38 1559.04 1168.38 1550.57 Q1168.38 1541.82 1173.09 1536.69 Q1177.83 1531.54 1185.85 1531.54 Q1193.04 1531.54 1197.21 1536.18 Q1201.41 1540.8 1201.41 1548.76 M1195.56 1547.04 Q1195.49 1542.23 1192.85 1539.37 Q1190.24 1536.5 1185.91 1536.5 Q1181.01 1536.5 1178.05 1539.27 Q1175.12 1542.04 1174.68 1547.07 L1195.56 1547.04 Z" fill="#000000" fill-rule="evenodd" fill-opacity="1" /><path clip-path="url(#clip230)" d="M1232 1520.52 L1240.66 1520.52 L1261.73 1560.28 L1261.73 1520.52 L1267.97 1520.52 L1267.97 1568.04 L1259.31 1568.04 L1238.24 1528.29 L1238.24 1568.04 L1232 1568.04 L1232 1520.52 Z" fill="#000000" fill-rule="evenodd" fill-opacity="1" /><path clip-path="url(#clip230)" d="M1279.9 1553.98 L1279.9 1532.4 L1285.76 1532.4 L1285.76 1553.75 Q1285.76 1558.81 1287.73 1561.36 Q1289.71 1563.87 1293.65 1563.87 Q1298.4 1563.87 1301.13 1560.85 Q1303.9 1557.83 1303.9 1552.61 L1303.9 1532.4 L1309.76 1532.4 L1309.76 1568.04 L1303.9 1568.04 L1303.9 1562.57 Q1301.77 1565.82 1298.94 1567.41 Q1296.14 1568.97 1292.41 1568.97 Q1286.27 1568.97 1283.09 1565.15 Q1279.9 1561.33 1279.9 1553.98 M1294.64 1531.54 L1294.64 1531.54 Z" fill="#000000" fill-rule="evenodd" fill-opacity="1" /><path clip-path="url(#clip230)" d="M1349.58 1539.24 Q1351.77 1535.29 1354.83 1533.41 Q1357.88 1531.54 1362.02 1531.54 Q1367.59 1531.54 1370.61 1535.45 Q1373.64 1539.33 1373.64 1546.53 L1373.64 1568.04 L1367.75 1568.04 L1367.75 1546.72 Q1367.75 1541.59 1365.94 1539.11 Q1364.12 1536.63 1360.4 1536.63 Q1355.85 1536.63 1353.2 1539.65 Q1350.56 1542.68 1350.56 1547.9 L1350.56 1568.04 L1344.67 1568.04 L1344.67 1546.72 Q1344.67 1541.56 1342.86 1539.11 Q1341.05 1536.63 1337.26 1536.63 Q1332.77 1536.63 1330.13 1539.68 Q1327.49 1542.71 1327.49 1547.9 L1327.49 1568.04 L1321.6 1568.04 L1321.6 1532.4 L1327.49 1532.4 L1327.49 1537.93 Q1329.49 1534.66 1332.29 1533.1 Q1335.09 1531.54 1338.95 1531.54 Q1342.83 1531.54 1345.53 1533.51 Q1348.27 1535.48 1349.58 1539.24 Z" fill="#000000" fill-rule="evenodd" fill-opacity="1" /><path clip-path="url(#clip230)" d="M1410.91 1550.25 Q1410.91 1543.79 1408.24 1540.13 Q1405.59 1536.44 1400.95 1536.44 Q1396.3 1536.44 1393.63 1540.13 Q1390.99 1543.79 1390.99 1550.25 Q1390.99 1556.71 1393.63 1560.4 Q1396.3 1564.07 1400.95 1564.07 Q1405.59 1564.07 1408.24 1560.4 Q1410.91 1556.71 1410.91 1550.25 M1390.99 1537.81 Q1392.83 1534.62 1395.63 1533.1 Q1398.46 1531.54 1402.38 1531.54 Q1408.87 1531.54 1412.91 1536.69 Q1416.99 1541.85 1416.99 1550.25 Q1416.99 1558.65 1412.91 1563.81 Q1408.87 1568.97 1402.38 1568.97 Q1398.46 1568.97 1395.63 1567.44 Q1392.83 1565.88 1390.99 1562.7 L1390.99 1568.04 L1385.1 1568.04 L1385.1 1518.52 L1390.99 1518.52 L1390.99 1537.81 Z" fill="#000000" fill-rule="evenodd" fill-opacity="1" /><path clip-path="url(#clip230)" d="M1457.19 1548.76 L1457.19 1551.62 L1430.26 1551.62 Q1430.64 1557.67 1433.89 1560.85 Q1437.17 1564 1442.99 1564 Q1446.37 1564 1449.52 1563.17 Q1452.7 1562.35 1455.82 1560.69 L1455.82 1566.23 Q1452.67 1567.57 1449.36 1568.27 Q1446.05 1568.97 1442.64 1568.97 Q1434.11 1568.97 1429.12 1564 Q1424.15 1559.04 1424.15 1550.57 Q1424.15 1541.82 1428.86 1536.69 Q1433.6 1531.54 1441.62 1531.54 Q1448.82 1531.54 1452.99 1536.18 Q1457.19 1540.8 1457.19 1548.76 M1451.33 1547.04 Q1451.27 1542.23 1448.63 1539.37 Q1446.02 1536.5 1441.69 1536.5 Q1436.79 1536.5 1433.83 1539.27 Q1430.9 1542.04 1430.45 1547.07 L1451.33 1547.04 Z" fill="#000000" fill-rule="evenodd" fill-opacity="1" /><path clip-path="url(#clip230)" d="M1487.46 1537.87 Q1486.47 1537.3 1485.29 1537.04 Q1484.15 1536.76 1482.75 1536.76 Q1477.78 1536.76 1475.11 1540 Q1472.47 1543.22 1472.47 1549.27 L1472.47 1568.04 L1466.58 1568.04 L1466.58 1532.4 L1472.47 1532.4 L1472.47 1537.93 Q1474.31 1534.69 1477.27 1533.13 Q1480.23 1531.54 1484.47 1531.54 Q1485.07 1531.54 1485.8 1531.63 Q1486.53 1531.7 1487.43 1531.85 L1487.46 1537.87 Z" fill="#000000" fill-rule="evenodd" fill-opacity="1" /><polyline clip-path="url(#clip232)" style="stroke:#000000; stroke-linecap:round; stroke-linejoin:round; stroke-width:2; stroke-opacity:0.1; fill:none" points="
  218.732,1423.18 2352.76,1423.18 
  "/>
<polyline clip-path="url(#clip232)" style="stroke:#000000; stroke-linecap:round; stroke-linejoin:round; stroke-width:2; stroke-opacity:0.1; fill:none" points="
  218.732,773.326 2352.76,773.326 
  "/>
<polyline clip-path="url(#clip232)" style="stroke:#000000; stroke-linecap:round; stroke-linejoin:round; stroke-width:2; stroke-opacity:0.1; fill:none" points="
  218.732,123.472 2352.76,123.472 
  "/>
<polyline clip-path="url(#clip230)" style="stroke:#000000; stroke-linecap:round; stroke-linejoin:round; stroke-width:4; stroke-opacity:1; fill:none" points="
  218.732,1423.18 218.732,123.472 
  "/>
<polyline clip-path="url(#clip230)" style="stroke:#000000; stroke-linecap:round; stroke-linejoin:round; stroke-width:4; stroke-opacity:1; fill:none" points="
  218.732,1423.18 237.63,1423.18 
  "/>
<polyline clip-path="url(#clip230)" style="stroke:#000000; stroke-linecap:round; stroke-linejoin:round; stroke-width:4; stroke-opacity:1; fill:none" points="
  218.732,773.326 237.63,773.326 
  "/>
<polyline clip-path="url(#clip230)" style="stroke:#000000; stroke-linecap:round; stroke-linejoin:round; stroke-width:4; stroke-opacity:1; fill:none" points="
  218.732,123.472 237.63,123.472 
  "/>
<path clip-path="url(#clip230)" d="M126.783 1408.98 Q123.172 1408.98 121.343 1412.54 Q119.538 1416.08 119.538 1423.21 Q119.538 1430.32 121.343 1433.89 Q123.172 1437.43 126.783 1437.43 Q130.417 1437.43 132.223 1433.89 Q134.052 1430.32 134.052 1423.21 Q134.052 1416.08 132.223 1412.54 Q130.417 1408.98 126.783 1408.98 M126.783 1405.27 Q132.593 1405.27 135.649 1409.88 Q138.728 1414.46 138.728 1423.21 Q138.728 1431.94 135.649 1436.55 Q132.593 1441.13 126.783 1441.13 Q120.973 1441.13 117.894 1436.55 Q114.839 1431.94 114.839 1423.21 Q114.839 1414.46 117.894 1409.88 Q120.973 1405.27 126.783 1405.27 Z" fill="#000000" fill-rule="evenodd" fill-opacity="1" /><path clip-path="url(#clip230)" d="M146.945 1434.58 L151.829 1434.58 L151.829 1440.46 L146.945 1440.46 L146.945 1434.58 Z" fill="#000000" fill-rule="evenodd" fill-opacity="1" /><path clip-path="url(#clip230)" d="M162.825 1436.52 L170.464 1436.52 L170.464 1410.16 L162.153 1411.83 L162.153 1407.57 L170.417 1405.9 L175.093 1405.9 L175.093 1436.52 L182.732 1436.52 L182.732 1440.46 L162.825 1440.46 L162.825 1436.52 Z" fill="#000000" fill-rule="evenodd" fill-opacity="1" /><path clip-path="url(#clip230)" d="M127.154 759.125 Q123.543 759.125 121.714 762.689 Q119.908 766.231 119.908 773.361 Q119.908 780.467 121.714 784.032 Q123.543 787.574 127.154 787.574 Q130.788 787.574 132.593 784.032 Q134.422 780.467 134.422 773.361 Q134.422 766.231 132.593 762.689 Q130.788 759.125 127.154 759.125 M127.154 755.421 Q132.964 755.421 136.019 760.027 Q139.098 764.611 139.098 773.361 Q139.098 782.088 136.019 786.694 Q132.964 791.277 127.154 791.277 Q121.343 791.277 118.265 786.694 Q115.209 782.088 115.209 773.361 Q115.209 764.611 118.265 760.027 Q121.343 755.421 127.154 755.421 Z" fill="#000000" fill-rule="evenodd" fill-opacity="1" /><path clip-path="url(#clip230)" d="M147.316 784.726 L152.2 784.726 L152.2 790.606 L147.316 790.606 L147.316 784.726 Z" fill="#000000" fill-rule="evenodd" fill-opacity="1" /><path clip-path="url(#clip230)" d="M166.413 786.671 L182.732 786.671 L182.732 790.606 L160.788 790.606 L160.788 786.671 Q163.45 783.916 168.033 779.287 Q172.639 774.634 173.82 773.291 Q176.065 770.768 176.945 769.032 Q177.848 767.273 177.848 765.583 Q177.848 762.828 175.903 761.092 Q173.982 759.356 170.88 759.356 Q168.681 759.356 166.227 760.12 Q163.797 760.884 161.019 762.435 L161.019 757.713 Q163.843 756.578 166.297 756 Q168.751 755.421 170.788 755.421 Q176.158 755.421 179.352 758.106 Q182.547 760.791 182.547 765.282 Q182.547 767.412 181.737 769.333 Q180.95 771.231 178.843 773.824 Q178.264 774.495 175.163 777.713 Q172.061 780.907 166.413 786.671 Z" fill="#000000" fill-rule="evenodd" fill-opacity="1" /><path clip-path="url(#clip230)" d="M126.205 109.271 Q122.593 109.271 120.765 112.836 Q118.959 116.377 118.959 123.507 Q118.959 130.613 120.765 134.178 Q122.593 137.72 126.205 137.72 Q129.839 137.72 131.644 134.178 Q133.473 130.613 133.473 123.507 Q133.473 116.377 131.644 112.836 Q129.839 109.271 126.205 109.271 M126.205 105.567 Q132.015 105.567 135.07 110.174 Q138.149 114.757 138.149 123.507 Q138.149 132.234 135.07 136.84 Q132.015 141.423 126.205 141.423 Q120.394 141.423 117.316 136.84 Q114.26 132.234 114.26 123.507 Q114.26 114.757 117.316 110.174 Q120.394 105.567 126.205 105.567 Z" fill="#000000" fill-rule="evenodd" fill-opacity="1" /><path clip-path="url(#clip230)" d="M146.366 134.873 L151.251 134.873 L151.251 140.752 L146.366 140.752 L146.366 134.873 Z" fill="#000000" fill-rule="evenodd" fill-opacity="1" /><path clip-path="url(#clip230)" d="M175.602 122.118 Q178.959 122.836 180.834 125.104 Q182.732 127.373 182.732 130.706 Q182.732 135.822 179.214 138.623 Q175.695 141.423 169.214 141.423 Q167.038 141.423 164.723 140.984 Q162.431 140.567 159.978 139.71 L159.978 135.197 Q161.922 136.331 164.237 136.91 Q166.552 137.488 169.075 137.488 Q173.473 137.488 175.764 135.752 Q178.079 134.016 178.079 130.706 Q178.079 127.65 175.926 125.937 Q173.797 124.201 169.977 124.201 L165.95 124.201 L165.95 120.359 L170.163 120.359 Q173.612 120.359 175.44 118.993 Q177.269 117.604 177.269 115.012 Q177.269 112.35 175.371 110.937 Q173.496 109.502 169.977 109.502 Q168.056 109.502 165.857 109.919 Q163.658 110.336 161.019 111.215 L161.019 107.049 Q163.681 106.308 165.996 105.937 Q168.334 105.567 170.394 105.567 Q175.718 105.567 178.82 107.998 Q181.922 110.405 181.922 114.525 Q181.922 117.396 180.278 119.386 Q178.635 121.354 175.602 122.118 Z" fill="#000000" fill-rule="evenodd" fill-opacity="1" /><path clip-path="url(#clip230)" d="M16.4842 987.834 L16.4842 981.405 L64.0042 981.405 L64.0042 987.834 L16.4842 987.834 Z" fill="#000000" fill-rule="evenodd" fill-opacity="1" /><path clip-path="url(#clip230)" d="M42.4881 939.232 L64.0042 939.232 L64.0042 945.089 L42.679 945.089 Q37.6183 945.089 35.1038 947.062 Q32.5894 949.035 32.5894 952.982 Q32.5894 957.725 35.6131 960.462 Q38.6368 963.199 43.8567 963.199 L64.0042 963.199 L64.0042 969.087 L28.3562 969.087 L28.3562 963.199 L33.8944 963.199 Q30.6797 961.098 29.0883 958.266 Q27.4968 955.401 27.4968 951.677 Q27.4968 945.534 31.3163 942.383 Q35.1038 939.232 42.4881 939.232 Z" fill="#000000" fill-rule="evenodd" fill-opacity="1" /><path clip-path="url(#clip230)" d="M42.4881 897.919 L64.0042 897.919 L64.0042 903.775 L42.679 903.775 Q37.6183 903.775 35.1038 905.749 Q32.5894 907.722 32.5894 911.669 Q32.5894 916.411 35.6131 919.148 Q38.6368 921.886 43.8567 921.886 L64.0042 921.886 L64.0042 927.774 L28.3562 927.774 L28.3562 921.886 L33.8944 921.886 Q30.6797 919.785 29.0883 916.952 Q27.4968 914.088 27.4968 910.364 Q27.4968 904.221 31.3163 901.07 Q35.1038 897.919 42.4881 897.919 Z" fill="#000000" fill-rule="evenodd" fill-opacity="1" /><path clip-path="url(#clip230)" d="M44.7161 855.746 L47.5806 855.746 L47.5806 882.673 Q53.6281 882.291 56.8109 879.044 Q59.9619 875.766 59.9619 869.941 Q59.9619 866.568 59.1344 863.417 Q58.3069 860.234 56.6518 857.115 L62.1899 857.115 Q63.5267 860.266 64.227 863.576 Q64.9272 866.886 64.9272 870.292 Q64.9272 878.822 59.9619 883.819 Q54.9967 888.784 46.5303 888.784 Q37.7774 888.784 32.6531 884.073 Q27.4968 879.331 27.4968 871.31 Q27.4968 864.117 32.1438 859.947 Q36.7589 855.746 44.7161 855.746 M42.9973 861.602 Q38.1912 861.666 35.3266 864.308 Q32.4621 866.918 32.4621 871.246 Q32.4621 876.148 35.2312 879.108 Q38.0002 882.036 43.0292 882.482 L42.9973 861.602 Z" fill="#000000" fill-rule="evenodd" fill-opacity="1" /><path clip-path="url(#clip230)" d="M33.8307 825.477 Q33.2578 826.464 33.0032 827.641 Q32.7167 828.787 32.7167 830.188 Q32.7167 835.153 35.9632 837.827 Q39.1779 840.468 45.2253 840.468 L64.0042 840.468 L64.0042 846.357 L28.3562 846.357 L28.3562 840.468 L33.8944 840.468 Q30.6479 838.622 29.0883 835.662 Q27.4968 832.702 27.4968 828.469 Q27.4968 827.864 27.5923 827.132 Q27.656 826.4 27.8151 825.509 L33.8307 825.477 Z" fill="#000000" fill-rule="evenodd" fill-opacity="1" /><path clip-path="url(#clip230)" d="M21.7677 791.93 L39.6235 791.93 L39.6235 783.845 Q39.6235 779.357 37.3 776.907 Q34.9765 774.456 30.6797 774.456 Q26.4147 774.456 24.0912 776.907 Q21.7677 779.357 21.7677 783.845 L21.7677 791.93 M16.4842 798.359 L16.4842 783.845 Q16.4842 775.856 20.1126 771.782 Q23.7092 767.676 30.6797 767.676 Q37.7138 767.676 41.3104 771.782 Q44.907 775.856 44.907 783.845 L44.907 791.93 L64.0042 791.93 L64.0042 798.359 L16.4842 798.359 Z" fill="#000000" fill-rule="evenodd" fill-opacity="1" /><path clip-path="url(#clip230)" d="M33.8307 739.795 Q33.2578 740.781 33.0032 741.959 Q32.7167 743.105 32.7167 744.505 Q32.7167 749.47 35.9632 752.144 Q39.1779 754.786 45.2253 754.786 L64.0042 754.786 L64.0042 760.674 L28.3562 760.674 L28.3562 754.786 L33.8944 754.786 Q30.6479 752.94 29.0883 749.98 Q27.4968 747.02 27.4968 742.787 Q27.4968 742.182 27.5923 741.45 Q27.656 740.718 27.8151 739.826 L33.8307 739.795 Z" fill="#000000" fill-rule="evenodd" fill-opacity="1" /><path clip-path="url(#clip230)" d="M32.4621 721.27 Q32.4621 725.981 36.1542 728.718 Q39.8145 731.456 46.212 731.456 Q52.6095 731.456 56.3017 728.75 Q59.9619 726.013 59.9619 721.27 Q59.9619 716.592 56.2698 713.854 Q52.5777 711.117 46.212 711.117 Q39.8781 711.117 36.186 713.854 Q32.4621 716.592 32.4621 721.27 M27.4968 721.27 Q27.4968 713.632 32.4621 709.271 Q37.4273 704.911 46.212 704.911 Q54.9649 704.911 59.9619 709.271 Q64.9272 713.632 64.9272 721.27 Q64.9272 728.941 59.9619 733.302 Q54.9649 737.63 46.212 737.63 Q37.4273 737.63 32.4621 733.302 Q27.4968 728.941 27.4968 721.27 Z" fill="#000000" fill-rule="evenodd" fill-opacity="1" /><path clip-path="url(#clip230)" d="M33.7671 671.745 L14.479 671.745 L14.479 665.889 L64.0042 665.889 L64.0042 671.745 L58.657 671.745 Q61.8398 673.591 63.3994 676.424 Q64.9272 679.225 64.9272 683.172 Q64.9272 689.633 59.771 693.707 Q54.6147 697.749 46.212 697.749 Q37.8093 697.749 32.6531 693.707 Q27.4968 689.633 27.4968 683.172 Q27.4968 679.225 29.0564 676.424 Q30.5842 673.591 33.7671 671.745 M46.212 691.702 Q52.6732 691.702 56.3653 689.06 Q60.0256 686.386 60.0256 681.739 Q60.0256 677.092 56.3653 674.419 Q52.6732 671.745 46.212 671.745 Q39.7508 671.745 36.0905 674.419 Q32.3984 677.092 32.3984 681.739 Q32.3984 686.386 36.0905 689.06 Q39.7508 691.702 46.212 691.702 Z" fill="#000000" fill-rule="evenodd" fill-opacity="1" /><path clip-path="url(#clip230)" d="M49.9359 654.43 L28.3562 654.43 L28.3562 648.574 L49.7131 648.574 Q54.7739 648.574 57.3202 646.601 Q59.8346 644.627 59.8346 640.681 Q59.8346 635.938 56.8109 633.201 Q53.7872 630.432 48.5673 630.432 L28.3562 630.432 L28.3562 624.575 L64.0042 624.575 L64.0042 630.432 L58.5296 630.432 Q61.7762 632.564 63.3676 635.397 Q64.9272 638.198 64.9272 641.922 Q64.9272 648.065 61.1078 651.248 Q57.2883 654.43 49.9359 654.43 M27.4968 639.694 L27.4968 639.694 Z" fill="#000000" fill-rule="evenodd" fill-opacity="1" /><path clip-path="url(#clip230)" d="M29.7248 586.859 L35.1993 586.859 Q33.8307 589.341 33.1623 591.856 Q32.4621 594.338 32.4621 596.885 Q32.4621 602.582 36.0905 605.733 Q39.6872 608.884 46.212 608.884 Q52.7369 608.884 56.3653 605.733 Q59.9619 602.582 59.9619 596.885 Q59.9619 594.338 59.2935 591.856 Q58.5933 589.341 57.2247 586.859 L62.6355 586.859 Q63.7814 589.309 64.3543 591.951 Q64.9272 594.561 64.9272 597.521 Q64.9272 605.574 59.8664 610.316 Q54.8057 615.059 46.212 615.059 Q37.491 615.059 32.4939 610.284 Q27.4968 605.478 27.4968 597.139 Q27.4968 594.434 28.0697 591.856 Q28.6108 589.277 29.7248 586.859 Z" fill="#000000" fill-rule="evenodd" fill-opacity="1" /><path clip-path="url(#clip230)" d="M18.2347 570.881 L28.3562 570.881 L28.3562 558.818 L32.9077 558.818 L32.9077 570.881 L52.2594 570.881 Q56.6199 570.881 57.8613 569.703 Q59.1026 568.493 59.1026 564.833 L59.1026 558.818 L64.0042 558.818 L64.0042 564.833 Q64.0042 571.613 61.4897 574.191 Q58.9434 576.769 52.2594 576.769 L32.9077 576.769 L32.9077 581.066 L28.3562 581.066 L28.3562 576.769 L18.2347 576.769 L18.2347 570.881 Z" fill="#000000" fill-rule="evenodd" fill-opacity="1" /><path clip-path="url(#clip230)" d="M1155.33 17.6457 Q1146.41 17.6457 1141.15 24.2892 Q1135.92 30.9327 1135.92 42.3968 Q1135.92 53.8203 1141.15 60.4638 Q1146.41 67.1073 1155.33 67.1073 Q1164.24 67.1073 1169.42 60.4638 Q1174.65 53.8203 1174.65 42.3968 Q1174.65 30.9327 1169.42 24.2892 Q1164.24 17.6457 1155.33 17.6457 M1155.33 11.0023 Q1168.04 11.0023 1175.66 19.5497 Q1183.28 28.0566 1183.28 42.3968 Q1183.28 56.6965 1175.66 65.2439 Q1168.04 73.7508 1155.33 73.7508 Q1142.56 73.7508 1134.91 65.2439 Q1127.29 56.737 1127.29 42.3968 Q1127.29 28.0566 1134.91 19.5497 Q1142.56 11.0023 1155.33 11.0023 Z" fill="#000000" fill-rule="evenodd" fill-opacity="1" /><path clip-path="url(#clip230)" d="M1190.41 27.2059 L1198.31 27.2059 L1212.48 65.2844 L1226.66 27.2059 L1234.56 27.2059 L1217.55 72.576 L1207.42 72.576 L1190.41 27.2059 Z" fill="#000000" fill-rule="evenodd" fill-opacity="1" /><path clip-path="url(#clip230)" d="M1283.66 48.0275 L1283.66 51.6733 L1249.39 51.6733 Q1249.87 59.3701 1254.01 63.421 Q1258.18 67.4314 1265.59 67.4314 Q1269.88 67.4314 1273.9 66.3781 Q1277.95 65.3249 1281.92 63.2184 L1281.92 70.267 Q1277.91 71.9684 1273.69 72.8596 Q1269.48 73.7508 1265.15 73.7508 Q1254.29 73.7508 1247.93 67.4314 Q1241.61 61.1119 1241.61 50.3365 Q1241.61 39.1965 1247.6 32.6746 Q1253.64 26.1121 1263.85 26.1121 Q1273 26.1121 1278.31 32.0264 Q1283.66 37.9003 1283.66 48.0275 M1276.2 45.84 Q1276.12 39.7232 1272.76 36.0774 Q1269.44 32.4315 1263.93 32.4315 Q1257.69 32.4315 1253.92 35.9558 Q1250.2 39.4801 1249.63 45.8805 L1276.2 45.84 Z" fill="#000000" fill-rule="evenodd" fill-opacity="1" /><path clip-path="url(#clip230)" d="M1322.18 34.1734 Q1320.93 33.4443 1319.43 33.1202 Q1317.97 32.7556 1316.19 32.7556 Q1309.87 32.7556 1306.46 36.8875 Q1303.1 40.9789 1303.1 48.6757 L1303.1 72.576 L1295.61 72.576 L1295.61 27.2059 L1303.1 27.2059 L1303.1 34.2544 Q1305.45 30.1225 1309.22 28.1376 Q1312.99 26.1121 1318.37 26.1121 Q1319.14 26.1121 1320.08 26.2337 Q1321.01 26.3147 1322.14 26.5172 L1322.18 34.1734 Z" fill="#000000" fill-rule="evenodd" fill-opacity="1" /><path clip-path="url(#clip230)" d="M1330 9.54393 L1337.45 9.54393 L1337.45 72.576 L1330 72.576 L1330 9.54393 Z" fill="#000000" fill-rule="evenodd" fill-opacity="1" /><path clip-path="url(#clip230)" d="M1373.67 49.7694 Q1364.64 49.7694 1361.15 51.8354 Q1357.67 53.9013 1357.67 58.8839 Q1357.67 62.8538 1360.26 65.2034 Q1362.89 67.5124 1367.39 67.5124 Q1373.59 67.5124 1377.31 63.1374 Q1381.08 58.7219 1381.08 51.4303 L1381.08 49.7694 L1373.67 49.7694 M1388.54 46.6907 L1388.54 72.576 L1381.08 72.576 L1381.08 65.6895 Q1378.53 69.8214 1374.72 71.8063 Q1370.91 73.7508 1365.4 73.7508 Q1358.44 73.7508 1354.31 69.8619 Q1350.21 65.9325 1350.21 59.3701 Q1350.21 51.7138 1355.32 47.825 Q1360.46 43.9361 1370.63 43.9361 L1381.08 43.9361 L1381.08 43.2069 Q1381.08 38.0623 1377.68 35.2672 Q1374.32 32.4315 1368.2 32.4315 Q1364.31 32.4315 1360.62 33.3632 Q1356.94 34.295 1353.54 36.1584 L1353.54 29.2718 Q1357.63 27.692 1361.48 26.9223 Q1365.32 26.1121 1368.97 26.1121 Q1378.81 26.1121 1383.67 31.2163 Q1388.54 36.3204 1388.54 46.6907 Z" fill="#000000" fill-rule="evenodd" fill-opacity="1" /><path clip-path="url(#clip230)" d="M1411.1 65.7705 L1411.1 89.8329 L1403.61 89.8329 L1403.61 27.2059 L1411.1 27.2059 L1411.1 34.0924 Q1413.45 30.0415 1417.01 28.0971 Q1420.62 26.1121 1425.6 26.1121 Q1433.87 26.1121 1439.01 32.6746 Q1444.2 39.2371 1444.2 49.9314 Q1444.2 60.6258 1439.01 67.1883 Q1433.87 73.7508 1425.6 73.7508 Q1420.62 73.7508 1417.01 71.8063 Q1413.45 69.8214 1411.1 65.7705 M1436.46 49.9314 Q1436.46 41.7081 1433.06 37.0496 Q1429.69 32.3505 1423.78 32.3505 Q1417.86 32.3505 1414.46 37.0496 Q1411.1 41.7081 1411.1 49.9314 Q1411.1 58.1548 1414.46 62.8538 Q1417.86 67.5124 1423.78 67.5124 Q1429.69 67.5124 1433.06 62.8538 Q1436.46 58.1548 1436.46 49.9314 Z" fill="#000000" fill-rule="evenodd" fill-opacity="1" /><circle clip-path="url(#clip232)" cx="260.169" cy="609.337" r="7.2" fill="#009af9" fill-rule="evenodd" fill-opacity="1" stroke="#000000" stroke-opacity="1" stroke-width="3.2"/>
<circle clip-path="url(#clip232)" cx="280.888" cy="662.926" r="7.2" fill="#009af9" fill-rule="evenodd" fill-opacity="1" stroke="#000000" stroke-opacity="1" stroke-width="3.2"/>
<circle clip-path="url(#clip232)" cx="301.607" cy="628.83" r="7.2" fill="#009af9" fill-rule="evenodd" fill-opacity="1" stroke="#000000" stroke-opacity="1" stroke-width="3.2"/>
<circle clip-path="url(#clip232)" cx="322.325" cy="652.908" r="7.2" fill="#009af9" fill-rule="evenodd" fill-opacity="1" stroke="#000000" stroke-opacity="1" stroke-width="3.2"/>
<circle clip-path="url(#clip232)" cx="343.044" cy="630.857" r="7.2" fill="#009af9" fill-rule="evenodd" fill-opacity="1" stroke="#000000" stroke-opacity="1" stroke-width="3.2"/>
<circle clip-path="url(#clip232)" cx="363.763" cy="648.892" r="7.2" fill="#009af9" fill-rule="evenodd" fill-opacity="1" stroke="#000000" stroke-opacity="1" stroke-width="3.2"/>
<circle clip-path="url(#clip232)" cx="384.481" cy="630.752" r="7.2" fill="#009af9" fill-rule="evenodd" fill-opacity="1" stroke="#000000" stroke-opacity="1" stroke-width="3.2"/>
<circle clip-path="url(#clip232)" cx="405.2" cy="651.473" r="7.2" fill="#009af9" fill-rule="evenodd" fill-opacity="1" stroke="#000000" stroke-opacity="1" stroke-width="3.2"/>
<circle clip-path="url(#clip232)" cx="425.919" cy="631.893" r="7.2" fill="#009af9" fill-rule="evenodd" fill-opacity="1" stroke="#000000" stroke-opacity="1" stroke-width="3.2"/>
<circle clip-path="url(#clip232)" cx="446.637" cy="656.287" r="7.2" fill="#009af9" fill-rule="evenodd" fill-opacity="1" stroke="#000000" stroke-opacity="1" stroke-width="3.2"/>
<circle clip-path="url(#clip232)" cx="467.356" cy="625.498" r="7.2" fill="#009af9" fill-rule="evenodd" fill-opacity="1" stroke="#000000" stroke-opacity="1" stroke-width="3.2"/>
<circle clip-path="url(#clip232)" cx="488.075" cy="651.462" r="7.2" fill="#009af9" fill-rule="evenodd" fill-opacity="1" stroke="#000000" stroke-opacity="1" stroke-width="3.2"/>
<circle clip-path="url(#clip232)" cx="508.794" cy="635.982" r="7.2" fill="#009af9" fill-rule="evenodd" fill-opacity="1" stroke="#000000" stroke-opacity="1" stroke-width="3.2"/>
<circle clip-path="url(#clip232)" cx="529.512" cy="648.227" r="7.2" fill="#009af9" fill-rule="evenodd" fill-opacity="1" stroke="#000000" stroke-opacity="1" stroke-width="3.2"/>
<circle clip-path="url(#clip232)" cx="550.231" cy="634.638" r="7.2" fill="#009af9" fill-rule="evenodd" fill-opacity="1" stroke="#000000" stroke-opacity="1" stroke-width="3.2"/>
<circle clip-path="url(#clip232)" cx="570.95" cy="646.743" r="7.2" fill="#009af9" fill-rule="evenodd" fill-opacity="1" stroke="#000000" stroke-opacity="1" stroke-width="3.2"/>
<circle clip-path="url(#clip232)" cx="591.668" cy="630.97" r="7.2" fill="#009af9" fill-rule="evenodd" fill-opacity="1" stroke="#000000" stroke-opacity="1" stroke-width="3.2"/>
<circle clip-path="url(#clip232)" cx="612.387" cy="648.317" r="7.2" fill="#009af9" fill-rule="evenodd" fill-opacity="1" stroke="#000000" stroke-opacity="1" stroke-width="3.2"/>
<circle clip-path="url(#clip232)" cx="633.106" cy="630.349" r="7.2" fill="#009af9" fill-rule="evenodd" fill-opacity="1" stroke="#000000" stroke-opacity="1" stroke-width="3.2"/>
<circle clip-path="url(#clip232)" cx="653.824" cy="647.937" r="7.2" fill="#009af9" fill-rule="evenodd" fill-opacity="1" stroke="#000000" stroke-opacity="1" stroke-width="3.2"/>
<circle clip-path="url(#clip232)" cx="674.543" cy="634.102" r="7.2" fill="#009af9" fill-rule="evenodd" fill-opacity="1" stroke="#000000" stroke-opacity="1" stroke-width="3.2"/>
<circle clip-path="url(#clip232)" cx="695.262" cy="652.596" r="7.2" fill="#009af9" fill-rule="evenodd" fill-opacity="1" stroke="#000000" stroke-opacity="1" stroke-width="3.2"/>
<circle clip-path="url(#clip232)" cx="715.98" cy="628.048" r="7.2" fill="#009af9" fill-rule="evenodd" fill-opacity="1" stroke="#000000" stroke-opacity="1" stroke-width="3.2"/>
<circle clip-path="url(#clip232)" cx="736.699" cy="644.077" r="7.2" fill="#009af9" fill-rule="evenodd" fill-opacity="1" stroke="#000000" stroke-opacity="1" stroke-width="3.2"/>
<circle clip-path="url(#clip232)" cx="757.418" cy="630.897" r="7.2" fill="#009af9" fill-rule="evenodd" fill-opacity="1" stroke="#000000" stroke-opacity="1" stroke-width="3.2"/>
<circle clip-path="url(#clip232)" cx="778.136" cy="651.508" r="7.2" fill="#009af9" fill-rule="evenodd" fill-opacity="1" stroke="#000000" stroke-opacity="1" stroke-width="3.2"/>
<circle clip-path="url(#clip232)" cx="798.855" cy="629.959" r="7.2" fill="#009af9" fill-rule="evenodd" fill-opacity="1" stroke="#000000" stroke-opacity="1" stroke-width="3.2"/>
<circle clip-path="url(#clip232)" cx="819.574" cy="662.38" r="7.2" fill="#009af9" fill-rule="evenodd" fill-opacity="1" stroke="#000000" stroke-opacity="1" stroke-width="3.2"/>
<circle clip-path="url(#clip232)" cx="840.292" cy="633.375" r="7.2" fill="#009af9" fill-rule="evenodd" fill-opacity="1" stroke="#000000" stroke-opacity="1" stroke-width="3.2"/>
<circle clip-path="url(#clip232)" cx="861.011" cy="650.433" r="7.2" fill="#009af9" fill-rule="evenodd" fill-opacity="1" stroke="#000000" stroke-opacity="1" stroke-width="3.2"/>
<circle clip-path="url(#clip232)" cx="881.73" cy="630.645" r="7.2" fill="#009af9" fill-rule="evenodd" fill-opacity="1" stroke="#000000" stroke-opacity="1" stroke-width="3.2"/>
<circle clip-path="url(#clip232)" cx="902.448" cy="646.039" r="7.2" fill="#009af9" fill-rule="evenodd" fill-opacity="1" stroke="#000000" stroke-opacity="1" stroke-width="3.2"/>
<circle clip-path="url(#clip232)" cx="923.167" cy="633.055" r="7.2" fill="#009af9" fill-rule="evenodd" fill-opacity="1" stroke="#000000" stroke-opacity="1" stroke-width="3.2"/>
<circle clip-path="url(#clip232)" cx="943.886" cy="645.608" r="7.2" fill="#009af9" fill-rule="evenodd" fill-opacity="1" stroke="#000000" stroke-opacity="1" stroke-width="3.2"/>
<circle clip-path="url(#clip232)" cx="964.604" cy="639.236" r="7.2" fill="#009af9" fill-rule="evenodd" fill-opacity="1" stroke="#000000" stroke-opacity="1" stroke-width="3.2"/>
<circle clip-path="url(#clip232)" cx="985.323" cy="646.003" r="7.2" fill="#009af9" fill-rule="evenodd" fill-opacity="1" stroke="#000000" stroke-opacity="1" stroke-width="3.2"/>
<circle clip-path="url(#clip232)" cx="1006.04" cy="629.191" r="7.2" fill="#009af9" fill-rule="evenodd" fill-opacity="1" stroke="#000000" stroke-opacity="1" stroke-width="3.2"/>
<circle clip-path="url(#clip232)" cx="1026.76" cy="648.93" r="7.2" fill="#009af9" fill-rule="evenodd" fill-opacity="1" stroke="#000000" stroke-opacity="1" stroke-width="3.2"/>
<circle clip-path="url(#clip232)" cx="1047.48" cy="629.191" r="7.2" fill="#009af9" fill-rule="evenodd" fill-opacity="1" stroke="#000000" stroke-opacity="1" stroke-width="3.2"/>
<circle clip-path="url(#clip232)" cx="1068.2" cy="648.628" r="7.2" fill="#009af9" fill-rule="evenodd" fill-opacity="1" stroke="#000000" stroke-opacity="1" stroke-width="3.2"/>
<circle clip-path="url(#clip232)" cx="1088.92" cy="632.146" r="7.2" fill="#009af9" fill-rule="evenodd" fill-opacity="1" stroke="#000000" stroke-opacity="1" stroke-width="3.2"/>
<circle clip-path="url(#clip232)" cx="1109.64" cy="659.266" r="7.2" fill="#009af9" fill-rule="evenodd" fill-opacity="1" stroke="#000000" stroke-opacity="1" stroke-width="3.2"/>
<circle clip-path="url(#clip232)" cx="1130.35" cy="630.914" r="7.2" fill="#009af9" fill-rule="evenodd" fill-opacity="1" stroke="#000000" stroke-opacity="1" stroke-width="3.2"/>
<circle clip-path="url(#clip232)" cx="1151.07" cy="648.473" r="7.2" fill="#009af9" fill-rule="evenodd" fill-opacity="1" stroke="#000000" stroke-opacity="1" stroke-width="3.2"/>
<circle clip-path="url(#clip232)" cx="1171.79" cy="632.547" r="7.2" fill="#009af9" fill-rule="evenodd" fill-opacity="1" stroke="#000000" stroke-opacity="1" stroke-width="3.2"/>
<circle clip-path="url(#clip232)" cx="1192.51" cy="657.122" r="7.2" fill="#009af9" fill-rule="evenodd" fill-opacity="1" stroke="#000000" stroke-opacity="1" stroke-width="3.2"/>
<circle clip-path="url(#clip232)" cx="1213.23" cy="632.941" r="7.2" fill="#009af9" fill-rule="evenodd" fill-opacity="1" stroke="#000000" stroke-opacity="1" stroke-width="3.2"/>
<circle clip-path="url(#clip232)" cx="1233.95" cy="647.882" r="7.2" fill="#009af9" fill-rule="evenodd" fill-opacity="1" stroke="#000000" stroke-opacity="1" stroke-width="3.2"/>
<circle clip-path="url(#clip232)" cx="1254.67" cy="631.253" r="7.2" fill="#009af9" fill-rule="evenodd" fill-opacity="1" stroke="#000000" stroke-opacity="1" stroke-width="3.2"/>
<circle clip-path="url(#clip232)" cx="1275.38" cy="649.956" r="7.2" fill="#009af9" fill-rule="evenodd" fill-opacity="1" stroke="#000000" stroke-opacity="1" stroke-width="3.2"/>
<circle clip-path="url(#clip232)" cx="1296.1" cy="630.845" r="7.2" fill="#009af9" fill-rule="evenodd" fill-opacity="1" stroke="#000000" stroke-opacity="1" stroke-width="3.2"/>
<circle clip-path="url(#clip232)" cx="1316.82" cy="645.353" r="7.2" fill="#009af9" fill-rule="evenodd" fill-opacity="1" stroke="#000000" stroke-opacity="1" stroke-width="3.2"/>
<circle clip-path="url(#clip232)" cx="1337.54" cy="627.769" r="7.2" fill="#009af9" fill-rule="evenodd" fill-opacity="1" stroke="#000000" stroke-opacity="1" stroke-width="3.2"/>
<circle clip-path="url(#clip232)" cx="1358.26" cy="651.292" r="7.2" fill="#009af9" fill-rule="evenodd" fill-opacity="1" stroke="#000000" stroke-opacity="1" stroke-width="3.2"/>
<circle clip-path="url(#clip232)" cx="1378.98" cy="633.155" r="7.2" fill="#009af9" fill-rule="evenodd" fill-opacity="1" stroke="#000000" stroke-opacity="1" stroke-width="3.2"/>
<circle clip-path="url(#clip232)" cx="1399.7" cy="650.765" r="7.2" fill="#009af9" fill-rule="evenodd" fill-opacity="1" stroke="#000000" stroke-opacity="1" stroke-width="3.2"/>
<circle clip-path="url(#clip232)" cx="1420.42" cy="626.584" r="7.2" fill="#009af9" fill-rule="evenodd" fill-opacity="1" stroke="#000000" stroke-opacity="1" stroke-width="3.2"/>
<circle clip-path="url(#clip232)" cx="1441.13" cy="650.72" r="7.2" fill="#009af9" fill-rule="evenodd" fill-opacity="1" stroke="#000000" stroke-opacity="1" stroke-width="3.2"/>
<circle clip-path="url(#clip232)" cx="1461.85" cy="632.933" r="7.2" fill="#009af9" fill-rule="evenodd" fill-opacity="1" stroke="#000000" stroke-opacity="1" stroke-width="3.2"/>
<circle clip-path="url(#clip232)" cx="1482.57" cy="650.173" r="7.2" fill="#009af9" fill-rule="evenodd" fill-opacity="1" stroke="#000000" stroke-opacity="1" stroke-width="3.2"/>
<circle clip-path="url(#clip232)" cx="1503.29" cy="634.273" r="7.2" fill="#009af9" fill-rule="evenodd" fill-opacity="1" stroke="#000000" stroke-opacity="1" stroke-width="3.2"/>
<circle clip-path="url(#clip232)" cx="1524.01" cy="656.016" r="7.2" fill="#009af9" fill-rule="evenodd" fill-opacity="1" stroke="#000000" stroke-opacity="1" stroke-width="3.2"/>
<circle clip-path="url(#clip232)" cx="1544.73" cy="630.157" r="7.2" fill="#009af9" fill-rule="evenodd" fill-opacity="1" stroke="#000000" stroke-opacity="1" stroke-width="3.2"/>
<circle clip-path="url(#clip232)" cx="1565.45" cy="673.846" r="7.2" fill="#009af9" fill-rule="evenodd" fill-opacity="1" stroke="#000000" stroke-opacity="1" stroke-width="3.2"/>
<circle clip-path="url(#clip232)" cx="1586.16" cy="635.043" r="7.2" fill="#009af9" fill-rule="evenodd" fill-opacity="1" stroke="#000000" stroke-opacity="1" stroke-width="3.2"/>
<circle clip-path="url(#clip232)" cx="1606.88" cy="645.838" r="7.2" fill="#009af9" fill-rule="evenodd" fill-opacity="1" stroke="#000000" stroke-opacity="1" stroke-width="3.2"/>
<circle clip-path="url(#clip232)" cx="1627.6" cy="628.105" r="7.2" fill="#009af9" fill-rule="evenodd" fill-opacity="1" stroke="#000000" stroke-opacity="1" stroke-width="3.2"/>
<circle clip-path="url(#clip232)" cx="1648.32" cy="661.342" r="7.2" fill="#009af9" fill-rule="evenodd" fill-opacity="1" stroke="#000000" stroke-opacity="1" stroke-width="3.2"/>
<circle clip-path="url(#clip232)" cx="1669.04" cy="638.358" r="7.2" fill="#009af9" fill-rule="evenodd" fill-opacity="1" stroke="#000000" stroke-opacity="1" stroke-width="3.2"/>
<circle clip-path="url(#clip232)" cx="1689.76" cy="653.029" r="7.2" fill="#009af9" fill-rule="evenodd" fill-opacity="1" stroke="#000000" stroke-opacity="1" stroke-width="3.2"/>
<circle clip-path="url(#clip232)" cx="1710.48" cy="633.666" r="7.2" fill="#009af9" fill-rule="evenodd" fill-opacity="1" stroke="#000000" stroke-opacity="1" stroke-width="3.2"/>
<circle clip-path="url(#clip232)" cx="1731.2" cy="648.733" r="7.2" fill="#009af9" fill-rule="evenodd" fill-opacity="1" stroke="#000000" stroke-opacity="1" stroke-width="3.2"/>
<circle clip-path="url(#clip232)" cx="1751.91" cy="633.496" r="7.2" fill="#009af9" fill-rule="evenodd" fill-opacity="1" stroke="#000000" stroke-opacity="1" stroke-width="3.2"/>
<circle clip-path="url(#clip232)" cx="1772.63" cy="648.457" r="7.2" fill="#009af9" fill-rule="evenodd" fill-opacity="1" stroke="#000000" stroke-opacity="1" stroke-width="3.2"/>
<circle clip-path="url(#clip232)" cx="1793.35" cy="640.086" r="7.2" fill="#009af9" fill-rule="evenodd" fill-opacity="1" stroke="#000000" stroke-opacity="1" stroke-width="3.2"/>
<circle clip-path="url(#clip232)" cx="1814.07" cy="644.977" r="7.2" fill="#009af9" fill-rule="evenodd" fill-opacity="1" stroke="#000000" stroke-opacity="1" stroke-width="3.2"/>
<circle clip-path="url(#clip232)" cx="1834.79" cy="631.48" r="7.2" fill="#009af9" fill-rule="evenodd" fill-opacity="1" stroke="#000000" stroke-opacity="1" stroke-width="3.2"/>
<circle clip-path="url(#clip232)" cx="1855.51" cy="665.287" r="7.2" fill="#009af9" fill-rule="evenodd" fill-opacity="1" stroke="#000000" stroke-opacity="1" stroke-width="3.2"/>
<circle clip-path="url(#clip232)" cx="1876.23" cy="639.146" r="7.2" fill="#009af9" fill-rule="evenodd" fill-opacity="1" stroke="#000000" stroke-opacity="1" stroke-width="3.2"/>
<circle clip-path="url(#clip232)" cx="1896.94" cy="643.694" r="7.2" fill="#009af9" fill-rule="evenodd" fill-opacity="1" stroke="#000000" stroke-opacity="1" stroke-width="3.2"/>
<circle clip-path="url(#clip232)" cx="1917.66" cy="636.856" r="7.2" fill="#009af9" fill-rule="evenodd" fill-opacity="1" stroke="#000000" stroke-opacity="1" stroke-width="3.2"/>
<circle clip-path="url(#clip232)" cx="1938.38" cy="659.482" r="7.2" fill="#009af9" fill-rule="evenodd" fill-opacity="1" stroke="#000000" stroke-opacity="1" stroke-width="3.2"/>
<circle clip-path="url(#clip232)" cx="1959.1" cy="635.388" r="7.2" fill="#009af9" fill-rule="evenodd" fill-opacity="1" stroke="#000000" stroke-opacity="1" stroke-width="3.2"/>
<circle clip-path="url(#clip232)" cx="1979.82" cy="649.624" r="7.2" fill="#009af9" fill-rule="evenodd" fill-opacity="1" stroke="#000000" stroke-opacity="1" stroke-width="3.2"/>
<circle clip-path="url(#clip232)" cx="2000.54" cy="636.104" r="7.2" fill="#009af9" fill-rule="evenodd" fill-opacity="1" stroke="#000000" stroke-opacity="1" stroke-width="3.2"/>
<circle clip-path="url(#clip232)" cx="2021.26" cy="658.211" r="7.2" fill="#009af9" fill-rule="evenodd" fill-opacity="1" stroke="#000000" stroke-opacity="1" stroke-width="3.2"/>
<circle clip-path="url(#clip232)" cx="2041.98" cy="642.195" r="7.2" fill="#009af9" fill-rule="evenodd" fill-opacity="1" stroke="#000000" stroke-opacity="1" stroke-width="3.2"/>
<circle clip-path="url(#clip232)" cx="2062.69" cy="658.931" r="7.2" fill="#009af9" fill-rule="evenodd" fill-opacity="1" stroke="#000000" stroke-opacity="1" stroke-width="3.2"/>
<circle clip-path="url(#clip232)" cx="2083.41" cy="638.277" r="7.2" fill="#009af9" fill-rule="evenodd" fill-opacity="1" stroke="#000000" stroke-opacity="1" stroke-width="3.2"/>
<circle clip-path="url(#clip232)" cx="2104.13" cy="654.222" r="7.2" fill="#009af9" fill-rule="evenodd" fill-opacity="1" stroke="#000000" stroke-opacity="1" stroke-width="3.2"/>
<circle clip-path="url(#clip232)" cx="2124.85" cy="632.851" r="7.2" fill="#009af9" fill-rule="evenodd" fill-opacity="1" stroke="#000000" stroke-opacity="1" stroke-width="3.2"/>
<circle clip-path="url(#clip232)" cx="2145.57" cy="669.846" r="7.2" fill="#009af9" fill-rule="evenodd" fill-opacity="1" stroke="#000000" stroke-opacity="1" stroke-width="3.2"/>
<circle clip-path="url(#clip232)" cx="2166.29" cy="628.782" r="7.2" fill="#009af9" fill-rule="evenodd" fill-opacity="1" stroke="#000000" stroke-opacity="1" stroke-width="3.2"/>
<circle clip-path="url(#clip232)" cx="2187.01" cy="661.984" r="7.2" fill="#009af9" fill-rule="evenodd" fill-opacity="1" stroke="#000000" stroke-opacity="1" stroke-width="3.2"/>
<circle clip-path="url(#clip232)" cx="2207.73" cy="630.149" r="7.2" fill="#009af9" fill-rule="evenodd" fill-opacity="1" stroke="#000000" stroke-opacity="1" stroke-width="3.2"/>
<circle clip-path="url(#clip232)" cx="2228.44" cy="672.858" r="7.2" fill="#009af9" fill-rule="evenodd" fill-opacity="1" stroke="#000000" stroke-opacity="1" stroke-width="3.2"/>
<circle clip-path="url(#clip232)" cx="2249.16" cy="637.255" r="7.2" fill="#009af9" fill-rule="evenodd" fill-opacity="1" stroke="#000000" stroke-opacity="1" stroke-width="3.2"/>
<path clip-path="url(#clip230)" d="
M2015.79 270.476 L2281.62 270.476 L2281.62 166.796 L2015.79 166.796  Z
  " fill="#ffffff" fill-rule="evenodd" fill-opacity="1"/>
<polyline clip-path="url(#clip230)" style="stroke:#000000; stroke-linecap:round; stroke-linejoin:round; stroke-width:4; stroke-opacity:1; fill:none" points="
  2015.79,270.476 2281.62,270.476 2281.62,166.796 2015.79,166.796 2015.79,270.476 
  "/>
<circle clip-path="url(#clip230)" cx="2110.63" cy="218.636" r="23.04" fill="#009af9" fill-rule="evenodd" fill-opacity="1" stroke="#000000" stroke-opacity="1" stroke-width="10.24"/>
<path clip-path="url(#clip230)" d="M2219.32 238.323 Q2217.52 242.953 2215.8 244.365 Q2214.09 245.777 2211.22 245.777 L2207.82 245.777 L2207.82 242.212 L2210.32 242.212 Q2212.08 242.212 2213.05 241.379 Q2214.02 240.545 2215.2 237.443 L2215.97 235.499 L2205.48 209.99 L2209.99 209.99 L2218.1 230.268 L2226.2 209.99 L2230.71 209.99 L2219.32 238.323 Z" fill="#000000" fill-rule="evenodd" fill-opacity="1" /><path clip-path="url(#clip230)" d="M2238 231.981 L2245.64 231.981 L2245.64 205.615 L2237.33 207.282 L2237.33 203.022 L2245.6 201.356 L2250.27 201.356 L2250.27 231.981 L2257.91 231.981 L2257.91 235.916 L2238 235.916 L2238 231.981 Z" fill="#000000" fill-rule="evenodd" fill-opacity="1" /></svg>
