<?xml version="1.0" encoding="utf-8"?>
<svg xmlns="http://www.w3.org/2000/svg" xmlns:xlink="http://www.w3.org/1999/xlink" width="600" height="400" viewBox="0 0 2400 1600">
<defs>
  <clipPath id="clip870">
    <rect x="0" y="0" width="2400" height="1600"/>
  </clipPath>
</defs>
<path clip-path="url(#clip870)" d="
M0 1600 L2400 1600 L2400 0 L0 0  Z
  " fill="#ffffff" fill-rule="evenodd" fill-opacity="1"/>
<defs>
  <clipPath id="clip871">
    <rect x="480" y="0" width="1681" height="1600"/>
  </clipPath>
</defs>
<path clip-path="url(#clip870)" d="
M255.977 1423.18 L2352.76 1423.18 L2352.76 123.472 L255.977 123.472  Z
  " fill="#ffffff" fill-rule="evenodd" fill-opacity="1"/>
<defs>
  <clipPath id="clip872">
    <rect x="255" y="123" width="2098" height="1301"/>
  </clipPath>
</defs>
<polyline clip-path="url(#clip872)" style="stroke:#000000; stroke-linecap:round; stroke-linejoin:round; stroke-width:2; stroke-opacity:0.1; fill:none" points="
  336.623,1423.18 336.623,123.472 
  "/>
<polyline clip-path="url(#clip872)" style="stroke:#000000; stroke-linecap:round; stroke-linejoin:round; stroke-width:2; stroke-opacity:0.1; fill:none" points="
  417.268,1423.18 417.268,123.472 
  "/>
<polyline clip-path="url(#clip872)" style="stroke:#000000; stroke-linecap:round; stroke-linejoin:round; stroke-width:2; stroke-opacity:0.1; fill:none" points="
  497.913,1423.18 497.913,123.472 
  "/>
<polyline clip-path="url(#clip872)" style="stroke:#000000; stroke-linecap:round; stroke-linejoin:round; stroke-width:2; stroke-opacity:0.1; fill:none" points="
  578.559,1423.18 578.559,123.472 
  "/>
<polyline clip-path="url(#clip872)" style="stroke:#000000; stroke-linecap:round; stroke-linejoin:round; stroke-width:2; stroke-opacity:0.1; fill:none" points="
  659.204,1423.18 659.204,123.472 
  "/>
<polyline clip-path="url(#clip872)" style="stroke:#000000; stroke-linecap:round; stroke-linejoin:round; stroke-width:2; stroke-opacity:0.1; fill:none" points="
  739.849,1423.18 739.849,123.472 
  "/>
<polyline clip-path="url(#clip872)" style="stroke:#000000; stroke-linecap:round; stroke-linejoin:round; stroke-width:2; stroke-opacity:0.1; fill:none" points="
  820.495,1423.18 820.495,123.472 
  "/>
<polyline clip-path="url(#clip872)" style="stroke:#000000; stroke-linecap:round; stroke-linejoin:round; stroke-width:2; stroke-opacity:0.1; fill:none" points="
  901.14,1423.18 901.14,123.472 
  "/>
<polyline clip-path="url(#clip872)" style="stroke:#000000; stroke-linecap:round; stroke-linejoin:round; stroke-width:2; stroke-opacity:0.1; fill:none" points="
  981.785,1423.18 981.785,123.472 
  "/>
<polyline clip-path="url(#clip872)" style="stroke:#000000; stroke-linecap:round; stroke-linejoin:round; stroke-width:2; stroke-opacity:0.1; fill:none" points="
  1062.43,1423.18 1062.43,123.472 
  "/>
<polyline clip-path="url(#clip872)" style="stroke:#000000; stroke-linecap:round; stroke-linejoin:round; stroke-width:2; stroke-opacity:0.1; fill:none" points="
  1143.08,1423.18 1143.08,123.472 
  "/>
<polyline clip-path="url(#clip872)" style="stroke:#000000; stroke-linecap:round; stroke-linejoin:round; stroke-width:2; stroke-opacity:0.1; fill:none" points="
  1223.72,1423.18 1223.72,123.472 
  "/>
<polyline clip-path="url(#clip872)" style="stroke:#000000; stroke-linecap:round; stroke-linejoin:round; stroke-width:2; stroke-opacity:0.1; fill:none" points="
  1304.37,1423.18 1304.37,123.472 
  "/>
<polyline clip-path="url(#clip872)" style="stroke:#000000; stroke-linecap:round; stroke-linejoin:round; stroke-width:2; stroke-opacity:0.1; fill:none" points="
  1385.01,1423.18 1385.01,123.472 
  "/>
<polyline clip-path="url(#clip872)" style="stroke:#000000; stroke-linecap:round; stroke-linejoin:round; stroke-width:2; stroke-opacity:0.1; fill:none" points="
  1465.66,1423.18 1465.66,123.472 
  "/>
<polyline clip-path="url(#clip872)" style="stroke:#000000; stroke-linecap:round; stroke-linejoin:round; stroke-width:2; stroke-opacity:0.1; fill:none" points="
  1546.3,1423.18 1546.3,123.472 
  "/>
<polyline clip-path="url(#clip872)" style="stroke:#000000; stroke-linecap:round; stroke-linejoin:round; stroke-width:2; stroke-opacity:0.1; fill:none" points="
  1626.95,1423.18 1626.95,123.472 
  "/>
<polyline clip-path="url(#clip872)" style="stroke:#000000; stroke-linecap:round; stroke-linejoin:round; stroke-width:2; stroke-opacity:0.1; fill:none" points="
  1707.59,1423.18 1707.59,123.472 
  "/>
<polyline clip-path="url(#clip872)" style="stroke:#000000; stroke-linecap:round; stroke-linejoin:round; stroke-width:2; stroke-opacity:0.1; fill:none" points="
  1788.24,1423.18 1788.24,123.472 
  "/>
<polyline clip-path="url(#clip872)" style="stroke:#000000; stroke-linecap:round; stroke-linejoin:round; stroke-width:2; stroke-opacity:0.1; fill:none" points="
  1868.88,1423.18 1868.88,123.472 
  "/>
<polyline clip-path="url(#clip872)" style="stroke:#000000; stroke-linecap:round; stroke-linejoin:round; stroke-width:2; stroke-opacity:0.1; fill:none" points="
  1949.53,1423.18 1949.53,123.472 
  "/>
<polyline clip-path="url(#clip872)" style="stroke:#000000; stroke-linecap:round; stroke-linejoin:round; stroke-width:2; stroke-opacity:0.1; fill:none" points="
  2030.17,1423.18 2030.17,123.472 
  "/>
<polyline clip-path="url(#clip872)" style="stroke:#000000; stroke-linecap:round; stroke-linejoin:round; stroke-width:2; stroke-opacity:0.1; fill:none" points="
  2110.82,1423.18 2110.82,123.472 
  "/>
<polyline clip-path="url(#clip872)" style="stroke:#000000; stroke-linecap:round; stroke-linejoin:round; stroke-width:2; stroke-opacity:0.1; fill:none" points="
  2191.47,1423.18 2191.47,123.472 
  "/>
<polyline clip-path="url(#clip872)" style="stroke:#000000; stroke-linecap:round; stroke-linejoin:round; stroke-width:2; stroke-opacity:0.1; fill:none" points="
  2272.11,1423.18 2272.11,123.472 
  "/>
<polyline clip-path="url(#clip872)" style="stroke:#000000; stroke-linecap:round; stroke-linejoin:round; stroke-width:2; stroke-opacity:0.1; fill:none" points="
  2352.76,1423.18 2352.76,123.472 
  "/>
<polyline clip-path="url(#clip870)" style="stroke:#000000; stroke-linecap:round; stroke-linejoin:round; stroke-width:4; stroke-opacity:1; fill:none" points="
  255.977,1423.18 2352.76,1423.18 
  "/>
<polyline clip-path="url(#clip870)" style="stroke:#000000; stroke-linecap:round; stroke-linejoin:round; stroke-width:4; stroke-opacity:1; fill:none" points="
  336.623,1423.18 336.623,1404.28 
  "/>
<polyline clip-path="url(#clip870)" style="stroke:#000000; stroke-linecap:round; stroke-linejoin:round; stroke-width:4; stroke-opacity:1; fill:none" points="
  417.268,1423.18 417.268,1404.28 
  "/>
<polyline clip-path="url(#clip870)" style="stroke:#000000; stroke-linecap:round; stroke-linejoin:round; stroke-width:4; stroke-opacity:1; fill:none" points="
  497.913,1423.18 497.913,1404.28 
  "/>
<polyline clip-path="url(#clip870)" style="stroke:#000000; stroke-linecap:round; stroke-linejoin:round; stroke-width:4; stroke-opacity:1; fill:none" points="
  578.559,1423.18 578.559,1404.28 
  "/>
<polyline clip-path="url(#clip870)" style="stroke:#000000; stroke-linecap:round; stroke-linejoin:round; stroke-width:4; stroke-opacity:1; fill:none" points="
  659.204,1423.18 659.204,1404.28 
  "/>
<polyline clip-path="url(#clip870)" style="stroke:#000000; stroke-linecap:round; stroke-linejoin:round; stroke-width:4; stroke-opacity:1; fill:none" points="
  739.849,1423.18 739.849,1404.28 
  "/>
<polyline clip-path="url(#clip870)" style="stroke:#000000; stroke-linecap:round; stroke-linejoin:round; stroke-width:4; stroke-opacity:1; fill:none" points="
  820.495,1423.18 820.495,1404.28 
  "/>
<polyline clip-path="url(#clip870)" style="stroke:#000000; stroke-linecap:round; stroke-linejoin:round; stroke-width:4; stroke-opacity:1; fill:none" points="
  901.14,1423.18 901.14,1404.28 
  "/>
<polyline clip-path="url(#clip870)" style="stroke:#000000; stroke-linecap:round; stroke-linejoin:round; stroke-width:4; stroke-opacity:1; fill:none" points="
  981.785,1423.18 981.785,1404.28 
  "/>
<polyline clip-path="url(#clip870)" style="stroke:#000000; stroke-linecap:round; stroke-linejoin:round; stroke-width:4; stroke-opacity:1; fill:none" points="
  1062.43,1423.18 1062.43,1404.28 
  "/>
<polyline clip-path="url(#clip870)" style="stroke:#000000; stroke-linecap:round; stroke-linejoin:round; stroke-width:4; stroke-opacity:1; fill:none" points="
  1143.08,1423.18 1143.08,1404.28 
  "/>
<polyline clip-path="url(#clip870)" style="stroke:#000000; stroke-linecap:round; stroke-linejoin:round; stroke-width:4; stroke-opacity:1; fill:none" points="
  1223.72,1423.18 1223.72,1404.28 
  "/>
<polyline clip-path="url(#clip870)" style="stroke:#000000; stroke-linecap:round; stroke-linejoin:round; stroke-width:4; stroke-opacity:1; fill:none" points="
  1304.37,1423.18 1304.37,1404.28 
  "/>
<polyline clip-path="url(#clip870)" style="stroke:#000000; stroke-linecap:round; stroke-linejoin:round; stroke-width:4; stroke-opacity:1; fill:none" points="
  1385.01,1423.18 1385.01,1404.28 
  "/>
<polyline clip-path="url(#clip870)" style="stroke:#000000; stroke-linecap:round; stroke-linejoin:round; stroke-width:4; stroke-opacity:1; fill:none" points="
  1465.66,1423.18 1465.66,1404.28 
  "/>
<polyline clip-path="url(#clip870)" style="stroke:#000000; stroke-linecap:round; stroke-linejoin:round; stroke-width:4; stroke-opacity:1; fill:none" points="
  1546.3,1423.18 1546.3,1404.28 
  "/>
<polyline clip-path="url(#clip870)" style="stroke:#000000; stroke-linecap:round; stroke-linejoin:round; stroke-width:4; stroke-opacity:1; fill:none" points="
  1626.95,1423.18 1626.95,1404.28 
  "/>
<polyline clip-path="url(#clip870)" style="stroke:#000000; stroke-linecap:round; stroke-linejoin:round; stroke-width:4; stroke-opacity:1; fill:none" points="
  1707.59,1423.18 1707.59,1404.28 
  "/>
<polyline clip-path="url(#clip870)" style="stroke:#000000; stroke-linecap:round; stroke-linejoin:round; stroke-width:4; stroke-opacity:1; fill:none" points="
  1788.24,1423.18 1788.24,1404.28 
  "/>
<polyline clip-path="url(#clip870)" style="stroke:#000000; stroke-linecap:round; stroke-linejoin:round; stroke-width:4; stroke-opacity:1; fill:none" points="
  1868.88,1423.18 1868.88,1404.28 
  "/>
<polyline clip-path="url(#clip870)" style="stroke:#000000; stroke-linecap:round; stroke-linejoin:round; stroke-width:4; stroke-opacity:1; fill:none" points="
  1949.53,1423.18 1949.53,1404.28 
  "/>
<polyline clip-path="url(#clip870)" style="stroke:#000000; stroke-linecap:round; stroke-linejoin:round; stroke-width:4; stroke-opacity:1; fill:none" points="
  2030.17,1423.18 2030.17,1404.28 
  "/>
<polyline clip-path="url(#clip870)" style="stroke:#000000; stroke-linecap:round; stroke-linejoin:round; stroke-width:4; stroke-opacity:1; fill:none" points="
  2110.82,1423.18 2110.82,1404.28 
  "/>
<polyline clip-path="url(#clip870)" style="stroke:#000000; stroke-linecap:round; stroke-linejoin:round; stroke-width:4; stroke-opacity:1; fill:none" points="
  2191.47,1423.18 2191.47,1404.28 
  "/>
<polyline clip-path="url(#clip870)" style="stroke:#000000; stroke-linecap:round; stroke-linejoin:round; stroke-width:4; stroke-opacity:1; fill:none" points="
  2272.11,1423.18 2272.11,1404.28 
  "/>
<polyline clip-path="url(#clip870)" style="stroke:#000000; stroke-linecap:round; stroke-linejoin:round; stroke-width:4; stroke-opacity:1; fill:none" points="
  2352.76,1423.18 2352.76,1404.28 
  "/>
<path clip-path="url(#clip870)" d="M327.005 1481.64 L334.643 1481.64 L334.643 1455.28 L326.333 1456.95 L326.333 1452.69 L334.597 1451.02 L339.273 1451.02 L339.273 1481.64 L346.912 1481.64 L346.912 1485.58 L327.005 1485.58 L327.005 1481.64 Z" fill="#000000" fill-rule="evenodd" fill-opacity="1" /><path clip-path="url(#clip870)" d="M421.516 1466.95 Q424.872 1467.66 426.747 1469.93 Q428.645 1472.2 428.645 1475.53 Q428.645 1480.65 425.127 1483.45 Q421.608 1486.25 415.127 1486.25 Q412.951 1486.25 410.636 1485.81 Q408.344 1485.39 405.891 1484.54 L405.891 1480.02 Q407.835 1481.16 410.15 1481.74 Q412.465 1482.32 414.988 1482.32 Q419.386 1482.32 421.678 1480.58 Q423.992 1478.84 423.992 1475.53 Q423.992 1472.48 421.84 1470.77 Q419.71 1469.03 415.891 1469.03 L411.863 1469.03 L411.863 1465.19 L416.076 1465.19 Q419.525 1465.19 421.353 1463.82 Q423.182 1462.43 423.182 1459.84 Q423.182 1457.18 421.284 1455.77 Q419.409 1454.33 415.891 1454.33 Q413.969 1454.33 411.77 1454.75 Q409.571 1455.16 406.932 1456.04 L406.932 1451.88 Q409.594 1451.14 411.909 1450.77 Q414.247 1450.39 416.307 1450.39 Q421.631 1450.39 424.733 1452.83 Q427.835 1455.23 427.835 1459.35 Q427.835 1462.22 426.191 1464.21 Q424.548 1466.18 421.516 1466.95 Z" fill="#000000" fill-rule="evenodd" fill-opacity="1" /><path clip-path="url(#clip870)" d="M488.191 1451.02 L506.547 1451.02 L506.547 1454.96 L492.473 1454.96 L492.473 1463.43 Q493.492 1463.08 494.51 1462.92 Q495.529 1462.73 496.547 1462.73 Q502.334 1462.73 505.714 1465.9 Q509.094 1469.08 509.094 1474.49 Q509.094 1480.07 505.621 1483.17 Q502.149 1486.25 495.83 1486.25 Q493.654 1486.25 491.385 1485.88 Q489.14 1485.51 486.733 1484.77 L486.733 1480.07 Q488.816 1481.2 491.038 1481.76 Q493.26 1482.32 495.737 1482.32 Q499.742 1482.32 502.08 1480.21 Q504.418 1478.1 504.418 1474.49 Q504.418 1470.88 502.08 1468.77 Q499.742 1466.67 495.737 1466.67 Q493.862 1466.67 491.987 1467.08 Q490.135 1467.5 488.191 1468.38 L488.191 1451.02 Z" fill="#000000" fill-rule="evenodd" fill-opacity="1" /><path clip-path="url(#clip870)" d="M567.447 1451.02 L589.67 1451.02 L589.67 1453.01 L577.123 1485.58 L572.239 1485.58 L584.045 1454.96 L567.447 1454.96 L567.447 1451.02 Z" fill="#000000" fill-rule="evenodd" fill-opacity="1" /><path clip-path="url(#clip870)" d="M649.505 1484.86 L649.505 1480.6 Q651.264 1481.44 653.07 1481.88 Q654.875 1482.32 656.611 1482.32 Q661.241 1482.32 663.671 1479.21 Q666.125 1476.09 666.472 1469.75 Q665.13 1471.74 663.07 1472.8 Q661.009 1473.87 658.509 1473.87 Q653.324 1473.87 650.292 1470.74 Q647.283 1467.59 647.283 1462.15 Q647.283 1456.83 650.431 1453.61 Q653.579 1450.39 658.81 1450.39 Q664.806 1450.39 667.954 1455 Q671.125 1459.58 671.125 1468.33 Q671.125 1476.51 667.236 1481.39 Q663.371 1486.25 656.82 1486.25 Q655.06 1486.25 653.255 1485.9 Q651.449 1485.56 649.505 1484.86 M658.81 1470.21 Q661.958 1470.21 663.787 1468.06 Q665.639 1465.9 665.639 1462.15 Q665.639 1458.43 663.787 1456.27 Q661.958 1454.1 658.81 1454.1 Q655.662 1454.1 653.81 1456.27 Q651.982 1458.43 651.982 1462.15 Q651.982 1465.9 653.81 1468.06 Q655.662 1470.21 658.81 1470.21 Z" fill="#000000" fill-rule="evenodd" fill-opacity="1" /><path clip-path="url(#clip870)" d="M715.15 1481.64 L722.789 1481.64 L722.789 1455.28 L714.479 1456.95 L714.479 1452.69 L722.743 1451.02 L727.419 1451.02 L727.419 1481.64 L735.058 1481.64 L735.058 1485.58 L715.15 1485.58 L715.15 1481.64 Z" fill="#000000" fill-rule="evenodd" fill-opacity="1" /><path clip-path="url(#clip870)" d="M745.312 1481.64 L752.951 1481.64 L752.951 1455.28 L744.641 1456.95 L744.641 1452.69 L752.905 1451.02 L757.581 1451.02 L757.581 1481.64 L765.219 1481.64 L765.219 1485.58 L745.312 1485.58 L745.312 1481.64 Z" fill="#000000" fill-rule="evenodd" fill-opacity="1" /><path clip-path="url(#clip870)" d="M795.506 1481.64 L803.145 1481.64 L803.145 1455.28 L794.835 1456.95 L794.835 1452.69 L803.099 1451.02 L807.775 1451.02 L807.775 1481.64 L815.414 1481.64 L815.414 1485.58 L795.506 1485.58 L795.506 1481.64 Z" fill="#000000" fill-rule="evenodd" fill-opacity="1" /><path clip-path="url(#clip870)" d="M839.025 1466.95 Q842.381 1467.66 844.256 1469.93 Q846.154 1472.2 846.154 1475.53 Q846.154 1480.65 842.636 1483.45 Q839.117 1486.25 832.636 1486.25 Q830.46 1486.25 828.145 1485.81 Q825.853 1485.39 823.4 1484.54 L823.4 1480.02 Q825.344 1481.16 827.659 1481.74 Q829.974 1482.32 832.497 1482.32 Q836.895 1482.32 839.187 1480.58 Q841.501 1478.84 841.501 1475.53 Q841.501 1472.48 839.349 1470.77 Q837.219 1469.03 833.4 1469.03 L829.372 1469.03 L829.372 1465.19 L833.585 1465.19 Q837.034 1465.19 838.862 1463.82 Q840.691 1462.43 840.691 1459.84 Q840.691 1457.18 838.793 1455.77 Q836.918 1454.33 833.4 1454.33 Q831.478 1454.33 829.279 1454.75 Q827.08 1455.16 824.441 1456.04 L824.441 1451.88 Q827.103 1451.14 829.418 1450.77 Q831.756 1450.39 833.816 1450.39 Q839.14 1450.39 842.242 1452.83 Q845.344 1455.23 845.344 1459.35 Q845.344 1462.22 843.7 1464.21 Q842.057 1466.18 839.025 1466.95 Z" fill="#000000" fill-rule="evenodd" fill-opacity="1" /><path clip-path="url(#clip870)" d="M876.325 1481.64 L883.964 1481.64 L883.964 1455.28 L875.654 1456.95 L875.654 1452.69 L883.918 1451.02 L888.594 1451.02 L888.594 1481.64 L896.232 1481.64 L896.232 1485.58 L876.325 1485.58 L876.325 1481.64 Z" fill="#000000" fill-rule="evenodd" fill-opacity="1" /><path clip-path="url(#clip870)" d="M905.723 1451.02 L924.08 1451.02 L924.08 1454.96 L910.006 1454.96 L910.006 1463.43 Q911.024 1463.08 912.043 1462.92 Q913.061 1462.73 914.08 1462.73 Q919.867 1462.73 923.246 1465.9 Q926.626 1469.08 926.626 1474.49 Q926.626 1480.07 923.154 1483.17 Q919.681 1486.25 913.362 1486.25 Q911.186 1486.25 908.918 1485.88 Q906.672 1485.51 904.265 1484.77 L904.265 1480.07 Q906.348 1481.2 908.57 1481.76 Q910.793 1482.32 913.269 1482.32 Q917.274 1482.32 919.612 1480.21 Q921.95 1478.1 921.95 1474.49 Q921.95 1470.88 919.612 1468.77 Q917.274 1466.67 913.269 1466.67 Q911.394 1466.67 909.519 1467.08 Q907.668 1467.5 905.723 1468.38 L905.723 1451.02 Z" fill="#000000" fill-rule="evenodd" fill-opacity="1" /><path clip-path="url(#clip870)" d="M956.924 1481.64 L964.563 1481.64 L964.563 1455.28 L956.253 1456.95 L956.253 1452.69 L964.517 1451.02 L969.193 1451.02 L969.193 1481.64 L976.832 1481.64 L976.832 1485.58 L956.924 1485.58 L956.924 1481.64 Z" fill="#000000" fill-rule="evenodd" fill-opacity="1" /><path clip-path="url(#clip870)" d="M985.095 1451.02 L1007.32 1451.02 L1007.32 1453.01 L994.771 1485.58 L989.887 1485.58 L1001.69 1454.96 L985.095 1454.96 L985.095 1451.02 Z" fill="#000000" fill-rule="evenodd" fill-opacity="1" /><path clip-path="url(#clip870)" d="M1037.21 1481.64 L1044.85 1481.64 L1044.85 1455.28 L1036.54 1456.95 L1036.54 1452.69 L1044.8 1451.02 L1049.48 1451.02 L1049.48 1481.64 L1057.12 1481.64 L1057.12 1485.58 L1037.21 1485.58 L1037.21 1481.64 Z" fill="#000000" fill-rule="evenodd" fill-opacity="1" /><path clip-path="url(#clip870)" d="M1066.7 1484.86 L1066.7 1480.6 Q1068.46 1481.44 1070.27 1481.88 Q1072.07 1482.32 1073.81 1482.32 Q1078.44 1482.32 1080.87 1479.21 Q1083.32 1476.09 1083.67 1469.75 Q1082.33 1471.74 1080.27 1472.8 Q1078.21 1473.87 1075.71 1473.87 Q1070.52 1473.87 1067.49 1470.74 Q1064.48 1467.59 1064.48 1462.15 Q1064.48 1456.83 1067.63 1453.61 Q1070.78 1450.39 1076.01 1450.39 Q1082 1450.39 1085.15 1455 Q1088.32 1459.58 1088.32 1468.33 Q1088.32 1476.51 1084.43 1481.39 Q1080.57 1486.25 1074.02 1486.25 Q1072.26 1486.25 1070.45 1485.9 Q1068.65 1485.56 1066.7 1484.86 M1076.01 1470.21 Q1079.15 1470.21 1080.98 1468.06 Q1082.84 1465.9 1082.84 1462.15 Q1082.84 1458.43 1080.98 1456.27 Q1079.15 1454.1 1076.01 1454.1 Q1072.86 1454.1 1071.01 1456.27 Q1069.18 1458.43 1069.18 1462.15 Q1069.18 1465.9 1071.01 1468.06 Q1072.86 1470.21 1076.01 1470.21 Z" fill="#000000" fill-rule="evenodd" fill-opacity="1" /><path clip-path="url(#clip870)" d="M1122.46 1481.64 L1138.78 1481.64 L1138.78 1485.58 L1116.84 1485.58 L1116.84 1481.64 Q1119.5 1478.89 1124.08 1474.26 Q1128.69 1469.61 1129.87 1468.27 Q1132.12 1465.74 1132.99 1464.01 Q1133.9 1462.25 1133.9 1460.56 Q1133.9 1457.8 1131.95 1456.07 Q1130.03 1454.33 1126.93 1454.33 Q1124.73 1454.33 1122.28 1455.09 Q1119.85 1455.86 1117.07 1457.41 L1117.07 1452.69 Q1119.89 1451.55 1122.35 1450.97 Q1124.8 1450.39 1126.84 1450.39 Q1132.21 1450.39 1135.4 1453.08 Q1138.6 1455.77 1138.6 1460.26 Q1138.6 1462.39 1137.79 1464.31 Q1137 1466.2 1134.89 1468.8 Q1134.31 1469.47 1131.21 1472.69 Q1128.11 1475.88 1122.46 1481.64 Z" fill="#000000" fill-rule="evenodd" fill-opacity="1" /><path clip-path="url(#clip870)" d="M1149.41 1481.64 L1157.05 1481.64 L1157.05 1455.28 L1148.74 1456.95 L1148.74 1452.69 L1157 1451.02 L1161.68 1451.02 L1161.68 1481.64 L1169.31 1481.64 L1169.31 1485.58 L1149.41 1485.58 L1149.41 1481.64 Z" fill="#000000" fill-rule="evenodd" fill-opacity="1" /><path clip-path="url(#clip870)" d="M1202.82 1481.64 L1219.14 1481.64 L1219.14 1485.58 L1197.19 1485.58 L1197.19 1481.64 Q1199.86 1478.89 1204.44 1474.26 Q1209.05 1469.61 1210.23 1468.27 Q1212.47 1465.74 1213.35 1464.01 Q1214.25 1462.25 1214.25 1460.56 Q1214.25 1457.8 1212.31 1456.07 Q1210.39 1454.33 1207.29 1454.33 Q1205.09 1454.33 1202.63 1455.09 Q1200.2 1455.86 1197.43 1457.41 L1197.43 1452.69 Q1200.25 1451.55 1202.7 1450.97 Q1205.16 1450.39 1207.19 1450.39 Q1212.56 1450.39 1215.76 1453.08 Q1218.95 1455.77 1218.95 1460.26 Q1218.95 1462.39 1218.14 1464.31 Q1217.36 1466.2 1215.25 1468.8 Q1214.67 1469.47 1211.57 1472.69 Q1208.47 1475.88 1202.82 1481.64 Z" fill="#000000" fill-rule="evenodd" fill-opacity="1" /><path clip-path="url(#clip870)" d="M1243.12 1466.95 Q1246.48 1467.66 1248.35 1469.93 Q1250.25 1472.2 1250.25 1475.53 Q1250.25 1480.65 1246.73 1483.45 Q1243.21 1486.25 1236.73 1486.25 Q1234.55 1486.25 1232.24 1485.81 Q1229.95 1485.39 1227.49 1484.54 L1227.49 1480.02 Q1229.44 1481.16 1231.75 1481.74 Q1234.07 1482.32 1236.59 1482.32 Q1240.99 1482.32 1243.28 1480.58 Q1245.6 1478.84 1245.6 1475.53 Q1245.6 1472.48 1243.44 1470.77 Q1241.31 1469.03 1237.49 1469.03 L1233.47 1469.03 L1233.47 1465.19 L1237.68 1465.19 Q1241.13 1465.19 1242.96 1463.82 Q1244.79 1462.43 1244.79 1459.84 Q1244.79 1457.18 1242.89 1455.77 Q1241.01 1454.33 1237.49 1454.33 Q1235.57 1454.33 1233.37 1454.75 Q1231.17 1455.16 1228.54 1456.04 L1228.54 1451.88 Q1231.2 1451.14 1233.51 1450.77 Q1235.85 1450.39 1237.91 1450.39 Q1243.23 1450.39 1246.34 1452.83 Q1249.44 1455.23 1249.44 1459.35 Q1249.44 1462.22 1247.8 1464.21 Q1246.15 1466.18 1243.12 1466.95 Z" fill="#000000" fill-rule="evenodd" fill-opacity="1" /><path clip-path="url(#clip870)" d="M1283.64 1481.64 L1299.96 1481.64 L1299.96 1485.58 L1278.01 1485.58 L1278.01 1481.64 Q1280.67 1478.89 1285.26 1474.26 Q1289.86 1469.61 1291.04 1468.27 Q1293.29 1465.74 1294.17 1464.01 Q1295.07 1462.25 1295.07 1460.56 Q1295.07 1457.8 1293.13 1456.07 Q1291.21 1454.33 1288.11 1454.33 Q1285.91 1454.33 1283.45 1455.09 Q1281.02 1455.86 1278.24 1457.41 L1278.24 1452.69 Q1281.07 1451.55 1283.52 1450.97 Q1285.98 1450.39 1288.01 1450.39 Q1293.38 1450.39 1296.58 1453.08 Q1299.77 1455.77 1299.77 1460.26 Q1299.77 1462.39 1298.96 1464.31 Q1298.17 1466.2 1296.07 1468.8 Q1295.49 1469.47 1292.39 1472.69 Q1289.29 1475.88 1283.64 1481.64 Z" fill="#000000" fill-rule="evenodd" fill-opacity="1" /><path clip-path="url(#clip870)" d="M1309.82 1451.02 L1328.17 1451.02 L1328.17 1454.96 L1314.1 1454.96 L1314.1 1463.43 Q1315.12 1463.08 1316.14 1462.92 Q1317.16 1462.73 1318.17 1462.73 Q1323.96 1462.73 1327.34 1465.9 Q1330.72 1469.08 1330.72 1474.49 Q1330.72 1480.07 1327.25 1483.17 Q1323.78 1486.25 1317.46 1486.25 Q1315.28 1486.25 1313.01 1485.88 Q1310.77 1485.51 1308.36 1484.77 L1308.36 1480.07 Q1310.44 1481.2 1312.67 1481.76 Q1314.89 1482.32 1317.36 1482.32 Q1321.37 1482.32 1323.71 1480.21 Q1326.04 1478.1 1326.04 1474.49 Q1326.04 1470.88 1323.71 1468.77 Q1321.37 1466.67 1317.36 1466.67 Q1315.49 1466.67 1313.61 1467.08 Q1311.76 1467.5 1309.82 1468.38 L1309.82 1451.02 Z" fill="#000000" fill-rule="evenodd" fill-opacity="1" /><path clip-path="url(#clip870)" d="M1364.24 1481.64 L1380.56 1481.64 L1380.56 1485.58 L1358.61 1485.58 L1358.61 1481.64 Q1361.27 1478.89 1365.86 1474.26 Q1370.46 1469.61 1371.64 1468.27 Q1373.89 1465.74 1374.77 1464.01 Q1375.67 1462.25 1375.67 1460.56 Q1375.67 1457.8 1373.73 1456.07 Q1371.81 1454.33 1368.7 1454.33 Q1366.51 1454.33 1364.05 1455.09 Q1361.62 1455.86 1358.84 1457.41 L1358.84 1452.69 Q1361.67 1451.55 1364.12 1450.97 Q1366.57 1450.39 1368.61 1450.39 Q1373.98 1450.39 1377.18 1453.08 Q1380.37 1455.77 1380.37 1460.26 Q1380.37 1462.39 1379.56 1464.31 Q1378.77 1466.2 1376.67 1468.8 Q1376.09 1469.47 1372.99 1472.69 Q1369.88 1475.88 1364.24 1481.64 Z" fill="#000000" fill-rule="evenodd" fill-opacity="1" /><path clip-path="url(#clip870)" d="M1389.19 1451.02 L1411.41 1451.02 L1411.41 1453.01 L1398.87 1485.58 L1393.98 1485.58 L1405.79 1454.96 L1389.19 1454.96 L1389.19 1451.02 Z" fill="#000000" fill-rule="evenodd" fill-opacity="1" /><path clip-path="url(#clip870)" d="M1444.52 1481.64 L1460.84 1481.64 L1460.84 1485.58 L1438.9 1485.58 L1438.9 1481.64 Q1441.56 1478.89 1446.14 1474.26 Q1450.75 1469.61 1451.93 1468.27 Q1454.18 1465.74 1455.06 1464.01 Q1455.96 1462.25 1455.96 1460.56 Q1455.96 1457.8 1454.01 1456.07 Q1452.09 1454.33 1448.99 1454.33 Q1446.79 1454.33 1444.34 1455.09 Q1441.91 1455.86 1439.13 1457.41 L1439.13 1452.69 Q1441.95 1451.55 1444.41 1450.97 Q1446.86 1450.39 1448.9 1450.39 Q1454.27 1450.39 1457.46 1453.08 Q1460.66 1455.77 1460.66 1460.26 Q1460.66 1462.39 1459.85 1464.31 Q1459.06 1466.2 1456.95 1468.8 Q1456.37 1469.47 1453.27 1472.69 Q1450.17 1475.88 1444.52 1481.64 Z" fill="#000000" fill-rule="evenodd" fill-opacity="1" /><path clip-path="url(#clip870)" d="M1470.8 1484.86 L1470.8 1480.6 Q1472.56 1481.44 1474.36 1481.88 Q1476.17 1482.32 1477.9 1482.32 Q1482.53 1482.32 1484.96 1479.21 Q1487.42 1476.09 1487.76 1469.75 Q1486.42 1471.74 1484.36 1472.8 Q1482.3 1473.87 1479.8 1473.87 Q1474.62 1473.87 1471.58 1470.74 Q1468.57 1467.59 1468.57 1462.15 Q1468.57 1456.83 1471.72 1453.61 Q1474.87 1450.39 1480.1 1450.39 Q1486.1 1450.39 1489.25 1455 Q1492.42 1459.58 1492.42 1468.33 Q1492.42 1476.51 1488.53 1481.39 Q1484.66 1486.25 1478.11 1486.25 Q1476.35 1486.25 1474.55 1485.9 Q1472.74 1485.56 1470.8 1484.86 M1480.1 1470.21 Q1483.25 1470.21 1485.08 1468.06 Q1486.93 1465.9 1486.93 1462.15 Q1486.93 1458.43 1485.08 1456.27 Q1483.25 1454.1 1480.1 1454.1 Q1476.95 1454.1 1475.1 1456.27 Q1473.27 1458.43 1473.27 1462.15 Q1473.27 1465.9 1475.1 1468.06 Q1476.95 1470.21 1480.1 1470.21 Z" fill="#000000" fill-rule="evenodd" fill-opacity="1" /><path clip-path="url(#clip870)" d="M1535.76 1466.95 Q1539.12 1467.66 1540.99 1469.93 Q1542.89 1472.2 1542.89 1475.53 Q1542.89 1480.65 1539.37 1483.45 Q1535.85 1486.25 1529.37 1486.25 Q1527.19 1486.25 1524.88 1485.81 Q1522.59 1485.39 1520.13 1484.54 L1520.13 1480.02 Q1522.08 1481.16 1524.39 1481.74 Q1526.71 1482.32 1529.23 1482.32 Q1533.63 1482.32 1535.92 1480.58 Q1538.24 1478.84 1538.24 1475.53 Q1538.24 1472.48 1536.08 1470.77 Q1533.95 1469.03 1530.13 1469.03 L1526.11 1469.03 L1526.11 1465.19 L1530.32 1465.19 Q1533.77 1465.19 1535.6 1463.82 Q1537.43 1462.43 1537.43 1459.84 Q1537.43 1457.18 1535.53 1455.77 Q1533.65 1454.33 1530.13 1454.33 Q1528.21 1454.33 1526.01 1454.75 Q1523.81 1455.16 1521.18 1456.04 L1521.18 1451.88 Q1523.84 1451.14 1526.15 1450.77 Q1528.49 1450.39 1530.55 1450.39 Q1535.87 1450.39 1538.98 1452.83 Q1542.08 1455.23 1542.08 1459.35 Q1542.08 1462.22 1540.43 1464.21 Q1538.79 1466.18 1535.76 1466.95 Z" fill="#000000" fill-rule="evenodd" fill-opacity="1" /><path clip-path="url(#clip870)" d="M1552.56 1481.64 L1560.2 1481.64 L1560.2 1455.28 L1551.89 1456.95 L1551.89 1452.69 L1560.16 1451.02 L1564.83 1451.02 L1564.83 1481.64 L1572.47 1481.64 L1572.47 1485.58 L1552.56 1485.58 L1552.56 1481.64 Z" fill="#000000" fill-rule="evenodd" fill-opacity="1" /><path clip-path="url(#clip870)" d="M1616.11 1466.95 Q1619.47 1467.66 1621.35 1469.93 Q1623.24 1472.2 1623.24 1475.53 Q1623.24 1480.65 1619.73 1483.45 Q1616.21 1486.25 1609.73 1486.25 Q1607.55 1486.25 1605.24 1485.81 Q1602.94 1485.39 1600.49 1484.54 L1600.49 1480.02 Q1602.43 1481.16 1604.75 1481.74 Q1607.06 1482.32 1609.59 1482.32 Q1613.98 1482.32 1616.28 1480.58 Q1618.59 1478.84 1618.59 1475.53 Q1618.59 1472.48 1616.44 1470.77 Q1614.31 1469.03 1610.49 1469.03 L1606.46 1469.03 L1606.46 1465.19 L1610.67 1465.19 Q1614.12 1465.19 1615.95 1463.82 Q1617.78 1462.43 1617.78 1459.84 Q1617.78 1457.18 1615.88 1455.77 Q1614.01 1454.33 1610.49 1454.33 Q1608.57 1454.33 1606.37 1454.75 Q1604.17 1455.16 1601.53 1456.04 L1601.53 1451.88 Q1604.19 1451.14 1606.51 1450.77 Q1608.85 1450.39 1610.91 1450.39 Q1616.23 1450.39 1619.33 1452.83 Q1622.43 1455.23 1622.43 1459.35 Q1622.43 1462.22 1620.79 1464.21 Q1619.15 1466.18 1616.11 1466.95 Z" fill="#000000" fill-rule="evenodd" fill-opacity="1" /><path clip-path="url(#clip870)" d="M1646.28 1466.95 Q1649.63 1467.66 1651.51 1469.93 Q1653.41 1472.2 1653.41 1475.53 Q1653.41 1480.65 1649.89 1483.45 Q1646.37 1486.25 1639.89 1486.25 Q1637.71 1486.25 1635.4 1485.81 Q1633.11 1485.39 1630.65 1484.54 L1630.65 1480.02 Q1632.6 1481.16 1634.91 1481.74 Q1637.23 1482.32 1639.75 1482.32 Q1644.15 1482.32 1646.44 1480.58 Q1648.75 1478.84 1648.75 1475.53 Q1648.75 1472.48 1646.6 1470.77 Q1644.47 1469.03 1640.65 1469.03 L1636.62 1469.03 L1636.62 1465.19 L1640.84 1465.19 Q1644.29 1465.19 1646.11 1463.82 Q1647.94 1462.43 1647.94 1459.84 Q1647.94 1457.18 1646.05 1455.77 Q1644.17 1454.33 1640.65 1454.33 Q1638.73 1454.33 1636.53 1454.75 Q1634.33 1455.16 1631.69 1456.04 L1631.69 1451.88 Q1634.36 1451.14 1636.67 1450.77 Q1639.01 1450.39 1641.07 1450.39 Q1646.39 1450.39 1649.49 1452.83 Q1652.6 1455.23 1652.6 1459.35 Q1652.6 1462.22 1650.95 1464.21 Q1649.31 1466.18 1646.28 1466.95 Z" fill="#000000" fill-rule="evenodd" fill-opacity="1" /><path clip-path="url(#clip870)" d="M1696.93 1466.95 Q1700.29 1467.66 1702.17 1469.93 Q1704.06 1472.2 1704.06 1475.53 Q1704.06 1480.65 1700.54 1483.45 Q1697.03 1486.25 1690.54 1486.25 Q1688.37 1486.25 1686.05 1485.81 Q1683.76 1485.39 1681.31 1484.54 L1681.31 1480.02 Q1683.25 1481.16 1685.57 1481.74 Q1687.88 1482.32 1690.41 1482.32 Q1694.8 1482.32 1697.1 1480.58 Q1699.41 1478.84 1699.41 1475.53 Q1699.41 1472.48 1697.26 1470.77 Q1695.13 1469.03 1691.31 1469.03 L1687.28 1469.03 L1687.28 1465.19 L1691.49 1465.19 Q1694.94 1465.19 1696.77 1463.82 Q1698.6 1462.43 1698.6 1459.84 Q1698.6 1457.18 1696.7 1455.77 Q1694.83 1454.33 1691.31 1454.33 Q1689.39 1454.33 1687.19 1454.75 Q1684.99 1455.16 1682.35 1456.04 L1682.35 1451.88 Q1685.01 1451.14 1687.33 1450.77 Q1689.67 1450.39 1691.73 1450.39 Q1697.05 1450.39 1700.15 1452.83 Q1703.25 1455.23 1703.25 1459.35 Q1703.25 1462.22 1701.61 1464.21 Q1699.97 1466.18 1696.93 1466.95 Z" fill="#000000" fill-rule="evenodd" fill-opacity="1" /><path clip-path="url(#clip870)" d="M1712.98 1451.02 L1731.33 1451.02 L1731.33 1454.96 L1717.26 1454.96 L1717.26 1463.43 Q1718.28 1463.08 1719.29 1462.92 Q1720.31 1462.73 1721.33 1462.73 Q1727.12 1462.73 1730.5 1465.9 Q1733.88 1469.08 1733.88 1474.49 Q1733.88 1480.07 1730.41 1483.17 Q1726.93 1486.25 1720.61 1486.25 Q1718.44 1486.25 1716.17 1485.88 Q1713.92 1485.51 1711.52 1484.77 L1711.52 1480.07 Q1713.6 1481.2 1715.82 1481.76 Q1718.04 1482.32 1720.52 1482.32 Q1724.53 1482.32 1726.86 1480.21 Q1729.2 1478.1 1729.2 1474.49 Q1729.2 1470.88 1726.86 1468.77 Q1724.53 1466.67 1720.52 1466.67 Q1718.65 1466.67 1716.77 1467.08 Q1714.92 1467.5 1712.98 1468.38 L1712.98 1451.02 Z" fill="#000000" fill-rule="evenodd" fill-opacity="1" /><path clip-path="url(#clip870)" d="M1777.53 1466.95 Q1780.89 1467.66 1782.76 1469.93 Q1784.66 1472.2 1784.66 1475.53 Q1784.66 1480.65 1781.14 1483.45 Q1777.63 1486.25 1771.14 1486.25 Q1768.97 1486.25 1766.65 1485.81 Q1764.36 1485.39 1761.91 1484.54 L1761.91 1480.02 Q1763.85 1481.16 1766.17 1481.74 Q1768.48 1482.32 1771 1482.32 Q1775.4 1482.32 1777.69 1480.58 Q1780.01 1478.84 1780.01 1475.53 Q1780.01 1472.48 1777.86 1470.77 Q1775.73 1469.03 1771.91 1469.03 L1767.88 1469.03 L1767.88 1465.19 L1772.09 1465.19 Q1775.54 1465.19 1777.37 1463.82 Q1779.2 1462.43 1779.2 1459.84 Q1779.2 1457.18 1777.3 1455.77 Q1775.43 1454.33 1771.91 1454.33 Q1769.99 1454.33 1767.79 1454.75 Q1765.59 1455.16 1762.95 1456.04 L1762.95 1451.88 Q1765.61 1451.14 1767.93 1450.77 Q1770.26 1450.39 1772.32 1450.39 Q1777.65 1450.39 1780.75 1452.83 Q1783.85 1455.23 1783.85 1459.35 Q1783.85 1462.22 1782.21 1464.21 Q1780.56 1466.18 1777.53 1466.95 Z" fill="#000000" fill-rule="evenodd" fill-opacity="1" /><path clip-path="url(#clip870)" d="M1792.35 1451.02 L1814.57 1451.02 L1814.57 1453.01 L1802.02 1485.58 L1797.14 1485.58 L1808.94 1454.96 L1792.35 1454.96 L1792.35 1451.02 Z" fill="#000000" fill-rule="evenodd" fill-opacity="1" /><path clip-path="url(#clip870)" d="M1857.82 1466.95 Q1861.18 1467.66 1863.05 1469.93 Q1864.95 1472.2 1864.95 1475.53 Q1864.95 1480.65 1861.43 1483.45 Q1857.91 1486.25 1851.43 1486.25 Q1849.25 1486.25 1846.94 1485.81 Q1844.65 1485.39 1842.19 1484.54 L1842.19 1480.02 Q1844.14 1481.16 1846.45 1481.74 Q1848.77 1482.32 1851.29 1482.32 Q1855.69 1482.32 1857.98 1480.58 Q1860.3 1478.84 1860.3 1475.53 Q1860.3 1472.48 1858.14 1470.77 Q1856.01 1469.03 1852.19 1469.03 L1848.17 1469.03 L1848.17 1465.19 L1852.38 1465.19 Q1855.83 1465.19 1857.66 1463.82 Q1859.49 1462.43 1859.49 1459.84 Q1859.49 1457.18 1857.59 1455.77 Q1855.71 1454.33 1852.19 1454.33 Q1850.27 1454.33 1848.07 1454.75 Q1845.87 1455.16 1843.24 1456.04 L1843.24 1451.88 Q1845.9 1451.14 1848.21 1450.77 Q1850.55 1450.39 1852.61 1450.39 Q1857.93 1450.39 1861.04 1452.83 Q1864.14 1455.23 1864.14 1459.35 Q1864.14 1462.22 1862.5 1464.21 Q1860.85 1466.18 1857.82 1466.95 Z" fill="#000000" fill-rule="evenodd" fill-opacity="1" /><path clip-path="url(#clip870)" d="M1873.95 1484.86 L1873.95 1480.6 Q1875.71 1481.44 1877.52 1481.88 Q1879.32 1482.32 1881.06 1482.32 Q1885.69 1482.32 1888.12 1479.21 Q1890.57 1476.09 1890.92 1469.75 Q1889.58 1471.74 1887.52 1472.8 Q1885.46 1473.87 1882.96 1473.87 Q1877.77 1473.87 1874.74 1470.74 Q1871.73 1467.59 1871.73 1462.15 Q1871.73 1456.83 1874.88 1453.61 Q1878.03 1450.39 1883.26 1450.39 Q1889.25 1450.39 1892.4 1455 Q1895.57 1459.58 1895.57 1468.33 Q1895.57 1476.51 1891.68 1481.39 Q1887.82 1486.25 1881.27 1486.25 Q1879.51 1486.25 1877.7 1485.9 Q1875.9 1485.56 1873.95 1484.86 M1883.26 1470.21 Q1886.41 1470.21 1888.24 1468.06 Q1890.09 1465.9 1890.09 1462.15 Q1890.09 1458.43 1888.24 1456.27 Q1886.41 1454.1 1883.26 1454.1 Q1880.11 1454.1 1878.26 1456.27 Q1876.43 1458.43 1876.43 1462.15 Q1876.43 1465.9 1878.26 1468.06 Q1880.11 1470.21 1883.26 1470.21 Z" fill="#000000" fill-rule="evenodd" fill-opacity="1" /><path clip-path="url(#clip870)" d="M1938.31 1455.09 L1926.51 1473.54 L1938.31 1473.54 L1938.31 1455.09 M1937.09 1451.02 L1942.97 1451.02 L1942.97 1473.54 L1947.9 1473.54 L1947.9 1477.43 L1942.97 1477.43 L1942.97 1485.58 L1938.31 1485.58 L1938.31 1477.43 L1922.71 1477.43 L1922.71 1472.92 L1937.09 1451.02 Z" fill="#000000" fill-rule="evenodd" fill-opacity="1" /><path clip-path="url(#clip870)" d="M1956.44 1481.64 L1964.08 1481.64 L1964.08 1455.28 L1955.77 1456.95 L1955.77 1452.69 L1964.03 1451.02 L1968.71 1451.02 L1968.71 1481.64 L1976.35 1481.64 L1976.35 1485.58 L1956.44 1485.58 L1956.44 1481.64 Z" fill="#000000" fill-rule="evenodd" fill-opacity="1" /><path clip-path="url(#clip870)" d="M2018.67 1455.09 L2006.86 1473.54 L2018.67 1473.54 L2018.67 1455.09 M2017.44 1451.02 L2023.32 1451.02 L2023.32 1473.54 L2028.25 1473.54 L2028.25 1477.43 L2023.32 1477.43 L2023.32 1485.58 L2018.67 1485.58 L2018.67 1477.43 L2003.07 1477.43 L2003.07 1472.92 L2017.44 1451.02 Z" fill="#000000" fill-rule="evenodd" fill-opacity="1" /><path clip-path="url(#clip870)" d="M2050.15 1466.95 Q2053.51 1467.66 2055.38 1469.93 Q2057.28 1472.2 2057.28 1475.53 Q2057.28 1480.65 2053.76 1483.45 Q2050.24 1486.25 2043.76 1486.25 Q2041.59 1486.25 2039.27 1485.81 Q2036.98 1485.39 2034.53 1484.54 L2034.53 1480.02 Q2036.47 1481.16 2038.79 1481.74 Q2041.1 1482.32 2043.62 1482.32 Q2048.02 1482.32 2050.31 1480.58 Q2052.63 1478.84 2052.63 1475.53 Q2052.63 1472.48 2050.48 1470.77 Q2048.35 1469.03 2044.53 1469.03 L2040.5 1469.03 L2040.5 1465.19 L2044.71 1465.19 Q2048.16 1465.19 2049.99 1463.82 Q2051.82 1462.43 2051.82 1459.84 Q2051.82 1457.18 2049.92 1455.77 Q2048.04 1454.33 2044.53 1454.33 Q2042.61 1454.33 2040.41 1454.75 Q2038.21 1455.16 2035.57 1456.04 L2035.57 1451.88 Q2038.23 1451.14 2040.54 1450.77 Q2042.88 1450.39 2044.94 1450.39 Q2050.27 1450.39 2053.37 1452.83 Q2056.47 1455.23 2056.47 1459.35 Q2056.47 1462.22 2054.83 1464.21 Q2053.18 1466.18 2050.15 1466.95 Z" fill="#000000" fill-rule="evenodd" fill-opacity="1" /><path clip-path="url(#clip870)" d="M2099.49 1455.09 L2087.68 1473.54 L2099.49 1473.54 L2099.49 1455.09 M2098.26 1451.02 L2104.14 1451.02 L2104.14 1473.54 L2109.07 1473.54 L2109.07 1477.43 L2104.14 1477.43 L2104.14 1485.58 L2099.49 1485.58 L2099.49 1477.43 L2083.89 1477.43 L2083.89 1472.92 L2098.26 1451.02 Z" fill="#000000" fill-rule="evenodd" fill-opacity="1" /><path clip-path="url(#clip870)" d="M2116.85 1451.02 L2135.21 1451.02 L2135.21 1454.96 L2121.13 1454.96 L2121.13 1463.43 Q2122.15 1463.08 2123.17 1462.92 Q2124.19 1462.73 2125.21 1462.73 Q2130.99 1462.73 2134.37 1465.9 Q2137.75 1469.08 2137.75 1474.49 Q2137.75 1480.07 2134.28 1483.17 Q2130.81 1486.25 2124.49 1486.25 Q2122.31 1486.25 2120.04 1485.88 Q2117.8 1485.51 2115.39 1484.77 L2115.39 1480.07 Q2117.47 1481.2 2119.7 1481.76 Q2121.92 1482.32 2124.4 1482.32 Q2128.4 1482.32 2130.74 1480.21 Q2133.08 1478.1 2133.08 1474.49 Q2133.08 1470.88 2130.74 1468.77 Q2128.4 1466.67 2124.4 1466.67 Q2122.52 1466.67 2120.65 1467.08 Q2118.79 1467.5 2116.85 1468.38 L2116.85 1451.02 Z" fill="#000000" fill-rule="evenodd" fill-opacity="1" /><path clip-path="url(#clip870)" d="M2180.09 1455.09 L2168.28 1473.54 L2180.09 1473.54 L2180.09 1455.09 M2178.86 1451.02 L2184.74 1451.02 L2184.74 1473.54 L2189.67 1473.54 L2189.67 1477.43 L2184.74 1477.43 L2184.74 1485.58 L2180.09 1485.58 L2180.09 1477.43 L2164.49 1477.43 L2164.49 1472.92 L2178.86 1451.02 Z" fill="#000000" fill-rule="evenodd" fill-opacity="1" /><path clip-path="url(#clip870)" d="M2196.22 1451.02 L2218.44 1451.02 L2218.44 1453.01 L2205.9 1485.58 L2201.01 1485.58 L2212.82 1454.96 L2196.22 1454.96 L2196.22 1451.02 Z" fill="#000000" fill-rule="evenodd" fill-opacity="1" /><path clip-path="url(#clip870)" d="M2260.37 1455.09 L2248.57 1473.54 L2260.37 1473.54 L2260.37 1455.09 M2259.15 1451.02 L2265.03 1451.02 L2265.03 1473.54 L2269.96 1473.54 L2269.96 1477.43 L2265.03 1477.43 L2265.03 1485.58 L2260.37 1485.58 L2260.37 1477.43 L2244.77 1477.43 L2244.77 1472.92 L2259.15 1451.02 Z" fill="#000000" fill-rule="evenodd" fill-opacity="1" /><path clip-path="url(#clip870)" d="M2277.83 1484.86 L2277.83 1480.6 Q2279.59 1481.44 2281.39 1481.88 Q2283.2 1482.32 2284.93 1482.32 Q2289.56 1482.32 2291.99 1479.21 Q2294.45 1476.09 2294.8 1469.75 Q2293.45 1471.74 2291.39 1472.8 Q2289.33 1473.87 2286.83 1473.87 Q2281.65 1473.87 2278.62 1470.74 Q2275.61 1467.59 2275.61 1462.15 Q2275.61 1456.83 2278.75 1453.61 Q2281.9 1450.39 2287.13 1450.39 Q2293.13 1450.39 2296.28 1455 Q2299.45 1459.58 2299.45 1468.33 Q2299.45 1476.51 2295.56 1481.39 Q2291.69 1486.25 2285.14 1486.25 Q2283.38 1486.25 2281.58 1485.9 Q2279.77 1485.56 2277.83 1484.86 M2287.13 1470.21 Q2290.28 1470.21 2292.11 1468.06 Q2293.96 1465.9 2293.96 1462.15 Q2293.96 1458.43 2292.11 1456.27 Q2290.28 1454.1 2287.13 1454.1 Q2283.99 1454.1 2282.13 1456.27 Q2280.3 1458.43 2280.3 1462.15 Q2280.3 1465.9 2282.13 1468.06 Q2283.99 1470.21 2287.13 1470.21 Z" fill="#000000" fill-rule="evenodd" fill-opacity="1" /><path clip-path="url(#clip870)" d="M2328.07 1451.02 L2346.42 1451.02 L2346.42 1454.96 L2332.35 1454.96 L2332.35 1463.43 Q2333.37 1463.08 2334.39 1462.92 Q2335.41 1462.73 2336.42 1462.73 Q2342.21 1462.73 2345.59 1465.9 Q2348.97 1469.08 2348.97 1474.49 Q2348.97 1480.07 2345.5 1483.17 Q2342.03 1486.25 2335.71 1486.25 Q2333.53 1486.25 2331.26 1485.88 Q2329.02 1485.51 2326.61 1484.77 L2326.61 1480.07 Q2328.69 1481.2 2330.92 1481.76 Q2333.14 1482.32 2335.61 1482.32 Q2339.62 1482.32 2341.96 1480.21 Q2344.3 1478.1 2344.3 1474.49 Q2344.3 1470.88 2341.96 1468.77 Q2339.62 1466.67 2335.61 1466.67 Q2333.74 1466.67 2331.86 1467.08 Q2330.01 1467.5 2328.07 1468.38 L2328.07 1451.02 Z" fill="#000000" fill-rule="evenodd" fill-opacity="1" /><path clip-path="url(#clip870)" d="M2358.99 1481.64 L2366.63 1481.64 L2366.63 1455.28 L2358.32 1456.95 L2358.32 1452.69 L2366.59 1451.02 L2371.26 1451.02 L2371.26 1481.64 L2378.9 1481.64 L2378.9 1485.58 L2358.99 1485.58 L2358.99 1481.64 Z" fill="#000000" fill-rule="evenodd" fill-opacity="1" /><path clip-path="url(#clip870)" d="M1133.24 1522.08 L1133.24 1528.35 Q1129.58 1526.6 1126.33 1525.74 Q1123.09 1524.88 1120.06 1524.88 Q1114.81 1524.88 1111.95 1526.92 Q1109.11 1528.96 1109.11 1532.71 Q1109.11 1535.87 1110.99 1537.49 Q1112.9 1539.08 1118.19 1540.07 L1122.07 1540.86 Q1129.26 1542.23 1132.67 1545.7 Q1136.11 1549.14 1136.11 1554.93 Q1136.11 1561.84 1131.46 1565.4 Q1126.84 1568.97 1117.9 1568.97 Q1114.53 1568.97 1110.71 1568.2 Q1106.92 1567.44 1102.84 1565.94 L1102.84 1559.32 Q1106.76 1561.52 1110.51 1562.63 Q1114.27 1563.75 1117.9 1563.75 Q1123.41 1563.75 1126.4 1561.58 Q1129.39 1559.42 1129.39 1555.41 Q1129.39 1551.91 1127.22 1549.93 Q1125.09 1547.96 1120.19 1546.97 L1116.28 1546.21 Q1109.08 1544.78 1105.87 1541.72 Q1102.65 1538.67 1102.65 1533.22 Q1102.65 1526.92 1107.08 1523.29 Q1111.53 1519.66 1119.33 1519.66 Q1122.67 1519.66 1126.14 1520.27 Q1129.61 1520.87 1133.24 1522.08 Z" fill="#000000" fill-rule="evenodd" fill-opacity="1" /><path clip-path="url(#clip870)" d="M1145.88 1532.4 L1151.73 1532.4 L1151.73 1568.04 L1145.88 1568.04 L1145.88 1532.4 M1145.88 1518.52 L1151.73 1518.52 L1151.73 1525.93 L1145.88 1525.93 L1145.88 1518.52 Z" fill="#000000" fill-rule="evenodd" fill-opacity="1" /><path clip-path="url(#clip870)" d="M1169.78 1522.27 L1169.78 1532.4 L1181.84 1532.4 L1181.84 1536.95 L1169.78 1536.95 L1169.78 1556.3 Q1169.78 1560.66 1170.96 1561.9 Q1172.17 1563.14 1175.83 1563.14 L1181.84 1563.14 L1181.84 1568.04 L1175.83 1568.04 Q1169.05 1568.04 1166.47 1565.53 Q1163.89 1562.98 1163.89 1556.3 L1163.89 1536.95 L1159.59 1536.95 L1159.59 1532.4 L1163.89 1532.4 L1163.89 1522.27 L1169.78 1522.27 Z" fill="#000000" fill-rule="evenodd" fill-opacity="1" /><path clip-path="url(#clip870)" d="M1220.04 1548.76 L1220.04 1551.62 L1193.11 1551.62 Q1193.49 1557.67 1196.74 1560.85 Q1200.02 1564 1205.84 1564 Q1209.22 1564 1212.37 1563.17 Q1215.55 1562.35 1218.67 1560.69 L1218.67 1566.23 Q1215.52 1567.57 1212.21 1568.27 Q1208.9 1568.97 1205.49 1568.97 Q1196.96 1568.97 1191.96 1564 Q1187 1559.04 1187 1550.57 Q1187 1541.82 1191.71 1536.69 Q1196.45 1531.54 1204.47 1531.54 Q1211.67 1531.54 1215.84 1536.18 Q1220.04 1540.8 1220.04 1548.76 M1214.18 1547.04 Q1214.12 1542.23 1211.47 1539.37 Q1208.87 1536.5 1204.54 1536.5 Q1199.63 1536.5 1196.67 1539.27 Q1193.75 1542.04 1193.3 1547.07 L1214.18 1547.04 Z" fill="#000000" fill-rule="evenodd" fill-opacity="1" /><path clip-path="url(#clip870)" d="M1250.62 1520.52 L1259.28 1520.52 L1280.35 1560.28 L1280.35 1520.52 L1286.59 1520.52 L1286.59 1568.04 L1277.93 1568.04 L1256.86 1528.29 L1256.86 1568.04 L1250.62 1568.04 L1250.62 1520.52 Z" fill="#000000" fill-rule="evenodd" fill-opacity="1" /><path clip-path="url(#clip870)" d="M1298.53 1553.98 L1298.53 1532.4 L1304.38 1532.4 L1304.38 1553.75 Q1304.38 1558.81 1306.36 1561.36 Q1308.33 1563.87 1312.28 1563.87 Q1317.02 1563.87 1319.76 1560.85 Q1322.52 1557.83 1322.52 1552.61 L1322.52 1532.4 L1328.38 1532.4 L1328.38 1568.04 L1322.52 1568.04 L1322.52 1562.57 Q1320.39 1565.82 1317.56 1567.41 Q1314.76 1568.97 1311.03 1568.97 Q1304.89 1568.97 1301.71 1565.15 Q1298.53 1561.33 1298.53 1553.98 M1313.26 1531.54 L1313.26 1531.54 Z" fill="#000000" fill-rule="evenodd" fill-opacity="1" /><path clip-path="url(#clip870)" d="M1368.2 1539.24 Q1370.39 1535.29 1373.45 1533.41 Q1376.51 1531.54 1380.64 1531.54 Q1386.21 1531.54 1389.24 1535.45 Q1392.26 1539.33 1392.26 1546.53 L1392.26 1568.04 L1386.37 1568.04 L1386.37 1546.72 Q1386.37 1541.59 1384.56 1539.11 Q1382.74 1536.63 1379.02 1536.63 Q1374.47 1536.63 1371.83 1539.65 Q1369.19 1542.68 1369.19 1547.9 L1369.19 1568.04 L1363.3 1568.04 L1363.3 1546.72 Q1363.3 1541.56 1361.48 1539.11 Q1359.67 1536.63 1355.88 1536.63 Q1351.39 1536.63 1348.75 1539.68 Q1346.11 1542.71 1346.11 1547.9 L1346.11 1568.04 L1340.22 1568.04 L1340.22 1532.4 L1346.11 1532.4 L1346.11 1537.93 Q1348.11 1534.66 1350.92 1533.1 Q1353.72 1531.54 1357.57 1531.54 Q1361.45 1531.54 1364.16 1533.51 Q1366.89 1535.48 1368.2 1539.24 Z" fill="#000000" fill-rule="evenodd" fill-opacity="1" /><path clip-path="url(#clip870)" d="M1429.53 1550.25 Q1429.53 1543.79 1426.86 1540.13 Q1424.22 1536.44 1419.57 1536.44 Q1414.92 1536.44 1412.25 1540.13 Q1409.61 1543.79 1409.61 1550.25 Q1409.61 1556.71 1412.25 1560.4 Q1414.92 1564.07 1419.57 1564.07 Q1424.22 1564.07 1426.86 1560.4 Q1429.53 1556.71 1429.53 1550.25 M1409.61 1537.81 Q1411.45 1534.62 1414.25 1533.1 Q1417.09 1531.54 1421 1531.54 Q1427.5 1531.54 1431.54 1536.69 Q1435.61 1541.85 1435.61 1550.25 Q1435.61 1558.65 1431.54 1563.81 Q1427.5 1568.97 1421 1568.97 Q1417.09 1568.97 1414.25 1567.44 Q1411.45 1565.88 1409.61 1562.7 L1409.61 1568.04 L1403.72 1568.04 L1403.72 1518.52 L1409.61 1518.52 L1409.61 1537.81 Z" fill="#000000" fill-rule="evenodd" fill-opacity="1" /><path clip-path="url(#clip870)" d="M1475.81 1548.76 L1475.81 1551.62 L1448.88 1551.62 Q1449.27 1557.67 1452.51 1560.85 Q1455.79 1564 1461.62 1564 Q1464.99 1564 1468.14 1563.17 Q1471.32 1562.35 1474.44 1560.69 L1474.44 1566.23 Q1471.29 1567.57 1467.98 1568.27 Q1464.67 1568.97 1461.27 1568.97 Q1452.74 1568.97 1447.74 1564 Q1442.77 1559.04 1442.77 1550.57 Q1442.77 1541.82 1447.48 1536.69 Q1452.23 1531.54 1460.25 1531.54 Q1467.44 1531.54 1471.61 1536.18 Q1475.81 1540.8 1475.81 1548.76 M1469.95 1547.04 Q1469.89 1542.23 1467.25 1539.37 Q1464.64 1536.5 1460.31 1536.5 Q1455.41 1536.5 1452.45 1539.27 Q1449.52 1542.04 1449.07 1547.07 L1469.95 1547.04 Z" fill="#000000" fill-rule="evenodd" fill-opacity="1" /><path clip-path="url(#clip870)" d="M1506.08 1537.87 Q1505.09 1537.3 1503.92 1537.04 Q1502.77 1536.76 1501.37 1536.76 Q1496.4 1536.76 1493.73 1540 Q1491.09 1543.22 1491.09 1549.27 L1491.09 1568.04 L1485.2 1568.04 L1485.2 1532.4 L1491.09 1532.4 L1491.09 1537.93 Q1492.93 1534.69 1495.89 1533.13 Q1498.85 1531.54 1503.09 1531.54 Q1503.69 1531.54 1504.42 1531.63 Q1505.16 1531.7 1506.05 1531.85 L1506.08 1537.87 Z" fill="#000000" fill-rule="evenodd" fill-opacity="1" /><polyline clip-path="url(#clip872)" style="stroke:#000000; stroke-linecap:round; stroke-linejoin:round; stroke-width:2; stroke-opacity:0.1; fill:none" points="
  255.977,1423.18 2352.76,1423.18 
  "/>
<polyline clip-path="url(#clip872)" style="stroke:#000000; stroke-linecap:round; stroke-linejoin:round; stroke-width:2; stroke-opacity:0.1; fill:none" points="
  255.977,1098.25 2352.76,1098.25 
  "/>
<polyline clip-path="url(#clip872)" style="stroke:#000000; stroke-linecap:round; stroke-linejoin:round; stroke-width:2; stroke-opacity:0.1; fill:none" points="
  255.977,773.326 2352.76,773.326 
  "/>
<polyline clip-path="url(#clip872)" style="stroke:#000000; stroke-linecap:round; stroke-linejoin:round; stroke-width:2; stroke-opacity:0.1; fill:none" points="
  255.977,448.399 2352.76,448.399 
  "/>
<polyline clip-path="url(#clip872)" style="stroke:#000000; stroke-linecap:round; stroke-linejoin:round; stroke-width:2; stroke-opacity:0.1; fill:none" points="
  255.977,123.472 2352.76,123.472 
  "/>
<polyline clip-path="url(#clip870)" style="stroke:#000000; stroke-linecap:round; stroke-linejoin:round; stroke-width:4; stroke-opacity:1; fill:none" points="
  255.977,1423.18 255.977,123.472 
  "/>
<polyline clip-path="url(#clip870)" style="stroke:#000000; stroke-linecap:round; stroke-linejoin:round; stroke-width:4; stroke-opacity:1; fill:none" points="
  255.977,1423.18 274.875,1423.18 
  "/>
<polyline clip-path="url(#clip870)" style="stroke:#000000; stroke-linecap:round; stroke-linejoin:round; stroke-width:4; stroke-opacity:1; fill:none" points="
  255.977,1098.25 274.875,1098.25 
  "/>
<polyline clip-path="url(#clip870)" style="stroke:#000000; stroke-linecap:round; stroke-linejoin:round; stroke-width:4; stroke-opacity:1; fill:none" points="
  255.977,773.326 274.875,773.326 
  "/>
<polyline clip-path="url(#clip870)" style="stroke:#000000; stroke-linecap:round; stroke-linejoin:round; stroke-width:4; stroke-opacity:1; fill:none" points="
  255.977,448.399 274.875,448.399 
  "/>
<polyline clip-path="url(#clip870)" style="stroke:#000000; stroke-linecap:round; stroke-linejoin:round; stroke-width:4; stroke-opacity:1; fill:none" points="
  255.977,123.472 274.875,123.472 
  "/>
<path clip-path="url(#clip870)" d="M114.26 1423.63 L143.936 1423.63 L143.936 1427.57 L114.26 1427.57 L114.26 1423.63 Z" fill="#000000" fill-rule="evenodd" fill-opacity="1" /><path clip-path="url(#clip870)" d="M164.028 1408.98 Q160.417 1408.98 158.589 1412.54 Q156.783 1416.08 156.783 1423.21 Q156.783 1430.32 158.589 1433.89 Q160.417 1437.43 164.028 1437.43 Q167.663 1437.43 169.468 1433.89 Q171.297 1430.32 171.297 1423.21 Q171.297 1416.08 169.468 1412.54 Q167.663 1408.98 164.028 1408.98 M164.028 1405.27 Q169.839 1405.27 172.894 1409.88 Q175.973 1414.46 175.973 1423.21 Q175.973 1431.94 172.894 1436.55 Q169.839 1441.13 164.028 1441.13 Q158.218 1441.13 155.14 1436.55 Q152.084 1431.94 152.084 1423.21 Q152.084 1414.46 155.14 1409.88 Q158.218 1405.27 164.028 1405.27 Z" fill="#000000" fill-rule="evenodd" fill-opacity="1" /><path clip-path="url(#clip870)" d="M184.19 1434.58 L189.075 1434.58 L189.075 1440.46 L184.19 1440.46 L184.19 1434.58 Z" fill="#000000" fill-rule="evenodd" fill-opacity="1" /><path clip-path="url(#clip870)" d="M200.07 1436.52 L207.709 1436.52 L207.709 1410.16 L199.399 1411.83 L199.399 1407.57 L207.662 1405.9 L212.338 1405.9 L212.338 1436.52 L219.977 1436.52 L219.977 1440.46 L200.07 1440.46 L200.07 1436.52 Z" fill="#000000" fill-rule="evenodd" fill-opacity="1" /><path clip-path="url(#clip870)" d="M162.802 1084.05 Q159.19 1084.05 157.362 1087.62 Q155.556 1091.16 155.556 1098.29 Q155.556 1105.39 157.362 1108.96 Q159.19 1112.5 162.802 1112.5 Q166.436 1112.5 168.241 1108.96 Q170.07 1105.39 170.07 1098.29 Q170.07 1091.16 168.241 1087.62 Q166.436 1084.05 162.802 1084.05 M162.802 1080.35 Q168.612 1080.35 171.667 1084.95 Q174.746 1089.54 174.746 1098.29 Q174.746 1107.01 171.667 1111.62 Q168.612 1116.2 162.802 1116.2 Q156.991 1116.2 153.913 1111.62 Q150.857 1107.01 150.857 1098.29 Q150.857 1089.54 153.913 1084.95 Q156.991 1080.35 162.802 1080.35 Z" fill="#000000" fill-rule="evenodd" fill-opacity="1" /><path clip-path="url(#clip870)" d="M182.963 1109.65 L187.848 1109.65 L187.848 1115.53 L182.963 1115.53 L182.963 1109.65 Z" fill="#000000" fill-rule="evenodd" fill-opacity="1" /><path clip-path="url(#clip870)" d="M208.033 1084.05 Q204.422 1084.05 202.593 1087.62 Q200.787 1091.16 200.787 1098.29 Q200.787 1105.39 202.593 1108.96 Q204.422 1112.5 208.033 1112.5 Q211.667 1112.5 213.473 1108.96 Q215.301 1105.39 215.301 1098.29 Q215.301 1091.16 213.473 1087.62 Q211.667 1084.05 208.033 1084.05 M208.033 1080.35 Q213.843 1080.35 216.898 1084.95 Q219.977 1089.54 219.977 1098.29 Q219.977 1107.01 216.898 1111.62 Q213.843 1116.2 208.033 1116.2 Q202.223 1116.2 199.144 1111.62 Q196.088 1107.01 196.088 1098.29 Q196.088 1089.54 199.144 1084.95 Q202.223 1080.35 208.033 1080.35 Z" fill="#000000" fill-rule="evenodd" fill-opacity="1" /><path clip-path="url(#clip870)" d="M164.028 759.125 Q160.417 759.125 158.589 762.689 Q156.783 766.231 156.783 773.361 Q156.783 780.467 158.589 784.032 Q160.417 787.574 164.028 787.574 Q167.663 787.574 169.468 784.032 Q171.297 780.467 171.297 773.361 Q171.297 766.231 169.468 762.689 Q167.663 759.125 164.028 759.125 M164.028 755.421 Q169.839 755.421 172.894 760.027 Q175.973 764.611 175.973 773.361 Q175.973 782.088 172.894 786.694 Q169.839 791.277 164.028 791.277 Q158.218 791.277 155.14 786.694 Q152.084 782.088 152.084 773.361 Q152.084 764.611 155.14 760.027 Q158.218 755.421 164.028 755.421 Z" fill="#000000" fill-rule="evenodd" fill-opacity="1" /><path clip-path="url(#clip870)" d="M184.19 784.726 L189.075 784.726 L189.075 790.606 L184.19 790.606 L184.19 784.726 Z" fill="#000000" fill-rule="evenodd" fill-opacity="1" /><path clip-path="url(#clip870)" d="M200.07 786.671 L207.709 786.671 L207.709 760.305 L199.399 761.972 L199.399 757.713 L207.662 756.046 L212.338 756.046 L212.338 786.671 L219.977 786.671 L219.977 790.606 L200.07 790.606 L200.07 786.671 Z" fill="#000000" fill-rule="evenodd" fill-opacity="1" /><path clip-path="url(#clip870)" d="M164.399 434.198 Q160.788 434.198 158.959 437.763 Q157.153 441.304 157.153 448.434 Q157.153 455.54 158.959 459.105 Q160.788 462.647 164.399 462.647 Q168.033 462.647 169.839 459.105 Q171.667 455.54 171.667 448.434 Q171.667 441.304 169.839 437.763 Q168.033 434.198 164.399 434.198 M164.399 430.494 Q170.209 430.494 173.264 435.101 Q176.343 439.684 176.343 448.434 Q176.343 457.161 173.264 461.767 Q170.209 466.35 164.399 466.35 Q158.589 466.35 155.51 461.767 Q152.454 457.161 152.454 448.434 Q152.454 439.684 155.51 435.101 Q158.589 430.494 164.399 430.494 Z" fill="#000000" fill-rule="evenodd" fill-opacity="1" /><path clip-path="url(#clip870)" d="M184.561 459.799 L189.445 459.799 L189.445 465.679 L184.561 465.679 L184.561 459.799 Z" fill="#000000" fill-rule="evenodd" fill-opacity="1" /><path clip-path="url(#clip870)" d="M203.658 461.744 L219.977 461.744 L219.977 465.679 L198.033 465.679 L198.033 461.744 Q200.695 458.989 205.278 454.36 Q209.885 449.707 211.065 448.364 Q213.311 445.841 214.19 444.105 Q215.093 442.346 215.093 440.656 Q215.093 437.901 213.149 436.165 Q211.227 434.429 208.125 434.429 Q205.926 434.429 203.473 435.193 Q201.042 435.957 198.264 437.508 L198.264 432.786 Q201.088 431.651 203.542 431.073 Q205.996 430.494 208.033 430.494 Q213.403 430.494 216.598 433.179 Q219.792 435.864 219.792 440.355 Q219.792 442.485 218.982 444.406 Q218.195 446.304 216.088 448.897 Q215.51 449.568 212.408 452.786 Q209.306 455.98 203.658 461.744 Z" fill="#000000" fill-rule="evenodd" fill-opacity="1" /><path clip-path="url(#clip870)" d="M163.45 109.271 Q159.839 109.271 158.01 112.836 Q156.204 116.377 156.204 123.507 Q156.204 130.613 158.01 134.178 Q159.839 137.72 163.45 137.72 Q167.084 137.72 168.889 134.178 Q170.718 130.613 170.718 123.507 Q170.718 116.377 168.889 112.836 Q167.084 109.271 163.45 109.271 M163.45 105.567 Q169.26 105.567 172.315 110.174 Q175.394 114.757 175.394 123.507 Q175.394 132.234 172.315 136.84 Q169.26 141.423 163.45 141.423 Q157.64 141.423 154.561 136.84 Q151.505 132.234 151.505 123.507 Q151.505 114.757 154.561 110.174 Q157.64 105.567 163.45 105.567 Z" fill="#000000" fill-rule="evenodd" fill-opacity="1" /><path clip-path="url(#clip870)" d="M183.612 134.873 L188.496 134.873 L188.496 140.752 L183.612 140.752 L183.612 134.873 Z" fill="#000000" fill-rule="evenodd" fill-opacity="1" /><path clip-path="url(#clip870)" d="M212.848 122.118 Q216.204 122.836 218.079 125.104 Q219.977 127.373 219.977 130.706 Q219.977 135.822 216.459 138.623 Q212.94 141.423 206.459 141.423 Q204.283 141.423 201.968 140.984 Q199.676 140.567 197.223 139.71 L197.223 135.197 Q199.167 136.331 201.482 136.91 Q203.797 137.488 206.32 137.488 Q210.718 137.488 213.01 135.752 Q215.324 134.016 215.324 130.706 Q215.324 127.65 213.172 125.937 Q211.042 124.201 207.223 124.201 L203.195 124.201 L203.195 120.359 L207.408 120.359 Q210.857 120.359 212.686 118.993 Q214.514 117.604 214.514 115.012 Q214.514 112.35 212.616 110.937 Q210.741 109.502 207.223 109.502 Q205.301 109.502 203.102 109.919 Q200.903 110.336 198.264 111.215 L198.264 107.049 Q200.926 106.308 203.241 105.937 Q205.579 105.567 207.639 105.567 Q212.963 105.567 216.065 107.998 Q219.167 110.405 219.167 114.525 Q219.167 117.396 217.523 119.386 Q215.88 121.354 212.848 122.118 Z" fill="#000000" fill-rule="evenodd" fill-opacity="1" /><path clip-path="url(#clip870)" d="M16.4842 987.834 L16.4842 981.405 L64.0042 981.405 L64.0042 987.834 L16.4842 987.834 Z" fill="#000000" fill-rule="evenodd" fill-opacity="1" /><path clip-path="url(#clip870)" d="M42.4881 939.232 L64.0042 939.232 L64.0042 945.089 L42.679 945.089 Q37.6183 945.089 35.1038 947.062 Q32.5894 949.035 32.5894 952.982 Q32.5894 957.725 35.6131 960.462 Q38.6368 963.199 43.8567 963.199 L64.0042 963.199 L64.0042 969.087 L28.3562 969.087 L28.3562 963.199 L33.8944 963.199 Q30.6797 961.098 29.0883 958.266 Q27.4968 955.401 27.4968 951.677 Q27.4968 945.534 31.3163 942.383 Q35.1038 939.232 42.4881 939.232 Z" fill="#000000" fill-rule="evenodd" fill-opacity="1" /><path clip-path="url(#clip870)" d="M42.4881 897.919 L64.0042 897.919 L64.0042 903.775 L42.679 903.775 Q37.6183 903.775 35.1038 905.749 Q32.5894 907.722 32.5894 911.669 Q32.5894 916.411 35.6131 919.148 Q38.6368 921.886 43.8567 921.886 L64.0042 921.886 L64.0042 927.774 L28.3562 927.774 L28.3562 921.886 L33.8944 921.886 Q30.6797 919.785 29.0883 916.952 Q27.4968 914.088 27.4968 910.364 Q27.4968 904.221 31.3163 901.07 Q35.1038 897.919 42.4881 897.919 Z" fill="#000000" fill-rule="evenodd" fill-opacity="1" /><path clip-path="url(#clip870)" d="M44.7161 855.746 L47.5806 855.746 L47.5806 882.673 Q53.6281 882.291 56.8109 879.044 Q59.9619 875.766 59.9619 869.941 Q59.9619 866.568 59.1344 863.417 Q58.3069 860.234 56.6518 857.115 L62.1899 857.115 Q63.5267 860.266 64.227 863.576 Q64.9272 866.886 64.9272 870.292 Q64.9272 878.822 59.9619 883.819 Q54.9967 888.784 46.5303 888.784 Q37.7774 888.784 32.6531 884.073 Q27.4968 879.331 27.4968 871.31 Q27.4968 864.117 32.1438 859.947 Q36.7589 855.746 44.7161 855.746 M42.9973 861.602 Q38.1912 861.666 35.3266 864.308 Q32.4621 866.918 32.4621 871.246 Q32.4621 876.148 35.2312 879.108 Q38.0002 882.036 43.0292 882.482 L42.9973 861.602 Z" fill="#000000" fill-rule="evenodd" fill-opacity="1" /><path clip-path="url(#clip870)" d="M33.8307 825.477 Q33.2578 826.464 33.0032 827.641 Q32.7167 828.787 32.7167 830.188 Q32.7167 835.153 35.9632 837.827 Q39.1779 840.468 45.2253 840.468 L64.0042 840.468 L64.0042 846.357 L28.3562 846.357 L28.3562 840.468 L33.8944 840.468 Q30.6479 838.622 29.0883 835.662 Q27.4968 832.702 27.4968 828.469 Q27.4968 827.864 27.5923 827.132 Q27.656 826.4 27.8151 825.509 L33.8307 825.477 Z" fill="#000000" fill-rule="evenodd" fill-opacity="1" /><path clip-path="url(#clip870)" d="M21.7677 791.93 L39.6235 791.93 L39.6235 783.845 Q39.6235 779.357 37.3 776.907 Q34.9765 774.456 30.6797 774.456 Q26.4147 774.456 24.0912 776.907 Q21.7677 779.357 21.7677 783.845 L21.7677 791.93 M16.4842 798.359 L16.4842 783.845 Q16.4842 775.856 20.1126 771.782 Q23.7092 767.676 30.6797 767.676 Q37.7138 767.676 41.3104 771.782 Q44.907 775.856 44.907 783.845 L44.907 791.93 L64.0042 791.93 L64.0042 798.359 L16.4842 798.359 Z" fill="#000000" fill-rule="evenodd" fill-opacity="1" /><path clip-path="url(#clip870)" d="M33.8307 739.795 Q33.2578 740.781 33.0032 741.959 Q32.7167 743.105 32.7167 744.505 Q32.7167 749.47 35.9632 752.144 Q39.1779 754.786 45.2253 754.786 L64.0042 754.786 L64.0042 760.674 L28.3562 760.674 L28.3562 754.786 L33.8944 754.786 Q30.6479 752.94 29.0883 749.98 Q27.4968 747.02 27.4968 742.787 Q27.4968 742.182 27.5923 741.45 Q27.656 740.718 27.8151 739.826 L33.8307 739.795 Z" fill="#000000" fill-rule="evenodd" fill-opacity="1" /><path clip-path="url(#clip870)" d="M32.4621 721.27 Q32.4621 725.981 36.1542 728.718 Q39.8145 731.456 46.212 731.456 Q52.6095 731.456 56.3017 728.75 Q59.9619 726.013 59.9619 721.27 Q59.9619 716.592 56.2698 713.854 Q52.5777 711.117 46.212 711.117 Q39.8781 711.117 36.186 713.854 Q32.4621 716.592 32.4621 721.27 M27.4968 721.27 Q27.4968 713.632 32.4621 709.271 Q37.4273 704.911 46.212 704.911 Q54.9649 704.911 59.9619 709.271 Q64.9272 713.632 64.9272 721.27 Q64.9272 728.941 59.9619 733.302 Q54.9649 737.63 46.212 737.63 Q37.4273 737.63 32.4621 733.302 Q27.4968 728.941 27.4968 721.27 Z" fill="#000000" fill-rule="evenodd" fill-opacity="1" /><path clip-path="url(#clip870)" d="M33.7671 671.745 L14.479 671.745 L14.479 665.889 L64.0042 665.889 L64.0042 671.745 L58.657 671.745 Q61.8398 673.591 63.3994 676.424 Q64.9272 679.225 64.9272 683.172 Q64.9272 689.633 59.771 693.707 Q54.6147 697.749 46.212 697.749 Q37.8093 697.749 32.6531 693.707 Q27.4968 689.633 27.4968 683.172 Q27.4968 679.225 29.0564 676.424 Q30.5842 673.591 33.7671 671.745 M46.212 691.702 Q52.6732 691.702 56.3653 689.06 Q60.0256 686.386 60.0256 681.739 Q60.0256 677.092 56.3653 674.419 Q52.6732 671.745 46.212 671.745 Q39.7508 671.745 36.0905 674.419 Q32.3984 677.092 32.3984 681.739 Q32.3984 686.386 36.0905 689.06 Q39.7508 691.702 46.212 691.702 Z" fill="#000000" fill-rule="evenodd" fill-opacity="1" /><path clip-path="url(#clip870)" d="M49.9359 654.43 L28.3562 654.43 L28.3562 648.574 L49.7131 648.574 Q54.7739 648.574 57.3202 646.601 Q59.8346 644.627 59.8346 640.681 Q59.8346 635.938 56.8109 633.201 Q53.7872 630.432 48.5673 630.432 L28.3562 630.432 L28.3562 624.575 L64.0042 624.575 L64.0042 630.432 L58.5296 630.432 Q61.7762 632.564 63.3676 635.397 Q64.9272 638.198 64.9272 641.922 Q64.9272 648.065 61.1078 651.248 Q57.2883 654.43 49.9359 654.43 M27.4968 639.694 L27.4968 639.694 Z" fill="#000000" fill-rule="evenodd" fill-opacity="1" /><path clip-path="url(#clip870)" d="M29.7248 586.859 L35.1993 586.859 Q33.8307 589.341 33.1623 591.856 Q32.4621 594.338 32.4621 596.885 Q32.4621 602.582 36.0905 605.733 Q39.6872 608.884 46.212 608.884 Q52.7369 608.884 56.3653 605.733 Q59.9619 602.582 59.9619 596.885 Q59.9619 594.338 59.2935 591.856 Q58.5933 589.341 57.2247 586.859 L62.6355 586.859 Q63.7814 589.309 64.3543 591.951 Q64.9272 594.561 64.9272 597.521 Q64.9272 605.574 59.8664 610.316 Q54.8057 615.059 46.212 615.059 Q37.491 615.059 32.4939 610.284 Q27.4968 605.478 27.4968 597.139 Q27.4968 594.434 28.0697 591.856 Q28.6108 589.277 29.7248 586.859 Z" fill="#000000" fill-rule="evenodd" fill-opacity="1" /><path clip-path="url(#clip870)" d="M18.2347 570.881 L28.3562 570.881 L28.3562 558.818 L32.9077 558.818 L32.9077 570.881 L52.2594 570.881 Q56.6199 570.881 57.8613 569.703 Q59.1026 568.493 59.1026 564.833 L59.1026 558.818 L64.0042 558.818 L64.0042 564.833 Q64.0042 571.613 61.4897 574.191 Q58.9434 576.769 52.2594 576.769 L32.9077 576.769 L32.9077 581.066 L28.3562 581.066 L28.3562 576.769 L18.2347 576.769 L18.2347 570.881 Z" fill="#000000" fill-rule="evenodd" fill-opacity="1" /><path clip-path="url(#clip870)" d="M1173.95 17.6457 Q1165.04 17.6457 1159.77 24.2892 Q1154.54 30.9327 1154.54 42.3968 Q1154.54 53.8203 1159.77 60.4638 Q1165.04 67.1073 1173.95 67.1073 Q1182.86 67.1073 1188.04 60.4638 Q1193.27 53.8203 1193.27 42.3968 Q1193.27 30.9327 1188.04 24.2892 Q1182.86 17.6457 1173.95 17.6457 M1173.95 11.0023 Q1186.67 11.0023 1194.28 19.5497 Q1201.9 28.0566 1201.9 42.3968 Q1201.9 56.6965 1194.28 65.2439 Q1186.67 73.7508 1173.95 73.7508 Q1161.19 73.7508 1153.53 65.2439 Q1145.92 56.737 1145.92 42.3968 Q1145.92 28.0566 1153.53 19.5497 Q1161.19 11.0023 1173.95 11.0023 Z" fill="#000000" fill-rule="evenodd" fill-opacity="1" /><path clip-path="url(#clip870)" d="M1209.03 27.2059 L1216.93 27.2059 L1231.11 65.2844 L1245.28 27.2059 L1253.18 27.2059 L1236.17 72.576 L1226.04 72.576 L1209.03 27.2059 Z" fill="#000000" fill-rule="evenodd" fill-opacity="1" /><path clip-path="url(#clip870)" d="M1302.28 48.0275 L1302.28 51.6733 L1268.01 51.6733 Q1268.5 59.3701 1272.63 63.421 Q1276.8 67.4314 1284.21 67.4314 Q1288.51 67.4314 1292.52 66.3781 Q1296.57 65.3249 1300.54 63.2184 L1300.54 70.267 Q1296.53 71.9684 1292.32 72.8596 Q1288.1 73.7508 1283.77 73.7508 Q1272.91 73.7508 1266.55 67.4314 Q1260.23 61.1119 1260.23 50.3365 Q1260.23 39.1965 1266.23 32.6746 Q1272.26 26.1121 1282.47 26.1121 Q1291.63 26.1121 1296.93 32.0264 Q1302.28 37.9003 1302.28 48.0275 M1294.83 45.84 Q1294.75 39.7232 1291.38 36.0774 Q1288.06 32.4315 1282.55 32.4315 Q1276.31 32.4315 1272.55 35.9558 Q1268.82 39.4801 1268.25 45.8805 L1294.83 45.84 Z" fill="#000000" fill-rule="evenodd" fill-opacity="1" /><path clip-path="url(#clip870)" d="M1340.8 34.1734 Q1339.55 33.4443 1338.05 33.1202 Q1336.59 32.7556 1334.81 32.7556 Q1328.49 32.7556 1325.09 36.8875 Q1321.72 40.9789 1321.72 48.6757 L1321.72 72.576 L1314.23 72.576 L1314.23 27.2059 L1321.72 27.2059 L1321.72 34.2544 Q1324.07 30.1225 1327.84 28.1376 Q1331.61 26.1121 1337 26.1121 Q1337.77 26.1121 1338.7 26.2337 Q1339.63 26.3147 1340.76 26.5172 L1340.8 34.1734 Z" fill="#000000" fill-rule="evenodd" fill-opacity="1" /><path clip-path="url(#clip870)" d="M1348.62 9.54393 L1356.08 9.54393 L1356.08 72.576 L1348.62 72.576 L1348.62 9.54393 Z" fill="#000000" fill-rule="evenodd" fill-opacity="1" /><path clip-path="url(#clip870)" d="M1392.29 49.7694 Q1383.26 49.7694 1379.77 51.8354 Q1376.29 53.9013 1376.29 58.8839 Q1376.29 62.8538 1378.88 65.2034 Q1381.52 67.5124 1386.01 67.5124 Q1392.21 67.5124 1395.94 63.1374 Q1399.7 58.7219 1399.7 51.4303 L1399.7 49.7694 L1392.29 49.7694 M1407.16 46.6907 L1407.16 72.576 L1399.7 72.576 L1399.7 65.6895 Q1397.15 69.8214 1393.34 71.8063 Q1389.54 73.7508 1384.03 73.7508 Q1377.06 73.7508 1372.93 69.8619 Q1368.84 65.9325 1368.84 59.3701 Q1368.84 51.7138 1373.94 47.825 Q1379.09 43.9361 1389.25 43.9361 L1399.7 43.9361 L1399.7 43.2069 Q1399.7 38.0623 1396.3 35.2672 Q1392.94 32.4315 1386.82 32.4315 Q1382.93 32.4315 1379.25 33.3632 Q1375.56 34.295 1372.16 36.1584 L1372.16 29.2718 Q1376.25 27.692 1380.1 26.9223 Q1383.95 26.1121 1387.59 26.1121 Q1397.44 26.1121 1402.3 31.2163 Q1407.16 36.3204 1407.16 46.6907 Z" fill="#000000" fill-rule="evenodd" fill-opacity="1" /><path clip-path="url(#clip870)" d="M1429.72 65.7705 L1429.72 89.8329 L1422.23 89.8329 L1422.23 27.2059 L1429.72 27.2059 L1429.72 34.0924 Q1432.07 30.0415 1435.64 28.0971 Q1439.24 26.1121 1444.22 26.1121 Q1452.49 26.1121 1457.63 32.6746 Q1462.82 39.2371 1462.82 49.9314 Q1462.82 60.6258 1457.63 67.1883 Q1452.49 73.7508 1444.22 73.7508 Q1439.24 73.7508 1435.64 71.8063 Q1432.07 69.8214 1429.72 65.7705 M1455.08 49.9314 Q1455.08 41.7081 1451.68 37.0496 Q1448.32 32.3505 1442.4 32.3505 Q1436.49 32.3505 1433.08 37.0496 Q1429.72 41.7081 1429.72 49.9314 Q1429.72 58.1548 1433.08 62.8538 Q1436.49 67.5124 1442.4 67.5124 Q1448.32 67.5124 1451.68 62.8538 Q1455.08 58.1548 1455.08 49.9314 Z" fill="#000000" fill-rule="evenodd" fill-opacity="1" /><circle clip-path="url(#clip872)" cx="336.623" cy="366.404" r="7.2" fill="#009af9" fill-rule="evenodd" fill-opacity="1" stroke="#000000" stroke-opacity="1" stroke-width="3.2"/>
<circle clip-path="url(#clip872)" cx="376.945" cy="393.199" r="7.2" fill="#009af9" fill-rule="evenodd" fill-opacity="1" stroke="#000000" stroke-opacity="1" stroke-width="3.2"/>
<circle clip-path="url(#clip872)" cx="417.268" cy="376.151" r="7.2" fill="#009af9" fill-rule="evenodd" fill-opacity="1" stroke="#000000" stroke-opacity="1" stroke-width="3.2"/>
<circle clip-path="url(#clip872)" cx="457.591" cy="388.19" r="7.2" fill="#009af9" fill-rule="evenodd" fill-opacity="1" stroke="#000000" stroke-opacity="1" stroke-width="3.2"/>
<circle clip-path="url(#clip872)" cx="497.913" cy="377.164" r="7.2" fill="#009af9" fill-rule="evenodd" fill-opacity="1" stroke="#000000" stroke-opacity="1" stroke-width="3.2"/>
<circle clip-path="url(#clip872)" cx="538.236" cy="386.182" r="7.2" fill="#009af9" fill-rule="evenodd" fill-opacity="1" stroke="#000000" stroke-opacity="1" stroke-width="3.2"/>
<circle clip-path="url(#clip872)" cx="578.559" cy="377.112" r="7.2" fill="#009af9" fill-rule="evenodd" fill-opacity="1" stroke="#000000" stroke-opacity="1" stroke-width="3.2"/>
<circle clip-path="url(#clip872)" cx="618.881" cy="387.472" r="7.2" fill="#009af9" fill-rule="evenodd" fill-opacity="1" stroke="#000000" stroke-opacity="1" stroke-width="3.2"/>
<circle clip-path="url(#clip872)" cx="659.204" cy="377.682" r="7.2" fill="#009af9" fill-rule="evenodd" fill-opacity="1" stroke="#000000" stroke-opacity="1" stroke-width="3.2"/>
<circle clip-path="url(#clip872)" cx="699.527" cy="389.879" r="7.2" fill="#009af9" fill-rule="evenodd" fill-opacity="1" stroke="#000000" stroke-opacity="1" stroke-width="3.2"/>
<circle clip-path="url(#clip872)" cx="739.849" cy="374.485" r="7.2" fill="#009af9" fill-rule="evenodd" fill-opacity="1" stroke="#000000" stroke-opacity="1" stroke-width="3.2"/>
<circle clip-path="url(#clip872)" cx="780.172" cy="387.467" r="7.2" fill="#009af9" fill-rule="evenodd" fill-opacity="1" stroke="#000000" stroke-opacity="1" stroke-width="3.2"/>
<circle clip-path="url(#clip872)" cx="820.495" cy="379.727" r="7.2" fill="#009af9" fill-rule="evenodd" fill-opacity="1" stroke="#000000" stroke-opacity="1" stroke-width="3.2"/>
<circle clip-path="url(#clip872)" cx="860.817" cy="385.849" r="7.2" fill="#009af9" fill-rule="evenodd" fill-opacity="1" stroke="#000000" stroke-opacity="1" stroke-width="3.2"/>
<circle clip-path="url(#clip872)" cx="901.14" cy="379.055" r="7.2" fill="#009af9" fill-rule="evenodd" fill-opacity="1" stroke="#000000" stroke-opacity="1" stroke-width="3.2"/>
<circle clip-path="url(#clip872)" cx="941.463" cy="385.108" r="7.2" fill="#009af9" fill-rule="evenodd" fill-opacity="1" stroke="#000000" stroke-opacity="1" stroke-width="3.2"/>
<circle clip-path="url(#clip872)" cx="981.785" cy="377.221" r="7.2" fill="#009af9" fill-rule="evenodd" fill-opacity="1" stroke="#000000" stroke-opacity="1" stroke-width="3.2"/>
<circle clip-path="url(#clip872)" cx="1022.11" cy="385.895" r="7.2" fill="#009af9" fill-rule="evenodd" fill-opacity="1" stroke="#000000" stroke-opacity="1" stroke-width="3.2"/>
<circle clip-path="url(#clip872)" cx="1062.43" cy="376.911" r="7.2" fill="#009af9" fill-rule="evenodd" fill-opacity="1" stroke="#000000" stroke-opacity="1" stroke-width="3.2"/>
<circle clip-path="url(#clip872)" cx="1102.75" cy="385.705" r="7.2" fill="#009af9" fill-rule="evenodd" fill-opacity="1" stroke="#000000" stroke-opacity="1" stroke-width="3.2"/>
<circle clip-path="url(#clip872)" cx="1143.08" cy="378.787" r="7.2" fill="#009af9" fill-rule="evenodd" fill-opacity="1" stroke="#000000" stroke-opacity="1" stroke-width="3.2"/>
<circle clip-path="url(#clip872)" cx="1183.4" cy="388.034" r="7.2" fill="#009af9" fill-rule="evenodd" fill-opacity="1" stroke="#000000" stroke-opacity="1" stroke-width="3.2"/>
<circle clip-path="url(#clip872)" cx="1223.72" cy="375.76" r="7.2" fill="#009af9" fill-rule="evenodd" fill-opacity="1" stroke="#000000" stroke-opacity="1" stroke-width="3.2"/>
<circle clip-path="url(#clip872)" cx="1264.04" cy="383.775" r="7.2" fill="#009af9" fill-rule="evenodd" fill-opacity="1" stroke="#000000" stroke-opacity="1" stroke-width="3.2"/>
<circle clip-path="url(#clip872)" cx="1304.37" cy="377.185" r="7.2" fill="#009af9" fill-rule="evenodd" fill-opacity="1" stroke="#000000" stroke-opacity="1" stroke-width="3.2"/>
<circle clip-path="url(#clip872)" cx="1344.69" cy="387.49" r="7.2" fill="#009af9" fill-rule="evenodd" fill-opacity="1" stroke="#000000" stroke-opacity="1" stroke-width="3.2"/>
<circle clip-path="url(#clip872)" cx="1385.01" cy="376.716" r="7.2" fill="#009af9" fill-rule="evenodd" fill-opacity="1" stroke="#000000" stroke-opacity="1" stroke-width="3.2"/>
<circle clip-path="url(#clip872)" cx="1425.33" cy="392.926" r="7.2" fill="#009af9" fill-rule="evenodd" fill-opacity="1" stroke="#000000" stroke-opacity="1" stroke-width="3.2"/>
<circle clip-path="url(#clip872)" cx="1465.66" cy="378.424" r="7.2" fill="#009af9" fill-rule="evenodd" fill-opacity="1" stroke="#000000" stroke-opacity="1" stroke-width="3.2"/>
<circle clip-path="url(#clip872)" cx="1505.98" cy="386.953" r="7.2" fill="#009af9" fill-rule="evenodd" fill-opacity="1" stroke="#000000" stroke-opacity="1" stroke-width="3.2"/>
<circle clip-path="url(#clip872)" cx="1546.3" cy="377.058" r="7.2" fill="#009af9" fill-rule="evenodd" fill-opacity="1" stroke="#000000" stroke-opacity="1" stroke-width="3.2"/>
<circle clip-path="url(#clip872)" cx="1586.63" cy="384.756" r="7.2" fill="#009af9" fill-rule="evenodd" fill-opacity="1" stroke="#000000" stroke-opacity="1" stroke-width="3.2"/>
<circle clip-path="url(#clip872)" cx="1626.95" cy="378.263" r="7.2" fill="#009af9" fill-rule="evenodd" fill-opacity="1" stroke="#000000" stroke-opacity="1" stroke-width="3.2"/>
<circle clip-path="url(#clip872)" cx="1667.27" cy="384.54" r="7.2" fill="#009af9" fill-rule="evenodd" fill-opacity="1" stroke="#000000" stroke-opacity="1" stroke-width="3.2"/>
<circle clip-path="url(#clip872)" cx="1707.59" cy="381.354" r="7.2" fill="#009af9" fill-rule="evenodd" fill-opacity="1" stroke="#000000" stroke-opacity="1" stroke-width="3.2"/>
<circle clip-path="url(#clip872)" cx="1747.92" cy="384.738" r="7.2" fill="#009af9" fill-rule="evenodd" fill-opacity="1" stroke="#000000" stroke-opacity="1" stroke-width="3.2"/>
<circle clip-path="url(#clip872)" cx="1788.24" cy="376.332" r="7.2" fill="#009af9" fill-rule="evenodd" fill-opacity="1" stroke="#000000" stroke-opacity="1" stroke-width="3.2"/>
<circle clip-path="url(#clip872)" cx="1828.56" cy="386.201" r="7.2" fill="#009af9" fill-rule="evenodd" fill-opacity="1" stroke="#000000" stroke-opacity="1" stroke-width="3.2"/>
<circle clip-path="url(#clip872)" cx="1868.88" cy="376.332" r="7.2" fill="#009af9" fill-rule="evenodd" fill-opacity="1" stroke="#000000" stroke-opacity="1" stroke-width="3.2"/>
<circle clip-path="url(#clip872)" cx="1909.21" cy="386.05" r="7.2" fill="#009af9" fill-rule="evenodd" fill-opacity="1" stroke="#000000" stroke-opacity="1" stroke-width="3.2"/>
<circle clip-path="url(#clip872)" cx="1949.53" cy="377.809" r="7.2" fill="#009af9" fill-rule="evenodd" fill-opacity="1" stroke="#000000" stroke-opacity="1" stroke-width="3.2"/>
<circle clip-path="url(#clip872)" cx="1989.85" cy="391.369" r="7.2" fill="#009af9" fill-rule="evenodd" fill-opacity="1" stroke="#000000" stroke-opacity="1" stroke-width="3.2"/>
<circle clip-path="url(#clip872)" cx="2030.17" cy="377.193" r="7.2" fill="#009af9" fill-rule="evenodd" fill-opacity="1" stroke="#000000" stroke-opacity="1" stroke-width="3.2"/>
<circle clip-path="url(#clip872)" cx="2070.5" cy="385.973" r="7.2" fill="#009af9" fill-rule="evenodd" fill-opacity="1" stroke="#000000" stroke-opacity="1" stroke-width="3.2"/>
<circle clip-path="url(#clip872)" cx="2110.82" cy="378.01" r="7.2" fill="#009af9" fill-rule="evenodd" fill-opacity="1" stroke="#000000" stroke-opacity="1" stroke-width="3.2"/>
<circle clip-path="url(#clip872)" cx="2151.14" cy="390.297" r="7.2" fill="#009af9" fill-rule="evenodd" fill-opacity="1" stroke="#000000" stroke-opacity="1" stroke-width="3.2"/>
<circle clip-path="url(#clip872)" cx="2191.47" cy="378.207" r="7.2" fill="#009af9" fill-rule="evenodd" fill-opacity="1" stroke="#000000" stroke-opacity="1" stroke-width="3.2"/>
<circle clip-path="url(#clip872)" cx="2231.79" cy="385.677" r="7.2" fill="#009af9" fill-rule="evenodd" fill-opacity="1" stroke="#000000" stroke-opacity="1" stroke-width="3.2"/>
<circle clip-path="url(#clip872)" cx="2272.11" cy="377.363" r="7.2" fill="#009af9" fill-rule="evenodd" fill-opacity="1" stroke="#000000" stroke-opacity="1" stroke-width="3.2"/>
<circle clip-path="url(#clip872)" cx="2312.43" cy="386.714" r="7.2" fill="#009af9" fill-rule="evenodd" fill-opacity="1" stroke="#000000" stroke-opacity="1" stroke-width="3.2"/>
<circle clip-path="url(#clip872)" cx="2352.76" cy="377.159" r="7.2" fill="#009af9" fill-rule="evenodd" fill-opacity="1" stroke="#000000" stroke-opacity="1" stroke-width="3.2"/>
<path clip-path="url(#clip870)" d="
M2020.76 1379.86 L2282.86 1379.86 L2282.86 1276.18 L2020.76 1276.18  Z
  " fill="#ffffff" fill-rule="evenodd" fill-opacity="1"/>
<polyline clip-path="url(#clip870)" style="stroke:#000000; stroke-linecap:round; stroke-linejoin:round; stroke-width:4; stroke-opacity:1; fill:none" points="
  2020.76,1379.86 2282.86,1379.86 2282.86,1276.18 2020.76,1276.18 2020.76,1379.86 
  "/>
<circle clip-path="url(#clip870)" cx="2113.95" cy="1328.02" r="23.04" fill="#009af9" fill-rule="evenodd" fill-opacity="1" stroke="#000000" stroke-opacity="1" stroke-width="10.24"/>
<path clip-path="url(#clip870)" d="M2220.98 1347.7 Q2219.17 1352.33 2217.46 1353.75 Q2215.75 1355.16 2212.88 1355.16 L2209.47 1355.16 L2209.47 1351.59 L2211.97 1351.59 Q2213.73 1351.59 2214.7 1350.76 Q2215.68 1349.93 2216.86 1346.82 L2217.62 1344.88 L2207.14 1319.37 L2211.65 1319.37 L2219.75 1339.65 L2227.85 1319.37 L2232.37 1319.37 L2220.98 1347.7 Z" fill="#000000" fill-rule="evenodd" fill-opacity="1" /><path clip-path="url(#clip870)" d="M2239.66 1341.36 L2247.3 1341.36 L2247.3 1315 L2238.99 1316.66 L2238.99 1312.4 L2247.25 1310.74 L2251.93 1310.74 L2251.93 1341.36 L2259.57 1341.36 L2259.57 1345.3 L2239.66 1345.3 L2239.66 1341.36 Z" fill="#000000" fill-rule="evenodd" fill-opacity="1" /></svg>
