<?xml version="1.0" encoding="utf-8"?>
<svg xmlns="http://www.w3.org/2000/svg" xmlns:xlink="http://www.w3.org/1999/xlink" width="600" height="400" viewBox="0 0 2400 1600">
<defs>
  <clipPath id="clip270">
    <rect x="0" y="0" width="2400" height="1600"/>
  </clipPath>
</defs>
<path clip-path="url(#clip270)" d="
M0 1600 L2400 1600 L2400 0 L0 0  Z
  " fill="#ffffff" fill-rule="evenodd" fill-opacity="1"/>
<defs>
  <clipPath id="clip271">
    <rect x="480" y="0" width="1681" height="1600"/>
  </clipPath>
</defs>
<path clip-path="url(#clip270)" d="
M250.028 1423.18 L2352.76 1423.18 L2352.76 123.472 L250.028 123.472  Z
  " fill="#ffffff" fill-rule="evenodd" fill-opacity="1"/>
<defs>
  <clipPath id="clip272">
    <rect x="250" y="123" width="2104" height="1301"/>
  </clipPath>
</defs>
<polyline clip-path="url(#clip272)" style="stroke:#000000; stroke-linecap:round; stroke-linejoin:round; stroke-width:2; stroke-opacity:0.1; fill:none" points="
  290.858,1423.18 290.858,123.472 
  "/>
<polyline clip-path="url(#clip272)" style="stroke:#000000; stroke-linecap:round; stroke-linejoin:round; stroke-width:2; stroke-opacity:0.1; fill:none" points="
  495.006,1423.18 495.006,123.472 
  "/>
<polyline clip-path="url(#clip272)" style="stroke:#000000; stroke-linecap:round; stroke-linejoin:round; stroke-width:2; stroke-opacity:0.1; fill:none" points="
  699.154,1423.18 699.154,123.472 
  "/>
<polyline clip-path="url(#clip272)" style="stroke:#000000; stroke-linecap:round; stroke-linejoin:round; stroke-width:2; stroke-opacity:0.1; fill:none" points="
  903.303,1423.18 903.303,123.472 
  "/>
<polyline clip-path="url(#clip272)" style="stroke:#000000; stroke-linecap:round; stroke-linejoin:round; stroke-width:2; stroke-opacity:0.1; fill:none" points="
  1107.45,1423.18 1107.45,123.472 
  "/>
<polyline clip-path="url(#clip272)" style="stroke:#000000; stroke-linecap:round; stroke-linejoin:round; stroke-width:2; stroke-opacity:0.1; fill:none" points="
  1311.6,1423.18 1311.6,123.472 
  "/>
<polyline clip-path="url(#clip272)" style="stroke:#000000; stroke-linecap:round; stroke-linejoin:round; stroke-width:2; stroke-opacity:0.1; fill:none" points="
  1515.75,1423.18 1515.75,123.472 
  "/>
<polyline clip-path="url(#clip272)" style="stroke:#000000; stroke-linecap:round; stroke-linejoin:round; stroke-width:2; stroke-opacity:0.1; fill:none" points="
  1719.9,1423.18 1719.9,123.472 
  "/>
<polyline clip-path="url(#clip272)" style="stroke:#000000; stroke-linecap:round; stroke-linejoin:round; stroke-width:2; stroke-opacity:0.1; fill:none" points="
  1924.04,1423.18 1924.04,123.472 
  "/>
<polyline clip-path="url(#clip272)" style="stroke:#000000; stroke-linecap:round; stroke-linejoin:round; stroke-width:2; stroke-opacity:0.1; fill:none" points="
  2128.19,1423.18 2128.19,123.472 
  "/>
<polyline clip-path="url(#clip272)" style="stroke:#000000; stroke-linecap:round; stroke-linejoin:round; stroke-width:2; stroke-opacity:0.1; fill:none" points="
  2332.34,1423.18 2332.34,123.472 
  "/>
<polyline clip-path="url(#clip270)" style="stroke:#000000; stroke-linecap:round; stroke-linejoin:round; stroke-width:4; stroke-opacity:1; fill:none" points="
  250.028,1423.18 2352.76,1423.18 
  "/>
<polyline clip-path="url(#clip270)" style="stroke:#000000; stroke-linecap:round; stroke-linejoin:round; stroke-width:4; stroke-opacity:1; fill:none" points="
  290.858,1423.18 290.858,1404.28 
  "/>
<polyline clip-path="url(#clip270)" style="stroke:#000000; stroke-linecap:round; stroke-linejoin:round; stroke-width:4; stroke-opacity:1; fill:none" points="
  495.006,1423.18 495.006,1404.28 
  "/>
<polyline clip-path="url(#clip270)" style="stroke:#000000; stroke-linecap:round; stroke-linejoin:round; stroke-width:4; stroke-opacity:1; fill:none" points="
  699.154,1423.18 699.154,1404.28 
  "/>
<polyline clip-path="url(#clip270)" style="stroke:#000000; stroke-linecap:round; stroke-linejoin:round; stroke-width:4; stroke-opacity:1; fill:none" points="
  903.303,1423.18 903.303,1404.28 
  "/>
<polyline clip-path="url(#clip270)" style="stroke:#000000; stroke-linecap:round; stroke-linejoin:round; stroke-width:4; stroke-opacity:1; fill:none" points="
  1107.45,1423.18 1107.45,1404.28 
  "/>
<polyline clip-path="url(#clip270)" style="stroke:#000000; stroke-linecap:round; stroke-linejoin:round; stroke-width:4; stroke-opacity:1; fill:none" points="
  1311.6,1423.18 1311.6,1404.28 
  "/>
<polyline clip-path="url(#clip270)" style="stroke:#000000; stroke-linecap:round; stroke-linejoin:round; stroke-width:4; stroke-opacity:1; fill:none" points="
  1515.75,1423.18 1515.75,1404.28 
  "/>
<polyline clip-path="url(#clip270)" style="stroke:#000000; stroke-linecap:round; stroke-linejoin:round; stroke-width:4; stroke-opacity:1; fill:none" points="
  1719.9,1423.18 1719.9,1404.28 
  "/>
<polyline clip-path="url(#clip270)" style="stroke:#000000; stroke-linecap:round; stroke-linejoin:round; stroke-width:4; stroke-opacity:1; fill:none" points="
  1924.04,1423.18 1924.04,1404.28 
  "/>
<polyline clip-path="url(#clip270)" style="stroke:#000000; stroke-linecap:round; stroke-linejoin:round; stroke-width:4; stroke-opacity:1; fill:none" points="
  2128.19,1423.18 2128.19,1404.28 
  "/>
<polyline clip-path="url(#clip270)" style="stroke:#000000; stroke-linecap:round; stroke-linejoin:round; stroke-width:4; stroke-opacity:1; fill:none" points="
  2332.34,1423.18 2332.34,1404.28 
  "/>
<path clip-path="url(#clip270)" d="M281.24 1481.64 L288.879 1481.64 L288.879 1455.28 L280.569 1456.95 L280.569 1452.69 L288.832 1451.02 L293.508 1451.02 L293.508 1481.64 L301.147 1481.64 L301.147 1485.58 L281.24 1485.58 L281.24 1481.64 Z" fill="#000000" fill-rule="evenodd" fill-opacity="1" /><path clip-path="url(#clip270)" d="M470.307 1481.64 L477.946 1481.64 L477.946 1455.28 L469.636 1456.95 L469.636 1452.69 L477.9 1451.02 L482.576 1451.02 L482.576 1481.64 L490.214 1481.64 L490.214 1485.58 L470.307 1485.58 L470.307 1481.64 Z" fill="#000000" fill-rule="evenodd" fill-opacity="1" /><path clip-path="url(#clip270)" d="M500.469 1481.64 L508.108 1481.64 L508.108 1455.28 L499.798 1456.95 L499.798 1452.69 L508.062 1451.02 L512.738 1451.02 L512.738 1481.64 L520.376 1481.64 L520.376 1485.58 L500.469 1485.58 L500.469 1481.64 Z" fill="#000000" fill-rule="evenodd" fill-opacity="1" /><path clip-path="url(#clip270)" d="M678.541 1481.64 L694.861 1481.64 L694.861 1485.58 L672.916 1485.58 L672.916 1481.64 Q675.578 1478.89 680.162 1474.26 Q684.768 1469.61 685.949 1468.27 Q688.194 1465.74 689.073 1464.01 Q689.976 1462.25 689.976 1460.56 Q689.976 1457.8 688.032 1456.07 Q686.111 1454.33 683.009 1454.33 Q680.81 1454.33 678.356 1455.09 Q675.925 1455.86 673.148 1457.41 L673.148 1452.69 Q675.972 1451.55 678.425 1450.97 Q680.879 1450.39 682.916 1450.39 Q688.286 1450.39 691.481 1453.08 Q694.675 1455.77 694.675 1460.26 Q694.675 1462.39 693.865 1464.31 Q693.078 1466.2 690.972 1468.8 Q690.393 1469.47 687.291 1472.69 Q684.189 1475.88 678.541 1481.64 Z" fill="#000000" fill-rule="evenodd" fill-opacity="1" /><path clip-path="url(#clip270)" d="M705.485 1481.64 L713.124 1481.64 L713.124 1455.28 L704.814 1456.95 L704.814 1452.69 L713.078 1451.02 L717.754 1451.02 L717.754 1481.64 L725.393 1481.64 L725.393 1485.58 L705.485 1485.58 L705.485 1481.64 Z" fill="#000000" fill-rule="evenodd" fill-opacity="1" /><path clip-path="url(#clip270)" d="M892.759 1466.95 Q896.115 1467.66 897.99 1469.93 Q899.888 1472.2 899.888 1475.53 Q899.888 1480.65 896.37 1483.45 Q892.851 1486.25 886.37 1486.25 Q884.194 1486.25 881.879 1485.81 Q879.588 1485.39 877.134 1484.54 L877.134 1480.02 Q879.078 1481.16 881.393 1481.74 Q883.708 1482.32 886.231 1482.32 Q890.629 1482.32 892.921 1480.58 Q895.236 1478.84 895.236 1475.53 Q895.236 1472.48 893.083 1470.77 Q890.953 1469.03 887.134 1469.03 L883.106 1469.03 L883.106 1465.19 L887.319 1465.19 Q890.768 1465.19 892.597 1463.82 Q894.426 1462.43 894.426 1459.84 Q894.426 1457.18 892.527 1455.77 Q890.652 1454.33 887.134 1454.33 Q885.213 1454.33 883.014 1454.75 Q880.814 1455.16 878.176 1456.04 L878.176 1451.88 Q880.838 1451.14 883.152 1450.77 Q885.49 1450.39 887.551 1450.39 Q892.875 1450.39 895.976 1452.83 Q899.078 1455.23 899.078 1459.35 Q899.078 1462.22 897.435 1464.21 Q895.791 1466.18 892.759 1466.95 Z" fill="#000000" fill-rule="evenodd" fill-opacity="1" /><path clip-path="url(#clip270)" d="M909.564 1481.64 L917.203 1481.64 L917.203 1455.28 L908.893 1456.95 L908.893 1452.69 L917.157 1451.02 L921.833 1451.02 L921.833 1481.64 L929.472 1481.64 L929.472 1485.58 L909.564 1485.58 L909.564 1481.64 Z" fill="#000000" fill-rule="evenodd" fill-opacity="1" /><path clip-path="url(#clip270)" d="M1096.24 1455.09 L1084.43 1473.54 L1096.24 1473.54 L1096.24 1455.09 M1095.01 1451.02 L1100.89 1451.02 L1100.89 1473.54 L1105.82 1473.54 L1105.82 1477.43 L1100.89 1477.43 L1100.89 1485.58 L1096.24 1485.58 L1096.24 1477.43 L1080.63 1477.43 L1080.63 1472.92 L1095.01 1451.02 Z" fill="#000000" fill-rule="evenodd" fill-opacity="1" /><path clip-path="url(#clip270)" d="M1114.36 1481.64 L1122 1481.64 L1122 1455.28 L1113.69 1456.95 L1113.69 1452.69 L1121.95 1451.02 L1126.63 1451.02 L1126.63 1481.64 L1134.27 1481.64 L1134.27 1485.58 L1114.36 1485.58 L1114.36 1481.64 Z" fill="#000000" fill-rule="evenodd" fill-opacity="1" /><path clip-path="url(#clip270)" d="M1286.91 1451.02 L1305.27 1451.02 L1305.27 1454.96 L1291.19 1454.96 L1291.19 1463.43 Q1292.21 1463.08 1293.23 1462.92 Q1294.25 1462.73 1295.27 1462.73 Q1301.06 1462.73 1304.44 1465.9 Q1307.81 1469.08 1307.81 1474.49 Q1307.81 1480.07 1304.34 1483.17 Q1300.87 1486.25 1294.55 1486.25 Q1292.38 1486.25 1290.11 1485.88 Q1287.86 1485.51 1285.45 1484.77 L1285.45 1480.07 Q1287.54 1481.2 1289.76 1481.76 Q1291.98 1482.32 1294.46 1482.32 Q1298.46 1482.32 1300.8 1480.21 Q1303.14 1478.1 1303.14 1474.49 Q1303.14 1470.88 1300.8 1468.77 Q1298.46 1466.67 1294.46 1466.67 Q1292.58 1466.67 1290.71 1467.08 Q1288.86 1467.5 1286.91 1468.38 L1286.91 1451.02 Z" fill="#000000" fill-rule="evenodd" fill-opacity="1" /><path clip-path="url(#clip270)" d="M1317.84 1481.64 L1325.48 1481.64 L1325.48 1455.28 L1317.17 1456.95 L1317.17 1452.69 L1325.43 1451.02 L1330.11 1451.02 L1330.11 1481.64 L1337.75 1481.64 L1337.75 1485.58 L1317.84 1485.58 L1317.84 1481.64 Z" fill="#000000" fill-rule="evenodd" fill-opacity="1" /><path clip-path="url(#clip270)" d="M1501.77 1466.44 Q1498.62 1466.44 1496.77 1468.59 Q1494.94 1470.74 1494.94 1474.49 Q1494.94 1478.22 1496.77 1480.39 Q1498.62 1482.55 1501.77 1482.55 Q1504.91 1482.55 1506.74 1480.39 Q1508.6 1478.22 1508.6 1474.49 Q1508.6 1470.74 1506.74 1468.59 Q1504.91 1466.44 1501.77 1466.44 M1511.05 1451.78 L1511.05 1456.04 Q1509.29 1455.21 1507.48 1454.77 Q1505.7 1454.33 1503.94 1454.33 Q1499.31 1454.33 1496.86 1457.45 Q1494.43 1460.58 1494.08 1466.9 Q1495.45 1464.89 1497.51 1463.82 Q1499.57 1462.73 1502.04 1462.73 Q1507.25 1462.73 1510.26 1465.9 Q1513.29 1469.05 1513.29 1474.49 Q1513.29 1479.82 1510.15 1483.03 Q1507 1486.25 1501.77 1486.25 Q1495.77 1486.25 1492.6 1481.67 Q1489.43 1477.06 1489.43 1468.33 Q1489.43 1460.14 1493.32 1455.28 Q1497.21 1450.39 1503.76 1450.39 Q1505.52 1450.39 1507.3 1450.74 Q1509.1 1451.09 1511.05 1451.78 Z" fill="#000000" fill-rule="evenodd" fill-opacity="1" /><path clip-path="url(#clip270)" d="M1522.16 1481.64 L1529.8 1481.64 L1529.8 1455.28 L1521.49 1456.95 L1521.49 1452.69 L1529.75 1451.02 L1534.43 1451.02 L1534.43 1481.64 L1542.07 1481.64 L1542.07 1485.58 L1522.16 1485.58 L1522.16 1481.64 Z" fill="#000000" fill-rule="evenodd" fill-opacity="1" /><path clip-path="url(#clip270)" d="M1693.87 1451.02 L1716.09 1451.02 L1716.09 1453.01 L1703.54 1485.58 L1698.66 1485.58 L1710.46 1454.96 L1693.87 1454.96 L1693.87 1451.02 Z" fill="#000000" fill-rule="evenodd" fill-opacity="1" /><path clip-path="url(#clip270)" d="M1726.02 1481.64 L1733.66 1481.64 L1733.66 1455.28 L1725.35 1456.95 L1725.35 1452.69 L1733.61 1451.02 L1738.29 1451.02 L1738.29 1481.64 L1745.93 1481.64 L1745.93 1485.58 L1726.02 1485.58 L1726.02 1481.64 Z" fill="#000000" fill-rule="evenodd" fill-opacity="1" /><path clip-path="url(#clip270)" d="M1909.53 1469.17 Q1906.2 1469.17 1904.28 1470.95 Q1902.38 1472.73 1902.38 1475.86 Q1902.38 1478.98 1904.28 1480.77 Q1906.2 1482.55 1909.53 1482.55 Q1912.86 1482.55 1914.79 1480.77 Q1916.71 1478.96 1916.71 1475.86 Q1916.71 1472.73 1914.79 1470.95 Q1912.89 1469.17 1909.53 1469.17 M1904.85 1467.18 Q1901.85 1466.44 1900.16 1464.38 Q1898.49 1462.32 1898.49 1459.35 Q1898.49 1455.21 1901.43 1452.8 Q1904.39 1450.39 1909.53 1450.39 Q1914.69 1450.39 1917.63 1452.8 Q1920.57 1455.21 1920.57 1459.35 Q1920.57 1462.32 1918.88 1464.38 Q1917.22 1466.44 1914.23 1467.18 Q1917.61 1467.96 1919.48 1470.26 Q1921.38 1472.55 1921.38 1475.86 Q1921.38 1480.88 1918.3 1483.57 Q1915.25 1486.25 1909.53 1486.25 Q1903.81 1486.25 1900.73 1483.57 Q1897.68 1480.88 1897.68 1475.86 Q1897.68 1472.55 1899.58 1470.26 Q1901.48 1467.96 1904.85 1467.18 M1903.14 1459.79 Q1903.14 1462.48 1904.81 1463.98 Q1906.5 1465.49 1909.53 1465.49 Q1912.54 1465.49 1914.23 1463.98 Q1915.94 1462.48 1915.94 1459.79 Q1915.94 1457.11 1914.23 1455.6 Q1912.54 1454.1 1909.53 1454.1 Q1906.5 1454.1 1904.81 1455.6 Q1903.14 1457.11 1903.14 1459.79 Z" fill="#000000" fill-rule="evenodd" fill-opacity="1" /><path clip-path="url(#clip270)" d="M1930.5 1481.64 L1938.14 1481.64 L1938.14 1455.28 L1929.83 1456.95 L1929.83 1452.69 L1938.1 1451.02 L1942.77 1451.02 L1942.77 1481.64 L1950.41 1481.64 L1950.41 1485.58 L1930.5 1485.58 L1930.5 1481.64 Z" fill="#000000" fill-rule="evenodd" fill-opacity="1" /><path clip-path="url(#clip270)" d="M2103.93 1484.86 L2103.93 1480.6 Q2105.69 1481.44 2107.5 1481.88 Q2109.3 1482.32 2111.04 1482.32 Q2115.67 1482.32 2118.1 1479.21 Q2120.55 1476.09 2120.9 1469.75 Q2119.56 1471.74 2117.5 1472.8 Q2115.44 1473.87 2112.94 1473.87 Q2107.75 1473.87 2104.72 1470.74 Q2101.71 1467.59 2101.71 1462.15 Q2101.71 1456.83 2104.86 1453.61 Q2108.01 1450.39 2113.24 1450.39 Q2119.23 1450.39 2122.38 1455 Q2125.55 1459.58 2125.55 1468.33 Q2125.55 1476.51 2121.67 1481.39 Q2117.8 1486.25 2111.25 1486.25 Q2109.49 1486.25 2107.68 1485.9 Q2105.88 1485.56 2103.93 1484.86 M2113.24 1470.21 Q2116.39 1470.21 2118.22 1468.06 Q2120.07 1465.9 2120.07 1462.15 Q2120.07 1458.43 2118.22 1456.27 Q2116.39 1454.1 2113.24 1454.1 Q2110.09 1454.1 2108.24 1456.27 Q2106.41 1458.43 2106.41 1462.15 Q2106.41 1465.9 2108.24 1468.06 Q2110.09 1470.21 2113.24 1470.21 Z" fill="#000000" fill-rule="evenodd" fill-opacity="1" /><path clip-path="url(#clip270)" d="M2134.77 1481.64 L2142.41 1481.64 L2142.41 1455.28 L2134.1 1456.95 L2134.1 1452.69 L2142.36 1451.02 L2147.04 1451.02 L2147.04 1481.64 L2154.67 1481.64 L2154.67 1485.58 L2134.77 1485.58 L2134.77 1481.64 Z" fill="#000000" fill-rule="evenodd" fill-opacity="1" /><path clip-path="url(#clip270)" d="M2292.56 1481.64 L2300.2 1481.64 L2300.2 1455.28 L2291.89 1456.95 L2291.89 1452.69 L2300.15 1451.02 L2304.83 1451.02 L2304.83 1481.64 L2312.47 1481.64 L2312.47 1485.58 L2292.56 1485.58 L2292.56 1481.64 Z" fill="#000000" fill-rule="evenodd" fill-opacity="1" /><path clip-path="url(#clip270)" d="M2331.91 1454.1 Q2328.3 1454.1 2326.47 1457.66 Q2324.67 1461.2 2324.67 1468.33 Q2324.67 1475.44 2326.47 1479.01 Q2328.3 1482.55 2331.91 1482.55 Q2335.55 1482.55 2337.35 1479.01 Q2339.18 1475.44 2339.18 1468.33 Q2339.18 1461.2 2337.35 1457.66 Q2335.55 1454.1 2331.91 1454.1 M2331.91 1450.39 Q2337.72 1450.39 2340.78 1455 Q2343.86 1459.58 2343.86 1468.33 Q2343.86 1477.06 2340.78 1481.67 Q2337.72 1486.25 2331.91 1486.25 Q2326.1 1486.25 2323.02 1481.67 Q2319.97 1477.06 2319.97 1468.33 Q2319.97 1459.58 2323.02 1455 Q2326.1 1450.39 2331.91 1450.39 Z" fill="#000000" fill-rule="evenodd" fill-opacity="1" /><path clip-path="url(#clip270)" d="M2352.88 1481.64 L2360.52 1481.64 L2360.52 1455.28 L2352.21 1456.95 L2352.21 1452.69 L2360.48 1451.02 L2365.15 1451.02 L2365.15 1481.64 L2372.79 1481.64 L2372.79 1485.58 L2352.88 1485.58 L2352.88 1481.64 Z" fill="#000000" fill-rule="evenodd" fill-opacity="1" /><path clip-path="url(#clip270)" d="M1130.27 1522.08 L1130.27 1528.35 Q1126.61 1526.6 1123.36 1525.74 Q1120.11 1524.88 1117.09 1524.88 Q1111.84 1524.88 1108.97 1526.92 Q1106.14 1528.96 1106.14 1532.71 Q1106.14 1535.87 1108.02 1537.49 Q1109.93 1539.08 1115.21 1540.07 L1119.09 1540.86 Q1126.29 1542.23 1129.69 1545.7 Q1133.13 1549.14 1133.13 1554.93 Q1133.13 1561.84 1128.48 1565.4 Q1123.87 1568.97 1114.92 1568.97 Q1111.55 1568.97 1107.73 1568.2 Q1103.94 1567.44 1099.87 1565.94 L1099.87 1559.32 Q1103.78 1561.52 1107.54 1562.63 Q1111.3 1563.75 1114.92 1563.75 Q1120.43 1563.75 1123.42 1561.58 Q1126.41 1559.42 1126.41 1555.41 Q1126.41 1551.91 1124.25 1549.93 Q1122.12 1547.96 1117.22 1546.97 L1113.3 1546.21 Q1106.11 1544.78 1102.89 1541.72 Q1099.68 1538.67 1099.68 1533.22 Q1099.68 1526.92 1104.1 1523.29 Q1108.56 1519.66 1116.36 1519.66 Q1119.7 1519.66 1123.17 1520.27 Q1126.64 1520.87 1130.27 1522.08 Z" fill="#000000" fill-rule="evenodd" fill-opacity="1" /><path clip-path="url(#clip270)" d="M1142.9 1532.4 L1148.76 1532.4 L1148.76 1568.04 L1142.9 1568.04 L1142.9 1532.4 M1142.9 1518.52 L1148.76 1518.52 L1148.76 1525.93 L1142.9 1525.93 L1142.9 1518.52 Z" fill="#000000" fill-rule="evenodd" fill-opacity="1" /><path clip-path="url(#clip270)" d="M1166.81 1522.27 L1166.81 1532.4 L1178.87 1532.4 L1178.87 1536.95 L1166.81 1536.95 L1166.81 1556.3 Q1166.81 1560.66 1167.98 1561.9 Q1169.19 1563.14 1172.85 1563.14 L1178.87 1563.14 L1178.87 1568.04 L1172.85 1568.04 Q1166.07 1568.04 1163.49 1565.53 Q1160.92 1562.98 1160.92 1556.3 L1160.92 1536.95 L1156.62 1536.95 L1156.62 1532.4 L1160.92 1532.4 L1160.92 1522.27 L1166.81 1522.27 Z" fill="#000000" fill-rule="evenodd" fill-opacity="1" /><path clip-path="url(#clip270)" d="M1217.06 1548.76 L1217.06 1551.62 L1190.14 1551.62 Q1190.52 1557.67 1193.76 1560.85 Q1197.04 1564 1202.87 1564 Q1206.24 1564 1209.39 1563.17 Q1212.57 1562.35 1215.69 1560.69 L1215.69 1566.23 Q1212.54 1567.57 1209.23 1568.27 Q1205.92 1568.97 1202.52 1568.97 Q1193.99 1568.97 1188.99 1564 Q1184.02 1559.04 1184.02 1550.57 Q1184.02 1541.82 1188.73 1536.69 Q1193.48 1531.54 1201.5 1531.54 Q1208.69 1531.54 1212.86 1536.18 Q1217.06 1540.8 1217.06 1548.76 M1211.21 1547.04 Q1211.14 1542.23 1208.5 1539.37 Q1205.89 1536.5 1201.56 1536.5 Q1196.66 1536.5 1193.7 1539.27 Q1190.77 1542.04 1190.33 1547.07 L1211.21 1547.04 Z" fill="#000000" fill-rule="evenodd" fill-opacity="1" /><path clip-path="url(#clip270)" d="M1247.65 1520.52 L1256.31 1520.52 L1277.38 1560.28 L1277.38 1520.52 L1283.62 1520.52 L1283.62 1568.04 L1274.96 1568.04 L1253.89 1528.29 L1253.89 1568.04 L1247.65 1568.04 L1247.65 1520.52 Z" fill="#000000" fill-rule="evenodd" fill-opacity="1" /><path clip-path="url(#clip270)" d="M1295.55 1553.98 L1295.55 1532.4 L1301.41 1532.4 L1301.41 1553.75 Q1301.41 1558.81 1303.38 1561.36 Q1305.35 1563.87 1309.3 1563.87 Q1314.04 1563.87 1316.78 1560.85 Q1319.55 1557.83 1319.55 1552.61 L1319.55 1532.4 L1325.41 1532.4 L1325.41 1568.04 L1319.55 1568.04 L1319.55 1562.57 Q1317.42 1565.82 1314.58 1567.41 Q1311.78 1568.97 1308.06 1568.97 Q1301.92 1568.97 1298.73 1565.15 Q1295.55 1561.33 1295.55 1553.98 M1310.29 1531.54 L1310.29 1531.54 Z" fill="#000000" fill-rule="evenodd" fill-opacity="1" /><path clip-path="url(#clip270)" d="M1365.22 1539.24 Q1367.42 1535.29 1370.48 1533.41 Q1373.53 1531.54 1377.67 1531.54 Q1383.24 1531.54 1386.26 1535.45 Q1389.29 1539.33 1389.29 1546.53 L1389.29 1568.04 L1383.4 1568.04 L1383.4 1546.72 Q1383.4 1541.59 1381.58 1539.11 Q1379.77 1536.63 1376.05 1536.63 Q1371.49 1536.63 1368.85 1539.65 Q1366.21 1542.68 1366.21 1547.9 L1366.21 1568.04 L1360.32 1568.04 L1360.32 1546.72 Q1360.32 1541.56 1358.51 1539.11 Q1356.69 1536.63 1352.91 1536.63 Q1348.42 1536.63 1345.78 1539.68 Q1343.14 1542.71 1343.14 1547.9 L1343.14 1568.04 L1337.25 1568.04 L1337.25 1532.4 L1343.14 1532.4 L1343.14 1537.93 Q1345.14 1534.66 1347.94 1533.1 Q1350.74 1531.54 1354.59 1531.54 Q1358.48 1531.54 1361.18 1533.51 Q1363.92 1535.48 1365.22 1539.24 Z" fill="#000000" fill-rule="evenodd" fill-opacity="1" /><path clip-path="url(#clip270)" d="M1426.56 1550.25 Q1426.56 1543.79 1423.88 1540.13 Q1421.24 1536.44 1416.6 1536.44 Q1411.95 1536.44 1409.27 1540.13 Q1406.63 1543.79 1406.63 1550.25 Q1406.63 1556.71 1409.27 1560.4 Q1411.95 1564.07 1416.6 1564.07 Q1421.24 1564.07 1423.88 1560.4 Q1426.56 1556.71 1426.56 1550.25 M1406.63 1537.81 Q1408.48 1534.62 1411.28 1533.1 Q1414.11 1531.54 1418.03 1531.54 Q1424.52 1531.54 1428.56 1536.69 Q1432.64 1541.85 1432.64 1550.25 Q1432.64 1558.65 1428.56 1563.81 Q1424.52 1568.97 1418.03 1568.97 Q1414.11 1568.97 1411.28 1567.44 Q1408.48 1565.88 1406.63 1562.7 L1406.63 1568.04 L1400.74 1568.04 L1400.74 1518.52 L1406.63 1518.52 L1406.63 1537.81 Z" fill="#000000" fill-rule="evenodd" fill-opacity="1" /><path clip-path="url(#clip270)" d="M1472.84 1548.76 L1472.84 1551.62 L1445.91 1551.62 Q1446.29 1557.67 1449.54 1560.85 Q1452.82 1564 1458.64 1564 Q1462.01 1564 1465.17 1563.17 Q1468.35 1562.35 1471.47 1560.69 L1471.47 1566.23 Q1468.32 1567.57 1465.01 1568.27 Q1461.7 1568.97 1458.29 1568.97 Q1449.76 1568.97 1444.76 1564 Q1439.8 1559.04 1439.8 1550.57 Q1439.8 1541.82 1444.51 1536.69 Q1449.25 1531.54 1457.27 1531.54 Q1464.47 1531.54 1468.64 1536.18 Q1472.84 1540.8 1472.84 1548.76 M1466.98 1547.04 Q1466.92 1542.23 1464.27 1539.37 Q1461.66 1536.5 1457.34 1536.5 Q1452.43 1536.5 1449.47 1539.27 Q1446.55 1542.04 1446.1 1547.07 L1466.98 1547.04 Z" fill="#000000" fill-rule="evenodd" fill-opacity="1" /><path clip-path="url(#clip270)" d="M1503.11 1537.87 Q1502.12 1537.3 1500.94 1537.04 Q1499.8 1536.76 1498.39 1536.76 Q1493.43 1536.76 1490.76 1540 Q1488.11 1543.22 1488.11 1549.27 L1488.11 1568.04 L1482.23 1568.04 L1482.23 1532.4 L1488.11 1532.4 L1488.11 1537.93 Q1489.96 1534.69 1492.92 1533.13 Q1495.88 1531.54 1500.11 1531.54 Q1500.72 1531.54 1501.45 1531.63 Q1502.18 1531.7 1503.07 1531.85 L1503.11 1537.87 Z" fill="#000000" fill-rule="evenodd" fill-opacity="1" /><polyline clip-path="url(#clip272)" style="stroke:#000000; stroke-linecap:round; stroke-linejoin:round; stroke-width:2; stroke-opacity:0.1; fill:none" points="
  250.028,1423.18 2352.76,1423.18 
  "/>
<polyline clip-path="url(#clip272)" style="stroke:#000000; stroke-linecap:round; stroke-linejoin:round; stroke-width:2; stroke-opacity:0.1; fill:none" points="
  250.028,1293.21 2352.76,1293.21 
  "/>
<polyline clip-path="url(#clip272)" style="stroke:#000000; stroke-linecap:round; stroke-linejoin:round; stroke-width:2; stroke-opacity:0.1; fill:none" points="
  250.028,1163.24 2352.76,1163.24 
  "/>
<polyline clip-path="url(#clip272)" style="stroke:#000000; stroke-linecap:round; stroke-linejoin:round; stroke-width:2; stroke-opacity:0.1; fill:none" points="
  250.028,1033.27 2352.76,1033.27 
  "/>
<polyline clip-path="url(#clip272)" style="stroke:#000000; stroke-linecap:round; stroke-linejoin:round; stroke-width:2; stroke-opacity:0.1; fill:none" points="
  250.028,903.297 2352.76,903.297 
  "/>
<polyline clip-path="url(#clip272)" style="stroke:#000000; stroke-linecap:round; stroke-linejoin:round; stroke-width:2; stroke-opacity:0.1; fill:none" points="
  250.028,773.326 2352.76,773.326 
  "/>
<polyline clip-path="url(#clip272)" style="stroke:#000000; stroke-linecap:round; stroke-linejoin:round; stroke-width:2; stroke-opacity:0.1; fill:none" points="
  250.028,643.355 2352.76,643.355 
  "/>
<polyline clip-path="url(#clip272)" style="stroke:#000000; stroke-linecap:round; stroke-linejoin:round; stroke-width:2; stroke-opacity:0.1; fill:none" points="
  250.028,513.384 2352.76,513.384 
  "/>
<polyline clip-path="url(#clip272)" style="stroke:#000000; stroke-linecap:round; stroke-linejoin:round; stroke-width:2; stroke-opacity:0.1; fill:none" points="
  250.028,383.414 2352.76,383.414 
  "/>
<polyline clip-path="url(#clip272)" style="stroke:#000000; stroke-linecap:round; stroke-linejoin:round; stroke-width:2; stroke-opacity:0.1; fill:none" points="
  250.028,253.443 2352.76,253.443 
  "/>
<polyline clip-path="url(#clip272)" style="stroke:#000000; stroke-linecap:round; stroke-linejoin:round; stroke-width:2; stroke-opacity:0.1; fill:none" points="
  250.028,123.472 2352.76,123.472 
  "/>
<polyline clip-path="url(#clip270)" style="stroke:#000000; stroke-linecap:round; stroke-linejoin:round; stroke-width:4; stroke-opacity:1; fill:none" points="
  250.028,1423.18 250.028,123.472 
  "/>
<polyline clip-path="url(#clip270)" style="stroke:#000000; stroke-linecap:round; stroke-linejoin:round; stroke-width:4; stroke-opacity:1; fill:none" points="
  250.028,1423.18 268.926,1423.18 
  "/>
<polyline clip-path="url(#clip270)" style="stroke:#000000; stroke-linecap:round; stroke-linejoin:round; stroke-width:4; stroke-opacity:1; fill:none" points="
  250.028,1293.21 268.926,1293.21 
  "/>
<polyline clip-path="url(#clip270)" style="stroke:#000000; stroke-linecap:round; stroke-linejoin:round; stroke-width:4; stroke-opacity:1; fill:none" points="
  250.028,1163.24 268.926,1163.24 
  "/>
<polyline clip-path="url(#clip270)" style="stroke:#000000; stroke-linecap:round; stroke-linejoin:round; stroke-width:4; stroke-opacity:1; fill:none" points="
  250.028,1033.27 268.926,1033.27 
  "/>
<polyline clip-path="url(#clip270)" style="stroke:#000000; stroke-linecap:round; stroke-linejoin:round; stroke-width:4; stroke-opacity:1; fill:none" points="
  250.028,903.297 268.926,903.297 
  "/>
<polyline clip-path="url(#clip270)" style="stroke:#000000; stroke-linecap:round; stroke-linejoin:round; stroke-width:4; stroke-opacity:1; fill:none" points="
  250.028,773.326 268.926,773.326 
  "/>
<polyline clip-path="url(#clip270)" style="stroke:#000000; stroke-linecap:round; stroke-linejoin:round; stroke-width:4; stroke-opacity:1; fill:none" points="
  250.028,643.355 268.926,643.355 
  "/>
<polyline clip-path="url(#clip270)" style="stroke:#000000; stroke-linecap:round; stroke-linejoin:round; stroke-width:4; stroke-opacity:1; fill:none" points="
  250.028,513.384 268.926,513.384 
  "/>
<polyline clip-path="url(#clip270)" style="stroke:#000000; stroke-linecap:round; stroke-linejoin:round; stroke-width:4; stroke-opacity:1; fill:none" points="
  250.028,383.414 268.926,383.414 
  "/>
<polyline clip-path="url(#clip270)" style="stroke:#000000; stroke-linecap:round; stroke-linejoin:round; stroke-width:4; stroke-opacity:1; fill:none" points="
  250.028,253.443 268.926,253.443 
  "/>
<polyline clip-path="url(#clip270)" style="stroke:#000000; stroke-linecap:round; stroke-linejoin:round; stroke-width:4; stroke-opacity:1; fill:none" points="
  250.028,123.472 268.926,123.472 
  "/>
<path clip-path="url(#clip270)" d="M127.686 1408.98 Q124.075 1408.98 122.246 1412.54 Q120.441 1416.08 120.441 1423.21 Q120.441 1430.32 122.246 1433.89 Q124.075 1437.43 127.686 1437.43 Q131.32 1437.43 133.126 1433.89 Q134.954 1430.32 134.954 1423.21 Q134.954 1416.08 133.126 1412.54 Q131.32 1408.98 127.686 1408.98 M127.686 1405.27 Q133.496 1405.27 136.552 1409.88 Q139.63 1414.46 139.63 1423.21 Q139.63 1431.94 136.552 1436.55 Q133.496 1441.13 127.686 1441.13 Q121.876 1441.13 118.797 1436.55 Q115.742 1431.94 115.742 1423.21 Q115.742 1414.46 118.797 1409.88 Q121.876 1405.27 127.686 1405.27 Z" fill="#000000" fill-rule="evenodd" fill-opacity="1" /><path clip-path="url(#clip270)" d="M147.848 1434.58 L152.732 1434.58 L152.732 1440.46 L147.848 1440.46 L147.848 1434.58 Z" fill="#000000" fill-rule="evenodd" fill-opacity="1" /><path clip-path="url(#clip270)" d="M163.727 1436.52 L171.366 1436.52 L171.366 1410.16 L163.056 1411.83 L163.056 1407.57 L171.32 1405.9 L175.996 1405.9 L175.996 1436.52 L183.635 1436.52 L183.635 1440.46 L163.727 1440.46 L163.727 1436.52 Z" fill="#000000" fill-rule="evenodd" fill-opacity="1" /><path clip-path="url(#clip270)" d="M193.125 1405.9 L211.482 1405.9 L211.482 1409.84 L197.408 1409.84 L197.408 1418.31 Q198.426 1417.96 199.445 1417.8 Q200.463 1417.61 201.482 1417.61 Q207.269 1417.61 210.649 1420.78 Q214.028 1423.96 214.028 1429.37 Q214.028 1434.95 210.556 1438.05 Q207.084 1441.13 200.764 1441.13 Q198.588 1441.13 196.32 1440.76 Q194.075 1440.39 191.667 1439.65 L191.667 1434.95 Q193.75 1436.08 195.973 1436.64 Q198.195 1437.2 200.672 1437.2 Q204.676 1437.2 207.014 1435.09 Q209.352 1432.98 209.352 1429.37 Q209.352 1425.76 207.014 1423.65 Q204.676 1421.55 200.672 1421.55 Q198.797 1421.55 196.922 1421.96 Q195.07 1422.38 193.125 1423.26 L193.125 1405.9 Z" fill="#000000" fill-rule="evenodd" fill-opacity="1" /><path clip-path="url(#clip270)" d="M126.529 1279.01 Q122.918 1279.01 121.089 1282.57 Q119.283 1286.11 119.283 1293.24 Q119.283 1300.35 121.089 1303.92 Q122.918 1307.46 126.529 1307.46 Q130.163 1307.46 131.968 1303.92 Q133.797 1300.35 133.797 1293.24 Q133.797 1286.11 131.968 1282.57 Q130.163 1279.01 126.529 1279.01 M126.529 1275.3 Q132.339 1275.3 135.394 1279.91 Q138.473 1284.49 138.473 1293.24 Q138.473 1301.97 135.394 1306.58 Q132.339 1311.16 126.529 1311.16 Q120.718 1311.16 117.64 1306.58 Q114.584 1301.97 114.584 1293.24 Q114.584 1284.49 117.64 1279.91 Q120.718 1275.3 126.529 1275.3 Z" fill="#000000" fill-rule="evenodd" fill-opacity="1" /><path clip-path="url(#clip270)" d="M146.691 1304.61 L151.575 1304.61 L151.575 1310.49 L146.691 1310.49 L146.691 1304.61 Z" fill="#000000" fill-rule="evenodd" fill-opacity="1" /><path clip-path="url(#clip270)" d="M162.57 1306.55 L170.209 1306.55 L170.209 1280.19 L161.899 1281.85 L161.899 1277.6 L170.163 1275.93 L174.839 1275.93 L174.839 1306.55 L182.477 1306.55 L182.477 1310.49 L162.57 1310.49 L162.57 1306.55 Z" fill="#000000" fill-rule="evenodd" fill-opacity="1" /><path clip-path="url(#clip270)" d="M202.5 1291.35 Q199.352 1291.35 197.5 1293.5 Q195.672 1295.65 195.672 1299.4 Q195.672 1303.13 197.5 1305.3 Q199.352 1307.46 202.5 1307.46 Q205.649 1307.46 207.477 1305.3 Q209.329 1303.13 209.329 1299.4 Q209.329 1295.65 207.477 1293.5 Q205.649 1291.35 202.5 1291.35 M211.783 1276.69 L211.783 1280.95 Q210.024 1280.12 208.218 1279.68 Q206.436 1279.24 204.676 1279.24 Q200.047 1279.24 197.593 1282.36 Q195.163 1285.49 194.815 1291.81 Q196.181 1289.79 198.241 1288.73 Q200.301 1287.64 202.778 1287.64 Q207.987 1287.64 210.996 1290.81 Q214.028 1293.96 214.028 1299.4 Q214.028 1304.73 210.88 1307.94 Q207.732 1311.16 202.5 1311.16 Q196.505 1311.16 193.334 1306.58 Q190.163 1301.97 190.163 1293.24 Q190.163 1285.05 194.051 1280.19 Q197.94 1275.3 204.491 1275.3 Q206.25 1275.3 208.033 1275.65 Q209.838 1276 211.783 1276.69 Z" fill="#000000" fill-rule="evenodd" fill-opacity="1" /><path clip-path="url(#clip270)" d="M127.593 1149.04 Q123.982 1149.04 122.154 1152.6 Q120.348 1156.14 120.348 1163.27 Q120.348 1170.38 122.154 1173.94 Q123.982 1177.49 127.593 1177.49 Q131.228 1177.49 133.033 1173.94 Q134.862 1170.38 134.862 1163.27 Q134.862 1156.14 133.033 1152.6 Q131.228 1149.04 127.593 1149.04 M127.593 1145.33 Q133.404 1145.33 136.459 1149.94 Q139.538 1154.52 139.538 1163.27 Q139.538 1172 136.459 1176.61 Q133.404 1181.19 127.593 1181.19 Q121.783 1181.19 118.705 1176.61 Q115.649 1172 115.649 1163.27 Q115.649 1154.52 118.705 1149.94 Q121.783 1145.33 127.593 1145.33 Z" fill="#000000" fill-rule="evenodd" fill-opacity="1" /><path clip-path="url(#clip270)" d="M147.755 1174.64 L152.64 1174.64 L152.64 1180.52 L147.755 1180.52 L147.755 1174.64 Z" fill="#000000" fill-rule="evenodd" fill-opacity="1" /><path clip-path="url(#clip270)" d="M163.635 1176.58 L171.274 1176.58 L171.274 1150.22 L162.964 1151.88 L162.964 1147.62 L171.227 1145.96 L175.903 1145.96 L175.903 1176.58 L183.542 1176.58 L183.542 1180.52 L163.635 1180.52 L163.635 1176.58 Z" fill="#000000" fill-rule="evenodd" fill-opacity="1" /><path clip-path="url(#clip270)" d="M191.806 1145.96 L214.028 1145.96 L214.028 1147.95 L201.482 1180.52 L196.598 1180.52 L208.403 1149.89 L191.806 1149.89 L191.806 1145.96 Z" fill="#000000" fill-rule="evenodd" fill-opacity="1" /><path clip-path="url(#clip270)" d="M126.783 1019.07 Q123.172 1019.07 121.343 1022.63 Q119.538 1026.17 119.538 1033.3 Q119.538 1040.41 121.343 1043.97 Q123.172 1047.52 126.783 1047.52 Q130.417 1047.52 132.223 1043.97 Q134.052 1040.41 134.052 1033.3 Q134.052 1026.17 132.223 1022.63 Q130.417 1019.07 126.783 1019.07 M126.783 1015.36 Q132.593 1015.36 135.649 1019.97 Q138.728 1024.55 138.728 1033.3 Q138.728 1042.03 135.649 1046.64 Q132.593 1051.22 126.783 1051.22 Q120.973 1051.22 117.894 1046.64 Q114.839 1042.03 114.839 1033.3 Q114.839 1024.55 117.894 1019.97 Q120.973 1015.36 126.783 1015.36 Z" fill="#000000" fill-rule="evenodd" fill-opacity="1" /><path clip-path="url(#clip270)" d="M146.945 1044.67 L151.829 1044.67 L151.829 1050.55 L146.945 1050.55 L146.945 1044.67 Z" fill="#000000" fill-rule="evenodd" fill-opacity="1" /><path clip-path="url(#clip270)" d="M162.825 1046.61 L170.464 1046.61 L170.464 1020.25 L162.153 1021.91 L162.153 1017.65 L170.417 1015.99 L175.093 1015.99 L175.093 1046.61 L182.732 1046.61 L182.732 1050.55 L162.825 1050.55 L162.825 1046.61 Z" fill="#000000" fill-rule="evenodd" fill-opacity="1" /><path clip-path="url(#clip270)" d="M202.176 1034.14 Q198.843 1034.14 196.922 1035.92 Q195.024 1037.7 195.024 1040.83 Q195.024 1043.95 196.922 1045.73 Q198.843 1047.52 202.176 1047.52 Q205.51 1047.52 207.431 1045.73 Q209.352 1043.93 209.352 1040.83 Q209.352 1037.7 207.431 1035.92 Q205.533 1034.14 202.176 1034.14 M197.5 1032.14 Q194.491 1031.4 192.801 1029.34 Q191.135 1027.28 191.135 1024.32 Q191.135 1020.18 194.075 1017.77 Q197.037 1015.36 202.176 1015.36 Q207.338 1015.36 210.278 1017.77 Q213.218 1020.18 213.218 1024.32 Q213.218 1027.28 211.528 1029.34 Q209.861 1031.4 206.875 1032.14 Q210.255 1032.93 212.13 1035.22 Q214.028 1037.52 214.028 1040.83 Q214.028 1045.85 210.949 1048.53 Q207.894 1051.22 202.176 1051.22 Q196.459 1051.22 193.38 1048.53 Q190.325 1045.85 190.325 1040.83 Q190.325 1037.52 192.223 1035.22 Q194.121 1032.93 197.5 1032.14 M195.787 1024.76 Q195.787 1027.45 197.454 1028.95 Q199.144 1030.46 202.176 1030.46 Q205.186 1030.46 206.875 1028.95 Q208.588 1027.45 208.588 1024.76 Q208.588 1022.08 206.875 1020.57 Q205.186 1019.07 202.176 1019.07 Q199.144 1019.07 197.454 1020.57 Q195.787 1022.08 195.787 1024.76 Z" fill="#000000" fill-rule="evenodd" fill-opacity="1" /><path clip-path="url(#clip270)" d="M126.876 889.095 Q123.265 889.095 121.436 892.66 Q119.63 896.202 119.63 903.331 Q119.63 910.438 121.436 914.003 Q123.265 917.544 126.876 917.544 Q130.51 917.544 132.316 914.003 Q134.144 910.438 134.144 903.331 Q134.144 896.202 132.316 892.66 Q130.51 889.095 126.876 889.095 M126.876 885.392 Q132.686 885.392 135.742 889.998 Q138.82 894.582 138.82 903.331 Q138.82 912.058 135.742 916.665 Q132.686 921.248 126.876 921.248 Q121.066 921.248 117.987 916.665 Q114.931 912.058 114.931 903.331 Q114.931 894.582 117.987 889.998 Q121.066 885.392 126.876 885.392 Z" fill="#000000" fill-rule="evenodd" fill-opacity="1" /><path clip-path="url(#clip270)" d="M147.038 914.697 L151.922 914.697 L151.922 920.577 L147.038 920.577 L147.038 914.697 Z" fill="#000000" fill-rule="evenodd" fill-opacity="1" /><path clip-path="url(#clip270)" d="M162.917 916.642 L170.556 916.642 L170.556 890.276 L162.246 891.943 L162.246 887.683 L170.51 886.017 L175.186 886.017 L175.186 916.642 L182.825 916.642 L182.825 920.577 L162.917 920.577 L162.917 916.642 Z" fill="#000000" fill-rule="evenodd" fill-opacity="1" /><path clip-path="url(#clip270)" d="M192.408 919.859 L192.408 915.6 Q194.167 916.433 195.973 916.873 Q197.778 917.313 199.514 917.313 Q204.144 917.313 206.574 914.211 Q209.028 911.086 209.375 904.744 Q208.033 906.734 205.973 907.799 Q203.912 908.864 201.412 908.864 Q196.227 908.864 193.195 905.739 Q190.186 902.591 190.186 897.151 Q190.186 891.827 193.334 888.609 Q196.482 885.392 201.713 885.392 Q207.709 885.392 210.857 889.998 Q214.028 894.582 214.028 903.331 Q214.028 911.503 210.139 916.387 Q206.274 921.248 199.723 921.248 Q197.963 921.248 196.158 920.901 Q194.352 920.554 192.408 919.859 M201.713 905.206 Q204.862 905.206 206.69 903.054 Q208.542 900.901 208.542 897.151 Q208.542 893.424 206.69 891.271 Q204.862 889.095 201.713 889.095 Q198.565 889.095 196.713 891.271 Q194.885 893.424 194.885 897.151 Q194.885 900.901 196.713 903.054 Q198.565 905.206 201.713 905.206 Z" fill="#000000" fill-rule="evenodd" fill-opacity="1" /><path clip-path="url(#clip270)" d="M126.691 759.125 Q123.08 759.125 121.251 762.689 Q119.445 766.231 119.445 773.361 Q119.445 780.467 121.251 784.032 Q123.08 787.574 126.691 787.574 Q130.325 787.574 132.13 784.032 Q133.959 780.467 133.959 773.361 Q133.959 766.231 132.13 762.689 Q130.325 759.125 126.691 759.125 M126.691 755.421 Q132.501 755.421 135.556 760.027 Q138.635 764.611 138.635 773.361 Q138.635 782.088 135.556 786.694 Q132.501 791.277 126.691 791.277 Q120.88 791.277 117.802 786.694 Q114.746 782.088 114.746 773.361 Q114.746 764.611 117.802 760.027 Q120.88 755.421 126.691 755.421 Z" fill="#000000" fill-rule="evenodd" fill-opacity="1" /><path clip-path="url(#clip270)" d="M146.853 784.726 L151.737 784.726 L151.737 790.606 L146.853 790.606 L146.853 784.726 Z" fill="#000000" fill-rule="evenodd" fill-opacity="1" /><path clip-path="url(#clip270)" d="M165.95 786.671 L182.269 786.671 L182.269 790.606 L160.325 790.606 L160.325 786.671 Q162.987 783.916 167.57 779.287 Q172.177 774.634 173.357 773.291 Q175.602 770.768 176.482 769.032 Q177.385 767.273 177.385 765.583 Q177.385 762.828 175.44 761.092 Q173.519 759.356 170.417 759.356 Q168.218 759.356 165.765 760.12 Q163.334 760.884 160.556 762.435 L160.556 757.713 Q163.38 756.578 165.834 756 Q168.288 755.421 170.325 755.421 Q175.695 755.421 178.889 758.106 Q182.084 760.791 182.084 765.282 Q182.084 767.412 181.274 769.333 Q180.487 771.231 178.38 773.824 Q177.801 774.495 174.7 777.713 Q171.598 780.907 165.95 786.671 Z" fill="#000000" fill-rule="evenodd" fill-opacity="1" /><path clip-path="url(#clip270)" d="M202.084 759.125 Q198.473 759.125 196.644 762.689 Q194.838 766.231 194.838 773.361 Q194.838 780.467 196.644 784.032 Q198.473 787.574 202.084 787.574 Q205.718 787.574 207.524 784.032 Q209.352 780.467 209.352 773.361 Q209.352 766.231 207.524 762.689 Q205.718 759.125 202.084 759.125 M202.084 755.421 Q207.894 755.421 210.949 760.027 Q214.028 764.611 214.028 773.361 Q214.028 782.088 210.949 786.694 Q207.894 791.277 202.084 791.277 Q196.274 791.277 193.195 786.694 Q190.139 782.088 190.139 773.361 Q190.139 764.611 193.195 760.027 Q196.274 755.421 202.084 755.421 Z" fill="#000000" fill-rule="evenodd" fill-opacity="1" /><path clip-path="url(#clip270)" d="M127.917 629.154 Q124.306 629.154 122.478 632.719 Q120.672 636.26 120.672 643.39 Q120.672 650.496 122.478 654.061 Q124.306 657.603 127.917 657.603 Q131.552 657.603 133.357 654.061 Q135.186 650.496 135.186 643.39 Q135.186 636.26 133.357 632.719 Q131.552 629.154 127.917 629.154 M127.917 625.45 Q133.728 625.45 136.783 630.057 Q139.862 634.64 139.862 643.39 Q139.862 652.117 136.783 656.723 Q133.728 661.307 127.917 661.307 Q122.107 661.307 119.029 656.723 Q115.973 652.117 115.973 643.39 Q115.973 634.64 119.029 630.057 Q122.107 625.45 127.917 625.45 Z" fill="#000000" fill-rule="evenodd" fill-opacity="1" /><path clip-path="url(#clip270)" d="M148.079 654.756 L152.964 654.756 L152.964 660.635 L148.079 660.635 L148.079 654.756 Z" fill="#000000" fill-rule="evenodd" fill-opacity="1" /><path clip-path="url(#clip270)" d="M167.177 656.7 L183.496 656.7 L183.496 660.635 L161.552 660.635 L161.552 656.7 Q164.214 653.945 168.797 649.316 Q173.403 644.663 174.584 643.32 Q176.829 640.797 177.709 639.061 Q178.612 637.302 178.612 635.612 Q178.612 632.858 176.667 631.121 Q174.746 629.385 171.644 629.385 Q169.445 629.385 166.991 630.149 Q164.561 630.913 161.783 632.464 L161.783 627.742 Q164.607 626.608 167.061 626.029 Q169.514 625.45 171.552 625.45 Q176.922 625.45 180.116 628.135 Q183.311 630.821 183.311 635.311 Q183.311 637.441 182.501 639.362 Q181.713 641.26 179.607 643.853 Q179.028 644.524 175.926 647.742 Q172.825 650.936 167.177 656.7 Z" fill="#000000" fill-rule="evenodd" fill-opacity="1" /><path clip-path="url(#clip270)" d="M194.121 656.7 L201.76 656.7 L201.76 630.334 L193.45 632.001 L193.45 627.742 L201.713 626.075 L206.389 626.075 L206.389 656.7 L214.028 656.7 L214.028 660.635 L194.121 660.635 L194.121 656.7 Z" fill="#000000" fill-rule="evenodd" fill-opacity="1" /><path clip-path="url(#clip270)" d="M128.288 499.183 Q124.677 499.183 122.848 502.748 Q121.043 506.29 121.043 513.419 Q121.043 520.526 122.848 524.09 Q124.677 527.632 128.288 527.632 Q131.922 527.632 133.728 524.09 Q135.556 520.526 135.556 513.419 Q135.556 506.29 133.728 502.748 Q131.922 499.183 128.288 499.183 M128.288 495.479 Q134.098 495.479 137.154 500.086 Q140.232 504.669 140.232 513.419 Q140.232 522.146 137.154 526.752 Q134.098 531.336 128.288 531.336 Q122.478 531.336 119.399 526.752 Q116.343 522.146 116.343 513.419 Q116.343 504.669 119.399 500.086 Q122.478 495.479 128.288 495.479 Z" fill="#000000" fill-rule="evenodd" fill-opacity="1" /><path clip-path="url(#clip270)" d="M148.45 524.785 L153.334 524.785 L153.334 530.664 L148.45 530.664 L148.45 524.785 Z" fill="#000000" fill-rule="evenodd" fill-opacity="1" /><path clip-path="url(#clip270)" d="M167.547 526.729 L183.866 526.729 L183.866 530.664 L161.922 530.664 L161.922 526.729 Q164.584 523.975 169.167 519.345 Q173.774 514.692 174.954 513.35 Q177.2 510.827 178.079 509.09 Q178.982 507.331 178.982 505.641 Q178.982 502.887 177.038 501.151 Q175.116 499.415 172.014 499.415 Q169.815 499.415 167.362 500.178 Q164.931 500.942 162.153 502.493 L162.153 497.771 Q164.977 496.637 167.431 496.058 Q169.885 495.479 171.922 495.479 Q177.292 495.479 180.487 498.165 Q183.681 500.85 183.681 505.341 Q183.681 507.47 182.871 509.391 Q182.084 511.29 179.977 513.882 Q179.399 514.553 176.297 517.771 Q173.195 520.965 167.547 526.729 Z" fill="#000000" fill-rule="evenodd" fill-opacity="1" /><path clip-path="url(#clip270)" d="M197.709 526.729 L214.028 526.729 L214.028 530.664 L192.084 530.664 L192.084 526.729 Q194.746 523.975 199.329 519.345 Q203.936 514.692 205.116 513.35 Q207.362 510.827 208.241 509.09 Q209.144 507.331 209.144 505.641 Q209.144 502.887 207.199 501.151 Q205.278 499.415 202.176 499.415 Q199.977 499.415 197.524 500.178 Q195.093 500.942 192.315 502.493 L192.315 497.771 Q195.139 496.637 197.593 496.058 Q200.047 495.479 202.084 495.479 Q207.454 495.479 210.649 498.165 Q213.843 500.85 213.843 505.341 Q213.843 507.47 213.033 509.391 Q212.246 511.29 210.139 513.882 Q209.561 514.553 206.459 517.771 Q203.357 520.965 197.709 526.729 Z" fill="#000000" fill-rule="evenodd" fill-opacity="1" /><path clip-path="url(#clip270)" d="M127.339 369.212 Q123.728 369.212 121.899 372.777 Q120.093 376.319 120.093 383.448 Q120.093 390.555 121.899 394.12 Q123.728 397.661 127.339 397.661 Q130.973 397.661 132.779 394.12 Q134.607 390.555 134.607 383.448 Q134.607 376.319 132.779 372.777 Q130.973 369.212 127.339 369.212 M127.339 365.509 Q133.149 365.509 136.204 370.115 Q139.283 374.698 139.283 383.448 Q139.283 392.175 136.204 396.782 Q133.149 401.365 127.339 401.365 Q121.529 401.365 118.45 396.782 Q115.394 392.175 115.394 383.448 Q115.394 374.698 118.45 370.115 Q121.529 365.509 127.339 365.509 Z" fill="#000000" fill-rule="evenodd" fill-opacity="1" /><path clip-path="url(#clip270)" d="M147.501 394.814 L152.385 394.814 L152.385 400.694 L147.501 400.694 L147.501 394.814 Z" fill="#000000" fill-rule="evenodd" fill-opacity="1" /><path clip-path="url(#clip270)" d="M166.598 396.759 L182.917 396.759 L182.917 400.694 L160.973 400.694 L160.973 396.759 Q163.635 394.004 168.218 389.374 Q172.825 384.722 174.005 383.379 Q176.251 380.856 177.13 379.12 Q178.033 377.36 178.033 375.671 Q178.033 372.916 176.089 371.18 Q174.167 369.444 171.065 369.444 Q168.866 369.444 166.413 370.208 Q163.982 370.972 161.204 372.523 L161.204 367.8 Q164.028 366.666 166.482 366.087 Q168.936 365.509 170.973 365.509 Q176.343 365.509 179.538 368.194 Q182.732 370.879 182.732 375.37 Q182.732 377.499 181.922 379.421 Q181.135 381.319 179.028 383.911 Q178.45 384.583 175.348 387.8 Q172.246 390.995 166.598 396.759 Z" fill="#000000" fill-rule="evenodd" fill-opacity="1" /><path clip-path="url(#clip270)" d="M206.899 382.06 Q210.255 382.777 212.13 385.046 Q214.028 387.314 214.028 390.647 Q214.028 395.763 210.51 398.564 Q206.991 401.365 200.51 401.365 Q198.334 401.365 196.019 400.925 Q193.727 400.508 191.274 399.652 L191.274 395.138 Q193.218 396.272 195.533 396.851 Q197.848 397.43 200.371 397.43 Q204.769 397.43 207.061 395.694 Q209.375 393.958 209.375 390.647 Q209.375 387.592 207.223 385.879 Q205.093 384.143 201.274 384.143 L197.246 384.143 L197.246 380.3 L201.459 380.3 Q204.908 380.3 206.737 378.935 Q208.565 377.546 208.565 374.953 Q208.565 372.291 206.667 370.879 Q204.792 369.444 201.274 369.444 Q199.352 369.444 197.153 369.861 Q194.954 370.277 192.315 371.157 L192.315 366.99 Q194.977 366.249 197.292 365.879 Q199.63 365.509 201.69 365.509 Q207.014 365.509 210.116 367.939 Q213.218 370.347 213.218 374.467 Q213.218 377.337 211.574 379.328 Q209.931 381.296 206.899 382.06 Z" fill="#000000" fill-rule="evenodd" fill-opacity="1" /><path clip-path="url(#clip270)" d="M126.205 239.242 Q122.593 239.242 120.765 242.806 Q118.959 246.348 118.959 253.478 Q118.959 260.584 120.765 264.149 Q122.593 267.691 126.205 267.691 Q129.839 267.691 131.644 264.149 Q133.473 260.584 133.473 253.478 Q133.473 246.348 131.644 242.806 Q129.839 239.242 126.205 239.242 M126.205 235.538 Q132.015 235.538 135.07 240.144 Q138.149 244.728 138.149 253.478 Q138.149 262.204 135.07 266.811 Q132.015 271.394 126.205 271.394 Q120.394 271.394 117.316 266.811 Q114.26 262.204 114.26 253.478 Q114.26 244.728 117.316 240.144 Q120.394 235.538 126.205 235.538 Z" fill="#000000" fill-rule="evenodd" fill-opacity="1" /><path clip-path="url(#clip270)" d="M146.366 264.843 L151.251 264.843 L151.251 270.723 L146.366 270.723 L146.366 264.843 Z" fill="#000000" fill-rule="evenodd" fill-opacity="1" /><path clip-path="url(#clip270)" d="M165.464 266.788 L181.783 266.788 L181.783 270.723 L159.839 270.723 L159.839 266.788 Q162.501 264.033 167.084 259.404 Q171.69 254.751 172.871 253.408 Q175.116 250.885 175.996 249.149 Q176.899 247.39 176.899 245.7 Q176.899 242.945 174.954 241.209 Q173.033 239.473 169.931 239.473 Q167.732 239.473 165.278 240.237 Q162.848 241.001 160.07 242.552 L160.07 237.83 Q162.894 236.695 165.348 236.117 Q167.802 235.538 169.839 235.538 Q175.209 235.538 178.403 238.223 Q181.598 240.908 181.598 245.399 Q181.598 247.529 180.788 249.45 Q180.001 251.348 177.894 253.941 Q177.315 254.612 174.214 257.829 Q171.112 261.024 165.464 266.788 Z" fill="#000000" fill-rule="evenodd" fill-opacity="1" /><path clip-path="url(#clip270)" d="M204.445 240.237 L192.639 258.686 L204.445 258.686 L204.445 240.237 M203.218 236.163 L209.098 236.163 L209.098 258.686 L214.028 258.686 L214.028 262.575 L209.098 262.575 L209.098 270.723 L204.445 270.723 L204.445 262.575 L188.843 262.575 L188.843 258.061 L203.218 236.163 Z" fill="#000000" fill-rule="evenodd" fill-opacity="1" /><path clip-path="url(#clip270)" d="M127.686 109.271 Q124.075 109.271 122.246 112.836 Q120.441 116.377 120.441 123.507 Q120.441 130.613 122.246 134.178 Q124.075 137.72 127.686 137.72 Q131.32 137.72 133.126 134.178 Q134.954 130.613 134.954 123.507 Q134.954 116.377 133.126 112.836 Q131.32 109.271 127.686 109.271 M127.686 105.567 Q133.496 105.567 136.552 110.174 Q139.63 114.757 139.63 123.507 Q139.63 132.234 136.552 136.84 Q133.496 141.423 127.686 141.423 Q121.876 141.423 118.797 136.84 Q115.742 132.234 115.742 123.507 Q115.742 114.757 118.797 110.174 Q121.876 105.567 127.686 105.567 Z" fill="#000000" fill-rule="evenodd" fill-opacity="1" /><path clip-path="url(#clip270)" d="M147.848 134.873 L152.732 134.873 L152.732 140.752 L147.848 140.752 L147.848 134.873 Z" fill="#000000" fill-rule="evenodd" fill-opacity="1" /><path clip-path="url(#clip270)" d="M166.945 136.817 L183.264 136.817 L183.264 140.752 L161.32 140.752 L161.32 136.817 Q163.982 134.062 168.565 129.433 Q173.172 124.78 174.352 123.437 Q176.598 120.914 177.477 119.178 Q178.38 117.419 178.38 115.729 Q178.38 112.974 176.436 111.238 Q174.514 109.502 171.413 109.502 Q169.214 109.502 166.76 110.266 Q164.329 111.03 161.552 112.581 L161.552 107.859 Q164.376 106.725 166.829 106.146 Q169.283 105.567 171.32 105.567 Q176.69 105.567 179.885 108.252 Q183.079 110.937 183.079 115.428 Q183.079 117.558 182.269 119.479 Q181.482 121.377 179.376 123.97 Q178.797 124.641 175.695 127.859 Q172.593 131.053 166.945 136.817 Z" fill="#000000" fill-rule="evenodd" fill-opacity="1" /><path clip-path="url(#clip270)" d="M193.125 106.192 L211.482 106.192 L211.482 110.127 L197.408 110.127 L197.408 118.599 Q198.426 118.252 199.445 118.09 Q200.463 117.905 201.482 117.905 Q207.269 117.905 210.649 121.076 Q214.028 124.248 214.028 129.664 Q214.028 135.243 210.556 138.345 Q207.084 141.423 200.764 141.423 Q198.588 141.423 196.32 141.053 Q194.075 140.683 191.667 139.942 L191.667 135.243 Q193.75 136.377 195.973 136.933 Q198.195 137.488 200.672 137.488 Q204.676 137.488 207.014 135.382 Q209.352 133.275 209.352 129.664 Q209.352 126.053 207.014 123.947 Q204.676 121.84 200.672 121.84 Q198.797 121.84 196.922 122.257 Q195.07 122.674 193.125 123.553 L193.125 106.192 Z" fill="#000000" fill-rule="evenodd" fill-opacity="1" /><path clip-path="url(#clip270)" d="M16.4842 987.834 L16.4842 981.405 L64.0042 981.405 L64.0042 987.834 L16.4842 987.834 Z" fill="#000000" fill-rule="evenodd" fill-opacity="1" /><path clip-path="url(#clip270)" d="M42.4881 939.232 L64.0042 939.232 L64.0042 945.089 L42.679 945.089 Q37.6183 945.089 35.1038 947.062 Q32.5894 949.035 32.5894 952.982 Q32.5894 957.725 35.6131 960.462 Q38.6368 963.199 43.8567 963.199 L64.0042 963.199 L64.0042 969.087 L28.3562 969.087 L28.3562 963.199 L33.8944 963.199 Q30.6797 961.098 29.0883 958.266 Q27.4968 955.401 27.4968 951.677 Q27.4968 945.534 31.3163 942.383 Q35.1038 939.232 42.4881 939.232 Z" fill="#000000" fill-rule="evenodd" fill-opacity="1" /><path clip-path="url(#clip270)" d="M42.4881 897.919 L64.0042 897.919 L64.0042 903.775 L42.679 903.775 Q37.6183 903.775 35.1038 905.749 Q32.5894 907.722 32.5894 911.669 Q32.5894 916.411 35.6131 919.148 Q38.6368 921.886 43.8567 921.886 L64.0042 921.886 L64.0042 927.774 L28.3562 927.774 L28.3562 921.886 L33.8944 921.886 Q30.6797 919.785 29.0883 916.952 Q27.4968 914.088 27.4968 910.364 Q27.4968 904.221 31.3163 901.07 Q35.1038 897.919 42.4881 897.919 Z" fill="#000000" fill-rule="evenodd" fill-opacity="1" /><path clip-path="url(#clip270)" d="M44.7161 855.746 L47.5806 855.746 L47.5806 882.673 Q53.6281 882.291 56.8109 879.044 Q59.9619 875.766 59.9619 869.941 Q59.9619 866.568 59.1344 863.417 Q58.3069 860.234 56.6518 857.115 L62.1899 857.115 Q63.5267 860.266 64.227 863.576 Q64.9272 866.886 64.9272 870.292 Q64.9272 878.822 59.9619 883.819 Q54.9967 888.784 46.5303 888.784 Q37.7774 888.784 32.6531 884.073 Q27.4968 879.331 27.4968 871.31 Q27.4968 864.117 32.1438 859.947 Q36.7589 855.746 44.7161 855.746 M42.9973 861.602 Q38.1912 861.666 35.3266 864.308 Q32.4621 866.918 32.4621 871.246 Q32.4621 876.148 35.2312 879.108 Q38.0002 882.036 43.0292 882.482 L42.9973 861.602 Z" fill="#000000" fill-rule="evenodd" fill-opacity="1" /><path clip-path="url(#clip270)" d="M33.8307 825.477 Q33.2578 826.464 33.0032 827.641 Q32.7167 828.787 32.7167 830.188 Q32.7167 835.153 35.9632 837.827 Q39.1779 840.468 45.2253 840.468 L64.0042 840.468 L64.0042 846.357 L28.3562 846.357 L28.3562 840.468 L33.8944 840.468 Q30.6479 838.622 29.0883 835.662 Q27.4968 832.702 27.4968 828.469 Q27.4968 827.864 27.5923 827.132 Q27.656 826.4 27.8151 825.509 L33.8307 825.477 Z" fill="#000000" fill-rule="evenodd" fill-opacity="1" /><path clip-path="url(#clip270)" d="M21.7677 791.93 L39.6235 791.93 L39.6235 783.845 Q39.6235 779.357 37.3 776.907 Q34.9765 774.456 30.6797 774.456 Q26.4147 774.456 24.0912 776.907 Q21.7677 779.357 21.7677 783.845 L21.7677 791.93 M16.4842 798.359 L16.4842 783.845 Q16.4842 775.856 20.1126 771.782 Q23.7092 767.676 30.6797 767.676 Q37.7138 767.676 41.3104 771.782 Q44.907 775.856 44.907 783.845 L44.907 791.93 L64.0042 791.93 L64.0042 798.359 L16.4842 798.359 Z" fill="#000000" fill-rule="evenodd" fill-opacity="1" /><path clip-path="url(#clip270)" d="M33.8307 739.795 Q33.2578 740.781 33.0032 741.959 Q32.7167 743.105 32.7167 744.505 Q32.7167 749.47 35.9632 752.144 Q39.1779 754.786 45.2253 754.786 L64.0042 754.786 L64.0042 760.674 L28.3562 760.674 L28.3562 754.786 L33.8944 754.786 Q30.6479 752.94 29.0883 749.98 Q27.4968 747.02 27.4968 742.787 Q27.4968 742.182 27.5923 741.45 Q27.656 740.718 27.8151 739.826 L33.8307 739.795 Z" fill="#000000" fill-rule="evenodd" fill-opacity="1" /><path clip-path="url(#clip270)" d="M32.4621 721.27 Q32.4621 725.981 36.1542 728.718 Q39.8145 731.456 46.212 731.456 Q52.6095 731.456 56.3017 728.75 Q59.9619 726.013 59.9619 721.27 Q59.9619 716.592 56.2698 713.854 Q52.5777 711.117 46.212 711.117 Q39.8781 711.117 36.186 713.854 Q32.4621 716.592 32.4621 721.27 M27.4968 721.27 Q27.4968 713.632 32.4621 709.271 Q37.4273 704.911 46.212 704.911 Q54.9649 704.911 59.9619 709.271 Q64.9272 713.632 64.9272 721.27 Q64.9272 728.941 59.9619 733.302 Q54.9649 737.63 46.212 737.63 Q37.4273 737.63 32.4621 733.302 Q27.4968 728.941 27.4968 721.27 Z" fill="#000000" fill-rule="evenodd" fill-opacity="1" /><path clip-path="url(#clip270)" d="M33.7671 671.745 L14.479 671.745 L14.479 665.889 L64.0042 665.889 L64.0042 671.745 L58.657 671.745 Q61.8398 673.591 63.3994 676.424 Q64.9272 679.225 64.9272 683.172 Q64.9272 689.633 59.771 693.707 Q54.6147 697.749 46.212 697.749 Q37.8093 697.749 32.6531 693.707 Q27.4968 689.633 27.4968 683.172 Q27.4968 679.225 29.0564 676.424 Q30.5842 673.591 33.7671 671.745 M46.212 691.702 Q52.6732 691.702 56.3653 689.06 Q60.0256 686.386 60.0256 681.739 Q60.0256 677.092 56.3653 674.419 Q52.6732 671.745 46.212 671.745 Q39.7508 671.745 36.0905 674.419 Q32.3984 677.092 32.3984 681.739 Q32.3984 686.386 36.0905 689.06 Q39.7508 691.702 46.212 691.702 Z" fill="#000000" fill-rule="evenodd" fill-opacity="1" /><path clip-path="url(#clip270)" d="M49.9359 654.43 L28.3562 654.43 L28.3562 648.574 L49.7131 648.574 Q54.7739 648.574 57.3202 646.601 Q59.8346 644.627 59.8346 640.681 Q59.8346 635.938 56.8109 633.201 Q53.7872 630.432 48.5673 630.432 L28.3562 630.432 L28.3562 624.575 L64.0042 624.575 L64.0042 630.432 L58.5296 630.432 Q61.7762 632.564 63.3676 635.397 Q64.9272 638.198 64.9272 641.922 Q64.9272 648.065 61.1078 651.248 Q57.2883 654.43 49.9359 654.43 M27.4968 639.694 L27.4968 639.694 Z" fill="#000000" fill-rule="evenodd" fill-opacity="1" /><path clip-path="url(#clip270)" d="M29.7248 586.859 L35.1993 586.859 Q33.8307 589.341 33.1623 591.856 Q32.4621 594.338 32.4621 596.885 Q32.4621 602.582 36.0905 605.733 Q39.6872 608.884 46.212 608.884 Q52.7369 608.884 56.3653 605.733 Q59.9619 602.582 59.9619 596.885 Q59.9619 594.338 59.2935 591.856 Q58.5933 589.341 57.2247 586.859 L62.6355 586.859 Q63.7814 589.309 64.3543 591.951 Q64.9272 594.561 64.9272 597.521 Q64.9272 605.574 59.8664 610.316 Q54.8057 615.059 46.212 615.059 Q37.491 615.059 32.4939 610.284 Q27.4968 605.478 27.4968 597.139 Q27.4968 594.434 28.0697 591.856 Q28.6108 589.277 29.7248 586.859 Z" fill="#000000" fill-rule="evenodd" fill-opacity="1" /><path clip-path="url(#clip270)" d="M18.2347 570.881 L28.3562 570.881 L28.3562 558.818 L32.9077 558.818 L32.9077 570.881 L52.2594 570.881 Q56.6199 570.881 57.8613 569.703 Q59.1026 568.493 59.1026 564.833 L59.1026 558.818 L64.0042 558.818 L64.0042 564.833 Q64.0042 571.613 61.4897 574.191 Q58.9434 576.769 52.2594 576.769 L32.9077 576.769 L32.9077 581.066 L28.3562 581.066 L28.3562 576.769 L18.2347 576.769 L18.2347 570.881 Z" fill="#000000" fill-rule="evenodd" fill-opacity="1" /><path clip-path="url(#clip270)" d="M1170.97 17.6457 Q1162.06 17.6457 1156.79 24.2892 Q1151.57 30.9327 1151.57 42.3968 Q1151.57 53.8203 1156.79 60.4638 Q1162.06 67.1073 1170.97 67.1073 Q1179.89 67.1073 1185.07 60.4638 Q1190.3 53.8203 1190.3 42.3968 Q1190.3 30.9327 1185.07 24.2892 Q1179.89 17.6457 1170.97 17.6457 M1170.97 11.0023 Q1183.69 11.0023 1191.31 19.5497 Q1198.92 28.0566 1198.92 42.3968 Q1198.92 56.6965 1191.31 65.2439 Q1183.69 73.7508 1170.97 73.7508 Q1158.21 73.7508 1150.56 65.2439 Q1142.94 56.737 1142.94 42.3968 Q1142.94 28.0566 1150.56 19.5497 Q1158.21 11.0023 1170.97 11.0023 Z" fill="#000000" fill-rule="evenodd" fill-opacity="1" /><path clip-path="url(#clip270)" d="M1206.05 27.2059 L1213.95 27.2059 L1228.13 65.2844 L1242.31 27.2059 L1250.21 27.2059 L1233.2 72.576 L1223.07 72.576 L1206.05 27.2059 Z" fill="#000000" fill-rule="evenodd" fill-opacity="1" /><path clip-path="url(#clip270)" d="M1299.31 48.0275 L1299.31 51.6733 L1265.04 51.6733 Q1265.52 59.3701 1269.65 63.421 Q1273.83 67.4314 1281.24 67.4314 Q1285.53 67.4314 1289.54 66.3781 Q1293.59 65.3249 1297.56 63.2184 L1297.56 70.267 Q1293.55 71.9684 1289.34 72.8596 Q1285.13 73.7508 1280.79 73.7508 Q1269.94 73.7508 1263.58 67.4314 Q1257.26 61.1119 1257.26 50.3365 Q1257.26 39.1965 1263.25 32.6746 Q1269.29 26.1121 1279.5 26.1121 Q1288.65 26.1121 1293.96 32.0264 Q1299.31 37.9003 1299.31 48.0275 M1291.85 45.84 Q1291.77 39.7232 1288.41 36.0774 Q1285.09 32.4315 1279.58 32.4315 Q1273.34 32.4315 1269.57 35.9558 Q1265.85 39.4801 1265.28 45.8805 L1291.85 45.84 Z" fill="#000000" fill-rule="evenodd" fill-opacity="1" /><path clip-path="url(#clip270)" d="M1337.83 34.1734 Q1336.57 33.4443 1335.08 33.1202 Q1333.62 32.7556 1331.83 32.7556 Q1325.52 32.7556 1322.11 36.8875 Q1318.75 40.9789 1318.75 48.6757 L1318.75 72.576 L1311.26 72.576 L1311.26 27.2059 L1318.75 27.2059 L1318.75 34.2544 Q1321.1 30.1225 1324.87 28.1376 Q1328.63 26.1121 1334.02 26.1121 Q1334.79 26.1121 1335.72 26.2337 Q1336.66 26.3147 1337.79 26.5172 L1337.83 34.1734 Z" fill="#000000" fill-rule="evenodd" fill-opacity="1" /><path clip-path="url(#clip270)" d="M1345.65 9.54393 L1353.1 9.54393 L1353.1 72.576 L1345.65 72.576 L1345.65 9.54393 Z" fill="#000000" fill-rule="evenodd" fill-opacity="1" /><path clip-path="url(#clip270)" d="M1389.32 49.7694 Q1380.28 49.7694 1376.8 51.8354 Q1373.32 53.9013 1373.32 58.8839 Q1373.32 62.8538 1375.91 65.2034 Q1378.54 67.5124 1383.04 67.5124 Q1389.24 67.5124 1392.96 63.1374 Q1396.73 58.7219 1396.73 51.4303 L1396.73 49.7694 L1389.32 49.7694 M1404.18 46.6907 L1404.18 72.576 L1396.73 72.576 L1396.73 65.6895 Q1394.18 69.8214 1390.37 71.8063 Q1386.56 73.7508 1381.05 73.7508 Q1374.09 73.7508 1369.95 69.8619 Q1365.86 65.9325 1365.86 59.3701 Q1365.86 51.7138 1370.97 47.825 Q1376.11 43.9361 1386.28 43.9361 L1396.73 43.9361 L1396.73 43.2069 Q1396.73 38.0623 1393.33 35.2672 Q1389.97 32.4315 1383.85 32.4315 Q1379.96 32.4315 1376.27 33.3632 Q1372.59 34.295 1369.18 36.1584 L1369.18 29.2718 Q1373.28 27.692 1377.12 26.9223 Q1380.97 26.1121 1384.62 26.1121 Q1394.46 26.1121 1399.32 31.2163 Q1404.18 36.3204 1404.18 46.6907 Z" fill="#000000" fill-rule="evenodd" fill-opacity="1" /><path clip-path="url(#clip270)" d="M1426.75 65.7705 L1426.75 89.8329 L1419.25 89.8329 L1419.25 27.2059 L1426.75 27.2059 L1426.75 34.0924 Q1429.1 30.0415 1432.66 28.0971 Q1436.27 26.1121 1441.25 26.1121 Q1449.51 26.1121 1454.66 32.6746 Q1459.84 39.2371 1459.84 49.9314 Q1459.84 60.6258 1454.66 67.1883 Q1449.51 73.7508 1441.25 73.7508 Q1436.27 73.7508 1432.66 71.8063 Q1429.1 69.8214 1426.75 65.7705 M1452.11 49.9314 Q1452.11 41.7081 1448.7 37.0496 Q1445.34 32.3505 1439.43 32.3505 Q1433.51 32.3505 1430.11 37.0496 Q1426.75 41.7081 1426.75 49.9314 Q1426.75 58.1548 1430.11 62.8538 Q1433.51 67.5124 1439.43 67.5124 Q1445.34 67.5124 1448.7 62.8538 Q1452.11 58.1548 1452.11 49.9314 Z" fill="#000000" fill-rule="evenodd" fill-opacity="1" /><circle clip-path="url(#clip272)" cx="290.858" cy="445.347" r="7.2" fill="#009af9" fill-rule="evenodd" fill-opacity="1" stroke="#000000" stroke-opacity="1" stroke-width="3.2"/>
<circle clip-path="url(#clip272)" cx="311.273" cy="552.525" r="7.2" fill="#009af9" fill-rule="evenodd" fill-opacity="1" stroke="#000000" stroke-opacity="1" stroke-width="3.2"/>
<circle clip-path="url(#clip272)" cx="331.687" cy="484.333" r="7.2" fill="#009af9" fill-rule="evenodd" fill-opacity="1" stroke="#000000" stroke-opacity="1" stroke-width="3.2"/>
<circle clip-path="url(#clip272)" cx="352.102" cy="532.489" r="7.2" fill="#009af9" fill-rule="evenodd" fill-opacity="1" stroke="#000000" stroke-opacity="1" stroke-width="3.2"/>
<circle clip-path="url(#clip272)" cx="372.517" cy="488.387" r="7.2" fill="#009af9" fill-rule="evenodd" fill-opacity="1" stroke="#000000" stroke-opacity="1" stroke-width="3.2"/>
<circle clip-path="url(#clip272)" cx="392.932" cy="524.459" r="7.2" fill="#009af9" fill-rule="evenodd" fill-opacity="1" stroke="#000000" stroke-opacity="1" stroke-width="3.2"/>
<circle clip-path="url(#clip272)" cx="413.347" cy="488.177" r="7.2" fill="#009af9" fill-rule="evenodd" fill-opacity="1" stroke="#000000" stroke-opacity="1" stroke-width="3.2"/>
<circle clip-path="url(#clip272)" cx="433.762" cy="529.62" r="7.2" fill="#009af9" fill-rule="evenodd" fill-opacity="1" stroke="#000000" stroke-opacity="1" stroke-width="3.2"/>
<circle clip-path="url(#clip272)" cx="454.176" cy="490.459" r="7.2" fill="#009af9" fill-rule="evenodd" fill-opacity="1" stroke="#000000" stroke-opacity="1" stroke-width="3.2"/>
<circle clip-path="url(#clip272)" cx="474.591" cy="539.247" r="7.2" fill="#009af9" fill-rule="evenodd" fill-opacity="1" stroke="#000000" stroke-opacity="1" stroke-width="3.2"/>
<circle clip-path="url(#clip272)" cx="495.006" cy="477.67" r="7.2" fill="#009af9" fill-rule="evenodd" fill-opacity="1" stroke="#000000" stroke-opacity="1" stroke-width="3.2"/>
<circle clip-path="url(#clip272)" cx="515.421" cy="529.598" r="7.2" fill="#009af9" fill-rule="evenodd" fill-opacity="1" stroke="#000000" stroke-opacity="1" stroke-width="3.2"/>
<circle clip-path="url(#clip272)" cx="535.836" cy="498.637" r="7.2" fill="#009af9" fill-rule="evenodd" fill-opacity="1" stroke="#000000" stroke-opacity="1" stroke-width="3.2"/>
<circle clip-path="url(#clip272)" cx="556.251" cy="523.127" r="7.2" fill="#009af9" fill-rule="evenodd" fill-opacity="1" stroke="#000000" stroke-opacity="1" stroke-width="3.2"/>
<circle clip-path="url(#clip272)" cx="576.665" cy="495.95" r="7.2" fill="#009af9" fill-rule="evenodd" fill-opacity="1" stroke="#000000" stroke-opacity="1" stroke-width="3.2"/>
<circle clip-path="url(#clip272)" cx="597.08" cy="520.16" r="7.2" fill="#009af9" fill-rule="evenodd" fill-opacity="1" stroke="#000000" stroke-opacity="1" stroke-width="3.2"/>
<circle clip-path="url(#clip272)" cx="617.495" cy="488.613" r="7.2" fill="#009af9" fill-rule="evenodd" fill-opacity="1" stroke="#000000" stroke-opacity="1" stroke-width="3.2"/>
<circle clip-path="url(#clip272)" cx="637.91" cy="523.308" r="7.2" fill="#009af9" fill-rule="evenodd" fill-opacity="1" stroke="#000000" stroke-opacity="1" stroke-width="3.2"/>
<circle clip-path="url(#clip272)" cx="658.325" cy="487.372" r="7.2" fill="#009af9" fill-rule="evenodd" fill-opacity="1" stroke="#000000" stroke-opacity="1" stroke-width="3.2"/>
<circle clip-path="url(#clip272)" cx="678.74" cy="522.549" r="7.2" fill="#009af9" fill-rule="evenodd" fill-opacity="1" stroke="#000000" stroke-opacity="1" stroke-width="3.2"/>
<circle clip-path="url(#clip272)" cx="699.154" cy="494.878" r="7.2" fill="#009af9" fill-rule="evenodd" fill-opacity="1" stroke="#000000" stroke-opacity="1" stroke-width="3.2"/>
<circle clip-path="url(#clip272)" cx="719.569" cy="531.865" r="7.2" fill="#009af9" fill-rule="evenodd" fill-opacity="1" stroke="#000000" stroke-opacity="1" stroke-width="3.2"/>
<circle clip-path="url(#clip272)" cx="739.984" cy="482.77" r="7.2" fill="#009af9" fill-rule="evenodd" fill-opacity="1" stroke="#000000" stroke-opacity="1" stroke-width="3.2"/>
<circle clip-path="url(#clip272)" cx="760.399" cy="514.828" r="7.2" fill="#009af9" fill-rule="evenodd" fill-opacity="1" stroke="#000000" stroke-opacity="1" stroke-width="3.2"/>
<circle clip-path="url(#clip272)" cx="780.814" cy="488.468" r="7.2" fill="#009af9" fill-rule="evenodd" fill-opacity="1" stroke="#000000" stroke-opacity="1" stroke-width="3.2"/>
<circle clip-path="url(#clip272)" cx="801.229" cy="529.69" r="7.2" fill="#009af9" fill-rule="evenodd" fill-opacity="1" stroke="#000000" stroke-opacity="1" stroke-width="3.2"/>
<circle clip-path="url(#clip272)" cx="821.643" cy="486.592" r="7.2" fill="#009af9" fill-rule="evenodd" fill-opacity="1" stroke="#000000" stroke-opacity="1" stroke-width="3.2"/>
<circle clip-path="url(#clip272)" cx="842.058" cy="551.434" r="7.2" fill="#009af9" fill-rule="evenodd" fill-opacity="1" stroke="#000000" stroke-opacity="1" stroke-width="3.2"/>
<circle clip-path="url(#clip272)" cx="862.473" cy="493.425" r="7.2" fill="#009af9" fill-rule="evenodd" fill-opacity="1" stroke="#000000" stroke-opacity="1" stroke-width="3.2"/>
<circle clip-path="url(#clip272)" cx="882.888" cy="527.54" r="7.2" fill="#009af9" fill-rule="evenodd" fill-opacity="1" stroke="#000000" stroke-opacity="1" stroke-width="3.2"/>
<circle clip-path="url(#clip272)" cx="903.303" cy="487.963" r="7.2" fill="#009af9" fill-rule="evenodd" fill-opacity="1" stroke="#000000" stroke-opacity="1" stroke-width="3.2"/>
<circle clip-path="url(#clip272)" cx="923.718" cy="518.752" r="7.2" fill="#009af9" fill-rule="evenodd" fill-opacity="1" stroke="#000000" stroke-opacity="1" stroke-width="3.2"/>
<circle clip-path="url(#clip272)" cx="944.132" cy="492.784" r="7.2" fill="#009af9" fill-rule="evenodd" fill-opacity="1" stroke="#000000" stroke-opacity="1" stroke-width="3.2"/>
<circle clip-path="url(#clip272)" cx="964.547" cy="517.891" r="7.2" fill="#009af9" fill-rule="evenodd" fill-opacity="1" stroke="#000000" stroke-opacity="1" stroke-width="3.2"/>
<circle clip-path="url(#clip272)" cx="984.962" cy="505.147" r="7.2" fill="#009af9" fill-rule="evenodd" fill-opacity="1" stroke="#000000" stroke-opacity="1" stroke-width="3.2"/>
<circle clip-path="url(#clip272)" cx="1005.38" cy="518.68" r="7.2" fill="#009af9" fill-rule="evenodd" fill-opacity="1" stroke="#000000" stroke-opacity="1" stroke-width="3.2"/>
<circle clip-path="url(#clip272)" cx="1025.79" cy="485.056" r="7.2" fill="#009af9" fill-rule="evenodd" fill-opacity="1" stroke="#000000" stroke-opacity="1" stroke-width="3.2"/>
<circle clip-path="url(#clip272)" cx="1046.21" cy="524.534" r="7.2" fill="#009af9" fill-rule="evenodd" fill-opacity="1" stroke="#000000" stroke-opacity="1" stroke-width="3.2"/>
<circle clip-path="url(#clip272)" cx="1066.62" cy="485.056" r="7.2" fill="#009af9" fill-rule="evenodd" fill-opacity="1" stroke="#000000" stroke-opacity="1" stroke-width="3.2"/>
<circle clip-path="url(#clip272)" cx="1087.04" cy="523.93" r="7.2" fill="#009af9" fill-rule="evenodd" fill-opacity="1" stroke="#000000" stroke-opacity="1" stroke-width="3.2"/>
<circle clip-path="url(#clip272)" cx="1107.45" cy="490.967" r="7.2" fill="#009af9" fill-rule="evenodd" fill-opacity="1" stroke="#000000" stroke-opacity="1" stroke-width="3.2"/>
<circle clip-path="url(#clip272)" cx="1127.87" cy="545.206" r="7.2" fill="#009af9" fill-rule="evenodd" fill-opacity="1" stroke="#000000" stroke-opacity="1" stroke-width="3.2"/>
<circle clip-path="url(#clip272)" cx="1148.28" cy="488.503" r="7.2" fill="#009af9" fill-rule="evenodd" fill-opacity="1" stroke="#000000" stroke-opacity="1" stroke-width="3.2"/>
<circle clip-path="url(#clip272)" cx="1168.7" cy="523.621" r="7.2" fill="#009af9" fill-rule="evenodd" fill-opacity="1" stroke="#000000" stroke-opacity="1" stroke-width="3.2"/>
<circle clip-path="url(#clip272)" cx="1189.11" cy="491.768" r="7.2" fill="#009af9" fill-rule="evenodd" fill-opacity="1" stroke="#000000" stroke-opacity="1" stroke-width="3.2"/>
<circle clip-path="url(#clip272)" cx="1209.53" cy="540.917" r="7.2" fill="#009af9" fill-rule="evenodd" fill-opacity="1" stroke="#000000" stroke-opacity="1" stroke-width="3.2"/>
<circle clip-path="url(#clip272)" cx="1229.94" cy="492.556" r="7.2" fill="#009af9" fill-rule="evenodd" fill-opacity="1" stroke="#000000" stroke-opacity="1" stroke-width="3.2"/>
<circle clip-path="url(#clip272)" cx="1250.35" cy="522.439" r="7.2" fill="#009af9" fill-rule="evenodd" fill-opacity="1" stroke="#000000" stroke-opacity="1" stroke-width="3.2"/>
<circle clip-path="url(#clip272)" cx="1270.77" cy="489.18" r="7.2" fill="#009af9" fill-rule="evenodd" fill-opacity="1" stroke="#000000" stroke-opacity="1" stroke-width="3.2"/>
<circle clip-path="url(#clip272)" cx="1291.18" cy="526.585" r="7.2" fill="#009af9" fill-rule="evenodd" fill-opacity="1" stroke="#000000" stroke-opacity="1" stroke-width="3.2"/>
<circle clip-path="url(#clip272)" cx="1311.6" cy="488.364" r="7.2" fill="#009af9" fill-rule="evenodd" fill-opacity="1" stroke="#000000" stroke-opacity="1" stroke-width="3.2"/>
<circle clip-path="url(#clip272)" cx="1332.01" cy="517.381" r="7.2" fill="#009af9" fill-rule="evenodd" fill-opacity="1" stroke="#000000" stroke-opacity="1" stroke-width="3.2"/>
<circle clip-path="url(#clip272)" cx="1352.43" cy="482.211" r="7.2" fill="#009af9" fill-rule="evenodd" fill-opacity="1" stroke="#000000" stroke-opacity="1" stroke-width="3.2"/>
<circle clip-path="url(#clip272)" cx="1372.84" cy="529.257" r="7.2" fill="#009af9" fill-rule="evenodd" fill-opacity="1" stroke="#000000" stroke-opacity="1" stroke-width="3.2"/>
<circle clip-path="url(#clip272)" cx="1393.26" cy="492.984" r="7.2" fill="#009af9" fill-rule="evenodd" fill-opacity="1" stroke="#000000" stroke-opacity="1" stroke-width="3.2"/>
<circle clip-path="url(#clip272)" cx="1413.67" cy="528.204" r="7.2" fill="#009af9" fill-rule="evenodd" fill-opacity="1" stroke="#000000" stroke-opacity="1" stroke-width="3.2"/>
<circle clip-path="url(#clip272)" cx="1434.09" cy="479.842" r="7.2" fill="#009af9" fill-rule="evenodd" fill-opacity="1" stroke="#000000" stroke-opacity="1" stroke-width="3.2"/>
<circle clip-path="url(#clip272)" cx="1454.5" cy="528.113" r="7.2" fill="#009af9" fill-rule="evenodd" fill-opacity="1" stroke="#000000" stroke-opacity="1" stroke-width="3.2"/>
<circle clip-path="url(#clip272)" cx="1474.92" cy="492.54" r="7.2" fill="#009af9" fill-rule="evenodd" fill-opacity="1" stroke="#000000" stroke-opacity="1" stroke-width="3.2"/>
<circle clip-path="url(#clip272)" cx="1495.33" cy="527.021" r="7.2" fill="#009af9" fill-rule="evenodd" fill-opacity="1" stroke="#000000" stroke-opacity="1" stroke-width="3.2"/>
<circle clip-path="url(#clip272)" cx="1515.75" cy="495.22" r="7.2" fill="#009af9" fill-rule="evenodd" fill-opacity="1" stroke="#000000" stroke-opacity="1" stroke-width="3.2"/>
<circle clip-path="url(#clip272)" cx="1536.16" cy="538.707" r="7.2" fill="#009af9" fill-rule="evenodd" fill-opacity="1" stroke="#000000" stroke-opacity="1" stroke-width="3.2"/>
<circle clip-path="url(#clip272)" cx="1556.58" cy="486.988" r="7.2" fill="#009af9" fill-rule="evenodd" fill-opacity="1" stroke="#000000" stroke-opacity="1" stroke-width="3.2"/>
<circle clip-path="url(#clip272)" cx="1576.99" cy="574.366" r="7.2" fill="#009af9" fill-rule="evenodd" fill-opacity="1" stroke="#000000" stroke-opacity="1" stroke-width="3.2"/>
<circle clip-path="url(#clip272)" cx="1597.41" cy="496.76" r="7.2" fill="#009af9" fill-rule="evenodd" fill-opacity="1" stroke="#000000" stroke-opacity="1" stroke-width="3.2"/>
<circle clip-path="url(#clip272)" cx="1617.82" cy="518.35" r="7.2" fill="#009af9" fill-rule="evenodd" fill-opacity="1" stroke="#000000" stroke-opacity="1" stroke-width="3.2"/>
<circle clip-path="url(#clip272)" cx="1638.24" cy="482.885" r="7.2" fill="#009af9" fill-rule="evenodd" fill-opacity="1" stroke="#000000" stroke-opacity="1" stroke-width="3.2"/>
<circle clip-path="url(#clip272)" cx="1658.65" cy="549.358" r="7.2" fill="#009af9" fill-rule="evenodd" fill-opacity="1" stroke="#000000" stroke-opacity="1" stroke-width="3.2"/>
<circle clip-path="url(#clip272)" cx="1679.07" cy="503.39" r="7.2" fill="#009af9" fill-rule="evenodd" fill-opacity="1" stroke="#000000" stroke-opacity="1" stroke-width="3.2"/>
<circle clip-path="url(#clip272)" cx="1699.48" cy="532.732" r="7.2" fill="#009af9" fill-rule="evenodd" fill-opacity="1" stroke="#000000" stroke-opacity="1" stroke-width="3.2"/>
<circle clip-path="url(#clip272)" cx="1719.9" cy="494.006" r="7.2" fill="#009af9" fill-rule="evenodd" fill-opacity="1" stroke="#000000" stroke-opacity="1" stroke-width="3.2"/>
<circle clip-path="url(#clip272)" cx="1740.31" cy="524.14" r="7.2" fill="#009af9" fill-rule="evenodd" fill-opacity="1" stroke="#000000" stroke-opacity="1" stroke-width="3.2"/>
<circle clip-path="url(#clip272)" cx="1760.73" cy="493.665" r="7.2" fill="#009af9" fill-rule="evenodd" fill-opacity="1" stroke="#000000" stroke-opacity="1" stroke-width="3.2"/>
<circle clip-path="url(#clip272)" cx="1781.14" cy="523.587" r="7.2" fill="#009af9" fill-rule="evenodd" fill-opacity="1" stroke="#000000" stroke-opacity="1" stroke-width="3.2"/>
<circle clip-path="url(#clip272)" cx="1801.56" cy="506.845" r="7.2" fill="#009af9" fill-rule="evenodd" fill-opacity="1" stroke="#000000" stroke-opacity="1" stroke-width="3.2"/>
<circle clip-path="url(#clip272)" cx="1821.97" cy="516.628" r="7.2" fill="#009af9" fill-rule="evenodd" fill-opacity="1" stroke="#000000" stroke-opacity="1" stroke-width="3.2"/>
<circle clip-path="url(#clip272)" cx="1842.39" cy="489.633" r="7.2" fill="#009af9" fill-rule="evenodd" fill-opacity="1" stroke="#000000" stroke-opacity="1" stroke-width="3.2"/>
<circle clip-path="url(#clip272)" cx="1862.8" cy="557.249" r="7.2" fill="#009af9" fill-rule="evenodd" fill-opacity="1" stroke="#000000" stroke-opacity="1" stroke-width="3.2"/>
<circle clip-path="url(#clip272)" cx="1883.21" cy="504.967" r="7.2" fill="#009af9" fill-rule="evenodd" fill-opacity="1" stroke="#000000" stroke-opacity="1" stroke-width="3.2"/>
<circle clip-path="url(#clip272)" cx="1903.63" cy="514.062" r="7.2" fill="#009af9" fill-rule="evenodd" fill-opacity="1" stroke="#000000" stroke-opacity="1" stroke-width="3.2"/>
<circle clip-path="url(#clip272)" cx="1924.04" cy="500.386" r="7.2" fill="#009af9" fill-rule="evenodd" fill-opacity="1" stroke="#000000" stroke-opacity="1" stroke-width="3.2"/>
<circle clip-path="url(#clip272)" cx="1944.46" cy="545.639" r="7.2" fill="#009af9" fill-rule="evenodd" fill-opacity="1" stroke="#000000" stroke-opacity="1" stroke-width="3.2"/>
<circle clip-path="url(#clip272)" cx="1964.87" cy="497.45" r="7.2" fill="#009af9" fill-rule="evenodd" fill-opacity="1" stroke="#000000" stroke-opacity="1" stroke-width="3.2"/>
<circle clip-path="url(#clip272)" cx="1985.29" cy="525.922" r="7.2" fill="#009af9" fill-rule="evenodd" fill-opacity="1" stroke="#000000" stroke-opacity="1" stroke-width="3.2"/>
<circle clip-path="url(#clip272)" cx="2005.7" cy="498.883" r="7.2" fill="#009af9" fill-rule="evenodd" fill-opacity="1" stroke="#000000" stroke-opacity="1" stroke-width="3.2"/>
<circle clip-path="url(#clip272)" cx="2026.12" cy="543.096" r="7.2" fill="#009af9" fill-rule="evenodd" fill-opacity="1" stroke="#000000" stroke-opacity="1" stroke-width="3.2"/>
<circle clip-path="url(#clip272)" cx="2046.53" cy="511.064" r="7.2" fill="#009af9" fill-rule="evenodd" fill-opacity="1" stroke="#000000" stroke-opacity="1" stroke-width="3.2"/>
<circle clip-path="url(#clip272)" cx="2066.95" cy="544.535" r="7.2" fill="#009af9" fill-rule="evenodd" fill-opacity="1" stroke="#000000" stroke-opacity="1" stroke-width="3.2"/>
<circle clip-path="url(#clip272)" cx="2087.36" cy="503.228" r="7.2" fill="#009af9" fill-rule="evenodd" fill-opacity="1" stroke="#000000" stroke-opacity="1" stroke-width="3.2"/>
<circle clip-path="url(#clip272)" cx="2107.78" cy="535.118" r="7.2" fill="#009af9" fill-rule="evenodd" fill-opacity="1" stroke="#000000" stroke-opacity="1" stroke-width="3.2"/>
<circle clip-path="url(#clip272)" cx="2128.19" cy="492.375" r="7.2" fill="#009af9" fill-rule="evenodd" fill-opacity="1" stroke="#000000" stroke-opacity="1" stroke-width="3.2"/>
<circle clip-path="url(#clip272)" cx="2148.61" cy="566.366" r="7.2" fill="#009af9" fill-rule="evenodd" fill-opacity="1" stroke="#000000" stroke-opacity="1" stroke-width="3.2"/>
<circle clip-path="url(#clip272)" cx="2169.02" cy="484.238" r="7.2" fill="#009af9" fill-rule="evenodd" fill-opacity="1" stroke="#000000" stroke-opacity="1" stroke-width="3.2"/>
<circle clip-path="url(#clip272)" cx="2189.44" cy="550.642" r="7.2" fill="#009af9" fill-rule="evenodd" fill-opacity="1" stroke="#000000" stroke-opacity="1" stroke-width="3.2"/>
<circle clip-path="url(#clip272)" cx="2209.85" cy="486.972" r="7.2" fill="#009af9" fill-rule="evenodd" fill-opacity="1" stroke="#000000" stroke-opacity="1" stroke-width="3.2"/>
<circle clip-path="url(#clip272)" cx="2230.27" cy="572.39" r="7.2" fill="#009af9" fill-rule="evenodd" fill-opacity="1" stroke="#000000" stroke-opacity="1" stroke-width="3.2"/>
<circle clip-path="url(#clip272)" cx="2250.68" cy="501.183" r="7.2" fill="#009af9" fill-rule="evenodd" fill-opacity="1" stroke="#000000" stroke-opacity="1" stroke-width="3.2"/>
<path clip-path="url(#clip270)" d="
M2019.96 270.476 L2282.66 270.476 L2282.66 166.796 L2019.96 166.796  Z
  " fill="#ffffff" fill-rule="evenodd" fill-opacity="1"/>
<polyline clip-path="url(#clip270)" style="stroke:#000000; stroke-linecap:round; stroke-linejoin:round; stroke-width:4; stroke-opacity:1; fill:none" points="
  2019.96,270.476 2282.66,270.476 2282.66,166.796 2019.96,166.796 2019.96,270.476 
  "/>
<circle clip-path="url(#clip270)" cx="2113.42" cy="218.636" r="23.04" fill="#009af9" fill-rule="evenodd" fill-opacity="1" stroke="#000000" stroke-opacity="1" stroke-width="10.24"/>
<path clip-path="url(#clip270)" d="M2220.71 238.323 Q2218.91 242.953 2217.2 244.365 Q2215.48 245.777 2212.61 245.777 L2209.21 245.777 L2209.21 242.212 L2211.71 242.212 Q2213.47 242.212 2214.44 241.379 Q2215.41 240.545 2216.59 237.443 L2217.36 235.499 L2206.87 209.99 L2211.38 209.99 L2219.49 230.268 L2227.59 209.99 L2232.1 209.99 L2220.71 238.323 Z" fill="#000000" fill-rule="evenodd" fill-opacity="1" /><path clip-path="url(#clip270)" d="M2239.39 231.981 L2247.03 231.981 L2247.03 205.615 L2238.72 207.282 L2238.72 203.022 L2246.99 201.356 L2251.66 201.356 L2251.66 231.981 L2259.3 231.981 L2259.3 235.916 L2239.39 235.916 L2239.39 231.981 Z" fill="#000000" fill-rule="evenodd" fill-opacity="1" /></svg>
