<?xml version="1.0" encoding="utf-8"?>
<svg xmlns="http://www.w3.org/2000/svg" xmlns:xlink="http://www.w3.org/1999/xlink" width="600" height="400" viewBox="0 0 2400 1600">
<defs>
  <clipPath id="clip660">
    <rect x="0" y="0" width="2400" height="1600"/>
  </clipPath>
</defs>
<path clip-path="url(#clip660)" d="
M0 1600 L2400 1600 L2400 0 L0 0  Z
  " fill="#ffffff" fill-rule="evenodd" fill-opacity="1"/>
<defs>
  <clipPath id="clip661">
    <rect x="480" y="0" width="1681" height="1600"/>
  </clipPath>
</defs>
<path clip-path="url(#clip660)" d="
M309.866 1423.18 L2352.76 1423.18 L2352.76 123.472 L309.866 123.472  Z
  " fill="#ffffff" fill-rule="evenodd" fill-opacity="1"/>
<defs>
  <clipPath id="clip662">
    <rect x="309" y="123" width="2044" height="1301"/>
  </clipPath>
</defs>
<polyline clip-path="url(#clip662)" style="stroke:#000000; stroke-linecap:round; stroke-linejoin:round; stroke-width:2; stroke-opacity:0.1; fill:none" points="
  327.532,1423.18 327.532,123.472 
  "/>
<polyline clip-path="url(#clip662)" style="stroke:#000000; stroke-linecap:round; stroke-linejoin:round; stroke-width:2; stroke-opacity:0.1; fill:none" points="
  729.044,1423.18 729.044,123.472 
  "/>
<polyline clip-path="url(#clip662)" style="stroke:#000000; stroke-linecap:round; stroke-linejoin:round; stroke-width:2; stroke-opacity:0.1; fill:none" points="
  1130.56,1423.18 1130.56,123.472 
  "/>
<polyline clip-path="url(#clip662)" style="stroke:#000000; stroke-linecap:round; stroke-linejoin:round; stroke-width:2; stroke-opacity:0.1; fill:none" points="
  1532.07,1423.18 1532.07,123.472 
  "/>
<polyline clip-path="url(#clip662)" style="stroke:#000000; stroke-linecap:round; stroke-linejoin:round; stroke-width:2; stroke-opacity:0.1; fill:none" points="
  1933.58,1423.18 1933.58,123.472 
  "/>
<polyline clip-path="url(#clip662)" style="stroke:#000000; stroke-linecap:round; stroke-linejoin:round; stroke-width:2; stroke-opacity:0.1; fill:none" points="
  2335.09,1423.18 2335.09,123.472 
  "/>
<polyline clip-path="url(#clip660)" style="stroke:#000000; stroke-linecap:round; stroke-linejoin:round; stroke-width:4; stroke-opacity:1; fill:none" points="
  309.866,1423.18 2352.76,1423.18 
  "/>
<polyline clip-path="url(#clip660)" style="stroke:#000000; stroke-linecap:round; stroke-linejoin:round; stroke-width:4; stroke-opacity:1; fill:none" points="
  327.532,1423.18 327.532,1404.28 
  "/>
<polyline clip-path="url(#clip660)" style="stroke:#000000; stroke-linecap:round; stroke-linejoin:round; stroke-width:4; stroke-opacity:1; fill:none" points="
  729.044,1423.18 729.044,1404.28 
  "/>
<polyline clip-path="url(#clip660)" style="stroke:#000000; stroke-linecap:round; stroke-linejoin:round; stroke-width:4; stroke-opacity:1; fill:none" points="
  1130.56,1423.18 1130.56,1404.28 
  "/>
<polyline clip-path="url(#clip660)" style="stroke:#000000; stroke-linecap:round; stroke-linejoin:round; stroke-width:4; stroke-opacity:1; fill:none" points="
  1532.07,1423.18 1532.07,1404.28 
  "/>
<polyline clip-path="url(#clip660)" style="stroke:#000000; stroke-linecap:round; stroke-linejoin:round; stroke-width:4; stroke-opacity:1; fill:none" points="
  1933.58,1423.18 1933.58,1404.28 
  "/>
<polyline clip-path="url(#clip660)" style="stroke:#000000; stroke-linecap:round; stroke-linejoin:round; stroke-width:4; stroke-opacity:1; fill:none" points="
  2335.09,1423.18 2335.09,1404.28 
  "/>
<path clip-path="url(#clip660)" d="M327.532 1454.1 Q323.921 1454.1 322.093 1457.66 Q320.287 1461.2 320.287 1468.33 Q320.287 1475.44 322.093 1479.01 Q323.921 1482.55 327.532 1482.55 Q331.167 1482.55 332.972 1479.01 Q334.801 1475.44 334.801 1468.33 Q334.801 1461.2 332.972 1457.66 Q331.167 1454.1 327.532 1454.1 M327.532 1450.39 Q333.342 1450.39 336.398 1455 Q339.477 1459.58 339.477 1468.33 Q339.477 1477.06 336.398 1481.67 Q333.342 1486.25 327.532 1486.25 Q321.722 1486.25 318.643 1481.67 Q315.588 1477.06 315.588 1468.33 Q315.588 1459.58 318.643 1455 Q321.722 1450.39 327.532 1450.39 Z" fill="#000000" fill-rule="evenodd" fill-opacity="1" /><path clip-path="url(#clip660)" d="M703.731 1481.64 L711.37 1481.64 L711.37 1455.28 L703.06 1456.95 L703.06 1452.69 L711.324 1451.02 L716 1451.02 L716 1481.64 L723.639 1481.64 L723.639 1485.58 L703.731 1485.58 L703.731 1481.64 Z" fill="#000000" fill-rule="evenodd" fill-opacity="1" /><path clip-path="url(#clip660)" d="M743.083 1454.1 Q739.472 1454.1 737.643 1457.66 Q735.838 1461.2 735.838 1468.33 Q735.838 1475.44 737.643 1479.01 Q739.472 1482.55 743.083 1482.55 Q746.717 1482.55 748.523 1479.01 Q750.351 1475.44 750.351 1468.33 Q750.351 1461.2 748.523 1457.66 Q746.717 1454.1 743.083 1454.1 M743.083 1450.39 Q748.893 1450.39 751.949 1455 Q755.027 1459.58 755.027 1468.33 Q755.027 1477.06 751.949 1481.67 Q748.893 1486.25 743.083 1486.25 Q737.273 1486.25 734.194 1481.67 Q731.139 1477.06 731.139 1468.33 Q731.139 1459.58 734.194 1455 Q737.273 1450.39 743.083 1450.39 Z" fill="#000000" fill-rule="evenodd" fill-opacity="1" /><path clip-path="url(#clip660)" d="M1109.33 1481.64 L1125.65 1481.64 L1125.65 1485.58 L1103.7 1485.58 L1103.7 1481.64 Q1106.37 1478.89 1110.95 1474.26 Q1115.56 1469.61 1116.74 1468.27 Q1118.98 1465.74 1119.86 1464.01 Q1120.76 1462.25 1120.76 1460.56 Q1120.76 1457.8 1118.82 1456.07 Q1116.9 1454.33 1113.8 1454.33 Q1111.6 1454.33 1109.14 1455.09 Q1106.71 1455.86 1103.93 1457.41 L1103.93 1452.69 Q1106.76 1451.55 1109.21 1450.97 Q1111.67 1450.39 1113.7 1450.39 Q1119.07 1450.39 1122.27 1453.08 Q1125.46 1455.77 1125.46 1460.26 Q1125.46 1462.39 1124.65 1464.31 Q1123.87 1466.2 1121.76 1468.8 Q1121.18 1469.47 1118.08 1472.69 Q1114.98 1475.88 1109.33 1481.64 Z" fill="#000000" fill-rule="evenodd" fill-opacity="1" /><path clip-path="url(#clip660)" d="M1145.46 1454.1 Q1141.85 1454.1 1140.02 1457.66 Q1138.22 1461.2 1138.22 1468.33 Q1138.22 1475.44 1140.02 1479.01 Q1141.85 1482.55 1145.46 1482.55 Q1149.1 1482.55 1150.9 1479.01 Q1152.73 1475.44 1152.73 1468.33 Q1152.73 1461.2 1150.9 1457.66 Q1149.1 1454.1 1145.46 1454.1 M1145.46 1450.39 Q1151.27 1450.39 1154.33 1455 Q1157.41 1459.58 1157.41 1468.33 Q1157.41 1477.06 1154.33 1481.67 Q1151.27 1486.25 1145.46 1486.25 Q1139.65 1486.25 1136.57 1481.67 Q1133.52 1477.06 1133.52 1468.33 Q1133.52 1459.58 1136.57 1455 Q1139.65 1450.39 1145.46 1450.39 Z" fill="#000000" fill-rule="evenodd" fill-opacity="1" /><path clip-path="url(#clip660)" d="M1520.91 1466.95 Q1524.27 1467.66 1526.14 1469.93 Q1528.04 1472.2 1528.04 1475.53 Q1528.04 1480.65 1524.52 1483.45 Q1521 1486.25 1514.52 1486.25 Q1512.34 1486.25 1510.03 1485.81 Q1507.74 1485.39 1505.28 1484.54 L1505.28 1480.02 Q1507.23 1481.16 1509.54 1481.74 Q1511.86 1482.32 1514.38 1482.32 Q1518.78 1482.32 1521.07 1480.58 Q1523.39 1478.84 1523.39 1475.53 Q1523.39 1472.48 1521.23 1470.77 Q1519.1 1469.03 1515.28 1469.03 L1511.26 1469.03 L1511.26 1465.19 L1515.47 1465.19 Q1518.92 1465.19 1520.75 1463.82 Q1522.58 1462.43 1522.58 1459.84 Q1522.58 1457.18 1520.68 1455.77 Q1518.8 1454.33 1515.28 1454.33 Q1513.36 1454.33 1511.16 1454.75 Q1508.96 1455.16 1506.33 1456.04 L1506.33 1451.88 Q1508.99 1451.14 1511.3 1450.77 Q1513.64 1450.39 1515.7 1450.39 Q1521.02 1450.39 1524.13 1452.83 Q1527.23 1455.23 1527.23 1459.35 Q1527.23 1462.22 1525.59 1464.21 Q1523.94 1466.18 1520.91 1466.95 Z" fill="#000000" fill-rule="evenodd" fill-opacity="1" /><path clip-path="url(#clip660)" d="M1546.9 1454.1 Q1543.29 1454.1 1541.46 1457.66 Q1539.66 1461.2 1539.66 1468.33 Q1539.66 1475.44 1541.46 1479.01 Q1543.29 1482.55 1546.9 1482.55 Q1550.54 1482.55 1552.34 1479.01 Q1554.17 1475.44 1554.17 1468.33 Q1554.17 1461.2 1552.34 1457.66 Q1550.54 1454.1 1546.9 1454.1 M1546.9 1450.39 Q1552.71 1450.39 1555.77 1455 Q1558.85 1459.58 1558.85 1468.33 Q1558.85 1477.06 1555.77 1481.67 Q1552.71 1486.25 1546.9 1486.25 Q1541.09 1486.25 1538.02 1481.67 Q1534.96 1477.06 1534.96 1468.33 Q1534.96 1459.58 1538.02 1455 Q1541.09 1450.39 1546.9 1450.39 Z" fill="#000000" fill-rule="evenodd" fill-opacity="1" /><path clip-path="url(#clip660)" d="M1921.75 1455.09 L1909.94 1473.54 L1921.75 1473.54 L1921.75 1455.09 M1920.52 1451.02 L1926.4 1451.02 L1926.4 1473.54 L1931.33 1473.54 L1931.33 1477.43 L1926.4 1477.43 L1926.4 1485.58 L1921.75 1485.58 L1921.75 1477.43 L1906.15 1477.43 L1906.15 1472.92 L1920.52 1451.02 Z" fill="#000000" fill-rule="evenodd" fill-opacity="1" /><path clip-path="url(#clip660)" d="M1949.06 1454.1 Q1945.45 1454.1 1943.62 1457.66 Q1941.82 1461.2 1941.82 1468.33 Q1941.82 1475.44 1943.62 1479.01 Q1945.45 1482.55 1949.06 1482.55 Q1952.7 1482.55 1954.5 1479.01 Q1956.33 1475.44 1956.33 1468.33 Q1956.33 1461.2 1954.5 1457.66 Q1952.7 1454.1 1949.06 1454.1 M1949.06 1450.39 Q1954.87 1450.39 1957.93 1455 Q1961.01 1459.58 1961.01 1468.33 Q1961.01 1477.06 1957.93 1481.67 Q1954.87 1486.25 1949.06 1486.25 Q1943.25 1486.25 1940.18 1481.67 Q1937.12 1477.06 1937.12 1468.33 Q1937.12 1459.58 1940.18 1455 Q1943.25 1450.39 1949.06 1450.39 Z" fill="#000000" fill-rule="evenodd" fill-opacity="1" /><path clip-path="url(#clip660)" d="M2309.79 1451.02 L2328.14 1451.02 L2328.14 1454.96 L2314.07 1454.96 L2314.07 1463.43 Q2315.09 1463.08 2316.11 1462.92 Q2317.13 1462.73 2318.15 1462.73 Q2323.93 1462.73 2327.31 1465.9 Q2330.69 1469.08 2330.69 1474.49 Q2330.69 1480.07 2327.22 1483.17 Q2323.75 1486.25 2317.43 1486.25 Q2315.25 1486.25 2312.98 1485.88 Q2310.74 1485.51 2308.33 1484.77 L2308.33 1480.07 Q2310.41 1481.2 2312.64 1481.76 Q2314.86 1482.32 2317.33 1482.32 Q2321.34 1482.32 2323.68 1480.21 Q2326.02 1478.1 2326.02 1474.49 Q2326.02 1470.88 2323.68 1468.77 Q2321.34 1466.67 2317.33 1466.67 Q2315.46 1466.67 2313.58 1467.08 Q2311.73 1467.5 2309.79 1468.38 L2309.79 1451.02 Z" fill="#000000" fill-rule="evenodd" fill-opacity="1" /><path clip-path="url(#clip660)" d="M2349.9 1454.1 Q2346.29 1454.1 2344.46 1457.66 Q2342.66 1461.2 2342.66 1468.33 Q2342.66 1475.44 2344.46 1479.01 Q2346.29 1482.55 2349.9 1482.55 Q2353.54 1482.55 2355.34 1479.01 Q2357.17 1475.44 2357.17 1468.33 Q2357.17 1461.2 2355.34 1457.66 Q2353.54 1454.1 2349.9 1454.1 M2349.9 1450.39 Q2355.71 1450.39 2358.77 1455 Q2361.85 1459.58 2361.85 1468.33 Q2361.85 1477.06 2358.77 1481.67 Q2355.71 1486.25 2349.9 1486.25 Q2344.09 1486.25 2341.02 1481.67 Q2337.96 1477.06 2337.96 1468.33 Q2337.96 1459.58 2341.02 1455 Q2344.09 1450.39 2349.9 1450.39 Z" fill="#000000" fill-rule="evenodd" fill-opacity="1" /><path clip-path="url(#clip660)" d="M1160.18 1522.08 L1160.18 1528.35 Q1156.52 1526.6 1153.28 1525.74 Q1150.03 1524.88 1147.01 1524.88 Q1141.76 1524.88 1138.89 1526.92 Q1136.06 1528.96 1136.06 1532.71 Q1136.06 1535.87 1137.94 1537.49 Q1139.85 1539.08 1145.13 1540.07 L1149.01 1540.86 Q1156.21 1542.23 1159.61 1545.7 Q1163.05 1549.14 1163.05 1554.93 Q1163.05 1561.84 1158.4 1565.4 Q1153.79 1568.97 1144.84 1568.97 Q1141.47 1568.97 1137.65 1568.2 Q1133.86 1567.44 1129.79 1565.94 L1129.79 1559.32 Q1133.7 1561.52 1137.46 1562.63 Q1141.21 1563.75 1144.84 1563.75 Q1150.35 1563.75 1153.34 1561.58 Q1156.33 1559.42 1156.33 1555.41 Q1156.33 1551.91 1154.17 1549.93 Q1152.04 1547.96 1147.14 1546.97 L1143.22 1546.21 Q1136.03 1544.78 1132.81 1541.72 Q1129.6 1538.67 1129.6 1533.22 Q1129.6 1526.92 1134.02 1523.29 Q1138.48 1519.66 1146.28 1519.66 Q1149.62 1519.66 1153.09 1520.27 Q1156.56 1520.87 1160.18 1522.08 Z" fill="#000000" fill-rule="evenodd" fill-opacity="1" /><path clip-path="url(#clip660)" d="M1172.82 1532.4 L1178.68 1532.4 L1178.68 1568.04 L1172.82 1568.04 L1172.82 1532.4 M1172.82 1518.52 L1178.68 1518.52 L1178.68 1525.93 L1172.82 1525.93 L1172.82 1518.52 Z" fill="#000000" fill-rule="evenodd" fill-opacity="1" /><path clip-path="url(#clip660)" d="M1196.72 1522.27 L1196.72 1532.4 L1208.79 1532.4 L1208.79 1536.95 L1196.72 1536.95 L1196.72 1556.3 Q1196.72 1560.66 1197.9 1561.9 Q1199.11 1563.14 1202.77 1563.14 L1208.79 1563.14 L1208.79 1568.04 L1202.77 1568.04 Q1195.99 1568.04 1193.41 1565.53 Q1190.84 1562.98 1190.84 1556.3 L1190.84 1536.95 L1186.54 1536.95 L1186.54 1532.4 L1190.84 1532.4 L1190.84 1522.27 L1196.72 1522.27 Z" fill="#000000" fill-rule="evenodd" fill-opacity="1" /><path clip-path="url(#clip660)" d="M1246.98 1548.76 L1246.98 1551.62 L1220.05 1551.62 Q1220.44 1557.67 1223.68 1560.85 Q1226.96 1564 1232.79 1564 Q1236.16 1564 1239.31 1563.17 Q1242.49 1562.35 1245.61 1560.69 L1245.61 1566.23 Q1242.46 1567.57 1239.15 1568.27 Q1235.84 1568.97 1232.44 1568.97 Q1223.91 1568.97 1218.91 1564 Q1213.94 1559.04 1213.94 1550.57 Q1213.94 1541.82 1218.65 1536.69 Q1223.4 1531.54 1231.42 1531.54 Q1238.61 1531.54 1242.78 1536.18 Q1246.98 1540.8 1246.98 1548.76 M1241.12 1547.04 Q1241.06 1542.23 1238.42 1539.37 Q1235.81 1536.5 1231.48 1536.5 Q1226.58 1536.5 1223.62 1539.27 Q1220.69 1542.04 1220.25 1547.07 L1241.12 1547.04 Z" fill="#000000" fill-rule="evenodd" fill-opacity="1" /><path clip-path="url(#clip660)" d="M1277.57 1520.52 L1286.23 1520.52 L1307.3 1560.28 L1307.3 1520.52 L1313.53 1520.52 L1313.53 1568.04 L1304.88 1568.04 L1283.81 1528.29 L1283.81 1568.04 L1277.57 1568.04 L1277.57 1520.52 Z" fill="#000000" fill-rule="evenodd" fill-opacity="1" /><path clip-path="url(#clip660)" d="M1325.47 1553.98 L1325.47 1532.4 L1331.33 1532.4 L1331.33 1553.75 Q1331.33 1558.81 1333.3 1561.36 Q1335.27 1563.87 1339.22 1563.87 Q1343.96 1563.87 1346.7 1560.85 Q1349.47 1557.83 1349.47 1552.61 L1349.47 1532.4 L1355.33 1532.4 L1355.33 1568.04 L1349.47 1568.04 L1349.47 1562.57 Q1347.34 1565.82 1344.5 1567.41 Q1341.7 1568.97 1337.98 1568.97 Q1331.84 1568.97 1328.65 1565.15 Q1325.47 1561.33 1325.47 1553.98 M1340.21 1531.54 L1340.21 1531.54 Z" fill="#000000" fill-rule="evenodd" fill-opacity="1" /><path clip-path="url(#clip660)" d="M1395.14 1539.24 Q1397.34 1535.29 1400.39 1533.41 Q1403.45 1531.54 1407.59 1531.54 Q1413.16 1531.54 1416.18 1535.45 Q1419.21 1539.33 1419.21 1546.53 L1419.21 1568.04 L1413.32 1568.04 L1413.32 1546.72 Q1413.32 1541.59 1411.5 1539.11 Q1409.69 1536.63 1405.96 1536.63 Q1401.41 1536.63 1398.77 1539.65 Q1396.13 1542.68 1396.13 1547.9 L1396.13 1568.04 L1390.24 1568.04 L1390.24 1546.72 Q1390.24 1541.56 1388.43 1539.11 Q1386.61 1536.63 1382.83 1536.63 Q1378.34 1536.63 1375.7 1539.68 Q1373.05 1542.71 1373.05 1547.9 L1373.05 1568.04 L1367.17 1568.04 L1367.17 1532.4 L1373.05 1532.4 L1373.05 1537.93 Q1375.06 1534.66 1377.86 1533.1 Q1380.66 1531.54 1384.51 1531.54 Q1388.4 1531.54 1391.1 1533.51 Q1393.84 1535.48 1395.14 1539.24 Z" fill="#000000" fill-rule="evenodd" fill-opacity="1" /><path clip-path="url(#clip660)" d="M1456.48 1550.25 Q1456.48 1543.79 1453.8 1540.13 Q1451.16 1536.44 1446.51 1536.44 Q1441.87 1536.44 1439.19 1540.13 Q1436.55 1543.79 1436.55 1550.25 Q1436.55 1556.71 1439.19 1560.4 Q1441.87 1564.07 1446.51 1564.07 Q1451.16 1564.07 1453.8 1560.4 Q1456.48 1556.71 1456.48 1550.25 M1436.55 1537.81 Q1438.4 1534.62 1441.2 1533.1 Q1444.03 1531.54 1447.95 1531.54 Q1454.44 1531.54 1458.48 1536.69 Q1462.56 1541.85 1462.56 1550.25 Q1462.56 1558.65 1458.48 1563.81 Q1454.44 1568.97 1447.95 1568.97 Q1444.03 1568.97 1441.2 1567.44 Q1438.4 1565.88 1436.55 1562.7 L1436.55 1568.04 L1430.66 1568.04 L1430.66 1518.52 L1436.55 1518.52 L1436.55 1537.81 Z" fill="#000000" fill-rule="evenodd" fill-opacity="1" /><path clip-path="url(#clip660)" d="M1502.76 1548.76 L1502.76 1551.62 L1475.83 1551.62 Q1476.21 1557.67 1479.46 1560.85 Q1482.74 1564 1488.56 1564 Q1491.93 1564 1495.08 1563.17 Q1498.27 1562.35 1501.39 1560.69 L1501.39 1566.23 Q1498.24 1567.57 1494.93 1568.27 Q1491.62 1568.97 1488.21 1568.97 Q1479.68 1568.97 1474.68 1564 Q1469.72 1559.04 1469.72 1550.57 Q1469.72 1541.82 1474.43 1536.69 Q1479.17 1531.54 1487.19 1531.54 Q1494.38 1531.54 1498.55 1536.18 Q1502.76 1540.8 1502.76 1548.76 M1496.9 1547.04 Q1496.84 1542.23 1494.19 1539.37 Q1491.58 1536.5 1487.25 1536.5 Q1482.35 1536.5 1479.39 1539.27 Q1476.46 1542.04 1476.02 1547.07 L1496.9 1547.04 Z" fill="#000000" fill-rule="evenodd" fill-opacity="1" /><path clip-path="url(#clip660)" d="M1533.02 1537.87 Q1532.04 1537.3 1530.86 1537.04 Q1529.71 1536.76 1528.31 1536.76 Q1523.35 1536.76 1520.67 1540 Q1518.03 1543.22 1518.03 1549.27 L1518.03 1568.04 L1512.14 1568.04 L1512.14 1532.4 L1518.03 1532.4 L1518.03 1537.93 Q1519.88 1534.69 1522.84 1533.13 Q1525.8 1531.54 1530.03 1531.54 Q1530.64 1531.54 1531.37 1531.63 Q1532.1 1531.7 1532.99 1531.85 L1533.02 1537.87 Z" fill="#000000" fill-rule="evenodd" fill-opacity="1" /><polyline clip-path="url(#clip662)" style="stroke:#000000; stroke-linecap:round; stroke-linejoin:round; stroke-width:2; stroke-opacity:0.1; fill:none" points="
  309.866,1406.67 2352.76,1406.67 
  "/>
<polyline clip-path="url(#clip662)" style="stroke:#000000; stroke-linecap:round; stroke-linejoin:round; stroke-width:2; stroke-opacity:0.1; fill:none" points="
  309.866,1214 2352.76,1214 
  "/>
<polyline clip-path="url(#clip662)" style="stroke:#000000; stroke-linecap:round; stroke-linejoin:round; stroke-width:2; stroke-opacity:0.1; fill:none" points="
  309.866,1021.32 2352.76,1021.32 
  "/>
<polyline clip-path="url(#clip662)" style="stroke:#000000; stroke-linecap:round; stroke-linejoin:round; stroke-width:2; stroke-opacity:0.1; fill:none" points="
  309.866,828.646 2352.76,828.646 
  "/>
<polyline clip-path="url(#clip662)" style="stroke:#000000; stroke-linecap:round; stroke-linejoin:round; stroke-width:2; stroke-opacity:0.1; fill:none" points="
  309.866,635.971 2352.76,635.971 
  "/>
<polyline clip-path="url(#clip662)" style="stroke:#000000; stroke-linecap:round; stroke-linejoin:round; stroke-width:2; stroke-opacity:0.1; fill:none" points="
  309.866,443.295 2352.76,443.295 
  "/>
<polyline clip-path="url(#clip662)" style="stroke:#000000; stroke-linecap:round; stroke-linejoin:round; stroke-width:2; stroke-opacity:0.1; fill:none" points="
  309.866,250.62 2352.76,250.62 
  "/>
<polyline clip-path="url(#clip660)" style="stroke:#000000; stroke-linecap:round; stroke-linejoin:round; stroke-width:4; stroke-opacity:1; fill:none" points="
  309.866,1423.18 309.866,123.472 
  "/>
<polyline clip-path="url(#clip660)" style="stroke:#000000; stroke-linecap:round; stroke-linejoin:round; stroke-width:4; stroke-opacity:1; fill:none" points="
  309.866,1406.67 328.763,1406.67 
  "/>
<polyline clip-path="url(#clip660)" style="stroke:#000000; stroke-linecap:round; stroke-linejoin:round; stroke-width:4; stroke-opacity:1; fill:none" points="
  309.866,1214 328.763,1214 
  "/>
<polyline clip-path="url(#clip660)" style="stroke:#000000; stroke-linecap:round; stroke-linejoin:round; stroke-width:4; stroke-opacity:1; fill:none" points="
  309.866,1021.32 328.763,1021.32 
  "/>
<polyline clip-path="url(#clip660)" style="stroke:#000000; stroke-linecap:round; stroke-linejoin:round; stroke-width:4; stroke-opacity:1; fill:none" points="
  309.866,828.646 328.763,828.646 
  "/>
<polyline clip-path="url(#clip660)" style="stroke:#000000; stroke-linecap:round; stroke-linejoin:round; stroke-width:4; stroke-opacity:1; fill:none" points="
  309.866,635.971 328.763,635.971 
  "/>
<polyline clip-path="url(#clip660)" style="stroke:#000000; stroke-linecap:round; stroke-linejoin:round; stroke-width:4; stroke-opacity:1; fill:none" points="
  309.866,443.295 328.763,443.295 
  "/>
<polyline clip-path="url(#clip660)" style="stroke:#000000; stroke-linecap:round; stroke-linejoin:round; stroke-width:4; stroke-opacity:1; fill:none" points="
  309.866,250.62 328.763,250.62 
  "/>
<path clip-path="url(#clip660)" d="M127.2 1392.47 Q123.589 1392.47 121.76 1396.04 Q119.955 1399.58 119.955 1406.71 Q119.955 1413.81 121.76 1417.38 Q123.589 1420.92 127.2 1420.92 Q130.834 1420.92 132.64 1417.38 Q134.468 1413.81 134.468 1406.71 Q134.468 1399.58 132.64 1396.04 Q130.834 1392.47 127.2 1392.47 M127.2 1388.77 Q133.01 1388.77 136.066 1393.37 Q139.144 1397.96 139.144 1406.71 Q139.144 1415.43 136.066 1420.04 Q133.01 1424.62 127.2 1424.62 Q121.39 1424.62 118.311 1420.04 Q115.256 1415.43 115.256 1406.71 Q115.256 1397.96 118.311 1393.37 Q121.39 1388.77 127.2 1388.77 Z" fill="#000000" fill-rule="evenodd" fill-opacity="1" /><path clip-path="url(#clip660)" d="M147.362 1418.07 L152.246 1418.07 L152.246 1423.95 L147.362 1423.95 L147.362 1418.07 Z" fill="#000000" fill-rule="evenodd" fill-opacity="1" /><path clip-path="url(#clip660)" d="M175.278 1393.47 L163.473 1411.92 L175.278 1411.92 L175.278 1393.47 M174.052 1389.39 L179.931 1389.39 L179.931 1411.92 L184.862 1411.92 L184.862 1415.8 L179.931 1415.8 L179.931 1423.95 L175.278 1423.95 L175.278 1415.8 L159.677 1415.8 L159.677 1411.29 L174.052 1389.39 Z" fill="#000000" fill-rule="evenodd" fill-opacity="1" /><path clip-path="url(#clip660)" d="M191.413 1389.39 L213.635 1389.39 L213.635 1391.38 L201.088 1423.95 L196.204 1423.95 L208.01 1393.33 L191.413 1393.33 L191.413 1389.39 Z" fill="#000000" fill-rule="evenodd" fill-opacity="1" /><path clip-path="url(#clip660)" d="M236.922 1405.32 Q240.278 1406.04 242.153 1408.3 Q244.051 1410.57 244.051 1413.91 Q244.051 1419.02 240.533 1421.82 Q237.014 1424.62 230.533 1424.62 Q228.357 1424.62 226.042 1424.18 Q223.75 1423.77 221.297 1422.91 L221.297 1418.4 Q223.241 1419.53 225.556 1420.11 Q227.871 1420.69 230.394 1420.69 Q234.792 1420.69 237.084 1418.95 Q239.398 1417.22 239.398 1413.91 Q239.398 1410.85 237.246 1409.14 Q235.116 1407.4 231.297 1407.4 L227.269 1407.4 L227.269 1403.56 L231.482 1403.56 Q234.931 1403.56 236.76 1402.19 Q238.588 1400.8 238.588 1398.21 Q238.588 1395.55 236.69 1394.14 Q234.815 1392.7 231.297 1392.7 Q229.375 1392.7 227.176 1393.12 Q224.977 1393.54 222.338 1394.42 L222.338 1390.25 Q225 1389.51 227.315 1389.14 Q229.653 1388.77 231.713 1388.77 Q237.037 1388.77 240.139 1391.2 Q243.241 1393.61 243.241 1397.73 Q243.241 1400.6 241.597 1402.59 Q239.954 1404.55 236.922 1405.32 Z" fill="#000000" fill-rule="evenodd" fill-opacity="1" /><path clip-path="url(#clip660)" d="M252.963 1389.39 L271.32 1389.39 L271.32 1393.33 L257.246 1393.33 L257.246 1401.8 Q258.264 1401.45 259.283 1401.29 Q260.301 1401.11 261.32 1401.11 Q267.107 1401.11 270.486 1404.28 Q273.866 1407.45 273.866 1412.87 Q273.866 1418.44 270.394 1421.55 Q266.921 1424.62 260.602 1424.62 Q258.426 1424.62 256.158 1424.25 Q253.912 1423.88 251.505 1423.14 L251.505 1418.44 Q253.588 1419.58 255.81 1420.13 Q258.033 1420.69 260.509 1420.69 Q264.514 1420.69 266.852 1418.58 Q269.19 1416.48 269.19 1412.87 Q269.19 1409.25 266.852 1407.15 Q264.514 1405.04 260.509 1405.04 Q258.634 1405.04 256.759 1405.46 Q254.908 1405.87 252.963 1406.75 L252.963 1389.39 Z" fill="#000000" fill-rule="evenodd" fill-opacity="1" /><path clip-path="url(#clip660)" d="M126.205 1199.8 Q122.593 1199.8 120.765 1203.36 Q118.959 1206.9 118.959 1214.03 Q118.959 1221.14 120.765 1224.7 Q122.593 1228.24 126.205 1228.24 Q129.839 1228.24 131.644 1224.7 Q133.473 1221.14 133.473 1214.03 Q133.473 1206.9 131.644 1203.36 Q129.839 1199.8 126.205 1199.8 M126.205 1196.09 Q132.015 1196.09 135.07 1200.7 Q138.149 1205.28 138.149 1214.03 Q138.149 1222.76 135.07 1227.37 Q132.015 1231.95 126.205 1231.95 Q120.394 1231.95 117.316 1227.37 Q114.26 1222.76 114.26 1214.03 Q114.26 1205.28 117.316 1200.7 Q120.394 1196.09 126.205 1196.09 Z" fill="#000000" fill-rule="evenodd" fill-opacity="1" /><path clip-path="url(#clip660)" d="M146.366 1225.4 L151.251 1225.4 L151.251 1231.28 L146.366 1231.28 L146.366 1225.4 Z" fill="#000000" fill-rule="evenodd" fill-opacity="1" /><path clip-path="url(#clip660)" d="M174.283 1200.79 L162.477 1219.24 L174.283 1219.24 L174.283 1200.79 M173.056 1196.72 L178.936 1196.72 L178.936 1219.24 L183.866 1219.24 L183.866 1223.13 L178.936 1223.13 L178.936 1231.28 L174.283 1231.28 L174.283 1223.13 L158.681 1223.13 L158.681 1218.62 L173.056 1196.72 Z" fill="#000000" fill-rule="evenodd" fill-opacity="1" /><path clip-path="url(#clip660)" d="M190.417 1196.72 L212.639 1196.72 L212.639 1198.71 L200.093 1231.28 L195.209 1231.28 L207.014 1200.65 L190.417 1200.65 L190.417 1196.72 Z" fill="#000000" fill-rule="evenodd" fill-opacity="1" /><path clip-path="url(#clip660)" d="M234.607 1200.79 L222.801 1219.24 L234.607 1219.24 L234.607 1200.79 M233.38 1196.72 L239.259 1196.72 L239.259 1219.24 L244.19 1219.24 L244.19 1223.13 L239.259 1223.13 L239.259 1231.28 L234.607 1231.28 L234.607 1223.13 L219.005 1223.13 L219.005 1218.62 L233.38 1196.72 Z" fill="#000000" fill-rule="evenodd" fill-opacity="1" /><path clip-path="url(#clip660)" d="M261.921 1199.8 Q258.31 1199.8 256.482 1203.36 Q254.676 1206.9 254.676 1214.03 Q254.676 1221.14 256.482 1224.7 Q258.31 1228.24 261.921 1228.24 Q265.556 1228.24 267.361 1224.7 Q269.19 1221.14 269.19 1214.03 Q269.19 1206.9 267.361 1203.36 Q265.556 1199.8 261.921 1199.8 M261.921 1196.09 Q267.732 1196.09 270.787 1200.7 Q273.866 1205.28 273.866 1214.03 Q273.866 1222.76 270.787 1227.37 Q267.732 1231.95 261.921 1231.95 Q256.111 1231.95 253.033 1227.37 Q249.977 1222.76 249.977 1214.03 Q249.977 1205.28 253.033 1200.7 Q256.111 1196.09 261.921 1196.09 Z" fill="#000000" fill-rule="evenodd" fill-opacity="1" /><path clip-path="url(#clip660)" d="M127.2 1007.12 Q123.589 1007.12 121.76 1010.69 Q119.955 1014.23 119.955 1021.36 Q119.955 1028.46 121.76 1032.03 Q123.589 1035.57 127.2 1035.57 Q130.834 1035.57 132.64 1032.03 Q134.468 1028.46 134.468 1021.36 Q134.468 1014.23 132.64 1010.69 Q130.834 1007.12 127.2 1007.12 M127.2 1003.42 Q133.01 1003.42 136.066 1008.02 Q139.144 1012.61 139.144 1021.36 Q139.144 1030.08 136.066 1034.69 Q133.01 1039.27 127.2 1039.27 Q121.39 1039.27 118.311 1034.69 Q115.256 1030.08 115.256 1021.36 Q115.256 1012.61 118.311 1008.02 Q121.39 1003.42 127.2 1003.42 Z" fill="#000000" fill-rule="evenodd" fill-opacity="1" /><path clip-path="url(#clip660)" d="M147.362 1032.72 L152.246 1032.72 L152.246 1038.6 L147.362 1038.6 L147.362 1032.72 Z" fill="#000000" fill-rule="evenodd" fill-opacity="1" /><path clip-path="url(#clip660)" d="M175.278 1008.12 L163.473 1026.56 L175.278 1026.56 L175.278 1008.12 M174.052 1004.04 L179.931 1004.04 L179.931 1026.56 L184.862 1026.56 L184.862 1030.45 L179.931 1030.45 L179.931 1038.6 L175.278 1038.6 L175.278 1030.45 L159.677 1030.45 L159.677 1025.94 L174.052 1004.04 Z" fill="#000000" fill-rule="evenodd" fill-opacity="1" /><path clip-path="url(#clip660)" d="M191.413 1004.04 L213.635 1004.04 L213.635 1006.03 L201.088 1038.6 L196.204 1038.6 L208.01 1007.98 L191.413 1007.98 L191.413 1004.04 Z" fill="#000000" fill-rule="evenodd" fill-opacity="1" /><path clip-path="url(#clip660)" d="M235.602 1008.12 L223.797 1026.56 L235.602 1026.56 L235.602 1008.12 M234.375 1004.04 L240.255 1004.04 L240.255 1026.56 L245.185 1026.56 L245.185 1030.45 L240.255 1030.45 L240.255 1038.6 L235.602 1038.6 L235.602 1030.45 L220 1030.45 L220 1025.94 L234.375 1004.04 Z" fill="#000000" fill-rule="evenodd" fill-opacity="1" /><path clip-path="url(#clip660)" d="M252.963 1004.04 L271.32 1004.04 L271.32 1007.98 L257.246 1007.98 L257.246 1016.45 Q258.264 1016.1 259.283 1015.94 Q260.301 1015.75 261.32 1015.75 Q267.107 1015.75 270.486 1018.93 Q273.866 1022.1 273.866 1027.51 Q273.866 1033.09 270.394 1036.19 Q266.921 1039.27 260.602 1039.27 Q258.426 1039.27 256.158 1038.9 Q253.912 1038.53 251.505 1037.79 L251.505 1033.09 Q253.588 1034.23 255.81 1034.78 Q258.033 1035.34 260.509 1035.34 Q264.514 1035.34 266.852 1033.23 Q269.19 1031.12 269.19 1027.51 Q269.19 1023.9 266.852 1021.8 Q264.514 1019.69 260.509 1019.69 Q258.634 1019.69 256.759 1020.11 Q254.908 1020.52 252.963 1021.4 L252.963 1004.04 Z" fill="#000000" fill-rule="evenodd" fill-opacity="1" /><path clip-path="url(#clip660)" d="M126.205 814.445 Q122.593 814.445 120.765 818.01 Q118.959 821.551 118.959 828.681 Q118.959 835.787 120.765 839.352 Q122.593 842.894 126.205 842.894 Q129.839 842.894 131.644 839.352 Q133.473 835.787 133.473 828.681 Q133.473 821.551 131.644 818.01 Q129.839 814.445 126.205 814.445 M126.205 810.741 Q132.015 810.741 135.07 815.348 Q138.149 819.931 138.149 828.681 Q138.149 837.408 135.07 842.014 Q132.015 846.598 126.205 846.598 Q120.394 846.598 117.316 842.014 Q114.26 837.408 114.26 828.681 Q114.26 819.931 117.316 815.348 Q120.394 810.741 126.205 810.741 Z" fill="#000000" fill-rule="evenodd" fill-opacity="1" /><path clip-path="url(#clip660)" d="M146.366 840.047 L151.251 840.047 L151.251 845.926 L146.366 845.926 L146.366 840.047 Z" fill="#000000" fill-rule="evenodd" fill-opacity="1" /><path clip-path="url(#clip660)" d="M174.283 815.44 L162.477 833.889 L174.283 833.889 L174.283 815.44 M173.056 811.366 L178.936 811.366 L178.936 833.889 L183.866 833.889 L183.866 837.778 L178.936 837.778 L178.936 845.926 L174.283 845.926 L174.283 837.778 L158.681 837.778 L158.681 833.264 L173.056 811.366 Z" fill="#000000" fill-rule="evenodd" fill-opacity="1" /><path clip-path="url(#clip660)" d="M190.417 811.366 L212.639 811.366 L212.639 813.357 L200.093 845.926 L195.209 845.926 L207.014 815.301 L190.417 815.301 L190.417 811.366 Z" fill="#000000" fill-rule="evenodd" fill-opacity="1" /><path clip-path="url(#clip660)" d="M221.806 811.366 L240.162 811.366 L240.162 815.301 L226.088 815.301 L226.088 823.774 Q227.107 823.426 228.125 823.264 Q229.144 823.079 230.162 823.079 Q235.949 823.079 239.329 826.25 Q242.709 829.422 242.709 834.838 Q242.709 840.417 239.236 843.519 Q235.764 846.598 229.445 846.598 Q227.269 846.598 225 846.227 Q222.755 845.857 220.348 845.116 L220.348 840.417 Q222.431 841.551 224.653 842.107 Q226.875 842.662 229.352 842.662 Q233.357 842.662 235.695 840.556 Q238.033 838.449 238.033 834.838 Q238.033 831.227 235.695 829.121 Q233.357 827.014 229.352 827.014 Q227.477 827.014 225.602 827.431 Q223.75 827.848 221.806 828.727 L221.806 811.366 Z" fill="#000000" fill-rule="evenodd" fill-opacity="1" /><path clip-path="url(#clip660)" d="M261.921 814.445 Q258.31 814.445 256.482 818.01 Q254.676 821.551 254.676 828.681 Q254.676 835.787 256.482 839.352 Q258.31 842.894 261.921 842.894 Q265.556 842.894 267.361 839.352 Q269.19 835.787 269.19 828.681 Q269.19 821.551 267.361 818.01 Q265.556 814.445 261.921 814.445 M261.921 810.741 Q267.732 810.741 270.787 815.348 Q273.866 819.931 273.866 828.681 Q273.866 837.408 270.787 842.014 Q267.732 846.598 261.921 846.598 Q256.111 846.598 253.033 842.014 Q249.977 837.408 249.977 828.681 Q249.977 819.931 253.033 815.348 Q256.111 810.741 261.921 810.741 Z" fill="#000000" fill-rule="evenodd" fill-opacity="1" /><path clip-path="url(#clip660)" d="M127.2 621.769 Q123.589 621.769 121.76 625.334 Q119.955 628.876 119.955 636.005 Q119.955 643.112 121.76 646.677 Q123.589 650.218 127.2 650.218 Q130.834 650.218 132.64 646.677 Q134.468 643.112 134.468 636.005 Q134.468 628.876 132.64 625.334 Q130.834 621.769 127.2 621.769 M127.2 618.066 Q133.01 618.066 136.066 622.672 Q139.144 627.255 139.144 636.005 Q139.144 644.732 136.066 649.339 Q133.01 653.922 127.2 653.922 Q121.39 653.922 118.311 649.339 Q115.256 644.732 115.256 636.005 Q115.256 627.255 118.311 622.672 Q121.39 618.066 127.2 618.066 Z" fill="#000000" fill-rule="evenodd" fill-opacity="1" /><path clip-path="url(#clip660)" d="M147.362 647.371 L152.246 647.371 L152.246 653.251 L147.362 653.251 L147.362 647.371 Z" fill="#000000" fill-rule="evenodd" fill-opacity="1" /><path clip-path="url(#clip660)" d="M175.278 622.765 L163.473 641.214 L175.278 641.214 L175.278 622.765 M174.052 618.691 L179.931 618.691 L179.931 641.214 L184.862 641.214 L184.862 645.103 L179.931 645.103 L179.931 653.251 L175.278 653.251 L175.278 645.103 L159.677 645.103 L159.677 640.589 L174.052 618.691 Z" fill="#000000" fill-rule="evenodd" fill-opacity="1" /><path clip-path="url(#clip660)" d="M191.413 618.691 L213.635 618.691 L213.635 620.681 L201.088 653.251 L196.204 653.251 L208.01 622.626 L191.413 622.626 L191.413 618.691 Z" fill="#000000" fill-rule="evenodd" fill-opacity="1" /><path clip-path="url(#clip660)" d="M222.801 618.691 L241.158 618.691 L241.158 622.626 L227.084 622.626 L227.084 631.098 Q228.102 630.751 229.121 630.589 Q230.139 630.404 231.158 630.404 Q236.945 630.404 240.324 633.575 Q243.704 636.746 243.704 642.163 Q243.704 647.741 240.232 650.843 Q236.76 653.922 230.44 653.922 Q228.264 653.922 225.996 653.552 Q223.75 653.181 221.343 652.44 L221.343 647.741 Q223.426 648.876 225.648 649.431 Q227.871 649.987 230.347 649.987 Q234.352 649.987 236.69 647.88 Q239.028 645.774 239.028 642.163 Q239.028 638.552 236.69 636.445 Q234.352 634.339 230.347 634.339 Q228.473 634.339 226.598 634.755 Q224.746 635.172 222.801 636.052 L222.801 618.691 Z" fill="#000000" fill-rule="evenodd" fill-opacity="1" /><path clip-path="url(#clip660)" d="M252.963 618.691 L271.32 618.691 L271.32 622.626 L257.246 622.626 L257.246 631.098 Q258.264 630.751 259.283 630.589 Q260.301 630.404 261.32 630.404 Q267.107 630.404 270.486 633.575 Q273.866 636.746 273.866 642.163 Q273.866 647.741 270.394 650.843 Q266.921 653.922 260.602 653.922 Q258.426 653.922 256.158 653.552 Q253.912 653.181 251.505 652.44 L251.505 647.741 Q253.588 648.876 255.81 649.431 Q258.033 649.987 260.509 649.987 Q264.514 649.987 266.852 647.88 Q269.19 645.774 269.19 642.163 Q269.19 638.552 266.852 636.445 Q264.514 634.339 260.509 634.339 Q258.634 634.339 256.759 634.755 Q254.908 635.172 252.963 636.052 L252.963 618.691 Z" fill="#000000" fill-rule="evenodd" fill-opacity="1" /><path clip-path="url(#clip660)" d="M126.205 429.094 Q122.593 429.094 120.765 432.659 Q118.959 436.2 118.959 443.33 Q118.959 450.436 120.765 454.001 Q122.593 457.543 126.205 457.543 Q129.839 457.543 131.644 454.001 Q133.473 450.436 133.473 443.33 Q133.473 436.2 131.644 432.659 Q129.839 429.094 126.205 429.094 M126.205 425.39 Q132.015 425.39 135.07 429.997 Q138.149 434.58 138.149 443.33 Q138.149 452.057 135.07 456.663 Q132.015 461.246 126.205 461.246 Q120.394 461.246 117.316 456.663 Q114.26 452.057 114.26 443.33 Q114.26 434.58 117.316 429.997 Q120.394 425.39 126.205 425.39 Z" fill="#000000" fill-rule="evenodd" fill-opacity="1" /><path clip-path="url(#clip660)" d="M146.366 454.696 L151.251 454.696 L151.251 460.575 L146.366 460.575 L146.366 454.696 Z" fill="#000000" fill-rule="evenodd" fill-opacity="1" /><path clip-path="url(#clip660)" d="M174.283 430.089 L162.477 448.538 L174.283 448.538 L174.283 430.089 M173.056 426.015 L178.936 426.015 L178.936 448.538 L183.866 448.538 L183.866 452.427 L178.936 452.427 L178.936 460.575 L174.283 460.575 L174.283 452.427 L158.681 452.427 L158.681 447.913 L173.056 426.015 Z" fill="#000000" fill-rule="evenodd" fill-opacity="1" /><path clip-path="url(#clip660)" d="M190.417 426.015 L212.639 426.015 L212.639 428.006 L200.093 460.575 L195.209 460.575 L207.014 429.95 L190.417 429.95 L190.417 426.015 Z" fill="#000000" fill-rule="evenodd" fill-opacity="1" /><path clip-path="url(#clip660)" d="M232.338 441.432 Q229.19 441.432 227.338 443.584 Q225.51 445.737 225.51 449.487 Q225.51 453.214 227.338 455.39 Q229.19 457.543 232.338 457.543 Q235.486 457.543 237.315 455.39 Q239.167 453.214 239.167 449.487 Q239.167 445.737 237.315 443.584 Q235.486 441.432 232.338 441.432 M241.621 426.779 L241.621 431.038 Q239.861 430.205 238.056 429.765 Q236.273 429.325 234.514 429.325 Q229.885 429.325 227.431 432.45 Q225 435.575 224.653 441.895 Q226.019 439.881 228.079 438.816 Q230.139 437.728 232.616 437.728 Q237.824 437.728 240.834 440.899 Q243.866 444.047 243.866 449.487 Q243.866 454.811 240.718 458.029 Q237.57 461.246 232.338 461.246 Q226.343 461.246 223.172 456.663 Q220 452.057 220 443.33 Q220 435.135 223.889 430.274 Q227.778 425.39 234.329 425.39 Q236.088 425.39 237.871 425.737 Q239.676 426.085 241.621 426.779 Z" fill="#000000" fill-rule="evenodd" fill-opacity="1" /><path clip-path="url(#clip660)" d="M261.921 429.094 Q258.31 429.094 256.482 432.659 Q254.676 436.2 254.676 443.33 Q254.676 450.436 256.482 454.001 Q258.31 457.543 261.921 457.543 Q265.556 457.543 267.361 454.001 Q269.19 450.436 269.19 443.33 Q269.19 436.2 267.361 432.659 Q265.556 429.094 261.921 429.094 M261.921 425.39 Q267.732 425.39 270.787 429.997 Q273.866 434.58 273.866 443.33 Q273.866 452.057 270.787 456.663 Q267.732 461.246 261.921 461.246 Q256.111 461.246 253.033 456.663 Q249.977 452.057 249.977 443.33 Q249.977 434.58 253.033 429.997 Q256.111 425.39 261.921 425.39 Z" fill="#000000" fill-rule="evenodd" fill-opacity="1" /><path clip-path="url(#clip660)" d="M127.2 236.418 Q123.589 236.418 121.76 239.983 Q119.955 243.525 119.955 250.654 Q119.955 257.761 121.76 261.325 Q123.589 264.867 127.2 264.867 Q130.834 264.867 132.64 261.325 Q134.468 257.761 134.468 250.654 Q134.468 243.525 132.64 239.983 Q130.834 236.418 127.2 236.418 M127.2 232.715 Q133.01 232.715 136.066 237.321 Q139.144 241.904 139.144 250.654 Q139.144 259.381 136.066 263.988 Q133.01 268.571 127.2 268.571 Q121.39 268.571 118.311 263.988 Q115.256 259.381 115.256 250.654 Q115.256 241.904 118.311 237.321 Q121.39 232.715 127.2 232.715 Z" fill="#000000" fill-rule="evenodd" fill-opacity="1" /><path clip-path="url(#clip660)" d="M147.362 262.02 L152.246 262.02 L152.246 267.9 L147.362 267.9 L147.362 262.02 Z" fill="#000000" fill-rule="evenodd" fill-opacity="1" /><path clip-path="url(#clip660)" d="M175.278 237.414 L163.473 255.863 L175.278 255.863 L175.278 237.414 M174.052 233.34 L179.931 233.34 L179.931 255.863 L184.862 255.863 L184.862 259.751 L179.931 259.751 L179.931 267.9 L175.278 267.9 L175.278 259.751 L159.677 259.751 L159.677 255.238 L174.052 233.34 Z" fill="#000000" fill-rule="evenodd" fill-opacity="1" /><path clip-path="url(#clip660)" d="M191.413 233.34 L213.635 233.34 L213.635 235.33 L201.088 267.9 L196.204 267.9 L208.01 237.275 L191.413 237.275 L191.413 233.34 Z" fill="#000000" fill-rule="evenodd" fill-opacity="1" /><path clip-path="url(#clip660)" d="M233.334 248.756 Q230.185 248.756 228.334 250.909 Q226.505 253.062 226.505 256.812 Q226.505 260.538 228.334 262.714 Q230.185 264.867 233.334 264.867 Q236.482 264.867 238.31 262.714 Q240.162 260.538 240.162 256.812 Q240.162 253.062 238.31 250.909 Q236.482 248.756 233.334 248.756 M242.616 234.103 L242.616 238.363 Q240.857 237.529 239.051 237.09 Q237.269 236.65 235.51 236.65 Q230.88 236.65 228.426 239.775 Q225.996 242.9 225.648 249.219 Q227.014 247.205 229.074 246.14 Q231.135 245.052 233.611 245.052 Q238.82 245.052 241.829 248.224 Q244.861 251.372 244.861 256.812 Q244.861 262.136 241.713 265.353 Q238.565 268.571 233.334 268.571 Q227.338 268.571 224.167 263.988 Q220.996 259.381 220.996 250.654 Q220.996 242.46 224.885 237.599 Q228.773 232.715 235.324 232.715 Q237.084 232.715 238.866 233.062 Q240.672 233.409 242.616 234.103 Z" fill="#000000" fill-rule="evenodd" fill-opacity="1" /><path clip-path="url(#clip660)" d="M252.963 233.34 L271.32 233.34 L271.32 237.275 L257.246 237.275 L257.246 245.747 Q258.264 245.4 259.283 245.238 Q260.301 245.052 261.32 245.052 Q267.107 245.052 270.486 248.224 Q273.866 251.395 273.866 256.812 Q273.866 262.39 270.394 265.492 Q266.921 268.571 260.602 268.571 Q258.426 268.571 256.158 268.2 Q253.912 267.83 251.505 267.089 L251.505 262.39 Q253.588 263.525 255.81 264.08 Q258.033 264.636 260.509 264.636 Q264.514 264.636 266.852 262.529 Q269.19 260.423 269.19 256.812 Q269.19 253.201 266.852 251.094 Q264.514 248.988 260.509 248.988 Q258.634 248.988 256.759 249.404 Q254.908 249.821 252.963 250.701 L252.963 233.34 Z" fill="#000000" fill-rule="evenodd" fill-opacity="1" /><path clip-path="url(#clip660)" d="M16.4842 987.834 L16.4842 981.405 L64.0042 981.405 L64.0042 987.834 L16.4842 987.834 Z" fill="#000000" fill-rule="evenodd" fill-opacity="1" /><path clip-path="url(#clip660)" d="M42.4881 939.232 L64.0042 939.232 L64.0042 945.089 L42.679 945.089 Q37.6183 945.089 35.1038 947.062 Q32.5894 949.035 32.5894 952.982 Q32.5894 957.725 35.6131 960.462 Q38.6368 963.199 43.8567 963.199 L64.0042 963.199 L64.0042 969.087 L28.3562 969.087 L28.3562 963.199 L33.8944 963.199 Q30.6797 961.098 29.0883 958.266 Q27.4968 955.401 27.4968 951.677 Q27.4968 945.534 31.3163 942.383 Q35.1038 939.232 42.4881 939.232 Z" fill="#000000" fill-rule="evenodd" fill-opacity="1" /><path clip-path="url(#clip660)" d="M42.4881 897.919 L64.0042 897.919 L64.0042 903.775 L42.679 903.775 Q37.6183 903.775 35.1038 905.749 Q32.5894 907.722 32.5894 911.669 Q32.5894 916.411 35.6131 919.148 Q38.6368 921.886 43.8567 921.886 L64.0042 921.886 L64.0042 927.774 L28.3562 927.774 L28.3562 921.886 L33.8944 921.886 Q30.6797 919.785 29.0883 916.952 Q27.4968 914.088 27.4968 910.364 Q27.4968 904.221 31.3163 901.07 Q35.1038 897.919 42.4881 897.919 Z" fill="#000000" fill-rule="evenodd" fill-opacity="1" /><path clip-path="url(#clip660)" d="M44.7161 855.746 L47.5806 855.746 L47.5806 882.673 Q53.6281 882.291 56.8109 879.044 Q59.9619 875.766 59.9619 869.941 Q59.9619 866.568 59.1344 863.417 Q58.3069 860.234 56.6518 857.115 L62.1899 857.115 Q63.5267 860.266 64.227 863.576 Q64.9272 866.886 64.9272 870.292 Q64.9272 878.822 59.9619 883.819 Q54.9967 888.784 46.5303 888.784 Q37.7774 888.784 32.6531 884.073 Q27.4968 879.331 27.4968 871.31 Q27.4968 864.117 32.1438 859.947 Q36.7589 855.746 44.7161 855.746 M42.9973 861.602 Q38.1912 861.666 35.3266 864.308 Q32.4621 866.918 32.4621 871.246 Q32.4621 876.148 35.2312 879.108 Q38.0002 882.036 43.0292 882.482 L42.9973 861.602 Z" fill="#000000" fill-rule="evenodd" fill-opacity="1" /><path clip-path="url(#clip660)" d="M33.8307 825.477 Q33.2578 826.464 33.0032 827.641 Q32.7167 828.787 32.7167 830.188 Q32.7167 835.153 35.9632 837.827 Q39.1779 840.468 45.2253 840.468 L64.0042 840.468 L64.0042 846.357 L28.3562 846.357 L28.3562 840.468 L33.8944 840.468 Q30.6479 838.622 29.0883 835.662 Q27.4968 832.702 27.4968 828.469 Q27.4968 827.864 27.5923 827.132 Q27.656 826.4 27.8151 825.509 L33.8307 825.477 Z" fill="#000000" fill-rule="evenodd" fill-opacity="1" /><path clip-path="url(#clip660)" d="M21.7677 791.93 L39.6235 791.93 L39.6235 783.845 Q39.6235 779.357 37.3 776.907 Q34.9765 774.456 30.6797 774.456 Q26.4147 774.456 24.0912 776.907 Q21.7677 779.357 21.7677 783.845 L21.7677 791.93 M16.4842 798.359 L16.4842 783.845 Q16.4842 775.856 20.1126 771.782 Q23.7092 767.676 30.6797 767.676 Q37.7138 767.676 41.3104 771.782 Q44.907 775.856 44.907 783.845 L44.907 791.93 L64.0042 791.93 L64.0042 798.359 L16.4842 798.359 Z" fill="#000000" fill-rule="evenodd" fill-opacity="1" /><path clip-path="url(#clip660)" d="M33.8307 739.795 Q33.2578 740.781 33.0032 741.959 Q32.7167 743.105 32.7167 744.505 Q32.7167 749.47 35.9632 752.144 Q39.1779 754.786 45.2253 754.786 L64.0042 754.786 L64.0042 760.674 L28.3562 760.674 L28.3562 754.786 L33.8944 754.786 Q30.6479 752.94 29.0883 749.98 Q27.4968 747.02 27.4968 742.787 Q27.4968 742.182 27.5923 741.45 Q27.656 740.718 27.8151 739.826 L33.8307 739.795 Z" fill="#000000" fill-rule="evenodd" fill-opacity="1" /><path clip-path="url(#clip660)" d="M32.4621 721.27 Q32.4621 725.981 36.1542 728.718 Q39.8145 731.456 46.212 731.456 Q52.6095 731.456 56.3017 728.75 Q59.9619 726.013 59.9619 721.27 Q59.9619 716.592 56.2698 713.854 Q52.5777 711.117 46.212 711.117 Q39.8781 711.117 36.186 713.854 Q32.4621 716.592 32.4621 721.27 M27.4968 721.27 Q27.4968 713.632 32.4621 709.271 Q37.4273 704.911 46.212 704.911 Q54.9649 704.911 59.9619 709.271 Q64.9272 713.632 64.9272 721.27 Q64.9272 728.941 59.9619 733.302 Q54.9649 737.63 46.212 737.63 Q37.4273 737.63 32.4621 733.302 Q27.4968 728.941 27.4968 721.27 Z" fill="#000000" fill-rule="evenodd" fill-opacity="1" /><path clip-path="url(#clip660)" d="M33.7671 671.745 L14.479 671.745 L14.479 665.889 L64.0042 665.889 L64.0042 671.745 L58.657 671.745 Q61.8398 673.591 63.3994 676.424 Q64.9272 679.225 64.9272 683.172 Q64.9272 689.633 59.771 693.707 Q54.6147 697.749 46.212 697.749 Q37.8093 697.749 32.6531 693.707 Q27.4968 689.633 27.4968 683.172 Q27.4968 679.225 29.0564 676.424 Q30.5842 673.591 33.7671 671.745 M46.212 691.702 Q52.6732 691.702 56.3653 689.06 Q60.0256 686.386 60.0256 681.739 Q60.0256 677.092 56.3653 674.419 Q52.6732 671.745 46.212 671.745 Q39.7508 671.745 36.0905 674.419 Q32.3984 677.092 32.3984 681.739 Q32.3984 686.386 36.0905 689.06 Q39.7508 691.702 46.212 691.702 Z" fill="#000000" fill-rule="evenodd" fill-opacity="1" /><path clip-path="url(#clip660)" d="M49.9359 654.43 L28.3562 654.43 L28.3562 648.574 L49.7131 648.574 Q54.7739 648.574 57.3202 646.601 Q59.8346 644.627 59.8346 640.681 Q59.8346 635.938 56.8109 633.201 Q53.7872 630.432 48.5673 630.432 L28.3562 630.432 L28.3562 624.575 L64.0042 624.575 L64.0042 630.432 L58.5296 630.432 Q61.7762 632.564 63.3676 635.397 Q64.9272 638.198 64.9272 641.922 Q64.9272 648.065 61.1078 651.248 Q57.2883 654.43 49.9359 654.43 M27.4968 639.694 L27.4968 639.694 Z" fill="#000000" fill-rule="evenodd" fill-opacity="1" /><path clip-path="url(#clip660)" d="M29.7248 586.859 L35.1993 586.859 Q33.8307 589.341 33.1623 591.856 Q32.4621 594.338 32.4621 596.885 Q32.4621 602.582 36.0905 605.733 Q39.6872 608.884 46.212 608.884 Q52.7369 608.884 56.3653 605.733 Q59.9619 602.582 59.9619 596.885 Q59.9619 594.338 59.2935 591.856 Q58.5933 589.341 57.2247 586.859 L62.6355 586.859 Q63.7814 589.309 64.3543 591.951 Q64.9272 594.561 64.9272 597.521 Q64.9272 605.574 59.8664 610.316 Q54.8057 615.059 46.212 615.059 Q37.491 615.059 32.4939 610.284 Q27.4968 605.478 27.4968 597.139 Q27.4968 594.434 28.0697 591.856 Q28.6108 589.277 29.7248 586.859 Z" fill="#000000" fill-rule="evenodd" fill-opacity="1" /><path clip-path="url(#clip660)" d="M18.2347 570.881 L28.3562 570.881 L28.3562 558.818 L32.9077 558.818 L32.9077 570.881 L52.2594 570.881 Q56.6199 570.881 57.8613 569.703 Q59.1026 568.493 59.1026 564.833 L59.1026 558.818 L64.0042 558.818 L64.0042 564.833 Q64.0042 571.613 61.4897 574.191 Q58.9434 576.769 52.2594 576.769 L32.9077 576.769 L32.9077 581.066 L28.3562 581.066 L28.3562 576.769 L18.2347 576.769 L18.2347 570.881 Z" fill="#000000" fill-rule="evenodd" fill-opacity="1" /><path clip-path="url(#clip660)" d="M1200.89 17.6457 Q1191.98 17.6457 1186.71 24.2892 Q1181.49 30.9327 1181.49 42.3968 Q1181.49 53.8203 1186.71 60.4638 Q1191.98 67.1073 1200.89 67.1073 Q1209.8 67.1073 1214.99 60.4638 Q1220.21 53.8203 1220.21 42.3968 Q1220.21 30.9327 1214.99 24.2892 Q1209.8 17.6457 1200.89 17.6457 M1200.89 11.0023 Q1213.61 11.0023 1221.23 19.5497 Q1228.84 28.0566 1228.84 42.3968 Q1228.84 56.6965 1221.23 65.2439 Q1213.61 73.7508 1200.89 73.7508 Q1188.13 73.7508 1180.48 65.2439 Q1172.86 56.737 1172.86 42.3968 Q1172.86 28.0566 1180.48 19.5497 Q1188.13 11.0023 1200.89 11.0023 Z" fill="#000000" fill-rule="evenodd" fill-opacity="1" /><path clip-path="url(#clip660)" d="M1235.97 27.2059 L1243.87 27.2059 L1258.05 65.2844 L1272.23 27.2059 L1280.13 27.2059 L1263.11 72.576 L1252.99 72.576 L1235.97 27.2059 Z" fill="#000000" fill-rule="evenodd" fill-opacity="1" /><path clip-path="url(#clip660)" d="M1329.22 48.0275 L1329.22 51.6733 L1294.95 51.6733 Q1295.44 59.3701 1299.57 63.421 Q1303.74 67.4314 1311.16 67.4314 Q1315.45 67.4314 1319.46 66.3781 Q1323.51 65.3249 1327.48 63.2184 L1327.48 70.267 Q1323.47 71.9684 1319.26 72.8596 Q1315.05 73.7508 1310.71 73.7508 Q1299.86 73.7508 1293.5 67.4314 Q1287.18 61.1119 1287.18 50.3365 Q1287.18 39.1965 1293.17 32.6746 Q1299.21 26.1121 1309.42 26.1121 Q1318.57 26.1121 1323.88 32.0264 Q1329.22 37.9003 1329.22 48.0275 M1321.77 45.84 Q1321.69 39.7232 1318.33 36.0774 Q1315.01 32.4315 1309.5 32.4315 Q1303.26 32.4315 1299.49 35.9558 Q1295.76 39.4801 1295.2 45.8805 L1321.77 45.84 Z" fill="#000000" fill-rule="evenodd" fill-opacity="1" /><path clip-path="url(#clip660)" d="M1367.75 34.1734 Q1366.49 33.4443 1364.99 33.1202 Q1363.54 32.7556 1361.75 32.7556 Q1355.43 32.7556 1352.03 36.8875 Q1348.67 40.9789 1348.67 48.6757 L1348.67 72.576 L1341.17 72.576 L1341.17 27.2059 L1348.67 27.2059 L1348.67 34.2544 Q1351.02 30.1225 1354.79 28.1376 Q1358.55 26.1121 1363.94 26.1121 Q1364.71 26.1121 1365.64 26.2337 Q1366.57 26.3147 1367.71 26.5172 L1367.75 34.1734 Z" fill="#000000" fill-rule="evenodd" fill-opacity="1" /><path clip-path="url(#clip660)" d="M1375.57 9.54393 L1383.02 9.54393 L1383.02 72.576 L1375.57 72.576 L1375.57 9.54393 Z" fill="#000000" fill-rule="evenodd" fill-opacity="1" /><path clip-path="url(#clip660)" d="M1419.24 49.7694 Q1410.2 49.7694 1406.72 51.8354 Q1403.23 53.9013 1403.23 58.8839 Q1403.23 62.8538 1405.83 65.2034 Q1408.46 67.5124 1412.96 67.5124 Q1419.15 67.5124 1422.88 63.1374 Q1426.65 58.7219 1426.65 51.4303 L1426.65 49.7694 L1419.24 49.7694 M1434.1 46.6907 L1434.1 72.576 L1426.65 72.576 L1426.65 65.6895 Q1424.1 69.8214 1420.29 71.8063 Q1416.48 73.7508 1410.97 73.7508 Q1404 73.7508 1399.87 69.8619 Q1395.78 65.9325 1395.78 59.3701 Q1395.78 51.7138 1400.89 47.825 Q1406.03 43.9361 1416.2 43.9361 L1426.65 43.9361 L1426.65 43.2069 Q1426.65 38.0623 1423.25 35.2672 Q1419.88 32.4315 1413.77 32.4315 Q1409.88 32.4315 1406.19 33.3632 Q1402.51 34.295 1399.1 36.1584 L1399.1 29.2718 Q1403.19 27.692 1407.04 26.9223 Q1410.89 26.1121 1414.54 26.1121 Q1424.38 26.1121 1429.24 31.2163 Q1434.1 36.3204 1434.1 46.6907 Z" fill="#000000" fill-rule="evenodd" fill-opacity="1" /><path clip-path="url(#clip660)" d="M1456.67 65.7705 L1456.67 89.8329 L1449.17 89.8329 L1449.17 27.2059 L1456.67 27.2059 L1456.67 34.0924 Q1459.02 30.0415 1462.58 28.0971 Q1466.19 26.1121 1471.17 26.1121 Q1479.43 26.1121 1484.58 32.6746 Q1489.76 39.2371 1489.76 49.9314 Q1489.76 60.6258 1484.58 67.1883 Q1479.43 73.7508 1471.17 73.7508 Q1466.19 73.7508 1462.58 71.8063 Q1459.02 69.8214 1456.67 65.7705 M1482.02 49.9314 Q1482.02 41.7081 1478.62 37.0496 Q1475.26 32.3505 1469.35 32.3505 Q1463.43 32.3505 1460.03 37.0496 Q1456.67 41.7081 1456.67 49.9314 Q1456.67 58.1548 1460.03 62.8538 Q1463.43 67.5124 1469.35 67.5124 Q1475.26 67.5124 1478.62 62.8538 Q1482.02 58.1548 1482.02 49.9314 Z" fill="#000000" fill-rule="evenodd" fill-opacity="1" /><polyline clip-path="url(#clip662)" style="stroke:#000000; stroke-linecap:round; stroke-linejoin:round; stroke-width:4; stroke-opacity:1; fill:none" points="
  367.683,160.268 367.683,160.256 
  "/>
<polyline clip-path="url(#clip662)" style="stroke:#000000; stroke-linecap:round; stroke-linejoin:round; stroke-width:4; stroke-opacity:1; fill:none" points="
  407.835,1197.75 407.835,1197.74 
  "/>
<polyline clip-path="url(#clip662)" style="stroke:#000000; stroke-linecap:round; stroke-linejoin:round; stroke-width:4; stroke-opacity:1; fill:none" points="
  447.986,1351.41 447.986,1351.37 
  "/>
<polyline clip-path="url(#clip662)" style="stroke:#000000; stroke-linecap:round; stroke-linejoin:round; stroke-width:4; stroke-opacity:1; fill:none" points="
  488.137,1378.27 488.137,1377.17 
  "/>
<polyline clip-path="url(#clip662)" style="stroke:#000000; stroke-linecap:round; stroke-linejoin:round; stroke-width:4; stroke-opacity:1; fill:none" points="
  528.288,1383.79 528.288,1381.61 
  "/>
<polyline clip-path="url(#clip662)" style="stroke:#000000; stroke-linecap:round; stroke-linejoin:round; stroke-width:4; stroke-opacity:1; fill:none" points="
  568.439,1385.23 568.439,1382.17 
  "/>
<polyline clip-path="url(#clip662)" style="stroke:#000000; stroke-linecap:round; stroke-linejoin:round; stroke-width:4; stroke-opacity:1; fill:none" points="
  608.59,1385.48 608.59,1382.34 
  "/>
<polyline clip-path="url(#clip662)" style="stroke:#000000; stroke-linecap:round; stroke-linejoin:round; stroke-width:4; stroke-opacity:1; fill:none" points="
  648.741,1385.55 648.741,1382.36 
  "/>
<polyline clip-path="url(#clip662)" style="stroke:#000000; stroke-linecap:round; stroke-linejoin:round; stroke-width:4; stroke-opacity:1; fill:none" points="
  688.893,1385.61 688.893,1382.32 
  "/>
<polyline clip-path="url(#clip662)" style="stroke:#000000; stroke-linecap:round; stroke-linejoin:round; stroke-width:4; stroke-opacity:1; fill:none" points="
  729.044,1385.89 729.044,1382.05 
  "/>
<polyline clip-path="url(#clip662)" style="stroke:#000000; stroke-linecap:round; stroke-linejoin:round; stroke-width:4; stroke-opacity:1; fill:none" points="
  769.195,1385.94 769.195,1382 
  "/>
<polyline clip-path="url(#clip662)" style="stroke:#000000; stroke-linecap:round; stroke-linejoin:round; stroke-width:4; stroke-opacity:1; fill:none" points="
  809.346,1385.98 809.346,1381.96 
  "/>
<polyline clip-path="url(#clip662)" style="stroke:#000000; stroke-linecap:round; stroke-linejoin:round; stroke-width:4; stroke-opacity:1; fill:none" points="
  849.497,1386.03 849.497,1381.91 
  "/>
<polyline clip-path="url(#clip662)" style="stroke:#000000; stroke-linecap:round; stroke-linejoin:round; stroke-width:4; stroke-opacity:1; fill:none" points="
  889.648,1386.07 889.648,1381.87 
  "/>
<polyline clip-path="url(#clip662)" style="stroke:#000000; stroke-linecap:round; stroke-linejoin:round; stroke-width:4; stroke-opacity:1; fill:none" points="
  929.799,1386.1 929.799,1381.83 
  "/>
<polyline clip-path="url(#clip662)" style="stroke:#000000; stroke-linecap:round; stroke-linejoin:round; stroke-width:4; stroke-opacity:1; fill:none" points="
  969.951,1386.14 969.951,1381.8 
  "/>
<polyline clip-path="url(#clip662)" style="stroke:#000000; stroke-linecap:round; stroke-linejoin:round; stroke-width:4; stroke-opacity:1; fill:none" points="
  1010.1,1386.16 1010.1,1381.77 
  "/>
<polyline clip-path="url(#clip662)" style="stroke:#000000; stroke-linecap:round; stroke-linejoin:round; stroke-width:4; stroke-opacity:1; fill:none" points="
  1050.25,1386.18 1050.25,1381.75 
  "/>
<polyline clip-path="url(#clip662)" style="stroke:#000000; stroke-linecap:round; stroke-linejoin:round; stroke-width:4; stroke-opacity:1; fill:none" points="
  1090.4,1386.21 1090.4,1381.73 
  "/>
<polyline clip-path="url(#clip662)" style="stroke:#000000; stroke-linecap:round; stroke-linejoin:round; stroke-width:4; stroke-opacity:1; fill:none" points="
  1130.56,1386.21 1130.56,1381.72 
  "/>
<polyline clip-path="url(#clip662)" style="stroke:#000000; stroke-linecap:round; stroke-linejoin:round; stroke-width:4; stroke-opacity:1; fill:none" points="
  1170.71,1386.24 1170.71,1381.7 
  "/>
<polyline clip-path="url(#clip662)" style="stroke:#000000; stroke-linecap:round; stroke-linejoin:round; stroke-width:4; stroke-opacity:1; fill:none" points="
  1210.86,1386.26 1210.86,1381.68 
  "/>
<polyline clip-path="url(#clip662)" style="stroke:#000000; stroke-linecap:round; stroke-linejoin:round; stroke-width:4; stroke-opacity:1; fill:none" points="
  1251.01,1386.26 1251.01,1381.68 
  "/>
<polyline clip-path="url(#clip662)" style="stroke:#000000; stroke-linecap:round; stroke-linejoin:round; stroke-width:4; stroke-opacity:1; fill:none" points="
  1291.16,1386.28 1291.16,1381.66 
  "/>
<polyline clip-path="url(#clip662)" style="stroke:#000000; stroke-linecap:round; stroke-linejoin:round; stroke-width:4; stroke-opacity:1; fill:none" points="
  1331.31,1386.28 1331.31,1381.66 
  "/>
<polyline clip-path="url(#clip662)" style="stroke:#000000; stroke-linecap:round; stroke-linejoin:round; stroke-width:4; stroke-opacity:1; fill:none" points="
  1371.46,1386.29 1371.46,1381.65 
  "/>
<polyline clip-path="url(#clip662)" style="stroke:#000000; stroke-linecap:round; stroke-linejoin:round; stroke-width:4; stroke-opacity:1; fill:none" points="
  1411.61,1386.3 1411.61,1381.64 
  "/>
<polyline clip-path="url(#clip662)" style="stroke:#000000; stroke-linecap:round; stroke-linejoin:round; stroke-width:4; stroke-opacity:1; fill:none" points="
  1451.76,1386.31 1451.76,1381.63 
  "/>
<polyline clip-path="url(#clip662)" style="stroke:#000000; stroke-linecap:round; stroke-linejoin:round; stroke-width:4; stroke-opacity:1; fill:none" points="
  1491.92,1386.31 1491.92,1381.63 
  "/>
<polyline clip-path="url(#clip662)" style="stroke:#000000; stroke-linecap:round; stroke-linejoin:round; stroke-width:4; stroke-opacity:1; fill:none" points="
  1532.07,1386.31 1532.07,1381.63 
  "/>
<polyline clip-path="url(#clip662)" style="stroke:#000000; stroke-linecap:round; stroke-linejoin:round; stroke-width:4; stroke-opacity:1; fill:none" points="
  1572.22,1386.33 1572.22,1381.61 
  "/>
<polyline clip-path="url(#clip662)" style="stroke:#000000; stroke-linecap:round; stroke-linejoin:round; stroke-width:4; stroke-opacity:1; fill:none" points="
  1612.37,1386.33 1612.37,1381.61 
  "/>
<polyline clip-path="url(#clip662)" style="stroke:#000000; stroke-linecap:round; stroke-linejoin:round; stroke-width:4; stroke-opacity:1; fill:none" points="
  1652.52,1386.34 1652.52,1381.6 
  "/>
<polyline clip-path="url(#clip662)" style="stroke:#000000; stroke-linecap:round; stroke-linejoin:round; stroke-width:4; stroke-opacity:1; fill:none" points="
  1692.67,1386.33 1692.67,1381.6 
  "/>
<polyline clip-path="url(#clip662)" style="stroke:#000000; stroke-linecap:round; stroke-linejoin:round; stroke-width:4; stroke-opacity:1; fill:none" points="
  1732.82,1386.35 1732.82,1381.59 
  "/>
<polyline clip-path="url(#clip662)" style="stroke:#000000; stroke-linecap:round; stroke-linejoin:round; stroke-width:4; stroke-opacity:1; fill:none" points="
  1772.97,1386.34 1772.97,1381.6 
  "/>
<polyline clip-path="url(#clip662)" style="stroke:#000000; stroke-linecap:round; stroke-linejoin:round; stroke-width:4; stroke-opacity:1; fill:none" points="
  1813.12,1386.36 1813.12,1381.58 
  "/>
<polyline clip-path="url(#clip662)" style="stroke:#000000; stroke-linecap:round; stroke-linejoin:round; stroke-width:4; stroke-opacity:1; fill:none" points="
  1853.28,1386.34 1853.28,1381.6 
  "/>
<polyline clip-path="url(#clip662)" style="stroke:#000000; stroke-linecap:round; stroke-linejoin:round; stroke-width:4; stroke-opacity:1; fill:none" points="
  1893.43,1386.36 1893.43,1381.58 
  "/>
<polyline clip-path="url(#clip662)" style="stroke:#000000; stroke-linecap:round; stroke-linejoin:round; stroke-width:4; stroke-opacity:1; fill:none" points="
  1933.58,1386.35 1933.58,1381.58 
  "/>
<polyline clip-path="url(#clip662)" style="stroke:#000000; stroke-linecap:round; stroke-linejoin:round; stroke-width:4; stroke-opacity:1; fill:none" points="
  1973.73,1386.36 1973.73,1381.58 
  "/>
<polyline clip-path="url(#clip662)" style="stroke:#000000; stroke-linecap:round; stroke-linejoin:round; stroke-width:4; stroke-opacity:1; fill:none" points="
  2013.88,1386.36 2013.88,1381.57 
  "/>
<polyline clip-path="url(#clip662)" style="stroke:#000000; stroke-linecap:round; stroke-linejoin:round; stroke-width:4; stroke-opacity:1; fill:none" points="
  2054.03,1386.36 2054.03,1381.58 
  "/>
<polyline clip-path="url(#clip662)" style="stroke:#000000; stroke-linecap:round; stroke-linejoin:round; stroke-width:4; stroke-opacity:1; fill:none" points="
  2094.18,1386.37 2094.18,1381.57 
  "/>
<polyline clip-path="url(#clip662)" style="stroke:#000000; stroke-linecap:round; stroke-linejoin:round; stroke-width:4; stroke-opacity:1; fill:none" points="
  2134.33,1386.37 2134.33,1381.57 
  "/>
<polyline clip-path="url(#clip662)" style="stroke:#000000; stroke-linecap:round; stroke-linejoin:round; stroke-width:4; stroke-opacity:1; fill:none" points="
  2174.48,1386.38 2174.48,1381.56 
  "/>
<polyline clip-path="url(#clip662)" style="stroke:#000000; stroke-linecap:round; stroke-linejoin:round; stroke-width:4; stroke-opacity:1; fill:none" points="
  2214.64,1386.4 2214.64,1381.54 
  "/>
<polyline clip-path="url(#clip662)" style="stroke:#000000; stroke-linecap:round; stroke-linejoin:round; stroke-width:4; stroke-opacity:1; fill:none" points="
  2254.79,1386.37 2254.79,1381.57 
  "/>
<polyline clip-path="url(#clip662)" style="stroke:#000000; stroke-linecap:round; stroke-linejoin:round; stroke-width:4; stroke-opacity:1; fill:none" points="
  2294.94,1386.37 2294.94,1381.57 
  "/>
<line clip-path="url(#clip662)" x1="375.683" y1="160.268" x2="359.683" y2="160.268" style="stroke:#000000; stroke-width:3.2; stroke-opacity:1"/>
<line clip-path="url(#clip662)" x1="375.683" y1="160.256" x2="359.683" y2="160.256" style="stroke:#000000; stroke-width:3.2; stroke-opacity:1"/>
<line clip-path="url(#clip662)" x1="415.835" y1="1197.75" x2="399.835" y2="1197.75" style="stroke:#000000; stroke-width:3.2; stroke-opacity:1"/>
<line clip-path="url(#clip662)" x1="415.835" y1="1197.74" x2="399.835" y2="1197.74" style="stroke:#000000; stroke-width:3.2; stroke-opacity:1"/>
<line clip-path="url(#clip662)" x1="455.986" y1="1351.41" x2="439.986" y2="1351.41" style="stroke:#000000; stroke-width:3.2; stroke-opacity:1"/>
<line clip-path="url(#clip662)" x1="455.986" y1="1351.37" x2="439.986" y2="1351.37" style="stroke:#000000; stroke-width:3.2; stroke-opacity:1"/>
<line clip-path="url(#clip662)" x1="496.137" y1="1378.27" x2="480.137" y2="1378.27" style="stroke:#000000; stroke-width:3.2; stroke-opacity:1"/>
<line clip-path="url(#clip662)" x1="496.137" y1="1377.17" x2="480.137" y2="1377.17" style="stroke:#000000; stroke-width:3.2; stroke-opacity:1"/>
<line clip-path="url(#clip662)" x1="536.288" y1="1383.79" x2="520.288" y2="1383.79" style="stroke:#000000; stroke-width:3.2; stroke-opacity:1"/>
<line clip-path="url(#clip662)" x1="536.288" y1="1381.61" x2="520.288" y2="1381.61" style="stroke:#000000; stroke-width:3.2; stroke-opacity:1"/>
<line clip-path="url(#clip662)" x1="576.439" y1="1385.23" x2="560.439" y2="1385.23" style="stroke:#000000; stroke-width:3.2; stroke-opacity:1"/>
<line clip-path="url(#clip662)" x1="576.439" y1="1382.17" x2="560.439" y2="1382.17" style="stroke:#000000; stroke-width:3.2; stroke-opacity:1"/>
<line clip-path="url(#clip662)" x1="616.59" y1="1385.48" x2="600.59" y2="1385.48" style="stroke:#000000; stroke-width:3.2; stroke-opacity:1"/>
<line clip-path="url(#clip662)" x1="616.59" y1="1382.34" x2="600.59" y2="1382.34" style="stroke:#000000; stroke-width:3.2; stroke-opacity:1"/>
<line clip-path="url(#clip662)" x1="656.741" y1="1385.55" x2="640.741" y2="1385.55" style="stroke:#000000; stroke-width:3.2; stroke-opacity:1"/>
<line clip-path="url(#clip662)" x1="656.741" y1="1382.36" x2="640.741" y2="1382.36" style="stroke:#000000; stroke-width:3.2; stroke-opacity:1"/>
<line clip-path="url(#clip662)" x1="696.893" y1="1385.61" x2="680.893" y2="1385.61" style="stroke:#000000; stroke-width:3.2; stroke-opacity:1"/>
<line clip-path="url(#clip662)" x1="696.893" y1="1382.32" x2="680.893" y2="1382.32" style="stroke:#000000; stroke-width:3.2; stroke-opacity:1"/>
<line clip-path="url(#clip662)" x1="737.044" y1="1385.89" x2="721.044" y2="1385.89" style="stroke:#000000; stroke-width:3.2; stroke-opacity:1"/>
<line clip-path="url(#clip662)" x1="737.044" y1="1382.05" x2="721.044" y2="1382.05" style="stroke:#000000; stroke-width:3.2; stroke-opacity:1"/>
<line clip-path="url(#clip662)" x1="777.195" y1="1385.94" x2="761.195" y2="1385.94" style="stroke:#000000; stroke-width:3.2; stroke-opacity:1"/>
<line clip-path="url(#clip662)" x1="777.195" y1="1382" x2="761.195" y2="1382" style="stroke:#000000; stroke-width:3.2; stroke-opacity:1"/>
<line clip-path="url(#clip662)" x1="817.346" y1="1385.98" x2="801.346" y2="1385.98" style="stroke:#000000; stroke-width:3.2; stroke-opacity:1"/>
<line clip-path="url(#clip662)" x1="817.346" y1="1381.96" x2="801.346" y2="1381.96" style="stroke:#000000; stroke-width:3.2; stroke-opacity:1"/>
<line clip-path="url(#clip662)" x1="857.497" y1="1386.03" x2="841.497" y2="1386.03" style="stroke:#000000; stroke-width:3.2; stroke-opacity:1"/>
<line clip-path="url(#clip662)" x1="857.497" y1="1381.91" x2="841.497" y2="1381.91" style="stroke:#000000; stroke-width:3.2; stroke-opacity:1"/>
<line clip-path="url(#clip662)" x1="897.648" y1="1386.07" x2="881.648" y2="1386.07" style="stroke:#000000; stroke-width:3.2; stroke-opacity:1"/>
<line clip-path="url(#clip662)" x1="897.648" y1="1381.87" x2="881.648" y2="1381.87" style="stroke:#000000; stroke-width:3.2; stroke-opacity:1"/>
<line clip-path="url(#clip662)" x1="937.799" y1="1386.1" x2="921.799" y2="1386.1" style="stroke:#000000; stroke-width:3.2; stroke-opacity:1"/>
<line clip-path="url(#clip662)" x1="937.799" y1="1381.83" x2="921.799" y2="1381.83" style="stroke:#000000; stroke-width:3.2; stroke-opacity:1"/>
<line clip-path="url(#clip662)" x1="977.951" y1="1386.14" x2="961.951" y2="1386.14" style="stroke:#000000; stroke-width:3.2; stroke-opacity:1"/>
<line clip-path="url(#clip662)" x1="977.951" y1="1381.8" x2="961.951" y2="1381.8" style="stroke:#000000; stroke-width:3.2; stroke-opacity:1"/>
<line clip-path="url(#clip662)" x1="1018.1" y1="1386.16" x2="1002.1" y2="1386.16" style="stroke:#000000; stroke-width:3.2; stroke-opacity:1"/>
<line clip-path="url(#clip662)" x1="1018.1" y1="1381.77" x2="1002.1" y2="1381.77" style="stroke:#000000; stroke-width:3.2; stroke-opacity:1"/>
<line clip-path="url(#clip662)" x1="1058.25" y1="1386.18" x2="1042.25" y2="1386.18" style="stroke:#000000; stroke-width:3.2; stroke-opacity:1"/>
<line clip-path="url(#clip662)" x1="1058.25" y1="1381.75" x2="1042.25" y2="1381.75" style="stroke:#000000; stroke-width:3.2; stroke-opacity:1"/>
<line clip-path="url(#clip662)" x1="1098.4" y1="1386.21" x2="1082.4" y2="1386.21" style="stroke:#000000; stroke-width:3.2; stroke-opacity:1"/>
<line clip-path="url(#clip662)" x1="1098.4" y1="1381.73" x2="1082.4" y2="1381.73" style="stroke:#000000; stroke-width:3.2; stroke-opacity:1"/>
<line clip-path="url(#clip662)" x1="1138.56" y1="1386.21" x2="1122.56" y2="1386.21" style="stroke:#000000; stroke-width:3.2; stroke-opacity:1"/>
<line clip-path="url(#clip662)" x1="1138.56" y1="1381.72" x2="1122.56" y2="1381.72" style="stroke:#000000; stroke-width:3.2; stroke-opacity:1"/>
<line clip-path="url(#clip662)" x1="1178.71" y1="1386.24" x2="1162.71" y2="1386.24" style="stroke:#000000; stroke-width:3.2; stroke-opacity:1"/>
<line clip-path="url(#clip662)" x1="1178.71" y1="1381.7" x2="1162.71" y2="1381.7" style="stroke:#000000; stroke-width:3.2; stroke-opacity:1"/>
<line clip-path="url(#clip662)" x1="1218.86" y1="1386.26" x2="1202.86" y2="1386.26" style="stroke:#000000; stroke-width:3.2; stroke-opacity:1"/>
<line clip-path="url(#clip662)" x1="1218.86" y1="1381.68" x2="1202.86" y2="1381.68" style="stroke:#000000; stroke-width:3.2; stroke-opacity:1"/>
<line clip-path="url(#clip662)" x1="1259.01" y1="1386.26" x2="1243.01" y2="1386.26" style="stroke:#000000; stroke-width:3.2; stroke-opacity:1"/>
<line clip-path="url(#clip662)" x1="1259.01" y1="1381.68" x2="1243.01" y2="1381.68" style="stroke:#000000; stroke-width:3.2; stroke-opacity:1"/>
<line clip-path="url(#clip662)" x1="1299.16" y1="1386.28" x2="1283.16" y2="1386.28" style="stroke:#000000; stroke-width:3.2; stroke-opacity:1"/>
<line clip-path="url(#clip662)" x1="1299.16" y1="1381.66" x2="1283.16" y2="1381.66" style="stroke:#000000; stroke-width:3.2; stroke-opacity:1"/>
<line clip-path="url(#clip662)" x1="1339.31" y1="1386.28" x2="1323.31" y2="1386.28" style="stroke:#000000; stroke-width:3.2; stroke-opacity:1"/>
<line clip-path="url(#clip662)" x1="1339.31" y1="1381.66" x2="1323.31" y2="1381.66" style="stroke:#000000; stroke-width:3.2; stroke-opacity:1"/>
<line clip-path="url(#clip662)" x1="1379.46" y1="1386.29" x2="1363.46" y2="1386.29" style="stroke:#000000; stroke-width:3.2; stroke-opacity:1"/>
<line clip-path="url(#clip662)" x1="1379.46" y1="1381.65" x2="1363.46" y2="1381.65" style="stroke:#000000; stroke-width:3.2; stroke-opacity:1"/>
<line clip-path="url(#clip662)" x1="1419.61" y1="1386.3" x2="1403.61" y2="1386.3" style="stroke:#000000; stroke-width:3.2; stroke-opacity:1"/>
<line clip-path="url(#clip662)" x1="1419.61" y1="1381.64" x2="1403.61" y2="1381.64" style="stroke:#000000; stroke-width:3.2; stroke-opacity:1"/>
<line clip-path="url(#clip662)" x1="1459.76" y1="1386.31" x2="1443.76" y2="1386.31" style="stroke:#000000; stroke-width:3.2; stroke-opacity:1"/>
<line clip-path="url(#clip662)" x1="1459.76" y1="1381.63" x2="1443.76" y2="1381.63" style="stroke:#000000; stroke-width:3.2; stroke-opacity:1"/>
<line clip-path="url(#clip662)" x1="1499.92" y1="1386.31" x2="1483.92" y2="1386.31" style="stroke:#000000; stroke-width:3.2; stroke-opacity:1"/>
<line clip-path="url(#clip662)" x1="1499.92" y1="1381.63" x2="1483.92" y2="1381.63" style="stroke:#000000; stroke-width:3.2; stroke-opacity:1"/>
<line clip-path="url(#clip662)" x1="1540.07" y1="1386.31" x2="1524.07" y2="1386.31" style="stroke:#000000; stroke-width:3.2; stroke-opacity:1"/>
<line clip-path="url(#clip662)" x1="1540.07" y1="1381.63" x2="1524.07" y2="1381.63" style="stroke:#000000; stroke-width:3.2; stroke-opacity:1"/>
<line clip-path="url(#clip662)" x1="1580.22" y1="1386.33" x2="1564.22" y2="1386.33" style="stroke:#000000; stroke-width:3.2; stroke-opacity:1"/>
<line clip-path="url(#clip662)" x1="1580.22" y1="1381.61" x2="1564.22" y2="1381.61" style="stroke:#000000; stroke-width:3.2; stroke-opacity:1"/>
<line clip-path="url(#clip662)" x1="1620.37" y1="1386.33" x2="1604.37" y2="1386.33" style="stroke:#000000; stroke-width:3.2; stroke-opacity:1"/>
<line clip-path="url(#clip662)" x1="1620.37" y1="1381.61" x2="1604.37" y2="1381.61" style="stroke:#000000; stroke-width:3.2; stroke-opacity:1"/>
<line clip-path="url(#clip662)" x1="1660.52" y1="1386.34" x2="1644.52" y2="1386.34" style="stroke:#000000; stroke-width:3.2; stroke-opacity:1"/>
<line clip-path="url(#clip662)" x1="1660.52" y1="1381.6" x2="1644.52" y2="1381.6" style="stroke:#000000; stroke-width:3.2; stroke-opacity:1"/>
<line clip-path="url(#clip662)" x1="1700.67" y1="1386.33" x2="1684.67" y2="1386.33" style="stroke:#000000; stroke-width:3.2; stroke-opacity:1"/>
<line clip-path="url(#clip662)" x1="1700.67" y1="1381.6" x2="1684.67" y2="1381.6" style="stroke:#000000; stroke-width:3.2; stroke-opacity:1"/>
<line clip-path="url(#clip662)" x1="1740.82" y1="1386.35" x2="1724.82" y2="1386.35" style="stroke:#000000; stroke-width:3.2; stroke-opacity:1"/>
<line clip-path="url(#clip662)" x1="1740.82" y1="1381.59" x2="1724.82" y2="1381.59" style="stroke:#000000; stroke-width:3.2; stroke-opacity:1"/>
<line clip-path="url(#clip662)" x1="1780.97" y1="1386.34" x2="1764.97" y2="1386.34" style="stroke:#000000; stroke-width:3.2; stroke-opacity:1"/>
<line clip-path="url(#clip662)" x1="1780.97" y1="1381.6" x2="1764.97" y2="1381.6" style="stroke:#000000; stroke-width:3.2; stroke-opacity:1"/>
<line clip-path="url(#clip662)" x1="1821.12" y1="1386.36" x2="1805.12" y2="1386.36" style="stroke:#000000; stroke-width:3.2; stroke-opacity:1"/>
<line clip-path="url(#clip662)" x1="1821.12" y1="1381.58" x2="1805.12" y2="1381.58" style="stroke:#000000; stroke-width:3.2; stroke-opacity:1"/>
<line clip-path="url(#clip662)" x1="1861.28" y1="1386.34" x2="1845.28" y2="1386.34" style="stroke:#000000; stroke-width:3.2; stroke-opacity:1"/>
<line clip-path="url(#clip662)" x1="1861.28" y1="1381.6" x2="1845.28" y2="1381.6" style="stroke:#000000; stroke-width:3.2; stroke-opacity:1"/>
<line clip-path="url(#clip662)" x1="1901.43" y1="1386.36" x2="1885.43" y2="1386.36" style="stroke:#000000; stroke-width:3.2; stroke-opacity:1"/>
<line clip-path="url(#clip662)" x1="1901.43" y1="1381.58" x2="1885.43" y2="1381.58" style="stroke:#000000; stroke-width:3.2; stroke-opacity:1"/>
<line clip-path="url(#clip662)" x1="1941.58" y1="1386.35" x2="1925.58" y2="1386.35" style="stroke:#000000; stroke-width:3.2; stroke-opacity:1"/>
<line clip-path="url(#clip662)" x1="1941.58" y1="1381.58" x2="1925.58" y2="1381.58" style="stroke:#000000; stroke-width:3.2; stroke-opacity:1"/>
<line clip-path="url(#clip662)" x1="1981.73" y1="1386.36" x2="1965.73" y2="1386.36" style="stroke:#000000; stroke-width:3.2; stroke-opacity:1"/>
<line clip-path="url(#clip662)" x1="1981.73" y1="1381.58" x2="1965.73" y2="1381.58" style="stroke:#000000; stroke-width:3.2; stroke-opacity:1"/>
<line clip-path="url(#clip662)" x1="2021.88" y1="1386.36" x2="2005.88" y2="1386.36" style="stroke:#000000; stroke-width:3.2; stroke-opacity:1"/>
<line clip-path="url(#clip662)" x1="2021.88" y1="1381.57" x2="2005.88" y2="1381.57" style="stroke:#000000; stroke-width:3.2; stroke-opacity:1"/>
<line clip-path="url(#clip662)" x1="2062.03" y1="1386.36" x2="2046.03" y2="1386.36" style="stroke:#000000; stroke-width:3.2; stroke-opacity:1"/>
<line clip-path="url(#clip662)" x1="2062.03" y1="1381.58" x2="2046.03" y2="1381.58" style="stroke:#000000; stroke-width:3.2; stroke-opacity:1"/>
<line clip-path="url(#clip662)" x1="2102.18" y1="1386.37" x2="2086.18" y2="1386.37" style="stroke:#000000; stroke-width:3.2; stroke-opacity:1"/>
<line clip-path="url(#clip662)" x1="2102.18" y1="1381.57" x2="2086.18" y2="1381.57" style="stroke:#000000; stroke-width:3.2; stroke-opacity:1"/>
<line clip-path="url(#clip662)" x1="2142.33" y1="1386.37" x2="2126.33" y2="1386.37" style="stroke:#000000; stroke-width:3.2; stroke-opacity:1"/>
<line clip-path="url(#clip662)" x1="2142.33" y1="1381.57" x2="2126.33" y2="1381.57" style="stroke:#000000; stroke-width:3.2; stroke-opacity:1"/>
<line clip-path="url(#clip662)" x1="2182.48" y1="1386.38" x2="2166.48" y2="1386.38" style="stroke:#000000; stroke-width:3.2; stroke-opacity:1"/>
<line clip-path="url(#clip662)" x1="2182.48" y1="1381.56" x2="2166.48" y2="1381.56" style="stroke:#000000; stroke-width:3.2; stroke-opacity:1"/>
<line clip-path="url(#clip662)" x1="2222.64" y1="1386.4" x2="2206.64" y2="1386.4" style="stroke:#000000; stroke-width:3.2; stroke-opacity:1"/>
<line clip-path="url(#clip662)" x1="2222.64" y1="1381.54" x2="2206.64" y2="1381.54" style="stroke:#000000; stroke-width:3.2; stroke-opacity:1"/>
<line clip-path="url(#clip662)" x1="2262.79" y1="1386.37" x2="2246.79" y2="1386.37" style="stroke:#000000; stroke-width:3.2; stroke-opacity:1"/>
<line clip-path="url(#clip662)" x1="2262.79" y1="1381.57" x2="2246.79" y2="1381.57" style="stroke:#000000; stroke-width:3.2; stroke-opacity:1"/>
<line clip-path="url(#clip662)" x1="2302.94" y1="1386.37" x2="2286.94" y2="1386.37" style="stroke:#000000; stroke-width:3.2; stroke-opacity:1"/>
<line clip-path="url(#clip662)" x1="2302.94" y1="1381.57" x2="2286.94" y2="1381.57" style="stroke:#000000; stroke-width:3.2; stroke-opacity:1"/>
<circle clip-path="url(#clip662)" cx="367.683" cy="160.262" r="7.2" fill="#009af9" fill-rule="evenodd" fill-opacity="1" stroke="#000000" stroke-opacity="1" stroke-width="3.2"/>
<circle clip-path="url(#clip662)" cx="407.835" cy="1197.74" r="7.2" fill="#009af9" fill-rule="evenodd" fill-opacity="1" stroke="#000000" stroke-opacity="1" stroke-width="3.2"/>
<circle clip-path="url(#clip662)" cx="447.986" cy="1351.39" r="7.2" fill="#009af9" fill-rule="evenodd" fill-opacity="1" stroke="#000000" stroke-opacity="1" stroke-width="3.2"/>
<circle clip-path="url(#clip662)" cx="488.137" cy="1377.72" r="7.2" fill="#009af9" fill-rule="evenodd" fill-opacity="1" stroke="#000000" stroke-opacity="1" stroke-width="3.2"/>
<circle clip-path="url(#clip662)" cx="528.288" cy="1382.7" r="7.2" fill="#009af9" fill-rule="evenodd" fill-opacity="1" stroke="#000000" stroke-opacity="1" stroke-width="3.2"/>
<circle clip-path="url(#clip662)" cx="568.439" cy="1383.7" r="7.2" fill="#009af9" fill-rule="evenodd" fill-opacity="1" stroke="#000000" stroke-opacity="1" stroke-width="3.2"/>
<circle clip-path="url(#clip662)" cx="608.59" cy="1383.91" r="7.2" fill="#009af9" fill-rule="evenodd" fill-opacity="1" stroke="#000000" stroke-opacity="1" stroke-width="3.2"/>
<circle clip-path="url(#clip662)" cx="648.741" cy="1383.96" r="7.2" fill="#009af9" fill-rule="evenodd" fill-opacity="1" stroke="#000000" stroke-opacity="1" stroke-width="3.2"/>
<circle clip-path="url(#clip662)" cx="688.893" cy="1383.97" r="7.2" fill="#009af9" fill-rule="evenodd" fill-opacity="1" stroke="#000000" stroke-opacity="1" stroke-width="3.2"/>
<circle clip-path="url(#clip662)" cx="729.044" cy="1383.97" r="7.2" fill="#009af9" fill-rule="evenodd" fill-opacity="1" stroke="#000000" stroke-opacity="1" stroke-width="3.2"/>
<circle clip-path="url(#clip662)" cx="769.195" cy="1383.97" r="7.2" fill="#009af9" fill-rule="evenodd" fill-opacity="1" stroke="#000000" stroke-opacity="1" stroke-width="3.2"/>
<circle clip-path="url(#clip662)" cx="809.346" cy="1383.97" r="7.2" fill="#009af9" fill-rule="evenodd" fill-opacity="1" stroke="#000000" stroke-opacity="1" stroke-width="3.2"/>
<circle clip-path="url(#clip662)" cx="849.497" cy="1383.97" r="7.2" fill="#009af9" fill-rule="evenodd" fill-opacity="1" stroke="#000000" stroke-opacity="1" stroke-width="3.2"/>
<circle clip-path="url(#clip662)" cx="889.648" cy="1383.97" r="7.2" fill="#009af9" fill-rule="evenodd" fill-opacity="1" stroke="#000000" stroke-opacity="1" stroke-width="3.2"/>
<circle clip-path="url(#clip662)" cx="929.799" cy="1383.97" r="7.2" fill="#009af9" fill-rule="evenodd" fill-opacity="1" stroke="#000000" stroke-opacity="1" stroke-width="3.2"/>
<circle clip-path="url(#clip662)" cx="969.951" cy="1383.97" r="7.2" fill="#009af9" fill-rule="evenodd" fill-opacity="1" stroke="#000000" stroke-opacity="1" stroke-width="3.2"/>
<circle clip-path="url(#clip662)" cx="1010.1" cy="1383.97" r="7.2" fill="#009af9" fill-rule="evenodd" fill-opacity="1" stroke="#000000" stroke-opacity="1" stroke-width="3.2"/>
<circle clip-path="url(#clip662)" cx="1050.25" cy="1383.97" r="7.2" fill="#009af9" fill-rule="evenodd" fill-opacity="1" stroke="#000000" stroke-opacity="1" stroke-width="3.2"/>
<circle clip-path="url(#clip662)" cx="1090.4" cy="1383.97" r="7.2" fill="#009af9" fill-rule="evenodd" fill-opacity="1" stroke="#000000" stroke-opacity="1" stroke-width="3.2"/>
<circle clip-path="url(#clip662)" cx="1130.56" cy="1383.97" r="7.2" fill="#009af9" fill-rule="evenodd" fill-opacity="1" stroke="#000000" stroke-opacity="1" stroke-width="3.2"/>
<circle clip-path="url(#clip662)" cx="1170.71" cy="1383.97" r="7.2" fill="#009af9" fill-rule="evenodd" fill-opacity="1" stroke="#000000" stroke-opacity="1" stroke-width="3.2"/>
<circle clip-path="url(#clip662)" cx="1210.86" cy="1383.97" r="7.2" fill="#009af9" fill-rule="evenodd" fill-opacity="1" stroke="#000000" stroke-opacity="1" stroke-width="3.2"/>
<circle clip-path="url(#clip662)" cx="1251.01" cy="1383.97" r="7.2" fill="#009af9" fill-rule="evenodd" fill-opacity="1" stroke="#000000" stroke-opacity="1" stroke-width="3.2"/>
<circle clip-path="url(#clip662)" cx="1291.16" cy="1383.97" r="7.2" fill="#009af9" fill-rule="evenodd" fill-opacity="1" stroke="#000000" stroke-opacity="1" stroke-width="3.2"/>
<circle clip-path="url(#clip662)" cx="1331.31" cy="1383.97" r="7.2" fill="#009af9" fill-rule="evenodd" fill-opacity="1" stroke="#000000" stroke-opacity="1" stroke-width="3.2"/>
<circle clip-path="url(#clip662)" cx="1371.46" cy="1383.97" r="7.2" fill="#009af9" fill-rule="evenodd" fill-opacity="1" stroke="#000000" stroke-opacity="1" stroke-width="3.2"/>
<circle clip-path="url(#clip662)" cx="1411.61" cy="1383.97" r="7.2" fill="#009af9" fill-rule="evenodd" fill-opacity="1" stroke="#000000" stroke-opacity="1" stroke-width="3.2"/>
<circle clip-path="url(#clip662)" cx="1451.76" cy="1383.97" r="7.2" fill="#009af9" fill-rule="evenodd" fill-opacity="1" stroke="#000000" stroke-opacity="1" stroke-width="3.2"/>
<circle clip-path="url(#clip662)" cx="1491.92" cy="1383.97" r="7.2" fill="#009af9" fill-rule="evenodd" fill-opacity="1" stroke="#000000" stroke-opacity="1" stroke-width="3.2"/>
<circle clip-path="url(#clip662)" cx="1532.07" cy="1383.97" r="7.2" fill="#009af9" fill-rule="evenodd" fill-opacity="1" stroke="#000000" stroke-opacity="1" stroke-width="3.2"/>
<circle clip-path="url(#clip662)" cx="1572.22" cy="1383.97" r="7.2" fill="#009af9" fill-rule="evenodd" fill-opacity="1" stroke="#000000" stroke-opacity="1" stroke-width="3.2"/>
<circle clip-path="url(#clip662)" cx="1612.37" cy="1383.97" r="7.2" fill="#009af9" fill-rule="evenodd" fill-opacity="1" stroke="#000000" stroke-opacity="1" stroke-width="3.2"/>
<circle clip-path="url(#clip662)" cx="1652.52" cy="1383.97" r="7.2" fill="#009af9" fill-rule="evenodd" fill-opacity="1" stroke="#000000" stroke-opacity="1" stroke-width="3.2"/>
<circle clip-path="url(#clip662)" cx="1692.67" cy="1383.97" r="7.2" fill="#009af9" fill-rule="evenodd" fill-opacity="1" stroke="#000000" stroke-opacity="1" stroke-width="3.2"/>
<circle clip-path="url(#clip662)" cx="1732.82" cy="1383.97" r="7.2" fill="#009af9" fill-rule="evenodd" fill-opacity="1" stroke="#000000" stroke-opacity="1" stroke-width="3.2"/>
<circle clip-path="url(#clip662)" cx="1772.97" cy="1383.97" r="7.2" fill="#009af9" fill-rule="evenodd" fill-opacity="1" stroke="#000000" stroke-opacity="1" stroke-width="3.2"/>
<circle clip-path="url(#clip662)" cx="1813.12" cy="1383.97" r="7.2" fill="#009af9" fill-rule="evenodd" fill-opacity="1" stroke="#000000" stroke-opacity="1" stroke-width="3.2"/>
<circle clip-path="url(#clip662)" cx="1853.28" cy="1383.97" r="7.2" fill="#009af9" fill-rule="evenodd" fill-opacity="1" stroke="#000000" stroke-opacity="1" stroke-width="3.2"/>
<circle clip-path="url(#clip662)" cx="1893.43" cy="1383.97" r="7.2" fill="#009af9" fill-rule="evenodd" fill-opacity="1" stroke="#000000" stroke-opacity="1" stroke-width="3.2"/>
<circle clip-path="url(#clip662)" cx="1933.58" cy="1383.97" r="7.2" fill="#009af9" fill-rule="evenodd" fill-opacity="1" stroke="#000000" stroke-opacity="1" stroke-width="3.2"/>
<circle clip-path="url(#clip662)" cx="1973.73" cy="1383.97" r="7.2" fill="#009af9" fill-rule="evenodd" fill-opacity="1" stroke="#000000" stroke-opacity="1" stroke-width="3.2"/>
<circle clip-path="url(#clip662)" cx="2013.88" cy="1383.97" r="7.2" fill="#009af9" fill-rule="evenodd" fill-opacity="1" stroke="#000000" stroke-opacity="1" stroke-width="3.2"/>
<circle clip-path="url(#clip662)" cx="2054.03" cy="1383.97" r="7.2" fill="#009af9" fill-rule="evenodd" fill-opacity="1" stroke="#000000" stroke-opacity="1" stroke-width="3.2"/>
<circle clip-path="url(#clip662)" cx="2094.18" cy="1383.97" r="7.2" fill="#009af9" fill-rule="evenodd" fill-opacity="1" stroke="#000000" stroke-opacity="1" stroke-width="3.2"/>
<circle clip-path="url(#clip662)" cx="2134.33" cy="1383.97" r="7.2" fill="#009af9" fill-rule="evenodd" fill-opacity="1" stroke="#000000" stroke-opacity="1" stroke-width="3.2"/>
<circle clip-path="url(#clip662)" cx="2174.48" cy="1383.97" r="7.2" fill="#009af9" fill-rule="evenodd" fill-opacity="1" stroke="#000000" stroke-opacity="1" stroke-width="3.2"/>
<circle clip-path="url(#clip662)" cx="2214.64" cy="1383.97" r="7.2" fill="#009af9" fill-rule="evenodd" fill-opacity="1" stroke="#000000" stroke-opacity="1" stroke-width="3.2"/>
<circle clip-path="url(#clip662)" cx="2254.79" cy="1383.97" r="7.2" fill="#009af9" fill-rule="evenodd" fill-opacity="1" stroke="#000000" stroke-opacity="1" stroke-width="3.2"/>
<circle clip-path="url(#clip662)" cx="2294.94" cy="1383.97" r="7.2" fill="#009af9" fill-rule="evenodd" fill-opacity="1" stroke="#000000" stroke-opacity="1" stroke-width="3.2"/>
<path clip-path="url(#clip660)" d="
M1722.59 270.476 L2284.66 270.476 L2284.66 166.796 L1722.59 166.796  Z
  " fill="#ffffff" fill-rule="evenodd" fill-opacity="1"/>
<polyline clip-path="url(#clip660)" style="stroke:#000000; stroke-linecap:round; stroke-linejoin:round; stroke-width:4; stroke-opacity:1; fill:none" points="
  1722.59,270.476 2284.66,270.476 2284.66,166.796 1722.59,166.796 1722.59,270.476 
  "/>
<circle clip-path="url(#clip660)" cx="1813.39" cy="218.636" r="23.04" fill="#009af9" fill-rule="evenodd" fill-opacity="1" stroke="#000000" stroke-opacity="1" stroke-width="10.24"/>
<path clip-path="url(#clip660)" d="M1924.53 214.967 Q1926.13 212.096 1928.35 210.731 Q1930.57 209.365 1933.58 209.365 Q1937.63 209.365 1939.83 212.212 Q1942.03 215.036 1942.03 220.268 L1942.03 235.916 L1937.75 235.916 L1937.75 220.407 Q1937.75 216.68 1936.43 214.874 Q1935.11 213.069 1932.4 213.069 Q1929.09 213.069 1927.17 215.268 Q1925.25 217.467 1925.25 221.263 L1925.25 235.916 L1920.97 235.916 L1920.97 220.407 Q1920.97 216.657 1919.65 214.874 Q1918.33 213.069 1915.57 213.069 Q1912.31 213.069 1910.39 215.291 Q1908.47 217.49 1908.47 221.263 L1908.47 235.916 L1904.18 235.916 L1904.18 209.99 L1908.47 209.99 L1908.47 214.018 Q1909.93 211.633 1911.96 210.499 Q1914 209.365 1916.8 209.365 Q1919.62 209.365 1921.59 210.8 Q1923.58 212.235 1924.53 214.967 Z" fill="#000000" fill-rule="evenodd" fill-opacity="1" /><path clip-path="url(#clip660)" d="M1959.25 220.245 Q1958.1 218.254 1955.76 218.254 Q1953.42 218.254 1952.26 220.245 Q1951.08 222.235 1951.08 226.217 Q1951.08 230.221 1952.26 232.212 Q1953.42 234.203 1955.76 234.203 Q1958.1 234.203 1959.25 232.212 Q1960.43 230.221 1960.43 226.217 Q1960.43 222.235 1959.25 220.245 M1955.76 216.194 Q1959.49 216.194 1961.45 218.763 Q1963.42 221.332 1963.42 226.217 Q1963.42 231.124 1961.45 233.694 Q1959.49 236.263 1955.76 236.263 Q1952.01 236.263 1950.04 233.694 Q1948.07 231.124 1948.07 226.217 Q1948.07 221.332 1950.04 218.763 Q1952.01 216.194 1955.76 216.194 Z" fill="#000000" fill-rule="evenodd" fill-opacity="1" /><path clip-path="url(#clip660)" d="M1970.09 214.388 L1999.76 214.388 L1999.76 218.277 L1970.09 218.277 L1970.09 214.388 M1970.09 223.832 L1999.76 223.832 L1999.76 227.768 L1970.09 227.768 L1970.09 223.832 Z" fill="#000000" fill-rule="evenodd" fill-opacity="1" /><path clip-path="url(#clip660)" d="M2019.86 204.434 Q2016.24 204.434 2014.42 207.999 Q2012.61 211.541 2012.61 218.67 Q2012.61 225.777 2014.42 229.342 Q2016.24 232.883 2019.86 232.883 Q2023.49 232.883 2025.3 229.342 Q2027.12 225.777 2027.12 218.67 Q2027.12 211.541 2025.3 207.999 Q2023.49 204.434 2019.86 204.434 M2019.86 200.731 Q2025.67 200.731 2028.72 205.337 Q2031.8 209.92 2031.8 218.67 Q2031.8 227.397 2028.72 232.004 Q2025.67 236.587 2019.86 236.587 Q2014.05 236.587 2010.97 232.004 Q2007.91 227.397 2007.91 218.67 Q2007.91 209.92 2010.97 205.337 Q2014.05 200.731 2019.86 200.731 Z" fill="#000000" fill-rule="evenodd" fill-opacity="1" /><path clip-path="url(#clip660)" d="M2040.02 230.036 L2044.9 230.036 L2044.9 235.916 L2040.02 235.916 L2040.02 230.036 Z" fill="#000000" fill-rule="evenodd" fill-opacity="1" /><path clip-path="url(#clip660)" d="M2053.91 201.356 L2076.13 201.356 L2076.13 203.346 L2063.58 235.916 L2058.7 235.916 L2070.5 205.291 L2053.91 205.291 L2053.91 201.356 Z" fill="#000000" fill-rule="evenodd" fill-opacity="1" /><path clip-path="url(#clip660)" d="M2085.73 230.036 L2090.62 230.036 L2090.62 234.018 L2086.82 241.425 L2083.84 241.425 L2085.73 234.018 L2085.73 230.036 Z" fill="#000000" fill-rule="evenodd" fill-opacity="1" /><path clip-path="url(#clip660)" d="M2123.47 230.985 L2123.47 221.703 L2115.83 221.703 L2115.83 217.86 L2128.1 217.86 L2128.1 232.698 Q2125.39 234.619 2122.12 235.615 Q2118.86 236.587 2115.16 236.587 Q2107.05 236.587 2102.47 231.865 Q2097.91 227.119 2097.91 218.67 Q2097.91 210.198 2102.47 205.476 Q2107.05 200.731 2115.16 200.731 Q2118.54 200.731 2121.57 201.564 Q2124.62 202.397 2127.19 204.018 L2127.19 208.995 Q2124.6 206.796 2121.68 205.684 Q2118.77 204.573 2115.55 204.573 Q2109.21 204.573 2106.01 208.115 Q2102.84 211.657 2102.84 218.67 Q2102.84 225.661 2106.01 229.203 Q2109.21 232.744 2115.55 232.744 Q2118.03 232.744 2119.97 232.328 Q2121.92 231.888 2123.47 230.985 Z" fill="#000000" fill-rule="evenodd" fill-opacity="1" /><path clip-path="url(#clip660)" d="M2138.19 217.814 L2148 217.814 L2148 220.453 L2134.16 220.453 L2134.16 217.907 Q2134.95 217.189 2136.41 215.893 Q2144.37 208.833 2144.37 206.657 Q2144.37 205.129 2143.17 204.203 Q2141.96 203.254 2139.99 203.254 Q2138.79 203.254 2137.38 203.671 Q2135.97 204.064 2134.3 204.874 L2134.3 202.027 Q2136.08 201.379 2137.61 201.055 Q2139.16 200.731 2140.48 200.731 Q2143.84 200.731 2145.85 202.258 Q2147.86 203.786 2147.86 206.286 Q2147.86 209.504 2140.2 216.078 Q2138.91 217.189 2138.19 217.814 Z" fill="#000000" fill-rule="evenodd" fill-opacity="1" /><path clip-path="url(#clip660)" d="M2156.01 214.388 L2185.69 214.388 L2185.69 218.277 L2156.01 218.277 L2156.01 214.388 M2156.01 223.832 L2185.69 223.832 L2185.69 227.768 L2156.01 227.768 L2156.01 223.832 Z" fill="#000000" fill-rule="evenodd" fill-opacity="1" /><path clip-path="url(#clip660)" d="M2205.78 204.434 Q2202.17 204.434 2200.34 207.999 Q2198.54 211.541 2198.54 218.67 Q2198.54 225.777 2200.34 229.342 Q2202.17 232.883 2205.78 232.883 Q2209.41 232.883 2211.22 229.342 Q2213.05 225.777 2213.05 218.67 Q2213.05 211.541 2211.22 207.999 Q2209.41 204.434 2205.78 204.434 M2205.78 200.731 Q2211.59 200.731 2214.65 205.337 Q2217.72 209.92 2217.72 218.67 Q2217.72 227.397 2214.65 232.004 Q2211.59 236.587 2205.78 236.587 Q2199.97 236.587 2196.89 232.004 Q2193.84 227.397 2193.84 218.67 Q2193.84 209.92 2196.89 205.337 Q2199.97 200.731 2205.78 200.731 Z" fill="#000000" fill-rule="evenodd" fill-opacity="1" /><path clip-path="url(#clip660)" d="M2225.94 230.036 L2230.83 230.036 L2230.83 235.916 L2225.94 235.916 L2225.94 230.036 Z" fill="#000000" fill-rule="evenodd" fill-opacity="1" /><path clip-path="url(#clip660)" d="M2241.06 201.356 L2259.41 201.356 L2259.41 205.291 L2245.34 205.291 L2245.34 213.763 Q2246.36 213.416 2247.38 213.254 Q2248.4 213.069 2249.41 213.069 Q2255.2 213.069 2258.58 216.24 Q2261.96 219.411 2261.96 224.828 Q2261.96 230.406 2258.49 233.508 Q2255.02 236.587 2248.7 236.587 Q2246.52 236.587 2244.25 236.217 Q2242.01 235.846 2239.6 235.106 L2239.6 230.406 Q2241.68 231.541 2243.91 232.096 Q2246.13 232.652 2248.6 232.652 Q2252.61 232.652 2254.95 230.545 Q2257.28 228.439 2257.28 224.828 Q2257.28 221.217 2254.95 219.11 Q2252.61 217.004 2248.6 217.004 Q2246.73 217.004 2244.85 217.42 Q2243 217.837 2241.06 218.717 L2241.06 201.356 Z" fill="#000000" fill-rule="evenodd" fill-opacity="1" /></svg>
