<?xml version="1.0" encoding="utf-8"?>
<svg xmlns="http://www.w3.org/2000/svg" xmlns:xlink="http://www.w3.org/1999/xlink" width="600" height="400" viewBox="0 0 2400 1600">
<defs>
  <clipPath id="clip790">
    <rect x="0" y="0" width="2400" height="1600"/>
  </clipPath>
</defs>
<path clip-path="url(#clip790)" d="
M0 1600 L2400 1600 L2400 0 L0 0  Z
  " fill="#ffffff" fill-rule="evenodd" fill-opacity="1"/>
<defs>
  <clipPath id="clip791">
    <rect x="480" y="0" width="1681" height="1600"/>
  </clipPath>
</defs>
<path clip-path="url(#clip790)" d="
M279.704 1423.18 L2352.76 1423.18 L2352.76 123.472 L279.704 123.472  Z
  " fill="#ffffff" fill-rule="evenodd" fill-opacity="1"/>
<defs>
  <clipPath id="clip792">
    <rect x="279" y="123" width="2074" height="1301"/>
  </clipPath>
</defs>
<polyline clip-path="url(#clip792)" style="stroke:#000000; stroke-linecap:round; stroke-linejoin:round; stroke-width:2; stroke-opacity:0.1; fill:none" points="
  279.704,1423.18 279.704,123.472 
  "/>
<polyline clip-path="url(#clip792)" style="stroke:#000000; stroke-linecap:round; stroke-linejoin:round; stroke-width:2; stroke-opacity:0.1; fill:none" points="
  625.213,1423.18 625.213,123.472 
  "/>
<polyline clip-path="url(#clip792)" style="stroke:#000000; stroke-linecap:round; stroke-linejoin:round; stroke-width:2; stroke-opacity:0.1; fill:none" points="
  970.721,1423.18 970.721,123.472 
  "/>
<polyline clip-path="url(#clip792)" style="stroke:#000000; stroke-linecap:round; stroke-linejoin:round; stroke-width:2; stroke-opacity:0.1; fill:none" points="
  1316.23,1423.18 1316.23,123.472 
  "/>
<polyline clip-path="url(#clip792)" style="stroke:#000000; stroke-linecap:round; stroke-linejoin:round; stroke-width:2; stroke-opacity:0.1; fill:none" points="
  1661.74,1423.18 1661.74,123.472 
  "/>
<polyline clip-path="url(#clip792)" style="stroke:#000000; stroke-linecap:round; stroke-linejoin:round; stroke-width:2; stroke-opacity:0.1; fill:none" points="
  2007.25,1423.18 2007.25,123.472 
  "/>
<polyline clip-path="url(#clip792)" style="stroke:#000000; stroke-linecap:round; stroke-linejoin:round; stroke-width:2; stroke-opacity:0.1; fill:none" points="
  2352.76,1423.18 2352.76,123.472 
  "/>
<polyline clip-path="url(#clip790)" style="stroke:#000000; stroke-linecap:round; stroke-linejoin:round; stroke-width:4; stroke-opacity:1; fill:none" points="
  279.704,1423.18 2352.76,1423.18 
  "/>
<polyline clip-path="url(#clip790)" style="stroke:#000000; stroke-linecap:round; stroke-linejoin:round; stroke-width:4; stroke-opacity:1; fill:none" points="
  279.704,1423.18 279.704,1404.28 
  "/>
<polyline clip-path="url(#clip790)" style="stroke:#000000; stroke-linecap:round; stroke-linejoin:round; stroke-width:4; stroke-opacity:1; fill:none" points="
  625.213,1423.18 625.213,1404.28 
  "/>
<polyline clip-path="url(#clip790)" style="stroke:#000000; stroke-linecap:round; stroke-linejoin:round; stroke-width:4; stroke-opacity:1; fill:none" points="
  970.721,1423.18 970.721,1404.28 
  "/>
<polyline clip-path="url(#clip790)" style="stroke:#000000; stroke-linecap:round; stroke-linejoin:round; stroke-width:4; stroke-opacity:1; fill:none" points="
  1316.23,1423.18 1316.23,1404.28 
  "/>
<polyline clip-path="url(#clip790)" style="stroke:#000000; stroke-linecap:round; stroke-linejoin:round; stroke-width:4; stroke-opacity:1; fill:none" points="
  1661.74,1423.18 1661.74,1404.28 
  "/>
<polyline clip-path="url(#clip790)" style="stroke:#000000; stroke-linecap:round; stroke-linejoin:round; stroke-width:4; stroke-opacity:1; fill:none" points="
  2007.25,1423.18 2007.25,1404.28 
  "/>
<polyline clip-path="url(#clip790)" style="stroke:#000000; stroke-linecap:round; stroke-linejoin:round; stroke-width:4; stroke-opacity:1; fill:none" points="
  2352.76,1423.18 2352.76,1404.28 
  "/>
<path clip-path="url(#clip790)" d="M279.704 1454.1 Q276.093 1454.1 274.264 1457.66 Q272.459 1461.2 272.459 1468.33 Q272.459 1475.44 274.264 1479.01 Q276.093 1482.55 279.704 1482.55 Q283.338 1482.55 285.144 1479.01 Q286.972 1475.44 286.972 1468.33 Q286.972 1461.2 285.144 1457.66 Q283.338 1454.1 279.704 1454.1 M279.704 1450.39 Q285.514 1450.39 288.57 1455 Q291.648 1459.58 291.648 1468.33 Q291.648 1477.06 288.57 1481.67 Q285.514 1486.25 279.704 1486.25 Q273.894 1486.25 270.815 1481.67 Q267.76 1477.06 267.76 1468.33 Q267.76 1459.58 270.815 1455 Q273.894 1450.39 279.704 1450.39 Z" fill="#000000" fill-rule="evenodd" fill-opacity="1" /><path clip-path="url(#clip790)" d="M615.49 1451.02 L633.847 1451.02 L633.847 1454.96 L619.773 1454.96 L619.773 1463.43 Q620.791 1463.08 621.81 1462.92 Q622.828 1462.73 623.847 1462.73 Q629.634 1462.73 633.013 1465.9 Q636.393 1469.08 636.393 1474.49 Q636.393 1480.07 632.921 1483.17 Q629.449 1486.25 623.129 1486.25 Q620.953 1486.25 618.685 1485.88 Q616.439 1485.51 614.032 1484.77 L614.032 1480.07 Q616.115 1481.2 618.338 1481.76 Q620.56 1482.32 623.037 1482.32 Q627.041 1482.32 629.379 1480.21 Q631.717 1478.1 631.717 1474.49 Q631.717 1470.88 629.379 1468.77 Q627.041 1466.67 623.037 1466.67 Q621.162 1466.67 619.287 1467.08 Q617.435 1467.5 615.49 1468.38 L615.49 1451.02 Z" fill="#000000" fill-rule="evenodd" fill-opacity="1" /><path clip-path="url(#clip790)" d="M945.409 1481.64 L953.048 1481.64 L953.048 1455.28 L944.738 1456.95 L944.738 1452.69 L953.001 1451.02 L957.677 1451.02 L957.677 1481.64 L965.316 1481.64 L965.316 1485.58 L945.409 1485.58 L945.409 1481.64 Z" fill="#000000" fill-rule="evenodd" fill-opacity="1" /><path clip-path="url(#clip790)" d="M984.761 1454.1 Q981.149 1454.1 979.321 1457.66 Q977.515 1461.2 977.515 1468.33 Q977.515 1475.44 979.321 1479.01 Q981.149 1482.55 984.761 1482.55 Q988.395 1482.55 990.2 1479.01 Q992.029 1475.44 992.029 1468.33 Q992.029 1461.2 990.2 1457.66 Q988.395 1454.1 984.761 1454.1 M984.761 1450.39 Q990.571 1450.39 993.626 1455 Q996.705 1459.58 996.705 1468.33 Q996.705 1477.06 993.626 1481.67 Q990.571 1486.25 984.761 1486.25 Q978.95 1486.25 975.872 1481.67 Q972.816 1477.06 972.816 1468.33 Q972.816 1459.58 975.872 1455 Q978.95 1450.39 984.761 1450.39 Z" fill="#000000" fill-rule="evenodd" fill-opacity="1" /><path clip-path="url(#clip790)" d="M1291.42 1481.64 L1299.05 1481.64 L1299.05 1455.28 L1290.74 1456.95 L1290.74 1452.69 L1299.01 1451.02 L1303.68 1451.02 L1303.68 1481.64 L1311.32 1481.64 L1311.32 1485.58 L1291.42 1485.58 L1291.42 1481.64 Z" fill="#000000" fill-rule="evenodd" fill-opacity="1" /><path clip-path="url(#clip790)" d="M1320.81 1451.02 L1339.17 1451.02 L1339.17 1454.96 L1325.1 1454.96 L1325.1 1463.43 Q1326.11 1463.08 1327.13 1462.92 Q1328.15 1462.73 1329.17 1462.73 Q1334.96 1462.73 1338.34 1465.9 Q1341.72 1469.08 1341.72 1474.49 Q1341.72 1480.07 1338.24 1483.17 Q1334.77 1486.25 1328.45 1486.25 Q1326.28 1486.25 1324.01 1485.88 Q1321.76 1485.51 1319.35 1484.77 L1319.35 1480.07 Q1321.44 1481.2 1323.66 1481.76 Q1325.88 1482.32 1328.36 1482.32 Q1332.36 1482.32 1334.7 1480.21 Q1337.04 1478.1 1337.04 1474.49 Q1337.04 1470.88 1334.7 1468.77 Q1332.36 1466.67 1328.36 1466.67 Q1326.48 1466.67 1324.61 1467.08 Q1322.76 1467.5 1320.81 1468.38 L1320.81 1451.02 Z" fill="#000000" fill-rule="evenodd" fill-opacity="1" /><path clip-path="url(#clip790)" d="M1640.51 1481.64 L1656.83 1481.64 L1656.83 1485.58 L1634.89 1485.58 L1634.89 1481.64 Q1637.55 1478.89 1642.13 1474.26 Q1646.74 1469.61 1647.92 1468.27 Q1650.16 1465.74 1651.04 1464.01 Q1651.95 1462.25 1651.95 1460.56 Q1651.95 1457.8 1650 1456.07 Q1648.08 1454.33 1644.98 1454.33 Q1642.78 1454.33 1640.33 1455.09 Q1637.9 1455.86 1635.12 1457.41 L1635.12 1452.69 Q1637.94 1451.55 1640.4 1450.97 Q1642.85 1450.39 1644.89 1450.39 Q1650.26 1450.39 1653.45 1453.08 Q1656.65 1455.77 1656.65 1460.26 Q1656.65 1462.39 1655.84 1464.31 Q1655.05 1466.2 1652.94 1468.8 Q1652.36 1469.47 1649.26 1472.69 Q1646.16 1475.88 1640.51 1481.64 Z" fill="#000000" fill-rule="evenodd" fill-opacity="1" /><path clip-path="url(#clip790)" d="M1676.65 1454.1 Q1673.03 1454.1 1671.21 1457.66 Q1669.4 1461.2 1669.4 1468.33 Q1669.4 1475.44 1671.21 1479.01 Q1673.03 1482.55 1676.65 1482.55 Q1680.28 1482.55 1682.09 1479.01 Q1683.91 1475.44 1683.91 1468.33 Q1683.91 1461.2 1682.09 1457.66 Q1680.28 1454.1 1676.65 1454.1 M1676.65 1450.39 Q1682.46 1450.39 1685.51 1455 Q1688.59 1459.58 1688.59 1468.33 Q1688.59 1477.06 1685.51 1481.67 Q1682.46 1486.25 1676.65 1486.25 Q1670.84 1486.25 1667.76 1481.67 Q1664.7 1477.06 1664.7 1468.33 Q1664.7 1459.58 1667.76 1455 Q1670.84 1450.39 1676.65 1450.39 Z" fill="#000000" fill-rule="evenodd" fill-opacity="1" /><path clip-path="url(#clip790)" d="M1986.52 1481.64 L2002.84 1481.64 L2002.84 1485.58 L1980.89 1485.58 L1980.89 1481.64 Q1983.56 1478.89 1988.14 1474.26 Q1992.75 1469.61 1993.93 1468.27 Q1996.17 1465.74 1997.05 1464.01 Q1997.95 1462.25 1997.95 1460.56 Q1997.95 1457.8 1996.01 1456.07 Q1994.09 1454.33 1990.99 1454.33 Q1988.79 1454.33 1986.33 1455.09 Q1983.9 1455.86 1981.12 1457.41 L1981.12 1452.69 Q1983.95 1451.55 1986.4 1450.97 Q1988.86 1450.39 1990.89 1450.39 Q1996.26 1450.39 1999.46 1453.08 Q2002.65 1455.77 2002.65 1460.26 Q2002.65 1462.39 2001.84 1464.31 Q2001.06 1466.2 1998.95 1468.8 Q1998.37 1469.47 1995.27 1472.69 Q1992.17 1475.88 1986.52 1481.64 Z" fill="#000000" fill-rule="evenodd" fill-opacity="1" /><path clip-path="url(#clip790)" d="M2012.7 1451.02 L2031.05 1451.02 L2031.05 1454.96 L2016.98 1454.96 L2016.98 1463.43 Q2018 1463.08 2019.02 1462.92 Q2020.04 1462.73 2021.06 1462.73 Q2026.84 1462.73 2030.22 1465.9 Q2033.6 1469.08 2033.6 1474.49 Q2033.6 1480.07 2030.13 1483.17 Q2026.66 1486.25 2020.34 1486.25 Q2018.16 1486.25 2015.89 1485.88 Q2013.65 1485.51 2011.24 1484.77 L2011.24 1480.07 Q2013.32 1481.2 2015.55 1481.76 Q2017.77 1482.32 2020.24 1482.32 Q2024.25 1482.32 2026.59 1480.21 Q2028.93 1478.1 2028.93 1474.49 Q2028.93 1470.88 2026.59 1468.77 Q2024.25 1466.67 2020.24 1466.67 Q2018.37 1466.67 2016.49 1467.08 Q2014.64 1467.5 2012.7 1468.38 L2012.7 1451.02 Z" fill="#000000" fill-rule="evenodd" fill-opacity="1" /><path clip-path="url(#clip790)" d="M2341.6 1466.95 Q2344.96 1467.66 2346.83 1469.93 Q2348.73 1472.2 2348.73 1475.53 Q2348.73 1480.65 2345.21 1483.45 Q2341.69 1486.25 2335.21 1486.25 Q2333.03 1486.25 2330.72 1485.81 Q2328.43 1485.39 2325.97 1484.54 L2325.97 1480.02 Q2327.92 1481.16 2330.23 1481.74 Q2332.55 1482.32 2335.07 1482.32 Q2339.47 1482.32 2341.76 1480.58 Q2344.08 1478.84 2344.08 1475.53 Q2344.08 1472.48 2341.92 1470.77 Q2339.79 1469.03 2335.97 1469.03 L2331.95 1469.03 L2331.95 1465.19 L2336.16 1465.19 Q2339.61 1465.19 2341.44 1463.82 Q2343.27 1462.43 2343.27 1459.84 Q2343.27 1457.18 2341.37 1455.77 Q2339.49 1454.33 2335.97 1454.33 Q2334.05 1454.33 2331.85 1454.75 Q2329.65 1455.16 2327.02 1456.04 L2327.02 1451.88 Q2329.68 1451.14 2331.99 1450.77 Q2334.33 1450.39 2336.39 1450.39 Q2341.71 1450.39 2344.82 1452.83 Q2347.92 1455.23 2347.92 1459.35 Q2347.92 1462.22 2346.27 1464.21 Q2344.63 1466.18 2341.6 1466.95 Z" fill="#000000" fill-rule="evenodd" fill-opacity="1" /><path clip-path="url(#clip790)" d="M2367.59 1454.1 Q2363.98 1454.1 2362.15 1457.66 Q2360.35 1461.2 2360.35 1468.33 Q2360.35 1475.44 2362.15 1479.01 Q2363.98 1482.55 2367.59 1482.55 Q2371.23 1482.55 2373.03 1479.01 Q2374.86 1475.44 2374.86 1468.33 Q2374.86 1461.2 2373.03 1457.66 Q2371.23 1454.1 2367.59 1454.1 M2367.59 1450.39 Q2373.4 1450.39 2376.46 1455 Q2379.54 1459.58 2379.54 1468.33 Q2379.54 1477.06 2376.46 1481.67 Q2373.4 1486.25 2367.59 1486.25 Q2361.78 1486.25 2358.7 1481.67 Q2355.65 1477.06 2355.65 1468.33 Q2355.65 1459.58 2358.7 1455 Q2361.78 1450.39 2367.59 1450.39 Z" fill="#000000" fill-rule="evenodd" fill-opacity="1" /><path clip-path="url(#clip790)" d="M1145.1 1522.08 L1145.1 1528.35 Q1141.44 1526.6 1138.2 1525.74 Q1134.95 1524.88 1131.93 1524.88 Q1126.68 1524.88 1123.81 1526.92 Q1120.98 1528.96 1120.98 1532.71 Q1120.98 1535.87 1122.86 1537.49 Q1124.77 1539.08 1130.05 1540.07 L1133.93 1540.86 Q1141.13 1542.23 1144.53 1545.7 Q1147.97 1549.14 1147.97 1554.93 Q1147.97 1561.84 1143.32 1565.4 Q1138.71 1568.97 1129.76 1568.97 Q1126.39 1568.97 1122.57 1568.2 Q1118.78 1567.44 1114.71 1565.94 L1114.71 1559.32 Q1118.62 1561.52 1122.38 1562.63 Q1126.13 1563.75 1129.76 1563.75 Q1135.27 1563.75 1138.26 1561.58 Q1141.25 1559.42 1141.25 1555.41 Q1141.25 1551.91 1139.09 1549.93 Q1136.96 1547.96 1132.05 1546.97 L1128.14 1546.21 Q1120.95 1544.78 1117.73 1541.72 Q1114.52 1538.67 1114.52 1533.22 Q1114.52 1526.92 1118.94 1523.29 Q1123.4 1519.66 1131.19 1519.66 Q1134.54 1519.66 1138.01 1520.27 Q1141.48 1520.87 1145.1 1522.08 Z" fill="#000000" fill-rule="evenodd" fill-opacity="1" /><path clip-path="url(#clip790)" d="M1157.74 1532.4 L1163.6 1532.4 L1163.6 1568.04 L1157.74 1568.04 L1157.74 1532.4 M1157.74 1518.52 L1163.6 1518.52 L1163.6 1525.93 L1157.74 1525.93 L1157.74 1518.52 Z" fill="#000000" fill-rule="evenodd" fill-opacity="1" /><path clip-path="url(#clip790)" d="M1181.64 1522.27 L1181.64 1532.4 L1193.71 1532.4 L1193.71 1536.95 L1181.64 1536.95 L1181.64 1556.3 Q1181.64 1560.66 1182.82 1561.9 Q1184.03 1563.14 1187.69 1563.14 L1193.71 1563.14 L1193.71 1568.04 L1187.69 1568.04 Q1180.91 1568.04 1178.33 1565.53 Q1175.75 1562.98 1175.75 1556.3 L1175.75 1536.95 L1171.46 1536.95 L1171.46 1532.4 L1175.75 1532.4 L1175.75 1522.27 L1181.64 1522.27 Z" fill="#000000" fill-rule="evenodd" fill-opacity="1" /><path clip-path="url(#clip790)" d="M1231.9 1548.76 L1231.9 1551.62 L1204.97 1551.62 Q1205.36 1557.67 1208.6 1560.85 Q1211.88 1564 1217.7 1564 Q1221.08 1564 1224.23 1563.17 Q1227.41 1562.35 1230.53 1560.69 L1230.53 1566.23 Q1227.38 1567.57 1224.07 1568.27 Q1220.76 1568.97 1217.35 1568.97 Q1208.82 1568.97 1203.83 1564 Q1198.86 1559.04 1198.86 1550.57 Q1198.86 1541.82 1203.57 1536.69 Q1208.32 1531.54 1216.34 1531.54 Q1223.53 1531.54 1227.7 1536.18 Q1231.9 1540.8 1231.9 1548.76 M1226.04 1547.04 Q1225.98 1542.23 1223.34 1539.37 Q1220.73 1536.5 1216.4 1536.5 Q1211.5 1536.5 1208.54 1539.27 Q1205.61 1542.04 1205.16 1547.07 L1226.04 1547.04 Z" fill="#000000" fill-rule="evenodd" fill-opacity="1" /><path clip-path="url(#clip790)" d="M1262.49 1520.52 L1271.14 1520.52 L1292.22 1560.28 L1292.22 1520.52 L1298.45 1520.52 L1298.45 1568.04 L1289.8 1568.04 L1268.73 1528.29 L1268.73 1568.04 L1262.49 1568.04 L1262.49 1520.52 Z" fill="#000000" fill-rule="evenodd" fill-opacity="1" /><path clip-path="url(#clip790)" d="M1310.39 1553.98 L1310.39 1532.4 L1316.25 1532.4 L1316.25 1553.75 Q1316.25 1558.81 1318.22 1561.36 Q1320.19 1563.87 1324.14 1563.87 Q1328.88 1563.87 1331.62 1560.85 Q1334.39 1557.83 1334.39 1552.61 L1334.39 1532.4 L1340.24 1532.4 L1340.24 1568.04 L1334.39 1568.04 L1334.39 1562.57 Q1332.26 1565.82 1329.42 1567.41 Q1326.62 1568.97 1322.9 1568.97 Q1316.76 1568.97 1313.57 1565.15 Q1310.39 1561.33 1310.39 1553.98 M1325.13 1531.54 L1325.13 1531.54 Z" fill="#000000" fill-rule="evenodd" fill-opacity="1" /><path clip-path="url(#clip790)" d="M1380.06 1539.24 Q1382.26 1535.29 1385.31 1533.41 Q1388.37 1531.54 1392.51 1531.54 Q1398.08 1531.54 1401.1 1535.45 Q1404.12 1539.33 1404.12 1546.53 L1404.12 1568.04 L1398.24 1568.04 L1398.24 1546.72 Q1398.24 1541.59 1396.42 1539.11 Q1394.61 1536.63 1390.88 1536.63 Q1386.33 1536.63 1383.69 1539.65 Q1381.05 1542.68 1381.05 1547.9 L1381.05 1568.04 L1375.16 1568.04 L1375.16 1546.72 Q1375.16 1541.56 1373.35 1539.11 Q1371.53 1536.63 1367.74 1536.63 Q1363.26 1536.63 1360.61 1539.68 Q1357.97 1542.71 1357.97 1547.9 L1357.97 1568.04 L1352.08 1568.04 L1352.08 1532.4 L1357.97 1532.4 L1357.97 1537.93 Q1359.98 1534.66 1362.78 1533.1 Q1365.58 1531.54 1369.43 1531.54 Q1373.31 1531.54 1376.02 1533.51 Q1378.76 1535.48 1380.06 1539.24 Z" fill="#000000" fill-rule="evenodd" fill-opacity="1" /><path clip-path="url(#clip790)" d="M1441.4 1550.25 Q1441.4 1543.79 1438.72 1540.13 Q1436.08 1536.44 1431.43 1536.44 Q1426.79 1536.44 1424.11 1540.13 Q1421.47 1543.79 1421.47 1550.25 Q1421.47 1556.71 1424.11 1560.4 Q1426.79 1564.07 1431.43 1564.07 Q1436.08 1564.07 1438.72 1560.4 Q1441.4 1556.71 1441.4 1550.25 M1421.47 1537.81 Q1423.32 1534.62 1426.12 1533.1 Q1428.95 1531.54 1432.87 1531.54 Q1439.36 1531.54 1443.4 1536.69 Q1447.47 1541.85 1447.47 1550.25 Q1447.47 1558.65 1443.4 1563.81 Q1439.36 1568.97 1432.87 1568.97 Q1428.95 1568.97 1426.12 1567.44 Q1423.32 1565.88 1421.47 1562.7 L1421.47 1568.04 L1415.58 1568.04 L1415.58 1518.52 L1421.47 1518.52 L1421.47 1537.81 Z" fill="#000000" fill-rule="evenodd" fill-opacity="1" /><path clip-path="url(#clip790)" d="M1487.67 1548.76 L1487.67 1551.62 L1460.75 1551.62 Q1461.13 1557.67 1464.38 1560.85 Q1467.65 1564 1473.48 1564 Q1476.85 1564 1480 1563.17 Q1483.19 1562.35 1486.31 1560.69 L1486.31 1566.23 Q1483.15 1567.57 1479.84 1568.27 Q1476.53 1568.97 1473.13 1568.97 Q1464.6 1568.97 1459.6 1564 Q1454.64 1559.04 1454.64 1550.57 Q1454.64 1541.82 1459.35 1536.69 Q1464.09 1531.54 1472.11 1531.54 Q1479.3 1531.54 1483.47 1536.18 Q1487.67 1540.8 1487.67 1548.76 M1481.82 1547.04 Q1481.75 1542.23 1479.11 1539.37 Q1476.5 1536.5 1472.17 1536.5 Q1467.27 1536.5 1464.31 1539.27 Q1461.38 1542.04 1460.94 1547.07 L1481.82 1547.04 Z" fill="#000000" fill-rule="evenodd" fill-opacity="1" /><path clip-path="url(#clip790)" d="M1517.94 1537.87 Q1516.96 1537.3 1515.78 1537.04 Q1514.63 1536.76 1513.23 1536.76 Q1508.27 1536.76 1505.59 1540 Q1502.95 1543.22 1502.95 1549.27 L1502.95 1568.04 L1497.06 1568.04 L1497.06 1532.4 L1502.95 1532.4 L1502.95 1537.93 Q1504.8 1534.69 1507.76 1533.13 Q1510.72 1531.54 1514.95 1531.54 Q1515.56 1531.54 1516.29 1531.63 Q1517.02 1531.7 1517.91 1531.85 L1517.94 1537.87 Z" fill="#000000" fill-rule="evenodd" fill-opacity="1" /><polyline clip-path="url(#clip792)" style="stroke:#000000; stroke-linecap:round; stroke-linejoin:round; stroke-width:2; stroke-opacity:0.1; fill:none" points="
  279.704,1423.18 2352.76,1423.18 
  "/>
<polyline clip-path="url(#clip792)" style="stroke:#000000; stroke-linecap:round; stroke-linejoin:round; stroke-width:2; stroke-opacity:0.1; fill:none" points="
  279.704,1098.25 2352.76,1098.25 
  "/>
<polyline clip-path="url(#clip792)" style="stroke:#000000; stroke-linecap:round; stroke-linejoin:round; stroke-width:2; stroke-opacity:0.1; fill:none" points="
  279.704,773.326 2352.76,773.326 
  "/>
<polyline clip-path="url(#clip792)" style="stroke:#000000; stroke-linecap:round; stroke-linejoin:round; stroke-width:2; stroke-opacity:0.1; fill:none" points="
  279.704,448.399 2352.76,448.399 
  "/>
<polyline clip-path="url(#clip792)" style="stroke:#000000; stroke-linecap:round; stroke-linejoin:round; stroke-width:2; stroke-opacity:0.1; fill:none" points="
  279.704,123.472 2352.76,123.472 
  "/>
<polyline clip-path="url(#clip790)" style="stroke:#000000; stroke-linecap:round; stroke-linejoin:round; stroke-width:4; stroke-opacity:1; fill:none" points="
  279.704,1423.18 279.704,123.472 
  "/>
<polyline clip-path="url(#clip790)" style="stroke:#000000; stroke-linecap:round; stroke-linejoin:round; stroke-width:4; stroke-opacity:1; fill:none" points="
  279.704,1423.18 298.602,1423.18 
  "/>
<polyline clip-path="url(#clip790)" style="stroke:#000000; stroke-linecap:round; stroke-linejoin:round; stroke-width:4; stroke-opacity:1; fill:none" points="
  279.704,1098.25 298.602,1098.25 
  "/>
<polyline clip-path="url(#clip790)" style="stroke:#000000; stroke-linecap:round; stroke-linejoin:round; stroke-width:4; stroke-opacity:1; fill:none" points="
  279.704,773.326 298.602,773.326 
  "/>
<polyline clip-path="url(#clip790)" style="stroke:#000000; stroke-linecap:round; stroke-linejoin:round; stroke-width:4; stroke-opacity:1; fill:none" points="
  279.704,448.399 298.602,448.399 
  "/>
<polyline clip-path="url(#clip790)" style="stroke:#000000; stroke-linecap:round; stroke-linejoin:round; stroke-width:4; stroke-opacity:1; fill:none" points="
  279.704,123.472 298.602,123.472 
  "/>
<path clip-path="url(#clip790)" d="M126.205 1408.98 Q122.593 1408.98 120.765 1412.54 Q118.959 1416.08 118.959 1423.21 Q118.959 1430.32 120.765 1433.89 Q122.593 1437.43 126.205 1437.43 Q129.839 1437.43 131.644 1433.89 Q133.473 1430.32 133.473 1423.21 Q133.473 1416.08 131.644 1412.54 Q129.839 1408.98 126.205 1408.98 M126.205 1405.27 Q132.015 1405.27 135.07 1409.88 Q138.149 1414.46 138.149 1423.21 Q138.149 1431.94 135.07 1436.55 Q132.015 1441.13 126.205 1441.13 Q120.394 1441.13 117.316 1436.55 Q114.26 1431.94 114.26 1423.21 Q114.26 1414.46 117.316 1409.88 Q120.394 1405.27 126.205 1405.27 Z" fill="#000000" fill-rule="evenodd" fill-opacity="1" /><path clip-path="url(#clip790)" d="M146.366 1434.58 L151.251 1434.58 L151.251 1440.46 L146.366 1440.46 L146.366 1434.58 Z" fill="#000000" fill-rule="evenodd" fill-opacity="1" /><path clip-path="url(#clip790)" d="M174.283 1409.97 L162.477 1428.42 L174.283 1428.42 L174.283 1409.97 M173.056 1405.9 L178.936 1405.9 L178.936 1428.42 L183.866 1428.42 L183.866 1432.31 L178.936 1432.31 L178.936 1440.46 L174.283 1440.46 L174.283 1432.31 L158.681 1432.31 L158.681 1427.8 L173.056 1405.9 Z" fill="#000000" fill-rule="evenodd" fill-opacity="1" /><path clip-path="url(#clip790)" d="M190.417 1405.9 L212.639 1405.9 L212.639 1407.89 L200.093 1440.46 L195.209 1440.46 L207.014 1409.84 L190.417 1409.84 L190.417 1405.9 Z" fill="#000000" fill-rule="evenodd" fill-opacity="1" /><path clip-path="url(#clip790)" d="M231.76 1408.98 Q228.148 1408.98 226.32 1412.54 Q224.514 1416.08 224.514 1423.21 Q224.514 1430.32 226.32 1433.89 Q228.148 1437.43 231.76 1437.43 Q235.394 1437.43 237.199 1433.89 Q239.028 1430.32 239.028 1423.21 Q239.028 1416.08 237.199 1412.54 Q235.394 1408.98 231.76 1408.98 M231.76 1405.27 Q237.57 1405.27 240.625 1409.88 Q243.704 1414.46 243.704 1423.21 Q243.704 1431.94 240.625 1436.55 Q237.57 1441.13 231.76 1441.13 Q225.949 1441.13 222.871 1436.55 Q219.815 1431.94 219.815 1423.21 Q219.815 1414.46 222.871 1409.88 Q225.949 1405.27 231.76 1405.27 Z" fill="#000000" fill-rule="evenodd" fill-opacity="1" /><path clip-path="url(#clip790)" d="M127.2 1084.05 Q123.589 1084.05 121.76 1087.62 Q119.955 1091.16 119.955 1098.29 Q119.955 1105.39 121.76 1108.96 Q123.589 1112.5 127.2 1112.5 Q130.834 1112.5 132.64 1108.96 Q134.468 1105.39 134.468 1098.29 Q134.468 1091.16 132.64 1087.62 Q130.834 1084.05 127.2 1084.05 M127.2 1080.35 Q133.01 1080.35 136.066 1084.95 Q139.144 1089.54 139.144 1098.29 Q139.144 1107.01 136.066 1111.62 Q133.01 1116.2 127.2 1116.2 Q121.39 1116.2 118.311 1111.62 Q115.256 1107.01 115.256 1098.29 Q115.256 1089.54 118.311 1084.95 Q121.39 1080.35 127.2 1080.35 Z" fill="#000000" fill-rule="evenodd" fill-opacity="1" /><path clip-path="url(#clip790)" d="M147.362 1109.65 L152.246 1109.65 L152.246 1115.53 L147.362 1115.53 L147.362 1109.65 Z" fill="#000000" fill-rule="evenodd" fill-opacity="1" /><path clip-path="url(#clip790)" d="M175.278 1085.05 L163.473 1103.5 L175.278 1103.5 L175.278 1085.05 M174.052 1080.97 L179.931 1080.97 L179.931 1103.5 L184.862 1103.5 L184.862 1107.38 L179.931 1107.38 L179.931 1115.53 L175.278 1115.53 L175.278 1107.38 L159.677 1107.38 L159.677 1102.87 L174.052 1080.97 Z" fill="#000000" fill-rule="evenodd" fill-opacity="1" /><path clip-path="url(#clip790)" d="M191.413 1080.97 L213.635 1080.97 L213.635 1082.96 L201.088 1115.53 L196.204 1115.53 L208.01 1084.91 L191.413 1084.91 L191.413 1080.97 Z" fill="#000000" fill-rule="evenodd" fill-opacity="1" /><path clip-path="url(#clip790)" d="M222.801 1080.97 L241.158 1080.97 L241.158 1084.91 L227.084 1084.91 L227.084 1093.38 Q228.102 1093.03 229.121 1092.87 Q230.139 1092.69 231.158 1092.69 Q236.945 1092.69 240.324 1095.86 Q243.704 1099.03 243.704 1104.45 Q243.704 1110.02 240.232 1113.13 Q236.76 1116.2 230.44 1116.2 Q228.264 1116.2 225.996 1115.83 Q223.75 1115.46 221.343 1114.72 L221.343 1110.02 Q223.426 1111.16 225.648 1111.71 Q227.871 1112.27 230.347 1112.27 Q234.352 1112.27 236.69 1110.16 Q239.028 1108.06 239.028 1104.45 Q239.028 1100.83 236.69 1098.73 Q234.352 1096.62 230.347 1096.62 Q228.473 1096.62 226.598 1097.04 Q224.746 1097.45 222.801 1098.33 L222.801 1080.97 Z" fill="#000000" fill-rule="evenodd" fill-opacity="1" /><path clip-path="url(#clip790)" d="M126.205 759.125 Q122.593 759.125 120.765 762.689 Q118.959 766.231 118.959 773.361 Q118.959 780.467 120.765 784.032 Q122.593 787.574 126.205 787.574 Q129.839 787.574 131.644 784.032 Q133.473 780.467 133.473 773.361 Q133.473 766.231 131.644 762.689 Q129.839 759.125 126.205 759.125 M126.205 755.421 Q132.015 755.421 135.07 760.027 Q138.149 764.611 138.149 773.361 Q138.149 782.088 135.07 786.694 Q132.015 791.277 126.205 791.277 Q120.394 791.277 117.316 786.694 Q114.26 782.088 114.26 773.361 Q114.26 764.611 117.316 760.027 Q120.394 755.421 126.205 755.421 Z" fill="#000000" fill-rule="evenodd" fill-opacity="1" /><path clip-path="url(#clip790)" d="M146.366 784.726 L151.251 784.726 L151.251 790.606 L146.366 790.606 L146.366 784.726 Z" fill="#000000" fill-rule="evenodd" fill-opacity="1" /><path clip-path="url(#clip790)" d="M174.283 760.12 L162.477 778.569 L174.283 778.569 L174.283 760.12 M173.056 756.046 L178.936 756.046 L178.936 778.569 L183.866 778.569 L183.866 782.458 L178.936 782.458 L178.936 790.606 L174.283 790.606 L174.283 782.458 L158.681 782.458 L158.681 777.944 L173.056 756.046 Z" fill="#000000" fill-rule="evenodd" fill-opacity="1" /><path clip-path="url(#clip790)" d="M201.598 774.194 Q198.264 774.194 196.343 775.976 Q194.445 777.759 194.445 780.884 Q194.445 784.009 196.343 785.791 Q198.264 787.574 201.598 787.574 Q204.931 787.574 206.852 785.791 Q208.774 783.986 208.774 780.884 Q208.774 777.759 206.852 775.976 Q204.954 774.194 201.598 774.194 M196.922 772.203 Q193.913 771.463 192.223 769.402 Q190.556 767.342 190.556 764.379 Q190.556 760.236 193.496 757.828 Q196.459 755.421 201.598 755.421 Q206.76 755.421 209.699 757.828 Q212.639 760.236 212.639 764.379 Q212.639 767.342 210.949 769.402 Q209.283 771.463 206.297 772.203 Q209.676 772.99 211.551 775.282 Q213.449 777.574 213.449 780.884 Q213.449 785.907 210.371 788.592 Q207.315 791.277 201.598 791.277 Q195.88 791.277 192.801 788.592 Q189.746 785.907 189.746 780.884 Q189.746 777.574 191.644 775.282 Q193.542 772.99 196.922 772.203 M195.209 764.819 Q195.209 767.504 196.875 769.009 Q198.565 770.513 201.598 770.513 Q204.607 770.513 206.297 769.009 Q208.01 767.504 208.01 764.819 Q208.01 762.134 206.297 760.629 Q204.607 759.125 201.598 759.125 Q198.565 759.125 196.875 760.629 Q195.209 762.134 195.209 764.819 Z" fill="#000000" fill-rule="evenodd" fill-opacity="1" /><path clip-path="url(#clip790)" d="M231.76 759.125 Q228.148 759.125 226.32 762.689 Q224.514 766.231 224.514 773.361 Q224.514 780.467 226.32 784.032 Q228.148 787.574 231.76 787.574 Q235.394 787.574 237.199 784.032 Q239.028 780.467 239.028 773.361 Q239.028 766.231 237.199 762.689 Q235.394 759.125 231.76 759.125 M231.76 755.421 Q237.57 755.421 240.625 760.027 Q243.704 764.611 243.704 773.361 Q243.704 782.088 240.625 786.694 Q237.57 791.277 231.76 791.277 Q225.949 791.277 222.871 786.694 Q219.815 782.088 219.815 773.361 Q219.815 764.611 222.871 760.027 Q225.949 755.421 231.76 755.421 Z" fill="#000000" fill-rule="evenodd" fill-opacity="1" /><path clip-path="url(#clip790)" d="M127.2 434.198 Q123.589 434.198 121.76 437.763 Q119.955 441.304 119.955 448.434 Q119.955 455.54 121.76 459.105 Q123.589 462.647 127.2 462.647 Q130.834 462.647 132.64 459.105 Q134.468 455.54 134.468 448.434 Q134.468 441.304 132.64 437.763 Q130.834 434.198 127.2 434.198 M127.2 430.494 Q133.01 430.494 136.066 435.101 Q139.144 439.684 139.144 448.434 Q139.144 457.161 136.066 461.767 Q133.01 466.35 127.2 466.35 Q121.39 466.35 118.311 461.767 Q115.256 457.161 115.256 448.434 Q115.256 439.684 118.311 435.101 Q121.39 430.494 127.2 430.494 Z" fill="#000000" fill-rule="evenodd" fill-opacity="1" /><path clip-path="url(#clip790)" d="M147.362 459.799 L152.246 459.799 L152.246 465.679 L147.362 465.679 L147.362 459.799 Z" fill="#000000" fill-rule="evenodd" fill-opacity="1" /><path clip-path="url(#clip790)" d="M175.278 435.193 L163.473 453.642 L175.278 453.642 L175.278 435.193 M174.052 431.119 L179.931 431.119 L179.931 453.642 L184.862 453.642 L184.862 457.531 L179.931 457.531 L179.931 465.679 L175.278 465.679 L175.278 457.531 L159.677 457.531 L159.677 453.017 L174.052 431.119 Z" fill="#000000" fill-rule="evenodd" fill-opacity="1" /><path clip-path="url(#clip790)" d="M202.593 449.267 Q199.26 449.267 197.338 451.05 Q195.44 452.832 195.44 455.957 Q195.44 459.082 197.338 460.864 Q199.26 462.647 202.593 462.647 Q205.926 462.647 207.848 460.864 Q209.769 459.059 209.769 455.957 Q209.769 452.832 207.848 451.05 Q205.949 449.267 202.593 449.267 M197.917 447.276 Q194.908 446.536 193.218 444.475 Q191.551 442.415 191.551 439.452 Q191.551 435.309 194.491 432.901 Q197.454 430.494 202.593 430.494 Q207.755 430.494 210.695 432.901 Q213.635 435.309 213.635 439.452 Q213.635 442.415 211.945 444.475 Q210.278 446.536 207.292 447.276 Q210.672 448.063 212.547 450.355 Q214.445 452.647 214.445 455.957 Q214.445 460.98 211.366 463.665 Q208.311 466.35 202.593 466.35 Q196.875 466.35 193.797 463.665 Q190.741 460.98 190.741 455.957 Q190.741 452.647 192.639 450.355 Q194.538 448.063 197.917 447.276 M196.204 439.892 Q196.204 442.577 197.871 444.082 Q199.561 445.587 202.593 445.587 Q205.602 445.587 207.292 444.082 Q209.005 442.577 209.005 439.892 Q209.005 437.207 207.292 435.702 Q205.602 434.198 202.593 434.198 Q199.561 434.198 197.871 435.702 Q196.204 437.207 196.204 439.892 Z" fill="#000000" fill-rule="evenodd" fill-opacity="1" /><path clip-path="url(#clip790)" d="M222.801 431.119 L241.158 431.119 L241.158 435.054 L227.084 435.054 L227.084 443.526 Q228.102 443.179 229.121 443.017 Q230.139 442.832 231.158 442.832 Q236.945 442.832 240.324 446.003 Q243.704 449.175 243.704 454.591 Q243.704 460.17 240.232 463.272 Q236.76 466.35 230.44 466.35 Q228.264 466.35 225.996 465.98 Q223.75 465.61 221.343 464.869 L221.343 460.17 Q223.426 461.304 225.648 461.86 Q227.871 462.415 230.347 462.415 Q234.352 462.415 236.69 460.309 Q239.028 458.202 239.028 454.591 Q239.028 450.98 236.69 448.874 Q234.352 446.767 230.347 446.767 Q228.473 446.767 226.598 447.184 Q224.746 447.6 222.801 448.48 L222.801 431.119 Z" fill="#000000" fill-rule="evenodd" fill-opacity="1" /><path clip-path="url(#clip790)" d="M126.205 109.271 Q122.593 109.271 120.765 112.836 Q118.959 116.377 118.959 123.507 Q118.959 130.613 120.765 134.178 Q122.593 137.72 126.205 137.72 Q129.839 137.72 131.644 134.178 Q133.473 130.613 133.473 123.507 Q133.473 116.377 131.644 112.836 Q129.839 109.271 126.205 109.271 M126.205 105.567 Q132.015 105.567 135.07 110.174 Q138.149 114.757 138.149 123.507 Q138.149 132.234 135.07 136.84 Q132.015 141.423 126.205 141.423 Q120.394 141.423 117.316 136.84 Q114.26 132.234 114.26 123.507 Q114.26 114.757 117.316 110.174 Q120.394 105.567 126.205 105.567 Z" fill="#000000" fill-rule="evenodd" fill-opacity="1" /><path clip-path="url(#clip790)" d="M146.366 134.873 L151.251 134.873 L151.251 140.752 L146.366 140.752 L146.366 134.873 Z" fill="#000000" fill-rule="evenodd" fill-opacity="1" /><path clip-path="url(#clip790)" d="M174.283 110.266 L162.477 128.715 L174.283 128.715 L174.283 110.266 M173.056 106.192 L178.936 106.192 L178.936 128.715 L183.866 128.715 L183.866 132.604 L178.936 132.604 L178.936 140.752 L174.283 140.752 L174.283 132.604 L158.681 132.604 L158.681 128.09 L173.056 106.192 Z" fill="#000000" fill-rule="evenodd" fill-opacity="1" /><path clip-path="url(#clip790)" d="M191.737 140.035 L191.737 135.775 Q193.496 136.609 195.301 137.048 Q197.107 137.488 198.843 137.488 Q203.473 137.488 205.903 134.386 Q208.357 131.261 208.704 124.919 Q207.362 126.91 205.301 127.974 Q203.241 129.039 200.741 129.039 Q195.556 129.039 192.524 125.914 Q189.514 122.766 189.514 117.326 Q189.514 112.002 192.663 108.785 Q195.811 105.567 201.042 105.567 Q207.037 105.567 210.186 110.174 Q213.357 114.757 213.357 123.507 Q213.357 131.678 209.468 136.562 Q205.602 141.423 199.051 141.423 Q197.292 141.423 195.487 141.076 Q193.681 140.729 191.737 140.035 M201.042 125.382 Q204.19 125.382 206.019 123.229 Q207.871 121.076 207.871 117.326 Q207.871 113.599 206.019 111.447 Q204.19 109.271 201.042 109.271 Q197.894 109.271 196.042 111.447 Q194.213 113.599 194.213 117.326 Q194.213 121.076 196.042 123.229 Q197.894 125.382 201.042 125.382 Z" fill="#000000" fill-rule="evenodd" fill-opacity="1" /><path clip-path="url(#clip790)" d="M231.76 109.271 Q228.148 109.271 226.32 112.836 Q224.514 116.377 224.514 123.507 Q224.514 130.613 226.32 134.178 Q228.148 137.72 231.76 137.72 Q235.394 137.72 237.199 134.178 Q239.028 130.613 239.028 123.507 Q239.028 116.377 237.199 112.836 Q235.394 109.271 231.76 109.271 M231.76 105.567 Q237.57 105.567 240.625 110.174 Q243.704 114.757 243.704 123.507 Q243.704 132.234 240.625 136.84 Q237.57 141.423 231.76 141.423 Q225.949 141.423 222.871 136.84 Q219.815 132.234 219.815 123.507 Q219.815 114.757 222.871 110.174 Q225.949 105.567 231.76 105.567 Z" fill="#000000" fill-rule="evenodd" fill-opacity="1" /><path clip-path="url(#clip790)" d="M16.4842 987.834 L16.4842 981.405 L64.0042 981.405 L64.0042 987.834 L16.4842 987.834 Z" fill="#000000" fill-rule="evenodd" fill-opacity="1" /><path clip-path="url(#clip790)" d="M42.4881 939.232 L64.0042 939.232 L64.0042 945.089 L42.679 945.089 Q37.6183 945.089 35.1038 947.062 Q32.5894 949.035 32.5894 952.982 Q32.5894 957.725 35.6131 960.462 Q38.6368 963.199 43.8567 963.199 L64.0042 963.199 L64.0042 969.087 L28.3562 969.087 L28.3562 963.199 L33.8944 963.199 Q30.6797 961.098 29.0883 958.266 Q27.4968 955.401 27.4968 951.677 Q27.4968 945.534 31.3163 942.383 Q35.1038 939.232 42.4881 939.232 Z" fill="#000000" fill-rule="evenodd" fill-opacity="1" /><path clip-path="url(#clip790)" d="M42.4881 897.919 L64.0042 897.919 L64.0042 903.775 L42.679 903.775 Q37.6183 903.775 35.1038 905.749 Q32.5894 907.722 32.5894 911.669 Q32.5894 916.411 35.6131 919.148 Q38.6368 921.886 43.8567 921.886 L64.0042 921.886 L64.0042 927.774 L28.3562 927.774 L28.3562 921.886 L33.8944 921.886 Q30.6797 919.785 29.0883 916.952 Q27.4968 914.088 27.4968 910.364 Q27.4968 904.221 31.3163 901.07 Q35.1038 897.919 42.4881 897.919 Z" fill="#000000" fill-rule="evenodd" fill-opacity="1" /><path clip-path="url(#clip790)" d="M44.7161 855.746 L47.5806 855.746 L47.5806 882.673 Q53.6281 882.291 56.8109 879.044 Q59.9619 875.766 59.9619 869.941 Q59.9619 866.568 59.1344 863.417 Q58.3069 860.234 56.6518 857.115 L62.1899 857.115 Q63.5267 860.266 64.227 863.576 Q64.9272 866.886 64.9272 870.292 Q64.9272 878.822 59.9619 883.819 Q54.9967 888.784 46.5303 888.784 Q37.7774 888.784 32.6531 884.073 Q27.4968 879.331 27.4968 871.31 Q27.4968 864.117 32.1438 859.947 Q36.7589 855.746 44.7161 855.746 M42.9973 861.602 Q38.1912 861.666 35.3266 864.308 Q32.4621 866.918 32.4621 871.246 Q32.4621 876.148 35.2312 879.108 Q38.0002 882.036 43.0292 882.482 L42.9973 861.602 Z" fill="#000000" fill-rule="evenodd" fill-opacity="1" /><path clip-path="url(#clip790)" d="M33.8307 825.477 Q33.2578 826.464 33.0032 827.641 Q32.7167 828.787 32.7167 830.188 Q32.7167 835.153 35.9632 837.827 Q39.1779 840.468 45.2253 840.468 L64.0042 840.468 L64.0042 846.357 L28.3562 846.357 L28.3562 840.468 L33.8944 840.468 Q30.6479 838.622 29.0883 835.662 Q27.4968 832.702 27.4968 828.469 Q27.4968 827.864 27.5923 827.132 Q27.656 826.4 27.8151 825.509 L33.8307 825.477 Z" fill="#000000" fill-rule="evenodd" fill-opacity="1" /><path clip-path="url(#clip790)" d="M21.7677 791.93 L39.6235 791.93 L39.6235 783.845 Q39.6235 779.357 37.3 776.907 Q34.9765 774.456 30.6797 774.456 Q26.4147 774.456 24.0912 776.907 Q21.7677 779.357 21.7677 783.845 L21.7677 791.93 M16.4842 798.359 L16.4842 783.845 Q16.4842 775.856 20.1126 771.782 Q23.7092 767.676 30.6797 767.676 Q37.7138 767.676 41.3104 771.782 Q44.907 775.856 44.907 783.845 L44.907 791.93 L64.0042 791.93 L64.0042 798.359 L16.4842 798.359 Z" fill="#000000" fill-rule="evenodd" fill-opacity="1" /><path clip-path="url(#clip790)" d="M33.8307 739.795 Q33.2578 740.781 33.0032 741.959 Q32.7167 743.105 32.7167 744.505 Q32.7167 749.47 35.9632 752.144 Q39.1779 754.786 45.2253 754.786 L64.0042 754.786 L64.0042 760.674 L28.3562 760.674 L28.3562 754.786 L33.8944 754.786 Q30.6479 752.94 29.0883 749.98 Q27.4968 747.02 27.4968 742.787 Q27.4968 742.182 27.5923 741.45 Q27.656 740.718 27.8151 739.826 L33.8307 739.795 Z" fill="#000000" fill-rule="evenodd" fill-opacity="1" /><path clip-path="url(#clip790)" d="M32.4621 721.27 Q32.4621 725.981 36.1542 728.718 Q39.8145 731.456 46.212 731.456 Q52.6095 731.456 56.3017 728.75 Q59.9619 726.013 59.9619 721.27 Q59.9619 716.592 56.2698 713.854 Q52.5777 711.117 46.212 711.117 Q39.8781 711.117 36.186 713.854 Q32.4621 716.592 32.4621 721.27 M27.4968 721.27 Q27.4968 713.632 32.4621 709.271 Q37.4273 704.911 46.212 704.911 Q54.9649 704.911 59.9619 709.271 Q64.9272 713.632 64.9272 721.27 Q64.9272 728.941 59.9619 733.302 Q54.9649 737.63 46.212 737.63 Q37.4273 737.63 32.4621 733.302 Q27.4968 728.941 27.4968 721.27 Z" fill="#000000" fill-rule="evenodd" fill-opacity="1" /><path clip-path="url(#clip790)" d="M33.7671 671.745 L14.479 671.745 L14.479 665.889 L64.0042 665.889 L64.0042 671.745 L58.657 671.745 Q61.8398 673.591 63.3994 676.424 Q64.9272 679.225 64.9272 683.172 Q64.9272 689.633 59.771 693.707 Q54.6147 697.749 46.212 697.749 Q37.8093 697.749 32.6531 693.707 Q27.4968 689.633 27.4968 683.172 Q27.4968 679.225 29.0564 676.424 Q30.5842 673.591 33.7671 671.745 M46.212 691.702 Q52.6732 691.702 56.3653 689.06 Q60.0256 686.386 60.0256 681.739 Q60.0256 677.092 56.3653 674.419 Q52.6732 671.745 46.212 671.745 Q39.7508 671.745 36.0905 674.419 Q32.3984 677.092 32.3984 681.739 Q32.3984 686.386 36.0905 689.06 Q39.7508 691.702 46.212 691.702 Z" fill="#000000" fill-rule="evenodd" fill-opacity="1" /><path clip-path="url(#clip790)" d="M49.9359 654.43 L28.3562 654.43 L28.3562 648.574 L49.7131 648.574 Q54.7739 648.574 57.3202 646.601 Q59.8346 644.627 59.8346 640.681 Q59.8346 635.938 56.8109 633.201 Q53.7872 630.432 48.5673 630.432 L28.3562 630.432 L28.3562 624.575 L64.0042 624.575 L64.0042 630.432 L58.5296 630.432 Q61.7762 632.564 63.3676 635.397 Q64.9272 638.198 64.9272 641.922 Q64.9272 648.065 61.1078 651.248 Q57.2883 654.43 49.9359 654.43 M27.4968 639.694 L27.4968 639.694 Z" fill="#000000" fill-rule="evenodd" fill-opacity="1" /><path clip-path="url(#clip790)" d="M29.7248 586.859 L35.1993 586.859 Q33.8307 589.341 33.1623 591.856 Q32.4621 594.338 32.4621 596.885 Q32.4621 602.582 36.0905 605.733 Q39.6872 608.884 46.212 608.884 Q52.7369 608.884 56.3653 605.733 Q59.9619 602.582 59.9619 596.885 Q59.9619 594.338 59.2935 591.856 Q58.5933 589.341 57.2247 586.859 L62.6355 586.859 Q63.7814 589.309 64.3543 591.951 Q64.9272 594.561 64.9272 597.521 Q64.9272 605.574 59.8664 610.316 Q54.8057 615.059 46.212 615.059 Q37.491 615.059 32.4939 610.284 Q27.4968 605.478 27.4968 597.139 Q27.4968 594.434 28.0697 591.856 Q28.6108 589.277 29.7248 586.859 Z" fill="#000000" fill-rule="evenodd" fill-opacity="1" /><path clip-path="url(#clip790)" d="M18.2347 570.881 L28.3562 570.881 L28.3562 558.818 L32.9077 558.818 L32.9077 570.881 L52.2594 570.881 Q56.6199 570.881 57.8613 569.703 Q59.1026 568.493 59.1026 564.833 L59.1026 558.818 L64.0042 558.818 L64.0042 564.833 Q64.0042 571.613 61.4897 574.191 Q58.9434 576.769 52.2594 576.769 L32.9077 576.769 L32.9077 581.066 L28.3562 581.066 L28.3562 576.769 L18.2347 576.769 L18.2347 570.881 Z" fill="#000000" fill-rule="evenodd" fill-opacity="1" /><path clip-path="url(#clip790)" d="M1185.81 17.6457 Q1176.9 17.6457 1171.63 24.2892 Q1166.41 30.9327 1166.41 42.3968 Q1166.41 53.8203 1171.63 60.4638 Q1176.9 67.1073 1185.81 67.1073 Q1194.72 67.1073 1199.91 60.4638 Q1205.13 53.8203 1205.13 42.3968 Q1205.13 30.9327 1199.91 24.2892 Q1194.72 17.6457 1185.81 17.6457 M1185.81 11.0023 Q1198.53 11.0023 1206.15 19.5497 Q1213.76 28.0566 1213.76 42.3968 Q1213.76 56.6965 1206.15 65.2439 Q1198.53 73.7508 1185.81 73.7508 Q1173.05 73.7508 1165.39 65.2439 Q1157.78 56.737 1157.78 42.3968 Q1157.78 28.0566 1165.39 19.5497 Q1173.05 11.0023 1185.81 11.0023 Z" fill="#000000" fill-rule="evenodd" fill-opacity="1" /><path clip-path="url(#clip790)" d="M1220.89 27.2059 L1228.79 27.2059 L1242.97 65.2844 L1257.15 27.2059 L1265.05 27.2059 L1248.03 72.576 L1237.91 72.576 L1220.89 27.2059 Z" fill="#000000" fill-rule="evenodd" fill-opacity="1" /><path clip-path="url(#clip790)" d="M1314.14 48.0275 L1314.14 51.6733 L1279.87 51.6733 Q1280.36 59.3701 1284.49 63.421 Q1288.66 67.4314 1296.08 67.4314 Q1300.37 67.4314 1304.38 66.3781 Q1308.43 65.3249 1312.4 63.2184 L1312.4 70.267 Q1308.39 71.9684 1304.18 72.8596 Q1299.97 73.7508 1295.63 73.7508 Q1284.77 73.7508 1278.41 67.4314 Q1272.1 61.1119 1272.1 50.3365 Q1272.1 39.1965 1278.09 32.6746 Q1284.13 26.1121 1294.33 26.1121 Q1303.49 26.1121 1308.8 32.0264 Q1314.14 37.9003 1314.14 48.0275 M1306.69 45.84 Q1306.61 39.7232 1303.25 36.0774 Q1299.93 32.4315 1294.42 32.4315 Q1288.18 32.4315 1284.41 35.9558 Q1280.68 39.4801 1280.12 45.8805 L1306.69 45.84 Z" fill="#000000" fill-rule="evenodd" fill-opacity="1" /><path clip-path="url(#clip790)" d="M1352.67 34.1734 Q1351.41 33.4443 1349.91 33.1202 Q1348.45 32.7556 1346.67 32.7556 Q1340.35 32.7556 1336.95 36.8875 Q1333.59 40.9789 1333.59 48.6757 L1333.59 72.576 L1326.09 72.576 L1326.09 27.2059 L1333.59 27.2059 L1333.59 34.2544 Q1335.94 30.1225 1339.7 28.1376 Q1343.47 26.1121 1348.86 26.1121 Q1349.63 26.1121 1350.56 26.2337 Q1351.49 26.3147 1352.63 26.5172 L1352.67 34.1734 Z" fill="#000000" fill-rule="evenodd" fill-opacity="1" /><path clip-path="url(#clip790)" d="M1360.49 9.54393 L1367.94 9.54393 L1367.94 72.576 L1360.49 72.576 L1360.49 9.54393 Z" fill="#000000" fill-rule="evenodd" fill-opacity="1" /><path clip-path="url(#clip790)" d="M1404.15 49.7694 Q1395.12 49.7694 1391.64 51.8354 Q1388.15 53.9013 1388.15 58.8839 Q1388.15 62.8538 1390.75 65.2034 Q1393.38 67.5124 1397.88 67.5124 Q1404.07 67.5124 1407.8 63.1374 Q1411.57 58.7219 1411.57 51.4303 L1411.57 49.7694 L1404.15 49.7694 M1419.02 46.6907 L1419.02 72.576 L1411.57 72.576 L1411.57 65.6895 Q1409.02 69.8214 1405.21 71.8063 Q1401.4 73.7508 1395.89 73.7508 Q1388.92 73.7508 1384.79 69.8619 Q1380.7 65.9325 1380.7 59.3701 Q1380.7 51.7138 1385.8 47.825 Q1390.95 43.9361 1401.12 43.9361 L1411.57 43.9361 L1411.57 43.2069 Q1411.57 38.0623 1408.17 35.2672 Q1404.8 32.4315 1398.69 32.4315 Q1394.8 32.4315 1391.11 33.3632 Q1387.42 34.295 1384.02 36.1584 L1384.02 29.2718 Q1388.11 27.692 1391.96 26.9223 Q1395.81 26.1121 1399.46 26.1121 Q1409.3 26.1121 1414.16 31.2163 Q1419.02 36.3204 1419.02 46.6907 Z" fill="#000000" fill-rule="evenodd" fill-opacity="1" /><path clip-path="url(#clip790)" d="M1441.59 65.7705 L1441.59 89.8329 L1434.09 89.8329 L1434.09 27.2059 L1441.59 27.2059 L1441.59 34.0924 Q1443.93 30.0415 1447.5 28.0971 Q1451.1 26.1121 1456.09 26.1121 Q1464.35 26.1121 1469.5 32.6746 Q1474.68 39.2371 1474.68 49.9314 Q1474.68 60.6258 1469.5 67.1883 Q1464.35 73.7508 1456.09 73.7508 Q1451.1 73.7508 1447.5 71.8063 Q1443.93 69.8214 1441.59 65.7705 M1466.94 49.9314 Q1466.94 41.7081 1463.54 37.0496 Q1460.18 32.3505 1454.26 32.3505 Q1448.35 32.3505 1444.95 37.0496 Q1441.59 41.7081 1441.59 49.9314 Q1441.59 58.1548 1444.95 62.8538 Q1448.35 67.5124 1454.26 67.5124 Q1460.18 67.5124 1463.54 62.8538 Q1466.94 58.1548 1466.94 49.9314 Z" fill="#000000" fill-rule="evenodd" fill-opacity="1" /><polyline clip-path="url(#clip792)" style="stroke:#000000; stroke-linecap:round; stroke-linejoin:round; stroke-width:4; stroke-opacity:1; fill:none" points="
  348.806,879.993 348.806,879.987 
  "/>
<polyline clip-path="url(#clip792)" style="stroke:#000000; stroke-linecap:round; stroke-linejoin:round; stroke-width:4; stroke-opacity:1; fill:none" points="
  417.907,1131.65 417.907,1131.63 
  "/>
<polyline clip-path="url(#clip792)" style="stroke:#000000; stroke-linecap:round; stroke-linejoin:round; stroke-width:4; stroke-opacity:1; fill:none" points="
  487.009,974.075 487.009,974.062 
  "/>
<polyline clip-path="url(#clip792)" style="stroke:#000000; stroke-linecap:round; stroke-linejoin:round; stroke-width:4; stroke-opacity:1; fill:none" points="
  556.111,1082.43 556.111,1082.39 
  "/>
<polyline clip-path="url(#clip792)" style="stroke:#000000; stroke-linecap:round; stroke-linejoin:round; stroke-width:4; stroke-opacity:1; fill:none" points="
  625.213,979.23 625.213,979.19 
  "/>
<polyline clip-path="url(#clip792)" style="stroke:#000000; stroke-linecap:round; stroke-linejoin:round; stroke-width:4; stroke-opacity:1; fill:none" points="
  694.314,1075.58 694.314,1075.56 
  "/>
<polyline clip-path="url(#clip792)" style="stroke:#000000; stroke-linecap:round; stroke-linejoin:round; stroke-width:4; stroke-opacity:1; fill:none" points="
  763.416,979.313 763.416,979.271 
  "/>
<polyline clip-path="url(#clip792)" style="stroke:#000000; stroke-linecap:round; stroke-linejoin:round; stroke-width:4; stroke-opacity:1; fill:none" points="
  832.518,1074.57 832.518,1074.54 
  "/>
<polyline clip-path="url(#clip792)" style="stroke:#000000; stroke-linecap:round; stroke-linejoin:round; stroke-width:4; stroke-opacity:1; fill:none" points="
  901.62,979.252 901.62,979.222 
  "/>
<polyline clip-path="url(#clip792)" style="stroke:#000000; stroke-linecap:round; stroke-linejoin:round; stroke-width:4; stroke-opacity:1; fill:none" points="
  970.721,1074.41 970.721,1074.38 
  "/>
<polyline clip-path="url(#clip792)" style="stroke:#000000; stroke-linecap:round; stroke-linejoin:round; stroke-width:4; stroke-opacity:1; fill:none" points="
  1039.82,979.245 1039.82,979.197 
  "/>
<polyline clip-path="url(#clip792)" style="stroke:#000000; stroke-linecap:round; stroke-linejoin:round; stroke-width:4; stroke-opacity:1; fill:none" points="
  1108.92,1074.4 1108.92,1074.34 
  "/>
<polyline clip-path="url(#clip792)" style="stroke:#000000; stroke-linecap:round; stroke-linejoin:round; stroke-width:4; stroke-opacity:1; fill:none" points="
  1178.03,979.237 1178.03,979.198 
  "/>
<polyline clip-path="url(#clip792)" style="stroke:#000000; stroke-linecap:round; stroke-linejoin:round; stroke-width:4; stroke-opacity:1; fill:none" points="
  1247.13,1074.43 1247.13,1074.3 
  "/>
<polyline clip-path="url(#clip792)" style="stroke:#000000; stroke-linecap:round; stroke-linejoin:round; stroke-width:4; stroke-opacity:1; fill:none" points="
  1316.23,979.244 1316.23,979.19 
  "/>
<polyline clip-path="url(#clip792)" style="stroke:#000000; stroke-linecap:round; stroke-linejoin:round; stroke-width:4; stroke-opacity:1; fill:none" points="
  1385.33,1074.41 1385.33,1074.32 
  "/>
<polyline clip-path="url(#clip792)" style="stroke:#000000; stroke-linecap:round; stroke-linejoin:round; stroke-width:4; stroke-opacity:1; fill:none" points="
  1454.43,979.263 1454.43,979.17 
  "/>
<polyline clip-path="url(#clip792)" style="stroke:#000000; stroke-linecap:round; stroke-linejoin:round; stroke-width:4; stroke-opacity:1; fill:none" points="
  1523.54,1074.43 1523.54,1074.31 
  "/>
<polyline clip-path="url(#clip792)" style="stroke:#000000; stroke-linecap:round; stroke-linejoin:round; stroke-width:4; stroke-opacity:1; fill:none" points="
  1592.64,979.277 1592.64,979.157 
  "/>
<polyline clip-path="url(#clip792)" style="stroke:#000000; stroke-linecap:round; stroke-linejoin:round; stroke-width:4; stroke-opacity:1; fill:none" points="
  1661.74,1074.42 1661.74,1074.31 
  "/>
<polyline clip-path="url(#clip792)" style="stroke:#000000; stroke-linecap:round; stroke-linejoin:round; stroke-width:4; stroke-opacity:1; fill:none" points="
  1730.84,979.364 1730.84,979.069 
  "/>
<polyline clip-path="url(#clip792)" style="stroke:#000000; stroke-linecap:round; stroke-linejoin:round; stroke-width:4; stroke-opacity:1; fill:none" points="
  1799.94,1074.41 1799.94,1074.32 
  "/>
<polyline clip-path="url(#clip792)" style="stroke:#000000; stroke-linecap:round; stroke-linejoin:round; stroke-width:4; stroke-opacity:1; fill:none" points="
  1869.04,979.367 1869.04,979.066 
  "/>
<polyline clip-path="url(#clip792)" style="stroke:#000000; stroke-linecap:round; stroke-linejoin:round; stroke-width:4; stroke-opacity:1; fill:none" points="
  1938.15,1074.58 1938.15,1074.15 
  "/>
<polyline clip-path="url(#clip792)" style="stroke:#000000; stroke-linecap:round; stroke-linejoin:round; stroke-width:4; stroke-opacity:1; fill:none" points="
  2007.25,979.341 2007.25,979.092 
  "/>
<polyline clip-path="url(#clip792)" style="stroke:#000000; stroke-linecap:round; stroke-linejoin:round; stroke-width:4; stroke-opacity:1; fill:none" points="
  2076.35,1074.56 2076.35,1074.17 
  "/>
<polyline clip-path="url(#clip792)" style="stroke:#000000; stroke-linecap:round; stroke-linejoin:round; stroke-width:4; stroke-opacity:1; fill:none" points="
  2145.45,979.32 2145.45,979.113 
  "/>
<line clip-path="url(#clip792)" x1="356.806" y1="879.993" x2="340.806" y2="879.993" style="stroke:#000000; stroke-width:3.2; stroke-opacity:1"/>
<line clip-path="url(#clip792)" x1="356.806" y1="879.987" x2="340.806" y2="879.987" style="stroke:#000000; stroke-width:3.2; stroke-opacity:1"/>
<line clip-path="url(#clip792)" x1="425.907" y1="1131.65" x2="409.907" y2="1131.65" style="stroke:#000000; stroke-width:3.2; stroke-opacity:1"/>
<line clip-path="url(#clip792)" x1="425.907" y1="1131.63" x2="409.907" y2="1131.63" style="stroke:#000000; stroke-width:3.2; stroke-opacity:1"/>
<line clip-path="url(#clip792)" x1="495.009" y1="974.075" x2="479.009" y2="974.075" style="stroke:#000000; stroke-width:3.2; stroke-opacity:1"/>
<line clip-path="url(#clip792)" x1="495.009" y1="974.062" x2="479.009" y2="974.062" style="stroke:#000000; stroke-width:3.2; stroke-opacity:1"/>
<line clip-path="url(#clip792)" x1="564.111" y1="1082.43" x2="548.111" y2="1082.43" style="stroke:#000000; stroke-width:3.2; stroke-opacity:1"/>
<line clip-path="url(#clip792)" x1="564.111" y1="1082.39" x2="548.111" y2="1082.39" style="stroke:#000000; stroke-width:3.2; stroke-opacity:1"/>
<line clip-path="url(#clip792)" x1="633.213" y1="979.23" x2="617.213" y2="979.23" style="stroke:#000000; stroke-width:3.2; stroke-opacity:1"/>
<line clip-path="url(#clip792)" x1="633.213" y1="979.19" x2="617.213" y2="979.19" style="stroke:#000000; stroke-width:3.2; stroke-opacity:1"/>
<line clip-path="url(#clip792)" x1="702.314" y1="1075.58" x2="686.314" y2="1075.58" style="stroke:#000000; stroke-width:3.2; stroke-opacity:1"/>
<line clip-path="url(#clip792)" x1="702.314" y1="1075.56" x2="686.314" y2="1075.56" style="stroke:#000000; stroke-width:3.2; stroke-opacity:1"/>
<line clip-path="url(#clip792)" x1="771.416" y1="979.313" x2="755.416" y2="979.313" style="stroke:#000000; stroke-width:3.2; stroke-opacity:1"/>
<line clip-path="url(#clip792)" x1="771.416" y1="979.271" x2="755.416" y2="979.271" style="stroke:#000000; stroke-width:3.2; stroke-opacity:1"/>
<line clip-path="url(#clip792)" x1="840.518" y1="1074.57" x2="824.518" y2="1074.57" style="stroke:#000000; stroke-width:3.2; stroke-opacity:1"/>
<line clip-path="url(#clip792)" x1="840.518" y1="1074.54" x2="824.518" y2="1074.54" style="stroke:#000000; stroke-width:3.2; stroke-opacity:1"/>
<line clip-path="url(#clip792)" x1="909.62" y1="979.252" x2="893.62" y2="979.252" style="stroke:#000000; stroke-width:3.2; stroke-opacity:1"/>
<line clip-path="url(#clip792)" x1="909.62" y1="979.222" x2="893.62" y2="979.222" style="stroke:#000000; stroke-width:3.2; stroke-opacity:1"/>
<line clip-path="url(#clip792)" x1="978.721" y1="1074.41" x2="962.721" y2="1074.41" style="stroke:#000000; stroke-width:3.2; stroke-opacity:1"/>
<line clip-path="url(#clip792)" x1="978.721" y1="1074.38" x2="962.721" y2="1074.38" style="stroke:#000000; stroke-width:3.2; stroke-opacity:1"/>
<line clip-path="url(#clip792)" x1="1047.82" y1="979.245" x2="1031.82" y2="979.245" style="stroke:#000000; stroke-width:3.2; stroke-opacity:1"/>
<line clip-path="url(#clip792)" x1="1047.82" y1="979.197" x2="1031.82" y2="979.197" style="stroke:#000000; stroke-width:3.2; stroke-opacity:1"/>
<line clip-path="url(#clip792)" x1="1116.92" y1="1074.4" x2="1100.92" y2="1074.4" style="stroke:#000000; stroke-width:3.2; stroke-opacity:1"/>
<line clip-path="url(#clip792)" x1="1116.92" y1="1074.34" x2="1100.92" y2="1074.34" style="stroke:#000000; stroke-width:3.2; stroke-opacity:1"/>
<line clip-path="url(#clip792)" x1="1186.03" y1="979.237" x2="1170.03" y2="979.237" style="stroke:#000000; stroke-width:3.2; stroke-opacity:1"/>
<line clip-path="url(#clip792)" x1="1186.03" y1="979.198" x2="1170.03" y2="979.198" style="stroke:#000000; stroke-width:3.2; stroke-opacity:1"/>
<line clip-path="url(#clip792)" x1="1255.13" y1="1074.43" x2="1239.13" y2="1074.43" style="stroke:#000000; stroke-width:3.2; stroke-opacity:1"/>
<line clip-path="url(#clip792)" x1="1255.13" y1="1074.3" x2="1239.13" y2="1074.3" style="stroke:#000000; stroke-width:3.2; stroke-opacity:1"/>
<line clip-path="url(#clip792)" x1="1324.23" y1="979.244" x2="1308.23" y2="979.244" style="stroke:#000000; stroke-width:3.2; stroke-opacity:1"/>
<line clip-path="url(#clip792)" x1="1324.23" y1="979.19" x2="1308.23" y2="979.19" style="stroke:#000000; stroke-width:3.2; stroke-opacity:1"/>
<line clip-path="url(#clip792)" x1="1393.33" y1="1074.41" x2="1377.33" y2="1074.41" style="stroke:#000000; stroke-width:3.2; stroke-opacity:1"/>
<line clip-path="url(#clip792)" x1="1393.33" y1="1074.32" x2="1377.33" y2="1074.32" style="stroke:#000000; stroke-width:3.2; stroke-opacity:1"/>
<line clip-path="url(#clip792)" x1="1462.43" y1="979.263" x2="1446.43" y2="979.263" style="stroke:#000000; stroke-width:3.2; stroke-opacity:1"/>
<line clip-path="url(#clip792)" x1="1462.43" y1="979.17" x2="1446.43" y2="979.17" style="stroke:#000000; stroke-width:3.2; stroke-opacity:1"/>
<line clip-path="url(#clip792)" x1="1531.54" y1="1074.43" x2="1515.54" y2="1074.43" style="stroke:#000000; stroke-width:3.2; stroke-opacity:1"/>
<line clip-path="url(#clip792)" x1="1531.54" y1="1074.31" x2="1515.54" y2="1074.31" style="stroke:#000000; stroke-width:3.2; stroke-opacity:1"/>
<line clip-path="url(#clip792)" x1="1600.64" y1="979.277" x2="1584.64" y2="979.277" style="stroke:#000000; stroke-width:3.2; stroke-opacity:1"/>
<line clip-path="url(#clip792)" x1="1600.64" y1="979.157" x2="1584.64" y2="979.157" style="stroke:#000000; stroke-width:3.2; stroke-opacity:1"/>
<line clip-path="url(#clip792)" x1="1669.74" y1="1074.42" x2="1653.74" y2="1074.42" style="stroke:#000000; stroke-width:3.2; stroke-opacity:1"/>
<line clip-path="url(#clip792)" x1="1669.74" y1="1074.31" x2="1653.74" y2="1074.31" style="stroke:#000000; stroke-width:3.2; stroke-opacity:1"/>
<line clip-path="url(#clip792)" x1="1738.84" y1="979.364" x2="1722.84" y2="979.364" style="stroke:#000000; stroke-width:3.2; stroke-opacity:1"/>
<line clip-path="url(#clip792)" x1="1738.84" y1="979.069" x2="1722.84" y2="979.069" style="stroke:#000000; stroke-width:3.2; stroke-opacity:1"/>
<line clip-path="url(#clip792)" x1="1807.94" y1="1074.41" x2="1791.94" y2="1074.41" style="stroke:#000000; stroke-width:3.2; stroke-opacity:1"/>
<line clip-path="url(#clip792)" x1="1807.94" y1="1074.32" x2="1791.94" y2="1074.32" style="stroke:#000000; stroke-width:3.2; stroke-opacity:1"/>
<line clip-path="url(#clip792)" x1="1877.04" y1="979.367" x2="1861.04" y2="979.367" style="stroke:#000000; stroke-width:3.2; stroke-opacity:1"/>
<line clip-path="url(#clip792)" x1="1877.04" y1="979.066" x2="1861.04" y2="979.066" style="stroke:#000000; stroke-width:3.2; stroke-opacity:1"/>
<line clip-path="url(#clip792)" x1="1946.15" y1="1074.58" x2="1930.15" y2="1074.58" style="stroke:#000000; stroke-width:3.2; stroke-opacity:1"/>
<line clip-path="url(#clip792)" x1="1946.15" y1="1074.15" x2="1930.15" y2="1074.15" style="stroke:#000000; stroke-width:3.2; stroke-opacity:1"/>
<line clip-path="url(#clip792)" x1="2015.25" y1="979.341" x2="1999.25" y2="979.341" style="stroke:#000000; stroke-width:3.2; stroke-opacity:1"/>
<line clip-path="url(#clip792)" x1="2015.25" y1="979.092" x2="1999.25" y2="979.092" style="stroke:#000000; stroke-width:3.2; stroke-opacity:1"/>
<line clip-path="url(#clip792)" x1="2084.35" y1="1074.56" x2="2068.35" y2="1074.56" style="stroke:#000000; stroke-width:3.2; stroke-opacity:1"/>
<line clip-path="url(#clip792)" x1="2084.35" y1="1074.17" x2="2068.35" y2="1074.17" style="stroke:#000000; stroke-width:3.2; stroke-opacity:1"/>
<line clip-path="url(#clip792)" x1="2153.45" y1="979.32" x2="2137.45" y2="979.32" style="stroke:#000000; stroke-width:3.2; stroke-opacity:1"/>
<line clip-path="url(#clip792)" x1="2153.45" y1="979.113" x2="2137.45" y2="979.113" style="stroke:#000000; stroke-width:3.2; stroke-opacity:1"/>
<circle clip-path="url(#clip792)" cx="348.806" cy="879.99" r="7.2" fill="#009af9" fill-rule="evenodd" fill-opacity="1" stroke="#000000" stroke-opacity="1" stroke-width="3.2"/>
<circle clip-path="url(#clip792)" cx="417.907" cy="1131.64" r="7.2" fill="#009af9" fill-rule="evenodd" fill-opacity="1" stroke="#000000" stroke-opacity="1" stroke-width="3.2"/>
<circle clip-path="url(#clip792)" cx="487.009" cy="974.068" r="7.2" fill="#009af9" fill-rule="evenodd" fill-opacity="1" stroke="#000000" stroke-opacity="1" stroke-width="3.2"/>
<circle clip-path="url(#clip792)" cx="556.111" cy="1082.41" r="7.2" fill="#009af9" fill-rule="evenodd" fill-opacity="1" stroke="#000000" stroke-opacity="1" stroke-width="3.2"/>
<circle clip-path="url(#clip792)" cx="625.213" cy="979.21" r="7.2" fill="#009af9" fill-rule="evenodd" fill-opacity="1" stroke="#000000" stroke-opacity="1" stroke-width="3.2"/>
<circle clip-path="url(#clip792)" cx="694.314" cy="1075.57" r="7.2" fill="#009af9" fill-rule="evenodd" fill-opacity="1" stroke="#000000" stroke-opacity="1" stroke-width="3.2"/>
<circle clip-path="url(#clip792)" cx="763.416" cy="979.292" r="7.2" fill="#009af9" fill-rule="evenodd" fill-opacity="1" stroke="#000000" stroke-opacity="1" stroke-width="3.2"/>
<circle clip-path="url(#clip792)" cx="832.518" cy="1074.55" r="7.2" fill="#009af9" fill-rule="evenodd" fill-opacity="1" stroke="#000000" stroke-opacity="1" stroke-width="3.2"/>
<circle clip-path="url(#clip792)" cx="901.62" cy="979.237" r="7.2" fill="#009af9" fill-rule="evenodd" fill-opacity="1" stroke="#000000" stroke-opacity="1" stroke-width="3.2"/>
<circle clip-path="url(#clip792)" cx="970.721" cy="1074.4" r="7.2" fill="#009af9" fill-rule="evenodd" fill-opacity="1" stroke="#000000" stroke-opacity="1" stroke-width="3.2"/>
<circle clip-path="url(#clip792)" cx="1039.82" cy="979.221" r="7.2" fill="#009af9" fill-rule="evenodd" fill-opacity="1" stroke="#000000" stroke-opacity="1" stroke-width="3.2"/>
<circle clip-path="url(#clip792)" cx="1108.92" cy="1074.37" r="7.2" fill="#009af9" fill-rule="evenodd" fill-opacity="1" stroke="#000000" stroke-opacity="1" stroke-width="3.2"/>
<circle clip-path="url(#clip792)" cx="1178.03" cy="979.218" r="7.2" fill="#009af9" fill-rule="evenodd" fill-opacity="1" stroke="#000000" stroke-opacity="1" stroke-width="3.2"/>
<circle clip-path="url(#clip792)" cx="1247.13" cy="1074.37" r="7.2" fill="#009af9" fill-rule="evenodd" fill-opacity="1" stroke="#000000" stroke-opacity="1" stroke-width="3.2"/>
<circle clip-path="url(#clip792)" cx="1316.23" cy="979.217" r="7.2" fill="#009af9" fill-rule="evenodd" fill-opacity="1" stroke="#000000" stroke-opacity="1" stroke-width="3.2"/>
<circle clip-path="url(#clip792)" cx="1385.33" cy="1074.37" r="7.2" fill="#009af9" fill-rule="evenodd" fill-opacity="1" stroke="#000000" stroke-opacity="1" stroke-width="3.2"/>
<circle clip-path="url(#clip792)" cx="1454.43" cy="979.217" r="7.2" fill="#009af9" fill-rule="evenodd" fill-opacity="1" stroke="#000000" stroke-opacity="1" stroke-width="3.2"/>
<circle clip-path="url(#clip792)" cx="1523.54" cy="1074.37" r="7.2" fill="#009af9" fill-rule="evenodd" fill-opacity="1" stroke="#000000" stroke-opacity="1" stroke-width="3.2"/>
<circle clip-path="url(#clip792)" cx="1592.64" cy="979.217" r="7.2" fill="#009af9" fill-rule="evenodd" fill-opacity="1" stroke="#000000" stroke-opacity="1" stroke-width="3.2"/>
<circle clip-path="url(#clip792)" cx="1661.74" cy="1074.37" r="7.2" fill="#009af9" fill-rule="evenodd" fill-opacity="1" stroke="#000000" stroke-opacity="1" stroke-width="3.2"/>
<circle clip-path="url(#clip792)" cx="1730.84" cy="979.217" r="7.2" fill="#009af9" fill-rule="evenodd" fill-opacity="1" stroke="#000000" stroke-opacity="1" stroke-width="3.2"/>
<circle clip-path="url(#clip792)" cx="1799.94" cy="1074.37" r="7.2" fill="#009af9" fill-rule="evenodd" fill-opacity="1" stroke="#000000" stroke-opacity="1" stroke-width="3.2"/>
<circle clip-path="url(#clip792)" cx="1869.04" cy="979.217" r="7.2" fill="#009af9" fill-rule="evenodd" fill-opacity="1" stroke="#000000" stroke-opacity="1" stroke-width="3.2"/>
<circle clip-path="url(#clip792)" cx="1938.15" cy="1074.37" r="7.2" fill="#009af9" fill-rule="evenodd" fill-opacity="1" stroke="#000000" stroke-opacity="1" stroke-width="3.2"/>
<circle clip-path="url(#clip792)" cx="2007.25" cy="979.217" r="7.2" fill="#009af9" fill-rule="evenodd" fill-opacity="1" stroke="#000000" stroke-opacity="1" stroke-width="3.2"/>
<circle clip-path="url(#clip792)" cx="2076.35" cy="1074.37" r="7.2" fill="#009af9" fill-rule="evenodd" fill-opacity="1" stroke="#000000" stroke-opacity="1" stroke-width="3.2"/>
<circle clip-path="url(#clip792)" cx="2145.45" cy="979.217" r="7.2" fill="#009af9" fill-rule="evenodd" fill-opacity="1" stroke="#000000" stroke-opacity="1" stroke-width="3.2"/>
<path clip-path="url(#clip790)" d="
M1717.58 270.476 L2283.65 270.476 L2283.65 166.796 L1717.58 166.796  Z
  " fill="#ffffff" fill-rule="evenodd" fill-opacity="1"/>
<polyline clip-path="url(#clip790)" style="stroke:#000000; stroke-linecap:round; stroke-linejoin:round; stroke-width:4; stroke-opacity:1; fill:none" points="
  1717.58,270.476 2283.65,270.476 2283.65,166.796 1717.58,166.796 1717.58,270.476 
  "/>
<circle clip-path="url(#clip790)" cx="1809.71" cy="218.636" r="23.04" fill="#009af9" fill-rule="evenodd" fill-opacity="1" stroke="#000000" stroke-opacity="1" stroke-width="10.24"/>
<path clip-path="url(#clip790)" d="M1922.2 214.967 Q1923.79 212.096 1926.02 210.731 Q1928.24 209.365 1931.25 209.365 Q1935.3 209.365 1937.5 212.212 Q1939.7 215.036 1939.7 220.268 L1939.7 235.916 L1935.41 235.916 L1935.41 220.407 Q1935.41 216.68 1934.09 214.874 Q1932.77 213.069 1930.07 213.069 Q1926.76 213.069 1924.84 215.268 Q1922.91 217.467 1922.91 221.263 L1922.91 235.916 L1918.63 235.916 L1918.63 220.407 Q1918.63 216.657 1917.31 214.874 Q1915.99 213.069 1913.24 213.069 Q1909.97 213.069 1908.05 215.291 Q1906.13 217.49 1906.13 221.263 L1906.13 235.916 L1901.85 235.916 L1901.85 209.99 L1906.13 209.99 L1906.13 214.018 Q1907.59 211.633 1909.63 210.499 Q1911.66 209.365 1914.46 209.365 Q1917.29 209.365 1919.26 210.8 Q1921.25 212.235 1922.2 214.967 Z" fill="#000000" fill-rule="evenodd" fill-opacity="1" /><path clip-path="url(#clip790)" d="M1956.92 220.245 Q1955.76 218.254 1953.42 218.254 Q1951.08 218.254 1949.93 220.245 Q1948.75 222.235 1948.75 226.217 Q1948.75 230.221 1949.93 232.212 Q1951.08 234.203 1953.42 234.203 Q1955.76 234.203 1956.92 232.212 Q1958.1 230.221 1958.1 226.217 Q1958.1 222.235 1956.92 220.245 M1953.42 216.194 Q1957.15 216.194 1959.12 218.763 Q1961.08 221.332 1961.08 226.217 Q1961.08 231.124 1959.12 233.694 Q1957.15 236.263 1953.42 236.263 Q1949.67 236.263 1947.71 233.694 Q1945.74 231.124 1945.74 226.217 Q1945.74 221.332 1947.71 218.763 Q1949.67 216.194 1953.42 216.194 Z" fill="#000000" fill-rule="evenodd" fill-opacity="1" /><path clip-path="url(#clip790)" d="M1967.75 214.388 L1997.43 214.388 L1997.43 218.277 L1967.75 218.277 L1967.75 214.388 M1967.75 223.832 L1997.43 223.832 L1997.43 227.768 L1967.75 227.768 L1967.75 223.832 Z" fill="#000000" fill-rule="evenodd" fill-opacity="1" /><path clip-path="url(#clip790)" d="M2017.52 204.434 Q2013.91 204.434 2012.08 207.999 Q2010.27 211.541 2010.27 218.67 Q2010.27 225.777 2012.08 229.342 Q2013.91 232.883 2017.52 232.883 Q2021.15 232.883 2022.96 229.342 Q2024.79 225.777 2024.79 218.67 Q2024.79 211.541 2022.96 207.999 Q2021.15 204.434 2017.52 204.434 M2017.52 200.731 Q2023.33 200.731 2026.39 205.337 Q2029.46 209.92 2029.46 218.67 Q2029.46 227.397 2026.39 232.004 Q2023.33 236.587 2017.52 236.587 Q2011.71 236.587 2008.63 232.004 Q2005.58 227.397 2005.58 218.67 Q2005.58 209.92 2008.63 205.337 Q2011.71 200.731 2017.52 200.731 Z" fill="#000000" fill-rule="evenodd" fill-opacity="1" /><path clip-path="url(#clip790)" d="M2037.68 230.036 L2042.57 230.036 L2042.57 235.916 L2037.68 235.916 L2037.68 230.036 Z" fill="#000000" fill-rule="evenodd" fill-opacity="1" /><path clip-path="url(#clip790)" d="M2052.89 235.198 L2052.89 230.939 Q2054.65 231.772 2056.45 232.212 Q2058.26 232.652 2060 232.652 Q2064.63 232.652 2067.06 229.55 Q2069.51 226.425 2069.86 220.082 Q2068.51 222.073 2066.45 223.138 Q2064.39 224.203 2061.89 224.203 Q2056.71 224.203 2053.68 221.078 Q2050.67 217.93 2050.67 212.49 Q2050.67 207.166 2053.82 203.948 Q2056.96 200.731 2062.2 200.731 Q2068.19 200.731 2071.34 205.337 Q2074.51 209.92 2074.51 218.67 Q2074.51 226.842 2070.62 231.726 Q2066.76 236.587 2060.2 236.587 Q2058.45 236.587 2056.64 236.24 Q2054.83 235.893 2052.89 235.198 M2062.2 220.545 Q2065.34 220.545 2067.17 218.393 Q2069.02 216.24 2069.02 212.49 Q2069.02 208.763 2067.17 206.61 Q2065.34 204.434 2062.2 204.434 Q2059.05 204.434 2057.2 206.61 Q2055.37 208.763 2055.37 212.49 Q2055.37 216.24 2057.2 218.393 Q2059.05 220.545 2062.2 220.545 Z" fill="#000000" fill-rule="evenodd" fill-opacity="1" /><path clip-path="url(#clip790)" d="M2083.4 230.036 L2088.28 230.036 L2088.28 234.018 L2084.49 241.425 L2081.5 241.425 L2083.4 234.018 L2083.4 230.036 Z" fill="#000000" fill-rule="evenodd" fill-opacity="1" /><path clip-path="url(#clip790)" d="M2121.13 230.985 L2121.13 221.703 L2113.49 221.703 L2113.49 217.86 L2125.76 217.86 L2125.76 232.698 Q2123.05 234.619 2119.79 235.615 Q2116.52 236.587 2112.82 236.587 Q2104.72 236.587 2100.14 231.865 Q2095.57 227.119 2095.57 218.67 Q2095.57 210.198 2100.14 205.476 Q2104.72 200.731 2112.82 200.731 Q2116.2 200.731 2119.23 201.564 Q2122.29 202.397 2124.86 204.018 L2124.86 208.995 Q2122.26 206.796 2119.35 205.684 Q2116.43 204.573 2113.21 204.573 Q2106.87 204.573 2103.68 208.115 Q2100.51 211.657 2100.51 218.67 Q2100.51 225.661 2103.68 229.203 Q2106.87 232.744 2113.21 232.744 Q2115.69 232.744 2117.63 232.328 Q2119.58 231.888 2121.13 230.985 Z" fill="#000000" fill-rule="evenodd" fill-opacity="1" /><path clip-path="url(#clip790)" d="M2135.85 217.814 L2145.67 217.814 L2145.67 220.453 L2131.82 220.453 L2131.82 217.907 Q2132.61 217.189 2134.07 215.893 Q2142.03 208.833 2142.03 206.657 Q2142.03 205.129 2140.83 204.203 Q2139.63 203.254 2137.66 203.254 Q2136.45 203.254 2135.04 203.671 Q2133.63 204.064 2131.96 204.874 L2131.96 202.027 Q2133.75 201.379 2135.27 201.055 Q2136.82 200.731 2138.14 200.731 Q2141.5 200.731 2143.51 202.258 Q2145.53 203.786 2145.53 206.286 Q2145.53 209.504 2137.87 216.078 Q2136.57 217.189 2135.85 217.814 Z" fill="#000000" fill-rule="evenodd" fill-opacity="1" /><path clip-path="url(#clip790)" d="M2153.68 214.388 L2183.35 214.388 L2183.35 218.277 L2153.68 218.277 L2153.68 214.388 M2153.68 223.832 L2183.35 223.832 L2183.35 227.768 L2153.68 227.768 L2153.68 223.832 Z" fill="#000000" fill-rule="evenodd" fill-opacity="1" /><path clip-path="url(#clip790)" d="M2194.25 231.981 L2201.89 231.981 L2201.89 205.615 L2193.58 207.282 L2193.58 203.022 L2201.85 201.356 L2206.52 201.356 L2206.52 231.981 L2214.16 231.981 L2214.16 235.916 L2194.25 235.916 L2194.25 231.981 Z" fill="#000000" fill-rule="evenodd" fill-opacity="1" /><path clip-path="url(#clip790)" d="M2223.61 230.036 L2228.49 230.036 L2228.49 235.916 L2223.61 235.916 L2223.61 230.036 Z" fill="#000000" fill-rule="evenodd" fill-opacity="1" /><path clip-path="url(#clip790)" d="M2248.68 204.434 Q2245.06 204.434 2243.24 207.999 Q2241.43 211.541 2241.43 218.67 Q2241.43 225.777 2243.24 229.342 Q2245.06 232.883 2248.68 232.883 Q2252.31 232.883 2254.12 229.342 Q2255.94 225.777 2255.94 218.67 Q2255.94 211.541 2254.12 207.999 Q2252.31 204.434 2248.68 204.434 M2248.68 200.731 Q2254.49 200.731 2257.54 205.337 Q2260.62 209.92 2260.62 218.67 Q2260.62 227.397 2257.54 232.004 Q2254.49 236.587 2248.68 236.587 Q2242.87 236.587 2239.79 232.004 Q2236.73 227.397 2236.73 218.67 Q2236.73 209.92 2239.79 205.337 Q2242.87 200.731 2248.68 200.731 Z" fill="#000000" fill-rule="evenodd" fill-opacity="1" /></svg>
