<?xml version="1.0" encoding="utf-8"?>
<svg xmlns="http://www.w3.org/2000/svg" xmlns:xlink="http://www.w3.org/1999/xlink" width="600" height="400" viewBox="0 0 2400 1600">
<defs>
  <clipPath id="clip100">
    <rect x="0" y="0" width="2400" height="1600"/>
  </clipPath>
</defs>
<path clip-path="url(#clip100)" d="
M0 1600 L2400 1600 L2400 0 L0 0  Z
  " fill="#ffffff" fill-rule="evenodd" fill-opacity="1"/>
<defs>
  <clipPath id="clip101">
    <rect x="480" y="0" width="1681" height="1600"/>
  </clipPath>
</defs>
<path clip-path="url(#clip100)" d="
M279.704 1423.18 L2352.76 1423.18 L2352.76 123.472 L279.704 123.472  Z
  " fill="#ffffff" fill-rule="evenodd" fill-opacity="1"/>
<defs>
  <clipPath id="clip102">
    <rect x="279" y="123" width="2074" height="1301"/>
  </clipPath>
</defs>
<polyline clip-path="url(#clip102)" style="stroke:#000000; stroke-linecap:round; stroke-linejoin:round; stroke-width:2; stroke-opacity:0.1; fill:none" points="
  279.704,1423.18 279.704,123.472 
  "/>
<polyline clip-path="url(#clip102)" style="stroke:#000000; stroke-linecap:round; stroke-linejoin:round; stroke-width:2; stroke-opacity:0.1; fill:none" points="
  575.854,1423.18 575.854,123.472 
  "/>
<polyline clip-path="url(#clip102)" style="stroke:#000000; stroke-linecap:round; stroke-linejoin:round; stroke-width:2; stroke-opacity:0.1; fill:none" points="
  872.004,1423.18 872.004,123.472 
  "/>
<polyline clip-path="url(#clip102)" style="stroke:#000000; stroke-linecap:round; stroke-linejoin:round; stroke-width:2; stroke-opacity:0.1; fill:none" points="
  1168.15,1423.18 1168.15,123.472 
  "/>
<polyline clip-path="url(#clip102)" style="stroke:#000000; stroke-linecap:round; stroke-linejoin:round; stroke-width:2; stroke-opacity:0.1; fill:none" points="
  1464.31,1423.18 1464.31,123.472 
  "/>
<polyline clip-path="url(#clip102)" style="stroke:#000000; stroke-linecap:round; stroke-linejoin:round; stroke-width:2; stroke-opacity:0.1; fill:none" points="
  1760.46,1423.18 1760.46,123.472 
  "/>
<polyline clip-path="url(#clip102)" style="stroke:#000000; stroke-linecap:round; stroke-linejoin:round; stroke-width:2; stroke-opacity:0.1; fill:none" points="
  2056.61,1423.18 2056.61,123.472 
  "/>
<polyline clip-path="url(#clip102)" style="stroke:#000000; stroke-linecap:round; stroke-linejoin:round; stroke-width:2; stroke-opacity:0.1; fill:none" points="
  2352.76,1423.18 2352.76,123.472 
  "/>
<polyline clip-path="url(#clip100)" style="stroke:#000000; stroke-linecap:round; stroke-linejoin:round; stroke-width:4; stroke-opacity:1; fill:none" points="
  279.704,1423.18 2352.76,1423.18 
  "/>
<polyline clip-path="url(#clip100)" style="stroke:#000000; stroke-linecap:round; stroke-linejoin:round; stroke-width:4; stroke-opacity:1; fill:none" points="
  279.704,1423.18 279.704,1404.28 
  "/>
<polyline clip-path="url(#clip100)" style="stroke:#000000; stroke-linecap:round; stroke-linejoin:round; stroke-width:4; stroke-opacity:1; fill:none" points="
  575.854,1423.18 575.854,1404.28 
  "/>
<polyline clip-path="url(#clip100)" style="stroke:#000000; stroke-linecap:round; stroke-linejoin:round; stroke-width:4; stroke-opacity:1; fill:none" points="
  872.004,1423.18 872.004,1404.28 
  "/>
<polyline clip-path="url(#clip100)" style="stroke:#000000; stroke-linecap:round; stroke-linejoin:round; stroke-width:4; stroke-opacity:1; fill:none" points="
  1168.15,1423.18 1168.15,1404.28 
  "/>
<polyline clip-path="url(#clip100)" style="stroke:#000000; stroke-linecap:round; stroke-linejoin:round; stroke-width:4; stroke-opacity:1; fill:none" points="
  1464.31,1423.18 1464.31,1404.28 
  "/>
<polyline clip-path="url(#clip100)" style="stroke:#000000; stroke-linecap:round; stroke-linejoin:round; stroke-width:4; stroke-opacity:1; fill:none" points="
  1760.46,1423.18 1760.46,1404.28 
  "/>
<polyline clip-path="url(#clip100)" style="stroke:#000000; stroke-linecap:round; stroke-linejoin:round; stroke-width:4; stroke-opacity:1; fill:none" points="
  2056.61,1423.18 2056.61,1404.28 
  "/>
<polyline clip-path="url(#clip100)" style="stroke:#000000; stroke-linecap:round; stroke-linejoin:round; stroke-width:4; stroke-opacity:1; fill:none" points="
  2352.76,1423.18 2352.76,1404.28 
  "/>
<path clip-path="url(#clip100)" d="M279.704 1454.1 Q276.093 1454.1 274.264 1457.66 Q272.459 1461.2 272.459 1468.33 Q272.459 1475.44 274.264 1479.01 Q276.093 1482.55 279.704 1482.55 Q283.338 1482.55 285.144 1479.01 Q286.972 1475.44 286.972 1468.33 Q286.972 1461.2 285.144 1457.66 Q283.338 1454.1 279.704 1454.1 M279.704 1450.39 Q285.514 1450.39 288.57 1455 Q291.648 1459.58 291.648 1468.33 Q291.648 1477.06 288.57 1481.67 Q285.514 1486.25 279.704 1486.25 Q273.894 1486.25 270.815 1481.67 Q267.76 1477.06 267.76 1468.33 Q267.76 1459.58 270.815 1455 Q273.894 1450.39 279.704 1450.39 Z" fill="#000000" fill-rule="evenodd" fill-opacity="1" /><path clip-path="url(#clip100)" d="M566.132 1451.02 L584.488 1451.02 L584.488 1454.96 L570.414 1454.96 L570.414 1463.43 Q571.433 1463.08 572.451 1462.92 Q573.47 1462.73 574.488 1462.73 Q580.275 1462.73 583.655 1465.9 Q587.035 1469.08 587.035 1474.49 Q587.035 1480.07 583.562 1483.17 Q580.09 1486.25 573.771 1486.25 Q571.595 1486.25 569.326 1485.88 Q567.081 1485.51 564.674 1484.77 L564.674 1480.07 Q566.757 1481.2 568.979 1481.76 Q571.201 1482.32 573.678 1482.32 Q577.683 1482.32 580.021 1480.21 Q582.359 1478.1 582.359 1474.49 Q582.359 1470.88 580.021 1468.77 Q577.683 1466.67 573.678 1466.67 Q571.803 1466.67 569.928 1467.08 Q568.076 1467.5 566.132 1468.38 L566.132 1451.02 Z" fill="#000000" fill-rule="evenodd" fill-opacity="1" /><path clip-path="url(#clip100)" d="M846.692 1481.64 L854.331 1481.64 L854.331 1455.28 L846.021 1456.95 L846.021 1452.69 L854.285 1451.02 L858.961 1451.02 L858.961 1481.64 L866.599 1481.64 L866.599 1485.58 L846.692 1485.58 L846.692 1481.64 Z" fill="#000000" fill-rule="evenodd" fill-opacity="1" /><path clip-path="url(#clip100)" d="M886.044 1454.1 Q882.433 1454.1 880.604 1457.66 Q878.798 1461.2 878.798 1468.33 Q878.798 1475.44 880.604 1479.01 Q882.433 1482.55 886.044 1482.55 Q889.678 1482.55 891.484 1479.01 Q893.312 1475.44 893.312 1468.33 Q893.312 1461.2 891.484 1457.66 Q889.678 1454.1 886.044 1454.1 M886.044 1450.39 Q891.854 1450.39 894.909 1455 Q897.988 1459.58 897.988 1468.33 Q897.988 1477.06 894.909 1481.67 Q891.854 1486.25 886.044 1486.25 Q880.234 1486.25 877.155 1481.67 Q874.099 1477.06 874.099 1468.33 Q874.099 1459.58 877.155 1455 Q880.234 1450.39 886.044 1450.39 Z" fill="#000000" fill-rule="evenodd" fill-opacity="1" /><path clip-path="url(#clip100)" d="M1143.34 1481.64 L1150.98 1481.64 L1150.98 1455.28 L1142.67 1456.95 L1142.67 1452.69 L1150.93 1451.02 L1155.61 1451.02 L1155.61 1481.64 L1163.25 1481.64 L1163.25 1485.58 L1143.34 1485.58 L1143.34 1481.64 Z" fill="#000000" fill-rule="evenodd" fill-opacity="1" /><path clip-path="url(#clip100)" d="M1172.74 1451.02 L1191.09 1451.02 L1191.09 1454.96 L1177.02 1454.96 L1177.02 1463.43 Q1178.04 1463.08 1179.06 1462.92 Q1180.08 1462.73 1181.09 1462.73 Q1186.88 1462.73 1190.26 1465.9 Q1193.64 1469.08 1193.64 1474.49 Q1193.64 1480.07 1190.17 1483.17 Q1186.7 1486.25 1180.38 1486.25 Q1178.2 1486.25 1175.93 1485.88 Q1173.69 1485.51 1171.28 1484.77 L1171.28 1480.07 Q1173.36 1481.2 1175.59 1481.76 Q1177.81 1482.32 1180.28 1482.32 Q1184.29 1482.32 1186.63 1480.21 Q1188.96 1478.1 1188.96 1474.49 Q1188.96 1470.88 1186.63 1468.77 Q1184.29 1466.67 1180.28 1466.67 Q1178.41 1466.67 1176.53 1467.08 Q1174.68 1467.5 1172.74 1468.38 L1172.74 1451.02 Z" fill="#000000" fill-rule="evenodd" fill-opacity="1" /><path clip-path="url(#clip100)" d="M1443.08 1481.64 L1459.4 1481.64 L1459.4 1485.58 L1437.45 1485.58 L1437.45 1481.64 Q1440.12 1478.89 1444.7 1474.26 Q1449.31 1469.61 1450.49 1468.27 Q1452.73 1465.74 1453.61 1464.01 Q1454.51 1462.25 1454.51 1460.56 Q1454.51 1457.8 1452.57 1456.07 Q1450.65 1454.33 1447.55 1454.33 Q1445.35 1454.33 1442.89 1455.09 Q1440.46 1455.86 1437.68 1457.41 L1437.68 1452.69 Q1440.51 1451.55 1442.96 1450.97 Q1445.42 1450.39 1447.45 1450.39 Q1452.82 1450.39 1456.02 1453.08 Q1459.21 1455.77 1459.21 1460.26 Q1459.21 1462.39 1458.4 1464.31 Q1457.62 1466.2 1455.51 1468.8 Q1454.93 1469.47 1451.83 1472.69 Q1448.73 1475.88 1443.08 1481.64 Z" fill="#000000" fill-rule="evenodd" fill-opacity="1" /><path clip-path="url(#clip100)" d="M1479.21 1454.1 Q1475.6 1454.1 1473.77 1457.66 Q1471.97 1461.2 1471.97 1468.33 Q1471.97 1475.44 1473.77 1479.01 Q1475.6 1482.55 1479.21 1482.55 Q1482.85 1482.55 1484.65 1479.01 Q1486.48 1475.44 1486.48 1468.33 Q1486.48 1461.2 1484.65 1457.66 Q1482.85 1454.1 1479.21 1454.1 M1479.21 1450.39 Q1485.02 1450.39 1488.08 1455 Q1491.16 1459.58 1491.16 1468.33 Q1491.16 1477.06 1488.08 1481.67 Q1485.02 1486.25 1479.21 1486.25 Q1473.4 1486.25 1470.32 1481.67 Q1467.27 1477.06 1467.27 1468.33 Q1467.27 1459.58 1470.32 1455 Q1473.4 1450.39 1479.21 1450.39 Z" fill="#000000" fill-rule="evenodd" fill-opacity="1" /><path clip-path="url(#clip100)" d="M1739.73 1481.64 L1756.05 1481.64 L1756.05 1485.58 L1734.1 1485.58 L1734.1 1481.64 Q1736.76 1478.89 1741.35 1474.26 Q1745.95 1469.61 1747.13 1468.27 Q1749.38 1465.74 1750.26 1464.01 Q1751.16 1462.25 1751.16 1460.56 Q1751.16 1457.8 1749.22 1456.07 Q1747.3 1454.33 1744.19 1454.33 Q1741.99 1454.33 1739.54 1455.09 Q1737.11 1455.86 1734.33 1457.41 L1734.33 1452.69 Q1737.16 1451.55 1739.61 1450.97 Q1742.06 1450.39 1744.1 1450.39 Q1749.47 1450.39 1752.67 1453.08 Q1755.86 1455.77 1755.86 1460.26 Q1755.86 1462.39 1755.05 1464.31 Q1754.26 1466.2 1752.16 1468.8 Q1751.58 1469.47 1748.48 1472.69 Q1745.37 1475.88 1739.73 1481.64 Z" fill="#000000" fill-rule="evenodd" fill-opacity="1" /><path clip-path="url(#clip100)" d="M1765.91 1451.02 L1784.26 1451.02 L1784.26 1454.96 L1770.19 1454.96 L1770.19 1463.43 Q1771.21 1463.08 1772.23 1462.92 Q1773.24 1462.73 1774.26 1462.73 Q1780.05 1462.73 1783.43 1465.9 Q1786.81 1469.08 1786.81 1474.49 Q1786.81 1480.07 1783.34 1483.17 Q1779.86 1486.25 1773.55 1486.25 Q1771.37 1486.25 1769.1 1485.88 Q1766.86 1485.51 1764.45 1484.77 L1764.45 1480.07 Q1766.53 1481.2 1768.75 1481.76 Q1770.98 1482.32 1773.45 1482.32 Q1777.46 1482.32 1779.8 1480.21 Q1782.13 1478.1 1782.13 1474.49 Q1782.13 1470.88 1779.8 1468.77 Q1777.46 1466.67 1773.45 1466.67 Q1771.58 1466.67 1769.7 1467.08 Q1767.85 1467.5 1765.91 1468.38 L1765.91 1451.02 Z" fill="#000000" fill-rule="evenodd" fill-opacity="1" /><path clip-path="url(#clip100)" d="M2045.45 1466.95 Q2048.8 1467.66 2050.68 1469.93 Q2052.58 1472.2 2052.58 1475.53 Q2052.58 1480.65 2049.06 1483.45 Q2045.54 1486.25 2039.06 1486.25 Q2036.88 1486.25 2034.57 1485.81 Q2032.28 1485.39 2029.82 1484.54 L2029.82 1480.02 Q2031.77 1481.16 2034.08 1481.74 Q2036.4 1482.32 2038.92 1482.32 Q2043.32 1482.32 2045.61 1480.58 Q2047.93 1478.84 2047.93 1475.53 Q2047.93 1472.48 2045.77 1470.77 Q2043.64 1469.03 2039.82 1469.03 L2035.8 1469.03 L2035.8 1465.19 L2040.01 1465.19 Q2043.46 1465.19 2045.29 1463.82 Q2047.11 1462.43 2047.11 1459.84 Q2047.11 1457.18 2045.22 1455.77 Q2043.34 1454.33 2039.82 1454.33 Q2037.9 1454.33 2035.7 1454.75 Q2033.5 1455.16 2030.87 1456.04 L2030.87 1451.88 Q2033.53 1451.14 2035.84 1450.77 Q2038.18 1450.39 2040.24 1450.39 Q2045.56 1450.39 2048.67 1452.83 Q2051.77 1455.23 2051.77 1459.35 Q2051.77 1462.22 2050.12 1464.21 Q2048.48 1466.18 2045.45 1466.95 Z" fill="#000000" fill-rule="evenodd" fill-opacity="1" /><path clip-path="url(#clip100)" d="M2071.44 1454.1 Q2067.83 1454.1 2066 1457.66 Q2064.2 1461.2 2064.2 1468.33 Q2064.2 1475.44 2066 1479.01 Q2067.83 1482.55 2071.44 1482.55 Q2075.08 1482.55 2076.88 1479.01 Q2078.71 1475.44 2078.71 1468.33 Q2078.71 1461.2 2076.88 1457.66 Q2075.08 1454.1 2071.44 1454.1 M2071.44 1450.39 Q2077.25 1450.39 2080.31 1455 Q2083.39 1459.58 2083.39 1468.33 Q2083.39 1477.06 2080.31 1481.67 Q2077.25 1486.25 2071.44 1486.25 Q2065.63 1486.25 2062.55 1481.67 Q2059.5 1477.06 2059.5 1468.33 Q2059.5 1459.58 2062.55 1455 Q2065.63 1450.39 2071.44 1450.39 Z" fill="#000000" fill-rule="evenodd" fill-opacity="1" /><path clip-path="url(#clip100)" d="M2342.1 1466.95 Q2345.45 1467.66 2347.33 1469.93 Q2349.23 1472.2 2349.23 1475.53 Q2349.23 1480.65 2345.71 1483.45 Q2342.19 1486.25 2335.71 1486.25 Q2333.53 1486.25 2331.22 1485.81 Q2328.93 1485.39 2326.47 1484.54 L2326.47 1480.02 Q2328.42 1481.16 2330.73 1481.74 Q2333.05 1482.32 2335.57 1482.32 Q2339.97 1482.32 2342.26 1480.58 Q2344.57 1478.84 2344.57 1475.53 Q2344.57 1472.48 2342.42 1470.77 Q2340.29 1469.03 2336.47 1469.03 L2332.44 1469.03 L2332.44 1465.19 L2336.66 1465.19 Q2340.11 1465.19 2341.93 1463.82 Q2343.76 1462.43 2343.76 1459.84 Q2343.76 1457.18 2341.86 1455.77 Q2339.99 1454.33 2336.47 1454.33 Q2334.55 1454.33 2332.35 1454.75 Q2330.15 1455.16 2327.51 1456.04 L2327.51 1451.88 Q2330.18 1451.14 2332.49 1450.77 Q2334.83 1450.39 2336.89 1450.39 Q2342.21 1450.39 2345.31 1452.83 Q2348.42 1455.23 2348.42 1459.35 Q2348.42 1462.22 2346.77 1464.21 Q2345.13 1466.18 2342.1 1466.95 Z" fill="#000000" fill-rule="evenodd" fill-opacity="1" /><path clip-path="url(#clip100)" d="M2358.14 1451.02 L2376.49 1451.02 L2376.49 1454.96 L2362.42 1454.96 L2362.42 1463.43 Q2363.44 1463.08 2364.46 1462.92 Q2365.48 1462.73 2366.49 1462.73 Q2372.28 1462.73 2375.66 1465.9 Q2379.04 1469.08 2379.04 1474.49 Q2379.04 1480.07 2375.57 1483.17 Q2372.1 1486.25 2365.78 1486.25 Q2363.6 1486.25 2361.33 1485.88 Q2359.09 1485.51 2356.68 1484.77 L2356.68 1480.07 Q2358.76 1481.2 2360.99 1481.76 Q2363.21 1482.32 2365.68 1482.32 Q2369.69 1482.32 2372.03 1480.21 Q2374.36 1478.1 2374.36 1474.49 Q2374.36 1470.88 2372.03 1468.77 Q2369.69 1466.67 2365.68 1466.67 Q2363.81 1466.67 2361.93 1467.08 Q2360.08 1467.5 2358.14 1468.38 L2358.14 1451.02 Z" fill="#000000" fill-rule="evenodd" fill-opacity="1" /><path clip-path="url(#clip100)" d="M1145.1 1522.08 L1145.1 1528.35 Q1141.44 1526.6 1138.2 1525.74 Q1134.95 1524.88 1131.93 1524.88 Q1126.68 1524.88 1123.81 1526.92 Q1120.98 1528.96 1120.98 1532.71 Q1120.98 1535.87 1122.86 1537.49 Q1124.77 1539.08 1130.05 1540.07 L1133.93 1540.86 Q1141.13 1542.23 1144.53 1545.7 Q1147.97 1549.14 1147.97 1554.93 Q1147.97 1561.84 1143.32 1565.4 Q1138.71 1568.97 1129.76 1568.97 Q1126.39 1568.97 1122.57 1568.2 Q1118.78 1567.44 1114.71 1565.94 L1114.71 1559.32 Q1118.62 1561.52 1122.38 1562.63 Q1126.13 1563.75 1129.76 1563.75 Q1135.27 1563.75 1138.26 1561.58 Q1141.25 1559.42 1141.25 1555.41 Q1141.25 1551.91 1139.09 1549.93 Q1136.96 1547.96 1132.05 1546.97 L1128.14 1546.21 Q1120.95 1544.78 1117.73 1541.72 Q1114.52 1538.67 1114.52 1533.22 Q1114.52 1526.92 1118.94 1523.29 Q1123.4 1519.66 1131.19 1519.66 Q1134.54 1519.66 1138.01 1520.27 Q1141.48 1520.87 1145.1 1522.08 Z" fill="#000000" fill-rule="evenodd" fill-opacity="1" /><path clip-path="url(#clip100)" d="M1157.74 1532.4 L1163.6 1532.4 L1163.6 1568.04 L1157.74 1568.04 L1157.74 1532.4 M1157.74 1518.52 L1163.6 1518.52 L1163.6 1525.93 L1157.74 1525.93 L1157.74 1518.52 Z" fill="#000000" fill-rule="evenodd" fill-opacity="1" /><path clip-path="url(#clip100)" d="M1181.64 1522.27 L1181.64 1532.4 L1193.71 1532.4 L1193.71 1536.95 L1181.64 1536.95 L1181.64 1556.3 Q1181.64 1560.66 1182.82 1561.9 Q1184.03 1563.14 1187.69 1563.14 L1193.71 1563.14 L1193.71 1568.04 L1187.69 1568.04 Q1180.91 1568.04 1178.33 1565.53 Q1175.75 1562.98 1175.75 1556.3 L1175.75 1536.95 L1171.46 1536.95 L1171.46 1532.4 L1175.75 1532.4 L1175.75 1522.27 L1181.64 1522.27 Z" fill="#000000" fill-rule="evenodd" fill-opacity="1" /><path clip-path="url(#clip100)" d="M1231.9 1548.76 L1231.9 1551.62 L1204.97 1551.62 Q1205.36 1557.67 1208.6 1560.85 Q1211.88 1564 1217.7 1564 Q1221.08 1564 1224.23 1563.17 Q1227.41 1562.35 1230.53 1560.69 L1230.53 1566.23 Q1227.38 1567.57 1224.07 1568.27 Q1220.76 1568.97 1217.35 1568.97 Q1208.82 1568.97 1203.83 1564 Q1198.86 1559.04 1198.86 1550.57 Q1198.86 1541.82 1203.57 1536.69 Q1208.32 1531.54 1216.34 1531.54 Q1223.53 1531.54 1227.7 1536.18 Q1231.9 1540.8 1231.9 1548.76 M1226.04 1547.04 Q1225.98 1542.23 1223.34 1539.37 Q1220.73 1536.5 1216.4 1536.5 Q1211.5 1536.5 1208.54 1539.27 Q1205.61 1542.04 1205.16 1547.07 L1226.04 1547.04 Z" fill="#000000" fill-rule="evenodd" fill-opacity="1" /><path clip-path="url(#clip100)" d="M1262.49 1520.52 L1271.14 1520.52 L1292.22 1560.28 L1292.22 1520.52 L1298.45 1520.52 L1298.45 1568.04 L1289.8 1568.04 L1268.73 1528.29 L1268.73 1568.04 L1262.49 1568.04 L1262.49 1520.52 Z" fill="#000000" fill-rule="evenodd" fill-opacity="1" /><path clip-path="url(#clip100)" d="M1310.39 1553.98 L1310.39 1532.4 L1316.25 1532.4 L1316.25 1553.75 Q1316.25 1558.81 1318.22 1561.36 Q1320.19 1563.87 1324.14 1563.87 Q1328.88 1563.87 1331.62 1560.85 Q1334.39 1557.83 1334.39 1552.61 L1334.39 1532.4 L1340.24 1532.4 L1340.24 1568.04 L1334.39 1568.04 L1334.39 1562.57 Q1332.26 1565.82 1329.42 1567.41 Q1326.62 1568.97 1322.9 1568.97 Q1316.76 1568.97 1313.57 1565.15 Q1310.39 1561.33 1310.39 1553.98 M1325.13 1531.54 L1325.13 1531.54 Z" fill="#000000" fill-rule="evenodd" fill-opacity="1" /><path clip-path="url(#clip100)" d="M1380.06 1539.24 Q1382.26 1535.29 1385.31 1533.41 Q1388.37 1531.54 1392.51 1531.54 Q1398.08 1531.54 1401.1 1535.45 Q1404.12 1539.33 1404.12 1546.53 L1404.12 1568.04 L1398.24 1568.04 L1398.24 1546.72 Q1398.24 1541.59 1396.42 1539.11 Q1394.61 1536.63 1390.88 1536.63 Q1386.33 1536.63 1383.69 1539.65 Q1381.05 1542.68 1381.05 1547.9 L1381.05 1568.04 L1375.16 1568.04 L1375.16 1546.72 Q1375.16 1541.56 1373.35 1539.11 Q1371.53 1536.63 1367.74 1536.63 Q1363.26 1536.63 1360.61 1539.68 Q1357.97 1542.71 1357.97 1547.9 L1357.97 1568.04 L1352.08 1568.04 L1352.08 1532.4 L1357.97 1532.4 L1357.97 1537.93 Q1359.98 1534.66 1362.78 1533.1 Q1365.58 1531.54 1369.43 1531.54 Q1373.31 1531.54 1376.02 1533.51 Q1378.76 1535.48 1380.06 1539.24 Z" fill="#000000" fill-rule="evenodd" fill-opacity="1" /><path clip-path="url(#clip100)" d="M1441.4 1550.25 Q1441.4 1543.79 1438.72 1540.13 Q1436.08 1536.44 1431.43 1536.44 Q1426.79 1536.44 1424.11 1540.13 Q1421.47 1543.79 1421.47 1550.25 Q1421.47 1556.71 1424.11 1560.4 Q1426.79 1564.07 1431.43 1564.07 Q1436.08 1564.07 1438.72 1560.4 Q1441.4 1556.71 1441.4 1550.25 M1421.47 1537.81 Q1423.32 1534.62 1426.12 1533.1 Q1428.95 1531.54 1432.87 1531.54 Q1439.36 1531.54 1443.4 1536.69 Q1447.47 1541.85 1447.47 1550.25 Q1447.47 1558.65 1443.4 1563.81 Q1439.36 1568.97 1432.87 1568.97 Q1428.95 1568.97 1426.12 1567.44 Q1423.32 1565.88 1421.47 1562.7 L1421.47 1568.04 L1415.58 1568.04 L1415.58 1518.52 L1421.47 1518.52 L1421.47 1537.81 Z" fill="#000000" fill-rule="evenodd" fill-opacity="1" /><path clip-path="url(#clip100)" d="M1487.67 1548.76 L1487.67 1551.62 L1460.75 1551.62 Q1461.13 1557.67 1464.38 1560.85 Q1467.65 1564 1473.48 1564 Q1476.85 1564 1480 1563.17 Q1483.19 1562.35 1486.31 1560.69 L1486.31 1566.23 Q1483.15 1567.57 1479.84 1568.27 Q1476.53 1568.97 1473.13 1568.97 Q1464.6 1568.97 1459.6 1564 Q1454.64 1559.04 1454.64 1550.57 Q1454.64 1541.82 1459.35 1536.69 Q1464.09 1531.54 1472.11 1531.54 Q1479.3 1531.54 1483.47 1536.18 Q1487.67 1540.8 1487.67 1548.76 M1481.82 1547.04 Q1481.75 1542.23 1479.11 1539.37 Q1476.5 1536.5 1472.17 1536.5 Q1467.27 1536.5 1464.31 1539.27 Q1461.38 1542.04 1460.94 1547.07 L1481.82 1547.04 Z" fill="#000000" fill-rule="evenodd" fill-opacity="1" /><path clip-path="url(#clip100)" d="M1517.94 1537.87 Q1516.96 1537.3 1515.78 1537.04 Q1514.63 1536.76 1513.23 1536.76 Q1508.27 1536.76 1505.59 1540 Q1502.95 1543.22 1502.95 1549.27 L1502.95 1568.04 L1497.06 1568.04 L1497.06 1532.4 L1502.95 1532.4 L1502.95 1537.93 Q1504.8 1534.69 1507.76 1533.13 Q1510.72 1531.54 1514.95 1531.54 Q1515.56 1531.54 1516.29 1531.63 Q1517.02 1531.7 1517.91 1531.85 L1517.94 1537.87 Z" fill="#000000" fill-rule="evenodd" fill-opacity="1" /><polyline clip-path="url(#clip102)" style="stroke:#000000; stroke-linecap:round; stroke-linejoin:round; stroke-width:2; stroke-opacity:0.1; fill:none" points="
  279.704,1360.35 2352.76,1360.35 
  "/>
<polyline clip-path="url(#clip102)" style="stroke:#000000; stroke-linecap:round; stroke-linejoin:round; stroke-width:2; stroke-opacity:0.1; fill:none" points="
  279.704,1165.18 2352.76,1165.18 
  "/>
<polyline clip-path="url(#clip102)" style="stroke:#000000; stroke-linecap:round; stroke-linejoin:round; stroke-width:2; stroke-opacity:0.1; fill:none" points="
  279.704,970.009 2352.76,970.009 
  "/>
<polyline clip-path="url(#clip102)" style="stroke:#000000; stroke-linecap:round; stroke-linejoin:round; stroke-width:2; stroke-opacity:0.1; fill:none" points="
  279.704,774.837 2352.76,774.837 
  "/>
<polyline clip-path="url(#clip102)" style="stroke:#000000; stroke-linecap:round; stroke-linejoin:round; stroke-width:2; stroke-opacity:0.1; fill:none" points="
  279.704,579.665 2352.76,579.665 
  "/>
<polyline clip-path="url(#clip102)" style="stroke:#000000; stroke-linecap:round; stroke-linejoin:round; stroke-width:2; stroke-opacity:0.1; fill:none" points="
  279.704,384.493 2352.76,384.493 
  "/>
<polyline clip-path="url(#clip102)" style="stroke:#000000; stroke-linecap:round; stroke-linejoin:round; stroke-width:2; stroke-opacity:0.1; fill:none" points="
  279.704,189.321 2352.76,189.321 
  "/>
<polyline clip-path="url(#clip100)" style="stroke:#000000; stroke-linecap:round; stroke-linejoin:round; stroke-width:4; stroke-opacity:1; fill:none" points="
  279.704,1423.18 279.704,123.472 
  "/>
<polyline clip-path="url(#clip100)" style="stroke:#000000; stroke-linecap:round; stroke-linejoin:round; stroke-width:4; stroke-opacity:1; fill:none" points="
  279.704,1360.35 298.602,1360.35 
  "/>
<polyline clip-path="url(#clip100)" style="stroke:#000000; stroke-linecap:round; stroke-linejoin:round; stroke-width:4; stroke-opacity:1; fill:none" points="
  279.704,1165.18 298.602,1165.18 
  "/>
<polyline clip-path="url(#clip100)" style="stroke:#000000; stroke-linecap:round; stroke-linejoin:round; stroke-width:4; stroke-opacity:1; fill:none" points="
  279.704,970.009 298.602,970.009 
  "/>
<polyline clip-path="url(#clip100)" style="stroke:#000000; stroke-linecap:round; stroke-linejoin:round; stroke-width:4; stroke-opacity:1; fill:none" points="
  279.704,774.837 298.602,774.837 
  "/>
<polyline clip-path="url(#clip100)" style="stroke:#000000; stroke-linecap:round; stroke-linejoin:round; stroke-width:4; stroke-opacity:1; fill:none" points="
  279.704,579.665 298.602,579.665 
  "/>
<polyline clip-path="url(#clip100)" style="stroke:#000000; stroke-linecap:round; stroke-linejoin:round; stroke-width:4; stroke-opacity:1; fill:none" points="
  279.704,384.493 298.602,384.493 
  "/>
<polyline clip-path="url(#clip100)" style="stroke:#000000; stroke-linecap:round; stroke-linejoin:round; stroke-width:4; stroke-opacity:1; fill:none" points="
  279.704,189.321 298.602,189.321 
  "/>
<path clip-path="url(#clip100)" d="M127.2 1346.15 Q123.589 1346.15 121.76 1349.72 Q119.955 1353.26 119.955 1360.39 Q119.955 1367.49 121.76 1371.06 Q123.589 1374.6 127.2 1374.6 Q130.834 1374.6 132.64 1371.06 Q134.468 1367.49 134.468 1360.39 Q134.468 1353.26 132.64 1349.72 Q130.834 1346.15 127.2 1346.15 M127.2 1342.45 Q133.01 1342.45 136.066 1347.05 Q139.144 1351.64 139.144 1360.39 Q139.144 1369.11 136.066 1373.72 Q133.01 1378.3 127.2 1378.3 Q121.39 1378.3 118.311 1373.72 Q115.256 1369.11 115.256 1360.39 Q115.256 1351.64 118.311 1347.05 Q121.39 1342.45 127.2 1342.45 Z" fill="#000000" fill-rule="evenodd" fill-opacity="1" /><path clip-path="url(#clip100)" d="M147.362 1371.75 L152.246 1371.75 L152.246 1377.63 L147.362 1377.63 L147.362 1371.75 Z" fill="#000000" fill-rule="evenodd" fill-opacity="1" /><path clip-path="url(#clip100)" d="M175.278 1347.15 L163.473 1365.6 L175.278 1365.6 L175.278 1347.15 M174.052 1343.07 L179.931 1343.07 L179.931 1365.6 L184.862 1365.6 L184.862 1369.48 L179.931 1369.48 L179.931 1377.63 L175.278 1377.63 L175.278 1369.48 L159.677 1369.48 L159.677 1364.97 L174.052 1343.07 Z" fill="#000000" fill-rule="evenodd" fill-opacity="1" /><path clip-path="url(#clip100)" d="M192.639 1343.07 L210.996 1343.07 L210.996 1347.01 L196.922 1347.01 L196.922 1355.48 Q197.94 1355.13 198.959 1354.97 Q199.977 1354.79 200.996 1354.79 Q206.783 1354.79 210.162 1357.96 Q213.542 1361.13 213.542 1366.54 Q213.542 1372.12 210.07 1375.23 Q206.598 1378.3 200.278 1378.3 Q198.102 1378.3 195.834 1377.93 Q193.588 1377.56 191.181 1376.82 L191.181 1372.12 Q193.264 1373.26 195.487 1373.81 Q197.709 1374.37 200.186 1374.37 Q204.19 1374.37 206.528 1372.26 Q208.866 1370.16 208.866 1366.54 Q208.866 1362.93 206.528 1360.83 Q204.19 1358.72 200.186 1358.72 Q198.311 1358.72 196.436 1359.14 Q194.584 1359.55 192.639 1360.43 L192.639 1343.07 Z" fill="#000000" fill-rule="evenodd" fill-opacity="1" /><path clip-path="url(#clip100)" d="M222.801 1343.07 L241.158 1343.07 L241.158 1347.01 L227.084 1347.01 L227.084 1355.48 Q228.102 1355.13 229.121 1354.97 Q230.139 1354.79 231.158 1354.79 Q236.945 1354.79 240.324 1357.96 Q243.704 1361.13 243.704 1366.54 Q243.704 1372.12 240.232 1375.23 Q236.76 1378.3 230.44 1378.3 Q228.264 1378.3 225.996 1377.93 Q223.75 1377.56 221.343 1376.82 L221.343 1372.12 Q223.426 1373.26 225.648 1373.81 Q227.871 1374.37 230.347 1374.37 Q234.352 1374.37 236.69 1372.26 Q239.028 1370.16 239.028 1366.54 Q239.028 1362.93 236.69 1360.83 Q234.352 1358.72 230.347 1358.72 Q228.473 1358.72 226.598 1359.14 Q224.746 1359.55 222.801 1360.43 L222.801 1343.07 Z" fill="#000000" fill-rule="evenodd" fill-opacity="1" /><path clip-path="url(#clip100)" d="M126.205 1150.98 Q122.593 1150.98 120.765 1154.54 Q118.959 1158.09 118.959 1165.22 Q118.959 1172.32 120.765 1175.89 Q122.593 1179.43 126.205 1179.43 Q129.839 1179.43 131.644 1175.89 Q133.473 1172.32 133.473 1165.22 Q133.473 1158.09 131.644 1154.54 Q129.839 1150.98 126.205 1150.98 M126.205 1147.28 Q132.015 1147.28 135.07 1151.88 Q138.149 1156.47 138.149 1165.22 Q138.149 1173.94 135.07 1178.55 Q132.015 1183.13 126.205 1183.13 Q120.394 1183.13 117.316 1178.55 Q114.26 1173.94 114.26 1165.22 Q114.26 1156.47 117.316 1151.88 Q120.394 1147.28 126.205 1147.28 Z" fill="#000000" fill-rule="evenodd" fill-opacity="1" /><path clip-path="url(#clip100)" d="M146.366 1176.58 L151.251 1176.58 L151.251 1182.46 L146.366 1182.46 L146.366 1176.58 Z" fill="#000000" fill-rule="evenodd" fill-opacity="1" /><path clip-path="url(#clip100)" d="M174.283 1151.97 L162.477 1170.42 L174.283 1170.42 L174.283 1151.97 M173.056 1147.9 L178.936 1147.9 L178.936 1170.42 L183.866 1170.42 L183.866 1174.31 L178.936 1174.31 L178.936 1182.46 L174.283 1182.46 L174.283 1174.31 L158.681 1174.31 L158.681 1169.8 L173.056 1147.9 Z" fill="#000000" fill-rule="evenodd" fill-opacity="1" /><path clip-path="url(#clip100)" d="M202.176 1163.32 Q199.028 1163.32 197.176 1165.47 Q195.348 1167.62 195.348 1171.37 Q195.348 1175.1 197.176 1177.28 Q199.028 1179.43 202.176 1179.43 Q205.324 1179.43 207.153 1177.28 Q209.005 1175.1 209.005 1171.37 Q209.005 1167.62 207.153 1165.47 Q205.324 1163.32 202.176 1163.32 M211.459 1148.66 L211.459 1152.92 Q209.699 1152.09 207.894 1151.65 Q206.112 1151.21 204.352 1151.21 Q199.723 1151.21 197.269 1154.34 Q194.838 1157.46 194.491 1163.78 Q195.857 1161.77 197.917 1160.7 Q199.977 1159.61 202.454 1159.61 Q207.662 1159.61 210.672 1162.78 Q213.704 1165.93 213.704 1171.37 Q213.704 1176.7 210.556 1179.91 Q207.408 1183.13 202.176 1183.13 Q196.181 1183.13 193.01 1178.55 Q189.838 1173.94 189.838 1165.22 Q189.838 1157.02 193.727 1152.16 Q197.616 1147.28 204.167 1147.28 Q205.926 1147.28 207.709 1147.62 Q209.514 1147.97 211.459 1148.66 Z" fill="#000000" fill-rule="evenodd" fill-opacity="1" /><path clip-path="url(#clip100)" d="M231.76 1150.98 Q228.148 1150.98 226.32 1154.54 Q224.514 1158.09 224.514 1165.22 Q224.514 1172.32 226.32 1175.89 Q228.148 1179.43 231.76 1179.43 Q235.394 1179.43 237.199 1175.89 Q239.028 1172.32 239.028 1165.22 Q239.028 1158.09 237.199 1154.54 Q235.394 1150.98 231.76 1150.98 M231.76 1147.28 Q237.57 1147.28 240.625 1151.88 Q243.704 1156.47 243.704 1165.22 Q243.704 1173.94 240.625 1178.55 Q237.57 1183.13 231.76 1183.13 Q225.949 1183.13 222.871 1178.55 Q219.815 1173.94 219.815 1165.22 Q219.815 1156.47 222.871 1151.88 Q225.949 1147.28 231.76 1147.28 Z" fill="#000000" fill-rule="evenodd" fill-opacity="1" /><path clip-path="url(#clip100)" d="M127.2 955.807 Q123.589 955.807 121.76 959.372 Q119.955 962.914 119.955 970.043 Q119.955 977.15 121.76 980.715 Q123.589 984.256 127.2 984.256 Q130.834 984.256 132.64 980.715 Q134.468 977.15 134.468 970.043 Q134.468 962.914 132.64 959.372 Q130.834 955.807 127.2 955.807 M127.2 952.104 Q133.01 952.104 136.066 956.71 Q139.144 961.293 139.144 970.043 Q139.144 978.77 136.066 983.377 Q133.01 987.96 127.2 987.96 Q121.39 987.96 118.311 983.377 Q115.256 978.77 115.256 970.043 Q115.256 961.293 118.311 956.71 Q121.39 952.104 127.2 952.104 Z" fill="#000000" fill-rule="evenodd" fill-opacity="1" /><path clip-path="url(#clip100)" d="M147.362 981.409 L152.246 981.409 L152.246 987.289 L147.362 987.289 L147.362 981.409 Z" fill="#000000" fill-rule="evenodd" fill-opacity="1" /><path clip-path="url(#clip100)" d="M175.278 956.803 L163.473 975.252 L175.278 975.252 L175.278 956.803 M174.052 952.729 L179.931 952.729 L179.931 975.252 L184.862 975.252 L184.862 979.141 L179.931 979.141 L179.931 987.289 L175.278 987.289 L175.278 979.141 L159.677 979.141 L159.677 974.627 L174.052 952.729 Z" fill="#000000" fill-rule="evenodd" fill-opacity="1" /><path clip-path="url(#clip100)" d="M203.172 968.145 Q200.024 968.145 198.172 970.298 Q196.343 972.451 196.343 976.201 Q196.343 979.928 198.172 982.103 Q200.024 984.256 203.172 984.256 Q206.32 984.256 208.149 982.103 Q210 979.928 210 976.201 Q210 972.451 208.149 970.298 Q206.32 968.145 203.172 968.145 M212.454 953.493 L212.454 957.752 Q210.695 956.918 208.889 956.479 Q207.107 956.039 205.348 956.039 Q200.718 956.039 198.264 959.164 Q195.834 962.289 195.487 968.608 Q196.852 966.594 198.912 965.529 Q200.973 964.442 203.449 964.442 Q208.658 964.442 211.667 967.613 Q214.699 970.761 214.699 976.201 Q214.699 981.525 211.551 984.742 Q208.403 987.96 203.172 987.96 Q197.176 987.96 194.005 983.377 Q190.834 978.77 190.834 970.043 Q190.834 961.849 194.723 956.988 Q198.612 952.104 205.162 952.104 Q206.922 952.104 208.704 952.451 Q210.51 952.798 212.454 953.493 Z" fill="#000000" fill-rule="evenodd" fill-opacity="1" /><path clip-path="url(#clip100)" d="M222.801 952.729 L241.158 952.729 L241.158 956.664 L227.084 956.664 L227.084 965.136 Q228.102 964.789 229.121 964.627 Q230.139 964.442 231.158 964.442 Q236.945 964.442 240.324 967.613 Q243.704 970.784 243.704 976.201 Q243.704 981.779 240.232 984.881 Q236.76 987.96 230.44 987.96 Q228.264 987.96 225.996 987.59 Q223.75 987.219 221.343 986.478 L221.343 981.779 Q223.426 982.914 225.648 983.469 Q227.871 984.025 230.347 984.025 Q234.352 984.025 236.69 981.918 Q239.028 979.812 239.028 976.201 Q239.028 972.59 236.69 970.483 Q234.352 968.377 230.347 968.377 Q228.473 968.377 226.598 968.793 Q224.746 969.21 222.801 970.09 L222.801 952.729 Z" fill="#000000" fill-rule="evenodd" fill-opacity="1" /><path clip-path="url(#clip100)" d="M126.205 760.635 Q122.593 760.635 120.765 764.2 Q118.959 767.742 118.959 774.871 Q118.959 781.978 120.765 785.543 Q122.593 789.084 126.205 789.084 Q129.839 789.084 131.644 785.543 Q133.473 781.978 133.473 774.871 Q133.473 767.742 131.644 764.2 Q129.839 760.635 126.205 760.635 M126.205 756.932 Q132.015 756.932 135.07 761.538 Q138.149 766.121 138.149 774.871 Q138.149 783.598 135.07 788.205 Q132.015 792.788 126.205 792.788 Q120.394 792.788 117.316 788.205 Q114.26 783.598 114.26 774.871 Q114.26 766.121 117.316 761.538 Q120.394 756.932 126.205 756.932 Z" fill="#000000" fill-rule="evenodd" fill-opacity="1" /><path clip-path="url(#clip100)" d="M146.366 786.237 L151.251 786.237 L151.251 792.117 L146.366 792.117 L146.366 786.237 Z" fill="#000000" fill-rule="evenodd" fill-opacity="1" /><path clip-path="url(#clip100)" d="M174.283 761.631 L162.477 780.08 L174.283 780.08 L174.283 761.631 M173.056 757.557 L178.936 757.557 L178.936 780.08 L183.866 780.08 L183.866 783.969 L178.936 783.969 L178.936 792.117 L174.283 792.117 L174.283 783.969 L158.681 783.969 L158.681 779.455 L173.056 757.557 Z" fill="#000000" fill-rule="evenodd" fill-opacity="1" /><path clip-path="url(#clip100)" d="M190.417 757.557 L212.639 757.557 L212.639 759.547 L200.093 792.117 L195.209 792.117 L207.014 761.492 L190.417 761.492 L190.417 757.557 Z" fill="#000000" fill-rule="evenodd" fill-opacity="1" /><path clip-path="url(#clip100)" d="M231.76 760.635 Q228.148 760.635 226.32 764.2 Q224.514 767.742 224.514 774.871 Q224.514 781.978 226.32 785.543 Q228.148 789.084 231.76 789.084 Q235.394 789.084 237.199 785.543 Q239.028 781.978 239.028 774.871 Q239.028 767.742 237.199 764.2 Q235.394 760.635 231.76 760.635 M231.76 756.932 Q237.57 756.932 240.625 761.538 Q243.704 766.121 243.704 774.871 Q243.704 783.598 240.625 788.205 Q237.57 792.788 231.76 792.788 Q225.949 792.788 222.871 788.205 Q219.815 783.598 219.815 774.871 Q219.815 766.121 222.871 761.538 Q225.949 756.932 231.76 756.932 Z" fill="#000000" fill-rule="evenodd" fill-opacity="1" /><path clip-path="url(#clip100)" d="M127.2 565.463 Q123.589 565.463 121.76 569.028 Q119.955 572.57 119.955 579.699 Q119.955 586.806 121.76 590.371 Q123.589 593.912 127.2 593.912 Q130.834 593.912 132.64 590.371 Q134.468 586.806 134.468 579.699 Q134.468 572.57 132.64 569.028 Q130.834 565.463 127.2 565.463 M127.2 561.76 Q133.01 561.76 136.066 566.366 Q139.144 570.949 139.144 579.699 Q139.144 588.426 136.066 593.033 Q133.01 597.616 127.2 597.616 Q121.39 597.616 118.311 593.033 Q115.256 588.426 115.256 579.699 Q115.256 570.949 118.311 566.366 Q121.39 561.76 127.2 561.76 Z" fill="#000000" fill-rule="evenodd" fill-opacity="1" /><path clip-path="url(#clip100)" d="M147.362 591.065 L152.246 591.065 L152.246 596.945 L147.362 596.945 L147.362 591.065 Z" fill="#000000" fill-rule="evenodd" fill-opacity="1" /><path clip-path="url(#clip100)" d="M175.278 566.459 L163.473 584.908 L175.278 584.908 L175.278 566.459 M174.052 562.385 L179.931 562.385 L179.931 584.908 L184.862 584.908 L184.862 588.797 L179.931 588.797 L179.931 596.945 L175.278 596.945 L175.278 588.797 L159.677 588.797 L159.677 584.283 L174.052 562.385 Z" fill="#000000" fill-rule="evenodd" fill-opacity="1" /><path clip-path="url(#clip100)" d="M191.413 562.385 L213.635 562.385 L213.635 564.375 L201.088 596.945 L196.204 596.945 L208.01 566.32 L191.413 566.32 L191.413 562.385 Z" fill="#000000" fill-rule="evenodd" fill-opacity="1" /><path clip-path="url(#clip100)" d="M222.801 562.385 L241.158 562.385 L241.158 566.32 L227.084 566.32 L227.084 574.792 Q228.102 574.445 229.121 574.283 Q230.139 574.098 231.158 574.098 Q236.945 574.098 240.324 577.269 Q243.704 580.44 243.704 585.857 Q243.704 591.435 240.232 594.537 Q236.76 597.616 230.44 597.616 Q228.264 597.616 225.996 597.246 Q223.75 596.875 221.343 596.134 L221.343 591.435 Q223.426 592.57 225.648 593.125 Q227.871 593.681 230.347 593.681 Q234.352 593.681 236.69 591.574 Q239.028 589.468 239.028 585.857 Q239.028 582.246 236.69 580.139 Q234.352 578.033 230.347 578.033 Q228.473 578.033 226.598 578.449 Q224.746 578.866 222.801 579.746 L222.801 562.385 Z" fill="#000000" fill-rule="evenodd" fill-opacity="1" /><path clip-path="url(#clip100)" d="M126.205 370.291 Q122.593 370.291 120.765 373.856 Q118.959 377.398 118.959 384.527 Q118.959 391.634 120.765 395.199 Q122.593 398.74 126.205 398.74 Q129.839 398.74 131.644 395.199 Q133.473 391.634 133.473 384.527 Q133.473 377.398 131.644 373.856 Q129.839 370.291 126.205 370.291 M126.205 366.588 Q132.015 366.588 135.07 371.194 Q138.149 375.777 138.149 384.527 Q138.149 393.254 135.07 397.861 Q132.015 402.444 126.205 402.444 Q120.394 402.444 117.316 397.861 Q114.26 393.254 114.26 384.527 Q114.26 375.777 117.316 371.194 Q120.394 366.588 126.205 366.588 Z" fill="#000000" fill-rule="evenodd" fill-opacity="1" /><path clip-path="url(#clip100)" d="M146.366 395.893 L151.251 395.893 L151.251 401.773 L146.366 401.773 L146.366 395.893 Z" fill="#000000" fill-rule="evenodd" fill-opacity="1" /><path clip-path="url(#clip100)" d="M174.283 371.287 L162.477 389.736 L174.283 389.736 L174.283 371.287 M173.056 367.213 L178.936 367.213 L178.936 389.736 L183.866 389.736 L183.866 393.625 L178.936 393.625 L178.936 401.773 L174.283 401.773 L174.283 393.625 L158.681 393.625 L158.681 389.111 L173.056 367.213 Z" fill="#000000" fill-rule="evenodd" fill-opacity="1" /><path clip-path="url(#clip100)" d="M201.598 385.361 Q198.264 385.361 196.343 387.143 Q194.445 388.925 194.445 392.05 Q194.445 395.175 196.343 396.958 Q198.264 398.74 201.598 398.74 Q204.931 398.74 206.852 396.958 Q208.774 395.152 208.774 392.05 Q208.774 388.925 206.852 387.143 Q204.954 385.361 201.598 385.361 M196.922 383.37 Q193.913 382.629 192.223 380.569 Q190.556 378.509 190.556 375.546 Q190.556 371.402 193.496 368.995 Q196.459 366.588 201.598 366.588 Q206.76 366.588 209.699 368.995 Q212.639 371.402 212.639 375.546 Q212.639 378.509 210.949 380.569 Q209.283 382.629 206.297 383.37 Q209.676 384.157 211.551 386.449 Q213.449 388.74 213.449 392.05 Q213.449 397.074 210.371 399.759 Q207.315 402.444 201.598 402.444 Q195.88 402.444 192.801 399.759 Q189.746 397.074 189.746 392.05 Q189.746 388.74 191.644 386.449 Q193.542 384.157 196.922 383.37 M195.209 375.986 Q195.209 378.671 196.875 380.176 Q198.565 381.68 201.598 381.68 Q204.607 381.68 206.297 380.176 Q208.01 378.671 208.01 375.986 Q208.01 373.301 206.297 371.796 Q204.607 370.291 201.598 370.291 Q198.565 370.291 196.875 371.796 Q195.209 373.301 195.209 375.986 Z" fill="#000000" fill-rule="evenodd" fill-opacity="1" /><path clip-path="url(#clip100)" d="M231.76 370.291 Q228.148 370.291 226.32 373.856 Q224.514 377.398 224.514 384.527 Q224.514 391.634 226.32 395.199 Q228.148 398.74 231.76 398.74 Q235.394 398.74 237.199 395.199 Q239.028 391.634 239.028 384.527 Q239.028 377.398 237.199 373.856 Q235.394 370.291 231.76 370.291 M231.76 366.588 Q237.57 366.588 240.625 371.194 Q243.704 375.777 243.704 384.527 Q243.704 393.254 240.625 397.861 Q237.57 402.444 231.76 402.444 Q225.949 402.444 222.871 397.861 Q219.815 393.254 219.815 384.527 Q219.815 375.777 222.871 371.194 Q225.949 366.588 231.76 366.588 Z" fill="#000000" fill-rule="evenodd" fill-opacity="1" /><path clip-path="url(#clip100)" d="M127.2 175.119 Q123.589 175.119 121.76 178.684 Q119.955 182.226 119.955 189.355 Q119.955 196.462 121.76 200.027 Q123.589 203.568 127.2 203.568 Q130.834 203.568 132.64 200.027 Q134.468 196.462 134.468 189.355 Q134.468 182.226 132.64 178.684 Q130.834 175.119 127.2 175.119 M127.2 171.416 Q133.01 171.416 136.066 176.022 Q139.144 180.605 139.144 189.355 Q139.144 198.082 136.066 202.689 Q133.01 207.272 127.2 207.272 Q121.39 207.272 118.311 202.689 Q115.256 198.082 115.256 189.355 Q115.256 180.605 118.311 176.022 Q121.39 171.416 127.2 171.416 Z" fill="#000000" fill-rule="evenodd" fill-opacity="1" /><path clip-path="url(#clip100)" d="M147.362 200.721 L152.246 200.721 L152.246 206.601 L147.362 206.601 L147.362 200.721 Z" fill="#000000" fill-rule="evenodd" fill-opacity="1" /><path clip-path="url(#clip100)" d="M175.278 176.115 L163.473 194.564 L175.278 194.564 L175.278 176.115 M174.052 172.041 L179.931 172.041 L179.931 194.564 L184.862 194.564 L184.862 198.453 L179.931 198.453 L179.931 206.601 L175.278 206.601 L175.278 198.453 L159.677 198.453 L159.677 193.939 L174.052 172.041 Z" fill="#000000" fill-rule="evenodd" fill-opacity="1" /><path clip-path="url(#clip100)" d="M202.593 190.189 Q199.26 190.189 197.338 191.971 Q195.44 193.753 195.44 196.878 Q195.44 200.003 197.338 201.786 Q199.26 203.568 202.593 203.568 Q205.926 203.568 207.848 201.786 Q209.769 199.98 209.769 196.878 Q209.769 193.753 207.848 191.971 Q205.949 190.189 202.593 190.189 M197.917 188.198 Q194.908 187.457 193.218 185.397 Q191.551 183.337 191.551 180.374 Q191.551 176.23 194.491 173.823 Q197.454 171.416 202.593 171.416 Q207.755 171.416 210.695 173.823 Q213.635 176.23 213.635 180.374 Q213.635 183.337 211.945 185.397 Q210.278 187.457 207.292 188.198 Q210.672 188.985 212.547 191.277 Q214.445 193.568 214.445 196.878 Q214.445 201.902 211.366 204.587 Q208.311 207.272 202.593 207.272 Q196.875 207.272 193.797 204.587 Q190.741 201.902 190.741 196.878 Q190.741 193.568 192.639 191.277 Q194.538 188.985 197.917 188.198 M196.204 180.814 Q196.204 183.499 197.871 185.004 Q199.561 186.508 202.593 186.508 Q205.602 186.508 207.292 185.004 Q209.005 183.499 209.005 180.814 Q209.005 178.129 207.292 176.624 Q205.602 175.119 202.593 175.119 Q199.561 175.119 197.871 176.624 Q196.204 178.129 196.204 180.814 Z" fill="#000000" fill-rule="evenodd" fill-opacity="1" /><path clip-path="url(#clip100)" d="M222.801 172.041 L241.158 172.041 L241.158 175.976 L227.084 175.976 L227.084 184.448 Q228.102 184.101 229.121 183.939 Q230.139 183.754 231.158 183.754 Q236.945 183.754 240.324 186.925 Q243.704 190.096 243.704 195.513 Q243.704 201.091 240.232 204.193 Q236.76 207.272 230.44 207.272 Q228.264 207.272 225.996 206.902 Q223.75 206.531 221.343 205.79 L221.343 201.091 Q223.426 202.226 225.648 202.781 Q227.871 203.337 230.347 203.337 Q234.352 203.337 236.69 201.23 Q239.028 199.124 239.028 195.513 Q239.028 191.902 236.69 189.795 Q234.352 187.689 230.347 187.689 Q228.473 187.689 226.598 188.105 Q224.746 188.522 222.801 189.402 L222.801 172.041 Z" fill="#000000" fill-rule="evenodd" fill-opacity="1" /><path clip-path="url(#clip100)" d="M16.4842 987.834 L16.4842 981.405 L64.0042 981.405 L64.0042 987.834 L16.4842 987.834 Z" fill="#000000" fill-rule="evenodd" fill-opacity="1" /><path clip-path="url(#clip100)" d="M42.4881 939.232 L64.0042 939.232 L64.0042 945.089 L42.679 945.089 Q37.6183 945.089 35.1038 947.062 Q32.5894 949.035 32.5894 952.982 Q32.5894 957.725 35.6131 960.462 Q38.6368 963.199 43.8567 963.199 L64.0042 963.199 L64.0042 969.087 L28.3562 969.087 L28.3562 963.199 L33.8944 963.199 Q30.6797 961.098 29.0883 958.266 Q27.4968 955.401 27.4968 951.677 Q27.4968 945.534 31.3163 942.383 Q35.1038 939.232 42.4881 939.232 Z" fill="#000000" fill-rule="evenodd" fill-opacity="1" /><path clip-path="url(#clip100)" d="M42.4881 897.919 L64.0042 897.919 L64.0042 903.775 L42.679 903.775 Q37.6183 903.775 35.1038 905.749 Q32.5894 907.722 32.5894 911.669 Q32.5894 916.411 35.6131 919.148 Q38.6368 921.886 43.8567 921.886 L64.0042 921.886 L64.0042 927.774 L28.3562 927.774 L28.3562 921.886 L33.8944 921.886 Q30.6797 919.785 29.0883 916.952 Q27.4968 914.088 27.4968 910.364 Q27.4968 904.221 31.3163 901.07 Q35.1038 897.919 42.4881 897.919 Z" fill="#000000" fill-rule="evenodd" fill-opacity="1" /><path clip-path="url(#clip100)" d="M44.7161 855.746 L47.5806 855.746 L47.5806 882.673 Q53.6281 882.291 56.8109 879.044 Q59.9619 875.766 59.9619 869.941 Q59.9619 866.568 59.1344 863.417 Q58.3069 860.234 56.6518 857.115 L62.1899 857.115 Q63.5267 860.266 64.227 863.576 Q64.9272 866.886 64.9272 870.292 Q64.9272 878.822 59.9619 883.819 Q54.9967 888.784 46.5303 888.784 Q37.7774 888.784 32.6531 884.073 Q27.4968 879.331 27.4968 871.31 Q27.4968 864.117 32.1438 859.947 Q36.7589 855.746 44.7161 855.746 M42.9973 861.602 Q38.1912 861.666 35.3266 864.308 Q32.4621 866.918 32.4621 871.246 Q32.4621 876.148 35.2312 879.108 Q38.0002 882.036 43.0292 882.482 L42.9973 861.602 Z" fill="#000000" fill-rule="evenodd" fill-opacity="1" /><path clip-path="url(#clip100)" d="M33.8307 825.477 Q33.2578 826.464 33.0032 827.641 Q32.7167 828.787 32.7167 830.188 Q32.7167 835.153 35.9632 837.827 Q39.1779 840.468 45.2253 840.468 L64.0042 840.468 L64.0042 846.357 L28.3562 846.357 L28.3562 840.468 L33.8944 840.468 Q30.6479 838.622 29.0883 835.662 Q27.4968 832.702 27.4968 828.469 Q27.4968 827.864 27.5923 827.132 Q27.656 826.4 27.8151 825.509 L33.8307 825.477 Z" fill="#000000" fill-rule="evenodd" fill-opacity="1" /><path clip-path="url(#clip100)" d="M21.7677 791.93 L39.6235 791.93 L39.6235 783.845 Q39.6235 779.357 37.3 776.907 Q34.9765 774.456 30.6797 774.456 Q26.4147 774.456 24.0912 776.907 Q21.7677 779.357 21.7677 783.845 L21.7677 791.93 M16.4842 798.359 L16.4842 783.845 Q16.4842 775.856 20.1126 771.782 Q23.7092 767.676 30.6797 767.676 Q37.7138 767.676 41.3104 771.782 Q44.907 775.856 44.907 783.845 L44.907 791.93 L64.0042 791.93 L64.0042 798.359 L16.4842 798.359 Z" fill="#000000" fill-rule="evenodd" fill-opacity="1" /><path clip-path="url(#clip100)" d="M33.8307 739.795 Q33.2578 740.781 33.0032 741.959 Q32.7167 743.105 32.7167 744.505 Q32.7167 749.47 35.9632 752.144 Q39.1779 754.786 45.2253 754.786 L64.0042 754.786 L64.0042 760.674 L28.3562 760.674 L28.3562 754.786 L33.8944 754.786 Q30.6479 752.94 29.0883 749.98 Q27.4968 747.02 27.4968 742.787 Q27.4968 742.182 27.5923 741.45 Q27.656 740.718 27.8151 739.826 L33.8307 739.795 Z" fill="#000000" fill-rule="evenodd" fill-opacity="1" /><path clip-path="url(#clip100)" d="M32.4621 721.27 Q32.4621 725.981 36.1542 728.718 Q39.8145 731.456 46.212 731.456 Q52.6095 731.456 56.3017 728.75 Q59.9619 726.013 59.9619 721.27 Q59.9619 716.592 56.2698 713.854 Q52.5777 711.117 46.212 711.117 Q39.8781 711.117 36.186 713.854 Q32.4621 716.592 32.4621 721.27 M27.4968 721.27 Q27.4968 713.632 32.4621 709.271 Q37.4273 704.911 46.212 704.911 Q54.9649 704.911 59.9619 709.271 Q64.9272 713.632 64.9272 721.27 Q64.9272 728.941 59.9619 733.302 Q54.9649 737.63 46.212 737.63 Q37.4273 737.63 32.4621 733.302 Q27.4968 728.941 27.4968 721.27 Z" fill="#000000" fill-rule="evenodd" fill-opacity="1" /><path clip-path="url(#clip100)" d="M33.7671 671.745 L14.479 671.745 L14.479 665.889 L64.0042 665.889 L64.0042 671.745 L58.657 671.745 Q61.8398 673.591 63.3994 676.424 Q64.9272 679.225 64.9272 683.172 Q64.9272 689.633 59.771 693.707 Q54.6147 697.749 46.212 697.749 Q37.8093 697.749 32.6531 693.707 Q27.4968 689.633 27.4968 683.172 Q27.4968 679.225 29.0564 676.424 Q30.5842 673.591 33.7671 671.745 M46.212 691.702 Q52.6732 691.702 56.3653 689.06 Q60.0256 686.386 60.0256 681.739 Q60.0256 677.092 56.3653 674.419 Q52.6732 671.745 46.212 671.745 Q39.7508 671.745 36.0905 674.419 Q32.3984 677.092 32.3984 681.739 Q32.3984 686.386 36.0905 689.06 Q39.7508 691.702 46.212 691.702 Z" fill="#000000" fill-rule="evenodd" fill-opacity="1" /><path clip-path="url(#clip100)" d="M49.9359 654.43 L28.3562 654.43 L28.3562 648.574 L49.7131 648.574 Q54.7739 648.574 57.3202 646.601 Q59.8346 644.627 59.8346 640.681 Q59.8346 635.938 56.8109 633.201 Q53.7872 630.432 48.5673 630.432 L28.3562 630.432 L28.3562 624.575 L64.0042 624.575 L64.0042 630.432 L58.5296 630.432 Q61.7762 632.564 63.3676 635.397 Q64.9272 638.198 64.9272 641.922 Q64.9272 648.065 61.1078 651.248 Q57.2883 654.43 49.9359 654.43 M27.4968 639.694 L27.4968 639.694 Z" fill="#000000" fill-rule="evenodd" fill-opacity="1" /><path clip-path="url(#clip100)" d="M29.7248 586.859 L35.1993 586.859 Q33.8307 589.341 33.1623 591.856 Q32.4621 594.338 32.4621 596.885 Q32.4621 602.582 36.0905 605.733 Q39.6872 608.884 46.212 608.884 Q52.7369 608.884 56.3653 605.733 Q59.9619 602.582 59.9619 596.885 Q59.9619 594.338 59.2935 591.856 Q58.5933 589.341 57.2247 586.859 L62.6355 586.859 Q63.7814 589.309 64.3543 591.951 Q64.9272 594.561 64.9272 597.521 Q64.9272 605.574 59.8664 610.316 Q54.8057 615.059 46.212 615.059 Q37.491 615.059 32.4939 610.284 Q27.4968 605.478 27.4968 597.139 Q27.4968 594.434 28.0697 591.856 Q28.6108 589.277 29.7248 586.859 Z" fill="#000000" fill-rule="evenodd" fill-opacity="1" /><path clip-path="url(#clip100)" d="M18.2347 570.881 L28.3562 570.881 L28.3562 558.818 L32.9077 558.818 L32.9077 570.881 L52.2594 570.881 Q56.6199 570.881 57.8613 569.703 Q59.1026 568.493 59.1026 564.833 L59.1026 558.818 L64.0042 558.818 L64.0042 564.833 Q64.0042 571.613 61.4897 574.191 Q58.9434 576.769 52.2594 576.769 L32.9077 576.769 L32.9077 581.066 L28.3562 581.066 L28.3562 576.769 L18.2347 576.769 L18.2347 570.881 Z" fill="#000000" fill-rule="evenodd" fill-opacity="1" /><path clip-path="url(#clip100)" d="M1185.81 17.6457 Q1176.9 17.6457 1171.63 24.2892 Q1166.41 30.9327 1166.41 42.3968 Q1166.41 53.8203 1171.63 60.4638 Q1176.9 67.1073 1185.81 67.1073 Q1194.72 67.1073 1199.91 60.4638 Q1205.13 53.8203 1205.13 42.3968 Q1205.13 30.9327 1199.91 24.2892 Q1194.72 17.6457 1185.81 17.6457 M1185.81 11.0023 Q1198.53 11.0023 1206.15 19.5497 Q1213.76 28.0566 1213.76 42.3968 Q1213.76 56.6965 1206.15 65.2439 Q1198.53 73.7508 1185.81 73.7508 Q1173.05 73.7508 1165.39 65.2439 Q1157.78 56.737 1157.78 42.3968 Q1157.78 28.0566 1165.39 19.5497 Q1173.05 11.0023 1185.81 11.0023 Z" fill="#000000" fill-rule="evenodd" fill-opacity="1" /><path clip-path="url(#clip100)" d="M1220.89 27.2059 L1228.79 27.2059 L1242.97 65.2844 L1257.15 27.2059 L1265.05 27.2059 L1248.03 72.576 L1237.91 72.576 L1220.89 27.2059 Z" fill="#000000" fill-rule="evenodd" fill-opacity="1" /><path clip-path="url(#clip100)" d="M1314.14 48.0275 L1314.14 51.6733 L1279.87 51.6733 Q1280.36 59.3701 1284.49 63.421 Q1288.66 67.4314 1296.08 67.4314 Q1300.37 67.4314 1304.38 66.3781 Q1308.43 65.3249 1312.4 63.2184 L1312.4 70.267 Q1308.39 71.9684 1304.18 72.8596 Q1299.97 73.7508 1295.63 73.7508 Q1284.77 73.7508 1278.41 67.4314 Q1272.1 61.1119 1272.1 50.3365 Q1272.1 39.1965 1278.09 32.6746 Q1284.13 26.1121 1294.33 26.1121 Q1303.49 26.1121 1308.8 32.0264 Q1314.14 37.9003 1314.14 48.0275 M1306.69 45.84 Q1306.61 39.7232 1303.25 36.0774 Q1299.93 32.4315 1294.42 32.4315 Q1288.18 32.4315 1284.41 35.9558 Q1280.68 39.4801 1280.12 45.8805 L1306.69 45.84 Z" fill="#000000" fill-rule="evenodd" fill-opacity="1" /><path clip-path="url(#clip100)" d="M1352.67 34.1734 Q1351.41 33.4443 1349.91 33.1202 Q1348.45 32.7556 1346.67 32.7556 Q1340.35 32.7556 1336.95 36.8875 Q1333.59 40.9789 1333.59 48.6757 L1333.59 72.576 L1326.09 72.576 L1326.09 27.2059 L1333.59 27.2059 L1333.59 34.2544 Q1335.94 30.1225 1339.7 28.1376 Q1343.47 26.1121 1348.86 26.1121 Q1349.63 26.1121 1350.56 26.2337 Q1351.49 26.3147 1352.63 26.5172 L1352.67 34.1734 Z" fill="#000000" fill-rule="evenodd" fill-opacity="1" /><path clip-path="url(#clip100)" d="M1360.49 9.54393 L1367.94 9.54393 L1367.94 72.576 L1360.49 72.576 L1360.49 9.54393 Z" fill="#000000" fill-rule="evenodd" fill-opacity="1" /><path clip-path="url(#clip100)" d="M1404.15 49.7694 Q1395.12 49.7694 1391.64 51.8354 Q1388.15 53.9013 1388.15 58.8839 Q1388.15 62.8538 1390.75 65.2034 Q1393.38 67.5124 1397.88 67.5124 Q1404.07 67.5124 1407.8 63.1374 Q1411.57 58.7219 1411.57 51.4303 L1411.57 49.7694 L1404.15 49.7694 M1419.02 46.6907 L1419.02 72.576 L1411.57 72.576 L1411.57 65.6895 Q1409.02 69.8214 1405.21 71.8063 Q1401.4 73.7508 1395.89 73.7508 Q1388.92 73.7508 1384.79 69.8619 Q1380.7 65.9325 1380.7 59.3701 Q1380.7 51.7138 1385.8 47.825 Q1390.95 43.9361 1401.12 43.9361 L1411.57 43.9361 L1411.57 43.2069 Q1411.57 38.0623 1408.17 35.2672 Q1404.8 32.4315 1398.69 32.4315 Q1394.8 32.4315 1391.11 33.3632 Q1387.42 34.295 1384.02 36.1584 L1384.02 29.2718 Q1388.11 27.692 1391.96 26.9223 Q1395.81 26.1121 1399.46 26.1121 Q1409.3 26.1121 1414.16 31.2163 Q1419.02 36.3204 1419.02 46.6907 Z" fill="#000000" fill-rule="evenodd" fill-opacity="1" /><path clip-path="url(#clip100)" d="M1441.59 65.7705 L1441.59 89.8329 L1434.09 89.8329 L1434.09 27.2059 L1441.59 27.2059 L1441.59 34.0924 Q1443.93 30.0415 1447.5 28.0971 Q1451.1 26.1121 1456.09 26.1121 Q1464.35 26.1121 1469.5 32.6746 Q1474.68 39.2371 1474.68 49.9314 Q1474.68 60.6258 1469.5 67.1883 Q1464.35 73.7508 1456.09 73.7508 Q1451.1 73.7508 1447.5 71.8063 Q1443.93 69.8214 1441.59 65.7705 M1466.94 49.9314 Q1466.94 41.7081 1463.54 37.0496 Q1460.18 32.3505 1454.26 32.3505 Q1448.35 32.3505 1444.95 37.0496 Q1441.59 41.7081 1441.59 49.9314 Q1441.59 58.1548 1444.95 62.8538 Q1448.35 67.5124 1454.26 67.5124 Q1460.18 67.5124 1463.54 62.8538 Q1466.94 58.1548 1466.94 49.9314 Z" fill="#000000" fill-rule="evenodd" fill-opacity="1" /><polyline clip-path="url(#clip102)" style="stroke:#000000; stroke-linecap:round; stroke-linejoin:round; stroke-width:4; stroke-opacity:1; fill:none" points="
  338.934,575.944 338.934,575.944 
  "/>
<polyline clip-path="url(#clip102)" style="stroke:#000000; stroke-linecap:round; stroke-linejoin:round; stroke-width:4; stroke-opacity:1; fill:none" points="
  398.164,744.831 398.164,744.218 
  "/>
<polyline clip-path="url(#clip102)" style="stroke:#000000; stroke-linecap:round; stroke-linejoin:round; stroke-width:4; stroke-opacity:1; fill:none" points="
  457.394,641.215 457.394,641.211 
  "/>
<polyline clip-path="url(#clip102)" style="stroke:#000000; stroke-linecap:round; stroke-linejoin:round; stroke-width:4; stroke-opacity:1; fill:none" points="
  516.624,705.568 516.624,704.898 
  "/>
<polyline clip-path="url(#clip102)" style="stroke:#000000; stroke-linecap:round; stroke-linejoin:round; stroke-width:4; stroke-opacity:1; fill:none" points="
  575.854,636.924 575.854,636.47 
  "/>
<polyline clip-path="url(#clip102)" style="stroke:#000000; stroke-linecap:round; stroke-linejoin:round; stroke-width:4; stroke-opacity:1; fill:none" points="
  635.084,711.001 635.084,678.245 
  "/>
<polyline clip-path="url(#clip102)" style="stroke:#000000; stroke-linecap:round; stroke-linejoin:round; stroke-width:4; stroke-opacity:1; fill:none" points="
  694.314,634.412 694.314,633.211 
  "/>
<polyline clip-path="url(#clip102)" style="stroke:#000000; stroke-linecap:round; stroke-linejoin:round; stroke-width:4; stroke-opacity:1; fill:none" points="
  753.544,702.362 753.544,698.494 
  "/>
<polyline clip-path="url(#clip102)" style="stroke:#000000; stroke-linecap:round; stroke-linejoin:round; stroke-width:4; stroke-opacity:1; fill:none" points="
  812.774,650.828 812.774,616.942 
  "/>
<polyline clip-path="url(#clip102)" style="stroke:#000000; stroke-linecap:round; stroke-linejoin:round; stroke-width:4; stroke-opacity:1; fill:none" points="
  872.004,866.326 872.004,556.945 
  "/>
<polyline clip-path="url(#clip102)" style="stroke:#000000; stroke-linecap:round; stroke-linejoin:round; stroke-width:4; stroke-opacity:1; fill:none" points="
  931.235,625.631 931.235,606.566 
  "/>
<polyline clip-path="url(#clip102)" style="stroke:#000000; stroke-linecap:round; stroke-linejoin:round; stroke-width:4; stroke-opacity:1; fill:none" points="
  990.465,833.114 990.465,535.576 
  "/>
<polyline clip-path="url(#clip102)" style="stroke:#000000; stroke-linecap:round; stroke-linejoin:round; stroke-width:4; stroke-opacity:1; fill:none" points="
  1049.69,768.733 1049.69,527.579 
  "/>
<polyline clip-path="url(#clip102)" style="stroke:#000000; stroke-linecap:round; stroke-linejoin:round; stroke-width:4; stroke-opacity:1; fill:none" points="
  1108.92,745.91 1108.92,618.457 
  "/>
<polyline clip-path="url(#clip102)" style="stroke:#000000; stroke-linecap:round; stroke-linejoin:round; stroke-width:4; stroke-opacity:1; fill:none" points="
  1168.15,693.448 1168.15,658.589 
  "/>
<polyline clip-path="url(#clip102)" style="stroke:#000000; stroke-linecap:round; stroke-linejoin:round; stroke-width:4; stroke-opacity:1; fill:none" points="
  1227.38,740.852 1227.38,731.409 
  "/>
<polyline clip-path="url(#clip102)" style="stroke:#000000; stroke-linecap:round; stroke-linejoin:round; stroke-width:4; stroke-opacity:1; fill:none" points="
  1286.61,860.896 1286.61,446.053 
  "/>
<polyline clip-path="url(#clip102)" style="stroke:#000000; stroke-linecap:round; stroke-linejoin:round; stroke-width:4; stroke-opacity:1; fill:none" points="
  1345.84,933.071 1345.84,486.715 
  "/>
<polyline clip-path="url(#clip102)" style="stroke:#000000; stroke-linecap:round; stroke-linejoin:round; stroke-width:4; stroke-opacity:1; fill:none" points="
  1405.07,961.033 1405.07,342.716 
  "/>
<polyline clip-path="url(#clip102)" style="stroke:#000000; stroke-linecap:round; stroke-linejoin:round; stroke-width:4; stroke-opacity:1; fill:none" points="
  1464.31,946.298 1464.31,403.035 
  "/>
<polyline clip-path="url(#clip102)" style="stroke:#000000; stroke-linecap:round; stroke-linejoin:round; stroke-width:4; stroke-opacity:1; fill:none" points="
  1523.54,877.919 1523.54,443.447 
  "/>
<polyline clip-path="url(#clip102)" style="stroke:#000000; stroke-linecap:round; stroke-linejoin:round; stroke-width:4; stroke-opacity:1; fill:none" points="
  1582.77,975.217 1582.77,493.181 
  "/>
<polyline clip-path="url(#clip102)" style="stroke:#000000; stroke-linecap:round; stroke-linejoin:round; stroke-width:4; stroke-opacity:1; fill:none" points="
  1642,1116.71 1642,160.256 
  "/>
<polyline clip-path="url(#clip102)" style="stroke:#000000; stroke-linecap:round; stroke-linejoin:round; stroke-width:4; stroke-opacity:1; fill:none" points="
  1701.23,1386.4 1701.23,197.385 
  "/>
<polyline clip-path="url(#clip102)" style="stroke:#000000; stroke-linecap:round; stroke-linejoin:round; stroke-width:4; stroke-opacity:1; fill:none" points="
  1760.46,950.606 1760.46,386.432 
  "/>
<polyline clip-path="url(#clip102)" style="stroke:#000000; stroke-linecap:round; stroke-linejoin:round; stroke-width:4; stroke-opacity:1; fill:none" points="
  1819.69,861.647 1819.69,613.158 
  "/>
<polyline clip-path="url(#clip102)" style="stroke:#000000; stroke-linecap:round; stroke-linejoin:round; stroke-width:4; stroke-opacity:1; fill:none" points="
  1878.92,918.91 1878.92,746.885 
  "/>
<line clip-path="url(#clip102)" x1="346.934" y1="575.944" x2="330.934" y2="575.944" style="stroke:#000000; stroke-width:3.2; stroke-opacity:1"/>
<line clip-path="url(#clip102)" x1="346.934" y1="575.944" x2="330.934" y2="575.944" style="stroke:#000000; stroke-width:3.2; stroke-opacity:1"/>
<line clip-path="url(#clip102)" x1="406.164" y1="744.831" x2="390.164" y2="744.831" style="stroke:#000000; stroke-width:3.2; stroke-opacity:1"/>
<line clip-path="url(#clip102)" x1="406.164" y1="744.218" x2="390.164" y2="744.218" style="stroke:#000000; stroke-width:3.2; stroke-opacity:1"/>
<line clip-path="url(#clip102)" x1="465.394" y1="641.215" x2="449.394" y2="641.215" style="stroke:#000000; stroke-width:3.2; stroke-opacity:1"/>
<line clip-path="url(#clip102)" x1="465.394" y1="641.211" x2="449.394" y2="641.211" style="stroke:#000000; stroke-width:3.2; stroke-opacity:1"/>
<line clip-path="url(#clip102)" x1="524.624" y1="705.568" x2="508.624" y2="705.568" style="stroke:#000000; stroke-width:3.2; stroke-opacity:1"/>
<line clip-path="url(#clip102)" x1="524.624" y1="704.898" x2="508.624" y2="704.898" style="stroke:#000000; stroke-width:3.2; stroke-opacity:1"/>
<line clip-path="url(#clip102)" x1="583.854" y1="636.924" x2="567.854" y2="636.924" style="stroke:#000000; stroke-width:3.2; stroke-opacity:1"/>
<line clip-path="url(#clip102)" x1="583.854" y1="636.47" x2="567.854" y2="636.47" style="stroke:#000000; stroke-width:3.2; stroke-opacity:1"/>
<line clip-path="url(#clip102)" x1="643.084" y1="711.001" x2="627.084" y2="711.001" style="stroke:#000000; stroke-width:3.2; stroke-opacity:1"/>
<line clip-path="url(#clip102)" x1="643.084" y1="678.245" x2="627.084" y2="678.245" style="stroke:#000000; stroke-width:3.2; stroke-opacity:1"/>
<line clip-path="url(#clip102)" x1="702.314" y1="634.412" x2="686.314" y2="634.412" style="stroke:#000000; stroke-width:3.2; stroke-opacity:1"/>
<line clip-path="url(#clip102)" x1="702.314" y1="633.211" x2="686.314" y2="633.211" style="stroke:#000000; stroke-width:3.2; stroke-opacity:1"/>
<line clip-path="url(#clip102)" x1="761.544" y1="702.362" x2="745.544" y2="702.362" style="stroke:#000000; stroke-width:3.2; stroke-opacity:1"/>
<line clip-path="url(#clip102)" x1="761.544" y1="698.494" x2="745.544" y2="698.494" style="stroke:#000000; stroke-width:3.2; stroke-opacity:1"/>
<line clip-path="url(#clip102)" x1="820.774" y1="650.828" x2="804.774" y2="650.828" style="stroke:#000000; stroke-width:3.2; stroke-opacity:1"/>
<line clip-path="url(#clip102)" x1="820.774" y1="616.942" x2="804.774" y2="616.942" style="stroke:#000000; stroke-width:3.2; stroke-opacity:1"/>
<line clip-path="url(#clip102)" x1="880.004" y1="866.326" x2="864.004" y2="866.326" style="stroke:#000000; stroke-width:3.2; stroke-opacity:1"/>
<line clip-path="url(#clip102)" x1="880.004" y1="556.945" x2="864.004" y2="556.945" style="stroke:#000000; stroke-width:3.2; stroke-opacity:1"/>
<line clip-path="url(#clip102)" x1="939.235" y1="625.631" x2="923.235" y2="625.631" style="stroke:#000000; stroke-width:3.2; stroke-opacity:1"/>
<line clip-path="url(#clip102)" x1="939.235" y1="606.566" x2="923.235" y2="606.566" style="stroke:#000000; stroke-width:3.2; stroke-opacity:1"/>
<line clip-path="url(#clip102)" x1="998.465" y1="833.114" x2="982.465" y2="833.114" style="stroke:#000000; stroke-width:3.2; stroke-opacity:1"/>
<line clip-path="url(#clip102)" x1="998.465" y1="535.576" x2="982.465" y2="535.576" style="stroke:#000000; stroke-width:3.2; stroke-opacity:1"/>
<line clip-path="url(#clip102)" x1="1057.69" y1="768.733" x2="1041.69" y2="768.733" style="stroke:#000000; stroke-width:3.2; stroke-opacity:1"/>
<line clip-path="url(#clip102)" x1="1057.69" y1="527.579" x2="1041.69" y2="527.579" style="stroke:#000000; stroke-width:3.2; stroke-opacity:1"/>
<line clip-path="url(#clip102)" x1="1116.92" y1="745.91" x2="1100.92" y2="745.91" style="stroke:#000000; stroke-width:3.2; stroke-opacity:1"/>
<line clip-path="url(#clip102)" x1="1116.92" y1="618.457" x2="1100.92" y2="618.457" style="stroke:#000000; stroke-width:3.2; stroke-opacity:1"/>
<line clip-path="url(#clip102)" x1="1176.15" y1="693.448" x2="1160.15" y2="693.448" style="stroke:#000000; stroke-width:3.2; stroke-opacity:1"/>
<line clip-path="url(#clip102)" x1="1176.15" y1="658.589" x2="1160.15" y2="658.589" style="stroke:#000000; stroke-width:3.2; stroke-opacity:1"/>
<line clip-path="url(#clip102)" x1="1235.38" y1="740.852" x2="1219.38" y2="740.852" style="stroke:#000000; stroke-width:3.2; stroke-opacity:1"/>
<line clip-path="url(#clip102)" x1="1235.38" y1="731.409" x2="1219.38" y2="731.409" style="stroke:#000000; stroke-width:3.2; stroke-opacity:1"/>
<line clip-path="url(#clip102)" x1="1294.61" y1="860.896" x2="1278.61" y2="860.896" style="stroke:#000000; stroke-width:3.2; stroke-opacity:1"/>
<line clip-path="url(#clip102)" x1="1294.61" y1="446.053" x2="1278.61" y2="446.053" style="stroke:#000000; stroke-width:3.2; stroke-opacity:1"/>
<line clip-path="url(#clip102)" x1="1353.84" y1="933.071" x2="1337.84" y2="933.071" style="stroke:#000000; stroke-width:3.2; stroke-opacity:1"/>
<line clip-path="url(#clip102)" x1="1353.84" y1="486.715" x2="1337.84" y2="486.715" style="stroke:#000000; stroke-width:3.2; stroke-opacity:1"/>
<line clip-path="url(#clip102)" x1="1413.07" y1="961.033" x2="1397.07" y2="961.033" style="stroke:#000000; stroke-width:3.2; stroke-opacity:1"/>
<line clip-path="url(#clip102)" x1="1413.07" y1="342.716" x2="1397.07" y2="342.716" style="stroke:#000000; stroke-width:3.2; stroke-opacity:1"/>
<line clip-path="url(#clip102)" x1="1472.31" y1="946.298" x2="1456.31" y2="946.298" style="stroke:#000000; stroke-width:3.2; stroke-opacity:1"/>
<line clip-path="url(#clip102)" x1="1472.31" y1="403.035" x2="1456.31" y2="403.035" style="stroke:#000000; stroke-width:3.2; stroke-opacity:1"/>
<line clip-path="url(#clip102)" x1="1531.54" y1="877.919" x2="1515.54" y2="877.919" style="stroke:#000000; stroke-width:3.2; stroke-opacity:1"/>
<line clip-path="url(#clip102)" x1="1531.54" y1="443.447" x2="1515.54" y2="443.447" style="stroke:#000000; stroke-width:3.2; stroke-opacity:1"/>
<line clip-path="url(#clip102)" x1="1590.77" y1="975.217" x2="1574.77" y2="975.217" style="stroke:#000000; stroke-width:3.2; stroke-opacity:1"/>
<line clip-path="url(#clip102)" x1="1590.77" y1="493.181" x2="1574.77" y2="493.181" style="stroke:#000000; stroke-width:3.2; stroke-opacity:1"/>
<line clip-path="url(#clip102)" x1="1650" y1="1116.71" x2="1634" y2="1116.71" style="stroke:#000000; stroke-width:3.2; stroke-opacity:1"/>
<line clip-path="url(#clip102)" x1="1650" y1="160.256" x2="1634" y2="160.256" style="stroke:#000000; stroke-width:3.2; stroke-opacity:1"/>
<line clip-path="url(#clip102)" x1="1709.23" y1="1386.4" x2="1693.23" y2="1386.4" style="stroke:#000000; stroke-width:3.2; stroke-opacity:1"/>
<line clip-path="url(#clip102)" x1="1709.23" y1="197.385" x2="1693.23" y2="197.385" style="stroke:#000000; stroke-width:3.2; stroke-opacity:1"/>
<line clip-path="url(#clip102)" x1="1768.46" y1="950.606" x2="1752.46" y2="950.606" style="stroke:#000000; stroke-width:3.2; stroke-opacity:1"/>
<line clip-path="url(#clip102)" x1="1768.46" y1="386.432" x2="1752.46" y2="386.432" style="stroke:#000000; stroke-width:3.2; stroke-opacity:1"/>
<line clip-path="url(#clip102)" x1="1827.69" y1="861.647" x2="1811.69" y2="861.647" style="stroke:#000000; stroke-width:3.2; stroke-opacity:1"/>
<line clip-path="url(#clip102)" x1="1827.69" y1="613.158" x2="1811.69" y2="613.158" style="stroke:#000000; stroke-width:3.2; stroke-opacity:1"/>
<line clip-path="url(#clip102)" x1="1886.92" y1="918.91" x2="1870.92" y2="918.91" style="stroke:#000000; stroke-width:3.2; stroke-opacity:1"/>
<line clip-path="url(#clip102)" x1="1886.92" y1="746.885" x2="1870.92" y2="746.885" style="stroke:#000000; stroke-width:3.2; stroke-opacity:1"/>
<circle clip-path="url(#clip102)" cx="338.934" cy="575.944" r="7.2" fill="#009af9" fill-rule="evenodd" fill-opacity="1" stroke="#000000" stroke-opacity="1" stroke-width="3.2"/>
<circle clip-path="url(#clip102)" cx="398.164" cy="744.524" r="7.2" fill="#009af9" fill-rule="evenodd" fill-opacity="1" stroke="#000000" stroke-opacity="1" stroke-width="3.2"/>
<circle clip-path="url(#clip102)" cx="457.394" cy="641.213" r="7.2" fill="#009af9" fill-rule="evenodd" fill-opacity="1" stroke="#000000" stroke-opacity="1" stroke-width="3.2"/>
<circle clip-path="url(#clip102)" cx="516.624" cy="705.233" r="7.2" fill="#009af9" fill-rule="evenodd" fill-opacity="1" stroke="#000000" stroke-opacity="1" stroke-width="3.2"/>
<circle clip-path="url(#clip102)" cx="575.854" cy="636.697" r="7.2" fill="#009af9" fill-rule="evenodd" fill-opacity="1" stroke="#000000" stroke-opacity="1" stroke-width="3.2"/>
<circle clip-path="url(#clip102)" cx="635.084" cy="694.623" r="7.2" fill="#009af9" fill-rule="evenodd" fill-opacity="1" stroke="#000000" stroke-opacity="1" stroke-width="3.2"/>
<circle clip-path="url(#clip102)" cx="694.314" cy="633.811" r="7.2" fill="#009af9" fill-rule="evenodd" fill-opacity="1" stroke="#000000" stroke-opacity="1" stroke-width="3.2"/>
<circle clip-path="url(#clip102)" cx="753.544" cy="700.428" r="7.2" fill="#009af9" fill-rule="evenodd" fill-opacity="1" stroke="#000000" stroke-opacity="1" stroke-width="3.2"/>
<circle clip-path="url(#clip102)" cx="812.774" cy="633.885" r="7.2" fill="#009af9" fill-rule="evenodd" fill-opacity="1" stroke="#000000" stroke-opacity="1" stroke-width="3.2"/>
<circle clip-path="url(#clip102)" cx="872.004" cy="711.635" r="7.2" fill="#009af9" fill-rule="evenodd" fill-opacity="1" stroke="#000000" stroke-opacity="1" stroke-width="3.2"/>
<circle clip-path="url(#clip102)" cx="931.235" cy="616.099" r="7.2" fill="#009af9" fill-rule="evenodd" fill-opacity="1" stroke="#000000" stroke-opacity="1" stroke-width="3.2"/>
<circle clip-path="url(#clip102)" cx="990.465" cy="684.345" r="7.2" fill="#009af9" fill-rule="evenodd" fill-opacity="1" stroke="#000000" stroke-opacity="1" stroke-width="3.2"/>
<circle clip-path="url(#clip102)" cx="1049.69" cy="648.156" r="7.2" fill="#009af9" fill-rule="evenodd" fill-opacity="1" stroke="#000000" stroke-opacity="1" stroke-width="3.2"/>
<circle clip-path="url(#clip102)" cx="1108.92" cy="682.184" r="7.2" fill="#009af9" fill-rule="evenodd" fill-opacity="1" stroke="#000000" stroke-opacity="1" stroke-width="3.2"/>
<circle clip-path="url(#clip102)" cx="1168.15" cy="676.019" r="7.2" fill="#009af9" fill-rule="evenodd" fill-opacity="1" stroke="#000000" stroke-opacity="1" stroke-width="3.2"/>
<circle clip-path="url(#clip102)" cx="1227.38" cy="736.13" r="7.2" fill="#009af9" fill-rule="evenodd" fill-opacity="1" stroke="#000000" stroke-opacity="1" stroke-width="3.2"/>
<circle clip-path="url(#clip102)" cx="1286.61" cy="653.474" r="7.2" fill="#009af9" fill-rule="evenodd" fill-opacity="1" stroke="#000000" stroke-opacity="1" stroke-width="3.2"/>
<circle clip-path="url(#clip102)" cx="1345.84" cy="709.893" r="7.2" fill="#009af9" fill-rule="evenodd" fill-opacity="1" stroke="#000000" stroke-opacity="1" stroke-width="3.2"/>
<circle clip-path="url(#clip102)" cx="1405.07" cy="651.874" r="7.2" fill="#009af9" fill-rule="evenodd" fill-opacity="1" stroke="#000000" stroke-opacity="1" stroke-width="3.2"/>
<circle clip-path="url(#clip102)" cx="1464.31" cy="674.667" r="7.2" fill="#009af9" fill-rule="evenodd" fill-opacity="1" stroke="#000000" stroke-opacity="1" stroke-width="3.2"/>
<circle clip-path="url(#clip102)" cx="1523.54" cy="660.683" r="7.2" fill="#009af9" fill-rule="evenodd" fill-opacity="1" stroke="#000000" stroke-opacity="1" stroke-width="3.2"/>
<circle clip-path="url(#clip102)" cx="1582.77" cy="734.199" r="7.2" fill="#009af9" fill-rule="evenodd" fill-opacity="1" stroke="#000000" stroke-opacity="1" stroke-width="3.2"/>
<circle clip-path="url(#clip102)" cx="1642" cy="638.482" r="7.2" fill="#009af9" fill-rule="evenodd" fill-opacity="1" stroke="#000000" stroke-opacity="1" stroke-width="3.2"/>
<circle clip-path="url(#clip102)" cx="1701.23" cy="791.89" r="7.2" fill="#009af9" fill-rule="evenodd" fill-opacity="1" stroke="#000000" stroke-opacity="1" stroke-width="3.2"/>
<circle clip-path="url(#clip102)" cx="1760.46" cy="668.519" r="7.2" fill="#009af9" fill-rule="evenodd" fill-opacity="1" stroke="#000000" stroke-opacity="1" stroke-width="3.2"/>
<circle clip-path="url(#clip102)" cx="1819.69" cy="737.403" r="7.2" fill="#009af9" fill-rule="evenodd" fill-opacity="1" stroke="#000000" stroke-opacity="1" stroke-width="3.2"/>
<circle clip-path="url(#clip102)" cx="1878.92" cy="832.897" r="7.2" fill="#009af9" fill-rule="evenodd" fill-opacity="1" stroke="#000000" stroke-opacity="1" stroke-width="3.2"/>
<path clip-path="url(#clip100)" d="
M1718.57 270.476 L2283.65 270.476 L2283.65 166.796 L1718.57 166.796  Z
  " fill="#ffffff" fill-rule="evenodd" fill-opacity="1"/>
<polyline clip-path="url(#clip100)" style="stroke:#000000; stroke-linecap:round; stroke-linejoin:round; stroke-width:4; stroke-opacity:1; fill:none" points="
  1718.57,270.476 2283.65,270.476 2283.65,166.796 1718.57,166.796 1718.57,270.476 
  "/>
<circle clip-path="url(#clip100)" cx="1810.71" cy="218.636" r="23.04" fill="#009af9" fill-rule="evenodd" fill-opacity="1" stroke="#000000" stroke-opacity="1" stroke-width="10.24"/>
<path clip-path="url(#clip100)" d="M1923.19 214.967 Q1924.79 212.096 1927.01 210.731 Q1929.23 209.365 1932.24 209.365 Q1936.29 209.365 1938.49 212.212 Q1940.69 215.036 1940.69 220.268 L1940.69 235.916 L1936.41 235.916 L1936.41 220.407 Q1936.41 216.68 1935.09 214.874 Q1933.77 213.069 1931.06 213.069 Q1927.75 213.069 1925.83 215.268 Q1923.91 217.467 1923.91 221.263 L1923.91 235.916 L1919.63 235.916 L1919.63 220.407 Q1919.63 216.657 1918.31 214.874 Q1916.99 213.069 1914.23 213.069 Q1910.97 213.069 1909.05 215.291 Q1907.13 217.49 1907.13 221.263 L1907.13 235.916 L1902.84 235.916 L1902.84 209.99 L1907.13 209.99 L1907.13 214.018 Q1908.59 211.633 1910.62 210.499 Q1912.66 209.365 1915.46 209.365 Q1918.28 209.365 1920.25 210.8 Q1922.24 212.235 1923.19 214.967 Z" fill="#000000" fill-rule="evenodd" fill-opacity="1" /><path clip-path="url(#clip100)" d="M1957.91 220.245 Q1956.76 218.254 1954.42 218.254 Q1952.08 218.254 1950.92 220.245 Q1949.74 222.235 1949.74 226.217 Q1949.74 230.221 1950.92 232.212 Q1952.08 234.203 1954.42 234.203 Q1956.76 234.203 1957.91 232.212 Q1959.09 230.221 1959.09 226.217 Q1959.09 222.235 1957.91 220.245 M1954.42 216.194 Q1958.15 216.194 1960.11 218.763 Q1962.08 221.332 1962.08 226.217 Q1962.08 231.124 1960.11 233.694 Q1958.15 236.263 1954.42 236.263 Q1950.67 236.263 1948.7 233.694 Q1946.73 231.124 1946.73 226.217 Q1946.73 221.332 1948.7 218.763 Q1950.67 216.194 1954.42 216.194 Z" fill="#000000" fill-rule="evenodd" fill-opacity="1" /><path clip-path="url(#clip100)" d="M1968.75 214.388 L1998.42 214.388 L1998.42 218.277 L1968.75 218.277 L1968.75 214.388 M1968.75 223.832 L1998.42 223.832 L1998.42 227.768 L1968.75 227.768 L1968.75 223.832 Z" fill="#000000" fill-rule="evenodd" fill-opacity="1" /><path clip-path="url(#clip100)" d="M2018.52 204.434 Q2014.9 204.434 2013.08 207.999 Q2011.27 211.541 2011.27 218.67 Q2011.27 225.777 2013.08 229.342 Q2014.9 232.883 2018.52 232.883 Q2022.15 232.883 2023.95 229.342 Q2025.78 225.777 2025.78 218.67 Q2025.78 211.541 2023.95 207.999 Q2022.15 204.434 2018.52 204.434 M2018.52 200.731 Q2024.33 200.731 2027.38 205.337 Q2030.46 209.92 2030.46 218.67 Q2030.46 227.397 2027.38 232.004 Q2024.33 236.587 2018.52 236.587 Q2012.7 236.587 2009.63 232.004 Q2006.57 227.397 2006.57 218.67 Q2006.57 209.92 2009.63 205.337 Q2012.7 200.731 2018.52 200.731 Z" fill="#000000" fill-rule="evenodd" fill-opacity="1" /><path clip-path="url(#clip100)" d="M2038.68 230.036 L2043.56 230.036 L2043.56 235.916 L2038.68 235.916 L2038.68 230.036 Z" fill="#000000" fill-rule="evenodd" fill-opacity="1" /><path clip-path="url(#clip100)" d="M2063.75 219.504 Q2060.41 219.504 2058.49 221.286 Q2056.59 223.069 2056.59 226.194 Q2056.59 229.319 2058.49 231.101 Q2060.41 232.883 2063.75 232.883 Q2067.08 232.883 2069 231.101 Q2070.92 229.295 2070.92 226.194 Q2070.92 223.069 2069 221.286 Q2067.1 219.504 2063.75 219.504 M2059.07 217.513 Q2056.06 216.772 2054.37 214.712 Q2052.7 212.652 2052.7 209.689 Q2052.7 205.546 2055.64 203.138 Q2058.61 200.731 2063.75 200.731 Q2068.91 200.731 2071.85 203.138 Q2074.79 205.546 2074.79 209.689 Q2074.79 212.652 2073.1 214.712 Q2071.43 216.772 2068.45 217.513 Q2071.82 218.3 2073.7 220.592 Q2075.6 222.883 2075.6 226.194 Q2075.6 231.217 2072.52 233.902 Q2069.46 236.587 2063.75 236.587 Q2058.03 236.587 2054.95 233.902 Q2051.89 231.217 2051.89 226.194 Q2051.89 222.883 2053.79 220.592 Q2055.69 218.3 2059.07 217.513 M2057.36 210.129 Q2057.36 212.814 2059.02 214.319 Q2060.71 215.823 2063.75 215.823 Q2066.76 215.823 2068.45 214.319 Q2070.16 212.814 2070.16 210.129 Q2070.16 207.444 2068.45 205.939 Q2066.76 204.434 2063.75 204.434 Q2060.71 204.434 2059.02 205.939 Q2057.36 207.444 2057.36 210.129 Z" fill="#000000" fill-rule="evenodd" fill-opacity="1" /><path clip-path="url(#clip100)" d="M2084.39 230.036 L2089.28 230.036 L2089.28 234.018 L2085.48 241.425 L2082.5 241.425 L2084.39 234.018 L2084.39 230.036 Z" fill="#000000" fill-rule="evenodd" fill-opacity="1" /><path clip-path="url(#clip100)" d="M2122.13 230.985 L2122.13 221.703 L2114.49 221.703 L2114.49 217.86 L2126.76 217.86 L2126.76 232.698 Q2124.05 234.619 2120.78 235.615 Q2117.52 236.587 2113.82 236.587 Q2105.71 236.587 2101.13 231.865 Q2096.57 227.119 2096.57 218.67 Q2096.57 210.198 2101.13 205.476 Q2105.71 200.731 2113.82 200.731 Q2117.2 200.731 2120.23 201.564 Q2123.28 202.397 2125.85 204.018 L2125.85 208.995 Q2123.26 206.796 2120.34 205.684 Q2117.43 204.573 2114.21 204.573 Q2107.87 204.573 2104.67 208.115 Q2101.5 211.657 2101.5 218.67 Q2101.5 225.661 2104.67 229.203 Q2107.87 232.744 2114.21 232.744 Q2116.69 232.744 2118.63 232.328 Q2120.57 231.888 2122.13 230.985 Z" fill="#000000" fill-rule="evenodd" fill-opacity="1" /><path clip-path="url(#clip100)" d="M2136.85 217.814 L2146.66 217.814 L2146.66 220.453 L2132.82 220.453 L2132.82 217.907 Q2133.61 217.189 2135.07 215.893 Q2143.03 208.833 2143.03 206.657 Q2143.03 205.129 2141.82 204.203 Q2140.62 203.254 2138.65 203.254 Q2137.45 203.254 2136.04 203.671 Q2134.63 204.064 2132.96 204.874 L2132.96 202.027 Q2134.74 201.379 2136.27 201.055 Q2137.82 200.731 2139.14 200.731 Q2142.5 200.731 2144.51 202.258 Q2146.52 203.786 2146.52 206.286 Q2146.52 209.504 2138.86 216.078 Q2137.57 217.189 2136.85 217.814 Z" fill="#000000" fill-rule="evenodd" fill-opacity="1" /><path clip-path="url(#clip100)" d="M2154.67 214.388 L2184.35 214.388 L2184.35 218.277 L2154.67 218.277 L2154.67 214.388 M2154.67 223.832 L2184.35 223.832 L2184.35 227.768 L2154.67 227.768 L2154.67 223.832 Z" fill="#000000" fill-rule="evenodd" fill-opacity="1" /><path clip-path="url(#clip100)" d="M2195.25 231.981 L2202.89 231.981 L2202.89 205.615 L2194.58 207.282 L2194.58 203.022 L2202.84 201.356 L2207.52 201.356 L2207.52 231.981 L2215.16 231.981 L2215.16 235.916 L2195.25 235.916 L2195.25 231.981 Z" fill="#000000" fill-rule="evenodd" fill-opacity="1" /><path clip-path="url(#clip100)" d="M2224.6 230.036 L2229.49 230.036 L2229.49 235.916 L2224.6 235.916 L2224.6 230.036 Z" fill="#000000" fill-rule="evenodd" fill-opacity="1" /><path clip-path="url(#clip100)" d="M2239.72 201.356 L2258.07 201.356 L2258.07 205.291 L2244 205.291 L2244 213.763 Q2245.02 213.416 2246.04 213.254 Q2247.06 213.069 2248.07 213.069 Q2253.86 213.069 2257.24 216.24 Q2260.62 219.411 2260.62 224.828 Q2260.62 230.406 2257.15 233.508 Q2253.68 236.587 2247.36 236.587 Q2245.18 236.587 2242.91 236.217 Q2240.67 235.846 2238.26 235.106 L2238.26 230.406 Q2240.34 231.541 2242.56 232.096 Q2244.79 232.652 2247.26 232.652 Q2251.27 232.652 2253.61 230.545 Q2255.94 228.439 2255.94 224.828 Q2255.94 221.217 2253.61 219.11 Q2251.27 217.004 2247.26 217.004 Q2245.39 217.004 2243.51 217.42 Q2241.66 217.837 2239.72 218.717 L2239.72 201.356 Z" fill="#000000" fill-rule="evenodd" fill-opacity="1" /></svg>
