<?xml version="1.0" encoding="utf-8"?>
<svg xmlns="http://www.w3.org/2000/svg" xmlns:xlink="http://www.w3.org/1999/xlink" width="600" height="400" viewBox="0 0 2400 1600">
<defs>
  <clipPath id="clip790">
    <rect x="0" y="0" width="2400" height="1600"/>
  </clipPath>
</defs>
<path clip-path="url(#clip790)" d="
M0 1600 L2400 1600 L2400 0 L0 0  Z
  " fill="#ffffff" fill-rule="evenodd" fill-opacity="1"/>
<defs>
  <clipPath id="clip791">
    <rect x="480" y="0" width="1681" height="1600"/>
  </clipPath>
</defs>
<path clip-path="url(#clip790)" d="
M279.704 1423.18 L2352.76 1423.18 L2352.76 123.472 L279.704 123.472  Z
  " fill="#ffffff" fill-rule="evenodd" fill-opacity="1"/>
<defs>
  <clipPath id="clip792">
    <rect x="279" y="123" width="2074" height="1301"/>
  </clipPath>
</defs>
<polyline clip-path="url(#clip792)" style="stroke:#000000; stroke-linecap:round; stroke-linejoin:round; stroke-width:2; stroke-opacity:0.1; fill:none" points="
  279.704,1423.18 279.704,123.472 
  "/>
<polyline clip-path="url(#clip792)" style="stroke:#000000; stroke-linecap:round; stroke-linejoin:round; stroke-width:2; stroke-opacity:0.1; fill:none" points="
  487.009,1423.18 487.009,123.472 
  "/>
<polyline clip-path="url(#clip792)" style="stroke:#000000; stroke-linecap:round; stroke-linejoin:round; stroke-width:2; stroke-opacity:0.1; fill:none" points="
  694.314,1423.18 694.314,123.472 
  "/>
<polyline clip-path="url(#clip792)" style="stroke:#000000; stroke-linecap:round; stroke-linejoin:round; stroke-width:2; stroke-opacity:0.1; fill:none" points="
  901.62,1423.18 901.62,123.472 
  "/>
<polyline clip-path="url(#clip792)" style="stroke:#000000; stroke-linecap:round; stroke-linejoin:round; stroke-width:2; stroke-opacity:0.1; fill:none" points="
  1108.92,1423.18 1108.92,123.472 
  "/>
<polyline clip-path="url(#clip792)" style="stroke:#000000; stroke-linecap:round; stroke-linejoin:round; stroke-width:2; stroke-opacity:0.1; fill:none" points="
  1316.23,1423.18 1316.23,123.472 
  "/>
<polyline clip-path="url(#clip792)" style="stroke:#000000; stroke-linecap:round; stroke-linejoin:round; stroke-width:2; stroke-opacity:0.1; fill:none" points="
  1523.54,1423.18 1523.54,123.472 
  "/>
<polyline clip-path="url(#clip792)" style="stroke:#000000; stroke-linecap:round; stroke-linejoin:round; stroke-width:2; stroke-opacity:0.1; fill:none" points="
  1730.84,1423.18 1730.84,123.472 
  "/>
<polyline clip-path="url(#clip792)" style="stroke:#000000; stroke-linecap:round; stroke-linejoin:round; stroke-width:2; stroke-opacity:0.1; fill:none" points="
  1938.15,1423.18 1938.15,123.472 
  "/>
<polyline clip-path="url(#clip792)" style="stroke:#000000; stroke-linecap:round; stroke-linejoin:round; stroke-width:2; stroke-opacity:0.1; fill:none" points="
  2145.45,1423.18 2145.45,123.472 
  "/>
<polyline clip-path="url(#clip792)" style="stroke:#000000; stroke-linecap:round; stroke-linejoin:round; stroke-width:2; stroke-opacity:0.1; fill:none" points="
  2352.76,1423.18 2352.76,123.472 
  "/>
<polyline clip-path="url(#clip790)" style="stroke:#000000; stroke-linecap:round; stroke-linejoin:round; stroke-width:4; stroke-opacity:1; fill:none" points="
  279.704,1423.18 2352.76,1423.18 
  "/>
<polyline clip-path="url(#clip790)" style="stroke:#000000; stroke-linecap:round; stroke-linejoin:round; stroke-width:4; stroke-opacity:1; fill:none" points="
  279.704,1423.18 279.704,1404.28 
  "/>
<polyline clip-path="url(#clip790)" style="stroke:#000000; stroke-linecap:round; stroke-linejoin:round; stroke-width:4; stroke-opacity:1; fill:none" points="
  487.009,1423.18 487.009,1404.28 
  "/>
<polyline clip-path="url(#clip790)" style="stroke:#000000; stroke-linecap:round; stroke-linejoin:round; stroke-width:4; stroke-opacity:1; fill:none" points="
  694.314,1423.18 694.314,1404.28 
  "/>
<polyline clip-path="url(#clip790)" style="stroke:#000000; stroke-linecap:round; stroke-linejoin:round; stroke-width:4; stroke-opacity:1; fill:none" points="
  901.62,1423.18 901.62,1404.28 
  "/>
<polyline clip-path="url(#clip790)" style="stroke:#000000; stroke-linecap:round; stroke-linejoin:round; stroke-width:4; stroke-opacity:1; fill:none" points="
  1108.92,1423.18 1108.92,1404.28 
  "/>
<polyline clip-path="url(#clip790)" style="stroke:#000000; stroke-linecap:round; stroke-linejoin:round; stroke-width:4; stroke-opacity:1; fill:none" points="
  1316.23,1423.18 1316.23,1404.28 
  "/>
<polyline clip-path="url(#clip790)" style="stroke:#000000; stroke-linecap:round; stroke-linejoin:round; stroke-width:4; stroke-opacity:1; fill:none" points="
  1523.54,1423.18 1523.54,1404.28 
  "/>
<polyline clip-path="url(#clip790)" style="stroke:#000000; stroke-linecap:round; stroke-linejoin:round; stroke-width:4; stroke-opacity:1; fill:none" points="
  1730.84,1423.18 1730.84,1404.28 
  "/>
<polyline clip-path="url(#clip790)" style="stroke:#000000; stroke-linecap:round; stroke-linejoin:round; stroke-width:4; stroke-opacity:1; fill:none" points="
  1938.15,1423.18 1938.15,1404.28 
  "/>
<polyline clip-path="url(#clip790)" style="stroke:#000000; stroke-linecap:round; stroke-linejoin:round; stroke-width:4; stroke-opacity:1; fill:none" points="
  2145.45,1423.18 2145.45,1404.28 
  "/>
<polyline clip-path="url(#clip790)" style="stroke:#000000; stroke-linecap:round; stroke-linejoin:round; stroke-width:4; stroke-opacity:1; fill:none" points="
  2352.76,1423.18 2352.76,1404.28 
  "/>
<path clip-path="url(#clip790)" d="M279.704 1454.1 Q276.093 1454.1 274.264 1457.66 Q272.459 1461.2 272.459 1468.33 Q272.459 1475.44 274.264 1479.01 Q276.093 1482.55 279.704 1482.55 Q283.338 1482.55 285.144 1479.01 Q286.972 1475.44 286.972 1468.33 Q286.972 1461.2 285.144 1457.66 Q283.338 1454.1 279.704 1454.1 M279.704 1450.39 Q285.514 1450.39 288.57 1455 Q291.648 1459.58 291.648 1468.33 Q291.648 1477.06 288.57 1481.67 Q285.514 1486.25 279.704 1486.25 Q273.894 1486.25 270.815 1481.67 Q267.76 1477.06 267.76 1468.33 Q267.76 1459.58 270.815 1455 Q273.894 1450.39 279.704 1450.39 Z" fill="#000000" fill-rule="evenodd" fill-opacity="1" /><path clip-path="url(#clip790)" d="M477.287 1451.02 L495.643 1451.02 L495.643 1454.96 L481.569 1454.96 L481.569 1463.43 Q482.588 1463.08 483.606 1462.92 Q484.625 1462.73 485.643 1462.73 Q491.43 1462.73 494.81 1465.9 Q498.19 1469.08 498.19 1474.49 Q498.19 1480.07 494.717 1483.17 Q491.245 1486.25 484.926 1486.25 Q482.75 1486.25 480.481 1485.88 Q478.236 1485.51 475.829 1484.77 L475.829 1480.07 Q477.912 1481.2 480.134 1481.76 Q482.356 1482.32 484.833 1482.32 Q488.838 1482.32 491.176 1480.21 Q493.514 1478.1 493.514 1474.49 Q493.514 1470.88 491.176 1468.77 Q488.838 1466.67 484.833 1466.67 Q482.958 1466.67 481.083 1467.08 Q479.231 1467.5 477.287 1468.38 L477.287 1451.02 Z" fill="#000000" fill-rule="evenodd" fill-opacity="1" /><path clip-path="url(#clip790)" d="M669.002 1481.64 L676.641 1481.64 L676.641 1455.28 L668.331 1456.95 L668.331 1452.69 L676.594 1451.02 L681.27 1451.02 L681.27 1481.64 L688.909 1481.64 L688.909 1485.58 L669.002 1485.58 L669.002 1481.64 Z" fill="#000000" fill-rule="evenodd" fill-opacity="1" /><path clip-path="url(#clip790)" d="M708.354 1454.1 Q704.742 1454.1 702.914 1457.66 Q701.108 1461.2 701.108 1468.33 Q701.108 1475.44 702.914 1479.01 Q704.742 1482.55 708.354 1482.55 Q711.988 1482.55 713.793 1479.01 Q715.622 1475.44 715.622 1468.33 Q715.622 1461.2 713.793 1457.66 Q711.988 1454.1 708.354 1454.1 M708.354 1450.39 Q714.164 1450.39 717.219 1455 Q720.298 1459.58 720.298 1468.33 Q720.298 1477.06 717.219 1481.67 Q714.164 1486.25 708.354 1486.25 Q702.543 1486.25 699.465 1481.67 Q696.409 1477.06 696.409 1468.33 Q696.409 1459.58 699.465 1455 Q702.543 1450.39 708.354 1450.39 Z" fill="#000000" fill-rule="evenodd" fill-opacity="1" /><path clip-path="url(#clip790)" d="M876.805 1481.64 L884.444 1481.64 L884.444 1455.28 L876.134 1456.95 L876.134 1452.69 L884.397 1451.02 L889.073 1451.02 L889.073 1481.64 L896.712 1481.64 L896.712 1485.58 L876.805 1485.58 L876.805 1481.64 Z" fill="#000000" fill-rule="evenodd" fill-opacity="1" /><path clip-path="url(#clip790)" d="M906.203 1451.02 L924.559 1451.02 L924.559 1454.96 L910.485 1454.96 L910.485 1463.43 Q911.504 1463.08 912.522 1462.92 Q913.541 1462.73 914.559 1462.73 Q920.346 1462.73 923.726 1465.9 Q927.105 1469.08 927.105 1474.49 Q927.105 1480.07 923.633 1483.17 Q920.161 1486.25 913.842 1486.25 Q911.666 1486.25 909.397 1485.88 Q907.152 1485.51 904.744 1484.77 L904.744 1480.07 Q906.828 1481.2 909.05 1481.76 Q911.272 1482.32 913.749 1482.32 Q917.754 1482.32 920.092 1480.21 Q922.43 1478.1 922.43 1474.49 Q922.43 1470.88 920.092 1468.77 Q917.754 1466.67 913.749 1466.67 Q911.874 1466.67 909.999 1467.08 Q908.147 1467.5 906.203 1468.38 L906.203 1451.02 Z" fill="#000000" fill-rule="evenodd" fill-opacity="1" /><path clip-path="url(#clip790)" d="M1087.7 1481.64 L1104.02 1481.64 L1104.02 1485.58 L1082.07 1485.58 L1082.07 1481.64 Q1084.74 1478.89 1089.32 1474.26 Q1093.92 1469.61 1095.11 1468.27 Q1097.35 1465.74 1098.23 1464.01 Q1099.13 1462.25 1099.13 1460.56 Q1099.13 1457.8 1097.19 1456.07 Q1095.27 1454.33 1092.17 1454.33 Q1089.97 1454.33 1087.51 1455.09 Q1085.08 1455.86 1082.3 1457.41 L1082.3 1452.69 Q1085.13 1451.55 1087.58 1450.97 Q1090.04 1450.39 1092.07 1450.39 Q1097.44 1450.39 1100.64 1453.08 Q1103.83 1455.77 1103.83 1460.26 Q1103.83 1462.39 1103.02 1464.31 Q1102.23 1466.2 1100.13 1468.8 Q1099.55 1469.47 1096.45 1472.69 Q1093.35 1475.88 1087.7 1481.64 Z" fill="#000000" fill-rule="evenodd" fill-opacity="1" /><path clip-path="url(#clip790)" d="M1123.83 1454.1 Q1120.22 1454.1 1118.39 1457.66 Q1116.59 1461.2 1116.59 1468.33 Q1116.59 1475.44 1118.39 1479.01 Q1120.22 1482.55 1123.83 1482.55 Q1127.47 1482.55 1129.27 1479.01 Q1131.1 1475.44 1131.1 1468.33 Q1131.1 1461.2 1129.27 1457.66 Q1127.47 1454.1 1123.83 1454.1 M1123.83 1450.39 Q1129.64 1450.39 1132.7 1455 Q1135.78 1459.58 1135.78 1468.33 Q1135.78 1477.06 1132.7 1481.67 Q1129.64 1486.25 1123.83 1486.25 Q1118.02 1486.25 1114.94 1481.67 Q1111.89 1477.06 1111.89 1468.33 Q1111.89 1459.58 1114.94 1455 Q1118.02 1450.39 1123.83 1450.39 Z" fill="#000000" fill-rule="evenodd" fill-opacity="1" /><path clip-path="url(#clip790)" d="M1295.5 1481.64 L1311.82 1481.64 L1311.82 1485.58 L1289.88 1485.58 L1289.88 1481.64 Q1292.54 1478.89 1297.12 1474.26 Q1301.73 1469.61 1302.91 1468.27 Q1305.15 1465.74 1306.03 1464.01 Q1306.94 1462.25 1306.94 1460.56 Q1306.94 1457.8 1304.99 1456.07 Q1303.07 1454.33 1299.97 1454.33 Q1297.77 1454.33 1295.32 1455.09 Q1292.89 1455.86 1290.11 1457.41 L1290.11 1452.69 Q1292.93 1451.55 1295.39 1450.97 Q1297.84 1450.39 1299.88 1450.39 Q1305.25 1450.39 1308.44 1453.08 Q1311.64 1455.77 1311.64 1460.26 Q1311.64 1462.39 1310.82 1464.31 Q1310.04 1466.2 1307.93 1468.8 Q1307.35 1469.47 1304.25 1472.69 Q1301.15 1475.88 1295.5 1481.64 Z" fill="#000000" fill-rule="evenodd" fill-opacity="1" /><path clip-path="url(#clip790)" d="M1321.68 1451.02 L1340.04 1451.02 L1340.04 1454.96 L1325.96 1454.96 L1325.96 1463.43 Q1326.98 1463.08 1328 1462.92 Q1329.02 1462.73 1330.04 1462.73 Q1335.82 1462.73 1339.2 1465.9 Q1342.58 1469.08 1342.58 1474.49 Q1342.58 1480.07 1339.11 1483.17 Q1335.64 1486.25 1329.32 1486.25 Q1327.14 1486.25 1324.88 1485.88 Q1322.63 1485.51 1320.22 1484.77 L1320.22 1480.07 Q1322.31 1481.2 1324.53 1481.76 Q1326.75 1482.32 1329.23 1482.32 Q1333.23 1482.32 1335.57 1480.21 Q1337.91 1478.1 1337.91 1474.49 Q1337.91 1470.88 1335.57 1468.77 Q1333.23 1466.67 1329.23 1466.67 Q1327.35 1466.67 1325.48 1467.08 Q1323.63 1467.5 1321.68 1468.38 L1321.68 1451.02 Z" fill="#000000" fill-rule="evenodd" fill-opacity="1" /><path clip-path="url(#clip790)" d="M1512.38 1466.95 Q1515.73 1467.66 1517.61 1469.93 Q1519.51 1472.2 1519.51 1475.53 Q1519.51 1480.65 1515.99 1483.45 Q1512.47 1486.25 1505.99 1486.25 Q1503.81 1486.25 1501.5 1485.81 Q1499.21 1485.39 1496.75 1484.54 L1496.75 1480.02 Q1498.7 1481.16 1501.01 1481.74 Q1503.33 1482.32 1505.85 1482.32 Q1510.25 1482.32 1512.54 1480.58 Q1514.85 1478.84 1514.85 1475.53 Q1514.85 1472.48 1512.7 1470.77 Q1510.57 1469.03 1506.75 1469.03 L1502.73 1469.03 L1502.73 1465.19 L1506.94 1465.19 Q1510.39 1465.19 1512.22 1463.82 Q1514.04 1462.43 1514.04 1459.84 Q1514.04 1457.18 1512.15 1455.77 Q1510.27 1454.33 1506.75 1454.33 Q1504.83 1454.33 1502.63 1454.75 Q1500.43 1455.16 1497.79 1456.04 L1497.79 1451.88 Q1500.46 1451.14 1502.77 1450.77 Q1505.11 1450.39 1507.17 1450.39 Q1512.49 1450.39 1515.6 1452.83 Q1518.7 1455.23 1518.7 1459.35 Q1518.7 1462.22 1517.05 1464.21 Q1515.41 1466.18 1512.38 1466.95 Z" fill="#000000" fill-rule="evenodd" fill-opacity="1" /><path clip-path="url(#clip790)" d="M1538.37 1454.1 Q1534.76 1454.1 1532.93 1457.66 Q1531.13 1461.2 1531.13 1468.33 Q1531.13 1475.44 1532.93 1479.01 Q1534.76 1482.55 1538.37 1482.55 Q1542.01 1482.55 1543.81 1479.01 Q1545.64 1475.44 1545.64 1468.33 Q1545.64 1461.2 1543.81 1457.66 Q1542.01 1454.1 1538.37 1454.1 M1538.37 1450.39 Q1544.18 1450.39 1547.24 1455 Q1550.32 1459.58 1550.32 1468.33 Q1550.32 1477.06 1547.24 1481.67 Q1544.18 1486.25 1538.37 1486.25 Q1532.56 1486.25 1529.48 1481.67 Q1526.43 1477.06 1526.43 1468.33 Q1526.43 1459.58 1529.48 1455 Q1532.56 1450.39 1538.37 1450.39 Z" fill="#000000" fill-rule="evenodd" fill-opacity="1" /><path clip-path="url(#clip790)" d="M1720.18 1466.95 Q1723.54 1467.66 1725.41 1469.93 Q1727.31 1472.2 1727.31 1475.53 Q1727.31 1480.65 1723.79 1483.45 Q1720.27 1486.25 1713.79 1486.25 Q1711.62 1486.25 1709.3 1485.81 Q1707.01 1485.39 1704.56 1484.54 L1704.56 1480.02 Q1706.5 1481.16 1708.81 1481.74 Q1711.13 1482.32 1713.65 1482.32 Q1718.05 1482.32 1720.34 1480.58 Q1722.66 1478.84 1722.66 1475.53 Q1722.66 1472.48 1720.5 1470.77 Q1718.38 1469.03 1714.56 1469.03 L1710.53 1469.03 L1710.53 1465.19 L1714.74 1465.19 Q1718.19 1465.19 1720.02 1463.82 Q1721.85 1462.43 1721.85 1459.84 Q1721.85 1457.18 1719.95 1455.77 Q1718.07 1454.33 1714.56 1454.33 Q1712.63 1454.33 1710.44 1454.75 Q1708.24 1455.16 1705.6 1456.04 L1705.6 1451.88 Q1708.26 1451.14 1710.57 1450.77 Q1712.91 1450.39 1714.97 1450.39 Q1720.3 1450.39 1723.4 1452.83 Q1726.5 1455.23 1726.5 1459.35 Q1726.5 1462.22 1724.86 1464.21 Q1723.21 1466.18 1720.18 1466.95 Z" fill="#000000" fill-rule="evenodd" fill-opacity="1" /><path clip-path="url(#clip790)" d="M1736.22 1451.02 L1754.58 1451.02 L1754.58 1454.96 L1740.5 1454.96 L1740.5 1463.43 Q1741.52 1463.08 1742.54 1462.92 Q1743.56 1462.73 1744.58 1462.73 Q1750.37 1462.73 1753.75 1465.9 Q1757.12 1469.08 1757.12 1474.49 Q1757.12 1480.07 1753.65 1483.17 Q1750.18 1486.25 1743.86 1486.25 Q1741.69 1486.25 1739.42 1485.88 Q1737.17 1485.51 1734.76 1484.77 L1734.76 1480.07 Q1736.85 1481.2 1739.07 1481.76 Q1741.29 1482.32 1743.77 1482.32 Q1747.77 1482.32 1750.11 1480.21 Q1752.45 1478.1 1752.45 1474.49 Q1752.45 1470.88 1750.11 1468.77 Q1747.77 1466.67 1743.77 1466.67 Q1741.89 1466.67 1740.02 1467.08 Q1738.17 1467.5 1736.22 1468.38 L1736.22 1451.02 Z" fill="#000000" fill-rule="evenodd" fill-opacity="1" /><path clip-path="url(#clip790)" d="M1926.32 1455.09 L1914.51 1473.54 L1926.32 1473.54 L1926.32 1455.09 M1925.09 1451.02 L1930.97 1451.02 L1930.97 1473.54 L1935.9 1473.54 L1935.9 1477.43 L1930.97 1477.43 L1930.97 1485.58 L1926.32 1485.58 L1926.32 1477.43 L1910.72 1477.43 L1910.72 1472.92 L1925.09 1451.02 Z" fill="#000000" fill-rule="evenodd" fill-opacity="1" /><path clip-path="url(#clip790)" d="M1953.63 1454.1 Q1950.02 1454.1 1948.19 1457.66 Q1946.39 1461.2 1946.39 1468.33 Q1946.39 1475.44 1948.19 1479.01 Q1950.02 1482.55 1953.63 1482.55 Q1957.27 1482.55 1959.07 1479.01 Q1960.9 1475.44 1960.9 1468.33 Q1960.9 1461.2 1959.07 1457.66 Q1957.27 1454.1 1953.63 1454.1 M1953.63 1450.39 Q1959.44 1450.39 1962.5 1455 Q1965.58 1459.58 1965.58 1468.33 Q1965.58 1477.06 1962.5 1481.67 Q1959.44 1486.25 1953.63 1486.25 Q1947.82 1486.25 1944.74 1481.67 Q1941.69 1477.06 1941.69 1468.33 Q1941.69 1459.58 1944.74 1455 Q1947.82 1450.39 1953.63 1450.39 Z" fill="#000000" fill-rule="evenodd" fill-opacity="1" /><path clip-path="url(#clip790)" d="M2134.12 1455.09 L2122.31 1473.54 L2134.12 1473.54 L2134.12 1455.09 M2132.89 1451.02 L2138.77 1451.02 L2138.77 1473.54 L2143.7 1473.54 L2143.7 1477.43 L2138.77 1477.43 L2138.77 1485.58 L2134.12 1485.58 L2134.12 1477.43 L2118.52 1477.43 L2118.52 1472.92 L2132.89 1451.02 Z" fill="#000000" fill-rule="evenodd" fill-opacity="1" /><path clip-path="url(#clip790)" d="M2151.48 1451.02 L2169.84 1451.02 L2169.84 1454.96 L2155.76 1454.96 L2155.76 1463.43 Q2156.78 1463.08 2157.8 1462.92 Q2158.82 1462.73 2159.84 1462.73 Q2165.62 1462.73 2169 1465.9 Q2172.38 1469.08 2172.38 1474.49 Q2172.38 1480.07 2168.91 1483.17 Q2165.44 1486.25 2159.12 1486.25 Q2156.94 1486.25 2154.68 1485.88 Q2152.43 1485.51 2150.02 1484.77 L2150.02 1480.07 Q2152.11 1481.2 2154.33 1481.76 Q2156.55 1482.32 2159.03 1482.32 Q2163.03 1482.32 2165.37 1480.21 Q2167.71 1478.1 2167.71 1474.49 Q2167.71 1470.88 2165.37 1468.77 Q2163.03 1466.67 2159.03 1466.67 Q2157.15 1466.67 2155.28 1467.08 Q2153.43 1467.5 2151.48 1468.38 L2151.48 1451.02 Z" fill="#000000" fill-rule="evenodd" fill-opacity="1" /><path clip-path="url(#clip790)" d="M2327.46 1451.02 L2345.81 1451.02 L2345.81 1454.96 L2331.74 1454.96 L2331.74 1463.43 Q2332.76 1463.08 2333.77 1462.92 Q2334.79 1462.73 2335.81 1462.73 Q2341.6 1462.73 2344.98 1465.9 Q2348.36 1469.08 2348.36 1474.49 Q2348.36 1480.07 2344.89 1483.17 Q2341.41 1486.25 2335.09 1486.25 Q2332.92 1486.25 2330.65 1485.88 Q2328.4 1485.51 2326 1484.77 L2326 1480.07 Q2328.08 1481.2 2330.3 1481.76 Q2332.52 1482.32 2335 1482.32 Q2339.01 1482.32 2341.34 1480.21 Q2343.68 1478.1 2343.68 1474.49 Q2343.68 1470.88 2341.34 1468.77 Q2339.01 1466.67 2335 1466.67 Q2333.13 1466.67 2331.25 1467.08 Q2329.4 1467.5 2327.46 1468.38 L2327.46 1451.02 Z" fill="#000000" fill-rule="evenodd" fill-opacity="1" /><path clip-path="url(#clip790)" d="M2367.57 1454.1 Q2363.96 1454.1 2362.13 1457.66 Q2360.33 1461.2 2360.33 1468.33 Q2360.33 1475.44 2362.13 1479.01 Q2363.96 1482.55 2367.57 1482.55 Q2371.2 1482.55 2373.01 1479.01 Q2374.84 1475.44 2374.84 1468.33 Q2374.84 1461.2 2373.01 1457.66 Q2371.2 1454.1 2367.57 1454.1 M2367.57 1450.39 Q2373.38 1450.39 2376.44 1455 Q2379.52 1459.58 2379.52 1468.33 Q2379.52 1477.06 2376.44 1481.67 Q2373.38 1486.25 2367.57 1486.25 Q2361.76 1486.25 2358.68 1481.67 Q2355.63 1477.06 2355.63 1468.33 Q2355.63 1459.58 2358.68 1455 Q2361.76 1450.39 2367.57 1450.39 Z" fill="#000000" fill-rule="evenodd" fill-opacity="1" /><path clip-path="url(#clip790)" d="M1145.1 1522.08 L1145.1 1528.35 Q1141.44 1526.6 1138.2 1525.74 Q1134.95 1524.88 1131.93 1524.88 Q1126.68 1524.88 1123.81 1526.92 Q1120.98 1528.96 1120.98 1532.71 Q1120.98 1535.87 1122.86 1537.49 Q1124.77 1539.08 1130.05 1540.07 L1133.93 1540.86 Q1141.13 1542.23 1144.53 1545.7 Q1147.97 1549.14 1147.97 1554.93 Q1147.97 1561.84 1143.32 1565.4 Q1138.71 1568.97 1129.76 1568.97 Q1126.39 1568.97 1122.57 1568.2 Q1118.78 1567.44 1114.71 1565.94 L1114.71 1559.32 Q1118.62 1561.52 1122.38 1562.63 Q1126.13 1563.75 1129.76 1563.75 Q1135.27 1563.75 1138.26 1561.58 Q1141.25 1559.42 1141.25 1555.41 Q1141.25 1551.91 1139.09 1549.93 Q1136.96 1547.96 1132.05 1546.97 L1128.14 1546.21 Q1120.95 1544.78 1117.73 1541.72 Q1114.52 1538.67 1114.52 1533.22 Q1114.52 1526.92 1118.94 1523.29 Q1123.4 1519.66 1131.19 1519.66 Q1134.54 1519.66 1138.01 1520.27 Q1141.48 1520.87 1145.1 1522.08 Z" fill="#000000" fill-rule="evenodd" fill-opacity="1" /><path clip-path="url(#clip790)" d="M1157.74 1532.4 L1163.6 1532.4 L1163.6 1568.04 L1157.74 1568.04 L1157.74 1532.4 M1157.74 1518.52 L1163.6 1518.52 L1163.6 1525.93 L1157.74 1525.93 L1157.74 1518.52 Z" fill="#000000" fill-rule="evenodd" fill-opacity="1" /><path clip-path="url(#clip790)" d="M1181.64 1522.27 L1181.64 1532.4 L1193.71 1532.4 L1193.71 1536.95 L1181.64 1536.95 L1181.64 1556.3 Q1181.64 1560.66 1182.82 1561.9 Q1184.03 1563.14 1187.69 1563.14 L1193.71 1563.14 L1193.71 1568.04 L1187.69 1568.04 Q1180.91 1568.04 1178.33 1565.53 Q1175.75 1562.98 1175.75 1556.3 L1175.75 1536.95 L1171.46 1536.95 L1171.46 1532.4 L1175.75 1532.4 L1175.75 1522.27 L1181.64 1522.27 Z" fill="#000000" fill-rule="evenodd" fill-opacity="1" /><path clip-path="url(#clip790)" d="M1231.9 1548.76 L1231.9 1551.62 L1204.97 1551.62 Q1205.36 1557.67 1208.6 1560.85 Q1211.88 1564 1217.7 1564 Q1221.08 1564 1224.23 1563.17 Q1227.41 1562.35 1230.53 1560.69 L1230.53 1566.23 Q1227.38 1567.57 1224.07 1568.27 Q1220.76 1568.97 1217.35 1568.97 Q1208.82 1568.97 1203.83 1564 Q1198.86 1559.04 1198.86 1550.57 Q1198.86 1541.82 1203.57 1536.69 Q1208.32 1531.54 1216.34 1531.54 Q1223.53 1531.54 1227.7 1536.18 Q1231.9 1540.8 1231.9 1548.76 M1226.04 1547.04 Q1225.98 1542.23 1223.34 1539.37 Q1220.73 1536.5 1216.4 1536.5 Q1211.5 1536.5 1208.54 1539.27 Q1205.61 1542.04 1205.16 1547.07 L1226.04 1547.04 Z" fill="#000000" fill-rule="evenodd" fill-opacity="1" /><path clip-path="url(#clip790)" d="M1262.49 1520.52 L1271.14 1520.52 L1292.22 1560.28 L1292.22 1520.52 L1298.45 1520.52 L1298.45 1568.04 L1289.8 1568.04 L1268.73 1528.29 L1268.73 1568.04 L1262.49 1568.04 L1262.49 1520.52 Z" fill="#000000" fill-rule="evenodd" fill-opacity="1" /><path clip-path="url(#clip790)" d="M1310.39 1553.98 L1310.39 1532.4 L1316.25 1532.4 L1316.25 1553.75 Q1316.25 1558.81 1318.22 1561.36 Q1320.19 1563.87 1324.14 1563.87 Q1328.88 1563.87 1331.62 1560.85 Q1334.39 1557.83 1334.39 1552.61 L1334.39 1532.4 L1340.24 1532.4 L1340.24 1568.04 L1334.39 1568.04 L1334.39 1562.57 Q1332.26 1565.82 1329.42 1567.41 Q1326.62 1568.97 1322.9 1568.97 Q1316.76 1568.97 1313.57 1565.15 Q1310.39 1561.33 1310.39 1553.98 M1325.13 1531.54 L1325.13 1531.54 Z" fill="#000000" fill-rule="evenodd" fill-opacity="1" /><path clip-path="url(#clip790)" d="M1380.06 1539.24 Q1382.26 1535.29 1385.31 1533.41 Q1388.37 1531.54 1392.51 1531.54 Q1398.08 1531.54 1401.1 1535.45 Q1404.12 1539.33 1404.12 1546.53 L1404.12 1568.04 L1398.24 1568.04 L1398.24 1546.72 Q1398.24 1541.59 1396.42 1539.11 Q1394.61 1536.63 1390.88 1536.63 Q1386.33 1536.63 1383.69 1539.65 Q1381.05 1542.68 1381.05 1547.9 L1381.05 1568.04 L1375.16 1568.04 L1375.16 1546.72 Q1375.16 1541.56 1373.35 1539.11 Q1371.53 1536.63 1367.74 1536.63 Q1363.26 1536.63 1360.61 1539.68 Q1357.97 1542.71 1357.97 1547.9 L1357.97 1568.04 L1352.08 1568.04 L1352.08 1532.4 L1357.97 1532.4 L1357.97 1537.93 Q1359.98 1534.66 1362.78 1533.1 Q1365.58 1531.54 1369.43 1531.54 Q1373.31 1531.54 1376.02 1533.51 Q1378.76 1535.48 1380.06 1539.24 Z" fill="#000000" fill-rule="evenodd" fill-opacity="1" /><path clip-path="url(#clip790)" d="M1441.4 1550.25 Q1441.4 1543.79 1438.72 1540.13 Q1436.08 1536.44 1431.43 1536.44 Q1426.79 1536.44 1424.11 1540.13 Q1421.47 1543.79 1421.47 1550.25 Q1421.47 1556.71 1424.11 1560.4 Q1426.79 1564.07 1431.43 1564.07 Q1436.08 1564.07 1438.72 1560.4 Q1441.4 1556.71 1441.4 1550.25 M1421.47 1537.81 Q1423.32 1534.62 1426.12 1533.1 Q1428.95 1531.54 1432.87 1531.54 Q1439.36 1531.54 1443.4 1536.69 Q1447.47 1541.85 1447.47 1550.25 Q1447.47 1558.65 1443.4 1563.81 Q1439.36 1568.97 1432.87 1568.97 Q1428.95 1568.97 1426.12 1567.44 Q1423.32 1565.88 1421.47 1562.7 L1421.47 1568.04 L1415.58 1568.04 L1415.58 1518.52 L1421.47 1518.52 L1421.47 1537.81 Z" fill="#000000" fill-rule="evenodd" fill-opacity="1" /><path clip-path="url(#clip790)" d="M1487.67 1548.76 L1487.67 1551.62 L1460.75 1551.62 Q1461.13 1557.67 1464.38 1560.85 Q1467.65 1564 1473.48 1564 Q1476.85 1564 1480 1563.17 Q1483.19 1562.35 1486.31 1560.69 L1486.31 1566.23 Q1483.15 1567.57 1479.84 1568.27 Q1476.53 1568.97 1473.13 1568.97 Q1464.6 1568.97 1459.6 1564 Q1454.64 1559.04 1454.64 1550.57 Q1454.64 1541.82 1459.35 1536.69 Q1464.09 1531.54 1472.11 1531.54 Q1479.3 1531.54 1483.47 1536.18 Q1487.67 1540.8 1487.67 1548.76 M1481.82 1547.04 Q1481.75 1542.23 1479.11 1539.37 Q1476.5 1536.5 1472.17 1536.5 Q1467.27 1536.5 1464.31 1539.27 Q1461.38 1542.04 1460.94 1547.07 L1481.82 1547.04 Z" fill="#000000" fill-rule="evenodd" fill-opacity="1" /><path clip-path="url(#clip790)" d="M1517.94 1537.87 Q1516.96 1537.3 1515.78 1537.04 Q1514.63 1536.76 1513.23 1536.76 Q1508.27 1536.76 1505.59 1540 Q1502.95 1543.22 1502.95 1549.27 L1502.95 1568.04 L1497.06 1568.04 L1497.06 1532.4 L1502.95 1532.4 L1502.95 1537.93 Q1504.8 1534.69 1507.76 1533.13 Q1510.72 1531.54 1514.95 1531.54 Q1515.56 1531.54 1516.29 1531.63 Q1517.02 1531.7 1517.91 1531.85 L1517.94 1537.87 Z" fill="#000000" fill-rule="evenodd" fill-opacity="1" /><polyline clip-path="url(#clip792)" style="stroke:#000000; stroke-linecap:round; stroke-linejoin:round; stroke-width:2; stroke-opacity:0.1; fill:none" points="
  279.704,1423.18 2352.76,1423.18 
  "/>
<polyline clip-path="url(#clip792)" style="stroke:#000000; stroke-linecap:round; stroke-linejoin:round; stroke-width:2; stroke-opacity:0.1; fill:none" points="
  279.704,1206.56 2352.76,1206.56 
  "/>
<polyline clip-path="url(#clip792)" style="stroke:#000000; stroke-linecap:round; stroke-linejoin:round; stroke-width:2; stroke-opacity:0.1; fill:none" points="
  279.704,989.944 2352.76,989.944 
  "/>
<polyline clip-path="url(#clip792)" style="stroke:#000000; stroke-linecap:round; stroke-linejoin:round; stroke-width:2; stroke-opacity:0.1; fill:none" points="
  279.704,773.326 2352.76,773.326 
  "/>
<polyline clip-path="url(#clip792)" style="stroke:#000000; stroke-linecap:round; stroke-linejoin:round; stroke-width:2; stroke-opacity:0.1; fill:none" points="
  279.704,556.708 2352.76,556.708 
  "/>
<polyline clip-path="url(#clip792)" style="stroke:#000000; stroke-linecap:round; stroke-linejoin:round; stroke-width:2; stroke-opacity:0.1; fill:none" points="
  279.704,340.09 2352.76,340.09 
  "/>
<polyline clip-path="url(#clip792)" style="stroke:#000000; stroke-linecap:round; stroke-linejoin:round; stroke-width:2; stroke-opacity:0.1; fill:none" points="
  279.704,123.472 2352.76,123.472 
  "/>
<polyline clip-path="url(#clip790)" style="stroke:#000000; stroke-linecap:round; stroke-linejoin:round; stroke-width:4; stroke-opacity:1; fill:none" points="
  279.704,1423.18 279.704,123.472 
  "/>
<polyline clip-path="url(#clip790)" style="stroke:#000000; stroke-linecap:round; stroke-linejoin:round; stroke-width:4; stroke-opacity:1; fill:none" points="
  279.704,1423.18 298.602,1423.18 
  "/>
<polyline clip-path="url(#clip790)" style="stroke:#000000; stroke-linecap:round; stroke-linejoin:round; stroke-width:4; stroke-opacity:1; fill:none" points="
  279.704,1206.56 298.602,1206.56 
  "/>
<polyline clip-path="url(#clip790)" style="stroke:#000000; stroke-linecap:round; stroke-linejoin:round; stroke-width:4; stroke-opacity:1; fill:none" points="
  279.704,989.944 298.602,989.944 
  "/>
<polyline clip-path="url(#clip790)" style="stroke:#000000; stroke-linecap:round; stroke-linejoin:round; stroke-width:4; stroke-opacity:1; fill:none" points="
  279.704,773.326 298.602,773.326 
  "/>
<polyline clip-path="url(#clip790)" style="stroke:#000000; stroke-linecap:round; stroke-linejoin:round; stroke-width:4; stroke-opacity:1; fill:none" points="
  279.704,556.708 298.602,556.708 
  "/>
<polyline clip-path="url(#clip790)" style="stroke:#000000; stroke-linecap:round; stroke-linejoin:round; stroke-width:4; stroke-opacity:1; fill:none" points="
  279.704,340.09 298.602,340.09 
  "/>
<polyline clip-path="url(#clip790)" style="stroke:#000000; stroke-linecap:round; stroke-linejoin:round; stroke-width:4; stroke-opacity:1; fill:none" points="
  279.704,123.472 298.602,123.472 
  "/>
<path clip-path="url(#clip790)" d="M126.205 1408.98 Q122.593 1408.98 120.765 1412.54 Q118.959 1416.08 118.959 1423.21 Q118.959 1430.32 120.765 1433.89 Q122.593 1437.43 126.205 1437.43 Q129.839 1437.43 131.644 1433.89 Q133.473 1430.32 133.473 1423.21 Q133.473 1416.08 131.644 1412.54 Q129.839 1408.98 126.205 1408.98 M126.205 1405.27 Q132.015 1405.27 135.07 1409.88 Q138.149 1414.46 138.149 1423.21 Q138.149 1431.94 135.07 1436.55 Q132.015 1441.13 126.205 1441.13 Q120.394 1441.13 117.316 1436.55 Q114.26 1431.94 114.26 1423.21 Q114.26 1414.46 117.316 1409.88 Q120.394 1405.27 126.205 1405.27 Z" fill="#000000" fill-rule="evenodd" fill-opacity="1" /><path clip-path="url(#clip790)" d="M146.366 1434.58 L151.251 1434.58 L151.251 1440.46 L146.366 1440.46 L146.366 1434.58 Z" fill="#000000" fill-rule="evenodd" fill-opacity="1" /><path clip-path="url(#clip790)" d="M174.283 1409.97 L162.477 1428.42 L174.283 1428.42 L174.283 1409.97 M173.056 1405.9 L178.936 1405.9 L178.936 1428.42 L183.866 1428.42 L183.866 1432.31 L178.936 1432.31 L178.936 1440.46 L174.283 1440.46 L174.283 1432.31 L158.681 1432.31 L158.681 1427.8 L173.056 1405.9 Z" fill="#000000" fill-rule="evenodd" fill-opacity="1" /><path clip-path="url(#clip790)" d="M191.644 1405.9 L210 1405.9 L210 1409.84 L195.926 1409.84 L195.926 1418.31 Q196.945 1417.96 197.963 1417.8 Q198.982 1417.61 200 1417.61 Q205.787 1417.61 209.167 1420.78 Q212.547 1423.96 212.547 1429.37 Q212.547 1434.95 209.074 1438.05 Q205.602 1441.13 199.283 1441.13 Q197.107 1441.13 194.838 1440.76 Q192.593 1440.39 190.186 1439.65 L190.186 1434.95 Q192.269 1436.08 194.491 1436.64 Q196.713 1437.2 199.19 1437.2 Q203.195 1437.2 205.533 1435.09 Q207.871 1432.98 207.871 1429.37 Q207.871 1425.76 205.533 1423.65 Q203.195 1421.55 199.19 1421.55 Q197.315 1421.55 195.44 1421.96 Q193.588 1422.38 191.644 1423.26 L191.644 1405.9 Z" fill="#000000" fill-rule="evenodd" fill-opacity="1" /><path clip-path="url(#clip790)" d="M231.76 1408.98 Q228.148 1408.98 226.32 1412.54 Q224.514 1416.08 224.514 1423.21 Q224.514 1430.32 226.32 1433.89 Q228.148 1437.43 231.76 1437.43 Q235.394 1437.43 237.199 1433.89 Q239.028 1430.32 239.028 1423.21 Q239.028 1416.08 237.199 1412.54 Q235.394 1408.98 231.76 1408.98 M231.76 1405.27 Q237.57 1405.27 240.625 1409.88 Q243.704 1414.46 243.704 1423.21 Q243.704 1431.94 240.625 1436.55 Q237.57 1441.13 231.76 1441.13 Q225.949 1441.13 222.871 1436.55 Q219.815 1431.94 219.815 1423.21 Q219.815 1414.46 222.871 1409.88 Q225.949 1405.27 231.76 1405.27 Z" fill="#000000" fill-rule="evenodd" fill-opacity="1" /><path clip-path="url(#clip790)" d="M127.2 1192.36 Q123.589 1192.36 121.76 1195.93 Q119.955 1199.47 119.955 1206.6 Q119.955 1213.7 121.76 1217.27 Q123.589 1220.81 127.2 1220.81 Q130.834 1220.81 132.64 1217.27 Q134.468 1213.7 134.468 1206.6 Q134.468 1199.47 132.64 1195.93 Q130.834 1192.36 127.2 1192.36 M127.2 1188.66 Q133.01 1188.66 136.066 1193.26 Q139.144 1197.85 139.144 1206.6 Q139.144 1215.32 136.066 1219.93 Q133.01 1224.51 127.2 1224.51 Q121.39 1224.51 118.311 1219.93 Q115.256 1215.32 115.256 1206.6 Q115.256 1197.85 118.311 1193.26 Q121.39 1188.66 127.2 1188.66 Z" fill="#000000" fill-rule="evenodd" fill-opacity="1" /><path clip-path="url(#clip790)" d="M147.362 1217.96 L152.246 1217.96 L152.246 1223.84 L147.362 1223.84 L147.362 1217.96 Z" fill="#000000" fill-rule="evenodd" fill-opacity="1" /><path clip-path="url(#clip790)" d="M175.278 1193.36 L163.473 1211.8 L175.278 1211.8 L175.278 1193.36 M174.052 1189.28 L179.931 1189.28 L179.931 1211.8 L184.862 1211.8 L184.862 1215.69 L179.931 1215.69 L179.931 1223.84 L175.278 1223.84 L175.278 1215.69 L159.677 1215.69 L159.677 1211.18 L174.052 1189.28 Z" fill="#000000" fill-rule="evenodd" fill-opacity="1" /><path clip-path="url(#clip790)" d="M192.639 1189.28 L210.996 1189.28 L210.996 1193.22 L196.922 1193.22 L196.922 1201.69 Q197.94 1201.34 198.959 1201.18 Q199.977 1200.99 200.996 1200.99 Q206.783 1200.99 210.162 1204.17 Q213.542 1207.34 213.542 1212.75 Q213.542 1218.33 210.07 1221.43 Q206.598 1224.51 200.278 1224.51 Q198.102 1224.51 195.834 1224.14 Q193.588 1223.77 191.181 1223.03 L191.181 1218.33 Q193.264 1219.47 195.487 1220.02 Q197.709 1220.58 200.186 1220.58 Q204.19 1220.58 206.528 1218.47 Q208.866 1216.37 208.866 1212.75 Q208.866 1209.14 206.528 1207.04 Q204.19 1204.93 200.186 1204.93 Q198.311 1204.93 196.436 1205.35 Q194.584 1205.76 192.639 1206.64 L192.639 1189.28 Z" fill="#000000" fill-rule="evenodd" fill-opacity="1" /><path clip-path="url(#clip790)" d="M222.801 1189.28 L241.158 1189.28 L241.158 1193.22 L227.084 1193.22 L227.084 1201.69 Q228.102 1201.34 229.121 1201.18 Q230.139 1200.99 231.158 1200.99 Q236.945 1200.99 240.324 1204.17 Q243.704 1207.34 243.704 1212.75 Q243.704 1218.33 240.232 1221.43 Q236.76 1224.51 230.44 1224.51 Q228.264 1224.51 225.996 1224.14 Q223.75 1223.77 221.343 1223.03 L221.343 1218.33 Q223.426 1219.47 225.648 1220.02 Q227.871 1220.58 230.347 1220.58 Q234.352 1220.58 236.69 1218.47 Q239.028 1216.37 239.028 1212.75 Q239.028 1209.14 236.69 1207.04 Q234.352 1204.93 230.347 1204.93 Q228.473 1204.93 226.598 1205.35 Q224.746 1205.76 222.801 1206.64 L222.801 1189.28 Z" fill="#000000" fill-rule="evenodd" fill-opacity="1" /><path clip-path="url(#clip790)" d="M126.205 975.743 Q122.593 975.743 120.765 979.307 Q118.959 982.849 118.959 989.979 Q118.959 997.085 120.765 1000.65 Q122.593 1004.19 126.205 1004.19 Q129.839 1004.19 131.644 1000.65 Q133.473 997.085 133.473 989.979 Q133.473 982.849 131.644 979.307 Q129.839 975.743 126.205 975.743 M126.205 972.039 Q132.015 972.039 135.07 976.645 Q138.149 981.229 138.149 989.979 Q138.149 998.705 135.07 1003.31 Q132.015 1007.9 126.205 1007.9 Q120.394 1007.9 117.316 1003.31 Q114.26 998.705 114.26 989.979 Q114.26 981.229 117.316 976.645 Q120.394 972.039 126.205 972.039 Z" fill="#000000" fill-rule="evenodd" fill-opacity="1" /><path clip-path="url(#clip790)" d="M146.366 1001.34 L151.251 1001.34 L151.251 1007.22 L146.366 1007.22 L146.366 1001.34 Z" fill="#000000" fill-rule="evenodd" fill-opacity="1" /><path clip-path="url(#clip790)" d="M174.283 976.738 L162.477 995.187 L174.283 995.187 L174.283 976.738 M173.056 972.664 L178.936 972.664 L178.936 995.187 L183.866 995.187 L183.866 999.076 L178.936 999.076 L178.936 1007.22 L174.283 1007.22 L174.283 999.076 L158.681 999.076 L158.681 994.562 L173.056 972.664 Z" fill="#000000" fill-rule="evenodd" fill-opacity="1" /><path clip-path="url(#clip790)" d="M202.176 988.081 Q199.028 988.081 197.176 990.233 Q195.348 992.386 195.348 996.136 Q195.348 999.863 197.176 1002.04 Q199.028 1004.19 202.176 1004.19 Q205.324 1004.19 207.153 1002.04 Q209.005 999.863 209.005 996.136 Q209.005 992.386 207.153 990.233 Q205.324 988.081 202.176 988.081 M211.459 973.428 L211.459 977.687 Q209.699 976.854 207.894 976.414 Q206.112 975.974 204.352 975.974 Q199.723 975.974 197.269 979.099 Q194.838 982.224 194.491 988.543 Q195.857 986.53 197.917 985.465 Q199.977 984.377 202.454 984.377 Q207.662 984.377 210.672 987.548 Q213.704 990.696 213.704 996.136 Q213.704 1001.46 210.556 1004.68 Q207.408 1007.9 202.176 1007.9 Q196.181 1007.9 193.01 1003.31 Q189.838 998.705 189.838 989.979 Q189.838 981.784 193.727 976.923 Q197.616 972.039 204.167 972.039 Q205.926 972.039 207.709 972.386 Q209.514 972.733 211.459 973.428 Z" fill="#000000" fill-rule="evenodd" fill-opacity="1" /><path clip-path="url(#clip790)" d="M231.76 975.743 Q228.148 975.743 226.32 979.307 Q224.514 982.849 224.514 989.979 Q224.514 997.085 226.32 1000.65 Q228.148 1004.19 231.76 1004.19 Q235.394 1004.19 237.199 1000.65 Q239.028 997.085 239.028 989.979 Q239.028 982.849 237.199 979.307 Q235.394 975.743 231.76 975.743 M231.76 972.039 Q237.57 972.039 240.625 976.645 Q243.704 981.229 243.704 989.979 Q243.704 998.705 240.625 1003.31 Q237.57 1007.9 231.76 1007.9 Q225.949 1007.9 222.871 1003.31 Q219.815 998.705 219.815 989.979 Q219.815 981.229 222.871 976.645 Q225.949 972.039 231.76 972.039 Z" fill="#000000" fill-rule="evenodd" fill-opacity="1" /><path clip-path="url(#clip790)" d="M127.2 759.125 Q123.589 759.125 121.76 762.689 Q119.955 766.231 119.955 773.361 Q119.955 780.467 121.76 784.032 Q123.589 787.574 127.2 787.574 Q130.834 787.574 132.64 784.032 Q134.468 780.467 134.468 773.361 Q134.468 766.231 132.64 762.689 Q130.834 759.125 127.2 759.125 M127.2 755.421 Q133.01 755.421 136.066 760.027 Q139.144 764.611 139.144 773.361 Q139.144 782.088 136.066 786.694 Q133.01 791.277 127.2 791.277 Q121.39 791.277 118.311 786.694 Q115.256 782.088 115.256 773.361 Q115.256 764.611 118.311 760.027 Q121.39 755.421 127.2 755.421 Z" fill="#000000" fill-rule="evenodd" fill-opacity="1" /><path clip-path="url(#clip790)" d="M147.362 784.726 L152.246 784.726 L152.246 790.606 L147.362 790.606 L147.362 784.726 Z" fill="#000000" fill-rule="evenodd" fill-opacity="1" /><path clip-path="url(#clip790)" d="M175.278 760.12 L163.473 778.569 L175.278 778.569 L175.278 760.12 M174.052 756.046 L179.931 756.046 L179.931 778.569 L184.862 778.569 L184.862 782.458 L179.931 782.458 L179.931 790.606 L175.278 790.606 L175.278 782.458 L159.677 782.458 L159.677 777.944 L174.052 756.046 Z" fill="#000000" fill-rule="evenodd" fill-opacity="1" /><path clip-path="url(#clip790)" d="M203.172 771.463 Q200.024 771.463 198.172 773.615 Q196.343 775.768 196.343 779.518 Q196.343 783.245 198.172 785.421 Q200.024 787.574 203.172 787.574 Q206.32 787.574 208.149 785.421 Q210 783.245 210 779.518 Q210 775.768 208.149 773.615 Q206.32 771.463 203.172 771.463 M212.454 756.81 L212.454 761.069 Q210.695 760.236 208.889 759.796 Q207.107 759.356 205.348 759.356 Q200.718 759.356 198.264 762.481 Q195.834 765.606 195.487 771.926 Q196.852 769.912 198.912 768.847 Q200.973 767.759 203.449 767.759 Q208.658 767.759 211.667 770.93 Q214.699 774.078 214.699 779.518 Q214.699 784.842 211.551 788.06 Q208.403 791.277 203.172 791.277 Q197.176 791.277 194.005 786.694 Q190.834 782.088 190.834 773.361 Q190.834 765.166 194.723 760.305 Q198.612 755.421 205.162 755.421 Q206.922 755.421 208.704 755.768 Q210.51 756.115 212.454 756.81 Z" fill="#000000" fill-rule="evenodd" fill-opacity="1" /><path clip-path="url(#clip790)" d="M222.801 756.046 L241.158 756.046 L241.158 759.981 L227.084 759.981 L227.084 768.453 Q228.102 768.106 229.121 767.944 Q230.139 767.759 231.158 767.759 Q236.945 767.759 240.324 770.93 Q243.704 774.101 243.704 779.518 Q243.704 785.097 240.232 788.199 Q236.76 791.277 230.44 791.277 Q228.264 791.277 225.996 790.907 Q223.75 790.537 221.343 789.796 L221.343 785.097 Q223.426 786.231 225.648 786.787 Q227.871 787.342 230.347 787.342 Q234.352 787.342 236.69 785.236 Q239.028 783.129 239.028 779.518 Q239.028 775.907 236.69 773.801 Q234.352 771.694 230.347 771.694 Q228.473 771.694 226.598 772.111 Q224.746 772.527 222.801 773.407 L222.801 756.046 Z" fill="#000000" fill-rule="evenodd" fill-opacity="1" /><path clip-path="url(#clip790)" d="M126.205 542.507 Q122.593 542.507 120.765 546.072 Q118.959 549.613 118.959 556.743 Q118.959 563.849 120.765 567.414 Q122.593 570.956 126.205 570.956 Q129.839 570.956 131.644 567.414 Q133.473 563.849 133.473 556.743 Q133.473 549.613 131.644 546.072 Q129.839 542.507 126.205 542.507 M126.205 538.803 Q132.015 538.803 135.07 543.409 Q138.149 547.993 138.149 556.743 Q138.149 565.47 135.07 570.076 Q132.015 574.659 126.205 574.659 Q120.394 574.659 117.316 570.076 Q114.26 565.47 114.26 556.743 Q114.26 547.993 117.316 543.409 Q120.394 538.803 126.205 538.803 Z" fill="#000000" fill-rule="evenodd" fill-opacity="1" /><path clip-path="url(#clip790)" d="M146.366 568.108 L151.251 568.108 L151.251 573.988 L146.366 573.988 L146.366 568.108 Z" fill="#000000" fill-rule="evenodd" fill-opacity="1" /><path clip-path="url(#clip790)" d="M174.283 543.502 L162.477 561.951 L174.283 561.951 L174.283 543.502 M173.056 539.428 L178.936 539.428 L178.936 561.951 L183.866 561.951 L183.866 565.84 L178.936 565.84 L178.936 573.988 L174.283 573.988 L174.283 565.84 L158.681 565.84 L158.681 561.326 L173.056 539.428 Z" fill="#000000" fill-rule="evenodd" fill-opacity="1" /><path clip-path="url(#clip790)" d="M190.417 539.428 L212.639 539.428 L212.639 541.419 L200.093 573.988 L195.209 573.988 L207.014 543.363 L190.417 543.363 L190.417 539.428 Z" fill="#000000" fill-rule="evenodd" fill-opacity="1" /><path clip-path="url(#clip790)" d="M231.76 542.507 Q228.148 542.507 226.32 546.072 Q224.514 549.613 224.514 556.743 Q224.514 563.849 226.32 567.414 Q228.148 570.956 231.76 570.956 Q235.394 570.956 237.199 567.414 Q239.028 563.849 239.028 556.743 Q239.028 549.613 237.199 546.072 Q235.394 542.507 231.76 542.507 M231.76 538.803 Q237.57 538.803 240.625 543.409 Q243.704 547.993 243.704 556.743 Q243.704 565.47 240.625 570.076 Q237.57 574.659 231.76 574.659 Q225.949 574.659 222.871 570.076 Q219.815 565.47 219.815 556.743 Q219.815 547.993 222.871 543.409 Q225.949 538.803 231.76 538.803 Z" fill="#000000" fill-rule="evenodd" fill-opacity="1" /><path clip-path="url(#clip790)" d="M127.2 325.889 Q123.589 325.889 121.76 329.454 Q119.955 332.995 119.955 340.125 Q119.955 347.231 121.76 350.796 Q123.589 354.338 127.2 354.338 Q130.834 354.338 132.64 350.796 Q134.468 347.231 134.468 340.125 Q134.468 332.995 132.64 329.454 Q130.834 325.889 127.2 325.889 M127.2 322.185 Q133.01 322.185 136.066 326.792 Q139.144 331.375 139.144 340.125 Q139.144 348.852 136.066 353.458 Q133.01 358.041 127.2 358.041 Q121.39 358.041 118.311 353.458 Q115.256 348.852 115.256 340.125 Q115.256 331.375 118.311 326.792 Q121.39 322.185 127.2 322.185 Z" fill="#000000" fill-rule="evenodd" fill-opacity="1" /><path clip-path="url(#clip790)" d="M147.362 351.49 L152.246 351.49 L152.246 357.37 L147.362 357.37 L147.362 351.49 Z" fill="#000000" fill-rule="evenodd" fill-opacity="1" /><path clip-path="url(#clip790)" d="M175.278 326.884 L163.473 345.333 L175.278 345.333 L175.278 326.884 M174.052 322.81 L179.931 322.81 L179.931 345.333 L184.862 345.333 L184.862 349.222 L179.931 349.222 L179.931 357.37 L175.278 357.37 L175.278 349.222 L159.677 349.222 L159.677 344.708 L174.052 322.81 Z" fill="#000000" fill-rule="evenodd" fill-opacity="1" /><path clip-path="url(#clip790)" d="M191.413 322.81 L213.635 322.81 L213.635 324.801 L201.088 357.37 L196.204 357.37 L208.01 326.745 L191.413 326.745 L191.413 322.81 Z" fill="#000000" fill-rule="evenodd" fill-opacity="1" /><path clip-path="url(#clip790)" d="M222.801 322.81 L241.158 322.81 L241.158 326.745 L227.084 326.745 L227.084 335.217 Q228.102 334.87 229.121 334.708 Q230.139 334.523 231.158 334.523 Q236.945 334.523 240.324 337.694 Q243.704 340.866 243.704 346.282 Q243.704 351.861 240.232 354.963 Q236.76 358.041 230.44 358.041 Q228.264 358.041 225.996 357.671 Q223.75 357.301 221.343 356.56 L221.343 351.861 Q223.426 352.995 225.648 353.551 Q227.871 354.106 230.347 354.106 Q234.352 354.106 236.69 352 Q239.028 349.893 239.028 346.282 Q239.028 342.671 236.69 340.565 Q234.352 338.458 230.347 338.458 Q228.473 338.458 226.598 338.875 Q224.746 339.291 222.801 340.171 L222.801 322.81 Z" fill="#000000" fill-rule="evenodd" fill-opacity="1" /><path clip-path="url(#clip790)" d="M126.205 109.271 Q122.593 109.271 120.765 112.836 Q118.959 116.377 118.959 123.507 Q118.959 130.613 120.765 134.178 Q122.593 137.72 126.205 137.72 Q129.839 137.72 131.644 134.178 Q133.473 130.613 133.473 123.507 Q133.473 116.377 131.644 112.836 Q129.839 109.271 126.205 109.271 M126.205 105.567 Q132.015 105.567 135.07 110.174 Q138.149 114.757 138.149 123.507 Q138.149 132.234 135.07 136.84 Q132.015 141.423 126.205 141.423 Q120.394 141.423 117.316 136.84 Q114.26 132.234 114.26 123.507 Q114.26 114.757 117.316 110.174 Q120.394 105.567 126.205 105.567 Z" fill="#000000" fill-rule="evenodd" fill-opacity="1" /><path clip-path="url(#clip790)" d="M146.366 134.873 L151.251 134.873 L151.251 140.752 L146.366 140.752 L146.366 134.873 Z" fill="#000000" fill-rule="evenodd" fill-opacity="1" /><path clip-path="url(#clip790)" d="M174.283 110.266 L162.477 128.715 L174.283 128.715 L174.283 110.266 M173.056 106.192 L178.936 106.192 L178.936 128.715 L183.866 128.715 L183.866 132.604 L178.936 132.604 L178.936 140.752 L174.283 140.752 L174.283 132.604 L158.681 132.604 L158.681 128.09 L173.056 106.192 Z" fill="#000000" fill-rule="evenodd" fill-opacity="1" /><path clip-path="url(#clip790)" d="M201.598 124.34 Q198.264 124.34 196.343 126.123 Q194.445 127.905 194.445 131.03 Q194.445 134.155 196.343 135.937 Q198.264 137.72 201.598 137.72 Q204.931 137.72 206.852 135.937 Q208.774 134.132 208.774 131.03 Q208.774 127.905 206.852 126.123 Q204.954 124.34 201.598 124.34 M196.922 122.349 Q193.913 121.609 192.223 119.549 Q190.556 117.488 190.556 114.525 Q190.556 110.382 193.496 107.975 Q196.459 105.567 201.598 105.567 Q206.76 105.567 209.699 107.975 Q212.639 110.382 212.639 114.525 Q212.639 117.488 210.949 119.549 Q209.283 121.609 206.297 122.349 Q209.676 123.136 211.551 125.428 Q213.449 127.72 213.449 131.03 Q213.449 136.053 210.371 138.738 Q207.315 141.423 201.598 141.423 Q195.88 141.423 192.801 138.738 Q189.746 136.053 189.746 131.03 Q189.746 127.72 191.644 125.428 Q193.542 123.136 196.922 122.349 M195.209 114.965 Q195.209 117.65 196.875 119.155 Q198.565 120.66 201.598 120.66 Q204.607 120.66 206.297 119.155 Q208.01 117.65 208.01 114.965 Q208.01 112.28 206.297 110.775 Q204.607 109.271 201.598 109.271 Q198.565 109.271 196.875 110.775 Q195.209 112.28 195.209 114.965 Z" fill="#000000" fill-rule="evenodd" fill-opacity="1" /><path clip-path="url(#clip790)" d="M231.76 109.271 Q228.148 109.271 226.32 112.836 Q224.514 116.377 224.514 123.507 Q224.514 130.613 226.32 134.178 Q228.148 137.72 231.76 137.72 Q235.394 137.72 237.199 134.178 Q239.028 130.613 239.028 123.507 Q239.028 116.377 237.199 112.836 Q235.394 109.271 231.76 109.271 M231.76 105.567 Q237.57 105.567 240.625 110.174 Q243.704 114.757 243.704 123.507 Q243.704 132.234 240.625 136.84 Q237.57 141.423 231.76 141.423 Q225.949 141.423 222.871 136.84 Q219.815 132.234 219.815 123.507 Q219.815 114.757 222.871 110.174 Q225.949 105.567 231.76 105.567 Z" fill="#000000" fill-rule="evenodd" fill-opacity="1" /><path clip-path="url(#clip790)" d="M16.4842 987.834 L16.4842 981.405 L64.0042 981.405 L64.0042 987.834 L16.4842 987.834 Z" fill="#000000" fill-rule="evenodd" fill-opacity="1" /><path clip-path="url(#clip790)" d="M42.4881 939.232 L64.0042 939.232 L64.0042 945.089 L42.679 945.089 Q37.6183 945.089 35.1038 947.062 Q32.5894 949.035 32.5894 952.982 Q32.5894 957.725 35.6131 960.462 Q38.6368 963.199 43.8567 963.199 L64.0042 963.199 L64.0042 969.087 L28.3562 969.087 L28.3562 963.199 L33.8944 963.199 Q30.6797 961.098 29.0883 958.266 Q27.4968 955.401 27.4968 951.677 Q27.4968 945.534 31.3163 942.383 Q35.1038 939.232 42.4881 939.232 Z" fill="#000000" fill-rule="evenodd" fill-opacity="1" /><path clip-path="url(#clip790)" d="M42.4881 897.919 L64.0042 897.919 L64.0042 903.775 L42.679 903.775 Q37.6183 903.775 35.1038 905.749 Q32.5894 907.722 32.5894 911.669 Q32.5894 916.411 35.6131 919.148 Q38.6368 921.886 43.8567 921.886 L64.0042 921.886 L64.0042 927.774 L28.3562 927.774 L28.3562 921.886 L33.8944 921.886 Q30.6797 919.785 29.0883 916.952 Q27.4968 914.088 27.4968 910.364 Q27.4968 904.221 31.3163 901.07 Q35.1038 897.919 42.4881 897.919 Z" fill="#000000" fill-rule="evenodd" fill-opacity="1" /><path clip-path="url(#clip790)" d="M44.7161 855.746 L47.5806 855.746 L47.5806 882.673 Q53.6281 882.291 56.8109 879.044 Q59.9619 875.766 59.9619 869.941 Q59.9619 866.568 59.1344 863.417 Q58.3069 860.234 56.6518 857.115 L62.1899 857.115 Q63.5267 860.266 64.227 863.576 Q64.9272 866.886 64.9272 870.292 Q64.9272 878.822 59.9619 883.819 Q54.9967 888.784 46.5303 888.784 Q37.7774 888.784 32.6531 884.073 Q27.4968 879.331 27.4968 871.31 Q27.4968 864.117 32.1438 859.947 Q36.7589 855.746 44.7161 855.746 M42.9973 861.602 Q38.1912 861.666 35.3266 864.308 Q32.4621 866.918 32.4621 871.246 Q32.4621 876.148 35.2312 879.108 Q38.0002 882.036 43.0292 882.482 L42.9973 861.602 Z" fill="#000000" fill-rule="evenodd" fill-opacity="1" /><path clip-path="url(#clip790)" d="M33.8307 825.477 Q33.2578 826.464 33.0032 827.641 Q32.7167 828.787 32.7167 830.188 Q32.7167 835.153 35.9632 837.827 Q39.1779 840.468 45.2253 840.468 L64.0042 840.468 L64.0042 846.357 L28.3562 846.357 L28.3562 840.468 L33.8944 840.468 Q30.6479 838.622 29.0883 835.662 Q27.4968 832.702 27.4968 828.469 Q27.4968 827.864 27.5923 827.132 Q27.656 826.4 27.8151 825.509 L33.8307 825.477 Z" fill="#000000" fill-rule="evenodd" fill-opacity="1" /><path clip-path="url(#clip790)" d="M21.7677 791.93 L39.6235 791.93 L39.6235 783.845 Q39.6235 779.357 37.3 776.907 Q34.9765 774.456 30.6797 774.456 Q26.4147 774.456 24.0912 776.907 Q21.7677 779.357 21.7677 783.845 L21.7677 791.93 M16.4842 798.359 L16.4842 783.845 Q16.4842 775.856 20.1126 771.782 Q23.7092 767.676 30.6797 767.676 Q37.7138 767.676 41.3104 771.782 Q44.907 775.856 44.907 783.845 L44.907 791.93 L64.0042 791.93 L64.0042 798.359 L16.4842 798.359 Z" fill="#000000" fill-rule="evenodd" fill-opacity="1" /><path clip-path="url(#clip790)" d="M33.8307 739.795 Q33.2578 740.781 33.0032 741.959 Q32.7167 743.105 32.7167 744.505 Q32.7167 749.47 35.9632 752.144 Q39.1779 754.786 45.2253 754.786 L64.0042 754.786 L64.0042 760.674 L28.3562 760.674 L28.3562 754.786 L33.8944 754.786 Q30.6479 752.94 29.0883 749.98 Q27.4968 747.02 27.4968 742.787 Q27.4968 742.182 27.5923 741.45 Q27.656 740.718 27.8151 739.826 L33.8307 739.795 Z" fill="#000000" fill-rule="evenodd" fill-opacity="1" /><path clip-path="url(#clip790)" d="M32.4621 721.27 Q32.4621 725.981 36.1542 728.718 Q39.8145 731.456 46.212 731.456 Q52.6095 731.456 56.3017 728.75 Q59.9619 726.013 59.9619 721.27 Q59.9619 716.592 56.2698 713.854 Q52.5777 711.117 46.212 711.117 Q39.8781 711.117 36.186 713.854 Q32.4621 716.592 32.4621 721.27 M27.4968 721.27 Q27.4968 713.632 32.4621 709.271 Q37.4273 704.911 46.212 704.911 Q54.9649 704.911 59.9619 709.271 Q64.9272 713.632 64.9272 721.27 Q64.9272 728.941 59.9619 733.302 Q54.9649 737.63 46.212 737.63 Q37.4273 737.63 32.4621 733.302 Q27.4968 728.941 27.4968 721.27 Z" fill="#000000" fill-rule="evenodd" fill-opacity="1" /><path clip-path="url(#clip790)" d="M33.7671 671.745 L14.479 671.745 L14.479 665.889 L64.0042 665.889 L64.0042 671.745 L58.657 671.745 Q61.8398 673.591 63.3994 676.424 Q64.9272 679.225 64.9272 683.172 Q64.9272 689.633 59.771 693.707 Q54.6147 697.749 46.212 697.749 Q37.8093 697.749 32.6531 693.707 Q27.4968 689.633 27.4968 683.172 Q27.4968 679.225 29.0564 676.424 Q30.5842 673.591 33.7671 671.745 M46.212 691.702 Q52.6732 691.702 56.3653 689.06 Q60.0256 686.386 60.0256 681.739 Q60.0256 677.092 56.3653 674.419 Q52.6732 671.745 46.212 671.745 Q39.7508 671.745 36.0905 674.419 Q32.3984 677.092 32.3984 681.739 Q32.3984 686.386 36.0905 689.06 Q39.7508 691.702 46.212 691.702 Z" fill="#000000" fill-rule="evenodd" fill-opacity="1" /><path clip-path="url(#clip790)" d="M49.9359 654.43 L28.3562 654.43 L28.3562 648.574 L49.7131 648.574 Q54.7739 648.574 57.3202 646.601 Q59.8346 644.627 59.8346 640.681 Q59.8346 635.938 56.8109 633.201 Q53.7872 630.432 48.5673 630.432 L28.3562 630.432 L28.3562 624.575 L64.0042 624.575 L64.0042 630.432 L58.5296 630.432 Q61.7762 632.564 63.3676 635.397 Q64.9272 638.198 64.9272 641.922 Q64.9272 648.065 61.1078 651.248 Q57.2883 654.43 49.9359 654.43 M27.4968 639.694 L27.4968 639.694 Z" fill="#000000" fill-rule="evenodd" fill-opacity="1" /><path clip-path="url(#clip790)" d="M29.7248 586.859 L35.1993 586.859 Q33.8307 589.341 33.1623 591.856 Q32.4621 594.338 32.4621 596.885 Q32.4621 602.582 36.0905 605.733 Q39.6872 608.884 46.212 608.884 Q52.7369 608.884 56.3653 605.733 Q59.9619 602.582 59.9619 596.885 Q59.9619 594.338 59.2935 591.856 Q58.5933 589.341 57.2247 586.859 L62.6355 586.859 Q63.7814 589.309 64.3543 591.951 Q64.9272 594.561 64.9272 597.521 Q64.9272 605.574 59.8664 610.316 Q54.8057 615.059 46.212 615.059 Q37.491 615.059 32.4939 610.284 Q27.4968 605.478 27.4968 597.139 Q27.4968 594.434 28.0697 591.856 Q28.6108 589.277 29.7248 586.859 Z" fill="#000000" fill-rule="evenodd" fill-opacity="1" /><path clip-path="url(#clip790)" d="M18.2347 570.881 L28.3562 570.881 L28.3562 558.818 L32.9077 558.818 L32.9077 570.881 L52.2594 570.881 Q56.6199 570.881 57.8613 569.703 Q59.1026 568.493 59.1026 564.833 L59.1026 558.818 L64.0042 558.818 L64.0042 564.833 Q64.0042 571.613 61.4897 574.191 Q58.9434 576.769 52.2594 576.769 L32.9077 576.769 L32.9077 581.066 L28.3562 581.066 L28.3562 576.769 L18.2347 576.769 L18.2347 570.881 Z" fill="#000000" fill-rule="evenodd" fill-opacity="1" /><path clip-path="url(#clip790)" d="M1185.81 17.6457 Q1176.9 17.6457 1171.63 24.2892 Q1166.41 30.9327 1166.41 42.3968 Q1166.41 53.8203 1171.63 60.4638 Q1176.9 67.1073 1185.81 67.1073 Q1194.72 67.1073 1199.91 60.4638 Q1205.13 53.8203 1205.13 42.3968 Q1205.13 30.9327 1199.91 24.2892 Q1194.72 17.6457 1185.81 17.6457 M1185.81 11.0023 Q1198.53 11.0023 1206.15 19.5497 Q1213.76 28.0566 1213.76 42.3968 Q1213.76 56.6965 1206.15 65.2439 Q1198.53 73.7508 1185.81 73.7508 Q1173.05 73.7508 1165.39 65.2439 Q1157.78 56.737 1157.78 42.3968 Q1157.78 28.0566 1165.39 19.5497 Q1173.05 11.0023 1185.81 11.0023 Z" fill="#000000" fill-rule="evenodd" fill-opacity="1" /><path clip-path="url(#clip790)" d="M1220.89 27.2059 L1228.79 27.2059 L1242.97 65.2844 L1257.15 27.2059 L1265.05 27.2059 L1248.03 72.576 L1237.91 72.576 L1220.89 27.2059 Z" fill="#000000" fill-rule="evenodd" fill-opacity="1" /><path clip-path="url(#clip790)" d="M1314.14 48.0275 L1314.14 51.6733 L1279.87 51.6733 Q1280.36 59.3701 1284.49 63.421 Q1288.66 67.4314 1296.08 67.4314 Q1300.37 67.4314 1304.38 66.3781 Q1308.43 65.3249 1312.4 63.2184 L1312.4 70.267 Q1308.39 71.9684 1304.18 72.8596 Q1299.97 73.7508 1295.63 73.7508 Q1284.77 73.7508 1278.41 67.4314 Q1272.1 61.1119 1272.1 50.3365 Q1272.1 39.1965 1278.09 32.6746 Q1284.13 26.1121 1294.33 26.1121 Q1303.49 26.1121 1308.8 32.0264 Q1314.14 37.9003 1314.14 48.0275 M1306.69 45.84 Q1306.61 39.7232 1303.25 36.0774 Q1299.93 32.4315 1294.42 32.4315 Q1288.18 32.4315 1284.41 35.9558 Q1280.68 39.4801 1280.12 45.8805 L1306.69 45.84 Z" fill="#000000" fill-rule="evenodd" fill-opacity="1" /><path clip-path="url(#clip790)" d="M1352.67 34.1734 Q1351.41 33.4443 1349.91 33.1202 Q1348.45 32.7556 1346.67 32.7556 Q1340.35 32.7556 1336.95 36.8875 Q1333.59 40.9789 1333.59 48.6757 L1333.59 72.576 L1326.09 72.576 L1326.09 27.2059 L1333.59 27.2059 L1333.59 34.2544 Q1335.94 30.1225 1339.7 28.1376 Q1343.47 26.1121 1348.86 26.1121 Q1349.63 26.1121 1350.56 26.2337 Q1351.49 26.3147 1352.63 26.5172 L1352.67 34.1734 Z" fill="#000000" fill-rule="evenodd" fill-opacity="1" /><path clip-path="url(#clip790)" d="M1360.49 9.54393 L1367.94 9.54393 L1367.94 72.576 L1360.49 72.576 L1360.49 9.54393 Z" fill="#000000" fill-rule="evenodd" fill-opacity="1" /><path clip-path="url(#clip790)" d="M1404.15 49.7694 Q1395.12 49.7694 1391.64 51.8354 Q1388.15 53.9013 1388.15 58.8839 Q1388.15 62.8538 1390.75 65.2034 Q1393.38 67.5124 1397.88 67.5124 Q1404.07 67.5124 1407.8 63.1374 Q1411.57 58.7219 1411.57 51.4303 L1411.57 49.7694 L1404.15 49.7694 M1419.02 46.6907 L1419.02 72.576 L1411.57 72.576 L1411.57 65.6895 Q1409.02 69.8214 1405.21 71.8063 Q1401.4 73.7508 1395.89 73.7508 Q1388.92 73.7508 1384.79 69.8619 Q1380.7 65.9325 1380.7 59.3701 Q1380.7 51.7138 1385.8 47.825 Q1390.95 43.9361 1401.12 43.9361 L1411.57 43.9361 L1411.57 43.2069 Q1411.57 38.0623 1408.17 35.2672 Q1404.8 32.4315 1398.69 32.4315 Q1394.8 32.4315 1391.11 33.3632 Q1387.42 34.295 1384.02 36.1584 L1384.02 29.2718 Q1388.11 27.692 1391.96 26.9223 Q1395.81 26.1121 1399.46 26.1121 Q1409.3 26.1121 1414.16 31.2163 Q1419.02 36.3204 1419.02 46.6907 Z" fill="#000000" fill-rule="evenodd" fill-opacity="1" /><path clip-path="url(#clip790)" d="M1441.59 65.7705 L1441.59 89.8329 L1434.09 89.8329 L1434.09 27.2059 L1441.59 27.2059 L1441.59 34.0924 Q1443.93 30.0415 1447.5 28.0971 Q1451.1 26.1121 1456.09 26.1121 Q1464.35 26.1121 1469.5 32.6746 Q1474.68 39.2371 1474.68 49.9314 Q1474.68 60.6258 1469.5 67.1883 Q1464.35 73.7508 1456.09 73.7508 Q1451.1 73.7508 1447.5 71.8063 Q1443.93 69.8214 1441.59 65.7705 M1466.94 49.9314 Q1466.94 41.7081 1463.54 37.0496 Q1460.18 32.3505 1454.26 32.3505 Q1448.35 32.3505 1444.95 37.0496 Q1441.59 41.7081 1441.59 49.9314 Q1441.59 58.1548 1444.95 62.8538 Q1448.35 67.5124 1454.26 67.5124 Q1460.18 67.5124 1463.54 62.8538 Q1466.94 58.1548 1466.94 49.9314 Z" fill="#000000" fill-rule="evenodd" fill-opacity="1" /><polyline clip-path="url(#clip792)" style="stroke:#000000; stroke-linecap:round; stroke-linejoin:round; stroke-width:4; stroke-opacity:1; fill:none" points="
  321.165,396.647 321.165,396.646 
  "/>
<polyline clip-path="url(#clip792)" style="stroke:#000000; stroke-linecap:round; stroke-linejoin:round; stroke-width:4; stroke-opacity:1; fill:none" points="
  362.626,624.021 362.626,624.019 
  "/>
<polyline clip-path="url(#clip792)" style="stroke:#000000; stroke-linecap:round; stroke-linejoin:round; stroke-width:4; stroke-opacity:1; fill:none" points="
  404.087,692.946 404.087,692.945 
  "/>
<polyline clip-path="url(#clip792)" style="stroke:#000000; stroke-linecap:round; stroke-linejoin:round; stroke-width:4; stroke-opacity:1; fill:none" points="
  445.548,716.317 445.548,716.31 
  "/>
<polyline clip-path="url(#clip792)" style="stroke:#000000; stroke-linecap:round; stroke-linejoin:round; stroke-width:4; stroke-opacity:1; fill:none" points="
  487.009,724.578 487.009,724.458 
  "/>
<polyline clip-path="url(#clip792)" style="stroke:#000000; stroke-linecap:round; stroke-linejoin:round; stroke-width:4; stroke-opacity:1; fill:none" points="
  528.47,727.555 528.47,727.221 
  "/>
<polyline clip-path="url(#clip792)" style="stroke:#000000; stroke-linecap:round; stroke-linejoin:round; stroke-width:4; stroke-opacity:1; fill:none" points="
  569.931,728.587 569.931,728.167 
  "/>
<polyline clip-path="url(#clip792)" style="stroke:#000000; stroke-linecap:round; stroke-linejoin:round; stroke-width:4; stroke-opacity:1; fill:none" points="
  611.392,727.553 611.392,721.924 
  "/>
<polyline clip-path="url(#clip792)" style="stroke:#000000; stroke-linecap:round; stroke-linejoin:round; stroke-width:4; stroke-opacity:1; fill:none" points="
  652.853,758.971 652.853,708.658 
  "/>
<polyline clip-path="url(#clip792)" style="stroke:#000000; stroke-linecap:round; stroke-linejoin:round; stroke-width:4; stroke-opacity:1; fill:none" points="
  694.314,758.315 694.314,691.418 
  "/>
<polyline clip-path="url(#clip792)" style="stroke:#000000; stroke-linecap:round; stroke-linejoin:round; stroke-width:4; stroke-opacity:1; fill:none" points="
  735.775,732.731 735.775,725.251 
  "/>
<polyline clip-path="url(#clip792)" style="stroke:#000000; stroke-linecap:round; stroke-linejoin:round; stroke-width:4; stroke-opacity:1; fill:none" points="
  777.236,713.504 777.236,708.138 
  "/>
<polyline clip-path="url(#clip792)" style="stroke:#000000; stroke-linecap:round; stroke-linejoin:round; stroke-width:4; stroke-opacity:1; fill:none" points="
  818.697,734.949 818.697,716 
  "/>
<polyline clip-path="url(#clip792)" style="stroke:#000000; stroke-linecap:round; stroke-linejoin:round; stroke-width:4; stroke-opacity:1; fill:none" points="
  860.158,763.293 860.158,682.171 
  "/>
<polyline clip-path="url(#clip792)" style="stroke:#000000; stroke-linecap:round; stroke-linejoin:round; stroke-width:4; stroke-opacity:1; fill:none" points="
  901.62,748.145 901.62,698.518 
  "/>
<polyline clip-path="url(#clip792)" style="stroke:#000000; stroke-linecap:round; stroke-linejoin:round; stroke-width:4; stroke-opacity:1; fill:none" points="
  943.081,754.551 943.081,716.319 
  "/>
<polyline clip-path="url(#clip792)" style="stroke:#000000; stroke-linecap:round; stroke-linejoin:round; stroke-width:4; stroke-opacity:1; fill:none" points="
  984.542,795.742 984.542,694.59 
  "/>
<polyline clip-path="url(#clip792)" style="stroke:#000000; stroke-linecap:round; stroke-linejoin:round; stroke-width:4; stroke-opacity:1; fill:none" points="
  1026,735.027 1026,728.974 
  "/>
<polyline clip-path="url(#clip792)" style="stroke:#000000; stroke-linecap:round; stroke-linejoin:round; stroke-width:4; stroke-opacity:1; fill:none" points="
  1067.46,792.726 1067.46,686.342 
  "/>
<polyline clip-path="url(#clip792)" style="stroke:#000000; stroke-linecap:round; stroke-linejoin:round; stroke-width:4; stroke-opacity:1; fill:none" points="
  1108.92,771.602 1108.92,708.623 
  "/>
<polyline clip-path="url(#clip792)" style="stroke:#000000; stroke-linecap:round; stroke-linejoin:round; stroke-width:4; stroke-opacity:1; fill:none" points="
  1150.39,761.842 1150.39,702.89 
  "/>
<polyline clip-path="url(#clip792)" style="stroke:#000000; stroke-linecap:round; stroke-linejoin:round; stroke-width:4; stroke-opacity:1; fill:none" points="
  1191.85,781.869 1191.85,641.428 
  "/>
<polyline clip-path="url(#clip792)" style="stroke:#000000; stroke-linecap:round; stroke-linejoin:round; stroke-width:4; stroke-opacity:1; fill:none" points="
  1233.31,789.635 1233.31,713.091 
  "/>
<polyline clip-path="url(#clip792)" style="stroke:#000000; stroke-linecap:round; stroke-linejoin:round; stroke-width:4; stroke-opacity:1; fill:none" points="
  1274.77,728.334 1274.77,725.562 
  "/>
<polyline clip-path="url(#clip792)" style="stroke:#000000; stroke-linecap:round; stroke-linejoin:round; stroke-width:4; stroke-opacity:1; fill:none" points="
  1316.23,861.695 1316.23,733.77 
  "/>
<polyline clip-path="url(#clip792)" style="stroke:#000000; stroke-linecap:round; stroke-linejoin:round; stroke-width:4; stroke-opacity:1; fill:none" points="
  1357.69,770.993 1357.69,693.959 
  "/>
<polyline clip-path="url(#clip792)" style="stroke:#000000; stroke-linecap:round; stroke-linejoin:round; stroke-width:4; stroke-opacity:1; fill:none" points="
  1399.15,742.842 1399.15,712.327 
  "/>
<polyline clip-path="url(#clip792)" style="stroke:#000000; stroke-linecap:round; stroke-linejoin:round; stroke-width:4; stroke-opacity:1; fill:none" points="
  1440.61,761.842 1440.61,731.109 
  "/>
<polyline clip-path="url(#clip792)" style="stroke:#000000; stroke-linecap:round; stroke-linejoin:round; stroke-width:4; stroke-opacity:1; fill:none" points="
  1482.07,887.249 1482.07,860.365 
  "/>
<polyline clip-path="url(#clip792)" style="stroke:#000000; stroke-linecap:round; stroke-linejoin:round; stroke-width:4; stroke-opacity:1; fill:none" points="
  1523.54,764.04 1523.54,733.764 
  "/>
<polyline clip-path="url(#clip792)" style="stroke:#000000; stroke-linecap:round; stroke-linejoin:round; stroke-width:4; stroke-opacity:1; fill:none" points="
  1565,779.611 1565,718.273 
  "/>
<polyline clip-path="url(#clip792)" style="stroke:#000000; stroke-linecap:round; stroke-linejoin:round; stroke-width:4; stroke-opacity:1; fill:none" points="
  1606.46,843.56 1606.46,801.095 
  "/>
<polyline clip-path="url(#clip792)" style="stroke:#000000; stroke-linecap:round; stroke-linejoin:round; stroke-width:4; stroke-opacity:1; fill:none" points="
  1647.92,763.705 1647.92,659.129 
  "/>
<polyline clip-path="url(#clip792)" style="stroke:#000000; stroke-linecap:round; stroke-linejoin:round; stroke-width:4; stroke-opacity:1; fill:none" points="
  1689.38,833.802 1689.38,691.226 
  "/>
<polyline clip-path="url(#clip792)" style="stroke:#000000; stroke-linecap:round; stroke-linejoin:round; stroke-width:4; stroke-opacity:1; fill:none" points="
  1730.84,866.968 1730.84,664.847 
  "/>
<polyline clip-path="url(#clip792)" style="stroke:#000000; stroke-linecap:round; stroke-linejoin:round; stroke-width:4; stroke-opacity:1; fill:none" points="
  1772.3,752.669 1772.3,703.718 
  "/>
<polyline clip-path="url(#clip792)" style="stroke:#000000; stroke-linecap:round; stroke-linejoin:round; stroke-width:4; stroke-opacity:1; fill:none" points="
  1813.76,773.515 1813.76,710.781 
  "/>
<polyline clip-path="url(#clip792)" style="stroke:#000000; stroke-linecap:round; stroke-linejoin:round; stroke-width:4; stroke-opacity:1; fill:none" points="
  1855.22,1068.12 1855.22,989.5 
  "/>
<polyline clip-path="url(#clip792)" style="stroke:#000000; stroke-linecap:round; stroke-linejoin:round; stroke-width:4; stroke-opacity:1; fill:none" points="
  1896.68,786.954 1896.68,737.742 
  "/>
<polyline clip-path="url(#clip792)" style="stroke:#000000; stroke-linecap:round; stroke-linejoin:round; stroke-width:4; stroke-opacity:1; fill:none" points="
  1938.15,798.537 1938.15,772.632 
  "/>
<polyline clip-path="url(#clip792)" style="stroke:#000000; stroke-linecap:round; stroke-linejoin:round; stroke-width:4; stroke-opacity:1; fill:none" points="
  1979.61,815.174 1979.61,665.93 
  "/>
<polyline clip-path="url(#clip792)" style="stroke:#000000; stroke-linecap:round; stroke-linejoin:round; stroke-width:4; stroke-opacity:1; fill:none" points="
  2021.07,800.689 2021.07,754.198 
  "/>
<polyline clip-path="url(#clip792)" style="stroke:#000000; stroke-linecap:round; stroke-linejoin:round; stroke-width:4; stroke-opacity:1; fill:none" points="
  2062.53,760.016 2062.53,723.043 
  "/>
<polyline clip-path="url(#clip792)" style="stroke:#000000; stroke-linecap:round; stroke-linejoin:round; stroke-width:4; stroke-opacity:1; fill:none" points="
  2103.99,913.6 2103.99,770.607 
  "/>
<polyline clip-path="url(#clip792)" style="stroke:#000000; stroke-linecap:round; stroke-linejoin:round; stroke-width:4; stroke-opacity:1; fill:none" points="
  2145.45,785.629 2145.45,736.893 
  "/>
<polyline clip-path="url(#clip792)" style="stroke:#000000; stroke-linecap:round; stroke-linejoin:round; stroke-width:4; stroke-opacity:1; fill:none" points="
  2186.91,893.477 2186.91,761.526 
  "/>
<polyline clip-path="url(#clip792)" style="stroke:#000000; stroke-linecap:round; stroke-linejoin:round; stroke-width:4; stroke-opacity:1; fill:none" points="
  2228.37,825.729 2228.37,746.481 
  "/>
<polyline clip-path="url(#clip792)" style="stroke:#000000; stroke-linecap:round; stroke-linejoin:round; stroke-width:4; stroke-opacity:1; fill:none" points="
  2269.83,822.571 2269.83,760.625 
  "/>
<polyline clip-path="url(#clip792)" style="stroke:#000000; stroke-linecap:round; stroke-linejoin:round; stroke-width:4; stroke-opacity:1; fill:none" points="
  2311.29,781.108 2311.29,765.209 
  "/>
<line clip-path="url(#clip792)" x1="329.165" y1="396.647" x2="313.165" y2="396.647" style="stroke:#000000; stroke-width:3.2; stroke-opacity:1"/>
<line clip-path="url(#clip792)" x1="329.165" y1="396.646" x2="313.165" y2="396.646" style="stroke:#000000; stroke-width:3.2; stroke-opacity:1"/>
<line clip-path="url(#clip792)" x1="370.626" y1="624.021" x2="354.626" y2="624.021" style="stroke:#000000; stroke-width:3.2; stroke-opacity:1"/>
<line clip-path="url(#clip792)" x1="370.626" y1="624.019" x2="354.626" y2="624.019" style="stroke:#000000; stroke-width:3.2; stroke-opacity:1"/>
<line clip-path="url(#clip792)" x1="412.087" y1="692.946" x2="396.087" y2="692.946" style="stroke:#000000; stroke-width:3.2; stroke-opacity:1"/>
<line clip-path="url(#clip792)" x1="412.087" y1="692.945" x2="396.087" y2="692.945" style="stroke:#000000; stroke-width:3.2; stroke-opacity:1"/>
<line clip-path="url(#clip792)" x1="453.548" y1="716.317" x2="437.548" y2="716.317" style="stroke:#000000; stroke-width:3.2; stroke-opacity:1"/>
<line clip-path="url(#clip792)" x1="453.548" y1="716.31" x2="437.548" y2="716.31" style="stroke:#000000; stroke-width:3.2; stroke-opacity:1"/>
<line clip-path="url(#clip792)" x1="495.009" y1="724.578" x2="479.009" y2="724.578" style="stroke:#000000; stroke-width:3.2; stroke-opacity:1"/>
<line clip-path="url(#clip792)" x1="495.009" y1="724.458" x2="479.009" y2="724.458" style="stroke:#000000; stroke-width:3.2; stroke-opacity:1"/>
<line clip-path="url(#clip792)" x1="536.47" y1="727.555" x2="520.47" y2="727.555" style="stroke:#000000; stroke-width:3.2; stroke-opacity:1"/>
<line clip-path="url(#clip792)" x1="536.47" y1="727.221" x2="520.47" y2="727.221" style="stroke:#000000; stroke-width:3.2; stroke-opacity:1"/>
<line clip-path="url(#clip792)" x1="577.931" y1="728.587" x2="561.931" y2="728.587" style="stroke:#000000; stroke-width:3.2; stroke-opacity:1"/>
<line clip-path="url(#clip792)" x1="577.931" y1="728.167" x2="561.931" y2="728.167" style="stroke:#000000; stroke-width:3.2; stroke-opacity:1"/>
<line clip-path="url(#clip792)" x1="619.392" y1="727.553" x2="603.392" y2="727.553" style="stroke:#000000; stroke-width:3.2; stroke-opacity:1"/>
<line clip-path="url(#clip792)" x1="619.392" y1="721.924" x2="603.392" y2="721.924" style="stroke:#000000; stroke-width:3.2; stroke-opacity:1"/>
<line clip-path="url(#clip792)" x1="660.853" y1="758.971" x2="644.853" y2="758.971" style="stroke:#000000; stroke-width:3.2; stroke-opacity:1"/>
<line clip-path="url(#clip792)" x1="660.853" y1="708.658" x2="644.853" y2="708.658" style="stroke:#000000; stroke-width:3.2; stroke-opacity:1"/>
<line clip-path="url(#clip792)" x1="702.314" y1="758.315" x2="686.314" y2="758.315" style="stroke:#000000; stroke-width:3.2; stroke-opacity:1"/>
<line clip-path="url(#clip792)" x1="702.314" y1="691.418" x2="686.314" y2="691.418" style="stroke:#000000; stroke-width:3.2; stroke-opacity:1"/>
<line clip-path="url(#clip792)" x1="743.775" y1="732.731" x2="727.775" y2="732.731" style="stroke:#000000; stroke-width:3.2; stroke-opacity:1"/>
<line clip-path="url(#clip792)" x1="743.775" y1="725.251" x2="727.775" y2="725.251" style="stroke:#000000; stroke-width:3.2; stroke-opacity:1"/>
<line clip-path="url(#clip792)" x1="785.236" y1="713.504" x2="769.236" y2="713.504" style="stroke:#000000; stroke-width:3.2; stroke-opacity:1"/>
<line clip-path="url(#clip792)" x1="785.236" y1="708.138" x2="769.236" y2="708.138" style="stroke:#000000; stroke-width:3.2; stroke-opacity:1"/>
<line clip-path="url(#clip792)" x1="826.697" y1="734.949" x2="810.697" y2="734.949" style="stroke:#000000; stroke-width:3.2; stroke-opacity:1"/>
<line clip-path="url(#clip792)" x1="826.697" y1="716" x2="810.697" y2="716" style="stroke:#000000; stroke-width:3.2; stroke-opacity:1"/>
<line clip-path="url(#clip792)" x1="868.158" y1="763.293" x2="852.158" y2="763.293" style="stroke:#000000; stroke-width:3.2; stroke-opacity:1"/>
<line clip-path="url(#clip792)" x1="868.158" y1="682.171" x2="852.158" y2="682.171" style="stroke:#000000; stroke-width:3.2; stroke-opacity:1"/>
<line clip-path="url(#clip792)" x1="909.62" y1="748.145" x2="893.62" y2="748.145" style="stroke:#000000; stroke-width:3.2; stroke-opacity:1"/>
<line clip-path="url(#clip792)" x1="909.62" y1="698.518" x2="893.62" y2="698.518" style="stroke:#000000; stroke-width:3.2; stroke-opacity:1"/>
<line clip-path="url(#clip792)" x1="951.081" y1="754.551" x2="935.081" y2="754.551" style="stroke:#000000; stroke-width:3.2; stroke-opacity:1"/>
<line clip-path="url(#clip792)" x1="951.081" y1="716.319" x2="935.081" y2="716.319" style="stroke:#000000; stroke-width:3.2; stroke-opacity:1"/>
<line clip-path="url(#clip792)" x1="992.542" y1="795.742" x2="976.542" y2="795.742" style="stroke:#000000; stroke-width:3.2; stroke-opacity:1"/>
<line clip-path="url(#clip792)" x1="992.542" y1="694.59" x2="976.542" y2="694.59" style="stroke:#000000; stroke-width:3.2; stroke-opacity:1"/>
<line clip-path="url(#clip792)" x1="1034" y1="735.027" x2="1018" y2="735.027" style="stroke:#000000; stroke-width:3.2; stroke-opacity:1"/>
<line clip-path="url(#clip792)" x1="1034" y1="728.974" x2="1018" y2="728.974" style="stroke:#000000; stroke-width:3.2; stroke-opacity:1"/>
<line clip-path="url(#clip792)" x1="1075.46" y1="792.726" x2="1059.46" y2="792.726" style="stroke:#000000; stroke-width:3.2; stroke-opacity:1"/>
<line clip-path="url(#clip792)" x1="1075.46" y1="686.342" x2="1059.46" y2="686.342" style="stroke:#000000; stroke-width:3.2; stroke-opacity:1"/>
<line clip-path="url(#clip792)" x1="1116.92" y1="771.602" x2="1100.92" y2="771.602" style="stroke:#000000; stroke-width:3.2; stroke-opacity:1"/>
<line clip-path="url(#clip792)" x1="1116.92" y1="708.623" x2="1100.92" y2="708.623" style="stroke:#000000; stroke-width:3.2; stroke-opacity:1"/>
<line clip-path="url(#clip792)" x1="1158.39" y1="761.842" x2="1142.39" y2="761.842" style="stroke:#000000; stroke-width:3.2; stroke-opacity:1"/>
<line clip-path="url(#clip792)" x1="1158.39" y1="702.89" x2="1142.39" y2="702.89" style="stroke:#000000; stroke-width:3.2; stroke-opacity:1"/>
<line clip-path="url(#clip792)" x1="1199.85" y1="781.869" x2="1183.85" y2="781.869" style="stroke:#000000; stroke-width:3.2; stroke-opacity:1"/>
<line clip-path="url(#clip792)" x1="1199.85" y1="641.428" x2="1183.85" y2="641.428" style="stroke:#000000; stroke-width:3.2; stroke-opacity:1"/>
<line clip-path="url(#clip792)" x1="1241.31" y1="789.635" x2="1225.31" y2="789.635" style="stroke:#000000; stroke-width:3.2; stroke-opacity:1"/>
<line clip-path="url(#clip792)" x1="1241.31" y1="713.091" x2="1225.31" y2="713.091" style="stroke:#000000; stroke-width:3.2; stroke-opacity:1"/>
<line clip-path="url(#clip792)" x1="1282.77" y1="728.334" x2="1266.77" y2="728.334" style="stroke:#000000; stroke-width:3.2; stroke-opacity:1"/>
<line clip-path="url(#clip792)" x1="1282.77" y1="725.562" x2="1266.77" y2="725.562" style="stroke:#000000; stroke-width:3.2; stroke-opacity:1"/>
<line clip-path="url(#clip792)" x1="1324.23" y1="861.695" x2="1308.23" y2="861.695" style="stroke:#000000; stroke-width:3.2; stroke-opacity:1"/>
<line clip-path="url(#clip792)" x1="1324.23" y1="733.77" x2="1308.23" y2="733.77" style="stroke:#000000; stroke-width:3.2; stroke-opacity:1"/>
<line clip-path="url(#clip792)" x1="1365.69" y1="770.993" x2="1349.69" y2="770.993" style="stroke:#000000; stroke-width:3.2; stroke-opacity:1"/>
<line clip-path="url(#clip792)" x1="1365.69" y1="693.959" x2="1349.69" y2="693.959" style="stroke:#000000; stroke-width:3.2; stroke-opacity:1"/>
<line clip-path="url(#clip792)" x1="1407.15" y1="742.842" x2="1391.15" y2="742.842" style="stroke:#000000; stroke-width:3.2; stroke-opacity:1"/>
<line clip-path="url(#clip792)" x1="1407.15" y1="712.327" x2="1391.15" y2="712.327" style="stroke:#000000; stroke-width:3.2; stroke-opacity:1"/>
<line clip-path="url(#clip792)" x1="1448.61" y1="761.842" x2="1432.61" y2="761.842" style="stroke:#000000; stroke-width:3.2; stroke-opacity:1"/>
<line clip-path="url(#clip792)" x1="1448.61" y1="731.109" x2="1432.61" y2="731.109" style="stroke:#000000; stroke-width:3.2; stroke-opacity:1"/>
<line clip-path="url(#clip792)" x1="1490.07" y1="887.249" x2="1474.07" y2="887.249" style="stroke:#000000; stroke-width:3.2; stroke-opacity:1"/>
<line clip-path="url(#clip792)" x1="1490.07" y1="860.365" x2="1474.07" y2="860.365" style="stroke:#000000; stroke-width:3.2; stroke-opacity:1"/>
<line clip-path="url(#clip792)" x1="1531.54" y1="764.04" x2="1515.54" y2="764.04" style="stroke:#000000; stroke-width:3.2; stroke-opacity:1"/>
<line clip-path="url(#clip792)" x1="1531.54" y1="733.764" x2="1515.54" y2="733.764" style="stroke:#000000; stroke-width:3.2; stroke-opacity:1"/>
<line clip-path="url(#clip792)" x1="1573" y1="779.611" x2="1557" y2="779.611" style="stroke:#000000; stroke-width:3.2; stroke-opacity:1"/>
<line clip-path="url(#clip792)" x1="1573" y1="718.273" x2="1557" y2="718.273" style="stroke:#000000; stroke-width:3.2; stroke-opacity:1"/>
<line clip-path="url(#clip792)" x1="1614.46" y1="843.56" x2="1598.46" y2="843.56" style="stroke:#000000; stroke-width:3.2; stroke-opacity:1"/>
<line clip-path="url(#clip792)" x1="1614.46" y1="801.095" x2="1598.46" y2="801.095" style="stroke:#000000; stroke-width:3.2; stroke-opacity:1"/>
<line clip-path="url(#clip792)" x1="1655.92" y1="763.705" x2="1639.92" y2="763.705" style="stroke:#000000; stroke-width:3.2; stroke-opacity:1"/>
<line clip-path="url(#clip792)" x1="1655.92" y1="659.129" x2="1639.92" y2="659.129" style="stroke:#000000; stroke-width:3.2; stroke-opacity:1"/>
<line clip-path="url(#clip792)" x1="1697.38" y1="833.802" x2="1681.38" y2="833.802" style="stroke:#000000; stroke-width:3.2; stroke-opacity:1"/>
<line clip-path="url(#clip792)" x1="1697.38" y1="691.226" x2="1681.38" y2="691.226" style="stroke:#000000; stroke-width:3.2; stroke-opacity:1"/>
<line clip-path="url(#clip792)" x1="1738.84" y1="866.968" x2="1722.84" y2="866.968" style="stroke:#000000; stroke-width:3.2; stroke-opacity:1"/>
<line clip-path="url(#clip792)" x1="1738.84" y1="664.847" x2="1722.84" y2="664.847" style="stroke:#000000; stroke-width:3.2; stroke-opacity:1"/>
<line clip-path="url(#clip792)" x1="1780.3" y1="752.669" x2="1764.3" y2="752.669" style="stroke:#000000; stroke-width:3.2; stroke-opacity:1"/>
<line clip-path="url(#clip792)" x1="1780.3" y1="703.718" x2="1764.3" y2="703.718" style="stroke:#000000; stroke-width:3.2; stroke-opacity:1"/>
<line clip-path="url(#clip792)" x1="1821.76" y1="773.515" x2="1805.76" y2="773.515" style="stroke:#000000; stroke-width:3.2; stroke-opacity:1"/>
<line clip-path="url(#clip792)" x1="1821.76" y1="710.781" x2="1805.76" y2="710.781" style="stroke:#000000; stroke-width:3.2; stroke-opacity:1"/>
<line clip-path="url(#clip792)" x1="1863.22" y1="1068.12" x2="1847.22" y2="1068.12" style="stroke:#000000; stroke-width:3.2; stroke-opacity:1"/>
<line clip-path="url(#clip792)" x1="1863.22" y1="989.5" x2="1847.22" y2="989.5" style="stroke:#000000; stroke-width:3.2; stroke-opacity:1"/>
<line clip-path="url(#clip792)" x1="1904.68" y1="786.954" x2="1888.68" y2="786.954" style="stroke:#000000; stroke-width:3.2; stroke-opacity:1"/>
<line clip-path="url(#clip792)" x1="1904.68" y1="737.742" x2="1888.68" y2="737.742" style="stroke:#000000; stroke-width:3.2; stroke-opacity:1"/>
<line clip-path="url(#clip792)" x1="1946.15" y1="798.537" x2="1930.15" y2="798.537" style="stroke:#000000; stroke-width:3.2; stroke-opacity:1"/>
<line clip-path="url(#clip792)" x1="1946.15" y1="772.632" x2="1930.15" y2="772.632" style="stroke:#000000; stroke-width:3.2; stroke-opacity:1"/>
<line clip-path="url(#clip792)" x1="1987.61" y1="815.174" x2="1971.61" y2="815.174" style="stroke:#000000; stroke-width:3.2; stroke-opacity:1"/>
<line clip-path="url(#clip792)" x1="1987.61" y1="665.93" x2="1971.61" y2="665.93" style="stroke:#000000; stroke-width:3.2; stroke-opacity:1"/>
<line clip-path="url(#clip792)" x1="2029.07" y1="800.689" x2="2013.07" y2="800.689" style="stroke:#000000; stroke-width:3.2; stroke-opacity:1"/>
<line clip-path="url(#clip792)" x1="2029.07" y1="754.198" x2="2013.07" y2="754.198" style="stroke:#000000; stroke-width:3.2; stroke-opacity:1"/>
<line clip-path="url(#clip792)" x1="2070.53" y1="760.016" x2="2054.53" y2="760.016" style="stroke:#000000; stroke-width:3.2; stroke-opacity:1"/>
<line clip-path="url(#clip792)" x1="2070.53" y1="723.043" x2="2054.53" y2="723.043" style="stroke:#000000; stroke-width:3.2; stroke-opacity:1"/>
<line clip-path="url(#clip792)" x1="2111.99" y1="913.6" x2="2095.99" y2="913.6" style="stroke:#000000; stroke-width:3.2; stroke-opacity:1"/>
<line clip-path="url(#clip792)" x1="2111.99" y1="770.607" x2="2095.99" y2="770.607" style="stroke:#000000; stroke-width:3.2; stroke-opacity:1"/>
<line clip-path="url(#clip792)" x1="2153.45" y1="785.629" x2="2137.45" y2="785.629" style="stroke:#000000; stroke-width:3.2; stroke-opacity:1"/>
<line clip-path="url(#clip792)" x1="2153.45" y1="736.893" x2="2137.45" y2="736.893" style="stroke:#000000; stroke-width:3.2; stroke-opacity:1"/>
<line clip-path="url(#clip792)" x1="2194.91" y1="893.477" x2="2178.91" y2="893.477" style="stroke:#000000; stroke-width:3.2; stroke-opacity:1"/>
<line clip-path="url(#clip792)" x1="2194.91" y1="761.526" x2="2178.91" y2="761.526" style="stroke:#000000; stroke-width:3.2; stroke-opacity:1"/>
<line clip-path="url(#clip792)" x1="2236.37" y1="825.729" x2="2220.37" y2="825.729" style="stroke:#000000; stroke-width:3.2; stroke-opacity:1"/>
<line clip-path="url(#clip792)" x1="2236.37" y1="746.481" x2="2220.37" y2="746.481" style="stroke:#000000; stroke-width:3.2; stroke-opacity:1"/>
<line clip-path="url(#clip792)" x1="2277.83" y1="822.571" x2="2261.83" y2="822.571" style="stroke:#000000; stroke-width:3.2; stroke-opacity:1"/>
<line clip-path="url(#clip792)" x1="2277.83" y1="760.625" x2="2261.83" y2="760.625" style="stroke:#000000; stroke-width:3.2; stroke-opacity:1"/>
<line clip-path="url(#clip792)" x1="2319.29" y1="781.108" x2="2303.29" y2="781.108" style="stroke:#000000; stroke-width:3.2; stroke-opacity:1"/>
<line clip-path="url(#clip792)" x1="2319.29" y1="765.209" x2="2303.29" y2="765.209" style="stroke:#000000; stroke-width:3.2; stroke-opacity:1"/>
<circle clip-path="url(#clip792)" cx="321.165" cy="396.646" r="7.2" fill="#009af9" fill-rule="evenodd" fill-opacity="1" stroke="#000000" stroke-opacity="1" stroke-width="3.2"/>
<circle clip-path="url(#clip792)" cx="362.626" cy="624.02" r="7.2" fill="#009af9" fill-rule="evenodd" fill-opacity="1" stroke="#000000" stroke-opacity="1" stroke-width="3.2"/>
<circle clip-path="url(#clip792)" cx="404.087" cy="692.946" r="7.2" fill="#009af9" fill-rule="evenodd" fill-opacity="1" stroke="#000000" stroke-opacity="1" stroke-width="3.2"/>
<circle clip-path="url(#clip792)" cx="445.548" cy="716.314" r="7.2" fill="#009af9" fill-rule="evenodd" fill-opacity="1" stroke="#000000" stroke-opacity="1" stroke-width="3.2"/>
<circle clip-path="url(#clip792)" cx="487.009" cy="724.518" r="7.2" fill="#009af9" fill-rule="evenodd" fill-opacity="1" stroke="#000000" stroke-opacity="1" stroke-width="3.2"/>
<circle clip-path="url(#clip792)" cx="528.47" cy="727.388" r="7.2" fill="#009af9" fill-rule="evenodd" fill-opacity="1" stroke="#000000" stroke-opacity="1" stroke-width="3.2"/>
<circle clip-path="url(#clip792)" cx="569.931" cy="728.377" r="7.2" fill="#009af9" fill-rule="evenodd" fill-opacity="1" stroke="#000000" stroke-opacity="1" stroke-width="3.2"/>
<circle clip-path="url(#clip792)" cx="611.392" cy="724.738" r="7.2" fill="#009af9" fill-rule="evenodd" fill-opacity="1" stroke="#000000" stroke-opacity="1" stroke-width="3.2"/>
<circle clip-path="url(#clip792)" cx="652.853" cy="733.814" r="7.2" fill="#009af9" fill-rule="evenodd" fill-opacity="1" stroke="#000000" stroke-opacity="1" stroke-width="3.2"/>
<circle clip-path="url(#clip792)" cx="694.314" cy="724.867" r="7.2" fill="#009af9" fill-rule="evenodd" fill-opacity="1" stroke="#000000" stroke-opacity="1" stroke-width="3.2"/>
<circle clip-path="url(#clip792)" cx="735.775" cy="728.991" r="7.2" fill="#009af9" fill-rule="evenodd" fill-opacity="1" stroke="#000000" stroke-opacity="1" stroke-width="3.2"/>
<circle clip-path="url(#clip792)" cx="777.236" cy="710.821" r="7.2" fill="#009af9" fill-rule="evenodd" fill-opacity="1" stroke="#000000" stroke-opacity="1" stroke-width="3.2"/>
<circle clip-path="url(#clip792)" cx="818.697" cy="725.474" r="7.2" fill="#009af9" fill-rule="evenodd" fill-opacity="1" stroke="#000000" stroke-opacity="1" stroke-width="3.2"/>
<circle clip-path="url(#clip792)" cx="860.158" cy="722.732" r="7.2" fill="#009af9" fill-rule="evenodd" fill-opacity="1" stroke="#000000" stroke-opacity="1" stroke-width="3.2"/>
<circle clip-path="url(#clip792)" cx="901.62" cy="723.332" r="7.2" fill="#009af9" fill-rule="evenodd" fill-opacity="1" stroke="#000000" stroke-opacity="1" stroke-width="3.2"/>
<circle clip-path="url(#clip792)" cx="943.081" cy="735.435" r="7.2" fill="#009af9" fill-rule="evenodd" fill-opacity="1" stroke="#000000" stroke-opacity="1" stroke-width="3.2"/>
<circle clip-path="url(#clip792)" cx="984.542" cy="745.166" r="7.2" fill="#009af9" fill-rule="evenodd" fill-opacity="1" stroke="#000000" stroke-opacity="1" stroke-width="3.2"/>
<circle clip-path="url(#clip792)" cx="1026" cy="732" r="7.2" fill="#009af9" fill-rule="evenodd" fill-opacity="1" stroke="#000000" stroke-opacity="1" stroke-width="3.2"/>
<circle clip-path="url(#clip792)" cx="1067.46" cy="739.534" r="7.2" fill="#009af9" fill-rule="evenodd" fill-opacity="1" stroke="#000000" stroke-opacity="1" stroke-width="3.2"/>
<circle clip-path="url(#clip792)" cx="1108.92" cy="740.113" r="7.2" fill="#009af9" fill-rule="evenodd" fill-opacity="1" stroke="#000000" stroke-opacity="1" stroke-width="3.2"/>
<circle clip-path="url(#clip792)" cx="1150.39" cy="732.366" r="7.2" fill="#009af9" fill-rule="evenodd" fill-opacity="1" stroke="#000000" stroke-opacity="1" stroke-width="3.2"/>
<circle clip-path="url(#clip792)" cx="1191.85" cy="711.648" r="7.2" fill="#009af9" fill-rule="evenodd" fill-opacity="1" stroke="#000000" stroke-opacity="1" stroke-width="3.2"/>
<circle clip-path="url(#clip792)" cx="1233.31" cy="751.363" r="7.2" fill="#009af9" fill-rule="evenodd" fill-opacity="1" stroke="#000000" stroke-opacity="1" stroke-width="3.2"/>
<circle clip-path="url(#clip792)" cx="1274.77" cy="726.948" r="7.2" fill="#009af9" fill-rule="evenodd" fill-opacity="1" stroke="#000000" stroke-opacity="1" stroke-width="3.2"/>
<circle clip-path="url(#clip792)" cx="1316.23" cy="797.733" r="7.2" fill="#009af9" fill-rule="evenodd" fill-opacity="1" stroke="#000000" stroke-opacity="1" stroke-width="3.2"/>
<circle clip-path="url(#clip792)" cx="1357.69" cy="732.476" r="7.2" fill="#009af9" fill-rule="evenodd" fill-opacity="1" stroke="#000000" stroke-opacity="1" stroke-width="3.2"/>
<circle clip-path="url(#clip792)" cx="1399.15" cy="727.585" r="7.2" fill="#009af9" fill-rule="evenodd" fill-opacity="1" stroke="#000000" stroke-opacity="1" stroke-width="3.2"/>
<circle clip-path="url(#clip792)" cx="1440.61" cy="746.476" r="7.2" fill="#009af9" fill-rule="evenodd" fill-opacity="1" stroke="#000000" stroke-opacity="1" stroke-width="3.2"/>
<circle clip-path="url(#clip792)" cx="1482.07" cy="873.807" r="7.2" fill="#009af9" fill-rule="evenodd" fill-opacity="1" stroke="#000000" stroke-opacity="1" stroke-width="3.2"/>
<circle clip-path="url(#clip792)" cx="1523.54" cy="748.902" r="7.2" fill="#009af9" fill-rule="evenodd" fill-opacity="1" stroke="#000000" stroke-opacity="1" stroke-width="3.2"/>
<circle clip-path="url(#clip792)" cx="1565" cy="748.942" r="7.2" fill="#009af9" fill-rule="evenodd" fill-opacity="1" stroke="#000000" stroke-opacity="1" stroke-width="3.2"/>
<circle clip-path="url(#clip792)" cx="1606.46" cy="822.328" r="7.2" fill="#009af9" fill-rule="evenodd" fill-opacity="1" stroke="#000000" stroke-opacity="1" stroke-width="3.2"/>
<circle clip-path="url(#clip792)" cx="1647.92" cy="711.417" r="7.2" fill="#009af9" fill-rule="evenodd" fill-opacity="1" stroke="#000000" stroke-opacity="1" stroke-width="3.2"/>
<circle clip-path="url(#clip792)" cx="1689.38" cy="762.514" r="7.2" fill="#009af9" fill-rule="evenodd" fill-opacity="1" stroke="#000000" stroke-opacity="1" stroke-width="3.2"/>
<circle clip-path="url(#clip792)" cx="1730.84" cy="765.907" r="7.2" fill="#009af9" fill-rule="evenodd" fill-opacity="1" stroke="#000000" stroke-opacity="1" stroke-width="3.2"/>
<circle clip-path="url(#clip792)" cx="1772.3" cy="728.193" r="7.2" fill="#009af9" fill-rule="evenodd" fill-opacity="1" stroke="#000000" stroke-opacity="1" stroke-width="3.2"/>
<circle clip-path="url(#clip792)" cx="1813.76" cy="742.148" r="7.2" fill="#009af9" fill-rule="evenodd" fill-opacity="1" stroke="#000000" stroke-opacity="1" stroke-width="3.2"/>
<circle clip-path="url(#clip792)" cx="1855.22" cy="1028.81" r="7.2" fill="#009af9" fill-rule="evenodd" fill-opacity="1" stroke="#000000" stroke-opacity="1" stroke-width="3.2"/>
<circle clip-path="url(#clip792)" cx="1896.68" cy="762.348" r="7.2" fill="#009af9" fill-rule="evenodd" fill-opacity="1" stroke="#000000" stroke-opacity="1" stroke-width="3.2"/>
<circle clip-path="url(#clip792)" cx="1938.15" cy="785.585" r="7.2" fill="#009af9" fill-rule="evenodd" fill-opacity="1" stroke="#000000" stroke-opacity="1" stroke-width="3.2"/>
<circle clip-path="url(#clip792)" cx="1979.61" cy="740.552" r="7.2" fill="#009af9" fill-rule="evenodd" fill-opacity="1" stroke="#000000" stroke-opacity="1" stroke-width="3.2"/>
<circle clip-path="url(#clip792)" cx="2021.07" cy="777.443" r="7.2" fill="#009af9" fill-rule="evenodd" fill-opacity="1" stroke="#000000" stroke-opacity="1" stroke-width="3.2"/>
<circle clip-path="url(#clip792)" cx="2062.53" cy="741.529" r="7.2" fill="#009af9" fill-rule="evenodd" fill-opacity="1" stroke="#000000" stroke-opacity="1" stroke-width="3.2"/>
<circle clip-path="url(#clip792)" cx="2103.99" cy="842.103" r="7.2" fill="#009af9" fill-rule="evenodd" fill-opacity="1" stroke="#000000" stroke-opacity="1" stroke-width="3.2"/>
<circle clip-path="url(#clip792)" cx="2145.45" cy="761.261" r="7.2" fill="#009af9" fill-rule="evenodd" fill-opacity="1" stroke="#000000" stroke-opacity="1" stroke-width="3.2"/>
<circle clip-path="url(#clip792)" cx="2186.91" cy="827.502" r="7.2" fill="#009af9" fill-rule="evenodd" fill-opacity="1" stroke="#000000" stroke-opacity="1" stroke-width="3.2"/>
<circle clip-path="url(#clip792)" cx="2228.37" cy="786.105" r="7.2" fill="#009af9" fill-rule="evenodd" fill-opacity="1" stroke="#000000" stroke-opacity="1" stroke-width="3.2"/>
<circle clip-path="url(#clip792)" cx="2269.83" cy="791.598" r="7.2" fill="#009af9" fill-rule="evenodd" fill-opacity="1" stroke="#000000" stroke-opacity="1" stroke-width="3.2"/>
<circle clip-path="url(#clip792)" cx="2311.29" cy="773.159" r="7.2" fill="#009af9" fill-rule="evenodd" fill-opacity="1" stroke="#000000" stroke-opacity="1" stroke-width="3.2"/>
<path clip-path="url(#clip790)" d="
M1718.57 270.476 L2283.65 270.476 L2283.65 166.796 L1718.57 166.796  Z
  " fill="#ffffff" fill-rule="evenodd" fill-opacity="1"/>
<polyline clip-path="url(#clip790)" style="stroke:#000000; stroke-linecap:round; stroke-linejoin:round; stroke-width:4; stroke-opacity:1; fill:none" points="
  1718.57,270.476 2283.65,270.476 2283.65,166.796 1718.57,166.796 1718.57,270.476 
  "/>
<circle clip-path="url(#clip790)" cx="1810.71" cy="218.636" r="23.04" fill="#009af9" fill-rule="evenodd" fill-opacity="1" stroke="#000000" stroke-opacity="1" stroke-width="10.24"/>
<path clip-path="url(#clip790)" d="M1923.19 214.967 Q1924.79 212.096 1927.01 210.731 Q1929.23 209.365 1932.24 209.365 Q1936.29 209.365 1938.49 212.212 Q1940.69 215.036 1940.69 220.268 L1940.69 235.916 L1936.41 235.916 L1936.41 220.407 Q1936.41 216.68 1935.09 214.874 Q1933.77 213.069 1931.06 213.069 Q1927.75 213.069 1925.83 215.268 Q1923.91 217.467 1923.91 221.263 L1923.91 235.916 L1919.63 235.916 L1919.63 220.407 Q1919.63 216.657 1918.31 214.874 Q1916.99 213.069 1914.23 213.069 Q1910.97 213.069 1909.05 215.291 Q1907.13 217.49 1907.13 221.263 L1907.13 235.916 L1902.84 235.916 L1902.84 209.99 L1907.13 209.99 L1907.13 214.018 Q1908.59 211.633 1910.62 210.499 Q1912.66 209.365 1915.46 209.365 Q1918.28 209.365 1920.25 210.8 Q1922.24 212.235 1923.19 214.967 Z" fill="#000000" fill-rule="evenodd" fill-opacity="1" /><path clip-path="url(#clip790)" d="M1957.91 220.245 Q1956.76 218.254 1954.42 218.254 Q1952.08 218.254 1950.92 220.245 Q1949.74 222.235 1949.74 226.217 Q1949.74 230.221 1950.92 232.212 Q1952.08 234.203 1954.42 234.203 Q1956.76 234.203 1957.91 232.212 Q1959.09 230.221 1959.09 226.217 Q1959.09 222.235 1957.91 220.245 M1954.42 216.194 Q1958.15 216.194 1960.11 218.763 Q1962.08 221.332 1962.08 226.217 Q1962.08 231.124 1960.11 233.694 Q1958.15 236.263 1954.42 236.263 Q1950.67 236.263 1948.7 233.694 Q1946.73 231.124 1946.73 226.217 Q1946.73 221.332 1948.7 218.763 Q1950.67 216.194 1954.42 216.194 Z" fill="#000000" fill-rule="evenodd" fill-opacity="1" /><path clip-path="url(#clip790)" d="M1968.75 214.388 L1998.42 214.388 L1998.42 218.277 L1968.75 218.277 L1968.75 214.388 M1968.75 223.832 L1998.42 223.832 L1998.42 227.768 L1968.75 227.768 L1968.75 223.832 Z" fill="#000000" fill-rule="evenodd" fill-opacity="1" /><path clip-path="url(#clip790)" d="M2018.52 204.434 Q2014.9 204.434 2013.08 207.999 Q2011.27 211.541 2011.27 218.67 Q2011.27 225.777 2013.08 229.342 Q2014.9 232.883 2018.52 232.883 Q2022.15 232.883 2023.95 229.342 Q2025.78 225.777 2025.78 218.67 Q2025.78 211.541 2023.95 207.999 Q2022.15 204.434 2018.52 204.434 M2018.52 200.731 Q2024.33 200.731 2027.38 205.337 Q2030.46 209.92 2030.46 218.67 Q2030.46 227.397 2027.38 232.004 Q2024.33 236.587 2018.52 236.587 Q2012.7 236.587 2009.63 232.004 Q2006.57 227.397 2006.57 218.67 Q2006.57 209.92 2009.63 205.337 Q2012.7 200.731 2018.52 200.731 Z" fill="#000000" fill-rule="evenodd" fill-opacity="1" /><path clip-path="url(#clip790)" d="M2038.68 230.036 L2043.56 230.036 L2043.56 235.916 L2038.68 235.916 L2038.68 230.036 Z" fill="#000000" fill-rule="evenodd" fill-opacity="1" /><path clip-path="url(#clip790)" d="M2067.91 217.282 Q2071.27 217.999 2073.14 220.268 Q2075.04 222.536 2075.04 225.869 Q2075.04 230.985 2071.52 233.786 Q2068.01 236.587 2061.52 236.587 Q2059.35 236.587 2057.03 236.147 Q2054.74 235.731 2052.29 234.874 L2052.29 230.36 Q2054.23 231.494 2056.55 232.073 Q2058.86 232.652 2061.39 232.652 Q2065.78 232.652 2068.07 230.916 Q2070.39 229.18 2070.39 225.869 Q2070.39 222.814 2068.24 221.101 Q2066.11 219.365 2062.29 219.365 L2058.26 219.365 L2058.26 215.522 L2062.47 215.522 Q2065.92 215.522 2067.75 214.157 Q2069.58 212.768 2069.58 210.175 Q2069.58 207.513 2067.68 206.101 Q2065.81 204.666 2062.29 204.666 Q2060.37 204.666 2058.17 205.083 Q2055.97 205.499 2053.33 206.379 L2053.33 202.212 Q2055.99 201.471 2058.31 201.101 Q2060.64 200.731 2062.7 200.731 Q2068.03 200.731 2071.13 203.161 Q2074.23 205.569 2074.23 209.689 Q2074.23 212.559 2072.59 214.55 Q2070.95 216.518 2067.91 217.282 Z" fill="#000000" fill-rule="evenodd" fill-opacity="1" /><path clip-path="url(#clip790)" d="M2084.39 230.036 L2089.28 230.036 L2089.28 234.018 L2085.48 241.425 L2082.5 241.425 L2084.39 234.018 L2084.39 230.036 Z" fill="#000000" fill-rule="evenodd" fill-opacity="1" /><path clip-path="url(#clip790)" d="M2122.13 230.985 L2122.13 221.703 L2114.49 221.703 L2114.49 217.86 L2126.76 217.86 L2126.76 232.698 Q2124.05 234.619 2120.78 235.615 Q2117.52 236.587 2113.82 236.587 Q2105.71 236.587 2101.13 231.865 Q2096.57 227.119 2096.57 218.67 Q2096.57 210.198 2101.13 205.476 Q2105.71 200.731 2113.82 200.731 Q2117.2 200.731 2120.23 201.564 Q2123.28 202.397 2125.85 204.018 L2125.85 208.995 Q2123.26 206.796 2120.34 205.684 Q2117.43 204.573 2114.21 204.573 Q2107.87 204.573 2104.67 208.115 Q2101.5 211.657 2101.5 218.67 Q2101.5 225.661 2104.67 229.203 Q2107.87 232.744 2114.21 232.744 Q2116.69 232.744 2118.63 232.328 Q2120.57 231.888 2122.13 230.985 Z" fill="#000000" fill-rule="evenodd" fill-opacity="1" /><path clip-path="url(#clip790)" d="M2136.85 217.814 L2146.66 217.814 L2146.66 220.453 L2132.82 220.453 L2132.82 217.907 Q2133.61 217.189 2135.07 215.893 Q2143.03 208.833 2143.03 206.657 Q2143.03 205.129 2141.82 204.203 Q2140.62 203.254 2138.65 203.254 Q2137.45 203.254 2136.04 203.671 Q2134.63 204.064 2132.96 204.874 L2132.96 202.027 Q2134.74 201.379 2136.27 201.055 Q2137.82 200.731 2139.14 200.731 Q2142.5 200.731 2144.51 202.258 Q2146.52 203.786 2146.52 206.286 Q2146.52 209.504 2138.86 216.078 Q2137.57 217.189 2136.85 217.814 Z" fill="#000000" fill-rule="evenodd" fill-opacity="1" /><path clip-path="url(#clip790)" d="M2154.67 214.388 L2184.35 214.388 L2184.35 218.277 L2154.67 218.277 L2154.67 214.388 M2154.67 223.832 L2184.35 223.832 L2184.35 227.768 L2154.67 227.768 L2154.67 223.832 Z" fill="#000000" fill-rule="evenodd" fill-opacity="1" /><path clip-path="url(#clip790)" d="M2204.44 204.434 Q2200.83 204.434 2199 207.999 Q2197.19 211.541 2197.19 218.67 Q2197.19 225.777 2199 229.342 Q2200.83 232.883 2204.44 232.883 Q2208.07 232.883 2209.88 229.342 Q2211.71 225.777 2211.71 218.67 Q2211.71 211.541 2209.88 207.999 Q2208.07 204.434 2204.44 204.434 M2204.44 200.731 Q2210.25 200.731 2213.31 205.337 Q2216.38 209.92 2216.38 218.67 Q2216.38 227.397 2213.31 232.004 Q2210.25 236.587 2204.44 236.587 Q2198.63 236.587 2195.55 232.004 Q2192.5 227.397 2192.5 218.67 Q2192.5 209.92 2195.55 205.337 Q2198.63 200.731 2204.44 200.731 Z" fill="#000000" fill-rule="evenodd" fill-opacity="1" /><path clip-path="url(#clip790)" d="M2224.6 230.036 L2229.49 230.036 L2229.49 235.916 L2224.6 235.916 L2224.6 230.036 Z" fill="#000000" fill-rule="evenodd" fill-opacity="1" /><path clip-path="url(#clip790)" d="M2239.72 201.356 L2258.07 201.356 L2258.07 205.291 L2244 205.291 L2244 213.763 Q2245.02 213.416 2246.04 213.254 Q2247.06 213.069 2248.07 213.069 Q2253.86 213.069 2257.24 216.24 Q2260.62 219.411 2260.62 224.828 Q2260.62 230.406 2257.15 233.508 Q2253.68 236.587 2247.36 236.587 Q2245.18 236.587 2242.91 236.217 Q2240.67 235.846 2238.26 235.106 L2238.26 230.406 Q2240.34 231.541 2242.56 232.096 Q2244.79 232.652 2247.26 232.652 Q2251.27 232.652 2253.61 230.545 Q2255.94 228.439 2255.94 224.828 Q2255.94 221.217 2253.61 219.11 Q2251.27 217.004 2247.26 217.004 Q2245.39 217.004 2243.51 217.42 Q2241.66 217.837 2239.72 218.717 L2239.72 201.356 Z" fill="#000000" fill-rule="evenodd" fill-opacity="1" /></svg>
