<?xml version="1.0" encoding="utf-8"?>
<svg xmlns="http://www.w3.org/2000/svg" xmlns:xlink="http://www.w3.org/1999/xlink" width="600" height="400" viewBox="0 0 2400 1600">
<defs>
  <clipPath id="clip690">
    <rect x="0" y="0" width="2400" height="1600"/>
  </clipPath>
</defs>
<path clip-path="url(#clip690)" d="
M0 1600 L2400 1600 L2400 0 L0 0  Z
  " fill="#ffffff" fill-rule="evenodd" fill-opacity="1"/>
<defs>
  <clipPath id="clip691">
    <rect x="480" y="0" width="1681" height="1600"/>
  </clipPath>
</defs>
<path clip-path="url(#clip690)" d="
M250.028 1423.18 L2352.76 1423.18 L2352.76 123.472 L250.028 123.472  Z
  " fill="#ffffff" fill-rule="evenodd" fill-opacity="1"/>
<defs>
  <clipPath id="clip692">
    <rect x="250" y="123" width="2104" height="1301"/>
  </clipPath>
</defs>
<polyline clip-path="url(#clip692)" style="stroke:#000000; stroke-linecap:round; stroke-linejoin:round; stroke-width:2; stroke-opacity:0.1; fill:none" points="
  250.028,1423.18 250.028,123.472 
  "/>
<polyline clip-path="url(#clip692)" style="stroke:#000000; stroke-linecap:round; stroke-linejoin:round; stroke-width:2; stroke-opacity:0.1; fill:none" points="
  460.301,1423.18 460.301,123.472 
  "/>
<polyline clip-path="url(#clip692)" style="stroke:#000000; stroke-linecap:round; stroke-linejoin:round; stroke-width:2; stroke-opacity:0.1; fill:none" points="
  670.574,1423.18 670.574,123.472 
  "/>
<polyline clip-path="url(#clip692)" style="stroke:#000000; stroke-linecap:round; stroke-linejoin:round; stroke-width:2; stroke-opacity:0.1; fill:none" points="
  880.846,1423.18 880.846,123.472 
  "/>
<polyline clip-path="url(#clip692)" style="stroke:#000000; stroke-linecap:round; stroke-linejoin:round; stroke-width:2; stroke-opacity:0.1; fill:none" points="
  1091.12,1423.18 1091.12,123.472 
  "/>
<polyline clip-path="url(#clip692)" style="stroke:#000000; stroke-linecap:round; stroke-linejoin:round; stroke-width:2; stroke-opacity:0.1; fill:none" points="
  1301.39,1423.18 1301.39,123.472 
  "/>
<polyline clip-path="url(#clip692)" style="stroke:#000000; stroke-linecap:round; stroke-linejoin:round; stroke-width:2; stroke-opacity:0.1; fill:none" points="
  1511.66,1423.18 1511.66,123.472 
  "/>
<polyline clip-path="url(#clip692)" style="stroke:#000000; stroke-linecap:round; stroke-linejoin:round; stroke-width:2; stroke-opacity:0.1; fill:none" points="
  1721.94,1423.18 1721.94,123.472 
  "/>
<polyline clip-path="url(#clip692)" style="stroke:#000000; stroke-linecap:round; stroke-linejoin:round; stroke-width:2; stroke-opacity:0.1; fill:none" points="
  1932.21,1423.18 1932.21,123.472 
  "/>
<polyline clip-path="url(#clip692)" style="stroke:#000000; stroke-linecap:round; stroke-linejoin:round; stroke-width:2; stroke-opacity:0.1; fill:none" points="
  2142.48,1423.18 2142.48,123.472 
  "/>
<polyline clip-path="url(#clip692)" style="stroke:#000000; stroke-linecap:round; stroke-linejoin:round; stroke-width:2; stroke-opacity:0.1; fill:none" points="
  2352.76,1423.18 2352.76,123.472 
  "/>
<polyline clip-path="url(#clip690)" style="stroke:#000000; stroke-linecap:round; stroke-linejoin:round; stroke-width:4; stroke-opacity:1; fill:none" points="
  250.028,1423.18 2352.76,1423.18 
  "/>
<polyline clip-path="url(#clip690)" style="stroke:#000000; stroke-linecap:round; stroke-linejoin:round; stroke-width:4; stroke-opacity:1; fill:none" points="
  250.028,1423.18 250.028,1404.28 
  "/>
<polyline clip-path="url(#clip690)" style="stroke:#000000; stroke-linecap:round; stroke-linejoin:round; stroke-width:4; stroke-opacity:1; fill:none" points="
  460.301,1423.18 460.301,1404.28 
  "/>
<polyline clip-path="url(#clip690)" style="stroke:#000000; stroke-linecap:round; stroke-linejoin:round; stroke-width:4; stroke-opacity:1; fill:none" points="
  670.574,1423.18 670.574,1404.28 
  "/>
<polyline clip-path="url(#clip690)" style="stroke:#000000; stroke-linecap:round; stroke-linejoin:round; stroke-width:4; stroke-opacity:1; fill:none" points="
  880.846,1423.18 880.846,1404.28 
  "/>
<polyline clip-path="url(#clip690)" style="stroke:#000000; stroke-linecap:round; stroke-linejoin:round; stroke-width:4; stroke-opacity:1; fill:none" points="
  1091.12,1423.18 1091.12,1404.28 
  "/>
<polyline clip-path="url(#clip690)" style="stroke:#000000; stroke-linecap:round; stroke-linejoin:round; stroke-width:4; stroke-opacity:1; fill:none" points="
  1301.39,1423.18 1301.39,1404.28 
  "/>
<polyline clip-path="url(#clip690)" style="stroke:#000000; stroke-linecap:round; stroke-linejoin:round; stroke-width:4; stroke-opacity:1; fill:none" points="
  1511.66,1423.18 1511.66,1404.28 
  "/>
<polyline clip-path="url(#clip690)" style="stroke:#000000; stroke-linecap:round; stroke-linejoin:round; stroke-width:4; stroke-opacity:1; fill:none" points="
  1721.94,1423.18 1721.94,1404.28 
  "/>
<polyline clip-path="url(#clip690)" style="stroke:#000000; stroke-linecap:round; stroke-linejoin:round; stroke-width:4; stroke-opacity:1; fill:none" points="
  1932.21,1423.18 1932.21,1404.28 
  "/>
<polyline clip-path="url(#clip690)" style="stroke:#000000; stroke-linecap:round; stroke-linejoin:round; stroke-width:4; stroke-opacity:1; fill:none" points="
  2142.48,1423.18 2142.48,1404.28 
  "/>
<polyline clip-path="url(#clip690)" style="stroke:#000000; stroke-linecap:round; stroke-linejoin:round; stroke-width:4; stroke-opacity:1; fill:none" points="
  2352.76,1423.18 2352.76,1404.28 
  "/>
<path clip-path="url(#clip690)" d="M250.028 1454.1 Q246.417 1454.1 244.588 1457.66 Q242.783 1461.2 242.783 1468.33 Q242.783 1475.44 244.588 1479.01 Q246.417 1482.55 250.028 1482.55 Q253.662 1482.55 255.468 1479.01 Q257.297 1475.44 257.297 1468.33 Q257.297 1461.2 255.468 1457.66 Q253.662 1454.1 250.028 1454.1 M250.028 1450.39 Q255.838 1450.39 258.894 1455 Q261.973 1459.58 261.973 1468.33 Q261.973 1477.06 258.894 1481.67 Q255.838 1486.25 250.028 1486.25 Q244.218 1486.25 241.139 1481.67 Q238.084 1477.06 238.084 1468.33 Q238.084 1459.58 241.139 1455 Q244.218 1450.39 250.028 1450.39 Z" fill="#000000" fill-rule="evenodd" fill-opacity="1" /><path clip-path="url(#clip690)" d="M450.579 1451.02 L468.935 1451.02 L468.935 1454.96 L454.861 1454.96 L454.861 1463.43 Q455.88 1463.08 456.898 1462.92 Q457.917 1462.73 458.935 1462.73 Q464.722 1462.73 468.102 1465.9 Q471.481 1469.08 471.481 1474.49 Q471.481 1480.07 468.009 1483.17 Q464.537 1486.25 458.218 1486.25 Q456.042 1486.25 453.773 1485.88 Q451.528 1485.51 449.12 1484.77 L449.12 1480.07 Q451.204 1481.2 453.426 1481.76 Q455.648 1482.32 458.125 1482.32 Q462.13 1482.32 464.468 1480.21 Q466.806 1478.1 466.806 1474.49 Q466.806 1470.88 464.468 1468.77 Q462.13 1466.67 458.125 1466.67 Q456.25 1466.67 454.375 1467.08 Q452.523 1467.5 450.579 1468.38 L450.579 1451.02 Z" fill="#000000" fill-rule="evenodd" fill-opacity="1" /><path clip-path="url(#clip690)" d="M645.261 1481.64 L652.9 1481.64 L652.9 1455.28 L644.59 1456.95 L644.59 1452.69 L652.854 1451.02 L657.53 1451.02 L657.53 1481.64 L665.169 1481.64 L665.169 1485.58 L645.261 1485.58 L645.261 1481.64 Z" fill="#000000" fill-rule="evenodd" fill-opacity="1" /><path clip-path="url(#clip690)" d="M684.613 1454.1 Q681.002 1454.1 679.173 1457.66 Q677.368 1461.2 677.368 1468.33 Q677.368 1475.44 679.173 1479.01 Q681.002 1482.55 684.613 1482.55 Q688.247 1482.55 690.053 1479.01 Q691.881 1475.44 691.881 1468.33 Q691.881 1461.2 690.053 1457.66 Q688.247 1454.1 684.613 1454.1 M684.613 1450.39 Q690.423 1450.39 693.479 1455 Q696.557 1459.58 696.557 1468.33 Q696.557 1477.06 693.479 1481.67 Q690.423 1486.25 684.613 1486.25 Q678.803 1486.25 675.724 1481.67 Q672.669 1477.06 672.669 1468.33 Q672.669 1459.58 675.724 1455 Q678.803 1450.39 684.613 1450.39 Z" fill="#000000" fill-rule="evenodd" fill-opacity="1" /><path clip-path="url(#clip690)" d="M856.032 1481.64 L863.671 1481.64 L863.671 1455.28 L855.36 1456.95 L855.36 1452.69 L863.624 1451.02 L868.3 1451.02 L868.3 1481.64 L875.939 1481.64 L875.939 1485.58 L856.032 1485.58 L856.032 1481.64 Z" fill="#000000" fill-rule="evenodd" fill-opacity="1" /><path clip-path="url(#clip690)" d="M885.43 1451.02 L903.786 1451.02 L903.786 1454.96 L889.712 1454.96 L889.712 1463.43 Q890.731 1463.08 891.749 1462.92 Q892.768 1462.73 893.786 1462.73 Q899.573 1462.73 902.953 1465.9 Q906.332 1469.08 906.332 1474.49 Q906.332 1480.07 902.86 1483.17 Q899.388 1486.25 893.069 1486.25 Q890.893 1486.25 888.624 1485.88 Q886.379 1485.51 883.971 1484.77 L883.971 1480.07 Q886.055 1481.2 888.277 1481.76 Q890.499 1482.32 892.976 1482.32 Q896.981 1482.32 899.319 1480.21 Q901.657 1478.1 901.657 1474.49 Q901.657 1470.88 899.319 1468.77 Q896.981 1466.67 892.976 1466.67 Q891.101 1466.67 889.226 1467.08 Q887.374 1467.5 885.43 1468.38 L885.43 1451.02 Z" fill="#000000" fill-rule="evenodd" fill-opacity="1" /><path clip-path="url(#clip690)" d="M1069.89 1481.64 L1086.21 1481.64 L1086.21 1485.58 L1064.27 1485.58 L1064.27 1481.64 Q1066.93 1478.89 1071.51 1474.26 Q1076.12 1469.61 1077.3 1468.27 Q1079.55 1465.74 1080.42 1464.01 Q1081.33 1462.25 1081.33 1460.56 Q1081.33 1457.8 1079.38 1456.07 Q1077.46 1454.33 1074.36 1454.33 Q1072.16 1454.33 1069.71 1455.09 Q1067.28 1455.86 1064.5 1457.41 L1064.5 1452.69 Q1067.32 1451.55 1069.78 1450.97 Q1072.23 1450.39 1074.27 1450.39 Q1079.64 1450.39 1082.83 1453.08 Q1086.03 1455.77 1086.03 1460.26 Q1086.03 1462.39 1085.22 1464.31 Q1084.43 1466.2 1082.32 1468.8 Q1081.74 1469.47 1078.64 1472.69 Q1075.54 1475.88 1069.89 1481.64 Z" fill="#000000" fill-rule="evenodd" fill-opacity="1" /><path clip-path="url(#clip690)" d="M1106.03 1454.1 Q1102.42 1454.1 1100.59 1457.66 Q1098.78 1461.2 1098.78 1468.33 Q1098.78 1475.44 1100.59 1479.01 Q1102.42 1482.55 1106.03 1482.55 Q1109.66 1482.55 1111.47 1479.01 Q1113.3 1475.44 1113.3 1468.33 Q1113.3 1461.2 1111.47 1457.66 Q1109.66 1454.1 1106.03 1454.1 M1106.03 1450.39 Q1111.84 1450.39 1114.89 1455 Q1117.97 1459.58 1117.97 1468.33 Q1117.97 1477.06 1114.89 1481.67 Q1111.84 1486.25 1106.03 1486.25 Q1100.22 1486.25 1097.14 1481.67 Q1094.08 1477.06 1094.08 1468.33 Q1094.08 1459.58 1097.14 1455 Q1100.22 1450.39 1106.03 1450.39 Z" fill="#000000" fill-rule="evenodd" fill-opacity="1" /><path clip-path="url(#clip690)" d="M1280.66 1481.64 L1296.98 1481.64 L1296.98 1485.58 L1275.04 1485.58 L1275.04 1481.64 Q1277.7 1478.89 1282.28 1474.26 Q1286.89 1469.61 1288.07 1468.27 Q1290.32 1465.74 1291.2 1464.01 Q1292.1 1462.25 1292.1 1460.56 Q1292.1 1457.8 1290.15 1456.07 Q1288.23 1454.33 1285.13 1454.33 Q1282.93 1454.33 1280.48 1455.09 Q1278.05 1455.86 1275.27 1457.41 L1275.27 1452.69 Q1278.09 1451.55 1280.55 1450.97 Q1283 1450.39 1285.04 1450.39 Q1290.41 1450.39 1293.6 1453.08 Q1296.8 1455.77 1296.8 1460.26 Q1296.8 1462.39 1295.99 1464.31 Q1295.2 1466.2 1293.09 1468.8 Q1292.51 1469.47 1289.41 1472.69 Q1286.31 1475.88 1280.66 1481.64 Z" fill="#000000" fill-rule="evenodd" fill-opacity="1" /><path clip-path="url(#clip690)" d="M1306.84 1451.02 L1325.2 1451.02 L1325.2 1454.96 L1311.13 1454.96 L1311.13 1463.43 Q1312.14 1463.08 1313.16 1462.92 Q1314.18 1462.73 1315.2 1462.73 Q1320.99 1462.73 1324.37 1465.9 Q1327.75 1469.08 1327.75 1474.49 Q1327.75 1480.07 1324.27 1483.17 Q1320.8 1486.25 1314.48 1486.25 Q1312.31 1486.25 1310.04 1485.88 Q1307.79 1485.51 1305.39 1484.77 L1305.39 1480.07 Q1307.47 1481.2 1309.69 1481.76 Q1311.91 1482.32 1314.39 1482.32 Q1318.39 1482.32 1320.73 1480.21 Q1323.07 1478.1 1323.07 1474.49 Q1323.07 1470.88 1320.73 1468.77 Q1318.39 1466.67 1314.39 1466.67 Q1312.51 1466.67 1310.64 1467.08 Q1308.79 1467.5 1306.84 1468.38 L1306.84 1451.02 Z" fill="#000000" fill-rule="evenodd" fill-opacity="1" /><path clip-path="url(#clip690)" d="M1500.51 1466.95 Q1503.86 1467.66 1505.74 1469.93 Q1507.64 1472.2 1507.64 1475.53 Q1507.64 1480.65 1504.12 1483.45 Q1500.6 1486.25 1494.12 1486.25 Q1491.94 1486.25 1489.63 1485.81 Q1487.34 1485.39 1484.88 1484.54 L1484.88 1480.02 Q1486.83 1481.16 1489.14 1481.74 Q1491.46 1482.32 1493.98 1482.32 Q1498.38 1482.32 1500.67 1480.58 Q1502.98 1478.84 1502.98 1475.53 Q1502.98 1472.48 1500.83 1470.77 Q1498.7 1469.03 1494.88 1469.03 L1490.85 1469.03 L1490.85 1465.19 L1495.07 1465.19 Q1498.52 1465.19 1500.35 1463.82 Q1502.17 1462.43 1502.17 1459.84 Q1502.17 1457.18 1500.28 1455.77 Q1498.4 1454.33 1494.88 1454.33 Q1492.96 1454.33 1490.76 1454.75 Q1488.56 1455.16 1485.92 1456.04 L1485.92 1451.88 Q1488.59 1451.14 1490.9 1450.77 Q1493.24 1450.39 1495.3 1450.39 Q1500.62 1450.39 1503.73 1452.83 Q1506.83 1455.23 1506.83 1459.35 Q1506.83 1462.22 1505.18 1464.21 Q1503.54 1466.18 1500.51 1466.95 Z" fill="#000000" fill-rule="evenodd" fill-opacity="1" /><path clip-path="url(#clip690)" d="M1526.5 1454.1 Q1522.89 1454.1 1521.06 1457.66 Q1519.26 1461.2 1519.26 1468.33 Q1519.26 1475.44 1521.06 1479.01 Q1522.89 1482.55 1526.5 1482.55 Q1530.14 1482.55 1531.94 1479.01 Q1533.77 1475.44 1533.77 1468.33 Q1533.77 1461.2 1531.94 1457.66 Q1530.14 1454.1 1526.5 1454.1 M1526.5 1450.39 Q1532.31 1450.39 1535.37 1455 Q1538.45 1459.58 1538.45 1468.33 Q1538.45 1477.06 1535.37 1481.67 Q1532.31 1486.25 1526.5 1486.25 Q1520.69 1486.25 1517.61 1481.67 Q1514.56 1477.06 1514.56 1468.33 Q1514.56 1459.58 1517.61 1455 Q1520.69 1450.39 1526.5 1450.39 Z" fill="#000000" fill-rule="evenodd" fill-opacity="1" /><path clip-path="url(#clip690)" d="M1711.28 1466.95 Q1714.63 1467.66 1716.51 1469.93 Q1718.41 1472.2 1718.41 1475.53 Q1718.41 1480.65 1714.89 1483.45 Q1711.37 1486.25 1704.89 1486.25 Q1702.71 1486.25 1700.4 1485.81 Q1698.11 1485.39 1695.65 1484.54 L1695.65 1480.02 Q1697.6 1481.16 1699.91 1481.74 Q1702.23 1482.32 1704.75 1482.32 Q1709.15 1482.32 1711.44 1480.58 Q1713.75 1478.84 1713.75 1475.53 Q1713.75 1472.48 1711.6 1470.77 Q1709.47 1469.03 1705.65 1469.03 L1701.63 1469.03 L1701.63 1465.19 L1705.84 1465.19 Q1709.29 1465.19 1711.12 1463.82 Q1712.94 1462.43 1712.94 1459.84 Q1712.94 1457.18 1711.05 1455.77 Q1709.17 1454.33 1705.65 1454.33 Q1703.73 1454.33 1701.53 1454.75 Q1699.33 1455.16 1696.69 1456.04 L1696.69 1451.88 Q1699.36 1451.14 1701.67 1450.77 Q1704.01 1450.39 1706.07 1450.39 Q1711.39 1450.39 1714.5 1452.83 Q1717.6 1455.23 1717.6 1459.35 Q1717.6 1462.22 1715.95 1464.21 Q1714.31 1466.18 1711.28 1466.95 Z" fill="#000000" fill-rule="evenodd" fill-opacity="1" /><path clip-path="url(#clip690)" d="M1727.32 1451.02 L1745.68 1451.02 L1745.68 1454.96 L1731.6 1454.96 L1731.6 1463.43 Q1732.62 1463.08 1733.64 1462.92 Q1734.66 1462.73 1735.68 1462.73 Q1741.46 1462.73 1744.84 1465.9 Q1748.22 1469.08 1748.22 1474.49 Q1748.22 1480.07 1744.75 1483.17 Q1741.28 1486.25 1734.96 1486.25 Q1732.78 1486.25 1730.51 1485.88 Q1728.27 1485.51 1725.86 1484.77 L1725.86 1480.07 Q1727.94 1481.2 1730.17 1481.76 Q1732.39 1482.32 1734.87 1482.32 Q1738.87 1482.32 1741.21 1480.21 Q1743.55 1478.1 1743.55 1474.49 Q1743.55 1470.88 1741.21 1468.77 Q1738.87 1466.67 1734.87 1466.67 Q1732.99 1466.67 1731.12 1467.08 Q1729.26 1467.5 1727.32 1468.38 L1727.32 1451.02 Z" fill="#000000" fill-rule="evenodd" fill-opacity="1" /><path clip-path="url(#clip690)" d="M1920.38 1455.09 L1908.58 1473.54 L1920.38 1473.54 L1920.38 1455.09 M1919.15 1451.02 L1925.03 1451.02 L1925.03 1473.54 L1929.96 1473.54 L1929.96 1477.43 L1925.03 1477.43 L1925.03 1485.58 L1920.38 1485.58 L1920.38 1477.43 L1904.78 1477.43 L1904.78 1472.92 L1919.15 1451.02 Z" fill="#000000" fill-rule="evenodd" fill-opacity="1" /><path clip-path="url(#clip690)" d="M1947.7 1454.1 Q1944.09 1454.1 1942.26 1457.66 Q1940.45 1461.2 1940.45 1468.33 Q1940.45 1475.44 1942.26 1479.01 Q1944.09 1482.55 1947.7 1482.55 Q1951.33 1482.55 1953.14 1479.01 Q1954.96 1475.44 1954.96 1468.33 Q1954.96 1461.2 1953.14 1457.66 Q1951.33 1454.1 1947.7 1454.1 M1947.7 1450.39 Q1953.51 1450.39 1956.56 1455 Q1959.64 1459.58 1959.64 1468.33 Q1959.64 1477.06 1956.56 1481.67 Q1953.51 1486.25 1947.7 1486.25 Q1941.89 1486.25 1938.81 1481.67 Q1935.75 1477.06 1935.75 1468.33 Q1935.75 1459.58 1938.81 1455 Q1941.89 1450.39 1947.7 1450.39 Z" fill="#000000" fill-rule="evenodd" fill-opacity="1" /><path clip-path="url(#clip690)" d="M2131.15 1455.09 L2119.35 1473.54 L2131.15 1473.54 L2131.15 1455.09 M2129.93 1451.02 L2135.8 1451.02 L2135.8 1473.54 L2140.74 1473.54 L2140.74 1477.43 L2135.8 1477.43 L2135.8 1485.58 L2131.15 1485.58 L2131.15 1477.43 L2115.55 1477.43 L2115.55 1472.92 L2129.93 1451.02 Z" fill="#000000" fill-rule="evenodd" fill-opacity="1" /><path clip-path="url(#clip690)" d="M2148.51 1451.02 L2166.87 1451.02 L2166.87 1454.96 L2152.8 1454.96 L2152.8 1463.43 Q2153.81 1463.08 2154.83 1462.92 Q2155.85 1462.73 2156.87 1462.73 Q2162.66 1462.73 2166.04 1465.9 Q2169.42 1469.08 2169.42 1474.49 Q2169.42 1480.07 2165.94 1483.17 Q2162.47 1486.25 2156.15 1486.25 Q2153.98 1486.25 2151.71 1485.88 Q2149.46 1485.51 2147.05 1484.77 L2147.05 1480.07 Q2149.14 1481.2 2151.36 1481.76 Q2153.58 1482.32 2156.06 1482.32 Q2160.06 1482.32 2162.4 1480.21 Q2164.74 1478.1 2164.74 1474.49 Q2164.74 1470.88 2162.4 1468.77 Q2160.06 1466.67 2156.06 1466.67 Q2154.18 1466.67 2152.31 1467.08 Q2150.46 1467.5 2148.51 1468.38 L2148.51 1451.02 Z" fill="#000000" fill-rule="evenodd" fill-opacity="1" /><path clip-path="url(#clip690)" d="M2327.46 1451.02 L2345.81 1451.02 L2345.81 1454.96 L2331.74 1454.96 L2331.74 1463.43 Q2332.76 1463.08 2333.77 1462.92 Q2334.79 1462.73 2335.81 1462.73 Q2341.6 1462.73 2344.98 1465.9 Q2348.36 1469.08 2348.36 1474.49 Q2348.36 1480.07 2344.89 1483.17 Q2341.41 1486.25 2335.09 1486.25 Q2332.92 1486.25 2330.65 1485.88 Q2328.4 1485.51 2326 1484.77 L2326 1480.07 Q2328.08 1481.2 2330.3 1481.76 Q2332.52 1482.32 2335 1482.32 Q2339.01 1482.32 2341.34 1480.21 Q2343.68 1478.1 2343.68 1474.49 Q2343.68 1470.88 2341.34 1468.77 Q2339.01 1466.67 2335 1466.67 Q2333.13 1466.67 2331.25 1467.08 Q2329.4 1467.5 2327.46 1468.38 L2327.46 1451.02 Z" fill="#000000" fill-rule="evenodd" fill-opacity="1" /><path clip-path="url(#clip690)" d="M2367.57 1454.1 Q2363.96 1454.1 2362.13 1457.66 Q2360.33 1461.2 2360.33 1468.33 Q2360.33 1475.44 2362.13 1479.01 Q2363.96 1482.55 2367.57 1482.55 Q2371.2 1482.55 2373.01 1479.01 Q2374.84 1475.44 2374.84 1468.33 Q2374.84 1461.2 2373.01 1457.66 Q2371.2 1454.1 2367.57 1454.1 M2367.57 1450.39 Q2373.38 1450.39 2376.44 1455 Q2379.52 1459.58 2379.52 1468.33 Q2379.52 1477.06 2376.44 1481.67 Q2373.38 1486.25 2367.57 1486.25 Q2361.76 1486.25 2358.68 1481.67 Q2355.63 1477.06 2355.63 1468.33 Q2355.63 1459.58 2358.68 1455 Q2361.76 1450.39 2367.57 1450.39 Z" fill="#000000" fill-rule="evenodd" fill-opacity="1" /><path clip-path="url(#clip690)" d="M1130.27 1522.08 L1130.27 1528.35 Q1126.61 1526.6 1123.36 1525.74 Q1120.11 1524.88 1117.09 1524.88 Q1111.84 1524.88 1108.97 1526.92 Q1106.14 1528.96 1106.14 1532.71 Q1106.14 1535.87 1108.02 1537.49 Q1109.93 1539.08 1115.21 1540.07 L1119.09 1540.86 Q1126.29 1542.23 1129.69 1545.7 Q1133.13 1549.14 1133.13 1554.93 Q1133.13 1561.84 1128.48 1565.4 Q1123.87 1568.97 1114.92 1568.97 Q1111.55 1568.97 1107.73 1568.2 Q1103.94 1567.44 1099.87 1565.94 L1099.87 1559.32 Q1103.78 1561.52 1107.54 1562.63 Q1111.3 1563.75 1114.92 1563.75 Q1120.43 1563.75 1123.42 1561.58 Q1126.41 1559.42 1126.41 1555.41 Q1126.41 1551.91 1124.25 1549.93 Q1122.12 1547.96 1117.22 1546.97 L1113.3 1546.21 Q1106.11 1544.78 1102.89 1541.72 Q1099.68 1538.67 1099.68 1533.22 Q1099.68 1526.92 1104.1 1523.29 Q1108.56 1519.66 1116.36 1519.66 Q1119.7 1519.66 1123.17 1520.27 Q1126.64 1520.87 1130.27 1522.08 Z" fill="#000000" fill-rule="evenodd" fill-opacity="1" /><path clip-path="url(#clip690)" d="M1142.9 1532.4 L1148.76 1532.4 L1148.76 1568.04 L1142.9 1568.04 L1142.9 1532.4 M1142.9 1518.52 L1148.76 1518.52 L1148.76 1525.93 L1142.9 1525.93 L1142.9 1518.52 Z" fill="#000000" fill-rule="evenodd" fill-opacity="1" /><path clip-path="url(#clip690)" d="M1166.81 1522.27 L1166.81 1532.4 L1178.87 1532.4 L1178.87 1536.95 L1166.81 1536.95 L1166.81 1556.3 Q1166.81 1560.66 1167.98 1561.9 Q1169.19 1563.14 1172.85 1563.14 L1178.87 1563.14 L1178.87 1568.04 L1172.85 1568.04 Q1166.07 1568.04 1163.49 1565.53 Q1160.92 1562.98 1160.92 1556.3 L1160.92 1536.95 L1156.62 1536.95 L1156.62 1532.4 L1160.92 1532.4 L1160.92 1522.27 L1166.81 1522.27 Z" fill="#000000" fill-rule="evenodd" fill-opacity="1" /><path clip-path="url(#clip690)" d="M1217.06 1548.76 L1217.06 1551.62 L1190.14 1551.62 Q1190.52 1557.67 1193.76 1560.85 Q1197.04 1564 1202.87 1564 Q1206.24 1564 1209.39 1563.17 Q1212.57 1562.35 1215.69 1560.69 L1215.69 1566.23 Q1212.54 1567.57 1209.23 1568.27 Q1205.92 1568.97 1202.52 1568.97 Q1193.99 1568.97 1188.99 1564 Q1184.02 1559.04 1184.02 1550.57 Q1184.02 1541.82 1188.73 1536.69 Q1193.48 1531.54 1201.5 1531.54 Q1208.69 1531.54 1212.86 1536.18 Q1217.06 1540.8 1217.06 1548.76 M1211.21 1547.04 Q1211.14 1542.23 1208.5 1539.37 Q1205.89 1536.5 1201.56 1536.5 Q1196.66 1536.5 1193.7 1539.27 Q1190.77 1542.04 1190.33 1547.07 L1211.21 1547.04 Z" fill="#000000" fill-rule="evenodd" fill-opacity="1" /><path clip-path="url(#clip690)" d="M1247.65 1520.52 L1256.31 1520.52 L1277.38 1560.28 L1277.38 1520.52 L1283.62 1520.52 L1283.62 1568.04 L1274.96 1568.04 L1253.89 1528.29 L1253.89 1568.04 L1247.65 1568.04 L1247.65 1520.52 Z" fill="#000000" fill-rule="evenodd" fill-opacity="1" /><path clip-path="url(#clip690)" d="M1295.55 1553.98 L1295.55 1532.4 L1301.41 1532.4 L1301.41 1553.75 Q1301.41 1558.81 1303.38 1561.36 Q1305.35 1563.87 1309.3 1563.87 Q1314.04 1563.87 1316.78 1560.85 Q1319.55 1557.83 1319.55 1552.61 L1319.55 1532.4 L1325.41 1532.4 L1325.41 1568.04 L1319.55 1568.04 L1319.55 1562.57 Q1317.42 1565.82 1314.58 1567.41 Q1311.78 1568.97 1308.06 1568.97 Q1301.92 1568.97 1298.73 1565.15 Q1295.55 1561.33 1295.55 1553.98 M1310.29 1531.54 L1310.29 1531.54 Z" fill="#000000" fill-rule="evenodd" fill-opacity="1" /><path clip-path="url(#clip690)" d="M1365.22 1539.24 Q1367.42 1535.29 1370.48 1533.41 Q1373.53 1531.54 1377.67 1531.54 Q1383.24 1531.54 1386.26 1535.45 Q1389.29 1539.33 1389.29 1546.53 L1389.29 1568.04 L1383.4 1568.04 L1383.4 1546.72 Q1383.4 1541.59 1381.58 1539.11 Q1379.77 1536.63 1376.05 1536.63 Q1371.49 1536.63 1368.85 1539.65 Q1366.21 1542.68 1366.21 1547.9 L1366.21 1568.04 L1360.32 1568.04 L1360.32 1546.72 Q1360.32 1541.56 1358.51 1539.11 Q1356.69 1536.63 1352.91 1536.63 Q1348.42 1536.63 1345.78 1539.68 Q1343.14 1542.71 1343.14 1547.9 L1343.14 1568.04 L1337.25 1568.04 L1337.25 1532.4 L1343.14 1532.4 L1343.14 1537.93 Q1345.14 1534.66 1347.94 1533.1 Q1350.74 1531.54 1354.59 1531.54 Q1358.48 1531.54 1361.18 1533.51 Q1363.92 1535.48 1365.22 1539.24 Z" fill="#000000" fill-rule="evenodd" fill-opacity="1" /><path clip-path="url(#clip690)" d="M1426.56 1550.25 Q1426.56 1543.79 1423.88 1540.13 Q1421.24 1536.44 1416.6 1536.44 Q1411.95 1536.44 1409.27 1540.13 Q1406.63 1543.79 1406.63 1550.25 Q1406.63 1556.71 1409.27 1560.4 Q1411.95 1564.07 1416.6 1564.07 Q1421.24 1564.07 1423.88 1560.4 Q1426.56 1556.71 1426.56 1550.25 M1406.63 1537.81 Q1408.48 1534.62 1411.28 1533.1 Q1414.11 1531.54 1418.03 1531.54 Q1424.52 1531.54 1428.56 1536.69 Q1432.64 1541.85 1432.64 1550.25 Q1432.64 1558.65 1428.56 1563.81 Q1424.52 1568.97 1418.03 1568.97 Q1414.11 1568.97 1411.28 1567.44 Q1408.48 1565.88 1406.63 1562.7 L1406.63 1568.04 L1400.74 1568.04 L1400.74 1518.52 L1406.63 1518.52 L1406.63 1537.81 Z" fill="#000000" fill-rule="evenodd" fill-opacity="1" /><path clip-path="url(#clip690)" d="M1472.84 1548.76 L1472.84 1551.62 L1445.91 1551.62 Q1446.29 1557.67 1449.54 1560.85 Q1452.82 1564 1458.64 1564 Q1462.01 1564 1465.17 1563.17 Q1468.35 1562.35 1471.47 1560.69 L1471.47 1566.23 Q1468.32 1567.57 1465.01 1568.27 Q1461.7 1568.97 1458.29 1568.97 Q1449.76 1568.97 1444.76 1564 Q1439.8 1559.04 1439.8 1550.57 Q1439.8 1541.82 1444.51 1536.69 Q1449.25 1531.54 1457.27 1531.54 Q1464.47 1531.54 1468.64 1536.18 Q1472.84 1540.8 1472.84 1548.76 M1466.98 1547.04 Q1466.92 1542.23 1464.27 1539.37 Q1461.66 1536.5 1457.34 1536.5 Q1452.43 1536.5 1449.47 1539.27 Q1446.55 1542.04 1446.1 1547.07 L1466.98 1547.04 Z" fill="#000000" fill-rule="evenodd" fill-opacity="1" /><path clip-path="url(#clip690)" d="M1503.11 1537.87 Q1502.12 1537.3 1500.94 1537.04 Q1499.8 1536.76 1498.39 1536.76 Q1493.43 1536.76 1490.76 1540 Q1488.11 1543.22 1488.11 1549.27 L1488.11 1568.04 L1482.23 1568.04 L1482.23 1532.4 L1488.11 1532.4 L1488.11 1537.93 Q1489.96 1534.69 1492.92 1533.13 Q1495.88 1531.54 1500.11 1531.54 Q1500.72 1531.54 1501.45 1531.63 Q1502.18 1531.7 1503.07 1531.85 L1503.11 1537.87 Z" fill="#000000" fill-rule="evenodd" fill-opacity="1" /><polyline clip-path="url(#clip692)" style="stroke:#000000; stroke-linecap:round; stroke-linejoin:round; stroke-width:2; stroke-opacity:0.1; fill:none" points="
  250.028,1423.18 2352.76,1423.18 
  "/>
<polyline clip-path="url(#clip692)" style="stroke:#000000; stroke-linecap:round; stroke-linejoin:round; stroke-width:2; stroke-opacity:0.1; fill:none" points="
  250.028,1293.21 2352.76,1293.21 
  "/>
<polyline clip-path="url(#clip692)" style="stroke:#000000; stroke-linecap:round; stroke-linejoin:round; stroke-width:2; stroke-opacity:0.1; fill:none" points="
  250.028,1163.24 2352.76,1163.24 
  "/>
<polyline clip-path="url(#clip692)" style="stroke:#000000; stroke-linecap:round; stroke-linejoin:round; stroke-width:2; stroke-opacity:0.1; fill:none" points="
  250.028,1033.27 2352.76,1033.27 
  "/>
<polyline clip-path="url(#clip692)" style="stroke:#000000; stroke-linecap:round; stroke-linejoin:round; stroke-width:2; stroke-opacity:0.1; fill:none" points="
  250.028,903.297 2352.76,903.297 
  "/>
<polyline clip-path="url(#clip692)" style="stroke:#000000; stroke-linecap:round; stroke-linejoin:round; stroke-width:2; stroke-opacity:0.1; fill:none" points="
  250.028,773.326 2352.76,773.326 
  "/>
<polyline clip-path="url(#clip692)" style="stroke:#000000; stroke-linecap:round; stroke-linejoin:round; stroke-width:2; stroke-opacity:0.1; fill:none" points="
  250.028,643.355 2352.76,643.355 
  "/>
<polyline clip-path="url(#clip692)" style="stroke:#000000; stroke-linecap:round; stroke-linejoin:round; stroke-width:2; stroke-opacity:0.1; fill:none" points="
  250.028,513.384 2352.76,513.384 
  "/>
<polyline clip-path="url(#clip692)" style="stroke:#000000; stroke-linecap:round; stroke-linejoin:round; stroke-width:2; stroke-opacity:0.1; fill:none" points="
  250.028,383.414 2352.76,383.414 
  "/>
<polyline clip-path="url(#clip692)" style="stroke:#000000; stroke-linecap:round; stroke-linejoin:round; stroke-width:2; stroke-opacity:0.1; fill:none" points="
  250.028,253.443 2352.76,253.443 
  "/>
<polyline clip-path="url(#clip692)" style="stroke:#000000; stroke-linecap:round; stroke-linejoin:round; stroke-width:2; stroke-opacity:0.1; fill:none" points="
  250.028,123.472 2352.76,123.472 
  "/>
<polyline clip-path="url(#clip690)" style="stroke:#000000; stroke-linecap:round; stroke-linejoin:round; stroke-width:4; stroke-opacity:1; fill:none" points="
  250.028,1423.18 250.028,123.472 
  "/>
<polyline clip-path="url(#clip690)" style="stroke:#000000; stroke-linecap:round; stroke-linejoin:round; stroke-width:4; stroke-opacity:1; fill:none" points="
  250.028,1423.18 268.926,1423.18 
  "/>
<polyline clip-path="url(#clip690)" style="stroke:#000000; stroke-linecap:round; stroke-linejoin:round; stroke-width:4; stroke-opacity:1; fill:none" points="
  250.028,1293.21 268.926,1293.21 
  "/>
<polyline clip-path="url(#clip690)" style="stroke:#000000; stroke-linecap:round; stroke-linejoin:round; stroke-width:4; stroke-opacity:1; fill:none" points="
  250.028,1163.24 268.926,1163.24 
  "/>
<polyline clip-path="url(#clip690)" style="stroke:#000000; stroke-linecap:round; stroke-linejoin:round; stroke-width:4; stroke-opacity:1; fill:none" points="
  250.028,1033.27 268.926,1033.27 
  "/>
<polyline clip-path="url(#clip690)" style="stroke:#000000; stroke-linecap:round; stroke-linejoin:round; stroke-width:4; stroke-opacity:1; fill:none" points="
  250.028,903.297 268.926,903.297 
  "/>
<polyline clip-path="url(#clip690)" style="stroke:#000000; stroke-linecap:round; stroke-linejoin:round; stroke-width:4; stroke-opacity:1; fill:none" points="
  250.028,773.326 268.926,773.326 
  "/>
<polyline clip-path="url(#clip690)" style="stroke:#000000; stroke-linecap:round; stroke-linejoin:round; stroke-width:4; stroke-opacity:1; fill:none" points="
  250.028,643.355 268.926,643.355 
  "/>
<polyline clip-path="url(#clip690)" style="stroke:#000000; stroke-linecap:round; stroke-linejoin:round; stroke-width:4; stroke-opacity:1; fill:none" points="
  250.028,513.384 268.926,513.384 
  "/>
<polyline clip-path="url(#clip690)" style="stroke:#000000; stroke-linecap:round; stroke-linejoin:round; stroke-width:4; stroke-opacity:1; fill:none" points="
  250.028,383.414 268.926,383.414 
  "/>
<polyline clip-path="url(#clip690)" style="stroke:#000000; stroke-linecap:round; stroke-linejoin:round; stroke-width:4; stroke-opacity:1; fill:none" points="
  250.028,253.443 268.926,253.443 
  "/>
<polyline clip-path="url(#clip690)" style="stroke:#000000; stroke-linecap:round; stroke-linejoin:round; stroke-width:4; stroke-opacity:1; fill:none" points="
  250.028,123.472 268.926,123.472 
  "/>
<path clip-path="url(#clip690)" d="M126.691 1408.98 Q123.08 1408.98 121.251 1412.54 Q119.445 1416.08 119.445 1423.21 Q119.445 1430.32 121.251 1433.89 Q123.08 1437.43 126.691 1437.43 Q130.325 1437.43 132.13 1433.89 Q133.959 1430.32 133.959 1423.21 Q133.959 1416.08 132.13 1412.54 Q130.325 1408.98 126.691 1408.98 M126.691 1405.27 Q132.501 1405.27 135.556 1409.88 Q138.635 1414.46 138.635 1423.21 Q138.635 1431.94 135.556 1436.55 Q132.501 1441.13 126.691 1441.13 Q120.88 1441.13 117.802 1436.55 Q114.746 1431.94 114.746 1423.21 Q114.746 1414.46 117.802 1409.88 Q120.88 1405.27 126.691 1405.27 Z" fill="#000000" fill-rule="evenodd" fill-opacity="1" /><path clip-path="url(#clip690)" d="M146.853 1434.58 L151.737 1434.58 L151.737 1440.46 L146.853 1440.46 L146.853 1434.58 Z" fill="#000000" fill-rule="evenodd" fill-opacity="1" /><path clip-path="url(#clip690)" d="M174.769 1409.97 L162.964 1428.42 L174.769 1428.42 L174.769 1409.97 M173.542 1405.9 L179.422 1405.9 L179.422 1428.42 L184.352 1428.42 L184.352 1432.31 L179.422 1432.31 L179.422 1440.46 L174.769 1440.46 L174.769 1432.31 L159.167 1432.31 L159.167 1427.8 L173.542 1405.9 Z" fill="#000000" fill-rule="evenodd" fill-opacity="1" /><path clip-path="url(#clip690)" d="M202.084 1408.98 Q198.473 1408.98 196.644 1412.54 Q194.838 1416.08 194.838 1423.21 Q194.838 1430.32 196.644 1433.89 Q198.473 1437.43 202.084 1437.43 Q205.718 1437.43 207.524 1433.89 Q209.352 1430.32 209.352 1423.21 Q209.352 1416.08 207.524 1412.54 Q205.718 1408.98 202.084 1408.98 M202.084 1405.27 Q207.894 1405.27 210.949 1409.88 Q214.028 1414.46 214.028 1423.21 Q214.028 1431.94 210.949 1436.55 Q207.894 1441.13 202.084 1441.13 Q196.274 1441.13 193.195 1436.55 Q190.139 1431.94 190.139 1423.21 Q190.139 1414.46 193.195 1409.88 Q196.274 1405.27 202.084 1405.27 Z" fill="#000000" fill-rule="evenodd" fill-opacity="1" /><path clip-path="url(#clip690)" d="M127.917 1279.01 Q124.306 1279.01 122.478 1282.57 Q120.672 1286.11 120.672 1293.24 Q120.672 1300.35 122.478 1303.92 Q124.306 1307.46 127.917 1307.46 Q131.552 1307.46 133.357 1303.92 Q135.186 1300.35 135.186 1293.24 Q135.186 1286.11 133.357 1282.57 Q131.552 1279.01 127.917 1279.01 M127.917 1275.3 Q133.728 1275.3 136.783 1279.91 Q139.862 1284.49 139.862 1293.24 Q139.862 1301.97 136.783 1306.58 Q133.728 1311.16 127.917 1311.16 Q122.107 1311.16 119.029 1306.58 Q115.973 1301.97 115.973 1293.24 Q115.973 1284.49 119.029 1279.91 Q122.107 1275.3 127.917 1275.3 Z" fill="#000000" fill-rule="evenodd" fill-opacity="1" /><path clip-path="url(#clip690)" d="M148.079 1304.61 L152.964 1304.61 L152.964 1310.49 L148.079 1310.49 L148.079 1304.61 Z" fill="#000000" fill-rule="evenodd" fill-opacity="1" /><path clip-path="url(#clip690)" d="M175.996 1280 L164.19 1298.45 L175.996 1298.45 L175.996 1280 M174.769 1275.93 L180.649 1275.93 L180.649 1298.45 L185.579 1298.45 L185.579 1302.34 L180.649 1302.34 L180.649 1310.49 L175.996 1310.49 L175.996 1302.34 L160.394 1302.34 L160.394 1297.83 L174.769 1275.93 Z" fill="#000000" fill-rule="evenodd" fill-opacity="1" /><path clip-path="url(#clip690)" d="M194.121 1306.55 L201.76 1306.55 L201.76 1280.19 L193.45 1281.85 L193.45 1277.6 L201.713 1275.93 L206.389 1275.93 L206.389 1306.55 L214.028 1306.55 L214.028 1310.49 L194.121 1310.49 L194.121 1306.55 Z" fill="#000000" fill-rule="evenodd" fill-opacity="1" /><path clip-path="url(#clip690)" d="M128.288 1149.04 Q124.677 1149.04 122.848 1152.6 Q121.043 1156.14 121.043 1163.27 Q121.043 1170.38 122.848 1173.94 Q124.677 1177.49 128.288 1177.49 Q131.922 1177.49 133.728 1173.94 Q135.556 1170.38 135.556 1163.27 Q135.556 1156.14 133.728 1152.6 Q131.922 1149.04 128.288 1149.04 M128.288 1145.33 Q134.098 1145.33 137.154 1149.94 Q140.232 1154.52 140.232 1163.27 Q140.232 1172 137.154 1176.61 Q134.098 1181.19 128.288 1181.19 Q122.478 1181.19 119.399 1176.61 Q116.343 1172 116.343 1163.27 Q116.343 1154.52 119.399 1149.94 Q122.478 1145.33 128.288 1145.33 Z" fill="#000000" fill-rule="evenodd" fill-opacity="1" /><path clip-path="url(#clip690)" d="M148.45 1174.64 L153.334 1174.64 L153.334 1180.52 L148.45 1180.52 L148.45 1174.64 Z" fill="#000000" fill-rule="evenodd" fill-opacity="1" /><path clip-path="url(#clip690)" d="M176.366 1150.03 L164.561 1168.48 L176.366 1168.48 L176.366 1150.03 M175.139 1145.96 L181.019 1145.96 L181.019 1168.48 L185.95 1168.48 L185.95 1172.37 L181.019 1172.37 L181.019 1180.52 L176.366 1180.52 L176.366 1172.37 L160.765 1172.37 L160.765 1167.86 L175.139 1145.96 Z" fill="#000000" fill-rule="evenodd" fill-opacity="1" /><path clip-path="url(#clip690)" d="M197.709 1176.58 L214.028 1176.58 L214.028 1180.52 L192.084 1180.52 L192.084 1176.58 Q194.746 1173.83 199.329 1169.2 Q203.936 1164.55 205.116 1163.2 Q207.362 1160.68 208.241 1158.94 Q209.144 1157.19 209.144 1155.5 Q209.144 1152.74 207.199 1151 Q205.278 1149.27 202.176 1149.27 Q199.977 1149.27 197.524 1150.03 Q195.093 1150.8 192.315 1152.35 L192.315 1147.62 Q195.139 1146.49 197.593 1145.91 Q200.047 1145.33 202.084 1145.33 Q207.454 1145.33 210.649 1148.02 Q213.843 1150.7 213.843 1155.19 Q213.843 1157.32 213.033 1159.25 Q212.246 1161.14 210.139 1163.74 Q209.561 1164.41 206.459 1167.62 Q203.357 1170.82 197.709 1176.58 Z" fill="#000000" fill-rule="evenodd" fill-opacity="1" /><path clip-path="url(#clip690)" d="M127.339 1019.07 Q123.728 1019.07 121.899 1022.63 Q120.093 1026.17 120.093 1033.3 Q120.093 1040.41 121.899 1043.97 Q123.728 1047.52 127.339 1047.52 Q130.973 1047.52 132.779 1043.97 Q134.607 1040.41 134.607 1033.3 Q134.607 1026.17 132.779 1022.63 Q130.973 1019.07 127.339 1019.07 M127.339 1015.36 Q133.149 1015.36 136.204 1019.97 Q139.283 1024.55 139.283 1033.3 Q139.283 1042.03 136.204 1046.64 Q133.149 1051.22 127.339 1051.22 Q121.529 1051.22 118.45 1046.64 Q115.394 1042.03 115.394 1033.3 Q115.394 1024.55 118.45 1019.97 Q121.529 1015.36 127.339 1015.36 Z" fill="#000000" fill-rule="evenodd" fill-opacity="1" /><path clip-path="url(#clip690)" d="M147.501 1044.67 L152.385 1044.67 L152.385 1050.55 L147.501 1050.55 L147.501 1044.67 Z" fill="#000000" fill-rule="evenodd" fill-opacity="1" /><path clip-path="url(#clip690)" d="M175.417 1020.06 L163.612 1038.51 L175.417 1038.51 L175.417 1020.06 M174.19 1015.99 L180.07 1015.99 L180.07 1038.51 L185.001 1038.51 L185.001 1042.4 L180.07 1042.4 L180.07 1050.55 L175.417 1050.55 L175.417 1042.4 L159.815 1042.4 L159.815 1037.89 L174.19 1015.99 Z" fill="#000000" fill-rule="evenodd" fill-opacity="1" /><path clip-path="url(#clip690)" d="M206.899 1031.91 Q210.255 1032.63 212.13 1034.9 Q214.028 1037.17 214.028 1040.5 Q214.028 1045.62 210.51 1048.42 Q206.991 1051.22 200.51 1051.22 Q198.334 1051.22 196.019 1050.78 Q193.727 1050.36 191.274 1049.51 L191.274 1044.99 Q193.218 1046.13 195.533 1046.7 Q197.848 1047.28 200.371 1047.28 Q204.769 1047.28 207.061 1045.55 Q209.375 1043.81 209.375 1040.5 Q209.375 1037.45 207.223 1035.73 Q205.093 1034 201.274 1034 L197.246 1034 L197.246 1030.15 L201.459 1030.15 Q204.908 1030.15 206.737 1028.79 Q208.565 1027.4 208.565 1024.81 Q208.565 1022.14 206.667 1020.73 Q204.792 1019.3 201.274 1019.3 Q199.352 1019.3 197.153 1019.71 Q194.954 1020.13 192.315 1021.01 L192.315 1016.84 Q194.977 1016.1 197.292 1015.73 Q199.63 1015.36 201.69 1015.36 Q207.014 1015.36 210.116 1017.79 Q213.218 1020.2 213.218 1024.32 Q213.218 1027.19 211.574 1029.18 Q209.931 1031.15 206.899 1031.91 Z" fill="#000000" fill-rule="evenodd" fill-opacity="1" /><path clip-path="url(#clip690)" d="M126.205 889.095 Q122.593 889.095 120.765 892.66 Q118.959 896.202 118.959 903.331 Q118.959 910.438 120.765 914.003 Q122.593 917.544 126.205 917.544 Q129.839 917.544 131.644 914.003 Q133.473 910.438 133.473 903.331 Q133.473 896.202 131.644 892.66 Q129.839 889.095 126.205 889.095 M126.205 885.392 Q132.015 885.392 135.07 889.998 Q138.149 894.582 138.149 903.331 Q138.149 912.058 135.07 916.665 Q132.015 921.248 126.205 921.248 Q120.394 921.248 117.316 916.665 Q114.26 912.058 114.26 903.331 Q114.26 894.582 117.316 889.998 Q120.394 885.392 126.205 885.392 Z" fill="#000000" fill-rule="evenodd" fill-opacity="1" /><path clip-path="url(#clip690)" d="M146.366 914.697 L151.251 914.697 L151.251 920.577 L146.366 920.577 L146.366 914.697 Z" fill="#000000" fill-rule="evenodd" fill-opacity="1" /><path clip-path="url(#clip690)" d="M174.283 890.091 L162.477 908.54 L174.283 908.54 L174.283 890.091 M173.056 886.017 L178.936 886.017 L178.936 908.54 L183.866 908.54 L183.866 912.429 L178.936 912.429 L178.936 920.577 L174.283 920.577 L174.283 912.429 L158.681 912.429 L158.681 907.915 L173.056 886.017 Z" fill="#000000" fill-rule="evenodd" fill-opacity="1" /><path clip-path="url(#clip690)" d="M204.445 890.091 L192.639 908.54 L204.445 908.54 L204.445 890.091 M203.218 886.017 L209.098 886.017 L209.098 908.54 L214.028 908.54 L214.028 912.429 L209.098 912.429 L209.098 920.577 L204.445 920.577 L204.445 912.429 L188.843 912.429 L188.843 907.915 L203.218 886.017 Z" fill="#000000" fill-rule="evenodd" fill-opacity="1" /><path clip-path="url(#clip690)" d="M127.686 759.125 Q124.075 759.125 122.246 762.689 Q120.441 766.231 120.441 773.361 Q120.441 780.467 122.246 784.032 Q124.075 787.574 127.686 787.574 Q131.32 787.574 133.126 784.032 Q134.954 780.467 134.954 773.361 Q134.954 766.231 133.126 762.689 Q131.32 759.125 127.686 759.125 M127.686 755.421 Q133.496 755.421 136.552 760.027 Q139.63 764.611 139.63 773.361 Q139.63 782.088 136.552 786.694 Q133.496 791.277 127.686 791.277 Q121.876 791.277 118.797 786.694 Q115.742 782.088 115.742 773.361 Q115.742 764.611 118.797 760.027 Q121.876 755.421 127.686 755.421 Z" fill="#000000" fill-rule="evenodd" fill-opacity="1" /><path clip-path="url(#clip690)" d="M147.848 784.726 L152.732 784.726 L152.732 790.606 L147.848 790.606 L147.848 784.726 Z" fill="#000000" fill-rule="evenodd" fill-opacity="1" /><path clip-path="url(#clip690)" d="M175.764 760.12 L163.959 778.569 L175.764 778.569 L175.764 760.12 M174.538 756.046 L180.417 756.046 L180.417 778.569 L185.348 778.569 L185.348 782.458 L180.417 782.458 L180.417 790.606 L175.764 790.606 L175.764 782.458 L160.163 782.458 L160.163 777.944 L174.538 756.046 Z" fill="#000000" fill-rule="evenodd" fill-opacity="1" /><path clip-path="url(#clip690)" d="M193.125 756.046 L211.482 756.046 L211.482 759.981 L197.408 759.981 L197.408 768.453 Q198.426 768.106 199.445 767.944 Q200.463 767.759 201.482 767.759 Q207.269 767.759 210.649 770.93 Q214.028 774.101 214.028 779.518 Q214.028 785.097 210.556 788.199 Q207.084 791.277 200.764 791.277 Q198.588 791.277 196.32 790.907 Q194.075 790.537 191.667 789.796 L191.667 785.097 Q193.75 786.231 195.973 786.787 Q198.195 787.342 200.672 787.342 Q204.676 787.342 207.014 785.236 Q209.352 783.129 209.352 779.518 Q209.352 775.907 207.014 773.801 Q204.676 771.694 200.672 771.694 Q198.797 771.694 196.922 772.111 Q195.07 772.527 193.125 773.407 L193.125 756.046 Z" fill="#000000" fill-rule="evenodd" fill-opacity="1" /><path clip-path="url(#clip690)" d="M126.529 629.154 Q122.918 629.154 121.089 632.719 Q119.283 636.26 119.283 643.39 Q119.283 650.496 121.089 654.061 Q122.918 657.603 126.529 657.603 Q130.163 657.603 131.968 654.061 Q133.797 650.496 133.797 643.39 Q133.797 636.26 131.968 632.719 Q130.163 629.154 126.529 629.154 M126.529 625.45 Q132.339 625.45 135.394 630.057 Q138.473 634.64 138.473 643.39 Q138.473 652.117 135.394 656.723 Q132.339 661.307 126.529 661.307 Q120.718 661.307 117.64 656.723 Q114.584 652.117 114.584 643.39 Q114.584 634.64 117.64 630.057 Q120.718 625.45 126.529 625.45 Z" fill="#000000" fill-rule="evenodd" fill-opacity="1" /><path clip-path="url(#clip690)" d="M146.691 654.756 L151.575 654.756 L151.575 660.635 L146.691 660.635 L146.691 654.756 Z" fill="#000000" fill-rule="evenodd" fill-opacity="1" /><path clip-path="url(#clip690)" d="M174.607 630.149 L162.802 648.598 L174.607 648.598 L174.607 630.149 M173.38 626.075 L179.26 626.075 L179.26 648.598 L184.19 648.598 L184.19 652.487 L179.26 652.487 L179.26 660.635 L174.607 660.635 L174.607 652.487 L159.005 652.487 L159.005 647.973 L173.38 626.075 Z" fill="#000000" fill-rule="evenodd" fill-opacity="1" /><path clip-path="url(#clip690)" d="M202.5 641.492 Q199.352 641.492 197.5 643.645 Q195.672 645.797 195.672 649.547 Q195.672 653.274 197.5 655.45 Q199.352 657.603 202.5 657.603 Q205.649 657.603 207.477 655.45 Q209.329 653.274 209.329 649.547 Q209.329 645.797 207.477 643.645 Q205.649 641.492 202.5 641.492 M211.783 626.839 L211.783 631.098 Q210.024 630.265 208.218 629.825 Q206.436 629.385 204.676 629.385 Q200.047 629.385 197.593 632.51 Q195.163 635.635 194.815 641.955 Q196.181 639.941 198.241 638.876 Q200.301 637.788 202.778 637.788 Q207.987 637.788 210.996 640.959 Q214.028 644.108 214.028 649.547 Q214.028 654.871 210.88 658.089 Q207.732 661.307 202.5 661.307 Q196.505 661.307 193.334 656.723 Q190.163 652.117 190.163 643.39 Q190.163 635.196 194.051 630.334 Q197.94 625.45 204.491 625.45 Q206.25 625.45 208.033 625.797 Q209.838 626.145 211.783 626.839 Z" fill="#000000" fill-rule="evenodd" fill-opacity="1" /><path clip-path="url(#clip690)" d="M127.593 499.183 Q123.982 499.183 122.154 502.748 Q120.348 506.29 120.348 513.419 Q120.348 520.526 122.154 524.09 Q123.982 527.632 127.593 527.632 Q131.228 527.632 133.033 524.09 Q134.862 520.526 134.862 513.419 Q134.862 506.29 133.033 502.748 Q131.228 499.183 127.593 499.183 M127.593 495.479 Q133.404 495.479 136.459 500.086 Q139.538 504.669 139.538 513.419 Q139.538 522.146 136.459 526.752 Q133.404 531.336 127.593 531.336 Q121.783 531.336 118.705 526.752 Q115.649 522.146 115.649 513.419 Q115.649 504.669 118.705 500.086 Q121.783 495.479 127.593 495.479 Z" fill="#000000" fill-rule="evenodd" fill-opacity="1" /><path clip-path="url(#clip690)" d="M147.755 524.785 L152.64 524.785 L152.64 530.664 L147.755 530.664 L147.755 524.785 Z" fill="#000000" fill-rule="evenodd" fill-opacity="1" /><path clip-path="url(#clip690)" d="M175.672 500.178 L163.866 518.627 L175.672 518.627 L175.672 500.178 M174.445 496.104 L180.325 496.104 L180.325 518.627 L185.255 518.627 L185.255 522.516 L180.325 522.516 L180.325 530.664 L175.672 530.664 L175.672 522.516 L160.07 522.516 L160.07 518.002 L174.445 496.104 Z" fill="#000000" fill-rule="evenodd" fill-opacity="1" /><path clip-path="url(#clip690)" d="M191.806 496.104 L214.028 496.104 L214.028 498.095 L201.482 530.664 L196.598 530.664 L208.403 500.04 L191.806 500.04 L191.806 496.104 Z" fill="#000000" fill-rule="evenodd" fill-opacity="1" /><path clip-path="url(#clip690)" d="M126.783 369.212 Q123.172 369.212 121.343 372.777 Q119.538 376.319 119.538 383.448 Q119.538 390.555 121.343 394.12 Q123.172 397.661 126.783 397.661 Q130.417 397.661 132.223 394.12 Q134.052 390.555 134.052 383.448 Q134.052 376.319 132.223 372.777 Q130.417 369.212 126.783 369.212 M126.783 365.509 Q132.593 365.509 135.649 370.115 Q138.728 374.698 138.728 383.448 Q138.728 392.175 135.649 396.782 Q132.593 401.365 126.783 401.365 Q120.973 401.365 117.894 396.782 Q114.839 392.175 114.839 383.448 Q114.839 374.698 117.894 370.115 Q120.973 365.509 126.783 365.509 Z" fill="#000000" fill-rule="evenodd" fill-opacity="1" /><path clip-path="url(#clip690)" d="M146.945 394.814 L151.829 394.814 L151.829 400.694 L146.945 400.694 L146.945 394.814 Z" fill="#000000" fill-rule="evenodd" fill-opacity="1" /><path clip-path="url(#clip690)" d="M174.862 370.208 L163.056 388.657 L174.862 388.657 L174.862 370.208 M173.635 366.134 L179.514 366.134 L179.514 388.657 L184.445 388.657 L184.445 392.546 L179.514 392.546 L179.514 400.694 L174.862 400.694 L174.862 392.546 L159.26 392.546 L159.26 388.032 L173.635 366.134 Z" fill="#000000" fill-rule="evenodd" fill-opacity="1" /><path clip-path="url(#clip690)" d="M202.176 384.282 Q198.843 384.282 196.922 386.064 Q195.024 387.847 195.024 390.971 Q195.024 394.096 196.922 395.879 Q198.843 397.661 202.176 397.661 Q205.51 397.661 207.431 395.879 Q209.352 394.073 209.352 390.971 Q209.352 387.847 207.431 386.064 Q205.533 384.282 202.176 384.282 M197.5 382.291 Q194.491 381.55 192.801 379.49 Q191.135 377.43 191.135 374.467 Q191.135 370.323 194.075 367.916 Q197.037 365.509 202.176 365.509 Q207.338 365.509 210.278 367.916 Q213.218 370.323 213.218 374.467 Q213.218 377.43 211.528 379.49 Q209.861 381.55 206.875 382.291 Q210.255 383.078 212.13 385.37 Q214.028 387.661 214.028 390.971 Q214.028 395.995 210.949 398.68 Q207.894 401.365 202.176 401.365 Q196.459 401.365 193.38 398.68 Q190.325 395.995 190.325 390.971 Q190.325 387.661 192.223 385.37 Q194.121 383.078 197.5 382.291 M195.787 374.907 Q195.787 377.592 197.454 379.097 Q199.144 380.601 202.176 380.601 Q205.186 380.601 206.875 379.097 Q208.588 377.592 208.588 374.907 Q208.588 372.222 206.875 370.717 Q205.186 369.212 202.176 369.212 Q199.144 369.212 197.454 370.717 Q195.787 372.222 195.787 374.907 Z" fill="#000000" fill-rule="evenodd" fill-opacity="1" /><path clip-path="url(#clip690)" d="M126.876 239.242 Q123.265 239.242 121.436 242.806 Q119.63 246.348 119.63 253.478 Q119.63 260.584 121.436 264.149 Q123.265 267.691 126.876 267.691 Q130.51 267.691 132.316 264.149 Q134.144 260.584 134.144 253.478 Q134.144 246.348 132.316 242.806 Q130.51 239.242 126.876 239.242 M126.876 235.538 Q132.686 235.538 135.742 240.144 Q138.82 244.728 138.82 253.478 Q138.82 262.204 135.742 266.811 Q132.686 271.394 126.876 271.394 Q121.066 271.394 117.987 266.811 Q114.931 262.204 114.931 253.478 Q114.931 244.728 117.987 240.144 Q121.066 235.538 126.876 235.538 Z" fill="#000000" fill-rule="evenodd" fill-opacity="1" /><path clip-path="url(#clip690)" d="M147.038 264.843 L151.922 264.843 L151.922 270.723 L147.038 270.723 L147.038 264.843 Z" fill="#000000" fill-rule="evenodd" fill-opacity="1" /><path clip-path="url(#clip690)" d="M174.954 240.237 L163.149 258.686 L174.954 258.686 L174.954 240.237 M173.727 236.163 L179.607 236.163 L179.607 258.686 L184.538 258.686 L184.538 262.575 L179.607 262.575 L179.607 270.723 L174.954 270.723 L174.954 262.575 L159.353 262.575 L159.353 258.061 L173.727 236.163 Z" fill="#000000" fill-rule="evenodd" fill-opacity="1" /><path clip-path="url(#clip690)" d="M192.408 270.005 L192.408 265.746 Q194.167 266.579 195.973 267.019 Q197.778 267.459 199.514 267.459 Q204.144 267.459 206.574 264.357 Q209.028 261.232 209.375 254.89 Q208.033 256.88 205.973 257.945 Q203.912 259.01 201.412 259.01 Q196.227 259.01 193.195 255.885 Q190.186 252.737 190.186 247.297 Q190.186 241.973 193.334 238.755 Q196.482 235.538 201.713 235.538 Q207.709 235.538 210.857 240.144 Q214.028 244.728 214.028 253.478 Q214.028 261.649 210.139 266.533 Q206.274 271.394 199.723 271.394 Q197.963 271.394 196.158 271.047 Q194.352 270.7 192.408 270.005 M201.713 255.353 Q204.862 255.353 206.69 253.2 Q208.542 251.047 208.542 247.297 Q208.542 243.57 206.69 241.417 Q204.862 239.242 201.713 239.242 Q198.565 239.242 196.713 241.417 Q194.885 243.57 194.885 247.297 Q194.885 251.047 196.713 253.2 Q198.565 255.353 201.713 255.353 Z" fill="#000000" fill-rule="evenodd" fill-opacity="1" /><path clip-path="url(#clip690)" d="M126.691 109.271 Q123.08 109.271 121.251 112.836 Q119.445 116.377 119.445 123.507 Q119.445 130.613 121.251 134.178 Q123.08 137.72 126.691 137.72 Q130.325 137.72 132.13 134.178 Q133.959 130.613 133.959 123.507 Q133.959 116.377 132.13 112.836 Q130.325 109.271 126.691 109.271 M126.691 105.567 Q132.501 105.567 135.556 110.174 Q138.635 114.757 138.635 123.507 Q138.635 132.234 135.556 136.84 Q132.501 141.423 126.691 141.423 Q120.88 141.423 117.802 136.84 Q114.746 132.234 114.746 123.507 Q114.746 114.757 117.802 110.174 Q120.88 105.567 126.691 105.567 Z" fill="#000000" fill-rule="evenodd" fill-opacity="1" /><path clip-path="url(#clip690)" d="M146.853 134.873 L151.737 134.873 L151.737 140.752 L146.853 140.752 L146.853 134.873 Z" fill="#000000" fill-rule="evenodd" fill-opacity="1" /><path clip-path="url(#clip690)" d="M161.968 106.192 L180.325 106.192 L180.325 110.127 L166.251 110.127 L166.251 118.599 Q167.269 118.252 168.288 118.09 Q169.306 117.905 170.325 117.905 Q176.112 117.905 179.491 121.076 Q182.871 124.248 182.871 129.664 Q182.871 135.243 179.399 138.345 Q175.926 141.423 169.607 141.423 Q167.431 141.423 165.163 141.053 Q162.917 140.683 160.51 139.942 L160.51 135.243 Q162.593 136.377 164.815 136.933 Q167.038 137.488 169.514 137.488 Q173.519 137.488 175.857 135.382 Q178.195 133.275 178.195 129.664 Q178.195 126.053 175.857 123.947 Q173.519 121.84 169.514 121.84 Q167.64 121.84 165.765 122.257 Q163.913 122.674 161.968 123.553 L161.968 106.192 Z" fill="#000000" fill-rule="evenodd" fill-opacity="1" /><path clip-path="url(#clip690)" d="M202.084 109.271 Q198.473 109.271 196.644 112.836 Q194.838 116.377 194.838 123.507 Q194.838 130.613 196.644 134.178 Q198.473 137.72 202.084 137.72 Q205.718 137.72 207.524 134.178 Q209.352 130.613 209.352 123.507 Q209.352 116.377 207.524 112.836 Q205.718 109.271 202.084 109.271 M202.084 105.567 Q207.894 105.567 210.949 110.174 Q214.028 114.757 214.028 123.507 Q214.028 132.234 210.949 136.84 Q207.894 141.423 202.084 141.423 Q196.274 141.423 193.195 136.84 Q190.139 132.234 190.139 123.507 Q190.139 114.757 193.195 110.174 Q196.274 105.567 202.084 105.567 Z" fill="#000000" fill-rule="evenodd" fill-opacity="1" /><path clip-path="url(#clip690)" d="M16.4842 987.834 L16.4842 981.405 L64.0042 981.405 L64.0042 987.834 L16.4842 987.834 Z" fill="#000000" fill-rule="evenodd" fill-opacity="1" /><path clip-path="url(#clip690)" d="M42.4881 939.232 L64.0042 939.232 L64.0042 945.089 L42.679 945.089 Q37.6183 945.089 35.1038 947.062 Q32.5894 949.035 32.5894 952.982 Q32.5894 957.725 35.6131 960.462 Q38.6368 963.199 43.8567 963.199 L64.0042 963.199 L64.0042 969.087 L28.3562 969.087 L28.3562 963.199 L33.8944 963.199 Q30.6797 961.098 29.0883 958.266 Q27.4968 955.401 27.4968 951.677 Q27.4968 945.534 31.3163 942.383 Q35.1038 939.232 42.4881 939.232 Z" fill="#000000" fill-rule="evenodd" fill-opacity="1" /><path clip-path="url(#clip690)" d="M42.4881 897.919 L64.0042 897.919 L64.0042 903.775 L42.679 903.775 Q37.6183 903.775 35.1038 905.749 Q32.5894 907.722 32.5894 911.669 Q32.5894 916.411 35.6131 919.148 Q38.6368 921.886 43.8567 921.886 L64.0042 921.886 L64.0042 927.774 L28.3562 927.774 L28.3562 921.886 L33.8944 921.886 Q30.6797 919.785 29.0883 916.952 Q27.4968 914.088 27.4968 910.364 Q27.4968 904.221 31.3163 901.07 Q35.1038 897.919 42.4881 897.919 Z" fill="#000000" fill-rule="evenodd" fill-opacity="1" /><path clip-path="url(#clip690)" d="M44.7161 855.746 L47.5806 855.746 L47.5806 882.673 Q53.6281 882.291 56.8109 879.044 Q59.9619 875.766 59.9619 869.941 Q59.9619 866.568 59.1344 863.417 Q58.3069 860.234 56.6518 857.115 L62.1899 857.115 Q63.5267 860.266 64.227 863.576 Q64.9272 866.886 64.9272 870.292 Q64.9272 878.822 59.9619 883.819 Q54.9967 888.784 46.5303 888.784 Q37.7774 888.784 32.6531 884.073 Q27.4968 879.331 27.4968 871.31 Q27.4968 864.117 32.1438 859.947 Q36.7589 855.746 44.7161 855.746 M42.9973 861.602 Q38.1912 861.666 35.3266 864.308 Q32.4621 866.918 32.4621 871.246 Q32.4621 876.148 35.2312 879.108 Q38.0002 882.036 43.0292 882.482 L42.9973 861.602 Z" fill="#000000" fill-rule="evenodd" fill-opacity="1" /><path clip-path="url(#clip690)" d="M33.8307 825.477 Q33.2578 826.464 33.0032 827.641 Q32.7167 828.787 32.7167 830.188 Q32.7167 835.153 35.9632 837.827 Q39.1779 840.468 45.2253 840.468 L64.0042 840.468 L64.0042 846.357 L28.3562 846.357 L28.3562 840.468 L33.8944 840.468 Q30.6479 838.622 29.0883 835.662 Q27.4968 832.702 27.4968 828.469 Q27.4968 827.864 27.5923 827.132 Q27.656 826.4 27.8151 825.509 L33.8307 825.477 Z" fill="#000000" fill-rule="evenodd" fill-opacity="1" /><path clip-path="url(#clip690)" d="M21.7677 791.93 L39.6235 791.93 L39.6235 783.845 Q39.6235 779.357 37.3 776.907 Q34.9765 774.456 30.6797 774.456 Q26.4147 774.456 24.0912 776.907 Q21.7677 779.357 21.7677 783.845 L21.7677 791.93 M16.4842 798.359 L16.4842 783.845 Q16.4842 775.856 20.1126 771.782 Q23.7092 767.676 30.6797 767.676 Q37.7138 767.676 41.3104 771.782 Q44.907 775.856 44.907 783.845 L44.907 791.93 L64.0042 791.93 L64.0042 798.359 L16.4842 798.359 Z" fill="#000000" fill-rule="evenodd" fill-opacity="1" /><path clip-path="url(#clip690)" d="M33.8307 739.795 Q33.2578 740.781 33.0032 741.959 Q32.7167 743.105 32.7167 744.505 Q32.7167 749.47 35.9632 752.144 Q39.1779 754.786 45.2253 754.786 L64.0042 754.786 L64.0042 760.674 L28.3562 760.674 L28.3562 754.786 L33.8944 754.786 Q30.6479 752.94 29.0883 749.98 Q27.4968 747.02 27.4968 742.787 Q27.4968 742.182 27.5923 741.45 Q27.656 740.718 27.8151 739.826 L33.8307 739.795 Z" fill="#000000" fill-rule="evenodd" fill-opacity="1" /><path clip-path="url(#clip690)" d="M32.4621 721.27 Q32.4621 725.981 36.1542 728.718 Q39.8145 731.456 46.212 731.456 Q52.6095 731.456 56.3017 728.75 Q59.9619 726.013 59.9619 721.27 Q59.9619 716.592 56.2698 713.854 Q52.5777 711.117 46.212 711.117 Q39.8781 711.117 36.186 713.854 Q32.4621 716.592 32.4621 721.27 M27.4968 721.27 Q27.4968 713.632 32.4621 709.271 Q37.4273 704.911 46.212 704.911 Q54.9649 704.911 59.9619 709.271 Q64.9272 713.632 64.9272 721.27 Q64.9272 728.941 59.9619 733.302 Q54.9649 737.63 46.212 737.63 Q37.4273 737.63 32.4621 733.302 Q27.4968 728.941 27.4968 721.27 Z" fill="#000000" fill-rule="evenodd" fill-opacity="1" /><path clip-path="url(#clip690)" d="M33.7671 671.745 L14.479 671.745 L14.479 665.889 L64.0042 665.889 L64.0042 671.745 L58.657 671.745 Q61.8398 673.591 63.3994 676.424 Q64.9272 679.225 64.9272 683.172 Q64.9272 689.633 59.771 693.707 Q54.6147 697.749 46.212 697.749 Q37.8093 697.749 32.6531 693.707 Q27.4968 689.633 27.4968 683.172 Q27.4968 679.225 29.0564 676.424 Q30.5842 673.591 33.7671 671.745 M46.212 691.702 Q52.6732 691.702 56.3653 689.06 Q60.0256 686.386 60.0256 681.739 Q60.0256 677.092 56.3653 674.419 Q52.6732 671.745 46.212 671.745 Q39.7508 671.745 36.0905 674.419 Q32.3984 677.092 32.3984 681.739 Q32.3984 686.386 36.0905 689.06 Q39.7508 691.702 46.212 691.702 Z" fill="#000000" fill-rule="evenodd" fill-opacity="1" /><path clip-path="url(#clip690)" d="M49.9359 654.43 L28.3562 654.43 L28.3562 648.574 L49.7131 648.574 Q54.7739 648.574 57.3202 646.601 Q59.8346 644.627 59.8346 640.681 Q59.8346 635.938 56.8109 633.201 Q53.7872 630.432 48.5673 630.432 L28.3562 630.432 L28.3562 624.575 L64.0042 624.575 L64.0042 630.432 L58.5296 630.432 Q61.7762 632.564 63.3676 635.397 Q64.9272 638.198 64.9272 641.922 Q64.9272 648.065 61.1078 651.248 Q57.2883 654.43 49.9359 654.43 M27.4968 639.694 L27.4968 639.694 Z" fill="#000000" fill-rule="evenodd" fill-opacity="1" /><path clip-path="url(#clip690)" d="M29.7248 586.859 L35.1993 586.859 Q33.8307 589.341 33.1623 591.856 Q32.4621 594.338 32.4621 596.885 Q32.4621 602.582 36.0905 605.733 Q39.6872 608.884 46.212 608.884 Q52.7369 608.884 56.3653 605.733 Q59.9619 602.582 59.9619 596.885 Q59.9619 594.338 59.2935 591.856 Q58.5933 589.341 57.2247 586.859 L62.6355 586.859 Q63.7814 589.309 64.3543 591.951 Q64.9272 594.561 64.9272 597.521 Q64.9272 605.574 59.8664 610.316 Q54.8057 615.059 46.212 615.059 Q37.491 615.059 32.4939 610.284 Q27.4968 605.478 27.4968 597.139 Q27.4968 594.434 28.0697 591.856 Q28.6108 589.277 29.7248 586.859 Z" fill="#000000" fill-rule="evenodd" fill-opacity="1" /><path clip-path="url(#clip690)" d="M18.2347 570.881 L28.3562 570.881 L28.3562 558.818 L32.9077 558.818 L32.9077 570.881 L52.2594 570.881 Q56.6199 570.881 57.8613 569.703 Q59.1026 568.493 59.1026 564.833 L59.1026 558.818 L64.0042 558.818 L64.0042 564.833 Q64.0042 571.613 61.4897 574.191 Q58.9434 576.769 52.2594 576.769 L32.9077 576.769 L32.9077 581.066 L28.3562 581.066 L28.3562 576.769 L18.2347 576.769 L18.2347 570.881 Z" fill="#000000" fill-rule="evenodd" fill-opacity="1" /><path clip-path="url(#clip690)" d="M1170.97 17.6457 Q1162.06 17.6457 1156.79 24.2892 Q1151.57 30.9327 1151.57 42.3968 Q1151.57 53.8203 1156.79 60.4638 Q1162.06 67.1073 1170.97 67.1073 Q1179.89 67.1073 1185.07 60.4638 Q1190.3 53.8203 1190.3 42.3968 Q1190.3 30.9327 1185.07 24.2892 Q1179.89 17.6457 1170.97 17.6457 M1170.97 11.0023 Q1183.69 11.0023 1191.31 19.5497 Q1198.92 28.0566 1198.92 42.3968 Q1198.92 56.6965 1191.31 65.2439 Q1183.69 73.7508 1170.97 73.7508 Q1158.21 73.7508 1150.56 65.2439 Q1142.94 56.737 1142.94 42.3968 Q1142.94 28.0566 1150.56 19.5497 Q1158.21 11.0023 1170.97 11.0023 Z" fill="#000000" fill-rule="evenodd" fill-opacity="1" /><path clip-path="url(#clip690)" d="M1206.05 27.2059 L1213.95 27.2059 L1228.13 65.2844 L1242.31 27.2059 L1250.21 27.2059 L1233.2 72.576 L1223.07 72.576 L1206.05 27.2059 Z" fill="#000000" fill-rule="evenodd" fill-opacity="1" /><path clip-path="url(#clip690)" d="M1299.31 48.0275 L1299.31 51.6733 L1265.04 51.6733 Q1265.52 59.3701 1269.65 63.421 Q1273.83 67.4314 1281.24 67.4314 Q1285.53 67.4314 1289.54 66.3781 Q1293.59 65.3249 1297.56 63.2184 L1297.56 70.267 Q1293.55 71.9684 1289.34 72.8596 Q1285.13 73.7508 1280.79 73.7508 Q1269.94 73.7508 1263.58 67.4314 Q1257.26 61.1119 1257.26 50.3365 Q1257.26 39.1965 1263.25 32.6746 Q1269.29 26.1121 1279.5 26.1121 Q1288.65 26.1121 1293.96 32.0264 Q1299.31 37.9003 1299.31 48.0275 M1291.85 45.84 Q1291.77 39.7232 1288.41 36.0774 Q1285.09 32.4315 1279.58 32.4315 Q1273.34 32.4315 1269.57 35.9558 Q1265.85 39.4801 1265.28 45.8805 L1291.85 45.84 Z" fill="#000000" fill-rule="evenodd" fill-opacity="1" /><path clip-path="url(#clip690)" d="M1337.83 34.1734 Q1336.57 33.4443 1335.08 33.1202 Q1333.62 32.7556 1331.83 32.7556 Q1325.52 32.7556 1322.11 36.8875 Q1318.75 40.9789 1318.75 48.6757 L1318.75 72.576 L1311.26 72.576 L1311.26 27.2059 L1318.75 27.2059 L1318.75 34.2544 Q1321.1 30.1225 1324.87 28.1376 Q1328.63 26.1121 1334.02 26.1121 Q1334.79 26.1121 1335.72 26.2337 Q1336.66 26.3147 1337.79 26.5172 L1337.83 34.1734 Z" fill="#000000" fill-rule="evenodd" fill-opacity="1" /><path clip-path="url(#clip690)" d="M1345.65 9.54393 L1353.1 9.54393 L1353.1 72.576 L1345.65 72.576 L1345.65 9.54393 Z" fill="#000000" fill-rule="evenodd" fill-opacity="1" /><path clip-path="url(#clip690)" d="M1389.32 49.7694 Q1380.28 49.7694 1376.8 51.8354 Q1373.32 53.9013 1373.32 58.8839 Q1373.32 62.8538 1375.91 65.2034 Q1378.54 67.5124 1383.04 67.5124 Q1389.24 67.5124 1392.96 63.1374 Q1396.73 58.7219 1396.73 51.4303 L1396.73 49.7694 L1389.32 49.7694 M1404.18 46.6907 L1404.18 72.576 L1396.73 72.576 L1396.73 65.6895 Q1394.18 69.8214 1390.37 71.8063 Q1386.56 73.7508 1381.05 73.7508 Q1374.09 73.7508 1369.95 69.8619 Q1365.86 65.9325 1365.86 59.3701 Q1365.86 51.7138 1370.97 47.825 Q1376.11 43.9361 1386.28 43.9361 L1396.73 43.9361 L1396.73 43.2069 Q1396.73 38.0623 1393.33 35.2672 Q1389.97 32.4315 1383.85 32.4315 Q1379.96 32.4315 1376.27 33.3632 Q1372.59 34.295 1369.18 36.1584 L1369.18 29.2718 Q1373.28 27.692 1377.12 26.9223 Q1380.97 26.1121 1384.62 26.1121 Q1394.46 26.1121 1399.32 31.2163 Q1404.18 36.3204 1404.18 46.6907 Z" fill="#000000" fill-rule="evenodd" fill-opacity="1" /><path clip-path="url(#clip690)" d="M1426.75 65.7705 L1426.75 89.8329 L1419.25 89.8329 L1419.25 27.2059 L1426.75 27.2059 L1426.75 34.0924 Q1429.1 30.0415 1432.66 28.0971 Q1436.27 26.1121 1441.25 26.1121 Q1449.51 26.1121 1454.66 32.6746 Q1459.84 39.2371 1459.84 49.9314 Q1459.84 60.6258 1454.66 67.1883 Q1449.51 73.7508 1441.25 73.7508 Q1436.27 73.7508 1432.66 71.8063 Q1429.1 69.8214 1426.75 65.7705 M1452.11 49.9314 Q1452.11 41.7081 1448.7 37.0496 Q1445.34 32.3505 1439.43 32.3505 Q1433.51 32.3505 1430.11 37.0496 Q1426.75 41.7081 1426.75 49.9314 Q1426.75 58.1548 1430.11 62.8538 Q1433.51 67.5124 1439.43 67.5124 Q1445.34 67.5124 1448.7 62.8538 Q1452.11 58.1548 1452.11 49.9314 Z" fill="#000000" fill-rule="evenodd" fill-opacity="1" /><polyline clip-path="url(#clip692)" style="stroke:#000000; stroke-linecap:round; stroke-linejoin:round; stroke-width:4; stroke-opacity:1; fill:none" points="
  292.083,447.163 292.083,447.162 
  "/>
<polyline clip-path="url(#clip692)" style="stroke:#000000; stroke-linecap:round; stroke-linejoin:round; stroke-width:4; stroke-opacity:1; fill:none" points="
  334.137,468.89 334.137,468.888 
  "/>
<polyline clip-path="url(#clip692)" style="stroke:#000000; stroke-linecap:round; stroke-linejoin:round; stroke-width:4; stroke-opacity:1; fill:none" points="
  376.192,467.631 376.192,467.121 
  "/>
<polyline clip-path="url(#clip692)" style="stroke:#000000; stroke-linecap:round; stroke-linejoin:round; stroke-width:4; stroke-opacity:1; fill:none" points="
  418.246,467.685 418.246,465.038 
  "/>
<polyline clip-path="url(#clip692)" style="stroke:#000000; stroke-linecap:round; stroke-linejoin:round; stroke-width:4; stroke-opacity:1; fill:none" points="
  460.301,472.829 460.301,465.173 
  "/>
<polyline clip-path="url(#clip692)" style="stroke:#000000; stroke-linecap:round; stroke-linejoin:round; stroke-width:4; stroke-opacity:1; fill:none" points="
  502.355,483.368 502.355,454.428 
  "/>
<polyline clip-path="url(#clip692)" style="stroke:#000000; stroke-linecap:round; stroke-linejoin:round; stroke-width:4; stroke-opacity:1; fill:none" points="
  544.41,479.023 544.41,456.167 
  "/>
<polyline clip-path="url(#clip692)" style="stroke:#000000; stroke-linecap:round; stroke-linejoin:round; stroke-width:4; stroke-opacity:1; fill:none" points="
  586.465,485.361 586.465,455.458 
  "/>
<polyline clip-path="url(#clip692)" style="stroke:#000000; stroke-linecap:round; stroke-linejoin:round; stroke-width:4; stroke-opacity:1; fill:none" points="
  628.519,486.145 628.519,441.649 
  "/>
<polyline clip-path="url(#clip692)" style="stroke:#000000; stroke-linecap:round; stroke-linejoin:round; stroke-width:4; stroke-opacity:1; fill:none" points="
  670.574,490.755 670.574,454.857 
  "/>
<polyline clip-path="url(#clip692)" style="stroke:#000000; stroke-linecap:round; stroke-linejoin:round; stroke-width:4; stroke-opacity:1; fill:none" points="
  712.628,523.849 712.628,432.306 
  "/>
<polyline clip-path="url(#clip692)" style="stroke:#000000; stroke-linecap:round; stroke-linejoin:round; stroke-width:4; stroke-opacity:1; fill:none" points="
  754.683,479.575 754.683,451.634 
  "/>
<polyline clip-path="url(#clip692)" style="stroke:#000000; stroke-linecap:round; stroke-linejoin:round; stroke-width:4; stroke-opacity:1; fill:none" points="
  796.737,499.148 796.737,450.123 
  "/>
<polyline clip-path="url(#clip692)" style="stroke:#000000; stroke-linecap:round; stroke-linejoin:round; stroke-width:4; stroke-opacity:1; fill:none" points="
  838.792,466.821 838.792,459.582 
  "/>
<polyline clip-path="url(#clip692)" style="stroke:#000000; stroke-linecap:round; stroke-linejoin:round; stroke-width:4; stroke-opacity:1; fill:none" points="
  880.846,530.792 880.846,483.422 
  "/>
<polyline clip-path="url(#clip692)" style="stroke:#000000; stroke-linecap:round; stroke-linejoin:round; stroke-width:4; stroke-opacity:1; fill:none" points="
  922.901,502.484 922.901,450.717 
  "/>
<polyline clip-path="url(#clip692)" style="stroke:#000000; stroke-linecap:round; stroke-linejoin:round; stroke-width:4; stroke-opacity:1; fill:none" points="
  964.956,528.675 964.956,453.419 
  "/>
<polyline clip-path="url(#clip692)" style="stroke:#000000; stroke-linecap:round; stroke-linejoin:round; stroke-width:4; stroke-opacity:1; fill:none" points="
  1007.01,573.869 1007.01,472.963 
  "/>
<polyline clip-path="url(#clip692)" style="stroke:#000000; stroke-linecap:round; stroke-linejoin:round; stroke-width:4; stroke-opacity:1; fill:none" points="
  1049.06,486.594 1049.06,447.169 
  "/>
<polyline clip-path="url(#clip692)" style="stroke:#000000; stroke-linecap:round; stroke-linejoin:round; stroke-width:4; stroke-opacity:1; fill:none" points="
  1091.12,558.35 1091.12,450.233 
  "/>
<polyline clip-path="url(#clip692)" style="stroke:#000000; stroke-linecap:round; stroke-linejoin:round; stroke-width:4; stroke-opacity:1; fill:none" points="
  1133.17,764.341 1133.17,532.296 
  "/>
<polyline clip-path="url(#clip692)" style="stroke:#000000; stroke-linecap:round; stroke-linejoin:round; stroke-width:4; stroke-opacity:1; fill:none" points="
  1175.23,585.467 1175.23,418.582 
  "/>
<polyline clip-path="url(#clip692)" style="stroke:#000000; stroke-linecap:round; stroke-linejoin:round; stroke-width:4; stroke-opacity:1; fill:none" points="
  1217.28,490.352 1217.28,444.843 
  "/>
<polyline clip-path="url(#clip692)" style="stroke:#000000; stroke-linecap:round; stroke-linejoin:round; stroke-width:4; stroke-opacity:1; fill:none" points="
  1259.34,548.025 1259.34,488.218 
  "/>
<polyline clip-path="url(#clip692)" style="stroke:#000000; stroke-linecap:round; stroke-linejoin:round; stroke-width:4; stroke-opacity:1; fill:none" points="
  1301.39,511.684 1301.39,454.985 
  "/>
<polyline clip-path="url(#clip692)" style="stroke:#000000; stroke-linecap:round; stroke-linejoin:round; stroke-width:4; stroke-opacity:1; fill:none" points="
  1343.45,534.096 1343.45,509.029 
  "/>
<polyline clip-path="url(#clip692)" style="stroke:#000000; stroke-linecap:round; stroke-linejoin:round; stroke-width:4; stroke-opacity:1; fill:none" points="
  1385.5,519.94 1385.5,456.089 
  "/>
<polyline clip-path="url(#clip692)" style="stroke:#000000; stroke-linecap:round; stroke-linejoin:round; stroke-width:4; stroke-opacity:1; fill:none" points="
  1427.56,582.495 1427.56,430.33 
  "/>
<polyline clip-path="url(#clip692)" style="stroke:#000000; stroke-linecap:round; stroke-linejoin:round; stroke-width:4; stroke-opacity:1; fill:none" points="
  1469.61,559.819 1469.61,494.961 
  "/>
<polyline clip-path="url(#clip692)" style="stroke:#000000; stroke-linecap:round; stroke-linejoin:round; stroke-width:4; stroke-opacity:1; fill:none" points="
  1511.66,613.041 1511.66,441.071 
  "/>
<polyline clip-path="url(#clip692)" style="stroke:#000000; stroke-linecap:round; stroke-linejoin:round; stroke-width:4; stroke-opacity:1; fill:none" points="
  1553.72,537.682 1553.72,380.648 
  "/>
<polyline clip-path="url(#clip692)" style="stroke:#000000; stroke-linecap:round; stroke-linejoin:round; stroke-width:4; stroke-opacity:1; fill:none" points="
  1595.77,743.169 1595.77,592.865 
  "/>
<polyline clip-path="url(#clip692)" style="stroke:#000000; stroke-linecap:round; stroke-linejoin:round; stroke-width:4; stroke-opacity:1; fill:none" points="
  1637.83,719.799 1637.83,663.259 
  "/>
<polyline clip-path="url(#clip692)" style="stroke:#000000; stroke-linecap:round; stroke-linejoin:round; stroke-width:4; stroke-opacity:1; fill:none" points="
  1679.88,755.726 1679.88,583.929 
  "/>
<polyline clip-path="url(#clip692)" style="stroke:#000000; stroke-linecap:round; stroke-linejoin:round; stroke-width:4; stroke-opacity:1; fill:none" points="
  1721.94,719.977 1721.94,523.861 
  "/>
<polyline clip-path="url(#clip692)" style="stroke:#000000; stroke-linecap:round; stroke-linejoin:round; stroke-width:4; stroke-opacity:1; fill:none" points="
  1763.99,613.123 1763.99,459.539 
  "/>
<polyline clip-path="url(#clip692)" style="stroke:#000000; stroke-linecap:round; stroke-linejoin:round; stroke-width:4; stroke-opacity:1; fill:none" points="
  1806.05,793.536 1806.05,636.225 
  "/>
<polyline clip-path="url(#clip692)" style="stroke:#000000; stroke-linecap:round; stroke-linejoin:round; stroke-width:4; stroke-opacity:1; fill:none" points="
  1848.1,662.448 1848.1,465.788 
  "/>
<polyline clip-path="url(#clip692)" style="stroke:#000000; stroke-linecap:round; stroke-linejoin:round; stroke-width:4; stroke-opacity:1; fill:none" points="
  1890.16,612.987 1890.16,506.573 
  "/>
<polyline clip-path="url(#clip692)" style="stroke:#000000; stroke-linecap:round; stroke-linejoin:round; stroke-width:4; stroke-opacity:1; fill:none" points="
  1932.21,582.981 1932.21,403.939 
  "/>
<polyline clip-path="url(#clip692)" style="stroke:#000000; stroke-linecap:round; stroke-linejoin:round; stroke-width:4; stroke-opacity:1; fill:none" points="
  1974.26,681.467 1974.26,607.419 
  "/>
<polyline clip-path="url(#clip692)" style="stroke:#000000; stroke-linecap:round; stroke-linejoin:round; stroke-width:4; stroke-opacity:1; fill:none" points="
  2016.32,826.213 2016.32,703.923 
  "/>
<polyline clip-path="url(#clip692)" style="stroke:#000000; stroke-linecap:round; stroke-linejoin:round; stroke-width:4; stroke-opacity:1; fill:none" points="
  2058.37,551.364 2058.37,455.656 
  "/>
<polyline clip-path="url(#clip692)" style="stroke:#000000; stroke-linecap:round; stroke-linejoin:round; stroke-width:4; stroke-opacity:1; fill:none" points="
  2100.43,684.056 2100.43,571.387 
  "/>
<polyline clip-path="url(#clip692)" style="stroke:#000000; stroke-linecap:round; stroke-linejoin:round; stroke-width:4; stroke-opacity:1; fill:none" points="
  2142.48,870.937 2142.48,575.468 
  "/>
<polyline clip-path="url(#clip692)" style="stroke:#000000; stroke-linecap:round; stroke-linejoin:round; stroke-width:4; stroke-opacity:1; fill:none" points="
  2184.54,767.063 2184.54,619.155 
  "/>
<polyline clip-path="url(#clip692)" style="stroke:#000000; stroke-linecap:round; stroke-linejoin:round; stroke-width:4; stroke-opacity:1; fill:none" points="
  2226.59,749.148 2226.59,605.224 
  "/>
<polyline clip-path="url(#clip692)" style="stroke:#000000; stroke-linecap:round; stroke-linejoin:round; stroke-width:4; stroke-opacity:1; fill:none" points="
  2268.65,1038.04 2268.65,773.918 
  "/>
<polyline clip-path="url(#clip692)" style="stroke:#000000; stroke-linecap:round; stroke-linejoin:round; stroke-width:4; stroke-opacity:1; fill:none" points="
  2310.7,925.304 2310.7,687.387 
  "/>
<line clip-path="url(#clip692)" x1="300.083" y1="447.163" x2="284.083" y2="447.163" style="stroke:#000000; stroke-width:3.2; stroke-opacity:1"/>
<line clip-path="url(#clip692)" x1="300.083" y1="447.162" x2="284.083" y2="447.162" style="stroke:#000000; stroke-width:3.2; stroke-opacity:1"/>
<line clip-path="url(#clip692)" x1="342.137" y1="468.89" x2="326.137" y2="468.89" style="stroke:#000000; stroke-width:3.2; stroke-opacity:1"/>
<line clip-path="url(#clip692)" x1="342.137" y1="468.888" x2="326.137" y2="468.888" style="stroke:#000000; stroke-width:3.2; stroke-opacity:1"/>
<line clip-path="url(#clip692)" x1="384.192" y1="467.631" x2="368.192" y2="467.631" style="stroke:#000000; stroke-width:3.2; stroke-opacity:1"/>
<line clip-path="url(#clip692)" x1="384.192" y1="467.121" x2="368.192" y2="467.121" style="stroke:#000000; stroke-width:3.2; stroke-opacity:1"/>
<line clip-path="url(#clip692)" x1="426.246" y1="467.685" x2="410.246" y2="467.685" style="stroke:#000000; stroke-width:3.2; stroke-opacity:1"/>
<line clip-path="url(#clip692)" x1="426.246" y1="465.038" x2="410.246" y2="465.038" style="stroke:#000000; stroke-width:3.2; stroke-opacity:1"/>
<line clip-path="url(#clip692)" x1="468.301" y1="472.829" x2="452.301" y2="472.829" style="stroke:#000000; stroke-width:3.2; stroke-opacity:1"/>
<line clip-path="url(#clip692)" x1="468.301" y1="465.173" x2="452.301" y2="465.173" style="stroke:#000000; stroke-width:3.2; stroke-opacity:1"/>
<line clip-path="url(#clip692)" x1="510.355" y1="483.368" x2="494.355" y2="483.368" style="stroke:#000000; stroke-width:3.2; stroke-opacity:1"/>
<line clip-path="url(#clip692)" x1="510.355" y1="454.428" x2="494.355" y2="454.428" style="stroke:#000000; stroke-width:3.2; stroke-opacity:1"/>
<line clip-path="url(#clip692)" x1="552.41" y1="479.023" x2="536.41" y2="479.023" style="stroke:#000000; stroke-width:3.2; stroke-opacity:1"/>
<line clip-path="url(#clip692)" x1="552.41" y1="456.167" x2="536.41" y2="456.167" style="stroke:#000000; stroke-width:3.2; stroke-opacity:1"/>
<line clip-path="url(#clip692)" x1="594.465" y1="485.361" x2="578.465" y2="485.361" style="stroke:#000000; stroke-width:3.2; stroke-opacity:1"/>
<line clip-path="url(#clip692)" x1="594.465" y1="455.458" x2="578.465" y2="455.458" style="stroke:#000000; stroke-width:3.2; stroke-opacity:1"/>
<line clip-path="url(#clip692)" x1="636.519" y1="486.145" x2="620.519" y2="486.145" style="stroke:#000000; stroke-width:3.2; stroke-opacity:1"/>
<line clip-path="url(#clip692)" x1="636.519" y1="441.649" x2="620.519" y2="441.649" style="stroke:#000000; stroke-width:3.2; stroke-opacity:1"/>
<line clip-path="url(#clip692)" x1="678.574" y1="490.755" x2="662.574" y2="490.755" style="stroke:#000000; stroke-width:3.2; stroke-opacity:1"/>
<line clip-path="url(#clip692)" x1="678.574" y1="454.857" x2="662.574" y2="454.857" style="stroke:#000000; stroke-width:3.2; stroke-opacity:1"/>
<line clip-path="url(#clip692)" x1="720.628" y1="523.849" x2="704.628" y2="523.849" style="stroke:#000000; stroke-width:3.2; stroke-opacity:1"/>
<line clip-path="url(#clip692)" x1="720.628" y1="432.306" x2="704.628" y2="432.306" style="stroke:#000000; stroke-width:3.2; stroke-opacity:1"/>
<line clip-path="url(#clip692)" x1="762.683" y1="479.575" x2="746.683" y2="479.575" style="stroke:#000000; stroke-width:3.2; stroke-opacity:1"/>
<line clip-path="url(#clip692)" x1="762.683" y1="451.634" x2="746.683" y2="451.634" style="stroke:#000000; stroke-width:3.2; stroke-opacity:1"/>
<line clip-path="url(#clip692)" x1="804.737" y1="499.148" x2="788.737" y2="499.148" style="stroke:#000000; stroke-width:3.2; stroke-opacity:1"/>
<line clip-path="url(#clip692)" x1="804.737" y1="450.123" x2="788.737" y2="450.123" style="stroke:#000000; stroke-width:3.2; stroke-opacity:1"/>
<line clip-path="url(#clip692)" x1="846.792" y1="466.821" x2="830.792" y2="466.821" style="stroke:#000000; stroke-width:3.2; stroke-opacity:1"/>
<line clip-path="url(#clip692)" x1="846.792" y1="459.582" x2="830.792" y2="459.582" style="stroke:#000000; stroke-width:3.2; stroke-opacity:1"/>
<line clip-path="url(#clip692)" x1="888.846" y1="530.792" x2="872.846" y2="530.792" style="stroke:#000000; stroke-width:3.2; stroke-opacity:1"/>
<line clip-path="url(#clip692)" x1="888.846" y1="483.422" x2="872.846" y2="483.422" style="stroke:#000000; stroke-width:3.2; stroke-opacity:1"/>
<line clip-path="url(#clip692)" x1="930.901" y1="502.484" x2="914.901" y2="502.484" style="stroke:#000000; stroke-width:3.2; stroke-opacity:1"/>
<line clip-path="url(#clip692)" x1="930.901" y1="450.717" x2="914.901" y2="450.717" style="stroke:#000000; stroke-width:3.2; stroke-opacity:1"/>
<line clip-path="url(#clip692)" x1="972.956" y1="528.675" x2="956.956" y2="528.675" style="stroke:#000000; stroke-width:3.2; stroke-opacity:1"/>
<line clip-path="url(#clip692)" x1="972.956" y1="453.419" x2="956.956" y2="453.419" style="stroke:#000000; stroke-width:3.2; stroke-opacity:1"/>
<line clip-path="url(#clip692)" x1="1015.01" y1="573.869" x2="999.01" y2="573.869" style="stroke:#000000; stroke-width:3.2; stroke-opacity:1"/>
<line clip-path="url(#clip692)" x1="1015.01" y1="472.963" x2="999.01" y2="472.963" style="stroke:#000000; stroke-width:3.2; stroke-opacity:1"/>
<line clip-path="url(#clip692)" x1="1057.06" y1="486.594" x2="1041.06" y2="486.594" style="stroke:#000000; stroke-width:3.2; stroke-opacity:1"/>
<line clip-path="url(#clip692)" x1="1057.06" y1="447.169" x2="1041.06" y2="447.169" style="stroke:#000000; stroke-width:3.2; stroke-opacity:1"/>
<line clip-path="url(#clip692)" x1="1099.12" y1="558.35" x2="1083.12" y2="558.35" style="stroke:#000000; stroke-width:3.2; stroke-opacity:1"/>
<line clip-path="url(#clip692)" x1="1099.12" y1="450.233" x2="1083.12" y2="450.233" style="stroke:#000000; stroke-width:3.2; stroke-opacity:1"/>
<line clip-path="url(#clip692)" x1="1141.17" y1="764.341" x2="1125.17" y2="764.341" style="stroke:#000000; stroke-width:3.2; stroke-opacity:1"/>
<line clip-path="url(#clip692)" x1="1141.17" y1="532.296" x2="1125.17" y2="532.296" style="stroke:#000000; stroke-width:3.2; stroke-opacity:1"/>
<line clip-path="url(#clip692)" x1="1183.23" y1="585.467" x2="1167.23" y2="585.467" style="stroke:#000000; stroke-width:3.2; stroke-opacity:1"/>
<line clip-path="url(#clip692)" x1="1183.23" y1="418.582" x2="1167.23" y2="418.582" style="stroke:#000000; stroke-width:3.2; stroke-opacity:1"/>
<line clip-path="url(#clip692)" x1="1225.28" y1="490.352" x2="1209.28" y2="490.352" style="stroke:#000000; stroke-width:3.2; stroke-opacity:1"/>
<line clip-path="url(#clip692)" x1="1225.28" y1="444.843" x2="1209.28" y2="444.843" style="stroke:#000000; stroke-width:3.2; stroke-opacity:1"/>
<line clip-path="url(#clip692)" x1="1267.34" y1="548.025" x2="1251.34" y2="548.025" style="stroke:#000000; stroke-width:3.2; stroke-opacity:1"/>
<line clip-path="url(#clip692)" x1="1267.34" y1="488.218" x2="1251.34" y2="488.218" style="stroke:#000000; stroke-width:3.2; stroke-opacity:1"/>
<line clip-path="url(#clip692)" x1="1309.39" y1="511.684" x2="1293.39" y2="511.684" style="stroke:#000000; stroke-width:3.2; stroke-opacity:1"/>
<line clip-path="url(#clip692)" x1="1309.39" y1="454.985" x2="1293.39" y2="454.985" style="stroke:#000000; stroke-width:3.2; stroke-opacity:1"/>
<line clip-path="url(#clip692)" x1="1351.45" y1="534.096" x2="1335.45" y2="534.096" style="stroke:#000000; stroke-width:3.2; stroke-opacity:1"/>
<line clip-path="url(#clip692)" x1="1351.45" y1="509.029" x2="1335.45" y2="509.029" style="stroke:#000000; stroke-width:3.2; stroke-opacity:1"/>
<line clip-path="url(#clip692)" x1="1393.5" y1="519.94" x2="1377.5" y2="519.94" style="stroke:#000000; stroke-width:3.2; stroke-opacity:1"/>
<line clip-path="url(#clip692)" x1="1393.5" y1="456.089" x2="1377.5" y2="456.089" style="stroke:#000000; stroke-width:3.2; stroke-opacity:1"/>
<line clip-path="url(#clip692)" x1="1435.56" y1="582.495" x2="1419.56" y2="582.495" style="stroke:#000000; stroke-width:3.2; stroke-opacity:1"/>
<line clip-path="url(#clip692)" x1="1435.56" y1="430.33" x2="1419.56" y2="430.33" style="stroke:#000000; stroke-width:3.2; stroke-opacity:1"/>
<line clip-path="url(#clip692)" x1="1477.61" y1="559.819" x2="1461.61" y2="559.819" style="stroke:#000000; stroke-width:3.2; stroke-opacity:1"/>
<line clip-path="url(#clip692)" x1="1477.61" y1="494.961" x2="1461.61" y2="494.961" style="stroke:#000000; stroke-width:3.2; stroke-opacity:1"/>
<line clip-path="url(#clip692)" x1="1519.66" y1="613.041" x2="1503.66" y2="613.041" style="stroke:#000000; stroke-width:3.2; stroke-opacity:1"/>
<line clip-path="url(#clip692)" x1="1519.66" y1="441.071" x2="1503.66" y2="441.071" style="stroke:#000000; stroke-width:3.2; stroke-opacity:1"/>
<line clip-path="url(#clip692)" x1="1561.72" y1="537.682" x2="1545.72" y2="537.682" style="stroke:#000000; stroke-width:3.2; stroke-opacity:1"/>
<line clip-path="url(#clip692)" x1="1561.72" y1="380.648" x2="1545.72" y2="380.648" style="stroke:#000000; stroke-width:3.2; stroke-opacity:1"/>
<line clip-path="url(#clip692)" x1="1603.77" y1="743.169" x2="1587.77" y2="743.169" style="stroke:#000000; stroke-width:3.2; stroke-opacity:1"/>
<line clip-path="url(#clip692)" x1="1603.77" y1="592.865" x2="1587.77" y2="592.865" style="stroke:#000000; stroke-width:3.2; stroke-opacity:1"/>
<line clip-path="url(#clip692)" x1="1645.83" y1="719.799" x2="1629.83" y2="719.799" style="stroke:#000000; stroke-width:3.2; stroke-opacity:1"/>
<line clip-path="url(#clip692)" x1="1645.83" y1="663.259" x2="1629.83" y2="663.259" style="stroke:#000000; stroke-width:3.2; stroke-opacity:1"/>
<line clip-path="url(#clip692)" x1="1687.88" y1="755.726" x2="1671.88" y2="755.726" style="stroke:#000000; stroke-width:3.2; stroke-opacity:1"/>
<line clip-path="url(#clip692)" x1="1687.88" y1="583.929" x2="1671.88" y2="583.929" style="stroke:#000000; stroke-width:3.2; stroke-opacity:1"/>
<line clip-path="url(#clip692)" x1="1729.94" y1="719.977" x2="1713.94" y2="719.977" style="stroke:#000000; stroke-width:3.2; stroke-opacity:1"/>
<line clip-path="url(#clip692)" x1="1729.94" y1="523.861" x2="1713.94" y2="523.861" style="stroke:#000000; stroke-width:3.2; stroke-opacity:1"/>
<line clip-path="url(#clip692)" x1="1771.99" y1="613.123" x2="1755.99" y2="613.123" style="stroke:#000000; stroke-width:3.2; stroke-opacity:1"/>
<line clip-path="url(#clip692)" x1="1771.99" y1="459.539" x2="1755.99" y2="459.539" style="stroke:#000000; stroke-width:3.2; stroke-opacity:1"/>
<line clip-path="url(#clip692)" x1="1814.05" y1="793.536" x2="1798.05" y2="793.536" style="stroke:#000000; stroke-width:3.2; stroke-opacity:1"/>
<line clip-path="url(#clip692)" x1="1814.05" y1="636.225" x2="1798.05" y2="636.225" style="stroke:#000000; stroke-width:3.2; stroke-opacity:1"/>
<line clip-path="url(#clip692)" x1="1856.1" y1="662.448" x2="1840.1" y2="662.448" style="stroke:#000000; stroke-width:3.2; stroke-opacity:1"/>
<line clip-path="url(#clip692)" x1="1856.1" y1="465.788" x2="1840.1" y2="465.788" style="stroke:#000000; stroke-width:3.2; stroke-opacity:1"/>
<line clip-path="url(#clip692)" x1="1898.16" y1="612.987" x2="1882.16" y2="612.987" style="stroke:#000000; stroke-width:3.2; stroke-opacity:1"/>
<line clip-path="url(#clip692)" x1="1898.16" y1="506.573" x2="1882.16" y2="506.573" style="stroke:#000000; stroke-width:3.2; stroke-opacity:1"/>
<line clip-path="url(#clip692)" x1="1940.21" y1="582.981" x2="1924.21" y2="582.981" style="stroke:#000000; stroke-width:3.2; stroke-opacity:1"/>
<line clip-path="url(#clip692)" x1="1940.21" y1="403.939" x2="1924.21" y2="403.939" style="stroke:#000000; stroke-width:3.2; stroke-opacity:1"/>
<line clip-path="url(#clip692)" x1="1982.26" y1="681.467" x2="1966.26" y2="681.467" style="stroke:#000000; stroke-width:3.2; stroke-opacity:1"/>
<line clip-path="url(#clip692)" x1="1982.26" y1="607.419" x2="1966.26" y2="607.419" style="stroke:#000000; stroke-width:3.2; stroke-opacity:1"/>
<line clip-path="url(#clip692)" x1="2024.32" y1="826.213" x2="2008.32" y2="826.213" style="stroke:#000000; stroke-width:3.2; stroke-opacity:1"/>
<line clip-path="url(#clip692)" x1="2024.32" y1="703.923" x2="2008.32" y2="703.923" style="stroke:#000000; stroke-width:3.2; stroke-opacity:1"/>
<line clip-path="url(#clip692)" x1="2066.37" y1="551.364" x2="2050.37" y2="551.364" style="stroke:#000000; stroke-width:3.2; stroke-opacity:1"/>
<line clip-path="url(#clip692)" x1="2066.37" y1="455.656" x2="2050.37" y2="455.656" style="stroke:#000000; stroke-width:3.2; stroke-opacity:1"/>
<line clip-path="url(#clip692)" x1="2108.43" y1="684.056" x2="2092.43" y2="684.056" style="stroke:#000000; stroke-width:3.2; stroke-opacity:1"/>
<line clip-path="url(#clip692)" x1="2108.43" y1="571.387" x2="2092.43" y2="571.387" style="stroke:#000000; stroke-width:3.2; stroke-opacity:1"/>
<line clip-path="url(#clip692)" x1="2150.48" y1="870.937" x2="2134.48" y2="870.937" style="stroke:#000000; stroke-width:3.2; stroke-opacity:1"/>
<line clip-path="url(#clip692)" x1="2150.48" y1="575.468" x2="2134.48" y2="575.468" style="stroke:#000000; stroke-width:3.2; stroke-opacity:1"/>
<line clip-path="url(#clip692)" x1="2192.54" y1="767.063" x2="2176.54" y2="767.063" style="stroke:#000000; stroke-width:3.2; stroke-opacity:1"/>
<line clip-path="url(#clip692)" x1="2192.54" y1="619.155" x2="2176.54" y2="619.155" style="stroke:#000000; stroke-width:3.2; stroke-opacity:1"/>
<line clip-path="url(#clip692)" x1="2234.59" y1="749.148" x2="2218.59" y2="749.148" style="stroke:#000000; stroke-width:3.2; stroke-opacity:1"/>
<line clip-path="url(#clip692)" x1="2234.59" y1="605.224" x2="2218.59" y2="605.224" style="stroke:#000000; stroke-width:3.2; stroke-opacity:1"/>
<line clip-path="url(#clip692)" x1="2276.65" y1="1038.04" x2="2260.65" y2="1038.04" style="stroke:#000000; stroke-width:3.2; stroke-opacity:1"/>
<line clip-path="url(#clip692)" x1="2276.65" y1="773.918" x2="2260.65" y2="773.918" style="stroke:#000000; stroke-width:3.2; stroke-opacity:1"/>
<line clip-path="url(#clip692)" x1="2318.7" y1="925.304" x2="2302.7" y2="925.304" style="stroke:#000000; stroke-width:3.2; stroke-opacity:1"/>
<line clip-path="url(#clip692)" x1="2318.7" y1="687.387" x2="2302.7" y2="687.387" style="stroke:#000000; stroke-width:3.2; stroke-opacity:1"/>
<circle clip-path="url(#clip692)" cx="292.083" cy="447.162" r="7.2" fill="#009af9" fill-rule="evenodd" fill-opacity="1" stroke="#000000" stroke-opacity="1" stroke-width="3.2"/>
<circle clip-path="url(#clip692)" cx="334.137" cy="468.889" r="7.2" fill="#009af9" fill-rule="evenodd" fill-opacity="1" stroke="#000000" stroke-opacity="1" stroke-width="3.2"/>
<circle clip-path="url(#clip692)" cx="376.192" cy="467.376" r="7.2" fill="#009af9" fill-rule="evenodd" fill-opacity="1" stroke="#000000" stroke-opacity="1" stroke-width="3.2"/>
<circle clip-path="url(#clip692)" cx="418.246" cy="466.361" r="7.2" fill="#009af9" fill-rule="evenodd" fill-opacity="1" stroke="#000000" stroke-opacity="1" stroke-width="3.2"/>
<circle clip-path="url(#clip692)" cx="460.301" cy="469.001" r="7.2" fill="#009af9" fill-rule="evenodd" fill-opacity="1" stroke="#000000" stroke-opacity="1" stroke-width="3.2"/>
<circle clip-path="url(#clip692)" cx="502.355" cy="468.898" r="7.2" fill="#009af9" fill-rule="evenodd" fill-opacity="1" stroke="#000000" stroke-opacity="1" stroke-width="3.2"/>
<circle clip-path="url(#clip692)" cx="544.41" cy="467.595" r="7.2" fill="#009af9" fill-rule="evenodd" fill-opacity="1" stroke="#000000" stroke-opacity="1" stroke-width="3.2"/>
<circle clip-path="url(#clip692)" cx="586.465" cy="470.41" r="7.2" fill="#009af9" fill-rule="evenodd" fill-opacity="1" stroke="#000000" stroke-opacity="1" stroke-width="3.2"/>
<circle clip-path="url(#clip692)" cx="628.519" cy="463.897" r="7.2" fill="#009af9" fill-rule="evenodd" fill-opacity="1" stroke="#000000" stroke-opacity="1" stroke-width="3.2"/>
<circle clip-path="url(#clip692)" cx="670.574" cy="472.806" r="7.2" fill="#009af9" fill-rule="evenodd" fill-opacity="1" stroke="#000000" stroke-opacity="1" stroke-width="3.2"/>
<circle clip-path="url(#clip692)" cx="712.628" cy="478.078" r="7.2" fill="#009af9" fill-rule="evenodd" fill-opacity="1" stroke="#000000" stroke-opacity="1" stroke-width="3.2"/>
<circle clip-path="url(#clip692)" cx="754.683" cy="465.605" r="7.2" fill="#009af9" fill-rule="evenodd" fill-opacity="1" stroke="#000000" stroke-opacity="1" stroke-width="3.2"/>
<circle clip-path="url(#clip692)" cx="796.737" cy="474.636" r="7.2" fill="#009af9" fill-rule="evenodd" fill-opacity="1" stroke="#000000" stroke-opacity="1" stroke-width="3.2"/>
<circle clip-path="url(#clip692)" cx="838.792" cy="463.202" r="7.2" fill="#009af9" fill-rule="evenodd" fill-opacity="1" stroke="#000000" stroke-opacity="1" stroke-width="3.2"/>
<circle clip-path="url(#clip692)" cx="880.846" cy="507.107" r="7.2" fill="#009af9" fill-rule="evenodd" fill-opacity="1" stroke="#000000" stroke-opacity="1" stroke-width="3.2"/>
<circle clip-path="url(#clip692)" cx="922.901" cy="476.601" r="7.2" fill="#009af9" fill-rule="evenodd" fill-opacity="1" stroke="#000000" stroke-opacity="1" stroke-width="3.2"/>
<circle clip-path="url(#clip692)" cx="964.956" cy="491.047" r="7.2" fill="#009af9" fill-rule="evenodd" fill-opacity="1" stroke="#000000" stroke-opacity="1" stroke-width="3.2"/>
<circle clip-path="url(#clip692)" cx="1007.01" cy="523.416" r="7.2" fill="#009af9" fill-rule="evenodd" fill-opacity="1" stroke="#000000" stroke-opacity="1" stroke-width="3.2"/>
<circle clip-path="url(#clip692)" cx="1049.06" cy="466.881" r="7.2" fill="#009af9" fill-rule="evenodd" fill-opacity="1" stroke="#000000" stroke-opacity="1" stroke-width="3.2"/>
<circle clip-path="url(#clip692)" cx="1091.12" cy="504.291" r="7.2" fill="#009af9" fill-rule="evenodd" fill-opacity="1" stroke="#000000" stroke-opacity="1" stroke-width="3.2"/>
<circle clip-path="url(#clip692)" cx="1133.17" cy="648.319" r="7.2" fill="#009af9" fill-rule="evenodd" fill-opacity="1" stroke="#000000" stroke-opacity="1" stroke-width="3.2"/>
<circle clip-path="url(#clip692)" cx="1175.23" cy="502.024" r="7.2" fill="#009af9" fill-rule="evenodd" fill-opacity="1" stroke="#000000" stroke-opacity="1" stroke-width="3.2"/>
<circle clip-path="url(#clip692)" cx="1217.28" cy="467.597" r="7.2" fill="#009af9" fill-rule="evenodd" fill-opacity="1" stroke="#000000" stroke-opacity="1" stroke-width="3.2"/>
<circle clip-path="url(#clip692)" cx="1259.34" cy="518.121" r="7.2" fill="#009af9" fill-rule="evenodd" fill-opacity="1" stroke="#000000" stroke-opacity="1" stroke-width="3.2"/>
<circle clip-path="url(#clip692)" cx="1301.39" cy="483.334" r="7.2" fill="#009af9" fill-rule="evenodd" fill-opacity="1" stroke="#000000" stroke-opacity="1" stroke-width="3.2"/>
<circle clip-path="url(#clip692)" cx="1343.45" cy="521.562" r="7.2" fill="#009af9" fill-rule="evenodd" fill-opacity="1" stroke="#000000" stroke-opacity="1" stroke-width="3.2"/>
<circle clip-path="url(#clip692)" cx="1385.5" cy="488.015" r="7.2" fill="#009af9" fill-rule="evenodd" fill-opacity="1" stroke="#000000" stroke-opacity="1" stroke-width="3.2"/>
<circle clip-path="url(#clip692)" cx="1427.56" cy="506.413" r="7.2" fill="#009af9" fill-rule="evenodd" fill-opacity="1" stroke="#000000" stroke-opacity="1" stroke-width="3.2"/>
<circle clip-path="url(#clip692)" cx="1469.61" cy="527.39" r="7.2" fill="#009af9" fill-rule="evenodd" fill-opacity="1" stroke="#000000" stroke-opacity="1" stroke-width="3.2"/>
<circle clip-path="url(#clip692)" cx="1511.66" cy="527.056" r="7.2" fill="#009af9" fill-rule="evenodd" fill-opacity="1" stroke="#000000" stroke-opacity="1" stroke-width="3.2"/>
<circle clip-path="url(#clip692)" cx="1553.72" cy="459.165" r="7.2" fill="#009af9" fill-rule="evenodd" fill-opacity="1" stroke="#000000" stroke-opacity="1" stroke-width="3.2"/>
<circle clip-path="url(#clip692)" cx="1595.77" cy="668.017" r="7.2" fill="#009af9" fill-rule="evenodd" fill-opacity="1" stroke="#000000" stroke-opacity="1" stroke-width="3.2"/>
<circle clip-path="url(#clip692)" cx="1637.83" cy="691.529" r="7.2" fill="#009af9" fill-rule="evenodd" fill-opacity="1" stroke="#000000" stroke-opacity="1" stroke-width="3.2"/>
<circle clip-path="url(#clip692)" cx="1679.88" cy="669.828" r="7.2" fill="#009af9" fill-rule="evenodd" fill-opacity="1" stroke="#000000" stroke-opacity="1" stroke-width="3.2"/>
<circle clip-path="url(#clip692)" cx="1721.94" cy="621.919" r="7.2" fill="#009af9" fill-rule="evenodd" fill-opacity="1" stroke="#000000" stroke-opacity="1" stroke-width="3.2"/>
<circle clip-path="url(#clip692)" cx="1763.99" cy="536.331" r="7.2" fill="#009af9" fill-rule="evenodd" fill-opacity="1" stroke="#000000" stroke-opacity="1" stroke-width="3.2"/>
<circle clip-path="url(#clip692)" cx="1806.05" cy="714.881" r="7.2" fill="#009af9" fill-rule="evenodd" fill-opacity="1" stroke="#000000" stroke-opacity="1" stroke-width="3.2"/>
<circle clip-path="url(#clip692)" cx="1848.1" cy="564.118" r="7.2" fill="#009af9" fill-rule="evenodd" fill-opacity="1" stroke="#000000" stroke-opacity="1" stroke-width="3.2"/>
<circle clip-path="url(#clip692)" cx="1890.16" cy="559.78" r="7.2" fill="#009af9" fill-rule="evenodd" fill-opacity="1" stroke="#000000" stroke-opacity="1" stroke-width="3.2"/>
<circle clip-path="url(#clip692)" cx="1932.21" cy="493.46" r="7.2" fill="#009af9" fill-rule="evenodd" fill-opacity="1" stroke="#000000" stroke-opacity="1" stroke-width="3.2"/>
<circle clip-path="url(#clip692)" cx="1974.26" cy="644.443" r="7.2" fill="#009af9" fill-rule="evenodd" fill-opacity="1" stroke="#000000" stroke-opacity="1" stroke-width="3.2"/>
<circle clip-path="url(#clip692)" cx="2016.32" cy="765.068" r="7.2" fill="#009af9" fill-rule="evenodd" fill-opacity="1" stroke="#000000" stroke-opacity="1" stroke-width="3.2"/>
<circle clip-path="url(#clip692)" cx="2058.37" cy="503.51" r="7.2" fill="#009af9" fill-rule="evenodd" fill-opacity="1" stroke="#000000" stroke-opacity="1" stroke-width="3.2"/>
<circle clip-path="url(#clip692)" cx="2100.43" cy="627.721" r="7.2" fill="#009af9" fill-rule="evenodd" fill-opacity="1" stroke="#000000" stroke-opacity="1" stroke-width="3.2"/>
<circle clip-path="url(#clip692)" cx="2142.48" cy="723.203" r="7.2" fill="#009af9" fill-rule="evenodd" fill-opacity="1" stroke="#000000" stroke-opacity="1" stroke-width="3.2"/>
<circle clip-path="url(#clip692)" cx="2184.54" cy="693.109" r="7.2" fill="#009af9" fill-rule="evenodd" fill-opacity="1" stroke="#000000" stroke-opacity="1" stroke-width="3.2"/>
<circle clip-path="url(#clip692)" cx="2226.59" cy="677.186" r="7.2" fill="#009af9" fill-rule="evenodd" fill-opacity="1" stroke="#000000" stroke-opacity="1" stroke-width="3.2"/>
<circle clip-path="url(#clip692)" cx="2268.65" cy="905.978" r="7.2" fill="#009af9" fill-rule="evenodd" fill-opacity="1" stroke="#000000" stroke-opacity="1" stroke-width="3.2"/>
<circle clip-path="url(#clip692)" cx="2310.7" cy="806.346" r="7.2" fill="#009af9" fill-rule="evenodd" fill-opacity="1" stroke="#000000" stroke-opacity="1" stroke-width="3.2"/>
<path clip-path="url(#clip690)" d="
M1714.62 1379.86 L2282.66 1379.86 L2282.66 1276.18 L1714.62 1276.18  Z
  " fill="#ffffff" fill-rule="evenodd" fill-opacity="1"/>
<polyline clip-path="url(#clip690)" style="stroke:#000000; stroke-linecap:round; stroke-linejoin:round; stroke-width:4; stroke-opacity:1; fill:none" points="
  1714.62,1379.86 2282.66,1379.86 2282.66,1276.18 1714.62,1276.18 1714.62,1379.86 
  "/>
<circle clip-path="url(#clip690)" cx="1808.07" cy="1328.02" r="23.04" fill="#009af9" fill-rule="evenodd" fill-opacity="1" stroke="#000000" stroke-opacity="1" stroke-width="10.24"/>
<path clip-path="url(#clip690)" d="M1921.87 1324.35 Q1923.47 1321.48 1925.69 1320.11 Q1927.91 1318.75 1930.92 1318.75 Q1934.97 1318.75 1937.17 1321.59 Q1939.37 1324.42 1939.37 1329.65 L1939.37 1345.3 L1935.09 1345.3 L1935.09 1329.79 Q1935.09 1326.06 1933.77 1324.25 Q1932.45 1322.45 1929.74 1322.45 Q1926.43 1322.45 1924.51 1324.65 Q1922.59 1326.85 1922.59 1330.64 L1922.59 1345.3 L1918.31 1345.3 L1918.31 1329.79 Q1918.31 1326.04 1916.99 1324.25 Q1915.67 1322.45 1912.91 1322.45 Q1909.65 1322.45 1907.73 1324.67 Q1905.81 1326.87 1905.81 1330.64 L1905.81 1345.3 L1901.53 1345.3 L1901.53 1319.37 L1905.81 1319.37 L1905.81 1323.4 Q1907.27 1321.01 1909.3 1319.88 Q1911.34 1318.75 1914.14 1318.75 Q1916.97 1318.75 1918.93 1320.18 Q1920.92 1321.62 1921.87 1324.35 Z" fill="#000000" fill-rule="evenodd" fill-opacity="1" /><path clip-path="url(#clip690)" d="M1956.59 1329.63 Q1955.44 1327.63 1953.1 1327.63 Q1950.76 1327.63 1949.6 1329.63 Q1948.42 1331.62 1948.42 1335.6 Q1948.42 1339.6 1949.6 1341.59 Q1950.76 1343.58 1953.1 1343.58 Q1955.44 1343.58 1956.59 1341.59 Q1957.78 1339.6 1957.78 1335.6 Q1957.78 1331.62 1956.59 1329.63 M1953.1 1325.57 Q1956.83 1325.57 1958.79 1328.14 Q1960.76 1330.71 1960.76 1335.6 Q1960.76 1340.5 1958.79 1343.07 Q1956.83 1345.64 1953.1 1345.64 Q1949.35 1345.64 1947.38 1343.07 Q1945.41 1340.5 1945.41 1335.6 Q1945.41 1330.71 1947.38 1328.14 Q1949.35 1325.57 1953.1 1325.57 Z" fill="#000000" fill-rule="evenodd" fill-opacity="1" /><path clip-path="url(#clip690)" d="M1967.43 1323.77 L1997.1 1323.77 L1997.1 1327.66 L1967.43 1327.66 L1967.43 1323.77 M1967.43 1333.21 L1997.1 1333.21 L1997.1 1337.15 L1967.43 1337.15 L1967.43 1333.21 Z" fill="#000000" fill-rule="evenodd" fill-opacity="1" /><path clip-path="url(#clip690)" d="M2017.2 1313.81 Q2013.59 1313.81 2011.76 1317.38 Q2009.95 1320.92 2009.95 1328.05 Q2009.95 1335.16 2011.76 1338.72 Q2013.59 1342.26 2017.2 1342.26 Q2020.83 1342.26 2022.64 1338.72 Q2024.46 1335.16 2024.46 1328.05 Q2024.46 1320.92 2022.64 1317.38 Q2020.83 1313.81 2017.2 1313.81 M2017.2 1310.11 Q2023.01 1310.11 2026.06 1314.72 Q2029.14 1319.3 2029.14 1328.05 Q2029.14 1336.78 2026.06 1341.38 Q2023.01 1345.97 2017.2 1345.97 Q2011.39 1345.97 2008.31 1341.38 Q2005.25 1336.78 2005.25 1328.05 Q2005.25 1319.3 2008.31 1314.72 Q2011.39 1310.11 2017.2 1310.11 Z" fill="#000000" fill-rule="evenodd" fill-opacity="1" /><path clip-path="url(#clip690)" d="M2037.36 1339.42 L2042.24 1339.42 L2042.24 1345.3 L2037.36 1345.3 L2037.36 1339.42 Z" fill="#000000" fill-rule="evenodd" fill-opacity="1" /><path clip-path="url(#clip690)" d="M2062.43 1328.88 Q2059.09 1328.88 2057.17 1330.67 Q2055.27 1332.45 2055.27 1335.57 Q2055.27 1338.7 2057.17 1340.48 Q2059.09 1342.26 2062.43 1342.26 Q2065.76 1342.26 2067.68 1340.48 Q2069.6 1338.68 2069.6 1335.57 Q2069.6 1332.45 2067.68 1330.67 Q2065.78 1328.88 2062.43 1328.88 M2057.75 1326.89 Q2054.74 1326.15 2053.05 1324.09 Q2051.39 1322.03 2051.39 1319.07 Q2051.39 1314.93 2054.33 1312.52 Q2057.29 1310.11 2062.43 1310.11 Q2067.59 1310.11 2070.53 1312.52 Q2073.47 1314.93 2073.47 1319.07 Q2073.47 1322.03 2071.78 1324.09 Q2070.11 1326.15 2067.13 1326.89 Q2070.51 1327.68 2072.38 1329.97 Q2074.28 1332.26 2074.28 1335.57 Q2074.28 1340.6 2071.2 1343.28 Q2068.14 1345.97 2062.43 1345.97 Q2056.71 1345.97 2053.63 1343.28 Q2050.58 1340.6 2050.58 1335.57 Q2050.58 1332.26 2052.47 1329.97 Q2054.37 1327.68 2057.75 1326.89 M2056.04 1319.51 Q2056.04 1322.19 2057.71 1323.7 Q2059.4 1325.2 2062.43 1325.2 Q2065.44 1325.2 2067.13 1323.7 Q2068.84 1322.19 2068.84 1319.51 Q2068.84 1316.82 2067.13 1315.32 Q2065.44 1313.81 2062.43 1313.81 Q2059.4 1313.81 2057.71 1315.32 Q2056.04 1316.82 2056.04 1319.51 Z" fill="#000000" fill-rule="evenodd" fill-opacity="1" /><path clip-path="url(#clip690)" d="M2083.08 1339.42 L2087.96 1339.42 L2087.96 1343.4 L2084.16 1350.81 L2081.18 1350.81 L2083.08 1343.4 L2083.08 1339.42 Z" fill="#000000" fill-rule="evenodd" fill-opacity="1" /><path clip-path="url(#clip690)" d="M2120.81 1340.37 L2120.81 1331.08 L2113.17 1331.08 L2113.17 1327.24 L2125.44 1327.24 L2125.44 1342.08 Q2122.73 1344 2119.46 1345 Q2116.2 1345.97 2112.5 1345.97 Q2104.39 1345.97 2099.81 1341.25 Q2095.25 1336.5 2095.25 1328.05 Q2095.25 1319.58 2099.81 1314.86 Q2104.39 1310.11 2112.5 1310.11 Q2115.88 1310.11 2118.91 1310.94 Q2121.96 1311.78 2124.53 1313.4 L2124.53 1318.38 Q2121.94 1316.18 2119.02 1315.06 Q2116.11 1313.95 2112.89 1313.95 Q2106.55 1313.95 2103.35 1317.5 Q2100.18 1321.04 2100.18 1328.05 Q2100.18 1335.04 2103.35 1338.58 Q2106.55 1342.12 2112.89 1342.12 Q2115.37 1342.12 2117.31 1341.71 Q2119.26 1341.27 2120.81 1340.37 Z" fill="#000000" fill-rule="evenodd" fill-opacity="1" /><path clip-path="url(#clip690)" d="M2135.53 1327.19 L2145.34 1327.19 L2145.34 1329.83 L2131.5 1329.83 L2131.5 1327.29 Q2132.29 1326.57 2133.75 1325.27 Q2141.71 1318.21 2141.71 1316.04 Q2141.71 1314.51 2140.51 1313.58 Q2139.3 1312.63 2137.33 1312.63 Q2136.13 1312.63 2134.72 1313.05 Q2133.31 1313.44 2131.64 1314.25 L2131.64 1311.41 Q2133.42 1310.76 2134.95 1310.44 Q2136.5 1310.11 2137.82 1310.11 Q2141.18 1310.11 2143.19 1311.64 Q2145.2 1313.17 2145.2 1315.67 Q2145.2 1318.88 2137.54 1325.46 Q2136.25 1326.57 2135.53 1327.19 Z" fill="#000000" fill-rule="evenodd" fill-opacity="1" /><path clip-path="url(#clip690)" d="M2153.35 1323.77 L2183.03 1323.77 L2183.03 1327.66 L2153.35 1327.66 L2153.35 1323.77 M2153.35 1333.21 L2183.03 1333.21 L2183.03 1337.15 L2153.35 1337.15 L2153.35 1333.21 Z" fill="#000000" fill-rule="evenodd" fill-opacity="1" /><path clip-path="url(#clip690)" d="M2193.93 1341.36 L2201.57 1341.36 L2201.57 1315 L2193.26 1316.66 L2193.26 1312.4 L2201.52 1310.74 L2206.2 1310.74 L2206.2 1341.36 L2213.84 1341.36 L2213.84 1345.3 L2193.93 1345.3 L2193.93 1341.36 Z" fill="#000000" fill-rule="evenodd" fill-opacity="1" /><path clip-path="url(#clip690)" d="M2223.28 1339.42 L2228.17 1339.42 L2228.17 1345.3 L2223.28 1345.3 L2223.28 1339.42 Z" fill="#000000" fill-rule="evenodd" fill-opacity="1" /><path clip-path="url(#clip690)" d="M2238.4 1310.74 L2256.76 1310.74 L2256.76 1314.67 L2242.68 1314.67 L2242.68 1323.14 Q2243.7 1322.8 2244.72 1322.63 Q2245.74 1322.45 2246.76 1322.45 Q2252.54 1322.45 2255.92 1325.62 Q2259.3 1328.79 2259.3 1334.21 Q2259.3 1339.79 2255.83 1342.89 Q2252.36 1345.97 2246.04 1345.97 Q2243.86 1345.97 2241.59 1345.6 Q2239.35 1345.23 2236.94 1344.49 L2236.94 1339.79 Q2239.02 1340.92 2241.25 1341.48 Q2243.47 1342.03 2245.94 1342.03 Q2249.95 1342.03 2252.29 1339.93 Q2254.63 1337.82 2254.63 1334.21 Q2254.63 1330.6 2252.29 1328.49 Q2249.95 1326.38 2245.94 1326.38 Q2244.07 1326.38 2242.19 1326.8 Q2240.34 1327.22 2238.4 1328.1 L2238.4 1310.74 Z" fill="#000000" fill-rule="evenodd" fill-opacity="1" /></svg>
