<?xml version="1.0" encoding="utf-8"?>
<svg xmlns="http://www.w3.org/2000/svg" xmlns:xlink="http://www.w3.org/1999/xlink" width="600" height="400" viewBox="0 0 2400 1600">
<defs>
  <clipPath id="clip780">
    <rect x="0" y="0" width="2400" height="1600"/>
  </clipPath>
</defs>
<path clip-path="url(#clip780)" d="
M0 1600 L2400 1600 L2400 0 L0 0  Z
  " fill="#ffffff" fill-rule="evenodd" fill-opacity="1"/>
<defs>
  <clipPath id="clip781">
    <rect x="480" y="0" width="1681" height="1600"/>
  </clipPath>
</defs>
<path clip-path="url(#clip780)" d="
M310.352 1423.18 L2352.76 1423.18 L2352.76 123.472 L310.352 123.472  Z
  " fill="#ffffff" fill-rule="evenodd" fill-opacity="1"/>
<defs>
  <clipPath id="clip782">
    <rect x="310" y="123" width="2043" height="1301"/>
  </clipPath>
</defs>
<polyline clip-path="url(#clip782)" style="stroke:#000000; stroke-linecap:round; stroke-linejoin:round; stroke-width:2; stroke-opacity:0.1; fill:none" points="
  310.352,1423.18 310.352,123.472 
  "/>
<polyline clip-path="url(#clip782)" style="stroke:#000000; stroke-linecap:round; stroke-linejoin:round; stroke-width:2; stroke-opacity:0.1; fill:none" points="
  602.124,1423.18 602.124,123.472 
  "/>
<polyline clip-path="url(#clip782)" style="stroke:#000000; stroke-linecap:round; stroke-linejoin:round; stroke-width:2; stroke-opacity:0.1; fill:none" points="
  893.896,1423.18 893.896,123.472 
  "/>
<polyline clip-path="url(#clip782)" style="stroke:#000000; stroke-linecap:round; stroke-linejoin:round; stroke-width:2; stroke-opacity:0.1; fill:none" points="
  1185.67,1423.18 1185.67,123.472 
  "/>
<polyline clip-path="url(#clip782)" style="stroke:#000000; stroke-linecap:round; stroke-linejoin:round; stroke-width:2; stroke-opacity:0.1; fill:none" points="
  1477.44,1423.18 1477.44,123.472 
  "/>
<polyline clip-path="url(#clip782)" style="stroke:#000000; stroke-linecap:round; stroke-linejoin:round; stroke-width:2; stroke-opacity:0.1; fill:none" points="
  1769.21,1423.18 1769.21,123.472 
  "/>
<polyline clip-path="url(#clip782)" style="stroke:#000000; stroke-linecap:round; stroke-linejoin:round; stroke-width:2; stroke-opacity:0.1; fill:none" points="
  2060.98,1423.18 2060.98,123.472 
  "/>
<polyline clip-path="url(#clip782)" style="stroke:#000000; stroke-linecap:round; stroke-linejoin:round; stroke-width:2; stroke-opacity:0.1; fill:none" points="
  2352.76,1423.18 2352.76,123.472 
  "/>
<polyline clip-path="url(#clip780)" style="stroke:#000000; stroke-linecap:round; stroke-linejoin:round; stroke-width:4; stroke-opacity:1; fill:none" points="
  310.352,1423.18 2352.76,1423.18 
  "/>
<polyline clip-path="url(#clip780)" style="stroke:#000000; stroke-linecap:round; stroke-linejoin:round; stroke-width:4; stroke-opacity:1; fill:none" points="
  310.352,1423.18 310.352,1404.28 
  "/>
<polyline clip-path="url(#clip780)" style="stroke:#000000; stroke-linecap:round; stroke-linejoin:round; stroke-width:4; stroke-opacity:1; fill:none" points="
  602.124,1423.18 602.124,1404.28 
  "/>
<polyline clip-path="url(#clip780)" style="stroke:#000000; stroke-linecap:round; stroke-linejoin:round; stroke-width:4; stroke-opacity:1; fill:none" points="
  893.896,1423.18 893.896,1404.28 
  "/>
<polyline clip-path="url(#clip780)" style="stroke:#000000; stroke-linecap:round; stroke-linejoin:round; stroke-width:4; stroke-opacity:1; fill:none" points="
  1185.67,1423.18 1185.67,1404.28 
  "/>
<polyline clip-path="url(#clip780)" style="stroke:#000000; stroke-linecap:round; stroke-linejoin:round; stroke-width:4; stroke-opacity:1; fill:none" points="
  1477.44,1423.18 1477.44,1404.28 
  "/>
<polyline clip-path="url(#clip780)" style="stroke:#000000; stroke-linecap:round; stroke-linejoin:round; stroke-width:4; stroke-opacity:1; fill:none" points="
  1769.21,1423.18 1769.21,1404.28 
  "/>
<polyline clip-path="url(#clip780)" style="stroke:#000000; stroke-linecap:round; stroke-linejoin:round; stroke-width:4; stroke-opacity:1; fill:none" points="
  2060.98,1423.18 2060.98,1404.28 
  "/>
<polyline clip-path="url(#clip780)" style="stroke:#000000; stroke-linecap:round; stroke-linejoin:round; stroke-width:4; stroke-opacity:1; fill:none" points="
  2352.76,1423.18 2352.76,1404.28 
  "/>
<path clip-path="url(#clip780)" d="M310.352 1454.1 Q306.741 1454.1 304.912 1457.66 Q303.107 1461.2 303.107 1468.33 Q303.107 1475.44 304.912 1479.01 Q306.741 1482.55 310.352 1482.55 Q313.986 1482.55 315.792 1479.01 Q317.62 1475.44 317.62 1468.33 Q317.62 1461.2 315.792 1457.66 Q313.986 1454.1 310.352 1454.1 M310.352 1450.39 Q316.162 1450.39 319.218 1455 Q322.296 1459.58 322.296 1468.33 Q322.296 1477.06 319.218 1481.67 Q316.162 1486.25 310.352 1486.25 Q304.542 1486.25 301.463 1481.67 Q298.408 1477.06 298.408 1468.33 Q298.408 1459.58 301.463 1455 Q304.542 1450.39 310.352 1450.39 Z" fill="#000000" fill-rule="evenodd" fill-opacity="1" /><path clip-path="url(#clip780)" d="M592.402 1451.02 L610.758 1451.02 L610.758 1454.96 L596.684 1454.96 L596.684 1463.43 Q597.703 1463.08 598.721 1462.92 Q599.74 1462.73 600.758 1462.73 Q606.545 1462.73 609.925 1465.9 Q613.304 1469.08 613.304 1474.49 Q613.304 1480.07 609.832 1483.17 Q606.36 1486.25 600.041 1486.25 Q597.865 1486.25 595.596 1485.88 Q593.351 1485.51 590.943 1484.77 L590.943 1480.07 Q593.027 1481.2 595.249 1481.76 Q597.471 1482.32 599.948 1482.32 Q603.953 1482.32 606.291 1480.21 Q608.628 1478.1 608.628 1474.49 Q608.628 1470.88 606.291 1468.77 Q603.953 1466.67 599.948 1466.67 Q598.073 1466.67 596.198 1467.08 Q594.346 1467.5 592.402 1468.38 L592.402 1451.02 Z" fill="#000000" fill-rule="evenodd" fill-opacity="1" /><path clip-path="url(#clip780)" d="M868.584 1481.64 L876.222 1481.64 L876.222 1455.28 L867.912 1456.95 L867.912 1452.69 L876.176 1451.02 L880.852 1451.02 L880.852 1481.64 L888.491 1481.64 L888.491 1485.58 L868.584 1485.58 L868.584 1481.64 Z" fill="#000000" fill-rule="evenodd" fill-opacity="1" /><path clip-path="url(#clip780)" d="M907.935 1454.1 Q904.324 1454.1 902.495 1457.66 Q900.69 1461.2 900.69 1468.33 Q900.69 1475.44 902.495 1479.01 Q904.324 1482.55 907.935 1482.55 Q911.569 1482.55 913.375 1479.01 Q915.204 1475.44 915.204 1468.33 Q915.204 1461.2 913.375 1457.66 Q911.569 1454.1 907.935 1454.1 M907.935 1450.39 Q913.745 1450.39 916.801 1455 Q919.88 1459.58 919.88 1468.33 Q919.88 1477.06 916.801 1481.67 Q913.745 1486.25 907.935 1486.25 Q902.125 1486.25 899.046 1481.67 Q895.991 1477.06 895.991 1468.33 Q895.991 1459.58 899.046 1455 Q902.125 1450.39 907.935 1450.39 Z" fill="#000000" fill-rule="evenodd" fill-opacity="1" /><path clip-path="url(#clip780)" d="M1160.85 1481.64 L1168.49 1481.64 L1168.49 1455.28 L1160.18 1456.95 L1160.18 1452.69 L1168.45 1451.02 L1173.12 1451.02 L1173.12 1481.64 L1180.76 1481.64 L1180.76 1485.58 L1160.85 1485.58 L1160.85 1481.64 Z" fill="#000000" fill-rule="evenodd" fill-opacity="1" /><path clip-path="url(#clip780)" d="M1190.25 1451.02 L1208.61 1451.02 L1208.61 1454.96 L1194.53 1454.96 L1194.53 1463.43 Q1195.55 1463.08 1196.57 1462.92 Q1197.59 1462.73 1198.61 1462.73 Q1204.39 1462.73 1207.77 1465.9 Q1211.15 1469.08 1211.15 1474.49 Q1211.15 1480.07 1207.68 1483.17 Q1204.21 1486.25 1197.89 1486.25 Q1195.71 1486.25 1193.45 1485.88 Q1191.2 1485.51 1188.79 1484.77 L1188.79 1480.07 Q1190.88 1481.2 1193.1 1481.76 Q1195.32 1482.32 1197.8 1482.32 Q1201.8 1482.32 1204.14 1480.21 Q1206.48 1478.1 1206.48 1474.49 Q1206.48 1470.88 1204.14 1468.77 Q1201.8 1466.67 1197.8 1466.67 Q1195.92 1466.67 1194.05 1467.08 Q1192.2 1467.5 1190.25 1468.38 L1190.25 1451.02 Z" fill="#000000" fill-rule="evenodd" fill-opacity="1" /><path clip-path="url(#clip780)" d="M1456.21 1481.64 L1472.53 1481.64 L1472.53 1485.58 L1450.59 1485.58 L1450.59 1481.64 Q1453.25 1478.89 1457.83 1474.26 Q1462.44 1469.61 1463.62 1468.27 Q1465.87 1465.74 1466.75 1464.01 Q1467.65 1462.25 1467.65 1460.56 Q1467.65 1457.8 1465.7 1456.07 Q1463.78 1454.33 1460.68 1454.33 Q1458.48 1454.33 1456.03 1455.09 Q1453.6 1455.86 1450.82 1457.41 L1450.82 1452.69 Q1453.64 1451.55 1456.1 1450.97 Q1458.55 1450.39 1460.59 1450.39 Q1465.96 1450.39 1469.15 1453.08 Q1472.35 1455.77 1472.35 1460.26 Q1472.35 1462.39 1471.54 1464.31 Q1470.75 1466.2 1468.64 1468.8 Q1468.06 1469.47 1464.96 1472.69 Q1461.86 1475.88 1456.21 1481.64 Z" fill="#000000" fill-rule="evenodd" fill-opacity="1" /><path clip-path="url(#clip780)" d="M1492.35 1454.1 Q1488.74 1454.1 1486.91 1457.66 Q1485.1 1461.2 1485.1 1468.33 Q1485.1 1475.44 1486.91 1479.01 Q1488.74 1482.55 1492.35 1482.55 Q1495.98 1482.55 1497.79 1479.01 Q1499.62 1475.44 1499.62 1468.33 Q1499.62 1461.2 1497.79 1457.66 Q1495.98 1454.1 1492.35 1454.1 M1492.35 1450.39 Q1498.16 1450.39 1501.21 1455 Q1504.29 1459.58 1504.29 1468.33 Q1504.29 1477.06 1501.21 1481.67 Q1498.16 1486.25 1492.35 1486.25 Q1486.54 1486.25 1483.46 1481.67 Q1480.4 1477.06 1480.4 1468.33 Q1480.4 1459.58 1483.46 1455 Q1486.54 1450.39 1492.35 1450.39 Z" fill="#000000" fill-rule="evenodd" fill-opacity="1" /><path clip-path="url(#clip780)" d="M1748.48 1481.64 L1764.8 1481.64 L1764.8 1485.58 L1742.86 1485.58 L1742.86 1481.64 Q1745.52 1478.89 1750.1 1474.26 Q1754.71 1469.61 1755.89 1468.27 Q1758.14 1465.74 1759.02 1464.01 Q1759.92 1462.25 1759.92 1460.56 Q1759.92 1457.8 1757.97 1456.07 Q1756.05 1454.33 1752.95 1454.33 Q1750.75 1454.33 1748.3 1455.09 Q1745.87 1455.86 1743.09 1457.41 L1743.09 1452.69 Q1745.91 1451.55 1748.37 1450.97 Q1750.82 1450.39 1752.86 1450.39 Q1758.23 1450.39 1761.42 1453.08 Q1764.62 1455.77 1764.62 1460.26 Q1764.62 1462.39 1763.81 1464.31 Q1763.02 1466.2 1760.91 1468.8 Q1760.33 1469.47 1757.23 1472.69 Q1754.13 1475.88 1748.48 1481.64 Z" fill="#000000" fill-rule="evenodd" fill-opacity="1" /><path clip-path="url(#clip780)" d="M1774.66 1451.02 L1793.02 1451.02 L1793.02 1454.96 L1778.95 1454.96 L1778.95 1463.43 Q1779.96 1463.08 1780.98 1462.92 Q1782 1462.73 1783.02 1462.73 Q1788.81 1462.73 1792.19 1465.9 Q1795.57 1469.08 1795.57 1474.49 Q1795.57 1480.07 1792.09 1483.17 Q1788.62 1486.25 1782.3 1486.25 Q1780.13 1486.25 1777.86 1485.88 Q1775.61 1485.51 1773.2 1484.77 L1773.2 1480.07 Q1775.29 1481.2 1777.51 1481.76 Q1779.73 1482.32 1782.21 1482.32 Q1786.21 1482.32 1788.55 1480.21 Q1790.89 1478.1 1790.89 1474.49 Q1790.89 1470.88 1788.55 1468.77 Q1786.21 1466.67 1782.21 1466.67 Q1780.33 1466.67 1778.46 1467.08 Q1776.61 1467.5 1774.66 1468.38 L1774.66 1451.02 Z" fill="#000000" fill-rule="evenodd" fill-opacity="1" /><path clip-path="url(#clip780)" d="M2049.83 1466.95 Q2053.18 1467.66 2055.06 1469.93 Q2056.96 1472.2 2056.96 1475.53 Q2056.96 1480.65 2053.44 1483.45 Q2049.92 1486.25 2043.44 1486.25 Q2041.26 1486.25 2038.95 1485.81 Q2036.66 1485.39 2034.2 1484.54 L2034.2 1480.02 Q2036.15 1481.16 2038.46 1481.74 Q2040.78 1482.32 2043.3 1482.32 Q2047.7 1482.32 2049.99 1480.58 Q2052.3 1478.84 2052.3 1475.53 Q2052.3 1472.48 2050.15 1470.77 Q2048.02 1469.03 2044.2 1469.03 L2040.17 1469.03 L2040.17 1465.19 L2044.39 1465.19 Q2047.84 1465.19 2049.66 1463.82 Q2051.49 1462.43 2051.49 1459.84 Q2051.49 1457.18 2049.6 1455.77 Q2047.72 1454.33 2044.2 1454.33 Q2042.28 1454.33 2040.08 1454.75 Q2037.88 1455.16 2035.24 1456.04 L2035.24 1451.88 Q2037.91 1451.14 2040.22 1450.77 Q2042.56 1450.39 2044.62 1450.39 Q2049.94 1450.39 2053.04 1452.83 Q2056.15 1455.23 2056.15 1459.35 Q2056.15 1462.22 2054.5 1464.21 Q2052.86 1466.18 2049.83 1466.95 Z" fill="#000000" fill-rule="evenodd" fill-opacity="1" /><path clip-path="url(#clip780)" d="M2075.82 1454.1 Q2072.21 1454.1 2070.38 1457.66 Q2068.58 1461.2 2068.58 1468.33 Q2068.58 1475.44 2070.38 1479.01 Q2072.21 1482.55 2075.82 1482.55 Q2079.46 1482.55 2081.26 1479.01 Q2083.09 1475.44 2083.09 1468.33 Q2083.09 1461.2 2081.26 1457.66 Q2079.46 1454.1 2075.82 1454.1 M2075.82 1450.39 Q2081.63 1450.39 2084.69 1455 Q2087.77 1459.58 2087.77 1468.33 Q2087.77 1477.06 2084.69 1481.67 Q2081.63 1486.25 2075.82 1486.25 Q2070.01 1486.25 2066.93 1481.67 Q2063.88 1477.06 2063.88 1468.33 Q2063.88 1459.58 2066.93 1455 Q2070.01 1450.39 2075.82 1450.39 Z" fill="#000000" fill-rule="evenodd" fill-opacity="1" /><path clip-path="url(#clip780)" d="M2342.1 1466.95 Q2345.45 1467.66 2347.33 1469.93 Q2349.23 1472.2 2349.23 1475.53 Q2349.23 1480.65 2345.71 1483.45 Q2342.19 1486.25 2335.71 1486.25 Q2333.53 1486.25 2331.22 1485.81 Q2328.93 1485.39 2326.47 1484.54 L2326.47 1480.02 Q2328.42 1481.16 2330.73 1481.74 Q2333.05 1482.32 2335.57 1482.32 Q2339.97 1482.32 2342.26 1480.58 Q2344.57 1478.84 2344.57 1475.53 Q2344.57 1472.48 2342.42 1470.77 Q2340.29 1469.03 2336.47 1469.03 L2332.44 1469.03 L2332.44 1465.19 L2336.66 1465.19 Q2340.11 1465.19 2341.93 1463.82 Q2343.76 1462.43 2343.76 1459.84 Q2343.76 1457.18 2341.86 1455.77 Q2339.99 1454.33 2336.47 1454.33 Q2334.55 1454.33 2332.35 1454.75 Q2330.15 1455.16 2327.51 1456.04 L2327.51 1451.88 Q2330.18 1451.14 2332.49 1450.77 Q2334.83 1450.39 2336.89 1450.39 Q2342.21 1450.39 2345.31 1452.83 Q2348.42 1455.23 2348.42 1459.35 Q2348.42 1462.22 2346.77 1464.21 Q2345.13 1466.18 2342.1 1466.95 Z" fill="#000000" fill-rule="evenodd" fill-opacity="1" /><path clip-path="url(#clip780)" d="M2358.14 1451.02 L2376.49 1451.02 L2376.49 1454.96 L2362.42 1454.96 L2362.42 1463.43 Q2363.44 1463.08 2364.46 1462.92 Q2365.48 1462.73 2366.49 1462.73 Q2372.28 1462.73 2375.66 1465.9 Q2379.04 1469.08 2379.04 1474.49 Q2379.04 1480.07 2375.57 1483.17 Q2372.1 1486.25 2365.78 1486.25 Q2363.6 1486.25 2361.33 1485.88 Q2359.09 1485.51 2356.68 1484.77 L2356.68 1480.07 Q2358.76 1481.2 2360.99 1481.76 Q2363.21 1482.32 2365.68 1482.32 Q2369.69 1482.32 2372.03 1480.21 Q2374.36 1478.1 2374.36 1474.49 Q2374.36 1470.88 2372.03 1468.77 Q2369.69 1466.67 2365.68 1466.67 Q2363.81 1466.67 2361.93 1467.08 Q2360.08 1467.5 2358.14 1468.38 L2358.14 1451.02 Z" fill="#000000" fill-rule="evenodd" fill-opacity="1" /><path clip-path="url(#clip780)" d="M1160.43 1522.08 L1160.43 1528.35 Q1156.77 1526.6 1153.52 1525.74 Q1150.27 1524.88 1147.25 1524.88 Q1142 1524.88 1139.13 1526.92 Q1136.3 1528.96 1136.3 1532.71 Q1136.3 1535.87 1138.18 1537.49 Q1140.09 1539.08 1145.37 1540.07 L1149.26 1540.86 Q1156.45 1542.23 1159.85 1545.7 Q1163.29 1549.14 1163.29 1554.93 Q1163.29 1561.84 1158.65 1565.4 Q1154.03 1568.97 1145.09 1568.97 Q1141.71 1568.97 1137.89 1568.2 Q1134.11 1567.44 1130.03 1565.94 L1130.03 1559.32 Q1133.95 1561.52 1137.7 1562.63 Q1141.46 1563.75 1145.09 1563.75 Q1150.59 1563.75 1153.58 1561.58 Q1156.58 1559.42 1156.58 1555.41 Q1156.58 1551.91 1154.41 1549.93 Q1152.28 1547.96 1147.38 1546.97 L1143.46 1546.21 Q1136.27 1544.78 1133.06 1541.72 Q1129.84 1538.67 1129.84 1533.22 Q1129.84 1526.92 1134.26 1523.29 Q1138.72 1519.66 1146.52 1519.66 Q1149.86 1519.66 1153.33 1520.27 Q1156.8 1520.87 1160.43 1522.08 Z" fill="#000000" fill-rule="evenodd" fill-opacity="1" /><path clip-path="url(#clip780)" d="M1173.06 1532.4 L1178.92 1532.4 L1178.92 1568.04 L1173.06 1568.04 L1173.06 1532.4 M1173.06 1518.52 L1178.92 1518.52 L1178.92 1525.93 L1173.06 1525.93 L1173.06 1518.52 Z" fill="#000000" fill-rule="evenodd" fill-opacity="1" /><path clip-path="url(#clip780)" d="M1196.97 1522.27 L1196.97 1532.4 L1209.03 1532.4 L1209.03 1536.95 L1196.97 1536.95 L1196.97 1556.3 Q1196.97 1560.66 1198.14 1561.9 Q1199.35 1563.14 1203.01 1563.14 L1209.03 1563.14 L1209.03 1568.04 L1203.01 1568.04 Q1196.23 1568.04 1193.66 1565.53 Q1191.08 1562.98 1191.08 1556.3 L1191.08 1536.95 L1186.78 1536.95 L1186.78 1532.4 L1191.08 1532.4 L1191.08 1522.27 L1196.97 1522.27 Z" fill="#000000" fill-rule="evenodd" fill-opacity="1" /><path clip-path="url(#clip780)" d="M1247.22 1548.76 L1247.22 1551.62 L1220.3 1551.62 Q1220.68 1557.67 1223.93 1560.85 Q1227.2 1564 1233.03 1564 Q1236.4 1564 1239.55 1563.17 Q1242.74 1562.35 1245.86 1560.69 L1245.86 1566.23 Q1242.7 1567.57 1239.39 1568.27 Q1236.08 1568.97 1232.68 1568.97 Q1224.15 1568.97 1219.15 1564 Q1214.19 1559.04 1214.19 1550.57 Q1214.19 1541.82 1218.9 1536.69 Q1223.64 1531.54 1231.66 1531.54 Q1238.85 1531.54 1243.02 1536.18 Q1247.22 1540.8 1247.22 1548.76 M1241.37 1547.04 Q1241.3 1542.23 1238.66 1539.37 Q1236.05 1536.5 1231.72 1536.5 Q1226.82 1536.5 1223.86 1539.27 Q1220.93 1542.04 1220.49 1547.07 L1241.37 1547.04 Z" fill="#000000" fill-rule="evenodd" fill-opacity="1" /><path clip-path="url(#clip780)" d="M1277.81 1520.52 L1286.47 1520.52 L1307.54 1560.28 L1307.54 1520.52 L1313.78 1520.52 L1313.78 1568.04 L1305.12 1568.04 L1284.05 1528.29 L1284.05 1568.04 L1277.81 1568.04 L1277.81 1520.52 Z" fill="#000000" fill-rule="evenodd" fill-opacity="1" /><path clip-path="url(#clip780)" d="M1325.71 1553.98 L1325.71 1532.4 L1331.57 1532.4 L1331.57 1553.75 Q1331.57 1558.81 1333.54 1561.36 Q1335.52 1563.87 1339.46 1563.87 Q1344.21 1563.87 1346.94 1560.85 Q1349.71 1557.83 1349.71 1552.61 L1349.71 1532.4 L1355.57 1532.4 L1355.57 1568.04 L1349.71 1568.04 L1349.71 1562.57 Q1347.58 1565.82 1344.75 1567.41 Q1341.95 1568.97 1338.22 1568.97 Q1332.08 1568.97 1328.9 1565.15 Q1325.71 1561.33 1325.71 1553.98 M1340.45 1531.54 L1340.45 1531.54 Z" fill="#000000" fill-rule="evenodd" fill-opacity="1" /><path clip-path="url(#clip780)" d="M1395.39 1539.24 Q1397.58 1535.29 1400.64 1533.41 Q1403.69 1531.54 1407.83 1531.54 Q1413.4 1531.54 1416.42 1535.45 Q1419.45 1539.33 1419.45 1546.53 L1419.45 1568.04 L1413.56 1568.04 L1413.56 1546.72 Q1413.56 1541.59 1411.75 1539.11 Q1409.93 1536.63 1406.21 1536.63 Q1401.66 1536.63 1399.01 1539.65 Q1396.37 1542.68 1396.37 1547.9 L1396.37 1568.04 L1390.48 1568.04 L1390.48 1546.72 Q1390.48 1541.56 1388.67 1539.11 Q1386.86 1536.63 1383.07 1536.63 Q1378.58 1536.63 1375.94 1539.68 Q1373.3 1542.71 1373.3 1547.9 L1373.3 1568.04 L1367.41 1568.04 L1367.41 1532.4 L1373.3 1532.4 L1373.3 1537.93 Q1375.3 1534.66 1378.1 1533.1 Q1380.9 1531.54 1384.76 1531.54 Q1388.64 1531.54 1391.34 1533.51 Q1394.08 1535.48 1395.39 1539.24 Z" fill="#000000" fill-rule="evenodd" fill-opacity="1" /><path clip-path="url(#clip780)" d="M1456.72 1550.25 Q1456.72 1543.79 1454.05 1540.13 Q1451.4 1536.44 1446.76 1536.44 Q1442.11 1536.44 1439.44 1540.13 Q1436.79 1543.79 1436.79 1550.25 Q1436.79 1556.71 1439.44 1560.4 Q1442.11 1564.07 1446.76 1564.07 Q1451.4 1564.07 1454.05 1560.4 Q1456.72 1556.71 1456.72 1550.25 M1436.79 1537.81 Q1438.64 1534.62 1441.44 1533.1 Q1444.27 1531.54 1448.19 1531.54 Q1454.68 1531.54 1458.72 1536.69 Q1462.8 1541.85 1462.8 1550.25 Q1462.8 1558.65 1458.72 1563.81 Q1454.68 1568.97 1448.19 1568.97 Q1444.27 1568.97 1441.44 1567.44 Q1438.64 1565.88 1436.79 1562.7 L1436.79 1568.04 L1430.91 1568.04 L1430.91 1518.52 L1436.79 1518.52 L1436.79 1537.81 Z" fill="#000000" fill-rule="evenodd" fill-opacity="1" /><path clip-path="url(#clip780)" d="M1503 1548.76 L1503 1551.62 L1476.07 1551.62 Q1476.45 1557.67 1479.7 1560.85 Q1482.98 1564 1488.8 1564 Q1492.18 1564 1495.33 1563.17 Q1498.51 1562.35 1501.63 1560.69 L1501.63 1566.23 Q1498.48 1567.57 1495.17 1568.27 Q1491.86 1568.97 1488.45 1568.97 Q1479.92 1568.97 1474.93 1564 Q1469.96 1559.04 1469.96 1550.57 Q1469.96 1541.82 1474.67 1536.69 Q1479.41 1531.54 1487.43 1531.54 Q1494.63 1531.54 1498.8 1536.18 Q1503 1540.8 1503 1548.76 M1497.14 1547.04 Q1497.08 1542.23 1494.44 1539.37 Q1491.83 1536.5 1487.5 1536.5 Q1482.6 1536.5 1479.64 1539.27 Q1476.71 1542.04 1476.26 1547.07 L1497.14 1547.04 Z" fill="#000000" fill-rule="evenodd" fill-opacity="1" /><path clip-path="url(#clip780)" d="M1533.27 1537.87 Q1532.28 1537.3 1531.1 1537.04 Q1529.96 1536.76 1528.56 1536.76 Q1523.59 1536.76 1520.92 1540 Q1518.28 1543.22 1518.28 1549.27 L1518.28 1568.04 L1512.39 1568.04 L1512.39 1532.4 L1518.28 1532.4 L1518.28 1537.93 Q1520.12 1534.69 1523.08 1533.13 Q1526.04 1531.54 1530.28 1531.54 Q1530.88 1531.54 1531.61 1531.63 Q1532.34 1531.7 1533.24 1531.85 L1533.27 1537.87 Z" fill="#000000" fill-rule="evenodd" fill-opacity="1" /><polyline clip-path="url(#clip782)" style="stroke:#000000; stroke-linecap:round; stroke-linejoin:round; stroke-width:2; stroke-opacity:0.1; fill:none" points="
  310.352,1423.18 2352.76,1423.18 
  "/>
<polyline clip-path="url(#clip782)" style="stroke:#000000; stroke-linecap:round; stroke-linejoin:round; stroke-width:2; stroke-opacity:0.1; fill:none" points="
  310.352,1202.23 2352.76,1202.23 
  "/>
<polyline clip-path="url(#clip782)" style="stroke:#000000; stroke-linecap:round; stroke-linejoin:round; stroke-width:2; stroke-opacity:0.1; fill:none" points="
  310.352,981.279 2352.76,981.279 
  "/>
<polyline clip-path="url(#clip782)" style="stroke:#000000; stroke-linecap:round; stroke-linejoin:round; stroke-width:2; stroke-opacity:0.1; fill:none" points="
  310.352,760.329 2352.76,760.329 
  "/>
<polyline clip-path="url(#clip782)" style="stroke:#000000; stroke-linecap:round; stroke-linejoin:round; stroke-width:2; stroke-opacity:0.1; fill:none" points="
  310.352,539.379 2352.76,539.379 
  "/>
<polyline clip-path="url(#clip782)" style="stroke:#000000; stroke-linecap:round; stroke-linejoin:round; stroke-width:2; stroke-opacity:0.1; fill:none" points="
  310.352,318.428 2352.76,318.428 
  "/>
<polyline clip-path="url(#clip780)" style="stroke:#000000; stroke-linecap:round; stroke-linejoin:round; stroke-width:4; stroke-opacity:1; fill:none" points="
  310.352,1423.18 310.352,123.472 
  "/>
<polyline clip-path="url(#clip780)" style="stroke:#000000; stroke-linecap:round; stroke-linejoin:round; stroke-width:4; stroke-opacity:1; fill:none" points="
  310.352,1423.18 329.25,1423.18 
  "/>
<polyline clip-path="url(#clip780)" style="stroke:#000000; stroke-linecap:round; stroke-linejoin:round; stroke-width:4; stroke-opacity:1; fill:none" points="
  310.352,1202.23 329.25,1202.23 
  "/>
<polyline clip-path="url(#clip780)" style="stroke:#000000; stroke-linecap:round; stroke-linejoin:round; stroke-width:4; stroke-opacity:1; fill:none" points="
  310.352,981.279 329.25,981.279 
  "/>
<polyline clip-path="url(#clip780)" style="stroke:#000000; stroke-linecap:round; stroke-linejoin:round; stroke-width:4; stroke-opacity:1; fill:none" points="
  310.352,760.329 329.25,760.329 
  "/>
<polyline clip-path="url(#clip780)" style="stroke:#000000; stroke-linecap:round; stroke-linejoin:round; stroke-width:4; stroke-opacity:1; fill:none" points="
  310.352,539.379 329.25,539.379 
  "/>
<polyline clip-path="url(#clip780)" style="stroke:#000000; stroke-linecap:round; stroke-linejoin:round; stroke-width:4; stroke-opacity:1; fill:none" points="
  310.352,318.428 329.25,318.428 
  "/>
<path clip-path="url(#clip780)" d="M126.691 1408.98 Q123.08 1408.98 121.251 1412.54 Q119.445 1416.08 119.445 1423.21 Q119.445 1430.32 121.251 1433.89 Q123.08 1437.43 126.691 1437.43 Q130.325 1437.43 132.13 1433.89 Q133.959 1430.32 133.959 1423.21 Q133.959 1416.08 132.13 1412.54 Q130.325 1408.98 126.691 1408.98 M126.691 1405.27 Q132.501 1405.27 135.556 1409.88 Q138.635 1414.46 138.635 1423.21 Q138.635 1431.94 135.556 1436.55 Q132.501 1441.13 126.691 1441.13 Q120.88 1441.13 117.802 1436.55 Q114.746 1431.94 114.746 1423.21 Q114.746 1414.46 117.802 1409.88 Q120.88 1405.27 126.691 1405.27 Z" fill="#000000" fill-rule="evenodd" fill-opacity="1" /><path clip-path="url(#clip780)" d="M146.853 1434.58 L151.737 1434.58 L151.737 1440.46 L146.853 1440.46 L146.853 1434.58 Z" fill="#000000" fill-rule="evenodd" fill-opacity="1" /><path clip-path="url(#clip780)" d="M174.769 1409.97 L162.964 1428.42 L174.769 1428.42 L174.769 1409.97 M173.542 1405.9 L179.422 1405.9 L179.422 1428.42 L184.352 1428.42 L184.352 1432.31 L179.422 1432.31 L179.422 1440.46 L174.769 1440.46 L174.769 1432.31 L159.167 1432.31 L159.167 1427.8 L173.542 1405.9 Z" fill="#000000" fill-rule="evenodd" fill-opacity="1" /><path clip-path="url(#clip780)" d="M202.662 1421.32 Q199.514 1421.32 197.662 1423.47 Q195.834 1425.62 195.834 1429.37 Q195.834 1433.1 197.662 1435.27 Q199.514 1437.43 202.662 1437.43 Q205.811 1437.43 207.639 1435.27 Q209.491 1433.1 209.491 1429.37 Q209.491 1425.62 207.639 1423.47 Q205.811 1421.32 202.662 1421.32 M211.945 1406.66 L211.945 1410.92 Q210.186 1410.09 208.38 1409.65 Q206.598 1409.21 204.838 1409.21 Q200.209 1409.21 197.755 1412.33 Q195.325 1415.46 194.977 1421.78 Q196.343 1419.77 198.403 1418.7 Q200.463 1417.61 202.94 1417.61 Q208.149 1417.61 211.158 1420.78 Q214.19 1423.93 214.19 1429.37 Q214.19 1434.7 211.042 1437.91 Q207.894 1441.13 202.662 1441.13 Q196.667 1441.13 193.496 1436.55 Q190.325 1431.94 190.325 1423.21 Q190.325 1415.02 194.213 1410.16 Q198.102 1405.27 204.653 1405.27 Q206.412 1405.27 208.195 1405.62 Q210 1405.97 211.945 1406.66 Z" fill="#000000" fill-rule="evenodd" fill-opacity="1" /><path clip-path="url(#clip780)" d="M232.246 1408.98 Q228.635 1408.98 226.806 1412.54 Q225 1416.08 225 1423.21 Q225 1430.32 226.806 1433.89 Q228.635 1437.43 232.246 1437.43 Q235.88 1437.43 237.685 1433.89 Q239.514 1430.32 239.514 1423.21 Q239.514 1416.08 237.685 1412.54 Q235.88 1408.98 232.246 1408.98 M232.246 1405.27 Q238.056 1405.27 241.111 1409.88 Q244.19 1414.46 244.19 1423.21 Q244.19 1431.94 241.111 1436.55 Q238.056 1441.13 232.246 1441.13 Q226.435 1441.13 223.357 1436.55 Q220.301 1431.94 220.301 1423.21 Q220.301 1414.46 223.357 1409.88 Q226.435 1405.27 232.246 1405.27 Z" fill="#000000" fill-rule="evenodd" fill-opacity="1" /><path clip-path="url(#clip780)" d="M262.408 1408.98 Q258.796 1408.98 256.968 1412.54 Q255.162 1416.08 255.162 1423.21 Q255.162 1430.32 256.968 1433.89 Q258.796 1437.43 262.408 1437.43 Q266.042 1437.43 267.847 1433.89 Q269.676 1430.32 269.676 1423.21 Q269.676 1416.08 267.847 1412.54 Q266.042 1408.98 262.408 1408.98 M262.408 1405.27 Q268.218 1405.27 271.273 1409.88 Q274.352 1414.46 274.352 1423.21 Q274.352 1431.94 271.273 1436.55 Q268.218 1441.13 262.408 1441.13 Q256.597 1441.13 253.519 1436.55 Q250.463 1431.94 250.463 1423.21 Q250.463 1414.46 253.519 1409.88 Q256.597 1405.27 262.408 1405.27 Z" fill="#000000" fill-rule="evenodd" fill-opacity="1" /><path clip-path="url(#clip780)" d="M127.917 1188.03 Q124.306 1188.03 122.478 1191.59 Q120.672 1195.13 120.672 1202.26 Q120.672 1209.37 122.478 1212.94 Q124.306 1216.48 127.917 1216.48 Q131.552 1216.48 133.357 1212.94 Q135.186 1209.37 135.186 1202.26 Q135.186 1195.13 133.357 1191.59 Q131.552 1188.03 127.917 1188.03 M127.917 1184.32 Q133.728 1184.32 136.783 1188.93 Q139.862 1193.51 139.862 1202.26 Q139.862 1210.99 136.783 1215.6 Q133.728 1220.18 127.917 1220.18 Q122.107 1220.18 119.029 1215.6 Q115.973 1210.99 115.973 1202.26 Q115.973 1193.51 119.029 1188.93 Q122.107 1184.32 127.917 1184.32 Z" fill="#000000" fill-rule="evenodd" fill-opacity="1" /><path clip-path="url(#clip780)" d="M148.079 1213.63 L152.964 1213.63 L152.964 1219.51 L148.079 1219.51 L148.079 1213.63 Z" fill="#000000" fill-rule="evenodd" fill-opacity="1" /><path clip-path="url(#clip780)" d="M175.996 1189.02 L164.19 1207.47 L175.996 1207.47 L175.996 1189.02 M174.769 1184.95 L180.649 1184.95 L180.649 1207.47 L185.579 1207.47 L185.579 1211.36 L180.649 1211.36 L180.649 1219.51 L175.996 1219.51 L175.996 1211.36 L160.394 1211.36 L160.394 1206.85 L174.769 1184.95 Z" fill="#000000" fill-rule="evenodd" fill-opacity="1" /><path clip-path="url(#clip780)" d="M203.889 1200.37 Q200.741 1200.37 198.889 1202.52 Q197.061 1204.67 197.061 1208.42 Q197.061 1212.15 198.889 1214.32 Q200.741 1216.48 203.889 1216.48 Q207.037 1216.48 208.866 1214.32 Q210.718 1212.15 210.718 1208.42 Q210.718 1204.67 208.866 1202.52 Q207.037 1200.37 203.889 1200.37 M213.172 1185.71 L213.172 1189.97 Q211.412 1189.14 209.607 1188.7 Q207.824 1188.26 206.065 1188.26 Q201.436 1188.26 198.982 1191.38 Q196.551 1194.51 196.204 1200.83 Q197.57 1198.82 199.63 1197.75 Q201.69 1196.66 204.167 1196.66 Q209.375 1196.66 212.385 1199.83 Q215.417 1202.98 215.417 1208.42 Q215.417 1213.75 212.269 1216.96 Q209.121 1220.18 203.889 1220.18 Q197.894 1220.18 194.723 1215.6 Q191.551 1210.99 191.551 1202.26 Q191.551 1194.07 195.44 1189.21 Q199.329 1184.32 205.88 1184.32 Q207.639 1184.32 209.422 1184.67 Q211.227 1185.02 213.172 1185.71 Z" fill="#000000" fill-rule="evenodd" fill-opacity="1" /><path clip-path="url(#clip780)" d="M223.519 1184.95 L241.875 1184.95 L241.875 1188.88 L227.801 1188.88 L227.801 1197.36 Q228.82 1197.01 229.838 1196.85 Q230.857 1196.66 231.875 1196.66 Q237.662 1196.66 241.042 1199.83 Q244.421 1203 244.421 1208.42 Q244.421 1214 240.949 1217.1 Q237.477 1220.18 231.158 1220.18 Q228.982 1220.18 226.713 1219.81 Q224.468 1219.44 222.061 1218.7 L222.061 1214 Q224.144 1215.13 226.366 1215.69 Q228.588 1216.25 231.065 1216.25 Q235.07 1216.25 237.408 1214.14 Q239.746 1212.03 239.746 1208.42 Q239.746 1204.81 237.408 1202.7 Q235.07 1200.6 231.065 1200.6 Q229.19 1200.6 227.315 1201.01 Q225.463 1201.43 223.519 1202.31 L223.519 1184.95 Z" fill="#000000" fill-rule="evenodd" fill-opacity="1" /><path clip-path="url(#clip780)" d="M254.445 1215.57 L262.083 1215.57 L262.083 1189.21 L253.773 1190.88 L253.773 1186.62 L262.037 1184.95 L266.713 1184.95 L266.713 1215.57 L274.352 1215.57 L274.352 1219.51 L254.445 1219.51 L254.445 1215.57 Z" fill="#000000" fill-rule="evenodd" fill-opacity="1" /><path clip-path="url(#clip780)" d="M128.288 967.078 Q124.677 967.078 122.848 970.643 Q121.043 974.184 121.043 981.314 Q121.043 988.42 122.848 991.985 Q124.677 995.527 128.288 995.527 Q131.922 995.527 133.728 991.985 Q135.556 988.42 135.556 981.314 Q135.556 974.184 133.728 970.643 Q131.922 967.078 128.288 967.078 M128.288 963.374 Q134.098 963.374 137.154 967.981 Q140.232 972.564 140.232 981.314 Q140.232 990.041 137.154 994.647 Q134.098 999.231 128.288 999.231 Q122.478 999.231 119.399 994.647 Q116.343 990.041 116.343 981.314 Q116.343 972.564 119.399 967.981 Q122.478 963.374 128.288 963.374 Z" fill="#000000" fill-rule="evenodd" fill-opacity="1" /><path clip-path="url(#clip780)" d="M148.45 992.68 L153.334 992.68 L153.334 998.559 L148.45 998.559 L148.45 992.68 Z" fill="#000000" fill-rule="evenodd" fill-opacity="1" /><path clip-path="url(#clip780)" d="M176.366 968.073 L164.561 986.522 L176.366 986.522 L176.366 968.073 M175.139 963.999 L181.019 963.999 L181.019 986.522 L185.95 986.522 L185.95 990.411 L181.019 990.411 L181.019 998.559 L176.366 998.559 L176.366 990.411 L160.765 990.411 L160.765 985.897 L175.139 963.999 Z" fill="#000000" fill-rule="evenodd" fill-opacity="1" /><path clip-path="url(#clip780)" d="M192.5 963.999 L214.723 963.999 L214.723 965.99 L202.176 998.559 L197.292 998.559 L209.098 967.934 L192.5 967.934 L192.5 963.999 Z" fill="#000000" fill-rule="evenodd" fill-opacity="1" /><path clip-path="url(#clip780)" d="M233.843 967.078 Q230.232 967.078 228.403 970.643 Q226.598 974.184 226.598 981.314 Q226.598 988.42 228.403 991.985 Q230.232 995.527 233.843 995.527 Q237.477 995.527 239.283 991.985 Q241.111 988.42 241.111 981.314 Q241.111 974.184 239.283 970.643 Q237.477 967.078 233.843 967.078 M233.843 963.374 Q239.653 963.374 242.709 967.981 Q245.787 972.564 245.787 981.314 Q245.787 990.041 242.709 994.647 Q239.653 999.231 233.843 999.231 Q228.033 999.231 224.954 994.647 Q221.898 990.041 221.898 981.314 Q221.898 972.564 224.954 967.981 Q228.033 963.374 233.843 963.374 Z" fill="#000000" fill-rule="evenodd" fill-opacity="1" /><path clip-path="url(#clip780)" d="M258.033 994.624 L274.352 994.624 L274.352 998.559 L252.408 998.559 L252.408 994.624 Q255.07 991.869 259.653 987.24 Q264.259 982.587 265.44 981.244 Q267.685 978.721 268.565 976.985 Q269.468 975.226 269.468 973.536 Q269.468 970.782 267.523 969.045 Q265.602 967.309 262.5 967.309 Q260.301 967.309 257.847 968.073 Q255.417 968.837 252.639 970.388 L252.639 965.666 Q255.463 964.532 257.917 963.953 Q260.37 963.374 262.408 963.374 Q267.778 963.374 270.972 966.059 Q274.167 968.745 274.167 973.235 Q274.167 975.365 273.357 977.286 Q272.569 979.184 270.463 981.777 Q269.884 982.448 266.782 985.666 Q263.681 988.86 258.033 994.624 Z" fill="#000000" fill-rule="evenodd" fill-opacity="1" /><path clip-path="url(#clip780)" d="M127.339 746.128 Q123.728 746.128 121.899 749.692 Q120.093 753.234 120.093 760.364 Q120.093 767.47 121.899 771.035 Q123.728 774.577 127.339 774.577 Q130.973 774.577 132.779 771.035 Q134.607 767.47 134.607 760.364 Q134.607 753.234 132.779 749.692 Q130.973 746.128 127.339 746.128 M127.339 742.424 Q133.149 742.424 136.204 747.03 Q139.283 751.614 139.283 760.364 Q139.283 769.09 136.204 773.697 Q133.149 778.28 127.339 778.28 Q121.529 778.28 118.45 773.697 Q115.394 769.09 115.394 760.364 Q115.394 751.614 118.45 747.03 Q121.529 742.424 127.339 742.424 Z" fill="#000000" fill-rule="evenodd" fill-opacity="1" /><path clip-path="url(#clip780)" d="M147.501 771.729 L152.385 771.729 L152.385 777.609 L147.501 777.609 L147.501 771.729 Z" fill="#000000" fill-rule="evenodd" fill-opacity="1" /><path clip-path="url(#clip780)" d="M175.417 747.123 L163.612 765.572 L175.417 765.572 L175.417 747.123 M174.19 743.049 L180.07 743.049 L180.07 765.572 L185.001 765.572 L185.001 769.461 L180.07 769.461 L180.07 777.609 L175.417 777.609 L175.417 769.461 L159.815 769.461 L159.815 764.947 L174.19 743.049 Z" fill="#000000" fill-rule="evenodd" fill-opacity="1" /><path clip-path="url(#clip780)" d="M191.551 743.049 L213.774 743.049 L213.774 745.04 L201.227 777.609 L196.343 777.609 L208.149 746.984 L191.551 746.984 L191.551 743.049 Z" fill="#000000" fill-rule="evenodd" fill-opacity="1" /><path clip-path="url(#clip780)" d="M222.94 743.049 L241.297 743.049 L241.297 746.984 L227.223 746.984 L227.223 755.456 Q228.241 755.109 229.26 754.947 Q230.278 754.762 231.297 754.762 Q237.084 754.762 240.463 757.933 Q243.843 761.104 243.843 766.521 Q243.843 772.1 240.371 775.202 Q236.898 778.28 230.579 778.28 Q228.403 778.28 226.135 777.91 Q223.889 777.539 221.482 776.799 L221.482 772.1 Q223.565 773.234 225.787 773.789 Q228.01 774.345 230.486 774.345 Q234.491 774.345 236.829 772.239 Q239.167 770.132 239.167 766.521 Q239.167 762.91 236.829 760.803 Q234.491 758.697 230.486 758.697 Q228.611 758.697 226.736 759.114 Q224.885 759.53 222.94 760.41 L222.94 743.049 Z" fill="#000000" fill-rule="evenodd" fill-opacity="1" /><path clip-path="url(#clip780)" d="M267.222 758.975 Q270.579 759.692 272.454 761.961 Q274.352 764.229 274.352 767.563 Q274.352 772.678 270.833 775.479 Q267.315 778.28 260.833 778.28 Q258.658 778.28 256.343 777.84 Q254.051 777.424 251.597 776.567 L251.597 772.053 Q253.542 773.188 255.857 773.766 Q258.171 774.345 260.695 774.345 Q265.093 774.345 267.384 772.609 Q269.699 770.873 269.699 767.563 Q269.699 764.507 267.546 762.794 Q265.417 761.058 261.597 761.058 L257.57 761.058 L257.57 757.215 L261.783 757.215 Q265.232 757.215 267.06 755.85 Q268.889 754.461 268.889 751.868 Q268.889 749.206 266.991 747.794 Q265.116 746.359 261.597 746.359 Q259.676 746.359 257.477 746.776 Q255.278 747.192 252.639 748.072 L252.639 743.905 Q255.301 743.165 257.616 742.794 Q259.954 742.424 262.014 742.424 Q267.338 742.424 270.44 744.854 Q273.542 747.262 273.542 751.382 Q273.542 754.253 271.898 756.243 Q270.255 758.211 267.222 758.975 Z" fill="#000000" fill-rule="evenodd" fill-opacity="1" /><path clip-path="url(#clip780)" d="M126.205 525.177 Q122.593 525.177 120.765 528.742 Q118.959 532.284 118.959 539.413 Q118.959 546.52 120.765 550.085 Q122.593 553.626 126.205 553.626 Q129.839 553.626 131.644 550.085 Q133.473 546.52 133.473 539.413 Q133.473 532.284 131.644 528.742 Q129.839 525.177 126.205 525.177 M126.205 521.474 Q132.015 521.474 135.07 526.08 Q138.149 530.663 138.149 539.413 Q138.149 548.14 135.07 552.747 Q132.015 557.33 126.205 557.33 Q120.394 557.33 117.316 552.747 Q114.26 548.14 114.26 539.413 Q114.26 530.663 117.316 526.08 Q120.394 521.474 126.205 521.474 Z" fill="#000000" fill-rule="evenodd" fill-opacity="1" /><path clip-path="url(#clip780)" d="M146.366 550.779 L151.251 550.779 L151.251 556.659 L146.366 556.659 L146.366 550.779 Z" fill="#000000" fill-rule="evenodd" fill-opacity="1" /><path clip-path="url(#clip780)" d="M174.283 526.173 L162.477 544.622 L174.283 544.622 L174.283 526.173 M173.056 522.099 L178.936 522.099 L178.936 544.622 L183.866 544.622 L183.866 548.51 L178.936 548.51 L178.936 556.659 L174.283 556.659 L174.283 548.51 L158.681 548.51 L158.681 543.997 L173.056 522.099 Z" fill="#000000" fill-rule="evenodd" fill-opacity="1" /><path clip-path="url(#clip780)" d="M201.598 540.247 Q198.264 540.247 196.343 542.029 Q194.445 543.811 194.445 546.936 Q194.445 550.061 196.343 551.844 Q198.264 553.626 201.598 553.626 Q204.931 553.626 206.852 551.844 Q208.774 550.038 208.774 546.936 Q208.774 543.811 206.852 542.029 Q204.954 540.247 201.598 540.247 M196.922 538.256 Q193.913 537.515 192.223 535.455 Q190.556 533.395 190.556 530.432 Q190.556 526.288 193.496 523.881 Q196.459 521.474 201.598 521.474 Q206.76 521.474 209.699 523.881 Q212.639 526.288 212.639 530.432 Q212.639 533.395 210.949 535.455 Q209.283 537.515 206.297 538.256 Q209.676 539.043 211.551 541.335 Q213.449 543.626 213.449 546.936 Q213.449 551.96 210.371 554.645 Q207.315 557.33 201.598 557.33 Q195.88 557.33 192.801 554.645 Q189.746 551.96 189.746 546.936 Q189.746 543.626 191.644 541.335 Q193.542 539.043 196.922 538.256 M195.209 530.872 Q195.209 533.557 196.875 535.061 Q198.565 536.566 201.598 536.566 Q204.607 536.566 206.297 535.061 Q208.01 533.557 208.01 530.872 Q208.01 528.187 206.297 526.682 Q204.607 525.177 201.598 525.177 Q198.565 525.177 196.875 526.682 Q195.209 528.187 195.209 530.872 Z" fill="#000000" fill-rule="evenodd" fill-opacity="1" /><path clip-path="url(#clip780)" d="M231.76 525.177 Q228.148 525.177 226.32 528.742 Q224.514 532.284 224.514 539.413 Q224.514 546.52 226.32 550.085 Q228.148 553.626 231.76 553.626 Q235.394 553.626 237.199 550.085 Q239.028 546.52 239.028 539.413 Q239.028 532.284 237.199 528.742 Q235.394 525.177 231.76 525.177 M231.76 521.474 Q237.57 521.474 240.625 526.08 Q243.704 530.663 243.704 539.413 Q243.704 548.14 240.625 552.747 Q237.57 557.33 231.76 557.33 Q225.949 557.33 222.871 552.747 Q219.815 548.14 219.815 539.413 Q219.815 530.663 222.871 526.08 Q225.949 521.474 231.76 521.474 Z" fill="#000000" fill-rule="evenodd" fill-opacity="1" /><path clip-path="url(#clip780)" d="M264.769 526.173 L252.963 544.622 L264.769 544.622 L264.769 526.173 M263.542 522.099 L269.421 522.099 L269.421 544.622 L274.352 544.622 L274.352 548.51 L269.421 548.51 L269.421 556.659 L264.769 556.659 L264.769 548.51 L249.167 548.51 L249.167 543.997 L263.542 522.099 Z" fill="#000000" fill-rule="evenodd" fill-opacity="1" /><path clip-path="url(#clip780)" d="M127.686 304.227 Q124.075 304.227 122.246 307.792 Q120.441 311.333 120.441 318.463 Q120.441 325.569 122.246 329.134 Q124.075 332.676 127.686 332.676 Q131.32 332.676 133.126 329.134 Q134.954 325.569 134.954 318.463 Q134.954 311.333 133.126 307.792 Q131.32 304.227 127.686 304.227 M127.686 300.523 Q133.496 300.523 136.552 305.13 Q139.63 309.713 139.63 318.463 Q139.63 327.19 136.552 331.796 Q133.496 336.38 127.686 336.38 Q121.876 336.38 118.797 331.796 Q115.742 327.19 115.742 318.463 Q115.742 309.713 118.797 305.13 Q121.876 300.523 127.686 300.523 Z" fill="#000000" fill-rule="evenodd" fill-opacity="1" /><path clip-path="url(#clip780)" d="M147.848 329.829 L152.732 329.829 L152.732 335.708 L147.848 335.708 L147.848 329.829 Z" fill="#000000" fill-rule="evenodd" fill-opacity="1" /><path clip-path="url(#clip780)" d="M175.764 305.222 L163.959 323.671 L175.764 323.671 L175.764 305.222 M174.538 301.148 L180.417 301.148 L180.417 323.671 L185.348 323.671 L185.348 327.56 L180.417 327.56 L180.417 335.708 L175.764 335.708 L175.764 327.56 L160.163 327.56 L160.163 323.046 L174.538 301.148 Z" fill="#000000" fill-rule="evenodd" fill-opacity="1" /><path clip-path="url(#clip780)" d="M203.079 319.296 Q199.746 319.296 197.825 321.079 Q195.926 322.861 195.926 325.986 Q195.926 329.111 197.825 330.893 Q199.746 332.676 203.079 332.676 Q206.412 332.676 208.334 330.893 Q210.255 329.088 210.255 325.986 Q210.255 322.861 208.334 321.079 Q206.436 319.296 203.079 319.296 M198.403 317.306 Q195.394 316.565 193.704 314.505 Q192.038 312.445 192.038 309.482 Q192.038 305.338 194.977 302.931 Q197.94 300.523 203.079 300.523 Q208.241 300.523 211.181 302.931 Q214.121 305.338 214.121 309.482 Q214.121 312.445 212.431 314.505 Q210.764 316.565 207.778 317.306 Q211.158 318.093 213.033 320.384 Q214.931 322.676 214.931 325.986 Q214.931 331.009 211.852 333.694 Q208.797 336.38 203.079 336.38 Q197.362 336.38 194.283 333.694 Q191.227 331.009 191.227 325.986 Q191.227 322.676 193.125 320.384 Q195.024 318.093 198.403 317.306 M196.69 309.921 Q196.69 312.607 198.357 314.111 Q200.047 315.616 203.079 315.616 Q206.088 315.616 207.778 314.111 Q209.491 312.607 209.491 309.921 Q209.491 307.236 207.778 305.732 Q206.088 304.227 203.079 304.227 Q200.047 304.227 198.357 305.732 Q196.69 307.236 196.69 309.921 Z" fill="#000000" fill-rule="evenodd" fill-opacity="1" /><path clip-path="url(#clip780)" d="M223.287 301.148 L241.644 301.148 L241.644 305.083 L227.57 305.083 L227.57 313.556 Q228.588 313.208 229.607 313.046 Q230.625 312.861 231.644 312.861 Q237.431 312.861 240.81 316.032 Q244.19 319.204 244.19 324.62 Q244.19 330.199 240.718 333.301 Q237.246 336.38 230.926 336.38 Q228.75 336.38 226.482 336.009 Q224.236 335.639 221.829 334.898 L221.829 330.199 Q223.912 331.333 226.135 331.889 Q228.357 332.444 230.834 332.444 Q234.838 332.444 237.176 330.338 Q239.514 328.231 239.514 324.62 Q239.514 321.009 237.176 318.903 Q234.838 316.796 230.834 316.796 Q228.959 316.796 227.084 317.213 Q225.232 317.63 223.287 318.509 L223.287 301.148 Z" fill="#000000" fill-rule="evenodd" fill-opacity="1" /><path clip-path="url(#clip780)" d="M253.449 301.148 L271.806 301.148 L271.806 305.083 L257.732 305.083 L257.732 313.556 Q258.75 313.208 259.769 313.046 Q260.787 312.861 261.806 312.861 Q267.593 312.861 270.972 316.032 Q274.352 319.204 274.352 324.62 Q274.352 330.199 270.88 333.301 Q267.407 336.38 261.088 336.38 Q258.912 336.38 256.644 336.009 Q254.398 335.639 251.991 334.898 L251.991 330.199 Q254.074 331.333 256.296 331.889 Q258.519 332.444 260.995 332.444 Q265 332.444 267.338 330.338 Q269.676 328.231 269.676 324.62 Q269.676 321.009 267.338 318.903 Q265 316.796 260.995 316.796 Q259.12 316.796 257.246 317.213 Q255.394 317.63 253.449 318.509 L253.449 301.148 Z" fill="#000000" fill-rule="evenodd" fill-opacity="1" /><path clip-path="url(#clip780)" d="M16.4842 987.834 L16.4842 981.405 L64.0042 981.405 L64.0042 987.834 L16.4842 987.834 Z" fill="#000000" fill-rule="evenodd" fill-opacity="1" /><path clip-path="url(#clip780)" d="M42.4881 939.232 L64.0042 939.232 L64.0042 945.089 L42.679 945.089 Q37.6183 945.089 35.1038 947.062 Q32.5894 949.035 32.5894 952.982 Q32.5894 957.725 35.6131 960.462 Q38.6368 963.199 43.8567 963.199 L64.0042 963.199 L64.0042 969.087 L28.3562 969.087 L28.3562 963.199 L33.8944 963.199 Q30.6797 961.098 29.0883 958.266 Q27.4968 955.401 27.4968 951.677 Q27.4968 945.534 31.3163 942.383 Q35.1038 939.232 42.4881 939.232 Z" fill="#000000" fill-rule="evenodd" fill-opacity="1" /><path clip-path="url(#clip780)" d="M42.4881 897.919 L64.0042 897.919 L64.0042 903.775 L42.679 903.775 Q37.6183 903.775 35.1038 905.749 Q32.5894 907.722 32.5894 911.669 Q32.5894 916.411 35.6131 919.148 Q38.6368 921.886 43.8567 921.886 L64.0042 921.886 L64.0042 927.774 L28.3562 927.774 L28.3562 921.886 L33.8944 921.886 Q30.6797 919.785 29.0883 916.952 Q27.4968 914.088 27.4968 910.364 Q27.4968 904.221 31.3163 901.07 Q35.1038 897.919 42.4881 897.919 Z" fill="#000000" fill-rule="evenodd" fill-opacity="1" /><path clip-path="url(#clip780)" d="M44.7161 855.746 L47.5806 855.746 L47.5806 882.673 Q53.6281 882.291 56.8109 879.044 Q59.9619 875.766 59.9619 869.941 Q59.9619 866.568 59.1344 863.417 Q58.3069 860.234 56.6518 857.115 L62.1899 857.115 Q63.5267 860.266 64.227 863.576 Q64.9272 866.886 64.9272 870.292 Q64.9272 878.822 59.9619 883.819 Q54.9967 888.784 46.5303 888.784 Q37.7774 888.784 32.6531 884.073 Q27.4968 879.331 27.4968 871.31 Q27.4968 864.117 32.1438 859.947 Q36.7589 855.746 44.7161 855.746 M42.9973 861.602 Q38.1912 861.666 35.3266 864.308 Q32.4621 866.918 32.4621 871.246 Q32.4621 876.148 35.2312 879.108 Q38.0002 882.036 43.0292 882.482 L42.9973 861.602 Z" fill="#000000" fill-rule="evenodd" fill-opacity="1" /><path clip-path="url(#clip780)" d="M33.8307 825.477 Q33.2578 826.464 33.0032 827.641 Q32.7167 828.787 32.7167 830.188 Q32.7167 835.153 35.9632 837.827 Q39.1779 840.468 45.2253 840.468 L64.0042 840.468 L64.0042 846.357 L28.3562 846.357 L28.3562 840.468 L33.8944 840.468 Q30.6479 838.622 29.0883 835.662 Q27.4968 832.702 27.4968 828.469 Q27.4968 827.864 27.5923 827.132 Q27.656 826.4 27.8151 825.509 L33.8307 825.477 Z" fill="#000000" fill-rule="evenodd" fill-opacity="1" /><path clip-path="url(#clip780)" d="M21.7677 791.93 L39.6235 791.93 L39.6235 783.845 Q39.6235 779.357 37.3 776.907 Q34.9765 774.456 30.6797 774.456 Q26.4147 774.456 24.0912 776.907 Q21.7677 779.357 21.7677 783.845 L21.7677 791.93 M16.4842 798.359 L16.4842 783.845 Q16.4842 775.856 20.1126 771.782 Q23.7092 767.676 30.6797 767.676 Q37.7138 767.676 41.3104 771.782 Q44.907 775.856 44.907 783.845 L44.907 791.93 L64.0042 791.93 L64.0042 798.359 L16.4842 798.359 Z" fill="#000000" fill-rule="evenodd" fill-opacity="1" /><path clip-path="url(#clip780)" d="M33.8307 739.795 Q33.2578 740.781 33.0032 741.959 Q32.7167 743.105 32.7167 744.505 Q32.7167 749.47 35.9632 752.144 Q39.1779 754.786 45.2253 754.786 L64.0042 754.786 L64.0042 760.674 L28.3562 760.674 L28.3562 754.786 L33.8944 754.786 Q30.6479 752.94 29.0883 749.98 Q27.4968 747.02 27.4968 742.787 Q27.4968 742.182 27.5923 741.45 Q27.656 740.718 27.8151 739.826 L33.8307 739.795 Z" fill="#000000" fill-rule="evenodd" fill-opacity="1" /><path clip-path="url(#clip780)" d="M32.4621 721.27 Q32.4621 725.981 36.1542 728.718 Q39.8145 731.456 46.212 731.456 Q52.6095 731.456 56.3017 728.75 Q59.9619 726.013 59.9619 721.27 Q59.9619 716.592 56.2698 713.854 Q52.5777 711.117 46.212 711.117 Q39.8781 711.117 36.186 713.854 Q32.4621 716.592 32.4621 721.27 M27.4968 721.27 Q27.4968 713.632 32.4621 709.271 Q37.4273 704.911 46.212 704.911 Q54.9649 704.911 59.9619 709.271 Q64.9272 713.632 64.9272 721.27 Q64.9272 728.941 59.9619 733.302 Q54.9649 737.63 46.212 737.63 Q37.4273 737.63 32.4621 733.302 Q27.4968 728.941 27.4968 721.27 Z" fill="#000000" fill-rule="evenodd" fill-opacity="1" /><path clip-path="url(#clip780)" d="M33.7671 671.745 L14.479 671.745 L14.479 665.889 L64.0042 665.889 L64.0042 671.745 L58.657 671.745 Q61.8398 673.591 63.3994 676.424 Q64.9272 679.225 64.9272 683.172 Q64.9272 689.633 59.771 693.707 Q54.6147 697.749 46.212 697.749 Q37.8093 697.749 32.6531 693.707 Q27.4968 689.633 27.4968 683.172 Q27.4968 679.225 29.0564 676.424 Q30.5842 673.591 33.7671 671.745 M46.212 691.702 Q52.6732 691.702 56.3653 689.06 Q60.0256 686.386 60.0256 681.739 Q60.0256 677.092 56.3653 674.419 Q52.6732 671.745 46.212 671.745 Q39.7508 671.745 36.0905 674.419 Q32.3984 677.092 32.3984 681.739 Q32.3984 686.386 36.0905 689.06 Q39.7508 691.702 46.212 691.702 Z" fill="#000000" fill-rule="evenodd" fill-opacity="1" /><path clip-path="url(#clip780)" d="M49.9359 654.43 L28.3562 654.43 L28.3562 648.574 L49.7131 648.574 Q54.7739 648.574 57.3202 646.601 Q59.8346 644.627 59.8346 640.681 Q59.8346 635.938 56.8109 633.201 Q53.7872 630.432 48.5673 630.432 L28.3562 630.432 L28.3562 624.575 L64.0042 624.575 L64.0042 630.432 L58.5296 630.432 Q61.7762 632.564 63.3676 635.397 Q64.9272 638.198 64.9272 641.922 Q64.9272 648.065 61.1078 651.248 Q57.2883 654.43 49.9359 654.43 M27.4968 639.694 L27.4968 639.694 Z" fill="#000000" fill-rule="evenodd" fill-opacity="1" /><path clip-path="url(#clip780)" d="M29.7248 586.859 L35.1993 586.859 Q33.8307 589.341 33.1623 591.856 Q32.4621 594.338 32.4621 596.885 Q32.4621 602.582 36.0905 605.733 Q39.6872 608.884 46.212 608.884 Q52.7369 608.884 56.3653 605.733 Q59.9619 602.582 59.9619 596.885 Q59.9619 594.338 59.2935 591.856 Q58.5933 589.341 57.2247 586.859 L62.6355 586.859 Q63.7814 589.309 64.3543 591.951 Q64.9272 594.561 64.9272 597.521 Q64.9272 605.574 59.8664 610.316 Q54.8057 615.059 46.212 615.059 Q37.491 615.059 32.4939 610.284 Q27.4968 605.478 27.4968 597.139 Q27.4968 594.434 28.0697 591.856 Q28.6108 589.277 29.7248 586.859 Z" fill="#000000" fill-rule="evenodd" fill-opacity="1" /><path clip-path="url(#clip780)" d="M18.2347 570.881 L28.3562 570.881 L28.3562 558.818 L32.9077 558.818 L32.9077 570.881 L52.2594 570.881 Q56.6199 570.881 57.8613 569.703 Q59.1026 568.493 59.1026 564.833 L59.1026 558.818 L64.0042 558.818 L64.0042 564.833 Q64.0042 571.613 61.4897 574.191 Q58.9434 576.769 52.2594 576.769 L32.9077 576.769 L32.9077 581.066 L28.3562 581.066 L28.3562 576.769 L18.2347 576.769 L18.2347 570.881 Z" fill="#000000" fill-rule="evenodd" fill-opacity="1" /><path clip-path="url(#clip780)" d="M1201.14 17.6457 Q1192.22 17.6457 1186.96 24.2892 Q1181.73 30.9327 1181.73 42.3968 Q1181.73 53.8203 1186.96 60.4638 Q1192.22 67.1073 1201.14 67.1073 Q1210.05 67.1073 1215.23 60.4638 Q1220.46 53.8203 1220.46 42.3968 Q1220.46 30.9327 1215.23 24.2892 Q1210.05 17.6457 1201.14 17.6457 M1201.14 11.0023 Q1213.85 11.0023 1221.47 19.5497 Q1229.09 28.0566 1229.09 42.3968 Q1229.09 56.6965 1221.47 65.2439 Q1213.85 73.7508 1201.14 73.7508 Q1188.37 73.7508 1180.72 65.2439 Q1173.1 56.737 1173.1 42.3968 Q1173.1 28.0566 1180.72 19.5497 Q1188.37 11.0023 1201.14 11.0023 Z" fill="#000000" fill-rule="evenodd" fill-opacity="1" /><path clip-path="url(#clip780)" d="M1236.22 27.2059 L1244.12 27.2059 L1258.29 65.2844 L1272.47 27.2059 L1280.37 27.2059 L1263.36 72.576 L1253.23 72.576 L1236.22 27.2059 Z" fill="#000000" fill-rule="evenodd" fill-opacity="1" /><path clip-path="url(#clip780)" d="M1329.47 48.0275 L1329.47 51.6733 L1295.2 51.6733 Q1295.68 59.3701 1299.82 63.421 Q1303.99 67.4314 1311.4 67.4314 Q1315.69 67.4314 1319.71 66.3781 Q1323.76 65.3249 1327.73 63.2184 L1327.73 70.267 Q1323.72 71.9684 1319.5 72.8596 Q1315.29 73.7508 1310.96 73.7508 Q1300.1 73.7508 1293.74 67.4314 Q1287.42 61.1119 1287.42 50.3365 Q1287.42 39.1965 1293.41 32.6746 Q1299.45 26.1121 1309.66 26.1121 Q1318.81 26.1121 1324.12 32.0264 Q1329.47 37.9003 1329.47 48.0275 M1322.01 45.84 Q1321.93 39.7232 1318.57 36.0774 Q1315.25 32.4315 1309.74 32.4315 Q1303.5 32.4315 1299.73 35.9558 Q1296.01 39.4801 1295.44 45.8805 L1322.01 45.84 Z" fill="#000000" fill-rule="evenodd" fill-opacity="1" /><path clip-path="url(#clip780)" d="M1367.99 34.1734 Q1366.74 33.4443 1365.24 33.1202 Q1363.78 32.7556 1362 32.7556 Q1355.68 32.7556 1352.27 36.8875 Q1348.91 40.9789 1348.91 48.6757 L1348.91 72.576 L1341.42 72.576 L1341.42 27.2059 L1348.91 27.2059 L1348.91 34.2544 Q1351.26 30.1225 1355.03 28.1376 Q1358.8 26.1121 1364.18 26.1121 Q1364.95 26.1121 1365.89 26.2337 Q1366.82 26.3147 1367.95 26.5172 L1367.99 34.1734 Z" fill="#000000" fill-rule="evenodd" fill-opacity="1" /><path clip-path="url(#clip780)" d="M1375.81 9.54393 L1383.26 9.54393 L1383.26 72.576 L1375.81 72.576 L1375.81 9.54393 Z" fill="#000000" fill-rule="evenodd" fill-opacity="1" /><path clip-path="url(#clip780)" d="M1419.48 49.7694 Q1410.45 49.7694 1406.96 51.8354 Q1403.48 53.9013 1403.48 58.8839 Q1403.48 62.8538 1406.07 65.2034 Q1408.7 67.5124 1413.2 67.5124 Q1419.4 67.5124 1423.12 63.1374 Q1426.89 58.7219 1426.89 51.4303 L1426.89 49.7694 L1419.48 49.7694 M1434.35 46.6907 L1434.35 72.576 L1426.89 72.576 L1426.89 65.6895 Q1424.34 69.8214 1420.53 71.8063 Q1416.72 73.7508 1411.21 73.7508 Q1404.25 73.7508 1400.12 69.8619 Q1396.02 65.9325 1396.02 59.3701 Q1396.02 51.7138 1401.13 47.825 Q1406.27 43.9361 1416.44 43.9361 L1426.89 43.9361 L1426.89 43.2069 Q1426.89 38.0623 1423.49 35.2672 Q1420.13 32.4315 1414.01 32.4315 Q1410.12 32.4315 1406.43 33.3632 Q1402.75 34.295 1399.35 36.1584 L1399.35 29.2718 Q1403.44 27.692 1407.29 26.9223 Q1411.13 26.1121 1414.78 26.1121 Q1424.62 26.1121 1429.48 31.2163 Q1434.35 36.3204 1434.35 46.6907 Z" fill="#000000" fill-rule="evenodd" fill-opacity="1" /><path clip-path="url(#clip780)" d="M1456.91 65.7705 L1456.91 89.8329 L1449.41 89.8329 L1449.41 27.2059 L1456.91 27.2059 L1456.91 34.0924 Q1459.26 30.0415 1462.82 28.0971 Q1466.43 26.1121 1471.41 26.1121 Q1479.68 26.1121 1484.82 32.6746 Q1490.01 39.2371 1490.01 49.9314 Q1490.01 60.6258 1484.82 67.1883 Q1479.68 73.7508 1471.41 73.7508 Q1466.43 73.7508 1462.82 71.8063 Q1459.26 69.8214 1456.91 65.7705 M1482.27 49.9314 Q1482.27 41.7081 1478.87 37.0496 Q1475.5 32.3505 1469.59 32.3505 Q1463.67 32.3505 1460.27 37.0496 Q1456.91 41.7081 1456.91 49.9314 Q1456.91 58.1548 1460.27 62.8538 Q1463.67 67.5124 1469.59 67.5124 Q1475.5 67.5124 1478.87 62.8538 Q1482.27 58.1548 1482.27 49.9314 Z" fill="#000000" fill-rule="evenodd" fill-opacity="1" /><polyline clip-path="url(#clip782)" style="stroke:#000000; stroke-linecap:round; stroke-linejoin:round; stroke-width:4; stroke-opacity:1; fill:none" points="
  368.706,699.576 368.706,699.574 
  "/>
<polyline clip-path="url(#clip782)" style="stroke:#000000; stroke-linecap:round; stroke-linejoin:round; stroke-width:4; stroke-opacity:1; fill:none" points="
  427.061,836.828 427.061,836.817 
  "/>
<polyline clip-path="url(#clip782)" style="stroke:#000000; stroke-linecap:round; stroke-linejoin:round; stroke-width:4; stroke-opacity:1; fill:none" points="
  485.415,749.211 485.415,749.205 
  "/>
<polyline clip-path="url(#clip782)" style="stroke:#000000; stroke-linecap:round; stroke-linejoin:round; stroke-width:4; stroke-opacity:1; fill:none" points="
  543.769,804.824 543.769,804.729 
  "/>
<polyline clip-path="url(#clip782)" style="stroke:#000000; stroke-linecap:round; stroke-linejoin:round; stroke-width:4; stroke-opacity:1; fill:none" points="
  602.124,745.092 602.124,745.079 
  "/>
<polyline clip-path="url(#clip782)" style="stroke:#000000; stroke-linecap:round; stroke-linejoin:round; stroke-width:4; stroke-opacity:1; fill:none" points="
  660.478,801.112 660.478,799.544 
  "/>
<polyline clip-path="url(#clip782)" style="stroke:#000000; stroke-linecap:round; stroke-linejoin:round; stroke-width:4; stroke-opacity:1; fill:none" points="
  718.833,743.448 718.833,743.322 
  "/>
<polyline clip-path="url(#clip782)" style="stroke:#000000; stroke-linecap:round; stroke-linejoin:round; stroke-width:4; stroke-opacity:1; fill:none" points="
  777.187,799.999 777.187,799.343 
  "/>
<polyline clip-path="url(#clip782)" style="stroke:#000000; stroke-linecap:round; stroke-linejoin:round; stroke-width:4; stroke-opacity:1; fill:none" points="
  835.541,743.463 835.541,742.533 
  "/>
<polyline clip-path="url(#clip782)" style="stroke:#000000; stroke-linecap:round; stroke-linejoin:round; stroke-width:4; stroke-opacity:1; fill:none" points="
  893.896,800.096 893.896,799.026 
  "/>
<polyline clip-path="url(#clip782)" style="stroke:#000000; stroke-linecap:round; stroke-linejoin:round; stroke-width:4; stroke-opacity:1; fill:none" points="
  952.25,744.24 952.25,741.774 
  "/>
<polyline clip-path="url(#clip782)" style="stroke:#000000; stroke-linecap:round; stroke-linejoin:round; stroke-width:4; stroke-opacity:1; fill:none" points="
  1010.6,800.047 1010.6,798.992 
  "/>
<polyline clip-path="url(#clip782)" style="stroke:#000000; stroke-linecap:round; stroke-linejoin:round; stroke-width:4; stroke-opacity:1; fill:none" points="
  1068.96,743.229 1068.96,742.578 
  "/>
<polyline clip-path="url(#clip782)" style="stroke:#000000; stroke-linecap:round; stroke-linejoin:round; stroke-width:4; stroke-opacity:1; fill:none" points="
  1127.31,812.504 1127.31,786.829 
  "/>
<polyline clip-path="url(#clip782)" style="stroke:#000000; stroke-linecap:round; stroke-linejoin:round; stroke-width:4; stroke-opacity:1; fill:none" points="
  1185.67,749.111 1185.67,736.925 
  "/>
<polyline clip-path="url(#clip782)" style="stroke:#000000; stroke-linecap:round; stroke-linejoin:round; stroke-width:4; stroke-opacity:1; fill:none" points="
  1244.02,828.653 1244.02,769.894 
  "/>
<polyline clip-path="url(#clip782)" style="stroke:#000000; stroke-linecap:round; stroke-linejoin:round; stroke-width:4; stroke-opacity:1; fill:none" points="
  1302.38,748.059 1302.38,736.863 
  "/>
<polyline clip-path="url(#clip782)" style="stroke:#000000; stroke-linecap:round; stroke-linejoin:round; stroke-width:4; stroke-opacity:1; fill:none" points="
  1360.73,825.983 1360.73,774.799 
  "/>
<polyline clip-path="url(#clip782)" style="stroke:#000000; stroke-linecap:round; stroke-linejoin:round; stroke-width:4; stroke-opacity:1; fill:none" points="
  1419.09,787.191 1419.09,699.53 
  "/>
<polyline clip-path="url(#clip782)" style="stroke:#000000; stroke-linecap:round; stroke-linejoin:round; stroke-width:4; stroke-opacity:1; fill:none" points="
  1477.44,821.47 1477.44,777.235 
  "/>
<polyline clip-path="url(#clip782)" style="stroke:#000000; stroke-linecap:round; stroke-linejoin:round; stroke-width:4; stroke-opacity:1; fill:none" points="
  1535.79,764.473 1535.79,722.922 
  "/>
<polyline clip-path="url(#clip782)" style="stroke:#000000; stroke-linecap:round; stroke-linejoin:round; stroke-width:4; stroke-opacity:1; fill:none" points="
  1594.15,850.707 1594.15,746.478 
  "/>
<polyline clip-path="url(#clip782)" style="stroke:#000000; stroke-linecap:round; stroke-linejoin:round; stroke-width:4; stroke-opacity:1; fill:none" points="
  1652.5,762.111 1652.5,723.184 
  "/>
<polyline clip-path="url(#clip782)" style="stroke:#000000; stroke-linecap:round; stroke-linejoin:round; stroke-width:4; stroke-opacity:1; fill:none" points="
  1710.86,848.237 1710.86,750.868 
  "/>
<polyline clip-path="url(#clip782)" style="stroke:#000000; stroke-linecap:round; stroke-linejoin:round; stroke-width:4; stroke-opacity:1; fill:none" points="
  1769.21,752.219 1769.21,732.11 
  "/>
<polyline clip-path="url(#clip782)" style="stroke:#000000; stroke-linecap:round; stroke-linejoin:round; stroke-width:4; stroke-opacity:1; fill:none" points="
  1827.57,866.459 1827.57,731.88 
  "/>
<polyline clip-path="url(#clip782)" style="stroke:#000000; stroke-linecap:round; stroke-linejoin:round; stroke-width:4; stroke-opacity:1; fill:none" points="
  1885.92,776.214 1885.92,708.893 
  "/>
<line clip-path="url(#clip782)" x1="376.706" y1="699.576" x2="360.706" y2="699.576" style="stroke:#000000; stroke-width:3.2; stroke-opacity:1"/>
<line clip-path="url(#clip782)" x1="376.706" y1="699.574" x2="360.706" y2="699.574" style="stroke:#000000; stroke-width:3.2; stroke-opacity:1"/>
<line clip-path="url(#clip782)" x1="435.061" y1="836.828" x2="419.061" y2="836.828" style="stroke:#000000; stroke-width:3.2; stroke-opacity:1"/>
<line clip-path="url(#clip782)" x1="435.061" y1="836.817" x2="419.061" y2="836.817" style="stroke:#000000; stroke-width:3.2; stroke-opacity:1"/>
<line clip-path="url(#clip782)" x1="493.415" y1="749.211" x2="477.415" y2="749.211" style="stroke:#000000; stroke-width:3.2; stroke-opacity:1"/>
<line clip-path="url(#clip782)" x1="493.415" y1="749.205" x2="477.415" y2="749.205" style="stroke:#000000; stroke-width:3.2; stroke-opacity:1"/>
<line clip-path="url(#clip782)" x1="551.769" y1="804.824" x2="535.769" y2="804.824" style="stroke:#000000; stroke-width:3.2; stroke-opacity:1"/>
<line clip-path="url(#clip782)" x1="551.769" y1="804.729" x2="535.769" y2="804.729" style="stroke:#000000; stroke-width:3.2; stroke-opacity:1"/>
<line clip-path="url(#clip782)" x1="610.124" y1="745.092" x2="594.124" y2="745.092" style="stroke:#000000; stroke-width:3.2; stroke-opacity:1"/>
<line clip-path="url(#clip782)" x1="610.124" y1="745.079" x2="594.124" y2="745.079" style="stroke:#000000; stroke-width:3.2; stroke-opacity:1"/>
<line clip-path="url(#clip782)" x1="668.478" y1="801.112" x2="652.478" y2="801.112" style="stroke:#000000; stroke-width:3.2; stroke-opacity:1"/>
<line clip-path="url(#clip782)" x1="668.478" y1="799.544" x2="652.478" y2="799.544" style="stroke:#000000; stroke-width:3.2; stroke-opacity:1"/>
<line clip-path="url(#clip782)" x1="726.833" y1="743.448" x2="710.833" y2="743.448" style="stroke:#000000; stroke-width:3.2; stroke-opacity:1"/>
<line clip-path="url(#clip782)" x1="726.833" y1="743.322" x2="710.833" y2="743.322" style="stroke:#000000; stroke-width:3.2; stroke-opacity:1"/>
<line clip-path="url(#clip782)" x1="785.187" y1="799.999" x2="769.187" y2="799.999" style="stroke:#000000; stroke-width:3.2; stroke-opacity:1"/>
<line clip-path="url(#clip782)" x1="785.187" y1="799.343" x2="769.187" y2="799.343" style="stroke:#000000; stroke-width:3.2; stroke-opacity:1"/>
<line clip-path="url(#clip782)" x1="843.541" y1="743.463" x2="827.541" y2="743.463" style="stroke:#000000; stroke-width:3.2; stroke-opacity:1"/>
<line clip-path="url(#clip782)" x1="843.541" y1="742.533" x2="827.541" y2="742.533" style="stroke:#000000; stroke-width:3.2; stroke-opacity:1"/>
<line clip-path="url(#clip782)" x1="901.896" y1="800.096" x2="885.896" y2="800.096" style="stroke:#000000; stroke-width:3.2; stroke-opacity:1"/>
<line clip-path="url(#clip782)" x1="901.896" y1="799.026" x2="885.896" y2="799.026" style="stroke:#000000; stroke-width:3.2; stroke-opacity:1"/>
<line clip-path="url(#clip782)" x1="960.25" y1="744.24" x2="944.25" y2="744.24" style="stroke:#000000; stroke-width:3.2; stroke-opacity:1"/>
<line clip-path="url(#clip782)" x1="960.25" y1="741.774" x2="944.25" y2="741.774" style="stroke:#000000; stroke-width:3.2; stroke-opacity:1"/>
<line clip-path="url(#clip782)" x1="1018.6" y1="800.047" x2="1002.6" y2="800.047" style="stroke:#000000; stroke-width:3.2; stroke-opacity:1"/>
<line clip-path="url(#clip782)" x1="1018.6" y1="798.992" x2="1002.6" y2="798.992" style="stroke:#000000; stroke-width:3.2; stroke-opacity:1"/>
<line clip-path="url(#clip782)" x1="1076.96" y1="743.229" x2="1060.96" y2="743.229" style="stroke:#000000; stroke-width:3.2; stroke-opacity:1"/>
<line clip-path="url(#clip782)" x1="1076.96" y1="742.578" x2="1060.96" y2="742.578" style="stroke:#000000; stroke-width:3.2; stroke-opacity:1"/>
<line clip-path="url(#clip782)" x1="1135.31" y1="812.504" x2="1119.31" y2="812.504" style="stroke:#000000; stroke-width:3.2; stroke-opacity:1"/>
<line clip-path="url(#clip782)" x1="1135.31" y1="786.829" x2="1119.31" y2="786.829" style="stroke:#000000; stroke-width:3.2; stroke-opacity:1"/>
<line clip-path="url(#clip782)" x1="1193.67" y1="749.111" x2="1177.67" y2="749.111" style="stroke:#000000; stroke-width:3.2; stroke-opacity:1"/>
<line clip-path="url(#clip782)" x1="1193.67" y1="736.925" x2="1177.67" y2="736.925" style="stroke:#000000; stroke-width:3.2; stroke-opacity:1"/>
<line clip-path="url(#clip782)" x1="1252.02" y1="828.653" x2="1236.02" y2="828.653" style="stroke:#000000; stroke-width:3.2; stroke-opacity:1"/>
<line clip-path="url(#clip782)" x1="1252.02" y1="769.894" x2="1236.02" y2="769.894" style="stroke:#000000; stroke-width:3.2; stroke-opacity:1"/>
<line clip-path="url(#clip782)" x1="1310.38" y1="748.059" x2="1294.38" y2="748.059" style="stroke:#000000; stroke-width:3.2; stroke-opacity:1"/>
<line clip-path="url(#clip782)" x1="1310.38" y1="736.863" x2="1294.38" y2="736.863" style="stroke:#000000; stroke-width:3.2; stroke-opacity:1"/>
<line clip-path="url(#clip782)" x1="1368.73" y1="825.983" x2="1352.73" y2="825.983" style="stroke:#000000; stroke-width:3.2; stroke-opacity:1"/>
<line clip-path="url(#clip782)" x1="1368.73" y1="774.799" x2="1352.73" y2="774.799" style="stroke:#000000; stroke-width:3.2; stroke-opacity:1"/>
<line clip-path="url(#clip782)" x1="1427.09" y1="787.191" x2="1411.09" y2="787.191" style="stroke:#000000; stroke-width:3.2; stroke-opacity:1"/>
<line clip-path="url(#clip782)" x1="1427.09" y1="699.53" x2="1411.09" y2="699.53" style="stroke:#000000; stroke-width:3.2; stroke-opacity:1"/>
<line clip-path="url(#clip782)" x1="1485.44" y1="821.47" x2="1469.44" y2="821.47" style="stroke:#000000; stroke-width:3.2; stroke-opacity:1"/>
<line clip-path="url(#clip782)" x1="1485.44" y1="777.235" x2="1469.44" y2="777.235" style="stroke:#000000; stroke-width:3.2; stroke-opacity:1"/>
<line clip-path="url(#clip782)" x1="1543.79" y1="764.473" x2="1527.79" y2="764.473" style="stroke:#000000; stroke-width:3.2; stroke-opacity:1"/>
<line clip-path="url(#clip782)" x1="1543.79" y1="722.922" x2="1527.79" y2="722.922" style="stroke:#000000; stroke-width:3.2; stroke-opacity:1"/>
<line clip-path="url(#clip782)" x1="1602.15" y1="850.707" x2="1586.15" y2="850.707" style="stroke:#000000; stroke-width:3.2; stroke-opacity:1"/>
<line clip-path="url(#clip782)" x1="1602.15" y1="746.478" x2="1586.15" y2="746.478" style="stroke:#000000; stroke-width:3.2; stroke-opacity:1"/>
<line clip-path="url(#clip782)" x1="1660.5" y1="762.111" x2="1644.5" y2="762.111" style="stroke:#000000; stroke-width:3.2; stroke-opacity:1"/>
<line clip-path="url(#clip782)" x1="1660.5" y1="723.184" x2="1644.5" y2="723.184" style="stroke:#000000; stroke-width:3.2; stroke-opacity:1"/>
<line clip-path="url(#clip782)" x1="1718.86" y1="848.237" x2="1702.86" y2="848.237" style="stroke:#000000; stroke-width:3.2; stroke-opacity:1"/>
<line clip-path="url(#clip782)" x1="1718.86" y1="750.868" x2="1702.86" y2="750.868" style="stroke:#000000; stroke-width:3.2; stroke-opacity:1"/>
<line clip-path="url(#clip782)" x1="1777.21" y1="752.219" x2="1761.21" y2="752.219" style="stroke:#000000; stroke-width:3.2; stroke-opacity:1"/>
<line clip-path="url(#clip782)" x1="1777.21" y1="732.11" x2="1761.21" y2="732.11" style="stroke:#000000; stroke-width:3.2; stroke-opacity:1"/>
<line clip-path="url(#clip782)" x1="1835.57" y1="866.459" x2="1819.57" y2="866.459" style="stroke:#000000; stroke-width:3.2; stroke-opacity:1"/>
<line clip-path="url(#clip782)" x1="1835.57" y1="731.88" x2="1819.57" y2="731.88" style="stroke:#000000; stroke-width:3.2; stroke-opacity:1"/>
<line clip-path="url(#clip782)" x1="1893.92" y1="776.214" x2="1877.92" y2="776.214" style="stroke:#000000; stroke-width:3.2; stroke-opacity:1"/>
<line clip-path="url(#clip782)" x1="1893.92" y1="708.893" x2="1877.92" y2="708.893" style="stroke:#000000; stroke-width:3.2; stroke-opacity:1"/>
<circle clip-path="url(#clip782)" cx="368.706" cy="699.575" r="7.2" fill="#009af9" fill-rule="evenodd" fill-opacity="1" stroke="#000000" stroke-opacity="1" stroke-width="3.2"/>
<circle clip-path="url(#clip782)" cx="427.061" cy="836.822" r="7.2" fill="#009af9" fill-rule="evenodd" fill-opacity="1" stroke="#000000" stroke-opacity="1" stroke-width="3.2"/>
<circle clip-path="url(#clip782)" cx="485.415" cy="749.208" r="7.2" fill="#009af9" fill-rule="evenodd" fill-opacity="1" stroke="#000000" stroke-opacity="1" stroke-width="3.2"/>
<circle clip-path="url(#clip782)" cx="543.769" cy="804.777" r="7.2" fill="#009af9" fill-rule="evenodd" fill-opacity="1" stroke="#000000" stroke-opacity="1" stroke-width="3.2"/>
<circle clip-path="url(#clip782)" cx="602.124" cy="745.086" r="7.2" fill="#009af9" fill-rule="evenodd" fill-opacity="1" stroke="#000000" stroke-opacity="1" stroke-width="3.2"/>
<circle clip-path="url(#clip782)" cx="660.478" cy="800.328" r="7.2" fill="#009af9" fill-rule="evenodd" fill-opacity="1" stroke="#000000" stroke-opacity="1" stroke-width="3.2"/>
<circle clip-path="url(#clip782)" cx="718.833" cy="743.385" r="7.2" fill="#009af9" fill-rule="evenodd" fill-opacity="1" stroke="#000000" stroke-opacity="1" stroke-width="3.2"/>
<circle clip-path="url(#clip782)" cx="777.187" cy="799.671" r="7.2" fill="#009af9" fill-rule="evenodd" fill-opacity="1" stroke="#000000" stroke-opacity="1" stroke-width="3.2"/>
<circle clip-path="url(#clip782)" cx="835.541" cy="742.998" r="7.2" fill="#009af9" fill-rule="evenodd" fill-opacity="1" stroke="#000000" stroke-opacity="1" stroke-width="3.2"/>
<circle clip-path="url(#clip782)" cx="893.896" cy="799.561" r="7.2" fill="#009af9" fill-rule="evenodd" fill-opacity="1" stroke="#000000" stroke-opacity="1" stroke-width="3.2"/>
<circle clip-path="url(#clip782)" cx="952.25" cy="743.007" r="7.2" fill="#009af9" fill-rule="evenodd" fill-opacity="1" stroke="#000000" stroke-opacity="1" stroke-width="3.2"/>
<circle clip-path="url(#clip782)" cx="1010.6" cy="799.52" r="7.2" fill="#009af9" fill-rule="evenodd" fill-opacity="1" stroke="#000000" stroke-opacity="1" stroke-width="3.2"/>
<circle clip-path="url(#clip782)" cx="1068.96" cy="742.904" r="7.2" fill="#009af9" fill-rule="evenodd" fill-opacity="1" stroke="#000000" stroke-opacity="1" stroke-width="3.2"/>
<circle clip-path="url(#clip782)" cx="1127.31" cy="799.666" r="7.2" fill="#009af9" fill-rule="evenodd" fill-opacity="1" stroke="#000000" stroke-opacity="1" stroke-width="3.2"/>
<circle clip-path="url(#clip782)" cx="1185.67" cy="743.018" r="7.2" fill="#009af9" fill-rule="evenodd" fill-opacity="1" stroke="#000000" stroke-opacity="1" stroke-width="3.2"/>
<circle clip-path="url(#clip782)" cx="1244.02" cy="799.273" r="7.2" fill="#009af9" fill-rule="evenodd" fill-opacity="1" stroke="#000000" stroke-opacity="1" stroke-width="3.2"/>
<circle clip-path="url(#clip782)" cx="1302.38" cy="742.461" r="7.2" fill="#009af9" fill-rule="evenodd" fill-opacity="1" stroke="#000000" stroke-opacity="1" stroke-width="3.2"/>
<circle clip-path="url(#clip782)" cx="1360.73" cy="800.391" r="7.2" fill="#009af9" fill-rule="evenodd" fill-opacity="1" stroke="#000000" stroke-opacity="1" stroke-width="3.2"/>
<circle clip-path="url(#clip782)" cx="1419.09" cy="743.36" r="7.2" fill="#009af9" fill-rule="evenodd" fill-opacity="1" stroke="#000000" stroke-opacity="1" stroke-width="3.2"/>
<circle clip-path="url(#clip782)" cx="1477.44" cy="799.352" r="7.2" fill="#009af9" fill-rule="evenodd" fill-opacity="1" stroke="#000000" stroke-opacity="1" stroke-width="3.2"/>
<circle clip-path="url(#clip782)" cx="1535.79" cy="743.697" r="7.2" fill="#009af9" fill-rule="evenodd" fill-opacity="1" stroke="#000000" stroke-opacity="1" stroke-width="3.2"/>
<circle clip-path="url(#clip782)" cx="1594.15" cy="798.593" r="7.2" fill="#009af9" fill-rule="evenodd" fill-opacity="1" stroke="#000000" stroke-opacity="1" stroke-width="3.2"/>
<circle clip-path="url(#clip782)" cx="1652.5" cy="742.648" r="7.2" fill="#009af9" fill-rule="evenodd" fill-opacity="1" stroke="#000000" stroke-opacity="1" stroke-width="3.2"/>
<circle clip-path="url(#clip782)" cx="1710.86" cy="799.552" r="7.2" fill="#009af9" fill-rule="evenodd" fill-opacity="1" stroke="#000000" stroke-opacity="1" stroke-width="3.2"/>
<circle clip-path="url(#clip782)" cx="1769.21" cy="742.164" r="7.2" fill="#009af9" fill-rule="evenodd" fill-opacity="1" stroke="#000000" stroke-opacity="1" stroke-width="3.2"/>
<circle clip-path="url(#clip782)" cx="1827.57" cy="799.17" r="7.2" fill="#009af9" fill-rule="evenodd" fill-opacity="1" stroke="#000000" stroke-opacity="1" stroke-width="3.2"/>
<circle clip-path="url(#clip782)" cx="1885.92" cy="742.554" r="7.2" fill="#009af9" fill-rule="evenodd" fill-opacity="1" stroke="#000000" stroke-opacity="1" stroke-width="3.2"/>
<path clip-path="url(#clip780)" d="
M1722.66 270.476 L2284.68 270.476 L2284.68 166.796 L1722.66 166.796  Z
  " fill="#ffffff" fill-rule="evenodd" fill-opacity="1"/>
<polyline clip-path="url(#clip780)" style="stroke:#000000; stroke-linecap:round; stroke-linejoin:round; stroke-width:4; stroke-opacity:1; fill:none" points="
  1722.66,270.476 2284.68,270.476 2284.68,166.796 1722.66,166.796 1722.66,270.476 
  "/>
<circle clip-path="url(#clip780)" cx="1813.43" cy="218.636" r="23.04" fill="#009af9" fill-rule="evenodd" fill-opacity="1" stroke="#000000" stroke-opacity="1" stroke-width="10.24"/>
<path clip-path="url(#clip780)" d="M1924.55 214.967 Q1926.15 212.096 1928.37 210.731 Q1930.6 209.365 1933.6 209.365 Q1937.66 209.365 1939.85 212.212 Q1942.05 215.036 1942.05 220.268 L1942.05 235.916 L1937.77 235.916 L1937.77 220.407 Q1937.77 216.68 1936.45 214.874 Q1935.13 213.069 1932.42 213.069 Q1929.11 213.069 1927.19 215.268 Q1925.27 217.467 1925.27 221.263 L1925.27 235.916 L1920.99 235.916 L1920.99 220.407 Q1920.99 216.657 1919.67 214.874 Q1918.35 213.069 1915.6 213.069 Q1912.33 213.069 1910.41 215.291 Q1908.49 217.49 1908.49 221.263 L1908.49 235.916 L1904.21 235.916 L1904.21 209.99 L1908.49 209.99 L1908.49 214.018 Q1909.95 211.633 1911.98 210.499 Q1914.02 209.365 1916.82 209.365 Q1919.65 209.365 1921.61 210.8 Q1923.6 212.235 1924.55 214.967 Z" fill="#000000" fill-rule="evenodd" fill-opacity="1" /><path clip-path="url(#clip780)" d="M1959.28 220.245 Q1958.12 218.254 1955.78 218.254 Q1953.44 218.254 1952.28 220.245 Q1951.1 222.235 1951.1 226.217 Q1951.1 230.221 1952.28 232.212 Q1953.44 234.203 1955.78 234.203 Q1958.12 234.203 1959.28 232.212 Q1960.46 230.221 1960.46 226.217 Q1960.46 222.235 1959.28 220.245 M1955.78 216.194 Q1959.51 216.194 1961.47 218.763 Q1963.44 221.332 1963.44 226.217 Q1963.44 231.124 1961.47 233.694 Q1959.51 236.263 1955.78 236.263 Q1952.03 236.263 1950.06 233.694 Q1948.1 231.124 1948.1 226.217 Q1948.1 221.332 1950.06 218.763 Q1952.03 216.194 1955.78 216.194 Z" fill="#000000" fill-rule="evenodd" fill-opacity="1" /><path clip-path="url(#clip780)" d="M1970.11 214.388 L1999.78 214.388 L1999.78 218.277 L1970.11 218.277 L1970.11 214.388 M1970.11 223.832 L1999.78 223.832 L1999.78 227.768 L1970.11 227.768 L1970.11 223.832 Z" fill="#000000" fill-rule="evenodd" fill-opacity="1" /><path clip-path="url(#clip780)" d="M2019.88 204.434 Q2016.27 204.434 2014.44 207.999 Q2012.63 211.541 2012.63 218.67 Q2012.63 225.777 2014.44 229.342 Q2016.27 232.883 2019.88 232.883 Q2023.51 232.883 2025.32 229.342 Q2027.15 225.777 2027.15 218.67 Q2027.15 211.541 2025.32 207.999 Q2023.51 204.434 2019.88 204.434 M2019.88 200.731 Q2025.69 200.731 2028.74 205.337 Q2031.82 209.92 2031.82 218.67 Q2031.82 227.397 2028.74 232.004 Q2025.69 236.587 2019.88 236.587 Q2014.07 236.587 2010.99 232.004 Q2007.93 227.397 2007.93 218.67 Q2007.93 209.92 2010.99 205.337 Q2014.07 200.731 2019.88 200.731 Z" fill="#000000" fill-rule="evenodd" fill-opacity="1" /><path clip-path="url(#clip780)" d="M2040.04 230.036 L2044.92 230.036 L2044.92 235.916 L2040.04 235.916 L2040.04 230.036 Z" fill="#000000" fill-rule="evenodd" fill-opacity="1" /><path clip-path="url(#clip780)" d="M2055.25 235.198 L2055.25 230.939 Q2057.01 231.772 2058.81 232.212 Q2060.62 232.652 2062.35 232.652 Q2066.98 232.652 2069.41 229.55 Q2071.87 226.425 2072.21 220.082 Q2070.87 222.073 2068.81 223.138 Q2066.75 224.203 2064.25 224.203 Q2059.07 224.203 2056.03 221.078 Q2053.03 217.93 2053.03 212.49 Q2053.03 207.166 2056.17 203.948 Q2059.32 200.731 2064.55 200.731 Q2070.55 200.731 2073.7 205.337 Q2076.87 209.92 2076.87 218.67 Q2076.87 226.842 2072.98 231.726 Q2069.11 236.587 2062.56 236.587 Q2060.8 236.587 2059 236.24 Q2057.19 235.893 2055.25 235.198 M2064.55 220.545 Q2067.7 220.545 2069.53 218.393 Q2071.38 216.24 2071.38 212.49 Q2071.38 208.763 2069.53 206.61 Q2067.7 204.434 2064.55 204.434 Q2061.4 204.434 2059.55 206.61 Q2057.72 208.763 2057.72 212.49 Q2057.72 216.24 2059.55 218.393 Q2061.4 220.545 2064.55 220.545 Z" fill="#000000" fill-rule="evenodd" fill-opacity="1" /><path clip-path="url(#clip780)" d="M2085.76 230.036 L2090.64 230.036 L2090.64 234.018 L2086.84 241.425 L2083.86 241.425 L2085.76 234.018 L2085.76 230.036 Z" fill="#000000" fill-rule="evenodd" fill-opacity="1" /><path clip-path="url(#clip780)" d="M2123.49 230.985 L2123.49 221.703 L2115.85 221.703 L2115.85 217.86 L2128.12 217.86 L2128.12 232.698 Q2125.41 234.619 2122.15 235.615 Q2118.88 236.587 2115.18 236.587 Q2107.08 236.587 2102.49 231.865 Q2097.93 227.119 2097.93 218.67 Q2097.93 210.198 2102.49 205.476 Q2107.08 200.731 2115.18 200.731 Q2118.56 200.731 2121.59 201.564 Q2124.65 202.397 2127.21 204.018 L2127.21 208.995 Q2124.62 206.796 2121.71 205.684 Q2118.79 204.573 2115.57 204.573 Q2109.23 204.573 2106.03 208.115 Q2102.86 211.657 2102.86 218.67 Q2102.86 225.661 2106.03 229.203 Q2109.23 232.744 2115.57 232.744 Q2118.05 232.744 2119.99 232.328 Q2121.94 231.888 2123.49 230.985 Z" fill="#000000" fill-rule="evenodd" fill-opacity="1" /><path clip-path="url(#clip780)" d="M2138.21 217.814 L2148.02 217.814 L2148.02 220.453 L2134.18 220.453 L2134.18 217.907 Q2134.97 217.189 2136.43 215.893 Q2144.39 208.833 2144.39 206.657 Q2144.39 205.129 2143.19 204.203 Q2141.98 203.254 2140.02 203.254 Q2138.81 203.254 2137.4 203.671 Q2135.99 204.064 2134.32 204.874 L2134.32 202.027 Q2136.1 201.379 2137.63 201.055 Q2139.18 200.731 2140.5 200.731 Q2143.86 200.731 2145.87 202.258 Q2147.89 203.786 2147.89 206.286 Q2147.89 209.504 2140.22 216.078 Q2138.93 217.189 2138.21 217.814 Z" fill="#000000" fill-rule="evenodd" fill-opacity="1" /><path clip-path="url(#clip780)" d="M2156.03 214.388 L2185.71 214.388 L2185.71 218.277 L2156.03 218.277 L2156.03 214.388 M2156.03 223.832 L2185.71 223.832 L2185.71 227.768 L2156.03 227.768 L2156.03 223.832 Z" fill="#000000" fill-rule="evenodd" fill-opacity="1" /><path clip-path="url(#clip780)" d="M2196.61 231.981 L2204.25 231.981 L2204.25 205.615 L2195.94 207.282 L2195.94 203.022 L2204.2 201.356 L2208.88 201.356 L2208.88 231.981 L2216.52 231.981 L2216.52 235.916 L2196.61 235.916 L2196.61 231.981 Z" fill="#000000" fill-rule="evenodd" fill-opacity="1" /><path clip-path="url(#clip780)" d="M2225.96 230.036 L2230.85 230.036 L2230.85 235.916 L2225.96 235.916 L2225.96 230.036 Z" fill="#000000" fill-rule="evenodd" fill-opacity="1" /><path clip-path="url(#clip780)" d="M2241.08 201.356 L2259.44 201.356 L2259.44 205.291 L2245.36 205.291 L2245.36 213.763 Q2246.38 213.416 2247.4 213.254 Q2248.42 213.069 2249.44 213.069 Q2255.22 213.069 2258.6 216.24 Q2261.98 219.411 2261.98 224.828 Q2261.98 230.406 2258.51 233.508 Q2255.04 236.587 2248.72 236.587 Q2246.54 236.587 2244.27 236.217 Q2242.03 235.846 2239.62 235.106 L2239.62 230.406 Q2241.7 231.541 2243.93 232.096 Q2246.15 232.652 2248.63 232.652 Q2252.63 232.652 2254.97 230.545 Q2257.31 228.439 2257.31 224.828 Q2257.31 221.217 2254.97 219.11 Q2252.63 217.004 2248.63 217.004 Q2246.75 217.004 2244.88 217.42 Q2243.02 217.837 2241.08 218.717 L2241.08 201.356 Z" fill="#000000" fill-rule="evenodd" fill-opacity="1" /></svg>
